<?xml version="1.0" encoding="utf-8"?>
<!-- Generator: Adobe Illustrator 26.2.1, SVG Export Plug-In . SVG Version: 6.00 Build 0)  -->
<svg version="1.1" id="Layer_1" xmlns="http://www.w3.org/2000/svg" xmlns:xlink="http://www.w3.org/1999/xlink" x="0px" y="0px"
	 viewBox="0 0 960 560" style="enable-background:new 0 0 960 560;" xml:space="preserve">
<g>
	<g>
		<path d="M537,406c-6.76-2.31-13.47-3.74-20.85-3.77c-6.95-0.03-14.14-2.27-20.78-4.74c-10.9-4.06-21.78-8.44-32-13.93
			c-6.73-3.61-12.5-9.18-18.32-14.3c-4.15-3.65-0.7-7.24,1.75-11.41c-2.68-1.48-5.26-2.76-7.69-4.29c-2.18-1.37-5.09-2.56-6.13-4.62
			c-9.37-18.63-17.37-37.7-20.29-58.66c-3.02-21.72,3.65-41.13,12.86-60.04c6.98-14.32,16.67-26.26,30.51-34.83
			c5.87-3.64,10.6-9.09,15.99-13.54c7.84-6.46,15.71-12.56,26.36-14.37c4.53-0.77,8.54-4.53,12.82-6.88
			c2.9-1.59,5.84-3.09,8.77-4.62c2,0,4,0,6,0c1.2,0.81,2.4,1.61,4.4,2.96c-2.11,2.08-3.7,4.18-5.76,5.58
			c-5.63,3.81-11.49,7.27-17.19,10.97c-9.79,6.37-17.83,14.6-23.97,24.44c-5.13,8.22-12.11,15.31-14.59,25.23
			c-1.2,4.8-3.14,5.11-12.6,5.48c5.36,4.85,2.55,9.89,1.18,14.9c-3.1,11.35-4.85,22.73-2.4,34.53c1.81,8.73,2.92,17.6,4.52,26.37
			c1.03,5.68,0.4,10.94-3.26,15.89c0.81,1.01,1.41,2.41,2.44,2.93c5.47,2.75,6.95,8.13,8.84,13.16
			c12.36,32.93,37.17,50.81,70.43,58.65c4.01,0.95,7.87,2.58,11.79,3.89c-0.07,0.56-0.14,1.13-0.21,1.69
			c-1.54,1.1-3.07,2.21-4.61,3.31C542.33,406,539.67,406,537,406z"/>
	</g>
</g>
</svg>
