<?xml version="1.0" encoding="utf-8"?>
<!-- Generator: Adobe Illustrator 26.2.1, SVG Export Plug-In . SVG Version: 6.00 Build 0)  -->
<svg version="1.1" id="Layer_1" xmlns="http://www.w3.org/2000/svg" xmlns:xlink="http://www.w3.org/1999/xlink" x="0px" y="0px"
	 viewBox="0 0 960 560" style="enable-background:new 0 0 960 560;" xml:space="preserve">
<g>
	<g>
		<path d="M531,406c-5.48-4.39-11.02-8.73-16.43-13.2c-2.35-1.94-4.81-3.91-6.6-6.33c-7.83-10.58-0.63-37.07,7.9-42.28
			c7.06-4.31,12.08-10.24,17.62-15.9c3-3.07,6.58-4.08,10.96-2.72c1.78,0.55,4.01-0.32,7.05-0.65c-6.11-10.11-2.7-18.38,1.03-26.77
			c6.63-14.89,7.54-30.44,4.52-46.31c-0.4-2.1-0.95-4.36-2.1-6.1c-3.05-4.58-2.54-8.16,1.84-11.54c1.12-0.87,2.36-3.29,1.92-4.1
			c-0.72-1.32-2.74-2.53-4.3-2.67c-3.54-0.31-5.01-2.11-6.35-5.23c-6.59-15.41-15.31-29.2-30.61-37.59
			c-0.68-0.37-1.79-1.08-1.74-1.52c0.64-5.41-3.99-6.16-7.16-7.6c-4.83-2.17-10.02-3.54-15.05-5.26c-1.48-0.51-2.95-1.07-4.8-1.74
			c2.38-4,4.17-6.31,9.18-4.8c12.41,3.74,25.12,6.48,37.57,10.1c4.22,1.23,8.41,3.36,11.94,5.99c13.85,10.31,26.08,22.28,35.3,37.02
			c1.31,2.09,1.55,4.87,2.17,7.37c0.64,2.57,0.93,5.23,1.74,7.74c7.3,22.56,6.26,45.41,2.58,68.37c0.13,0.3,0.18,0.76,0.4,0.87
			c8.24,4.27,10.12,11.12,7.35,19.37c-2.2,6.57-4.97,12.95-7.7,19.33c-2.26,5.29-5.13,10.32-7.15,15.69
			c-2.69,7.15-4.46,14.65-7.27,21.75c-5.45,13.76-14.53,23.76-29.78,26.83c-1.73,0.35-3.35,1.23-5.01,1.87C537,406,534,406,531,406z
			"/>
		<path d="M434,156c5.54,2.56,10.16,5.82,12.97,11.74c2.76,5.82,7.21,10.83,9.97,16.65c4.4,9.29,2.68,12.75-5.5,18.9
			c-4.57,3.44-8.18,8.21-11.97,12.59c-6.93,8.01-10.63,9.73-20.22,9.08c-2.99,4.82-6.07,9.33-8.67,14.11
			c-3.73,6.84-7.22,13.81-10.58,20.84c-1.53,3.21-2.07,6.76-6.19,8.24c-2.18,0.78-2.95,3.13-0.97,5.32
			c6.8,7.52,4.79,15.96,3.68,24.92c-2.78,22.49-2.81,44.99,8.72,65.6c5.75,10.27,12.47,19.99,18.64,30.03
			c0.67,1.08,0.58,2.62,0.85,3.95c-1.49,0.12-3.36,0.89-4.4,0.27c-14.68-8.85-28.02-19.32-37.3-34c-2.62-4.15-4.34-9.02-5.65-13.79
			c-0.67-2.44-0.38-6.01,1.02-7.97c2.61-3.66,0.83-5.58-1.98-6.46c-5.69-1.78-6.66-5.81-7.32-10.97
			c-1.39-10.85-4.5-21.56-4.94-32.42c-0.58-14.05,0.61-28.19,1.31-42.28c0.27-5.47,1.4-10.89,1.91-16.36
			c0.29-3.09,1.67-4.67,4.67-5.56c6.46-1.92,7.77-4.93,7.32-11.5c-0.31-4.65,0.38-9.46,1.32-14.06c0.86-4.2,2.54-8.26,4.05-12.31
			c6.12-16.38,17.48-27.07,34.48-31.66c2.35-0.63,4.51-1.93,6.77-2.91C428.67,156,431.33,156,434,156z"/>
	</g>
</g>
</svg>
