<?xml version="1.0" encoding="utf-8"?>
<!-- Generator: Adobe Illustrator 26.2.1, SVG Export Plug-In . SVG Version: 6.00 Build 0)  -->
<svg version="1.1" id="Layer_1" xmlns="http://www.w3.org/2000/svg" xmlns:xlink="http://www.w3.org/1999/xlink" x="0px" y="0px"
	 viewBox="0 0 960 560" style="enable-background:new 0 0 960 560;" xml:space="preserve">
<g>
	<g>
		<path d="M503,156c2.53,1.85,5.12,2.91,8.31,1.45c1.15-0.52,2.62-0.57,3.93-0.49c9.96,0.55,19.97,0.79,29.87,1.89
			c11.71,1.3,20.82,7.51,27.74,16.94c1.6,2.18,3.68,4.15,1.24,7.43c-2.26,3.02-4.22,5.08-8.5,4.55
			c-15.78-1.97-31.01,0.09-44.76,8.49c-5.35,3.27-9.84,7.91-14.86,11.73c-4.22,3.21-8.59,6.22-13.01,9.16
			c-2.67,1.77-5.01,1.54-6.3-1.88c-0.29-0.77-0.65-1.67-1.26-2.13c-1.5-1.13-3.16-2.04-4.75-3.04c-0.87,1.67-2.28,3.27-2.5,5.03
			c-0.36,2.77,0,5.65,0.19,8.47c0.27,4.12-0.01,8-3.44,10.97c-0.59,0.51-1.09,1.31-1.29,2.07c-3.61,14.17-8.36,28.22-4.28,43.18
			c0.56,2.05,0.61,4.29,0.58,6.44c-0.12,8.08-2.1,10.67-10.3,12.73c15.64,6.47,19.41,20.47,23.04,33.98
			c5.4,20.12,18.26,32.24,37.44,38.7c10.25,3.45,20.32,7.48,30.7,10.47c3.56,1.03,7.84-0.05,11.72-0.62
			c3.27-0.47,6.42-1.89,9.69-2.29c1.52-0.19,3.82,0.6,4.66,1.76c0.79,1.07,0.82,3.96-0.03,4.77c-4.98,4.71-9.76,10.06-15.67,13.22
			c-6.45,3.46-14.04,4.78-21.14,7.04c-4.67,0-9.33,0-14,0c-1.75-0.33-3.53-1.07-5.25-0.93c-20.64,1.7-39.44-6.34-58.78-11.28
			c-5.7-1.45-11.1-4.45-16.32-7.33c-5.2-2.87-9.82-6.16-11.11-13.06c-1.41-7.56-5.53-9.31-13.05-7.73c-1.38,0.29-3.51-0.6-4.59-1.66
			c-6.74-6.67-13.79-13.14-19.72-20.49c-3.95-4.9-7.16-10.86-9.02-16.87c-4.93-15.88-4.51-32.16-1.69-48.45
			c0.63-3.65,2.04-6.04,5.76-7.2c3.89-1.21,3.9-3.65,1.19-6.3c-0.95-0.93-2.04-1.72-3.11-2.49c-6.95-5-6.94-4.98-3.71-12.58
			c0.45-1.07,0.73-2.21,1.05-3.33c4.76-16.22,12.11-31.25,20.38-45.96c7.06-12.55,17.33-17.48,30.8-16.03
			c0.9-1.96,1.27-4.35,2.66-5.49c3.55-2.9,7.29-5.89,11.45-7.68c9.47-4.07,19.22-7.47,28.88-11.08c1.06-0.4,2.26-0.41,3.37-0.7
			c4.27-1.1,8.53-2.23,12.79-3.35C499.67,156,501.33,156,503,156z"/>
	</g>
</g>
</svg>
