<?xml version="1.0" encoding="utf-8"?>
<!-- Generator: Adobe Illustrator 26.2.1, SVG Export Plug-In . SVG Version: 6.00 Build 0)  -->
<svg version="1.1" id="Layer_1" xmlns="http://www.w3.org/2000/svg" xmlns:xlink="http://www.w3.org/1999/xlink" x="0px" y="0px"
	 viewBox="0 0 960 560" style="enable-background:new 0 0 960 560;" xml:space="preserve">
<g>
	<g>
		<path d="M468,156c6,0,12,0,18,0c12.01,1.91,20.94,9.04,29.12,17.05c2.68-4.32,5.43-8.72,7.76-12.47
			c10.64,3.77,20.21,7.08,29.72,10.57c8.55,3.14,16.47,7.24,21.72,15.18c3.03,4.57,5.97,9.23,9.34,13.55
			c13.39,17.14,16.79,37.46,18.1,58.22c0.55,8.67-2.2,17.89-9.81,22.45c-10.32,6.18-21.62,11.18-33.07,14.95
			c-16.1,5.29-42.22-0.83-51.27-22.4c-1.34-3.2-3.36-6.13-5.17-9.12c-4.01-6.63-9.1-11.84-17.2-13.26c-2.27-0.4-4.45-1.36-6.62-2.21
			c-7.12-2.79-13.8-6.05-16-14.4c-0.22-0.84-1.65-1.98-2.42-1.91c-1.08,0.09-2.75,1-3,1.89c-2.82,9.8-10.86,13.02-19.37,15.34
			c-15.94,4.34-20.34,12.49-21.59,30.47c-0.32,4.61,0.68,9.3,0.67,13.96c-0.01,9.26,2.06,17.9,6.69,25.93
			c3.29,5.69,5.52,11.51,0.33,18.52c3.98-0.23,6.88-0.43,9.79-0.56c3.2-0.15,6.1,0.42,7.16,4.01c3.49,11.78,12.27,17.38,23.5,19.88
			c17.76,3.95,35.71,5.92,53.89,3.64c4.25-0.53,8.68-1.24,12.54-2.96c28.66-12.77,50.47-32.37,61.27-62.69
			c0.52-1.47,1.74-2.68,2.64-4.02c0.68,0.28,1.37,0.57,2.05,0.85c-0.78,5.87-1.11,11.84-2.41,17.59
			c-4.96,21.89-17.1,39.84-31.39,56.65c-7.75,9.11-17.08,15.82-28.08,20.23c-10.65,4.28-21.41,8.29-32.14,12.37
			c-0.88,0.34-1.92,0.24-2.86,0.45c-3.3,0.73-6.59,1.5-9.88,2.26c-9.67,0-19.33,0-29,0c-8.75-3.09-17.16-6.69-22.39-17.05
			c-2.27,2.91-3.58,5.13-5.42,6.74c-1.11,0.97-3.24,1.67-4.59,1.31c-20.59-5.44-36.89-16.37-46.32-36.23
			c-3.63-7.65-7.94-14.98-11.83-22.51c-8.67-16.76-11.83-33.63-0.88-51.07c-0.56-0.37-1.29-1.18-2.16-1.36
			c-6.9-1.47-7.94-2.17-7.3-9.03c1.05-11.23,1.97-22.58,4.42-33.56c3.03-13.62,7.55-26.94,15.69-38.58
			c2.23-3.18,5.16-5.95,8.09-8.54c1.54-1.36,3.69-2.45,5.7-2.75c2.04-0.3,4.26,0.49,6.39,0.84c2.83,0.46,4.17-0.52,5.58-3.33
			c1.96-3.88,4.57-8.22,8.11-10.37c11.75-7.15,23.85-13.81,36.22-19.82C455.7,158.08,462.07,157.51,468,156z"/>
	</g>
</g>
</svg>
