<?xml version="1.0" encoding="utf-8"?>
<!-- Generator: Adobe Illustrator 26.2.1, SVG Export Plug-In . SVG Version: 6.00 Build 0)  -->
<svg version="1.1" id="Layer_1" xmlns="http://www.w3.org/2000/svg" xmlns:xlink="http://www.w3.org/1999/xlink" x="0px" y="0px"
	 viewBox="0 0 960 560" style="enable-background:new 0 0 960 560;" xml:space="preserve">
<g>
	<g>
		<path d="M523,156c10.36,5.11,11.35,15.29,2.22,22.8c-0.77,0.63-1.67,1.22-2.18,2.04c-3.15,5.07-7.05,8.36-11.73,6.3
			c-3,3.01-5.01,5.38-7.38,7.34c-8.38,6.94-17.97,12.56-23.92,22.01c3.19,2.53,6.38,1.07,9.69,0.78c7.7-0.68,15.46-0.79,23.19-1.09
			c5.85-0.22,7.95-2.61,7.26-8.36c-0.9-7.47,7.58-19.34,14.66-20.27c-1.61-7.12,4.59-8.33,8.66-10.81
			c5.8-3.52,18.94,1.17,21.73,7.32c2.22,4.87-2.69,12.81-8.24,14.77c-0.85,2.99-1.33,5.29-2.16,7.45c-0.88,2.28-2.09,4.43-3.66,7.68
			c5.91,0,10.9-0.05,15.88,0.01c4.58,0.06,9.17,0.13,13.74,0.43c1.1,0.07,2.99,1.06,3.04,1.73c0.21,3,1.07,7.56-0.49,8.78
			c-4.52,3.55-6.11,8.57-8.86,13.03c-2.28,3.69-5.48,5.44-10.09,4.91c-3.92-0.45-7.93-0.09-12.07-0.09
			c-0.43-1.82-0.8-3.36-1.41-5.92c-2.34,4.71-5.25,5.71-9.55,4.5c-1.52-0.43-4.07,1.35-5.56,2.75c-1.38,1.29-2.1,3.37-2.87,5.21
			c-1.4,3.35-3.52,5.12-7.37,4.23c-0.88-0.2-1.89,0.17-2.58,0.25c1.75,1.22,4.4,2.11,5,3.75c0.68,1.84-0.48,4.37-0.88,6.84
			c6.16,3.89,16.08-1.3,20.25,7.9c5.33-3.96,20.18,0.07,22.93,6.05c0.25,0.55,0.36,1.34,0.16,1.88c-2.45,6.82-4.35,13.93-7.63,20.34
			c-3.27,6.4-11.72,6.38-17.33,1.79c-6.19-5.06-12.97-9.5-19.89-13.53c-2.24-1.31-5.76-0.82-8.62-0.48
			c-1.18,0.14-2.61,1.84-3.15,3.15c-1.84,4.44-3.19,9.09-5.06,13.53c-0.64,1.52-2.23,2.64-2.86,3.35c-1.04,3.07-1.84,5.77-2.87,8.38
			c-2.37,6.03-4.69,12.08-7.34,17.99c-1.4,3.13-3.44,5.98-5.2,8.95c-0.77,1.28-1.77,2.46-2.34,3.82
			c-3.14,7.49-6.47,14.91-9.17,22.56c-2.19,6.19-3.45,12.71-5.35,19.01c-1.72,5.69-3.74,11.29-5.63,16.92c-0.33,0-0.67,0-1,0
			c1.99-11.9,3.97-23.8,5.96-35.7c0.68-4.1,1.17-8.25,2.1-12.29c2-8.74,4.69-17.36,6.14-26.18c0.61-3.69,8.4-2.03,4.87-8.47
			c-1.54-2.82,0.13-7.59,0.83-11.38c0.69-3.75,1.78-7.46,3.1-11.04c1.27-3.45,3.07-6.7,4.7-10.16c-1.34-2.04-3.33-5.07-5.81-8.84
			c-3.22-0.78-7.84-1.91-12.46-3.03c0.13-0.27,0.26-0.53,0.39-0.8c-4.13,0.42-8.25,1.02-12.4,1.22c-4.03,0.19-6.12,1.56-5.77,6.03
			c0.14,1.74-1.07,3.59-1.67,5.39c-0.19,0.55-0.63,1.09-0.6,1.62c0.26,4,0.77,8,0.91,12.01c0.39,11.13,0.67,22.27,0.92,33.41
			c0.04,1.93-0.3,3.86-0.46,5.79c-0.66,0.09-1.32,0.17-1.98,0.26c-1.67-4.73-3.99-9.34-4.9-14.21c-2.55-13.72-4.47-27.57-6.81-41.33
			c-0.26-1.52-1.53-3-2.64-4.22c-1.07-1.18-2.55-1.99-5.02-3.85c-14.93,5.29-30.89,10.94-46.34,16.41
			c6.07-12.03,25.89-24.38,33.77-22.31c5.55-2.95,9.84-5.09,13.99-7.47c3.58-2.05,7.01-4.36,11.41-7.12
			c-7.43-3.03-5.95-8.11-5.09-12.34c0.79-3.86,0.62-6.52-3.11-6.75c-3.31,0.6-6.82,2.22-9.9,1.64c-18.14-3.46-34.81,1.86-51.48,7.68
			c-0.42,0.15-0.94,0.02-2.4,0.02c4.55-3.28,8.09-6.72,12.33-8.71c9.44-4.44,19.36-7.87,28.82-12.27
			c5.02-2.33,10.88-2.26,15.41-5.86c0.73-0.58,2.27-0.03,3.38-0.26c5.5-1.14,11.02-2.25,16.46-3.65c1-0.26,1.72-1.75,2.5-2.72
			c1.63-2.02,3.21-4.07,4.34-6.31c1.08-2.13,2.2-4.23,3.21-6.39c0.55-1.17,1.06-2.39,1.31-3.65c1.11-5.58,8.72-13.41,13.71-14.34
			c1.45-2.68,2.37-5.46,4.15-7.49c8.07-9.19,16.86-17.46,29.35-20.37c1.97-0.46,3.85-1.28,5.77-1.94C519.67,156,521.33,156,523,156z
			 M466.23,262.02c11,0,21.52,0.45,31.94-0.4c1.99-0.16,4.36-5.3,5.07-8.47c0.62-2.76-0.87-5.99-1.39-8.8
			c-2.83-1.49-6.13-3.22-9.25-4.86c-1.45,1.02-3.05,3.08-4.84,3.25c-4.59,0.44-9.33,0.51-13.88-0.15c-4.75-0.69-7.39,0.58-7.62,5.27
			C466.07,251.99,466.23,256.14,466.23,262.02z"/>
	</g>
</g>
</svg>
