<?xml version="1.0" encoding="utf-8"?>
<!-- Generator: Adobe Illustrator 26.2.1, SVG Export Plug-In . SVG Version: 6.00 Build 0)  -->
<svg version="1.1" id="Layer_1" xmlns="http://www.w3.org/2000/svg" xmlns:xlink="http://www.w3.org/1999/xlink" x="0px" y="0px"
	 viewBox="0 0 960 560" style="enable-background:new 0 0 960 560;" xml:space="preserve">
<g>
	<g>
		<path d="M356,288c2.85-15.84,14.52-27.53,19.89-42.2c0.37-1,1.52-1.71,2.31-2.55c2.12-2.28,3.04-4.5,3.26-8.06
			c0.3-4.93,3.41-9.71,5.41-14.52c1.16-2.79,2.6-5.47,3.74-8.27c2.53-6.2,4.63-12.6,7.54-18.61c1.57-3.24,12.04-5.58,16.04-4.37
			c4.51,1.36,9.02,2.71,13.19,3.96c-6.55,9.17-13.1,18.38-19.71,27.55c-0.45,0.63-1.24,1.03-1.93,1.45
			c-4.43,2.71-4.78,5.17-0.56,9.23c-13.37,10.66-15.61,27.9-25.75,42.4c3.79-0.67,6.25-1.27,8.75-1.52c3.94-0.39,7.95-1,11.85-0.66
			c5.13,0.43,9.1,5.53,15.48,2.36c4.63-2.31,10.51-2.08,16.28-3.07c-3.99-5.03-12.24-0.59-13.87-7.09
			c-4.37,0.48-8.57,1.36-12.74,1.24c-2.31-0.07-5.29-1.24-6.62-2.96c-0.88-1.14,0.1-4.42,1.14-6.24c4.6-8.06,9.55-15.92,14.3-23.9
			c3.73-6.26,6.56-13.27,11.22-18.71c4.76-5.56,8.09-11.93,12.22-17.8c3.31-4.71,7.55-4.87,12.15-4.93
			c5.68-0.08,16.15,7.72,18.24,13.01c-16.33,11.8-30.73,25.34-42.91,42.17c1.82,0.64,3.14,1.18,4.51,1.55
			c1.41,0.37,2.88,0.57,4.52,0.88c0,1.83,0,3.43,0,5.35c0.93-0.31,1.74-0.33,2.07-0.74c3-3.66,5.84-7.45,8.88-11.07
			c0.91-1.08,2.25-2.37,3.5-2.5c11.69-1.2,23.13-5.57,35.11-3.08c1.79,0.37,3.45,1.33,5.8,2.26c2.83-2.54,6.52-2.27,10.83-0.88
			c8.29,2.67,16.21,5.68,22.46,12.08c0.73,0.75,2.67,1.29,3.46,0.85c3.28-1.8,5.61-0.18,8.26,1.4c5.57,3.31,11.41,6.18,16.88,9.63
			c2.54,1.6,4.49,4.13,7.2,6.71c3.12-1.49,6.07,0.36,8.59,3.34c10.53,12.43,20.84,25,25.64,41.03c0.28,0.95,1.24,1.71,1.95,2.5
			c0.64,0.71,2.07,1.68,1.94,1.95c-2.49,5.2,2.39,8.38,3.34,12.6c1.22,5.48,2.59,10.93,4.04,16.36c0.45,1.68,1.37,3.24,2.07,4.85
			c0,1.33,0,2.67,0,4c-0.94,4.28-1.88,8.56-2.83,12.85c-0.3,1.35-0.61,2.69-0.91,4.04c-0.51,0.07-1.02,0.14-1.54,0.2
			c-1.22-3.93-2.81-7.78-3.55-11.8c-0.78-4.24-0.32-8.72-1.22-12.91c-0.69-3.2-2.6-6.15-4.12-9.14c-2.36-4.64-4.72-9.29-7.3-13.8
			c-3.22-5.61-6.73-11.05-9.99-16.64c-1.91-3.28-3.09-7.12-5.48-9.95c-2.22-2.62-5.8-4.03-8.45-6.35c-1.97-1.72-3.98-3.79-4.98-6.13
			c-2.27-5.31-2.55-5.56-6.84-2.02c-9.49-6.79-19.06-13.18-30.53-16.1c-1.42-0.36-2.76-1.13-4.04-1.88
			c-6.16-3.61-12.66-5.81-19.66-7.68c-6.33-1.68-12.47-0.54-18.58-1.81c-1.32-0.27-3.1,1.96-4.75,2.9
			c-3.71,2.1-7.47,4.12-11.52,6.34c4.85,4.39,12.58,0.93,15.42,7.61c7.39-2,16.82,0.68,19.99,5.13
			c14.62-1.69,24.09,5.98,33.04,14.45c1.87,0.44,3.92,0.52,5.57,1.38c3.18,1.67,6.66,3.27,9.06,5.81c3.75,3.96,7.11,8.44,9.89,13.14
			c2.41,4.09,3.47,8.68,8.55,11.1c2.31,1.1,3.84,4.83,4.72,7.68c1.22,3.93,0.88,7.63,6.1,10.07c3.47,1.62,5.62,7.44,6.96,11.81
			c1.29,4.18,0.92,8.91,0.98,13.4c0.02,1.4-0.9,2.82-1.5,4.55c-1.18-0.88-1.62-1.03-1.68-1.27c-2.86-12.55-12.84-19.06-22.11-26.2
			c-1.01-0.78-2.18-1.94-2.38-3.09c-0.94-5.4-4.45-8.59-8.59-11.7c-2.73-2.06-7-3.33-6.31-8.42c0.15-1.11-1.81-2.5-2.85-3.84
			c-3.44,4.49-8.27,4.07-11.9-0.28c-2.28-2.74-5.16-4.98-7.67-7.54c-1.48-1.51-2.77-3.2-4.56-5.29c-8.21-3.28-18.8-3.33-26-11.24
			c-3.54,0.46-7.41,0.97-11.71,1.53c0.15,1.28,0.15,2.92,0.55,4.46c2.08,7.89,1.81,15.47-1,23.32c-1.98,5.5-2.41,11.58-3.34,17.43
			c-1.7,10.62-2.3,11.73-11.44,19.15c6.76-20.72,7.26-41.54,1.35-63.66c-3.25,1.78-5.29,3.02-7.45,4.03
			c-1.29,0.6-2.74,1.14-4.13,1.19c-5.35,0.18-7.3,2.26-6.04,7.28c1.82,7.23,3.06,14.79,6.14,21.47c4.16,9.03,1.48,17.52-0.29,26.43
			c-0.33-1.29-0.99-2.6-0.94-3.88c0.36-8.61-3.45-15.67-7.92-22.57c-1.13-1.74-2.21-3.86-2.32-5.86
			c-0.39-6.84-1.04-13.36-10.01-16.08c-0.44,0.21-2.3,0.93-3.99,1.93c-5.51,3.26-10.9,6.71-16.44,9.92
			c-8.95,5.18-19.53,2.79-25.39-5.59c-3.49-4.99-0.2-12.62,6.28-14.48c1.24-0.36,2.55-0.48,3.78-0.7c0.27-2.16,0.51-4.04,0.83-6.53
			c-4.4-0.82-8.4-4.43-13.74-1.38c-1.59,0.91-4.25-0.29-6.37-0.03c-4.97,0.6-9.9,1.51-14.84,2.29C356,290.67,356,289.33,356,288z"/>
	</g>
</g>
</svg>
