<?xml version="1.0" encoding="utf-8"?>
<!-- Generator: Adobe Illustrator 26.2.1, SVG Export Plug-In . SVG Version: 6.00 Build 0)  -->
<svg version="1.1" id="Layer_1" xmlns="http://www.w3.org/2000/svg" xmlns:xlink="http://www.w3.org/1999/xlink" x="0px" y="0px"
	 viewBox="0 0 960 560" style="enable-background:new 0 0 960 560;" xml:space="preserve">
<g>
	<g>
		<path d="M606,196c-7.23,2.41-14.42,4.96-21.73,7.09c-1.39,0.41-3.25-0.82-5.61-1.51c-4.14,2.35-5.5,6.74-5.58,12.29
			c-0.09,6.39,0.09,12.92-3.61,18.84c-0.87,1.4,0.7,4.23,0.9,6.43c0.19,2.04,0.26,4.14-0.02,6.16c-0.46,3.36-1.38,6.66-1.85,10.02
			c-0.46,3.28-0.54,6.6-0.88,9.9c-0.1,0.98-0.27,2.59-0.82,2.79c-8.04,2.94-2.38,9.03-3.1,13.55c-0.85,5.39,0.32,11.45-1.72,16.22
			c-3.65,8.51-1.91,17.09-3.37,25.32c5.09,2.31,10.04-2.69,13.27,0.01c6.42-0.23,11.85-0.66,17.25-0.43c1.15,0.05,3,2.45,3.13,3.89
			c0.56,6.26,0.71,12.57,0.75,18.86c0.01,1.16-0.94,3.15-1.79,3.36c-6.21,1.54-12.48,3-18.81,3.91c-3.9,0.56-7.94,0.1-12.33,0.1
			c0.23-1.96,0.4-3.49,0.74-6.42c-4.14,1.43-7.61,2.63-11.08,3.84c0.37,0.39,0.75,0.79,1.12,1.18c0,2.86,0.42,5.8-0.07,8.57
			c-2.05,11.62-4.36,23.2-6.61,34.79c-0.28,1.44-0.75,2.85-1.13,4.27c-0.44-0.03-0.89-0.05-1.33-0.08
			c-0.29-0.97-0.78-1.94-0.82-2.93c-0.66-14.19-1.32-28.37-1.81-42.56c-0.1-2.94-1.24-3.61-3.99-3.49
			c-13.43,0.62-26.89,0.36-40.07,4.2c-3.71,1.08-8.2-0.73-12.33-0.8c-2.44-0.04-5.14,0.22-7.27,1.27c-3.23,1.6-6.03,3.06-9.82,1.42
			c-1.43-0.62-3.63,0.49-5.46,0.89c-1.6,0.34-3.18,1.16-4.75,1.12c-9.48-0.23-18.95-0.69-28.42-0.98c-3.15-0.1-6.34-0.21-9.44,0.19
			c-4.12,0.53-8.21,1.94-11.42-2.25c-0.44-0.57-2.18-0.93-2.67-0.55c-7.25,5.65-14.56,0.03-21.77-0.07
			c-7.47-0.1-14.92-2.28-22.37-3.58c-1.12-0.2-2.22-0.56-3.32-0.85c0-0.33,0-0.67,0-1c10.7-1.37,21.38-2.98,32.11-4.05
			c8.71-0.87,17.49-1.15,26.24-1.6c0.9-0.05,2.2,0.18,2.69,0.79c1.95,2.39,3.72,2.88,5.92,0.33c0.59-0.68,1.6-1.36,2.44-1.4
			c7.76-0.33,15.52-0.58,23.28-0.71c1.42-0.02,2.85,0.64,4.29,0.93c3.05,0.6,5.76,1.28,8.84-1.13c2.02-1.57,5.56-1.31,8.45-1.6
			c3.85-0.39,8.49,0.77,11.46-0.99c7.7-4.56,15.89-5.47,24.39-5.98c2.6-0.16,5.17-1.03,7.74-1.58c0.32-0.07,0.76-0.43,0.91-0.32
			c8.15,5.52,13.68-4.51,21.73-3.53c7.19,0.88,8.27-2.15,8.3-10.22c0.01-2.07,0.76-4.14,1.27-6.76c-0.32-3.77-2.54-9.26-0.73-12.54
			c4.89-8.87-0.29-18.54,3.61-27.15c0.2-0.44,0.38-1.09,0.2-1.46c-4.08-8.27,0.07-16.91-1.12-25.31c-0.6-4.26-1.04-8.58-1.03-12.87
			c0.01-3.17,0.86-6.34,1.42-10.06c-4.46-3.64-2.32-9.12-2.22-14.32c0.04-2.19-0.84-4.41-2.22-6.97c-3.36,5.73-7.79,4.93-12.8,4.91
			c-9.75-0.04-19.53,1.2-29.26,2.24c-2.88,0.31-5.64,1.73-7.07,2.19c-5.74-1.3-10.41-2.34-15.07-3.42c-0.74-0.17-1.5-0.4-2.14-0.78
			c-2.34-1.38-3.76,0.17-5.9,0.92c-5.47,1.93-12.24,4.26-17.14,2.55c-4.84-1.69-7.78-4.49-11.32,1.1c-0.31,0.49-2.61,0.52-3.09-0.03
			c-2.45-2.82-4.62-0.6-7.12-0.25c-7.32,1.04-14.73,1.67-22.12,1.94c-1.5,0.05-3.09-2.18-4.12-2.96c-1.59,1.33-3.16,3.74-5.03,4
			c-3.63,0.51-7.45-0.03-11.14-0.53c-0.8-0.11-1.97-1.89-1.97-2.9c0-7.09-0.06-14.2,0.68-21.23c0.16-1.58,3.26-3.85,5.2-4.07
			c5.93-0.67,11.96-0.61,17.95-0.55c1.48,0.02,2.94,1.16,4.88,1.98c7.99-4.9,22.99-4.63,27.37,1.23c4.39-4.19,9.44-3.96,14.82-2.21
			c1.19,0.39,3.04-0.01,4.13-0.73c5-3.31,10.04-0.96,15.01-0.25c1.27,0.18,2.35,1.72,3.91,2.95c3.97-1.19,7.06-5.54,12.6-4.19
			c4.74,1.16,9.59,1.31,12.5,5.73c0.55,0.03,1.01,0.2,1.16,0.05c7.52-7.56,16.6-1.7,24.86-2.83c1.59-0.22,3.32,0.25,4.94,0.6
			c4.76,1.02,6.22-1.51,6.49-5.67c0.28-4.45,0.76-8.89,1.13-13.14c2.53-0.81,4.78-1.3,6.84-2.22c7.88-3.51,15.64-0.26,23.41,0.47
			c0.81,0.08,1.98,2.59,1.97,3.97c-0.03,5.93-0.53,11.86-0.62,17.79c-0.02,1.22,0.91,3.49,1.5,3.53c8.87,0.52,17.39,5.37,26.55,2.28
			C606,194,606,195,606,196z"/>
	</g>
</g>
</svg>
