<?xml version="1.0" encoding="utf-8"?>
<!-- Generator: Adobe Illustrator 26.2.1, SVG Export Plug-In . SVG Version: 6.00 Build 0)  -->
<svg version="1.1" id="Layer_1" xmlns="http://www.w3.org/2000/svg" xmlns:xlink="http://www.w3.org/1999/xlink" x="0px" y="0px"
	 viewBox="0 0 960 560" style="enable-background:new 0 0 960 560;" xml:space="preserve">
<g>
	<g>
		<path d="M606,306c-2.9,1.6-5.88,3.06-8.67,4.83c-11.41,7.23-23.34,12.77-37.42,12.29c-0.6-2.37-1.21-4.75-1.68-6.6
			c-14.11,2.59-26.61-1.26-38.96-6.87c0.55-2.67,1.04-5.01,1.74-8.42c-3.3,2.08-5.6,3.52-7.85,4.94
			c-6.78-8.36-16.35-10.19-26.19-12.84c0.08-1.62,0.17-3.48,0.27-5.34c-0.3-0.15-0.6-0.3-0.9-0.45c-1.07,2.17-2.15,4.33-3,6.05
			c-9.19,1.13-18.36,2.26-27.66,3.4c-0.59-1.47-1.12-2.81-2.12-5.31c-0.52,5.1-3.48,5.76-6.79,6.95
			c-9.02,3.25-17.82,7.17-26.59,11.08c-1.91,0.86-3.33,2.82-5.56,4.79c-1.26-1.66-2.52-3.32-3.79-4.99
			c-0.41,0.07-0.81,0.14-1.22,0.22c1.62,5.28-0.01,9.53-3.08,13.53c-5.11,6.67-12.4,6.3-16.36-1.11
			c-3.07-5.75-3.09-10.15,1.18-16.59c4.87-7.36,11.16-12.54,17.16-18.38c4.56-4.44,10.01-7.05,16.25-8.19
			c2.28-0.41,4.65-0.86,6.71-1.85c4.32-2.09,7.92-1.64,11.5,2.66c-3.12-7.72,1.55-10.07,7.08-11.24c9.81-2.08,19.7-3.77,30.47-5.79
			c-0.68,2.6-0.97,3.71-1.64,6.3c7.08-7.7,13.54-2.39,19.85-1.19c4.83,0.92,9.43,3,14.35,4.64c-0.57,2.68-1.1,5.19-1.75,8.29
			c2.04-0.67,3.54-1.56,5.05-1.56c1.83,0.01,4.17,0.19,5.39,1.3c4.98,4.51,9.61,9.41,14.7,14.49c-0.4,0.85-0.99,2.09-1.82,3.84
			c1.25,0,2.11,0.24,2.74-0.04c3.2-1.38,5.57-0.4,8.01,1.93c1.63,1.55,3.85,2.76,6.02,3.41c5.99,1.77,12.08,3.16,18.33,4.75
			c0.15,1.92,0.28,3.52,0.49,6.14c1.75-1.54,2.81-2.72,4.09-3.54c1.17-0.75,2.76-1.84,3.85-1.56c8.75,2.3,16.26-1.95,24.14-4.22
			c1.2-0.35,2.46-0.52,3.69-0.77C606,305.33,606,305.67,606,306z"/>
		<path d="M356,290c6.42-2.58,11.32,0.79,16.62,4.18c0.54-0.86,1.19-1.89,1.9-3.03c2.82,0.34,5.74,0.69,8.65,1.05
			c3.9,0.49,5.72,3.23,5.13,6.57c-0.45,2.57-2.08,5.93-4.16,6.96c-2.98,1.48-5.79-0.71-7.47-3.79c-0.59-1.09-1.76-2.72-2.59-2.68
			c-7.51,0.36-12.36-4.87-18.08-8.26C356,290.67,356,290.33,356,290z"/>
		<path d="M393.34,273.01c-3.11,0.07-4.69-2.45-4.86-6.6c-0.18-4.38-0.78-8.75-1.2-13.13c0.45-0.26,0.89-0.51,1.34-0.77
			c4.96,5.24,10.06,10.35,14.81,15.77c2.25,2.57,6.09,3.34,6.71,7.98c0.79,5.96-1.9,10.42-7.99,9.42c-3.33-0.55-6.83-2.62-9.25-5.02
			C391.79,279.55,393.09,276.02,393.34,273.01z"/>
		<path d="M520.43,256.22c-0.59-0.83-1.05-1.46-1.5-2.08c8.08-5.2,16.1-10.36,24.13-15.52c0.35,0.35,0.69,0.71,1.04,1.06
			c-6.07,7.01-12.13,14.02-18.2,21.04c0.42,0.06,0.84,0.13,1.25,0.19c-0.3,2.45,0.2,5.5-1.09,7.21c-1.91,2.53-4.87,6.81-8.35,4.11
			c-3.36-2.61-6.85-7.13-7.2-11.08C509.97,254.94,516.77,258.02,520.43,256.22z"/>
		<path d="M549.07,280.64c0.08-3.98,3.33-5.66,7.27-7.26c4.08-1.66,7.78-4.25,12.96-7.18c-1.52,3.79-2.07,6.72-3.67,8.86
			c-4.06,5.43-8.4,10.68-13.05,15.62c-1.64,1.74-4.41,2.9-6.83,3.31c-2.4,0.4-5.77,1.72-6.81-2.67c-1.19-5.07,0-10.07,3.69-11.32
			C544.42,279.39,546.73,280.35,549.07,280.64z"/>
		<path d="M445.08,264.09c-1.92,1.63-4.07,3.96-6.7,5.47c-1.41,0.81-4.72,0.98-5.31,0.13c-2.57-3.69-3.22-8.02-2.55-13.3
			c2.21,1.17,3.55,1.89,5.25,2.79c-2.22-8.05-3.22-15.79,0.63-23.13c0.52-0.03,1.04-0.05,1.57-0.08
			C440.33,245.35,442.7,254.71,445.08,264.09z"/>
		<path d="M480.16,248.06c-0.22-1.43-0.44-2.85-0.52-3.34c4.21-3.66,8.02-6.98,12.32-10.72c-1.47,5.57-2.24,10.63-4.17,15.19
			c-1.63,3.85-4.35,7.34-7.07,10.59c-1.98,2.36-4.78,2.87-7.44,0.45c-2.61-2.38-3.22-5.28-0.99-7.91c1.72-2.02,4.3-3.3,6.5-4.92
			C479.25,247.62,479.71,247.84,480.16,248.06z"/>
	</g>
</g>
</svg>
