<?xml version="1.0" encoding="utf-8"?>
<!-- Generator: Adobe Illustrator 26.2.1, SVG Export Plug-In . SVG Version: 6.00 Build 0)  -->
<svg version="1.1" id="Layer_1" xmlns="http://www.w3.org/2000/svg" xmlns:xlink="http://www.w3.org/1999/xlink" x="0px" y="0px"
	 viewBox="0 0 960 560" style="enable-background:new 0 0 960 560;" xml:space="preserve">
<g>
	<g>
		<path d="M478,406c-15.51-11.26-25.15-27.11-33.81-43.65c-0.8-1.53,0.38-4.09,0.69-6.56c-1.05,0.35-2.58,0.85-4.46,1.48
			c-3.81-6.51-7.8-13.02-11.38-19.75c-0.61-1.14,0.56-3.22,0.98-5.18c-0.81-0.22-2.03-0.46-3.17-0.9c-5.52-2.11-6.38-5.37-2.65-9.89
			c0.64-0.77,1.29-1.54,2.03-2.2c3.51-3.14,3.57-5.89-0.47-8.77c-3.8-2.72-5.21-5.9-1.16-9.9c0.73-0.72,0.51-3.51-0.3-4.49
			c-8.64-10.43-13.98-22.4-17.78-35.31c-3.43-11.68-6.58-23.25-7.27-35.55c-0.35-6.21,1.08-10.95,5.63-14.52
			c9.89-7.78,20.88-12.16,33.84-9.68c6.58,1.26,10.25,5.87,13.49,10.99c5.34,8.47,6.36,18.18,6.84,27.79
			c0.1,2.02-3.24,4.5-5.39,6.27c-2.42,1.98-5.29,3.39-8.25,5.23c1.15,0.94,1.36,1.23,1.63,1.31c2.39,0.66,4.79,1.29,7.18,1.93
			c-1.55,1.94-3.01,3.96-4.7,5.77c-0.88,0.94-2.17,1.48-4.45,2.97c2.92,0.91,4.04,1.35,5.2,1.61c6.36,1.42,10.57,6.29,8.3,12.33
			c-7.66,20.35,1.11,38.78,5.5,57.77c0.11,0.48,0.36,0.93,0.51,1.4c1.62,5.09,6.89,10.84-2.54,13.97c-0.47,0.16-0.7,1.05-1.49,2.34
			c8.71,3.39,7.29,10.18,6.04,17.16c-0.38,2.14,0.13,4.72,1.03,6.74c3.6,8.03,7.59,15.88,11.27,23.87c0.75,1.63,0.76,3.6,1.11,5.42
			C479.33,406,478.67,406,478,406z"/>
		<path d="M487,156c3.38,0.68,6.73,1.56,10.14,2c6.6,0.86,9.45,4.41,8.59,10.77c-0.46,3.39-0.57,6.83-0.85,10.53
			c2.25,0,3.84,0,6.21,0c-0.27,1.68-0.69,3.02-0.65,4.34c0.07,2.37,0.59,4.73,0.61,7.09c0.03,3.32,1.09,7.77-0.6,9.76
			c-4.87,5.72-10.35,11.37-16.68,15.25c-4.05,2.48-6.44,5.23-8.39,9.13c-1.42,2.84-3.24,5.49-4.88,8.22
			c-0.46-0.14-0.92-0.29-1.38-0.43c-0.29-2.22-0.67-4.42-0.85-6.65c-0.35-4.22-2.1-6.95-6.46-8.39c-5.86-1.92-7.94-8.12-5.05-13.65
			c1.13-2.17,2.45-4.23,4.2-7.22c-10.01,1.85-12.65-4.29-14.25-11.45c-2.04-9.13-1.64-17.83,6.73-23.83c3.42-2.45,7.7-3.7,11.59-5.5
			C479,156,483,156,487,156z"/>
		<path d="M536.38,322.81c1.95,1.82,3.66,4.72,5.9,5.2c3.72,0.8,3.51,2.67,2.46,4.93c-3.28,7.07-6.14,14.46-10.4,20.92
			c-6.22,9.43-13.63,18.06-20.3,27.19c-4.31,5.9-8.14,12.16-12.37,18.13c-0.81,1.15-2.45,1.72-3.71,2.56
			c0.3-1.33,0.47-2.71,0.93-3.98c0.67-1.85,1.73-3.56,2.3-5.44c2.17-7.13,4.51-14.24,6.2-21.49c1.53-6.57,2.13-13.35,3.47-19.97
			c0.46-2.27,1.75-4.44,2.97-6.46c0.79-1.31,2.15-2.29,3.26-3.41c-1.48-1.39-2.91-2.87-4.49-4.14c-0.57-0.46-1.52-0.44-1.56-0.45
			c3.32-12.4,6.52-24.61,9.93-36.77c0.56-2,2.68-3.63,2.99-5.61c0.27-1.71-0.9-3.69-1.59-5.49c-0.77-1.98-1.72-3.89-2.72-6.12
			c1.76-0.89,3.18-1.6,4.89-2.46c-2.66-11.3,6.17-7.1,12.19-7.74c-2.52-4.61-4.96-7.82-9.84-8.14c-2.84-0.18-4.85-1.1-4.79-4.42
			c0.25-12.18,0.39-24.53,5.38-35.8c2.76-6.22,7.46-11.63,11.63-17.14c2.77-3.66,6.76-3.68,10.89-2.27
			c11.68,4,21.43,18.62,21.76,30.9c0.19,7.15-2.5,13.08-4.49,19.57c-3.87,12.6-6.77,25.55-9.2,38.53
			c-0.92,4.94-1.77,9.26-5.54,12.82c-3.5,3.3-6.46,6.95-3.01,12.24c0.29,0.45-1.5,3.26-2.49,3.35c-3.07,0.3-6.22-0.17-9.33-0.35
			C537.27,321.93,536.82,322.37,536.38,322.81z"/>
		<path d="M390.28,378.09c-1.78-3.5-3.28-7.19-5.46-10.41c-1.06-1.57-3.29-2.58-5.2-3.28c-1.82-0.66-3.99-0.32-5.87-0.88
			c-6.66-1.96-7.69-5.74-3.09-11.23c-2.03-0.83-4.12-1.44-5.96-2.48c-3.92-2.22-4.53-6.05-2.12-9.65c0.89-1.33,1.39-3.24,1.32-4.85
			c-0.87-18.31,6.73-22.13,22.02-29.69c3.77-1.86,7.42,0.1,9.58,3.33c1.98,2.98,3.19,6.49,4.53,9.86c1.95,4.91,3.63,9.92,5.55,14.84
			c1.48,3.78,2.79,7.26-2.48,9.35c-1.58,0.62-2.77,2.23-4.84,3.99c2.23-0.15,3.7-0.68,4.75-0.24c2.21,0.92,4.94,1.88,6.12,3.7
			c1.58,2.43,2.08,5.73-1.16,7.93c-3.64,2.48-7.48,4.72-10.89,7.48c-1.67,1.35-2.82,3.56-3.71,5.59c-0.89,2.03-1.16,4.33-1.7,6.51
			C391.18,378.01,390.73,378.05,390.28,378.09z"/>
		<path d="M550.32,377.83c3.33-3.59,6.66-7.17,9.99-10.76c-0.57-0.11-1.15-0.21-1.72-0.32c-0.53-1.89-1.4-3.75-1.5-5.66
			c-0.16-3.17,0.37-6.38,0.26-9.55c-0.11-3.08,1.99-4.1,7.24-2.68c-0.52-1.87-0.9-3.37-1.36-4.84c-2.56-8.25,2.49-14.73,10.84-13.88
			c1.66,0.17,3.3,0.5,4.95,0.65c16.31,1.46,22.57,10.13,20.5,27.63c-0.59,5-2.64,9.97-4.74,14.63c-3.23,7.16-6.79,8.23-14,5.17
			c-1.53-0.65-3.06-1.27-5.01-2.07c-0.43,1.57-0.82,3.03-0.97,3.59c-8.43,0-16.3,0-24.17,0
			C550.52,379.1,550.42,378.47,550.32,377.83z"/>
	</g>
</g>
</svg>
