<?xml version="1.0" encoding="utf-8"?>
<!-- Generator: Adobe Illustrator 26.2.1, SVG Export Plug-In . SVG Version: 6.00 Build 0)  -->
<svg version="1.1" id="Layer_1" xmlns="http://www.w3.org/2000/svg" xmlns:xlink="http://www.w3.org/1999/xlink" x="0px" y="0px"
	 viewBox="0 0 960 560" style="enable-background:new 0 0 960 560;" xml:space="preserve">
<g>
	<g>
		<path d="M356,237c2.49-3.1,4.75-6.44,7.53-9.25c6.11-6.19,12.86-6.53,20.44-2.42c4.86,2.64,2.5,6.37,2.3,10.1
			c6.2-5.12,6.14-5.05,12.38,0.77c3.57,3.33,7.18,6.73,11.23,9.4c1.41,0.93,4.98,0.59,6.2-0.58c3.31-3.18,6.46-6.8,8.61-10.82
			c2.71-5.07,0.4-8.81-6.27-13.38c-1.77-1.21-2.79-3.54-4.08-5.41c-0.54-0.78-0.69-2.24-1.35-2.47c-6.37-2.25-5.67-7.79-5.41-12.52
			c0.77-13.75,11.15-23.91,25.01-24.18c3.24-0.06,7.6,1.69,9.59,4.12c4.35,5.31,7.52,11.6,10.84,16.97
			c-2.06,2.14-3.42,3.55-4.77,4.95c1.65,1.31,3.49,2.44,4.92,3.96c2.45,2.61,4.63,5.46,7.86,9.33c1.94-3.11,4.29-5.9,5.57-9.11
			c3.03-7.61,4.31-8.21,12.15-6.01c4.75,1.33,9.78,1.61,14.63,2.63c3.12,0.66,6.14,1.8,9.63,2.85c0.15-0.74,0.55-2.72,0.99-4.92
			c2.65,0.47,5.17,1.44,7.58,1.21c2.57-0.25,4.98-2.21,7.54-2.39c3.93-0.27,7.92,0.64,11.87,0.49c4.54-0.17,9.06-0.93,13.59-1.45
			c3.46-0.4,5.92,0.97,6.99,4.27c2.17,6.72,4.21,13.48,6.23,20.26c0.22,0.73,0.2,1.9-0.24,2.41c-4.34,5.05-7.3,11.83-15.2,12.61
			c-0.82,0.08-1.66,0.21-2.45,0.44c-8.59,2.51-10.85,1.24-13.46-7.52c-0.27-0.9-0.66-1.76-1.08-2.86c-0.65,0.48-1.23,0.68-1.34,1.03
			c-0.82,2.56-0.83,6.66-2.44,7.42c-3.43,1.62-7.66,1.69-11.59,2.06c-3.08,0.29-6.26-0.32-9.29,0.15
			c-7.45,1.17-7.43,1.33-14.47-3.24c-1.37,3.02-0.95,7.57-5.9,7.66c0.58,2.13,1.17,4.25,2.1,7.64c4.02-5.19,7.56-5.09,11.37-3.26
			c0.45,0.21,1.02,0.53,1.42,0.42c7.07-2.08,12.66,2.8,19.01,3.86c4.09,0.68,8.43-0.29,12.65-0.26c5.83,0.05,11.66,0.64,17.47,0.44
			c3.41-0.12,6.93-0.95,10.13-2.15c3.79-1.43,6.83-1.82,8.63,2.52c0.51-0.18,0.98-0.21,1.05-0.39c2.38-6.26,7.17-5.44,12.27-4.45
			c5.12,1,6.95,4.44,7.97,9.02c3.3,14.91-6.12,25.7-21.36,24.4c-1.29-0.11-2.64,0.16-3.92,0.45c-9.54,2.13-13.24,1.15-19.91-5.53
			c-0.27,1.58-0.53,3-0.76,4.42c-0.5,3.07-2.26,4.15-5.32,3.7c-3.42-0.5-6.87-0.98-10.32-1.01c-5.03-0.04-10.11,0.41-10.56-6.29
			c-3.32,0.9-5.96,1.83-8.69,2.29c-3.46,0.59-3.36,2.43-1.64,4.48c4.49,5.35,8.96,10.74,13.89,15.67c2.07,2.07,2.77,3.18-0.91,5.32
			c15.07,9.8,29.77,18.85,43.79,28.86c3,2.14,5.18,6.48,8.6,8.55c7.31,4.42,14.86,8.55,22.65,12.04c5.04,2.26,10.68,3.2,16.05,4.73
			c0,0.33,0,0.67,0,1c-9.01,3.04-17.74,0.78-26.46-1.41c-3.05-0.77-6-2.36-9.06-2.59c-10.09-0.76-19.43-3.78-28.51-8.06
			c-4.24-1.99-8.27-3.61-4.94-8.91c-4.18-1.72-7.74-4.24-11.4-4.41c-4.53-0.21-7.4-2.41-10.48-4.9c-1.68-1.36-3.23-3.65-5.06-3.9
			c-4.7-0.65-6.95-2.41-4.71-8.49c-7.38,3.55-10.92-1.29-15.09-4.66c-1.16-0.93-2.53-1.6-3.76-2.45c-2.6-1.81-5.39-3.41-7.69-5.54
			c-5.02-4.64-9.71-9.64-14.71-14.3c-1.04-0.97-2.87-1.1-4.33-1.62c-0.27,0.45-0.55,0.9-0.82,1.35c1.01,1.18,2.11,2.3,3.03,3.55
			c3.37,4.56,10.36,6.4,10.3,13.61c0,0.42,0.91,0.89,1.44,1.27c3.64,2.59,7.45,4.98,10.89,7.82c2.07,1.71,5.08,4.19,5,6.22
			c-0.17,4.26,1.99,4.75,5,5.94c3.12,1.24,7.84,3.18,8.27,5.49c0.86,4.56,4.38,5.91,6.93,7.95c2.85,2.27,4.28,3.79,1.17,7.82
			c5.34-4.6,7.34-0.12,9.99,2.25c0.86,0.77,1.43,1.87,2.31,2.6c10.74,8.91,21.49,17.82,32.31,26.63c1.24,1.01,2.95,1.44,4.44,2.14
			c-0.2,0.57-0.4,1.14-0.6,1.7c-1.85-0.55-3.82-0.85-5.54-1.68c-13.31-6.44-26.49-13.16-39.87-19.44c-7.78-3.65-15.92-6.54-23.8-10
			c-1.27-0.56-1.93-2.41-2.99-3.55c-3.54-3.8-6.51-8.83-10.89-10.95c-4.62-2.24-8.68-3.18-6.6-9.04c-1.93-0.65-3.8-0.73-4.84-1.71
			c-4.83-4.56-9.41-9.39-14.12-14.08c-3.03-3.01-6.13-5.95-8.75-8.49c-6.26,7.12-12.16,13.83-18.04,20.56
			c-0.41,0.47-0.68,1.08-1.04,1.6c-1.88,2.75-3.51,5.72-5.71,8.2c-7.8,8.82-15.72,17.54-23.75,26.15c-2.5,2.68-5.52,4.88-8.3,7.3
			c0.53-4.8,1.55-8.83,3.39-12.45c1.93-3.78,4.81-7.06,7.02-10.71c3.19-5.27,7.2-10.37,8.84-16.12c1.19-4.17,3.15-7.02,5.96-9.7
			c3.59-3.43,6.54-6.94,4.75-12.47c-0.23-0.7,0.97-2.08,1.79-2.87c8.07-7.76,8.71-12.67-1.74-17.71
			c-7.27,5.5-13.1,12.21-16.22,21.07c-0.22,0.61-0.61,1.71-0.84,1.68c-5.1-0.5-5.64,4.37-8.05,6.89
			c-8.84,9.24-17.48,18.67-26.24,27.99c-1.24,1.32-2.71,2.44-4.07,3.65c1.17-4.43,2.47-8.44,4.56-11.98
			c5.79-9.85,12.45-19.23,17.74-29.34c4.66-8.9,8.1-18.46,11.75-27.86c1.04-2.69,0.41-5.06-3.59-5.38c-5-0.4-6.6-3.94-4.59-8.76
			c0.55-1.32,0.76-2.79,0.97-3.58c-3.42,0.27-6.26,0.84-9.01,0.59c-2.26-0.21-4.48-1.29-6.64-2.18c-5.73-2.36-11.49-4.7-13.1-11.75
			c-0.39-1.72-1.28-3.33-1.94-4.98C356,241.67,356,239.33,356,237z M439.19,259.79c-1.24,1.55-2.17,2.72-3.34,4.19
			c2.22,1.56,4.03,2.82,6.05,4.23C445.4,263.76,441.03,262.6,439.19,259.79z"/>
	</g>
</g>
</svg>
