<?xml version="1.0" encoding="utf-8"?>
<!-- Generator: Adobe Illustrator 26.2.1, SVG Export Plug-In . SVG Version: 6.00 Build 0)  -->
<svg version="1.1" id="Layer_1" xmlns="http://www.w3.org/2000/svg" xmlns:xlink="http://www.w3.org/1999/xlink" x="0px" y="0px"
	 viewBox="0 0 960 560" style="enable-background:new 0 0 960 560;" xml:space="preserve">
<g>
	<g>
		<path d="M414,406c1.52-3.04,2.94-6.13,4.58-9.1c10.22-18.61,23.24-35.8,28.64-56.88c0.45-1.74,2.93-3.51,4.85-4.2
			c5.52-1.99,5.59-1.78,4.66-9.04c-7.26-0.9-14.85-1.84-23.06-2.85c-0.18-0.4-0.63-1.86-1.44-3.09c-1.67-2.53-3.93-3.01-5.29-0.03
			c-1.44,3.16-3.56,2.9-6.38,2.99c-10.24,0.33-20.48,0.97-30.69,1.8c-2.83,0.23-5.26,0.72-6.75-3.25
			c9.08-9.5,18.19-19.3,27.65-28.76c2.46-2.46,6.06-3.74,8.98-5.79c2.23-1.57,4.21-3.49,6.3-5.26c-0.26-0.46-0.53-0.91-0.79-1.37
			c-5.88-0.53-11.76-1.07-18.49-1.68c-3.18,4.56-6.52,5.05-12.44,0.37c-3.05-2.4-4.54-0.07-5.24,1.99c-1.58,4.66-4.9,5.08-8.71,4.06
			c-3.96-1.07-5.58-4.44-5.22-8.12c0.39-3.91,1.3-7.93,2.84-11.54c2.51-5.89,8.73-5.05,13.53-5.55c1.99-0.21,4.39,3.58,7.14,6.03
			c0.93-1.05,2.38-2.68,3.65-4.11c4.93-0.82,9.8-1.95,14.71-2.28c1.8-0.12,3.73,1.66,6.26,2.9c2.53-4.53,6.67-2.91,10.82-1.01
			c6.04,2.77,10.4-0.55,14.8-3.97c1.14-0.89,2.63-1.84,3.97-1.86c4.21-0.05,5.7-1.64,5.85-6.04c0.05-1.57,0.97-3.58,2.17-4.55
			c9.07-7.35,14.85-17.24,22.44-27.02c-7.95-0.11-14.07,6.73-22.19,2.31c-6.57,6.69-16.88,2.1-25.36,5.62
			c-0.7,0.29-2.41-1.13-3.26-2.09c-0.78-0.88-1.02-2.22-2.54-3.09c0.24,1.81,0.48,3.63,0.79,5.97c-3.16,1.46-6.73,2.77-9.94,4.68
			c-3.71,2.2-7.23,4.77-10.59,7.47c-5.38,4.32-8.53,5.06-12.5,2.44c-5.25-3.46-8.76-10.79-7.1-15.8c1.19-3.59,2.42-7.55,4.88-10.2
			c1.82-1.96,5.63-2.08,8.14-2.88c1.62-1.96,2.99-4.33,4.98-5.89c6.74-5.26,14.22-8.97,22.68-10.88c3.73-0.84,6.35-1.18,7.34,3.74
			c5.71-9.18,13.76-7.87,21.66-5.78c5.81,1.54,10.77,1.31,16.69-0.95c9.36-3.57,19.5-5.09,29.35-7.34c4.16-0.95,8.4-1.54,12.71-2.31
			c1.99,3.35,1.82,14.04-0.7,17.07c-8.61,10.33-17.37,20.54-26.01,30.84c-1.35,1.61-2.35,3.29-4.79,1.47
			c-0.5-0.37-2.25-0.03-2.54,0.49c-0.46,0.8-0.61,2.36-0.12,3.03c2.27,3.12,1.3,5.27-1.2,7.78c-4.34,4.35-8.36,9.02-12.41,13.65
			c-1.87,2.13-3.22,4.94-0.28,6.78c1.25,0.78,3.92-0.73,6.97-1.44c4.29,0,9.83,0.17,15.35-0.12c1.31-0.07,2.95-1.43,3.73-2.64
			c3.41-5.32,6.32-10.98,9.94-16.15c1.14-1.64,3.96-3.08,5.91-2.96c3.56,0.21,7.19,1.29,10.52,2.66c6.02,2.49,7.29,8.4,3.22,13.46
			c-1.7,2.12-3.45,4.2-4.93,7.07c13.74-1.97,25.6,2.69,37.33,9.06c-3.15,0-6.56,0.79-9.41-0.14c-10.08-3.29-20.18,0.04-30.25-0.66
			c-5.75-0.4-8.94,4.75-10.45,9.3c-1.61,4.87-4.15,8.37-8.09,11.27c-0.72,0.53-1.02,1.62-1.07,1.7c-2.5,0.41-5.22,0.12-5.88,1.14
			c-0.97,1.5-0.37,3.97-0.62,6c-0.18,1.56-0.24,3.33-1.04,4.57c-2.37,3.71-5.07,7.2-8.64,12.17c8.22,0.99,14.74,1.89,21.3,2.54
			c5.63,0.56,11.32,0.58,16.9,1.4c1.94,0.29,3.49,2.82,5.48,3.35c4.15,1.1,8.49,1.48,12.72,2.29c8.21,1.57,16.41,3.19,24.58,4.92
			c1.28,0.27,2.41,1.21,3.61,1.85c-0.13,0.4-0.26,0.8-0.39,1.2c-2.93-0.42-6.19-0.15-8.72-1.38c-9.53-4.6-19.44-3.63-29.4-2.87
			c-10.28,0.79-20.49,1.2-30.59-1.95c-1.39-0.43-3.73,2.19-5.64,3.4c-1.98-3.11-13.25-4.87-16.78-1.56
			c-3.26,3.06-6.29,6.43-8.96,10.01c-1.75,2.34-2.51,5.34-6.51,4.48c-0.51-0.11-2.11,2.18-2.17,3.41c-0.08,1.53,0.92,3.11,1.24,4.06
			c-9.31,9.28-18.6,18.06-27.3,27.4c-5.41,5.81-10,12.39-14.77,18.77c-1.14,1.52-1.5,3.61-2.23,5.44C415.33,406,414.67,406,414,406z
			 M479.2,278.09c-4.49-1.17-9.76-3.3-10.21-2.55c-2.86,4.79-7.21,3.18-11.09,3.73c-5.14,0.72-11.7-2.32-14.36,5.25
			c-0.09,0.25-0.57,0.33-0.81,0.55c-7.02,6.08-14.05,12.15-21.04,18.26c-0.74,0.65-1.24,1.56-2.22,2.83
			c4.2-0.35,8.66-6.68,10.33,1.51c2.25-0.36,4.99-1.65,6.03-0.81c3.73,2.99,7.83,0.84,11.64,1.66c4.91,1.06,9.89,1.78,15.43,2.76
			c0.2,1.14,0.58,3.23,0.96,5.32c1.92-1.23,2.51-2.75,3.51-3.94c3.57-4.3,3.49-12.13,11.59-12.12c0.16,0,0.31-0.54,0.56-0.99
			c-4.81-2.98-0.12-6.3-0.07-9.52c0.02-1.17,2.22-2.42,3.58-3.41c1.47-1.08,4.1-1.59,4.51-2.89c1.1-3.49,1.28-7.26,1.85-11.07
			C483.67,270.3,481.6,276.04,479.2,278.09z"/>
		<path d="M479,156c2.82,2.44,6.04,4.56,8.37,7.4c2.64,3.22,5.31,2.19,7.26,0.29c4.05-3.95,5.99-2.89,7.18,2.05
			c0.11,0.45,0.49,0.84,1.2,2c2.56-2.85,4.69-5.22,6.14-6.84c6.27,0,11.9,0.19,17.51-0.08c2.79-0.13,4.66,0.04,4.14,3.1
			c16.58-5.97,32.65-0.77,48.77,1.3c2.35,0.3,4.65,0.97,8.07,1.7c-1.65,0.99-2.33,1.72-3.08,1.8c-11.15,1.16-22.89,0.42-33.31,3.79
			c-11.83,3.82-23.68,0.24-35.18,3.34c-5.92,1.59-11.95,2.82-18,3.81c-2.72,0.45-5.59-0.06-8.45-0.8
			c-7.97,4.47-7.97,4.47-15.32-1.87c-1.37,0.76-2.78,1.58-4.22,2.35c-4.95,2.66-7.68,1.64-9.52-3.54
			c-2.33-6.57,1.37-16.45,7.41-19.8C471.67,156,475.33,156,479,156z"/>
	</g>
</g>
</svg>
