<?xml version="1.0" encoding="utf-8"?>
<!-- Generator: Adobe Illustrator 26.2.1, SVG Export Plug-In . SVG Version: 6.00 Build 0)  -->
<svg version="1.1" id="Layer_1" xmlns="http://www.w3.org/2000/svg" xmlns:xlink="http://www.w3.org/1999/xlink" x="0px" y="0px"
	 viewBox="0 0 960 560" style="enable-background:new 0 0 960 560;" xml:space="preserve">
<g>
	<g>
		<path d="M503,406c-2.3-1.23-4.61-2.46-5.73-3.06c-3.93,0-6.76,0.3-9.49-0.07c-4.77-0.63-9.46-1.93-14.24-2.46
			c-5.57-0.62-8.75-3.39-9.82-8.84c-0.24-1.23-0.94-2.36-1.59-3.95c-1.45,1.08-2.53,1.88-4.72,3.52
			c-6.28-10.57-12.46-20.9-18.54-31.27c-0.56-0.96-1.07-2.38-0.78-3.32c1.52-4.92,3.19-9.75-2.08-13.59
			c0.45-8.07,0.07-16.31,1.61-24.17c1.37-6.98,5.45-13.08,12.43-16.43c0.53-0.25,1.25-1.05,1.18-1.46
			c-1.65-9.08,6.08-13.02,10.63-18.32c3.67-4.27,9.14-6.98,13.69-10.53c2.35-1.83,4.36-4.12,6.73-5.93c1.2-0.91,3.03-1.96,4.28-1.67
			c3.8,0.89,4.1-1.08,4.45-3.98c0.25-2.11,1.33-4.14,2.15-6.17c2.58-6.39,5.19-12.77,7.86-19.12c0.41-0.98,1.07-2.47,1.8-2.58
			c4.2-0.65,5.53-3.43,4.07-6.71c-0.82-1.86-3.75-2.78-5.79-3.75c-4.55-4.74-9.21-9.39-13.61-14.27c-1.29-1.43-1.86-3.49-3.13-5.99
			c-0.91,0.5-2.47,0.96-3.48,1.96c-3.1,3.09-6.35,2.47-9.58,0.61c-3.78-2.18-7.97-9.43-7.32-12.21c2.05-8.72,7.84-14.68,14.46-15.31
			c2.77-0.26,5.47-1.2,8.85-1.98c0.84,0.97,2.39,2.76,4.67,5.41c1.34-3.62,2.33-6.27,3.71-9.98c4.97,2.22,9.64,4.3,14.74,6.58
			c0.09-0.1,0.79-0.86,0.98-1.06c2.83,2.48,5.38,4.87,8.08,7.05c6.88,5.53,8.11,13.47,10.3,21.38c1.52,5.49,3.03,10.9,3.54,16.54
			c1,11.04-2.05,20.59-11.05,27.97c1.08,0.68,2.29,1.45,3.48,2.19c-4.14,14.03-28.49,37.72-37.99,37.01
			c0.27,2.12,1.37,4.65,0.59,6.26c-0.9,1.86-3.35,3.12-5.32,4.3c-5.97,3.59-8.04,9.97-11.36,15.45c-1.77,2.92-3.26,6.41-8.31,3.5
			c4.12,5.51,1.07,10.39,0.05,15.41c-1.59,7.83-1.51,15.54,2.48,22.84c1.26,2.3,2.24,4.82-3.28,5.66
			c6.62,5.86,12.36,10.96,18.13,16.02c0.49,0.43,1.14,0.74,1.77,0.91c5.1,1.35,10.59,1.95,12.88,7.99c0.3,0.79,1.9,1.1,3.12,1.76
			c0.89-1.79,1.65-3.34,2.09-4.24c5.2,1.51,10.04,2.75,14.76,4.35c4.27,1.45,8.41,3.3,12.92,5.09c0.82-7.08,8.77-4.62,13.53-7.17
			c7.2-3.85,13.36-8.51,18.37-14.85c0.46-0.59,1.13-1.02,1.89-1.69c0.69,6.93-3.04,12.38-8.74,17.78
			C542.66,397.52,529.01,400.97,516,406C511.67,406,507.33,406,503,406z"/>
		<path d="M415.99,235.99c7.61-13.99,13.31-29.19,25.55-40.25c0.48-0.43,1.07-1.04,1.1-1.6c0.52-9.13,9.38-12.33,13.79-18.68
			c1.81-2.6,4.06-4.63,5.23-8.03c2.06-6.02,8.27-7.6,13.3-10.31c0.68-0.37,1.36-0.74,2.04-1.11c0.33,0,0.67,0,1,0
			c2.2,6.72-1.96,14.95-8.7,18.19c-2.08,1-3.67,3.18-5.21,5.05c-1.33,1.62-1.84,4.19-3.44,5.28
			c-17.98,12.35-28.94,30.78-41.69,47.66c-0.97,1.28-1.97,2.55-2.95,3.82L415.99,235.99z"/>
		<path d="M448.98,221.52c-2.65,3.01-5.03,5.55-7.2,8.25c-1.5,1.87-2.75,3.94-4.01,5.99c-0.6,0.97-0.75,2.25-1.44,3.14
			c-15.3,19.7-27.08,41.34-36,64.58c-0.04,0.1-0.3,0.11-0.95,0.33c0.12-0.97,0.05-1.81,0.33-2.51c6.36-15.86,12.19-31.88,20.4-47.04
			c2.82-5.22,4.74-10.5,8.94-15.18c3.17-3.53,3.59-9.41,5.78-13.98c0.91-1.9,3.28-3.1,4.94-4.66c0.58-0.54,1.05-1.22,1.49-1.88
			c3.24-4.78,6.19-9.79,9.84-14.23c1.17-1.42,4.46-2.32,6.23-1.76c3.17,1.01,3.73,4.2,2.24,7.06c-1.76,3.38-3.75,6.71-6.15,9.65
			C452.31,220.65,450,221.04,448.98,221.52z"/>
		<path d="M416.01,236.01c-2.31,4.99-4.61,9.98-6.92,14.97c0.5-5.88,2.9-10.82,6.9-14.98C415.99,235.99,416.01,236.01,416.01,236.01
			z"/>
	</g>
</g>
</svg>
