<?xml version="1.0" encoding="utf-8"?>
<!-- Generator: Adobe Illustrator 26.2.1, SVG Export Plug-In . SVG Version: 6.00 Build 0)  -->
<svg version="1.1" id="Layer_1" xmlns="http://www.w3.org/2000/svg" xmlns:xlink="http://www.w3.org/1999/xlink" x="0px" y="0px"
	 viewBox="0 0 960 560" style="enable-background:new 0 0 960 560;" xml:space="preserve">
<g>
	<g>
		<path d="M606,345c-0.98-0.62-2.61-1.07-2.84-1.9c-2.49-8.96-4.77-17.99-7.1-27c-0.25-0.96-0.1-2.42-0.69-2.84
			c-7.78-5.43-2.51-16.16-9.07-22.24c-1.04-0.97-0.43-4.65,0.47-6.59c2.1-4.52-0.53-6.21-3.71-8.18c-1.52-0.94-2.9-2.46-3.77-4.03
			c-4.06-7.37-7.93-14.86-12.44-23.38c-1.02,2.27-2.07,3.53-1.77,4.12c3.26,6.57-0.98,12.87-0.52,19.32
			c0.09,1.29-0.53,2.64-0.45,3.94c0.55,8.53,1.25,17.06,1.81,25.59c0.16,2.48,0.45,5.07-0.04,7.47
			c-2.14,10.32,1.26,19.44,5.13,28.74c2.42,5.82,3.41,12.24,4.22,18.8c-5.28-6.93-7.91-15.84-16.84-19.39
			c-3.22,10.4-6.49,20.98-9.76,31.57c-0.73-0.13-1.47-0.26-2.2-0.39c0-2.75-0.24-5.53,0.04-8.26c1.05-10.18,2.62-20.32,3.23-30.53
			c0.24-3.98-1.58-8.06-2.36-12.12c-0.5-2.59-0.71-5.24-1.24-7.82c-0.25-1.2-1-3.31-1.42-3.29c-4.87,0.3-4.73-4.09-5.99-6.64
			c-2.38-4.82-3.9-10.07-6.01-15.04c-0.67-1.58-2.12-2.83-3.4-4.49c0.23-0.53,0.46-1.32,0.89-1.99c3.28-5.14,2.86-5.88-2.74-8.13
			c-2.23-0.9-4.43-2.74-5.81-4.74c-3.93-5.68-7.42-11.67-11.91-17.27c0.09,0.82,0.11,1.64,0.27,2.45
			c2.85,14.99,5.71,29.98,8.6,44.97c0.64,3.32,0.78,6.24-3.11,7.89c-0.59,0.25-0.94,3.19-0.41,3.6c5.58,4.34,4.63,10.63,4.3,16.15
			c-0.69,11.66,0.07,22.93,4.62,33.79c0.18,0.43,0.17,0.98,0.12,1.46c-0.03,0.3-0.29,0.57-0.59,1.11c-0.51-0.39-1.19-0.65-1.41-1.12
			c-4.39-9.47-8.77-18.95-13.03-28.48c-0.77-1.71-1.98-4.33-1.27-5.4c2.51-3.82,0.63-4.86-2.58-5.98c-1.12-0.39-2.4-1.64-2.73-2.75
			c-1.69-5.73-3.56-11.47-4.42-17.35c-0.56-3.85,0.49-7.94,0.88-12.68c-7.82-0.52-5.85-7.88-7.01-13.72
			c-1.46-7.33-3.43-14.56-5.19-21.87c-5.22,2.82-8,9.11-5.73,14.2c1.74,3.89,0.68,6.34-1.89,9.34c-1.75,2.04-2.55,5.13-3.15,7.89
			c-0.7,3.22-0.41,6.64-1.06,9.87c-3.88,19.19-7.91,38.36-11.88,57.53c-0.4,1.93-0.79,3.87-2.17,5.99
			c-0.43-1.07-1.01-2.11-1.27-3.23c-3.28-14.36-1.84-28.82-0.84-43.27c0.05-0.65,0.12-1.41,0.47-1.92
			c2.67-3.87,4.33-7.55,0.16-11.68c-0.81-0.8-0.27-3.21,0.02-4.81c1.61-8.84,3.35-17.65,5.01-26.48c0.33-1.76,0.48-3.55,0.81-6.08
			c-9.26,8.31-14.34,18.04-16.15,29.34c-0.93,5.83-1.25,11.84-1.1,17.75c0.15,5.79-1.47,9.73-7.49,11.09
			c-0.77,0.17-1.44,0.76-2.44,1.31c4.96,4.54,2.36,10.08,1.24,14.56c-3.99,16.03-2.51,32.06-1.66,48.15
			c0.02,0.42-0.3,0.85-1.65,1.57c-3.28-11.86-7.85-23.54-9.49-35.62c-1.64-12.13-0.36-24.66-0.36-37.38
			c1.36-0.29,2.74-0.58,5.07-1.07c-1.04-2.23-2.06-4.15-2.83-6.17c-0.62-1.62-1.42-3.37-1.33-5.02c0.6-10.43,1.43-20.85,1.69-31.39
			c-6.78,14.62-9.2,30.31-11.19,46.43c-5.95,3.45-5.99,3.58-1.98,6.33c-1.49,11.72-3.62,23.18-4.22,34.72
			c-0.59,11.34,0.37,22.75,0.66,34.66c-0.9-1.76-2.1-3.36-2.58-5.16c-2.76-10.26-5.51-20.53-7.84-30.9
			c-0.46-2.07,0.95-4.56,1.63-7.38c-5.78-2.25-4.06-8.19-4.27-13.06c-0.43-9.63-0.33-19.3-0.1-28.94c0.05-1.95,1.65-3.86,2.52-5.8
			c0.57-1.27,1.53-2.54,1.59-3.85c0.18-3.48-0.03-6.98-0.08-10.47c0-0.17,0.09-0.43,0.02-0.48c-4.92-3.55-1.85-7.23-0.58-11.24
			c1.4-4.39,1.72-9.12,2.63-13.68c0.69-3.42,1.51-6.82,2.38-10.21c0.86-3.34,1.86-6.65,2-10.38c-1.4,1.96-2.66,4.03-4.22,5.86
			c-4.39,5.17-9.15,10.05-13.28,15.41c-3.24,4.19-5.77,8.93-8.62,13.43c0.4,0.32,0.8,0.65,1.19,0.97c-1.61,0.3-3.21,0.6-5.39,1.01
			c3.82,3.79,1.49,6.59-1.16,9.42c-0.9,0.96-1.68,2.1-2.24,3.29c-7.49,15.97-14.93,31.97-16.35,49.94
			c-0.06,0.74-0.41,1.45-0.62,2.18c-0.45,0.02-0.9,0.03-1.35,0.05c-0.15-2.27-0.26-4.54-0.46-6.8c-0.24-2.73-0.56-5.45-0.84-8.18
			c0-3,0-6,0-9c0.36-1.92,1.02-3.83,1.04-5.75c0.15-15.74,5.02-30.44,9.79-45.16c0.81-2.49,2.37-4.73,3.65-7.06
			c2.71-4.92,7.64-8.94,6.05-15.58c-0.19-0.81,0.39-1.98,0.94-2.75c5.61-7.8,11.27-15.57,16.95-23.32c0.68-0.93,2.25-1.81,2.18-2.61
			c-0.51-5.8,4.32-7.24,8.01-9.81c-0.52-1.62-0.99-3.1-1.42-4.45c0.72-0.76,1.15-1.28,1.64-1.72c7.12-6.44,14.17-12.95,21.39-19.28
			c3.92-3.43,13.66-1.54,15.87,3.2c3.41,7.32,6.71,14.81,0.41,22.67c10.36,5.59,9.94,13.42,4.15,22.81
			c4.25,0.19,7.89,1.44,10.27,0.22c4.27-2.2,7.74-3.19,11.97,2.22c0.42-4.36,0.77-6.93,0.89-9.51c0.43-8.76,2.42-11.22,10.3-13.4
			c5.71-1.59,9.6,0.23,11.96,6.31c3.41-3.13,6.39-6.61,10.86-2.6c2.91,2.62,6.19,4.83,9.78,7.57c3.67-6.06,9.73-5.2,16.99-0.7
			c-1.27-3.22-1.71-4.84-2.5-6.27c-3.91-7.09-2.07-13.46,2.28-19.55c4.84-6.78,15.53-8.34,21.16-2.06
			c6.49,7.22,12.06,15.33,17.5,23.4c1.98,2.94,2.42,6.9,3.77,11.02c0.23-0.04,1.65-0.63,3.02-0.5c1.27,0.12,3.11,0.64,3.61,1.58
			c2.67,4.93,5,10.04,7.55,15.31c-0.88,1-1.88,2.14-2.97,3.37c5.9,2.59,5.9,2.59,3.07,12.63c1.97-0.24,3.77-0.85,5.41-0.54
			c1.52,0.28,3.81,1.3,4.1,2.42c1.17,4.59,1.92,9.32,2.42,14.03c2.4,22.67,4.65,45.36,6.99,68.03c0.17,1.62,0.62,3.21,0.94,4.82
			C606,343,606,344,606,345z M536.55,249.41c2.26,6.2,4.33,12.47,6.84,18.56c1.71,4.15,4.39,8.02-0.46,12.84
			c8.23-0.58,5.62,6.55,8.93,9.68c-0.42-7.34-3.47-14.65,2.92-20.57c-2.64-2.11-7.12-4.08-7.07-5.92
			C547.94,255.9,541.27,253.52,536.55,249.41z"/>
	</g>
</g>
</svg>
