<?xml version="1.0" encoding="utf-8"?>
<!-- Generator: Adobe Illustrator 26.2.1, SVG Export Plug-In . SVG Version: 6.00 Build 0)  -->
<svg version="1.1" id="Layer_1" xmlns="http://www.w3.org/2000/svg" xmlns:xlink="http://www.w3.org/1999/xlink" x="0px" y="0px"
	 viewBox="0 0 960 560" style="enable-background:new 0 0 960 560;" xml:space="preserve">
<g>
	<g>
		<path d="M356,190c0.78-0.16,1.66-0.63,2.31-0.42c8.83,2.86,17.61,5.87,26.43,8.74c3.64,1.18,6.17,2.88,5.14,7.35
			c-0.23,1,0.35,2.18,0.66,3.78c5.45-2.23,7.58,1.05,8.92,6.32c5.19-5.88,8.61-2.5,12.71,0.54c5.14,3.8,10.94,6.69,17.03,10.32
			c-1.03,1.67-2.16,3.5-4.17,6.75c3.03-0.66,5.42-0.46,6.31-1.52c2.24-2.65,3.89-1.46,5.94-0.09c7.3,4.85,14.55,9.78,21.99,14.4
			c5.33,3.3,8.06,8.36,9.96,13.89c1.88,5.45-5.86,15.84-11.57,16.19c-6.17,0.38-12.11-0.27-16.98-4.42
			c-1.03-0.88-1.67-3.18-1.33-4.52c0.96-3.76-0.74-4.47-3.56-3.35c-3.08,1.22-4.82-0.05-6.99-1.99
			c-9.74-8.71-19.66-17.21-29.51-25.79c-0.63-0.55-1.23-1.11-1.85-1.67c-4.08-3.63-8.16-7.26-12.25-10.89
			c-0.32,0.3-0.64,0.6-0.96,0.9c0.23-2.06,0.47-4.13,0.8-7.12c-7.89,2.6-9.8-3.6-13.3-7.74c-5.09-6.02-10.49-11.78-15.76-17.65
			C356,191.33,356,190.67,356,190z"/>
		<path d="M606,162c-4.64,6.19-9.36,12.31-13.88,18.58c-3.31,4.59-7.25,8.53-11.09,12.58c-3.86,4.07-9.66,8.95-10.5,14.09
			c-1.24,7.6-6.77,11.16-10.4,16.43c-1.02,1.48-3.77,1.77-5.93,1.72c-0.92,1.38-1.69,2.91-2.79,4.13c-4.2,4.65-8.63,9.1-12.68,13.88
			c-0.91,1.07-0.66,3.13-0.9,4.74c-1.27,8.28-4.4,10.52-13.34,8.86c1.39,0.95,2.21,1.5,3.67,2.5c-2.63,3.69-5.06,7.39-7.78,10.86
			c-5.02,6.42-15.57,4.28-18.18-3.45c-2.93-8.66-2.29-16.63,6.02-23.4c1.28-1.05,2.69-1.99,3.76-3.23c4.1-4.72,4.48-4.78,8.88,0.1
			c0.86-1.77,2.52-3.56,2.2-4.87c-1.05-4.29,2-5.63,4.35-7.9c7.03-6.78,13.67-13.96,20.78-20.65c1.24-1.16,3.99-0.71,6.76-1.11
			c1.19-6.5,7.17-10.33,12.33-14.68c4.38-3.7,9.64-6.39,13.91-10.19c7.08-6.3,13.63-13.19,20.56-19.67c0.97-0.91,2.81-0.9,4.25-1.31
			C606,160.67,606,161.33,606,162z"/>
		<path d="M470.77,275.62c-0.11,1.58,0.11,3.27-0.39,4.72c-1.91,5.57-4.01,11.08-6.15,16.57c-0.25,0.64-1.12,1.15-1.82,1.49
			c-5.16,2.54-5.23,2.98-0.94,6.71c0.49,0.43,0.88,0.98,0.64,0.71c-4.06,9.58-7.76,18.74-11.94,27.67c-0.61,1.3-3.48,1.54-6.25,2.65
			c0.97,1.47,2.19,3.31,3.48,5.26c-2.39,5.47-4.98,11.14-7.32,16.9c-0.72,1.79-0.73,3.86-1.13,5.78c-0.84,4.09-2.32,5.15-7.37,4.48
			c1.77,2.08,3.02,3.55,4.65,5.46c-3.95,7.87-7.8,16.27-12.44,24.2c-1.04,1.77-4.79,2.18-7.39,2.73c-1.34,0.28-2.89-0.62-4.37-0.78
			c-7.84-0.83-12.84-4.46-14.41-12.15c-1.79-8.78-0.68-17.34,4.23-25.27c2.78-4.48,4.83-9.41,7.24-14.12
			c0.59-1.14,1.36-3.18,1.98-3.16c8.02,0.34,7.95-7.17,11.24-11.34c2.76-3.49,5.48-7.03,8.05-10.67c1.47-2.09,2.78-4.34,3.83-6.66
			c1.24-2.72,2.87-3.26,5.59-2.15c0.97,0.4,2.91,0.21,3.4-0.45c0.6-0.82,0.65-2.81,0.04-3.59c-2.29-2.93-0.61-4.36,1.25-6.69
			c4.23-5.32,7.36-11.53,11.75-16.69c3.85-4.53,8.8-8.13,13.27-12.15C469.92,275.26,470.34,275.44,470.77,275.62z"/>
		<path d="M478.04,281.37c1.19-1.13,2.57-2.45,3.24-3.08c-1.74-1.51-3.95-2.59-4.77-4.32c-2.05-4.32-3.7-8.87-5.09-13.45
			c-1.21-4,2.61-12.02,6.14-13.8c4.26-2.14,9.92-0.93,13.38,3.51c3.97,5.08,7.38,10.42,8.57,17.12c1.24,6.99,3.63,13.77,5.39,20.68
			c0.28,1.11-0.06,2.4-0.22,3.59c-0.1,0.76-0.83,1.87-0.56,2.17c3.55,3.94,1.71,8.66,1.61,12.91c-0.26,11.58,2.3,23.32-1.62,34.73
			c-0.27,0.78-0.15,1.76-0.57,2.4c-0.86,1.3-1.98,2.43-2.99,3.63c-0.56-1.34-1.32-2.63-1.64-4.02c-2.04-9.07-3.86-18.2-6.06-27.24
			c-0.57-2.34-1.86-4.77-3.51-6.5c-2.51-2.62-4.39-4.99-2.4-8.72c0.26-0.48,0.17-1.35-0.09-1.88
			C484.01,293.28,481.1,287.51,478.04,281.37z"/>
	</g>
</g>
</svg>
