<?xml version="1.0" encoding="utf-8"?>
<!-- Generator: Adobe Illustrator 26.2.1, SVG Export Plug-In . SVG Version: 6.00 Build 0)  -->
<svg version="1.1" id="Layer_1" xmlns="http://www.w3.org/2000/svg" xmlns:xlink="http://www.w3.org/1999/xlink" x="0px" y="0px"
	 viewBox="0 0 960 560" style="enable-background:new 0 0 960 560;" xml:space="preserve">
<g>
	<g>
		<path d="M569.35,391.71c-9.42-1.85-18.89-3.49-28.25-5.62c-12.29-2.8-24.35-7.14-36.77-8.55c-7.15-0.81-12.27-4.28-18.18-6.9
			c-3.79-1.68-7.21-1.59-10.53,1.58c-1.96,1.87-4.77,2.83-7.19,4.22c-0.97,0.56-2.05,1-2.87,1.73c-8.51,7.58-16.97,15.2-25.89,22.37
			c2.68-6.19,5.87-11.79,11.77-15.49c1.61-1.01,2.54-3.37,3.36-5.3c1.34-3.16,2.07-6.6,3.52-9.7c3.3-7.05,2.81-9.09-3.86-12.86
			c-1.59-0.9-3.2-1.84-4.92-2.43c-3.06-1.06-4.39-2.78-4.34-6.25c0.07-4.87-1.06-5.07-5.59-4.06c-2.42,0.54-5.74,0.06-7.76-1.29
			c-3.4-2.27-6.37-5.38-8.94-8.6c-0.85-1.07,0.13-3.57,0.21-5.42c0.09-2.06,0.7-4.39-0.07-6.06c-0.37-0.81-3.47-0.15-5.22-0.59
			c-1.85-0.47-4.28-0.96-5.23-2.31c-7.4-10.49-6.82-24.67,1.06-34.74c0.82-1.04,1.51-2.19,2.18-3.34
			c5.19-8.9,10.15-11.26,20.31-8.68c11.6,2.95,19.94,10.14,25.4,20.81c1.34,2.62,3.42,4.87,5.25,7.22
			c2.66,3.42,3.55,6.73-0.01,10.17c-0.94,0.91-1.97,2.06-2.22,3.26c-0.38,1.78-0.82,4.3,0.1,5.4c0.98,1.17,3.5,1.36,5.35,1.39
			c1.41,0.02,2.84-1.34,4.23-1.28c2.11,0.09,4.73,0.25,6.19,1.49c3.3,2.81,5.73,2.65,8.42-0.59c1.8-2.17,3.8-4.22,5.92-6.08
			c1.16-1.02,2.7-2.04,4.16-2.2c4.37-0.48,7.25-1.89,5.57-7.21c4.97-0.86,6.1-3.8,5.65-8.04c-0.66-6.28-2.42-7.54-8.2-5.17
			c-9.72,3.98-18.57,3.67-26.88-3.84c-4.83-4.36-10.98-7.25-15.89-11.53c-2.89-2.52-4.89-6.3-6.61-9.85
			c-1.95-4.02-2.26-7.97,1.34-11.94c3.78-4.15,2.9-6.76-2.31-9.02c-2.8-1.22-3.58-2.71-3-5.78c1.1-5.87,1.53-11.87,2.5-17.78
			c0.53-3.19,2.05-5.41,6.08-5.01c1.44,0.15,4.06-1.16,4.36-2.28c0.4-1.51-0.74-3.57-1.59-5.2c-0.67-1.29-2.09-2.16-2.88-3.41
			c-3.09-4.88-5.81-5.43-10.16-1.58c-1.85,1.64-3.24,3.79-4.89,5.65c-1.43,1.61-2.75,4.2-4.46,4.53c-6.65,1.26-6.76,5.97-7.22,11.1
			c-0.16,1.86-1.83,3.77-3.22,5.29c-1.2,1.31-2.98,2.1-4.49,3.13c-10.54,7.19-22.1,4.65-28.64-6.48
			c-4.33-7.36-5.94-15.54-5.85-23.97c0.08-6.94,1.93-8.5,8.35-11.05c3.31-1.31,6.19-3.82,9.13-5.97c3.55-2.59,6.91-3.68,10.85-0.55
			c3.22,2.56,5.08,0.11,4.77-2.66c-0.65-5.95,2.21-7.06,7.34-7.89c7.01-1.14,13.74-3.97,20.72-5.38c4.91-0.99,10.06-1.27,15.08-1.09
			c8.52,0.31,10.25-0.53,13.35-8.46c0.64-1.64,1.35-3.25,2.23-5.37c1.21,1.46,2.2,2.22,2.62,3.22c3.92,9.24,11.69,13.22,20.56,16.68
			c9.87,3.85,19.47,8.65,28.61,14.02c9.74,5.71,17.22,13.62,21.62,24.64c2.97,7.45,8.25,13.96,12.36,20.97
			c0.71,1.21,0.73,2.83,1.06,4.27c-1.48-0.23-3.59,0.1-4.33-0.76c-8.04-9.26-18.83-13.94-29.69-18.69
			c-1.43-0.62-1.92-3.73-2.49-5.79c-0.23-0.81,0.76-1.89,0.74-2.84c-0.05-2.31-0.37-4.62-0.57-6.92c-1.8,0.94-3.93,1.55-5.33,2.9
			c-4.03,3.86-8.57,3.58-12.99,1.62c-3.61-1.59-6.71-4.32-10.26-6.1c-1.43-0.72-3.46-0.26-5.22-0.33c0.4,1.75,0.19,4.25,1.29,5.13
			c7.03,5.66,9.66,13.72,12.44,21.7c1.57,4.51,1.25,8.15-4.44,10.02c-3.99,1.31-7.06,4.25-5.71,9.94c3.43-0.97,6.5-1.62,9.42-2.7
			c4.26-1.57,6.97,0.31,8.22,3.97c0.94,2.72,1.48,5.99,0.9,8.74c-1.21,5.8-3.35,11.4-4.92,17.13c-0.38,1.41-0.01,3.02,0.01,4.53
			c1.54-0.1,3.15,0.05,4.59-0.38c1.03-0.3,1.87-1.34,2.74-2.11c4.35-3.91,9.54-5.58,15.22-4.87c18.16,2.28,27.88,12.54,33.6,30.35
			c1.46,4.56-0.12,8.15-3.66,11.06c-1.54,1.27-3.42,2.23-4.68,3.73c-3.06,3.62-5.6,2.49-8.87,0.11c-2-1.45-4.93-1.62-7.44-2.36
			c-0.21,2.34-0.42,4.68-0.62,7.02c0.43,0.21,0.85,0.41,1.28,0.62c-6.89,4.28-13.72,8.64-20.71,12.77c-1.14,0.67-2.95,0.1-4.36,0.46
			c-1.17,0.3-3.22,1.35-3.14,1.68c0.98,4.34-2.52,5.72-4.83,7.97c-2.52,2.46-1.74,6.39,2.29,8.6c4.18,2.29,7.05,4.76,7.9,9.9
			c0.32,1.95,3.8,4.5,6.1,4.8c7.91,1.04,13.96,4.53,20.1,9.69c5.52,4.64,13.13,6.8,19.82,10.06
			C569.27,391.02,569.31,391.36,569.35,391.71z"/>
	</g>
</g>
</svg>
