<?xml version="1.0" encoding="utf-8"?>
<!-- Generator: Adobe Illustrator 26.2.1, SVG Export Plug-In . SVG Version: 6.00 Build 0)  -->
<svg version="1.1" id="Layer_1" xmlns="http://www.w3.org/2000/svg" xmlns:xlink="http://www.w3.org/1999/xlink" x="0px" y="0px"
	 viewBox="0 0 960 560" style="enable-background:new 0 0 960 560;" xml:space="preserve">
<g>
	<g>
		<path d="M606,293c-11.27,2.86-22.56,5.65-32.75,11.59c-1.22,0.71-2.88,0.69-5.73,1.32c-0.76,0.32-2.83,1.58-5.05,2.05
			c-6.98,1.47-14.06,2.44-21.01,4.01c-3.16,0.71-5.46,1.19-7.76-2.02c-2.73-3.82-3.57-2.76-6.78,0.68
			c-2.83,3.04-7.28,4.86-11.31,6.44c-9.7,3.8-19.61,7.08-29.39,10.71c-4.27,1.59-8.12,1.9-11.62-2.63
			c-4.14,5.97-9.37,5.02-15.16,3.26c-5.17-1.57-10.77-1.75-15.95-3.31c-2.74-0.82-5-3.25-7.84-5.21c-2.87,1.91-2.86,1.81-10.26,0.72
			c-7.33-1.08-14.73-1.66-22.01-2.97c-3.01-0.54-5.79-2.38-9.43-3.96c-2.42,5.48-7.83,2.57-12.72,2.2
			c-4.28-0.32-8.65-0.21-12.84-1.03c-6.58-1.29-8.44-4.68-7.55-12.15c0.49-4.06,3.38-6.25,9.34-6.01
			c11.96,0.49,23.93,1.13,35.83,2.3c1.95,0.19,3.6,3.37,5.88,5.66c0.15-0.06,1.44-0.2,2.16-0.91c3.3-3.29,7.22-3.12,11.16-2.04
			c7.51,2.06,15.02,4.18,20.72,10.12c0.67,0.7,3.03,0.86,3.73,0.26c3.14-2.7,6.48-2.27,9.9-1.18c9.4,3.02,18.67,1.84,28.05-0.2
			c1.99-0.43,4.39,0.99,6.96,1.65c2.54-9.71,12.46-9.96,19.8-13.66c7.45-3.76,15.37-6.18,24.37-2.25c4.8-7.03,11.87-3.4,17.4-2.57
			c17.07-6.16,33.35-6.39,49.89-2.87C606,291.67,606,292.33,606,293z"/>
		<path d="M356,282c4.83-8.34,13.6-7.6,21.33-8.97c1.55-0.27,3.42,1.29,5.9,2.31c5.91-4.85,14.01-1.34,21.53-2.03
			c2.23-0.21,4.85,3.72,8.22,6.52c1.65-1.24,4.21-2.92,6.47-4.94c1.99-1.79,3.6-2.82,6.55-1.62c2.68,1.09,5.89,0.79,8.79,1.43
			c2.82,0.62,4.66,2.16,4.54,5.57c-0.14,4.32,3.94,6.62,8.04,4.79c6.81-3.04,13.7-0.81,18.13,5.39c0.91,1.28,3.43,2.41,4.9,2.1
			c5.86-1.22,11.58-3.12,17.4-4.55c1.29-0.32,2.92-0.09,4.17,0.42c2.48,1.01,4.25,1.85,4.43-2.18c0.07-1.59,1.37-3.92,2.73-4.52
			c7.13-3.16,14.38-6.09,21.76-8.64c2.7-0.93,6.22-1.45,6.69,4.02c8.97-9.67,18.99-4.92,28.64-4.36
			c11.98,0.69,21.84,6.62,33.55,12.2c-2.08,0.14-2.74,0.39-3.19,0.18c-8.34-3.79-16.81-2.73-25.5-1.33
			c-6.65,1.07-13.54,0.65-20.24,1.52c-6.21,0.81-12.27,2.69-18.47,3.57c-1.87,0.27-3.99-1.24-5.99-1.93
			c0.14-0.41,0.28-0.81,0.42-1.22c-0.27,0.1-0.79,0.2-0.79,0.3c-0.05,5.33-3.8,6.63-7.87,8.96c-12.13,6.93-25.35,9.08-38.76,10.38
			c-6.12,0.59-12.66-0.06-16.69-6.24c-7.77,3.01-20.86-1.71-22.22-8.02c-0.33-0.04-0.83-0.23-0.96-0.09
			c-4.19,4.62-8.57,2.8-13.7,1.45c-5.97-1.57-12.49-0.95-18.72-1.73c-2.42-0.3-4.68-1.83-7.34-2.93c-7.6,4.92-17.25,5.39-26.84,4.81
			c-2.41-0.15-4.62-3.65-6.92-5.62C356,285.33,356,283.67,356,282z"/>
		<path d="M513.48,232.55c-3.31,2.33-6.61,4.68-9.92,7c-3,2.1-5.96,4.25-9.04,6.23c-3.2,2.06-5.97,3.99-7.08,8.27
			c-1.25,4.83-2.98,5.51-9,6.41c5.62,3.08,6.27,7.01,2.65,11.04c-4.45,4.96-7.71,12.22-16.72,9.35c-3.44-1.09-7.25-1.15-10.55-2.5
			c-4.54-1.86-6.57-6.16-4.85-10.7c3.36-8.85,8.97-15.71,19.03-18.15c-0.48-1.44-0.97-2.94-1.61-4.84
			c9.98-6.43,19.73-12.83,32.48-11.87c4.62,0.35,9.34-0.59,14.02-0.95C513.09,232.08,513.28,232.31,513.48,232.55z"/>
	</g>
</g>
</svg>
