<?xml version="1.0" encoding="utf-8"?>
<!-- Generator: Adobe Illustrator 26.2.1, SVG Export Plug-In . SVG Version: 6.00 Build 0)  -->
<svg version="1.1" id="Layer_1" xmlns="http://www.w3.org/2000/svg" xmlns:xlink="http://www.w3.org/1999/xlink" x="0px" y="0px"
	 viewBox="0 0 960 560" style="enable-background:new 0 0 960 560;" xml:space="preserve">
<g>
	<g>
		<path d="M606,216c-8.1,4.84-16.23,9.63-24.29,14.54c-5.24,3.2-10.35,6.6-15.57,9.85c-1.59,0.99-3.31,1.77-5.62,2.99
			c0-2.85,0-4.76,0-6.9c-3.12-1.88-5.67-0.04-7.03,2.22c-0.96,1.6-0.19,4.24-0.19,6.41c0.47,0.17,0.95,0.34,1.42,0.51
			c-1.28,0.82-2.45,1.99-3.85,2.41c-12.39,3.74-22.27,11.49-32,19.58c-1.26,1.05-3.48,1.24-5.26,1.26
			c-1.68,0.03-3.38-0.68-5.07-1.07c0,1.68-0.12,3.37,0.05,5.03c0.08,0.74,0.74,1.43,0.66,1.28c6.76-1.6,13.12-2.91,19.37-4.62
			c7.54-2.07,12.52,2.16,16.87,7.02c1.05,1.17-0.36,4.55-0.64,6.93c3.15,0.46,6.83-5.06,10.33-0.95c4.29,5.02,8.87,10.56,8.57,17.51
			c-0.33,7.53-2.01,15.03-3.43,22.48c-0.33,1.76-1.95,3.27-2.98,4.89c-5.51-3.17-10.62-5.91-15.5-9c-3.86-2.44-5.02-6-2.41-11.2
			c-1.58,1.06-2.67,1.44-3.2,2.22c-1.79,2.63-3.44,1.56-5.41,0.23c-2.39-1.61-5.36-2.54-7.34-4.5c-1.68-1.67-2.31-4.4-3.67-7.19
			c-1.68,1.27-4.16,3.14-6.53,4.92c-9.21-4.45-8.31-12.4-7.37-19.61c-6.18,3.71-12.43,7.47-18.99,11.41
			c7.25,0.68,10.37,4.75,7.45,12.65c6.98-3.69,14.48-1.21,19.18,5.37c5.25,7.35,8.11,15.6,9.28,24.45c0.25,1.9-0.15,3.99-0.7,5.85
			c-0.88,2.97-2.36,3.67-5.54,1.95c-3.98-2.15-8.42-3.62-12.81-4.78c-4.68-1.23-8.71-2.59-8.36-9.01c-2.15,4.08-5.63,6.5-8.97,3.65
			c-4.04-3.44-12.69-2.75-11.08-11.85c-4.91,7.48-14.07,6.55-18.41-1.51c-4.13-7.67-4.3-14.97,2.87-21.8
			c-3.78-2.02-6.97-3.7-10.13-5.41c-13.04-7.06-15.04-25.23-3.4-34.43c5.36-4.23,11.67-7.27,17.55-10.86
			c3.47-2.11,5.97-1.59,7.2,2.59c0.18,0.62,0.48,1.47,0.96,1.7c1.68,0.78,3.52,1.88,5.2,1.73c0.76-0.07,1.65-2.76,1.81-4.33
			c0.15-1.53-0.56-3.15-0.79-4.26c5.5-2.73,10.59-5.24,16.23-8.03c0.86,2.96,1.54,5.6,2.39,8.18c0.79,2.38,1.78,4.69,2.68,7.03
			c0.51-0.09,1.01-0.19,1.52-0.28c0.61-4.82,1.01-9.69,1.96-14.45c0.31-1.58,1.79-3.24,3.18-4.23c3.11-2.2,6.33-4.41,9.82-5.87
			c7.07-2.96,14.34-5.43,21.97-8.27c0.57,1.57,1.2,3.32,2.18,6.02c4.84-9.72,13.9-9.97,22.1-11.9c5.97-1.4,11.93-2.95,17.99-3.83
			c8.82-1.28,17.53-0.6,25.78,3.24C606,214.67,606,215.33,606,216z"/>
		<path d="M356,302c0.31-3.61,0.69-7.22,0.91-10.84c0.27-4.4,0.49-8.68,6.25-9.58c1.4-0.22,2.66-1.25,4.37-2.09
			c-0.95-1.65-1.88-3.29-2.92-5.1c6.21-7.47,13.57-12.65,23.67-12.69c8.05-0.04,9.54,1.61,8.2,9.61c2.21-0.84,4.05-1.55,5.84-2.23
			c13.85,13.44,8.67,25.1-3.3,30.8c-1.27-4.94-1.71-10.31-4.08-14.62c-1.53-2.77-5.85-5.46-8.97-5.51
			c-3.31-0.05-5.23,3.68-3.46,7.62c0.13,0.3,0.39,0.69,0.3,0.93c-2.26,6.29-5.48,12.5-0.82,18.09c-3.2,1.28-5.71,2.04-7.91,3.33
			c-0.54,0.31-0.25,3.39-0.06,3.42c2.8,0.43,5.64,0.57,9.46,0.84c0.22,0.34,1.18,1.64,1.93,3.05c3.17,5.94,7.69,7.06,13.13,2.81
			c1.88-1.47,3.8-3.59,4.47-5.79c1.34-4.45,3.48-6.58,8.58-4.53c0.13-0.48,0.27-0.95,0.4-1.43c-2-1.81-4.01-3.61-6.52-5.88
			c1.23-6.57,4.79-13.25,10.31-17.33c3.5-2.59,9.96-2.31,14.85-1.62c8.74,1.23,17.73,11.21,18.78,19.97
			c0.91,7.59,0.93,15.32-4.72,21.39c-2.39,2.57-5.62,4.42-8.65,6.29c-2.09,1.29-4.55,1.98-6.75,3.11c-4.08,2.1-7.35,1.29-9.95-2.43
			c-1.46-2.1-2.89-4.23-4.33-6.34c-0.64,0.35-1.28,0.71-1.92,1.06c1.87,3.6,3.39,7.45,5.7,10.74c2.99,4.25,2.84,5.03-1.45,7.76
			c-4.24,2.7-8.26,4.95-13.58,5.42c-9.87,0.86-11.46,0.51-16.73-8.61c-1.52,2.23-2.83,4.16-4.85,7.13
			c-3.84-2.84-8.48-5.09-11.39-8.72c-4.1-5.12-7.42-11.05-10.09-17.07c-1.26-2.83-0.22-6.68-0.22-9.69
			c-1.44-2.01-2.96-4.13-4.48-6.26C356,305.33,356,303.67,356,302z"/>
	</g>
</g>
</svg>
