<?xml version="1.0" encoding="utf-8"?>
<!-- Generator: Adobe Illustrator 26.2.1, SVG Export Plug-In . SVG Version: 6.00 Build 0)  -->
<svg version="1.1" id="Layer_1" xmlns="http://www.w3.org/2000/svg" xmlns:xlink="http://www.w3.org/1999/xlink" x="0px" y="0px"
	 viewBox="0 0 960 560" style="enable-background:new 0 0 960 560;" xml:space="preserve">
<g>
	<g>
		<path d="M448,156c5.86,1.36,6.63,5.76,6.91,10.83c0.14,2.62,1.42,5.18,2.19,7.77c2.28-1.67,5.07-2.93,6.73-5.08
			c4.81-6.23,4.83-6.39,12.4-4.05c10.37,3.2,19.4,8.67,27.5,15.83c3.09,2.73,5.64,5.55,5.47,10.1c-0.1,2.81,1.19,4.23,4.46,3.47
			c1.49-0.34,3.92,0.01,4.81,1.03c7.99,9.11,14.34,19.17,16.37,31.4c0.18,1.1-0.11,2.28-0.19,3.54c-1.98,0.59-3.84,1.15-5.6,1.67
			c-0.07,0.59-0.26,1.02-0.12,1.2c7.65,10.18,7.69,13.13-0.14,23.14c-2.99,3.82-4.53,7.56-1.96,12.34
			c3.42,6.36,3.26,6.44-3.64,10.35c0.57,2.49,1.16,5.1,2.07,9.08c2.8-2.54,4.81-4.13,6.55-5.98c2.89-3.08,5.59-4.01,9.57-1.33
			c2.8,1.88,6.48,2.42,9.72,3.7c3.06,1.21,6.61,2,8.94,4.08c2.96,2.65,4.59,1.66,7.23-0.18c10.33-7.22,20.86-14.17,31.31-21.22
			c0.31,0.44,0.63,0.88,0.94,1.31c-9.77,6.96-19.54,13.92-30.45,21.69c16.01,7.76,21.73,21.49,26.83,35.89
			c-1.43,1.17-2.78,2.28-4.1,3.36c7.16,11.99,6.44,22.86-2.09,34.49c-1.58,2.15-3.12,4.32-4.69,6.48
			c-12.09,16.62-17.25,19.85-38.08,23.74c-0.48-1.28-0.98-2.6-1.75-4.67c-5.25,7.65-12.46,6.92-19.55,5.48
			c-8.74-1.78-17.45-3.85-26.01-6.36c-2.64-0.77-5.05-3.08-7.04-5.18c-3.56-3.73-6.76-7.8-10.03-11.79
			c-2.35-2.86-4.23-3.08-7.29-0.37c-12.12,10.68-24.54,21.01-37.53,30.99c1.6-1.89,3.15-3.82,4.79-5.66
			c4-4.47,7.91-9.02,12.14-13.26c1.41-1.41,3.6-2.23,5.58-2.82c3.95-1.17,6.54-3.02,7.71-7.46c0.73-2.76,3.44-5.12,5.61-7.34
			c4.08-4.17,3.55-12.51-1.75-15.06c-6.11-2.94-12.62-5.13-19.1-7.16c-4.18-1.31-6.62-2.74-5.59-7.9c0.9-4.53-0.84-5.7-4.97-3.51
			c-4.46,2.37-7.47,1.27-11.08-1.87c-9.29-8.09-18.95-15.77-28.54-23.52c-2.39-1.93-3.94-3.7-2.44-7.08
			c1.27-2.86,0.15-4.74-3.25-3.89c-5.58,1.41-9.8-0.89-13.4-4.71c-3.08-3.27-6.3-6.54-8.65-10.31c-1.14-1.83-0.41-4.81-0.54-7.68
			c-0.93,0-2.03-0.03-3.13,0c-6.15,0.17-11.78-4.28-12.7-10.42c-1.28-8.51,0.16-16.62,4.54-24.07c10.2-17.36,36.85-19.8,50.25-4.67
			c3.17,3.58,5.02,7.01,0.65,11.13c-0.97,0.91-0.92,2.9-1.34,4.39c1.5,0.39,3.12,1.34,4.49,1.07c4.47-0.91,6.74,1.19,9.35,4.58
			c5.68,7.37,11.94,14.31,18.26,21.16c2.11,2.28,2.99,4.03,1.39,6.92c-2,3.62-1.04,5.27,3.39,4.69c1.16-0.15,3.31,0.93,3.67,1.92
			c2.95,8.11,8.54,14.21,14.52,20.08c2.85,2.8,5.7,5.61,8.53,8.44c0.94,0.94,2.41,1.84,2.63,2.95c1.76,9.19,11.94,11.37,15.56,19
			c1.46,3.07,4.17,3.1,6.75,1.41c2.35-1.54,4.57-3.32,6.69-5.18c7.73-6.81,15.39-13.7,23.08-20.56c1.73-1.54,3.48-3.06,5.28-4.64
			c-10.15-4.67-19.76-9.1-29.35-13.51c2.5-5.71,0.73-9.11-4.17-11.42c-1.84-0.87-3.82-2.55-4.61-4.36
			c-5.95-13.54-4.8-26.62,3.79-38.69c1.53-2.15,4.73-3.11,7.77-5c-0.33-3.11-1.19-6.34-5.26-8.38c-1.88-0.94-3.68-3.25-4.31-5.31
			c-3.67-12.07-12.54-19.44-22.77-25.4c-3.1-1.8-7.14-1.98-11.61-3.13c0.04-0.07-1.13,0.99-1.16,2.09
			c-0.14,5.87-3.94,6.41-8.62,7.22c-7.17,1.23-14.38,2.97-21.16,5.56c-4.87,1.86-8.23,1.85-11.03-2.72
			c-0.61-0.99-1.28-1.94-2.33-3.52c-1.11,1.78-1.99,2.55-1.99,3.31c0.03,5.85-3.73,8.39-8.63,9.17c-5.62,0.9-12.09,2.89-16.91,1.04
			c-10.69-4.09-14.39-10.5-12.52-21.46c2.85-16.63,13.22-27.59,27.57-35.21c1.37-0.73,3.8-0.06,5.51,0.58
			c1.96,0.74,3.66,2.17,5.25,3.15c0.73-0.29,1.24-0.35,1.3-0.54c2.03-7.21,7.97-8.39,14.15-9.2C439.33,156,443.67,156,448,156z
			 M563.65,315.44c-3.37,4.71-7.19,3.49-11.44,0.65c-6.56-4.39-6.35-3.86-12.78,1.07c-7.59,5.82-12.58,15.14-22.93,17.34
			c-0.63,0.13-1.31,1.13-1.55,1.87c-1.34,4.21-4.21,6.87-8.02,8.9c-4.29,2.29-3.73,5.29-0.7,8.37c2.03,2.05,4.03,4.13,6.05,6.19
			c-3.15,0.4-5.71-0.35-8.29-0.45c-5.53-0.22-11.24-2.24-16.44,1.54c-3.6,2.62-3.76,4.28,0.11,6.65c6.05,3.71,13.87,5.09,15.92,13.5
			c7.8-5.48,7.74-5.31,16.49-2.17c10.49,3.76,20.56,3.2,29.92-3.63c1.05-0.76,3.79-0.59,4.82,0.26c3.79,3.13,5.29,3.18,7.14-1.42
			c3.64-9.08,7.23-18.2,10.29-27.49c2.55-7.73,0.98-15.04-3.84-21.76C566.46,322.16,565.34,318.87,563.65,315.44z"/>
	</g>
</g>
</svg>
