<?xml version="1.0" encoding="utf-8"?>
<!-- Generator: Adobe Illustrator 26.2.1, SVG Export Plug-In . SVG Version: 6.00 Build 0)  -->
<svg version="1.1" id="Layer_1" xmlns="http://www.w3.org/2000/svg" xmlns:xlink="http://www.w3.org/1999/xlink" x="0px" y="0px"
	 viewBox="0 0 960 560" style="enable-background:new 0 0 960 560;" xml:space="preserve">
<g>
	<g>
		<path d="M356,235c0.52-2.69,1.85-5.53,1.41-8.05c-1.18-6.83,1.15-11.24,7.95-13.43c-2.95-6.21,1.18-9.24,5.11-12.05
			c5.45-3.9,11.22-7.26,18.49-5.81c-5.11,7.76-9.9,15.05-15.23,23.14c0,0.3,0.68,2.45-0.11,3.64c-6.65,10.08-2,17.93,4.61,25.49
			c0.65,0.75,1.33,1.48,2.33,2.59c3.82-4.33,8.39-2.46,12.53-0.79c0.71,0.29-0.12,4.4-0.25,7.16c1.55,1.02,3.54,2.33,6.02,3.97
			c0.49-1.97,0.72-3.22,1.11-4.42c1.19-3.67,3.33-6.08,7.61-5.72c2.49,0.21,4.98,0.28,7.48,0.39c7.26,0.33,7.69,0.7,8.82,7.62
			c6.74-2.81,13.52-5.64,20.88-8.71c0,3.79,0,6.52,0,10.81c3.32-4.58,7.48-6.18,8.84-11.4c0.71-2.72,5.36-5.9,8.5-6.23
			c9.08-0.95,18.01,1.09,26.4,4.82c4.24,1.88,8.2,4.39,12.41,6.34c3.49,1.61,4.72,3.69,3.15,7.47c-0.85,2.05-0.92,4.43-1.35,6.66
			c0.53,0.37,1.07,0.73,1.6,1.1c2.55-2.85,5.88-5.31,7.5-8.61c4.02-8.19,6.29-9.87,16.98-9.52c0.5,2.55,1.03,5.23,1.84,9.31
			c2.43-3.28,3.78-6.28,6.09-7.91c2.43-1.71,5.78-2.12,8.71-3.1c0.5,0.78,0.75,1.19,1.01,1.59c1.21,1.86,2.93,5.46,3.57,5.28
			c3.25-0.92,6.44-2.41,6.95-6.74c0.19-1.58,1.55-3.57,2.95-4.35c4.04-2.27,8.37-4.03,12.69-6.04c0.29,0.22,0.69,0.51,1.07,0.81
			c1.64,1.29,3.28,2.59,4.91,3.89c1.45-2.26,3.73-4.37,4.17-6.81c0.96-5.31,0.75-10.82,1.42-16.19c0.96-7.73-0.71-14.29-6.53-19.89
			c-1.93-1.86-2.43-5.16-3.8-7.68c-1.22-2.26-2.74-4.35-4.13-6.52c-0.69-1.07-1.36-2.15-1.53-3.68c8.72,3.12,15.78,8.29,21.41,15.38
			c0.93,1.17,1.57,2.55,2.51,3.71c3.65,4.51,8.08,8.81,2.96,15.09c-0.36,0.44,0.07,1.53,0.16,2.67c1.69-0.09,3.38-0.66,4.52-0.11
			c1.63,0.79,3.7,2.19,4.11,3.72c1.12,4.27,1.49,8.74,2.15,13.13c0,3.33,0,6.67,0,10c-1.98,3.59-3.73,7.33-6.07,10.67
			c-0.86,1.23-3.06,1.97-4.71,2.08c-2.48,0.16-5-0.44-7.51-0.72c0.25,2.46,0.51,4.93,0.65,6.37c-5.23,3.96-10.28,7.77-15.32,11.59
			c-5.57,4.21-11.25,7.1-18.27,2.94c-2.62-1.56-5.67-2.39-9.04-3.77c-3.54,8.46-8.52,17.07-21.55,15.89
			c8.26,12.69,5.2,26.89-6.02,31.27c-4.95,1.93-10.61,2.66-15.97,2.79c-6.19,0.15-10.88-7.15-9.17-13.06
			c0.58-2.02,0.68-4.35,1.82-5.97c1.02-1.46,3.16-2.14,4.41-4.12c-6.88,0.56-7.38-4.67-9.77-7.99c-3.26-4.52,1.89-8.06,0.49-13.3
			c-2.25,0.44-4.77,1.36-7.28,1.32c-3.34-0.06-6.72-0.68-10-1.41c-2.73-0.61-5.43-1.55-7.98-2.7c-1.35-0.61-2.44-1.91-3.49-3.04
			c-1.6-1.74-3.07-3.6-4.77-5.63c-4.05,3.94-2.24,7.88-0.64,10.5c1.72,2.82,0.94,4.41-0.15,6.73c-1.02,2.16-1.53,4.56-1.75,7.03
			c-6.53,5.72-8.59,5.81-18.97,0.67c-2.95,7.31-5.88,14.57-8.87,21.97c6.1,0.69,7.1,2.38,7.26,8.05c0.08,2.85,1.08,6.36,2.96,8.34
			c4.04,4.25,7.75,8.19,6.53,14.69c-0.21,1.14,0.56,2.47,1.81,2.55c2.65,1.19,5.32,2.36,7.96,3.58c4.46,2.06,8.93,4.12,13.36,6.26
			c2.46,1.19,5.06,2.26,7.18,3.92c3.48,2.73,5.41,2.55,8.15-1.04c1.12-1.46,2.78-3.37,4.32-3.49c9.01-0.74,14.43-6.96,20.3-12.56
			c3.96-3.78,7.81-7.68,11.76-11.48c0.53-0.51,1.33-0.75,2.81-0.48c-3.64,6.31-7.11,12.73-10.98,18.89
			c-2.99,4.76-6.31,9.34-9.88,13.67c-0.92,1.11-3.59,1.77-5,1.29c-4.06-1.37-5.8,0.01-5.84,3.92c-0.04,4.12-1.22,5.23-5.76,4.54
			c-5.27-0.8-10.88-0.23-16.24,0.53c-5.89,0.83-10.25-2.68-11.38-11.06c-2.02,1.66-3.63,2.98-6.37,5.24
			c-9.67-6.17-20.04-12.31-29.86-19.24c-5.76-4.06-6.27-9.24-2.96-15.49c-0.43-0.34-0.86-0.95-1.39-1.05
			c-10.85-2.08-12.43-10.83-13.56-19.46c-0.71-5.41-0.33-10.97-0.28-16.46c0.02-1.54,0.62-3.08,1.01-4.9
			c1.94,0.52,3.37,1.27,4.72,1.16c1.22-0.1,2.75-0.88,3.44-1.86c0.62-0.88,0.75-3.28,0.3-3.52c-1.3-0.69-3.5-1.39-4.45-0.75
			c-9.09,6.12-13.64-3.26-20.11-5.83c-0.75-0.3-0.89-2.6-0.97-3.99c-0.11-1.71,0.14-3.44,0.23-5.15c-0.4-0.21-0.81-0.42-1.21-0.63
			c-1.53,1.45-3.07,2.91-4.56,4.32c-4.41-2.65-8.89-5.16-13.18-7.96c-4.9-3.19-7.37-11.43-5.8-17.22c0.78-2.87,3.7-7.11-2.93-7.28
			c-0.47-2.38-0.95-4.77-1.42-7.16C356,238.33,356,236.67,356,235z"/>
	</g>
</g>
</svg>
