<?xml version="1.0" encoding="utf-8"?>
<!-- Generator: Adobe Illustrator 26.2.1, SVG Export Plug-In . SVG Version: 6.00 Build 0)  -->
<svg version="1.1" id="Layer_1" xmlns="http://www.w3.org/2000/svg" xmlns:xlink="http://www.w3.org/1999/xlink" x="0px" y="0px"
	 viewBox="0 0 960 560" style="enable-background:new 0 0 960 560;" xml:space="preserve">
<g>
	<g>
		<path d="M356,304c5.92-11.15,15.55-19.08,25.03-26.7c3.32-2.67,3.88-6.78,7.74-8.85c6.1-3.26,11.56-7.71,17.47-11.36
			c1.31-0.81,3.38-0.37,5.99-0.58c1.37-3.34,5.04-4.49,10.07-4.71c1.07-3.88,4.56-4.21,8.75-3.2c2.26,0.54,4.57,1.03,6.88,1.2
			c5.84,0.43,9.32,3.38,12.29,8.53c2,3.47,6.41,5.56,10.36,8.77c-0.17,0.58-0.66,2.28-1.28,4.42c0.99-0.09,2.09-0.55,2.61-0.18
			c2.98,2.05,7.08,3.72,8.43,6.62c1.83,3.93-0.41,8.05-4.24,10.7c-3.27,2.26-6.78,2.38-9.72-0.07c-2.75-2.29-4.88-5.32-7.37-8.12
			c1-1.54,2.05-3.16,2.47-3.82c-2.94-1.41-5.71-2.67-8.4-4.06c-1.47-0.76-2.71-2.15-4.24-2.56c-4.5-1.2-6.53-3.65-5.21-7.32
			c-3.14,0.56-6.52,0.94-9.77,1.8c-3.99,1.06-8.06,2.12-11.76,3.89c-6.79,3.24-6.69,3.45-12.03-0.67c0.48,5.44-2.9,7.32-7,9.56
			c-5.9,3.23-11.29,7.5-16.6,11.7c-6.5,5.15-12.67,10.7-19.03,16.03c-0.28,0.24-0.96,0-1.45-0.02C356,304.67,356,304.33,356,304z"/>
		<path d="M606,313c-2.91-2.65-5.89-5.23-8.73-7.97c-5.72-5.52-11.53-10.98-16.96-16.78c-2.17-2.32-3.43-5.49-5.4-8.76
			c-0.07,0.19-0.57,1.61-1.05,2.93c-5.25-4.78-9.38-8.87-13.9-12.47c-1.5-1.19-4.05-1.58-6.07-1.48c-3.77,0.19-7.49,1.17-11.27,1.48
			c-1,0.08-2.1-1.08-2.08-1.07c-2.79,1.53-5.14,2.93-7.6,4.13c-2.63,1.28-5.79,1.85-7.95,3.65c-2.68,2.23-4.68,3.21-7.04-0.34
			c-1.88,6.18-9.57,12.72-14.24,11.63c-2.72-0.63-5.97-2.67-7.14-5c-0.78-1.55,1.15-5.25,2.86-7.05c2.04-2.16,5.02-3.6,7.81-4.85
			c3.42-1.53,6.53-2.69,8.94-6.25c1.83-2.69,6.19-3.67,9.91-5.67c1.04,2.93,1.68,4.76,2.85,8.06c0.87-2.43,1.9-3.82,1.66-4.93
			c-0.76-3.48,1.08-4.2,3.85-4.95c4.26-1.16,8.47-2.63,12.54-4.35c3.32-1.4,6.26-1.75,9.41,0.4c2.88,1.97,6.18,3.34,8.93,5.45
			c1.86,1.43,3.09,3.68,4.84,5.86c2.83-2.16,4.81-0.79,6.93,2.41c3.48,5.25,7.61,10.06,11.36,15.14c0.73,0.99,1.49,2.44,1.32,3.54
			c-0.62,4.2,1.3,4.61,4.62,3.38c3.89,7,7.73,13.93,11.58,20.86C606,311,606,312,606,313z"/>
		<path d="M484.11,267.82c3.97-1.86,7.68-3.59,11.38-5.32c0.44,0.43,0.89,0.86,1.33,1.28c-0.73,2.61-1.08,5.41-2.28,7.78
			c-2.28,4.54-4.87,8.95-7.64,13.21c-2.82,4.34-7.93,3.76-9.9-1.37c-2.06-5.37-3.4-11.02-4.72-16.63c-0.24-1.02,1.14-3.44,1.81-3.46
			c2.37-0.05,4.89,0.32,7.07,1.22C482.51,265.07,483.33,266.89,484.11,267.82z"/>
		<path d="M543.14,289.52c-1.77-2.18-4.84-4.29-4.92-6.51c-0.11-2.83,1.52-7.16,3.68-8.21c1.97-0.96,6.31,0.85,8.44,2.75
			c3.68,3.26,4.06,7.57,2.72,12.74c-0.93,3.62,1,7.99,1.74,12.01c0.47,2.54,1.09,5.05,0.94,7.86
			C551.02,303.44,544.78,297.69,543.14,289.52z"/>
		<path d="M404.87,309.15c1.17-3.53,2.34-7.05,3.5-10.58c2.36-7.19,4.39-14.52,7.23-21.51c1.2-2.96,3.9-5.49,6.42-7.63
			c0.59-0.5,4.53,1.22,4.65,2.19c0.41,3.37,0.74,7.3-0.62,10.21c-1.71,3.66-5.31,6.39-7.73,9.78c-3.26,4.57-6.15,9.41-9.24,14.1
			c-0.92,1.4-1.98,2.71-2.98,4.06C405.68,309.57,405.27,309.36,404.87,309.15z"/>
	</g>
</g>
</svg>
