<?xml version="1.0" encoding="utf-8"?>
<!-- Generator: Adobe Illustrator 26.2.1, SVG Export Plug-In . SVG Version: 6.00 Build 0)  -->
<svg version="1.1" id="Layer_1" xmlns="http://www.w3.org/2000/svg" xmlns:xlink="http://www.w3.org/1999/xlink" x="0px" y="0px"
	 viewBox="0 0 960 560" style="enable-background:new 0 0 960 560;" xml:space="preserve">
<g>
	<g>
		<path d="M606,305c-1.47,4.54-4.79,6.81-9.36,6.71c-9.72-0.22-19.45-0.56-29.14-1.33c-2.51-0.2-4.89-2.18-6.64-3.02
			c-4.26,1.57-8.42,2.89-12.38,4.66c-1.59,0.71-2.99,2.23-4.02,3.7c-4.07,5.8-7.63,12-12.06,17.5c-2.5,3.1-6.09,4.63-10.66,2.18
			c-2.59-1.38-6.18-0.8-9.28-1.34c-8.08-1.41-14.59-4.73-15.88-14.65c-2.68,0.65-5.26,0.77-7.31,1.87
			c-7.4,3.99-15.42,5.99-23.54,5.32c-4.94-0.41-9.93-3.16-14.31-5.83c-1.83-1.11-2.13-4.73-3.39-6.78
			c-2.37-3.08-5.03-5.99-7.04-9.29c-1.67-2.75-3.38-4.71-6.83-4.92c-1.59-0.1-3.15-1-4.7-1.61c-3.72-1.47-7.11-2.5-11.34-0.51
			c-4.18,1.97-9.01,2.29-13.41-0.6c-0.99-0.65-2.48-0.7-3.75-0.75c-2.68-0.11-5.36-0.03-8.06-0.74c-5.31,1.54-10.17,1.19-14.82-2.57
			c-1.17-0.94-3.38-1.37-4.86-1.01c-10.05,2.44-14.24-0.14-16.38-10.41c-0.12-0.56-0.55-1.04-0.84-1.56c0-0.33,0-0.67,0-1
			c4.17-3.46,8.35-6.92,12.78-10.6c-3.81-7.67-6.24-11.59,0.1-16.87c2.37-1.97,6.72-3.64,9.35-2.82c8.35,2.6,16.44,6.16,24.32,10
			c2,0.98,2.84,4.35,4.01,6.28c3.53,0.32,7.27,0.66,11.02,1c4.72,0.42,6.85,2.96,6.11,7.65c3.46,0,6.74,0,10.94,0
			c0.57-2.62,1.33-6.09,2.08-9.57c1.46-6.82,6.03-12.33,6.41-20.03c0.25-5.16,5.57-10.91,9.98-14.87
			c9.59-8.61,22.43-3.73,25.01,8.86c2.33,11.35,0.04,15.39-10.75,19c-1.41,9.11-5.23,14.24-13.58,17.92
			c2.19,4.44,3.55,9.12,10.04,9.51c4.37,0.26,8.65,1.95,13.47,3.13c-7.41,4.61-17.35-0.87-23.93,7.1
			c9.92,5.96,19.4,11.66,28.88,17.35c-0.12,0.37-0.24,0.73-0.36,1.1c-7.74-1.66-15.48-3.32-23.22-4.98
			c-0.88,4.26-0.5,4.62,3.55,4.82c1.27,0.06,2.68,0.87,3.72,1.71c8.33,6.72,18.51,7.89,26.19,3.27c-2.34-6.38-4.64-12.65-7.14-19.49
			c-6.93-0.35-14.75-0.75-22.57-1.14c-0.02-0.39-0.04-0.78-0.06-1.16c6.41-1.09,12.86-2.02,19.2-3.4c1.69-0.37,3.09-2.11,4.62-3.22
			c5.28-3.83,3.74-9.33,4.05-14.65c0.32-5.46,1.07-11.54,7.19-12.43c0.27-3.83-0.53-7.64,0.93-10.12
			c3.66-6.22,7.84-12.32,12.79-17.53c4.12-4.34,9.9-3.36,14.89-0.68c5.87,3.15,9.46,9.75,7.92,15.91c-1.22,4.9-3.47,9.71-6.14,14.01
			c-1.23,1.99-4.55,2.7-5.7,3.33c-4.96,7.55-9.39,14.29-13.81,21.03c0.42,0.27,0.84,0.53,1.26,0.8c5.41-1.1,11.03-1.63,16.19-3.45
			c4.52-1.59,8.39,0.02,12.57,0.42c2.08,0.2,4.38-0.08,6.35-0.8c6.6-2.42,13.07-5.2,19.65-7.71c2.72-1.04,5.73-1.41,8.33-2.66
			c7.33-3.5,15.02-4.25,22.89-3.21c5.47,0.72,11.13,13.03,8.16,17.59c-0.88,1.35-2.83,2.01-3.82,2.67c2.03,2.63,4.09,5.28,6.15,7.94
			C606,301.67,606,303.33,606,305z M512.26,316.28c2.69,2.86,4.43,4.78,6.25,6.62c0.69,0.69,1.49,1.38,2.38,1.73
			c6.8,2.72,16.74-2.58,19.1-10.47C530.84,314.86,521.86,315.55,512.26,316.28z M526.24,303.37c-1.64-0.36-2.26-0.49-2.87-0.64
			c-4.47-1.08-9.68,0.63-13.36-3.75c-0.36-0.43-3.09,0.51-4.11,1.47c-0.57,0.53-0.27,2.62,0.31,3.62c1.03,1.77,2.57,3.25,4.16,5.17
			C515.26,307.43,520.28,305.57,526.24,303.37z"/>
	</g>
</g>
</svg>
