<?xml version="1.0" encoding="utf-8"?>
<!-- Generator: Adobe Illustrator 26.2.1, SVG Export Plug-In . SVG Version: 6.00 Build 0)  -->
<svg version="1.1" id="Layer_1" xmlns="http://www.w3.org/2000/svg" xmlns:xlink="http://www.w3.org/1999/xlink" x="0px" y="0px"
	 viewBox="0 0 960 560" style="enable-background:new 0 0 960 560;" xml:space="preserve">
<g>
	<g>
		<path d="M356,324c4.63-8.1,8.62-16.59,16.87-22.01c7.74-5.09,11.35-5.26,18.11,0.12c1.16-3.72,1.21-9.12,3.73-10.78
			c4.63-3.04,10.69-3.93,16.18-5.61c5.66-1.73,11.34-3.38,17.04-4.98c2.22-0.63,4.48-1.39,6.75-1.5c6.21-0.28,11.46-1.78,13.37-9.18
			c-5.73-3.17-11.79-6.45-17.77-9.86c-9.56-5.46-19.28-10.7-28.45-16.77c-2.1-1.39-1.52-6.43-3.5-8.53
			c-1.87-1.99-6.14-1.61-8.24-3.51c-11.47-10.4-17.79-24.28-24.75-37.7c0.31-0.39,0.62-0.77,0.93-1.16c1.5,1.27,3.08,2.46,4.48,3.84
			c6.27,6.17,12.31,12.58,18.81,18.49c2.65,2.41,6.64,3.32,9.38,5.66c6.44,5.51,12.28,11.73,18.83,17.09
			c1.99,1.63,5.65,2.29,8.28,1.84c4.55-0.78,7.23,0.79,10.98,3.32c6.54,4.41,14.3,7.13,21.79,9.91c1.47,0.54,4.53-1.42,5.99-3.02
			c2.32-2.55,4.03-5.69,5.75-8.72c1.78-3.14,3.91-5.31,7.7-6.23c2.04-0.49,4.16-2.28,2.84-5.75c-0.68-1.79,0.22-4.57,1.2-6.51
			c8.61-17.13,5.85-33.24-3.97-48.82c-1.63-2.6-3.18-5.25-5.18-8.57c13.81,3.74,30.43,26,27.91,38.67
			c-2.84,14.3-4.18,29.6-15.02,41.05c-2.99,3.16-5.92,6-5.47,10.64c8.34-0.85,16.69-1.4,24.93-2.68c3.84-0.59,7.58-2.33,11.16-3.99
			c5.48-2.53,11.08-3.19,17.02-2.51c0.97,0.11,3.16-1.62,3.05-2.06c-1.68-6.59,4.21-10.34,7.39-12.14
			c8.17-4.63,13.03-11.53,17.87-18.82c4.95-7.46,9.91-14.91,14.67-22.48c1.96-3.12,4.56-3.62,7.13-1.76
			c4.21,3.06,8.41,6.33,11.89,10.16c3.85,4.24,6.9,9.2,10.3,13.85c0,2.67,0,5.33,0,8c-2.23,3.53-4.04,7.44-6.81,10.49
			c-2.86,3.15-6.68,5.44-10.03,8.16c-3.7,3-8.4,5.44-10.7,9.29c-2.04,3.41-4.04,3.93-7.06,3.59c-3.06-0.34-6.09-1.05-8.54-1.49
			c-0.37,2.86,0.17,6.02-1.13,7.27c-3.76,3.62-7.98,6.97-12.52,9.54c-12.99,7.35-27.74,7.61-42.02,9.08
			c-9.76,1.01-19.7,0.19-29.56,0.19c2.87,1.76,5.88,2.53,8.92,3.04c13.87,2.33,28.13,3.27,40.54,10.93
			c8.6,5.31,18.26,9.59,25.39,16.46c12.79,12.32,24.11,26.17,35.84,39.56c2.14,2.45,3.35,5.72,4.99,8.61
			c-0.43,0.38-0.85,0.76-1.28,1.14c-1.55-1.17-3.3-2.15-4.6-3.55c-10.27-10.99-18.72-23.96-33.32-30.19
			c-1.33-0.57-2.41-1.76-3.55-2.73c-7.55-6.44-15.99-10.65-26.14-10.99c-3.81-0.13-7.62-0.66-11.4-1.21
			c-1.17-0.17-3.01-0.81-3.23-1.61c-1.65-5.89-4.29-3.47-7.64-1.55c-2,1.15-6.41,1.93-7.05,1.01c-3.93-5.63-9.9-3.83-15.01-4.87
			c-1.05-0.21-2.33,0.71-3.51,1.1c0.54,1.22,0.96,2.53,1.66,3.65c1.11,1.77,2.72,3.28,3.57,5.14c1.64,3.57,2.9,7.32,4.24,10.79
			c7.71-2.67,15.11-1.48,21.99,0.49c6.97,1.99,13.43,5.78,20.39,8.9c3.43-3.61,7.7-3.53,11.68,0.66c2.16,2.27,4.3,4.72,6.9,6.38
			c14.48,9.2,21.82,23.79,29.3,38.29c0.62,1.21,0.51,2.95,0.34,4.39c-1.19,9.84-7.68,15.85-17.68,14.69
			c-3.45-0.4-8.21-4.07-9.31-7.29c-2.38-6.94-4.85-13.07-11.85-16.46c-6.2-3.01-7.59-5.9-6.9-13.14c0.12-1.24,0.02-2.49,0.02-3.74
			c-0.44,0.44-0.88,0.88-1.31,1.32c-3.16-1.34-6.37-2.56-9.46-4.03c-7.32-3.48-13.99-9.04-22.66-7.31
			c-0.66,2.68-2.18,5.28-1.56,7.17c0.76,2.3,3.99,3.72,4.95,6.02c1.43,3.44,3.54,8.16,2.25,10.84c-2.48,5.14-6.17,9.78-11.52,13.23
			c-13.14,8.46-20.98,9-34.26,0.68c-0.28-0.18-0.52-0.43-0.81-0.57c-7.01-3.42-13.93-14.91-12.42-22.49
			c1.07-5.37-2.99-8.04-3.46-11.75c-8.98,3.56-17.39,6.73-25.64,10.26c-2.49,1.06-4.71,2.94-6.76,4.78
			c-3.06,2.75-5.6,6.11-8.81,8.63c-7.88,6.18-16.92,11.09-21.04,21.09c-0.49,1.18-2.43,1.77-3.69,2.63c-0.33-0.32-0.66-0.64-1-0.96
			c0.44-1.72,0.6-3.57,1.38-5.12c2.83-5.65,5.2-11.7,8.97-16.66c6.7-8.82,14.04-17.22,21.71-25.23c2.07-2.17,6.61-3.69,9.43-3.02
			c4.23,1.01,4.57-1.04,6.03-3.66c1.6-2.86,3.68-6.45,6.41-7.51c8.97-3.5,11.99-7.61,8.8-19.21c-0.95,0-2.08,0.33-2.87-0.05
			c-5.51-2.69-9.05,0.1-12.43,4.04c-1.36,1.59-3.24,3.8-4.93,3.84c-3.82,0.1-5.03,2.53-6.58,5.09c-2.43,4.01-6.75,5.35-11.08,3.57
			c-1.1-0.45-2.19-0.94-4.21-1.81c2.49,7.37-0.94,12.06-4.83,16.57c-2.92,3.38-5.77,6.82-8.85,10.05c-0.8,0.84-2.47,1.58-3.51,1.36
			c-7.96-1.74-15.59-4.1-18.81-12.85c-0.73-1.99-1.56-3.96-2.34-5.93C356,333.33,356,328.67,356,324z"/>
	</g>
</g>
</svg>
