<?xml version="1.0" encoding="utf-8"?>
<!-- Generator: Adobe Illustrator 26.2.1, SVG Export Plug-In . SVG Version: 6.00 Build 0)  -->
<svg version="1.1" id="Layer_1" xmlns="http://www.w3.org/2000/svg" xmlns:xlink="http://www.w3.org/1999/xlink" x="0px" y="0px"
	 viewBox="0 0 960 560" style="enable-background:new 0 0 960 560;" xml:space="preserve">
<g>
	<g>
		<path d="M542,406c-3.09-1.14-4.38-3.48-5.17-6.61c-3.44-13.5-6.37-27.21-10.96-40.33c-3.31-9.46-3.73-19.05-4.85-28.69
			c-0.18-1.59,0.45-3.26,0.44-4.9c-0.01-1.39,0.04-3.61-0.72-4.03c-3.7-2.02-3.22-5.21-3.39-8.57c-0.83-16.4-1.65-32.81-2.93-49.18
			c-0.84-10.72-2.46-21.39-3.87-33.25c-3.81,1.84-7.18,3.29-10.38,5.07c-5.31,2.95-10.37,6.42-15.83,9.06
			c-2.64,1.27-3.24,2.79-3.21,5.29c0.12,9.24,0.25,18.47,0.14,27.71c-0.02,1.8-0.6,4.01-1.74,5.3c-2.44,2.74-2.53,5.19-0.5,8.03
			c2.17,3.05,2.52,5.83,0.71,9.61c-1.53,3.2-1.68,7.42-1.36,11.09c1.24,14.53,2.93,29.01,4.39,43.52c0.2,1.97-0.11,3.99,0.02,5.98
			c0.46,7.23,1,14.45,1.52,21.67c0.2,2.77,1.01,5.66,0.48,8.28c-1.68,8.39-5.1,9.34-13.19,6.89c-10.21-3.09-14.29-8.89-12.75-19.45
			c0.9-6.17,0.67-12.5,0.02-19.01c-0.46,0.96-0.91,1.92-1.37,2.87c-0.48-0.09-0.96-0.18-1.43-0.27
			c5.16-37.9,10.32-75.8,15.22-111.78c-4.43-2.75-7.71-4.28-10.33-6.56c-2.59-2.25-1.99-5.27-0.5-8.24c1.35-2.68,2.84-3.7,6.16-3.59
			c7.19,0.25,9.05-1.72,10.38-8.9c1-5.38,1.68-10.85,3.1-16.12c0.76-2.82,2.77-5.31,4.37-8.23c3.28,6.15-4.66,12.62,1.75,17.99
			c-0.9,1.41-1.9,2.55-2.42,3.87c-2.33,5.95-0.89,8.59,5.39,8.24c6.38-0.35,12.71-1.8,19-3.09c0.77-0.16,1.57-2.29,1.61-3.54
			c0.19-4.99,0.05-9.99,0.11-14.99c0.01-1.2,0.33-2.4,0.66-4.69c6.41,6.92,2.7,15.4,6.77,22.9c6.21-1.31,12.71-2.94,19.31-3.99
			c6.53-1.05,13.16-1.52,19.75-2.24c0.14,0.89,0.27,1.79,0.41,2.68c-6.63,1.19-14.66,0.46-19.53,4.04
			c-6.26,4.6-13.73-0.1-19.77,5.74c2.05,5.6,3.92,11.77,6.54,17.61c2.64,5.89,4.7,11.55,2.35,18.08c-0.42,1.17,0.52,3.15,1.36,4.39
			c2.49,3.65,3.54,7.15,3.29,11.92c-0.33,6.61,0.68,13.59,2.61,19.96c4.17,13.78,7.4,27.71,10,41.86c0.76,4.16,3.55,8.02,5.76,11.82
			c1.49,2.56,3.82,4.63,5.36,7.16c2.57,4.23,1.51,8.08-3.21,11.43c5.71,3.77,7.52,9.26,7.44,15.75c-0.05,3.56-1.26,5.9-4.29,7.71
			c-3.37,2.02-6.51,4.42-9.76,6.65C544,406,543,406,542,406z"/>
		<path d="M406,156c4.92,2.98,9.68,6.32,14.84,8.8c2.68,1.29,6.19,1.79,9.14,1.37c7.05-1,14.12-2.32,20.92-4.37
			c4.53-1.36,8.84-1.34,11.51,2.01c5.66,7.11,12.53,6.27,20.17,5.28c4.6-0.6,9.65-0.08,14.1,1.25c4.99,1.49,8.93,4.65,9.62,10.85
			c0.35,3.14,2.19,6.32,4.02,9.03c2.45,3.63,1.73,6.71-0.98,9.32c-2.83,2.73-5.91,5.6-9.43,7.02c-1.47,0.59-5.18-1.87-6.5-3.85
			c-3.95-5.95-8.7-11.88-6.09-19.99c0.24-0.73-0.63-2.38-1.41-2.79c-4.95-2.6-10.09-4.27-15.66-1.72
			c-6.07,2.78-13.38,1.09-16.99-4.28c-1.9-2.82-3.77-2.82-6.76-1.91c-2.98,0.92-6.28,0.78-9.45,1.05c-0.65,0.05-1.39-0.38-1.96-0.2
			c-11.47,3.6-18.1-4.63-25.74-10.44c-1.17-0.89-2.67-1.36-3.75-2.33c-1.35-1.21-2.42-2.74-3.61-4.13C403.33,156,404.67,156,406,156
			z"/>
	</g>
</g>
</svg>
