<?xml version="1.0" encoding="utf-8"?>
<!-- Generator: Adobe Illustrator 26.2.1, SVG Export Plug-In . SVG Version: 6.00 Build 0)  -->
<svg version="1.1" id="Layer_1" xmlns="http://www.w3.org/2000/svg" xmlns:xlink="http://www.w3.org/1999/xlink" x="0px" y="0px"
	 viewBox="0 0 960 560" style="enable-background:new 0 0 960 560;" xml:space="preserve">
<g>
	<g>
		<path d="M356,353c0-0.33,0-0.67,0-1c11.12-1.68,22.24-3.45,33.38-4.96c2.17-0.29,4.51,0.78,6.7,0.56
			c6.42-0.66,13.14-3.23,19.1-1.98c4.11,0.86,6.69,1.45,10.87-0.12c4.32-1.62,9.76,0.03,14.64-0.46c4.2-0.43,9.03,0.59,11.63-2.38
			c-3.39-5.47-6.41-10.34-9.28-14.95c-2.29-0.28-5.5,0.27-6.56-0.98c-3.7-4.41-6.85-9.34-9.74-14.33c-0.71-1.23,0.42-3.47,0.49-5.26
			c0.02-0.64-0.69-1.28-0.9-1.97c-1.47-4.9-4.48-9.47-3.22-14.97c0.7-3.07,1.53-6.13,2.01-9.24c2.13-13.66,6.97-25.69,19.77-32.87
			c1.5-0.84,3.52-0.78,5.22-1.12c2.19-1.53,4.3-3.84,6.9-4.69c9.7-3.19,18.47,1.27,27.34,4.19c1.07,0.35,1.96,2.28,2.31,3.63
			c1.24,4.85,1.51,10.06,3.44,14.58c3.54,8.27,1.39,16.22-3.03,22.28c-8.11,11.1-17.56,10.47-29.7,4.78
			c-2.91-1.36-5.99-6.16-5.88-9.26c0.17-4.75,1.29-10.46,7.26-12.59c4.39-1.56,8.87,1.44,8.42,5.72c-8.18-2.53-9.98-0.89-8.94,8.14
			c7.98,2.2,10.22,1.38,19.37-7.05c-0.59-1.14-1.56-2.21-1.68-3.38c-0.38-3.63-0.36-7.31-0.65-10.95c-0.38-4.64-2.97-6.91-7.41-7
			c-1.83-0.04-3.64-0.5-5.47-0.77c0.23,0.34,0.47,0.68,0.7,1.02c-6.09,3.12-12.18,6.23-18.14,9.28c-2.83,7.37-5.77,15.03-8.92,23.25
			c3.18,8.17,6.74,17.28,10.01,25.68c2.48,0.68,4.26,0.91,5.81,1.64c4.43,2.1,8.61,4.78,13.15,6.54c8.74,3.39,12.75,1.77,17.8-6.35
			c0.18-0.28,0.29-0.62,0.51-0.86c2-2.19,3.9-4.5,6.07-6.52c3.02-2.81,6.33-5.32,9.33-8.14c0.72-0.68,0.97-2.1,1.04-3.21
			c0.56-9.87,3.08-18.87,9.92-24.6c-0.73-2.82-1.63-4.93-1.79-7.1c-0.61-8.48-0.25-17.45-6.11-24.24
			c-3.85-4.46-5.97-8.05-1.89-13.15c0.11-0.14-0.17-0.58-0.3-0.98c-3.61-1.2-6,6.05-10.43,1.34c-2.5-2.66-6.11-4.28-9.47-6.53
			c-1.85,3.03-5.67,2.12-8.28,0.03c-5.71-4.58-12.4-5.29-19.11-6.41c-2.56-0.43-5.08-1.13-7.25-1.63
			c-8.16,6.85-16.04,14.59-25.83,20.91c2.67,3.85,0.27,7.71-2.34,11.76c-2.78,4.31-4.02,9-2.79,14.34c1.02,4.45-2.25,7.67-6.72,7.46
			c-4.3-0.21-8.6-0.37-12.91-0.48c-3.8-0.1-5.98-1.34-5.2-5.76c0.72-4.09,0.83-8.28,1.48-12.39c0.68-4.3,2.62-7.81,7.13-8.8
			c-2.06-12.79,8.04-19.87,12.71-28.71c-2.32-1.55-4.52-3.03-6.78-4.55c-0.13,0.08-0.5,0.19-0.64,0.44
			c-1.52,2.61-2.68,5.27-6.83,3.94c-2.69-0.86-5.8-0.3-8.66-0.78c-0.67-0.11-1.52-1.85-1.51-2.84c0.01-7.08,0.07-14.17,0.43-21.24
			c0.17-3.31,2.31-4.87,5.76-4.84c4.82,0.04,9.64-0.35,14.45-0.26c2.62,0.05,5.23,0.72,8.86,1.26c5.33-4.49,20.95-4.33,26.71,1.52
			c3.38-4.96,8.15-3.42,12.86-2.74c1.81,0.26,3.9,0.35,5.53-0.3c6.99-2.77,13.42-2.47,19.51,2.83c9.22-7.66,18.01-5.53,25.47,0.99
			c4.14-1.32,7.53-3.27,10.94-3.3c6.95-0.05,13.9,0.92,20.85,1.51c3.96,0.34,5.8-1.5,5.96-5.38c0.16-3.79,0.32-7.6,0.73-11.37
			c0.12-1.08,0.91-2.65,1.78-2.99c2.91-1.15,6.05-1.69,9-2.74c5.87-2.1,11.4,0.52,17.08,0.79c4.99,0.24,5.25,2.02,5,6.09
			c-0.42,6.57-0.11,13.18-0.11,20.3c9.96,0.92,19.49,1.8,29.02,2.68c0,0.67,0,1.33,0,2c-6.92,2.32-13.81,4.78-20.8,6.88
			c-1.95,0.58-4.23,0.09-6.35,0.09c-3.2,1.58-6.3,3.96-6.12,9.26c0.26,7.51,0.63,15.26-3.54,22.31c-0.81,1.37-0.06,4.4,0.99,5.98
			c1.86,2.8,1.98,4.94-0.04,7.65c-0.9,1.21-1.07,3.12-1.17,4.73c-0.19,3.32,0.27,6.71-0.24,9.96c-0.6,3.8,0.41,8.62-5.07,10.23
			c-0.62,0.18-1.22,1.94-1.11,2.89c0.51,4.55,1.69,9.07,1.81,13.62c0.13,5.04,0.62,10.38-3.47,14.57c-0.55,0.57-0.6,1.78-0.62,2.7
			c-0.09,3.46-0.09,6.93-0.1,10.4c-0.01,3.39,0,6.78,0,9.81c5.19,1.59,9.52-1.96,14.7,0.5c2.9,1.38,7.73-1.53,11.74-2.23
			c5.42-0.95,7.56,0.96,7.84,6.4c0.29,5.76,0.87,11.5,0.96,17.26c0.02,1.32-1.12,3.19-2.29,3.91c-9.72,6.02-20.46,3.86-31.22,3.87
			c0.12-1.89,0.21-3.4,0.31-4.88c-7.95-0.63-9.74,1.1-8.53,7.77c0.11,0.61-0.17,1.29-0.28,1.93c-2.29,13.07-4.54,26.15-6.92,39.21
			c-0.27,1.51-1.22,2.9-1.85,4.34c-0.44-0.18-0.88-0.37-1.32-0.55c-0.32-4.87-0.64-9.75-0.96-14.62c-0.73-10.9-1.38-21.8-2.3-32.68
			c-0.09-1.08-1.88-2.94-2.78-2.88c-11.22,0.73-22.54,1.05-33.59,2.95c-7.32,1.26-14.34,1.15-21.58,0.58
			c-2.07-0.16-4.51,0.62-6.32,1.72c-3.18,1.93-6.12,3.09-9.78,1.3c-1.19-0.58-3.42-0.99-4.08-0.35c-4.33,4.23-9.56,2.87-14.6,2.87
			c-11.23-0.01-22.46,0.05-33.68-0.13c-1.94-0.03-3.83-1.31-5.8-1.7c-1.96-0.39-4.03-0.65-6.01-0.46c-1.67,0.16-3.38,1.72-4.9,1.49
			C383.25,357.61,369.63,355.27,356,353z M491.68,336c6.74-0.64,13.53-1.13,20.27-2.01c2.44-0.32,4.69-2.42,6.96,0.7
			c0.41,0.56,4.16-0.1,4.4-0.83c1.22-3.79,4.39-3.02,6.95-3.5c3.26-0.61,6.57-0.96,9.87-1.36c3.07-0.38,4.71-1.78,4.73-5.15
			c0.02-3.22,0.62-6.43,0.92-9.65c0.14-1.54,0.33-3.1,0.26-4.64c-0.18-4.2-2.2-9.58-0.33-12.32c2.58-3.78,2.41-7.12,1.91-10.63
			c-1.14-7.96,1.28-15.75-0.1-23.9c-1.51-8.9-0.13-18.26-0.5-27.41c-0.18-4.5-2.72-9.01,0.73-13.32c0.31-0.38,0.29-1.56-0.03-1.83
			c-5.15-4.42-3.02-10.17-2.55-15.39c0.29-3.23-0.33-4.96-2.74-5.54c-2.67,1.87-4.74,4.51-7.04,4.73
			c-8.83,0.87-17.74,0.97-27.88,1.41c4.39,5.92,8.25,10.67,11.56,15.76c1.75,2.7,2.54,6.01,3.77,9.05c1.79,4.3,4.31,8.42,5.14,12.86
			c2.22,11.88,1.93,23.89-1.7,35.48c-2.69,8.59-5.32,17.48-9.79,25.17c-4.49,7.73-7.73,16.72-15.71,22.08
			c-1.9,1.28-3.89,2.43-5.84,3.64C494.02,331.27,492.92,333.5,491.68,336z"/>
	</g>
</g>
</svg>
