<?xml version="1.0" encoding="utf-8"?>
<!-- Generator: Adobe Illustrator 26.2.1, SVG Export Plug-In . SVG Version: 6.00 Build 0)  -->
<svg version="1.1" id="Layer_1" xmlns="http://www.w3.org/2000/svg" xmlns:xlink="http://www.w3.org/1999/xlink" x="0px" y="0px"
	 viewBox="0 0 960 560" style="enable-background:new 0 0 960 560;" xml:space="preserve">
<g>
	<g>
		<path d="M391,406c-5.83-4.21-13.17-7.32-17.2-12.85c-12.45-17.09-10.2-30.44,4.19-42.62c2.16-1.82,4.5-3.46,6.5-5.44
			c8.91-8.82,20.49-10.18,32.04-11.48c1.11-0.13,2.61,0.95,3.54,1.87c1.88,1.85,3.24,4.31,5.31,5.87c1.65,1.25,4.01,1.55,6.06,2.27
			c0.5-2.35,1.29-4.69,1.38-7.05c0.06-1.35-1.02-2.74-1.8-4.65c5.25-3.39,10.96,0.5,17.17-1.46c-1.44-2.22-2.42-4.62-4.15-6.23
			c-2.98-2.77-2.15-5.05,0.49-6.93c2.11-1.5,4.59-2.92,7.08-3.35c7.49-1.29,9.13-2.59,10.3-10.34c1.65-10.97,3.06-21.98,4.86-32.93
			c0.23-1.42,2.01-2.93,3.44-3.75c2.93-1.69,6.12-2.95,9.53-4.54c-3.81-4.9-6.82-8.57-9.57-12.42c-0.79-1.1-1.49-2.99-1.09-4.09
			c2.19-5.95,4.76-11.76,7.16-17.63c0.36-0.87,1.03-2.02,0.74-2.7c-2.23-5.25,1.04-9.59,2.08-14.31
			c2.65-11.97,5.25-23.95,7.84-35.93c1.39-6.43,2.72-12.87,4.07-19.3c0.67,0,1.33,0,2,0c0.42,2.23,1.09,4.44,1.23,6.69
			c0.69,11.14,1.24,22.3,2.56,33.61c1.84-12.46,4.81-24.42,11.02-35.24c0.73,0.05,1.46,0.1,2.19,0.15
			c0.64,4.77,1.67,9.53,1.85,14.32c0.49,12.88,0.56,25.78,0.93,38.68c0.11,3.9-0.2,7.27-4.66,8.67c-1.06,0.33-1.93,1.25-3.88,2.56
			c8.25,3.02,7.08,9.05,7.2,14.61c0.04,1.66,0.17,3.32,0.39,4.97c0.67,4.91,1.43,9.61-3.12,13.54c-2.44,2.11-2.06,4.31,1.45,6
			c4.24,2.04,7.13,4.98,7.14,10.72c0.01,6.37,2.1,12.71,2.7,19.12c0.23,2.47-0.53,5.48-1.9,7.55c-3.64,5.55-3.09,8.11,1.9,12.23
			c1.84,1.52,2.89,5.14,2.76,7.73c-0.47,9.31,2.44,14.2,11.41,17.47c0.91,0.33,1.75,0.83,2.92,1.4c-0.61,1.85-1.56,3.54-1.61,5.24
			c-0.04,1.49,0.56,3.85,1.57,4.32c1.55,0.72,3.81,0.52,5.58,0.02c2.02-0.57,3.83-1.88,5.74-2.86c1.04,2.08,2.27,4.09,3.06,6.26
			c0.55,1.51,0.5,3.23,0.71,4.87c4.41-0.87,7.69-2.8,8.99-7.41c1.13-3.97,4.1-4.99,7.83-3.85c5.57,1.7,11.15,3.37,16.62,5.34
			c7.03,2.52,9.93,8.38,10.18,15.19c0.3,8.5-1.51,16.81-5.39,24.48c-3.23,6.38-9.87,7.93-15.78,10.29
			c-2.72,1.08-5.73,1.73-8.65,1.92c-2.49,0.16-6.07,2.4-7.18-2.44c-0.12-0.51-2.29-0.84-3.48-0.77c-7.56,0.43-14.87-1.05-20.66-5.68
			c-4.02-3.21-6.55-8.27-10.37-13.34c-7.93,1.74-13.19-5.56-19.36-10.76c-1.15-0.97-0.98-3.52-1.4-5.35
			c-0.55-2.38-1.08-4.75-1.62-7.13c-1.68,1-3.36,2-5.76,3.42c-6.86-2.72-11.1-8.64-14.37-16.51c-0.95,3.14-1.9,6.28-2.65,8.76
			c-4.48-1.5-8.63-2.9-11.62-3.9c-1.62,3.44-2.22,6.35-3.97,8.15c-6.21,6.4-12.74,12.5-19.28,18.57c-3.46,3.21-6.67,2.75-9.83-0.91
			c-1.89-2.18-4.47-3.76-6.74-5.62c-0.41,0.18-0.83,0.37-1.24,0.55c0.43,4.13,0.96,8.25,1.23,12.39c0.12,1.89-0.26,3.81-0.42,5.71
			c-1.86-0.38-3.8-0.55-5.56-1.19c-2.07-0.76-3.98-1.93-7.01-3.46c0.24,3.57-0.03,6.08,0.65,8.3c1.09,3.55-0.58,5.3-3.28,6.82
			c-3.36,1.89-6.69,3.86-10.04,5.79C398.33,406,394.67,406,391,406z"/>
	</g>
</g>
</svg>
