<?xml version="1.0" encoding="utf-8"?>
<!-- Generator: Adobe Illustrator 26.2.1, SVG Export Plug-In . SVG Version: 6.00 Build 0)  -->
<svg version="1.1" id="Layer_1" xmlns="http://www.w3.org/2000/svg" xmlns:xlink="http://www.w3.org/1999/xlink" x="0px" y="0px"
	 viewBox="0 0 960 560" style="enable-background:new 0 0 960 560;" xml:space="preserve">
<g>
	<g>
		<path d="M519,406c-1.09-0.3-2.19-0.89-3.28-0.86c-16.94,0.42-22.38-13.73-18.5-27.12c0.32-1.12,0.65-2.25,1.15-3.3
			c2.61-5.48,5.06-10.87,12.9-10.11c3.53,0.34,7.19-0.97,10.82-1.29c2.48-0.22,4.84-0.24,6.06,2.97c0.63,1.65,2.69,2.75,4.1,4.09
			c0.78-2.11,1.67-4.18,2.29-6.34c0.2-0.69-0.28-1.58-0.49-2.57c3.8-0.91,7.42-2.06,11.13-2.54c1.56-0.2,3.37,0.87,4.95,1.61
			c1.15,0.54,2.01,1.85,3.18,2.16c1.3,0.35,2.81-0.05,4.22-0.12c-0.2-1.39-0.07-2.96-0.69-4.12c-0.92-1.71-2.39-3.12-3.54-4.54
			c4.11-6.25,9.17-11.9,11.77-18.52c2.15-5.47,4.94-8.42,10.26-9.76c0.99-0.25,1.76-1.36,4.16-3.31c-4.24-1.12-7.22-1.76-10.1-2.73
			c-2.02-0.68-4.25-1.42-5.73-2.82c-2.52-2.38-4.53-5.3-6.75-8c-4.25-5.16-3.5-7.74,2.85-9.93c0.75-0.26,1.4-0.81,2.29-1.34
			c-2.57-3.17-5.48-3.15-8.55-1.55c-3.65,1.9-6.43,1.45-9.01-2.04c-2.05-2.77-4.96-4.9-7.11-7.61c-0.75-0.94-0.88-3.01-0.37-4.14
			c0.71-1.56,2.31-2.71,3.52-4.04c-0.17-0.5-0.34-1-0.51-1.5c-1.79,0.54-3.56,1.13-5.37,1.6c-1.88,0.49-3.89,1.48-5.66,1.18
			c-7.5-1.26-15.14-2.27-22.33-4.6c-7.55-2.45-14.55-1.67-21.95,0.03c-2.13,0.49-4.89-1.79-7.72-2.95c-0.45,0.48-1.7,1.2-1.93,2.17
			c-1.76,7.36-8.42,7.17-13.7,9.14c-2.76,1.03-5.51,2.09-8.26,3.14c-6.82,2.61-13.66,4.76-21.17,3.1c-1.12-0.25-3.35,0.98-3.83,2.08
			c-0.97,2.19-1.08,4.76-1.45,6.7c-7.97,2.19-15.82,5.78-23.78,6.05c-5.61,0.19-9.52-1.1-12.2,5.48c-0.84,2.06-6.4,1.93-9.54,3.38
			c-6.31,2.91-12.44,6.22-18.63,9.37c-1.56,0.79-3.09,1.65-5.65,3.03c0.53-1.87,0.51-2.76,0.95-3.19
			c6.54-6.53,12.87-13.31,19.81-19.39c4.31-3.78,9.5-6.59,14.4-9.67c2.24-1.41,4.85-2.21,7.06-3.65c3.01-1.97,5.83-3.89,9.11-0.27
			c0.65-0.8,1.38-1.29,1.37-1.77c-0.17-6.75,4.77-8.98,9.8-10.85c5.58-2.08,11.27-3.92,17.01-5.51c2.04-0.57,4.37-0.09,7.39-0.09
			c0.31-0.73,0.77-2.31,1.59-3.67c1.11-1.82,2.15-4.1,3.85-5.07c9.79-5.57,20.03-10.06,32.25-11.43c-1.42-1.99-2.82-3.52-3.72-5.31
			c-2.19-4.31-4.45-8.64-6.14-13.16c-1.7-4.56,1.34-6.17,5.24-7c3.09-0.66,6.12-1.64,9.17-2.48c-0.07-0.69-0.14-1.38-0.21-2.07
			c-4.45-0.26-8.91-0.8-13.35-0.7c-3.33,0.08-4.97-1.05-5.22-4.33c-0.24-3.15-0.47-6.3-0.88-9.43c-0.61-4.63-2.01-9.48,4.61-10.97
			c-0.32-0.94-0.34-1.65-0.65-1.81c-9.36-4.88-7.2-12.42-4.04-19.59c4.01-9.12,11.14-14.65,21.3-15.98c2.21-0.29,4.32-1.4,6.48-2.13
			c2.33,0,4.67,0,7,0c2.17,0.6,4.31,1.45,6.53,1.74c9.72,1.26,16.34,6.7,18.07,16.29c0.8,4.42-0.08,9.15-0.26,13.74
			c-0.16,4.11-0.51,8-6.4,7.19c-1.13-0.15-2.42,0.8-3.93,1.35c6.84,2.9,9.51,5.51,8.86,8.45c-0.91,4.13-6.02,7.49-10.9,7.8
			c0.97,2.83,2.29,5.8,2.98,8.91c0.97,4.42-1.62,6.49-7.28,6.97c5.14,1.93,6.9,3.97,4.34,8.02c-2.55,4.02-4.56,8.39-6.7,12.42
			c9.35,3.26,17.4,6.08,25.21,8.8c-0.14,2.59-0.25,4.63-0.41,7.64c14.65-6.95,24.6,3.31,35.7,8.21c4.84,2.13,8.66,6.56,12.97,9.9
			c1.99,1.54,2.91,2.96,1.97,5.88c-1.5,4.69,1.16,6.86,5.95,6c1.57-0.28,4.25,0.36,4.97,1.5c4.46,7.11,9.46,13.94,9.99,22.96
			c0.22,3.66,0.32,6.17-3.97,7.1c0.64,1.44,0.88,2.66,1.6,3.44c2.72,2.97,4.97,6.01,2.78,10.23c-2.11,4.06-6.01,3.24-9.6,3.55
			c-2.07,0.18-4.07,1.22-6.1,1.87c0.03,0.55,0.06,1.11,0.09,1.66c3.89,1.38,7.78,2.76,12.3,4.37c-3.18,5.51-6.08,10.48-8.93,15.48
			c-1.39,2.44-2.1,5.81-4.17,7.23c-8.41,5.77-17.09,11.21-25.97,16.23c-3.81,2.16-7.91,2.16-10.22-3.14
			c-0.87-1.99-3.04-3.42-5.49-6.04c0,6.61-0.46,11.77,0.14,16.8c0.49,4.13-1.01,5.34-4.66,5.73c-2.52,0.27-4.97,1.12-7.46,1.71
			C528.33,406,523.67,406,519,406z"/>
		<path d="M421.3,272.66c2.47-10.42,4.9-21,7.55-31.52c0.29-1.17,1.7-2.75,2.77-2.9c4.77-0.66,3.4-3.34,2.48-6.15
			c-0.6-1.81-1.58-3.87-1.2-5.55c1.56-6.95,3.34-13.87,5.48-20.66c2.32-7.36,9.47-9.48,15.37-12.48c3.35-1.7,4.76,1.92,4.39,4.66
			c-0.48,3.58-1.85,7.04-2.91,10.53c-0.63,2.07-1.73,4.05-2,6.16c-0.4,3.09-1.37,4.65-4.8,3.65c-0.69-0.2-1.9,0.41-2.45,1.03
			c-0.32,0.36-0.07,1.86,0.38,2.17c6.92,4.72,1.64,9.55-1.09,12.34c-3.78,3.87-4.54,8.8-7.16,12.95
			c-5.14,8.14-10.14,16.37-15.27,24.52C422.39,272.15,421.41,272.58,421.3,272.66z"/>
		<path d="M572.31,273.88c-13.7-10.08-23.38-22.55-26.21-39.5c-5.91,0.17-9.08-8.11-4.57-14.65c-2.34,0.56-4.02,0.96-6.7,1.6
			c-2.29-5.97-5.04-11.96-6.84-18.23c-1.34-4.69,0.11-9.35,3.93-12.67c2.52-2.2,5.35-2.64,7.7,0.63c3.48,4.83,6.61,9.99,10.63,14.32
			c5.74,6.19,4.89,14.68,8.45,21.56c0.25,0.48-0.2,1.54-0.62,2.11c-3.25,4.43-2.95,5.53,2.13,7.42c0.76,0.28,1.54,0.53,2.77,0.95
			C560.84,250.88,570.88,261.15,572.31,273.88z"/>
	</g>
</g>
</svg>
