<?xml version="1.0" encoding="utf-8"?>
<!-- Generator: Adobe Illustrator 26.2.1, SVG Export Plug-In . SVG Version: 6.00 Build 0)  -->
<svg version="1.1" id="Layer_1" xmlns="http://www.w3.org/2000/svg" xmlns:xlink="http://www.w3.org/1999/xlink" x="0px" y="0px"
	 viewBox="0 0 960 560" style="enable-background:new 0 0 960 560;" xml:space="preserve">
<g>
	<g>
		<path d="M606,271c-0.16,0.03-0.41,0-0.48,0.1c-4.08,5.38-9.51,7.04-16.03,6.08c-3.78-0.56-5.86,0.86-5.92,5.1
			c-0.07,5.11-0.65,10.22-0.99,15.19c0.56,0.34,0.83,0.63,1.11,0.65c12.38,0.64,18.16,8.69,14.84,20.69
			c-1.52,5.49-8.26,9.12-13.97,7.42c-3.32-0.99-6.59-2.15-10.3-3.38c-1.13,2-2.28,3.97-3.36,5.99c-1.07,2.01-2.07,4.06-4.38,6.07
			c-0.58-2.65-1.61-5.29-1.65-7.95c-0.06-4.65-2.61-5.96-6.59-5.98c-0.67,0-1.34-0.07-2,0.03c-6.19,0.93-12.22,1.47-15.27-7.38
			c-2.14,5.98-5.22,5.96-9.38,4.58c-2.32-0.77-5.26,0.63-7.86,0.38c-3.82-0.37-7.58-1.35-11.95-2.18c-2.9,8.69-11.64,3.04-18,4.39
			c-3.87,0.82-8.28-0.23-12.33-1.05c-3.4-0.7-6.63-2.28-9.34-3.26c-2.73,0.21-5.22,0.37-7.7,0.59c-3.46,0.31-6.97,0.36-10.35,1.07
			c-3.96,0.83-6.93,0.4-8.13-4.56c-1.74,0.93-3.28,1.5-4.52,2.46c-3.3,2.57-6.44,5.24-10.13,0.56c-0.32-0.41-1.45-0.71-1.8-0.47
			c-6.77,4.58-13.67,1.46-20.09-0.37c-6.07-1.72-11.77-1.11-17.68-0.5c-1.05,0.11-2.12,0.02-3.18,0.02
			c-0.13-0.51-0.26-1.03-0.39-1.54c8.24-2.58,16.4-5.48,24.75-7.64c5.68-1.47,11.63-1.93,17.46-2.81c1.29-0.2,2.6-0.27,3.98-0.42
			c1.08,2.7,0.73,7.64,5.51,2.58c2.78-2.95,11.7-1.03,14.01,2.48c5.86-7.99,13.56-5.34,21.14-3.76c2.08,0.44,4.45,1.07,6.36,0.51
			c4.29-1.26,6.77-0.46,6.95,6.05c2.2-3.39,3.54-5.46,4.55-7.01c5.48,1.02,10.45,1.95,13.34,2.49c2.57-1.59,4.26-3.45,6.1-3.62
			c7.65-0.72,15.35-1.09,23.04-1.27c3.39-0.08,6.8,0.58,10.31,0.92c4.13-5.15,10.06-1.27,14.12-1.82c2.11-3.1,4.13-5.41,5.27-8.09
			c0.4-0.95-1.36-2.81-3.17-3.79c0-2.81,0-5.62,0-9.27c-5.92,0.88-11.63,1.81-17.35,2.56c-3.82,0.5-7.98,1.9-10.15-2.97
			c-8.87,4.86-17.29,5.64-20.06,1.83c-1.73,4.01-5.28,3.89-8.78,4.11c-3.46,0.22-7.1,0.1-10.3,1.18c-4.25,1.43-7.17,1.08-8.22-2.19
			c-3.74,0.39-6.82,0.94-9.9,0.97c-6.27,0.07-12.55-0.01-18.81-0.31c-1.45-0.07-3.23-0.93-4.18-2.02c-2.02-2.33-3.48-4.46-6.69-1.29
			c-0.92,0.91-3.29,0.18-4.92,0.57c-9.6,2.27-18.95-1.15-28.45-1.27c-5.91-0.07-11.8-1.55-17.7-2.43c-1.41-0.21-2.8-0.53-4.76-0.91
			c3.3-4.81,8.16-4.99,11.9-4.18c8.02,1.73,15.15-0.79,22.45-2.85c7.55-2.14,7.51-2.31,10.44,4.6c0.32-0.02,0.82,0.06,0.92-0.1
			c5.91-9.59,16.26-4.25,24.24-6.93c0.99-0.33,3.31,3.29,5.03,5.09c6.31-8.22,16.12-2.22,23.7-6.18c2.15,4.25,4.18,4.46,7.52,1.04
			c1.69-1.73,5.16-1.92,7.9-2.39c3.43-0.59,6.93-0.78,10.41-1.1c2.55-0.24,5.77-1.84,5.54,1.92c4.46-0.9,8.46-1.89,12.53-2.48
			c3.89-0.56,8.12-5.27,11.8,0.97c0.83-0.52,2.09-0.86,2.31-1.52c1.45-4.59,5.55-5.76,9.12-5.46c6.28,0.53,8.15-4.18,12.74-8.21
			c-6.19,0.58-7.95-3.09-7.24-6.41c0.57-2.64,3.53-5.71,6.17-6.79c9.7-3.96,19.44,2.93,19.68,13.64c0.04,1.9-1.42,3.83-2.16,5.68
			c0.45,0.36,0.79,0.79,0.95,0.73c9.26-3.52,14.77,0.74,18.45,8.84C606,267,606,269,606,271z"/>
		<path d="M356,287c1.61-3.06,3.22-6.13,4.78-9.11c-4.45-0.08-3.09-3.56-1.94-6.2c1.96-4.51,4.43-8.8,6.74-13.16
			c0.29-0.54,0.97-0.86,1.39-1.35c1.03-1.18,3.09-2.84,2.81-3.51c-0.72-1.76-2.41-3.16-3.85-4.56c-0.86-0.84-2.77-1.32-2.87-2.12
			c-0.79-6.5-1.26-13.04-0.79-20.47c3.36,3.69,6.81,7.32,10.07,11.1c3.39,3.94,3.54,10.29,9.31,12.55c0.48,0.19,0.86,1.55,0.71,2.25
			c-1.1,5.19-2.09,10.44-3.73,15.46c-0.38,1.17-3.13,1.58-5.31,2.57c1.08,1.2,2.44,2.72,3.27,3.65c-0.71,3.41-1.16,6.37-2,9.21
			c-0.3,0.99-1.47,1.84-2.42,2.49c-1.07,0.74-2.33,1.19-3.96,1.99c4.19,2.48,7.62,4.51,9.93,5.87c4.05-0.95,7.88-3.08,10.94-2.28
			c5.35,1.4,7.18,9.78,4.04,14.64c-4.22,6.54-19.9,11.36-26.68,7.83c-2.51-1.31-4.4-3.78-6.68-5.81c1.34-2.44,2.42-4.4,2.9-5.29
			c-2.56-2.59-4.62-4.67-6.68-6.75C356,293,356,290,356,287z"/>
	</g>
</g>
</svg>
