<?xml version="1.0" encoding="utf-8"?>
<!-- Generator: Adobe Illustrator 26.2.1, SVG Export Plug-In . SVG Version: 6.00 Build 0)  -->
<svg version="1.1" id="Layer_1" xmlns="http://www.w3.org/2000/svg" xmlns:xlink="http://www.w3.org/1999/xlink" x="0px" y="0px"
	 viewBox="0 0 960 560" style="enable-background:new 0 0 960 560;" xml:space="preserve">
<g>
	<g>
		<path d="M402,406c1.41-3.85,2.58-7.8,4.27-11.52c2.42-5.31,7.01-10.32,7.41-15.69c0.48-6.52,7.19-9.64,6.59-16.08
			c-0.1-1.05,1.03-2.35,1.85-3.31c1.63-1.91,3.5-3.62,5.18-5.49c3.57-3.99,2.86-9.01,3.49-13.79c0.32-2.42,2.2-4.64,3.87-7.91
			c-2.67-3.19,0.14-6.38,3.41-9.5c3.08-2.93,6.42-4.77,10.79-2.91c4.27,1.82,5.18,4.38,5.45,14.81c3.79,1.93,7.27,3.7,10.93,5.57
			c3.68-4.6,4.77-4.54,9.82,0.64c0.6-2.75,1.28-6.02,2.03-9.27c1.25-5.38-0.93-9.34-6.11-11.41c-1.76-0.7-3.34-1.84-5.52-3.08
			c-6.29,5.35-11.45-1.35-17.71-2.59c0.62-2.36,1.19-4.53,1.76-6.7c-3.94,4.13-7.21,3.04-10.49-1.87
			c-2.96,5.21-9.8,5.49-10.79,12.03c-0.17,1.09-2.8,1.8-4.5,2.82c-0.92,9.01-13.85,27.2-19.47,27.68
			c-4.65,10.95-12.15,19.43-20.61,27.29c6.41-14.4,12.83-28.8,19.3-43.34c2.15,0.73,4.05,1.38,7.08,2.41
			c-0.83-3.79-1.44-6.56-2.13-9.68c0.98-0.32,1.98-0.64,2.98-0.97c-0.7-5.38,7.61-21.51,12.53-24.3
			c-0.84-7.02,4.48-17.57,9.08-18.02c-7.99-7.58-3.55-17.84,9.76-21.84c-2.66-5.69,2.11-7.59,5.57-9.48
			c5.05-2.75,9.12-1.4,13.01,3.58c0.54-3.27-1.11-7.94,4.56-7.29c3.19,0.36,6.38,0.73,10,1.14c-0.87-4.11,1.99-9.78-3.29-13.92
			c-5.82-4.56-9.65-9.83-4.79-18.7c-2.48,1.3-3.54,1.86-4.62,2.42c-6.04-5.84-6.61-8.06-3.6-15.05c-5.19-3.17-2.96-7.8-1.25-11.59
			c2.99-6.63,5.58-14.1,14.52-15.4c2.19-8.42,16.32-16.31,24.02-13.61c-5.11,4.51-10.8,8.71-15.45,13.85
			c-4.6,5.07-8.16,11.08-12.25,16.78c3.63,6.14,3.43,8.08-1.46,10.95c6.18,5.65,13.15,10.53,17.83,16.94
			c2.94,1.45,5.8,2.86,8.64,4.27c2.02-1.34,4.47-2.99,7.56-5.05c0.25-2.97,8.86-13.41,12.42-13.96c-0.35-0.35-0.71-0.7-1.06-1.05
			c3.58-3.62,7.17-7.24,10.75-10.86c0.79-0.8,2.08-1.44,2.35-2.38c3.25-11.57,12.64-18.68,19.73-27.45
			c2.18-2.69,4.37-5.38,6.55-8.07c0.33,0,0.67,0,1,0c-0.15,1.28,0.06,2.75-0.5,3.81c-4.17,7.94-8.39,15.85-12.85,23.63
			c-0.85,1.48-2.8,2.33-3.16,2.61c-1.66,3.85-2.58,6.98-4.25,9.63c-3.48,5.49-7.73,10.5-10.98,16.1
			c-3.52,6.07-6.24,12.61-9.36,18.92c-1.18,2.38-2.42,4.73-3.78,7.01c-3.04,5.08-6.47,9.58-13.39,7.36
			c-3.86,16.54-22,28.88-30.69,21.25c-2,4.73-9.21,8.08-14.12,6.47c-0.24,0.37-0.81,0.92-0.7,1.14c1.81,3.73,0.35,7.31-0.06,11.06
			c-0.87,8.05,1.65,10.62,9.58,11.05c0.99,0.05,1.98,0.01,3.13,0.01c0.59,1.41,1.16,2.74,2.18,5.17c2.35-6.8,7.33-7.77,12.83-7.37
			c6.96,0.51,11.11,3.95,10.54,9.02c1.11,0,2.67,0.45,3.15-0.07c3.61-3.93,6.14-0.77,8.22,1.47c3.04,3.26,5.51,7.04,8.22,10.6
			l-0.12-0.15c0,4.74,0,9.49,0,15.34c1.64,1.76,6.69,3.09,4.23,9c1.97-0.6,3.31-1.01,3.77-1.16c7.49,8.24,14.78,16.12,21.84,24.19
			c0.98,1.12,0.85,3.2,1.32,5.2c4.93-1.64,7.12,2.5,9.86,5.42c4.7,4.99,9.21,10.17,13.8,15.27c-0.21,0.4-0.41,0.8-0.62,1.2
			c-8.4-4.5-17.3-8.28-25.06-13.7c-7.58-5.31-13.99-12.29-21.34-18.91c-0.39,0.17-1.57,0.69-3.09,1.35
			c-3.65-3.09-7.42-6.29-12.14-10.29c-1.29,2.7-2.07,5.37-3.65,7.41c-2.91,3.75-6.14,7.3-9.62,10.52c-0.67,0.62-3.37-0.27-4.64-1.16
			c-1.38-0.97-2.2-2.75-4.46-4.16c0,3.46-0.21,6.94,0.07,10.38c0.24,2.93-0.51,4.53-3.68,4.33c-3.14-0.2-6.44,0.13-9.37-0.78
			c-2.4-0.74-4.35-2.94-6.99-4.85c-0.38,0.4-1.57,1.67-2.72,2.89c-6.4-2.12-8.92-5.35-11.73-14.96c-4.49-1.43-4.41,2.83-5.85,4.96
			c-0.9,1.33-1.33,3.04-1.69,4.64c-0.8,3.51-1.99,6.31-4.88,5.05c-4.22,5.33-7.97,9.94-11.59,14.66
			C413.74,393,408.89,399.51,404,406C403.33,406,402.67,406,402,406z"/>
		<path d="M506.99,314.88c-0.05-2.82-0.24-5.66-0.12-8.47c0.28-6.21,4.57-8.87,10.23-6.49c4.25,1.79,8,4.09,9.7,8.72
			c1.12,3.04,1.79,6.28,5.71,7.46c0.68,0.21,0.42,3.54,0.6,5.51c5.84-1.36,8.27,4.11,11.77,7.79c2.01,2.1,4.03,4.2,5.85,6.47
			c1.42,1.78,2.53,3.81,4.57,6.95c4.72-0.01,7.94,4.86,11.54,9.11c3.44,4.05,6.47,8.46,10.05,12.37c3.42,3.74,7.32,7.05,12.08,11.57
			c-2.23-0.37-3.16-0.27-3.76-0.66c-7.24-4.69-14.88-8.91-21.45-14.4c-3.43-2.87-6.57-5.26-10.59-7.42
			c-5.58-2.99-9.66-8.78-14.4-13.34c-0.79-0.76-1.69-2-2.54-2c-7.69,0.01-10.67-6.45-14.92-10.95c-1.1-1.17-0.56-3.89-0.8-6.05
			c-4.87,3.45-6.02,3.27-10.06-1.53c-1.28-1.52-2.38-3.18-3.57-4.77C506.88,314.73,506.99,314.88,506.99,314.88z"/>
		<path d="M516.65,245.8c3.43-4.69,5.71-10.21,9.84-12.9c6.14-4.01,9.21-10.31,14.25-14.95c1.75-1.61,4.49-2.16,7.12-3.35
			c-1.45-3.72,1.85-5.05,4.58-7.26c6.31-5.11,12.21-10.73,18.3-16.11c0.17-0.15,0.59-0.02,1.75-0.02c-2.32,4-4.19,7.8-6.57,11.23
			c-4.02,5.8-8.37,11.38-12.58,17.06c-0.37,0.51-1.13,1.13-1.02,1.53c1.49,5.77-3.8,7.56-6.43,10.78c-2.79,3.42-6.59,6.09-9.09,9.68
			c-3.33,4.8-4.88,11.17-8.94,15c-3.52,3.32-6.46,7.26-10.25,10.18c-2.6,2.01-10.41-1.42-12.7-4.87c-2.33-3.52-1.6-8.6,1.85-12.94
			C510.09,244.68,512.05,244.12,516.65,245.8z"/>
		<path d="M391.68,157.92c6.35,6.93,12.7,13.87,19.05,20.8c4.7,5.14,9.4,10.27,14.1,15.41c0.76,0.83,2.3,1.94,2.12,2.48
			c-2.24,6.76,5.61,9.4,5.98,15.02c0.03,0.4,0.49,1.03,0.85,1.11c8.23,1.93,9.98,8.82,12.44,15.48c1.15,3.12,4.03,5.56,5.81,8.51
			c2.93,4.86,1.88,8.36-2.85,10.57c-6.07,2.84-11.84,1.59-12.7-3.56c-0.79-4.66-4.09-7.42-5.95-11.18
			c-0.29-0.59-0.97-1.03-1.13-1.63c-2.82-10.83-10.78-18.51-16.59-27.52c-1.26-1.96-0.81-4.95-1.78-7.2c-1-2.32-2.68-4.38-4.24-6.42
			c-0.65-0.86-2.18-1.17-2.6-2.06c-4.61-9.67-9.08-19.4-13.58-29.12C390.96,158.39,391.32,158.16,391.68,157.92z"/>
		<path d="M421.49,245.6c2.6-1.53,4.08-2.4,6.66-3.93c1.73,3.73,3.88,7.19,4.91,10.96c0.89,3.3-0.72,6.07-4.36,7.34
			c-4.04,1.41-8.23,6.12-12.08,0.69c-3.39-4.78-5.67-10.36-8.42-15.59c-0.71-1.36-1.12-3.76-2.04-3.96
			c-3.88-0.85-4.45-3.95-5.81-6.79c-2.85-5.97-6.11-11.74-9.01-17.69c-1.04-2.14-1.56-4.54-2.27-6.83
			c-0.28-0.91-0.18-2.52-0.65-2.69c-7.41-2.61-6.46-10.21-9.2-15.51c-2.27-4.38-3.45-9.33-5.11-14.02c0.36-0.21,0.73-0.42,1.09-0.64
			c2.56,2.7,5.39,5.2,7.64,8.13c7.28,9.48,14.33,19.14,21.53,28.69c0.98,1.3,2.09,2.6,3.41,3.52c3.62,2.53,5.61,5.61,4.06,10.09
			C418.99,229.85,424.4,238.89,421.49,245.6z"/>
	</g>
</g>
</svg>
