<?xml version="1.0" encoding="utf-8"?>
<!-- Generator: Adobe Illustrator 26.2.1, SVG Export Plug-In . SVG Version: 6.00 Build 0)  -->
<svg version="1.1" id="Layer_1" xmlns="http://www.w3.org/2000/svg" xmlns:xlink="http://www.w3.org/1999/xlink" x="0px" y="0px"
	 viewBox="0 0 960 560" style="enable-background:new 0 0 960 560;" xml:space="preserve">
<g>
	<g>
		<path d="M478,156c4.36,1.39,8.73,2.74,13.07,4.19c2.7,0.91,6.72,0.22,6.22,6.05c5.06-7.63,10.66-2.56,14.1-0.37
			c7.18,4.57,14.15,10.12,18.03,18.26c1.4,2.93,2.5,5.99,4.11,9.9c-2.64,3.48,3.26,4.44,4.1,7.45c1.81,6.53,4.21,13.01,5.02,19.67
			c0.73,6.02,0.14,12.33-0.73,18.39c-0.73,5.1-1.58,10.82-8.8,11.49c-0.55,0.05-1.6,3.29-1.09,4.48c2.1,4.92,0.34,8.51-2.71,12.3
			c-3,3.73-4.77,8.57-8.11,11.88c-10.11,10.03-21.02,19.26-31.02,29.39c-5.87,5.96-10.58,13.05-15.83,19.62
			c-0.78,0.98-1.45,2.29-2.49,2.8c-2.94,1.43-3.36,3.2-1.89,6.04c0.53,1.02,0.53,2.98-0.12,3.84c-10.68,14.13-7.61,31.78,0.56,44.83
			c2.99,4.77,5.93,9.57,8.61,14.51c0.81,1.49,0.66,3.49,0.95,5.26c-0.67,0-1.33,0-2,0c-0.86-2.44-1.26-5.21-2.69-7.26
			c-2.76-3.94-6-7.56-9.22-11.17c-11.03-12.36-16.41-26.09-10.69-42.63c-1.82-12,5.39-21.03,10.39-30.68
			c3.32-6.42,3.72-6.24,9.73-7.82c1.64-7.71,7.77-11.58,13.25-15.92c5.85-4.64,11.8-9.16,17.79-13.63c1.31-0.98,3.29-1.21,4.34-2.36
			c1.49-1.64,2.5-3.76,3.52-5.76c0.73-1.42,0.79-3.29,1.76-4.45c6.61-7.89,10.47-16.9,11.88-27.06c0.21-1.48,1.16-3.01,2.13-4.21
			c2.84-3.48,2.53-6.42-0.8-9.48c-0.89-0.81-1.32-2.58-1.28-3.89c0.28-9.02-1.33-17.15-8.76-23.39c-2.69-2.26-4.13-5.54,0.07-9.38
			c-7.68-0.67-14.38-2.89-20.9-5.97c-6.46-3.05-15.12-1.62-18.96-9.3c-6.24,2.74-12.73,4.97-18.58,8.32
			c-9.43,5.4-15.54,13.79-19.32,23.99c-0.93,2.52-2.83,4.68-3.7,6.06c0.33,4.86,0.56,9.09,0.93,13.3
			c0.59,6.83,3.67,12.25,9.06,16.53c1.79,1.42,3.01,3.54,5,5.95c0.4-0.15,1.91-0.69,3.58-1.3c6.82,7.28,14.83,10.11,24.49,6.18
			c0.15-0.06,0.41-0.04,0.47-0.15c3.25-5.73,9.14-3.9,14.22-4.43c-0.54-5.43-0.81-10.42-1.61-15.32c-0.51-3.15-3.4-5.87-0.04-9.4
			c1.58-1.66-1.88-5.16-4.59-4.71c-5.72,0.96-11.06-1.62-13.06-6.18c-5.36,5.59-12.83,5.09-19.6,6.42c-1.07,0.21-2.69-1.2-3.73-2.19
			c-5.45-5.17-4.27-16.41,1.94-20.72c4.36-3.03,8.41-6.37,14.19-6.57c8.03-0.28,12.57,2.16,15.75,9.2c2.37-0.87,5.36-3.1,6.98-2.35
			c4.6,2.13,9,5.06,12.76,8.47c2.61,2.37,4.24,5.93,5.96,9.15c1.76,3.29,3.14,6.7-0.64,9.91c-0.59,0.5-0.1,2.82,0.48,4
			c0.92,1.85,3.42,3.48,3.36,5.14c-0.22,6.23,0.5,13.38-2.3,18.42c-3.98,7.16-10.24,13.37-16.52,18.84
			c-4.93,4.29-9.81,2.62-13.6-3.06c-2.04,4.54-5.47,5.29-9.8,3.98c-1.39-0.42-2.99-0.36-4.47-0.2c-9.99,1.06-10.23,0.98-15.84-6.78
			c-1.26,1.33-2.49,2.63-4.63,4.88c-3.84-3.16-8.5-5.75-11.4-9.65c-4.94-6.64-9.33-13.85-12.78-21.35
			c-1.27-2.75,0.8-7.04,1.41-11.06c-4.55-3.23-6.3-7.33-4.23-13.87c1.44-4.54,3.94-8.75,6-13.09c1.71-3.6,3.44-7.19,5.23-10.75
			c0.56-1.12,1.36-3.06,2.01-3.04c4.69,0.14,5.56-1.84,3.91-5.84c-0.27-0.66-0.14-1.87,0.31-2.4c5.34-6.38,10.93-12.47,19.67-14.13
			c0.6-0.11,1.71,0.18,1.8-0.04c2.35-5.8,8.29-3.81,12.38-5.76C473.33,156,475.67,156,478,156z"/>
	</g>
</g>
</svg>
