<?xml version="1.0" encoding="utf-8"?>
<!-- Generator: Adobe Illustrator 26.2.1, SVG Export Plug-In . SVG Version: 6.00 Build 0)  -->
<svg version="1.1" id="Layer_1" xmlns="http://www.w3.org/2000/svg" xmlns:xlink="http://www.w3.org/1999/xlink" x="0px" y="0px"
	 viewBox="0 0 960 560" style="enable-background:new 0 0 960 560;" xml:space="preserve">
<g>
	<g>
		<path d="M418,406c2.65-2.61,5.3-5.22,7.96-7.82c0.59-0.58,1.27-1.06,1.82-1.67c6.2-6.85,12.24-13.85,18.59-20.55
			c8.81-9.3,17.85-18.38,26.78-27.56c0.45-0.46,0.79-1.03,1.19-1.55c-5.22-4.07-7.17-3.64-11.85,0.86
			c-10.9,10.46-22.11,20.59-33.05,31.01c-3.34,3.18-6.19,6.89-9.32,10.3c-0.8,0.87-1.84,1.53-3.14,1.87
			c4.01-10.65,12.29-17.88,19.48-25.96c7.13-8,14.18-16.07,21.23-24.08c-4.09-1-8.3-2.02-13.41-3.27c0.77-0.42,0.24-0.26,0.24-0.11
			c0.22,8.06-4.16,13.83-9.25,19.4c-1.48,1.63-2.26,4.02-3,6.18c-2.57,7.51-9.76,12.84-17.43,12.19
			c-10.57-0.9-20.29-10.65-17.45-22.35c2.68-11.05,7.65-20.74,16.63-28.12c1.74-1.43,2.92-3.55,4.35-5.36c-0.5-0.04-1-0.08-1.5-0.12
			c-0.36-3.91-1.18-7.85-0.93-11.73c0.21-3.28,2.91-4.24,5.97-3.26c3.79,1.21,7.52,2.58,11.66,4.02c3.39-4.41,6.79-8.85,11.1-14.46
			c-3.25-0.82-5.56-1.31-7.8-2c-1.24-0.38-2.41-1.01-3.54-1.65c-3.76-2.13-7.43-4.42-11.24-6.46c-6.19-3.31-8.44-9.41-6.5-16.28
			c0.96-3.41,3.14-4.26,5.47-2.95c5.24,2.94,10.1,6.57,15.16,9.86c2.55,1.66,5.3,3.03,7.78,4.78c2.42,1.72,4.61,3.76,7.26,5.95
			c2.29-2.91,4.42-5.6,6.53-8.28c-5.33-5.42-9.33-11.75-16.12-15.41c-2.4-1.3-3.83-4.37-5.76-6.59c-1.64-1.88-2.75-4.65-6.17-3.67
			c-0.54,0.15-1.51-0.14-1.86-0.56c-4.15-5.15-10.86-8.62-11.17-16.28c-0.1-2.41,0.42-6.82,1.21-6.95
			c3.53-0.57,8.36-1.33,10.71,0.53c6.61,5.24,12.59,11.04,16.04,19.59c2.15,5.33,6.95,10.76,14.25,11.8
			c1.33,0.19,2.49,2.62,3.43,4.19c0.94,1.57,1.51,3.36,2.91,6.61c3.39-4.91,6.32-8.31,8.17-12.23c0.81-1.71,0.17-5.24-1.17-6.63
			c-5.01-5.2-10.63-9.82-15.93-14.74c-1.32-1.22-2.31-2.79-3.48-4.19c-2.94-3.52-5.95-6.99-8.81-10.58
			c-1.59-1.99-2.78-4.3-4.42-6.23c-1.07-1.27-2.48-2.62-4-3.07c-7.5-2.25-19.77-15.32-20.17-22.28c-0.12-2.17,0.42-4.81,1.66-6.52
			c1.97-2.72,4.38-2.87,7.6-0.54c15.39,11.11,24.05,28.18,37.02,41.46c3.74,3.83,6.62,8.32,11.48,11.28c3,1.82,5.09,5.13,8,8.21
			c2.21-2.39,4.43-4.37,6.13-6.73c3.55-4.91,7.44-9.27,13.29-11.53c1.12-0.43,2.77-1.66,2.77-2.52
			c-0.01-7.78,6.15-11.73,10.17-16.99c0.48-0.63,1.06-1.17,2.51-2.77c-2.08,0.31-3.17,0.16-3.86,0.62
			c-10.05,6.73-20.68,11.11-32.97,7.31c-12.4-3.84-25.15-7.36-34.99-16.36c-5.17-4.72-9.95-10.28-13.44-16.31
			c-4.1-7.1-6.6-15.11-9.79-22.73c0.67,0,1.33,0,2,0c3.7,5.25,7.38,10.06,13.18,13.81c3.87,2.5,7.96,5.44,11.74,8.45
			c3.22,2.57,6.2,5.49,8.98,8.54c1.21,1.32,1.65,3.34,2.69,5.58c4.74-4.55,9.11-2.63,14.47-1.35c5.47,1.31,11.67,1.65,17.95-2.73
			c4.94-3.45,8.59-7.46,12.77-11.4c3.25-3.06,6.01-5.76,7.43-10.1c1.29-3.94,10.61-5.42,15.34-2.78c2.16,1.21,4.22,2.6,6.36,3.85
			c6.24,3.64,8.63,13.74,6.49,19.18c-1.09,2.76-1.05,4.78,1.35,7.36c5.68,6.09,3.45,12.6-4.65,15.96c-2.18,0.91-3.98,2.72-5.21,4.7
			c-2.2,2.68-4.06,5.74-6.66,7.94c-4.4,3.73-9.26,6.92-13.93,10.33c-0.66,0.48-1.89,0.83-1.97,1.38
			c-1.51,10.02-10.85,13.58-16.49,20.17c-0.32,0.37-0.66,0.71-1.18,1.27c1.5,2.29,3,4.57,5.08,7.75c3.91-4.18,6.89-8.6,10.98-11.43
			c6.2-4.29,9.21-11.06,14.36-16.04c3.55-3.43,7.55-6.38,11.18-9.74c1.8-1.66,3.01-3.97,4.86-5.54c1.62-1.37,4.01-3.19,5.62-2.84
			c1.67,0.37,3.59,2.93,4.07,4.86c2.4,9.64,1.6,10.59-6.4,16.37c-7.74,5.59-14.78,12.16-22.66,17.54
			c-5.79,3.95-9.01,9.43-12.48,15.71c2.28,2.16,4.65,4.39,7.04,6.65c4.88-5.83,9.37-11.55,14.27-16.9c2.56-2.8,5.51-5.58,8.85-7.21
			c2.83-1.38,7.23-2.45,9.57-1.16c2.68,1.47,4.77,5.51,5.44,8.77c0.87,4.24-6.83,8.57-11.28,6.6
			c-1.89,10.83-14.18,10.78-19.77,18.27c2.63,2.96,4.91,5.53,8.05,9.07c2.44-2.78,4.39-5.75,7.05-7.8c2-1.53,5.32-3.11,7.33-2.45
			c3.49,1.14,6.07,4.34,5.05,8.63c-0.66,2.8-1.23,6.31-3.16,7.93c-1.77,1.49-5.3,0.88-8.92,1.3c5.19,5.84,9.96,11.2,14.72,16.56
			c-0.5,0.49-1,0.98-1.5,1.47c-5.43-4.84-10.86-9.67-16.27-14.49c-4.11,3.84-8.05,7.52-12.4,11.59c2.75,2.3,5.44,4.95,8.51,7.04
			c14.09,9.61,24.13,22.14,28.83,38.72c2.07,7.3,4.29,14.55,6.4,21.84c1.13,3.89-1.23,11.08-4.56,13.52
			c-0.17-0.7-0.48-1.28-0.43-1.83c0.95-9.46-0.37-12.55-9.09-16.29c-12.22-5.24-24.74-9.79-37.08-14.77
			c-2.38-0.96-4.49-2.58-7.07-4.1c-2.35-0.86-5.27-1.61-7.9-2.94c-4.74-2.42-9.39-5.05-13.91-7.86c-3.03-1.88-5.3-1.76-7.78,0.96
			c-7.8,8.6-15.42,17.4-23.75,25.47c-7.74,7.49-16.29,14.15-24.52,21.13c-2.26,1.91-4.66,3.66-6.99,5.48C420,406,419,406,418,406z
			 M554.56,381.41c-1.22-3.56-1.71-6.09-2.91-8.2c-1.68-2.96-3.32-6.44-5.96-8.27c-12.58-8.72-25.55-16.87-38.26-25.4
			c-7.79-5.23-11.2-4.52-15.72,3.67C512.36,355.76,533.01,368.31,554.56,381.41z M478.53,282.74c1.63-1.89,3.03-3.94,4.84-5.52
			c8.26-7.26,8.31-7.21-0.32-13.29c-0.23-0.16-0.61-0.1-1.26-0.19c-3.76,3.21-7.69,6.55-11.66,9.94
			C473.22,277.02,475.78,279.78,478.53,282.74z M499.39,277.62c-4,5.23-7.54,9.85-11.17,14.58c2.04,2.14,3.83,4.01,5.58,5.85
			c4.93-4.3,9.52-8.31,14.34-12.51C505.34,283.01,502.8,280.71,499.39,277.62z M507.54,309.93c5.7-3.59,10.93-6.88,16.48-10.36
			c-2.91-2.43-5.68-4.74-8.58-7.15c-1.45,1.01-2.85,1.89-4.14,2.92c-1.3,1.03-2.42,2.28-3.72,3.32
			C501.29,303.7,501.31,305.17,507.54,309.93z M458.28,290.15c7.03,6.08,10.25,5.6,13.78-0.97c-1.94-2.6-3.78-5.08-5.94-7.97
			C462.97,284.8,460.72,287.36,458.28,290.15z M459.56,304.5c-3.48-2.41-5.75-3.98-8.13-5.63c-2.93,2.86-5.71,5.57-9.42,9.2
			C448.28,306.8,453.23,305.79,459.56,304.5z M488.71,305.69c-5.61-9.02-6.57-9.04-11.78-1.39
			C481.04,304.78,484.88,305.24,488.71,305.69z M488.98,332.67c-4.78,0-8.48,0-13.68,0c3.44,2.38,5.55,3.83,7.89,5.46
			C485.11,336.32,486.82,334.71,488.98,332.67z"/>
	</g>
</g>
</svg>
