<?xml version="1.0" encoding="utf-8"?>
<!-- Generator: Adobe Illustrator 26.2.1, SVG Export Plug-In . SVG Version: 6.00 Build 0)  -->
<svg version="1.1" id="Layer_1" xmlns="http://www.w3.org/2000/svg" xmlns:xlink="http://www.w3.org/1999/xlink" x="0px" y="0px"
	 viewBox="0 0 960 560" style="enable-background:new 0 0 960 560;" xml:space="preserve">
<g>
	<g>
		<path d="M501,406c-2.33,0-4.67,0-7,0c-1.42-2.17-3.66-4.19-4.12-6.55c-1.71-8.82-3.78-17.73-1.19-26.74
			c0.74-2.59,1.07-4.79-1.38-6.63c-2.67-2.01-5.41-3.98-7.86-6.24c-6.12-5.65-12.05-11.5-18.15-17.17
			c-1.14-1.06-3.09-2.68-4.02-2.32c-4.12,1.58-8.54-1.18-12.64,1.36c-1.35,0.84-4,0.29-5.78-0.37c-4.35-1.6-9.39-2.73-12.61-5.71
			c-4.82-4.46-10.69-2.48-16.27-5.3c0.5,6.6,0.57,12.41,1.48,18.08c1.05,6.51,3,12.88,4.18,19.38c0.24,1.3-1.22,2.91-1.51,3.54
			c0.69,2.69,1.35,4.9,1.83,7.16c0.78,3.69,0.58,7.9,2.36,11c2.42,4.22,0.65,7.73-0.13,11.48c-0.18,0.86-1.96,2.07-2.91,1.99
			c-8.52-0.7-20.4-6.37-23.42-15.06c-2.22-6.39-4.02-12.95-5.69-19.51c-0.68-2.69-0.97-5.64-0.68-8.39
			c1.19-11.24,2.59-22.45,4.1-33.65c0.57-4.24-0.26-7.15-4.41-9.4c-3.39-1.84-6.27-4.77-9.07-7.52c-2.86-2.8-5.3-6.01-8.03-8.94
			c-0.98-1.05-2.76-1.6-3.3-2.77c-4.72-10.32-6.81-20.97-2.2-31.86c0.93-2.19,3.48-3.7,5.28-5.52c1.55-1.74,2.72-3.91,4-6.03
			c0.82-1.36,1.79-2.64,2.74-3.92c1.24-1.69,2.31-3.59,3.85-4.97c2.09-1.87,4.5-3.42,6.88-4.94c2.29-1.47,2.4-3.21,2.19-5.87
			c-0.59-7.24-0.94-14.56-0.42-21.78c0.29-3.95,1.84-8.24,4.1-11.48c2.15-3.08,5.89-5.13,9.11-7.37c1.71-1.19,3.79-1.86,5.74-2.67
			c2.08-0.87,4.67-1.11,6.21-2.53c6.53-5.99,14.33-7.24,22.7-6.94c7.58,0.27,9.43-1.07,10.89-8.51c0.92-4.69-0.41-8.87-4.04-12.15
			c-1.56-1.41-3.89-2.5-1.8-5.16c0.67,0,1.33,0,2,0c3.83,3.74,7.85,7.31,11.39,11.31c1.05,1.18,1.53,3.84,0.96,5.32
			c-4.14,10.82-16.64,18.02-27.72,15.57c-3.28-0.73-4.89,0.58-6.94,2.1c-2.62,1.94-4.99,4.39-7.88,5.76
			c-8.39,3.97-13.89,10.69-18.38,18.41c-3.97,6.83-2.28,13.28,1.03,18.69c4.33-1.15,8.13-1.8,11.65-3.18
			c5.09-2,9.99-4.47,14.92-6.86c1.54-0.75,3.41-1.53,4.27-2.85c7.1-10.92,11.28-12.22,23.78-7.73c2.82,1.01,6.43,1.74,9.11,0.87
			c6.26-2.03,14.02-2.59,15.75-11.23c0.11-0.56,0.88-0.97,1.28-1.5c1.8-2.42,3.99-4.65,5.29-7.32c4.62-9.46,10.21-12.98,20.65-11.97
			c7.18,0.69,13.43,2.81,16.83,10.32c1.98,4.38,6.8,5.13,11.48,3.45c10.21-3.66,20.63-6.98,31.61-4.33
			c7.51,1.81,15.04,3.97,22.13,6.99c4.54,1.93,9.88,4.42,8.99,11.12c9.01,2.51,9.71,2.62,8.38,11.45
			c-0.88,5.84-4.13,11.32-6.24,16.75c-2.41-0.45-3.73-0.69-5.26-0.98c2.28,7.89-7.46,9.04-7.65,15.83c1.82,1.27,3.99,2.79,7.15,5.01
			c-3.44,2.02-5.28,3.1-7.7,4.52c6.37,0.66,10.09,3.74,10.38,9.79c0.33,6.96-0.07,13.97,0.61,20.89c0.56,5.68-3.99,11.31,0.07,16.97
			c0.44,0.61-0.05,1.94-0.22,2.91c-0.62,3.61-1.31,7.2-1.93,10.81c-3.36,19.39-12.33,34.86-30.95,43.21
			c-7.03,3.15-14.69,3.1-21.89,0.83c-5.84-1.84-11.92-4.13-14.4-10.88c-0.3-0.81-1.46-1.26-2.12-1.97c-1.47-1.59-3.21-3.06-4.2-4.91
			c-1.04-1.92-1.33-4.25-1.99-6.56c-1.91,0.71-3.44,1.27-3.65,1.35c-2.73,5.75-5.14,10.38-7.12,15.18c-0.9,2.19-1.79,4.93-1.24,7.06
			c1.55,6.01,4.21,11.74,5.77,17.76C510.21,392.58,509.58,400.63,501,406z M465.86,312.71c0.17,0.13,0.34,0.26,0.51,0.4
			c-0.2,3.04,0.3,6.34-0.73,9.06c-2.02,5.29-1.98,9.51,2.95,13.13c2.97,2.18,5.63,4.79,8.34,7.3c1.08,1,1.84,2.34,2.91,3.35
			c1.75,1.66,3.45,3.48,5.49,4.7c2.78,1.66,5.87,2.81,9.26,4.38c3.73-8.06,7.48-16.19,11.25-24.31c1.39-3.01,3.63-5.88,4.07-9.02
			c1.64-11.74-0.53-23.31-2.6-34.83c-0.12-0.69-0.98-1.31-1.6-1.84c-8.59-7.29-16.14-15.41-21.03-26.16
			c-4.48,5.5-6.91-0.43-10.67-2.39c-0.73,2.64-1.64,4.79-1.88,7.01c-1.46,13.83-2.7,27.68-4.19,41.51
			C467.66,307.62,466.58,310.15,465.86,312.71z M485.24,238.18c2.94,1.21,5.5,1.49,6.8,2.92c5.74,6.29,11.22,12.82,16.59,19.44
			c2.8,3.45,3.99,8.26,9.06,9.71c1.08,0.31,1.9,1.8,2.67,2.86c3.22,4.43,6.5,8.84,9.52,13.41c2.21,3.33,3.55,3.56,6.01-0.05
			c5.02-7.38,10.59-14.39,15.95-21.53c1.17-1.56,2.42-3.05,3.6-4.53c-3.85-4.33-7.34-8.37-10.96-12.29c-1.98-2.14-4.28-4-6.28-6.12
			c-6.52-6.95-7.85-17.85-17.24-22.68c-0.89-0.46-1.29-1.89-1.9-2.88c-1.1-1.77-2.2-3.55-2.79-4.5c-4.79,1.45-8.79,3.12-12.95,3.79
			c-5.65,0.91-11.27,1.4-16.56,4.02c-4.29,2.12-7.68,8.29-5.65,11.65C482.64,233.91,484.18,236.43,485.24,238.18z M550.68,286.71
			c-2.04,3.09-3.09,6.29-5.29,7.68c-6.11,3.85-7.57,8.96-6.75,15.74c0.8,6.59-2.18,9.47-8.99,9.4c2,3.72,0.14,5.61-2.93,7.43
			c-0.98,0.58-0.88,2.98-1.28,4.55c0.56,0.13,1.12,0.27,1.67,0.4c1.05-1.57,2.09-3.13,3.28-4.91c7.77,5.55,4.81,14.25,6.48,22.88
			c1.13-2.18,1.48-2.87,1.85-3.55c0.65-1.19,1.31-2.37,1.97-3.56c0.95,1.01,1.84,2.08,2.85,3.01c2.3,2.11,4.49,4.41,7.05,6.15
			c3.61,2.46,5.71,1.55,7.28-2.69c1.41-3.81,1.86-8.45,7.74-8.08c0.51,0.03,1.27-1.37,1.66-2.22c2.4-5.24,4.77-10.5,7.05-15.8
			c0.28-0.64-0.12-1.55-0.1-2.34c0.04-2.8-0.03-5.62,0.24-8.4c0.47-5.04,1.49-10.05,1.65-15.09c0.13-4.42,0.28-9.2-1.21-13.21
			c-1.43-3.83-4.98-6.88-8.35-11.26c-3.71,3.86-7.19,7.73-10.98,11.27C554.1,285.49,551.92,286.08,550.68,286.71z M442.47,311.07
			c1.25-4.49,2.55-7.77,3-11.16c0.43-3.23,1.45-5.23,4.88-5.8c2.48-0.41,3.24-1.73,1.93-4.29c-3.61-7.05-1.37-17.27,4.47-22.63
			c0.87-0.8,1.07-2.61,1.13-3.98c0.21-4.37-0.19-8.82,0.41-13.12c0.51-3.64-0.49-6-3.9-6.62c-2.52-0.46-5.24,0.18-7.87,0.23
			c-3.18,0.06-6.36,0.01-9.72,0.01c-5.58,5.89-11.63,12.26-17.24,18.18c-0.74,3.55-1.15,6.83-2.13,9.92
			c-1.83,5.78-1.73,11.03,2.6,15.79c5.72,6.28,11.27,12.72,16.99,19.01C438.31,308.01,439.99,309.06,442.47,311.07z M543.02,227.03
			c2.37,2.01,5.48,4.26,8.12,6.97c3.27,3.36,5.4,7.57,10.59,9.17c3.77,1.16,5.41,0.61,7.08-2.68c1.4-2.77,3.42-5.22,5.09-7.87
			c0.77-1.23,2.05-2.68,1.88-3.85c-0.69-4.8-2.2-9.49-2.74-14.3c-0.43-3.89-0.32-7.13-5.54-3.85c-0.62,0.39-2.25-0.79-3.41-1.26
			c-5.2-2.1-10.34-5.69-15.62-5.91c-5.58-0.23-11.29,2.76-17.61,4.52C534.93,214.38,538.88,220.56,543.02,227.03z M385.9,260.52
			c0.83,3.73,2.18,6.11,1.52,7.59c-1.86,4.19-4.37,8.14-6.95,11.95c-3.36,4.96-0.84,14.33,4.59,17.04c1.88,0.94,3.37,2.64,5.1,4.04
			c1.29-0.6,3.06-1.42,4.75-2.2c0.47-3.26,2.45-7.47,1.11-9.55c-3.26-5.07-0.38-8.69,1.42-12.46c3.19-6.68,3.14-9.43-1.77-15.43
			C392.89,264.96,389.95,267.5,385.9,260.52z M413.08,313.45c3.64,0.34,6.96,1.11,10.18,0.82c2.77-0.24,5.14,4.38,6.63,2.83
			c-6.66-7.57-12.88-14.64-19.22-21.85C411.5,301.51,412.3,307.5,413.08,313.45z M509.09,202.24c0.35-0.82,0.7-1.64,1.04-2.46
			c-2.77-2.23-5.23-5.17-8.38-6.54c-6.42-2.79-7.92,4.85-12.41,6.41c0.37,1.68,0.68,3.09,1.14,5.15
			C496.74,203.94,502.92,203.09,509.09,202.24z M497.2,377.77c-2.34,6.24-0.99,15.7,2.46,18.74
			C502.98,388.59,502.19,381.83,497.2,377.77z"/>
	</g>
</g>
</svg>
