<?xml version="1.0" encoding="utf-8"?>
<!-- Generator: Adobe Illustrator 26.2.1, SVG Export Plug-In . SVG Version: 6.00 Build 0)  -->
<svg version="1.1" id="Layer_1" xmlns="http://www.w3.org/2000/svg" xmlns:xlink="http://www.w3.org/1999/xlink" x="0px" y="0px"
	 viewBox="0 0 960 560" style="enable-background:new 0 0 960 560;" xml:space="preserve">
<g>
	<g>
		<path d="M476,406c-2.32-12.52-4.84-25-6.81-37.57c-0.47-2.97,0.13-6.7,1.63-9.26c3.74-6.35,4.03-6.13-1.62-11.33
			c-0.61-0.57-1.14-1.93-0.89-2.62c1.94-5.38,1.04-12.32,7.99-15.05c0.19-0.07,0.21-0.57,0.46-1.35c-1.48-0.27-2.88-0.7-4.3-0.77
			c-5.4-0.26-7.99-4.07-8.02-8.43c-0.04-5.48,1.11-11.15,2.82-16.37c0.56-1.71,4.62-3.43,6.9-3.22
			c14.29,1.31,27.43,10.67,26.42,28.09c-0.14,2.35-2.53,4.5-3.52,6.88c-1.16,2.8-2.97,5.87-2.69,8.63
			c0.98,9.58-0.14,11.12-9.52,10.45c-0.62-0.04-1.27,0.14-3.15,0.37c2.88,4.15,5.34,7.7,6.71,9.67
			c-2.69,11.86-5.03,22.47-7.54,33.04c-0.71,3-1.9,5.89-2.87,8.83C477.33,406,476.67,406,476,406z"/>
		<path d="M486,156c2.09,8.3,4.47,16.54,6.15,24.92c0.99,4.95,0.85,10.12,1.23,15.43c7.53,2.09,9.33,14.98,2.56,22.92
			c6.66,5.58,8.5,13.43,4.76,21.33c-2.51,5.29-7.58,5.98-12.65,6.36c-1.81,0.14-3.66-0.17-5.48-0.09
			c-10.68,0.52-15.67-5.06-14.08-15.83c1.25-8.45,2.38-9.84,10.02-11.49c-0.67-1.44-0.92-3.18-1.92-3.95
			c-5.04-3.89-5.05-9.18-0.09-13c0.85-0.65,1.39-3.17,0.84-3.95c-3.25-4.61-3.23-9.48-2.42-14.75c1.53-10,4.99-19.23,10.08-27.9
			C485.33,156,485.67,156,486,156z"/>
		<path d="M440.89,227.03c-0.09,1.84-0.65,3.81-0.17,5.48c1.36,4.7,0.18,8.82-3.5,11.81c-1.02,0.83-2.21,2.83-1.86,3.71
			c1.36,3.45-0.35,4.62-2.96,6.19c-1.21,0.73-1.99,3.36-1.74,4.94c0.19,1.19,2.21,2.28,3.62,3.03c1.62,0.86,3.46,1.29,4.01,1.48
			c2.71-1.96,4.9-4.02,7.48-5.25c2.14-1.02,2.45-0.5,9.26,7.56c0.6-0.78,1.23-1.44,1.67-2.21c4.59-7.95,4.55-7.67,13.86-6.79
			c7.58,0.72,15.25,0.95,22.87,0.84c7.17-0.1,12.97,5.43,12.55,12.69c-0.11,1.97-0.02,3.96-0.02,6.12c4.04,1.63,5.31-1.62,6.92-3.87
			c3.44-4.79,4.4-4.98,9.03-1.59c7.35,5.38,14.76,10.68,22.46,16.24c0.22-1.22,0.68-2.91,0.8-4.62c0.62-9.18,3.5-18.63-3.21-26.99
			c-0.53-0.66-0.1-2.14-0.01-3.23c0.32-4.17,0.35-8.1-2.44-11.8c-1.29-1.7-1.22-4.43-1.76-6.69c-0.3-1.24-0.34-2.62-0.93-3.69
			c-3.46-6.25-6.4-12.54-6.87-19.93c-0.21-3.32-2.21-6.53-3.4-9.79c-0.59-1.62-1.19-3.24-1.79-4.86c0.56-0.43,1.13-0.86,1.69-1.29
			c2.76,2.94,6.23,5.49,8.15,8.9c4.95,8.8,9.77,17.75,13.54,27.09c2.35,5.83,2.67,12.47,3.93,18.74c0.61,3.03,0.91,6.19,2.03,9.03
			c1.63,4.1,2.53,7.88-0.48,11.71c-1.69,2.15-1.83,3.75,0.93,5.66c1.58,1.09,2.35,3.87,2.75,6.03c1.17,6.32,0.17,12.32-3.5,18.55
			c3.86,8.5,10.61,16.97,9.99,29.31c-4.79-5.67-8.84-10.46-13.34-15.79c-1.5,2.01-2.66,2.91-2.94,4.03
			c-1.21,4.88-4.47,7.71-8.51,10.39c-1.64,1.09-2.25,4.22-2.67,6.54c-1.13,6.19-4.93,10.13-11.6,10.94c0.46,1.75,1.27,3.43,1.25,5.1
			c-0.03,1.91-0.18,4.48-1.37,5.59c-4.13,3.84-8.51,7.53-13.25,10.59c-3.63,2.34-6.64,0.69-8.07-3.46
			c-2.84-8.25,0.5-14.18,9.06-16.51c4.25-1.16,7.94-2.89,8.27-8.36c0.18-2.97,1.73-5.28,5.72-4.54c0.86,0.16,3.37-2.62,3.13-3.55
			c-1.38-5.59,2.18-8.6,5.39-11.93c1.36-1.41,2.74-2.85,3.82-4.47c1.35-2.02,2.45-4.06-1-5.56c-1.01-0.44-1.37-2.39-2.02-3.64
			c-1.15-2.2-1.79-5.41-3.58-6.3c-1.65-0.82-4.54,0.86-6.8,2.58c-7.51-3.03-15.02-6.07-22.54-9.07c-1.07-0.43-2.26-0.97-3.35-0.87
			c-4.5,0.39-6.37-1.18-4.58-5.71c-3.11-1.45-5.36-0.86-6.65,2.2c-1.11,2.65-2.92,2.9-5.61,2.6c-4.78-0.54-9.64-0.38-14.46-0.63
			c-3.7-0.2-7.1-0.92-6.55-6.17c-4.19-0.19-8.99-2.42-8.39,4.98c0.05,0.64-1.01,1.68-1.78,2.02c-5.24,2.32-10.54,4.51-16.5,7.03
			c0.33,3.12,1.69,6.79,0.87,9.89c-1.85,6.98,1.66,12.1,4.01,17.99c2.85,7.16,3.84,15.04,6.31,22.38c2.68,7.94,6.13,15.61,9.26,23.4
			c1.36,3.38,2.72,6.76,4.09,10.14c-0.41,0.21-0.82,0.43-1.23,0.64c-2.38-2.63-4.92-5.12-7.1-7.91
			c-4.08-5.22-9.12-10.12-11.61-16.06c-2.92-6.95-3.55-14.86-5.17-22.35c0.46-0.35,0.92-0.71,1.38-1.06
			c-2.51-0.35-5.02-0.69-7.77-1.07c-1.92-10.32-3.88-20.81-5.9-31.62c-4.72,1.02-8.25,1.86-11.8,2.55
			c-4.23,0.82-7.37-0.43-9.39-4.57c-6.31-12.88-3.61-22.98,8.69-30.58c5.48-3.39,10.65-5.94,10.26-14.31
			c-0.22-4.68,3.96-9.46,5.58-14.38c0.92-2.8,1.46-6.19,0.76-8.95c-0.79-3.14-0.94-5.02,2.35-6.33c4.69-1.88,7.19-5.34,6.5-10.51
			c-0.79-5.88,3.68-8.55,7.45-10.58c1.9-1.02,6.09,0.68,8.38,2.34c3.14,2.27,3.34,5.9,1.21,9.39c-1.82,2.98-3.39,6.11-5.4,8.96
			c-0.94,1.34-2.64,2.14-3.99,3.19C442.04,227.76,441.46,227.39,440.89,227.03z"/>
	</g>
</g>
</svg>
