<?xml version="1.0" encoding="utf-8"?>
<!-- Generator: Adobe Illustrator 26.2.1, SVG Export Plug-In . SVG Version: 6.00 Build 0)  -->
<svg version="1.1" id="Layer_1" xmlns="http://www.w3.org/2000/svg" xmlns:xlink="http://www.w3.org/1999/xlink" x="0px" y="0px"
	 viewBox="0 0 960 560" style="enable-background:new 0 0 960 560;" xml:space="preserve">
<g>
	<g>
		<path d="M372,406c2.88-7.89,4.93-16.22,8.83-23.57c5.48-10.33,12.26-19.98,18.66-29.82c1.22-1.87,3.17-3.28,4.85-4.83
			c6.5-5.95,13.05-11.84,19.51-17.84c0.8-0.74,1.83-2.58,1.55-2.93c-3.65-4.5,0.04-9.87-1.79-14.41c-3.14-7.78-2.24-14.26,5.1-19.18
			c1.2-0.81,2.23-1.87,3.26-2.76c-0.45-0.67-0.63-1.16-0.8-1.16c-7.02,0.16-7.77-0.58-4.26-6.65c3.87-6.7,7.95-13.5,13.18-19.11
			c3.27-3.51,8.73-5.09,13.39-7.09c1.09-0.47,3.1,0.65,4.44,1.45c1.64,1,3.02,2.43,5.45,3.84c-3.77-6.65,0.99-8.76,4.84-11.27
			c6.11-3.99,9.64-9.81,12.44-16.38c0.81-1.89,3.27-3.07,4.94-4.6c1.83-1.67,3.62-3.37,5.43-5.06c-1.77-1.17-3.43-3.08-5.33-3.35
			c-3.23-0.46-4.11-2.32-4.57-4.93c-0.4-2.28-0.62-4.6-1.15-6.85c-1.17-4.92-3.87-10.19,3.71-12.57c0.56-0.17,0.81-1.32,1.86-3.17
			c-4.2,0.42-7.47,0.75-10.68,1.07c-1.79-4.15-3.35-8.31-5.37-12.24c-1.03-2.01-2.62-3.95-4.42-5.3c-5.16-3.85-7.28-9.62-9.84-15.05
			c-0.81-1.73-0.18-4.14-0.21-6.24c0.67,0,1.33,0,2,0c0,4.04,2.06,5.82,5.94,7.18c13.14,4.6,23.22,13.41,30.84,24.89
			c2.54,3.83,5.1,8.34,1.98,12.27c2.17,2.71,4.81,4.9,6.01,7.71c3.76,8.76,5.9,17.88,4.45,27.58c-0.94,6.32-1.56,7.05-8.35,6.7
			c3.87,4.24,1.75,7.87-0.38,11.64c-3.35,5.93-6.49,11.97-9.74,17.95c-2.21,4.07-4.89,6.38-9.43,2.74c-0.65-0.52-1.9-0.31-4.29-0.61
			c1.74,2.25,2.92,3.23,3.37,4.47c0.83,2.3,2.01,4.89,1.64,7.12c-0.56,3.39-3.3,5.43-6.95,5.09c-2.92-0.27-5.77-1.18-8.68-1.61
			c-2.68-0.4-5.41-0.54-8.55,0.21c8.96,2.77,17.13,5.64,14.78,17.67c8.63-3.72,16.44-7.09,23.74-10.23
			c0.99,0.72,1.16,0.79,1.26,0.92c1.14,1.43,2.28,2.87,3.42,4.3c0.52-1.87,0.73-3.91,1.62-5.58c1.17-2.19,2.45-5.19,4.42-5.94
			c9.56-3.66,19.34-6.75,29.09-9.89c3.11-1,4.26,0.64,3.95,3.69c-0.14,1.44-0.02,2.91-0.02,5.39c2.3-0.93,3.94-1.8,5.68-2.24
			c2.13-0.53,4.73-1.6,6.47-0.87c8.22,3.45,16.43,7.05,24.23,11.34c5.83,3.21,9.69,8.71,10.83,15.36
			c1.07,6.21,4.22,12.32,1.16,18.98c-1.07,2.32-1.18,4.2-4.59,3.51c-1.61-0.32-3.58,1.19-5.39,1.87c0.12,0.42,0.24,0.84,0.35,1.26
			c1.41,0.17,2.84,0.56,4.23,0.47c8.19-0.51,9.37,3.3,9.78,9.33c0.48,7.23-2.58,12.85-9.32,16.13c-0.45,0.22-0.95,0.37-1.32,0.68
			c-11.91,9.7-27.46,4.31-37.29-2.66c-5.6-3.97-8.05-14.48-5.18-21.23c1.43-3.35,3.18-6.6,5.13-9.68c3.15-4.99,2.56-8.34-1.17-12.74
			c-1.37-1.61-0.76-4.9-1.11-7.9c0.42,0.06-0.52-0.35-0.8-0.08c-5.54,5.39-10.5,0.05-15.68-0.79c-0.93-0.15-1.95-0.81-2.74-0.58
			c-5.47,1.58-7.85-0.84-8.07-7.62c-3.21,2.31-6.88,3.56-7.74,5.86c-2.16,5.73-6.89,6.52-11.55,8.02c-4.05,1.3-8.04,2.82-12.72,4.47
			c1.58,3.03,2.67,5.38,3.99,7.59c3.15,5.23,2.97,6.35-1.82,9.83c-0.49,0.36-0.78,1-1.14,1.49c0.31,0.38,0.49,0.8,0.73,0.84
			c2.69,0.46,6.22-2.16,7.92,1.8c2.14,4.99,5.98,9.36,3.14,15.8c-7.44,16.84-22.42,22.28-38.32,19.81
			c-7.76-1.2-13.03-6.69-16.27-13.53c-0.9-1.9,0.89-5.08,1.46-7.71c-6.17,0.3-6.17,0.3-8.57-11.86c-3.98,1.57-7.94,3.13-12.39,4.88
			c1.79,7.97-6.29,9.69-10.02,14.35C397.6,378.09,385.71,391.97,374,406C373.33,406,372.67,406,372,406z"/>
	</g>
</g>
</svg>
