<?xml version="1.0" encoding="utf-8"?>
<!-- Generator: Adobe Illustrator 26.2.1, SVG Export Plug-In . SVG Version: 6.00 Build 0)  -->
<svg version="1.1" id="Layer_1" xmlns="http://www.w3.org/2000/svg" xmlns:xlink="http://www.w3.org/1999/xlink" x="0px" y="0px"
	 viewBox="0 0 960 560" style="enable-background:new 0 0 960 560;" xml:space="preserve">
<g>
	<g>
		<path d="M356,345c10.7-9.13,21.4-18.24,32.09-27.39c0.75-0.64,1.36-1.46,2.02-2.21c5.08-5.81,5.08-5.82,10.9-6.56
			c2.79-4.53,5-8.45,7.6-12.08c0.52-0.72,2.66-0.07,3.85-0.55c1.34-0.54,3.61-1.98,3.47-2.44c-1.24-4.28,1.24-6.28,4.22-8.37
			c3.23-2.28,6.24-4.88,9.74-7.66c-2.14-2.34-5.2-4.39-6.2-7.18c-0.88-2.48,0.53-5.78,0.98-9.07c-4.05,0.65-7.1-0.65-7.34-5.59
			c-0.02-0.43-0.43-1.09-0.79-1.21c-6.91-2.2-5.24-5.38-1.14-9.33c-2.26,0.53-4.52,1.06-6.72,1.57
			c-6.73-10.19-6.96-16.26-0.99-22.63c4.13-4.41,10.44-6.42,14.33-4.05c5.64,3.44,11.69,11.87,9.91,18.06
			c2.68,1.85,5.18,3.05,6.97,4.92c4.99,5.2,1.07,9.79-2.77,15.46c3.46-1.08,5.41-1.69,6.74-2.11c3.81,4.99,7.61,9.93,11.35,14.91
			c4.01,5.33,4,10.28-1.09,14.63c-5.5,4.7-11.7,8.56-17.57,12.82c-1.42,1.03-3.12,1.95-4.06,3.35c-2.3,3.41-4.54,6.51-9.26,6.62
			c-0.83,0.02-2.44,1.93-2.28,2.66c1.09,5.03-3.02,6.31-5.87,8.13c-4.61,2.94-9.43,5.63-14.41,7.86c-1.61,0.72-4.02-0.34-6.68-0.66
			c0.03-0.07-0.8,0.94-0.57,1.56c1.29,3.59-1.19,5.02-3.59,6.02c-10.24,4.25-20.58,8.3-30.89,12.37c-0.59,0.23-1.32,0.1-1.98,0.14
			C356,346.33,356,345.67,356,345z"/>
		<path d="M606,353c-1.63-0.19-3.71,0.2-4.81-0.66c-9.33-7.39-18.41-15.09-27.74-22.48c-1.64-1.29-4.11-1.53-6.54-2.38
			c1.41-5.56-4.16-6.79-7.05-9.66c-3.25-3.23-5.97-6.22-4.16-11.34c-0.41-0.2-0.82-0.4-1.23-0.6c-0.3,1.36-0.61,2.71-1.09,4.86
			c-9.18-9.19-16.96-16.83-24.47-24.72c-0.94-0.99-1.23-3.8-0.52-4.97c3.91-6.46,8.17-12.7,12.43-18.94
			c1.09-1.6,2.46-3.08,3.95-4.32c1-0.83,2.77-1.91,3.6-1.54c2.39,1.05,4.53,1.52,4.8-1.6c0.15-1.76-1.41-3.66-2.89-5.41
			c3.67-8.07,7.32-16.88,17.11-20.77c4.37-1.73,7.6-0.86,10.62,2.53c4.39,4.92,8.13,9.93,4.11,16.82c-0.79,1.35-1.81,2.78-3.09,3.59
			c-2.95,1.87-6.22,3.17-5.47,7.79c0.09,0.57-2.59,2.02-4.13,2.3c-1.46,0.27-3.11-0.45-4.91-0.78c-0.19,1.2-0.59,2.01-0.33,2.42
			c3.69,6.13-0.27,10.31-3.64,14.63c-2.18,2.8-3.8,5.52-0.58,8.77c0.54,0.54,0.54,2.28,0.08,3.04c-2.54,4.27,0.67,4.63,3.44,5.54
			c1.66,0.55,3.54,1.11,4.75,2.27c4.39,4.2,8.64,8.57,12.7,13.09c0.73,0.81,0.63,2.72,0.36,4c-1.28,6.22,0.91,8.53,6.01,7.29
			c6.35,9.59,12.51,18.9,18.68,28.22C606,351,606,352,606,353z"/>
		<path d="M516.69,272.61c-4.12-3.47-5.17-7.32-9.04-3.62c4.44,2.22,5.93,5.24,5.73,10.29c-0.11,2.82,3.87,5.83,6.07,8.7
			c0.58,0.75,1.42,1.31,2.27,2.09c-1.38,2.12-2.67,4.1-3.96,6.08c0.21,0.27,0.43,0.53,0.64,0.8c1.58-0.9,3.15-1.79,4.7-2.67
			c4.96,5.69,9.89,11.36,15.34,17.61c-0.17,0.52-0.68,2.04-0.72,2.15c3.13,2.44,5.82,4.34,8.28,6.5c5.37,4.69,10.64,9.51,15.93,14.3
			c0.44,0.4,0.73,0.98,1.72,2.34c-1.93-0.36-2.95-0.45-3.9-0.74c-6.6-2.01-13.22-3.99-19.78-6.13c-2.98-0.97-5.78-2.5-8.79-3.36
			c-3.3-0.95-6.82-1.16-10.07-2.23c-1.47-0.48-3.76-2.54-3.56-3.4c1.43-6.28-2.04-6.65-6.62-6.11c-0.47,0.06-0.97-0.09-1.13-0.11
			c-4.06-8.56-9.91-15.32-17.33-20.68c-0.81-0.58-2.91,0.24-4.23,0.83c-3.26,1.47-6.4,3.2-9.6,4.78c-2.13,1.06-4.36,1.41-4.76,4.85
			c-0.21,1.75-3.44,3.39-5.57,4.61c-2.4,1.38-5.03,2.46-7.69,3.26c-1.52,0.45-3.45,0.52-4.91-0.02c-2.91-1.07-3.83-0.23-4.29,2.69
			c-0.24,1.53-1.39,3.54-2.7,4.18c-7.44,3.65-15.14,6.77-22.58,10.43c-7.57,3.73-14.93,7.88-22.38,11.84
			c-0.31-0.33-0.62-0.65-0.92-0.98c3.88-4.06,7.43-8.5,11.7-12.09c10.28-8.63,20.89-16.86,31.37-25.25
			c0.26-0.21,0.73-0.35,0.77-0.59c1.42-7.53,7.88-6.65,13.09-7.59c-0.51-9.51,7.86-11.57,13.24-17.19
			c-1.98-6.66-12.87-12.23-3.93-22.91c-3.42,1.09-5.35,1.7-6.9,2.19c-3.5-5.01-6.93-9.94-10.63-15.24c1.03-2.03,2.41-4.75,4.28-8.43
			c-3,1.26-4.82,2.51-6.76,2.75c-4.51,0.57-8.46-3.52-7.9-8.18c1.11-9.24,5.87-16.17,14.15-20.44c1.16-0.6,3.57-0.52,4.4,0.28
			c7.92,7.6,11.02,17.59,13.09,27.97c0.19,0.93-0.53,2.05-1.25,4.52c3.81-1.81,6.5-3.08,9.19-4.36c3.96,7.23,8.04,14.65,12.06,21.98
			c7.86-3.96,11.14-14.47,21.13-17.38c-2.66-4.19,0.58-6.18,3.31-8.68c2.3-2.1,4.17-4.7,6.09-7.19c5.93-7.71,16.87-8.36,23.6-1.45
			c3.26,3.35,4.4,6.99,2.18,11.3c-1.44,2.8-2.87,5.62-4.56,8.27c-1.99,3.12-4.2,5.99-8.24,2.16c-0.62-0.59-2.17-0.2-4.36-0.32
			c5.75,5.65,1.34,8.03-1.96,11.44C525.19,261.47,521.1,267.2,516.69,272.61z"/>
	</g>
</g>
</svg>
