<?xml version="1.0" encoding="utf-8"?>
<!-- Generator: Adobe Illustrator 26.2.1, SVG Export Plug-In . SVG Version: 6.00 Build 0)  -->
<svg version="1.1" id="Layer_1" xmlns="http://www.w3.org/2000/svg" xmlns:xlink="http://www.w3.org/1999/xlink" x="0px" y="0px"
	 viewBox="0 0 960 560" style="enable-background:new 0 0 960 560;" xml:space="preserve">
<g>
	<g>
		<path d="M356,203c0.35-0.9,0.81-1.78,1.04-2.71c2.25-9.14,10.04-14.43,18.56-10.66c9.01,3.99,17.28,9.81,25.48,15.4
			c2.8,1.91,4.56,5.45,6.48,8.44c0.62,0.96,0.27,2.57,0.27,3.88c0,1.37-0.11,2.74-0.17,4.12c1.39-0.24,2.99-0.11,4.11-0.79
			c2.08-1.28,3.88-3.02,6.27-4.96c-0.64-0.24-0.14-0.16,0.23,0.1c3,2.08,5.89,5.68,8.97,5.85c2.69,0.15,5.34-4.22,8.46-5.44
			c6.76-2.65,13.69-5.24,20.79-6.58c5.79-1.09,12.3,7.62,10.72,13.95c-1.17,4.71-3,9.4-5.35,13.64c-4.17,7.54-4.59,8.7,2.15,13.98
			c8.73,6.84,17.98,13,27.01,19.46c1.08,0.77,2.16,1.55,3.23,2.33c2.75,2.02,4.37,4.16,1.19,7.23c-0.62,0.59-0.69,1.75-1.25,3.33
			c1.95,0,3.43,0.35,4.66-0.06c5.73-1.92,9.01,0.09,12.47,4.63c3.38,4.43,8.24,7.83,12.76,11.27c7.11,5.41,14.49,10.47,21.42,15.44
			c-0.4,2.5-0.66,4.11-0.92,5.72c1.58-0.27,3.19-0.88,4.74-0.73c1.69,0.16,3.68,0.6,4.91,1.65c5.29,4.53,10.34,9.34,15.5,14.03
			c6.63,6.02,13.55,11.76,19.85,18.11c3.65,3.68,6.47,8.23,9.39,12.58c2.55,3.8,4.71,7.86,7.04,11.8c0,0.67,0,1.33,0,2
			c-2.99-2.55-6.05-5.02-8.94-7.68c-3.22-2.97-6.8-4.57-11.12-5.92c-5.85-1.83-11.28-5.64-16.31-9.38
			c-11.07-8.23-21.73-17.01-32.69-25.39c-1.91-1.46-4.48-2.06-6.74-3.07c-2.71-1.21-4.93-2.58-4.31-6.31
			c0.22-1.33-0.94-2.89-1.64-4.82c-1.48,1.15-2.5,1.71-3.21,2.54c-2.23,2.6-3.71,2.5-6.39-0.07c-4.39-4.2-9.46-7.76-14.53-11.17
			c-7.58-5.1-15.33-9.96-23.15-14.68c-2.33-1.41-5.16-2-8.45-3.22c0.36-1.86,0.79-4.05,1.21-6.23c-1.83-0.13-3.66-0.25-5.49-0.38
			c-0.12,0.45-0.25,0.9-0.37,1.34c-7.93-6.42-15.87-12.83-23.9-19.33c-4.92,5.67-9.45,10.49-13.5,15.69
			c-2.29,2.94-4.43,6.3-5.51,9.82c-1.88,6.08-4.99,9.2-12.5,6.51c0.61,3.38,1.04,5.7,1.64,9.01
			c-15.19,18.65-30.91,37.93-46.62,57.22c-0.61-0.3-1.23-0.6-1.84-0.9c0-1.29-0.45-2.8,0.07-3.82c6.9-13.63,13.93-27.2,20.94-40.78
			c0.38-0.74,0.75-1.52,1.3-2.13c3.03-3.38,8.9-7.03,8.56-9.98c-0.59-5.08,1.33-8.92,2.18-13.31c0.56-2.89,1.63-4.51,4.85-5.11
			c3.19-0.6,6.55-2.02,2.55-6.26c-0.68-0.72-0.39-3.02,0.22-4.2c3.43-6.64,7.09-13.15,10.66-19.72c1.78-3.28-0.19-4.85-2.77-6.27
			c-3.13-1.72-7.04-2.96-5.97-6.58c-4.39-2.12-8.5-3.79-12.29-6c-4.41-2.57-8.89-5.23-12.62-8.63c-1.44-1.31-0.92-4.76-1.32-7.43
			c-0.98,1.08-2.3,2.54-3.54,3.91c-8.08-2.46-15.2-5.89-18.44-14.28C356,209.67,356,206.33,356,203z"/>
		<path d="M552.37,216.16c-1.64,5.69-5.76,7.01-10.31,8.17c-4.3,1.1-8.59,2.6-12.54,4.59c-3.59,1.81-6.44,2.23-9.39-0.9
			c-0.77-0.82-2.17-1.04-3.86-1.79c0.09,5.05-2.66,5.57-6.29,6.28c-12.19,2.39-24.57,4.29-35.7,10.51c-2.4,1.34-5.45,1.51-8.2,2.22
			c-0.35-0.57-0.69-1.14-1.04-1.7c3.39-3.35,6.48-7.08,10.23-9.94c5.14-3.92,11.41-6.52,15.99-10.94c3.35-3.23,8.96-3.42,10.75-8.81
			c0.54-1.63,3.83-2.34,5.84-3.5c5.18-2.97,10.37-5.93,15.52-8.95c2.63-1.55,4.7-2.22,6.26,1.54c0.56,1.35,2.67,2.05,4.08,3.05
			c0.87-1.63,2.54-3.3,2.45-4.88c-0.18-3.38,1.31-4.98,4.2-5.73c17.04-4.44,34.06-8.93,51.14-13.2c4.75-1.19,7.5,2.66,9.73,5.71
			c5.05,6.88,4.13,17.01-2.13,22.8c-2.18,2.02-5.66,2.93-8.71,3.65c-9.14,2.18-18.49,3.59-27.51,6.18c-4.01,1.15-6.82,2.46-8.43-2.6
			C554.3,217.42,553.52,217.1,552.37,216.16z"/>
	</g>
</g>
</svg>
