<?xml version="1.0" encoding="utf-8"?>
<!-- Generator: Adobe Illustrator 26.2.1, SVG Export Plug-In . SVG Version: 6.00 Build 0)  -->
<svg version="1.1" id="Layer_1" xmlns="http://www.w3.org/2000/svg" xmlns:xlink="http://www.w3.org/1999/xlink" x="0px" y="0px"
	 viewBox="0 0 960 560" style="enable-background:new 0 0 960 560;" xml:space="preserve">
<g>
	<g>
		<path d="M356,265c3.41-0.28,6.87-0.33,10.23-0.88c7.65-1.27,15.23-2.93,22.89-4.11c1.98-0.3,4.15,0.6,7.3,1.13
			c2.36-4.16,7-3.45,11.95-2.44c1.96,0.4,4.25-0.36,6.3-0.93c4.59-1.29,9.13-2.86,11.94,4.57c1.85-5.32,3.03-9.37,4.67-13.23
			c1.34-3.15,3.29-6.04,4.86-9.1c1.76-3.44,3.11-7.12,5.18-10.35c2.2-3.42,4.94-6.51,7.64-9.57c1.3-1.47,2.89-3.03,4.66-3.64
			c1.93-0.66,4.92-1.13,6.17-0.11c1.27,1.04,2.08,4.92,1.21,5.93c-3.44,3.97-7.6,7.3-11.53,10.84c-0.33,0.3-1.1,0.23-1.3,0.56
			c-3.87,6.39-7.68,12.81-11.1,20.01c10.33-4.07,20.01-4.82,26.34,5.15c3.33,5.25-0.66,18.08-4.77,20.71
			c-8.3,5.29-17.77,4.67-25.39-2.65c0.25,10.86,4.95,18.44,9.72,26.61c4.83,8.27,11.74,14.27,17.4,21.52
			c-17.25-9.01-29.86-21.59-31.45-41.22c-3.66-2.24-6.3-4.58-9.37-5.56c-4.77-1.53-9.81-2.38-14.8-2.95
			c-1.03-0.12-2.34,2.29-3.84,3.88c-1.9-4.45-4.88-5.98-9.48-3.31c-0.99,0.58-2.83-0.37-4.28-0.49
			c-10.76-0.85-21.15-3.25-31.14-7.35C356,267,356,266,356,265z"/>
		<path d="M606,269c-5.73,0.53-11.45,1.25-17.19,1.56c-9.27,0.49-18.57,0.44-27.81,1.15c-5.07,0.39-10.08,1.77-15.06,2.93
			c-3.18,0.74-6.05,2.28-9.4-0.23c-1.87-1.4-3.79-0.47-4.63,2.47c-3,10.53-6.07,21.05-9.64,31.39c-2.89,8.38-8.5,14.63-17.12,17.55
			c-1.46,0.5-4.22,0.37-4.81-0.51c-0.8-1.2-0.78-4,0.12-5.07c2.98-3.53,5.25-8.28,11.12-8.1c0.79,0.02,2.28-1.48,2.35-2.36
			c0.57-7.09,3.42-12.88,7.82-18.54c2.12-2.73,1.39-7.68,1.98-11.91c-4.84-1.48-12.05,2.76-14.27-5.78c-3.8,5.97-10.11,8-16.24,4.83
			c-1.96-1.02-3.83-3.94-4.1-6.2c-0.99-8.17,4.68-16.59,12.46-18.8c1.49-0.42,3.62,0.93,5.29,1.8c1.25,0.66,2.22,1.85,3.58,3.04
			c1.44-1.86,2.63-3.4,3.93-5.07c3.35,0.59,6.74,1.19,9.58,1.69c1.47-1.42,3.02-2.36,3.69-3.73c0.51-1.04,0.2-2.76-0.31-3.93
			c-0.44-1.01-2.25-1.55-2.47-2.52c-2.7-12-10.7-19.51-20.93-25.22c-0.68-0.38-1.31-0.87-1.93-1.35c-0.08-0.06-0.01-0.32-0.01-0.92
			c0.7,0,1.55-0.26,2.1,0.04c5.56,2.96,11.31,5.67,16.49,9.2c2.32,1.58,3.51,4.83,5.17,7.36c0.35,0.54,0.31,1.5,0.76,1.78
			c7.6,4.7,7.06,12.71,8.35,20.03c0.29,1.65,1.44,3.15,2.19,4.72c1.39-0.85,2.78-1.71,4.16-2.56c11.97,1.42,24.18,2.72,36.34,4.39
			c4.07,0.56,8.16,1.67,11.95,3.24c5.42,2.23,10.75,3.41,16.47,1.62C606,267.67,606,268.33,606,269z"/>
		<path d="M487.53,311.52c6.5,3.49,5.88,8.81,4.66,14.71c-0.76,3.66,0.08,7.62-0.19,11.42c-0.19,2.76-1.02,5.47-1.78,9.31
			c2.69,4.93-0.61,16.44-6.1,17.68c6.88,10.52-0.89,20.6-0.82,31.07c-4.55-7.8-8.14-15.77-9.6-24.6c-0.64-3.89-1.87-7.67-2.58-11.55
			c-1.11-6.03-2.22-12.08-2.83-18.17c-0.17-1.71,1.23-3.7,2.23-5.37c1.58-2.64,1.49-4.86-1.43-6.17c-3.01-1.36-3.35-3.48-3.02-6.43
			c0.35-3.12-0.38-6.38,0.16-9.44c0.41-2.33,2.2-4.39,3.1-6.67c0.52-1.32,1.14-3.19,0.59-4.21c-1.1-2.02-3.96-3.45-4.29-5.43
			c-0.49-2.95-0.16-6.53,1.15-9.19c2.35-4.79,7.55-5.24,12.03-4.75c3.94,0.44,7.73,2.44,11.49,3.99c0.92,0.38,1.93,1.64,2.09,2.62
			C493.57,297.64,493.81,304.82,487.53,311.52z"/>
		<path d="M480.84,165.7c0.6,0.95,1.21,1.54,1.39,2.24c1.95,7.86,3.4,15.88,5.87,23.57c2.45,7.65,1.76,15.49,2.47,23.23
			c0.21,2.26-2.03,4.74-3.27,7.36c2.56,1.14,5.57,2.48,7.65,3.41c0.69,4.81,1.57,8.65,1.67,12.51c0.06,2.51-0.36,5.52-1.75,7.46
			c-2.57,3.59-5.59,7.22-9.23,9.57c-2.91,1.88-7.21,3.04-10.56,2.5c-5.13-0.84-6.97-5.78-7.86-10.45
			c-0.77-4.07-0.93-8.25-1.33-12.39c-0.3-3.04-0.44-5.91,2.81-7.88c0.78-0.47,1.04-2.66,0.77-3.89c-1.53-6.92-1.24-13.31,3.82-18.93
			c0.72-0.8,0.79-3.53,0.19-3.94c-4.67-3.15-2.44-7.36-1.47-10.84c2.07-7.35,4.87-14.49,7.42-21.7
			C479.61,166.96,480.17,166.53,480.84,165.7z"/>
	</g>
</g>
</svg>
