<?xml version="1.0" encoding="utf-8"?>
<!-- Generator: Adobe Illustrator 26.2.1, SVG Export Plug-In . SVG Version: 6.00 Build 0)  -->
<svg version="1.1" id="Layer_1" xmlns="http://www.w3.org/2000/svg" xmlns:xlink="http://www.w3.org/1999/xlink" x="0px" y="0px"
	 viewBox="0 0 960 560" style="enable-background:new 0 0 960 560;" xml:space="preserve">
<g>
	<g>
		<path d="M504,406c-3.33,0-6.67,0-10,0c-1.07-0.74-2.22-2.21-3.19-2.1c-6.74,0.82-14.23-3.4-15.13-9.9
			c-0.68-4.94-0.1-10.2,0.78-15.17c0.81-4.56,2.76-8.91,4.21-13.36c-0.44-0.27-0.87-0.55-1.31-0.82c-2.49,1.13-4.89,2.62-7.5,3.31
			c-3.4,0.91-7.72,0.13-10.33,1.95c-9.84,6.86-19.1,4.91-28.22-0.77c-4.59-2.86-8.68-6.54-12.47-9.45
			c-2.94,3.73-5.76,7.5-8.84,11.06c-0.58,0.67-2.64,1.05-3.22,0.58c-4.83-3.92-9.52-8.01-14.11-12.21c-0.44-0.4-0.1-1.99,0.27-2.86
			c1.72-4.09,3.38-8.22,5.44-12.14c1.61-3.06,3.79-5.82,6.18-9.43c-5.11,2.03-6.97,7.28-13.26,6.04c-4.62-0.92-9.26-0.92-13.25-3.85
			c-7.77-5.71-9.52-15-3.87-27.72c3.7-8.33,11.28-9,19.13-6.3c-0.68-3.35-1.1-6.29-1.89-9.12c-0.97-3.49-1.52-7.42-3.54-10.24
			c-7.55-10.56-9.51-22.06-7.15-34.54c1.37-7.25,11.92-18.81,19.61-16.99c4.09,0.97,7.91,3.11,11.43,4.55
			c2.7-4.94,6.48-10.52,8.82-16.65c1.55-4.08,1.12-8.94,1.3-13.46c0.02-0.56-1.68-1.24-2.63-1.78c-1.13-0.64-2.65-0.91-3.43-1.82
			c-5.08-5.93-10.3-11.77-14.83-18.1c-2.08-2.91-2.71-6.87-3.99-10.36c0.41-0.19,0.82-0.38,1.24-0.57
			c6.97,12.81,19.79,17.81,31.71,24.9c6.24-10.51,13.6-17.97,27.72-12.92c-4.2-10.05,0.29-16.02,6.29-21.68
			c3.78-3.57,8.01-4.34,12.38-2.49c3.77,1.59,7.08,4.27,10.46,6.38c-0.62-5.83,3.64-8.99,8.19-11.96c2.33,0,4.67,0,7,0
			c1.58,1.15,4.09,2,4.6,3.51c2.74,8.24,1.44,17.04-2.29,24c-6.96,12.97-22.85,14.15-34.5,11.53c-2.8-0.63-5.89-0.35-8.8-0.04
			c-5.06,0.55-10.09,1.45-15.72,2.3c-3.57,8.05-0.83,11.78,9.34,11.8c2.78,0,5.57,1.33,8.35,2.09c1.1,0.3,2.17,1.06,3.24,1.04
			c6.32-0.13,12.66-0.17,18.95-0.76c6.14-0.57,12.22-1.77,18.5-2.71c1.19-1.19,2.57-3.26,4.5-4.39c5.95-3.5,12.09-6.67,18.18-9.93
			c1.44-0.77,3.35-2.35,4.37-1.93c6,2.45,7.53-1.75,9.34-5.74c2.99-6.63,9.98-8.75,15.56-3.86c3.04,2.67,4.94,6.88,6.7,10.7
			c2.93,6.35-0.66,12.87-0.25,19.36c0.05,0.84-1.89,1.91-3.04,2.68c-1.68,1.12-3.94,1.68-5.14,3.14
			c-6.07,7.37-15.14,6.87-23.13,8.89c-4.68,1.18-9.77,0.7-14.68,0.96c-0.06,0.42-0.13,0.84-0.19,1.25
			c8.05,3.91,11.92,10.49,12.07,19.13c0.04,2.1-0.71,4.81-2.12,6.21c-3.27,3.25-7.25,5.77-10.76,8.8c-2.7,2.33-5.52,2.73-8.06,0.43
			c-2.77-2.52-5.97-5.19-7.37-8.48c-3.44-8.1-6.62-10.63-15.72-11.25c-3.3-0.22-6.53-1.53-10.19-2.44c-1,0.24-3.24,1.57-4.38,0.93
			c-7.02-3.95-12.78-0.76-18.56,2.69c-3.06,1.83-6.02,3.84-9.09,5.81c0,1.07,0.37,2.61-0.06,3.88c-2.65,7.81-5.86,15.45-8.06,23.37
			c-0.84,3.02-0.67,8.64,1.04,9.64c5.82,3.39,6.73,9.46,10.36,13.7c2.75,1.48,5.65,3.01,7.49,5.37c3.89,4.97,7.51,9.86,14.9,8.65
			c0.6-0.1,1.34,0.15,1.92,0.44c6.48,3.24,12.85,3.71,19.59,1.4c-7.28-3.78-10.35-15.29-6.08-22.17c2.18-3.52,3.78-7.95,3.94-12.04
			c0.23-5.95-1.21-12.26-5.69-16.43c-3.06-2.84-7.6-4.44-11.76-5.52c-1.14-0.3-3.25,3.28-4.98,5.02c-0.81,0.82-1.72,1.56-2.68,2.2
			c-3.45,2.31-3.67,9.6-0.71,12.64c3.03,3.11,5.63,6.66,8.58,10.22c1.17,0.34,4.02,0.32,5,1.67c1.03,1.42,0.5,4.18,0.21,6.29
			c-0.19,1.42-1.19,2.72-1.76,4.11c-2.42,5.96-6.79,7.31-12.18,3.97c-7.35-4.56-14.7-8.84-16.13-18.74
			c-0.67-4.62-1.91-8.94,0.41-11.71c-0.67-3.55-1.71-6.03-1.47-8.38c0.91-8.98,6.47-17.08,18.73-17.71
			c11.18-0.57,18.25-2.59,25.56,11.44c0.89,1.71,2.87,2.84,4.25,4.34c0.84,0.92,2.04,1.97,2.13,3.04c0.56,7.11,0.92,14.06-2.25,21
			c-1.98,4.35-2.45,9.54-2.79,14.42c-0.27,3.91,2.43,5.19,6.36,3.98c1.35-0.42,2.9-0.6,4.3-0.42c5.31,0.71,11.51-4.67,11.79-10
			c0.3-5.78,1.03-11.54,1.56-17.31c0.56,0.03,1.11,0.06,1.67,0.09c0,8.33,0,16.66,0,25c0.54,0.3,1.08,0.6,1.61,0.9
			c4.15-4.21,8.29-8.42,12.33-12.51c-7.37-8.48-10.21-17.54-8.89-27.76c1.17-9.11,9.31-13.6,17.27-9.7
			c0.99,0.48,2.52,1.33,2.55,2.06c0.23,5.52,0.58,11.09,0.02,16.56c-0.5,4.91-4.22,10.56-2.7,14.36c2.17,5.42,7.78,9.48,12.08,13.97
			c0.3,0.32,2.2-0.28,2.77-0.95c1.93-2.28,3.21-5.24,5.42-7.14c10.79-9.28,21.08-6.11,27.98,4.92c3.22,5.15-0.47,8.29-2.29,12.08
			c-2.46,5.13-4.48,10.7-11.31,11.71c0.25,1.04,0.28,1.74,0.58,2.29c6.02,11.38-0.23,27.39-9.86,32.72
			c-1.9,1.05-4.94,2.46-6.27,1.68c-4.47-2.62-10.2-3.98-11.21-10.8c-0.58-3.93-2.98-7.59-4.62-11.5c-2.88,0.77-5.37,1.44-7.99,2.14
			c10.44,12.11,16.43,28.78,12.9,38.67c-0.56-1.41-0.99-2.37-1.33-3.36c-3.35-9.83-9.01-18.17-16.57-25.17
			c-6.02-5.57-12.71-7.46-17.04-4.39c-4.17,2.95-7.74,6.74-11.65,10.24c0.86,1.12,1.82,2.05,2.39,3.18
			c0.64,1.29,0.94,2.75,1.36,4.07c6.8-0.02,11.16,2.6,11.73,7.09c0.41,3.27,0.98,6.6,0.76,9.85c-0.52,7.87-1.38,15.7-9.33,20.28
			C506.2,403.43,505.18,404.86,504,406z M444.73,222.24c-4.47-2.43-8.32-4.52-12.76-6.93c-1.81,6.23-3.3,11.95-5.15,17.54
			c-1.46,4.4-2.48,9.37-5.28,12.8c-3.5,4.28-8.36,7.66-13.14,10.59c-2.87,1.76-5.36-0.6-6.41-3.6c-1.03-2.95-1.78-6-2.82-9.59
			c-2,1.09-3.97,1.65-5.18,2.92c-7.08,7.43-6.63,18.42-2.72,26.44c7.11,14.61,11.41,29.99,15.78,45.47
			c1.34,4.74,4.19,9.05,6.15,13.15c4.4-1.54,8.02-4.2,10.83-3.51c6.6,1.61,9.18-3.22,13.4-5.99c-13.5-6.83-21.55-22.11-19.11-35.84
			c-4.53-2.81-5.93-6.43-4.51-11.43c1.46-5.12,3.27-10.17,4.17-15.39c0.92-5.33,6.23-8.31,6.59-13.94c0.13-2.06,1.9-4.31,3.49-5.92
			c4.17-4.22,8.69-8.1,12.98-12.2C442.31,225.59,443.26,224.08,444.73,222.24z M426.36,355.11c3.02,2.13,5.84,5,9.26,6.29
			c3.94,1.49,8.68,2.84,12.57,1.98c6.16-1.36,11.94-4.52,17.81-7.09c7.02-3.08,14.07-5.58,21.95-4.18c0.86,0.15,2.24-0.64,2.84-1.41
			c2.78-3.64,5.37-7.42,8.53-11.87c-3.62-0.69-6.55-1.83-9.4-1.67c-8.58,0.49-17.13,1.58-25.71,2.23c-1.65,0.13-3.76-0.16-4.99-1.12
			c-2.24-1.73-4.03-1.94-5.23,0.63c-3.69,7.87-11.5,8.39-18.34,9.86C431.53,349.65,428.64,351.02,426.36,355.11z M506.56,323.05
			c4.83,1.86,8.75,2.32,11.05,4.48c4.33,4.07,9.03,4.97,14.52,4.56c1.77-0.13,3.63,0.39,5.4,0.8c3.28,0.75,5.83,0.76,6.45-3.59
			c0.46-3.18,1.68-6.24,2.43-9.38c0.75-3.18,1.33-6.39,2.07-9.98c-3.34-2.35-7.19-5.07-11.16-7.86
			c-5.81,8.2-13.01,13.76-22.26,16.66C512.47,319.56,510.14,321.21,506.56,323.05z M535.4,289.72c1.35-5.93,1.82-11.32,3.88-16
			c1.61-3.67,0.02-5.92-2.08-7.09c-2.06-1.15-5.88-1.51-7.55-0.3c-1.59,1.15-1.74,4.74-1.87,7.3c-0.08,1.46,1.82,3.07,1.65,4.46
			C528.79,283.07,531.58,286.09,535.4,289.72z M381.01,315.12c2.85,3.11,5.17,5.94,7.8,8.45c3.16,3.01,5.58-0.49,7.64-1.82
			c1.04-0.67,1.04-4.37,0.23-6.1c-1.06-2.27-3.13-4.32-5.24-5.76c-1.53-1.04-4.36-1.87-5.67-1.13
			C383.92,309.8,382.94,312.38,381.01,315.12z M492.89,392.01c3.89-3.96,7.1-7.23,10.68-10.88c-3.67-4.22-6.89-7.93-10.19-11.73
			C488.23,379.76,488.23,379.76,492.89,392.01z M577.15,301.71c-4.62,3.71-8.71,7-13.11,10.54c3.35,2.95,5.92,5.2,8.63,7.58
			C578.28,316.86,580.48,310.33,577.15,301.71z M466.75,183.66c8.38-2.67,11.33-5.43,11.22-10.93c-0.02-1.29-0.66-3.24-1.6-3.69
			c-1.25-0.6-3.33-0.54-4.59,0.12C466.34,172.03,464.63,177.3,466.75,183.66z M565.01,332.77c-1.4,0.54-2.7,1.31-4.08,1.52
			c-3.25,0.51-5.62,1.96-6.17,5.35c-0.53,3.25,0.45,6.1,3.86,7.04c1.87,0.51,4.06,0.27,6-0.12c0.63-0.13,1.37-1.83,1.33-2.78
			C565.82,340.25,565.38,336.72,565.01,332.77z M483.77,188.57c8.03,0.24,13.46-3.87,14.02-10.27c-2.46-0.4-4.91-0.79-7.45-1.2
			C488.44,180.43,486.25,184.25,483.77,188.57z M566.53,324.27c-3.48-2.5-6.01-4.3-8.54-6.11c-1.21,3.58-2.43,7.17-3.64,10.75
			c0.56,0.32,1.11,0.65,1.67,0.97C558.97,328.31,561.92,326.73,566.53,324.27z"/>
	</g>
</g>
</svg>
