<?xml version="1.0" encoding="utf-8"?>
<!-- Generator: Adobe Illustrator 26.2.1, SVG Export Plug-In . SVG Version: 6.00 Build 0)  -->
<svg version="1.1" id="Layer_1" xmlns="http://www.w3.org/2000/svg" xmlns:xlink="http://www.w3.org/1999/xlink" x="0px" y="0px"
	 viewBox="0 0 960 560" style="enable-background:new 0 0 960 560;" xml:space="preserve">
<g>
	<g>
		<path d="M489,406c-3.94-1.47-7.75-3.01-8.76-7.86c-0.17-0.8-1.63-1.99-2.37-1.91c-5.01,0.57-5.71-2.03-4.68-5.93
			c-13.67-10.17-18.67-34.6-8.14-39.29c-2.29-4.27,0.42-15.34,5.52-19.54c4.56-3.75,9.25-8.03,17.06-7.46
			c4.38-4.45,18.43-2.84,23.65,3.74c0.83,1.05,1.96,2.36,3.13,2.56c2.95,0.52,4.67,1.51,3.94,4.89c-0.15,0.69,0.29,1.66,0.75,2.3
			c8.16,11.35,7.47,25.65-1.76,35.09c-5.42,5.54-17.64,5.65-22.69-0.15c-1.42-1.64-1.59-4.37-2.34-6.59c0.45-0.2,0.91-0.4,1.36-0.6
			c2.05,0.96,4.02,2.39,6.16,2.74c2.2,0.36,5.42,1.38,4.73-3.54c-0.26-1.88,2.71-4.01,3.22-6.25c0.7-3.08,0.77-6.4,0.47-9.55
			c-0.1-1.09-2.07-2.05-3.26-2.98c-1.7-1.34-3.45-2.61-5.45-4.11c-1.11,0.3-3.38,0.92-5.65,1.5c-3.75,0.96-7.59,1.66-11.21,2.98
			c-1.04,0.38-1.32,2.58-2.14,3.83c-5.87,8.97-3.75,18.57,0.97,26.23c3,4.87,10.59,7.13,16.43,9.91c2.36,1.12,6.11,1.59,8.24,0.47
			c7.41-3.89,18-2.43,21.7-12.93c0.78-2.22,3.87-3.63,5.59-5.15c0.48-2.17,1.1-4.4,1.43-6.66c0.72-5,1.95-10.05,1.71-15.02
			c-0.24-4.89-2.15-9.68-3.06-14.56c-0.2-1.05,0.57-2.4,1.17-3.44c0.69-1.18,1.7-2.17,2.88-3.64c-3.11-0.39-5.87,0-7.61-1.15
			c-1.86-1.24-2.45-4.25-4.16-5.92c-1.99-1.94-4.59-3.24-6.91-4.86c-2.27-1.59-4.5-3.22-7.11-5.08c-8.11,2.02-9.57,1.37-12.98-6.92
			c-2.71,5.38-6.96,4.55-11.51,3.98c-11.77-1.47-17.9,7.14-24.74,14.41c-1.33,1.41-3.04,2.48-3.46,2.81
			c-3.45,5.31-6.26,9.64-9.53,14.68c-6.79-5.14-13.52-10.24-20.47-15.5c0.98-7.88,6.11-13.55,12.82-13.28
			c-0.81-4.57,2.08-6.32,5.57-8.53c3.97-2.51,7.23-6.32,10.38-9.92c5.58-6.4,12.36-10.54,20.72-11.89c1.48-0.24,3.14,0.58,4.1,0.78
			c3.26-0.41,6.07-1.06,8.88-1.06c8.59,0.01,17.31-0.57,25.7,0.79c3.9,0.63,7.49,4.88,10.58,8.11c1.93,2.01,2.65,5.18,3.96,7.92
			c6.09-2.08,10.71,1.61,14.04,5.71c4.24,5.21,7.55,11.3,10.43,17.41c1.04,2.2-0.32,5.53-0.58,8.36c0.8,3.81,1.74,7.86,2.46,11.93
			c0.99,5.56,1.81,11.16,2.72,16.73c0.68,4.16-0.31,7-5.36,6.47c2.41,7.11-1.37,12.65-4.36,18.08c-2.29,4.17-5.85,7.64-8.83,11.44
			c-3.05,3.89-9.99,6.43-13.66,4.47c0.33,6.96-4.18,7.65-9.49,7.93c-4.45,0.23-9.12,2.5-13.22,1.64c-3.94-0.83-6.77,0.38-10.01,1.39
			C493.67,406,491.33,406,489,406z"/>
		<path d="M495,156c-0.84,6.19-1.68,12.37-2.51,18.56c-0.81,6.02-0.71,12.36-2.7,17.95c-1.69,4.74,0.53,7.19,1.97,10.91
			c1.58,4.08,2.89,7.17,6.96,9.45c2.47,1.38,4.39,4.64,5.46,7.47c4.58,12.11,4.94,24.24-1.18,36.07c-0.18,0.35-0.78,0.49-1.69,1.03
			c-1.36-9.17-7.26-14.42-14.36-19.24c-2.8-1.9-3.84-6.42-5.66-9.76c-0.06-0.11,0.13-0.44,0.1-0.46c-5.72-2.9-4.05-7.65-3.32-12.33
			c0.17-1.07-0.77-2.69-1.69-3.49c-7.75-6.77-3.92-15.37-3.37-23.23c0.15-2.14,3.5-4.06,4.82-5.47c0.26-2.02-0.06-3.93,0.75-4.94
			c3.82-4.76,8.22-9.08,11.86-13.97c1.79-2.4,2.4-5.69,3.55-8.57C494.33,156,494.67,156,495,156z"/>
		<path d="M430.89,352.38c3.74-8.86,17.25-8.99,24.28-2.41c0.41,0.38,0.64,1.19,0.59,1.77c-0.7,8.05-3.12,15.08-10.16,20.14
			c-4.47,3.21-8.99,5.07-14.29,3.52c-2.7-0.79-5.11-2.55-8.79-4.46c-4.45,1.69-12.42-1.95-17.39-9.61
			c-4.96-7.63-10.99-15.02-7.47-25.2c-3.88-15.11,5.11-27.29,9.36-40.52c1.16-3.62,3.2-6.96,5.18-11.15
			c-5.68-3.53-4.08-9.87-4.29-16.14c-0.2-6.11-2.27-12.16-3.62-18.76c5.98,3.96,8.72,9.64,9.64,16.23c0.39,2.76,0.59,4.9,3.41,6.56
			c1.53,0.9,2.37,3.52,2.88,5.53c2.68,10.59,1.29,21.3-4.02,30.26c-3.6,6.07-5.78,12-6.9,18.63c-0.63,3.73-0.96,7.51-1.31,11.28
			c-0.07,0.74,0.12,1.88,0.62,2.25C415.44,345.38,419.28,355.71,430.89,352.38z"/>
		<path d="M441.28,186.95c5.33,7.48,6.5,16.01,6.2,24.57c-0.27,7.95-1.62,15.88-2.78,23.78c-1.37,9.32,2.48,17.63,4.33,26.38
			c1.58,7.45,7.23,14.03,5.01,22.27c-0.9,3.35-1.73,6.81-3.24,9.9c-1.87,3.81-10.31,3.29-12.42-0.88
			c-2.29-4.55-4.18-9.35-5.68-14.22c-0.68-2.22,0-4.85,0.02-7.29c0.01-1.11,0.35-2.61-0.22-3.27c-4.16-4.79-2.52-10.41-2.44-15.77
			c0.02-1.12,1.16-2.19,1.55-3.36c0.41-1.23,0.79-2.55,0.75-3.82c-0.12-3.34-1.33-6.88-0.59-9.97c2.85-11.95,6.56-23.7,9.36-35.67
			C442.08,195.59,441.28,191.17,441.28,186.95z"/>
		<path d="M553.82,212.52c-2.11,3.46-3.96,7.1-6.39,10.32c-4.02,5.34-4.56,11.28-3.51,17.45c1.31,7.72,4.41,14.58,10.99,19.41
			c4.24,3.11,5.45,7.64,6.19,12.59c0.95,6.44,2.92,12.77,3.44,19.23c0.23,2.85-1.35,6.55-3.39,8.61c-1.26,1.27-5.22,0.92-7.43,0
			c-6.42-2.67-10.11-7.17-11.36-14.74c-1.4-8.51-5.45-16.54-7.68-24.96c-2.32-8.76,0.24-17.37,3.06-25.55
			c1.49-4.31,4.96-7.95,7.59-11.86c2.47-3.68,5-7.32,7.51-10.98C553.17,212.2,553.5,212.36,553.82,212.52z"/>
		<path d="M524.51,178.88c-0.6,2.25-0.88,4.65-1.85,6.73c-4.21,9.07-5.47,17.74-1.68,27.79c4.12,10.94,6.36,22.68,8.45,34.25
			c0.99,5.48-0.25,11.37-0.48,17.08c-0.01,0.16-0.02,0.41-0.12,0.47c-5.02,2.94-6.77,10.32-14.63,9.66
			c-6.46-0.55-10.31-4.32-8.64-10.68c1.25-4.78,1.71-10.93,4.91-13.82c8.7-7.86,3.91-16.39,2.42-24.36
			c-2.88-15.46-0.49-29.72,6.79-43.37c0.86-1.61,2.29-2.93,3.45-4.38C523.59,178.44,524.05,178.66,524.51,178.88z"/>
		<path d="M460.38,201.3c0,6.91-0.75,13.93,0.27,20.68c0.67,4.42,3.8,8.51,6.04,12.63c1.24,2.28,2.79,4.44,4.48,6.42
			c0.74,0.87,2.14,1.33,3.32,1.64c1.42,0.38,3.15,0,4.37,0.65c9.49,5.07,17.68,11.5,21.19,22.26c1.45,4.44-1.85,8.12-6.62,7.66
			c-0.33-0.03-0.69-0.13-0.99-0.05c-10.63,3.01-15.99-2.76-20.2-11.45c-1.43-2.96-4.5-5.29-7.17-7.46
			c-10.68-8.69-14.06-19.88-11.37-33.01c1.41-6.87,3.5-13.6,5.29-20.4C459.45,201.01,459.92,201.16,460.38,201.3z"/>
	</g>
</g>
</svg>
