<?xml version="1.0" encoding="utf-8"?>
<!-- Generator: Adobe Illustrator 26.2.1, SVG Export Plug-In . SVG Version: 6.00 Build 0)  -->
<svg version="1.1" id="Layer_1" xmlns="http://www.w3.org/2000/svg" xmlns:xlink="http://www.w3.org/1999/xlink" x="0px" y="0px"
	 viewBox="0 0 960 560" style="enable-background:new 0 0 960 560;" xml:space="preserve">
<g>
	<g>
		<path d="M356,363c2.37-5.84,4.68-11.7,7.17-17.49c0.56-1.29,1.72-2.37,2.73-3.42c2.29-2.41,5.03-4.48,6.87-7.19
			c1.72-2.54,2.51-5.72,3.71-8.62c-0.5-0.29-1.01-0.58-1.51-0.87c1.7-0.96,3.46-1.85,5.1-2.9c1.81-1.16,4.25-2.1,5.15-3.8
			c4.72-8.92,14.33-12.61,20.65-19.81c1.62-1.85,4.47-2.69,6.86-3.8c5.23-2.43,10.52-4.72,14.94-6.69
			c-1.98-7.88-4.02-14.49-5.11-21.26c-0.33-2.05,2-4.52,3.14-6.84c-4.45-3.14-3.31-7.93-3.01-12.28c0.16-2.4,1.57-4.69,2.26-7.07
			c1.28-4.44,0.84-8.1-3.2-11.46c-8.08-6.72-13.04-15.8-17.19-25.31c-0.25-0.56-0.28-1.22-0.37-1.85c-0.02-0.12,0.18-0.26,0.84-1.15
			c6.21,10.55,15.48,17.15,26.15,22.61c2.7-7.95,6.57-13.42,15.66-13.06c-2.64-4.38-0.59-6.58,2.45-9.91
			c7.23-7.9,16.52-10.83,26.11-13.64c0.31-0.09,0.68,0.03,0.99-0.06c2.52-0.68,5.41-2.48,7.45-1.78c2.32,0.79,3.87,3.81,4.75,4.77
			c2.84-1.52,5.23-3.17,7.88-4.14c12.43-4.54,22.32,0.26,31.16,8.78c3,2.88,6.32,5.43,9.29,8.34c4.97,4.87,4.66,11.07-0.63,15.61
			c-5.85,5.02-12.82,7.6-20.28,8.94c-4.03,0.72-10.12-3.4-11.47-7.84c-0.95-3.14-1.35-6.45-2.31-11.25
			c-2.56,1.87-4.55,3.62-6.81,4.87c-1.48,0.82-3.36,1.28-5.05,1.25c-2.54-0.04-5.3-1.45-7.56-0.83c-4.34,1.19-7.74,1.49-9.33-5.16
			c-2.24,5.19-4.9,6.89-9.23,7.75c-3.83,0.77-7.08,4.48-10.57,6.92c-0.4,0.28-0.72,0.69-1.06,1.05c-1.51,1.63-3.01,3.26-4.51,4.89
			c2.29,1.5,4.39,3.65,6.9,4.38c6.35,1.84,12.86,3.14,19.35,4.42c1.91,0.38,4.15,0.44,5.94-0.19c4.65-1.64,8.1-1.17,11.08,3.3
			c2.09,3.13,5.27,1.44,6.58-0.9c2.61-4.65,7.19-5.11,11.11-4.91c10.51,0.55,17.56-6.22,25.66-10.81
			c5.26-2.99,10.07-7.11,15.66-9.06c6.31-2.19,15.09,4.21,17.87,11.57c4.49,11.88,0.77,26.28-9.81,33.45
			c-5.43,3.68-12.26,3.64-18.94,1.25c-0.86,5.6-1.7,11.12-2.69,17.57c5.33,0.97,10.33,1.83,15.31,2.8c2.08,0.41,4.66,0.43,6.08,1.68
			c3.6,3.16,6.69,6.1,12.26,5.85c1.95-0.09,4.12,4.19,6.13,6.53c0.74,0.87,1.09,2.2,1.96,2.82c9.92,7.01,16.02,17.26,22.37,27.11
			c2.74,4.26,3.44,9.83,5.07,14.81c0,2.67,0,5.33,0,8c-1.41,5.09-3.5,9.59-9.13,11.34c-0.82,0.26-1.42,1.34-2.05,2.1
			c-3.87,4.68-9.68,6.35-15.19,3.58c-4.27-2.14-8.2-5-12.08-7.83c-1.39-1.01-3.33-3.14-3.05-4.27c1.69-6.81-4.13-8.21-7.53-11.42
			c-1.68-1.58-3.17-3.39-4.58-5.22c-4.82-6.25-6.04-15.39-14.87-17.5c0.91-2.93,1.55-4.98,2.2-7.04c-6.36,4.34-7.73,4.54-20.35-5.17
			c-4.87,1.61-9.98,2.42-14.11,4.89c-4.72,2.83-8.82,4.46-13.76,1.19c-0.51-0.33-1.64-0.62-1.83-0.39c-3.34,4.07-8,2.63-12.14,2.81
			c-11.76,0.51-23.38-0.06-32.21-9.43c-3-3.19-6.13-3.53-9.84-1.89c-2.42,1.07-4.84,3.1-7.25,3.08c-7.08-0.07-11.66,4.46-15.73,8.73
			c-5.33,5.6-10.5,10.34-16.68,9.75c-3.67,3.99-6.08,7.03-8.91,9.62c-10.7,9.79-20.17,20.48-26.54,33.7
			c-0.58,1.21-2.87,1.6-4.36,2.37C356,369,356,366,356,363z M534.84,264.26c-5.93,0.56-10.65,1.3-15.37,1.38
			c-7.27,0.12-14.59,0.2-21.81-0.48c-6.2-0.59-12.3-2.21-18.41-3.52c-3.19-0.69-6.26-2.12-9.46-2.49
			c-7.5-0.89-14.78-2.21-21.32-6.31c-1.45-0.91-3.13-1.44-4.11-1.88c-1.18,5.17-2.28,9.79-3.24,14.44c-0.19,0.92-0.05,2.05,0.3,2.93
			c1.51,3.76,3.17,7.46,4.9,11.48c0.13-0.02,0.76-0.13,1.39-0.19c8.16-0.81,16.32-2.11,24.49-2.21c4.2-0.05,8.76,4.46,11.93-1.91
			c0.14-0.28,0.92-0.33,1.41-0.32c8.88,0.17,17.75,0.24,26.62,0.59c4.64,0.19,9.26,0.98,13.9,1.27c1.12,0.07,2.92-0.42,3.35-1.22
			C531.43,272.02,533.1,268.04,534.84,264.26z M458.66,298.7c7.22,6.4,36.44,7.67,43.88,2.36
			C488.42,294.5,474.06,292.36,458.66,298.7z"/>
		<path d="M451.38,336.11c7.4,2.58,7.08,8.64,7.77,14.39c0.87,7.31,2.11,14.57,3.25,22.21c-0.82-0.09-1.89,0.11-2.24-0.29
			c-4.97-5.75-9.85-11.59-14.75-17.41c2.14-6.3-5.33-7.64-6.38-12.42c-1.06-4.83-3.02-9.46-4.03-14.29
			c-0.73-3.49-1.34-7.4-0.43-10.69c0.44-1.58,4.6-3.22,6.91-3.01c11.76,1.09,15.1,5.98,11.4,18.7
			C452.64,334.06,452.12,334.73,451.38,336.11z"/>
		<path d="M416.82,355.35c-4.97-0.14-9.38-4.55-11.63-11.63c-0.9-2.83-1.38-5.88-2.78-8.43c-2.46-4.47-0.01-7.75,3.21-8.83
			c3.57-1.19,8.6-1.45,11.64,0.28c2.49,1.42,3.37,6.24,4.22,9.74c0.5,2.06-0.46,4.47-0.84,7.24c4.96-1.09,6.6,1.76,7.52,5.16
			c2.69,10.03,11.01,15.94,17.11,23.46c1.19,1.47,3.45,2.09,5,3.44C437.41,376.59,419.28,365.2,416.82,355.35z"/>
		<path d="M507.83,371.59c2.95-5.45,5.93-10.89,8.84-16.36c0.6-1.12,0.86-2.43,1.47-3.54c1.02-1.86,1.85-4.06,3.4-5.35
			c2.47-2.05,3.48-3.41,0.18-5.55c-3.69-2.39-4.08-5.52-1.49-9.19c0.67-0.95,1.41-1.86,1.94-2.88c2.32-4.47,5.81-5.93,10.73-4.78
			c4.97,1.17,8.17,4.19,10.08,8.71c0.43,1.01,0.73,2.73,0.19,3.39c-6.57,8.05-7.02,19.9-16.31,26.24
			c-4.38,2.99-8.65,6.13-13.11,8.99c-1.41,0.9-3.27,1.08-4.93,1.59C508.49,372.44,508.16,372.01,507.83,371.59z"/>
		<path d="M503.88,346.55c-0.41,2.84,0.16,6.51-1.41,8.36c-5.11,6.02-11,11.38-16.64,16.94c-0.27,0.27-0.95,0.11-1.87,0.2
			c0.14-1.2,0.01-2.37,0.42-3.3c3.48-7.84,4.22-15.91,2.39-24.27c-0.28-1.26-0.47-2.69-0.14-3.89c1.6-5.91,3.1-11.88,5.3-17.57
			c0.68-1.77,3.42-3.85,5.23-3.86c3.5-0.01,8.01-0.88,9.62,4.13c0.66,2.04,1.55,4.01,2.13,6.07c1.93,6.92-0.5,12.29-6.41,16.34
			C502.95,345.98,503.42,346.27,503.88,346.55z"/>
	</g>
</g>
</svg>
