<?xml version="1.0" encoding="utf-8"?>
<!-- Generator: Adobe Illustrator 26.2.1, SVG Export Plug-In . SVG Version: 6.00 Build 0)  -->
<svg version="1.1" id="Layer_1" xmlns="http://www.w3.org/2000/svg" xmlns:xlink="http://www.w3.org/1999/xlink" x="0px" y="0px"
	 viewBox="0 0 960 560" style="enable-background:new 0 0 960 560;" xml:space="preserve">
<g>
	<g>
		<path d="M606,272c-7.06,1.1-14.2,1.87-21.17,3.38c-8.98,1.94-17.86,4.4-26.74,6.78c-1.54,0.41-3.29,1.19-4.28,2.36
			c-4.13,4.86-7.93,10.01-12.03,14.9c-1.87,2.23-3.98,4.35-6.3,6.11c-2.99,2.26-6.29,4.11-9.46,6.14
			c5.43,8.9,10.73,17.57,16.02,26.24c-0.36,0.25-0.72,0.49-1.08,0.74c-4.57-4.34-9.13-8.69-13.72-13.02
			c-1.94-1.83-3.78-3.8-5.91-5.37c-5.66-4.14-9.68-3.13-13.07,3.04c-0.61,1.12-1.19,2.25-1.62,3.07c2.02,3.8,3.91,7.36,5.8,10.92
			c-0.26,0.17-0.51,0.34-0.77,0.51c-2.34-2.28-4.42-4.94-7.1-6.69c-1.55-1.01-4.47-1.41-6.05-0.62c-5.28,2.64-10.23,5.93-15.21,8.91
			c1.32,2.81,2.48,5.28,4,8.48c-7.59-5.36-7.59-5.36-14.71-0.01c1.53-3.31,2.58-5.6,3.87-8.4c-4.96-2.96-10.03-6.33-15.44-8.98
			c-1.51-0.74-4.43,0.05-6.04,1.14c-2.6,1.75-4.64,4.32-7.69,5.89c1.95-3.54,3.9-7.09,5.88-10.68c-6.37-12.21-9.72-10.8-18.22-3.14
			c-5.65,5.1-11.07,10.46-16.59,15.71c-0.38-0.22-0.76-0.45-1.14-0.67c5.3-8.59,10.61-17.17,16.67-26.99
			c-4.69,2.34-8.63,3.6-11.7,5.98c-6.8,5.28-13.11,11.2-19.79,16.64c-0.81,0.66-3.13,0.49-4.08-0.21c-4.77-3.51-9.25-7.42-14-10.95
			c-0.97-0.72-2.8-0.79-4.08-0.51c-6.96,1.55-13.87,3.33-20.81,4.97c-1.1,0.26-2.28,0.23-3.42,0.33c0-0.67,0-1.33,0-2
			c7.22-3.77,14.9-6.89,21.54-11.5c7.39-5.13,13.74-11.72,20.76-17.41c1.17-0.94,3.45-0.51,5.17-0.7c-0.23,0.78-0.98,2.06-0.66,2.44
			c3.8,4.57,8.62,5.58,15.66,3.07c-8.74-15.47-21.67-25.23-38.69-30.05c0.23-0.44,0.45-0.89,0.68-1.33
			c2.43,0.68,4.83,1.45,7.28,2.02c14.81,3.46,27.07,11.61,38.58,21.07c2.43,2,4.51,2.79,7.59,1.36c3.75-1.74,7.77-2.92,11.86-4.42
			c-3.19-6.16-8.3-10.27-14.18-13.54c-3.89-2.16-6.39-5.13-8.58-9.18c-1.77-3.28-5.98-5.54-9.51-7.51
			c-7.01-3.9-14.31-7.29-21.91-11.1c10.32-1.03,19.78,0.27,28.55,5.69c3.25,2.01,6.63,3.9,10.17,5.29c6.11,2.4,10.29,6.8,14.3,11.73
			c1.79,2.21,4.6,3.73,7.19,5.11c2.3,1.22,4.93,1.81,7.88,2.84c2.33-2.12,5.01-4.55,7.57-6.87c-7.71-15.45-22.07-24.62-33.17-36.83
			c1.06,0.32,2.36,0.53,3.51,1.08c9.86,4.69,19.73,9.37,29.51,14.22c1.89,0.94,3.44,2.58,5.14,3.9c7.48,5.81,8.31,5.54,15.69-0.02
			c3.65-2.75,7.69-5.05,11.74-7.2c6.43-3.41,13.01-6.55,19.54-9.77c1.88-0.93,3.81-1.76,5.71-2.64c0.27,0.37,0.54,0.74,0.82,1.11
			c-8.94,8.62-18.04,17.09-26.73,25.97c-2.57,2.63-3.99,6.39-6.03,9.79c4.75,5.56,8.63,6.05,14.92,1.52
			c0.27-0.19,0.59-0.49,0.86-0.46c5.53,0.55,7.71-4.24,11.04-7.05c10.91-9.23,23.29-15.49,37.2-18.56c3.14-0.69,6.57-0.1,10.64-0.1
			c-0.85,1.02-1.11,1.6-1.56,1.84c-9.22,4.88-18.53,9.6-27.64,14.69c-1.53,0.85-2.19,3.27-3.66,5.62c24.46,0.31,47.84,0.6,71.22,0.9
			C606,271.33,606,271.67,606,272z M466.1,324.78c4.8,4.44,9.25,8.55,15.02,13.89c4.31-5.35,8.11-10.07,11.91-14.78
			C479.09,311.41,480.16,312.41,466.1,324.78z M419.81,316.75c-3.65,0.3-5.92,0.24-8.07,0.71c-3.45,0.75-6.78,2.32-10.26,2.67
			c-4.67,0.47-9.42,0.12-14.13,0.12c-0.01,0.46-0.02,0.91-0.03,1.37c4.28,3.39,8.56,6.79,13.15,10.42
			C406.31,327.42,412.46,322.56,419.81,316.75z M508.64,309.9c-2.69-2.13-5.6-4.44-9.48-7.52c-2.75,3.01-5.92,6.48-9.27,10.15
			c3.32,2.64,6.38,5.07,9.67,7.68C502.63,316.73,505.54,313.42,508.64,309.9z M460.43,320.54c3.56-3,6.52-5.49,10.13-8.53
			c-2.69-2.38-4.97-4.56-7.43-6.5c-0.94-0.74-2.7-1.66-3.39-1.27c-3.06,1.76-5.87,3.95-8.59,5.87
			C454.42,313.79,457.34,317.07,460.43,320.54z M518.98,305.13c4.49-4.02,8.71-7.8,12.93-11.58c-0.13-0.31-0.26-0.62-0.39-0.93
			c-5.99,0.64-11.97,1.28-18.34,1.96C515.24,298.33,516.95,301.43,518.98,305.13z M400.67,299.62c-5.67,4.47-11,8.67-16.32,12.86
			c0.1,0.2,0.21,0.41,0.31,0.61c7-2.87,14.01-5.73,21.47-8.78C404.01,302.49,402.18,300.92,400.67,299.62z"/>
		<path d="M459.01,236.16c-2.78-0.44-2.57-1.47-0.69-3.05c6.69-5.62,13.29-11.34,20.06-16.86c0.68-0.55,2.65-0.42,3.41,0.18
			c6.23,4.93,12.26,10.12,18.49,15.05c1.62,1.28,3.75,1.9,5.4,2.71c-6.69,5.16-13.81,10.62-20.9,16.12
			c-0.95,0.74-1.61,1.94-2.64,2.45c-1.21,0.6-3.26,1.39-3.93,0.85c-5.53-4.49-10.85-9.24-16.17-13.98c-1.2-1.07-2.15-2.42-3.21-3.65
			c7.31,4.65,14.61,9.31,22.22,14.15c6.06-4.78,13.03-10.26,19.88-15.65c-6.98-5.41-14-10.85-20.24-15.68
			c-6.62,4.78-12.86,9.19-18.98,13.77C460.57,233.44,459.9,234.95,459.01,236.16z"/>
		<path d="M532.58,314.23c6.82-5.99,13.6-12.03,20.54-17.88c0.58-0.49,2.45-0.05,3.32,0.55c3.71,2.52,7.28,5.24,10.88,7.92
			c1.31,0.98,2.61,1.99,3.82,3.08c2.78,2.52,5.5,5.1,7.83,7.28c-8.06,6.25-16.9,13.1-24.78,19.21c-4.55-3.68-8.29-6.67-12-9.7
			c-3.47-2.83-6.92-5.67-10.29-8.61c-0.17-0.15,0.53-1.27,0.83-1.96c7.33,5.6,14.65,11.21,21.94,16.79
			c6.65-5.26,13.48-10.67,20.33-16.08c-7.02-5.47-13.96-10.89-19.56-15.25C547.27,304.81,539.92,309.52,532.58,314.23z"/>
		<path d="M486.25,233.81c-3.36,2.65-5.13,4.04-7.7,6.07c-1.39-1.88-3.19-3.7-4.1-5.9c-0.29-0.7,2.02-3.55,2.76-3.41
			C480.01,231.09,482.66,232.44,486.25,233.81z"/>
		<path d="M553.31,309.71c3.2,2.11,5.27,3.46,8.16,5.37c-2.64,1.28-4.97,2.98-7.49,3.34c-0.96,0.14-3.26-2.73-3.32-4.3
			C550.58,312.54,552.54,310.88,553.31,309.71z"/>
	</g>
</g>
</svg>
