<?xml version="1.0" encoding="utf-8"?>
<!-- Generator: Adobe Illustrator 26.2.1, SVG Export Plug-In . SVG Version: 6.00 Build 0)  -->
<svg version="1.1" id="Layer_1" xmlns="http://www.w3.org/2000/svg" xmlns:xlink="http://www.w3.org/1999/xlink" x="0px" y="0px"
	 viewBox="0 0 960 560" style="enable-background:new 0 0 960 560;" xml:space="preserve">
<g>
	<g>
		<path d="M547,156c-0.32,1.84-0.22,3.89-1.02,5.5c-4.79,9.69-9.69,19.32-14.79,28.85c-0.9,1.69-2.89,2.8-4.86,4.63
			c0.76,3.33-1.13,5.98-4.71,7.91c-1.01,0.54-1.68,1.97-2.21,3.12c-1.84,3.95-3.37,8.06-5.35,11.94
			c-3.47,6.77-7.38,13.32-10.73,20.15c-2.07,4.22-4.89,6.88-9.56,7.82c-3.85,0.78-7.6,2.04-11.67,3.16
			c7.58,7.2,0.15,15.74,3.05,23.3c-2.26,0.95-4.2,1.77-7.03,2.97c7.69,4.05,3.89,10.13,3.88,15.51c-0.01,3.58,0.43,7.23-0.21,10.7
			c-0.36,1.98-2.46,3.64-3.63,5.24c0.38,1.13,1.53,2.82,1.41,4.43c-0.6,8.57-1.51,17.11-2.34,25.67
			c-1.74,18.08-3.48,36.17-5.25,54.25c-0.06,0.57-0.35,1.12-1.63,1.68c-0.41-5.27-0.73-10.54-1.26-15.8
			c-1.29-12.71-2.68-25.41-4.04-38.12c-0.02-0.17-0.1-0.35-0.06-0.49c2.9-9.28-3.19-17.92-1.87-27.02c0.25-1.75,1.99-3.28,3.62-5.81
			c-1.85-3.14-5.06-7.42-2.34-10.81c-1.5-4.07-3.11-6.76-3.39-9.59c-0.49-4.93-0.45-9.97,0-14.9c0.13-1.45,2.38-2.7,4.1-4.51
			c-5.8-4.21-3.94-10.86-4.14-17.13c-0.04-1.38-1.21-2.85-2.15-4.05c-4.09-5.22-9.37-9.14-10.61-16.82
			c-0.89-5.56-5.69-10.5-8.76-15.71c-0.16-0.28-0.68-0.48-0.67-0.7c0.2-4.23-0.72-6.8-5.5-8.85c-3.3-1.41-4.89-6.81-7.24-10.43
			c-0.36-0.56-0.97-1.09-1.04-1.69c-1.28-11.52-10.85-19.25-13.67-30.04c-0.12-0.44-0.01-0.94-0.01-3.12
			c9.95,9.37,18.91,17.74,22.73,30.34c3.51-0.49,9.93,4.96,9.51,8.84c-0.28,2.58-0.78,3.55,2.86,4.37c2.67,0.6,5.36,5.01,6.33,8.23
			c0.96,3.18,2.24,3.47,4.75,3.22c0.73-14.58,13.4-22.37,25.19-15.66c3.68,2.09,7.47,9.2,5.9,12.8c-0.98,2.25-3.89,3.66-6.24,5.72
			c7.32-0.01,6.8,4.97,5.71,10.4c6.27-3.31,7.13-11.63,14.66-12.74c-0.35-3.4,0.77-5.38,4.61-6.08c1.79-0.33,4.08-2.74,4.55-4.6
			c1.46-5.84,5.78-12.17,10.8-15.48c1.37-0.9,1.41-3.58,2.57-5.04c6.82-8.58,13.79-17.04,20.72-25.54C546.33,156,546.67,156,547,156
			z"/>
		<path d="M447,406c-1.64-10.62-3.48-21.21-4.86-31.87c-0.85-6.56-1-13.22-1.48-19.99c-1.73-0.12-3.33-0.23-4.49-0.31
			c-8.04,16.58-20.73,29.56-30.5,44.6c-0.42-0.26-0.84-0.51-1.26-0.77c3.51-8.45,6.38-17.26,10.73-25.25
			c4.14-7.61,6.15-16.56,12.59-22.77c0.78-2.02,1.44-4.09,2.37-6.04c1.15-2.39,2.3-4.85,3.86-6.97c4.24-5.78,2.18-11.9,1.19-18.76
			c-4.39,5.53-8.45,10.64-13.63,17.17c-1.89,5.86-6.46,11.99-13.64,16.23c-1.06,0.62-1.67,1.99-2.49,3.02
			c-6.53,8.16-13.06,16.32-19.62,24.46c-0.15,0.19-0.61,0.13-1.83,0.36c0.46-1.61,0.62-2.95,1.2-4.06
			c5.65-10.74,10.63-21.95,17.46-31.88c2.53-3.68,3.75-7.39,5.59-11.1c1.29-2.6,3.54-4.73,4.51-5.99c2.28-5.6,4.12-10.15,6.04-14.87
			c-14.28-2.56-21.49-12.87-26.8-25c-0.65-1.48,0.05-3.94,0.86-5.6c1.57-3.24,0.4-4.93-2.67-5.22c-3.5-0.33-4.53-2.37-4.69-5.3
			c-0.22-3.97-0.75-8-0.31-11.92c0.32-2.86,2.02-5.57,3.05-8.36c1.55-4.22,4.72-1.46,7.4-0.8c0.06-0.4,0.11-0.8,0.17-1.2
			c-1.33-1.52-2.65-3.03-3.93-4.5c4.3-7.67,10.44-11.64,15.59-10.19c9.57,2.7,14.38,8.09,13.97,15.64c-0.32,5.91-2.54,8.57-7.29,9.5
			c-0.76,2.45-1.39,4.56-2.08,6.64c-0.83,2.49-2.41,4.96-2.43,7.45c-0.02,3.3,0.35,6.02-4.13,6.02c-0.47,0-1.33,1.09-1.3,1.65
			c0.03,0.64,0.72,1.58,1.33,1.8c1.21,0.42,2.56,0.43,4.09,0.65c0.67,5.07,1.32,9.99,1.98,15.01c1.77,1.25,4.35,3.01,6.84,4.87
			c2.58,1.92,4.45,2.89,6.61-0.98c2.79-5.02,6.49-9.53,9.74-14.29c0.39-0.58,0.71-1.38,0.66-2.06c-0.33-4.55,1.89-7.21,6.1-8.33
			c4.69-1.25,8.97-0.26,11,4.34c1.26,2.85,1.78,6.5,1.24,9.55c-0.97,5.45-3.24,10.66-4.47,16.08c-0.61,2.66-0.11,5.58-0.11,8.38
			c4.02,1.01,8.2,0.97,9.83,6.21c2.08,6.69,2.83,13.1-3.11,17.77c-4.25,3.34-5.01,7.16-5.12,12.02
			c-0.42,18.33-1.12,36.65-1.72,54.98C448.33,406,447.67,406,447,406z"/>
		<path d="M565.84,380.99c-8.39-4.76-18.38-6.72-24.24-15.04c-1.41-0.53-3.04-0.98-4.51-1.74c-4.31-2.23-8.8-4.25-12.73-7.04
			c-1.75-1.24-2.34-4.11-3.69-6.69c-5.71,3.34-7.95-4.33-13.52-5.44c-0.85,6.88-1.69,13.63-2.66,21.45
			c2.03,1.62,0.98,4.51-0.01,8.17c-1.85,6.84-2.47,14.01-3.6,21.04c-0.22,1.37-0.41,2.74-0.61,4.11c-0.47,0.02-0.95,0.03-1.42,0.05
			c-0.27-1.97-0.53-3.94-0.82-5.9c-0.57-3.78-1.28-7.54-1.71-11.34c-0.96-8.47-3.63-17.31-2.11-25.34
			c1.3-6.89-2.81-12.92-0.54-19.41c0.27-0.77-1.81-2.24-2.58-3.51c-2.34-3.84-5.47-7.51-6.57-11.7c-1.02-3.86,0.19-8.31,6.14-7.97
			c0.68-6.31-3.89-12.47,1.04-17.96c-3.99-3.02-4.41-9.28-1.3-16.11c1.76-3.87,4.55-5.64,8.79-4.51c1.06,0.28,2.57,0.7,2.92,1.48
			c1.94,4.39,4.92,6.76,9.83,7.79c4.11,0.87,9.16,10.65,8.6,13.4c3.49,2.55,6.64,4.85,9.75,7.12c3.21-3.33,6.41-6.65,9.26-9.6
			c0.23-4.36,0.48-9.01,0.75-14.05c2.33,0.19,3.86,0.31,5.28,0.42c-1.87-5.35-3.7-10.56-5.96-17.01c0.14-0.06,1.23-0.28,1.87-0.94
			c0.7-0.73,1.55-2.08,1.29-2.76c-0.32-0.82-1.66-1.48-2.68-1.74c-5.42-1.36-9.87-7.96-8.07-13.17c2.69-7.79,6.89-12.17,13.98-9.95
			c2.22,0.69,4.42,1.45,6.66,2.06c7.99,2.18,10.35,6.15,8.43,14.09c-0.22,0.89-0.25,2.13,0.2,2.84c4.75,7.5,4.79,7.48-0.19,13.49
			c4.16,6.32-2.56,23.16-10.34,26.5c0.13,9.24-9.35,11.33-12.92,18.85c1.37,1.77,3.19,4.25,5.14,6.62
			c3.04,3.69,8.16,6.12,7.02,12.29c-0.1,0.55,1.39,1.51,2.27,2.09c1.82,1.2,4.26,1.85,5.5,3.46c6.1,7.9,11.92,16.02,17.76,24.12
			c0.98,1.35,1.59,2.97,2.37,4.47c-0.48,0.38-0.95,0.76-1.43,1.14c-6.62-6.34-13.7-12.28-19.66-19.19
			c-3.07-3.57-6.79-5.61-10.34-8.23c-2.62-1.93-4.91-4.32-7.34-6.5c0.27-0.4,0.54-0.8,0.81-1.2c-0.96-0.05-2.43,0.28-2.79-0.21
			c-4.5-6.15-11.41-5.24-18.14-5.56c2.26-3.73,4.09-6.76,5.93-9.79c-0.16-0.4-0.32-0.79-0.48-1.19c-7.72,2.06-8.55-5.54-13.2-8.6
			c-0.36,1.57-0.66,2.89-1.03,4.56c-1.48-0.4-2.77-0.76-4.31-1.18c0.55,1.79,1.54,3.27,1.28,4.5c-1.26,6.09,3.13,9,6.58,12.48
			c2.72,2.74,5.41,5.5,8.12,8.25c0.34,0.34,0.77,0.94,1.09,0.9c5.54-0.79,7.11,4.15,10,7.03c2.06,2.05,3.6,4.61,5.72,7.39
			c4.19-2.21,5.83,2.22,8.32,5.17c5.98,7.1,12.03,14.14,18,21.24C565.45,379.52,565.57,380.32,565.84,380.99z"/>
		<path d="M537.73,227.42c-1.45,4.56-1.95,8.16-3.65,11.04c-2.93,4.96-6.01,10.13-10.16,14c-3.88,3.62-6.33,8.14-9.78,11.93
			c-2.32,2.55-5.17,4.11-8.36,1.88c-3.14-2.19-7.5-4.23-5.55-9.3c2.01-5.2,3.82-10.67,10.81-11.79c1.37-0.22,2.23-3.69,2.84-5.96
			c2.5-1.36,4.68-2.12,5.08-6.53c0.34-3.8,4.32-7.27,6.7-10.88c0.09-0.14,0.18-0.39,0.28-0.4c7.8-0.43,6.61-9.02,11.21-12.35
			c1.69-1.23,3.35-2.52,5.38-4.05c-2.41-4.69,2.08-7.04,4.36-10.16c5.69-7.78,11.68-15.34,17.47-23.05c1.1-1.46,1.83-3.21,2.74-4.82
			c0.68,0.57,1.36,1.15,2.04,1.72c-0.45,1.12-0.84,2.27-1.35,3.36c-4.19,8.84-8.29,17.74-12.66,26.5
			c-4.41,8.86-8.99,17.64-13.78,26.3C540.52,226.37,538.26,227.07,537.73,227.42z"/>
		<path d="M426.99,246.15c1.54-1.75,2.79-3.16,4.29-4.87c-10.63-2.35-11.36-12.91-17.29-18.8c-0.8-0.8,0.82-4.03,1.21-5.67
			c-9.37-5.56-10.67-15.64-14.47-24.23c-2.17-4.9-4.79-9.6-7.17-14.41c-1.57-3.18-3.07-6.38-3.82-10.06
			c8.41,7.05,18.05,13.13,18.46,26.35c4.33-2.51,6.02,0.41,7.44,3.83c1.59,3.81,4.03,6.97,4.94,11.46
			c0.84,4.13,6.55,7.07,9.43,11.03c5.93,8.15,11.75,16.42,16.94,25.05c2.78,4.63,1.32,8.65-2.34,10.81c-4.4,2.6-9.19,1.85-12.43-2.3
			C430.26,251.87,428.8,249.04,426.99,246.15z"/>
	</g>
</g>
</svg>
