<?xml version="1.0" encoding="utf-8"?>
<!-- Generator: Adobe Illustrator 26.2.1, SVG Export Plug-In . SVG Version: 6.00 Build 0)  -->
<svg version="1.1" id="Layer_1" xmlns="http://www.w3.org/2000/svg" xmlns:xlink="http://www.w3.org/1999/xlink" x="0px" y="0px"
	 viewBox="0 0 960 560" style="enable-background:new 0 0 960 560;" xml:space="preserve">
<g>
	<g>
		<path d="M501,156c-2.19,2.77-4.09,5.86-6.64,8.25c-5.53,5.18-10.86,10.16-10.78,18.71c0.02,2.3-2.11,4.62-3.54,7.5
			c2.89,3.58-1.2,7.41-2.08,11.48c-0.87,4.01-2.39,7.88-3.66,11.91c1.64-0.19,3.97-0.45,6.29-0.72c1.4,9.65,1.4,9.65,11.33,15.12
			c-0.36,1.73-0.73,3.51-1.1,5.29c0.24,0.5,0.48,1,0.72,1.49c5.69-8.49,12.22-4.81,18.57-2.57c10.45,3.68,13.66,7.22,12.9,12.61
			c4.41,2.19,9.5,3.33,12.33,6.49c3.1,3.46,4.58,8.67,5.78,13.37c0.34,1.33-2.75,3.54-4.48,5.59c9.35,4.24,3.44,12.32,4.02,18.98
			c0.13,1.44-0.54,2.93-0.57,4.41c-0.12,7.33-1.86,8.82-9.09,7.63c-0.65-0.11-1.31-0.15-2.54-0.28c0.69,1.54,1.16,2.83,1.83,4.01
			c0.64,1.14,1.48,2.17,1.86,2.71c-3.04,5.14-5.84,9.91-8.68,14.65c-0.42,0.7-1.03,1.79-1.59,1.82
			c-8.59,0.35-11.64,9.16-18.65,12.02c-10.38,4.25-20.37,10.23-31.98,9.47c-3.92-0.26-7.63-3.67-11.38-5.62
			c-1.71,0.27-4.07,1.18-6.27,0.88c-14.16-1.94-24.22-10.44-32.11-21.56c-1.52-2.14-0.22-6.27-0.22-9.94
			c-1.22,0.22-2.89,0.51-5.12,0.91c-3.08-7.12-6.73-14.18-5.28-22.56c0.28-1.64,0.68-3.26,0.95-4.9c1.18-7.26,1.17-7.26,7.11-11.19
			c-6.07-1.45-5.52-5.95-4.66-10.06c1.18-5.66,5.19-9.51,10.48-11.1c7.93-2.39,15.93-1.22,23.14,2.67
			c7.68,4.15,11.29,18.45,6.88,26.23c-0.75,1.32-3,2.05-4.7,2.5c-1.3,0.34-2.83-0.21-4.83-0.43c1.24,1.62,2.18,2.57,2.79,3.7
			c1.52,2.78,1.64,5.03-2.28,5.91c-2.09,0.47-4.15,1.31-6.04,2.31c-0.96,0.51-1.53,1.76-2.15,2.52c3.79,0.78,7.44,0.62,9.84,2.28
			c2.71,1.87,4.28,5.38,6.37,8.19c-2.67,4.11-5.45,8.27-8.05,12.55c-0.23,0.37,0.68,1.44,0.79,1.65c3.89-2.38,6.85-4.45,10.05-6.04
			c1.29-0.64,3.22-0.65,4.66-0.25c4.68,1.3,9.28,2.93,14.59,4.65c0.49,1.4,1.34,3.83,2.19,6.27c0.38-0.01,0.76-0.01,1.14-0.02
			c0.5-2.92,0.86-5.88,1.54-8.76c0.83-3.49,2.3-5.23,5.72-1.9c1.22,1.19,3.23,1.56,6.34,2.96c-0.39-3.74-0.89-6.46-0.87-9.18
			c0.01-1.69,0.44-3.6,1.32-5c1.4-2.23,3.24-4.22,5.08-6.14c2.71-2.82,3.3-8.1,9.08-7.58c1.01,0.09,2.22-2.18,3.77-3.81
			c-5.36-2.12-4.44-5.94-3.8-9.97c0.48-3.01,0.09-6.16,0.09-9.3c2.09-0.4,4.46-0.85,7.94-1.51c-5.93-2.67-10.51-4.81-15.15-6.8
			c-4.73-2.03-9.61-3.84-8.08-9.41c-4.89-0.26-9.36,0.08-13.52-0.88c-4.7-1.08-8.2-4.27-9.22-9.33c-7.55,1.28-9.69,0.04-13.74-7.77
			c-3.56-6.85-3.05-13.47,1.38-17.92c0.93-0.93,1.91-1.82,3.54-3.38c-2.42-0.84-4.31-1.5-6.37-2.21c-0.86-5.65,1.88-10.4,4.32-15.31
			c2.63-5.28,7.11-7.83,13.5-8.55c-1.87-2.5-2.92-3.91-3.98-5.32c5.41-10.59,14.79-16.27,25.22-20.69c0.98-0.41,1.82-1.14,2.73-1.72
			C497.67,156,499.33,156,501,156z"/>
		<path d="M367,406c6.22-10.93,12.39-21.89,18.75-32.74c0.42-0.72,2.24-0.76,3.43-0.88c3.43-0.36,5.06-3.13,3.91-6.27
			c-0.8-2.18-1.12-4.53-1.65-6.81c2.38-0.06,4.75-0.13,7.13-0.19c0.63-0.02,1.27,0,1.82,0c0.19-0.58,0.45-0.94,0.36-1.17
			c-1.15-3.16-5.35-5.46-2.27-9.77c4.04-5.66,7.64-11.59,15.24-13.28c5.06-1.12,9.37-0.17,13.67,2.65
			c7.58,4.97,9.34,15.41,2.99,21.86c-1.72,1.75-4.82,2.35-7.42,2.94c-2.78,0.64-5.71,0.65-9.41,1.02c1.03,1.66,1.45,2.45,1.98,3.16
			c4.01,5.38,3.55,6.56-2.91,7.53c-0.76,0.11-1.76,0.41-2.15,0.96c-6.25,8.84-16.31,12.22-24.9,17.75
			c-5.91,3.81-11.06,8.78-16.55,13.23C368.33,406,367.67,406,367,406z"/>
		<path d="M574.52,400.81c-2.4-0.68-4.93-1.09-7.18-2.1c-8.61-3.89-17.19-7.85-25.62-12.1c-1.39-0.7-2.35-2.89-2.83-4.58
			c-0.42-1.47,0.12-3.22,0.31-5.95c-2.67,0.83-4.66,1.45-7.05,2.19c-2.71-5.8-13.45-6.33-11.21-16.09c-0.7-0.12-1.03-0.27-1.33-0.21
			c-2.24,0.42-5.73,1.99-6.5,1.13c-2.99-3.36-6.85-7.31-7.26-11.36c-1.43-13.99,8.32-20.34,21.56-18.25
			c2.76,0.44,5.42,1.57,8.1,2.44c3.74,1.21,5.44,3.45,4.16,7.57c-0.35,1.12-0.1,3.12,0.66,3.75c3.77,3.1,4.23,6.79,2.64,10.99
			c0.33,0.3,0.63,0.74,0.78,0.69c7.95-2.29,10.89,2.77,13.99,8.73c5.56,10.69,11.75,21.05,17.68,31.55
			C575.12,399.74,574.82,400.27,574.52,400.81z"/>
		<path d="M408.38,219.47c-4.65,5.52-7.2,3.01-9.73,0.03c-1.07-1.25-2.12-2.75-3.53-3.45c-4.34-2.15-6.22-4.56-3.49-9.57
			c1.31-2.4-1.01-3.07-3.46-2.86c-1.65,0.14-4.15-0.05-4.95-1.09c-5.32-6.97-10.28-14.21-15.33-21.38
			c-0.26-0.36-0.23-0.93-0.39-1.67c0.69-0.13,1.42-0.53,1.86-0.32c7.62,3.55,15.18,7.25,22.83,10.74c1.76,0.81,3.82,1.02,5.76,1.4
			c11.34,2.21,11.34,2.2,10.27,13.66c1.73-1.47,3.08-2.9,4.7-3.91c1.3-0.81,2.93-1.1,4.41-1.62c0.49,1.81,1.18,3.59,1.4,5.43
			c0.17,1.43-0.25,2.94-0.42,4.55c1.11,0,1.62,0.11,1.68-0.02c3.1-5.75,7.32-5.24,12.13-2.34c2.83,1.7,6.46,2.56,8.56,4.86
			c2.13,2.33,4,6.01,3.89,9.03c-0.28,8.31-7.65,16.46-15.7,18.75c-5.48,1.55-17.22-3.07-19.77-7.98c-0.64-1.22-0.63-2.84-0.7-4.29
			C408.3,225.36,408.38,223.29,408.38,219.47z"/>
		<path d="M542.69,207.94c1.26-0.99,2.52-1.98,4.07-3.2c0.82,1.02,1.35,2.07,2.21,2.67c1.01,0.72,2.31,1.48,3.43,1.4
			c0.64-0.04,1.57-1.66,1.69-2.65c0.74-5.95,3.25-8.97,9.88-10.13c7.9-1.37,15.39-5.05,23.08-7.68c2.11-0.72,4.28-1.27,6.42-1.9
			c0.24,0.38,0.48,0.76,0.72,1.14c-2.01,1.8-4.16,3.47-6,5.43c-5.09,5.43-9.88,11.15-15.14,16.4c-2.56,2.56-5.9,4.33-9.44,6.84
			c0.76,1.14,2.17,3.26,3.93,5.92c-1.36,1-2.71,2.08-4.15,3.04c-2.06,1.39-4.59,2.32-6.2,4.1c-3.76,4.15-7.54,7.16-13.15,3.29
			c-2.6,8.59-8.78,10.33-15.43,4.82c-10.64-8.81-11.78-18.76-2.45-27.56c2.91-2.75,7.3-4.22,11.27-5.39
			C538.69,204.11,540.8,206.63,542.69,207.94z"/>
	</g>
</g>
</svg>
