<?xml version="1.0" encoding="utf-8"?>
<!-- Generator: Adobe Illustrator 26.2.1, SVG Export Plug-In . SVG Version: 6.00 Build 0)  -->
<svg version="1.1" id="Layer_1" xmlns="http://www.w3.org/2000/svg" xmlns:xlink="http://www.w3.org/1999/xlink" x="0px" y="0px"
	 viewBox="0 0 960 560" style="enable-background:new 0 0 960 560;" xml:space="preserve">
<g>
	<g>
		<path d="M356,263c2.04-9.25,7.3-14.35,17.17-12.89c0.38-0.88,0.75-1.32,0.73-1.75c-0.16-3.66-2.19-7.11,0.78-10.93
			c5.06-6.48,9.78-13.23,17.88-16.12c1.72-0.61,4.05,0.64,6.11,0.72c1.87,0.07,4.2,0.31,5.48-0.65c0.9-0.68,0.26-3.26,0.49-4.97
			c0.24-1.74,0.11-4.1,1.17-5.06c6.39-5.77,19.42-11.14,28.14-12.04c0.88,1.32,1.52,2.99,2.73,3.94c1.31,1.04,3.18,1.96,4.73,1.86
			c0.86-0.05,1.98-2.22,2.28-3.58c0.97-4.37,3.91-4.88,7.57-4.4c4.07,0.54,8.15,1.06,12.65,1.65c0.1,0.45,0.28,1.41,0.52,2.36
			c1.16,4.72,2.28,5.31,5.85,2.12c3.76-3.36,7.74-3.42,12.46-3.26c12.84,0.46,24.32,5.05,35.57,10.53c5.35,2.61,8.32,7.14,8.9,14.33
			c2.16-1.66,3.84-2.73,5.25-4.08c2.35-2.27,4.67-2.98,7.54-0.92c1.19,0.86,2.65,1.89,3.99,1.9c7.42,0.05,11.8,4.58,15.54,10.12
			c0.55,0.82,1.14,2.13,0.85,2.9c-1.62,4.4,1.03,4.74,4.02,4.13c3.41-0.7,5.88-0.06,7.38,3.24c0.2,0.44,0.62,0.77,0.96,1.14
			c8,8.59,16.01,17.19,24.01,25.78c3.25,3.48,6.93,6.6,6.85,12.13c-0.02,1.59,1.55,3.2,2.39,4.81c0,1.33,0,2.67,0,4
			c-1.53-1.81-3-3.67-4.59-5.42c-5.49-6.02-10.8-12.22-16.65-17.85c-1.84-1.77-5.21-1.92-7.85-2.86c-3.92-1.4-7.89-2.69-11.68-4.37
			c-1.32-0.59-2.74-2.01-3.19-3.35c-2.03-6.09-4.94-6.96-9.64-2.59c-0.48,0.45-1.01,0.84-1.42,1.17
			c-7.68-6.38-16.33-9.88-26.05-11.27c-2.12-0.3-3.95-2.6-6.36-4.29c-3.56,0.76-8.39,2.07-13.3,2.78c-6.21,0.9-10.05-3.64-8.61-9.67
			c0.22-0.91,0.11-1.9,0.16-3.08c-4-0.38-6.97,0.63-7.99,4.46c-0.77,2.88-2.39,3.43-5.09,3.48c-5.32,0.09-10.66,0.33-15.92,1.07
			c-2.14,0.3-5.76,0.14-5.11,4.39c0.08,0.53-0.83,1.38-1.47,1.82c-4.5,3.11-14.13,2-18.01-1.83c-0.76-0.75-2.68-1.5-3.18-1.12
			c-1.32,1.02-3.12,2.76-3.01,4.06c0.46,5.19-2.54,7.18-6.66,8.53c-1.11,0.36-2.37,0.55-3.26,1.21c-4.16,3.1-8.14,3.64-12.49,0.18
			c-0.97-0.77-4.05-0.74-4.35-0.16c-0.71,1.4-0.47,3.35-0.35,5.06c0.05,0.76,0.65,1.53,1.13,2.19c1.29,1.78,4.07,3.94,3.7,5.16
			c-0.7,2.28-3.01,4.26-5.01,5.92c-6.77,5.62-13.53,11.29-20.61,16.49c-6.75,4.95-14.6,3.87-22.2,2.59
			c-1.52-0.26-3.29-1.89-4.03-3.36c-2.53-5-4.64-10.2-6.92-15.32C356,270.33,356,266.67,356,263z"/>
		<path d="M410.52,362.9c6.58-9.81,8.53-22.1,18.03-30.45c5.59-4.91,10.17-10.95,15.25-16.45c2.03-2.2,4.02-4.47,6.3-6.39
			c4.69-3.94,7.36-3.39,10.1,0.89c4.16-2.61,7.98-5.89,12.41-7.54c4.01-1.49,8.77-1.92,13-1.36c1.65,0.22,2.78,4.43,4.36,7.19
			c4.82-3.28,9.27-0.27,13.73,3.39c2.55,2.09,5.42,3.81,8.18,5.66c5.05,3.39,7.27,8.46,8.43,14.16c2.01,9.85,0.17,18.37-8.1,24.99
			c-5.86,4.69-11.63,3.72-14.31-3.39c-2.31-6.12-7.16-11.9-3.16-19.38c-0.41-0.2-0.83-0.4-1.24-0.6c-2.09,1.18-4.19,2.36-6.27,3.53
			c-4.81-4.39-9.57-8.73-15.01-13.7c-0.2,2.81-0.4,5.52-0.6,8.34c-0.43,0.13-0.95,0.5-1.34,0.39c-12.22-3.59-22.59,0.58-32.22,7.7
			c-7.88,5.83-16.13,11.23-21.7,19.67c-1.14,1.72-3.01,2.96-4.54,4.43C411.39,363.59,410.96,363.25,410.52,362.9z"/>
		<path d="M516.64,289.22c1.47,0.97,2.77,1.69,3.92,2.61c4.38,3.48,3.75,10.44-1.59,11.99c-5.63,1.63-11.65,2.08-17.54,2.58
			c-5.17,0.44-8.03-2.9-9.15-7.49c-0.96-3.97-1.28-8.1-1.94-12.48c-3.23,1.06-6.07,0.63-7.64-3.69c-0.43-1.19-3.51-2.24-5.2-2.01
			c-8.96,1.2-16.87,5.14-23.78,10.81c-9.55,7.85-18.39,16.36-23.48,28.03c-0.92,2.1-2.78,3.79-4.88,5.31
			c2.82-8.8,1.63-18.12,6.81-26.57c7.91-12.9,16.55-24.91,28.35-34.4c1.41-1.13,4.35-0.35,7.65-0.51c0.58-0.77,1.87-2.65,3.32-4.4
			c8.79-10.62,23.74-9.35,31,2.39c3.75,6.06,7.84,11.92,12.1,17.63C516.97,282.19,519.33,285.07,516.64,289.22z"/>
	</g>
</g>
</svg>
