<?xml version="1.0" encoding="utf-8"?>
<!-- Generator: Adobe Illustrator 26.2.1, SVG Export Plug-In . SVG Version: 6.00 Build 0)  -->
<svg version="1.1" id="Layer_1" xmlns="http://www.w3.org/2000/svg" xmlns:xlink="http://www.w3.org/1999/xlink" x="0px" y="0px"
	 viewBox="0 0 960 560" style="enable-background:new 0 0 960 560;" xml:space="preserve">
<g>
	<g>
		<path d="M606,176c-2.64,4.55-5,9.3-8.01,13.59c-3.32,4.73-7.13,9.14-10.99,13.46c-0.94,1.05-2.89,1.19-4.79,1.91
			c-2.22,7.54-10.16,9.63-15.89,14.09c-2.98,2.32-6.22,4.33-9.41,6.36c-1.35,0.85-3.39,2.35-4.26,1.9c-2.99-1.55-4.24,0.6-5.95,1.99
			c-1.03,0.83-2.05,1.66-3.24,2.63c-1.39-1.02-2.68-1.97-3.41-2.5c-3.36,1.34-6.33,2.52-10.37,4.12c-2.05,4.3-12.15,6.19-16.96,1.9
			c-2.21,3.19-9.71,5.06-12.66,3.15c-2.44-1.57-3.15-6.53-0.75-8.32c2.73-2.03,5.9-3.56,9.08-4.81c0.86-0.34,2.53,0.97,3.64,1.77
			c1.38,1,2.58,2.27,4.67,4.15c0-2.96,0-4.68,0-6.88c5.73-1.06,10.47-5.63,17.52-4.04c1.8-5,3.79-10.54,5.93-16.48
			c-1.85-1.39-4.44-3.12-1.57-6.26c0.29-0.31,0.51-1.09,0.33-1.38c-4.68-7.27-1.79-15.1-1.76-22.71c0-0.94,0-1.88,0-3.2
			c4.53,4.46,6.97,13.78,5.9,15.63c2.46,8.54,4.53,15.73,6.75,23.47c3.49-3.99,6.8-7.78,10.31-11.79c-0.13-0.78-1.02-2.6-0.53-3.9
			c2.88-7.59,6.08-15.05,9.75-22.5c-0.17,6.05,2.71,12.34-1.86,18.48c3.89,5.59-1.93,11.01-1.32,17.28
			c4.83-1.98,8.31-4.97,12.08-8.18c3.97-3.39,7.3-8.9,13.77-8.9c0.54,0,1.06-1.3,1.63-1.95c4.12-4.7,8.25-9.39,12.37-14.08
			C606,174.67,606,175.33,606,176z"/>
		<path d="M356,211c3.43,1.2,6.88,2.34,10.27,3.62c3.23,1.22,6.42,2.57,9.35,3.76c1.14-0.84,2.68-2.65,3.36-2.37
			c3.8,1.55,8.98,1.28,10.5,8.09c0.64-2.51,0.97-3.79,1.39-5.43c1.44,0.32,3,0.66,4.23,0.93c-1.92-5.47-3.77-11.24-5.98-16.87
			c-2.23-5.67-4.83-11.19-7.26-16.78c0.78-0.4,1.56-0.81,2.34-1.21c3.23,5.2,6.47,10.4,9.67,15.62c0.55,0.89,0.77,2.59,1.4,2.73
			c5.71,1.27,4.82,5.79,5.03,9.01c3.7,2.92,6.95,5.48,10.2,8.05c0.43-0.16,0.85-0.32,1.28-0.48c-3.05-11.97,0.18-23.81-0.9-35.74
			c0.53-0.07,1.07-0.13,1.6-0.2c0.81,3.75,1.4,7.56,2.47,11.24c1.43,4.92,3.39,9.68,4.78,14.61c0.44,1.55-0.19,3.4-0.34,5.29
			c6.01,1.83,2.76,7.74,4.12,12.48c1.26-1.34,2.19-2.32,3.12-3.31c3.65,1.3,6.65,3.87,11.34,2.75c2.4-0.57,5.77,2.14,8.46,3.78
			c2.37,1.45,4.4,3.46,6.75,5.36c0.26-0.4,1.01-1.59,1.85-2.91c3.82,1.77,7,4.01,5.61,8.58c-0.68,2.22-2.61,5.42-4.34,5.66
			c-3.13,0.45-6.63-0.67-9.79-1.71c-3.63-1.2-6.94-3.61-10.62-4.37c-2.92-0.6-6.41,0.86-5.71-6.19c-6.79,6.93-12.45,2.83-17.83,1.04
			c-5.16-1.71-12.28,0.04-14.88-7.12c-6.06,1.99-11.77,2.43-16.16-3.46c-0.26-0.35-0.82-0.76-1.2-0.72
			c-10.92,1.18-17.18-6.4-24.1-12.74C356,211.67,356,211.33,356,211z"/>
		<path d="M547.64,349.69c2.75-1.85,4.51-3.03,6.27-4.21c-1.26-1.14-2.52-2.28-4.75-4.29c-0.09-6.23-3.66-12.35-8.86-17.87
			c-1.26-1.33-1.24-3.87-1.81-5.88c-6.32,1.32-7.63,0.33-11.75-9.62c-1.22,1.34-2.25,2.48-3.45,3.8c-1.44-0.57-3.04-1.34-4.73-1.83
			c-1.56-0.46-3.21-0.62-6.03-1.13c3.3,5.37,1.68,8.98-1.4,13.2c-3.37,4.63,2.24,3.75,4.01,4.5c0.6,8.71,1.17,17.08,1.74,25.45
			c-0.15,0.02-0.62,0.16-0.68,0.06c-4.73-7.76-9.44-15.54-14.14-23.32c-0.34-0.56-0.95-1.32-0.79-1.77
			c2.77-7.99-6.58-10.3-7.85-16.47c-0.15-0.74-3.24-0.99-4.99-1.27c-2.98-0.46-6.15-1.48-8.94-0.89c-2.09,0.44-3.71,3.06-4.89,5.48
			c-5.73,1.5-11.46,3-16.88,4.42c-3.46,2.1-6.89,4.17-10.32,6.24c-5.36,3.24-10.72,6.47-16.07,9.72c-0.67,0.41-1.45,1.34-1.95,1.21
			c-5.99-1.66-5.41,2.93-6.2,6.31c-0.25,1.08-0.53,2.31-1.21,3.12c-7.27,8.72-14.63,17.38-22.82,25.74c2.77-6.04,5-12.43,8.45-18.05
			c4.74-7.72,9.85-15.38,15.87-22.11c5.01-5.61,11.51-9.89,17.48-14.6c0.65-0.52,2.18,0.23,3.23,0.02c1.17-0.23,3.2-0.84,3.22-1.37
			c0.21-4.52,3.91-5.29,6.86-6.97c2.02-1.15,4.19-2.28,5.74-3.94c2.48-2.65,4.71-2.72,7.26-0.16c0.61-5.63,5.65-8.88,21.24-13.83
			c-0.24-1.85-0.5-3.76-0.75-5.66c-7.07-1.96-10.76-11.46-6.3-17.29c-1.73,0-3.18,0-4.97,0c0.09-4.46-7.8-8.23-0.28-12.38
			c-2.49-0.9-6.06-1.09-6.9-2.7c-2.64-5.08-5-10.56-5.92-16.15c-0.42-2.53,2.13-6.82,4.55-8.26c4.55-2.7,10.92-6.61,14.89-5.25
			c13.93,4.8,14.06,15.42,6.97,27.66c2.58-0.54,3.94-0.82,5.24-1.09c2.94,6.75,2.94,6.75-0.84,14.04c5.37,1.78,10.4,15.24,7.51,20.1
			c0.18,0.27,0.4,0.52,0.55,0.8c5.82,10.81,18.24,5.06,26.37,11.27c1.27,6.86,2.35,7.48,8.16,3.33c4.7,3.64,9.44,7.52,14.4,11.08
			c3.51,2.52,4.54,5.36,2.52,9.25c-0.34,0.66-0.29,1.53-0.49,2.77c1.97-0.26,3.52-0.46,5.85-0.77c0.94,3.44,1.95,6.89,2.82,10.37
			c0.8,3.21,1.29,6.5,2.22,9.66c1.33,4.51-0.09,8.57-4.24,11.15c5.38,1.03,6.35,2.36,3.98,7.2c-2.59,5.29-5.63,10.4-8.93,15.29
			c-0.93,1.38-3.44,1.69-5.73,2.73c0.17,0.5,0.68,1.99,1.18,3.44c-4.59,6.04-11.17,8.21-17.98,9.93c-4.1,1.03-7.23,0.33-7.71-4.75
			c-0.12-1.27-0.78-2.49-2.23-3.78c-0.35,3.39-0.69,6.78-1.03,10.1c-8.07-0.28-16.84-5.49-18.28-10.56
			c-1.1-3.85,1.6-11.76,4.57-13.44c6-3.38,14.14-2.08,19.86,3.42c2.02-5.15,5.34-2.33,8.99-0.95c0.63-2.04,1.19-3.83,1.87-6.03
			c0.93,0.36,1.9,1.03,2.86,1.02c0.92-0.01,1.83-0.71,2.75-1.11C541.08,357.72,547.85,354.08,547.64,349.69z"/>
		<path d="M462.66,256.17c2.76,2.96,6.87,5.53,7.85,8.99c0.8,2.86-1.55,7.15-3.57,10.07c-1.33,1.93-4.45,2.99-6.96,3.5
			c-0.81,0.16-2.71-2.51-3.27-4.17c-1.13-3.4-0.64-6.59,3.52-8.04c-4.32-4.45,0.88-6.67,1.1-9.96
			C461.77,256.43,462.21,256.3,462.66,256.17z"/>
	</g>
</g>
</svg>
