<?xml version="1.0" encoding="utf-8"?>
<!-- Generator: Adobe Illustrator 26.2.1, SVG Export Plug-In . SVG Version: 6.00 Build 0)  -->
<svg version="1.1" id="Layer_1" xmlns="http://www.w3.org/2000/svg" xmlns:xlink="http://www.w3.org/1999/xlink" x="0px" y="0px"
	 viewBox="0 0 960 560" style="enable-background:new 0 0 960 560;" xml:space="preserve">
<g>
	<g>
		<path d="M356,259c3.05-4.11,6.13-8.21,9.13-12.35c1.85-2.55,3.69-4.94,8.03-2.31c-3.88-7.52,2.34-10.7,5.35-15.2
			c1.29-1.93,2.4-4.11,5.51-2.79c0.45,0.19,1.87-1.08,2.36-1.94c1.3-2.31,2.24-4.81,3.48-7.16c3.96-7.46,10.44-11.22,18.66-11.14
			c8.01,0.08,13.88,4.9,17.42,11.55c1.4,2.63,1.15,7.87-0.63,10.13c-4.25,5.4-9.8,9.79-14.99,14.39c-0.58,0.51-2.56,0.12-3.42-0.5
			c-3.07-2.2-4.82-0.96-6.5,2.19c4.61,1.89,3.87,4.41,1.11,7.43c-1.41,1.55-2.28,3.61-3.43,5.5c3.56,3.67,12.14,3.46,8.05,12.73
			c7.74-4.37,11.79-0.59,16.16,4.58c1.35,1.6,6.19,1.09,9.11,0.33c3.9-1.01,6.77-1.14,8.75,3.89c0.79-6.84,6.09-7.05,10.46-8.66
			c4.55-1.67,8.97-2.29,13.49,0.09c0.7,0.37,1.93,0.2,2.71-0.17c2.21-1.02,4.31-2.26,7-3.71c-5.7-4.29-11.78-8.87-18.22-13.71
			c0.93-1.31,2.3-3.24,3.66-5.17c-0.17-0.4-0.34-0.8-0.52-1.21c-3.14,0.83-6.28,1.67-9.41,2.5c-0.3,0.4-0.6,0.79-0.89,1.19
			c-3.18-3.61-6.44-7.16-9.53-10.85c-2.67-3.18-3.82-6.58-0.82-10.32c5.11-6.34,10.06-12.81,15.35-19c0.74-0.87,3.04-0.4,4.79-0.56
			c3.86-10.51,16.79-15.82,26.64-8.55c1.87,1.38,3.93,2.5,5.83,3.85c7.4,5.24,6.19,18.24-2.07,22.16c-2.85,1.35-5.64,3.04-8.65,3.77
			c-1.67,0.4-3.74-0.9-5.65-1.37c-0.99-0.24-2.02-0.33-3.04-0.48c0.34,1.07,0.35,2.7,1.07,3.12c3.65,2.13,2.67,4.35,0.4,6.46
			c1.62,4.85,9.11,5.34,7.83,12.15c6.75-2.41,6.91,4.28,9.93,7.27c4.54-3.76,9.04-7.4,13.41-11.2c0.71-0.62,1.25-1.97,1.15-2.9
			c-0.46-4.19,1.56-6.72,4.79-9.06c2.21-1.61,3.67-4.22,5.61-6.25c2.39-2.5,4.65-5.71,8.77-2.23c3.95-14.11,15.96-17,26.86-21.05
			c5.79-2.15,11.95-3.3,17.95-4.9c0.2,0.37,0.41,0.75,0.61,1.12c-1.09,1.15-2.14,2.33-3.26,3.43c-9.01,8.81-18.01,17.64-27.08,26.38
			c-0.83,0.8-2.26,0.95-3.25,1.64c-0.84,0.58-2.19,1.88-2.02,2.22c1.77,3.62-1.39,4.98-2.94,7.13c-2.72,3.76-5.2,7.71-8.04,11.38
			c-1.07,1.37-2.97,2.07-4.3,3.28c-0.93,0.85-1.93,1.95-2.21,3.11c-0.52,2.17-0.55,4.46-0.83,7.19c1.07,0.16,2.6,0.54,4.15,0.6
			c8.69,0.33,17.07,2.1,25.26,5.04c4.86,1.75,10.16,2.74,9.79,10.32c3.39-5.05,6.46-3.09,9.84-1.32c5.14,2.71,10.76,4.59,15.67,7.64
			c10.37,6.45,18.46,15.39,25.53,25.26c0,0.67,0,1.33,0,2c-2.91-0.48-6.05-0.42-8.68-1.55c-8.23-3.54-16.25-7.56-24.39-11.32
			c-1.95-0.9-4.16-1.28-6.02-2.32c-1.5-0.84-3.24-2.06-3.85-3.53c-1.43-3.47-2.66-5.13-5.71-1.36c-0.53,0.65-2.12,0.92-3.05,0.69
			c-5.95-1.47-11.9-2.97-17.72-4.85c-1.44-0.46-2.37-2.4-3.62-3.58c-0.86-0.82-2.54-2.25-2.67-2.13c-4.34,4.03-9.24,0.42-13.77,1.11
			c-0.48,0.07-0.93,0.26-2.4,0.68c1.84,3.84,3.26,7.67,5.4,11.05c2.15,3.38,2.96,6.13-0.63,8.94c-0.55,0.43-0.65,1.42-1.21,2.77
			c2.5,0,4.5,0,7.04,0c5.18,16.36,8.52,32.94,5.82,50.2c-0.51,0.17-1.02,0.34-1.54,0.51c-0.89-1.58-2.09-3.05-2.6-4.74
			c-3.1-10.22-9.09-18.73-15.39-27.14c-1.6-2.13-1.86-5.27-2.85-8.3c-6.88,0.94-6.26-6.26-9.01-9.94c-2.79-3.74-7.83-7.6-2.91-13.65
			c-1.51,0.36-3.02,0.71-4.96,1.17c-4.03-9.97-11.88-10.22-21.27-8.84c-10.68,1.57-20.83,3.92-30.01,9.79
			c-2.94,1.88-3.07,1.67-9.45-4.07c2,7.25-2.5,8.53-7.18,9.85c-2.73,0.77-4,2.22-2.84,5.56c1.29,3.73,1.65,7.78,2.41,11.69
			c-0.4,0.13-0.8,0.26-1.2,0.39c-2.79-3.54-5.66-7.01-8.34-10.63c-2.39-3.23-4.88-3.77-8.47-1.64c-1.83,1.08-4.38,0.95-7.06,1.45
			c1.69,4.37-1.73,5.11-5.51,5.89c-2.58,0.53-5.09,1.55-7.56,2.53c-11.67,4.62-20.68-3.54-18.44-15.82c0.33-1.79,0.85-3.56,1.39-5.3
			c2.43-7.85,7.08-10.35,15.54-8.04c0.09-6.33,5.66-6.6,10.06-8.57c-2.8-5.98-8.08-7.02-14-7.69c0.94-2.09,1.71-3.79,2.76-6.12
			c-10.26,2.07-17.4-5.17-26.12-7.1C356,261,356,260,356,259z"/>
		<path d="M456.11,327.21c1.12,6.68-5.93,12.92-11.56,11.45c-3.14-0.82-5.87-1.25-7.58,2.35c-0.33,0.69-1.05,1.48-1.74,1.66
			c-12.67,3.23-21.46,12.77-31.95,19.54c-0.89,0.57-1.78,1.13-3.04,1.31c5.4-16.25,16.7-27.62,30.93-37.16
			c0.35,0.18,1.12,0.8,1.98,0.99c1,0.22,2.27,0.39,3.07-0.06c0.5-0.28,0.79-1.95,0.44-2.6c-1.79-3.3-0.05-5.55,2.23-7.36
			c3.18-2.52,4.06-8.51,10.12-6.93c0.19,0.05,0.93-1.22,1.1-1.95c1.81-7.74,10.99-12.71,18.36-9.33c4.15,1.9,8.23,4.57,11.36,7.83
			c1.75,1.83,2.69,5.96,1.91,8.4c-2.14,6.75-6.14,12.76-13.06,15.39c-2.44,0.93-5.79-0.3-8.66-0.89
			C458.87,329.63,457.91,328.48,456.11,327.21z"/>
	</g>
</g>
</svg>
