<?xml version="1.0" encoding="utf-8"?>
<!-- Generator: Adobe Illustrator 26.2.1, SVG Export Plug-In . SVG Version: 6.00 Build 0)  -->
<svg version="1.1" id="Layer_1" xmlns="http://www.w3.org/2000/svg" xmlns:xlink="http://www.w3.org/1999/xlink" x="0px" y="0px"
	 viewBox="0 0 960 560" style="enable-background:new 0 0 960 560;" xml:space="preserve">
<g>
	<g>
		<path d="M606,380c0,1,0,2,0,3c-1.24-0.86-2.83-1.48-3.66-2.64c-2.41-3.38-4.41-7.04-6.75-10.46c-6.55-9.6-15.38-16.7-24.82-23.09
			c-0.48,0.32-0.95,0.64-1.43,0.96c8.03,14.81,16.05,29.61,24.73,45.63c-1.99-1.3-3.12-1.68-3.7-2.47
			c-10.42-14.2-22.1-27.7-30.67-42.95c-5.7-10.15-13.9-13.07-23.25-15.99c-5.32-1.65-12.04-0.58-14.17-7.97
			c-2.8,0.73-5.28,1.37-8.52,2.21c1.96,4.41,3.54,8.22,5.33,11.92c3.61,7.48,8.64,14.56,10.7,22.42
			c2.94,11.21,8.17,20.94,14.31,30.45c0.63,0.97,0.79,2.25,1.16,3.39c-0.41,0.23-0.81,0.45-1.22,0.68
			c-1.92-2.77-3.86-5.53-5.76-8.31c-8.89-12.99-20.37-24.28-25.8-39.55c-0.5-1.41-2.24-2.38-3.38-3.58
			c-3.05-3.17-6.42-6.1-9.02-9.61c-1.62-2.18-2.86-2.7-5.59-2.6c-6.2,0.22-12.61,6.31-19.3-2.1c0.53,6.91-1.95,10.1-7.94,10.91
			c1.97,2.78,3.4,5.2,5.22,7.27c3.78,4.32,8.29,8.28,4.48,14.87c-0.11,0.2,0.48,0.8,0.73,1.19c5.37-0.78,6.69,0.38,8.49,3.84
			c4.63,8.87,9.65,17.54,14.8,26.12c2.23,3.7,5.18,6.97,7.8,10.44c-0.44,0.48-0.87,0.96-1.31,1.44c-3.78-2.64-7.89-4.92-11.28-7.98
			c-10.58-9.54-20.89-19.39-31.31-29.11c-2.96-2.76-6.27-5.22-8.81-8.31c-2.14-2.6-3.4-5.93-4.27-7.51
			c-5.6-0.36-9.72-0.62-14.39-0.92c3.68,3.97,5.69,8.22,3.2,13.37c-1.05,2.18-2.03,4.41-2.85,6.69c-1.5,4.19-5.04,6.37-8.82,6.17
			c-6.42-0.33-12.93-1.39-19.09-3.2c-2.39-0.7-4.84-4.01-5.67-6.63c-2.76-8.73,0.24-16.97,3.46-25.04
			c3.12-7.8,6.29-15.58,9.46-23.44c-4.59-3.35-8.85-6.51-7.27-12.27c-2.57-0.55-5.12-0.47-6.88-1.62c-2.88-1.87-5.3-4.47-7.8-6.89
			c-4.99-4.84-9.68-10-14.88-14.59c-4.59-4.04-5.01-5.67-1.36-10.65c0.83-1.12,1.03-2.7,1.52-4.07c-6.8,5.17-9.11,4.49-13.03-2.6
			C364,260.68,359.83,254.93,356,249c0-1.33,0-2.67,0-4c0.32-0.35,0.89-0.68,0.92-1.05c0.76-9.7,10.88-12.1,15.08-19.14
			c0.44-0.74,2.77-0.44,4.22-0.49c1.91-0.07,3.82-0.02,5.95-0.02c-0.43-5.35-1.17-9.95-1.06-14.54c0.1-4.34,1.1-8.66,1.7-12.98
			c0.67,0.05,1.34,0.1,2.01,0.15c0.4,3.18,1.15,6.36,1.14,9.54c-0.04,8.54,3.42,15.39,9.15,21.47c2.06,2.18,3.46,4.98,5.89,8.58
			c6.25,1.41,12.34,5.5,17.18,11.98c2.49,3.33,5.82,5.42,6.65,10.38c1.33,7.92,5.9,8.86,11.17,3.46c2.69,0.58,5.24,1.12,7.79,1.67
			c0.29-0.44,0.58-0.89,0.88-1.33c-6.7-7.98-13.51-15.87-20.03-23.98c-2.34-2.91-5.98-5.63-3.6-10.42c1.94-3.91,0.7-6.04-3.69-7.01
			c-1.57-0.35-3.56-0.33-4.58-1.3c-5.31-5.01-10.52-10.16-15.43-15.56c-1.28-1.41-1.78-3.88-1.88-5.91
			c-0.17-3.46,0.9-7.07,0.28-10.4c-1.11-5.93,0.65-10.13,5.06-14.09c2.44-2.19,4.55-5.51,5.25-8.66c0.8-3.58,0.98-7.24,5.08-8.1
			c3.98-0.84,6.77,1.5,9.12,4.77c4.94,6.88,10.28,13.46,15.27,20.3c5.77,7.89,11.49,15.83,16.88,23.98c1.1,1.66,0.59,4.36,0.87,6.57
			c0.26,2.06,0.04,4.41,0.97,6.12c2.97,5.49,6.27,10.81,9.64,16.07c3.44,5.37,6.07,12.13,10.97,15.45
			c5.22,3.53,3.55,6.19,2.72,10.25c-0.43,2.1,0.2,5.07,1.52,6.69c1.58,1.94,4.35,3.84,6.72,3.99c3.85,0.25,9.15,1.1,11.55,3.34
			c0.17,0.16,0.63,0.02,1.86,0.02c0.39-2.27,0.82-4.7,1.24-7.14c1.32-0.34,2.63-0.67,4.39-1.12c-1.17-1.84-2.16-3.16-2.9-4.6
			c-5.04-9.88-16.3-16.47-15.67-29.39c0.01-0.3-0.74-0.61-1.06-0.97c-5.78-6.59-11.22-13.53-17.41-19.71
			c-7.24-7.22-12.15-14.2-7.49-25.29c1.55-3.69,3.06-5.87,6.29-7.5c3.76-1.9,7.16-1.82,10.76,0.67c5.05,3.5,10.36,6.63,15.56,9.92
			c3.62,2.29,7.67,4.11,10.75,6.98c5.17,4.83,7.45,11.32,8.08,18.32c0.35,3.9,1.87,6.86,5.29,9.06c3.63,2.33,3.41,4.59-0.1,7.24
			c-0.97,0.73-1.67,1.82-1.75,1.91c3.11,2.79,5.95,4.65,7.83,7.22c2.11,2.88,3.36,6.41,5.16,10.01c3.71-3.48,8.96-4.7,9.64-10.51
			c0.1-0.87,1.81-1.81,2.95-2.27c7.82-3.15,18.04,1.03,22.39,9.31c3.52,6.69,6.9,13.46,9.93,20.37c0.51,1.17-0.81,3.41-1.72,4.88
			c-1.6,2.59-4.33,4.72-5.17,7.47c-2.15,7.07-7.48,9.66-13.75,11.48c-2.48,0.72-4.9,1.66-7.49,2.54
			c5.68,10.45,11.03,20.28,16.52,30.39c1.74-1.53,2.94-2.58,5.2-4.56c5.92,7.7,12.22,14.79,17.23,22.69
			C591.73,354.49,598.68,367.36,606,380z M429.9,293.29c2.16,1.61,3.86,2.73,5.37,4.04c3.65,3.18,5.44,9.12,12.04,7.91
			c0.55-0.1,1.25,1.02,1.98,1.37c1.54,0.74,3.15,1.36,4.73,2.02c0.57-1.52,1.13-3.05,1.69-4.55c2.88-1.06,5.88-2.17,8.88-3.28
			c-5.48-1.26-9.4-5.38-15.36-5.29c-4.82,0.07-9.77-2.87-14.52-4.84C431.39,289.3,430.06,290.22,429.9,293.29z M519.96,300.21
			c-0.06,0.45-0.13,0.9-0.19,1.34c2.09,0.79,4.12,1.8,6.28,2.28c0.93,0.21,2.1-0.66,3.16-1.04c-0.71-1.05-1.33-2.92-2.15-3.01
			C524.73,299.53,522.33,300.01,519.96,300.21z"/>
	</g>
</g>
</svg>
