<?xml version="1.0" encoding="utf-8"?>
<!-- Generator: Adobe Illustrator 26.2.1, SVG Export Plug-In . SVG Version: 6.00 Build 0)  -->
<svg version="1.1" id="Layer_1" xmlns="http://www.w3.org/2000/svg" xmlns:xlink="http://www.w3.org/1999/xlink" x="0px" y="0px"
	 viewBox="0 0 960 560" style="enable-background:new 0 0 960 560;" xml:space="preserve">
<g>
	<g>
		<path d="M510,156c2.28,0.85,4.59,1.6,6.82,2.57c10.77,4.65,15.02,14.35,10.52,25.34c-2.4,5.87-5.62,11.45-8.94,16.87
			c-3.49,5.7-6.99,5.85-12.06,1.19c-0.43-0.4-0.93-0.73-2.44-1.89c0.29,3.57,0.52,6.08,0.7,8.59c0.55,7.64-2.38,12.09-9.35,13.57
			c-1.45,0.31-3.22-0.57-4.76-1.12c-1.25-0.44-3.22-1.95-3.46-1.68c-1.26,1.37-3.23,3.5-2.85,4.74c2.42,8.05-3.52,10.95-8.16,15.18
			c-7.55,6.89-14.44,14.5-21.8,21.6c-3.5,3.38-7.46,6.28-10.92,9.16c-2.88-2.81-4.91-4.79-6.93-6.76c-0.46,0.33-0.91,0.65-1.37,0.98
			c0.32,1.89,0.26,3.97,1.04,5.64c1.72,3.66-0.19,5.37-2.85,7.32c-10.95,8.03-21.75,16.26-32.69,24.31
			c-6.94,5.11-14.02,10.02-21.06,15c-4.45,3.15-8.86,6.37-13.44,9.32c-1,0.65-2.64,0.31-3.99,0.42c0.18-1.19,0.02-2.6,0.61-3.54
			c7.1-11.35,13.99-22.86,21.64-33.83c3.63-5.21,9.06-9.12,13.15-14.05c5.49-6.61,10.48-13.64,15.7-20.47
			c2.83-3.69,5.54-7.14,11.07-3.78c2.72,1.65,8.39-3.37,8.24-6.9c-0.35-8.3,8.84-19.63,17.02-21.1c1.89-0.34,3.71-1.07,6.59-1.92
			c-6.29-5.57-1.92-9.1,1.17-13.01c2.03-2.57,3.58-5.54,5.69-8.04c1.53-1.81,3.63-3.15,6.19-5.29c0.76-1.15,1.76-3.61,3.54-5.18
			c6.61-5.82,11.02-13.14,15.38-20.62c3.26-5.59,7.14-10.85,13.99-12.61C504.67,156,507.33,156,510,156z"/>
		<path d="M552.21,311.41c1.53,9.1,1.53,9.1-5.8,14.66c-6.19,4.69-12.36,9.41-18.59,14.04c-2.08,1.55-3.61,2.05-5.49-1.06
			c-1.2-1.99-4.58-2.67-6.99-3.94c-0.94,1.99-2.41,3.89-2.72,5.97c-0.58,3.92-0.36,7.95-0.72,11.91c-0.3,3.24-1.72,5.39-5.46,6.03
			c-2.86,0.49-5.82,1.73-8.21,3.38c-18.66,12.91-37.2,26.01-55.78,39.04c-1.99,1.4-4.06,2.68-6.1,4.02c-0.4-0.24-0.8-0.48-1.2-0.72
			c0.41-1.25,0.52-2.74,1.28-3.72c7.37-9.59,14.75-19.18,22.33-28.61c7.98-9.93,16.37-19.53,24.21-29.57
			c3.7-4.74,8.6-5.69,14.66-5.56c-5.51-18.29,3.01-26.95,20.16-30.25c-7.11-7.4-1.24-12.19,2.72-17
			c5.16-6.26,10.73-12.19,16.28-18.12c5.98-6.4,11.38-14.08,22.84-10.47c-0.91-2.67-1.9-4.21-1.86-5.73
			c0.08-2.99-0.25-6.67,1.32-8.81c5.23-7.15,12.25-11.76,21.65-11.52c1.94,0.05,3.91-0.48,5.83-0.31
			c7.41,0.66,11.5,4.13,12.89,13.63c1.11,7.6,1.39,15.75-0.21,23.17c-1.22,5.63-5.91,10.54-9.21,15.67
			c-1.23,1.91-2.77,3.69-4.45,5.23c-3.62,3.32-7.55,5.38-12.41,2.11c-0.7-0.47-1.85-0.27-3.71-0.49c4.84,8.35-2.58,10.99-6.16,15.35
			c-1.66,2.02-3.69,3.73-5.87,5.89C556.04,314.52,554.13,312.96,552.21,311.41z"/>
		<path d="M402.35,366.58c1.16-2.3,1.91-4.95,3.55-6.84c14.22-16.39,28.59-32.64,43.18-49.24c-2.91-3.94-0.27-6.48,2.46-9.45
			c7.15-7.76,14.01-15.78,20.93-23.76c0.69-0.79,1.5-2.15,1.26-2.95c-1.3-4.34-2.23-8.47,2.18-11.69c3.17-2.31,6.34-4.6,10.67-7.74
			c-0.17-6.91,5.26-12.63,11.2-18.12c2.07-1.91,4.09-3.93,5.8-6.16c5.58-7.28,5.69-7.38,14.85-4.07c-3.36-6.48,2.05-9.48,4.48-13.6
			c4.12-6.99,8.4-13.63,16.46-17.26c6.42-2.89,11.67-2.99,16.73,2.01c2.58,2.55,5.45,4.88,7.67,7.72c3.93,5.02,4,10.59,2.84,16.9
			c-1.67,9.07-6.65,15-14.17,19.46c-2.57,1.53-4.61,1.87-6.98-0.81c-1-1.12-3.7-0.72-5.63-1.01c0.11,1.6-0.34,3.6,0.45,4.72
			c2.13,3.02,1.76,4.94-0.97,7.47c-5.28,4.91-9.02,11.43-16.28,14.22c-3.32,1.28-5.76,2.19-7.73-1.89c-0.75-1.56-2.8-2.49-4.85-4.19
			c-0.31,1.67-0.76,2.53-0.53,3.12c2.3,5.86-1.47,9.42-5.41,11.96c-5.49,3.53-8.62,8.59-11.59,13.98c-2.2,3.99-4.7,6.95-9.86,3.98
			c-1.05-0.6-3.33-0.57-4.03,0.16c-0.76,0.79-0.92,3.05-0.32,4.09c2.11,3.67,0.74,6.02-2,8.6c-14.87,14.03-30.73,26.72-47.58,38.34
			c-7.11,4.91-12.74,11.96-19.1,17.99c-1.95,1.84-4.08,3.49-6.13,5.22C403.38,367.36,402.86,366.97,402.35,366.58z"/>
	</g>
</g>
</svg>
