<?xml version="1.0" encoding="utf-8"?>
<!-- Generator: Adobe Illustrator 26.2.1, SVG Export Plug-In . SVG Version: 6.00 Build 0)  -->
<svg version="1.1" id="Layer_1" xmlns="http://www.w3.org/2000/svg" xmlns:xlink="http://www.w3.org/1999/xlink" x="0px" y="0px"
	 viewBox="0 0 960 560" style="enable-background:new 0 0 960 560;" xml:space="preserve">
<g>
	<g>
		<path d="M463,406c-4.29-22.77-5.22-45.47,0.26-68.27c1.69-7.01,1.36-14.48,2.58-21.63c1.42-8.35,3.29-16.63,5.38-24.84
			c3.02-11.86,4.56-24.25,11.71-34.74c0.54-0.79,0.72-1.86,0.97-2.82c0.12-0.46,0.02-0.98,0.02-1.41
			c-3.94-1.06-7.76-2.34-11.68-3.07c-2.77-0.52-5.77,0.07-8.49-0.57c-1.16-0.27-2.64-2.44-2.65-3.75
			c-0.04-6.91-0.01-13.86,0.72-20.73c0.4-3.81,2.29-7.44,3.36-11.19c1.15-4.03,2.56-8.05,3.03-12.18c0.41-3.52,0.69-6.43,2.57-9.94
			c3.61-6.74,6-14.56,6.94-22.17c0.74-5.98,3.36-8.59,8.31-10.22c2.64-0.87,5.31-1.65,7.96-2.47c1,0,2,0,3,0
			c1.27,3.48,2.55,6.96,3.81,10.45c3.66,10.16-1.03,17.88-7.33,25.15c-0.75,0.86-1.59,1.8-1.92,2.84c-1.83,5.96-3.38,12-5.28,17.94
			c-1.51,4.72-3.42,9.31-5.07,13.98c-0.75,2.13-1.28,4.35-2.3,7.89c3.15-0.59,5.28-0.71,7.22-1.39c7.44-2.62,13.95,3,13.27,10.82
			c-0.33,3.74,1.24,7.65,2.05,11.47c0.37,1.72,1.77,3.63,1.35,5.05c-3.39,11.42-4.15,23.33-10.6,34.24
			c-7.35,12.44-12.19,26.46-17.27,40.11c-3.32,8.9-5.49,18.29-7.49,27.6c-1.13,5.27-0.86,10.84-1.28,16.27
			c-0.7,9.19-1.43,18.38-2.15,27.57C463.67,406,463.33,406,463,406z"/>
	</g>
</g>
</svg>
