<?xml version="1.0" encoding="utf-8"?>
<!-- Generator: Adobe Illustrator 26.2.1, SVG Export Plug-In . SVG Version: 6.00 Build 0)  -->
<svg version="1.1" id="Layer_1" xmlns="http://www.w3.org/2000/svg" xmlns:xlink="http://www.w3.org/1999/xlink" x="0px" y="0px"
	 viewBox="0 0 960 560" style="enable-background:new 0 0 960 560;" xml:space="preserve">
<g>
	<g>
		<path d="M425,156c4.98,1.48,9.96,2.93,14.92,4.44c11.16,3.4,17.05,11.62,18.31,22.55c1.07,9.25,0.85,18.74,0.29,28.07
			c-0.45,7.44-4.31,12.6-12.84,11.43c-1.83-0.25-3.89,1.3-5.74,1.11c-4.29-0.45-8.52-1.46-13.23-2.33c0.13,0.39,0.24,1.7,0.93,2.48
			c1.19,1.33,2.83,2.25,4.14,3.49c4.92,4.67,5.34,8.57,1.44,14.05c-2.79,3.93-5.83,7.67-8.59,11.62c-1.88,2.69-3.47,5.59-5.23,8.46
			c-9.32-1.35-15.25,0.45-20.93,6.91c3.12,2.09,5.97,4.62,9.29,6.05c3.54,1.52,3.58,3.87,3.15,6.83c-0.58,4.04-1.4,8.07-1.64,12.13
			c-0.22,3.81,0.5,7.42-2.61,10.86c-2.65,2.93-2.66,7.1-0.54,10.79c3.61,6.28,7.36,12.48,10.84,18.82c0.66,1.2,0.7,3.07,0.31,4.42
			c-0.44,1.53-2.44,2.85-2.42,4.23c0.05,2.53,0.4,5.61,1.9,7.41c2.12,2.54,5.56,1.88,7.34-0.73c2.54-3.73,4.76-2.45,6.7-0.05
			c9.3,11.53,23.05,15.01,36.05,19.3c5,1.65,11.39,0.58,16.69-0.9c2.4-0.67,4.05-5.21,5.26-8.3c0.37-0.94-1.94-2.86-2.92-4.4
			c-3.79-5.95-9.25-11.49-10.9-18c-2.44-9.58-3.05-19.87-2.73-29.81c0.21-6.72,1.92-14.28,10.97-16.03
			c0.93-0.18,2.19-2.76,1.94-3.93c-0.31-1.46-1.94-3.6-3.18-3.73c-6.12-0.62-6.36-4.3-5.91-9.16c1.07-11.46,6.5-20.74,14.03-28.96
			c0.96-1.04,3.23-1.19,4.9-1.18c1.43,0,2.99,1.41,4.24,1.12c1.68-0.4,3.54-1.56,4.48-2.96c0.43-0.64-0.9-2.84-1.88-3.94
			c-0.83-0.93-2.26-1.36-3.48-1.88c-5.16-2.17-7.1-6.43-5.37-11.76c7.6-23.35,22.73-39.6,45.7-48.43c1.04-0.4,2.27-0.82,3.31-0.65
			c4.71,0.76,9.57,1.22,14.03,2.78c3.54,1.24,7.27,3.32,9.69,6.09c5.47,6.26,10.49,13.23,10.59,21.96
			c0.07,5.85-0.58,11.95-2.27,17.53c-2.33,7.67-5.6,15.12-9.12,22.35c-2.36,4.86-7.22,5.96-12.34,5.16
			c-5.3-0.83-10.57-1.88-15.86-2.84c-0.27,0.47-0.54,0.93-0.8,1.4c1.63,1.31,3.15,2.81,4.91,3.9c4.21,2.61,5.55,6.11,3.47,10.61
			c-1.8,3.91-3.76,7.77-5.92,11.49c-0.5,0.85-2.15,1.51-3.23,1.46c-5.28-0.25-10.54-0.82-15.82-1.18c-3.04-0.21-4.2,1.47-2.73,4
			c1.01,1.73,2.76,3.33,4.56,4.24c4.53,2.27,6.08,5.26,5.33,10.21c-1.28,8.49-2.41,17-3.3,25.54c-0.27,2.56-0.86,3.93-3.58,4.36
			c-4.7,0.75-7.18,3.65-7.29,9.28c1.86-0.16,3.56-0.12,5.18-0.48c4.68-1.03,7.75,0.79,8.47,5.64c0.73,4.84,0.23,9.85,3.68,14.13
			c0.86,1.07-0.02,3.79-0.51,5.65c-1,3.83-0.68,6.75,4.14,6.81c3.74,0.05,5.48,2.14,6.92,5.3c4.14,9.07,13.69,12.97,23.24,9.69
			c2.97-1.02,5.9-2.19,8.82-3.34c5.36-2.11,10.22-4.28,13.15-10.2c3.26-6.6,8.05-12.44,12.29-18.53c0.55-0.79,1.75-1.38,2.71-1.49
			c0.41-0.05,1.57,1.59,1.39,2.13c-2.95,8.91-4.48,18.83-9.51,26.4c-8.24,12.4-19.52,22.49-32.33,30.5c-1.67,0-3.33,0-5,0
			c-1.52-0.95-3.41-1.59-4.47-2.91c-2.74-3.38-4.62-1.81-6.59,0.67c-0.61,0.77-1.29,1.49-1.93,2.24c-0.67,0-1.33,0-2,0
			c-3.08-0.68-6.22-1.16-9.24-2.06c-10.54-3.15-19.34-9.25-27.32-16.63c-4.55-4.21-5.28-9.79-2.51-15.39
			c0.83-1.68,0.88-3.75,1.14-4.95c-7.67,2.18-14.72,4.71-21.98,6.1c-9.68,1.85-19.52,2.85-29.3,4.14c-4.53,0.6-9.33,0.27-13.59,1.65
			c-9.4,3.05-17.85,0.8-25.93-3.6c-3.7-2.02-6.79-5.16-10.09-7.88c-6.96-5.72-7.68-8.14-5.06-16.65c0.33-1.06,0.84-2.05,1.42-3.42
			c-2.39,0.59-4.46,1.57-6.46,1.45c-2.07-0.12-4.96-0.7-5.97-2.14c-3.65-5.23-7.25-10.66-9.8-16.48
			c-5.29-12.06-9.96-24.4-14.74-36.68c-2.15-5.54,1.79-11.42,7.32-11.72c1.74-0.09,4.72-1.02,4.87-1.93
			c0.27-1.74-0.82-3.88-1.84-5.56c-0.73-1.2-2.16-2.09-3.45-2.79c-4.71-2.53-5.28-6.19-3.76-10.98c1.53-4.86,2.57-9.88,3.64-14.86
			c0.95-4.43,1.63-8.92,2.46-13.37c0.73-3.92,2.21-6.72,7.09-6.33c1.78,0.14,4.09-0.85,5.46-2.09c5.19-4.71,6.86-9.17,1.26-11.67
			c-6.61-2.94-7.23-8.55-2.37-14.26c1.76-2.07,3.15-4.55,4.33-7.02c2.04-4.28,2.99-9.32,5.83-12.92
			c5.93-7.53,12.55-14.62,21.55-18.74c2.63-1.2,5.37-2.16,8.06-3.23C422.33,156,423.67,156,425,156z"/>
	</g>
</g>
</svg>
