<?xml version="1.0" encoding="utf-8"?>
<!-- Generator: Adobe Illustrator 26.2.1, SVG Export Plug-In . SVG Version: 6.00 Build 0)  -->
<svg version="1.1" id="Layer_1" xmlns="http://www.w3.org/2000/svg" xmlns:xlink="http://www.w3.org/1999/xlink" x="0px" y="0px"
	 viewBox="0 0 960 560" style="enable-background:new 0 0 960 560;" xml:space="preserve">
<g>
	<g>
		<path d="M450,406c-2.24-4.51-5.5-8.81-6.49-13.58c-1.47-7.06-1.51-14.44-1.78-21.7c-0.12-3.25,0.68-6.53,1.07-9.86
			c2.08,0.67,3.76,1.22,5.8,1.88c0-1.3,0.2-2.02-0.03-2.19c-6.17-4.8-4.46-9.8-1.88-16.14c2.86-7.03,3.34-14.99,5.15-22.48
			c1.48-6.08,3.27-12.1,5.16-18.07c1.65-5.21,3.69-10.29,5.41-15.48c0.67-2.02,1.4-4.21,1.29-6.28c-0.35-6.33,1.36-10.49,8.51-11.52
			c3.32-0.47,4.09-5.47,1.08-7.5c-3.89-2.62-2.53-5-0.96-7.98c2.76-5.24,5.36-10.56,7.95-15.89c0.39-0.81,0.39-1.81,0.57-2.73
			c-0.44-0.34-0.89-0.68-1.33-1.02c-1.6,1.85-4.27,3.52-4.62,5.59c-1.68,9.8-8.75,9.37-15.9,9.09c-4.81-0.19-9.62-0.53-14.43-0.71
			c-4-0.15-5.85-2.22-5.37-6.1c1.32-10.66,2.52-21.35,4.4-31.92c0.41-2.31,3.17-4.55,5.35-6.13c3.13-2.27,3.6-3.99-0.2-5.54
			c-4.01-1.63-4.53-4.01-2.9-7.83c1.29-3.02,1.86-6.38,2.54-9.63c2.48-11.82,7.16-21.94,19.63-26.29c3.67,0,7.33,0,11,0
			c3.93,1.52,8.86,2.37,9.09,7.65c0.25,5.68-0.32,11.41-0.94,17.08c-0.14,1.28-1.94,2.39-2.82,3.39c2.21,1,5.51,1.46,6.49,3.21
			c1.06,1.89,0.22,5.05-0.27,7.56c-0.81,4.2-2.01,8.33-3.15,12.95c1.94,0,3.93,0.38,5.7-0.07c6.04-1.55,11.99-3.41,17.99-5.11
			c5.14-1.46,10.78,2.13,10.22,7.37c-0.56,5.29-2.11,10.7-4.34,15.54c-3.86,8.38-9.15,16.11-12.78,24.57
			c-2.92,6.79-4.25,14.26-6.32,21.42c-0.83,2.86-1.47,5.83-2.73,8.5c-1.51,3.21-2.83,6.86-7.66,6.64c-1.43-0.06-2.91,1.14-4.32,1.74
			c0.24,0.79,0.24,1.28,0.43,1.36c6.73,2.99,6.63,2.92,2.77,9.38c-3.31,5.55-6.62,11.13-9.36,16.97c-1.56,3.32-1.89,7.19-2.96,10.76
			c-2.28,7.61-4.55,15.24-7.19,22.73c-0.41,1.15-2.78,1.64-4.27,2.37c-2.28,1.12-4.58,2.19-6.87,3.29c0.19,0.57,0.38,1.14,0.57,1.71
			c2.49,0,4.98,0,8.7,0c-4.46,16.85-8.72,32.92-12.97,48.99C451.33,406,450.67,406,450,406z"/>
	</g>
</g>
</svg>
