<?xml version="1.0" encoding="utf-8"?>
<!-- Generator: Adobe Illustrator 26.2.1, SVG Export Plug-In . SVG Version: 6.00 Build 0)  -->
<svg version="1.1" id="Layer_1" xmlns="http://www.w3.org/2000/svg" xmlns:xlink="http://www.w3.org/1999/xlink" x="0px" y="0px"
	 viewBox="0 0 960 560" style="enable-background:new 0 0 960 560;" xml:space="preserve">
<g>
	<g>
		<path d="M356,269c2.34-6.29,4.47-12.66,7.09-18.83c1.26-2.97,3.28-5.66,5.21-8.29c2.05-2.8,4.43-4.56,8.48-3.22
			c1.57,0.52,3.87-1.2,5.83-1.9c-0.68-1.53-0.97-3.49-2.1-4.5c-2.84-2.51-2.47-4.75-0.8-7.75c7.28-13.06,26.67-22.68,41.44-20.19
			c0.99,0.17,2.13,1.28,2.61,2.24c1.02,2.05,1.66,4.29,2.85,7.54c3.95-10.42,11.47-15.55,20.9-11.78
			c6.83,2.73,15.85,5.23,18.01,15.58c-0.44-0.29-0.17,0.04,0.1,0.04c3.31,0.04,7.88-1.34,9.67,0.31c3.99,3.69,7.01,8.65,9.61,13.53
			c2.21,4.14,3.27,8.89,4.95,13.66c3.92-5.12,7.76-9.49,10.83-14.34c2.6-4.1,5.2-5.16,9.23-2.3c0.61,0.44,1.53,0.45,2.26,0.65
			c0.23-0.44,0.57-0.79,0.49-0.98c-3.23-8-1.78-10.54,6.61-12.44c2.95-0.67,6.01-1.69,8.5-3.33c6.42-4.22,8.21-4.15,13.12,1.49
			c0.69,0.8,2.15,1.83,2.78,1.57c0.95-0.38,2.06-1.77,2.11-2.78c0.3-5.61,3.04-8.48,8.68-8.49c12.36-0.01,24.72,0,37.08,0
			c0.6,0.72,1.21,1.44,1.81,2.17c-1.53,0.66-3.33,0.99-4.54,2.02c-10.61,9.03-21.08,18.23-31.72,27.23
			c-1.02,0.86-2.96,1.17-4.33,0.94c-1.74-0.29-3.29-1.69-5.03-2.06c-1.65-0.36-3.45-0.01-5.18,0.02c0.6,1.49,1.45,2.94,1.72,4.48
			c0.28,1.61,0.66,4.22-0.17,4.84c-4.36,3.27-8.22,6.65-9.37,12.36c-0.15,0.74-1.69,1.41-2.71,1.71c-2.18,0.65-4.44,1.04-8.11,1.85
			c2.39,1.55,4.08,2.09,4.81,3.24c1.13,1.78,2.75,4.44,2.15,5.9c-2.25,5.52-0.83,10.46,1.36,15.31c1.39,3.08,0.39,4.38-1.98,6.51
			c-2.92,2.62-4.74,6.47-7.21,10.04c1.66,0.68,2.05,0.98,2.21,0.89c5.47-3.16,9.43-3.02,12.03,3.91c0.87,2.33,4.45,3.64,6.98,5.56
			c-1.51,2.22-2.8,4.11-4.74,6.97c2.44-0.11,4.59,0.45,5.6-0.38c2.89-2.36,4.89-1.12,7.48,0.46c5.49,3.35,11.01,6.85,17.91,6.56
			c1.06-0.05,2.16,0.66,3.39,1.07c-0.3,2.48-0.57,4.78-0.85,7.07c5.14-6.11,10.7-1.06,15.67-1.13c5.75-0.09,11.51,1.24,17.27,1.96
			c0,0.33,0,0.67,0,1c-5.57,4.67-10.91,9.67-16.8,13.9c-4.82,3.47-10.23,6.15-15.51,8.94c-8.46,4.47-17.55,2.08-26.39,2.01
			c-4.27-0.03-7.26-1.99-7.42-6.87c-0.07-2.12-0.35-4.27-0.9-6.32c-0.36-1.35-1.1-3.1-2.17-3.61c-0.89-0.43-2.69,0.43-3.78,1.18
			c-1.34,0.93-2.2,2.56-3.56,3.45c-1.06,0.7-2.83,1.39-3.79,0.97c-4.24-1.85-8.57-3.72-12.39-6.29
			c-8.48-5.71-16.66-11.84-24.99-17.82c-8.83,5.2-16.33,14.89-28.99,10.32c-0.6,8.9-2.62,8.26-9.14,9.67
			c-1.79,0.39-3.63,0.7-5.31,1.39c-12.29,5.03-23.38,0.34-34.48-4.2c-2.76-1.13-3.94-3.14-3.46-6.32c0.5-3.36,0.45-6.79,0.65-10.25
			c-0.6,0.06-1.07-0.03-1.2,0.15c-1.23,1.56-2.36,3.19-3.59,4.75c-2.93,3.72-9.36,4.49-10.51,0.86c-1.61-5.06-4.01-7.66-9.3-7.81
			c-0.92-0.03-1.85-1.3-2.7-2.09c-2.18-2.03-4.46-3.99-6.45-6.2c-5.71-6.33-8.91-13.44-6.44-22.2c0.42-1.48,0.44-3.07,0.77-5.57
			c-7.07,2.68-9.79-1.37-12.15-6.01C356,277,356,273,356,269z M388.15,278.56c2.23,0.42,4.62,0.51,6.67,1.38
			c1.09,0.46,2.55,2.96,2.25,3.36c-3.86,5.2,0.13,7.99,3.36,10.55c3.2,2.53,5.16,4.93,1.38,10.34c7.67-4.15,11.34-0.31,14.93,3.84
			c0.75,0.87,1.67,1.76,2.7,2.19c5.68,2.39,10.94,4.94,7.87,13.44c2.57-1.83,4.43-3.52,5.47-5.63c1.12-2.27,2.16-3.28,4.9-2.87
			c3.02,0.46,6.18,0.43,9.23,0.1c2.81-0.3,4.83-0.55,6.56,2.61c2.48,4.54,4.88,4.22,9.04,1.41c4.55-3.07,9.71-5.24,14.9-7.95
			c0.1,1.75,0.15,2.65,0.22,3.74c3.51-1.13,5.79-2.77,4.21-6.3c-2.26-5.06-0.37-7.77,4.38-9.63c1.63-0.63,2.88-2.21,4.31-3.35
			c-0.13-0.47-0.25-0.94-0.38-1.41c-5.79,0.9-6.42-2.87-7.04-6.75c-0.4-2.54-0.97-5.06-1.63-8.42c-2.53,1.71-4.5,2.85-6.24,4.27
			c-4.22,3.46-9.97,5.09-13.96,2.77c-7.14-4.14-15.73-7.92-16.36-18.43c-0.15-2.53-2.72-5.19-2.26-7.38
			c0.38-1.83,3.58-3.07,5.52-4.58c0.04-0.55,0.08-1.1,0.11-1.65c-6.81,5.6-11.63,2.38-16.17-2.15c-0.11-0.11-0.3-0.15-0.46-0.17
			c-5.54-0.77-11.09-1.54-17.4-2.41c-0.54-1.54-1.55-4.45-2.56-7.37c-0.63,0.16-1.25,0.32-1.88,0.48c0.52,3.3,0.72,6.69,1.66,9.86
			c0.7,2.39,0.47,3.37-1.84,4.66c-2.17,1.22-4.09,3.36-5.41,5.53c-1.69,2.78-2.67,5.99-3.95,9
			C392.21,270.39,389.29,272.02,388.15,278.56z"/>
	</g>
</g>
</svg>
