<?xml version="1.0" encoding="utf-8"?>
<!-- Generator: Adobe Illustrator 26.2.1, SVG Export Plug-In . SVG Version: 6.00 Build 0)  -->
<svg version="1.1" id="Layer_1" xmlns="http://www.w3.org/2000/svg" xmlns:xlink="http://www.w3.org/1999/xlink" x="0px" y="0px"
	 viewBox="0 0 960 560" style="enable-background:new 0 0 960 560;" xml:space="preserve">
<g>
	<g>
		<path d="M356,359c0-0.67,0-1.33,0-2c1.32-1.42,2.72-2.78,3.95-4.28c4.11-5.01,7.88-10.32,12.34-14.99
			c1.98-2.08,5.29-2.9,8.46-4.52c2.67-2.68,5.65-6.28,9.25-9.07c3.36-2.6,5.98-8.32,11.7-3.87c3.68-10.17,15.85-19.63,22.76-18.03
			c0.69-3.66,9.01-11.49,12.16-12.23c5.2-1.22,10.31-2.87,15.36-4.62c1.24-0.43,2.55-1.73,3.08-2.96c1.98-4.56,3.66-9.26,5.2-13.25
			c-0.48-2.84-0.95-5.68-1.65-9.81c-4.5,1.21-9.63,2.57-14.74,3.98c-2.71,0.74-5.44,1.45-8.07,2.41c-1.21,0.44-2.44,1.28-3.26,2.26
			c-2.47,2.94-4.52,6.25-7.15,9.03c-2.61,2.76-5.72,5.05-8.62,7.53c-0.24,0.2-0.59,0.26-1,0.44c-1.05-0.52-2.17-1.07-3.68-1.82
			c-1.86,6.48-6.48,9.31-12.42,10.46c-3.89,0.75-6.32-0.57-7.48-4.6c-0.76-2.63-2.45-4.98-3.43-7.57c-0.68-1.79-0.87-3.77-1.25-5.66
			c-0.09-0.45-0.1-0.93-0.15-1.41c-1.54,0.08-2.96,0.16-3.79,0.2c-3.46-6.28-6.41-12.24-9.92-17.86
			c-3.26-5.22-3.75-10.34-0.54-16.42c-2.53,0.91-4.31,1.56-7.03,2.54c-1.46-4.69-4.11-9.17-3.93-13.52
			c0.3-7.39,6.34-11.13,12.52-14.04c4.95-2.33,8.84-0.69,11.47,3.75c2.53,4.28,4.54,8.87,7,13.2c1.49,2.62,0.54,3.99-1.42,5.9
			c-3.03,2.96-5.51,6.48-8.22,9.77c0.38,0.32,0.75,0.63,1.13,0.95c0.55-0.33,1.14-0.6,1.63-1c7.8-6.33,8.87-6.23,13.98,2.55
			c1.25,2.15,1.06,5.14,2.29,7.32c1.84,3.28,4.35,6.19,6.62,9.31c5.01-2.16,9.09-9.68,17.34-6.64c1.31-7.8,10.51-13.56,18.69-11.72
			c1.59-4.84,10.04-6.81,14.68-3.58c7.07-2.65,6.05-9.33,8.16-15.54c-5.39,0.99-10.05,1.85-14.74,2.72
			c-1.32-0.98-2.87-2.14-4.62-3.43c-1.44,9.89-9.61,8.71-15.22,11.43c-1.17-2.13-2.09-3.82-3.42-6.25
			c-1.6,6.34-8.7,12.3-14.23,11.21c-2.14-0.42-3.45-5.27-5.04-8.16c-0.55-1-0.84-2.17-1.15-3.28c-0.63-2.23-1.2-4.48-1.97-7.39
			c-0.1,0.01-1.68,0.09-3.63,0.2c-1.53-4.96-3.01-9.78-4.69-15.25c-6.19-1.17-9.8-4.64-9.88-13.64c-0.03-3.15,3.67-7.34,6.77-9.28
			c4.56-2.85,10.14-6.13,15.57-1.55c3.88,3.28,6.48,13.81,4.8,16.87c3.79,2.14,5.14,6.94,2.94,11.98c7.75-3.21,4.7,5.37,6.58,6.25
			c6.16-1.41,12.51-0.99,15.31-3.95c4.43-4.66,9.92-2.8,14.44-5.09c0.83-0.42,2.23,0.44,3.35,0.4c4.6-0.16,9.22-0.28,13.78-0.82
			c0.72-0.08,1.23-2.19,1.8-3.37c1.8-3.74,3.57-7.49,5.39-11.22c1.97-4.04,4.55-6.64,7.96-4.27c2.64-2.72,4.59-5.3,7.06-7.18
			c7.27-5.53,16.28-7.86,23.99-12.79c5.79-3.7,12.66-5.79,19.19-8.24c5.96-2.24,12.1-4.02,19.45-6.42
			c-8.97,6.26-16.24,13.05-24.84,16.64c-4.33,1.81-6.75,4.25-10.01,6.86c-6.39,5.11-13.8,8.92-20.74,13.35
			c-0.86,0.55-1.52,1.54-2.02,2.47c-1.07,2.01-1.82,4.21-2.98,6.17c-1.75,2.96-3.74,5.78-5.65,8.69c5.35,3.04,9.22,2.52,13.14-1.83
			c2.67-2.95,6.6-4.76,9.5-6.76c2.43-2.24,4.23-4.54,6.57-5.9c3.11-1.81,6.67-2.84,9.98-4.33c1.11-0.5,2.12-1.32,3.06-2.13
			c2.32-2.01,4.35-4.44,6.89-6.07c4.46-2.87,9.18-5.35,13.87-7.84c6.81-3.62,13.69-7.1,20.54-10.64c0.27,0.4,0.55,0.8,0.82,1.2
			c-1.25,1.15-2.46,2.35-3.75,3.45c-6.08,5.17-12.28,10.2-18.22,15.53c-2.12,1.9-3.2,4.93-7.05,4.06c-0.81-0.18-2.29,1.56-3.09,2.67
			c-1.74,2.43-2.87,5.4-4.93,7.48c-4.45,4.48-9.4,8.46-13.97,12.81c-1.55,1.48-2.61,3.47-3.96,5.33c5.76,1.82,12.35-0.44,14.6,5.88
			c2.25-0.67,4.56-2.23,6.2-1.71c7.4,2.36,14.69,5.14,21.85,8.16c1.83,0.77,3.04,3,4.75,4.78c2.18-2.38,4.9-1.42,7.74,0.62
			c5.7,4.1,12.24,6.65,16.34,13.35c3.1,5.08,8.93,8.49,13.55,12.65c0,0.67,0,1.33,0,2c-5.93-2.51-11.96-4.79-17.75-7.6
			c-4.52-2.19-8.71-5.05-13.05-7.6c-0.73-0.81-2.17-0.49-3.39-0.87c-6-1.83-11.99-3.72-17.87-5.88c-1.79-0.66-3.63-1.96-4.75-3.48
			c-1.8-2.43-3.38-2.75-5.82-1.06c-1.22,0.84-2.95,1.74-4.26,1.52c-4.83-0.82-9.65-1.83-14.33-3.25
			c-8.48-2.56-11.25-0.99-12.91,7.95c-0.05,0.29,0.12,0.62,0.14,0.68c3.92,1.77,7.69,3.48,12.32,5.58c2.91-1.88,9.88-0.47,13.36,3.6
			c7.3-2.22,14.23-0.17,20.48,2.25c9.63,3.73,18.74,8.84,28,13.51c4.89,2.47,9.63,5.24,14.44,7.87c-0.96,1.21-1.43,1.47-1.81,1.36
			c-8.31-2.27-16.57-4.76-24.94-6.8c-4.98-1.22-8.72-6.63-15.17-3.59c-2.24,1.06-6.08-0.94-9.07-1.9c-2.08-0.67-3.96-1.95-6.16-3.07
			c-0.9,0.36-2.89,1.99-4.17,1.55c-9.12-3.14-18.76-2.98-28.06-4.8c-1.57-0.31-3.19-0.4-4.4-0.54c-0.86,2.77-1.63,5.27-2.43,7.84
			c0.8,1.29,1.91,3.1,2.89,4.68c5.47,1.72,12.23-3.56,16.35,3.66c4.58-5.55,15.08-2.12,25.28,8.19c-0.66,1.38-1.33,2.8-2.56,5.38
			c7.37-1.71,13.31-0.92,16.69,5.61c2.67,5.17,9.77,9.02,4.65,16.64c4.04,1.64,8.42,2.5,8.09,8.15c-0.21,3.55,0.38,7.15,0.63,11.05
			c-0.77,0.54-1.93,1.37-3.16,2.23c1.08,1.84,1.99,3.38,2.96,5.03c-3.94,7.03-7.82,13.96-11.72,20.93c-4.2-2.17-6.46-2.66-5.16,2.53
			c0.29,1.15-0.74,3-1.7,4c-1.83,1.88-3.89,3.67-6.16,4.97c-3.22,1.85-6.79,4.57-10.08,4.39c-2.95-0.16-5.71-3.72-8.12-5.46
			c0.07,0.28,0.21,1.61,0.71,2.79c1.74,4.12,0.79,6.32-4.01,6.2c-2.64-0.07-5.29-0.03-7.93,0.07c-9.41,0.33-12.36-2.37-12.45-11.73
			c-0.03-2.82,0.11-5.68,0.53-8.47c0.93-6.08,8.04-10.95,13.15-9.32c3.17,1.02,6.42,1.79,9.63,2.67c1.33,0.57,1.92,2.45,2.64,4.28
			c0.68,1.73,1.49,3.4,2.25,5.1c0.38-0.12,0.76-0.24,1.14-0.35c-0.66-3.96-1.32-7.92-1.97-11.82c8.57-2.1,14.48-6.52,17.13-14.18
			c2.82-0.45,5.36-0.85,7.89-1.26c-0.01-0.47-0.03-0.95-0.04-1.42c-1.55-0.73-3.1-1.45-4.96-2.32c2.95-6.72-1.8-10.46-5.43-14.43
			c-2.43-2.66-4.21-4.91-2.01-8.6c0.67-1.12,0.28-2.87,0.38-4.33c-0.46-0.12-0.92-0.23-1.38-0.35c-1.26,1.99-2.53,3.97-3.82,6
			c-2.89-1.47-5.78-2.93-8.49-4.31c-0.96-4.34,1.19-9.34-4.35-12.92c-0.6,3.59-1.1,6.53-1.56,9.29c-8.48-1.15-16.56-2.25-24.43-3.32
			c-3.74,7.83,3.2,16.85-4.24,24.2c2.38,0.38,3.94,0.64,5.33,0.86c0,6.04-0.31,11.85,0.11,17.6c0.26,3.56-0.38,5.97-3.56,7.88
			c-2.62,1.58-5.44,3.35-3.69,7.5c0.31,0.73-1.45,2.55-2.52,3.58c-3.09,2.97-6.75,5.46-9.36,8.78c-2.83,3.61-4.4,8.44-11.24,6.3
			c2.88,5.83-0.06,8.34-3.62,11.06c-3.25,2.48-6.31,5.46-8.7,8.76c-4.9,6.77-7.68,8.05-16.05,5.93
			c-9.33-2.36-12.13-10.81-5.93-17.96c1.19-1.38,2.4-2.87,3.91-3.82c2.73-1.7,6.1-2.57,8.47-4.63c3.23-2.8,5.56-6.63,8.7-9.56
			c1.69-1.57,4.27-2.18,5.96-2.99c2.02-3.06,3.8-6.22,6.05-8.98c1.32-1.63,3.3-2.81,5.16-3.89c2.64-1.53,3.7-3.55,3.25-6.59
			c-0.24-1.61-0.52-3.61,0.21-4.86c0.74-1.25,2.7-1.78,4.14-2.64c-3.84-4.68-3.1-13.96,1.86-22.33c-7.41-1.63-2.74-7.73-4.18-11.64
			c-4.94-0.3-8.54-0.4-9.8,6.28c-0.97,5.15,1.49,12.57-7.33,15.15c2.88,0.78,4.59,1.24,6.38,1.73c-0.5,5.04-0.66,9.85-1.59,14.51
			c-0.36,1.82-2.12,4.03-3.82,4.78c-3.23,1.44-6.88,1.96-8.96,2.5c-2.27,2.74-3.55,5.16-5.55,6.53c-4.5,3.08-9.45,5.51-14.04,8.47
			c-2.88,1.85-5.42,3.78-8.13-1.46c2.25,8.33-3.13,11.34-8.05,14.17c-2.63,1.51-5.98,1.79-9.02,2.55
			c-6.46,1.61-11.98-0.53-16.32-5.09c-5.91-6.2-4.17-12.81,3.8-16.18c1.36-0.57,2.63-1.41,3.85-2.27c3.08-2.18,6.03-4.71,8.83,0.47
			c0.51,0.94,2.12,1.28,3.38,1.99c0-3.5-1.25-8.24,0.22-9.34c5.38-4.03,11.03-8.54,16.64-7.75c4.89-3.13,8.62-5.52,12.35-7.9
			c1.07-0.68,2.7-1.09,3.15-2.05c1.78-3.86,3.19-7.89,4.78-11.99c-0.62-0.1-2.16-0.35-3.67-0.6c0.35-3.27,0.68-6.26,1.05-9.73
			c-1.7,0.6-2.65,0.87-3.55,1.26c-10.04,4.31-20.07,8.63-30.11,12.94c-0.73,0.31-1.81,0.91-2.25,0.62
			c-5.51-3.51-6.55,2.14-9.15,4.43c-1.99,1.75-3.62,3.95-5.74,5.51c-4,2.93-8.02,5.98-12.43,8.15c-4.07,2-8.38,2.1-12.38,5.92
			C372.18,350.69,363.61,354.34,356,359z M478.16,271.88c5.79,2.24,8.6-2.2,11.76-4.47c-0.82-1.83-1.57-3.51-2.33-5.21
			C479.07,261.95,478.35,262.66,478.16,271.88z M495.79,235.48c-6.89-3.93-11.35-2.07-11.45,4.77c2.99,0,6,0,9.52,0
			C494.41,238.89,495.11,237.15,495.79,235.48z"/>
	</g>
</g>
</svg>
