<?xml version="1.0" encoding="utf-8"?>
<!-- Generator: Adobe Illustrator 26.2.1, SVG Export Plug-In . SVG Version: 6.00 Build 0)  -->
<svg version="1.1" id="Layer_1" xmlns="http://www.w3.org/2000/svg" xmlns:xlink="http://www.w3.org/1999/xlink" x="0px" y="0px"
	 viewBox="0 0 960 560" style="enable-background:new 0 0 960 560;" xml:space="preserve">
<g>
	<g>
		<path d="M606,356c-1.66-0.34-3.69-0.19-4.91-1.1c-8.71-6.52-18.08-11.66-28.33-15.37c-3.18-1.15-5.7-4.02-8.82-5.44
			c-6.92-3.15-13.93-6.19-21.11-8.69c-5.46-1.9-10.4-3.84-13.52-9.25c-2.17-3.76-8.71-3.95-12.06-1.11
			c-4.62,3.92-9.88,1.27-14.82,0.97c-3.43-0.21-6.94-1.01-10.16-2.22c-1.59-0.59-2.7-2.63-3.88-4.13c-0.86-1.09-1.23-2.97-2.26-3.38
			c-0.92-0.36-2.44,0.85-3.71,1.31c-2.96,1.08-5.9,2.89-8.91,3.03c-8.42,0.4-16.89,0.35-25.31-0.12c-2.01-0.11-3.88-2.54-4.91-3.26
			c-3.04,1.11-5.8,2.12-8.57,3.12c-5.72,2.06-11.79,3.45-17.07,6.32c-7.36,3.99-7.11,4.46-13.99-1.44c0.91,3.12,1.5,5.16,2,6.87
			c-7.42,5.17-14.73,10.55-22.33,15.47c-8.81,5.7-21.74,0.73-26.49-9.86c-0.26-0.58-0.55-1.15-0.82-1.72c0-2.33,0-4.67,0-7
			c1.31-3.72,2.48-7.5,3.96-11.16c2.26-5.61,6.42-7.45,12.3-6.47c1.72,0.29,3.85-0.95,5.48-1.98c0.31-0.2-0.45-3.12-1.41-4.08
			c-2.03-2.01-1.68-3.46-0.17-5.57c9.79-13.72,23.61-19.13,39.88-19.63c1.66-0.05,3.44,0.17,4.94-0.36
			c2.39-0.85,4.09-1.48,4.93-5.23c1.24-5.53,4.69-11.28,8.82-15.25c4.26-4.09,10.39-6.29,15.88-8.96c1.11-0.54,3.24,0.17,4.5,0.95
			c5.12,3.16,8.97,1.7,12.88-2.76c3.2-3.66,7.9-6.17,12.26-8.6c4.61-2.57,9.47-4.85,14.46-6.5c3.05-1.01,6.57-0.62,9.28-1.72
			c1.82-1.33,3.48-3.06,5.5-3.93c8.84-3.8,17.77-7.38,26.7-10.97c1.88-0.76,3.87-1.23,5.81-1.84c0.21,0.37,0.43,0.73,0.64,1.1
			c-3.14,3.41-6.16,6.93-9.43,10.21c-7.38,7.39-14.9,14.64-22.3,22.01c-3.51,3.5-7.37,5.59-12.7,3.74
			c-0.35,1.07-1.16,2.23-0.86,2.83c2.96,5.94-1.79,7.78-5.34,10.11c-4.94,3.24-10.02,6.25-16.34,10.17c3.35,1.25,5.1,1.91,6.85,2.56
			c4.92,1.82,10.1,3.18,14.65,5.69c1.87,1.03,2.54,4.46,3.48,6.9c0.79,2.07,1.18,4.3,1.75,6.46c1.67-0.81,3.27-1.81,5.02-2.36
			c1.94-0.61,4.25-1.58,5.97-1.04c6.12,1.93,12.1,4.34,18.04,6.8c2.28,0.94,4.25,2.6,6.45,3.76c7.21,3.83,14.92,7.28,10.86,17.82
			c1.02,0.15,1.41,0.34,1.65,0.23c6.96-3.42,6.64-3.07,12.39,2.09c7.98,7.16,16.51,13.71,24.76,20.57c2.42,2.01,4.83,4.06,6.97,6.36
			c3.94,4.25,7.68,8.7,11.5,13.06C606,354.67,606,355.33,606,356z"/>
	</g>
</g>
</svg>
