<?xml version="1.0" encoding="utf-8"?>
<!-- Generator: Adobe Illustrator 26.2.1, SVG Export Plug-In . SVG Version: 6.00 Build 0)  -->
<svg version="1.1" id="Layer_1" xmlns="http://www.w3.org/2000/svg" xmlns:xlink="http://www.w3.org/1999/xlink" x="0px" y="0px"
	 viewBox="0 0 960 560" style="enable-background:new 0 0 960 560;" xml:space="preserve">
<g>
	<g>
		<path d="M562,156c2,0,4,0,6,0c5.07,5.17,5.24,16.25,0.16,21.63c-2.16,2.29-4.72,4.19-7.03,6.33c-7.74,7.19-15.46,14.4-23.16,21.63
			c-0.31,0.29-0.21,0.98-0.46,1.39c-2.51,4.2-4.93,8.45-7.61,12.54c-5.49,8.35-15.51,13.39-17.7,24.21c-0.21,1.03-1.29,1.9-2.02,2.8
			c-5.64,6.99-11.34,13.94-16.92,20.99c-1.7,2.15-3.08,4.56-4.66,6.91c1.82,1.53,3.19,2.69,4.78,4.04c2.69-2.99,5.14-5.91,7.8-8.62
			c2.93-2.98,3.72-8.64,9.74-8c0.29,0.03,0.79-1.55,1.13-2.4c0.41-1.05,0.52-2.29,1.14-3.17c5.83-8.28,11.58-16.62,17.74-24.65
			c1.74-2.27,4.76-3.54,7.14-5.33c0.73-0.55,1.34-1.26,1.94-1.96c8.72-10.19,17.22-20.57,26.24-30.49c3.05-3.35,7.86-2.48,9.4,1.76
			c1.43,3.93,1.1,8.58,1.15,12.91c0.05,4.23-1.51,7.59-5.72,9.67c-2.94,1.45-5.38,3.89-8.14,5.75c-1.36,0.92-2.92,1.53-4.59,2.37
			c-0.36,1.15-0.46,3.36-1.6,4.67c-3.6,4.13-7.22,8.39-11.52,11.72c-4.03,3.12-5.42,9.62-11.99,9.57c-0.38,0-1.2,1.38-1.08,1.97
			c0.79,4.05-2.26,5.92-4.43,8.36c-5.76,6.47-11.6,12.87-17.11,19.55c-6.33,7.67-6.19,7.79,0.48,14.97c0.19,0.2,0.57,0.23,1.04,0.41
			c5.51-3.64,10.02-8.44,14.37-13.46c3.12-3.6,7.26-6.47,9.78-10.4c4.1-6.39,11.92-9.38,14.7-16.81c0.16-0.42,0.69-0.7,1.08-1.02
			c5.08-4.28,10.02-8.73,15.33-12.7c1.57-1.17,4.39-1.67,6.24-1.12c1.21,0.36,2.26,3.09,2.43,4.84c0.77,8.23-1.49,16.02-7.78,21.15
			c-4.45,3.63-8.6,9.24-16.03,8.22c0.71,4.96-2.16,7.98-5.61,10.91c-6.2,5.27-12.25,10.72-18.23,16.23
			c-1.88,1.73-3.36,3.9-4.73,5.51c2.21,2.61,4.02,4.73,5.79,6.81c4.32-3.04,8.19-5.76,12.43-8.74c0.32-1.2,0.19-3.81,1.4-4.82
			c8.3-6.89,16.79-13.57,25.48-19.96c1.32-0.97,4.46-0.86,5.96,0.06c5.76,3.52,5.16,13.31-0.61,16.83
			c-3.67,2.24-7.12,4.83-10.62,7.35c-2.49,1.79-4.9,3.71-7.34,5.58c-0.91,2.26-2.1,4.47-3.9,5.93c-2.96,2.4-6.41,4.19-9.48,6.47
			c-5.99,4.43-5.88,5.78-0.72,11.11c3.74,3.86,9.75,6.07,9.82,12.86c0.01,0.57,1.52,1.09,2.28,1.7c1.14,0.92,2.41,1.76,3.33,2.87
			c7.52,9.1,15.14,18.13,22.38,27.46c3.26,4.2,5.72,9.02,8.55,13.55c-0.38,0.27-0.77,0.54-1.15,0.8
			c-10.6-9.72-21.03-19.61-30.62-30.21c-2.06-1.35-4.71-2.19-6.68-3.84c-7.26-6.08-14.39-12.33-21.39-18.71
			c-3.16-2.88-4.77-1.63-6.63,2.06c7.49,2.38,5.14,12.88,13.09,15.01c9.77,11.52,19.6,22.99,29.27,34.6
			c1.64,1.97,2.59,4.52,3.86,6.8c-0.51,0.39-1.02,0.78-1.52,1.18c-18.15-15.88-36.3-31.76-54.45-47.63
			c-0.45,0.42-0.9,0.84-1.35,1.26c4.12,10.07,13.98,15.45,20.92,23.15c7.17,7.96,15.42,14.93,21.48,23.96
			c-2.26-0.6-4.19-1.53-5.92-2.74c-14.39-10.1-28.79-20.19-43.08-30.43c-6.56-4.7-6.5-4.85-10.9,1.99
			c8.7,9.55,17.36,19.04,26.01,28.53c-0.45,0.51-0.9,1.02-1.35,1.53c-1.57-0.75-3.25-1.32-4.69-2.27
			c-8.3-5.51-16.67-10.94-24.77-16.74c-4.35-3.12-7.87-2.4-11.63,0.73c-8.04,6.67-16.14,13.27-24.27,19.84
			c-1.04,0.84-2.4,1.27-3.61,1.9c-0.52-0.56-1.04-1.12-1.56-1.68c7.76-9.93,15.52-19.86,23.32-29.84c-2.19-3.55-4.67-3.28-7.54-0.51
			c-8.05,7.77-16.12,15.52-24.29,23.17c-2.9,2.72-6.09,5.14-9.15,7.7c-0.5-0.41-1-0.82-1.5-1.23c1.03-2.11,1.79-4.42,3.13-6.31
			c7.7-10.86,15.53-21.62,23.31-32.4c-2.9-2.48-5.14-4.39-8.34-7.12c-2.09,3.3-3.97,6.23-5.82,9.18c-1.21,1.94-2.06,4.22-3.62,5.81
			c-10.37,10.56-20.89,20.98-31.37,31.42c-0.53,0.53-1.22,0.9-1.84,1.34c-0.42-0.31-0.84-0.62-1.27-0.93
			c3.75-9.86,11.73-17.21,17.1-26.11c5.4-8.95,11.52-17.46,17.46-26.37c-1.92-1.2-3.83-2.39-6.79-4.25
			C414.46,366.45,398.73,386.23,383,406c-0.67,0-1.33,0-2,0c0.16-1.45-0.12-3.14,0.54-4.31c6.96-12.27,13.83-24.6,21.21-36.62
			c5.63-9.17,11.96-17.9,18.42-27.47c-3.31-2-6.54-3.66-9.42-5.78c-2.86-2.1-5.02-5.43-8.11-6.86c-5.07-2.35-10.57-3.89-16.02-5.23
			c-8.67-2.14-14.28-11.48-11.7-20.21c0.91-3.06,2.34-4.73,5.75-2.44c5.91,3.97,12.04,7.62,17.93,11.63
			c4.15,2.83,7.82,8.02,12.13,8.54c5.15,0.62,8.48,2.71,12.22,5.45c1.42,1.04,4.74,1.63,5.72,0.76c2.96-2.63,5.2-6.08,7.11-8.46
			c-3.22-3.96-5.53-6.9-7.96-9.75c-0.58-0.68-1.49-1.17-2.34-1.54c-2.36-1.04-4.89-1.76-7.14-2.99c-4.51-2.47-8.93-5.11-13.3-7.83
			c-5.67-3.53-11.94-6.49-13.96-13.84c-4.84,1.24-8.88,0.76-11.88-3.75c-3.52-5.31-6.51-10.75-4.08-17.21
			c1.06-2.82,3.44-5.04,7.13-3.23c2.37,1.16,5.17,1.82,7.04,3.52c4.02,3.63,7.22,8.21,11.39,11.63c5.44,4.46,12.32,7.32,14.3,14.85
			c6.17-1.75,6.31-1.66,31.74,19.89c2.33-2.53,4.67-5.05,7.47-8.08c-3.56-3.27-6.48-6.48-9.92-8.96c-4.21-3.04-8.63-5.63-10.36-11
			c-0.25-0.77-1.63-1.24-2.55-1.72c-1.56-0.82-3.37-1.3-4.73-2.36c-4-3.16-7.75-6.63-11.73-9.8c-7.86-6.26-17.2-11.11-19.66-20.48
			c-3.21-0.92-5.83-1.03-7.63-2.3c-4.86-3.41-11.65-6.45-13.47-11.24c-2.42-6.37-1.32-14.29-0.8-21.48c0.2-2.78,3.01-4.85,6.37-2.05
			c6.66,5.55,12.83,11.49,16.4,19.38c2.12,0.65,3.94,1.68,5.59,2.92c9.8,7.36,13.88,20.38,25.58,25.88
			c0.28,0.13,0.49,0.45,0.72,0.69c4.15,4.32,8.12,8.84,12.49,12.92c6.14,5.73,12.57,11.14,18.76,16.58c1.04-1.47,2.93-4.14,4.46-6.3
			c-4.53-6.1-8.77-11.87-13.11-17.58c-0.55-0.73-1.57-1.09-2.35-1.65c-10.32-7.35-19.72-15.57-25.52-27.16
			c-1.69-3.37-1.36-8.64-7.55-7.67c-0.53,0.08-1.27-0.98-1.86-1.56c-1.89-1.88-3.97-3.62-5.59-5.72
			c-6.5-8.46-15.55-14.6-20.49-24.66c-2.62-5.33-8.46-9.07-12.78-13.59c-2.6-2.73-2.69-12.73,0.1-15.47
			c3.61-3.55,7.65-1.52,10.32,0.96c8.23,7.65,15.99,15.8,23.84,23.85c0.7,0.72,1.1,2.17,0.97,3.19c-0.42,3.22-0.31,5.71,3.96,5.62
			c0.61-0.01,1.36,0.87,1.85,1.49c7.63,9.78,15.23,19.59,22.86,29.38c0.39,0.5,0.98,0.83,1.49,1.23c2.9,2.33,6.17,4.33,8.65,7.05
			c9.18,10.05,18.1,20.34,27.24,30.67c5.63-5.6,8.61-12.51,16.53-15.42c0.31-1.7,0.03-4.93,1.43-7.01
			c7.46-11.08,15.29-21.91,23.1-32.75c8.32-11.55,17.21-22.61,24.61-34.91C547.06,167.95,555.35,162.47,562,156z M441.64,333.71
			c2.84,1.62,5.41,3.08,7.85,4.48c6.41-8,6.21-8.79-2.33-12.02C445.44,328.53,443.7,330.9,441.64,333.71z M517.62,330.08
			c-1.48-1.69-2.5-3.02-3.68-4.17c-1.15-1.12-2.47-2.07-3.62-3.01c-5.65,3.11-4.73,6.1,4.42,10.75
			C515.62,332.56,516.53,331.43,517.62,330.08z M482.36,351.78c-1.76,2.24-3.15,4-4.49,5.71c5.61,6.37,6.85,6.25,10.92-0.98
			C486.85,355.08,484.87,353.63,482.36,351.78z M482.43,294.72c-2.53-2.07-4.52-3.69-6.68-5.45c-1.49,1.99-2.65,3.55-4.04,5.41
			c2.25,1.92,4.29,3.66,6.54,5.58C479.78,298.23,480.94,296.69,482.43,294.72z M486.28,330.4c0-0.71,0.01-1.43,0.01-2.14
			c-2.2-1.74-4.39-3.48-6.79-5.38c-2.26,3.7-3.79,6.92,0.4,8.76C481.53,332.37,484.12,330.88,486.28,330.4z M493.42,306.71
			c-1.35,1.81-2.18,2.92-3,4.03c2.18,1.46,4.29,3.04,6.6,4.27c0.38,0.2,1.58-1.14,2.41-1.77
			C497.59,311.24,495.76,309.25,493.42,306.71z M495.42,338.41c0,2.04,0,3.61,0,5.31c1.7,1.12,3.46,2.28,5.16,3.4
			C504.71,343.13,503.48,341,495.42,338.41z M465.63,349.53c2.17-2.39,3.78-4.18,5.66-6.25c-1.57-1.09-2.83-1.97-3.46-2.41
			c-2.35,1.57-4.23,2.84-6.28,4.21C463.26,346.94,464.24,348.01,465.63,349.53z M461.35,306.06c-0.26,3.14-0.97,6.57-0.49,6.75
			c2.23,0.81,5.19,3.8,7.36-0.78C466.26,310.33,464.43,308.74,461.35,306.06z"/>
	</g>
</g>
</svg>
