<?xml version="1.0" encoding="utf-8"?>
<!-- Generator: Adobe Illustrator 26.2.1, SVG Export Plug-In . SVG Version: 6.00 Build 0)  -->
<svg version="1.1" id="Layer_1" xmlns="http://www.w3.org/2000/svg" xmlns:xlink="http://www.w3.org/1999/xlink" x="0px" y="0px"
	 viewBox="0 0 960 560" style="enable-background:new 0 0 960 560;" xml:space="preserve">
<g>
	<g>
		<path d="M366,156c0.67,0,1.33,0,2,0c6.5,5.03,12.98,10.09,19.54,15.05c0.52,0.39,1.87,0.43,2.32,0.04
			c3.79-3.33,6.25-0.67,8.97,1.68c1.87,1.62,3.85,3.29,6.07,4.28c2.47,1.11,3.39,2.31,3.23,5.17c-0.4,7.08,2.94,9.1,9.68,6.8
			c2.31-0.79,5.31-1.11,7.53-0.32c7.45,2.66,13.81,3.11,21.64,1.49c5.65-1.17,11.43-1.8,17.19-2.3c12.81-1.11,25.28-0.46,35.92,8.17
			c2.33,1.89,4.62,2.18,7.75,1.01c5.05-1.89,10.41-4.39,15.88-0.69c0.59,0.4,1.55,0.26,3.11,0.47c0.37-3.09,0.71-5.9,1.1-9.2
			c5.53,1.1,10.54,0.35,14.69-3.9c0.46-0.47,2.95,0.67,4.24,1.48c1.49,0.94,2.68,2.34,4.01,3.54c0.49-0.42,0.98-0.84,1.47-1.26
			c-0.62-1.43-1.73-2.85-1.75-4.28c-0.02-2.62-0.38-6.37,1.12-7.69c8.85-7.74,23.82-7.54,32.45,0.66c3.31,3.14,5.08,7.94,7.43,12.05
			c3.97,6.93,1.75,13.18-1.75,19.65c-4.11,7.58-11.5,9.46-18.56,12.31c-4.55,1.83-7.63,0.83-10.02-3.35
			c-0.98-1.72-2.4-3.18-3.63-4.76c-1.21,1.49-1.72,2.93-1.24,3.46c4.65,5.13,0.88,7.27-3.1,9.6c-2.7,1.58-5.19,3.51-7.83,5.31
			c-3.97-3.93-7.63-2.93-11.32-0.12c3.63,4.88,7.19,9.25,10.28,13.94c3.12,4.75,2.6,6.23-2.03,8.79c0.15,0.26,0.25,0.66,0.47,0.76
			c0.76,0.33,1.54,0.73,2.35,0.79c6.65,0.54,9.22,5.46,9.87,10.8c0.62,5.11,5.93,11.78-3.39,15.03c8.11,4.03,3.95,17.88-0.58,28.78
			c-2.4,1.33-4.99,1.88-5.43,3.16c-2.17,6.3-3.87,12.77-5.5,19.24c-0.38,1.52-0.47,4.03,0.42,4.81c5.13,4.46,10.41,8.79,15.99,12.68
			c4.7,3.28,9.92,5.87,7.9,11.79c3.59,2.34,7.12,3.71,9.28,6.23c6.28,7.31,12.78,14.63,17.64,22.87c2.55,4.33,1.85,10.57,2.61,15.95
			c-0.67,0-1.33,0-2,0c-6.72-7.93-13.4-15.89-20.23-23.72c-0.65-0.74-2.84-1.28-3.33-0.83c-3.14,2.85-3.97,0.1-5.67-1.75
			c-3.23-3.49-6.55-7.02-10.38-9.79c-3.58-2.6-6.89-4.61-4.43-9.78c0.38-0.8-0.25-2.08-0.47-3.43c-5.26,0.67-10.08,6.19-15.46-0.75
			c-1.48,2-2.91,3.33-3.6,4.97c-3.7,8.78-12.1,12.49-18.98,17.79c-1.29,0.99-3.62,2.02-4.78,1.5c-2.75-1.23-4.46-0.95-6.44,1.3
			c-1,1.14-2.83,1.76-4.39,2.15c-9.47,2.36-18.86,3.24-28.28-0.67c-5.4-2.24-7.39-4.58-7.41-10.09c0-1.05-0.97-2.09-1.69-3.54
			c-1.42,1.24-2.52,1.83-3.09,2.76c-2.57,4.1-5.83,3.45-8.82,1c-6.27-5.14-12.3-10.59-18.62-16.08c-2.33,3.54-5.39,2.02-9.17,0.3
			c0.88,2.35,1.76,4.7,2.83,7.58c-3.01,2.14-6.07,4.67-9.46,6.62c-2.74,1.58-5.84,3.43-8.84,3.53c-14.13,0.5-28.62-14.33-28.5-28.66
			c0.1-11.88,2.9-15.03,14.61-16.5c0.44-0.05,0.83-0.46,1.57-0.89c-3.18-4.85,0.22-7.22,3.72-9.35c3.37-2.06,6.73-4.42,10.43-5.62
			c3.94-1.28,6.16-3.64,7.48-7.22c0.8-2.18,1.49-4.41,2.13-6.65c2.33-8.07,3.85-9.38,11.07-9.89c0.88-2.21,1.09-5.07,2.5-5.89
			c5-2.89,10.35-5.21,15.66-7.51c4.15-1.8,7.87-1.7,9.21,3.44c1.72-1.13,3.22-2.89,4.86-3.05c8.31-0.79,16.43,0.69,21.52,7.71
			c4,5.53,6.58,12.17,9.32,18.51c1.43,3.3-0.28,8.36,5.76,8.7c0.58,0.03,1.09,1.9,1.57,2.95c0.64,1.41,1.23,2.85,2.12,4.94
			c1.8-6.28,2.34-6.6,7.88-4.84c4.85,1.55,9.66,3.23,14.08,4.72c1.61-4.97,3.16-9.37,4.46-13.83c1.79-6.16,4.08-12.29,4.82-18.58
			c0.45-3.84,0.06-7.11,5.67-8.13c-2.37-0.89-3.72-1.4-5.06-1.9c0.44-0.24,0.87-0.49,1.31-0.73c-3.44-6.46-6.57-13.12-10.43-19.32
			c-2.72-4.38-2.74-5.88,1.97-8.29c1.18-0.6,2.26-1.43,3.38-2.15c-0.13-0.68-0.26-1.35-0.39-2.03c-2.8,0-5.84-0.7-8.34,0.16
			c-3.76,1.3-5.89-0.02-8.19-2.59c-3-3.35-6.48-6.97-11.37-5.41c-6.76,2.15-11.64,0.32-14.29-3.74c-5.62,0.22-9.98,0.98-14.14,0.38
			c-4.46-0.64-8.73-2.57-12.49-3.75c-4.48,4.98-8.81,9.79-13.29,14.77c-2.16-1.98-3.68-3.38-5.21-4.78
			c3.09,4.76,1.39,9.11,0.28,13.81c-1.82,7.68-10.36,14.3-18.15,12.41c-5.71-1.39-11.24-3.76-16.64-6.16
			c-6.92-3.08-10.13-8.83-10.19-16.32c-0.05-6.36,0.72-6.99,7.13-6.39c0.53,0.05,1.11-0.5,1.27-0.58
			c-5.26-14.91,7.8-19.27,15.23-27.31c-4.82-2.75-9.53-5.15-13.92-8.02c-2.72-1.78-5.57-3.88-7.3-6.53
			c-2.01-3.08-2.61-7.21-7.85-4.8c-0.49,0.23-1.76-0.73-2.39-1.4C375.33,179.38,369.91,168.11,366,156z M486.78,332.19
			c-4.67,4.5-6.34,12.13-15.17,10.07c-6.05-1.42-13.3,2.28-18.19-5.37c-0.09,7.58-5.67,7.47-12.07,8.92
			c3.81,2.88,6.24,5.22,9.09,6.78c4.35,2.38,9.12,3.96,13.45,6.37c3.1,1.72,6.3,3.79,8.51,6.48c3.65,4.43,5.97,4.49,8.7-0.7
			c0.83-1.57,1.79-4.34,2.73-4.36c5.91-0.09,11.06-6.14,17.44-2.22c0.59,0.36,2.09,0.2,2.47-0.28c0.44-0.55,0.51-2.06,0.07-2.56
			c-2.96-3.4-1.6-4.86,2.01-6.51c5.33-2.43,5.71-5.86,1.56-9.28C500.21,344.61,491.08,341.89,486.78,332.19z M467.43,284.02
			c-7.18,6.07-12.38,14.99-22.48,6.87c-0.31,1.39-0.84,2.39-0.67,3.26c0.79,3.96-0.05,5.72-4.69,6.47
			c-4.07,0.66-6.91,4.37-8.88,8.73c10.9-0.03,21.91-7.67,29.94,2.84c7.7-3.42,15.32,0.32,22.61-1.75
			c-1.64-5.95-5.05-10.28-10.9-12.53c-2.68-1.03-4.5-2.07-3.39-5.8C469.61,290.04,468.15,287.35,467.43,284.02z"/>
	</g>
</g>
</svg>
