<?xml version="1.0" encoding="utf-8"?>
<!-- Generator: Adobe Illustrator 26.2.1, SVG Export Plug-In . SVG Version: 6.00 Build 0)  -->
<svg version="1.1" id="Layer_1" xmlns="http://www.w3.org/2000/svg" xmlns:xlink="http://www.w3.org/1999/xlink" x="0px" y="0px"
	 viewBox="0 0 960 560" style="enable-background:new 0 0 960 560;" xml:space="preserve">
<g>
	<g>
		<path d="M513,406c-4.25-0.61-8.49-1.62-12.75-1.75c-5.64-0.16-8.57-2.83-9.55-8.16c-0.33-1.8-1.22-3.57-1.16-5.34
			c0.11-3.45-1.4-4.69-4.59-5.83c-2.57-0.92-4.47-3.7-7.14-6.07c-4.5,2.24-5.68,1.36-15.15-12.93c1.78-1.88,3.67-3.87,6.17-6.51
			c-1.56-0.08-2.56-0.45-3.21-0.12c-5.38,2.7-7.89-0.78-9.78-4.73c-2.78-5.81-6.14-11.61-3.56-18.64c-2.12-1.06-4.01-2-6.47-3.22
			c-2.73,9.37-13.48,4.11-18.17,10.83c-1.04-1.58-1.7-2.58-3.18-4.85c0.38,7.32-4.31,7.89-8.39,9.47
			c-6.97,2.69-13.8,5.73-19.64,8.18c3.59-8.68,15.87-18.02,22.97-16.41c1.69-6.44,8.24-11.5,15.45-11.99
			c0.67-0.05,1.36-0.34,1.98-0.65c4.37-2.16,8.53-5.07,13.15-6.3c3.23-0.86,5.21-2.19,7.03-4.72c3.69-5.11,7.34-10.29,11.54-14.97
			c2.28-2.54,5.65-4.12,8.29-5.96c1.48-1.89,2.78-3.8,4.32-5.48c2.81-3.06,5.88-5.9,8.63-9.01c2.01-2.26,3.83-3.11,6.81-1.48
			c2.4,1.31,5.25,1.79,7.9,2.64c0.23-0.36,0.46-0.72,0.68-1.08c-2.55-2.1-5.1-4.21-6.61-5.45c0.96-4.29,2.77-8.16,2.42-11.82
			c-0.5-5.3,3.61-5.48,6.99-7.66c-2.31-0.89-4.05-1.57-6.02-2.33c1.04-7.49-2.13-12.11-10.05-13.39c0.4-1.83,0.74-3.35,1.22-5.53
			c-4.41,2.74-7.65,1.07-10.17-2.31c-3.65-4.89-5.27-10.35-3.63-16.44c4.73-17.51,25.17-20.35,35.45-13.27
			c4.07,2.8,7.93,5.91,11.89,8.88c-1.57,3.16-2.85,5.72-4.62,9.27c2.2-0.47,3.3-0.5,4.22-0.92c6.4-2.93,8.47-3.02,11.13,3.41
			c4.1,9.89,3.84,20.54,2.65,31.34c-1.28-0.26-1.85-0.21-2.19-0.46c-2.3-1.68-4.7-3.26-6.6,0.26c-1.63,3.02,0.45,4.34,2.84,5.78
			c1.24,0.75,2.69,2.84,2.47,4.03c-1.1,5.86-2.32,11.77-4.27,17.39c-2.73,7.83-5.87,9.12-13.48,6.71c-0.93,7.3-0.93,7.32-8.47,6.43
			c-5-0.59-8.57,2.07-11.93,5.17c-1.18,1.08-2.2,2.33-4.06,4.31c-1.19-2.69-2.16-4.87-3.12-7.05c-0.95,0.93-1.91,1.87-2.86,2.8
			c1.86,1.81,3.71,3.62,5.81,5.66c-3.12,3.68-6.24,7.36-10.22,12.07c6.57-0.78,12.22-3.5,15.74,2.92c7.5-4.94,15.82-2.19,24.33-1.87
			c-0.37,1.75-0.64,3-1.01,4.76c0.66-0.49,1.08-0.63,1.21-0.92c1.67-3.55,3.89-4.29,7.46-2.23c4.88,2.82,10.01,5.19,15.2,7.83
			c-0.69,1.82-1.31,3.43-2.07,5.43c2.42-0.71,4.83-2.27,6.28-1.64c1.87,0.82,3.32,3.21,4.35,5.24c3.47,6.82,8.13,13.5,9.55,20.78
			c1.22,6.26-1.19,13.29-2.5,19.89c-0.17,0.85-3.41,1.09-5.09,1.57c3.67,4.7,2.5,10.77-3.89,13.72c-6.97,3.22-13.43,7.53-21.63,8.33
			c-5.34,0.52-7.68-1.09-9.46-5.72c-0.64,3.72,1.6,8.24-3.42,10.13C517,406,515,406,513,406z M547.57,358.57
			c-5.2-4.56-12.41-3.14-16.54-9.27c-2.18-3.24-4.37-4.97-2.31-8.78c0.13-0.24-0.38-0.81-0.74-1.53c-0.92,0.48-2.11,0.7-2.54,1.38
			c-2.18,3.54-4.41,2.96-7.29,0.75c-2.62-2-5.46-4.03-8.53-5.01c-3.78-1.21-7.02-2.31-7.31-7.77c-4.8,8.71-12.35,6-19.95,5.46
			c1.02,2.65,1.5,4.78,2.59,6.52c1.84,2.95,1.84,5.05-0.84,7.73c-1.63,1.63-1.89,4.64-2.55,6.45c3.29,0,6.81-1.08,8.45,0.22
			c3.88,3.07,6.87,7.27,10.6,11.44c0,1.01,0,2.88,0,6.08c2.73-2.5,4.39-4.02,5.41-4.96c5.15,0.82,9.77,1.55,14.57,2.31
			c1.89,5.69,1.9,5.55,8.1,3.75c1.69-0.49,3.8,0.17,5.65,0.62c1.29,0.31,2.44,1.16,2.73,1.3c0.9-5.06,1.74-9.83,2.62-14.77
			C541.96,359.94,544.37,359.35,547.57,358.57z"/>
		<path d="M535,156c0.61,7.45,1.18,14.9,1.86,22.35c1.01,11,5.37,20.65,11.83,29.5c0.87,1.19,0.97,2.94,1.52,4.71
			c3.2-1.03,4.74,2.26,5.03,5.06c0.32,3.14-0.77,6.51-1.7,9.65c-0.3,1.01-1.94,1.89-3.14,2.29c-1.71,0.57-4.4,1.52-5.21,0.76
			c-1.46-1.37-1.99-3.84-2.57-5.95c-0.22-0.79,0.52-1.85,0.84-2.81c-6.89-0.74-9.74-9.6-5.28-15.99c-5.91-0.81-6.08-1.08-4.12-6.56
			c-5.56-2.49-6.74-12.13-2.94-16.33c-2.56-9.84,0.58-18.22,2.9-26.68C534.33,156,534.67,156,535,156z"/>
		<path d="M448.86,247.07c2.43-1.16,4.79-3.32,6.3-2.84c6.18,1.99,14.55,1.17,15.66,10.6c0.61-0.18,1.06-0.18,1.14-0.35
			c2.56-5.77,4.28-6.32,9.81-3.06c4.91,2.89,7.53,13.05,4.49,17.89c-2.34,3.72-5.76,5.46-10.2,4.58c-5.2-1.03-3.82-5.37-4.09-9.33
			c-7.23,5.25-7.95-5.89-13.88-4.14c0-2.37,0-4.1,0-7.2c-1.44,2.49-2.22,3.83-3.22,5.56c-2.5-0.73-4.98-1.46-7.95-2.33
			c-1.67,4.49-3.35,9.01-5.03,13.53c-0.26-0.07-0.51-0.14-0.77-0.21c-0.28-6.18-0.79-12.37-0.69-18.55
			c0.03-1.81,1.45-4.54,2.92-5.12C445.01,245.46,447.44,246.77,448.86,247.07z"/>
	</g>
</g>
</svg>
