<?xml version="1.0" encoding="utf-8"?>
<!-- Generator: Adobe Illustrator 26.2.1, SVG Export Plug-In . SVG Version: 6.00 Build 0)  -->
<svg version="1.1" id="Layer_1" xmlns="http://www.w3.org/2000/svg" xmlns:xlink="http://www.w3.org/1999/xlink" x="0px" y="0px"
	 viewBox="0 0 960 560" style="enable-background:new 0 0 960 560;" xml:space="preserve">
<g>
	<g>
		<path d="M543,406c-3.19-3.97-6.09-8.23-9.66-11.84c-4.32-4.38-9.74-7.74-13.71-12.38c-6.75-7.89-15.96-10.42-25.19-13.06
			c-5.99-1.71-12.06-3.09-18.41-0.63c-1.4,0.54-4.38-0.98-5.62-2.42c-4.62-5.35-7.83-5.24-11.87,0.66c-0.85,1.24-2.47,2.1-3.91,2.77
			c-2.98,1.38-6.02,2.71-9.15,3.68c-1.55,0.48-3.37,0.28-5.05,0.15c-1.59-0.13-3.16-0.57-5.29-0.98c0.98,3.14,1.79,5.75,2.41,7.75
			c-6.31,4.88-12.39,9.43-18.3,14.18c-3.36,2.71-10.36,2.14-13.53-1.53c-5.25-6.07-7.8-13.05-6.35-21.09
			c0.26-1.45,1.83-2.61,2.59-4.02c8-14.87,21.43-23.18,36.07-30.08c1.45-0.68,2.56-2.06,3.83-3.12c-1.24-1.4-2.22-3.33-3.78-4.1
			c-5.03-2.49-8.51-6.37-12.26-10.47c-10.46-11.44-17.03-24.93-22.79-38.97c-0.92-2.25-0.89-4.89-1.29-7.35
			c0.41-0.11,0.82-0.22,1.23-0.32c0.39,0.95,0.9,1.87,1.16,2.85c3.12,11.88,11.18,20.36,20.09,27.94
			c7.06,6.01,14.86,11.15,22.39,16.59c1.05,0.76,2.38,1.37,3.65,1.52c4.64,0.55,8.33,2.27,9.71,7.82c6-5.91,12.27-8.44,20.39-7.07
			c3.55,0.6,7.57-2.09,11.46-2.88c2.68-0.54,5.5-0.39,8.91-0.59c2.73-5.33,5.1-12.18,11.5-16.79c3.94-2.84,6.43-7.62,10.11-10.93
			c5.7-5.12,19.79-0.91,22.43,6.38c3.04,8.39,0.88,16.88-5.84,22.92c-1.11,1-2.39,1.84-3.42,2.92c-3.1,3.26-6.3,4.38-9.97,0.46
			c-3.56,7.55-9.66,11.21-17.19,13.45c-5.19,1.54-10.05,4.18-14.95,6.29c2.36,2.14,4.3,4.43,6.73,5.95
			c1.91,1.19,4.58,1.11,6.63,2.15c8.66,4.35,13.55,12.4,19.01,19.86c3.23,4.42,6.22,9.02,9.6,13.32c4.89,6.23,8.51,12.89,8.59,21.05
			C543.67,406,543.33,406,543,406z"/>
		<path d="M495,156c2.74,3.29,6.22,6.2,8.09,9.93c5.78,11.53,10.94,23.36,16.33,35.07c0.14,0.3,0.31,0.64,0.29,0.95
			c-0.68,11.16,5.54,20.28,8.78,30.29c1.37,4.22,1.77,8.78,2.25,13.23c0.11,1.05-1.29,2.23-1.91,3.39
			c-0.92,1.74-2.26,3.49-2.39,5.31c-0.05,0.78,2.5,1.75,3.9,2.6c1.06,0.64,2.59,0.95,3.17,1.87c3.14,4.99,1.38,12.58-2.76,16.97
			c-4,4.24-8.28,7.38-14.03,8.73c-6.32,1.47-10.28-0.6-10.61-7.28c-0.35-7.03,0.36-14.14,0.91-21.19
			c0.41-5.27,1.22-10.52,1.97-15.76c0.39-2.74,1.04-5.45,1.81-9.34c-5.08-4.31-3.45-11.96-4.55-18.86
			c-2.81-17.71-4.79-35.6-12.19-52.25c-0.46-1.03-0.06-2.43-0.06-3.66C494.33,156,494.67,156,495,156z"/>
		<path d="M472.45,274.61c1.94-7.77,3.52-15.45,5.99-22.82c0.5-1.49,4.37-1.85,7.94-3.2c-0.67-2.1-1.65-4.99-2.52-7.92
			c-0.41-1.38-1.07-2.9-0.83-4.23c2.68-15.22,1.19-30.14-2.88-44.92c-0.06-0.22,0.27-0.56,2.1-2.5c0.28,1.11,0.27,2.44,0.9,3.29
			c6.85,9.18,10.75,19.5,12.79,30.73c0.97,5.35,2.96,10.51,4.48,15.76c0.18,0.64,0.53,1.3,0.48,1.92
			c-0.97,12.17-1.91,24.35-3.12,36.49c-0.16,1.58-1.83,3-3.27,5.23c3.32,10.23-1.39,18.85-9.2,26.42c-0.62,0.6-2.14,1.21-2.59,0.89
			c-5.31-3.77-12.92-3.1-16.55-10.62c-3.94-8.16-2.34-15.53,0.24-23.03C466.8,274.89,470.92,274.94,472.45,274.61z"/>
		<path d="M446.59,245.69c3.61,6.44,6.41,13.19,3.12,20.98c-0.41,0.97-0.24,2.22-0.2,3.34c0.16,4.05,0.38,8.1,0.61,12.71
			c6.13,2.34,9.02,12.55,4.33,19.1c-5.04,7.05-10.53,9.44-15.26,5.74c-3.12-2.44-6.24-5.97-7.38-9.63
			c-1.9-6.1-2.49-12.67-3.04-19.09c-0.18-2.15,1.45-4.45,1.64-6.4c-0.3-3.63-0.99-7.27-0.82-10.87c0.39-8.43,1.19-16.83,1.82-25.25
			c0.02-0.33-0.1-0.86,0.07-0.97c6.53-4.3,2.76-12.3,6.56-17.9c3.78-5.56,5.56-12.42,8.78-18.41c3.3-6.12,7.24-11.89,11-17.75
			c0.83-1.29,2.06-2.33,4.09-2.91c-2.95,11.03-5.85,22.07-8.85,33.09C450.06,222.53,452.66,234.69,446.59,245.69z"/>
		<path d="M401.67,318.34c1.55,0.56,1.72,0.69,1.85,0.66c7.5-1.8,9.12-0.95,11.84,6.21c2.58,6.78,0.78,13.09-4.58,16.07
			c-6.86,3.81-15.78,0.13-19.14-7.9c-1.79-4.27-3.53-8.56-5.39-12.8c-3.95-9.01-3.98-9.42-0.15-18.52c-6.99-2-5.72-8.11-5.93-13.09
			c-0.94-22.11,2.19-43.74,8.95-64.79c2.29-7.13,5.28-14.04,8.86-20.9c0.1,0.87,0.39,1.77,0.27,2.61
			c-1.51,10.66-3.59,21.27-4.48,31.98c-0.8,9.68-0.32,19.46-0.4,29.2c-0.03,3.78-0.06,7.56-0.04,11.34c0.01,1.14-0.1,2.38,0.3,3.4
			c3.16,7.96,5.77,16.23,9.88,23.67C406.36,310.6,408.96,314.47,401.67,318.34z"/>
		<path d="M546.9,326.95c2.86-3.89,4.99-8.82,8.74-11.44c7.61-5.32,10.41-13.28,12.98-21.11c2.45-7.5,3.23-15.58,4.33-23.46
			c0.34-2.45-0.71-5.09-1.07-7.65c-0.14-1-0.13-2.03,0.39-3.18c5.05,6.74,7.93,14.24,8.72,22.55c0.17,1.81,0,3.72,0.49,5.43
			c0.8,2.76,0.33,4.63-2.09,6.47c-1.16,0.89-2.13,3.25-1.83,4.64c3.02,13.81-3.25,24.5-11.1,34.78c-1.32,1.72-2.11,3.84-3.42,5.57
			c-3.22,4.24-6.42,8.52-9.99,12.47c-3.43,3.79-7.17,7.34-11.03,10.7c-3.83,3.34-12.37,2.02-15.35-2.08
			c-4.66-6.41-4.65-13.25,0.69-18.87c3.75-3.95,7.98-7.5,12.33-10.79c2.28-1.73,5.28-2.51,7.95-3.72
			C547.41,327.15,547.15,327.05,546.9,326.95z"/>
	</g>
</g>
</svg>
