<?xml version="1.0" encoding="utf-8"?>
<!-- Generator: Adobe Illustrator 26.2.1, SVG Export Plug-In . SVG Version: 6.00 Build 0)  -->
<svg version="1.1" id="Layer_1" xmlns="http://www.w3.org/2000/svg" xmlns:xlink="http://www.w3.org/1999/xlink" x="0px" y="0px"
	 viewBox="0 0 960 560" style="enable-background:new 0 0 960 560;" xml:space="preserve">
<g>
	<g>
		<path d="M393,406c-3.33,0-6.67,0-10,0c-10.21-3.5-12.1-12.66-13.94-21.4c-2.39-11.4-1.56-12.55,8.32-18.81
			c0.42-0.27,0.94-0.47,1.23-0.84c5.3-6.85,11.01-5.99,17-1c0.17,0.14,0.63-0.06,1.28-0.15c0.36-2.01,1-4.1,1.06-6.22
			c0.14-4.7-0.68-8.13,6.15-10.69c11.34-4.24,21.69-11.18,33.85-13.76c1.7-0.36,3.24-1.48,5.1-2.37c-0.7-2.39-1.29-4.4-1.5-5.12
			c-4.8-1.59-8.54-2.83-13.37-4.43c-1.21,2.6-3.05,6.05-4.46,9.66c-3.36,8.62-15.16,11.48-20.49,4.51
			c-4.72-6.17-7.78-13.29-7.06-21.33c0.48-5.3,2.38-9.68,8.21-11.72c3.16-1.1,5.79-3.71,8.97-5.85c-4.71-1.6-8.37-2.85-11.4-3.87
			c-1.85,1.42-3.97,4.43-6.03,4.39c-6.88-0.13-12.56,2-17.81,6.2c-1.02,0.82-2.86,0.55-4.25,1.01c-2.41,0.79-5.06,1.33-7.08,2.73
			c-3.56,2.49-6.03,2.49-8.09-1.39c-1.09-2.06-1.74-4.73-1.53-7.02c0.5-5.44,1.47-10.85,2.55-16.21c1.65-8.22,4.01-16.33,5.15-24.61
			c0.57-4.13,0.69-7.46,5.44-8.75c0.47-0.13,0.77-4.09,0.2-4.38c-5.19-2.59-5.72-6.54-4.34-11.54c1.85-6.67,4.15-13.32,4.94-20.13
			c0.61-5.27,3.27-6.65,7.45-6.53c6.65,0.19,13.35,0.43,19.88,1.52c2.21,0.37,4.98,3.04,5.77,5.27c3.28,9.28-4.73,19.22-12.74,21.32
			c7.33,3.79,7.74,5.36,5.24,13.71c-2.1,7.02-3.66,14.21-5.33,20.83c3.83,0.66,7.19,1.08,10.46,1.86c2.7,0.65,3.71-0.14,3.66-2.88
			c-0.14-8.26-0.05-16.49,5.61-23.39c0.37-0.45,0.71-1.54,0.49-1.78c-2.88-3.01,0.06-5.13,1.07-7.51c3.3-7.76,6.51-15.56,10-23.24
			c2.23-4.9-3.41-7.44-3.17-11.69c0.01-0.13-1.28-0.63-1.76-0.45c-3.66,1.43-5.67-1.16-7.65-3.27
			c-9.08-9.73-19.92-17.95-24.38-31.53c-1.2-3.66-2.28-6.12,0.3-9.13c1,0,2,0,3,0c0.66,0.96,1.37,1.88,1.97,2.88
			c5.92,9.74,13.35,17.83,22.94,24.33c6.68,4.53,16.32,4.78,20.13,13.53c0.1,0.22,0.58,0.28,0.88,0.42
			c4.9,2.25,9.11,6.48,15.51,4.17c1.49-0.54,3.99,1.85,6.08,2.76c2.68,1.16,5.35,2.94,8.13,3.15c11.71,0.9,23.46,1.33,35.19,1.85
			c0.71,0.03,1.47-0.52,2.16-0.9c7.38-4.03,14.68-8.2,22.15-12.06c5-2.59,10.3-4.61,15.31-7.19c1.68-0.86,3.89-2.55,4.08-4.09
			c0.67-5.24,3.91-4.44,7.22-3.69c2.03,0.46,3.98,1.25,5.97,1.89c4.34-9.88,11.89-16.63,21.25-21.53c6.06-3.18,15.48-0.66,18.6,5.42
			c2.56,4.99,4.71,10.31,6.14,15.72c2.23,8.43,0.15,13.27-7.27,18.07c-5.44,3.51-11.02,6.88-16.83,9.72
			c-8.9,4.36-18.23,7.86-27.02,12.42c-4.09,2.12-7.36,3.4-11.45,0.52c-1.18-0.83-3.39-1.52-4.45-0.97
			c-6.84,3.54-13.49,6.83-21.43,8.08c-11.55,1.81-22.57,2.11-33.38-2.84c-1.15-0.53-2.61-0.79-3.85-0.62
			c-8.95,1.22-17.76,2.05-24.96-5.17c-0.32-0.32-1.17-0.12-0.67-0.08c-2.75,7.62-5.29,14.66-8.08,22.4c3,0.2,5.58,0.47,8.18,0.52
			c3.8,0.07,7.61-0.03,11.41-0.02c3.2,0.01,6.99,1.22,9.49-0.08c6-3.12,11.85-3.63,18.2-2.05c1.08,0.27,2.33,0,3.48-0.18
			c13.37-2.1,24.72,4.84,36.69,8.63c4.11,1.3,7.55,3.45,12.11,2c1.66-0.53,4.23-0.24,5.63,0.74c9.37,6.54,18.9,12.95,27.69,20.22
			c11.72,9.69,20.91,21.34,23.39,37.03c0.2,1.28,0.37,2.57,0.55,3.85c-1.13-0.91-2.81-1.6-3.31-2.78
			c-2.44-5.74-6.43-9.99-11.56-13.37c-5.28-3.48-10.33-7.35-15.8-10.49c-3.98-2.29-8.37-4.08-12.79-5.32
			c-3.65-1.02-5.41-2.7-5.56-6.48c-0.06-1.5-0.94-2.97-1.11-3.46c-3.38,1.88-6.44,5.07-8.69,4.58c-9.7-2.13-21.09-0.24-27.84-10.51
			c-5.32,2.1-10.58,5.68-15.79,0.09c-0.34-0.36-1.29-0.26-1.94-0.2c-6.69,0.59-13.37,1.21-20.25,1.84c2.49,7.78,4.14,9,10.95,9.24
			c5.6,0.2,11.53-0.29,14.1,6.66c0.21,0.57,3.04,0.98,3.84,0.38c6.82-5.12,12.41-4.02,16.85,3.18c1.06,1.72,3.18,3.59,5.04,3.86
			c10.05,1.49,18.56,5.18,23.72,14.52c1.19,2.16,2.43,3.04,5.2,1.8c1.35-0.6,4.59,0.38,5.41,1.65c6.33,9.76,13.36,19.28,18.05,29.83
			c4.6,10.35,6.73,21.8,9.86,32.79c0.1,0.36-0.68,0.97-1.7,2.35c-1.17-2.43-2.42-4.15-2.84-6.06c-1.82-8.23-5.88-15.23-11.74-21.09
			c-5.47-5.48-11.11-10.86-17.17-15.67c-5.96-4.73-12.55-8.67-18.85-12.97c-2.58-1.76-5.14-3.55-7.84-5.41
			c-1.65,0.38-4.06,1.73-6.01,1.25c-5.02-1.25-9.72-3.83-14.75-4.93c-6.03-1.31-12.26-1.79-18.43-2.29
			c-2.53-0.21-3.12,1.33-2.65,3.99c0.73,4.16,0.73,8.45,1.12,13.74c2.02,0.17,6.06-0.5,9.09,0.95c8.85,4.23,17.29,9.33,25.93,14.03
			c1.22,0.66,3.07,1.78,3.86,1.33c7.42-4.21,11.91,0.3,16.85,4.86c5.72,5.27,12.01,9.9,17.93,14.96c1.97,1.68,5.3,4.11,5.02,5.67
			c-1.06,6.01,3.56,6.89,6.72,9.41c1.66,1.32,3.95,4.8,3.56,5.26c-2.45,2.88-0.15,4.5,1.03,6.46c1.28,2.13,2.75,4.17,3.83,6.4
			c0.34,0.69-0.34,1.87-0.55,2.83c-0.79-0.36-1.93-0.5-2.33-1.11c-5.86-9.03-13.55-15.79-23.65-19.75
			c-3.44-1.35-5.15-3.89-4.88-7.81c0.1-1.43-0.36-3.72-1.29-4.19c-1.1-0.56-3,0.38-4.52,0.76c-1.01,0.25-2.23,1.2-2.95,0.89
			c-9.08-3.9-19.8-2-28.3-7.97c-0.59-0.41-1.67-0.04-2.42-0.32c-7.85-2.87-17.33-0.03-23.92-7.21c-2.93,7.83-3.53,8.15-11.36,5.95
			c-1.94,10.82-7.58,19.74-13.55,28.47c-0.76-0.31-1.52-0.61-2.29-0.92c1.42-9.34,9.11-17.3,7.36-27.64
			c-3.33,0.4-6.44,0.58-9.44,1.27c-0.78,0.18-1.77,2.03-1.66,3.01c0.93,8.89-3.14,16.69-5.48,24.79c-1.08,3.74-4.25,6.87-6.48,10.28
			c-0.68-0.3-1.35-0.61-2.03-0.91c1.76-11.36,7.09-22.44,3.32-35c-7.24,4.46-12.49,13.17-22.95,10.35c0,0.82-0.06,1.61,0.01,2.39
			c0.34,3.99-4.01,10.56-7.71,11.63c-6.52,1.89-10.71,5.9-11.24,12.92c-0.26,3.46-1.82,5.53-5.17,6.45
			C396.28,404.54,394.66,405.35,393,406z M468.66,304.81c-4.89,3.11-9.78,6.23-14.79,9.42c0.54,4.61,1.04,10,1.87,15.35
			c0.25,1.58,1.44,3.01,2.19,4.51c1.22-0.96,2.5-1.86,3.66-2.89c2.38-2.13,4.77-4.27,7.02-6.54c2.38-2.39,6.42-3.58,6.39-8.3
			C465.33,316.36,470.63,308.64,468.66,304.81z M455.47,281.81c-10.49-10.24-9.21-10.76-23.98-2c2.7,3.16,4.71,7.56,7.98,8.92
			C446.09,291.49,451.68,288.37,455.47,281.81z"/>
	</g>
</g>
</svg>
