<?xml version="1.0" encoding="utf-8"?>
<!-- Generator: Adobe Illustrator 26.2.1, SVG Export Plug-In . SVG Version: 6.00 Build 0)  -->
<svg version="1.1" id="Layer_1" xmlns="http://www.w3.org/2000/svg" xmlns:xlink="http://www.w3.org/1999/xlink" x="0px" y="0px"
	 viewBox="0 0 960 560" style="enable-background:new 0 0 960 560;" xml:space="preserve">
<g>
	<g>
		<path d="M529,406c-11.98-8.64-17.44-22.94-14.35-36.72c1.22-5.43,5.04-7.38,9.66-8.9c4.91-1.62,9.72-1.92,13.32,2.28
			c1.52,1.77,1.71,4.68,2.57,7.3c4.97-1.73,3.61-5.84,3.94-9.59c3.17,0,6.29-0.15,9.39,0.03c6.07,0.37,12.43-4.06,18.28,1.16
			c0.52,0.47,2.31-0.15,3.32-0.64c1.24-0.6,2.29-1.6,3.42-2.43c-0.89-1.13-1.6-2.95-2.72-3.26c-3.81-1.05-4.05-3.38-3.79-6.76
			c0.17-2.17-0.55-4.81-1.77-6.62c-3.18-4.72-0.65-7.17,3.01-9.48c1.24-0.78,2.46-1.59,4.31-2.79c-1.61-0.61-2.92-1.57-3.49-1.24
			c-4.34,2.48-6.11-0.66-8.83-3.13c-3.38-3.08-7.62-5.2-11.89-7.99c1.26-2.29,2.5-4.53,3.73-6.77c-0.24-0.38-0.48-0.76-0.72-1.15
			c-1.99,1.05-3.91,2.26-5.98,3.11c-1.33,0.54-3.47,1.31-4.22,0.71c-6.1-4.93-10.6-0.72-15.3,2.35c-1.95,1.27-3.62,3-5.64,4.11
			c-2.87,1.58-5.94,2.78-9.95,4.61c-6.3,6.96-10.14,18.48-22.79,20.76c-3.05,0.55-4.2,2.54-2.35,4.97c1.83,2.4,0.81,3.79-0.57,5.63
			c-7.01,9.29-14.02,18.59-20.86,28c-2.24,3.08-3.95,6.55-6.5,9.54c0.43-9.16,3.31-17.42,7.86-25.16c0.59-1,1.81-2.22,1.58-3.01
			c-1.66-5.81,2.12-8.02,7.04-9.98c-3.76-3-2.45-5.75-0.4-8.4c5.69-7.35,11.26-14.81,17.26-21.89c1.21-1.43,4.12-1.4,6.58-2.15
			c-2.95-6.7,2.53-9.33,6.43-12.86c1.52-1.37,2.75-3.07,4.11-4.62c-1.99-1.65-3.75-4.19-6.01-4.74c-4.02-0.98-5.73-2.77-4.92-6.12
			c-2.41,0.56-4.79,1.36-7.22,1.63c-8.61,0.95-17.23,1.86-25.87,2.44c-1.5,0.1-3.11-1.51-3.93-1.94c-8.05,5-15.84,10.76-24.44,14.79
			c-4.47,2.1-8.1,3.28-11.48,7.8c-4.26,5.69-11.49,9.22-17.64,13.39c-1.22,0.83-3.35,0.3-5.47,0.42c1.01,5.83-3.38,7.52-7.62,9.75
			c-3.34,1.76-6.57,4.05-9.2,6.74c-10.1,10.37-20.02,20.94-27.03,33.81c-0.44,0.8-1.19,1.42-2.79,1.61
			c2.38-5.31,4.29-10.9,7.25-15.86c6.71-11.28,13.74-22.37,21.08-33.25c1.66-2.46,5.13-3.67,7.67-5.58c0.93-0.7,1.77-1.65,2.36-2.66
			c1.15-1.95,1.7-4.39,3.2-5.95c3.68-3.81,7.83-7.16,11.67-10.82c3.15-3.01,6.06-5.97,11.11-5.52c3.02,0.27,4.47-1.55,3.34-4.93
			c-0.36-1.08,0.05-3.2,0.86-3.77c8.64-6.09,17.43-11.97,26.15-17.88c1.93,2.04,3.11,3.29,5.37,5.69
			c-2.18-9.94,4.01-10.7,9.84-12.15c2.86-0.71,5.51-2.21,7.19-2.91c-0.6-4.4-1.24-8.52-1.7-12.65c-0.68-6.1,4.36-6.36,6.95-7.17
			c0.42-3.43,0.43-6.06,1.12-8.5c0.58-2.03,2.18-3.76,2.91-5.77c1.74-4.84,3.91-8.11,9.64-4.5c0.61,0.38,3.02-0.6,3.06-1.1
			c0.13-1.4-0.05-3.41-0.96-4.24c-4.9-4.47-5.17-5.89-1.66-11.47c1.4-2.22,2.41-4.7,3.8-6.92c0.84-1.34,1.88-2.8,3.2-3.56
			c10.43-5.99,21.97-2.2,28.83,6.37c0.96,1.2,1.15,3.39,0.97,5.05c-0.25,2.28-1.34,4.46-1.79,6.73c-0.79,3.95-2.72,5.85-6.93,4.66
			c-0.92-0.26-1.97-0.04-1.93-0.04c0.13,3.3,1.39,7.07,0.07,9.38c-1.29,2.26-5.19,3.03-7.59,4.27c4.02,1.2,3.11,5.41,1.5,8.25
			c-1.57,2.77-5.02,4.49-7.97,6.94c7.84,0.44,15.9,0.88,24.26,1.35c-0.31,1.85-0.63,3.73-1.25,7.47c4.55-7.08,9.04-5.26,13.49-2.65
			c4.77,2.8,3.77,6.76,1.98,10.22c4.84,3.13,9.43,6.09,13.97,9.03c-1.72,3.26-3.04,5.78-4.46,8.48c3.62-0.45,6.82-1.71,9.44-0.96
			c3.3,0.94,6.72,2.98,9.03,5.52c6.22,6.83,11.88,14.18,17.45,20.94c-1.93,2.61-3.11,4.22-5.1,6.91c7.36-0.12,9.03,4.26,10.13,9.21
			c1.12,5.03,2.32,10.04,3.71,16.05c-2.37-0.94-3.63-1.44-6.22-2.46c0.69,2.21,0.69,4.21,1.65,4.91c2.12,1.55,6.57,2.17,6.78,3.65
			c0.65,4.49,0.55,9.44-0.76,13.76c-2.23,7.39-6.48,14.04-12.71,18.69c-4.01,2.99-9,4.77-13.72,6.65c-0.8,0.32-2.74-1.34-3.7-2.47
			c-1.55-1.83-2.71-3.98-4.04-5.99c-0.54,0.08-1.09,0.16-1.63,0.25c-0.19,2.8-1.08,5.78-0.39,8.34c0.96,3.58-0.49,5-3.08,6.84
			c-6.88,4.89-14.84,5.51-22.76,6.53c-1.27,0.16-2.5,0.68-3.75,1.04C533.67,406,531.33,406,529,406z"/>
		<path d="M505,156c1.15,3.42,2.33,6.83,3.43,10.26c0.3,0.92,0.05,2.19,0.61,2.81c3.8,4.2,2.24,6.77-3.84,8.79
			c3.56,0.68,5.76,1.1,9.4,1.8c-2.64,4.2-4.53,8.42-7.51,11.62c-3.57,3.83-7.94,1.94-11.87-0.24c-3.73-2.07-3.67-5.11-2.22-8.56
			c3.39-8.06,6.75-16.13,10.11-24.2c0.31-0.75,0.59-1.52,0.88-2.28C504.33,156,504.67,156,505,156z"/>
		<path d="M455.61,224.95c4.86,1.87,6.95,6.42,6.36,11.76c-0.73,6.62-7.89,14.79-12.95,15.79c-4.39,0.87-9.89-5.16-8.52-9.81
			c0.89-3.03,2.77-5.76,4.38-8.99c-0.95-0.32-2.36-0.79-3.75-1.25c0.74-6.18,9.45-19.34,14.57-21.81c1.07,3.46,2.39,6.82,3.01,10.32
			C458.89,221.92,456.98,223.27,455.61,224.95z"/>
		<path d="M545.64,230.58c0-2.03-0.59-4.29,0.11-6.05c2.18-5.51,4.84-10.83,7.43-16.48c2.75,5.75,5.5,10.92,7.59,16.34
			c0.43,1.13-1.58,3.2-2.58,5.05c0.38,0.1,1.4,0.36,2.42,0.64c3.64,0.97,4.94,3.02,3.25,6.65c-4.2,9.03-6.54,10.78-13.78,10.14
			c-5.5-0.49-7.36-2.86-6.08-8.29c0.6-2.55,1.86-4.95,2.82-7.42C546.43,230.96,546.03,230.77,545.64,230.58z"/>
	</g>
</g>
</svg>
