<?xml version="1.0" encoding="utf-8"?>
<!-- Generator: Adobe Illustrator 26.2.1, SVG Export Plug-In . SVG Version: 6.00 Build 0)  -->
<svg version="1.1" id="Layer_1" xmlns="http://www.w3.org/2000/svg" xmlns:xlink="http://www.w3.org/1999/xlink" x="0px" y="0px"
	 viewBox="0 0 960 560" style="enable-background:new 0 0 960 560;" xml:space="preserve">
<g>
	<g>
		<path d="M473,406c-7.45-1.84-14.93-3.58-22.34-5.6c-1.57-0.43-3.44-1.52-4.2-2.85c-1.79-3.13-3.45-3.18-6.37-1.39
			c-3.51,2.14-7.15,1.82-10.44-1.1c-3.2-2.84-6.55-5.52-9.89-8.19c-7.22-5.77-10.34-14.13-13.67-22.22
			c-1.98-4.79,2.07-7.92,4.82-11.16c1.11-1.3,2.3-2.54,4.52-4.97c-4.58,0-7.71-0.51-10.6,0.12c-4.7,1.01-7.25-1.82-8.48-5.06
			c-2.83-7.51-3.43-15.38-0.44-23.09c0.67-1.72,2.06-3.26,3.41-4.59c2.42-2.36,2.44-4.4-0.68-5.77c-3.17-1.4-2.93-3.6-2.77-6.49
			c0.59-10.57,6.85-18.17,13.38-25.41c2.05-2.27,5.96-3.39,9.2-3.92c3.64-0.6,5.01-1.43,3.95-5.38c-1.95-7.24-1.58-6.89,5.96-10.13
			c5.39-2.31,11.64-4.82,14.96-9.18c3.88-5.08,6.27-10.35,13.85-8.73c0.33-2.05,1.62-4.6,0.84-6.05
			c-3.51-6.54-3.24-12.76-0.26-19.35c1.22-2.69,2.35-4.63,5.34-5.86c3.46-1.42,6.47-3.94,10.1-6.25c-1.73-0.98-3.22-1.66-4.52-2.61
			c-2.49-1.82-3.53-4.02-2.5-7.32c3.77-12.11,7.29-24.3,10.89-36.47c0.09-0.3-0.04-0.66-0.07-0.98c1,0,2,0,3,0
			c2.5,12.95,5.08,25.88,7.45,38.86c0.86,4.69,1.5,9.47,1.6,14.23c0.04,1.63-1.52,3.75-2.96,4.87c-3.33,2.58-7.03,4.67-10.58,6.96
			c0.03,0.57,0.06,1.13,0.1,1.7c2.17,0.58,4.34,1.63,6.52,1.64c5.9,0.02,9.4,2.37,10.68,7.85c0.64,2.73,1.55,5.45,1.74,8.21
			c0.45,6.47,4.99,8.18,10.11,9.92c3.96,1.34,7.85,3.26,11.28,5.63c1.29,0.89,1.5,3.75,1.67,5.76c0.17,2.03-0.31,4.12-0.51,6.18
			c0.45,0.22,0.9,0.45,1.34,0.67c1.47-1.8,3.17-3.46,4.35-5.43c4.33-7.19,8.2-7.64,14.67-2.32c4.55,3.74,9.39,7.45,14.69,9.88
			c5.01,2.3,6.83,6.61,9.23,10.6c5.82,9.67,6.68,20.32,4.83,31.18c-1.4,8.24-12.47,16.34-20.82,16.74
			c-8.65,0.42-15.07-3.36-22.27-7.62c-8.43-4.99-10.85-10.28-7.96-19.29c-1.41,1.7-2.83,3.38-4.22,5.1
			c-2.86,3.55-5.06,3.53-7.94,0.19c-3.76-4.35-7.23-9.21-14.3-7.94c-1.27,0.23-2.85-1.25-4.48-2.02
			c-1.14,6.19-2.72,12.23-9.68,15.13c-4.74,1.97-9.22,1.4-12.58-2.32c-3.52-3.9-7.03-7.83-10.88-11.38
			c-1.02-0.94-3.6-1.22-4.94-0.63c-5.46,2.41-11.13,6.1-11.54,12.06c-0.46,6.77-3.32,10.69-8.52,13.93
			c-0.77,0.48-1.16,1.55-2.59,3.59c3.2-0.51,5.3-0.71,7.34-1.18c6.1-1.41,7.66-0.34,7.95,5.69c0.03,0.65-0.28,1.48,0.01,1.94
			c3.61,5.58,1.62,10.27-1.92,14.98c-0.58,0.78-0.14,3.31,0.69,3.98c3.89,3.19,4.88,6.59,1.59,10.67c2.47,2.08,4.58,4.23,7.04,5.83
			c2.24,1.45,4.88,2.31,7.64,3.56c-0.92,1.66-1.69,3.05-2.79,5.03c4.61,0.09,7.02-2.44,9.11-5.28c3.21-4.38,4.28-4.46,6.67,0.41
			c1.67,3.4,3.24,5.82,7.82,4.84c3.06-0.65,5.73,0.55,6.07,4.65c0.12,1.44,1.83,2.74,2.82,4.11c1.03-0.67,1.7-0.85,1.82-1.21
			c2.31-6.83,8.25-6.34,13.79-7.54c5.38-1.17,11.13-2.99,15.45-6.21c8.2-6.11,15.46-13.48,23.23-20.19c1.19-1.03,2.99-1.34,4.5-1.98
			c-0.33,1.59-0.31,3.37-1.05,4.73c-8.53,15.72-19.94,29.23-33.16,41.1c-4.66,4.18-10.73,6.8-16.15,10.13
			C485.67,406,479.33,406,473,406z"/>
	</g>
</g>
</svg>
