<?xml version="1.0" encoding="utf-8"?>
<!-- Generator: Adobe Illustrator 26.2.1, SVG Export Plug-In . SVG Version: 6.00 Build 0)  -->
<svg version="1.1" id="Layer_1" xmlns="http://www.w3.org/2000/svg" xmlns:xlink="http://www.w3.org/1999/xlink" x="0px" y="0px"
	 viewBox="0 0 960 560" style="enable-background:new 0 0 960 560;" xml:space="preserve">
<g>
	<g>
		<path d="M356,269c1.55-3.08,2.7-6.47,4.77-9.15c2.2-2.85,5.26-5.04,8.36-7.91c-1.44-5.26,5.5-13.5,14.86-15.61
			c-3.53-5.8,0.67-8.89,4.29-12.24c5.25-4.86,8.44-4.69,14.79,0.3c5.9,4.64,6.79,12.19,3.07,18.76c-1.06,1.88-2.11,3.76-3.28,5.84
			c-2.09-0.41-4.14-0.82-6.2-1.22c0.25,0.39,0.51,0.78,0.76,1.18c-3.35,3.04-6.7,6.09-10.13,9.2c4.41,3.93,14.77,1.59,12.23,12.14
			c8.15-1.23,12.6,2.5,11.98,9.14c4.35,4.62,10.82,7,10.71,14.63c-0.01,0.49,3.23,1.84,4.35,1.36c2.21-0.95,3.99-2.9,6.16-4.61
			c1.32,1.02,2.55,1.97,4.53,3.5c0.59-9.08,8.52-8.01,13.8-11.07c-1.98-6.95-7.58-10.06-13.55-12.93c1-1.97,1.91-3.76,2.81-5.55
			c-0.26-0.28-0.52-0.56-0.78-0.84c-2.05,0.85-4.11,1.69-5,2.06c-4.39-2.35-8.05-4.28-11.7-6.26c-2.15-1.16-4.49-2.11-6.35-3.64
			c-3.09-2.54-3.49-7.37-1.2-10.73c0.93-1.37,1.95-2.71,3.08-3.92c3.94-4.25,7.95-8.44,12.53-13.28c0.8,1.53,1.41,2.7,2.27,4.34
			c0.88-1.67,1.59-2.39,1.57-3.08c-0.12-3.4-0.36-6.52,4.01-7.84c4.73-1.43,9.13-1.77,13.22,1.47c1.3,1.03,2.57,2.13,3.72,3.33
			c5.28,5.53,3.82,14.19-3.22,17.32c-1.82,0.81-4.44-0.17-5.74-0.26c-1.28,2.68-2.45,5.13-3.18,6.66c2.14,2.37,4.45,4.93,6.88,7.62
			c2.88-1.28,6.22-3.15,9.79-4.24c3.17-0.97,6.83-4.15,8.76-0.1c3.31-1.83,5.94-4.1,8.91-4.7c3.3-0.67,6.91,0.17,10.79,0.38
			c-0.21-1.37-0.3-2.29-0.5-3.19c-1.5-6.8,0.07-10.49,6.38-13.4c1.6-0.74,3.93-0.44,5.76,0.02c2.66,0.67,3.9,0.19,4.44-2.69
			c0.26-1.41,1.41-2.9,2.58-3.85c8.19-6.73,16.76-3.52,24.92-0.15c2.17,0.9,3.78,4.31,4.62,6.9c0.72,2.23,0.21,4.97-0.16,7.42
			c-1.37,9.19-10.87,12.82-18.16,7.05c-0.62-0.49-1.42-0.76-2.28-1.21c-0.21,1.83-0.38,3.41-0.54,4.83
			c7.15,3.07,14.44,6.19,21.72,9.32c-0.16,0.35-0.32,0.69-0.48,1.04c2.02-0.68,4.04-1.35,6.72-2.25c-0.96-2.3-1.97-4.85-3.07-7.37
			c-2.14-4.92-1.34-7.67,3.59-9.48c3.86-1.41,7.97-2.21,12.04-2.87c1.09-0.18,2.43,1.17,3.66,1.82c5.6-4.62,17.01-4.58,22.67,0.34
			c1.24,1.08,2.69,3.46,2.28,4.62c-1.72,4.91-3.68,9.83-6.4,14.23c-1.44,2.33-11.24-0.09-13.43-2.93c-0.47-0.6-0.41-1.61-0.6-2.42
			c-0.35,0.41-0.7,0.83-1.05,1.24c0,2.78,0,5.56,0,8.02c2.82,2.47,5.78,5.04,8.44,7.37c12.04,3.1,20.94,11.02,30.25,18.27
			c-0.23,0.47-0.46,0.95-0.69,1.42c-9.83-2.86-19.65-5.72-30.03-8.74c-3.42,4.24-6.32-0.96-10.15-1.62
			c2.31,4.15,1.2,10.31,7.89,11.6c0.89,0.17,1.44,1.73,2.37,2.24c1.43,0.78,3.02,1.36,4.61,1.74c0.89,0.21,2.03-0.47,2.86-0.17
			c9.04,3.2,18.03,6.52,27.04,9.8c0,0.33,0,0.67,0,1c-8.06-0.29-16.13-0.47-24.18-0.94c-1.53-0.09-2.99-1.31-3.75-1.67
			c-3.11,0.57-5.78,1.06-8.48,1.56c1.92,8.2,4,17.04,6.38,27.18c-1.96-1.49-3.09-2.07-3.86-2.97c-3.99-4.66-8.66-8.96-11.61-14.22
			c-3.7-6.59-9.08-6.02-14.86-5.57c-0.95,0.07-1.88,0.45-2.91,0.71c-0.81-1.78-1.54-3.39-1.83-4c-4.23,0-7.75,0-11.01,0
			c0.37,6.57,0.77,13.69,1.17,20.81c-0.54,0.15-1.07,0.29-1.61,0.44c-2.02-3.68-4.03-7.37-6.08-11.04
			c-1.38-2.46-2.39-5.36-4.37-7.18c-1.96-1.8-4.94-3.47-7.47-3.45c-6.2,0.04-6.2,0.44-8.66-3.36c-4.03,0.65-7.78,1.48-11.58,1.74
			c-1.24,0.08-2.82-1.07-3.82-2.08c-1.7-1.71-2.83-2.22-4.96-0.32c-1.41,1.26-3.78,1.51-5.76,2.05c-2.03,0.56-4.1,0.93-5.87,1.32
			c0,5.64,0,10.67,0,15.7c-0.35,0.19-0.7,0.38-1.05,0.56c-3.08-4.51-6.16-9.03-9.18-13.45c-5.64,1.02-10.41,7.11-17.35,0.48
			c0.09,6.23,0.22,11.28-5.55,13.24c2.25,4.84,4.22,9.1,6.62,14.28c-6.21-1.64-8-9.82-14.92-7.64
			c-4.31,11.83-19.97,15.66-28.81,6.95c-4.34-4.28-1.98-8.66-0.28-12.92c2.5-6.27,3.63-6.75,8.91-5.54
			c2.07-4.46,4.05-8.73,6.63-14.3c-2.27-1.98-5.22-4.56-8.54-7.46c1.13-2.76,0.76-4.13-3.66-4.94c-4.06-0.75-7.63-4.36-11.33-6.85
			c-1.64-1.11-3.53-2.27-4.48-3.89c-1.54-2.64-2.39-5.69-3.73-9.08c0.63,0.12,0.11-0.09,0.03,0.02c-3.61,4.83-7.95,3.16-12.79,2.19
			c-4.96-0.99-10.25-0.31-15.4-0.35C356,271.67,356,270.33,356,269z M514.52,276.34c7.12-2.12,8.6,2.33,10.63,6.39
			c0.69,1.39,2.32,3.15,3.62,3.24c4.05,0.28,6.4,1.93,7.29,5.92c0.23,1.01,1.27,1.83,1.26,1.81c3.33-0.54,5.85-0.9,8.35-1.38
			c2.87-0.55,5.73-1.2,8.07-1.7c-2.63-2.8-5.62-4.61-6.41-7.11c-1.62-5.12-5.47-6.21-9.71-7.26c-2.89-0.72-5.82-1.31-8.67-2.17
			c-1-0.3-2.17-1.03-2.66-1.9c-2.28-4-6.56-5.82-12.08-4.66c1.2,1.69,2.31,3.27,3.41,4.81
			C516.79,273.41,516.05,274.37,514.52,276.34z M482.78,286.54c2.32-3.92,3.07-6.99,4.7-7.57c3.8-1.35,7.75-0.8,9.58,4.31
			c1.32-4.26,2.43-7.84,3.58-11.54c-1.57-0.54-5.47-0.68-6.91-2.63c-3.11-4.2-6.29-3.09-9.37-1.26c-3.31,1.98-6.29,3.44-8.7,1.58
			c-2.45,1.93-4.26,3.52-6.22,4.88c-1.95,1.35-4.05,2.48-6.68,4.07c6.19,0.88,11.02,1.57,16.16,2.3
			C479.98,282.28,481.37,284.39,482.78,286.54z"/>
	</g>
</g>
</svg>
