<?xml version="1.0" encoding="utf-8"?>
<!-- Generator: Adobe Illustrator 26.2.1, SVG Export Plug-In . SVG Version: 6.00 Build 0)  -->
<svg version="1.1" id="Layer_1" xmlns="http://www.w3.org/2000/svg" xmlns:xlink="http://www.w3.org/1999/xlink" x="0px" y="0px"
	 viewBox="0 0 960 560" style="enable-background:new 0 0 960 560;" xml:space="preserve">
<g>
	<g>
		<path d="M606,163c-6.7,8.62-13.63,17.08-20.02,25.92c-6.61,9.14-12.7,18.66-19.36,28.52c-2.89-2.58-5.43-4.86-8.28-7.41
			c-1.95,10.88-1.95,10.88-4.98,12.2c-1.12,7.5-7.23,12.56-15.17,11.49c-4.34-0.58-7.68,0.4-11.13,2.59
			c-1.49,0.94-3.31,1.38-6.5,2.65c5.85,3.87,11.03,7.17,16.07,10.68c3.88,2.7,7.65,5.58,11.33,8.55c5.12,4.13,9.7,9.06,15.24,12.47
			c7.63,4.7,11.63,11.48,14.17,19.57c1.9,6.05,3.76,12.11,5.64,18.17c-0.64,0.38-1.29,0.76-1.93,1.13
			c-1.38-1.35-2.71-2.73-4.13-4.03c-2.48-2.25-4.92-4.55-7.55-6.62c-2.34-1.84-4.77-3.67-7.41-5.01c-6-3.05-12.23-5.68-18.24-8.72
			c-4.92-2.5-12.5-2.65-11.02-11.54c0.05-0.32-3.74-2.17-4.88-1.59c-2,1-3.34,3.33-5.42,5.61c-5.99-7.5-15.28-6.08-23.38-8.27
			c-2.65-0.72-4.67-1.48-4.2-4.96c0.11-0.81-1.52-2.45-2.6-2.74c-4.71-1.23-13.76,4.53-10.6,10.9c3.23,6.52,2.81,12.74,2.06,19.34
			c-0.07,0.62,0.09,1.27,0.13,1.79c0.49,0.26,0.82,0.6,1.05,0.54c9.83-2.59,11.43,5.36,14.39,11.36c1.31,2.65,2.07,5.58,3.17,8.63
			c1.05,0,2.27,0,3.52,0c0.16,0.67,0.39,1.14,0.37,1.6c-0.14,2.64-0.69,5.33-0.4,7.92c0.21,1.89,1.19,4.89,2.41,5.21
			c2.27,0.6,5.71,0.49,7.32-0.89c3.74-3.23,4.47-2.66,5.22,1.98c1.09,6.69,6.57,9.89,12.4,10.63c10.94,1.39,16.76,7.29,17.97,17.77
			c0.44,3.8-0.38,7.85-1.21,11.66c-2.05,9.43-5.49,17.75-14.98,22.72c-7.21,3.77-14.46,4.33-21.28-0.49
			c-1.22-0.86-2.49-1.67-3.76-2.45c-5.52-3.4-10.22-6.87-8.35-14.86c0.94-4.04-1.44-4.82-5.38-2.85c-1.32,0.66-3.89,0.53-5-0.36
			c-4.37-3.5-8.52-7.31-12.44-11.3c-0.98-1-1.51-3.36-1.04-4.66c0.87-2.43,2.73-4.49,3.97-6.81c0.59-1.11,0.72-2.47,1.05-3.72
			c-1.33-0.07-3.06-0.72-3.94-0.12c-5.38,3.62-9.76,1.58-13.89-2.1c-0.8-0.72-1.41-1.8-1.79-2.83c-1.44-3.91-2.75-7.86-3.88-11.12
			c-4.3,2.69-8.02,5.02-12.18,7.63c2.49,5.28,0.89,10.38-4.09,15.63c-6.68,7.04-12.26,15.12-18.4,22.68c-2.59,3.19-5.78,4-9.78,2.36
			c-3.27-1.34-6.8-2.04-10.68-3.16c0.13,1.46-0.02,2.13,0.23,2.35c5.89,5.24,6.29,7.06,0.13,11.89c-5.67,4.45-11.93,8.46-18.5,11.39
			c-6.98,3.11-13.48,0.87-18.87-4.82c-11.14-11.77-12.41-28.34-3.62-40.88c3.63-5.17,8.45-8.6,15.81-8.41
			c4.77,0.12,10.15-1.75,13.14-8.97c2.39,3.7,4.23,6.57,6.08,9.44c0.42-0.41,0.85-0.81,1.27-1.22c1.68-0.63,3.32-1.38,5.03-1.85
			c3.55-0.97,6.44-1.9,3.61-6.63c-0.63-1.06,0.63-3.69,1.63-5.21c4.61-7.02,9.62-13.78,14.02-20.91c1.06-1.71,0.68-4.54,0.4-6.78
			c-0.38-2.99-0.19-4.71,3.58-4.79c2.34-0.05,4.82-1.14,6.95-2.29c3.22-1.74,4.22-4.37,1.12-7.15c-2.55-2.28-2.37-4.42-1.23-7.49
			c2.18-5.85,3.65-11.96,5.86-19.48c-3.08,0.31-5.06,0.55-7.03,0.71c-3.26,0.26-6.55,0.3-9.79,0.76c-1.95,0.28-4.28,0.66-5.64,1.89
			c-5.85,5.28-7.1,5.44-12.69,0.17c-1.25-1.18-2.36-2.52-4.44-4.77c-0.3,2.77-1,4.48-0.53,5.77c1.49,4.12-1.21,6.42-3.9,7.6
			c-6.35,2.79-12.89,5.37-19.61,6.99c-9.51,2.29-14.29-0.76-17.68-9.88c-1.2-3.22-2.35-6.45-3.52-9.68c0-2.33,0-4.67,0-7
			c1.4-2.63,2.63-5.37,4.23-7.86c4.54-7.03,11.36-10.63,19.25-12.8c9.81-2.7,19.18-3.89,26.8,4.96c0.59,0.68,1.47,1.11,2.74,2.05
			c0.11-1.76,0.53-2.98,0.19-3.92c-1.6-4.31,0.65-6.48,4.3-7.29c6.68-1.49,13.41-3.1,20.21-3.65c7.09-0.57,8.68-1.47,8.16-8.73
			c-0.4-5.63-1.91-11.2-2.02-16.82c-0.14-7.01,0.55-14.04,1.14-21.04c0.07-0.77,1.88-1.39,2.88-2.08c0.66,1.01,1.85,1.99,1.89,3.02
			c0.35,10.44,6.1,17.12,14.28,21.6c4.98-7.84,9.84-15.68,14.94-23.35c0.88-1.33,2.79-1.98,4.23-2.95c0.69,1.51,1.98,3.02,1.97,4.53
			c-0.01,5.26-0.98,10.56-0.63,15.78c0.53,7.92,2.32,15.77,2.7,23.69c0.34,6.94,0.31,7.98,8.86,9.03c5.05,0.62,9.99,3.86,14.4,6.8
			c1.44,0.96,1.04,4.69,1.47,7.16c0.2,1.14,0.1,2.46,0.65,3.39c0.61,1.03,1.74,2.27,2.76,2.38c0.96,0.1,2.54-0.9,3.02-1.84
			c1.23-2.4,1.99-5.04,3.1-8.01c-5.87,0.97-5.84,0.95-8.88-3.67c-0.72-1.1-1.71-2.03-2.61-3.01c-3.88-4.26-4.63-11.79-0.43-15.79
			c4.71-4.49,10.43-7.95,15.79-11.74c1.45-1.02,3.2-1.61,5.57-2.77c-0.33,1.97-0.77,2.87-0.54,3.53c0.78,2.19,1.8,4.3,2.73,6.44
			c1.75-1.57,3.9-2.89,5.13-4.8c0.88-1.37,0.35-3.58,0.81-5.31c0.34-1.28,0.99-2.79,2-3.54c3.51-2.59,7.22-4.91,10.88-7.29
			c1.04-0.68,2.17-1.23,3.44-1.94c0.84,1.52,1.46,2.64,2.19,3.95c1.17-1.19,3.04-2.19,3.12-3.31c0.45-6.38,5.92-6.65,9.93-8.91
			c8.96-5.04,17.59-10.68,26.72-15.37c3.77-1.93,7.31-6.41,12.6-3.53C606,162.33,606,162.67,606,163z"/>
	</g>
</g>
</svg>
