<?xml version="1.0" encoding="utf-8"?>
<!-- Generator: Adobe Illustrator 26.2.1, SVG Export Plug-In . SVG Version: 6.00 Build 0)  -->
<svg version="1.1" id="Layer_1" xmlns="http://www.w3.org/2000/svg" xmlns:xlink="http://www.w3.org/1999/xlink" x="0px" y="0px"
	 viewBox="0 0 960 560" style="enable-background:new 0 0 960 560;" xml:space="preserve">
<g>
	<g>
		<path d="M404,156c4.15,3.84,8.55,7.46,12.34,11.62c1.83,2.01,2.54,5.04,3.19,6.41c3.41,2.25,6.82,3.44,8.51,5.84
			c3.45,4.89,8.36,8.4,10.69,14.65c1.81,4.85,7.91,8.09,12.17,12.1c-0.3,1.85-0.57,3.52-0.97,6.03c5.66-3.13,8.58,0.05,10.89,3.76
			c2.9,4.65,6.76,5.15,11.62,4.02c2.02-0.47,4.29,0.1,6.73,0.21c6.49-7.66,15.89-12.37,26.03-16.47c0.89,1.47,1.62,2.68,2.98,4.93
			c1.45-8.43,7.2-7.43,12.86-7.85c2.42-0.18,4.87-3.16,6.87-5.27c2.31-2.44,4.08-5.51,8.18-2.33c-0.36-6.64,2.86-10.45,8.56-10.98
			c0.45-5.67,10.31-17.27,19.23-20.81c-2.07,4.88-4.05,9.8-6.23,14.62c-2.24,4.95-4.53,9.9-7.16,14.64
			c-0.56,1.01-2.69,1.16-3.63,1.52c-0.58,3.06-1.2,6.29-1.88,9.9c0.76,0.26,2.1,0.71,3.54,1.2c-0.23,2.06-0.44,3.97-0.66,5.88
			c3.95-3.29,7.56-6.69,11.48-2.03c3.38-2.13,6.35-3.65,8.77-5.78c0.6-0.52-0.56-3.05-0.91-4.65c-0.53-0.18-1.05-0.36-1.58-0.54
			c7.24-7.96,14.49-15.92,21.73-23.88c0.63,0.4,1.26,0.8,1.88,1.21c-4.03,9.78-5.44,20.64-11.68,29.58
			c-1.49,3.31-2.98,6.62-4.82,10.71c0.87,3.97,9.58,5.36,5.93,12.87c4.99-0.28,5.65,3.22,6.97,6.81c2.59,7.07,3.25,13.9-0.17,20.76
			c-3.51,7.05-8.57,9.38-15.87,6.98c-2.8-0.92-5.93-2.23-7.71-4.37c-1.46-1.75-1.01-5.01-1.7-7.53c-0.46-1.68-1.43-3.21-1.98-4.41
			c-2.86,1.57-5.33,2.93-8.12,4.47c4.07,6.44-6.1,8.12-5.56,14.7c1.94,0.83,4.76,1.51,6.96,3.06c6.45,4.54,15.86,5,19.72,12.87
			c3.69,7.52,6.26,15.58,9.26,23.43c0.16,0.43-0.31,1.1-0.45,1.54c-6.24-7.38-12.31-14.55-18.53-21.91
			c-3.37,2.99-7.17-0.59-11.34-1.63c-4.02-1-8.6-2.27-12.34-1.25c-4.38,1.2-7.88,2.34-11.74-2.96c0.24,3.61,0.38,5.65,0.52,7.78
			c-3.01,0.84-5.82,1.62-8.01,2.24c3.74,3.56,7.23,7.24,11.15,10.39c1.08,0.87,3.42,0.15,5.18,0.22c2.74,0.11,5.48,0.28,8.94,0.47
			c1.66-3.79,5.95-1.94,9.7-1.64c2.93,0.23,6.14,0.44,6.07,4.58c19.78,1.41,30.41,14.91,29.7,32.19
			c-9.01-13.6-21.13-21.29-35.47-21.69c-3.57,0.65-5.7,1.02-7.82,1.42c-2.25,0.43-4.49,0.88-6.95,1.37
			c1.16,3.99,6.88,6.57,2.03,11.1c6.97,1.72,10.5,6.89,9.92,13.57c-0.08,0.88,0.79,1.94,1.4,2.78
			c7.29,10.03,14.62,20.04,21.89,30.08c0.19,0.27-0.13,0.9-0.34,2.15c-1.5-0.86-2.81-1.36-3.82-2.22
			c-5.68-4.88-11.46-9.67-16.82-14.88c-1.81-1.76-2.08-5.05-3.82-6.93c-1.72-1.87-4.82-2.46-6.58-4.31
			c-2.8-2.94-6.96-5.19-6.74-10.24c0.02-0.37-1.03-1.21-1.41-1.12c-5.72,1.37-6.99-3.74-9.23-6.76c-2.41-3.25-4.9-3.84-7.88-1.85
			c-4,2.66-4.48,6.31-1.79,9.8c0.5,0.65,1.04,1.28,1.72,2.1c-0.7,1.28-1.38,2.54-2.05,3.76c0.26,0.34,0.49,0.82,0.63,0.79
			c3.47-0.62,5.38,0.92,6.95,4.01c1.57,3.08,5.49,5.71,5.57,8.61c0.09,3.69,1.84,5.41,3.6,7.93c5.31,7.6,10.18,15.52,14.8,24.61
			c-1.9-0.79-4.18-1.16-5.64-2.45c-4.1-3.62-7.8-7.68-11.78-11.45c-1.92-1.82-4.22-3.23-6.11-5.08c-1.65-1.61-2.95-3.58-5.31-6.53
			c-6.92-3.06-10.15-11.29-15.01-17.85c-1.96-0.96-3.92-1.92-6.2-3.03c-1.41,1.44-3.12,3.44-5.09,5.14
			c-5.14,4.41-5.19,4.36-9.62-2.24c0.05,7.19-2.97,9.82-9.19,8.61c-4.33-0.84-10.04,1.87-11.59-7.02c-1.4,3.69-2.13,5.62-3.06,8.07
			c-4.02-1.14-8.08-2.29-12.33-3.49c-3.88,5.98-8.19,12.25-12.08,18.76c-2.44,4.08-4.16,8.67-11.4,5.47c4.65,6,0.11,8.38-2.57,11.54
			c-5.47,6.45-10.78,13.03-16.15,19.56c-0.67,0-1.33,0-2,0c4.23-7.19,3.97-16.07,9.71-22.99c3.51-4.22,4.65-10.59,6.24-16.17
			c1.35-4.74,3.8-7.51,9.8-7.28c-1.46-2.49-2.5-4.26-3.67-6.24c1.64-2.64,3.36-5.41,5.27-8.47c-2.48-1.43-4.57-2.64-7-4.04
			c-3.51,4.49-6.86,8.61-10.02,12.87c-2.35,3.16-4.16,7.06-8.65,4.75c-0.88,2.75-1.02,5.65-2.51,7.44
			c-6.91,8.28-14.17,16.26-21.35,24.32c-0.99,1.11-2.18,2.06-3.27,3.08c0.91-4.21,2.19-8.02,4.45-11.13
			c4.2-5.79,4.58-13.99,11.52-18.06c0.8-0.47,1.46-2.03,1.38-3.02c-0.65-8.61,5.49-12.48,11.43-17.08c-3.78-5.9,2.16-9.5,4.13-14.1
			c-3.45-5.14-6.84-10.19-10.42-15.54c-0.73,0.14-2.27,0.44-4.3,0.83c-1.03-4.16-2.11-7.97-2.91-11.85
			c-2.62-12.78,5.63-20.29,14.95-21.7c6.7-1.02,9.35,2.01,7.14,8.3c-0.26,0.73-0.48,1.47-0.53,1.62c2.56-0.26,5.64-1.52,7.3-0.49
			c2.03,1.25,2.86,4.43,4.83,7.85c1.96-3.04,3.2-4.92,4.39-6.82c2.74-4.39,6.92-5.26,11.01-2.25c5.26,3.87,5.74,11.32,1.15,17.82
			c-4.5,6.37-4.34,7.07,1.77,10.18c3.12-2.13,5.92-4.03,7.88-5.36c0.21-2.24-0.35-4.93,0.71-6.01c3.36-3.41,13.03-1.26,14.5,3.26
			c1.33,4.1,1.6,8.53,2.45,13.43c4.43-0.79,7.98,1.16,8.29,7.94c2.48-4.47,4.2-7.56,5.92-10.65c1.12,0.01,1.17-0.49,1.04-0.94
			c-2.2-7.62-0.96-11.64,4.51-14.45c3.98-2.05,8.24-0.63,12.59,4.9c2.92,3.7,5.32,2.72,8.1,0.29c-2.08-5.43-4.07-10.63-6.13-16.01
			c-2.21,0-4.71,0-8.32,0c-3.79,4.34-10.17,3.07-16.16,2.61c-6.21-0.47-13.1-0.49-13.96-8.68c-1.74,0.86-3.58,2.41-4.26,2.01
			c-4.95-2.93-12.36-3.56-11.67-11.07c-2.29,0.26-4.45,1.17-6.06,0.57c-5-1.87-9.46-14.99-7.05-19.76
			c1.56-3.09,16.47-11.63,19.6-10.42c4.76,1.83,9.58,4.12,13.47,7.31c1.82,1.49,1.53,5.55,2.28,8.8c3.23-5.98,6.57-1.13,10.23,0.07
			c6.15,2.03,1.68,7.79,4.25,11.12c1.02-1.39,2.02-2.74,3.08-4.18c1.41,0.82,2.45,1.43,4.02,2.34c-0.43-2.14-0.73-3.67-1.02-5.1
			c4.24-0.76,8.18-1.46,12.11-2.16c1.25,0.93,2.75,2.04,4.26,3.16c0.84-1.82,1.67-3.63,2.65-5.75c2.81-0.67,6.08-1.24,9.19-2.28
			c1.76-0.58,3.9-1.55,4.76-3c2.04-3.43,4.09-6.1,8.58-4.5c0.13-5.99,9.48-17.16,14.08-17.64c-0.29-2.44-0.59-4.88-0.95-7.85
			c-1.1-0.5-2.79-1.26-4.44-2.01c0.71-1.92,1.31-3.51,1.55-4.18c-2.67,0.48-5.3,0.71-7.78,1.47c-1.48,0.45-3.08,1.45-3.96,2.68
			c-1.53,2.14-2.3,4.81-3.82,6.95c-2.56,3.63-3.2,9.33-10.23,9.1c5.15,3.43,2.67,7.05,1.27,10.47c-1.48,3.61-4.01,6.1-8.24,6.19
			c-6.29,0.14-9.06-2.64-8.94-8.94c0.03-1.32-0.28-2.67-0.09-3.96c0.84-5.54,2.45-10.65,7.33-12.71c1.09-3.31,1.97-5.96,3.08-9.31
			c-2.53,0.69-4.89,1.95-7.13,1.77c-2.18-0.17-4.24-1.82-6.5-2.89c0.12,1.93,0.26,4.18,0.42,6.75c-5.2,1.33-10.33,2.64-15.46,3.94
			c-0.81,0.2-1.63,0.45-2.45,0.48c-5.47,0.14-11.14-0.29-14.04,6c-0.27,0.6-1.37,0.88-2.14,1.18c-4.83,1.86-15.29-0.88-19.14-4.42
			c-1.77-1.63-4.37-2.97-6.73-3.24c-9.26-1.07-16.35-5.27-21.15-13.24c-0.64-1.06-0.83-2.38-1.39-4.08
			c5.87,3.02,10.86,5.58,14.92,7.66c2.61-1,4.38-1.69,6.33-2.44c-0.84-2.36-1.01-5.47-2.65-6.92c-5.86-5.21-8.46-11.68-9.74-19.43
			c-3.27-0.88-7.15-1.85-4.68-7.49c0.35-0.8-0.93-2.55-1.79-3.58c-1.54-1.82-3.67-3.21-4.96-5.16c-3.3-4.99-6.5-10.09-9.3-15.37
			c-1.47-2.78-2.01-6.05-2.97-9.11C402.67,156,403.33,156,404,156z"/>
		<path d="M410.72,237.38c-4.03-0.72-8.79,1-10.48-4.64c-1.09-3.65-3.08-7.03-5.1-11.48c-5.85-0.08-7.73-5.28-8.9-11.42
			c-0.36-1.87-2.49-3.33-3.13-5.21c-3.74-10.95-7.3-21.97-10.84-32.99c-0.13-0.42,0.53-1.09,1.28-2.53
			c6.42,9.41,12.47,18.28,18.99,27.82c-0.2,0.42-0.91,1.94-1.99,4.24c2.35-0.48,3.85-0.78,5.94-1.21
			c3.27,5.23,6.6,10.56,10.26,16.42c4.31,3.83,9.3,8.26,14.98,13.31c0,0.97,0,3.06,0,5.16c4.99-0.48,11.79,6.34,13.01,12.83
			c0.76,4.02-3.23,8.18-8.92,9.57c-5.85,1.43-10.94,1.05-14.08-5.02c-0.22-0.43-0.61-0.79-0.93-1.17c-1.69-2.02-4.34-3.87-4.73-6.11
			c-0.27-1.54,2.65-3.6,4.06-5.49C410.47,238.99,410.47,238.28,410.72,237.38z"/>
	</g>
</g>
</svg>
