<?xml version="1.0" encoding="utf-8"?>
<!-- Generator: Adobe Illustrator 26.2.1, SVG Export Plug-In . SVG Version: 6.00 Build 0)  -->
<svg version="1.1" id="Layer_1" xmlns="http://www.w3.org/2000/svg" xmlns:xlink="http://www.w3.org/1999/xlink" x="0px" y="0px"
	 viewBox="0 0 960 560" style="enable-background:new 0 0 960 560;" xml:space="preserve">
<g>
	<g>
		<path d="M395,406c3.35-8.84,6.63-17.71,10.11-26.5c0.71-1.81,1.86-3.71,3.36-4.88c2.99-2.33,6.11-4.14,2.58-8.49
			c-0.43-0.53,0.85-2.59,1.54-3.83c2.71-4.94,5.78-9.71,8.16-14.81c1.44-3.07,2.54-5.51,7.3-3.1c-0.12-2.55,0.31-4.47-0.37-5.85
			c-1.88-3.82-0.87-7.07,1.11-10.36c1.37-2.28,2.76-4.55,3.96-6.92c2.56-5.07,8.17-8.13,13.11-7.02c4.73,1.06,7.61,5.61,7.11,12.19
			c-0.25,3.26-1.15,6.55-2.3,9.62c-1.36,3.67-3.7,5.81-7.49,2.05c-3.1,2.13-1.95,4.48-1.31,7.13c0.41,1.67-0.27,5.16-0.95,5.3
			c-7.59,1.47-8.75,8.44-12.21,13.45c-0.77,1.11-2.21,1.75-3.61,2.81c-0.51,1.68-0.7,4.57-2.13,6.54
			c-3.52,4.83-7.64,9.2-11.46,13.81c-5.2,6.26-10.34,12.57-15.51,18.86C395.67,406,395.33,406,395,406z"/>
		<path d="M376,156c7.21,6.84,13.45,15.49,21.9,20c8.11,4.33,12.14,12,19.11,16.86c1.37,0.95,1.78,3.26,3,5.66
			c8.92-0.34,12.35,9.91,19.78,14.09c0.96,0.54,0.69,3.26,1.01,5.04c5.59-0.02,7.86,1.76,8.88,7.27c1.07,5.81-0.96,9.62-6.15,11.54
			c-7.03,2.6-9.72,2.01-14.29-3.82c-3.38-4.32-8.42-8.65-9.07-13.47c-0.83-6.24-4.11-8.57-8.36-11.51
			c-2.52-1.74-4.25-4.64-6.26-7.07c-2-2.43-3.96-4.73-2.75-8.46c0.33-1.02-1.63-2.92-2.75-4.24c-1.21-1.45-2.69-2.67-4-4.04
			c-1.29-1.35-2.33-2.99-3.78-4.12c-8.03-6.28-13.47-14.4-17.27-23.73C375.33,156,375.67,156,376,156z"/>
		<path d="M530.04,233.99c0-1.43,0-3.37,0-6.22c2.22,1.21,3.81,2.07,6.18,3.36c-1.67-7.13,3.43-9.09,7.57-12.19
			c5.79-4.33,11.04-9.38,16.85-14.41c0.96,0.5,2.48,1.3,4.63,2.44c-0.48-5.99,3.58-8.12,7.28-10.67
			c9.16-6.32,18.23-12.79,27.33-19.19c1.02-0.71,2.03-1.43,3.72-1.61c-0.35,0.73-0.55,1.59-1.07,2.18
			c-11.26,12.92-22.41,25.93-33.91,38.62c-3.72,4.1-7.7,6.83-9.63,13.27c-1.84,6.15-9.98,10.5-15.59,15.35
			c-1.17,1.01-3.42,0.76-5.32,1.12c-2.3,9.22-8.26,12.9-16.98,10.22c-5.38-1.66-8.68-6.92-6.38-12.04
			c1.91-4.25,5.14-8.06,8.42-11.45C523.95,231.92,527.22,233.44,530.04,233.99z"/>
		<path d="M432.05,268.09c4.87-9.17,9.45-18.2,14.47-26.97c1.33-2.33,3.85-4.2,6.21-5.62c1.33-0.8,3.47-0.24,5.25-0.29
			c0.03,1.83,0.76,4.12-0.06,5.39c-1.68,2.6-3.87,5.18-6.45,6.83c-5.82,3.73-8.34,9.34-11.44,16.5c8.27-3.74,15.17-4.01,20.06,2.66
			c2.69,3.67-0.07,13.68-3.35,16.11c-6.89,5.09-12.54,2.73-19.06-1.45c0.07,7.95,3.07,14,7.58,19.62
			c4.29,5.34,8.35,10.85,12.66,16.48c-8.39-4.67-15.77-10.35-20.22-19.22c-0.89-1.77-1.42-3.73-1.99-5.63
			c-0.76-2.54-0.62-6.55-2.22-7.41c-4.91-2.64-10.4-4.28-15.81-5.81c-1.19-0.34-2.96,1.36-4.78,2.28c-1.49-3.42-4.81-1.27-7.75-1.75
			c-8.64-1.41-18.06-0.57-26.04-7.4c8.91-1.61,17.33-3.89,25.86-4.41c6.37-0.39,12.63-1.44,18.95-2
			C427.42,265.68,430.45,264.78,432.05,268.09z"/>
		<path d="M597.06,376.74c-11.05-8.43-22.12-16.84-33.12-25.34c-1.14-0.88-2.22-2.17-2.7-3.5c-1.02-2.79-2.55-3.33-5.57-3.49
			c-2.39-0.12-4.81-2.68-6.93-4.49c-2.45-2.1-4.78-4.42-6.79-6.95c-1.19-1.49-1.65-3.56-2.42-5.31c-2.38-0.63-6.16-0.49-7.61-2.25
			c-4.16-5.08-8.3-10.56-10.7-16.58c-2.36-5.91,3.29-11.74,9.75-10.95c2.67,0.33,5.9,1.26,7.65,3.09
			c5.82,6.1,14.02,10.55,15.13,20.22c0.06,0.56,0.52,1.36,1,1.55c8.92,3.64,11.76,13.71,19.56,18.62c0.75,0.47-0.28,3.37,0.07,5.03
			c0.32,1.54,1.05,3.31,2.19,4.3c1.73,1.49,4.51,1.93,5.9,3.61c5.21,6.25,10.06,12.81,14.99,19.29c0.44,0.57,0.5,1.43,0.74,2.16
			C597.82,376.08,597.44,376.41,597.06,376.74z"/>
		<path d="M551.24,361.8c9.95,10.99,18.94,20.93,27.94,30.86c-0.23,0.38-0.46,0.75-0.69,1.13c-1.94-0.9-4.14-1.47-5.78-2.75
			c-11.49-8.96-22.95-17.97-34.2-27.23c-1.73-1.42-3.04-4.12-3.31-6.37c-0.37-3.08-1.75-3.51-4.25-3.31
			c-7.92,0.64-15-7.02-13.17-16.17c-2.69,1.41-4.45,2.33-7,3.66c-6.44-4.95-12.15-11.13-11.74-21.09
			c0.26-6.32,6.58-10.76,12.28-8.07c9.2,4.35,13.45,12.93,17.32,21.65c0.29,0.66-0.36,1.75-0.58,2.68
			C534.48,337.4,551.42,356.96,551.24,361.8z"/>
		<path d="M505.92,282.51c-4.22-0.9-9.23,1.91-10.9-4.56c-2.61,5.03-8.2,6.37-12.82,3.7c-3.19-1.85-3.19-8.94-0.01-13.7
			c3.29-4.92,8.49-5.65,12.02-2.94c3.98-0.54,6.76-0.66,9.4-1.34c2.18-0.56,4.19-1.79,6.16-2.67c-5.15-10.33-9.33-20.45-20.39-24.89
			c16.24,4.58,24.71,15.59,25.59,30.74c3.7,0,6.26-0.36,8.68,0.06c12.04,2.06,24.04,4.38,36.08,6.49c2.55,0.45,5.19,0.42,8.01,1.41
			c-1.92,0.4-3.83,1.08-5.76,1.16c-9.62,0.38-19.25,0.44-28.86,0.97c-3.59,0.2-7.11,1.41-10.68,2.08c-1.75,0.33-4,1.28-5.21,0.57
			c-3.99-2.34-4.77-0.21-5.69,3.01c-2.1,7.34-4.22,14.69-6.78,21.88c-2.14,6.01-6.19,10.63-12.36,12.89c-1.22,0.45-2.76,0-4.15-0.04
			c0.15-1.57-0.3-3.77,0.56-4.57c2.3-2.15,5.17-3.68,7.78-5.5c0.73-0.51,1.87-1.16,1.9-1.8c0.32-5.36,2.78-9.6,5.81-13.92
			C505.85,289.31,505.42,285.69,505.92,282.51z"/>
		<path d="M382.12,350.47c-1.97-10.47,10.09-12.75,11.58-21.04c6.38-0.34,6.51-0.54,5.29-8.06c4.15-1.28,7.89-2.15,6.69-8.75
			c-0.67-3.7,4.09-6.74,9.28-6.68c-1.09-1.45-2.04-2.69-3.17-4.19c1.51-1.42,2.98-2.68,4.31-4.06c4.63-4.83,9.01-5.07,14.29-0.69
			c4.21,3.49,4.55,8.36,0.86,13.29c-3.17,4.23-6.42,8.41-9.81,12.84c-1.53-1.69-2.99-3.28-4.53-4.98c-0.58,0.77-0.97,1.09-0.91,1.25
			c2.01,5.82-0.64,9.33-5.16,12.89c-3.97,3.13-6.86,7.62-10.19,11.46c-3.84-2.21-6.25-0.95-6.8,2.93c-0.21,1.51-1.07,3.08-2.04,4.3
			c-2.16,2.73-4.48,5.34-6.9,7.85c-7.36,7.65-14.76,15.25-22.23,22.79c-0.98,0.99-2.41,1.55-4.23,1.73
			c3.3-5.16,6.69-10.26,9.88-15.48c2.77-4.54,5.21-9.28,8.04-13.78c1.03-1.63,2.76-2.82,4.16-4.21
			C381.09,350.07,381.6,350.27,382.12,350.47z"/>
		<path d="M358.96,171.1c0.81,0.5,1.84,0.83,2.41,1.53c9.12,11.32,21.71,18.44,32.79,27.39c1.04,0.84,0.89,3.16,1.21,4.45
			c2.38,2.19,5.19,4.27,7.36,6.88c3.81,4.57,7.24,9.47,10.85,14.25c-1.39,1.72-2.57,3.17-4.03,4.97c4.83,0.84,9.05,1.51,13.25,2.32
			c7.02,1.35,12.84,14.34,9.24,20.54c-2.34,4.03-7.49,5.02-13.41,2.62c-4.16-1.69-7.02-3.99-4.73-9.08
			c0.37-0.83,0.17-1.92,0.15-1.69c-4.82-3.62-9.21-6.49-13.07-9.96c-2.89-2.6-5.64-5.68-7.43-9.09c-1.26-2.41-0.8-5.71-1.12-8.72
			c-6.32-1.75-13.1-12.37-11.51-19.12c-7.29,0.86-9.02-5.12-12.01-9.68c-2.91-4.44-5.93-8.81-8.89-13.23
			c-0.76-1.14-1.45-2.32-2.18-3.49C358.23,171.7,358.59,171.4,358.96,171.1z"/>
		<path d="M466.13,302.3c-1.54-2.39-3.75-4.35-4.1-6.61c-1.16-7.46,6.07-12.17,13.93-9.42c7.92,2.77,9.41,12.19,2.91,20.38
			c4.19,2.79,3.94,6.68,3.26,11.27c-1.21,8.19-1.37,16.53-2.28,24.78c-0.17,1.55-1.83,2.94-3.19,4.99c2.14,4.53,2,8.99-2.2,22.39
			c-1.61-3.99-3.72-7.85-4.73-11.98c-2.15-8.82-3.77-17.77-5.47-26.7c-0.26-1.37-0.21-3.16,0.49-4.27c2.02-3.23,2.25-5.48-1.55-7.71
			c-2.21-1.3-1.11-13.22,1-15.33C464.87,303.43,465.58,302.81,466.13,302.3z"/>
		<path d="M580.46,157.94c-1.39,1.69-2.67,3.5-4.2,5.06c-10.59,10.81-21.2,21.59-31.88,32.31c-2.45,2.46-5.2,4.61-8.58,7.59
			c1.69,4.16-2.3,6.89-6.03,10c-1.97,1.64-3.27,4.08-4.91,6.13c-3.27,4.05-3.28,4.03-8.64,2.94c0.08,6.2-4.03,9.34-8.98,11.57
			c-4.77,2.15-9.12-0.05-10.4-5.11c-1.41-5.57-0.69-11.93,4.18-14.22c4.93-2.32,6.93-6.36,10.31-9.59c3.41-3.25,7.5-3.05,10.43-0.25
			c1.83-2.53,3.07-5.45,5.27-7.09c8.73-6.52,17.92-12.43,26.62-18.98c6.88-5.19,13.29-11,19.92-16.51c1.95-1.62,3.95-3.19,5.93-4.79
			C579.82,157.31,580.14,157.62,580.46,157.94z"/>
		<path d="M473.94,197.34c1.46,4.71,3.39,9.33,4.25,14.15c1.29,7.23,2.04,14.57,2.56,21.9c0.14,1.95-1.43,4.01-2.31,6.29
			c4.7,0.54,6.34,3.02,6.4,8.38c0.04,4.47,1.29,8.37-3.25,11.36c-1.46,0.96-2.35,2.77-3.58,4.11c-4.71,5.1-11.78,3.99-13.79-2.58
			c-1.38-4.53-1.59-9.45-2.08-14.22c-0.1-0.94,0.99-1.96,1.37-3.01c0.52-1.41,1.43-2.98,1.2-4.31c-0.82-4.94-0.54-9.44,2.88-13.49
			c0.59-0.7,0.26-2.35,0.04-3.51c-0.33-1.79-1.25-3.52-1.29-5.29c-0.04-1.59,0.67-3.23,1.2-4.79c1.7-4.99,3.46-9.96,5.2-14.94
			C473.14,197.37,473.54,197.36,473.94,197.34z"/>
	</g>
</g>
</svg>
