<?xml version="1.0" encoding="utf-8"?>
<!-- Generator: Adobe Illustrator 26.2.1, SVG Export Plug-In . SVG Version: 6.00 Build 0)  -->
<svg version="1.1" id="Layer_1" xmlns="http://www.w3.org/2000/svg" xmlns:xlink="http://www.w3.org/1999/xlink" x="0px" y="0px"
	 viewBox="0 0 960 560" style="enable-background:new 0 0 960 560;" xml:space="preserve">
<g>
	<g>
		<path d="M462,406c-5.98-0.91-11.95-2.01-17.96-2.68c-5.45-0.61-9.88-4.08-10.11-8.75c-5.8,1.44-7.69-3.6-10.64-6.7
			c-2.37-2.49-4.36-5.4-6.13-8.36c-1.54-2.57-3.14-4.9-1.51-8.7c1.14-2.66-0.8-6.51-0.82-9.83c-0.04-6.59,1.55-12.64,5.7-18.12
			c2.94-3.89,4.45-8.86,7.44-12.7c2.73-3.51,5.74-7.33,11.44-6.75c1.4,0.14,2.95-3.23,4.63-3.44c4.22-0.55,8.77-1.09,12.78-0.03
			c6.8,1.79,13.05,4.66,17,11.54c5.03,8.76,3.61,23.57-3.88,30.62c-1.77,1.66-3.09,4.25-5.15,5.05c-8.67,3.4-19.68-3.53-20.63-12.84
			c-0.35-3.4-1.01-7.17,4.11-8.45c1.84-0.46,2.98-3.55,4.85-4.12c5.71-1.73,7.17-0.35,7.48,6.95c-1.67-1.87-2.84-3.18-4.42-4.95
			c-2.26,3.15-4.34,6.03-6.59,9.17c1.57,1.86,2.94,4.58,5.15,5.83c2.26,1.28,5.76,3.52,7.93,0.12c2.03-3.18,3.57-6.92,4.3-10.61
			c1.13-5.74-3.06-10.11-5.16-14.99c-0.28-0.65-2.1-1.39-2.18-1.28c-3,3.79-6.39,0.77-8.8-0.22c-3.46-1.42-5.19-0.09-7.17,1.93
			c-2.1,2.14-4.04,4.44-6.24,6.46c-1,0.91-2.47,1.31-4.81,2.48c-9.72,15.97-4.82,29.45,10.69,39.53c2.33,0,4.52-0.38,6.51,0.08
			c4.79,1.11,9.43,3.05,14.26,3.78c2.32,0.35,5.1-2.24,7.39-1.85c6.42,1.08,11.13-3.06,16.68-4.46c1.98-0.5,4.07-0.58,5.59-0.78
			c3.4-3.83,6.83-7.7,10.45-11.78c-3.32-1.09-6.2-1.94-9-2.98c-3.66-1.37-5.65-5.54-3.96-9.06c3.42-7.11,6.24-14.69,15.17-17.29
			c1.64-0.48,2.4-3.93,3.44-5.76c-1.49-2.33-2.88-4.49-4.18-6.53c-3.6,1.75-7.19,4.57-11.03,4.98c-2.61,0.28-5.92-2.42-8.33-4.48
			c-9.99-8.54,1.71-14.52,2.77-22.51c-1.51-0.55-3.29-1.19-4.91-1.78c-3.43,6.08-6.96,11.84-13.06,15.22
			c-2.82,1.56-6.52,2.32-8.54-0.96c-1.88-3.05-3.93-6.34-1.2-10.57c2.9-4.49,2.59-9.56,0.48-13.47c-4.11,0.52-7.49,0.95-10.87,1.38
			c0.01-0.35,0.02-0.71,0.04-1.06c-2.3,2.08-4.6,4.15-6.58,5.94c-0.67,4.76-1.13,9.69-2.14,14.5c-0.6,2.89-2.47,4.39-5.95,3.45
			c-3.77-1.02-7.8-2.15-11.56-1.77c-2.54,0.26-5.19,2.73-7.06,4.85c-0.88,1-0.63,3.8,0.11,5.29c3.6,7.28-1.7,18.71-9.64,20.22
			c-4.17,0.79-8.33,1.77-12.54,2.14c-1.18,0.11-3.43-1.44-3.66-2.53c-1.21-5.97-1.95-12.03-2.82-18.06
			c-0.07-0.46,0.02-1.07,0.28-1.44c6.04-8.83,2.46-18.86,2.88-28.2c0.54-11.89-2.13-23.9-2.3-35.87
			c-0.17-12.52,2.13-24.74,6.12-36.82c3.18-9.62,5.17-19.58,11.19-28.02c0.66-0.92,1.33-1.83,2.64-3.63
			c-1.94,7.75-3.63,14.43-5.28,21.11c-1.75,7.09-3.78,14.13-5.09,21.3c-0.77,4.24-0.22,8.7-0.55,13.04
			c-0.96,12.41,0.04,24.65,3.18,36.67c1.05,4.02,2.67,7.89,4.15,12.19c2.71-2.65,5.5-5.65,8.59-8.3c2.73-2.33,2.91-5.22,3.02-8.43
			c0.3-8.29,0.85-16.56,1.29-24.84c0.14-2.62-0.33-5.44,3.16-6.56c0.52-0.17,0.79-1.73,0.81-2.66c0.11-4.39-0.25-8.82,0.22-13.16
			c0.34-3.14,1.77-6.17,2.65-9.26c0.72-2.53,1.4-5.08,2.03-7.64c1.81-7.26,2.85-14.82,5.54-21.74
			c4.12-10.59,10.86-19.69,19.75-27.28c-1.3,2.59-2.66,5.15-3.9,7.76c-2.97,6.27-5.77,12.52-7.06,19.51
			c-1.71,9.26-6.96,17.82-6.85,27.41c0.08,7.46-5.22,13.88-3.22,21.55c1.25,4.79,2.69,9.19,0.05,14.67
			c-1.56,3.24,1.28,8.61,2.14,13.02c4.53-1.04,8.48-6.78,13.7-1.64c4.18-4.88,10.12-4.81,15.62-5.05c2.05-0.09,3.6,3.17,6.92,1.41
			c5.14-2.72,11.05-12.38,10.37-18.41c-0.07-0.63,0.04-1.31,0.22-1.92c2.88-9.7,5.92-19.35,8.61-29.1c0.66-2.39-0.22-5.19,0.3-7.65
			c1.66-7.75,3.79-15.4,5.46-23.15c0.94-4.36,1.46-8.83,1.93-13.27c0.5-4.69,0.71-9.41,1.51-14.11c2.71,8.67,3.75,17.43,2.57,26.42
			c-0.86,6.52-1.51,13.06-2.26,19.59c-0.04,0.33-0.31,0.7-0.22,0.96c3.22,8.82-1.89,16.86-2.45,25.34
			c-0.55,8.28-2.1,16.49-3.21,24.72c-0.25,1.81-0.11,3.81-0.84,5.4c-2.54,5.52-0.74,9.21,3.98,12.51c1.34,0.94,1.41,3.67,2.07,5.61
			c1.97,0.15,4.5,0.68,6.93,0.39c1.38-0.17,3-1.43,3.8-2.67c3.82-5.87,7.75-11.7,10.93-17.92c2.61-5.11,4.26-10.72,6.27-16.13
			c2.09-5.61,0.72-12.22,5.36-17.24c0.88-0.96-1.03-4.09-0.78-6.1c1.93-15.28,3.96-30.54,1.92-45.98c-0.01-0.1,0.16-0.22,0.8-1.07
			c0.96,2.4,2.03,4.34,2.54,6.42c4.58,18.61,3.61,37.23,1.65,56.18c-1.12,10.85-5.05,20.36-7.65,30.49
			c-2.25,8.79-8.56,15.15-10.43,23.8c-1.06,4.92,0.06,10.09,4.16,13c0.83,0.59,1.48,1.74,1.77,2.75c1.8,6.24,3.47,12.52,5.18,18.77
			c2.89-0.61,5.49-1.17,8.09-1.72c-0.16-0.14-0.32-0.28-0.48-0.42c4.36-2.67,8.75-5.31,13.08-8.03c0.79-0.49,1.5-1.23,2.01-2.01
			c4.09-6.32,8.09-12.7,12.18-19.03c1.5-2.32,3.16-4.54,5.37-7.68c2.47,5.68,1.29,10.84-0.02,15.09
			c-2.94,9.52-3.97,19.93-11.84,27.57c-2.65,2.57-3.39,7.02-5.66,10.12c-1.33,1.82-3.97,2.68-6.02,3.98
			c-0.34-0.31-0.69-0.62-1.03-0.93c-0.13,1.1-0.23,2.2-0.38,3.3c-0.16,1.12-0.15,3.1-0.58,3.21c-7.28,1.79-6.45,12.01-14.17,13.48
			c-1.44,0.28-2.73,2.66-3.6,4.32c-2.91,5.57-4.43,12.48-8.71,16.51c-3.77,3.56-6.11,8.49-10.89,11.13
			c-4.76,2.63-8.87,7.57-13.81,8.45c-4.82,0.86-8.84,3.28-13.42,4.18c-3.12,0.61-6.3,0.97-9.45,1.44C468.67,406,465.33,406,462,406z
			"/>
	</g>
</g>
</svg>
