<?xml version="1.0" encoding="utf-8"?>
<!-- Generator: Adobe Illustrator 26.2.1, SVG Export Plug-In . SVG Version: 6.00 Build 0)  -->
<svg version="1.1" id="Layer_1" xmlns="http://www.w3.org/2000/svg" xmlns:xlink="http://www.w3.org/1999/xlink" x="0px" y="0px"
	 viewBox="0 0 960 560" style="enable-background:new 0 0 960 560;" xml:space="preserve">
<g>
	<g>
		<path d="M428,406c-2.26-0.49-4.5-1.28-6.78-1.41c-4.12-0.24-8.29,0.22-12.38-0.21c-4.1-0.43-4.09-4.82-4.35-7.21
			c-1.23-11.32,2.55-21.36,8.96-30.71c7.01-10.23,13.67-20.67,16.66-33.05c1.43-5.93,3.96-11.6,6.04-17.54
			c-7.96-1.06-15,1.34-21.72,4.95c-4.31,2.31-7.16,0.64-9.71-2.88c-1.52-2.11-2.2-3.65-0.07-6.06c1.65-1.87,2.41-4.64,3.21-7.13
			c2.27-7.04,6.43-8.99,13.59-8.49c6.16,0.43,12.47-0.77,18.64-1.73c1.17-0.18,2.68-2.55,2.87-4.05c1.04-8.56,1.73-17.16,2.52-25.62
			c-4.23-0.98-7.88-2.21-11.6-2.56c-3.18-0.3-6.53,0.07-9.68,0.75c-7.42,1.61-14.71,1.92-23.37-0.64c1.96-1.57,3.02-3.15,4.16-3.21
			c6.97-0.32,13.44-1.43,20.03-4.47c5.78-2.68,12.77-2.91,19.29-3.76c4.69-0.61,5.92-3.6,6.16-7.43c0.65-10.44,0.97-20.9,1.83-31.32
			c0.18-2.24,2.09-4.35,2.08-6.67c0.26-2.73,0.71-5.46,0.74-8.19c0.09-6.31,0-12.62-0.05-18.93c-0.05-6-0.28-12-0.11-17.99
			c0.04-1.5,1.32-2.97,2.03-4.46c0.33,0,0.67,0,1,0c4.03,14.21,8.07,28.41,12.03,42.63c0.26,0.94-0.16,2.09-0.32,3.13
			c-1.07,6.83-2.08,13.67-3.24,20.48c-0.92,5.4-1.7,10.86-3.15,16.12c-1.12,4.08,1.81,9.07,5.99,8.65c3.07-0.31,6.05-1.64,9.12-1.8
			c7.51-0.4,7.91-0.59,8.37-8.28c0.84-14.06,1.06-28.19,2.63-42.17c1.46-13,4.33-25.85,6.58-38.76c0.33,0,0.67,0,1,0
			c0.9,6.38,1.9,12.74,2.69,19.13c1.59,12.88,2.49,25.61,0.53,38.73c-1.58,10.62,2.54,20.94,7.9,30.3c0.65,1.14,3.13,1.79,4.72,1.73
			c7.8-0.3,15.59-0.83,23.37-1.43c8.08-0.63,13.53,1.77,15.51,7.89c1.54,4.73,2.33,9.73,3.02,14.67c0.1,0.75-2.24,2.7-3.33,2.62
			c-6.76-0.51-14.39,3.07-19.92-3.88c-0.45-0.57-1.44-0.91-2.21-0.98c-7.36-0.74-14.72-1.39-21.86-2.05
			c3.78,8.89-0.45,18.67,1.25,28.2c0.64,3.56,1.94,4.8,5.37,4.87c12.99,0.29,25.98,0.73,38.96,1.16c1.89,0.06,3.77,0.38,5.62,1.63
			c-7.9,1.1-15.81,2.11-23.69,3.33c-7.02,1.09-14.11,2.04-20.92,3.92c-1.92,0.53-4.34,4.22-4.21,6.31
			c0.66,10.94,1.94,21.85,3.35,32.73c0.26,1.98,2.13,3.76,3.27,5.63c0.76,1.25,2.1,2.44,2.21,3.74
			c0.92,10.71,8.82,16.68,15.71,23.27c2.77,2.64,3.48,8.53,0.72,12.25c-2.88,3.88-5.87,7.67-8.87,11.45
			c-3.16,3.98-10.35,3.53-13.53-0.45c-2.66-3.34-6.35-5.93-8.64-9.47c-2.62-4.04-6.54-8.35-2.17-13.84c0.56-0.7-0.17-2.55-0.49-3.82
			c-3.06-12.22-6.72-24.32-9.04-36.68c-1.45-7.71-0.84-15.79-1.29-23.7c-0.1-1.74-0.8-3.44-1.41-5.93
			c-9.15,1.28-17.85,2.69-26.59,3.62c-3.68,0.39-5.87,1.7-6.69,5.33c-1.45,6.46-2.74,12.96-4.54,19.32
			c-2.07,7.3-4.32,14.59-7.06,21.66c-1.99,5.13-4.93,9.9-7.39,14.85c-0.27,0.55-0.49,1.67-0.25,1.84c4.35,3.09,1.24,6.89,1,10.36
			c-0.25,3.65-1.26,7.29-1.16,10.91c0.14,4.95-1.23,8.68-5.91,10.8C430,406,429,406,428,406z M471.32,295.34
			c0.08,0.15,0.15,0.3,0.23,0.44c5.37-0.39,10.75-0.79,15.48-1.13c0-11.02,0-21.77,0-32.32c-3-1.14-5.58-2.21-8.23-3.07
			c-0.85-0.28-1.97-0.27-2.82,0.04c-3,1.09-5.93,2.37-10.17,4.1c-1.31,3.81,0.08,9.86-4.11,15.39c-2.39,3.16-0.01,9.93,0.21,14.75
			C465.17,294.16,468.25,294.75,471.32,295.34z"/>
	</g>
</g>
</svg>
