<?xml version="1.0" encoding="utf-8"?>
<!-- Generator: Adobe Illustrator 26.2.1, SVG Export Plug-In . SVG Version: 6.00 Build 0)  -->
<svg version="1.1" id="Layer_1" xmlns="http://www.w3.org/2000/svg" xmlns:xlink="http://www.w3.org/1999/xlink" x="0px" y="0px"
	 viewBox="0 0 960 560" style="enable-background:new 0 0 960 560;" xml:space="preserve">
<g>
	<g>
		<path d="M606,281c-0.27,0.89-0.73,1.78-0.79,2.68c-1.03,15.14-8.05,27.2-19.47,36.72c-2.49,2.08-6.13,2.78-9.21,4.1
			c1.22,9.91-0.08,12.33-9.51,16.28c-11.3,4.73-22.67,9.31-34.07,13.8c-6.22,2.45-6.54,2.19-11.31-4.83
			c-0.31,0.02-0.65-0.03-0.92,0.09c-2.88,1.23-6.68,4.32-8.46,3.42c-6.57-3.34-15.54-2.75-19.26-11.1
			c-2.16-4.84-4.88-9.44-6.91-14.33c-1.27-3.08-1.84-6.49,1.64-9c0.47-0.34,0.4-1.44,0.76-2.93c-2.19,0.59-3.79,1.03-6.32,1.71
			c-0.65-4.34-1.28-8.51-1.9-12.67c-0.29-1.97-0.06-4.19-0.92-5.86c-2.57-5-3.79-9.45,2.88-11.94c-0.44-0.74-0.54-1-0.59-0.99
			c-8.7,1.81-12.92-5.72-18.84-9.4c-4.7-2.92-9.08-3.71-14.14-2.26c-2.88,0.83-5.78,1.94-7.23-2.36c-1.28,0.97-2.74,1.48-3.01,2.36
			c-1.85,5.86-6.91,5.76-11.48,6.27c-4.56,0.5-7.55,2.76-10,6.52c-2.02,3.1-3.34,8.36-9.27,4.41c-0.79-0.53-4.36,1.63-5.4,3.31
			c-1.66,2.69-3.72,3.53-6.55,4.51c-4.65,1.61-9.05,4.14-13.29,6.71c-8.93,5.4-18.54,10.02-24.4,19.35
			c-0.4,0.64-1.33,0.96-2.01,1.42c0-1,0-2,0-3c3.23-4.54,6.33-9.17,9.71-13.6c7.73-10.14,16.86-18.38,28.68-23.97
			c6.1-2.89,11.09-8.31,16.27-12.94c7.38-6.61,15.23-11.19,25.65-8.69c0.82,0.2,2.18-0.45,2.8-1.15c4.24-4.75,9.88-6.08,15.72-5.68
			c2.6,0.18,5.06,2.5,7.84,3.99c0.43-2.81,2.75-2.31,5.72-2.19c7.59,0.28,14.23,2.75,20.45,6.64c-0.72,2.41-1.38,4.61-2.4,8.02
			c3.25-1.55,5.16-3.23,7.05-3.21c4.38,0.06,7.27,2.87,7.3,7.23c0.05,7.27,1.06,15.12-1.34,21.62c-1.94,5.26-5.6,8.48,2.18,10.93
			c0.08,6.08,7.16,9.85,5.45,16.65c-0.24,0.96,1.07,2.93,2.13,3.43c1.02,0.48,2.77-0.1,3.98-0.66c1.13-0.53,1.99-1.66,2.91-2.48
			c9.57,6.22,18.28,1.13,27.2-1.31c0.79,1.18,1.64,2.46,2.36,3.55c0.65-0.07,0.95-0.07,0.96-0.11c1.23-7.15,7.69-9.69,12.18-14.02
			c6.49-6.27,8.32-14.64,8.91-23.21c0.2-2.86,0.61-4.44,3.49-5.59c2-0.79,3.47-2.92,6.21-5.37c-3.08-0.9-5.06-1.47-6.63-1.92
			c-1.68-4.69-4.11-9.3-4.78-14.15c-0.39-2.83,2.03-6.05,3.5-9.94c0.47,0.88,0.28,0.34,0.17,0.35c-4.53,0.61-7.94-0.73-9.75-5.24
			c-0.28-0.68-1.15-1.19-1.84-1.64c-6.53-4.19-6.53-4.19-2.37-11c0.33-0.54,0.44-1.2,1.03-2.87c-2.17,0.75-4.16,0.81-4.84,1.79
			c-2.35,3.33-5.13,2.87-7.74,1.08c-8.08-5.54-17.01-6.67-26.53-6.5c-2.34,0.04-4.73-2.88-7.33-4.6c-0.64,0.92-1.33,1.81-1.92,2.77
			c-0.43,0.7-0.54,1.93-1.12,2.17c-4.8,2.06-9.6,4.17-14.57,5.69c-0.93,0.28-2.65-2.01-3.24-2.49c-2.15,2.05-4.27,5.25-7.24,6.62
			c-3.31,1.54-7.41,2.04-11.13,1.9c-7.42-0.29-12.48-7.26-10.42-14.41c2.31-8.02,6.87-14.2,15.6-16.55c3.13-0.84,6.06-2.66,8.9-4.33
			c5.61-3.31,8.28-2.84,11.8,2.45c0.54,0.81,1.16,1.57,2.07,2.78c0.6-0.94,1.25-1.51,1.33-2.16c0.72-5.64,3.85-7.27,9.33-6.6
			c6.73,0.83,13.59,0.65,20.32,1.46c5.11,0.61,10.17,1.94,15.44,3.5c0.52,0.16,0.07,3.71,0.07,5.72c0.5,0.28,1,0.55,1.5,0.83
			c1.88-2.35,3.76-4.71,6.06-7.59c11.97,0.61,21.93,8.18,32.62,13.87c-0.9,5.18-1.77,10.16-2.55,14.69
			c4.67,4.59,12.9,0.94,15.49,9.88c2.08,7.17,2.4,12.31-4.05,16.77c3.74,3.55,10.62,1.29,11.42,7.82C606,275,606,278,606,281z"/>
	</g>
</g>
</svg>
