<?xml version="1.0" encoding="utf-8"?>
<!-- Generator: Adobe Illustrator 26.2.1, SVG Export Plug-In . SVG Version: 6.00 Build 0)  -->
<svg version="1.1" id="Layer_1" xmlns="http://www.w3.org/2000/svg" xmlns:xlink="http://www.w3.org/1999/xlink" x="0px" y="0px"
	 viewBox="0 0 960 560" style="enable-background:new 0 0 960 560;" xml:space="preserve">
<g>
	<g>
		<path d="M445,156c2.19,1.33,4.25,2.97,6.59,3.93c8.86,3.6,15.1,9.79,19.83,18.04c3.35,5.85,7.57,11.21,11.5,16.72
			c2.65,3.71,2.7,6.76-1.21,9.82c-2.45,1.92-4.41,4.52-6.39,6.97c-1.15,1.42-1.91,3.16-2.85,4.75c0.38,0.46,0.75,0.93,1.13,1.39
			c2.34-1.19,4.88-2.11,6.98-3.63c2.81-2.04,4.78-2.73,7.58,0.4c4.37,4.89,5.63,4.52,10.25-0.18c3-3.05,6.48-5.64,9.48-8.69
			c2.63-2.68,5.17-2.17,8.12-0.82c4.78,2.19,9.65,4.18,15.56,5.42c-1.57-3.11-2.72-6.54-4.82-9.25c-2.92-3.77-2.54-6.98-1.03-11.3
			c2.62-7.52,6.81-12.91,14.17-16.21c6.29-2.82,12.67-3.41,18.87-1.1c6.79,2.52,13.46,5.64,19.63,9.41
			c4.12,2.52,7.62,6.33,10.76,10.11c6.37,7.68,4.97,16.28,1.04,24.33c-3.24,6.63-7.52,12.78-11.59,18.97
			c-2.08,3.17-4.62,3.3-7.25,0.15c-1.3-1.55-3.18-2.61-4.8-3.89c-0.4,0.21-0.8,0.42-1.2,0.64c0.37,1.4,0.77,2.79,1.1,4.19
			c0.95,3.96-0.87,6.63-4.99,6.69c-6.81,0.1-13.85,1.19-19.77-4.25c-0.2,0.46-0.4,0.93-0.6,1.39c2.35,2.19,4.67,4.4,7.05,6.56
			c6.38,5.8,6.1,11.75-1.56,14.91c-4.59,1.89-4.37,6.23-6.94,8.98c-5.65,6.04-11.28,12.11-16.8,18.28
			c-0.81,0.91-0.94,2.44-1.38,3.69c1.42-0.41,2.91-0.67,4.23-1.28c0.67-0.31,1.05-1.25,1.56-1.91c3.53-4.58,3.65-4.54,7.46-0.02
			c1.04,1.24,2.33,2.3,3.64,3.27c5.96,4.42,6.57,7.53,2.65,13.98c-0.48,0.79-0.8,1.67-1.57,3.28c3.37,0,6.11-0.02,8.84,0
			c3.93,0.03,6.4,1.7,7.7,5.68c4.8,14.72,12.03,28.28,19.7,41.69c7.31,12.8,13.83,26.05,20.58,39.16c0.6,1.16,0.36,2.74,0.51,4.13
			c-0.58,0.23-1.16,0.46-1.74,0.7c-1.63-1.95-3.49-3.76-4.86-5.89c-4.7-7.35-12.32-11.37-18.65-16.87
			c-7.86-6.83-15.24-14.23-22.85-21.35c-1.45-1.36-3.01-2.6-4.54-3.87c-2.99-2.49-5.98-4.85-3.65-9.54
			c0.43-0.87-0.39-3.12-1.28-3.66c-0.86-0.52-3.05-0.12-3.81,0.69c-2.87,2.99-5.32,2.55-8.1-0.04c-2.77-2.58-6.69-4.45-8.32-7.56
			c-1.63-3.12-1.04-7.39-1.54-12.27c-1.44,0.29-4.14,0.19-6.07,1.36c-4.68,2.82-7.78,1.17-10.52-2.66
			c-3.08-4.3-6.11-8.63-9.71-13.71c-3.87,3.43-8.35,6.57-11.75,10.63c-3.83,4.58-7.79,7.57-14.01,8.34
			c-3.1,0.38-5.92,3.54-8.73,5.62c-6.62,4.9-13.11,9.57-16.87,17.65c-3.65,7.86-5.09,7.7-13.39,5.3c-0.9-0.26-1.91-0.17-3.56-0.3
			c3.33,6.21-1.21,7.72-4.95,10.17c-10.62,6.96-21.97,12.91-30.79,22.41c-6.5,7-13.36,13.67-20.06,20.49c-1,0-2,0-3,0
			c2.35-4.5,5.02-8.87,7-13.54c7.94-18.71,17.97-36.22,29.67-52.8c3.64-5.16,7.33-10.05,14.87-7.78c0.72,0.22,1.6-0.11,3.66-0.3
			c-2.38-3.85-4.29-7.16-6.42-10.32c-1.65-2.45-0.77-3.33,1.68-4.26c1.47-0.55,2.79-1.96,3.75-3.28
			c3.75-5.18,7.14-10.63,11.11-15.62c0.9-1.13,3.59-1,5.47-1.17c2.63-0.23,5.28-0.2,7.93-0.28c-0.81-2.51-1.61-5.03-2.45-7.54
			c-0.1-0.3-0.32-0.6-0.56-0.81c-2.96-2.63-2.2-5.27,0.06-7.81c1.1-1.23,2.4-2.29,3.61-3.41c6.3-5.86,6.38-6.48,1.89-13.77
			c-0.61-0.98-1.39-2.01-1.54-3.1c-0.83-5.93-4.97-9.31-9.34-12.55c-2.23-1.66-2.84-3.42-0.94-5.87
			c4.67-6.02,9.24-12.13,13.76-18.26c0.83-1.13,1.29-2.54,1.92-3.82c-0.38-0.3-0.75-0.6-1.13-0.9c-4.46,3.33-8.98,6.59-13.36,10.03
			c-3.15,2.47-6.26,2.05-9.2,0c-3.06-2.13-3.35-5.09-1.75-8.38c0.52-1.06,0.73-2.28,1.08-3.42c-0.3-0.3-0.61-0.6-0.91-0.9
			c-2.35,1.36-4.81,2.56-7.01,4.11c-4.06,2.87-7.14,2.81-9.64-1.46c-3.75-6.4-7.56-12.92-10.01-19.86
			c-1.74-4.92-2.85-11.07-1.48-15.89c2.88-10.12,10.26-17.17,20.12-21.24c5-2.07,10.11-3.9,15.16-5.83
			C435.67,156,440.33,156,445,156z"/>
	</g>
</g>
</svg>
