<?xml version="1.0" encoding="utf-8"?>
<!-- Generator: Adobe Illustrator 26.2.1, SVG Export Plug-In . SVG Version: 6.00 Build 0)  -->
<svg version="1.1" id="Layer_1" xmlns="http://www.w3.org/2000/svg" xmlns:xlink="http://www.w3.org/1999/xlink" x="0px" y="0px"
	 viewBox="0 0 960 560" style="enable-background:new 0 0 960 560;" xml:space="preserve">
<g>
	<g>
		<path d="M606,339c-4.45,11.97-13.96,18.55-25.16,23.03c-19.96,7.99-37.5,2.62-53.01-10.84c-2.73-2.37-3.69-6.8-5.54-10.41
			c-9.23,7.17-18.85,14.28-30.72,17.32c-8.37,2.14-16.82,4.48-25.44,2.11c-3.88-1.07-7.4-3.46-11.07-5.28
			c-0.44-0.22-1.1-0.58-1.13-0.93c-1.2-11.76-14.54-13.79-18.69-23.83c-3.48-8.42-5.85-16-2.66-24.72c0.88-2.41,1.68-4.85,2.42-7.01
			c-0.71-0.6-0.82-0.77-0.96-0.81c-9.47-2.38-10.91-4.51-8.29-14.31c1.46-5.43,3.75-10.64,5.86-15.87c1.63-4.03,4.68-6.12,9.17-6.58
			c1.54-0.16,2.89-2.06,4.33-3.16c-1.28-0.91-2.78-1.62-3.8-2.76c-1.93-2.17-5.07-4.58-5.09-6.92
			c-0.09-10.57,8.93-30.62,21.38-33.99c3.89-1.06,7.41-4.08,11.28-4.51c3.83-0.43,8.98,0.01,11.67,2.29
			c8.27,6.97,15.38,15.29,17.88,26.27c2.07,9.08-5.57,20-12.9,21.25c-2.44,3.87-4.43,6.66-6.04,9.67
			c-2.72,5.1-5.38,10.24-7.71,15.52c-1.78,4.03-2.34,8.93-6.82,8.61c-1.09,3.89-1.64,7.2-2.93,10.21
			c-2.54,5.9-1.07,13.83,3.93,18.83c7.26,7.28,7.25,7.27,3.33,16.3c-0.31,0.72-0.39,1.54-0.68,2.75c0.78-0.23,1.36-0.23,1.5-0.47
			c3.16-5.42,6.06-4.47,10.79-1.05c6.34,4.59,14.13,7.42,22.11,5.79c5.5-1.12,10.61-4.21,17.26-6.99
			c-9.13-3.4-12.52-9.54-14.56-16.97c-1.37-5-4.73-9.69-0.9-15.01c0.25-0.35-0.57-2.19-1.1-2.29c-7.01-1.37-6.81-7.56-6.27-11.86
			c1.31-10.6,3.88-21.11,16.32-24.76c0.88-0.26,1.47-1.52,2.19-2.31c-0.86-0.62-1.65-1.6-2.6-1.8c-8.51-1.81-8.53-1.88-7.02-10.45
			c1.87-10.62,5.38-20.49,12.08-29.15c7.53-9.75,17.56-10.6,28.9-9.87c11.14,0.71,16.57,8.29,22.09,15.77
			c4.54,6.17,3.2,13.31,0.33,19.98c-4.15,9.68-12.25,15.5-21.01,20.43c-1.98,1.11-4.81,0.72-8.46,1.17c1.98,3.26,4,5.82,5.18,8.73
			c1.08,2.66,2.39,6.15,1.48,8.42c-0.81,2.01-4.55,2.83-6.99,4.18c-0.55-0.41-1.09-0.82-1.64-1.23c0,1.53-0.45,3.24,0.07,4.56
			c3.56,8.95,7.05,17.95,11.16,26.65c1.95,4.13,5.4,7.53,7.88,11.44c1.9,3,2.93,6.09,0.9,9.83c-0.83,1.53,0.33,4.13,0.58,6.25
			c2.22-0.51,5.74-0.34,6.44-1.66c2.8-5.29,7.05-5.48,11.85-4.61c6.56,1.19,11.63-3.01,17.1-5.14c2.47-0.96,3.44-5.7,5.17-8.67
			c1.07-1.83,2.29-3.57,3.45-5.35c1.04,1.74,2.08,3.48,3.13,5.21C606,333,606,336,606,339z"/>
		<path d="M356,281c1.3-5.45,2.61-10.89,3.9-16.27c3.17-1.1,6.32-2.2,9.6-3.34c-2.6-4.62-4.96-8.38-6.81-12.37
			c-0.64-1.38-0.69-4.33,0.14-4.91c7.11-4.92,6.66-13.36,9.9-20.03c3.52-7.23,7.02-14.6,11.66-21.11c2.14-3.01,6.75-4.98,10.61-5.91
			c8.9-2.14,18.06-2.6,26.93,0.35c11.28,3.75,12.67,7.53,10.72,20.81c-1.49,10.13-6.14,17.6-14.6,22.5
			c-3.21-1.53-6.33-3.25-9.64-4.45c-1.1-0.4-3.32,0.13-3.88,0.98c-0.6,0.93-0.39,3.2,0.38,4.07c4.36,4.92,1.64,8.89-1.87,12.1
			c-7.08,6.47-10.38,14.36-10.35,22.52c-3.9,2.61-7.08,4.75-11.2,7.51c3.05,1.98,4.69,3.95,6.3,3.92c4.83-0.09,5.37,2.72,6.12,6.48
			c1.09,5.47,3.12,10.75,4.44,16.18c0.32,1.33-0.13,3.19-0.89,4.38c-4.14,6.49-4.04,7.59,2.29,11.99
			c8.15,5.66,16.17,11.54,24.6,16.75c3.57,2.21,8.03,2.99,12.1,4.38c1.83,0.62,3.69,1.15,6.3,1.95c-1.42,1.26-2.16,2.51-3.01,2.59
			c-9.13,0.84-18.19,3.89-27.42-0.16c-5.04-2.21-10.55-3.34-15.86-4.94c-9.94-3-16.16-10.62-22.22-18.28
			c-0.81-1.02-0.22-3.58,0.4-5.17c0.69-1.76,2.15-3.22,3.96-5.8c-2.78-0.56-4.73-1.29-6.69-1.29c-4.9,0.01-8.32-1.84-9.86-6.67
			c-2-6.27-4.03-12.52-6.05-18.78C356,287.67,356,284.33,356,281z"/>
	</g>
</g>
</svg>
