<?xml version="1.0" encoding="utf-8"?>
<!-- Generator: Adobe Illustrator 26.2.1, SVG Export Plug-In . SVG Version: 6.00 Build 0)  -->
<svg version="1.1" id="Layer_1" xmlns="http://www.w3.org/2000/svg" xmlns:xlink="http://www.w3.org/1999/xlink" x="0px" y="0px"
	 viewBox="0 0 960 560" style="enable-background:new 0 0 960 560;" xml:space="preserve">
<g>
	<g>
		<path d="M491,156c5.36,1.94,11.09,3.24,15.97,6.02c3.99,2.28,7.88,5.79,10.18,9.71c3.72,6.36,6.01,13.55,9.08,20.32
			c4.85,10.69,2.98,21.22-1.13,31.43c-1.19,2.95-4.29,5.37-6.99,7.42c-3.68,2.79-4.56,4.81-1.35,8.03c5.59,5.6,7.51,11.8,5.55,19.52
			c-0.62,2.43,0.43,5.24,0.28,7.85c-0.28,4.92-0.83,9.82-1.4,14.72c-0.08,0.69-0.71,1.55-1.32,1.91c-4.32,2.48-8.7,4.84-14.15,7.85
			c3.94,2.15,6.87,3.88,9.92,5.37c2.53,1.24,5.35,1.94,7.74,3.38c2.49,1.49,3.82,3.47,3,7.05c-5.95,25.72-11.53,51.52-17.38,77.25
			c-1.78,7.84-2.33,16.28-9,22.17c-0.67,0-1.33,0-2,0c-5.49-12.46-10.97-24.92-16.49-37.36c-2.69-6.06-5.8-11.96-8-18.18
			c-0.9-2.54-0.15-5.81,0.37-8.65c0.37-2.04,1.6-3.92,2.77-6.59c-4.05-0.81-7.66-1.19-11.01-2.34c-1.68-0.58-3.49-2.31-4.17-3.97
			c-5.07-12.27-9.79-24.69-14.78-36.99c-2.08-5.14-4.79-10.04-6.71-15.23c-1.15-3.1-0.61-6.14,2.9-8.08
			c1.53-0.84,2.72-2.45,3.81-3.9c2.63-3.47,3.31-6.84-0.82-9.87c-1.33-0.97-2.53-2.22-3.49-3.55c-1.84-2.53-3.23-5.01,0.08-7.78
			c1.41-1.18,1.99-3.37,3.46-6.02c-3.93-0.9-7.33-1.68-11.57-2.66c0.74-14.39-4.26-29.2,1.12-43.64
			c7.48-20.07,24.09-28.73,43.65-33.28c1.68-0.39,3.25-1.26,4.87-1.9C486.33,156,488.67,156,491,156z"/>
	</g>
</g>
</svg>
