<?xml version="1.0" encoding="utf-8"?>
<!-- Generator: Adobe Illustrator 26.2.1, SVG Export Plug-In . SVG Version: 6.00 Build 0)  -->
<svg version="1.1" id="Layer_1" xmlns="http://www.w3.org/2000/svg" xmlns:xlink="http://www.w3.org/1999/xlink" x="0px" y="0px"
	 viewBox="0 0 960 560" style="enable-background:new 0 0 960 560;" xml:space="preserve">
<g>
	<g>
		<path d="M565.58,294.25c-7.26,0.12-13.37-2.76-16.29-9.25c-3.48-7.71-3.4-15.54,6.09-21.53c-3.14-0.38-4.84-0.59-6.55-0.79
			c-1.4-2.5-2.8-5.02-4.39-7.85c-2.32,1.79-4.26,3.29-6.57,5.07c1.45,2.1,0.99,4.06-2.52,4.83c-1.28,0.28-2.64,0.68-3.71,1.41
			c-2.91,1.97-5.98,2.78-8.67,0.22c-2.8-2.67-5.31-6.02-3.43-10.18c1.87-4.15,4.05-8.24,6.75-11.87c1.1-1.49,3.92-1.7,5.37-2.27
			c1.18-2.19,2.57-4.31,3.49-6.61c0.56-1.4,0.91-3.28,0.44-4.61c-0.71-1.97-2.24-3.65-3.53-5.62c1.24-1.54,2.4-2.98,4.21-5.22
			c-3.67,0.32-6.75,4.87-8.44-0.11c-5.15,0.19-5.05,8.96-11.97,5.61c0.76,3.13,4.92,6.8-1.63,8.07c-1.17,0.23-1.27,4.06-2.64,5.48
			c-2.77,2.88-5.91,5.55-10.51,3.04c-5.09-2.79-8.13-6.82-5.8-11.73c2.8-5.91,7.39-11.19,12.04-15.93c2.07-2.11,6.18-2.18,9.33-3.28
			c1.16-0.41,2.22-1.13,3.8-1.96c-3.48-3.16-6.47-5.87-8.7-7.89c-8.23-3.22-15.83-6.2-23.43-9.18c0.08-0.49,0.16-0.99,0.24-1.48
			c1.56-0.21,3.15-0.74,4.68-0.58c7.28,0.76,14.54,1.34,21.8,2.83c5.11,1.05,10.28,1.55,15.11,3.74c0.38,0.17,1.09,0.15,1.39-0.1
			c3.84-3.16,5.96-8.32,11.34-9.69c5.33-10.6,12.84-19.42,21.88-27.03c1.25-1.05,2.17-2.51,3.24-3.77c0.33,0,0.67,0,1,0
			c-1.63,4.56-2.62,9.5-5.05,13.6c-3.14,5.3-9.32,9.44-10.72,14.96c-1.68,6.63-7.34,10.76-8.27,17.25
			c-0.17,1.18,0.97,2.52,1.43,3.81c0.46,1.29,0.82,2.6,1.16,3.68c1.85,0.95,4,2.07,6.34,3.27c3-1.71,3.79-8.15,8.56-6.25
			c1.93-2.49,3.68-4.89,5.59-7.18c4.69-5.61,9.43-11.19,14.2-16.73c1-1.16,2.26-2.11,3.4-3.16c0.41,0.26,0.82,0.52,1.23,0.78
			c-0.54,1.34-1.01,2.71-1.63,4c-1.88,3.89-3.6,7.87-5.77,11.59c-4.84,8.28-9.97,16.37-14.83,24.64c-0.91,1.56-1.83,3.72-1.47,5.31
			c1.92,8.46,2.06,8.42-2.05,15.66c6.14,0.52,8.52,4.41,8.91,10.02c-1.64,1.18-3.32,2.38-5.83,4.19c3.19,1.14,5.51,1.96,8.23,2.93
			c-1,1.56-1.73,2.72-2.49,3.91c7.2,2.9,6.1,10.24,7.86,15.58c2.8,8.49-3.06,15.47-12.23,16.44L565.58,294.25z"/>
		<path d="M408,406c1.63-3.78,2.94-7.74,4.95-11.31c3.15-5.6,6.66-11.01,10.22-16.37c1.34-2.01,3.24-3.66,3.97-5.73
			c0.84-2.64,1.84-5.24,2.45-7.94c0.37-1.63,0.07-3.41,0.19-5.11c0.13-1.94,0.38-3.87,0.62-6.18c-1.08,0.6-2.23,1.25-3.58,2.01
			c-1.62-1.75-3.16-3.41-4.56-4.92c-6.58,3.44-8.45,12.24-16.7,13.53c-2.81,11.58-12.49,17.48-20.63,24.69
			c-0.42-0.27-0.84-0.53-1.26-0.8c6.69-12.03,13.39-24.06,20.75-37.28c-1.37-4.31,3.32-7.79,5.57-11.89
			c-0.74-3.58-1.47-7.04-2.3-11.07c-4.17-1.06-5.52-7.68-1.68-13.57c4.14-6.36,10.54-6.45,16.9-5.8c3.41,0.35,6.74,2.86,9.79-0.84
			c0.2-0.24,1.23,0.2,1.59,0.27c1.11-6.66,5.15-11.24,9.64-15.92c3.99-4.16,7.44-4.33,11.58-1.1c4.99,3.9,7.34,9.72,4.73,14.42
			c-1.89,3.41-5.46,5.88-8.42,8.92c-1.77-1.63-2.94-2.71-4.1-3.78c-0.36,0.29-0.8,0.62-0.78,0.65c4.79,7.1-1.7,10.67-4.87,15.12
			c-2.88,4.04-3.06,4.56,0.48,7.92c4.3-2.57,5.24-12.06,14.1-6.36c-3.48-3.94-4.32-7.4-1.38-11.05c3.07-3.8,6.81-6.33,12-5.87
			c6.71,0.6,9.67,6.02,6.91,12.2c-1.12,2.51-1.78,5.32-2.16,8.06c-0.66,4.77-6.22,10.97-9.73,11.38c-2.63,4.36-4.94,8.17-7.33,12.12
			c2.52,4.6,11.92,3.16,9.85,10.15c3.36-0.41,6.38-1.02,9.42-1.11c5.77-0.17,11.54-0.05,18.39-0.05
			c-5.12,6.15-12.34,6.08-17.26,9.61c-5.68,4.07-11.34,3.35-17.24,2.8c-3.08-0.29-6.71-0.76-5.83-6.06
			c-1.46,0.64-2.34,1.38-2.82,1.18c-8.82-3.73-10.25,4.76-13.74,8.86c-2.55,3-4.12,6.24-6.92,5.65c-4.9,5.55-9.02,10.27-13.22,14.92
			c-1.77,1.96-3.72,3.75-5.58,5.62C409.33,406,408.67,406,408,406z"/>
		<path d="M417.33,254.57c-5.88,4.74,2.22,12.47-4.99,15.91c0.86,9.93,1.71,19.79,2.56,29.65c-0.26,0.2-0.52,0.4-0.78,0.6
			c-2.1-4.41-5.12-8.63-6.1-13.28c-1.97-9.38-3.33-18.96-3.91-28.51c-0.25-4.03,2.55-7.93-0.89-12.18
			c-1.27-1.57-0.58-5.29,0.11-7.77c1.11-3.97-0.75-6.26-3.38-8.57c-2.63-2.3-5.3-4.61-7.58-7.23c-1.88-2.16-3.24-4.78-4.25-6.33
			c-2.51-1.55-4.86-2.26-6.02-3.84c-4.81-6.56-9.27-13.39-13.82-20.14c-0.41-0.61-0.54-1.41-1.17-3.17
			c2.55,1.61,4.25,2.54,5.79,3.68c7.75,5.72,15.51,11.42,23.13,17.3c1.68,1.3,2.8,3.31,4.17,4.97c1.67,0.32,3.89,0.41,5.83,1.19
			c2.07,0.83,3.87,2.32,5.89,3.58c3.51-10.02,3.37-9.86-4.47-16.48c-2.19-1.85-3.08-5.18-4.95-7.52c-2.26-2.83-4.91-5.35-7.43-7.96
			c-5.71-5.93-11.44-11.84-17.16-17.75c0.29-0.34,0.59-0.67,0.88-1.01c9.21,5.55,18.53,10.95,27.54,16.81
			c1.64,1.07,2,4.09,3.12,6.58c9.05-4.59,10.15,6.42,15.97,8.3c2.72-2.39,5.43-4.78,8.14-7.17c1.92,1.23,3.55,2.27,5.31,3.4
			c0.68-5.94,1.26-6.66,8.8-10.87c1.15,1.21,2.3,2.58,3.62,3.78c1.15,1.05,2.48,1.9,4.67,3.53c-0.17-3.08-0.27-4.91-0.37-6.74
			c0.41-0.27,0.82-0.54,1.23-0.81c2.5,3.12,5.01,6.24,7.51,9.36c0.44-0.23,0.88-0.46,1.32-0.69c-1.08-2.74-2.02-5.54-3.26-8.2
			c-1.8-3.85-1.13-5.63,3.51-6.06c10.84-1,19.35,6.02,19.01,16.67c-0.08,2.38-1.7,5.69-3.63,6.83c-5.25,3.08-10.9,5.69-16.7,7.47
			c-1.96,0.6-4.86-1.81-7.98-3.12c0.65,1.95,1.22,3.67,1.93,5.82c-2.82,1.66-5.72,3.37-8.76,5.15c1.62,2.93,7.29,3.27,3.51,8.57
			c3.69-2.93,6.1-2.63,8.55,0.61c2.54,3.37,4.05,6.49,1.24,10.36c-3.08,4.23-7.15,7.81-12.32,7.32c-5.35-0.51-9.99-3.91-12.11-9.19
			c-1.45-3.61-4.26-3.66-6.91-3.38c-2.55,0.27-3.99,2.13-1.46,4.47c3.03,2.81,6.34,5.33,9.36,8.14c5.4,5.02,5.63,9.63,0.91,14.73
			c-4.59,4.96-8.95,4.93-14.84-0.28c0.74-1.95,1.5-3.97,2.27-6c-0.33-0.26-0.67-0.52-1-0.78c-1.6,1.18-3.2,2.36-4.78,3.52
			C420.47,256.7,418.8,255.57,417.33,254.57z"/>
		<path d="M565.54,294.3c0.77,6.59,1.59,13.01-0.82,19.68c-2,5.51-2.46,11.59-3.52,17.43c-0.1,0.58,0.19,1.35,0.55,1.86
			c2.72,3.88,4.73,9.15,8.48,11.18c4.01,2.17,6.51,5.25,9.32,8.23c4.43,4.71,8.54,9.73,12.73,14.67c0.66,0.77,0.98,1.83,0.94,3.28
			c-12.12-6.37-22.22-15.35-32.93-24.19c-1.29,0.69-2.86,1.53-4.62,2.47c-1.66-0.9-3.43-1.87-6.22-3.39
			c1.31,3.09,2.99,5.18,2.72,6.98c-0.26,1.79-2.49,3.29-3.93,5c0.12,7.15,11.01,9.1,8.74,17.52c3.35,1.8,14.36,17.32,16.22,23.72
			c-4.93-3.79-9.07-6.55-12.7-9.88c-4.52-4.14-10.92-6.59-12.62-13.43c-0.13-0.52-0.83-1.02-1.38-1.31
			c-4.97-2.64-9.96-5.23-14.59-7.65c-1.79,0.97-3.88,3.04-5.66,2.8c-1.88-0.25-3.47-2.7-4.81-3.87c-1.15,1.97-1.77,4.6-3.31,5.37
			c-4.71,2.35-9.28,0.8-12.72-2.79c-4.94-5.16-7.26-11.44-6.08-18.72c0.6-3.7,2.99-5.36,6.53-5.69c1.8-0.17,3.6-0.31,5.96-0.51
			c-4.69-3.71-8.01-7.4-4.84-13.68c-1.61,0.9-3.22,1.8-4.8,2.68c-5.58-4.12-8.05-16.52-4.47-22.06c2.5-3.87,11.03-3.98,13.91,0.24
			c2.79,4.08,4.97,8.59,7.15,13.05c0.62,1.26,0.3,2.99,0.42,4.59c4.71-0.06,9.34,8.46,14.87,0.66c-0.26-2.26-0.54-4.77-0.84-7.37
			c-8.69-0.62-17.77-12.42-16.45-19.28c0.57-2.97,2.14-7.3,4.29-8.05c3.1-1.08,7.96-0.61,10.57,1.28c3.55,2.58,5.84,7.02,8.32,10.88
			c0.61,0.95-0.14,2.78-0.17,3.21c3.59,2.86,6.91,5.5,10.5,8.37c1.02-0.49,2.74-1.31,4.71-2.25c-1.5-3.29,0.22-5.37,2.72-7.85
			c2.42-2.41,3.71-5.97,5.48-9.04c0.8-1.39,1.58-2.79,2.37-4.2C565.58,294.25,565.54,294.3,565.54,294.3z"/>
		<path d="M480.77,281.83c-0.23-3.17-7.87-3.75-2.48-8.23c-4.32-4.66-3.36-16.77,0.9-20.52c-2.34-11.1,3.45-20.3,4.21-30.31
			c0.71-0.02,1.41-0.05,2.12-0.07c1.13,4.89,2.45,9.74,3.35,14.67c1.39,7.64,2.62,15.31,3.64,23.01c0.34,2.56-0.18,5.23-0.34,8.62
			c5.12,3.63,5.98,6.04,3.33,11.73c6.8,6.28,7.08,14.85,0.69,21.25c-5.18,5.19-16.59,4.72-21.85-0.89
			c-3.63-3.87-3.51-15.37,0.55-18.54C476.14,281.56,478.54,282.05,480.77,281.83z"/>
	</g>
</g>
</svg>
