<?xml version="1.0" encoding="utf-8"?>
<!-- Generator: Adobe Illustrator 26.2.1, SVG Export Plug-In . SVG Version: 6.00 Build 0)  -->
<svg version="1.1" id="Layer_1" xmlns="http://www.w3.org/2000/svg" xmlns:xlink="http://www.w3.org/1999/xlink" x="0px" y="0px"
	 viewBox="0 0 960 560" style="enable-background:new 0 0 960 560;" xml:space="preserve">
<g>
	<g>
		<path d="M444,406c6.03-14,12.03-28.02,18.14-41.99c0.92-2.11,1.92-4.53,3.62-5.9c3.61-2.92,8.33-4.82,6.04-10.99
			c-0.25-0.67,1.1-1.91,1.66-2.91c2-3.57,3.96-7.16,5.96-10.73c1.85-3.3,3.3-7.3,8.5-4.76c0.75,0.36,1.83,0.05,3.32,0.05
			c-0.68-1.39-0.87-2.6-1.54-3.01c-4.54-2.8-3.51-5.59-0.75-9.19c2.68-3.51,4.8-7.52,6.78-11.5c2.31-4.66,1.28-6.03-3.75-5.73
			c-8.4,0.51-10.06-1.41-8.2-10.3c-3.12,0-6.14-0.35-9.06,0.07c-6.69,0.98-10.01-2.24-10.13-10.39c-0.02-1.65,0.29-3.3,0.51-5.58
			c-4.54,0.43-8.92,0.68-13.25,1.31c-5.32,0.78-10.61,2.19-13.72-4.3c-0.29-0.61-2.98-0.63-4.17-0.09
			c-0.95,0.44-1.58,2.09-1.89,3.31c-0.61,2.46-0.16,6.62-1.45,7.2c-4.45,2-9.41,3.24-14.28,3.74c-1.8,0.18-3.85-2.57-5.88-3.82
			c-0.99-0.61-2.21-0.87-3.33-1.28c-0.13,1.07-0.53,2.18-0.36,3.2c0.87,5.25-1.08,9.16-6.37,10.5c-5.76,1.46-11.73,2.12-17.61,3.1
			c-3.05,0.51-4.91-0.91-6.4-3.56c-5.54-9.86-2.76-23.22,7.06-28.5c3.82-2.05,9.1-1.36,13.7-1.99c1.8-0.25,4-0.13,5.29-1.13
			c5.36-4.16,8.83-4.61,14.71-1.22c0.85,0.49,1.72,0.96,3.56,1.98c-1.53-9.08,4.34-11.48,10.76-12.46
			c5.97-0.91,12.48-2.18,16.91,4.99c-0.02-5.7,3.45-6.03,7.03-6.43c2.96-0.34,5.88-1.07,8.83-1.5c4.65-0.68,8.34-1.67,8.66-7.86
			c0.11-2.05,4.33-3.89,6.78-5.91c-3.36-7.06-1.01-18.38,6.4-22.44c4.08-2.23,10.03-2.74,14.66-1.77c4.84,1.02,4.6,6.67,4.77,10.99
			c0.08,1.99-0.13,3.99-0.25,5.98c-0.23,3.63-0.7,6.9-5.85,5.27c-0.8-0.25-2.02,0.82-4.28,1.83c2.1,0.58,2.67,0.84,3.25,0.87
			c6.93,0.43,7.63,1.41,5.6,7.83c-0.3,0.95-0.57,1.92-0.88,2.86c-1.28,3.92-0.9,6.58,4.04,7.51c6.65,1.24,13.14,3.31,19.77,4.68
			c3.42,0.71,5.95,1.95,6.84,5.54c0.12,0.47,0.34,1.04,0.7,1.3c2.03,1.51,4,3.22,6.29,4.13c0.43,0.17,2.18-2.96,3.41-4.69
			c13.32,3.3,44.44,49.06,41.72,63.81c-2.07-3.08-3.69-5.18-4.98-7.46c-5.64-10-12.34-18.97-22.8-24.47
			c-2.35-1.24-4.84-2.29-6.96-3.85c-2.44-1.8-5.04-3.74-6.64-6.22c-1.87-2.9-3.67-4.06-7.23-3.7c-9.99,1.01-19.15-1.09-26.56-8.46
			c-2.29-2.28-7.65-0.96-9.7,2.69c-1.08,1.92-1.47,4.24-2.24,6.56c7.39,1.51,14.25,2.58,20.9,4.39c5.84,1.58,5.94,3.25,3.66,8.61
			c-2.91,6.84-5.01,14.01-7.64,20.97c-0.52,1.39-1.63,2.72-2.8,3.66c-2.02,1.64-4.3,2.96-6.46,4.4c4.1,6.53,3.94,6.38-1.38,11.88
			c-2.99,3.08-5.62,6.59-7.96,10.21c-5.06,7.81-5.69,8.09-14.35,3.75c0.44,6.83-4.36,11.21-7.65,16.13
			c-6.33,9.47-13.34,18.49-19.9,27.81c-2.95,4.19-5.51,8.65-8.24,12.98C446,406,445,406,444,406z"/>
		<path d="M492,156c0.43,1.05,1.31,2.15,1.21,3.15c-0.76,7.63,2.42,14.27,4.95,21.1c2.77,7.47,1.2,13.23-4.65,17.46
			c-4.95,3.58-15.74-0.21-17.4-6.2c-0.28-1.02-0.12-2.37,0.31-3.36c4.23-9.8,6.54-20.54,14-28.81c0.64-0.71,0.4-2.21,0.57-3.34
			C491.33,156,491.67,156,492,156z"/>
		<path d="M535.28,208.75c3.6,10.54,7.21,20.92,10.67,31.34c1.28,3.85,1.39,8.36-2.42,10.27c-3.02,1.51-7.51,1.82-10.76,0.8
			c-7.88-2.48-9.93-8.28-8.22-18.71C526.03,223.38,530.59,215.82,535.28,208.75z"/>
		<path d="M430.29,194.86c5.23,9.78,9.8,19.1,9.09,30.11c-0.25,3.8-0.16,7.65-0.68,11.41c-0.66,4.74-3.65,6.34-8.18,4.84
			c-9.46-3.12-12.31-9.84-8.84-19.55C424.7,213.16,427.22,204.47,430.29,194.86z"/>
	</g>
</g>
</svg>
