<?xml version="1.0" encoding="utf-8"?>
<!-- Generator: Adobe Illustrator 26.2.1, SVG Export Plug-In . SVG Version: 6.00 Build 0)  -->
<svg version="1.1" id="Layer_1" xmlns="http://www.w3.org/2000/svg" xmlns:xlink="http://www.w3.org/1999/xlink" x="0px" y="0px"
	 viewBox="0 0 960 560" style="enable-background:new 0 0 960 560;" xml:space="preserve">
<g>
	<g>
		<path d="M381,156c7.97,7.5,15.94,15.01,23.91,22.51c0.36,0.34,0.67,0.95,1.07,1.02c10.89,1.98,13.86,13.37,22.02,18.65
			c1.36,0.88,1.4,3.79,2.3,6.55c3.56-1.52,7.19-0.38,9.98,3.68c0.35,0.51,2.77-0.11,4.09-0.6c7.93-2.95,15.63-6.69,23.76-8.88
			c15.24-4.12,29.74-0.4,44.67,6.02c19.63-14.92,39.84-30.28,60.04-45.63c0.19,0.14,0.39,0.28,0.58,0.42
			c-1.12,1.47-2.09,3.07-3.37,4.38c-11.49,11.82-23.05,23.58-34.55,35.39c-2.08,2.14-3.76,4.72-6.04,6.59
			c-1.69,1.39-4.05,1.97-6.86,3.25c-0.36,8,9.01,10.88,11.22,19.01c4.99-4.69,9.47-8.36,13.25-12.65c2.39-2.72,3.98-4.9,7.22-1.37
			c0.33,0.36,1.19,0.22,2.37,0.4c-1.37-5.45,2.43-7.9,5.69-10.26c11.58-8.39,23.35-16.53,35.06-24.74c0.45-0.32,1.09-0.38,2.87-0.98
			c-1.1,1.85-1.49,2.77-2.11,3.49c-12.56,14.46-25.08,28.96-37.79,43.29c-4.16,4.69-12.07,6.75-10.19,15.39
			c-6.44,7.53-12.26,15.78-22.79,18.31c-1,0.24-1.85,2.02-2.34,3.26c-2.24,5.61-8.8,10.31-13.8,9.41
			c-4.74-0.85-9.67-1.52-11.64-7.14c-2.11-6.03,0.47-10.67,4.1-15.07c1.21-1.47,2.44-2.92,3.94-4.72c-2.23-1.48-4.01-2.65-5.77-3.84
			c-2.08-1.41-3.94-1.47-5.63,0.68c-0.6,0.77-1.43,1.41-2.27,1.92c-3.74,2.26-7.7,3.73-11.62,0.69c-4.13-3.2-3.82-7.92-3.28-12.41
			c0.27-2.25,1.33-4.4,1.93-6.25c-6.47,0-13.06,0-18.54,0c0.49,5.5,1.26,10.43,1.18,15.35c-0.02,1.52-2.1,3.36-3.66,4.43
			c-6.68,4.53-12.72,3.2-20.51-4.37c-0.89,0.83-1.78,1.66-2.66,2.49c2.49,3.22,5.14,6.03,7.07,9.27c3.42,5.74,2.34,12.76-2,15.9
			c-4.13,2.98-14.21,1.62-17.43-2.93c-1.3-1.83-1.01-4.8-1.66-8.47c-1.4,2.77-3.28,4.96-3.55,7.33c-0.72,6.25-0.81,12.58-1.02,18.89
			c-0.13,3.82-0.02,7.64-0.02,11.48c2.81-0.82,5.53-1.61,8.38-2.44c-0.93-1.2-2.1-2.71-3.43-4.42c1.85-1.77,3.7-3.37,5.36-5.14
			c4.74-5.06,9.1-5.23,15.28-0.49c4.62,3.54,5.52,9.11,2.03,14.18c-2.92,4.24-6.13,8.27-9.18,12.41c-0.58,0.79-1.05,1.66-1.83,2.89
			c2.37,1.88,4.65,3.7,7.58,6.03c2.18-4,4.2-7.53,6.05-11.13c2.68-5.21,7.86-4.52,12.18-4.6c4.35-0.08,7.59,3.16,8.24,7.42
			c0.66,4.35,0.15,8.88,0.15,14.02c3.18-0.5,6.47-1.01,9.45-1.48c-0.82-4.7-1.69-8.86-2.24-13.06c-0.53-4.04,1.22-7.06,4.74-9.16
			c3.65-2.18,7.46-2.43,10.76,0.11c4.32,3.33,8.22,7.21,12.69,11.21c0.83-0.48,2.21-1.28,3.81-2.21c-2.06-3.49-4.14-6.66-5.86-10
			c-2.4-4.68-1.61-10.98,1.49-13.95c3.06-2.93,8.95-3.63,13.62-1.01c3.28,1.84,6.14,4.44,10.13,7.41c3.67-5.08,7.96-9.96,11-15.52
			c2.93-5.36,4.58-11.42,7.01-17.75c0.43,8.83-5.36,23.63-14.11,37.25c2.6,4.89,5.02,9.43,7.81,14.67c2.1,1.92,5.15,4.48,7.95,7.3
			c4.22,4.24,8.06,8.87,12.46,12.9c2.55,2.34,2.25,4.45,1.24,7.11c-1.22,3.19-0.59,4.77,3.37,5.21c2.2,0.25,4.61,2.3,6.14,4.18
			c5.67,6.96,11.03,14.17,16.44,21.35c0.6,0.79,0.71,1.95,1.05,2.94c-0.38,0.35-0.77,0.7-1.15,1.05
			c-9.46-7.47-18.91-14.97-28.4-22.41c-1.96-1.54-4.14-2.79-6.09-4.33c-1.94-1.53-4.44-2.93-5.4-4.99c-1.77-3.77-3.41-5.68-8.2-4.96
			c-1.92,0.29-4.52-3.25-6.65-5.22c-2.73-2.52-5.58-4.99-7.82-7.91c-1.32-1.72-1.54-4.28-2.29-6.54
			c-8.74-0.47-11.27,1.63-13.01,11.39c5.21-1.67,7.37,2.08,10.04,5.29c4.66,5.62,9.76,10.89,14.25,16.64
			c1.46,1.87,1.59,4.77,1.9,5.78c3.99,4.61,7.18,8.41,10.49,12.08c5.81,6.43,11.7,12.78,17.55,19.18c1.08,1.18,2.09,2.42,2.53,4.76
			c-1.65-0.63-3.57-0.92-4.92-1.95c-11.55-8.9-23-17.94-34.47-26.94c-1.83-1.44-3.99-2.65-5.36-4.45c-1.74-2.28-3.62-4.93-4.01-7.63
			c-0.46-3.26-1.81-3.85-4.53-3.65c-9.2,0.68-17.04-7.58-15.65-16.58c-4.78,1.41-9.6,2.56-14.23,4.26
			c-5.37,1.98-10.58,1.68-16.06,0.54c-3.11-0.65-6.47-0.12-9.75-0.12c0.38,2.74,1.69,5.63,0.77,7.28c-1,1.8-4.21,2.25-6.2,3.66
			c-1.68,1.18-3.3,2.69-4.39,4.4c-1.95,3.08-3.32,6.52-5.28,9.59c-0.62,0.97-2.34,1.23-3.08,1.59c-1.06,2.82-1.59,6.35-3.48,8.88
			c-4.39,5.85-9.55,11.11-14.17,16.79c-5.11,6.28-9.97,12.77-14.94,19.17c-0.67,0-1.33,0-2,0c3.47-9.18,6.58-18.52,10.57-27.46
			c1.74-3.9,5.47-6.88,7.93-10.53c0.83-1.23,1.26-3.65,0.6-4.79c-1.44-2.49-0.87-4.01,0.54-6.26c3.52-5.61,6.68-11.47,9.76-17.34
			c1.34-2.55,1.87-5.57,6-4.01c0.53,0.2,1.8-1.55,2.68-2.36c-5.21-3.6-9.87-6.75-14.45-10.03c-2.78-1.99-5.01-1.93-7.25,0.91
			c-3.27,4.13-6.78,8.07-9.72,11.54c-2.07-0.8-4.06-1.97-4.38-1.62c-1.35,1.48-2.27,3.38-3.21,5.19c-0.71,1.38-0.92,3.1-1.86,4.27
			c-1.86,2.32-4.07,4.35-6.12,6.51c-8.92,9.37-17.8,18.78-26.8,28.08c-1.26,1.3-3.11,2.03-4.93,3.19c-0.13-1.07-0.31-1.47-0.19-1.67
			c6.59-10.56,13.33-21.02,19.72-31.7c1.58-2.64,2.36-5.49,7.13-3.76c-3.03-12.86,11.55-15.11,12.77-25.26
			c3.19,0.41,6.8,1.55,6.66-2.86c-0.09-2.96-1.03-6.07-2.29-8.79c-4.25-9.19-7.12-18.92-6.1-28.84c0.96-9.32,3.76-18.54,6.54-27.56
			c1.98-6.43-0.75-10.27-4.98-14.22c-1.37-1.28-2.23-3.44-2.63-5.34c-0.39-1.86,0.09-3.91,0.21-6.23c-6.55,0.69-6.73-5.57-9.96-8.5
			c-3.64-3.31-6.75-6.99-2.54-12.74c-4.66-0.54-8.21-0.38-10.6-4.61c-4.49-7.93-10.02-15.27-15.06-22.9
			c-0.52-0.79-0.58-1.89-0.85-2.84c2.28,0.49,3.89,1.39,4.94,2.73c9.29,11.91,22.67,18.89,34.04,28.29c2.82,2.33,5.6,3.65,0.9,7.08
			c11.01,1.48,11.96,12.83,19.44,17.62c2.96-3.34,5.89-6.64,9.51-10.71c-7.94-0.78-10.77-6.89-14.89-11.39
			c-2.65-2.89-5.58-5.95-3.4-10.58c0.29-0.62-0.1-2.29-0.33-2.32c-6.74-0.94-6.61-8.87-11.72-11.4c-0.3-0.15-0.66-0.18-0.92-0.37
			c-1.17-0.84-2.59-1.51-3.44-2.61c-3.94-5.16-7.87-10.35-11.49-15.73c-1.64-2.44-2.57-5.36-3.83-8.06
			C380.33,156,380.67,156,381,156z"/>
	</g>
</g>
</svg>
