<?xml version="1.0" encoding="utf-8"?>
<!-- Generator: Adobe Illustrator 26.2.1, SVG Export Plug-In . SVG Version: 6.00 Build 0)  -->
<svg version="1.1" id="Layer_1" xmlns="http://www.w3.org/2000/svg" xmlns:xlink="http://www.w3.org/1999/xlink" x="0px" y="0px"
	 viewBox="0 0 960 560" style="enable-background:new 0 0 960 560;" xml:space="preserve">
<g>
	<g>
		<path d="M525,406c-0.52-2.01-1.05-4.01-1.36-5.2c-1.86,0.8-3.92,2.55-5.56,2.22c-4.44-0.9-9.97,0.06-12.08-6
			c-3.77-10.84,7.23-27.35,19.74-28.84c5.43-0.65,7.88,2.1,7.36,7.56c-0.09,0.95-0.01,1.92,0.49,3.26c0.76-5.68,3.33-8.21,9.21-9.52
			c7.79-1.74,6.07,7.01,11.29,7.72c1.97-3.79-0.99-5.99-3.52-8.83c0.94-1.35,1.75-3.02,3-4.22c5.71-5.47,8.7-12,8.69-19.98
			c0-1.32,1.19-2.89,2.24-3.93c2.33-2.3,4.91-4.34,6.97-7.2c-2.82,0.62-5.64,1.24-8.49,1.87c-1.17-8.62-3.72-12.36-10.89-16.26
			c0.94-2.75,1.88-5.5,2.98-8.69c-1.42,0.18-1.96,0.14-2.01,0.27c-2.19,6.2-6,8.53-12.66,6.31c-1.04-0.35-3.67,2.62-4.86,4.49
			c-2.52,3.95-4.58,8.2-7.23,13.06c-1.49-2.23-2.15-3.22-2.81-4.21c2.1,8.85-6.81,11.55-9.67,17.45c-0.38,0.78-4.13-0.06-7.22-0.19
			c-0.69,1.91-0.18,6.69-5.56,7.23c-3.71,0.38-7.39,1.19-11.11,1.45c-3.8,0.26-7.69,0.5-11.42-0.08c-1.68-0.26-3.74-2.23-4.42-3.91
			c-1.97-4.87-3.52-9.95-4.81-15.05c-0.34-1.36,0.87-3.11,1.37-4.68c1.02,1.28,2.28,2.43,3,3.86c1.98,3.94,4.08,7.43,8.76,8.88
			c2.77,0.86,5.21,2.79,8.31,4.53c2.92-5.72,7.06-9.9,12.64-9.07c4.8-5.29,8.98-9.89,13.11-14.44c1.88,0,3.61,0,5.35,0
			c-0.33-1.75-0.66-3.49-1.01-5.3c2.14-3.02,4.5-6.35,7.98-11.27c-7.64-0.92-13.76-1.71-19.89-2.32c-0.77-0.08-1.99,0.66-2.4,1.37
			c-1.96,3.38-4.84,4.22-8.59,4.86c-3.09,0.52-6.03,3.06-8.59,5.23c-3.69,3.14-0.28,5.95,1.07,8.72c0.93,1.92,2.09,3.73,3.4,6.04
			c-5.14,2.19-9.66-0.15-13.8-1.89c-8.34-3.5-8.68-3.51-14.71,2.84c-4.2,4.43-8.37,9.86-13.69,11.95c-4.67,1.84-6.78,4.67-9.95,7.82
			c-10.43,10.41-21.84,19.85-32.9,29.63c-0.31,0.27-0.87,0.27-2.42,0.7c1.25-2.23,1.93-3.82,2.93-5.15
			c5.78-7.7,10.6-16.55,17.75-22.68c7.76-6.65,12.95-15.46,20.93-21.66c1.04-0.81,2.65-0.87,3.97-1.35
			c1.52-0.54,4.13-0.89,4.33-1.77c1.69-7.25,8.81-9.85,13.07-16.34c-2.24-2.68-4.92-5.69-7.31-8.91c-0.74-1-0.69-2.59-1.08-4.26
			c-1.21,0.56-2.6,1.21-4.33,2.01c-2.29-2.54-4.6-5.09-7.2-7.98c-2.01,0.36-4.57,1.05-7.17,1.2c-2.2,0.13-4.43-0.37-6.65-0.6
			c-0.22-0.49-0.43-0.99-0.65-1.48c-1.4,2.12-3.02,4.12-4.15,6.37c-1.89,3.75-4.7,5.03-8.87,5.95c-6.35,1.39-12.32,4.52-18.49,6.8
			c-2.09,0.77-4.3,1.22-7.52,2.1c-2.59,2.81-5.96,7.04-9.91,10.62c-3.77,3.43-8.37,5.95-12.19,9.34c-2.88,2.55-5.09,5.84-7.61,8.8
			c-0.43-0.3-0.86-0.59-1.29-0.89c3.47-5.44,6.15-11.66,10.59-16.14c7.92-8,16.8-15.07,25.53-22.22c1.79-1.47,4.7-1.57,7.08-2.34
			c0.92-0.3,2.09-0.46,2.66-1.11c5.61-6.32,6.63-6.73,14.16-4.56c-2.23-6.12,1.24-8.76,5.99-10.64c4.42-1.75,8.8-3.62,13.9-5.73
			c-1.69-3.4-3.38-7.66-5.83-11.42c-1.97-3.03-2.84-5.11,0.97-7.18c1.12-0.61,1.79-2.06,2.66-3.13c-0.25-0.35-0.5-0.71-0.74-1.06
			c-2.47,1.01-4.94,2.01-7.9,3.22c-2.22-6.17-10.67-10.65-3.84-18.67c-8.54,0.8-11.31-3.59-7.49-11.9
			c4.9-10.66,14.15-15.62,23.49-12.6c7.3,2.36,10.77,12.68,6.45,19.18c-0.54,0.81-1.09,1.6-0.23,2.03
			c2.59,5.99,5.18,11.98,7.94,18.36c-1.55,1.35-3.42,2.3-4.09,3.79c-0.48,1.08,0.49,4.1,1.07,4.17c7.05,0.83,8.64,7.49,12.68,11.46
			c2.43,2.38,4.82,4.8,7.65,7.62c3.1-6.97,7.99-4.04,11.57-3.67c4.31,0.45,10.73-1.59,11.54,7.57c3.52-8.07,9.53-4.81,14.44-5.4
			c1.41-0.17,2.91,0.62,4.39,0.85c4.52,0.71,5.77-0.59,3.98-4.74c-1.3-3.01-3.01-6.01-5.2-8.42c-2.52-2.76-4.33-5.15-1.88-7.72
			c-4.08-1.95-8.01-3.68-11.78-5.69c-3.96-2.11-8.93-3.83-5.39-10.08c-7.11-0.31-13.44-4.5-14.06-8.95
			c-0.93-6.65,2.76-12.88,8.55-14.44c-8.2-10.28,3.12-14.38,6.71-21.39c-3.51-3.78-7.19-7.74-10.81-11.64
			c-3.44,5.15-8.93,2.08-13.79,1.38c-6.79-0.99,0.03-7.2-4.48-10.16c-1.16,1.35-2.46,3.21-4.12,4.67c-1.23,1.09-3.32,2.7-4.34,2.3
			c-4.61-1.77-9.35-3.65-13.31-6.51c-3.7-2.67-4.75-7.01-3.15-11.7c2.65-7.78,8.19-12.62,15.52-15.75c2.33,0,4.67,0,7,0
			c6.85,1.9,12.01,5.07,10.17,13.52c-0.03,0.13,0.42,0.37,1.3,1.1c1.22-2.2,2.69-4.17,3.44-6.39c1.09-3.24,2.81-3.7,6.04-3.15
			c4.25,0.73,6.43,2.2,4.97,6.8c-0.14,0.44,0.32,1.07,0.29,0.98c2.83-1.11,5.63-3.37,7.81-2.88c8.86,2.02,14.42,8.87,20.28,15.06
			c-1.45,2.4-2.71,4.51-3.98,6.61c0.36,0.3,0.73,0.6,1.09,0.9c1.93-1.57,3.87-3.13,5.98-4.84c3.18,3.33,5.07,6.85,5.33,11.77
			c0.4,7.38-2.27,13.11-6.87,18.44c-1.1,1.27-2.54,3.84-2.02,4.64c2.23,3.41,0.45,5.35-2.88,7.63c7.19,1.02,8.68,6.52,11.56,10.87
			c3.49,5.29,3.04,10.09-2.14,15.37c3.59,0,5.78,0,8.61,0c1.14,8.63,2.27,17.21,3.41,25.85c4.73-0.84,7.12-9.01,12.26-6.35
			c3.82-2.76,6.53-4.99,9.5-6.79c3.26-1.97,6.71-3.66,10.17-5.25c3.11-1.42,6.36-2.52,9.54-3.77c0.36,0.7,0.71,1.39,1.07,2.09
			c-7.46,5.44-14.92,10.87-22.85,16.65c2.22,4.48-2.7,4.13-5.33,5.64c-2.92,1.69-5.84,3.37-9.47,5.47
			c4.98,1.22,8.48,2.08,12.01,2.95c-0.21,2.31-0.37,4.11-0.62,6.76c2.5-1.51,4.14-2.5,6.04-3.64c6.41,8.38,15.88,14.61,16.79,26.12
			c-1.82,0.5-3.66,1-5.49,1.5c0.12,0.48,0.25,0.96,0.37,1.43c1.63-0.11,3.37-0.63,4.86-0.24c1.89,0.5,4.67,1.36,5.17,2.74
			c2.72,7.56,4.85,15.32,7.15,22.93c-2.73,1.26-4.47,2.06-6.25,2.89c3.74,5.98,3.48,8.53-0.98,14.47c-0.65,0.87-1.22,2.08-1.21,3.12
			c0.05,4.78-2.2,5.76-6.32,4.22c-3.43-1.29-6.91-2.46-10.36-3.68c-0.35,0.55-0.7,1.1-1.04,1.64c1.75,1.46,3.63,2.8,5.21,4.42
			c1.65,1.69,4.04,3.53,4.3,5.54c0.91,6.98-7.31,13.16-13.94,11.02c-1.14-0.37-2.5-0.05-3.67-0.05
			c-1.32,8.69-4.99,11.94-13.36,13.04c-4.36,0.57-8.62,1.85-12.93,2.81C531,406,528,406,525,406z M493.92,302.33
			c-1.49-2.46-2.73-4.51-4.76-7.86c0.19,7.09-4.5,3.44-7.31,5.37c1.17,2.53,2.4,5.2,3.92,8.48
			C488.97,305.98,491.33,304.24,493.92,302.33z"/>
	</g>
</g>
</svg>
