<?xml version="1.0" encoding="utf-8"?>
<!-- Generator: Adobe Illustrator 26.2.1, SVG Export Plug-In . SVG Version: 6.00 Build 0)  -->
<svg version="1.1" id="Layer_1" xmlns="http://www.w3.org/2000/svg" xmlns:xlink="http://www.w3.org/1999/xlink" x="0px" y="0px"
	 viewBox="0 0 960 560" style="enable-background:new 0 0 960 560;" xml:space="preserve">
<g>
	<g>
		<path d="M356,309c7.01-2.85,13.96-5.83,21.03-8.51c10.32-3.92,20.76-7.55,31.09-11.47c6.48-2.45,12.74-5.52,19.31-7.63
			c2.38-0.77,5.47,0.14,8.1,0.81c3.41,0.87,6.94,0.5,6.96-3.17c0.07-11.5,9.14-12.23,16.65-14.96c1.84-0.67,3.82-0.93,5.4-1.3
			c1.14-5.14,1.25-10.59,3.54-14.88c3.81-7.13,8.89-13.61,13.67-20.19c2.23-3.07,4.83-5.96,7.66-8.47c1.32-1.17,4.83-2.22,5.29-1.65
			c4.45,5.48,6.27,0.1,9.05-1.64c-1.01-2.46-1.93-4.7-2.94-7.16c4.73-2.7,8.9-5.76,13.55-7.57c4.99-1.95,10.41-2.91,15.71-3.88
			c1.1-0.2,3.15,1.16,3.71,2.32c2.05,4.28,3.65,8.78,5.44,13.19c0.65,1.61,1.35,3.19,2.03,4.78c0.6,0.06,1.2,0.11,1.8,0.17
			c0.98-3.13,2.39-6.19,2.84-9.39c1.12-7.96,2.39-9.48,10.32-9.79c7.02-0.27,13.68,1.56,19,6.06c1.99,1.68,2.29,5.35,3.34,8.07
			c5.4-4.3,12.05-2.45,16.26,5.13c2.81,5.05,4.9,10.5,7.44,15.7c1.08,2.22,2.47,4.29,3.73,6.42c0,1.67,0,3.33,0,5
			c-2.75,5.9-4.99,12.11-8.38,17.62c-3.31,5.37-8.34,8.41-15.29,8.54c-6.51,0.12-12.92,2.45-19.53,0.02
			c-4.01-1.47-6.28-3.28-4.94-8.01c0.64-2.27,0.34-4.82,0.47-7.39c-0.93,0.16-1.42,0.1-1.52,0.28c-3.9,7.04-3.9,7.04-11.98,4.86
			c-1.28-0.34-2.68-1.15-3.83-0.89c-8.2,1.88-12.52-4.01-17.46-8.56c-2.64-2.43-5.31-3.03-8.69-1.23c0.58,1.73,1.4,3.21,1.52,4.76
			c0.26,3.27,0.66,6.36-4.84,5.27c-4.02-0.79-7.67,1.68-10.29,3.89c3.89,0.65,8.16,0.39,11.37,2.11c6.21,3.32,8.62,9.85,10.52,16.28
			c4.19,14.23-1.6,22.36-20.32,28.35c0.7,2.47,0.77,5.48,2.25,7.36c3.23,4.11,5.53,8.18,3.81,14.25c7.16-6.6,12.48-3.19,18.41,1.15
			c3.17,2.32,6.13,4.17,7.39,8.06c0.37,1.15,1.45,2.07,2.19,3.07c7.07-4.56,6.99-4.44,14.3,0.5c1.23,0.83,3.54,0.43,5.24,0.08
			c1.35-0.27,2.52-1.93,3.79-1.96c19.41-0.47,29.55-13.48,38.53-28.15c1.03-1.69,2.18-3.31,3.33-4.92c0.13-0.19,0.61-0.12,1.95-0.33
			c-0.35,1.81-0.31,3.48-0.98,4.81c-9.45,18.91-22.08,34.66-41.02,45.36c-7.18,4.06-10.83,1.09-15.48-2.88
			c-0.62,0.82-1.06,1.3-1.38,1.85c-3.52,5.92-6.1,6.93-12.67,4.89c-3.76-1.17-7.44-2.65-11.26-3.5c-4.61-1.02-7.73-2.62-5.08-8.75
			c-2.15-0.19-3.87-0.62-5.51-0.43c-6.4,0.75-11.3-1.13-15.53-6.36c-3.7-4.57-8.65-8.12-12.92-12.26c-2.91-2.83-5.58-5.9-8.58-9.1
			c1.77-1.4,3-2.36,3.57-2.82c-2.96-3.31-5.73-6.53-8.69-9.57c-0.53-0.54-1.88-0.45-2.83-0.36c-2.15,0.21-4.3,0.49-6.4,0.96
			c-4.41,1-8.13,1.33-7.61-5.13c0.09-1.05-1.17-2.22-2.21-4.03c-1.1,1.47-1.91,2.39-2.53,3.43c-1.95,3.26-3.85,5.24-8.4,3.46
			c-2.8-1.09-6.5,0.11-9.79,0.31c-5.9,0.36-10.77-1.28-13.67-6.89c-0.3-0.58-0.8-1.06-1.27-1.53c-0.21-0.21-0.58-0.28-0.88-0.42
			c-0.31,0.1-0.82,0.13-0.88,0.3c-3.15,9.78-11.51,9.42-19.15,9.18c-12.28-0.38-24.52-2.66-36.84-0.54
			C356,309.67,356,309.33,356,309z"/>
	</g>
</g>
</svg>
