<?xml version="1.0" encoding="utf-8"?>
<!-- Generator: Adobe Illustrator 26.2.1, SVG Export Plug-In . SVG Version: 6.00 Build 0)  -->
<svg version="1.1" id="Layer_1" xmlns="http://www.w3.org/2000/svg" xmlns:xlink="http://www.w3.org/1999/xlink" x="0px" y="0px"
	 viewBox="0 0 960 560" style="enable-background:new 0 0 960 560;" xml:space="preserve">
<g>
	<g>
		<path d="M606,317c-1.2-0.01-2.63,0.4-3.57-0.1c-6.47-3.43-13.22-4.91-20.59-4.51c-3.92,0.21-7.91-1.05-11.87-1.07
			c-1.49-0.01-3.2,1.39-4.43,2.55c-0.9,0.85-1.36,2.3-1.7,3.57c-1.62,6.05-3.91,11.17-13.27,8.46c5.14,5.19,2.51,8.1-0.07,11.7
			c-3.45,4.82-5.8,10.42-8.84,15.56c-4.48,7.57-9.12,15.05-13.76,22.53c-0.37,0.6-1.21,0.9-1.96,1.43
			c-0.46-0.62-1.04-1.08-0.96-1.34c3.01-9.64,2.68-19.61,2.89-29.52c0.07-3.43,0.99-5.64,5.24-5.38c3.57,0.22,3.54-2.92,1.69-4.23
			c-4.42-3.12-2.82-6.8-1.94-10.52c0.69-2.89,1.71-5.7,2.44-8.58c1.52-6.01,0.42-7.54-5.78-8.28c-6.21-0.74-6.21-0.74-10.28-6.34
			c-0.91,4.55-2.13,7.98-2.16,11.43c-0.05,6.47,0.64,12.95,0.89,19.43c0.04,1.13-0.62,2.29-1.54,3.46
			c-2.96-7.43-2.75-16.13-9.9-21.35c-2.57,4.27-5.06,8.4-8.73,14.49c1.23,7.48-4.87,15-9.16,23.17c-2.86,5.44-5.56,10.96-8.37,16.42
			c-0.39,0.76-1.03,1.4-2.76,1.76c0.18-1.43,0.34-2.86,0.54-4.29c1.44-10.15,2.85-20.29,4.35-30.43c0.26-1.77,0.61-3.64,1.44-5.18
			c2.17-4.03,3.72-7.78,1.25-12.47c-0.76-1.44,0.68-4.16,1.36-6.21c0.84-2.51,1.94-4.94,3.22-8.14c-2.74,0-4.24-0.25-5.62,0.04
			c-6.27,1.33-12.57,3.23-17.2-4.36c-0.38,0.46-0.76,0.91-1.15,1.37c0.26,1.32,0.36,2.7,0.82,3.95c1.72,4.73-0.09,7.26-5.14,7.22
			c-2.38-0.02-4.77,0.28-7.42,0.45c5.6,15.99,16.07,29.57,14.95,46.65c-0.56,0.31-1.11,0.62-1.67,0.93
			c-1.96-2.82-4.17-5.5-5.84-8.48c-5.74-10.29-12.93-19.32-22.28-26.56c-4.01-3.1-7.41-2.43-10.26,1.93
			c-6.69,10.25-17.92,10.59-25.59,0.71c-2.45-3.16-6.23-5.26-6.26-10.25c-0.04-6.69,3.66-10.81,8.38-14.44
			c5.92-4.54,5.95-5.3-0.51-9.15c-2.28-1.36-4.92-2.24-6.94-3.91c-2.55-2.11-4.63-4.79-6.9-7.24c-0.94-1.02-1.84-2.07-2.82-3.19
			c-4.48,5.78-4.48,5.81-11.63,4.11c-14.43-3.43-14.58-2.52-15.61-19.75c-0.24-4.07-0.93-8.23-2.24-12.07
			c-1.57-4.59-2.29-8.36,2.98-10.92c0.94-0.46,1.5-1.7,3.4-3.97c-3.77-0.47-6.44-0.8-9.11-1.13c0-9.33,0-18.67,0-28
			c2.21-2.11,4.16-4.63,6.7-6.21c2.43-1.51,5.48-2.01,8.24-3.01c1.24-0.45,2.57-1.63,3.65-1.42c7.46,1.45,15,2.77,22.2,5.11
			c1.74,0.57,3.37,4.87,3.18,7.3c-0.4,4.87-2.09,9.63-3.21,14.25c-3.01,0.62-5.65,1.17-8.28,1.72c0.87,1.11,1.64,1.4,2.36,1.3
			c4.38-0.62,5.12,1.32,4.32,5.24c-0.76,3.72-0.81,7.6-1.16,11.4c-0.37,4.05-0.9,7.88-6.14,8.55c-1.03,0.13-1.94,1.28-3.44,2.34
			c9.07,1.45,9.07,1.45,9.07,8.41c9.32-1.87,22.5,4.69,23.02,11.94c7.34-1.92,7.37-1.96,14.1,3.21c3.11,2.39,7.56,4.6,10.18,2.55
			c5.19-4.06,8.37-3.18,11.75,1.59c0.32,0.45,1.09,0.58,2.22,1.14c0.03-5.8,4.25-7.14,9.34-8.54c-2.27-2.38-3.62-4.76-5.64-5.75
			c-6.66-3.24-13.48-6.2-20.43-8.77c-2.4-0.89-3.36-1.65-2.85-4.13c0.21-0.99,0.03-2.07,0.03-3.24c-1.98,0.73-3.88,2.19-5.12,1.76
			c-5.57-1.95-10.95-4.43-16.54-6.78c0.14-1.43,0.24-2.91,0.45-4.37c1.06-7.39,0.21-15.61,8.54-19.92c0.4-0.21,0.47-1.16,0.57-1.79
			c0.44-2.74,0.83-5.48,1.24-8.25c-5.26-3.05-5.77-4.61-3.24-10.28c2.3-5.16,4.52-10.37,7.06-15.41c0.73-1.45,2.24-2.86,3.73-3.53
			c8.49-3.8,19.12,0.74,25.3,8.92c6.42,8.5,6.75,17.6,2,27.16c-1.43,2.88-2.42,4.35-5.91,2.98c-1.45-0.57-3.54,0.51-5.33,0.84
			c-0.28,0.67-0.57,1.33-0.85,2c10.43,0.66,9.32,6.9,6.97,13.64c7.46-3.83,14.01-7.33,20.68-10.56c3.71-1.79,7.58-2.81,10.54,3.81
			c1.51-9.92,8.33-9.32,14.23-9.99c3.56-0.4,7.21-0.07,11.69-0.07c0.56-2.14,0.92-4.75,1.93-7.08c1.14-2.62,2.26-5.89,4.42-7.32
			c9.93-6.6,20.17-6.62,30.29-0.02c8.4,5.48,10.22,14.35,4.67,22.78c-1.3,1.97-2.51,4-3.62,5.78c5.65,3.32,8.01,0.11,9.38-4.04
			c1.9-5.74,5.87-7.44,11.48-7.28c8.09,0.22,15.32,2.82,21.9,7.29c3.77,2.57,5.41,6.46,4.39,10.9c-0.77,3.36-1.81,6.89-3.69,9.7
			c-1.86,2.78-1.2,4.37,0.61,6.49c4.42,5.16,8.72,10.42,13.06,15.65c0,0.67,0,1.33,0,2c-1.65-0.49-3.5-0.67-4.92-1.54
			c-4.76-2.9-9.37-6.05-14.24-9.23c-3.16,6.11-6.02,11.66-8.9,17.23c-1.88-1.06-3.26-1.84-6.12-3.46c0.36,3-0.09,5.72,0.92,6.45
			c3.47,2.54,3.06,5.24,1.51,7.47c10.84,6.85,21.3,13.46,31.75,20.07C606,316.33,606,316.67,606,317z M552.61,255.63
			c-3.74-0.83-7.87-3.17-10.49-2.03c-4.52,1.97-8.1,6.09-12.56,9.71c0.34,0.21-0.31-0.46-1.05-0.59c-1.19-0.2-2.43-0.03-3.65-0.02
			c0.01,1.09-0.19,2.23,0.1,3.24c0.31,1.07,0.95,2.11,1.67,2.98c3.39,4.12,3.03,5.45-1.09,8.68c-2.34,1.83-3.99,4.54-6.78,7.81
			c6.76,0.69,12.05,0.84,12.53,8.88c1.51-2.11,2.3-2.89,2.69-3.85c0.46-1.12,0.58-2.37,0.85-3.58c3.22,0.73,5.9,1.34,8.22,1.86
			c0.88-5.7,1.7-10.99,2.46-15.87c2.47-0.38,4.35-0.68,7.63-1.19C545.49,266.18,550.29,261.62,552.61,255.63z M504.79,248.86
			c-3.16-2.1-5.42-3.51-7.56-5.07c-1.1-0.8-2.01-1.87-3.01-2.82c-0.44,1.39-1.37,2.84-1.23,4.16c0.41,3.82-0.57,6.1-4.55,7.53
			c-2.8,1-5.07,3.49-7.43,5.2c4.53,4.78,8.63,9.1,12.99,13.71C497.82,263.54,501.42,255.95,504.79,248.86z"/>
	</g>
</g>
</svg>
