<?xml version="1.0" encoding="utf-8"?>
<!-- Generator: Adobe Illustrator 26.2.1, SVG Export Plug-In . SVG Version: 6.00 Build 0)  -->
<svg version="1.1" id="Layer_1" xmlns="http://www.w3.org/2000/svg" xmlns:xlink="http://www.w3.org/1999/xlink" x="0px" y="0px"
	 viewBox="0 0 960 560" style="enable-background:new 0 0 960 560;" xml:space="preserve">
<g>
	<g>
		<path d="M356,277c1.36-4.92,2.85-9.82,4.06-14.78c1.84-7.54,3.29-15.18,5.35-22.66c0.51-1.87,2.47-3.61,4.18-4.82
			c1.51-1.07,3.61-1.34,6.7-2.38c-2.4-1.74-3.87-2.81-5.41-3.92c-0.81-7.26,2.61-12.96,7.06-18.34c1.53-1.86,2.23-4.55,3.99-6.06
			c5.45-4.64,21.56-2.19,25.58,3.87c1.1,1.65,1.46,4.12,1.36,6.17c-0.15,2.95-1.02,5.87-1.61,8.8c-1.6,7.85-0.46,7.74-9.39,8.31
			c0.99,1.64,3.11,3.6,2.75,4.85c-0.95,3.28-2.68,6.48-4.75,9.22c-0.72,0.95-3.32,0.51-5.07,0.67c-2.04,0.19-4.09,0.35-6.08,1.09
			c7.34,4.17,7.32,4.16,3.3,12.3c-0.8,1.62-1.39,3.34-2.34,5.68c8.26,1.17,10.52,6.39,8.07,14.58c0.61-0.17,1.23-0.34,1.84-0.51
			c0.78-0.91,1.87-1.69,2.28-2.74c1.88-4.79,5.1-5.08,9.17-3.03c1.63,0.83,3.37,1.51,4.88,2.52c2.83,1.9,5.44,2.84,8.5,0.27
			c2.6-2.19,5.02-0.96,7.65,0.67c2.49,1.54,5.87,4.71,7.79-1.33c-1.18-1.31-2.48-2.76-3.75-4.17c2.73-5.78,1.63-9.15-4.34-13.49
			c-8.21-5.97-8.15-6.2-3.44-15.32c1.73-3.35,3.33-6.06,7.51-4.14c0.26-0.5,0.43-0.69,0.39-0.78c-6.52-14.5,3.56-23.73,10.86-33.76
			c0.84-1.16,2.75-2.04,4.24-2.15c9.7-0.74,20.78,13.06,18.11,22.45c-1.08,3.79-2.64,6.94-7.69,5.04c-1.21-0.45-2.79,0.08-4.45,0.18
			c1.21,2.7,2.8,4.81,2.97,7.04c0.18,2.28-1.04,4.67-1.6,6.86c6.82,0.68,13.88,1.07,20.83,2.17c4.89,0.77,10.6,1.07,11.49,8.05
			c6.31,0,12.39-0.05,18.47,0.06c0.84,0.02,2.08,0.69,2.41,1.4c1.85,3.96,4.55,5.21,9.09,6.29c6.39,1.51,12.22,5.83,17.97,9.45
			c3.47,2.19,6.27,5.43,9.51,8.02c2.88,2.32,4.57,4.84,2.15,9.08c1.46-0.2,2.33-0.47,3.16-0.39c1.18,0.11,2.84,0.12,3.37,0.84
			c0.62,0.85,0.6,2.55,0.22,3.66c-0.76,2.25-1.96,4.35-3.01,6.58c1.19,0.58,1.63,0.97,2.05,0.97c2.91-0.04,6.65-1.36,8.55-0.02
			c4.11,2.9,7.95,6.7,10.7,10.91c8.56,13.11,12.05,27.88,12.51,43.41c0.06,2.05-0.52,4.11-0.8,6.15c-0.94-0.08-1.47,0-1.55-0.15
			c-4.22-7.8-7.83-16.01-12.8-23.29c-3.33-4.87-8.53-8.5-13.03-12.53c-1.92-1.72-5.7-1.82-4.7-5.93c0.11-0.44-0.79-1.43-1.42-1.7
			c-7.47-3.27-12.82-9.24-18.76-14.47c-0.25-0.22-0.48-0.52-0.78-0.62c-5.75-1.99-8.49-5.79-6.42-13.08
			c-3.34,2.35-5.58,3.93-6.95,4.89c-13.65-4.09-26.58-7.96-40.19-12.04c0.31,0.71,0.07,0.42,0.07,0.12c-0.09-6.8-1.7-8.35-8.71-8.15
			c-2.45,0.07-5.26-0.28-7.23,0.79c-1.46,0.79-2.41,3.57-2.46,5.5c-0.03,1.22,1.8,3.26,3.15,3.61c7.19,1.89,14.99,2.26,21.62,5.26
			c7.72,3.49,14.46,9.15,21.59,13.92c0.27,0.18,0.19,0.9,0.36,1.86c-3.58-1.07-6.83-2.45-10.22-2.97
			c-5.83-0.89-11.73-1.46-17.61-1.73c-3.05-0.14-5.62,0.17-7.66-3.04c-1.93-3.03-4.63-2.43-5.57,1.34
			c-1.31,5.27-1.81,10.73-2.77,16.84c-6.68-3.2-4.35-12.12-10.9-15.11c-2.69,1.21-5.83,2.63-9.39,4.23
			c9.05,9.21,14.65,19.85,17.87,31.72c-0.49,0.38-0.98,0.77-1.47,1.15c-2.11-1.89-4.28-3.71-6.31-5.67
			c-3.7-3.58-7.23-7.32-10.97-10.85c-6.1-5.75-16.76-8.54-23.5,1.62c-5.23,7.88-14.01,6.3-19.21,1.36
			c-1.56-1.49-3.14-3.01-4.41-4.73c-5.84-7.92-5.69-12.13,1.03-20.13c-4.02-0.89-8.25-0.82-11.12-2.77
			c-2.57-1.75-3.64-5.72-4.52-7.25c-4.08-0.41-7.09-0.18-9.7-1.09c-4.35-1.52-8.45-3.77-12.65-5.72C356,279.67,356,278.33,356,277z"
			/>
		<path d="M606,307c-1,7.69-2.08,15.37-2.97,23.07c-0.76,6.6-2.83,12.65-6.07,18.29c-0.56-0.08-1.12-0.16-1.68-0.24
			c0-2.71-0.02-5.41,0-8.12c0.12-12.15-3.26-23.19-9.78-33.47c-1.82-2.87-2.22-6.64-3.6-11.07c-2.27-1.15-6.91-2.12-8.99-4.97
			c-1.82-2.49-0.76-7.08-1-11.05c-1.59,0.98-3.62,2.23-5.9,3.64c-4.22-4.42-8.91-8.39-12.42-13.21
			c-6.36-8.73,3.48-20.06,11.64-20.47c3.63-0.18,7.27-0.03,11.48-0.03c0.27,2.34,0.52,4.39,0.76,6.43
			c8.39-2.16,11.35-0.76,14.56,7.16c2.99,7.37,5.98,14.75,8.67,22.23c0.59,1.64-0.11,3.74-0.23,5.75c1.67,1.22,3.6,2.63,5.52,4.04
			C606,299,606,303,606,307z"/>
	</g>
</g>
</svg>
