<?xml version="1.0" encoding="utf-8"?>
<!-- Generator: Adobe Illustrator 26.2.1, SVG Export Plug-In . SVG Version: 6.00 Build 0)  -->
<svg version="1.1" id="Layer_1" xmlns="http://www.w3.org/2000/svg" xmlns:xlink="http://www.w3.org/1999/xlink" x="0px" y="0px"
	 viewBox="0 0 960 560" style="enable-background:new 0 0 960 560;" xml:space="preserve">
<g>
	<g>
		<path d="M606,278c-2.99,1.61-5.99,3.23-9.03,4.87c5.46,5.48,5.26,8.75,1.83,15.78c-4.34,8.89-10.9,13.11-20.65,13.78
			c-7.04,0.48-14.02,2.06-20.99,3.33c-1.5,0.27-2.96,1.16-4.25,2.03c-3.69,2.5-6.97,1.64-8.79-2.36c-1.61-3.54-3.33-7.02-5.07-10.68
			c-2.94,7.76-4.21,8.46-12.76,7.09c-15.34-2.47-30.15-6.28-42.34-17.82c-1.85,5.32-5.59,5.78-9.99,6.15
			c-9.45,0.79-18.86,2.16-28.24,3.64c-6.54,1.03-7.4,0.64-8.35-5.66c-0.15-0.99-0.99-1.87-1.52-2.81c-0.68,0.9-1.74,1.71-1.98,2.72
			c-1.59,6.7-9.19,12.79-16.01,12.16c-5.91-0.54-11.85-1.32-17.61-2.69c-1.86-0.44-3.54-2.89-4.66-4.8
			c-0.93-1.57-0.92-3.7-2.56-5.79c-1.05,2.59-2.24,5.13-3.12,7.77c-1.15,3.42-3.43,4.18-6.87,4.26
			c-12.07,0.29-20.73-4.58-25.67-15.75c-0.23-0.51-0.9-0.82-1.37-1.22c0-4.33,0-8.67,0-13c0.88-2.43,2.15-4.8,2.59-7.31
			c2.12-12.05,10.25-19.03,19.99-25.05c8.25-5.1,16.51-4.33,25.17-1.74c2.86,0.86,3.72,1.66,2.77,4.82
			c-2.3,7.68-1.24,9.98,5.24,13.02c1.06-1.76,1.86-3.86,3.32-5.29c1.86-1.83,5.42-4.86,6.21-4.33c2.64,1.77,4.66,4.72,6.32,7.57
			c0.76,1.3,0.13,3.42,0.13,5.46c4.41-0.62,5.76-2.88,6.2-6.2c0.75-5.69,2.27-6.97,7.88-5.22c7.05,2.2,13.87,5.14,20.77,7.8
			c11.27,4.34,22.74,6.85,34.77,3.56c1.2-0.33,2.36-1.14,3.3-1.99c4.41-4.02,9.96-2.99,13.08,2.39c1.08,1.86,2.5,3.51,3.76,5.26
			c1.87-1.99,5.08-3.81,5.35-6c0.9-7.21,5.41-8.83,11.47-9.94c4.81-0.88,9.43-2.92,14.03-4.72c4.12-1.61,4.06-1.77,6.65,1.12
			c15.43-9.84,30.76-6.49,45.82,0.27c2.37,1.06,3.49,4.93,5.18,7.49C606,266,606,272,606,278z"/>
	</g>
</g>
</svg>
