<?xml version="1.0" encoding="utf-8"?>
<!-- Generator: Adobe Illustrator 26.2.1, SVG Export Plug-In . SVG Version: 6.00 Build 0)  -->
<svg version="1.1" id="Layer_1" xmlns="http://www.w3.org/2000/svg" xmlns:xlink="http://www.w3.org/1999/xlink" x="0px" y="0px"
	 viewBox="0 0 960 560" style="enable-background:new 0 0 960 560;" xml:space="preserve">
<g>
	<g>
		<path d="M560,406c2.25-9.97-4.95-16-9.8-22.89c-2.37-3.37-5.81-5.97-8.42-9.2c-1.57-1.93-2.48-4.39-3.68-6.61
			c0.36-0.45,0.72-0.91,1.08-1.36c-2.85-0.45-5.73-0.8-8.56-1.36c-4.04-0.8-8.06-1.7-12.08-2.64c-2.08-0.49-4.09-1.47-6.19-1.66
			c-4.27-0.39-7.52-1.69-7.63-7.05c-1.24,0.63-2.6,0.87-2.86,1.53c-2.1,5.43-6.41,4.54-10.76,4.2c-4.77-0.38-9.45-0.63-14.01,2.12
			c-1.56,0.94-4.7-0.77-6.46-1.13c-5.13,2.94-10.12,5.8-15.1,8.68c-0.57,0.33-1.42,0.62-1.59,1.11c-2.18,6.5-6.63,5.56-11.56,3.34
			c-0.84,3.78-1.76,7.31-2.38,10.89c-0.84,4.86-6.14,8.27-10.34,5.76c-4.64-2.78-8.91-6.32-12.91-10c-3.94-3.63-3.27-8.79-1.7-12.99
			c2.7-7.22,7.8-12.97,14.54-16.84c1.52-0.88,3.98-0.13,5.57-0.88c2.63-1.38,5.13-3.24,7.93-4.03c8.09-2.29,16.3-4.15,24.99-6.31
			c-2.46-3.68-8.12-4.69-5.28-10.19c-6-1.12-8.28-5.26-8.03-10.75c0.26-5.79,1.08-11.55,1.71-17.32c0.07-0.64,0.3-1.41,0.74-1.83
			c5.67-5.57,10.77-12.06,17.33-16.26c4.33-2.77,11.5-4.29,16.13-2.7c8.39,2.89,16.12,8.94,19.11,17.68
			c3.28,9.59-1.67,17.27-9.27,23.48c-5.09,4.17-10.89,4.91-16.26,1.15c-5.59-3.92-5.85-14.53-0.32-18.74
			c1.83-1.4,4.02-2.32,6.23-3.11c-5.6,9.04-5.63,10.02-0.35,17.04c7.71-2.44,11.65-8.99,9.78-16.28
			c-1.02-3.96-13.76-10.27-17.66-8.76c-8.11,3.15-15.68,7.01-16.43,17.01c-0.26,3.52,0.57,7.2,1.39,10.7
			c0.66,2.79,2.92,3.46,5.81,3.48c1.71,0.01,3.51,1.46,5.1,2.53c2.18,1.47,3.98,4.03,6.32,4.63c9.15,2.34,18.89,1.93,26.59-2.91
			c4.06-2.55,9.13-6.02,11.8-10.47c3.54-5.91,6.2-12.51,8.13-19.14c0.99-3.38,0.47-7.87-0.99-11.14c-2.05-4.58-2.75-8.05,2.18-10.68
			c-0.44-0.67-0.64-1.18-0.77-1.16c-5.53,0.84-9.07-1.54-12.8-5.74c-5.2-5.86-12.95-3.69-19.31-2.36
			c-5.14,1.08-9.39,0.93-13.82-1.38c-4.69-2.45-9.56-0.9-11.38,4.27c-1.54,4.36-3.32,7.25-8.8,4.55c0.69,6.11-0.06,10.86-5.01,14.34
			c-1.33,0.94-1.38,3.63-2.15,5.46c-2.03,4.87-4.2,5.89-8.92,3.52c-3.69-1.86-7.44-3.92-10.5-6.64c-5.93-5.26-6.21-20.62-0.91-27.61
			c1-1.32,2.36-2.38,3.26-3.76c2.62-4,8.95-6.09,5.65-13.14c-2.14-4.57-2.79-9.56-7.29-13.1c-2.51-1.97-3.85-5.7-5.19-8.86
			c-2.69-6.35-5.01-12.85-7.48-19.29c0.49-0.26,0.98-0.52,1.48-0.78c3.05,4.07,6.16,8.09,9.12,12.22c2.22,3.11,4.08,6.49,6.43,9.49
			c1.29,1.64,3.13,3.6,4.97,3.89c5.25,0.85,6.36,3.93,5.61,7.85c4.12,1.61,7.81,3.17,11.6,4.44c0.91,0.3,2.2-0.29,3.24-0.67
			c9.72-3.51,19.32-6.39,30.1-5.08c14.92,1.81,25.36-5.65,32.98-18.21c3.77-6.22,8.35-12.41,17.22-11.39
			c1.38,0.16,3.15,0.53,3.97,1.48c6.42,7.42,11.9,15.48,10.65,25.88c-0.31,2.56-2.9,5.13-5.01,7.1c-1.62,1.51-4.16,2-6.22,3.08
			c-3.19,1.66-6.33,3.48-8.36-2.14c-1.74,3.87,2.98,8.8-3.57,9.67c3.44,10.03,11.33,18.86,5.78,30.61c5.96,0.87,5.36,5.61,4.7,10.31
			c-0.83,5.92-1.64,11.85-2.7,17.74c-0.8,4.42-2.55,8.29-7.48,9.69c-0.88,0.25-2.03,0.93-2.3,1.68c-2.5,6.82-8.18,10.21-13.94,13.73
			c-1.79,1.09-2.72,3.57-3.81,5.08c7.64,5.57,15.64,11.36,23.56,17.23c1.45,1.07,3.06,2.3,3.83,3.84
			c6.13,12.25,14.3,23.76,14.46,38.25c0.02,1.94-0.47,3.88-0.72,5.83C561.33,406,560.67,406,560,406z"/>
		<path d="M499,156c-0.12,9.92,2.5,18.61,11.07,24.63c0.3,6.26,6.62,7.14,9.88,10.74c8.14,8.97,6.16,18.81,3.12,28.52
			c-1.84,5.89-8.61,9.02-14.66,7.68c-1.96-0.43-4.2-2.2-5.16-3.98c-3.07-5.66-0.06-12.99,5-15.33c-0.53-2.79-0.82-5.26-1.49-7.63
			c-0.57-1.99-1.06-4.55-2.5-5.63c-3.88-2.89-5.17-4.92-4.57-10.51c-5.55,0.98-6.15-2.87-6.62-6.9c-0.91-7.79,2.07-14.67,4.94-21.59
			C498.33,156,498.67,156,499,156z"/>
		<path d="M397.63,222.02c11.7,6.37,20.36,14.83,20.3,28.81c-0.03,6.32,1.06,13.73-5.75,17.75c0.35,3.87,0.84,7.72,1.03,11.59
			c0.3,6.02,2.98,9.73,8.71,11.71c2.35,0.81,4.68,1.69,7.02,2.53c10.74,3.81,18.29,11.14,23.24,21.25c2.7,5.51-2.8,7.81-4.9,11.35
			c-0.95,1.59-3.03,2.54-4.65,3.7c-7.14,5.13-10.64,4.27-15.1-3.42c-1.73-2.98-3.94-5.69-5.67-8.67c-1.04-1.8-1.19-4.18-2.39-5.81
			c-1.59-2.16-3.76-5.37-5.79-5.44c-6.51-0.25-9.25-4.26-10.79-9.33c-3.71-12.19-3.35-24.4-0.05-36.76
			c2.05-7.69,6.36-15.43,2.88-23.7C403.53,232.33,400.5,227.45,397.63,222.02z"/>
		<path d="M460.89,204.7c4.25-3.4,9.81-0.7,11.28,6.08c1.02,4.7-2.04,11.48-6,14.27c-4.12,2.91-8.14,2.66-11.17-0.9
			c-4.06-4.77-9.47-9.28-6.95-16.97c0.3-0.92-0.43-3.05-1.12-3.27c-6.22-2.03-6.07-7.58-5.6-11.98c0.87-8.15,3.08-16.15,4.74-24.21
			c0.59,0.06,1.17,0.11,1.76,0.17c0,3.41,0.31,6.86-0.05,10.23c-1.37,12.69-0.06,15.22,10.93,21.55
			C459.91,200.37,460.11,202.79,460.89,204.7z"/>
		<path d="M480.88,217.04c5.57-12.37,6.36-23.83-2.9-34.41c7.44-0.22,15.3,5.08,17.76,11.76c1.67,4.55,2.63,9.12-3.13,11.84
			c6.1,4.89,7.07,10.01,3.54,16.85c-0.75,1.46-1.04,3.16-1.8,4.61c-1.9,3.69-4.55,6.59-9.09,6.51c-4.76-0.09-9.3-0.55-11.1-6.31
			C472.57,222.71,475.19,218.45,480.88,217.04z"/>
	</g>
</g>
</svg>
