<?xml version="1.0" encoding="utf-8"?>
<!-- Generator: Adobe Illustrator 26.2.1, SVG Export Plug-In . SVG Version: 6.00 Build 0)  -->
<svg version="1.1" id="Layer_1" xmlns="http://www.w3.org/2000/svg" xmlns:xlink="http://www.w3.org/1999/xlink" x="0px" y="0px"
	 viewBox="0 0 960 560" style="enable-background:new 0 0 960 560;" xml:space="preserve">
<g>
	<g>
		<path d="M407,406c3.75-9.75,7.43-19.52,11.31-29.21c0.58-1.46,1.84-2.96,3.19-3.75c3.27-1.93,4.72-3.84,1.96-7.41
			c-0.52-0.67,0.34-2.72,0.99-3.91c2.99-5.55,6.01-11.09,9.28-16.47c0.87-1.43,2.63-3.22,4.04-3.27c4.34-0.14,3.93-2.79,2.69-5.01
			c-2.24-4.01-1.01-7.34,0.96-10.79c1.81-3.18,3.6-6.37,5.38-9.55c3.18-5.68,12.71-6.65,17.02-1.73c4,4.56,2.92,18.69-1.86,22.37
			c-0.86,0.66-2.41,0.53-3.65,0.55c-1.13,0.01-3.12-0.67-3.26-0.37c-0.58,1.26-1.28,3.16-0.72,4.12c3.36,5.75-0.13,7.05-4.47,9.82
			c-3.78,2.41-5.67,7.73-8.57,11.65c-0.8,1.08-2.2,1.72-3.14,2.42c-0.92,2.47-1.36,5.37-2.9,7.44c-3.67,4.93-7.92,9.42-11.84,14.17
			c-5.19,6.27-10.28,12.62-15.42,18.93C407.67,406,407.33,406,407,406z"/>
		<path d="M578,156c-1.14,1.79-2.01,3.84-3.46,5.33c-10.76,11.12-21.64,22.14-32.49,33.18c-0.93,0.95-1.81,1.97-2.83,2.81
			c-2.16,1.76-4.39,3.43-7.29,5.68c1.8,4.59-2.15,7.56-6.15,10.73c-1.74,1.39-2.93,3.52-4.24,5.4c-2.3,3.31-4.74,6.14-9.73,3.38
			c0.26,7.3-4.25,10.74-9.75,12.38c-2.42,0.72-6.49-0.33-8.32-2.1c-4.19-4.07-2.24-17.03,3.23-18.4c5.56-1.39,6.48-5.79,9.44-8.83
			c3.07-3.14,6.96-3.33,11.1-0.74c2.16-2.75,3.78-5.94,6.35-7.87c8.73-6.54,18.08-12.26,26.65-18.98
			c8.82-6.91,17.01-14.62,25.48-21.98C576.67,156,577.33,156,578,156z"/>
		<path d="M380.32,321.34c0.83-2.84,1.01-4.6,1.81-6c8.61-15.07,19.93-27.78,33.62-38.4c0.13-0.1,0.23-0.31,0.37-0.33
			c10.15-1.83,16.85-10.36,26.42-13.5c7.72-2.54,14.99-6.7,23.55-4.15c0.44,0.13,1.12,0.17,1.44-0.07
			c9.83-7.38,21.21-4.55,32.02-4.58c10.16-0.03,10.16,0.48,14.95,6.11c6.8,1.11,12.66,1.21,17.87,3.11
			c10.4,3.79,19.82,9.46,26.86,18.38c0.62,0.78,1.77,1.62,1.72,2.38c-0.35,5.48,4.22,8.43,6.24,12.66c3.56,7.44-3,17.88-11.18,17.98
			c-7.79,0.09-13.39-3.07-16.55-10.42c-1.86-4.34-4.09-8.53-5.6-11.65c-3.14-1.74-5.8-2.78-7.93-4.49
			c-5.71-4.57-11.08-9.5-18.55-11.27c-2.02-0.48-3.73-2.28-5.27-3.27c-4,0.26-7.92,0.73-11.85,0.71
			c-5.31-0.03-10.63-0.77-15.92-0.57c-5.13,0.19-10.23,1.2-15.78,1.9c-0.66-0.99-1.51-2.28-1.61-2.44
			c-5.04,2.47-9.73,4.89-14.52,7.07c-7.54,3.44-15.15,6.72-22.74,10.07c-0.15,0.07-0.29,0.23-0.44,0.23
			c-11.13-0.21-14.58,10.64-22.15,15.61C391.34,310.21,386.63,315.63,380.32,321.34z"/>
		<path d="M557.54,202.28c1.26,0.65,2.77,1.44,3.2,1.66c2.36-3.22,3.74-6.39,6.14-8.16c10.96-8.07,22.21-15.76,33.38-23.55
			c0.18-0.13,0.6,0.08,1.41,0.21c-0.44,0.88-0.67,1.74-1.2,2.34c-11.69,13.42-23.21,27-35.24,40.11
			c-3.68,4.02-10.05,5.91-8.48,13.18c-5.66,5.3-11.22,10.72-17.08,15.79c-1.15,1-3.45,0.66-5.35,0.96
			c-1.84,9.19-8.25,13.33-17.11,10.73c-5.89-1.73-9.31-7.86-6.58-13.31c2.03-4.05,5.1-7.76,8.41-10.88
			c0.99-0.94,4.32,0.58,6.82,1.02c0.08-1.38,0.19-3.27,0.34-5.95c2.13,1.04,3.78,1.84,6.12,2.97c-1.67-7.44,4.11-9.26,8.42-12.56
			C546.48,212.45,551.71,207.38,557.54,202.28z"/>
		<path d="M582.62,376.1c-8.68-6.88-17.38-13.73-26.03-20.64c-4.33-3.46-10.16-5.32-12-11.49c-0.2-0.65-2.1-1.35-3.01-1.15
			c-4.54,1.01-6.5-2.01-8.84-4.93c-2.02-2.51-4.79-4.42-6.77-6.96c-1.25-1.6-1.65-3.87-2.69-6.49c-5.7,2.96-8.59-1.55-11.49-5.62
			c-2.4-3.38-4.8-6.85-6.51-10.6c-3.25-7.12,2.16-14.47,9.87-13.21c3.24,0.53,6.66,2.31,9.18,4.47c4.15,3.56,7.92,7.66,11.27,11.99
			c1.72,2.22,2.16,5.42,2.94,7.54c2.8,2.46,5.44,4.54,7.79,6.91c3.98,4,7.99,8.02,11.54,12.39c1.18,1.45,1.58,4.06,1.33,6.01
			c-0.37,2.9-0.75,4.89,3.23,4.91c1.36,0.01,3.1,1.15,4.02,2.29c5.64,6.99,11.1,14.12,16.58,21.23c0.45,0.58,0.58,1.41,0.86,2.12
			C583.48,375.28,583.05,375.69,582.62,376.1z"/>
		<path d="M535.8,360.77c9.88,10.94,19.15,21.22,28.43,31.5c-0.28,0.41-0.57,0.81-0.85,1.22c-2.11-1.07-4.39-1.89-6.3-3.24
			c-8-5.67-16.03-11.3-23.75-17.34c-4.28-3.35-8.74-6.95-11.7-11.38c-3.1-4.63-3.94-10.19-11.96-9.18
			c-2.57,0.32-6.26-4.52-8.58-7.64c-1.18-1.59-0.47-4.59-0.69-8.2c-1.9,0.99-3.67,1.91-5.92,3.08
			c-7.68-3.42-13.77-14.33-12.33-23.19c0.84-5.2,7.69-9.33,12.2-6.42c4.74,3.06,9.04,7.2,12.55,11.64
			c2.87,3.63,4.31,8.39,6.66,13.22c3.09-0.86,5.14,2.4,7.59,5.42c4.06,5.03,8.63,9.66,12.57,14.77
			C535.15,356.88,535.41,359.64,535.8,360.77z"/>
		<path d="M397.84,208.44c2.75,2.36,5.32,4.02,7.18,6.27c4.13,5,7.89,10.3,11.96,15.69c-1.36,1.65-2.66,3.22-4.25,5.15
			c4.89,0.84,9.25,1.57,13.61,2.35c7.3,1.3,13.37,15.02,9.45,21.33c-2.43,3.9-7.67,4.89-13.53,2.56c-5.35-2.14-6.26-3.76-4.89-9.46
			c0.58-2.42,0.58-3.41-2.59-3.66c-2.05-0.16-4.18-2.36-5.84-4.06c-4.47-4.57-9.09-9.09-12.85-14.21c-1.37-1.87-0.48-5.39-0.63-8.21
			c-6.94-2.3-13.77-13.03-11.65-19.45c-9.58,0.11-10.85-8.44-14.92-14.21c-3.03-4.29-6.07-8.58-9.1-12.87
			c0.29-0.36,0.58-0.71,0.87-1.07c1.32,0.87,2.96,1.48,3.9,2.65c8.65,10.88,20.86,17.44,31.42,25.98
			C398.55,205.3,400.19,206.58,397.84,208.44z"/>
		<path d="M427.46,303.43c-1.31-1.73-2.3-3.02-3.43-4.51c1.57-1.43,3.08-2.66,4.42-4.05c4.86-5.04,9.17-5.29,14.69-0.75
			c4.44,3.65,4.61,8.84,0.51,14.14c-3.22,4.17-6.38,8.37-9.74,12.78c-1.62-1.89-3.04-3.54-4.46-5.2c-0.69,0.64-1.14,0.92-1.11,1.03
			c2.01,6.15-0.66,9.95-5.52,13.7c-3.98,3.07-6.79,7.65-10.08,11.52c-3.73-2.17-7.35-0.84-6.9,2.62c0.36,2.82-0.87,3.66-2.48,5.2
			c-2.64,2.51-4.73,5.57-7.26,8.2c-7.47,7.76-15,15.45-22.59,23.09c-0.94,0.95-2.38,1.39-4.02,2.31
			c6.51-11.13,12.59-21.66,18.88-32.07c0.77-1.28,2.72-1.85,5.05-3.34c-2.29-9.92,10.88-12,12.03-20.88
			c6.56,0.08,6.73-0.19,5.58-7.76c1.78-0.94,3.75-1.67,5.31-2.92c0.93-0.74,1.77-2.34,1.68-3.47
			C417.53,306.94,420.58,303.53,427.46,303.43z"/>
		<path d="M423.65,203.06c3.64-1.67,6.22,1.1,9.04,4.19c2.55,2.8,5.68,5.12,8.71,7.44c2.7,2.07,4.92,4.12,3.16,6.65
			c2.65,1.27,6.45,1.88,7.2,3.72c1.45,3.58,2.37,8.19,1.37,11.77c-1.66,5.95-13.66,8.11-17.7,3.42
			c-4.54-5.28-8.38-11.14-12.53-16.75c2.57-9.4-8.38-8.92-10.86-14.74c-0.87-2.05-3.28-3.41-4.3-5.43c-1.02-2.02-1.21-4.46-1.7-6.73
			c-0.27-1.26-0.41-3.67-0.62-3.67c-7.16-0.03-6.98-8.11-12.29-11.09c-5.82-3.26-9.08-11.12-13.37-17.03
			c-1.1-1.52-1.88-3.27-2.12-5.66c3.02,2.25,6.19,4.34,9.03,6.81c3,2.61,5.66,5.6,8.5,8.4c3.25,3.21,5.81,7.18,10.99,8.03
			c1.64,0.27,3.03,2.43,4.41,3.85c3.23,3.33,6.53,6.61,9.51,10.15C421.46,198.03,422.18,200.25,423.65,203.06z"/>
	</g>
</g>
</svg>
