<?xml version="1.0" encoding="utf-8"?>
<!-- Generator: Adobe Illustrator 26.2.1, SVG Export Plug-In . SVG Version: 6.00 Build 0)  -->
<svg version="1.1" id="Layer_1" xmlns="http://www.w3.org/2000/svg" xmlns:xlink="http://www.w3.org/1999/xlink" x="0px" y="0px"
	 viewBox="0 0 960 560" style="enable-background:new 0 0 960 560;" xml:space="preserve">
<g>
	<g>
		<path d="M606,333c-0.59,2.22-1.36,4.41-1.75,6.67c-1.47,8.54-6.18,14.23-14.5,16.74c-7.57,2.28-15.09,5.1-22.85,6.24
			c-3.11,0.46-6.8-2.9-10.19-4.61c-0.71-0.36-1.17-1.15-1.83-1.65c-2.31-1.75-6.2-3.13-6.65-5.25c-0.97-4.59-0.2-9.55-0.05-14.35
			c0.02-0.56,0.55-1.26,1.05-1.61c2.64-1.88,5.34-3.67,8.43-5.77c3.75,1.93,8.01,4.17,12.31,6.33c0.85,0.43,2.2,1.14,2.69,0.81
			c3.68-2.5,8.44-4.53,10.46-8.07c2.29-4.02,1.54-9.3-2.13-13.4c-0.63-0.71-0.09-2.46-0.09-3.82c-9.79-4.79-20.94-5.12-31.98-5.24
			c-11.05-0.12-22.52-1.03-31.58,8.14c7.71,5,15.53,10.06,23.34,15.12c-0.37,0.61-0.74,1.23-1.11,1.84
			c-6.26-2.82-12.44-5.82-18.8-8.39c-3.66-1.48-7.59-3.01-11.42-3.08c-2.74-0.05-5.49,2.37-8.3,3.55
			c-8.21,3.44-16.57,5.66-25.6,3.62c-1.57-0.35-3.72-0.22-5,0.62c-11.95,7.79-23.78,15.77-35.62,23.73
			c-1.1,0.74-1.99,1.77-3.02,2.61c-0.17,0.14-0.59-0.04-1.17-0.11c8.72-12.62,21.07-20.99,33.83-30.15
			c-1.99-0.99-3.37-1.65-4.72-2.37c-2.73-1.47-5.38-3.12-8.2-4.39c-1.37-0.62-3.15-1-4.58-0.7c-3.07,0.65-5.96,2.25-9.04,2.7
			c-15.36,2.27-28.33,9.72-40.55,18.64c-7.53,5.5-13.82,12.59-22.73,16.35c-3.57,1.5-6.38,1.28-8.54-1.17
			c-3.56-4.04-8.91-6.98-9.19-13.36c-0.03-0.76-0.6-1.49-0.92-2.24c0-1.67,0-3.33,0-5c2.59-1.73,5.05-3.7,7.79-5.13
			c4.65-2.42,10.33-3.55,14.03-6.93c6.4-5.84,14.36-8.08,21.81-11.23c9.25-3.91,19.14-6.31,28.81-9.16
			c0.99-0.29,2.36,0.82,3.59,1.15c0.9,0.24,1.88,0.44,2.79,0.35c2.15-0.21,4.29-0.61,6.85-0.99c-0.86-2.87,1.85-7.2-2.96-9.7
			c-0.58-0.3-0.63-1.82-0.74-2.79c-1.21-11.51,0.47-22.1,5.91-32.83c5.04-9.94,14.1-9.27,22.01-12.12c0.68-0.25,1.99,1.24,3.32,2.13
			c1.92-4.81,5.33-4.38,9.64-2.99c7.52,2.42,13.81,6.54,19,12.3c4.36,4.85,3.67,24.36-0.59,29.67c-2.93,3.65-5.6,7.52-8.39,11.28
			c-0.76-0.58-1.51-1.16-2.27-1.73c-0.94-1-1.89-1.99-2.83-2.98c-0.35,0.09-0.77,0.06-0.95,0.26c-3.35,3.64-10.77,2.5-14.8-2.29
			c-4.77-5.69-1.63-16.83,5.33-19.11c2.73-0.89,4.58-0.47,5.15,3.13c-2.83,0.01-6.9-1.26-6.25,3.76c0.25,1.95,1.37,5.28,2.34,5.37
			c3.14,0.3,6.51-0.24,9.55-1.21c1.7-0.54,2.93-2.57,5.22-4.73c-0.77-2.83-0.99-7.09-3.03-10.14c-1.9-2.85-5.74-4.41-7.84-5.91
			c-3.39-0.45-6.1-0.5-8.61-1.21c-4.71-1.33-9.18,0.08-11.5,4.44c-1.46,2.76-2.38,5.77-6.52,3.83c-0.1-0.05-1.62,2.37-1.48,2.49
			c4.27,3.74,2.6,9,3.63,13.55c1.08,4.77,1.86,9.67,3.57,14.21c0.6,1.61,3.43,2.94,5.45,3.34c5.22,1.02,10.65,1.04,15.82,2.22
			c6.56,1.5,12.64,1.68,18.56-2.15c1.27-0.82,3.39-0.38,5.12-0.39c1.37-0.01,2.74,0.18,2.93-0.95c1.24-3.08,2.35-6.23,3.76-9.23
			c1.76-3.75,3.63-7.47,5.74-11.03c1.22-2.07,2.77-4.08,4.58-5.64c2.59-2.23,2.01-4.38,0.32-6.49c-5.37-6.7-8.24-13.67-3.13-21.84
			c0.21-0.34,0.03-0.93,0.03-2.21c-9.54,3.58-12.47-5.61-18.37-9.33c-3.35-2.11-6.37-4.74-9.73-7.28c-1.14,0.31-3.2,1.64-4.39,1.09
			c-8.64-3.98-16.78,0.27-25.11,1.05c-1.98,0.18-3.98,0.03-6.31,0.03c-2.89,8.51-13.49,14.89-20.58,12.45
			c-1.61,2.87-3.04,5.67-4.7,8.32c-2.06,3.29-4.73,2.99-6.96,0.37c-4.83-5.69-9.55-11.49-13.99-17.48c-0.8-1.08-0.74-4.1,0.14-4.9
			c3-2.74,6.42-5.08,9.91-7.19c2.94-1.78,6.1-3.37,9.36-4.36c1.98-0.6,4.35,0.09,7.16,0.23c2.25-6.59,7.67-9.28,15.03-9.83
			c3.86-0.29,7.66-2.13,11.35-3.61c3.28-1.31,6.07-1.51,8.61,2.57c2.36-5.08,5.49-7.04,11.03-6.36c4.45,0.54,8.71,0.52,12.81,2.83
			c2.17,1.22,5.03,1.8,7.54,1.69c5.54-0.23,13,4.34,14.96,9.64c0.3,0.8,1.01,1.72,1.76,2.03c9.71,4.05,14.56,11.77,16.57,21.68
			c1.35,6.68,2.96,13.16,5.61,19.6c2.79,6.78,1.74,14.42-1.11,21.42c-2.2,5.42-4.63,10.74-7.49,17.33c4.43-1.2,7.5-2.54,10.63-2.73
			c3.4-0.21,6.86,0.65,10.29,1.06c0.79,0.09,1.67,0.57,2.33,0.35c8.91-2.91,16.75,1.05,24.74,3.82c3.77,1.31,7.57,2.63,11.14,4.39
			c9.12,4.52,14.73,11.76,16.19,22c0.09,0.61,0.52,1.16,0.8,1.74C606,327.67,606,330.33,606,333z"/>
	</g>
</g>
</svg>
