<?xml version="1.0" encoding="utf-8"?>
<!-- Generator: Adobe Illustrator 26.2.1, SVG Export Plug-In . SVG Version: 6.00 Build 0)  -->
<svg version="1.1" id="Layer_1" xmlns="http://www.w3.org/2000/svg" xmlns:xlink="http://www.w3.org/1999/xlink" x="0px" y="0px"
	 viewBox="0 0 960 560" style="enable-background:new 0 0 960 560;" xml:space="preserve">
<g>
	<g>
		<path d="M356,360c1.52-2.93,3.14-5.82,4.53-8.81c3.31-7.15,8.37-10.91,16.58-9c0.59,0.14,1.28-0.18,2.42-0.37
			c-3.8-6.62,2.47-7.86,5.41-11.16c4.11-4.62,8.15-4.45,11.59-1.32c4.82-3.96,9.11-7.5,13.72-11.29c-5.69-4.65-0.74-8.59,2.86-13.01
			c-1.29-0.24-1.87-0.37-2.45-0.46c-2.32-0.38-5.47,3.39-6.9-1.49c-1.83-6.21-0.97-8.97,4.06-10.97c4.31-1.71,8.7-3.32,13.18-4.51
			c7.54-2.01,13.15,1.01,15.77,8.37c1.09,3.06,2.33,6.31,2.3,9.46c-0.03,2.97-1.64,5.92-2.15,9.42c4.7-2.52,9.72-1.1,14.75-3.03
			c5.33-2.04,12.41-3.53,18.73-0.59c0.41,0.19,1.02,0.57,1.25,0.42c6.18-3.95,11.25,0.24,16.11,2.75c4.37,2.25,7.33,1.25,9.03-2.42
			c2.13-4.62,5.01-6.04,9.68-4.59c0.34,0.11,0.85-0.32,1.72-0.68c-1.31-0.78-2.32-1.37-3.03-1.8c2.77-5.39,5.64-10.38,7.88-15.64
			c0.82-1.92,0.13-4.49,0.13-6.76c-0.42-0.06-0.85-0.12-1.27-0.17c1-1.24,1.99-2.49,3.38-4.22c-2.56-0.7-4.71-1.29-6.72-1.84
			c-0.23-0.5-0.5-0.81-0.48-1.09c0.81-10.32-0.18-11.25-10.52-9.77c-1.48,0.21-2.97,0.41-4.46,0.55c-4.16,0.41-8.21,0.6-8.51-6.81
			c-3.09,5.93-6.02,6.46-11.01,4.29c-4.5-1.96-10.08-1.89-15.18-1.91c-4.69-0.02-8.25-0.86-9.22-6.71
			c-7.57,7.75-13.51,1.78-19.53-1.4c-5.11-2.71-9.81-6.19-14.87-9.01c-2.67-1.49-3.92-2.86-2.1-5.83c0.53-0.87,0.37-2.16,0.61-3.93
			c-1.53,0.49-2.85,0.51-3.45,1.18c-3.69,4.06-6.25,1.96-8.69-1.37c-2.89-3.95-6.7-7.53-8.48-11.93c-3.09-7.63,1.8-13.64,6.7-18.58
			c4.03-4.05,9.27-6.38,15.45-3.32c1.98,0.98,4.55,0.77,6.84,1.15c5.34,0.88,9.12,4.21,11.57,8.64c1.01,1.82,0.17,4.66,0.17,7.58
			c3.97-4.06,6.89-0.39,10.2,1.67c3.2,1.99,6.5,3.83,9.87,5.8c-1.46,2.94-2.66,5.35-3.88,7.82c3.48,1.69,5.49,0.9,7.26-1.83
			c0.73-1.12,2.67-2.42,3.7-2.17c1.67,0.4,4.01,1.79,4.35,3.17c0.96,3.94,3.26,5.12,6.87,4.96c0.49-0.02,0.99,0.12,1.49,0.18
			c7.28,0.87,7.28,0.87,11.2,7.69c2.62-7.96,8.47-6.14,14.37-4.16c0.02-0.63,0.05-1.25,0.07-1.88c-3.03-1.67-6.05-3.36-9.08-5.02
			c-3.04-1.66-6.09-3.29-9.51-5.12c1.55-2.67,2.93-5.04,5.36-9.23c-12.63,7.78-16.83-1.07-21.31-8.3c-0.94-1.51,0.77-4.67,1.26-7.07
			c0.42,0.05,0.84,0.1,1.26,0.15c-0.11-0.27-0.14-0.67-0.34-0.8c-2.08-1.26-5.49-2.09-6-3.8c-1.01-3.37-1.04-7.33-0.38-10.84
			c2.04-10.8,8.4-18.44,19.34-23.1c-6.78,11.42-7.94,22.2,3.09,31.29c-1.55,2.35-2.77,4.2-3.99,6.06c0.27,0.31,0.55,0.63,0.82,0.94
			c1.84-1.11,3.68-2.22,5.81-3.49c4.67,4.03,9.66,7.89,14.03,12.37c1.45,1.49,1.29,4.55,1.71,6.28c4.16,1.04,8.95,1.79,13.4,3.48
			c5.08,1.93,7.65,6.39,9.24,11.83c2.9-0.82,5.84-1.91,8.88-2.45c2.6-0.46,5.32-0.4,7.99-0.39c2.87,0.01,5.7,0.4,4.09-4.16
			c-0.36-1.03,0.24-3.25,1.07-3.72c9.33-5.31,14.49-14.53,21.19-22.28c1.13-1.3,1.7-3.09,2.52-4.66c0.79,0.61,1.59,1.23,2.38,1.84
			c-1.42,3.96-2.13,8.39-4.39,11.8c-6.31,9.53-13.16,18.71-20,27.87c-2.9,3.88-5.84,8.36-11.22,5.45
			c-5.48,9.93,2.47,17.53,3.42,26.27c0.52,4.79,0.32,7.82-5.11,8.41c-0.3,0.03-0.61,0.28-0.83,0.52c-0.21,0.23-0.29,0.56-0.48,0.94
			c1.67,3.39,9.26,1.54,7.57,7.3c-1.24,4.23,0.13,10.81-7.73,11.44c9.15,9,1.83,16.68-1.72,24.21c-2.09,4.45-2.77,7.1,2.3,9.24
			c1.66,0.7,2.94,2.37,4.61,2.93c4.64,1.56,7.56,3.91,5.93,9.37c-0.13,0.44,0.52,1.11,0.94,1.93c2.98-1.84,5.78-3.58,8.59-5.31
			c0.37,0.39,0.75,0.78,1.12,1.18c-0.21,1.23-0.86,2.61-0.51,3.65c0.46,1.37,1.51,3.29,2.65,3.56c8.3,1.97,13.38,8.26,18.98,13.81
			c0.81,0.8,0.44,2.79,0.61,4.23c11.31,1.05,16.52,10.33,23.36,17.35c2.31,2.37,4.17,5.16,6.24,7.76c0,0.33,0,0.67,0,1
			c-1.46-0.26-3.09-0.18-4.36-0.82c-11.68-5.88-23.15-12.19-35-17.68c-3.96-1.84-7.14-2.82-6.72-8.12c0.23-2.96-1.96-3.98-4.76-2.47
			c-0.98,0.52-1.93,1.09-3.12,1.77c-3.66-5.78-9.63-6.29-15.27-7.53c-4.82-1.06-9.61-2.18-10.82-8.42c-3.14,2.45-4.89,8.94-10.24,3
			c-2.8,2.28-5.21,4.57-7.93,6.42c-6.86,4.68-13.34,12.04-22.56,4.16c-0.16-0.14-0.6,0.03,0.11-0.03c-1.72,2.08-2.68,4.27-4.29,5
			c-9.83,4.41-19.14,1.15-28.19-2.76c-1.75-0.76-2.82-3.14-4.12-4.84c-0.85-1.11-1.54-2.34-2.29-3.5c-5.5,3.42-5.92,3.39-11.47-0.31
			c-9.03-6.03-9.19-6.22-17.29,0.61c-4.48,3.78-8.56,6.95-14.35,1.61c0.51,2.04,1.32,3.34,1.55,4.74c0.18,1.1,0.05,2.83-0.66,3.41
			c-4.48,3.66-9.12,7.11-13.76,10.56c-7.81,5.81-14.15,5.68-22.57,0.9c-6.08-3.45-9.23-8.73-11.89-14.67
			C356,363.33,356,361.67,356,360z M461.64,328.05c-0.63,0.67-11.99,12.73-12.3,13.05c5.22,0.41,10.18,0.74,15.12,1.21
			c4.88,0.46,10.49-0.43,12.3,6.2c0.03,0.1,0.58,0.05,0.02,0.01c3.09-4.69,5.93-8.99,9.06-13.75c-3.18-1.48-6.11-6.11-10.5-0.66
			c-0.58,0.72-2.08,0.81-3.18,0.99C466.73,335.99,462.93,333.97,461.64,328.05z"/>
	</g>
</g>
</svg>
