<?xml version="1.0" encoding="utf-8"?>
<!-- Generator: Adobe Illustrator 26.2.1, SVG Export Plug-In . SVG Version: 6.00 Build 0)  -->
<svg version="1.1" id="Layer_1" xmlns="http://www.w3.org/2000/svg" xmlns:xlink="http://www.w3.org/1999/xlink" x="0px" y="0px"
	 viewBox="0 0 960 560" style="enable-background:new 0 0 960 560;" xml:space="preserve">
<g>
	<g>
		<path d="M356,272c5.43-7.26,13.09-9.86,21.73-10.12c5.15-0.16,10.34-0.16,15.47,0.22c6.33,0.48,8.08,2.46,9.99,8.61
			c0.37,1.2,2.89,2.6,4.25,2.45c3.26-0.35,6.4-1.67,9.63-2.43c5.46-1.29,9.53,0.5,13.81,4.37c2.79,2.52,7.95,3.87,11.78,3.44
			c6.47-0.73,12.87-2.95,19.06-5.18c7.54-2.72,12.8-8.62,18.19-14.3c10.09-10.63,21.29-19.69,36-23.16
			c7.23-1.71,14.45-3.77,21.79-4.54c2.5-0.26,5.36,2.93,9.06,5.15c2.54-2.08,6.51-2.7,11.02,0.19c1.91,1.22,4.84,0.94,7.32,1.16
			c13.94,1.26,25.95,6.42,35.44,17.02c1.32,1.48,3.61,2.1,5.45,3.12c0,0.67,0,1.33,0,2c-0.91,0.35-1.95,1.19-2.72,0.99
			c-17.47-4.59-35.21-5.48-53.41-4.16c-0.43-1.24-0.9-2.58-0.98-2.8c-7.1-1.18-13.53-2.25-19.96-3.33
			c-0.48-0.08-1.01-0.35-1.44-0.25c-11.33,2.75-21.21,8.06-29.25,16.83c7.47-6.41,16.53-7.03,25.53-6.83
			c9.2,0.21,17.95,2.12,22.43,14.35c1.98-2.79,3.17-4.48,4.73-6.68c1,0.66,2.33,1.27,3.31,2.23c5.27,5.24,11.7,6.33,18.89,6.69
			c9.6,0.49,19.14,2.44,27.44,7.79c2.1,1.35,3.43,3.91,5.11,5.91c-0.34,0.46-0.68,0.93-1.01,1.39c-7.53-0.83-15.05-2.05-22.6-2.38
			c-7.24-0.32-14.55-0.02-21.77,0.64c-3.06,0.28-5.3,0.77-7.21-2.34c-1.58-2.57-3.95-2.57-6.97-1.5c-2.72,0.96-6.31,1.35-8.94,0.4
			c-14.45-5.24-27.98-3.34-40.49,4.99c-12.19,8.12-23.99,16.82-38.07,21.57c-0.47,0.16-0.92,0.39-1.36,0.63
			c-8.91,4.74-19.25,5.33-28.22,10.47c-6.29,3.6-7.93,1.99-11.91-4.45c-0.32-0.52-0.76-0.96-1.51-1.89
			c-4.61,9.81-14.75,7.26-22.16,10.67c-3.79,1.75-8.41,1.66-12.62,2.57c-6.27,1.35-10.8,0-13.25-4.15
			c-2.76-4.66-2.08-13.41,1.41-16.98c0.65-0.67,1.63-1.3,2.52-1.4c5.08-0.59,10.19-1.42,15.27-1.31c2.49,0.06,4.94,1.98,7.88,3.26
			c0.34-0.52,1.17-1.33,1.47-2.31c1.04-3.41,2.07-5.07,6.3-2.92c5.35,2.72,22.4-2.02,27.21-7.32c-2.27,0.12-3.83,0.56-5.2,0.21
			c-3.41-0.87-6.72-2.13-10.09-3.16c-4.57-1.4-9.09-3.54-13.75-3.87c-3.78-0.27-5.32-1.65-6.47-4.74c-2.46-6.63-2.79-6.5-8.69-2.61
			c-1.88,1.24-5.64,2.03-7.14,1c-3.96-2.74-7.79-2.31-11.92-1.52c-4.55,0.86-8.67,0.74-10.38-4.69C356,276.67,356,274.33,356,272z"
			/>
	</g>
</g>
</svg>
