<?xml version="1.0" encoding="utf-8"?>
<!-- Generator: Adobe Illustrator 26.2.1, SVG Export Plug-In . SVG Version: 6.00 Build 0)  -->
<svg version="1.1" id="Layer_1" xmlns="http://www.w3.org/2000/svg" xmlns:xlink="http://www.w3.org/1999/xlink" x="0px" y="0px"
	 viewBox="0 0 960 560" style="enable-background:new 0 0 960 560;" xml:space="preserve">
<g>
	<g>
		<path d="M381,406c-0.99-0.72-1.89-1.79-2.99-2.1c-5.38-1.49-10.83-2.76-16.25-4.12c-4.27-1.07-5.75-4.05-4.08-9.23
			c1.11-3.45,2.83-6.7,4.15-10.09c0.4-1.02,0.45-2.2,0.51-3.31c0.05-0.97-0.44-2.07-0.13-2.91c3.18-8.54,6.37-17.07,9.76-25.52
			c1.79-4.46,4.07-8.71,5.98-13.12c1.23-2.82,1.73-5.95,5.49-6.98c0.79-0.22,1.73-3.66,1.31-4c-3.07-2.45-0.53-4.29,0.23-6.43
			c1.7-4.78,3.11-9.66,4.82-14.43c1.49-4.15,1.86-8.59,6.48-11.45c6.55-4.06,5.84-11.26,6.34-18.69c-3.86,0.33-7.13,0.44-10.34,0.91
			c-7.34,1.08-10.41-1.04-11.16-8.36c-0.59-5.77-0.83-11.57-1.24-17.36c-0.24-3.39,1.3-4.89,4.72-4.79c1.62,0.05,3.33-0.8,4.85-0.5
			c3.08,0.61,6.05,1.74,9.42,2.76c1.2-1.95,1.2-1.95,13.59-3.59c3.19-3.32-0.64-10.03,6.71-11.59c-3.43-6.83-0.77-13.21,0.86-19.61
			c0.71-2.79,2.44-5.3,3.38-8.05c3.99-11.61,7.86-23.26,11.8-34.88c0.25-0.75,0.76-1.42,1.15-2.12c0.49,0.04,0.98,0.09,1.46,0.13
			c-0.5,6.53-1.18,13.06-1.45,19.6c-0.29,6.92,0.69,14.02-0.54,20.74c-1.17,6.41-1.94,12.66-2.27,19.18
			c-0.33,6.48-3.28,12.82-4.55,19.67c3.63-2.73,6.44-3.51,9.69,0.1c0.81,0.9,4.22,0.56,5.62-0.4c3.01-2.06,5.64-2.57,9.27-1.61
			c3.17,0.84,6.75,0.18,11,0.18c1.43,2.38,3.29,4.94,7.4,0.61c1.63-1.72,6.02-0.45,8.61-1.69c5.77-2.74,11.19-0.87,16.78,0.06
			c1.75,0.29,3.59,0.05,6.79,0.05c-1.63-3.23-2.49-5.81-4.06-7.85c-2.95-3.82-3.73-7.58-1.82-12.14c0.91-2.16,0.83-4.74,1.2-7.13
			c0.15-0.97-0.03-2.37,0.54-2.84c5.01-4.08,2.2-9.22,2.08-13.99c-0.3-12.26-0.65-24.52-0.86-36.78c-0.04-2.12,0.49-4.24,0.75-6.36
			c0.33,0,0.67,0,1,0c0.56,1.01,1.4,1.97,1.64,3.05c1.25,5.83,2.21,11.72,3.55,17.52c1.15,4.99,2.32,10.01,4.1,14.8
			c3.17,8.54,6.73,16.81,5.14,26.38c-0.6,3.66,0.88,7.61,0.9,11.43c0.01,2.87-1.19,5.74-1.13,8.6c0.08,3.49,1.63,6.02,5.95,5.4
			c2.12-0.31,4.36-0.29,6.48,0c3.24,0.45,6.44,1.27,9.45,1.89c4.52-0.64,9.13-1.77,13.75-1.83c7.29-0.1,14.87,1.92,21.8,0.48
			c9.04-1.88,16.66,2.14,24.96,3.04c0.97,0.11,2.08,0.3,2.82,0.86c0.96,0.72,1.61,1.84,2.4,2.79c-1.08,0.54-2.11,1.38-3.26,1.59
			c-7.81,1.43-16.4,1.17-23.28,4.49c-7.62,3.68-15.74,2.83-23.48,5.62c-9.95,3.59-21.5,2.73-32.35,3.8
			c-0.48,0.05-0.96,0.18-1.79,0.35c1.28,5.6,2.69,11.11,3.76,16.68c1.22,6.39,1.87,12.9,3.24,19.26c2.12,9.88,4.64,19.67,7.02,29.49
			c0.15,0.64,0.87,1.35,0.72,1.82c-2.88,8.49,7.2,14.28,4.76,22.75c-0.22,0.76,1.42,2.65,2.56,3.12c4.51,1.83,4.73,5.1,4.13,9.24
			c-0.31,2.1,0.72,4.37,0.86,6.58c0.44,6.91,0.75,13.83,1.11,20.53c-3.08,1.41-6.33,2.27-8.78,4.16
			c-6.78,5.21-14.76,2.32-22.08,3.65c-0.69,0.12-2.38-2.39-2.75-3.89c-2.21-9.01-4.2-18.08-6.19-27.14
			c-0.27-1.21-0.57-2.7-0.12-3.75c3.32-7.8,1.14-15.71,0.83-23.61c-0.15-3.71,0.9-7.5,0.56-11.17c-0.26-2.74-1.42-5.68-3.01-7.95
			c-1.69-2.41-2.85-4.15-1.07-7.09c0.8-1.33,0.45-3.47,0.32-5.22c-0.36-5.13-1.1-10.25-1.21-15.38c-0.04-1.83,1.35-3.67,1.99-5.54
			c0.39-1.14,1.08-2.46,0.81-3.49c-1.91-7.28-4.03-14.5-6.16-21.99c-7.35,0.2-15.76,6.74-23.92,0.01
			c-6.77,3.44-13.41,5.51-20.86,2.81c-1.51-0.55-3.6,0.11-5.31,0.6c-4.65,1.33-9.14,2.04-13.19-2.23
			c-3.88,9.81-12.38,3.07-18.81,6.13c1.48,5.52-0.73,10.08-5.41,13.72c-0.73,0.57-1.06,2.11-1,3.17
			c0.63,10.72-3.72,20.12-7.29,29.85c-3.42,9.31-6.02,18.96-8.46,28.59c-0.85,3.35-0.14,7.1-0.14,11.55
			c-1.5,1.37-3.98,3.22-5.84,5.57c-0.62,0.79,0.17,2.9,0.64,4.3c0.5,1.48,2.25,3.03,1.97,4.21c-2.46,10.61-3.76,21.71-11.31,30.44
			C382.33,406,381.67,406,381,406z"/>
	</g>
</g>
</svg>
