<?xml version="1.0" encoding="utf-8"?>
<!-- Generator: Adobe Illustrator 26.2.1, SVG Export Plug-In . SVG Version: 6.00 Build 0)  -->
<svg version="1.1" id="Layer_1" xmlns="http://www.w3.org/2000/svg" xmlns:xlink="http://www.w3.org/1999/xlink" x="0px" y="0px"
	 viewBox="0 0 960 560" style="enable-background:new 0 0 960 560;" xml:space="preserve">
<g>
	<g>
		<path d="M488,156c1.69,0.56,3.37,1.18,5.09,1.66c6.94,1.97,10.23,6.31,10.11,13.41c-0.02,1.33-0.29,2.74,0.06,3.97
			c1.32,4.68-0.78,7.24-4.96,8.77c-1.14,0.42-2.17,1.13-3.12,2.82c2.13,0.35,4.25,0.69,6.36,1.04c0.88,8.76-2.95,14.44-11.67,16.77
			c4.09,3.11,2.95,6.55,1.58,10.52c-1.2,3.5-1.12,7.45-1.57,11.21c-0.06,0.48-0.03,1.28,0.24,1.43c4.95,2.77,9.73,6.04,15,7.97
			c3.04,1.11,16.24,2.99,19.96,4.88c0.46-2.48,0.87-4.75,1.24-6.71c3.68-1.35,7.14-2.9,10.76-3.82c1.33-0.34,3.39,0.41,4.5,1.37
			c2.9,2.52,4.94,2.8,5.97-1.42c0.86-3.52,2.89-4.27,6.26-3.52c6.7,1.48,13.82,1.09,19.51,6.27c4.08,3.72,7,11.67,5.15,16.89
			c-3.83,10.79-14.28,15.88-24.65,11.3c-2.45-1.08-3.77-4.76-5.66-7.32c-0.84,5.17-5.31,6.58-10.47,6.32
			c-2.14-0.11-4.47-0.93-6.27-2.11c-2.36-1.54-4.29-2.77-5.6-0.65c-5.58-1.74-10.65-3.32-16.75-5.22
			c-0.78,6.71-1.62,12.36-2.05,18.05c-0.33,4.4-1.56,6.99-6.74,7.28c-2.93,0.16-5.73,2.49-8.59,3.84c0.09,0.69,0.18,1.38,0.28,2.07
			c2.22,0.29,4.43,0.8,6.65,0.84c5.19,0.09,9.21,5.8,6.08,9.83c-3.39,4.37-3.61,9.22-4.2,14.01c-0.53,4.31-2.15,6.25-6.52,6.14
			c-1.7-0.04-3.41,0.71-6.42,1.39c2.04,1.79,3.05,3.44,4.32,3.66c4.56,0.8,4.77,4.17,4.61,7.47c-0.32,6.78-0.78,13.57-1.66,20.29
			c-0.3,2.24,0.41,3.66,0.96,5.59c0.98,3.43,0.43,7.43-0.03,11.11c-1.35,10.66-2.92,21.3-4.52,31.93c-0.54,3.59-1.45,7.12-2.2,10.68
			c-1,0-2,0-3,0c-3.4-10.67-6.36-21.5-10.36-31.94c-2.31-6.03-2.55-7.74,4.19-14.37c-6.12,0.15-7.05-4.13-7.61-8.39
			c-1.11-8.54-1.95-17.12-2.91-25.68c-0.2-1.81-0.45-3.61-0.73-5.41c-0.79-5.05-1.32-9.94,3.7-13.51c0.86-0.61,1.44-3.42,1.14-3.6
			c-5-3.13-2.91-8.85-4.89-13.04c-1.03-2.19-1.76-4.89-1.51-7.23c0.37-3.33,1.77-6.54,2.76-9.9c-7.19-6.66-8.25-16.07-6.8-27.52
			c-3.84,0.88-7.09,1.45-10.23,2.38c-3.15,0.94-6.2,2.25-9.29,3.39c-3.59,1.33-6.55,0.87-8.04-2.85c-8.87,4.45-17.73,5.41-26.58,1.1
			c-2.65-1.29-4.45-1.05-6.81,0.14c-7.13,3.61-9.43,3.11-15.09-2.03c-4.87-4.43-5.44-8.93-2.43-14.89
			c3.82-7.54,11.59-15.02,22.37-13.62c5.48,0.71,10.9,2.15,16.24,3.64c1.27,0.36,2.47,2.06,3.11,3.42c2,4.21,3.84,4.52,7.2,1.56
			c1.4-1.23,3.81-2.2,5.58-1.96c3.89,0.52,7.77,1.61,11.45,3.02c2.08,0.8,3.75,2.68,5.57,4.05c2.95-0.21,6.68,0.04,10.12-0.85
			c3.59-0.92,6.91-2.93,10.43-4.51c-2.63-4.67-5.45-9.49-8.06-14.42c-2.68-5.06-3.44-10.04,2.56-14.44
			c-8.42-2.46-7.46-10.39-10.59-15.66c-0.47-0.79,3.51-4.69,5.9-6.55c1.49-1.16,3.86-1.2,6.06-1.81c-0.59-0.8-0.71-1.14-0.94-1.25
			c-2.52-1.25-5.06-2.46-7.59-3.68c1.44-2.68,2.34-5.94,4.46-7.89c2.69-2.46,6.36-3.85,9.61-5.71C481.33,156,484.67,156,488,156z"/>
	</g>
</g>
</svg>
