<?xml version="1.0" encoding="utf-8"?>
<!-- Generator: Adobe Illustrator 26.2.1, SVG Export Plug-In . SVG Version: 6.00 Build 0)  -->
<svg version="1.1" id="Layer_1" xmlns="http://www.w3.org/2000/svg" xmlns:xlink="http://www.w3.org/1999/xlink" x="0px" y="0px"
	 viewBox="0 0 960 560" style="enable-background:new 0 0 960 560;" xml:space="preserve">
<g>
	<g>
		<path d="M606,339c-0.86-0.6-2.24-1.02-2.52-1.82c-4.69-13.76-12.72-24.96-24.03-34.21c-5.39-4.41-9.74-9.32-17.16-11.2
			c-6.27-1.59-11.81-6.1-17.87-9.43c-2.92,2.24-4.17,4.13-1.53,8.08c1.58,2.37,1.12,6.39,0.88,9.61c-0.23,3.01,0.83,4.59,3.39,5.84
			c14.4,7.03,25.73,18.07,37.2,28.87c1.74,1.64,2.8,4.02,4.17,6.06c-0.4,0.33-0.79,0.67-1.19,1c-6.67-5.61-12.85-11.98-20.14-16.6
			c-7.41-4.7-15.9-7.69-25.23-12.03c0,4.87,0.19,8.11-0.06,11.32c-0.19,2.51-0.75,5.03-1.47,7.45c-0.72,2.4-0.11,3.58,2.39,3.22
			c2.29-0.34,4.51-1.14,6.79-1.55c4.29-0.78,8.77-1.68,11.99,2.36c3.84,4.81,1.17,9.68-0.94,14.02c-2.1,4.3-6.16,6.44-11.17,6.07
			c-1.96-0.15-4.09-0.03-5.82-0.77c-4.65-1.98-5.89,1.08-6.6,4.36c-1.22,5.69-2.02,11.48-3.06,17.21c-0.19,1.06-0.74,2.05-1.12,3.07
			c-0.46-0.01-0.92-0.03-1.38-0.04c-0.33-7.12-0.66-14.25-1.01-21.66c-9.84,0.56-19.16,1.09-29.83,1.69
			c-6.22,5.48-1.67,14.8-4.7,23.46c-1.5-7.32-2.8-13.7-4.18-20.44c-5.79,0-11.38,0-17.66,0c0,9.49,0,18.59,0,27.68
			c-0.46,0.05-0.93,0.1-1.39,0.14c-1.29-6.4-3.03-12.76-3.75-19.23c-0.88-7.99-8.45-13.11-16.26-10.88
			c-2.87,0.82-6.2-0.09-9.32-0.03c-11.46,0.21-22.91,0.82-34.36,0.66c-9.77-0.14-19.53-1.14-30.35-1.83
			c8.81-5.74,18.44-5.47,27.38-7.39c9.09-1.95,18.25-3.69,27.45-4.97c9.32-1.3,18.74-1.92,29.38-2.96
			c-5.19-12.44-10.16-24.33-15.27-36.58c-6.09,3.58-11.3,6.64-16.04,9.43c-3.52,3.62-6.71,7.34-10.43,10.42
			c-1.03,0.86-3.97,0.43-5.42-0.44c-2.96-1.75-5.93-3.86-8.06-6.5c-1.11-1.38-1.31-4.69-0.4-6.25c2.05-3.53,4.67-6.96,7.76-9.6
			c2.41-2.05,5.88-2.85,8.96-3.68c3.33-2.73,6.65-5.45,10.06-8.25c-10.8-2.85-22.37-10.73-22.52-14.21
			c-3.14-1.14-5.87-2.01-8.51-3.11c-6.36-2.67-12.57-5.71-19.03-8.1c-4.6-1.71-5.55-3.52-3.09-7.68c4.3-7.29,8.39-14.71,12.74-21.96
			c1.36-2.26,3.28-4.19,4.02-5.13c1.36-3.74,2.22-6.28,3.22-8.77c0.36-0.91,0.99-1.74,1.57-2.54c1.44-2,3.43-5.86,4.31-5.63
			c4.44,1.17,10.25-0.78,13.05,4.29c0.91,1.65,0.85,4.86-0.2,6.38c-5.21,7.58-10.93,14.82-16.37,22.24
			c-0.74,1.01-0.97,2.41-1.56,3.97c3.16,2.09,6.26,4.01,9.22,6.12c4.02,2.85,7.94,5.85,11.91,8.78c0.67,0.49,1.27,1.38,1.98,1.47
			c7.91,1.02,11.83,7.6,17.1,12.23c6.58,5.79,6.5,5.88,17.1,0.62c-5.27-4.41-9.78-8.58-14.71-12.18c-3.54-2.59-7.69-4.38-6.58-8.67
			c-3.38-1.64-6.08-2.75-8.57-4.21c-2.28-1.33-4.15-3.74-6.56-4.44c-5.17-1.51-5.28-4.59-3.11-8.25
			c5.64-9.54,11.59-18.9,17.32-28.39c1.68-2.79,3.05-5.77,5.11-9.72c-5.35,0.34-9.73,0.83-14.12,0.83c-2.66,0-5.33-0.74-7.92-1.81
			c-6.88,3.23-14.41,2.07-18.13-3.48c-2.06-3.07-2.95-6.48-0.42-9.21c2.57-2.78,5.95-6.38,9.22-6.65c8.6-0.72,17.37-0.22,26,0.56
			c4.95,0.45,9.73,2.57,14.66,3.57c1.39,0.28,3.14-0.48,4.55-1.14c8.04-3.78,15.92-2.98,23.78,0.55c1.17,0.53,2.48,1.21,3.69,1.14
			c8.96-0.52,17.93-1.1,26.87-1.9c4.39-0.39,8.5-0.8,12,2.84c2,2.08,6.74-0.08,7.71-3.27c2.59-8.47,13.43-11.8,20.06-6.07
			c0.73,0.63,0.91,1.96,1.22,3c1.15,3.86,3.01,6.46,7.64,6.88c12.01,1.09,23.99,2.62,35.98,3.98c0.05,0.61,0.09,1.23,0.14,1.84
			c-1.58,0.42-3.14,1.06-4.75,1.24c-9.86,1.06-19.73,2-29.6,3.01c-1.65,0.17-3.38,0.22-4.91,0.77c-1.09,0.39-2.28,1.33-2.79,2.35
			c-1.44,2.83-2.56,5.82-4.23,9.77c3.89,4.8,0.68,11.63,0.29,18.2c-0.59,9.87-1.74,19.71-2.65,29.6c3.79,2.72,12.39,0.43,10.29,7.99
			c8.71,6.98,17.03,13.1,24.71,19.95c10.08,8.99,16.69,20.57,22.01,32.83c1.47,3.39,1.89,7.24,2.79,10.88
			C606,335.67,606,337.33,606,339z M452.06,206.01c-0.1,0.37-0.19,0.73-0.29,1.1c2.31,1.82,4.81,3.45,6.88,5.5
			c3.39,3.36,2.93,5.49-0.7,8.54c-2.76,2.32-5.72,4.77-7.5,7.81c-2.57,4.37-4.15,9.31-6.2,14.14c2.73,2.28,5.4,4.79,8.4,6.83
			c0.93,0.63,3.24,0.49,4.07-0.24c3.83-3.4,8.2-4.04,13.04-3.6c4.51,0.41,9.06,1.99,13.51-0.89c1.09-0.71,3.16,0.05,4.78,0.21
			c2.26,0.23,4.51,0.65,6.77,0.77c4.97,0.27,10,0.07,14.91,0.72c2.64,0.35,5.02,2.34,7.66,3.06c3.09,0.85,6.52,1.95,9.44,1.3
			c1.48-0.33,2.7-4.2,3.08-6.62c1.11-7.06,1.73-14.19,2.55-21.29c0.09-1.31-1.25-2.87-1.46-4.57c-0.49-3.93-0.42-7.93-0.57-11.59
			c-6.98-0.56-12.88-0.81-18.71-1.58c-3.5-0.46-6.89-1.77-10.36-2.59c-0.87-0.21-1.86-0.14-2.75,0.04
			c-6.16,1.24-12.28,2.64-18.46,3.75c-1.15,0.21-2.78-0.3-3.7-1.07c-1.94-1.63-3.52-1.6-5.74-0.48c-1.52,0.77-3.55,0.68-5.36,0.71
			C460.92,206.07,456.49,206.01,452.06,206.01z M484.48,298.26c1.8,7.6,3.53,14.97,5.3,22.34c0.11,0.46,0.3,1.06,0.65,1.29
			c3.82,2.49,2.54,5.93,2.55,9.63c0.03,9.52,1.11,13.66,11.22,10.76c7.24-2.08,14.66-3.54,21.89-5.68c1.27-0.38,2.82-2.73,2.79-4.14
			c-0.2-8.11-0.7-16.22-1.51-24.29c-0.11-1.1-2.46-2.68-3.91-2.84c-9.24-1.01-17.98-3.18-24.73-8.23
			C493.55,297.53,488.98,297.9,484.48,298.26z M529.4,275.09c-5.64-2.47-10.77-5.33-16.27-6.89c-3.13-0.89-5.87-0.96-5.57-5.19
			c-1.86,0.96-3.16,2.1-4.6,2.31c-9.06,1.3-18.57-2.07-27.36,2.59c-0.67,0.35-1.86-0.39-2.83-0.47c-1.17-0.09-2.35-0.02-3.53-0.02
			c-0.35,0.5-0.7,1-1.05,1.49c3.4,4.26,5.98,10.31,10.41,12.35c6.57,3.03,14.49,3.05,21.76,4.66c3.93,0.87,7.72,2.39,11.45,3.58
			c6.81-0.75,11.61,5.21,17.58,5.99C529.4,288.79,529.4,282.03,529.4,275.09z M473.03,347.48c1.55-0.27,2.67-0.41,3.76-0.68
			c10.9-2.7,9.53-2.8,6.8-12.69c-0.37-1.36-1.61-2.48-2.45-3.71c-3.8-5.56-6.35-11.5-6.44-18.42c-0.02-1.29-1.59-2.63-2.59-3.82
			c-1.33-1.59-3.49-2.84-4.05-4.63c-0.83-2.65-1.98-3.19-4.3-2.31c-1.34,0.51-2.68,1.06-4.25,1.68c0.57,1.41,1.04,2.82,1.7,4.13
			c3.6,7.16,8.4,13.92,6.85,22.68c-0.18,0.99,0.59,2.18,1.01,3.24c0.98,2.5,2.22,4.92,2.95,7.49
			C472.63,342.61,472.69,344.95,473.03,347.48z"/>
		<path d="M356,234c4.23-11.26,8.46-22.52,12.69-33.77c0.37-0.06,0.74-0.12,1.11-0.18c0.6,2.73,1.71,5.46,1.7,8.18
			c-0.06,11.41-0.47,22.82-0.74,34.22c-0.02,0.95-0.28,2.5,0.17,2.77c4.22,2.51,2.98,6.67,3.3,10.31c0.52,6.1,1.82,11.81,6.25,16.45
			c0.98,1.02,1.73,2.54,1.97,3.93c1.51,8.77,2.85,17.58,3.51,26.28c-6.73-10.76-13.46-21.51-21.22-33.91
			c-4.76-2.97-9.03-13.55-7.67-21.53c0.31-1.8-0.68-3.83-1.07-5.75C356,238.67,356,236.33,356,234z"/>
		<path d="M367.71,285.42c1.55,3.55,2.83,7.26,4.74,10.61c2.26,4,4.72,7.99,7.75,11.41c1.97,2.23,4.35,3.5,5.64,6.87
			c1.09,2.86,6.08,3.99,8.69,6.55c5.29,5.19,8.97,11.45,9.57,19.04c0.39,4.93-2.52,8.04-6.95,9c-4.37,0.95-8.13-0.58-10.37-4.99
			c-1.76-3.45-2.6-6.74-6.82-9.55c-4.39-2.93-8.75-9.66-6.68-17.27c-7.39-2.19-5.71-9.09-6.66-14.18
			c-1.06-5.66-0.24-11.67-0.24-17.53C366.81,285.4,367.26,285.41,367.71,285.42z"/>
		<path d="M380.6,197.89c-0.42-3.1-0.77-6.21-1.28-9.29c-0.74-4.46-1.56-8.91-2.45-13.35c-0.23-1.16-0.89-2.23-1.88-4.65
			c10.2,5.37,17.91,11.25,20.11,21.58c1.07,5.02,1,10.55,0.18,15.64c-1.08,6.72-2.84,13.49-5.48,19.73
			c-1.05,2.49-5.22,5.02-8.01,5.06c-3.62,0.05-5.98-3.58-5.63-7.51c0.68-7.74,1.64-15.46,2.79-23.15c0.2-1.36,1.9-2.5,2.91-3.74
			C381.44,198.12,381.02,198.01,380.6,197.89z"/>
	</g>
</g>
</svg>
