<?xml version="1.0" encoding="utf-8"?>
<!-- Generator: Adobe Illustrator 26.2.1, SVG Export Plug-In . SVG Version: 6.00 Build 0)  -->
<svg version="1.1" id="Layer_1" xmlns="http://www.w3.org/2000/svg" xmlns:xlink="http://www.w3.org/1999/xlink" x="0px" y="0px"
	 viewBox="0 0 960 560" style="enable-background:new 0 0 960 560;" xml:space="preserve">
<g>
	<g>
		<path d="M356,389c2.64-4.85,4.92-9.94,8.01-14.48c4.36-6.41,8.91-12.8,14.23-18.4c2.45-2.58,6.91-3.27,10.86-4.99
			c-2.93-5.15,0.66-8.29,4.18-11.1c4.14-3.29,8.61-6.17,12.99-9.16c4.56-3.11,9.32-2.77,14.58,0.41c0.37-2.22,1.21-3.87,0.73-4.91
			c-2.38-5.14,0.65-7.67,4.36-10.01c1.55-0.97,3.09-1.96,4.67-2.87c4.23-2.45,5.24-5.8,2.92-9.81c-1.81-3.13-0.63-5.18,2.93-5.95
			c1.9-0.41,3.63-1.66,5.43-2.53c-1.08-1.71-1.77-4.25-3.31-4.96c-3.91-1.81-3.36-4.3-2.75-7.66c1.28-7.04,2.27-14.07,6.91-19.93
			c1.81-2.29,3.6-3.69,6.91-3.88c3.49-0.19,6.89-2,10.18-3.06c0.04-0.75,0.21-1.21,0.06-1.38c-4.84-5.36-5.4-7.49-0.74-13.53
			c4.4-5.7,9.84-10.59,14.85-15.82c0.8-0.83,2.02-1.4,2.51-2.37c1.77-3.54,4.57-5.39,8.37-6.26c1.43-0.33,2.64-1.61,4.91-3.08
			c-9.49-4.17-4.94-10.02-3.65-15.91c1.74-7.9,2.44-16.03,3.58-24.07c0.18-1.26,0.32-2.53,0.65-5.23c1.93,2.34,3.36,3.6,4.2,5.17
			c3.51,6.59,6.56,13.44,10.31,19.88c4.04,6.95,3.87,13.18-1.42,19.7c1.85-0.65,3.7-1.3,5.54-1.95c4.6,10.76,0.24,24.04-9.89,30.56
			c-0.98,0.63-2.05,1.11-3.04,1.72c-7.31,4.53-7.31,4.54-15.33,2.11c0.9,1.17,1.65,2.5,2.72,3.49c2.47,2.28,2.55,3.85,0.49,7.05
			c-3.34,5.21-5.43,11.26-7.67,17.11c-0.46,1.2,0.35,3.42,1.31,4.52c3.35,3.85,1.87,6.14-2,8.07c-0.99,0.49-1.82,1.3-2.69,1.93
			c0.28,0.43,0.39,0.69,0.46,0.68c7.35-1.31,10.95,2.64,13.47,8.93c1.05,2.62,3.78,4.52,5.23,7.05c2.26,3.93,4.09,8.11,6.24,12.47
			c-0.37,0.09,0.47,0.01,0.48-0.14c0.47-6.32,5.28-6.78,9.7-6.46c9.03,0.63,18.09,1.53,27,3.1c4.69,0.83,9.92,0.25,13.89,4.4
			c3.88,4.05,7.69,7.58,6,14.09c-0.44,1.71,1.31,3.98,2.06,6c1.95-1.19,4.21-2.08,5.77-3.66c1.33-1.35,1.89-3.47,2.71-5.29
			c2.35-5.24,5.05-6.04,10.1-3.58c14.74,7.19,24.87,18.36,30,33.98c0,1.67,0,3.33,0,5c-0.32,0.7-0.71,1.38-0.95,2.1
			c-2.86,8.82-5.37,17.83-12.88,24.17c-4.23,3.57-8.04,3.7-11.69-0.41c-4.59-5.18-8.68-10.81-12.99-16.24
			c-0.7-0.89-1.34-2.48-2.12-2.54c-6.84-0.58-5.52-4.8-3.98-8.88c1.22-3.23-0.15-4.3-2.89-3.51c-2.87,0.83-5.51,2.44-8.92,4.01
			c-0.03-0.02-0.93-0.43-1.82-0.85c-8.25-3.89-15.29-10.61-25.46-9.98c-2.49,0.15-5.11-1.45-3.62-5.39c0.54-1.42-0.6-3.48-0.97-5.24
			c-1.52,0.74-3,1.6-4.57,2.2c-1.73,0.65-3.66,1.71-5.33,1.45c-5.18-0.79-10.28-2.12-15.42-3.25c-1.41,4.05-2.05,7.82-3.95,10.78
			c-1.75,2.71-4.74,6.25-7.39,6.44c-7.18,0.5-14.59,0.06-21.68-1.23c-9.08-1.65-12.86-10.05-18.66-16.93
			c-2.46,5.84-7.5,8.61-13.09,9.5c-7.48,1.19-13.27,11.14-22.9,2.86c1.78,7.93-2.79,10.6-7.35,12.6
			c-14.59,6.38-28.08,14.24-38.69,26.42c-0.54,0.62-1.78,0.63-2.69,0.93C356,391.67,356,390.33,356,389z"/>
	</g>
</g>
</svg>
