<?xml version="1.0" encoding="utf-8"?>
<!-- Generator: Adobe Illustrator 26.2.1, SVG Export Plug-In . SVG Version: 6.00 Build 0)  -->
<svg version="1.1" id="Layer_1" xmlns="http://www.w3.org/2000/svg" xmlns:xlink="http://www.w3.org/1999/xlink" x="0px" y="0px"
	 viewBox="0 0 960 560" style="enable-background:new 0 0 960 560;" xml:space="preserve">
<g>
	<g>
		<path d="M477,156c2.67,0,5.33,0,8,0c1.3,0.59,2.55,1.34,3.9,1.74c4.6,1.36,9.23,2.6,13.85,3.87c2.65,0.73,3.85,1.98,2.86,5.06
			c-0.94,2.91-1.13,6.06-1.75,9.74c5.74-1.5,6.68-5.99,7.92-9.88c1-3.14,2.23-4.08,5.32-2.59c8.77,4.25,17.54,8.51,26.45,12.47
			c4.11,1.83,4.19,4.67,3.05,8.16c-0.78,2.39-1.71,4.74-2.57,7.11c2.41-0.26,3.79-1.55,5.41-1.99c2.04-0.56,4.76-1.31,6.35-0.44
			c7.5,4.12,14.17,9.52,18.15,17.25c7.37,14.31,11.85,29.33,10.64,45.78c-0.94,12.88-6.46,21.42-17.43,23.02
			c-7.78,1.13-15.9,1.17-23.74,0.36c-9.54-0.98-12.25-4.93-12.34-14.71c0-0.33-0.01-0.67,0.01-1c0.44-9.32-4.51-15.64-11.55-20.81
			c-1.5-1.11-2.92-2.34-4.08-3.27c2.22-4.02,4.13-7.48,6.04-10.94c-0.49-0.35-0.98-0.7-1.47-1.04c-2.62,2.23-5.62,4.15-7.78,6.76
			c-4.17,5.07-3.96,5.22-9.46,1.5c-4.91-3.32-10.15-6.26-16.23-4.22c-4.73,1.59-6.13,0.07-5.99-4.39c0.03-0.96-0.34-1.95-0.58-2.91
			c-1.07-4.21-6.16-8.64-10.11-8.51c0.75,1.58,1.41,3.04,2.13,4.48c5.05,10.04,1.47,9.91-6.21,9.77c-0.17,0-0.33-0.02-0.5-0.01
			c-7.07,0.32-13.37,2.24-19.03,6.95c-4.92,4.1-7.71,13.34-17.18,8.41c-0.14-0.07-0.51,0.32-0.94,0.61c0.41,0.7,0.86,1.38,1.24,2.09
			c3.67,6.9,2.37,9.56-5.21,11.71c-3.26,0.93-6.31,2.58-9.46,3.9c0.13,0.48,0.27,0.95,0.4,1.42c1.4,0.09,2.85,0.46,4.19,0.21
			c9.22-1.71,12.89,3.33,11.88,10.66c-1.04,7.53,0.22,14.61,4.66,20.89c1.68,2.38,0.93,3.94-1.05,5.45
			c-2.57,1.97-5.13,3.94-7.7,5.92c0.09,0.4,0.17,0.81,0.26,1.21c1.89,0,3.8,0.15,5.67-0.03c4.76-0.46,7.01,1.31,7.3,6.37
			c0.15,2.55,1.45,5.55,3.22,7.41c8.97,9.46,9.01,9.29,0.1,19.13c-2.04,2.25-3.36,5.15-5.01,7.74c0.52,0.41,1.05,0.82,1.57,1.22
			c1.84-1.76,3.82-3.4,5.5-5.3c2.3-2.62,4.09-2.44,5.74,0.55c0.56,1.02,1.13,2.04,1.7,3.06c5.24,9.38,12.94,15.02,23.93,15.05
			c4.1,0.01,4.65,1.52,4.16,5.16c-0.52,3.87-0.67,7.94,0.02,11.74c0.22,1.2,4.51,3.08,5.5,2.44c3.18-2.07,6.91-4.19,6.9-9.07
			c0-1.4,1.24-2.8,1.9-4.19c1.3,1.06,3.03,1.87,3.82,3.23c1.96,3.39,4.09,6.32,8.87,7.16c0.6-2.74,1.17-5.26,1.7-7.8
			c1.11-5.41,2.92-9.76,9.24-11.52c6.11-1.7,11.77-4.95,17.73-7.28c1.08-0.42,2.82-0.09,3.88,0.53c5.43,3.19,7.39,2.17,8.26-4.1
			c0.21-1.51,1.66-3.88,2.79-4.04c5.24-0.75,8.86-3.63,11.78-7.66c4.96-6.85,9.88-13.73,14.69-20.69c2.74-3.96,5.12-8.18,7.85-12.14
			c0.63-0.91,2.07-1.27,3.14-1.88c0.49,1.09,1.47,2.21,1.39,3.26c-0.44,6.11-1.18,12.2-1.72,18.31
			c-0.88,9.79-3.26,18.48-15.73,20.38c1.33,2.05,1.97,3.56,3.05,4.62c5.75,5.65,5.78,5.6-1.29,10.01c-0.7,0.44-1.3,1.03-1.96,1.54
			c-10.13,7.77-20.25,15.57-30.41,23.31c-4.8,3.65-10.01,5.73-15.12,3.71c-3.35,2.98-5.85,5.94-8.99,7.84
			c-12.5,7.57-26.69,9.32-40.81,11.16c-3.88,0.51-7.82,0.63-11.73,0.92c-0.67,0-1.33,0-2,0c-2.63-1.69-4.59-3.62-4.14-7.23
			c0.37-3.01-1.05-4.76-4.13-3c-4.54,2.58-8.04,0.37-11.35-2.19c-5.75-4.46-11.29-9.18-16.96-13.75c-6.29-5.06-13.41-9.36-16.2-17.6
			c-2.09-6.17-3.92-12.2,0.8-18.27c3.7-4.75,6.75-10.01,10.88-16.24c-3.05,0.59-5.02,0.59-6.61,1.36c-3.27,1.6-6.4,3.51-9.48,5.47
			c-7.1,4.51-11.71,3.22-13.59-4.98c-1.11-4.86-0.2-10.19-0.2-15.38c-6.87-0.59-6.85-0.6-8-3.08c-3.63-7.81-7.42-15.55-10.89-23.44
			c-3.19-7.24-4.16-15.01-0.84-22.23c1.63-3.54,5.75-5.95,8.79-8.81c1.65-1.55,3.41-3,5.97-5.23c-3-2.82-5.29-5.63-8.17-7.56
			c-5.59-3.73-6.15-5.55-2.27-11.05c0.45-0.64,0.92-1.3,1.21-2.02c6.16-15.25,17.02-26.62,29.87-36.39c3.62-2.75,6.6-2.13,9.71,0.81
			c2.95,2.79,6.12,5.34,10.35,9c0-3.68,0.8-6.38-0.16-8.12c-2.27-4.15-1.37-7.9,1.71-10.2c1.39-1.04,5.07,1.14,7.75,1.57
			c1.51,0.24,3.4,0.34,4.55-0.39c0.63-0.4,0.64-3.04-0.02-4.02c-2.65-3.91-5.68-7.56-8.63-11.39c0.86-0.8,1.36-1.62,2.07-1.88
			c10.35-3.78,20.7-7.54,31.11-11.16C470.34,157.49,473.71,156.85,477,156z"/>
		<path d="M530.64,269.33c-1.08,6.95-2.1,13.92-3.28,20.85c-0.47,2.76-1.04,5.58-2.08,8.17c-2.18,5.43-2.89,10.43,1.91,14.98
			c0.64,0.6,0.56,2.42,0.23,3.5c-1.38,4.57-3.06,9.05-4.48,13.6c-2.97,9.47-2.93,9.48-11.45,9.68c0.56,2.75,2.35,6.15,1.4,8.33
			c-1.18,2.69-4.51,4.56-7.16,6.44c-8.35,5.92-17.5,5.48-26.46,2.12c-2.36-0.88-4.8-4.31-5.29-6.92
			c-2.39-12.7,4.43-21.56,12.99-29.83c3.05-2.95,5.08-7.1,7.05-10.97c1.58-3.11,3.27-4.07,6.69-2.97c1.32,0.43,3.63-0.32,4.62-1.37
			c0.72-0.76,0.48-3.1-0.13-4.34c-1.52-3.07-1.13-5.07,1.21-7.89c3.89-4.69,6.64-10.32,10.22-15.29c1.7-2.36,3.12-5.39,7.37-4.84
			c1.4,0.18,3.19-2.59,4.8-4C529.41,268.84,530.02,269.09,530.64,269.33z"/>
		<path d="M484.77,277.92c0,1.11-0.18,1.69,0.03,2.05c5.28,9.28,5.25,9.25-1.33,17.81c-1.18,1.53-1.73,3.53-2.85,5.13
			c-5.58,7.96-11.2,15.91-16.93,23.76c-2.66,3.65-5.61,7.08-8.43,10.61c-0.62-0.14-1.24-0.29-1.86-0.43c-0.17-3.8-0.37-7.6-0.5-11.4
			c-0.27-7.92-0.49-15.84-0.73-23.77c-0.08-2.49-0.09-4.99-0.26-7.48c-0.28-4.22,1.12-6.77,5.85-6.59c1.04,0.04,2.1-0.65,3.23-1.04
			c-6.77-9.05-6.65-15.12-0.21-24.77c2.17-3.25,3.83-6.91,5.26-10.57c3.07-7.84,15.27-11.64,22.42-6.29c4,3,7.41,6.94,10.58,10.86
			c4.13,5.11,2.24,10.64,0.11,15.98c-0.36,0.91-1.12,1.69-1.39,2.62c-1.38,4.82-3.93,6.62-8.77,3.96
			C487.87,277.75,486.26,278.05,484.77,277.92z"/>
	</g>
</g>
</svg>
