<?xml version="1.0" encoding="utf-8"?>
<!-- Generator: Adobe Illustrator 26.2.1, SVG Export Plug-In . SVG Version: 6.00 Build 0)  -->
<svg version="1.1" id="Layer_1" xmlns="http://www.w3.org/2000/svg" xmlns:xlink="http://www.w3.org/1999/xlink" x="0px" y="0px"
	 viewBox="0 0 960 560" style="enable-background:new 0 0 960 560;" xml:space="preserve">
<g>
	<g>
		<path d="M452,156c0.28,12.09,5.1,22.1,14.95,28.98c4.99,3.49,0.68,6.78,1.22,10.8c6.01-6.81,11.31-2.67,16.5,0.62
			c4.76,3.02,9.59,6.05,13.87,9.69c2.38,2.03,4.34,5.12,5.3,8.12c0.95,2.95,1.94,4.23,5.08,3.78c4.66-0.66,8.1,1.32,10.15,5.51
			c1.82,3.72,3.83,7.41,5.1,11.32c2.2,6.82,1.48,7.85-4.87,9.3c-0.06,0.15-0.23,0.36-0.18,0.45c2.02,3.81,2.87,10.42,2.1,15.58
			c-0.65,4.31-1.33,8.7,3.85,11.58c1.44-1.63,2.99-3.39,5.15-5.83c4.08,4.19,8.31,7.67,11.47,11.94
			c7.34,9.92-0.42,26.41-12.11,27.14c-8.27,0.52-15.61,0.47-22.68-3.87c-3.06-1.88-5.15-1.08-7.73,1.59c-2,2.07-5.51,2.68-8.99,4.22
			c-1.11,5.6-4.55,12.38,0.44,18.32c10.2-4.54,20.09-4.99,29.5-0.52c8.5,4.04,16.64,9.06,24.35,14.47
			c4.96,3.48,8.95,8.37,13.14,12.85c0.76,0.81,0.7,2.77,0.43,4.08c-1.18,5.78,1.05,8.42,6.88,6.72c3.88-1.13,5.15,0.26,6.88,3.17
			c7.22,12.09,14.73,24.01,21.99,36.07c0.6,1,0.16,2.61,0.21,3.94c-0.67,0-1.33,0-2,0c-7.67-6.07-15.44-12.02-22.96-18.27
			c-3.03-2.52-5.64-5.59-8.23-8.6c-5.6-6.52-12.18-10.75-21.2-9.9c-3.92,0.37-4.93-1.97-4.61-5.26c0.17-1.73,0.68-3.42,1.12-5.58
			c-1.25,0.33-1.98,0.34-2.48,0.68c-4.07,2.75-7.61,2.01-11.86-0.34c-4.7-2.59-10.16-3.83-15.29-5.62c-3.58-1.25-6.63-2.1-7.81-7.04
			c-0.61-2.55-5.92-5.22-9.3-5.52c-3.23-0.28-8.88-0.51-8.27,6.3c0.17,1.83-1.53,3.83-2.48,6.01c2.08,1.1,4.18,2.36,6.4,3.35
			c3.64,1.62,3.13,3.4,0.35,5.31c-1.6,1.1-3.31,2.06-5.02,4.46c2.05,0.58,4.06,1.33,6.14,1.7c6.84,1.23,7.89,2.61,6.77,9.29
			c-2.06,12.25-13.17,20.42-25.45,18.73c-14.99-2.07-20.26-8.08-20.56-23.44c-0.03-1.47-0.13-2.94-0.21-4.62
			c2.14-0.55,4.34-0.71,6.09-1.67c1.8-1,3.15-2.79,5.71-5.18c-2.74-0.24-4.37-0.84-5.67-0.42c-4.39,1.43-5.63-0.88-5.38-4.46
			c0.23-3.3,1.13-6.55,1.71-9.82c0.31-1.74,0.57-3.48,0.85-5.23c-0.51-0.23-1.02-0.45-1.52-0.68c-1.62,2.89-3.61,5.64-4.76,8.71
			c-1.24,3.3-3.09,5.07-6.56,5.91c-7.36,1.79-15.05,2.85-20.92,8.6c-0.71,0.7-3.67-0.21-5.1-1.13c-1.42-0.91-2.23-2.78-4.1-5.3
			c-1.29,2.98-2.32,5.2-3.22,7.46c-2.69,6.71-6.46,12.51-13.84,14.6c-8.22,2.33-15.04-0.41-20.52-6.71
			c-3.84-4.42-4.12-14.81,0.07-21.21c3.89-5.94,8.09-11.87,13.12-16.81c2.73-2.68,7.4-3.78,11.39-4.55c1.1-0.21,3.41,3.13,4.29,5.21
			c1.08,2.56,1.53,5.48,5.16,4.62c3.64-0.87,4.29-3.58,3.6-7.02c-1.7-8.51-1.63-8.5,6.57-11.04c1.74-0.54,3.4-1.36,5.15-1.86
			c4.59-1.32,9.5-4.18,12.58,2.54c0.39,0.86,1.85,1.24,3.28,2.13c0.16-0.99,0.32-1.55,0.33-2.13c0.04-2.42-0.92-6.05,0.27-7
			c2.27-1.82,5.73-2.26,8.76-2.98c3.21-0.77,6.5-1.65,9.76-1.65c3.81,0,5.18-2.25,7.15-4.88c2.2-2.93,5.53-5.01,8.37-7.45
			c0.37,0.35,0.75,0.7,1.12,1.05c0-1.12,0.28-2.32-0.05-3.33c-1.11-3.42,0.61-5.26,3.54-5.86c3.47-0.71,5.21-2.53,5.52-6.07
			c-5.41-3.6-13.63-2.62-16.22-10.81c-0.6,0.19-1.2,0.37-1.8,0.56c-0.11,1.9-1.01,4.3-0.18,5.6c2.58,4.03,1,5.15-2.87,5.88
			c-3.73,0.7-7.62,1.34-10.98,2.96c-3.37,1.62-6.18,4.41-9.56,6.93c-0.51-0.64-1.58-2-2.06-2.62c-9.14,6.92-18.03,13.72-27.02,20.38
			c-0.82,0.61-2.3,0.35-3.47,0.49c0.31-1.13,0.41-2.38,0.96-3.38c2.35-4.28,4.67-8.59,7.34-12.67c1.9-2.89,4.35-5.42,6.55-8.12
			c5.46-6.69,10.92-13.39,16.64-20.41c1.31,0.62,2.88,1.37,5.11,2.43c0.9-1.99,2.85-4.17,2.43-5.71c-1.85-6.81,3.13-8.96,7.19-11.97
			c2.53-1.87,5.34-3.64,7.19-6.09c2.5-3.32,5.1-3.06,7.61-0.94c3.9,3.29,8.29,3.67,13.05,3.52c7.01-0.22,6.93-0.08,8.29,7.06
			c0.27,1.45,1.25,2.92,2.3,3.97c0.36,0.36,2.45-0.22,2.91-0.92c1.14-1.73,1.91-3.74,2.59-5.73c0.48-1.4,0.71-2.93,0.78-4.41
			c0.24-5.76-1.71-11.92,4.4-17.09c-2.47-0.59-3.82-1.11-5.21-1.21c-8.47-0.61-15.07-5.77-17.95-14.14
			c-1.37-3.99-2.87-7.31-8.14-3.95c-1.08,0.69-3.7-0.65-5.42-1.46c-3.28-1.55-6.61-3.11-9.59-5.16c-6.59-4.54-6.96-7.02-2.91-14.79
			c-6.2-1.26-8.69-3.81-7.67-9.64c1.56-8.94,3.9-17.75,5.91-26.61C450.67,156,451.33,156,452,156z"/>
	</g>
</g>
</svg>
