<?xml version="1.0" encoding="utf-8"?>
<!-- Generator: Adobe Illustrator 26.2.1, SVG Export Plug-In . SVG Version: 6.00 Build 0)  -->
<svg version="1.1" id="Layer_1" xmlns="http://www.w3.org/2000/svg" xmlns:xlink="http://www.w3.org/1999/xlink" x="0px" y="0px"
	 viewBox="0 0 960 560" style="enable-background:new 0 0 960 560;" xml:space="preserve">
<g>
	<g>
		<path d="M487,406c-2.41-0.34-4.81-0.73-7.22-0.99c-4.1-0.44-8.38-0.23-12.27-1.39c-2.68-0.79-4.82-3.42-8.01-5.83
			c-5.14,1.16-8.59-3.61-11.69-7.6c-8.01-10.29-12.54-22.3-11.49-35.3c0.39-4.89,0.82-9.34-0.62-13.98
			c-0.18-0.58-0.17-1.43,0.12-1.93c3.72-6.43,7.51-12.82,11.27-19.23c0.81-1.38,1.63-2.75,2.35-4.17c1.51-2.97,2.22-6.92,4.58-8.78
			c8.75-6.85,17.96-13.19,30.04-12c0.64,0.06,1.55,0.27,1.89-0.05c4.34-4.24,9.45-2.38,13.64-0.72c4.19,1.65,9.02,2.17,12.31,6.74
			c1.92,2.66,7.01,2.94,10.57,4.53c9.74,4.36,14.53,17.39,10.29,27.23c-0.75,1.73-1.21,3.83-1.01,5.68c0.92,8.3-2,15.76-7.1,21.47
			c-5.87,6.58-13.61,10.94-23.4,9.81c-2.58-0.3-5.41,2.17-8.11,2.14c-3.25-0.03-7.33-0.38-9.58-2.31
			c-13.32-11.39-14.39-30.87-0.59-42.23c2.09-1.72,4.93-2.54,7.9-2.73c-2.34,3.7-5.13,7.2-6.87,11.17c-1.09,2.49-0.7,5.67-0.79,8.54
			c-0.06,1.79,0.02,3.63,0.42,5.37c0.36,1.59,0.98,3.25,1.95,4.54c1.35,1.8,3.13,3.28,5.66,5.84c4.33-1.7,10.84-2.75,15.28-6.36
			c5.87-4.78,7.05-12.48,6.9-20.13c-0.04-2,1.3-4.05,2.07-6.05c0.57-1.47,1.25-2.89,1.43-3.29c-6.23-3.05-11.8-6.04-17.59-8.49
			c-2.92-1.23-6.27-1.41-9.39-2.21c-0.99-0.25-2.25-0.74-2.72-1.53c-2.22-3.7-4.18-1.43-4.87,0.62c-1.18,3.54-3.54,4.03-6.68,4.78
			c-6.69,1.58-10.91,6.45-14.01,12.37c-1.6,3.07-1.73,7.61-6.9,6.84c-1.85,10.96-3.64,21.65-5.14,30.54
			c2.53,3.95,4.83,6.56,6.04,9.61c4.2,10.58,21.54,16.59,31.2,10.06c0.87,1.03,1.63,2.29,2.71,3.15c1.52,1.19,3.49,3.13,4.89,2.85
			c1.99-0.4,3.77-2.38,5.38-3.96c1.59-1.55,2.58-4.58,4.31-4.99c12.29-2.94,20.72-11.23,29.41-19.55
			c5.28-5.06,11.52-9.1,13.77-17.08c2.65,2.2,5.11,5.02,8.12,0.9c2.83-3.88,2.11-6.92-3.16-12.28c1.8-5.62,4-11.04,5.22-16.68
			c1.19-5.49,1.38-11.2,2.08-17.45c2.28-1.97,8.43-2.31,7.07-7.55c-1.44-5.56-6.9-2.83-11.64-3.11c0.11-16.11-9.3-24.6-24.56-28.64
			c1.72-2.84,3.29-5.42,4.86-8.01c-0.22-0.56-0.44-1.12-0.67-1.68c-2.41,0.6-5.18,0.64-7.14,1.91c-3.55,2.3-6.8,2.66-10.81,1.37
			c-9.03-2.89-18.2-5.37-27.31-8c-0.95-0.28-2.05-0.91-2.87-0.67c-5.33,1.59-7.88-0.01-6.65-6.27c-1.15,0.42-2.02,0.46-2.25,0.86
			c-3.54,6.2-8.52,6.84-14.88,4.68c-2.87-0.98-6.27-0.44-9.42-0.53c-5.99-0.16-7.24,1.5-6.12,7.18c0.25,1.25-0.56,3-1.42,4.11
			c-4.76,6.15-9.8,12.09-14.48,18.3c-1.37,1.81-2.02,3.58-4.91,2.7c-3.09-0.94-4.09,1.11-3.3,3.65c1.02,3.3-0.59,4.96-2.65,7.24
			c-10.33,11.49-20.46,23.16-30.38,35.01c-4.2,5.02-7.7,10.62-11.52,15.95c-0.45-0.21-0.9-0.41-1.35-0.62
			c0.25-1.1,0.34-2.27,0.79-3.28c7.79-17.3,15.51-34.63,23.54-51.82c1.94-4.16,5.21-7.67,7.44-11.72c1.49-2.7,2.13-5.85,3.31-8.73
			c0.61-1.47,1.51-2.83,2.4-4.16c9.81-14.61,19.61-29.22,29.56-43.73c0.74-1.08,2.58-1.95,3.92-1.97c3.88-0.06,5.06-2.09,5.65-5.56
			c0.38-2.24,1.69-4.39,2.88-6.41c1.9-3.23,3.82-6.5,6.19-9.37c1.17-1.42,3.26-2.45,5.11-2.85c3.66-0.78,5.78-2.25,3.6-6.05
			c-3.37-5.88-1.5-10.68,2.2-15.59c4.49-5.95,10.41-9.62,17.23-12.13c2.33,0,4.67,0,7,0c2.9,2.59,7.7,4.81,8.27,7.84
			c0.9,4.71,0.32,10.9-2.23,14.72c-2.45,3.67-5.71,9.95-13.52,6.7c4.75,6,0.48,9.57-2.3,13.6c-1.95,2.82-3.59,5.84-5.7,9.31
			c4.01,1.03,7.91,1.09,10.49,2.96c2.41,1.75,3.42,5.42,5.31,8.7c1.04-0.46,3.46-0.78,4.5-2.15c3.21-4.25,6.46-2.59,10.04-0.92
			c10.54,4.88,21.34,9.27,31.63,14.63c6.38,3.32,12.4,7.78,12.15,16.61c0.73-0.16,1.53-0.09,1.95-0.46
			c3.82-3.31,6.71-1.71,9.03,1.79c4.65,7.02,9.52,13.94,13.53,21.33c1.33,2.46,0.24,6.21,0.34,9.37c0.04,1.17-0.12,2.84,0.55,3.4
			c4.11,3.44,3.09,7.66,2.27,11.95c-0.97,5.02-1.68,10.1-2.88,15.07c-0.56,2.31-1.98,4.41-2.89,6.35c0.67,2.86,2.51,6.17,1.88,8.91
			c-1.27,5.55-3.69,10.87-5.98,16.14c-2.58,5.94-5.59,11.7-8.33,17.58c-3.36,7.2-13.29,14.3-19.49,13.64
			c1.66,4.01-0.31,6.26-3.59,8.12c-1.84,1.04-3.32,2.7-5.07,3.92c-2.05,1.43-4.23,2.67-6.34,4.01c-1.73,1.1-4.16,1.82-5.04,3.4
			c-3.09,5.56-7.46,7.51-11.62,6.1c-6.45,2.13-11.19,3.71-15.95,5.26c-2.32,0.75-4.66,1.43-6.99,2.14C490.33,406,488.67,406,487,406
			z"/>
	</g>
</g>
</svg>
