<?xml version="1.0" encoding="utf-8"?>
<!-- Generator: Adobe Illustrator 26.2.1, SVG Export Plug-In . SVG Version: 6.00 Build 0)  -->
<svg version="1.1" id="Layer_1" xmlns="http://www.w3.org/2000/svg" xmlns:xlink="http://www.w3.org/1999/xlink" x="0px" y="0px"
	 viewBox="0 0 960 560" style="enable-background:new 0 0 960 560;" xml:space="preserve">
<g>
	<g>
		<path d="M541,156c7.2,2.32,14.51,3.9,20.19,9.93c4.72,5.01,7.09,11.86,5.79,16.72c-1.48,5.51-8.07,9.65-12.43,14.38
			c-3.69-2.15-7.45-4.2-11.02-6.53c-1.18-0.77-1.88-2.29-3.09-3.84c-2.11,4.64-5.93,4.79-10.24,4.2c-4.45-0.61-8.96-0.72-13.44-1.14
			c-10.99-1.03-20.5,3.28-29.91,8.1c-1.84,0.94-4.06,1.14-6.7,1.84c1.96,6-2.95,9.95-7.34,13.89c-9.09,8.17-13.78,18.58-16.14,30.26
			c-0.19,0.95,0.03,2.71,0.59,2.98c4.26,2.04,3.52,5.88,3.88,9.46c0.9,9.17,4.48,17.33,9.72,24.84c3.01,4.31,6.61,8.54,2.29,15.69
			c6.73-3.27,8.69,0.94,11.47,4.19c7.55,8.81,17.8,13.81,27.8,19.13c2.05,1.09,3.87,2.61,6.22,4.23c2.23-3.82,5.51-2.19,9.26-0.3
			c3.02,1.52,6.48,2.67,9.83,2.94c19.07,1.5,38.11,4.13,57.31,1.86c0.61-0.07,1.26,0.16,2.16,1.23c-1.88,0.56-3.74,1.22-5.65,1.67
			c-8.54,1.99-17.05,4.2-25.67,5.74c-4.36,0.78-8.95,0.39-13.44,0.35c-14.09-0.12-28.18-0.19-42.26-0.56
			c-5.57-0.15-10.54-1.93-12.48-8.73c-4.44,4.35-7.89,1.6-11.32-1.08c-12.89-10.05-25.51-20.32-34.79-34.13
			c-2.38-3.54-4.08-6.42-0.49-9.78c-0.35-0.52-0.48-0.94-0.73-1.03c-8.83-3.42-13.42-9.73-14-19.29
			c-0.31-5.13-1.58-10.19-2.36-15.29c-2.38-15.66,2.07-29.29,12.26-41.24c1.94-2.27,3.71-4.68,5.75-7.26
			c1.31,0.48,2.63,0.95,4.36,1.58c-0.84-6.95,2.51-11.57,7.18-15.44c6.54-5.41,13.21-10.66,19.78-16.04
			c2.61-2.14,4.91-3.05,7.64,0.04c0.57,0.64,3.8,0.27,4.16-0.46c4.23-8.41,12.1-9.97,20.19-11.3c3.24-0.53,6.45-1.21,9.68-1.82
			C530.33,156,535.67,156,541,156z"/>
		<path d="M448,406c0.15-2.58,0.09-5.18,0.48-7.72c1.55-10.02,3.36-20,4.82-30.02c0.47-3.25,1.01-5.96,4.14-5.92
			c1.73-5.48,3.44-10.41,4.76-15.45c0.31-1.19-0.28-3.26-1.21-4.03c-4.2-3.52-8.67-6.72-13.03-10.05c-3.81-2.9-7.61-5.82-11.59-8.87
			c1.78-1.12,2.99-1.89,4.98-3.14c-1.55-0.54-2.16-0.98-2.68-0.9c-8.14,1.32-12.86-3.65-17.51-9.14
			c-6.98-8.25-12.62-17.18-14.85-27.9c-0.48-2.31-0.07-4.8-0.07-7.71c-2.56-2.31-7.42-4.68-8.78-8.36
			c-2.29-6.19-3.55-13.29-3.04-19.84c0.56-7.33,3.43-14.51,5.57-21.67c1.24-4.14,9.12-8.19,14.86-8.08
			c4.36,0.08,9.56,3.65,10.9,8.25c0.96,3.29,1.2,6.86,1.31,10.31c0.2,6.42,0.06,12.85,0.06,20.32c-1.58,0.74-4.6,2.15-7.61,3.55
			c7.26,2.25,9.67,7.81,12.01,13.67c3.32,8.32,7,16.5,11.07,25.98c-1.46,0.68-3.66,1.72-5.86,2.75c0.22,0.87,0.45,1.75,0.67,2.62
			c11.59-3.17,15.14,5.65,21.06,11.69c5.87,5.99,13.26,10.49,20.01,15.6c3.92,2.97,7.91,5.85,11.42,8.44
			c-4.52,3.98-8.28,7.89-12.61,11c-10.42,7.46-13.72,18.69-17.13,30.09c-1.54,5.15-4.2,9.96-6.3,14.94
			c-1.33,3.17-2.56,6.38-3.84,9.57C449.33,406,448.67,406,448,406z"/>
		<path d="M565.47,271.69c-7.7,0.29-5.89-4.48-6.41-8.43c-0.96-7.35-2.59-14.62-4.11-22.86c0.2-0.3,1.11-1.64,2.19-3.25
			c-0.78-0.43-1.37-1.04-1.82-0.95c-6.09,1.2-9.66-1.89-12.18-6.92c-0.29-0.59-0.82-1.06-1.14-1.64
			c-8.07-14.39-23.81-11.27-32.83-1.86c-1.07-0.55-2.19-1.14-3.32-1.72c-0.69,1.5-1.03,3.14-2.01,4.2
			c-10.79,11.71-10.23,26.11-9.25,40.39c0.22,3.25,1.14,5.64-1.38,6.39c1.94,2.21,3.99,4.39,5.87,6.71
			c7.29,9.02,14.33,18.26,21.9,27.04c2.37,2.75,6.12,4.31,9.69,6.72c-1.15,0.59-1.88,1.31-2.45,1.2
			c-8.48-1.68-16.73-4.73-22.61-10.9c-3.51-3.69-7.65-6.34-11.21-9.8c-12.65-12.32-19.68-27-19.27-44.89
			c0.03-1.3,0.16-2.75,0.76-3.84c1.66-3.04,4.84-5.74,0.25-9.21c-0.46-0.35,1.59-4.53,2.98-6.61c1.06-1.6,2.9-2.68,4.62-4.18
			c-1.19-1.66-2.31-3.24-3.62-5.08c2.94-4.8,5.78-9.67,8.84-14.38c4.2-6.45,10.89-9.65,17.65-12.41c1.25-0.51,3.63,1.79,6.04,3.09
			c0.36-0.58,1.16-1.86,1.85-2.98c17.59-3.15,31.79,6.66,47.32,11.65c-0.43,1.97-0.79,3.65-1.34,6.16c2.76-1.83,4.77-3.17,5.67-3.77
			c19.69,9.32,27.02,26.96,33.49,45.14c0.33,0.93-1.13,2.5-1.86,3.98c4.65,2.19,3.65,6.72,2.76,10.5
			c-1.83,7.75-4.42,15.32-6.67,22.97c-2.98,10.09-10.17,16.55-18.78,21.75c-8.14,4.92-22.26,1.18-27.02-5.88
			c-1.95-2.89-2.2-7.71-1.58-11.37c0.88-5.15,2.99-10.17,5.15-14.98c1.74-3.88,3.88-7.87,9.56-6.87c1.01,0.18,2.28-1.13,3.43-1.75
			C564.91,272.6,565.19,272.14,565.47,271.69z"/>
		<path d="M394.41,301.89c4.33-1.72,6.65,1.59,8.93,5.74c7.47,13.53,8.65,13.04,28.74,27.92c0,2.58,0,5.36,0,7.03
			c4.1,2.69,7.46,4.89,10.11,6.63c-3.57,9.54-7.01,18.05-9.93,26.73c-2.94,8.73-5.37,17.64-8.27,27.28c-1-1.38-2.34-2.64-2.96-4.18
			c-3.2-7.92-3.82-16.12-2.26-24.52c1.27-6.87,1.75-13.63-3.96-19.06c0.38-0.6,0.55-1.12,0.91-1.39c6.55-4.98,6.46-6.42-1.34-10.1
			c-15.26-7.21-27-18.5-37.36-31.49c1.05-1.75,2.06-3.44,3.05-5.14c0.06-0.11-0.04-0.32-0.07-0.49
			c-13.76-7.4-24.2-47.87-14.59-55.91c-7.38-12.56-5.49-24.85,1.03-36.88c2.83-5.22,7.04-6.47,13.72-5.04
			c5.77,1.23,8.08,3.71,9.01,9.77c0.2,1.31,0.39,2.66,0.29,3.97c-0.96,12.15-1.99,24.3-3.01,36.58c-1.26,0.12-3.23,0.31-5.43,0.52
			c0.37,1.2,0.4,1.72,0.57,1.78c7.07,2.21,8.87,7.12,7.47,13.94c-0.32,1.54,0.17,3.29,0.52,4.9
			C391.09,287.4,392.69,294.28,394.41,301.89z"/>
		<path d="M521.53,253.86c-3.74,1.99-5.14-1.55-6.36-5.16c-2.44-7.24-3.39-14.52,6.82-19.53c6.88-3.37,10.33,1.89,14.32,4.75
			c7.31,5.25,6.66,14,7.45,21.84c0.12,1.15-1.83,2.51-1.5,3.55c0.62,6.78,1.27,13.56,1.84,20.34c0.13,1.62-0.21,3.29-0.03,4.9
			c0.61,5.62-1.07,7.49-6.65,7.19c1.67,5.32-1.94,10.9-7.24,11.19c-7.18,0.39-20.7-9.09-24.31-17.52c2.75,1.88,4.89,3.6,7.25,4.91
			c8.36,4.66,15.7,0.53,14.67-8.97c-0.72-6.62-3.81-12.97-5.55-19.51C521.59,259.44,521.76,256.82,521.53,253.86z"/>
	</g>
</g>
</svg>
