<?xml version="1.0" encoding="utf-8"?>
<!-- Generator: Adobe Illustrator 26.2.1, SVG Export Plug-In . SVG Version: 6.00 Build 0)  -->
<svg version="1.1" id="Layer_1" xmlns="http://www.w3.org/2000/svg" xmlns:xlink="http://www.w3.org/1999/xlink" x="0px" y="0px"
	 viewBox="0 0 960 560" style="enable-background:new 0 0 960 560;" xml:space="preserve">
<g>
	<g>
		<path d="M517,156c2.92,3.44,6.06,6.72,8.6,10.42c0.62,0.91-0.15,3.85-1.2,4.65c-4.76,3.65-8.13,7.69-7.56,14.21
			c0.1,1.12-1.77,2.41-3.21,4.23c2.2,2.47,8.98,1.81,7.39,8.41c7.37-1.63,12.99-7.43,21.64-4.5c-12.11,8.39-20.98,17.97-17.48,33.98
			c-7.67,0.88-3.67,7.13-3.59,10.6c0.19,8.52,2.65,16.67,9.75,22.58c1.09,0.9,1.39,2.75,2.3,4.69c5.77,0.02,12.53,1.52,13.39,8.29
			c1.1,8.72,5.21,18.81-5.29,25.96c4.93,3.07,1.92,7.04,0.97,10.46c-1.99,7.15-4.26,14.3-7.26,21.07c-0.99,2.25-4.57,3.35-6.97,4.99
			c1.77,3.79-0.31,8.2-4.81,10.89c-8.9,5.3-18.62,7.88-28.82,8.71c-1.52,0.12-3.17-1.48-4.78-2.25c-1-0.48-2.03-0.9-3.05-1.35
			c0.08,0.99-0.02,2.04,0.26,2.97c1.86,6.17,3.8,12.3,5.7,18.46c0.19,0.63,0.03,1.53,0.42,1.92c4.02,4.07,2.93,7.17-2.41,9.5
			c1.04,0.5,1.44,0.83,1.85,0.87c2.31,0.22,6.57,0.1,6.64,0.59c0.51,3.62,1.26,7.87-0.18,10.92c-1.63,3.45-5.45,5.87-8.33,8.74
			c-1.33,0-2.67,0-4,0c-10.3-3.14-12.64-6.55-13.06-16.54c-0.21-5.06,3.15-6.79,7.02-9.39c-7-4.81-2.44-9.91-0.71-14.79
			c1.08-3.07,3.08-5.81,4.9-9.12c-11.11-1.87-24.92,3.04-32.04-10.64c-2.83,0.54-6.78,2.57-9.39,1.47
			c-3.68-1.56-7.17-4.95-9.35-8.43c-4.98-7.94-4.34-11.48,2.56-17.37c-2.96,0-4.8-0.28-6.53,0.06c-3.66,0.71-4.8-1.36-5.26-4.31
			c-2.49-16.13,15.01-32.18,30.67-27.56c2.95,0.87,5.86,4.81,7.08,7.98c2.27,5.91,1.09,12.78,5.39,18.43
			c1.15,1.51-0.6,5.22-1.16,8.89c6.18-4.14,10.9,0.31,16.06,2.14c1.08,0.38,1.92,2.08,2.42,3.35c0.91,2.33,1.48,4.79,2.28,7.5
			c1.43-0.85,1.91-1,1.92-1.17c0.13-4.36,1.9-6.07,6.65-6.93c4.37-0.8,8.73-3.87,12.17-6.98c3.26-2.94,5.45-2.97,8.39-0.21
			c1.11,1.04,2.52,1.75,4.47,3.07c0.11-1.9,0.55-3.05,0.15-3.66c-2.96-4.52-0.43-8.01,1.88-11.63c4.71-7.36,7.11-15.22,5.83-24.13
			c-0.29-1.98,1.24-4.23,2.14-6.99c-6.76,1.32-12.23-1.47-16.2-6.75c-3.85-5.12-6.5-10.79-3.16-17.34
			c-5.88-1.53-8.37-5.64-8.01-13.98c0.15-3.43,1.19-6.84,2.07-10.2c1.17-4.43,3.46-7.55,9.08-6.57c-1.57-1.32-3.13-2.65-4.41-3.73
			c-2.71,2.66-5.34,5.24-7.42,7.27c-0.81,3.13-1.55,6.12-2.37,9.08c-1.03,3.68-2.05,7.36-3.23,10.99c-0.87,2.69-1.98,5.3-3.18,8.43
			c5.53,1.09,3.61,6.78,4.13,11.49c0.98,8.8,2.28,17.53,9.9,24.95c-1.93,0.23-3.08,0.68-4.04,0.42c-7.79-2.09-12.3-8.39-16.65-14.3
			c-1.39-1.89,0.51-6.2,0.91-9.45c-9.15-4.54-9.92-13.11-9.43-21.6c0.48-8.25,1.22-16.93,10.2-21.99c-2.6-3.54-0.91-6.72,2.37-9.15
			c7.01-5.2,8.19-13.65,3.69-22.31c-0.88-1.7-0.84-3.88-0.39-6.07c-3.34-3.12-2.57-7.2-1.84-11.1c1.6-8.56,6.81-14.5,14.14-18.8
			c1.43-0.84,2.91-1.58,4.36-2.37C513.67,156,515.33,156,517,156z"/>
		<path d="M395.25,222.31c-6.22-0.86-7.96-3-7.12-8.89c0.42-2.95,1.01-5.91,1.89-8.75c3.62-11.71,14.94-16.84,26.25-12.02
			c6.17,2.63,7.32,5.32,6.75,14.82c-0.31,5.11-3.83,6.31-8.35,7.77c1.96,1.15,3.91,2.3,6.11,3.58c-0.92,4.26-1.88,8.69-2.97,13.75
			c-2.42,1.22-8.61-1.17-8.46,6.75c3.48-1.35,5.85-2.27,7.51-2.92c5.75,8.72,11.31,17.15,16.87,25.58c-0.1,0.45-0.19,0.9-0.29,1.34
			c-8.93-2.06-17.95-3.84-26.71-6.47c-1.3-0.39-1.41-4.77-2.2-7.83c-4.65,0.39-6.72-3.5-8.54-7.7c-0.66-1.53-1.05-3.29-2.09-4.51
			c-3.6-4.22-4.33-8.1,0.59-11.83c0.34-0.26,0.43-0.88,0.58-1.35C395.18,223.32,395.17,222.97,395.25,222.31z"/>
		<path d="M492.51,193.13c-0.72,2.89-1,5.36-1.93,7.55c-4.17,9.92-8.32,19.87-12.98,29.56c-0.95,1.98-4.07,2.91-6.41,4.47
			c3.32,2.36,3.54,5.02,0.6,8.36c-0.97,1.11,0.23,4.04-0.7,5.3c-1.99,2.68-4.72,4.8-9.4,8.21c2.23,1.22,4.46,2.43,6.76,3.69
			c-3,8.42-6.21,15.73-15.42,17.97c-3.72,0.91-6.51,0.07-9.17-3.07c-9.56-11.27-7.64-22.3-1.59-31.46c2.38-3.6,4.98-4.63,8.9-2.32
			c1.43,0.84,3.4,0.76,5.13,1.11c0.14-0.59,0.28-1.18,0.42-1.78c-0.94-0.41-2.14-0.58-2.79-1.26c-1.63-1.73-3.45-4.49-0.04-5.39
			c4.49-1.19,5.61-4.83,7.75-7.82c1.62-2.27,3.04-4.68,4.68-7.22c1.41,0.89,2.49,1.58,4.12,2.61c0.45-1.24,1.5-2.65,1.15-3.42
			c-1.64-3.58,0.46-5.56,2.61-7.78c5.4-5.59,10.69-11.29,16.05-16.93C490.43,193.33,490.87,193.39,492.51,193.13z"/>
		<path d="M571.16,185.57c-1.98,3.11-3.61,5.67-5.82,9.14c3.08,0,4.94,0,8.21,0c-0.79,5.81-1.5,11.39-2.34,16.95
			c-0.32,2.11-1.44,4.19-1.38,6.26c0.27,8.85-2.33,11.65-11.35,11.68c-0.18,0.28-0.54,0.6-0.49,0.82
			c2.58,11.78-7.88,15.11-14.09,20.75c-3.65,3.31-9.17,4.54-14.68,7.1c0.21-2.21,0.07-2.89,0.33-3.14
			c6.37-5.98,8.51-14.09,11.37-21.89c0.63-1.71,2.3-3.61,3.95-4.24c3-1.15,2.75-3.49,1.29-4.52c-4.68-3.32-2.51-7.2-1.66-11.08
			c0.31-1.44,0.56-2.89,0.75-3.87c2.57-1.27,4.76-2.35,7.21-3.56c-0.88-1.21-1.09-1.69-1.45-1.95c-1.95-1.39-5.25-0.14-6.01-4.08
			c-1.24-6.41-5.04-12.6-0.77-19.16c6.09-9.35,18.93-9.01,24.62,0.62C569.7,182.83,570.46,184.3,571.16,185.57z"/>
	</g>
</g>
</svg>
