<?xml version="1.0" encoding="utf-8"?>
<!-- Generator: Adobe Illustrator 26.2.1, SVG Export Plug-In . SVG Version: 6.00 Build 0)  -->
<svg version="1.1" id="Layer_1" xmlns="http://www.w3.org/2000/svg" xmlns:xlink="http://www.w3.org/1999/xlink" x="0px" y="0px"
	 viewBox="0 0 960 560" style="enable-background:new 0 0 960 560;" xml:space="preserve">
<g>
	<g>
		<path d="M356,292c0.4-0.3,0.88-0.53,1.18-0.9c2.11-2.57,2.3-7.68,7.54-6.12c3.26,0.97,6.35,2.51,9.52,3.79
			c1.01,0.41,1.98,0.98,3.03,1.24c4.31,1.08,8.7,1.88,12.96,3.13c7.1,2.08,14.02,4.83,21.2,6.52c5.14,1.22,10.57,1.27,15.89,1.64
			c1.31,0.09,2.68-0.6,5.08-1.19c-16.79-5.61-32.35-10.91-47.98-15.97c-5.38-1.74-11.03-2.66-16.39-4.44
			c-2.09-0.69-5.28-1.25-4.18-5.27c0.94-3.41,1.45-6.99,6.18-5.67c8.09,2.25,16.3,4.3,24.07,7.4c11.64,4.64,22.85,10.35,34.43,15.13
			c4,1.65,8.58,1.86,13.12,2.01c-4.89-3.41-9.85-6.73-14.62-10.29c-1.63-1.22-2.8-3.05-4.2-4.58c-0.65-0.71-1.23-1.68-2.05-2.03
			c-8.23-3.44-16.35-7.28-24.83-9.98c-6.99-2.23-14.44-2.96-21.63-4.61c-2.03-0.46-3.85-1.82-5.83-2.8
			c5.8-9.46,8.88-9.82,18.59-4.48c3.05,1.68,7.12,1.56,10.75,2.1c10.41,1.54,19.12,6.96,27.88,12.22c1.93,1.16,3.64,2.99,4.91,4.88
			c4.64,6.91,11.18,11.6,18.63,14.51c3.3,1.29,8.07,0.89,11.46-0.49c10.88-4.43,21.29-10.04,32.15-14.52
			c15.26-6.29,31-11.74,47.78-9.71c6.19,0.75,12,4.74,17.97,7.3c1.65,0.71,3.41,1.36,4.82,2.43c5.39,4.08,10.69,8.28,15.97,12.5
			c3.62,2.89,7.07,6,10.73,8.84c3.99,3.11,8.19,5.8,13.67,2.57c0.03,0.56,0.05,1.13,0.08,1.69c-6.95,0.95-13.88,2.13-20.85,2.79
			c-11.08,1.05-22.19,1.74-33.29,2.61c-5.75,0.45-10.93-0.61-16.35-3.13c-8.77-4.07-17.48-8.57-27.76-8.58
			c-6.68,0-13.45-2.9-20.02-2.4c-11.43,0.87-22.24,4.63-32.85,9.39c-8.69,3.89-18.34,5.64-27.57,8.3c-1.73,0.5-3.56,0.67-5.29,1.18
			c-5.01,1.46-9.47,1.18-14.23-1.71c-4.03-2.45-8.97-3.44-13.55-4.96c-4.02-1.34-8.64-4.38-12.01-3.37
			c-5.89,1.77-9.85-1.49-14.57-2.74c-3.24-0.86-6.36-2.14-9.53-3.23C356,292.67,356,292.33,356,292z M517.22,270.99
			c0.17,0.71,0.34,1.42,0.51,2.13c3.93,0.47,8.3,0,11.69,1.6c9.31,4.39,19.98,5.28,28.33,12.34c6.89,5.82,16.06,6.93,25.09,8.21
			c-0.24-0.78-0.92-0.98-1.46-1.36c-6.04-4.31-12.01-8.73-18.11-12.95c-3.5-2.42-6.95-5.49-10.9-6.6
			c-8.61-2.42-17.48-4.07-26.34-5.37C523.26,268.57,520.17,270.26,517.22,270.99z M567.23,296.75
			c-12.17-4.26-24.23-8.84-36.55-12.63c-5.31-1.63-11.56-0.55-16.58-2.64c-5.23-2.18-10.19-0.24-15.17-1.26
			c-0.81-0.16-1.94,1.3-3.5,2.42c3.38,0.83,5.93,1.92,8.5,2c10.67,0.32,20.49,4.02,29.97,8.15
			C544.65,297.48,555.31,300.25,567.23,296.75z"/>
	</g>
</g>
</svg>
