<?xml version="1.0" encoding="utf-8"?>
<!-- Generator: Adobe Illustrator 26.2.1, SVG Export Plug-In . SVG Version: 6.00 Build 0)  -->
<svg version="1.1" id="Layer_1" xmlns="http://www.w3.org/2000/svg" xmlns:xlink="http://www.w3.org/1999/xlink" x="0px" y="0px"
	 viewBox="0 0 960 560" style="enable-background:new 0 0 960 560;" xml:space="preserve">
<g>
	<g>
		<path d="M356,266c2.86-4.75,5.35-9.93,12.2-10.73c-1.02-0.71-1.99-1.5-3.07-2.1c-5.39-2.97-7.33-7.57-5.14-13.17
			c3.93-10.02,10.29-18.07,19.88-23.26c5.23-2.83,10.49-5.65,15.9-8.09c2.44-1.1,5.12-1.58,5.72,2.79c0.21,1.52,2.71,2.73,4.16,4.08
			c0.36-0.23,0.71-0.47,1.07-0.7c-0.38-2.14-0.77-4.28-1.25-7c11.89-1.92,23.83-4.88,35.02,2.1c1.83,1.14,2.15,5.08,2.69,7.83
			c0.49,2.49,0.34,5.12,0.55,9.14c0.99-1.86,1.22-2.26,1.42-2.68c1.59-3.34,3.04-9.42,4.79-9.5c5.24-0.25,10.79,1.29,15.85,3.13
			c8.1,2.95,10.98,10.25,13.33,17.85c0.46,1.48,2.32,3.46,3.68,3.58c8.52,0.73,17.09,1.5,25.61,1.22c5.15-0.17,5.83-0.47,5.99,4.67
			c0.03,0.98,0.02,1.97,0.2,2.92c0.12,0.62,0.54,1.18,0.79,1.7c0.48,0.04,1.01,0.19,1.08,0.07c2.48-4.22,6.4-4.74,10.84-4.76
			c3.75-0.01,7.49-0.87,11.25-1.2c6.54-0.56,12.02,1.53,16.25,7.1c3.49-3.52,6.02-1.98,9.77,0.45c3.94,2.56,9.32,3.28,14.18,3.93
			c9.04,1.21,18.17,1.78,27.26,2.62c0,0.67,0,1.33,0,2c-10.76,3.2-21.41,6.86-32.31,9.48c-10.23,2.46-20.71,3.85-31.1,5.65
			c-4.25,0.74-5.63-1.19-5.27-5.36c0.2-2.32-0.63-4.72-1-7.09c-0.51-0.02-1.03-0.03-1.54-0.05c-0.59,3.54-1.32,7.06-1.73,10.62
			c-0.35,3.06-1.7,4.13-4.86,4.24c-7.69,0.28-15.37,1.19-23.06,1.47c-1.47,0.05-3.46-1.29-4.42-2.58c-3.36-4.5-5.9-4.94-8.56-0.1
			c-2.34,4.26-5.98,4.93-9.86,5.52c-4.87,0.73-9.83,0.89-14.69,1.66c-6.95,1.11-12.81-0.29-17.12-6.24
			c-4.1-5.65-8.23-11.28-12.81-17.53c-1.25,0.71-3.61,2.12-6.03,3.41c-2.62,1.38-5.18,3.18-7.99,3.81
			c-2.82,0.64-6.47,1.04-8.72-0.26c-2.17-1.25-3.02-4.79-4.71-7.79c-0.69,1.1-1.19,2.03-1.8,2.88c-1.83,2.52-3.19,6-5.68,7.31
			c-4.58,2.42-4.83,5.79-4.22,9.95c0.07,0.49,0.2,1.02,0.47,1.41c5.99,8.51,4.91,15.59-3.87,21.58c-1.34,0.92-1.56,3.48-2.52,5.82
			c8.61,2.15,13.72-7.43,21.83-5.45c-0.88,3.23-1.69,6.22-2.72,10.03c1.83-0.57,2.72-0.62,3.28-1.07c4.28-3.41,7.01-1.79,10.45,1.88
			c2.37,2.53,6.48,3.64,10.01,4.79c2.67,0.88,3.86,1.64,3.33,4.83c-0.26,1.53,1.54,3.42,2.41,5.14c0.93-1.34,1.73-2.81,2.82-4
			c1.61-1.77,3.22-3.71,5.22-4.91c2.07-1.24,4.86-1.3,6.9-2.57c3.1-1.94,5.52-3.33,9.25-0.71c2.78,1.95,4.27-1,4.23-3.42
			c-0.09-6.22,3.98-8.44,8.93-9.39c9.26-1.78,15.7-7.41,21.35-14.42c1.08-1.34,2.68-2.25,4.04-3.36c0.59,0.38,1.18,0.76,1.77,1.14
			c-1.48,4.02-2.47,8.32-4.54,12.02c-6.61,11.82-11.76,24.71-23.33,33.09c-1.23,0.89-1.87,2.7-2.6,4.17
			c-3.97,7.95-3.95,7.96-11.98,5.9c-1.27,2.75-1.8,6.8-3.89,7.91c-5.45,2.88-11.44,5.29-17.49,6.34c-6.5,1.13-13.12,0.08-19.28-3.34
			c-2.93-1.63-6.66-1.78-10-2.7c-4.6-1.26-7.37-3.86-7.69-9.07c-0.2-3.28-1.56-6.49-2.75-11.08c-3.29,2.84-5.51,4.49-7.39,6.46
			c-3,3.15-6.03,2.65-8.72,0.02c-6.73-6.58-11.7-14.44-14.84-23.26c-0.71-2.01,0.48-5.09,1.6-7.27c2.22-4.32,4.99-8.36,8.32-13.79
			c-3.02,0.48-4.57,0.55-6.01,0.98c-4.27,1.28-8.44,3.13-12.8,3.78c-1.27,0.19-3.71-2.62-4.41-4.5c-1.15-3.13-1.32-6.62-1.91-9.96
			C356,276.67,356,271.33,356,266z"/>
	</g>
</g>
</svg>
