<?xml version="1.0" encoding="utf-8"?>
<!-- Generator: Adobe Illustrator 26.2.1, SVG Export Plug-In . SVG Version: 6.00 Build 0)  -->
<svg version="1.1" id="Layer_1" xmlns="http://www.w3.org/2000/svg" xmlns:xlink="http://www.w3.org/1999/xlink" x="0px" y="0px"
	 viewBox="0 0 960 560" style="enable-background:new 0 0 960 560;" xml:space="preserve">
<g>
	<g>
		<path d="M356,375c1.94-3.61,3.89-7.22,5.81-10.84c2.35-4.42,6.45-5.86,11.18-4.02c1.54,0.6,3.17,1.07,4.8,1.29
			c3.96,0.53,6.4-1.5,6.17-5.38c-0.2-3.31,1.49-4.52,3.97-6.47c6.59-5.2,14.59-8.41,19.39-16.38c3.05-5.06,9.08-8.88,14.58-11.67
			c2.82-1.43,7.41,0.61,12.25,1.21c-0.29-2.24-0.29-5.11-1.09-7.73c-1.88-6.25-0.91-11.6,4.77-14.91
			c8.04-4.69,10.97-12.19,12.73-20.35c1.68-7.78,2.58-15.74,3.72-23.63c0.12-0.84-0.28-1.83-0.65-2.66
			c-0.73-1.63-1.48-3.28-2.49-4.74c-0.77-1.12-1.85-2.53-2.99-2.73c-0.94-0.17-2.56,0.98-3.19,1.98c-1.13,1.79-1.31,4.27-2.65,5.8
			c-2.18,2.49-4.65,5.43-7.58,6.4c-4.3,1.42-9.12,1.22-13.7,1.79c-2.6,0.32-5.34,0.38-7.72,1.31c-3.77,1.48-6.31,1.04-8.12-2.83
			c-1.03-2.21-2.55-4.2-4.31-7.03c-0.53,1.69-1.16,2.68-1.09,3.62c0.74,9.91-6.07,14.45-13.25,18.69c-1.55,0.92-3.33,1.45-5.01,2.15
			c-7.87,3.26-10.6,3.4-16.65-5.58c-10.25-15.22-6.88-24.13,5.01-36.82c4.61-4.93,9.76-9.69,17.45-9.27
			c0.59,0.03,1.44-0.28,1.77-0.73c4.73-6.57,12.08-4.61,17.8-6.04c2.26,3.82,4.23,7.14,6.2,10.46c0.67,0.1,1.34,0.2,2,0.3
			c2.07-3.34,4.53-6.52,6.08-10.08c1.11-2.54,1.95-3.62,4.97-3.2c5.51,0.76,10.95,0.65,16.07-2.44c3.05-1.84,5.32-0.74,7.06,2.79
			c1.46,2.96,3.79,5.89,6.48,7.75c4.22,2.93,6.78,1.53,7.29-3.51c1.3-12.84,2.45-25.7,3.59-38.56c0.4-4.45,0.44-8.94,0.99-13.37
			c0.15-1.23,1.53-2.3,2.35-3.45c0.73,1.07,1.7,2.05,2.16,3.22c2.59,6.58,5.06,13.2,7.57,19.81c1.11,2.91,2.2,5.83,3.6,9.53
			c3.5-5.09,6.62-9.54,9.64-14.05c2.83-4.22,5.56-8.51,8.33-12.77c0.69,0.28,1.39,0.57,2.08,0.85c-1.08,5.01-2.39,9.98-3.2,15.03
			c-1.45,9.1-2.61,18.25-3.89,27.38c-0.53,3.78,1.27,4.89,4.88,5.57c6.62,1.26,13.48,2.55,19.43,5.47c3.34,1.64,5.16,6.5,7.47,10.04
			c3.68,5.63,5.49,6,10.97,1.91c3.8-2.84,4.25-2.13,6.54,1.61c2.38,3.89,6.04,7.08,9.46,10.23c6.04,5.55,12.66,10.5,18.41,16.31
			c7.44,7.52,14.5,15.45,21.28,23.58c4.19,5.02,7.54,10.74,11.27,16.14c0,2,0,4,0,6c-5.03,1.97-6.87-2.07-9.43-4.92
			c-4.61-5.12-8.77-10.88-14.16-15.01c-5.84-4.48-12.85-7.46-19.41-10.97c-2.28-1.22-4.98-1.76-7.07-3.22
			c-1.61-1.12-3.54-3.15-3.6-4.83c-0.11-3.36-1.93-4.21-4.47-4.92c-1.69-0.47-3.35-1.07-5.02-1.61c-5.31,4.92-7,4.93-12.82,0.54
			c-1.26-0.95-2.91-1.83-4.44-1.92c-10.51-0.67-17.6-5.49-20.91-15.8c-1.44-4.48-4.31-4.8-7.23-1.11c-5.75,7.28-4.87,15.5-2.8,23.69
			c1.61,6.37,4.05,12.55,5.42,18.96c2.82,13.17,8.42,23.58,22.76,27.15c1.71,0.42,3.46,3.42,3.88,5.49
			c0.42,2.04-0.74,4.45-1.35,6.65c-1.16,4.2-3.37,8.31-0.53,13.65c2.55-1.91,4.91-3.47,7.01-5.33c2.34-2.07,3.83-1.06,4.18,1.32
			c0.87,5.85,5.12,8.27,9.8,10.22c2.58,1.07,5.51,1.34,8.05,2.49c2.64,1.19,5.59,2.49,7.39,4.6c9.96,11.64,5.73,24.59-7.88,31.1
			c-10.05,4.81-18.01,5.32-26.89-1.61c-3.33-2.6-5.66-4.7-5.48-9.11c0.07-1.77-0.87-3.58-1.46-5.76c-6.09,6.6-6.08,6.59-13.32,2.07
			c-1.26-0.79-2.94-1.13-3.86-2.18c-1.9-2.16-4.44-4.5-4.82-7.06c-0.52-3.44,0.51-7.2,1.3-10.72c0.76-3.4,2.07-6.68,3.14-10.02
			c-2.82,0.72-4.87,1.83-6.55,3.36c-4.36,3.98-4.29,4.06-6.91-1.05c-2.85-5.56-5.62-6.49-11.28-3.89c-2.55,1.17-5.27,2.01-7.72,3.34
			c-2.58,1.4-4.28,0.93-5.86-1.45c-1.79-2.7-3.78-5.25-6.29-8.71c-4.47,5.82-8.78,11.02-12.63,16.54
			c-5.35,7.68-11.12,10.41-17.57,8.41c-1.11,2.71-1.77,5.58-3.32,7.83c-1.87,2.7-4.34,5.04-6.82,7.23
			c-8.65,7.61-17.34,15.33-28.89,18.23c-9.43,2.37-18.44,1.88-25.38-6.25c-2.34-2.74-4.51-5.63-6.76-8.46
			C356,377.67,356,376.33,356,375z"/>
		<path d="M395.94,298.88c7.5-4.45,7.5-4.45,3.05-10.66c2.57-2.68,4.88-5.79,7.84-8.06c7.65-5.87,14.02-13.69,23.93-16.23
			c0.95-0.24,1.9-0.86,2.81-0.78c1.85,0.15,3.68,0.65,5.51,1.01c-0.94,1.57-1.68,3.31-2.86,4.68c-4.43,5.14-9.28,9.95-13.39,15.33
			c-1.67,2.18-2.1,5.45-2.7,8.3c-1.46,6.93-2.13,14.08-4.17,20.82c-1.75,5.79-3.19,5.85-8.96,3.69c-0.87-0.33-2.83,0.05-3.01,0.55
			c-0.43,1.23-0.7,3.36-0.01,4c2.94,2.69,0.68,4.34-0.49,6.71c-4.77,9.66-15.07,11.97-22.91,17.46c-3.6,2.52-10.55-1.32-13.21-6.3
			c-5.95-11.13-4.55-23.53,3.98-32.75c1.03-1.11,3.11-1.47,4.77-1.72c2.97-0.45,5.52-0.8,6.91-4.27
			C385.07,295.56,391.84,294.66,395.94,298.88z"/>
	</g>
</g>
</svg>
