<?xml version="1.0" encoding="utf-8"?>
<!-- Generator: Adobe Illustrator 26.2.1, SVG Export Plug-In . SVG Version: 6.00 Build 0)  -->
<svg version="1.1" id="Layer_1" xmlns="http://www.w3.org/2000/svg" xmlns:xlink="http://www.w3.org/1999/xlink" x="0px" y="0px"
	 viewBox="0 0 960 560" style="enable-background:new 0 0 960 560;" xml:space="preserve">
<g>
	<g>
		<path d="M405,156c0.4,0.51,0.74,1.07,1.19,1.53c6.74,6.84,12.77,14.71,20.52,20.09c4.3,2.98,7.82,8.28,15.29,7.68
			c7.9-0.63,16.12,1.81,24.07,3.54c1.68,0.37,2.76,3.49,4.31,5.6c2.2-2.75,4.88-1.64,7.83,0.15c4.61,2.79,9.28,5.11,14.1-0.11
			c0.98-1.06,3.45-0.75,6.01-1.21c3.38-7.17,18.19-9.83,24.83-3.44c0.7,0.67,1.8,1.8,2.34,1.61c5.42-1.86,7.09,3.01,9.84,5.4
			c3.08-2.45,6-4.78,9.83-7.84c7.57-7.38,16.03-15.63,25.11-24.5c-0.23,7.29-16.55,32.28-21.85,34.27c1.14,3.54-0.11,5.79-3.42,7.9
			c-2.42,1.55-4.09,4.62-5.52,7.31c-3.04,5.74-4.39,12.54-11.84,15.06c-1.58,0.53-3.66,4.26-3.13,5.42
			c1.08,2.35,3.72,4.05,5.92,5.75c0.29,0.22,1.92-0.92,2.66-1.69c2.63-2.76,5.14-5.63,7.66-8.42c1.7,0.49,3.2,0.91,4.7,1.34
			c-0.28-0.4-0.55-0.81-0.83-1.21c2.92-3.54,5.66-7.27,8.83-10.58c3.11-3.25,6.67-6.07,9.3-8.42c3-3.78,5.34-7.05,8.02-10.02
			c5.12-5.68,10.42-11.22,15.69-16.76c1.07-1.13,2.37-2.04,3.57-3.06c0.49,0.32,0.98,0.64,1.47,0.96
			c-1.98,4.22-3.62,8.66-6.03,12.63c-4.14,6.8-8.75,13.32-13.2,19.93c-3.14,4.66-5.89,9.86-13.76,9.13c3.25,4.17,2.67,6.6-0.62,9.46
			c-2.9,2.52-4.42,6.56-6.85,9.7c-1.49,1.92-3.54,3.4-5.68,4.67c-3.36,8.52,3.85,14.31,6.67,21.63c0.28-2.11,0.56-4.22,0.84-6.32
			c6.19-1.83,6.37-2.39,2.41-7.44c-0.1-0.13-0.28-0.27-0.27-0.4c0.26-5.85,0.54-11.71,0.87-18.72c6.22,3.74,6.81,8.91,8.02,13.25
			c2.41,8.62,4.32,17.38,2.32,26.57c-0.46,2.14,1.28,4.96,2.49,7.21c4.06,7.57,6.11,15.46,3.84,23.93
			c-1.95,7.26-8.25,11.55-15.64,11.15c-0.83-0.04-1.67-0.17-2.48-0.07c-2.95,0.38-6.26,0.6-6.91-2.96c-0.38-2.07,1.22-4.5,1.98-6.95
			c-1.01-1.35-2.54-3.4-4.11-5.49c-2.08,3.62-3.87,7.62-6.45,11.03c-3.75,4.96-2.12,8.99,0.87,13.42c2.18,3.23,3.72,6.88,5.77,10.77
			c3.69-1.63,6.28,1.41,8.89,4.94c5.62,7.63,11.45,15.11,17.13,22.7c0.72,0.96,1.11,2.18,1.65,3.28c-0.29,0.32-0.59,0.63-0.88,0.95
			c-7.41-4.39-14.83-8.78-22.59-13.37c1.19-4.21-0.65-5.77-5.07-6.36c-2.1-0.28-3.86-3.27-5.72-5.08c-0.78-0.76-1.99-2.42-2.02-2.4
			c-4.69,3.63-8.61-3.88-12.28-1.29c-2.7,1.91-3.95,6-5.55,9.27c-0.3,0.62,0.55,2.11,1.24,2.85c2.16,2.31,4.66,4.3,6.7,6.7
			c1.38,1.63,2.21,3.73,3.4,5.83c1.69,1.33,3.88,2.82,5.81,4.61c7.18,6.67,14.24,13.47,21.45,20.11c0.92,0.85,2.48,1,3.75,1.48
			c-0.68,0.85-1.36,1.71-2.04,2.56c-3.52-1.75-7.14-3.33-10.55-5.28c-4.55-2.59-8.87-5.6-13.44-8.17c-2.81-1.58-6.11-2.34-8.78-4.09
			c-2.21-1.45-3.83-3.81-5.67-5.8c-0.32-0.35-0.36-0.95-0.68-1.3c-1-1.09-13.32-3.05-14.84-2.46c-3.97,1.55-7.79,5.43-12.09-0.15
			c-0.78,4.83,0.96,7.03,4.7,7.44c5.6,0.61,11.22,0.99,16.83,1.42c1.24,0.1,2.5,0.01,3.75,0.01c0.24,0.51,0.48,1.03,0.72,1.54
			c-3.62,1.81-7.23,3.63-10.86,5.42c-6.07,3-12.35,0.5-18.51,0.48c-2.59-0.01-4.48-0.27-6.67,1.74c-1.34,1.23-4.16,0.84-6.32,1.18
			c-0.09-0.43-0.18-0.87-0.28-1.3c-0.21,0.19-0.61,0.38-0.61,0.56c0.12,7.83-0.44,9.04-9.11,7.2c-5.06-1.08-10.1-4.92-13.84-8.79
			c-3.21-3.33-1.74-8.22,1.03-12c2.41-3.31,2.18-5.86-1.5-8.06c-3.13-1.88-6.03-4.16-9.14-6.07c-3.31-2.03-5.08,0.58-6.9,2.66
			c-3.16,3.61-5.58,8.92-9.54,10.55c-7.77,3.2-10.77,10.8-16.95,15.29c-6.3,4.58-12.02,9.97-17.93,15.07
			c-1.22,1.06-2.2,2.4-3.29,3.61c-0.67,0-1.33,0-2,0c0.63-1.61,0.96-3.42,1.92-4.78c5.48-7.71,11-15.41,16.78-22.89
			c1.74-2.24,4.38-3.79,6.61-5.65c0.39,0.39,0.78,0.78,1.17,1.17c0.93-4.41-0.54-10.68,8.39-9.12c-4.08-5.96,0.29-8.67,2.88-12.02
			c5.54-7.18,5.54-7.18-1.69-12.16c-0.23-0.16-0.61-0.12-0.92-0.17c0.46,0.47,0.92,0.94,1.38,1.4c-3.08,2.21-6.75,3.92-9.07,6.75
			c-2.61,3.18-4.51,6.58-7.68,5.86c-2.77,3.48-4.58,6.45-7.06,8.71c-4.01,3.66-8.65,6.64-12.66,10.31
			c-4.64,4.25-8.86,8.96-13.33,13.39c-0.52,0.51-1.53,0.53-2.31,0.78c7.56-12.08,15.88-23.27,24.2-34.46
			c0.37-0.49,0.89-0.97,1.02-1.52c1.38-6.02,3.64-11.17,11.02-11.22c-0.2-1.67-0.36-2.94-0.51-4.21c8.13-7.34,8.35-11.06,0.86-21.65
			c-0.41,2.15-0.96,3.87-1.02,5.6c-0.18,5.23-0.16,10.46-0.23,15.69c-0.77-0.58-1.72-1.02-2.29-1.75c-6.76-8.76-7-18.92-6.31-29.31
			c0.11-1.69,0.26-3.88-0.64-5.05c-3.51-4.56-6.68-8.9-0.37-14.85c-5.64-0.85-9.37-2.66-9.25-8.23c0.09-4.6-0.96-9.37-0.09-13.79
			c1.36-6.9,8.19-11.22,16.57-10.53c14.21,1.18,12.11,12.02,11.3,21.14c2.4-1.56,4.43-2.89,6.52-4.26
			c-2.47-7.35,4.04-11.58,6.87-17.9c-2.72-3.11-5.69-6.39-8.51-9.79c-0.64-0.77-1.07-1.99-1.03-2.98c0.1-2.85-0.43-4.85-3.87-5.06
			c-0.9-0.06-1.87-1.22-2.54-2.07c-2.68-3.38-5.02-7.07-7.97-10.19c-1.95-2.08-2.38-3.76-0.99-6.13c0.62-1.06,1-2.25,1.7-3.89
			c-2.26,0-3.85,0-4.71,0c-7.71-10.74-13.31-21.84-17.6-33.63c3.93,3.47,7.29,7.27,10.69,11.02c3.99,4.4,7.46,9.53,12.17,12.94
			c5.96,4.32,11.4,8.41,11.97,16.9c5.82-4.41,6.92,1.81,10.09,3.83c5.08,3.25,1.53,7.6,1.5,11.86c2.32-0.92,3.95-1.56,5.71-2.26
			c2.09,2.28,4.07,4.43,6.28,6.85c1.71-1.54,3.15-2.83,4.55-4.08c-0.87-4.26-6.4-7.05-3.05-12.04c0.13-0.19-0.66-1.04-1.07-1.54
			c-3.57-4.39-8.26-8.41-5.01-13.84c-2.56-2.54-4.55-4.62-6.67-6.58c-1.53-1.42-3.02-3.19-4.87-3.9
			c-6.24-2.41-12.63-4.43-19.59-6.81c4.98-1.13,9.58-2.17,15.01-3.4c-2.27-3.23-4.56-6.25-6.59-9.42
			c-3.31-5.17-6.52-10.41-9.62-15.72c-0.95-1.63-1.39-3.55-2.07-5.34C403.67,156,404.33,156,405,156z M478.37,236.71
			c1.06,9.65,1.11,10.01-5.03,11.5c-4.36,1.06-7.42,7.03-12.32,3.89c-1.02,1.64-1.82,3.46-3.09,4.82c-2.77,2.96-6.06,5.47-8.61,8.59
			c-2.24,2.73-4.22,4.96-8.21,4.31c-1.2-0.19-2.83,0.56-3.85,1.4c-2.3,1.89-4.86,3.79-6.37,6.26c-2.44,3.97-5.02,8.24-5.88,12.7
			c-0.85,4.41,2.82,9.48-1.75,13.61c1.66-0.99,3.32-1.97,5.17-3.07c1.37,2.72,2.56,5.08,3.49,6.92c3.78-1.03,6.98-2.89,9.73-2.37
			c2.64,0.5,6.27,3.12,6.82,5.44c0.73,3.07-0.98,6.79-1.88,10.17c-0.55,2.06-2.17,3.99-2.19,5.98c-0.02,2.84,0.99,5.68,1.48,8.12
			c2.33-2.3,4.67-5.69,7.89-7.53c3.96-2.27,8.14-0.53,11.5,2.32c8.5,7.22,0.5,12.02-2.9,17.39c1.19,1.48,2.48,2.64,3.23,4.07
			c2.95,5.61,5.08,6.6,11,4.05c4.07-1.75,7.93-3.98,12.66-6.4c-2.24-4.15-4.16-8.14-6.48-11.88c-2.6-4.19-2.07-11.74,1.33-14.28
			c5.59-4.18,11.62-3.48,15.64,1.9c-1.58,2.37-3.17,4.76-4.86,7.3c6.73,0.39,11.57-2.24,15.83-6.38c3.82-3.71,3.75-5.57-0.69-8.3
			c-4.95-3.03-5.34-12.47-0.66-15.76c6.72-4.73,10.31-4.23,15.7,2.18c0.91,1.09,1.85,2.15,3.5,4.08c3.06-4.5,5.8-8.38,8.39-12.36
			c4.11-6.29,3.32-14.06-1.7-19.62c-2.18-2.42-4.18-3.87-7.73-2.24c-1.72,0.79-4.44,0.7-6.2-0.1c-5.52-2.5-8.36-9.76-6.39-15.55
			c1.09-3.2,0.49-3.64-3.1-4.39c-4.52-0.95-9.35-3.55-12.54-6.87c-3.12-3.24-5.75-4.45-9.8-3.28c-6.75,1.95-6.74,1.94-9.64-4.73
			C479.67,238.18,479.26,237.84,478.37,236.71z M451.27,212.5c9.11-4.16,8.09,5.95,13.31,7.11c2.18-2.05,4.52-4.26,7.12-6.7
			c-5.12-3.24-9.77-6.19-14.42-9.13c0.19-0.24,0.37-0.49,0.56-0.73c-2.18-0.19-4.37-0.39-6.78-0.6c1.06,1.18,2.07,2.31,2.71,3.02
			C452.94,207.82,452.29,209.64,451.27,212.5z"/>
	</g>
</g>
</svg>
