<?xml version="1.0" encoding="utf-8"?>
<!-- Generator: Adobe Illustrator 26.2.1, SVG Export Plug-In . SVG Version: 6.00 Build 0)  -->
<svg version="1.1" id="Layer_1" xmlns="http://www.w3.org/2000/svg" xmlns:xlink="http://www.w3.org/1999/xlink" x="0px" y="0px"
	 viewBox="0 0 960 560" style="enable-background:new 0 0 960 560;" xml:space="preserve">
<g>
	<g>
		<path d="M356,303c1.57-6.72,2.87-13.51,4.77-20.13c4.31-14.97,8.56-29.98,13.63-44.7c1.4-4.07,5.64-7.14,8.52-10.71
			c6.15-7.63,12.16-15.38,18.44-22.9c4.56-5.46,10.12-9.47,17.27-11.24c3.98-0.99,8.83-1.93,6.51-8.44
			c-0.3-0.85,1.87-3.29,3.36-3.97c8.45-3.88,16.87-7.99,25.65-10.98c10.03-3.42,20.4-7.86,30.7-8.08c19-0.41,38.26,0.98,55.88,9.79
			c3.61,1.81,7.09,3.95,10.39,6.26c1.23,0.86,2.78,2.92,2.51,4.01c-1.22,4.79,1.97,5.09,5.08,5.87c6.93,1.73,12.52,5.76,16.51,11.44
			c8.27,11.79,17.71,22.92,22.19,37.03c2.73,8.6,2.11,10.75-4.97,16.14c-6.34,4.82-12.55,9.81-18.76,14.8
			c-5.1,4.1-11.44,4.35-16.16-4.46c-5.51,2.44-6.91,2.37-7.6-3.65c-1.33-11.63-9.22-17.24-18.31-21.51
			c-6.26-2.94-10.43-6.93-13.25-13.18c-2.65-5.87-6.83-10.57-13.59-12.37c-1.27-0.34-1.91-3.37-3.11-3.57
			c-2.51-0.43-5.33-0.25-7.79,0.48c-8.75,2.61-17.34,3.64-26.52,1.63c-3.54-0.77-7.97,1.41-11.71,2.93
			c-5.2,2.12-10.33,4.55-15.11,7.48c-4.11,2.52-8,5.61-11.43,9.01c-5.04,4.99-9.2,10.59-16.29,13.51c-3.3,1.36-5.67,5.87-7.64,9.4
			c-3.08,5.55-5.44,11.4-11.91,14.18c-1.37,0.59-2.55,2.8-2.86,4.45c-1.46,7.8-3.27,15.62-3.68,23.51
			c-0.56,10.96-0.17,21.98,0.29,32.95c0.08,1.88,2.37,3.8,3.91,5.45c1.86,1.99,5.21,3.4,5.8,5.63c1.55,5.78,3.86,9.72,9.62,12.86
			c7.81,4.25,14.61,10.41,21.65,16c9.38,7.46,20.86,7.23,31.76,8.85c20.94,3.11,40.67-1.53,59.34-10.89
			c16.43-8.24,32-17.9,45.27-30.78c3.11-3.01,5.14-7.12,7.71-10.7c0.77-1.07,1.64-2.07,2.49-3.08c5.07-6.03,10.52-11.8,15.08-18.2
			c2.33-3.28,3.07-7.7,4.53-11.6c0.12-0.31,0.2-0.65,0.38-0.92c4.78-7.44,8.65-15.26,10.06-24.12c0.04-0.23,0.88-0.32,1.35-0.48
			c0,2.33,0,4.67,0,7c-2.01,7.82-3.22,15.96-6.25,23.37c-3.74,9.15-8.03,18.38-13.8,26.31c-10.84,14.88-23,28.8-34.46,43.24
			c-10.84,13.66-26.57,19.41-41.67,26.24c-0.6,0.27-1.27,0.39-1.91,0.58c-7.32,2.12-14.62,4.27-21.96,6.33
			c-1.02,0.29-2.22,0.42-3.23,0.17c-9.5-2.39-18.96-4.47-28.92-3.1c-4.07,0.56-8.33,0.18-12.45-0.25
			c-9.95-1.03-19.08-4.16-26.96-10.68c-4.18-3.46-8.46-7.43-13.41-9.22c-10.52-3.81-17.27-12.07-25.45-18.76
			c-9.06-7.41-12.64-17.12-14.7-27.99c-1.36-7.13-3.21-14.16-4.84-21.24C356,306.33,356,304.67,356,303z"/>
	</g>
</g>
</svg>
