<?xml version="1.0" encoding="utf-8"?>
<!-- Generator: Adobe Illustrator 26.2.1, SVG Export Plug-In . SVG Version: 6.00 Build 0)  -->
<svg version="1.1" id="Layer_1" xmlns="http://www.w3.org/2000/svg" xmlns:xlink="http://www.w3.org/1999/xlink" x="0px" y="0px"
	 viewBox="0 0 960 560" style="enable-background:new 0 0 960 560;" xml:space="preserve">
<g>
	<g>
		<path d="M606,364c-1-0.34-2.42-0.38-2.93-1.08c-7.87-10.91-15.54-21.98-23.47-32.85c-2.03-2.78-5.52-4.62-7.12-7.56
			c-2.63-4.84-5.25-8.77-11.48-8.77c-1.12,0-3.16-1.76-3.22-2.79c-0.51-8.42-8.33-9.56-13.25-13.37c-3.21-2.49-7.31-3.96-11.2-5.41
			c-5.27-1.97-11.25-2.8-11.82-11.23c-7.32,6.86-13.75,2.05-20.38,1.05c-10.8-1.62-21.67-2.82-32.55-3.8
			c-2.26-0.2-4.73,1.25-7.03,2.13c-5.42,2.08-10.67,4.72-16.24,6.28c-5.12,1.43-10.83,3.61-15.59-2.89c0.7,7.33-4.52,9.2-8.83,11.88
			c-4.99,3.1-10.19,5.58-12.47,12.03c-1.94,5.48-7.24,4.79-12.16,3.25c-0.1,0.69-0.36,1.25-0.18,1.51
			c4.52,6.78,2.32,12.71-1.98,18.62c-3.36,4.63-5.14,10.23-10.6,13.51c-4.83,2.9-7.17,3.11-12.03,0.25
			c-8.53-5.01-12.61-12.88-15.48-21.76c0-5.33,0-10.67,0-16c6.35-7.41,12.68-14.82,19.05-22.21c1.62-1.88,3.16-3.92,5.08-5.45
			c3.56-2.85,7.32-5.73,12.26-0.44c0.6-10.25,8.87-10.09,14.85-11.65c13.65-3.56,27.58-6.04,41.43-8.8
			c2.22-0.44,4.59-0.06,8.18-0.06c-7.97-6.34-15.99-11.01-21.63-17.7c-5.55-6.58-8.69-15.2-12.89-22.93
			c0.5-0.35,0.99-0.71,1.49-1.06c1.38,1.02,2.92,1.89,4.1,3.11c1.85,1.91,3.43,4.08,5.18,6.08c3.95,4.51,7.84,8.71,14.31,10.12
			c3.12,0.68,5.63,4.04,8.5,6.06c1.04,0.73,2.88,1.86,3.44,1.47c3.39-2.32,6.09-0.11,9.25,0.48c5.47,1.01,11.2,0.64,16.81,0.95
			c1.57,0.09,3.72-0.06,4.59,0.87c3.57,3.8,4.92,1.66,7.51-1.4c2.55-3.02,6.66-4.71,10.05-7.04c5.31-3.65,11.04-6.86,15.71-11.21
			c3.24-3.02,5.01-7.62,7.43-11.52c2.21-3.55,5.45-4.11,8.55-1.88c8.32,6,15.63,12.9,18.11,23.51c1.6,6.86-6.15,19.99-12.97,21.51
			c-0.98,0.22-2.41-0.07-3.17-0.69c-3.58-2.95-6.87-3.41-11.1-0.79c-4.6,2.85-9.77,4.76-15.13,7.3c1.17,0.54,2.07,1.23,3.04,1.36
			c6.97,0.93,12.36,4.48,17.01,9.59c1.09,1.19,3.17,1.45,4.74,2.24c4.04,2.05,8.47,3.63,11.99,6.37c4.97,3.86,8.98,8.94,13.89,12.89
			c12.21,9.84,18.93,23.41,25.96,36.84c3.01,5.73,6.46,11.23,9.47,16.97c1.88,3.58,3.29,7.41,4.91,11.12C606,362,606,363,606,364z"
			/>
		<path d="M456.41,185.19c-2.3-4.71-0.36-6.3,4.15-8.19c7.1-2.97,13.85-6.46,21.82-5.98c1.99,0.12,4.02,0.09,5.97,0.44
			c3.88,0.68,7.13,1.96,5.99,7.1c-0.25,1.15,0.54,2.53,0.85,3.82c8.49-3.2,12.11-1.45,14.71,7.41c1.39,4.73,2.96,9.57,3.24,14.43
			c0.37,6.27-2.77,11.21-8.63,14.01c-6.2,2.96-12.46,2.17-18.24-0.84c-4.28-2.23-5.05-11.05-1.7-14.54c2.18-2.28,3.67-4.25-0.6-5.82
			c-0.72-0.26-1.23-1.05-1.91-1.49c-2.4-1.53-6.21-4.78-7-4.17c-2.57,2-4.04,5.42-5.95,8.27c-1.6,2.39-3.24,4.77-5.57,8.21
			c2.4,4.46,4.72,10.1,8.21,14.89c4.2,5.77,10.75,4.96,17.19,3.81c1.01,3.39-0.3,5.34-3.39,5.92c-6.44,1.2-12.83,1.71-18.91-1.77
			c-8.82-5.05-15.85-11.68-18.93-21.63c-2.16-6.97-1.42-13.91,2.29-20.16C451,187.21,453.84,186.61,456.41,185.19z"/>
		<path d="M469.56,390.8c-1.21-12.15-2.76-24.28-3.48-36.46c-0.33-5.54,0.99-11.18,1.51-16.77c0.1-1.12,0.45-2.75-0.13-3.33
			c-3.7-3.7-2.24-7.94-1.84-12.21c0.19-2.06-0.46-4.24-0.97-6.31c-2.02-8.21-4.83-16.35-2.54-24.97c0.39-1.47,1.17-3.27,2.34-4.02
			c8.19-5.21,18.43-2.55,23.85,5.5c2.87,4.27,0.97,8.03-0.3,11.83c-1.04,3.11-2.91,5.95-4.61,9.31c3.9,2.33,2.56,6.03,1.83,9.75
			c-4.27,21.86-8.44,43.75-12.71,65.61c-0.15,0.79-0.96,1.45-1.47,2.17C470.56,390.86,470.06,390.83,469.56,390.8z"/>
	</g>
</g>
</svg>
