<?xml version="1.0" encoding="utf-8"?>
<!-- Generator: Adobe Illustrator 26.2.1, SVG Export Plug-In . SVG Version: 6.00 Build 0)  -->
<svg version="1.1" id="Layer_1" xmlns="http://www.w3.org/2000/svg" xmlns:xlink="http://www.w3.org/1999/xlink" x="0px" y="0px"
	 viewBox="0 0 960 560" style="enable-background:new 0 0 960 560;" xml:space="preserve">
<g>
	<g>
		<path d="M356,280c0.94-1.37,2.13-2.62,2.77-4.11c2.76-6.41,5.01-13.05,8.1-19.28c3.07-6.2,5.1-6.72,11.56-4.29
			c3.53,1.33,4.85,0.45,4.77-3.43c-0.14-6.35,3.04-10.4,8.97-12.92c10.67-4.52,21.59-8.22,31.65-14.5
			c8.73-5.45,19.28-8.04,29.95-7.35c2.23,0.15,4.3,2.6,7.03,4.38c0.3-0.35,1.1-1.51,2.12-2.42c1.07-0.96,2.36-2.42,3.54-2.4
			c9.4,0.19,18.79,0.62,28.18,1.1c6.54,0.33,13.09,1.37,19.61,1.2c16.19-0.41,29.7,6.2,42.47,15.14c4.08,2.86,8.41,5.41,12.2,8.6
			c1.58,1.33,2.07,3.96,3.51,6.93c7.24,0.18,9.69,6.64,12.26,13.13c1.34,3.38,3.26,6.53,4.65,9.89c2.83,6.89,5.7,13.77,8.14,20.8
			c3.05,8.77,5.7,17.68,8.53,26.53c0,1,0,2,0,3c-0.88-0.58-1.98-0.99-2.61-1.77c-1.85-2.33-3.51-4.8-5.26-7.22
			c-0.09-0.13-0.33-0.18-0.38-0.31c-3.78-10.26-16.05-15.85-15.69-28.52c0.03-1.14-2.13-2.51-3.49-3.47
			c-1.85-1.31-4.39-1.91-5.78-3.54c-6.49-7.62-14.03-13.74-23.17-17.89c-4.37-1.98-8.48-4.3-6.99-10.9
			c-12.11,5.02-22.16-2.81-33.09-2.79c-7.66,0.02-15.33-4.45-23.02,0.21c-0.64,0.39-2.25-0.12-2.97-0.73
			c-3.05-2.56-5.14-1.22-7.75,0.96c-1.86,1.55-4.55,2.66-6.97,2.87c-4.45,0.39-9.01-0.4-13.46,0c-4.07,0.36-8.03,1.75-12.08,2.48
			c-1.62,0.29-3.73,0.68-4.94-0.07c-3.17-1.99-5.36-0.93-6.35,1.93c-2.22,6.41-7.47,9.05-12.67,12.53
			c-4.94,3.31-8.69,8.58-12.48,13.37c-5.76,7.28-10.8,15.01-13.93,23.93c-1.51,4.31-5.52,5.2-9.87,4.96
			c-2.37-0.13-4.87,0.05-7.15,0.66c-7.69,2.07-19.24-7.96-19.01-16.5c0.07-2.39-0.56-4.8-0.87-7.2C356,282,356,281,356,280z"/>
		<path d="M544.3,259.28c0.19,0.39,0.66,0.91,0.55,1.22c-2.07,5.81-4.28,11.57-6.29,17.4c-0.55,1.6-0.58,3.39-0.81,5.1
			c-0.55,4.05-1.05,8.1-1.61,12.14c-0.29,2.12-1.25,4.33-0.92,6.33c1.73,10.47-3.12,19.68-5.57,29.28
			c-1.51,5.94-10.63,7.65-15.31,3.52c-4.96-4.37-6.13-10.35-3.25-16.21c0.58-1.17,1.59-2.68,1.27-3.67
			c-3.05-9.59,5.58-15.42,7.38-23.41c0.55-2.43,1.35-4.85,2.44-7.08c2.02-4.15,4.13-8.3,6.6-12.19c1.94-3.05,4.13-6.13,6.86-8.42
			C537.87,261.43,541.06,260.72,544.3,259.28z"/>
		<path d="M417.15,349.05c-0.36-7.38-1-13.53-0.85-19.68c0.11-4.79,0.93-9.61,1.91-14.32c1.81-8.76,3.93-17.45,6.01-26.14
			c0.21-0.86,1.2-1.5,1.62-2.34c0.86-1.7,2.58-3.76,2.17-5.16c-1.51-5.24,0.79-9.53,2.72-13.86c3.4-7.63,17.12-9.88,21.98-3.23
			c1.76,2.41,1.96,7.17,0.92,10.18c-2.2,6.35-5.42,12.42-8.8,18.27c-1.27,2.2-4.13,3.48-6.24,5.21c-0.85,0.7-1.99,1.31-2.42,2.23
			c-4.02,8.6-8.12,17.18-11.73,25.96c-1.14,2.77-1.22,6.1-1.22,9.18C423.2,341.19,422.04,344.85,417.15,349.05z"/>
		<path d="M483.53,302.04c1.5-3.45,2.31-6.24,3.81-8.58c2.77-4.34,6.17-8.28,8.91-12.64c6.43-10.22,16.17-16.41,27.64-23.16
			c-1.42,2.74-1.84,4.57-2.99,5.61c-7.18,6.52-9.48,15.37-11.89,24.19c-0.26,0.95-0.09,2.54-0.63,2.81
			c-5.5,2.75-3.74,7.9-4.23,12.27c-0.44,3.92-0.02,8.13-4.4,10.43c-0.47,0.25-0.43,1.42-0.67,2.15c-1.4,4.16-2.25,8.64-4.34,12.41
			c-3.54,6.39-6.97,7.71-11.46,5.72c-7.62-3.37-9.54-6.99-7.51-14.42c1.1-4.01,2.04-8.1,3.66-11.9
			C480.31,304.84,482.45,303.27,483.53,302.04z"/>
		<path d="M454.01,298.14c2.89-10.43,5.65-20.9,8.86-31.22c0.4-1.29,3.28-2.62,4.96-2.56c6.11,0.21,12.39,0.5,16.43,6.32
			c0.47,0.67,1.25,1.16,1.61,1.87c2.81,5.6-5.93,19.02-12.36,19.03c-0.53,5.67-0.56,11.34-6.95,14.52c-2.21,1.1-3.73,4.13-4.93,6.59
			c-3.79,7.73-7.19,15.65-10.95,23.4c-0.9,1.86-2.6,3.34-3.93,5c-0.64-2.24-2.12-4.62-1.77-6.69c1.69-9.8,3.74-19.55,5.99-29.24
			c0.58-2.49,2.37-4.69,3.61-7.03C454.39,298.12,454.2,298.13,454.01,298.14z"/>
	</g>
</g>
</svg>
