<?xml version="1.0" encoding="utf-8"?>
<!-- Generator: Adobe Illustrator 26.2.1, SVG Export Plug-In . SVG Version: 6.00 Build 0)  -->
<svg version="1.1" id="Layer_1" xmlns="http://www.w3.org/2000/svg" xmlns:xlink="http://www.w3.org/1999/xlink" x="0px" y="0px"
	 viewBox="0 0 960 560" style="enable-background:new 0 0 960 560;" xml:space="preserve">
<g>
	<g>
		<path d="M606,322c-3.35,3.8-6.63,7.67-10.06,11.39c-2.22,2.4-4.39,5.01-7.08,6.78c-3.57,2.35-7.62,3.73-11.33-1.12
			c-2.79,6.59-7.64,7.46-13.1,7.12c-1.32-0.08-2.7-0.02-3.98,0.28c-4.45,1.04-8.21,1.03-8.14-4.76c-0.88-0.22-1.38-0.46-1.47-0.35
			c-4.31,4.88-8.4,2.99-12.81-0.05c-4.32-2.97-8.98-5.45-13.51-8.16c1.2-2.6,2-4.34,3.43-7.45c-3.93,1.05-6.7,1.8-9.93,2.67
			c0.18-1.9,0.32-3.29,0.34-3.55c-3.67-1.24-6.89-2.62-10.25-3.41c-5.91-1.4-1.58-6.3-3.32-9.06c-12.88,1.23-25.74,2.43-38.58,3.72
			c-1.8,0.18-3.81,0.44-5.28,1.36c-4.38,2.73-7.78,3-9.62-4.41c-1.31,2.85-2.65,4.36-2.47,5.64c0.76,5.24-3,6.4-6.37,8.73
			c-10.3,7.13-22.03,10.76-33.66,14.68c-1.96,0.66-4.44-0.3-6.68-0.31c-2.34-0.01-4.68,0.37-7.01,0.29
			c-3.31-0.13-6.66-0.27-9.91-0.89c-2.31-0.44-4.46-1.68-7.59-2.92c-5.79,4.12-16.17,2.18-21.62-5.21c0-2.33,0-4.67,0-7
			c4.36-9.39,4.4-9.55,14.59-6.86c2.9,0.76,5.48,2.69,7.58,4.93c6.07,0,12.13,0,18.79,0c0.28,1.53,0.64,3.57,1.13,6.26
			c0.84-1.04,1.7-1.63,1.84-2.37c0.6-3.13,2.36-3.7,5.37-3.52c5.06,0.31,9.21-1.77,12.45-6.68c-6.01-0.94-11.57-1.58-17.01-2.76
			c-2.63-0.57-5.04-2.13-8.7-3.75c-5.18,1.96-9.62,0.57-13.49-5.5c-1.33,0.98-2.64,1.94-4.64,3.41c-2.62-2.62-5.37-5.18-7.87-7.98
			c-0.56-0.63-0.67-2.28-0.26-3.07c2.58-4.99,5.33-9.89,8.13-14.76c0.34-0.6,1.3-1.14,2-1.19c3.72-0.24,13.29,7.01,14.04,9.52
			c3.96,1.34,7.2,3.36,10.43,3.34c6.25-0.03,4.07,5.12,5,7.03c5.91-1.72,11.29-3.29,17.12-4.98c-4.47-3.61-8.24-6.65-12.43-10.02
			c-4.72,2.77-14.26-2.66-14.96-9.93c-5.59,2.32-13.36,0.36-17.27-4.55c-0.57-0.72-0.91-2.45-0.46-3.01
			c3.35-4.22,6.91-8.26,10.44-12.34c0.18-0.21,0.6-0.25,0.93-0.32c4.55-1,16.99,6.63,18.14,10.7c2.51,0.46,4.77,0.82,7,1.28
			c4.7,0.97,9.38,1.99,14.08,2.99c3.1,0.66,5.5,1.62,3.63,5.63c-1.47,3.16,0.63,3.75,3.16,3.76c4.64,0.01,9.29,0.14,13.93,0
			c7.85-0.23,15.71-0.51,23.55-1.01c4.46-0.28,8.93-1.57,13.33-1.34c1.74,0.09,3.32,3.1,5.65,5.47c1.92-1.38,4.36-4.06,7.36-5.03
			c3-0.96,6.54-0.21,9.44-0.21c-0.42,4.66-0.73,8.09-1.04,11.53c0.55,0.12,1.1,0.24,1.65,0.36c1.58-6.29,5.61-9.06,11.89-9.15
			c6.63-0.1,13.28-1.04,19.88-0.76c4.42,0.19,8.98,1.58,9.81,7.83c7.79-3.5,12.02,1.63,16.06,6.53c0.86,1.04,0.13,3.41,0.13,3.88
			c1.93,2.72,3.45,4.87,4.98,7.01c2.01,2.82,4.2,5.54,6.02,8.48c5.72,9.24,13.68,9.65,22.84,6.19c1.8-0.68,3.85-0.71,5.78-1.04
			C606,320.67,606,321.33,606,322z M556.74,328.22c-2.98-0.87-5.04-1.41-7.05-2.07c-2.54-0.84-5.07-1.73-7.57-2.7
			c-0.72-0.28-1.71-0.75-1.9-1.35c-1.7-5.28-6.72-6.1-11.17-9.18c5.85,14.92,20.9,18.99,36.6,19.5
			C563.19,329.35,557.21,332.75,556.74,328.22z M556.77,309.16c-4.95-3.3-10.76-7.17-17.16-11.43c-1.51,0.11-4.19,0.31-8.51,0.62
			c9.28,4.27,20.24,4.44,21.85,14.87c5.29,3.32,9.91,6.22,14.52,9.12c0.12-0.21,0.25-0.42,0.37-0.62
			C564.32,317.72,560.79,313.71,556.77,309.16z"/>
		<path d="M520.37,228.23c0.36,1.47,0.74,3.06,1.24,5.13c2.36-1.55,4.42-2.9,6.47-4.25c1.06,2.29,2.12,4.58,3.3,7.13
			c0.9-0.57,1.87-0.93,2.47-1.61c5.69-6.44,6.87-7.08,14.5-4.12c4.57,1.77,8.76,4.6,13.02,7.11c4.27,2.51,6.62,6.3,5.23,11.26
			c-1.54,5.53-5.32,10.06-11.15,9.92c-8.22-0.19-16.41-1.86-24.58-3.15c-0.7-0.11-1.32-1.98-1.6-3.12c-0.37-1.5-0.37-3.1-1.28-3.17
			c-2.64-0.07-5.28-0.22-7.91-0.2c-8.42,0.06-16.85-0.05-25.26,0.4c-2.53,0.13-4.22,0.82-6.32-1.73c-3.55-4.3-9.03-3.07-11.51,2.67
			c-1.88-1.74-3.56-3.3-5.67-5.26c-0.15,4.02-1.94,5.52-5.91,5.98c-7.6,0.87-15.23,2.23-22.56,4.38
			c-6.05,1.77-11.69,4.95-17.49,7.56c-1.48,0.67-2.89,1.52-5.13,1.57c0.94-1.1,1.7-2.48,2.86-3.25
			c8.29-5.51,16.63-10.92,25.03-16.26c0.84-0.53,2.29-0.73,3.2-0.39c2.41,0.9,3.77,0.49,4.4-2.15c0.2-0.85,0.86-1.95,1.59-2.24
			c6.93-2.78,13.73-6.67,20.94-7.69c5.32-0.75,9.72-3.31,14.71-4.27C502,226.72,511.07,224.35,520.37,228.23z"/>
		<path d="M418.37,247.72c1.06-1.72,1.61-3.16,2.61-4.15c4.03-3.98,8.12-7.9,12.35-11.65c1.1-0.97,2.82-1.25,4.26-1.82
			c0.7-0.28,1.91-0.36,2.06-0.8c1.65-4.93,5.31-5.53,9.84-5.34c1.45,0.06,2.98-1.83,4.48-2.82c4-2.63,7.79-5.67,12.06-7.74
			c3.11-1.5,6.51-3.26,9.48-4.1c7.51-2.13,15.61-2.54,23.49-2.69c1.49-0.03,4.14,4.23,4.35,6.67c0.37,4.4-2.63,7.54-6.96,8.5
			c-3.71,0.82-7.57,1.01-11.38,1.26c-0.95,0.06-2.12-0.48-2.9-1.11c-1.16-0.92-2.07-2.17-3.09-3.27c-0.9,1.27-1.79,2.54-2.85,4.03
			c-8.62-0.87-15.03,5.32-22.56,8.49c-0.74,0.31-1.31,1.43-1.97,1.44C438.63,232.85,430.16,242.75,418.37,247.72z"/>
		<path d="M453.69,266.54c8.35-3.58,15.99-6.65,24.33-6.61c4.15,0.02,8.87-2.53,12.63,1.67c0.23,0.26,1.92-0.83,2.96-1.22
			c2.43-0.91,4.84-2.37,7.34-2.56c6.39-0.47,12.83-0.31,19.24-0.51c3.34-0.1,7.39,3.13,7.61,6.67c0.23,3.62-1.12,7.27-5.06,7.31
			c-6.52,0.07-13.06-0.88-19.57-1.63c-0.79-0.09-1.42-1.56-2.37-2.69c-2.98,5.67-7.96,2.63-11.42,1.72
			c-11.29-2.94-22.38-4.36-33.75-0.92C455.45,267.85,455.12,267.47,453.69,266.54z"/>
		<path d="M540.26,351.06c-4,2.26-8.67,1.86-13.29,0.35c-8.1-2.67-15.46-7.95-24.71-6.71c-0.66,0.09-1.68-2.6-2.73-4.3
			c-1.44,0.63-3.53,1.71-5.73,2.45c-2.39,0.81-4.49,1.47-5.95-2.1c-1.25-3.05-4.38-1.74-6.65,2.28c-8.84,1.35-17.16,2.63-26.08,3.99
			c0.05,0.94,0.16,3,0.34,6.27c-4.74,0.5-9.61,1.68-14.37,1.37c-6.38-0.43-10.52-12.05-5.38-16.86c5.38-5.04,12.53-8.31,19.22-11.73
			c1.03-0.53,3.76,2.28,5.47,3.39c6.21-6.76,14.54-5.23,22.28-5.15c2.84,0.03,5.66,1.9,8.3,3.67c4.72-1.66,9.18,0.11,13.48,2.39
			c7.16,3.79,14.07,7.67,20.09,13.54C528.41,347.66,534.88,348.74,540.26,351.06z"/>
	</g>
</g>
</svg>
