<?xml version="1.0" encoding="utf-8"?>
<!-- Generator: Adobe Illustrator 26.2.1, SVG Export Plug-In . SVG Version: 6.00 Build 0)  -->
<svg version="1.1" id="Layer_1" xmlns="http://www.w3.org/2000/svg" xmlns:xlink="http://www.w3.org/1999/xlink" x="0px" y="0px"
	 viewBox="0 0 960 560" style="enable-background:new 0 0 960 560;" xml:space="preserve">
<g>
	<g>
		<path d="M495,406c-3.84-8.79-8.04-17.44-11.39-26.41c-1.78-4.75-2.38-10.02-2.9-15.11c-0.16-1.58,1.67-3.36,2.9-5.63
			c-0.67-2.36-1.61-5.67-2.86-10.06c-3.55-1.43-6.08-16.66-2.12-21.96c-7.46-3.12-9.8-14.98-4.59-23.28
			c3.63-5.79,8.09-7.86,13.74-6.38c6.97,1.82,12.04,7.78,12.2,14.58c0.07,3.15,0.29,6.42-0.45,9.42c-0.72,2.91-2.57,5.53-4.22,8.87
			c2.9,3.47,3.08,11.33-0.5,17.04c-0.23,0.37-0.54,0.77-0.56,1.17c-0.25,6.18-0.3,12.38-0.78,18.55c-0.13,1.62-1.88,3.05-2.28,4.72
			c-0.31,1.31,0.09,2.91,0.56,4.25c0.57,1.62,2.57,3.45,2.18,4.57c-2.65,7.72-1.94,15.04,1.44,22.3c0.47,1,0.43,2.24,0.63,3.36
			C495.67,406,495.33,406,495,406z"/>
		<path d="M489,156c-0.77,7.32,1.27,13.81,4.12,20.63c2.69,6.41,3.02,13.88,3.83,20.95c0.19,1.69-1.84,3.63-2.89,5.53
			c4.94,5.14,4.67,14.29-1.04,18.28c1.46,1.11,3.06,1.97,4.15,3.26c1,1.18,1.44,2.82,2.23,4.46c-1.53,0.71-2.57,1.17-3.59,1.67
			c-0.86,0.42-1.71,0.9-3.86,2.05c3.01,0.34,4.68,0.53,6.35,0.72c2.65,6.74,0.66,13.76-5.09,18.03c-4.34,3.21-10.37,3.39-14.49,0.44
			c-5.42-3.89-6.69-9.22-3.95-16.95c1.89-0.27,3.85-0.55,5.82-0.83c0.12-0.38,0.23-0.76,0.35-1.14c-1.51-1.04-3.03-2.07-4.25-2.91
			c1.52-6.16,2.88-12.23,4.57-18.2c0.6-2.13,3.39-4.66,2.81-5.92c-2.29-4.97-1.02-9.73-0.45-14.58c0.13-1.11,0.35-2.8,1.06-3.15
			c4.9-2.41,2.81-5.21,1.04-8.46c-0.84-1.54-0.81-3.74-0.65-5.59c0.52-6.1,1.28-12.18,1.95-18.27C487.67,156,488.33,156,489,156z"/>
		<path d="M446.79,267.31c2.51-5.96,3.45-6.44,9.7-3.91c4.68,1.9,10.55,1.39,13.18,7.49c2.26,5.26,2.9,10.21,0.04,15.23
			c-2.77,4.87-7.91,5.15-12.34,4.46c-5.43-0.85-11.82-0.42-15.41-6.25c-4.27,3.44-14.08,5.04-17.35,2.81
			c-8.52,5.74-26.68,4.43-30.52-2.2c-6.54,3.88-7.98,3.75-14.72-1.66c-2.51-2.02-4.9-4.19-7.13-6.67c9.44,4.03,18.8,3.45,28.29,0.91
			c1.58-0.42,3.46,0.22,5.37,0.39c3.75-5.35,15.36-8.29,21.24-5.13C429.58,266.95,442.35,263.39,446.79,267.31z"/>
		<path d="M588.12,286.48c-3.62-0.37-7.25-0.62-10.84-1.15c-5.99-0.89-11.97-1.93-17.93-3c-2.36-0.42-4.67-1.11-7.47-1.79
			c-2.15,4.36-4.86,4.88-8.82,0.61c-5.06,5.89-17.98,7.63-21.12,2.84c-1.92,1.76-3.57,4.34-5.83,5.1c-4.67,1.58-9.3,1.56-13.14-2.9
			c-3.86-4.48-5.36-8.95-2.89-14.59c1.89-4.31,3.71-10.36,8.87-9.19c6.22,1.41,11.94-1.42,17.71,0.01c2.57,0.64,4.79,2.64,7.3,4.1
			c4.73-4.05,19.58-1.24,24.48,4.14c2.84,0.17,4.88-0.29,6.22,0.47c7.97,4.5,15.79,9.28,23.66,13.97
			C588.26,285.55,588.19,286.01,588.12,286.48z"/>
	</g>
</g>
</svg>
