<?xml version="1.0" encoding="utf-8"?>
<!-- Generator: Adobe Illustrator 26.2.1, SVG Export Plug-In . SVG Version: 6.00 Build 0)  -->
<svg version="1.1" id="Layer_1" xmlns="http://www.w3.org/2000/svg" xmlns:xlink="http://www.w3.org/1999/xlink" x="0px" y="0px"
	 viewBox="0 0 960 560" style="enable-background:new 0 0 960 560;" xml:space="preserve">
<g>
	<g>
		<path d="M356,264c2.12-7,6.07-12.71,11.82-17.25c4.12-3.26,4.63-3.1,6.95,1.54c1.01,2.01,2.56,3.96,4.35,5.27
			c0.7,0.51,3.93-0.74,3.97-1.34c0.2-2.5-0.02-5.18-0.77-7.58c-0.92-2.92-0.85-4.7,2.54-5.62c1.69-0.46,3.16-1.74,4.72-2.68
			c4.48-2.7,7.14-2,10.44,2.08c1.55,1.92,3.83,3.25,5.78,4.84c0.45-0.28,0.9-0.55,1.34-0.83c-0.45-2.67-1.13-5.32-1.25-8
			c-0.07-1.51,0.37-4.1,1.26-4.45c11.08-4.33,22.15-8.77,33.5-12.24c5.52-1.69,7.36,0.37,7.33,6.06c-0.03,4.61,2.15,6.15,6.35,5.86
			c0.84-4.64,1.51-9.05,2.54-13.38c0.22-0.94,1.7-2.09,2.73-2.24c18.39-2.59,36.7-3.05,54.54,3.31c5.97,2.13,5.91,2.3,7.35,9.69
			c1.32-0.77,3.05-1.17,3.41-2.1c1.37-3.52,3.51-3.23,6.32-2.05c12.85,5.4,25.3,11.57,36.79,19.51c6.87,4.74,6.98,5.56,4.21,13.52
			c-0.42,1.2-0.45,2.54-0.75,4.31c1.62,0,3.22,0.5,4.06-0.09c3.76-2.62,5.68-0.12,7.78,2.34c7.84,9.2,13.5,19.54,17.07,31.14
			c1.23,3.98,3.69,7.59,5.58,11.37c0,0.67,0,1.33,0,2c-1.52-0.46-3.61-0.43-4.48-1.45c-5.04-5.94-9.63-12.26-14.73-18.15
			c-2.42-2.8-5.39-5.29-8.53-7.26c-6.72-4.23-13.84-7.83-20.51-12.13c-1.59-1.02-2.19-3.7-3.04-5.71c-0.82-1.94-1.38-4-2.06-6.01
			c-2.11,0.94-4.25,1.82-6.3,2.85c-0.84,0.42-1.5,1.19-2.57,2.07c-6.28-7.42-15.47-9.81-23.84-11.3c-7.7-1.37-14.12-5.05-21.29-7.15
			c-1.49-0.44-2.9-2.17-3.72-3.65c-2.3-4.14-5.49-4.68-7.36-0.33c-2.05,4.76-4.74,4.27-9.07,4.45c-9.07,0.37-18.1,2.29-27.07,3.98
			c-3.57,0.67-6.49,1.58-9.44-1.82c-1.29-1.48-4.37-1.41-7.5-2.29c0.18,2.89,0.28,4.62,0.32,5.12c-5.32,5.55-10.08,10.47-14.8,15.43
			c-2.07,2.18-4.23,2.86-7.09,1.31c-1.64-0.89-3.62-1.15-7.09-2.17c1.48,4.5,2.5,7.62,3.57,10.85c-4.99,4.69-10.61,9.36-15.48,14.7
			c-6.08,6.67-13.61,6.91-21.09,4.87c-8.8-2.4-14.28-8.75-16.02-17.96c-0.21-1.1-0.54-2.17-0.81-3.26C356,269.33,356,266.67,356,264
			z"/>
		<path d="M485.88,312.12c9.46,9.98,9.26,12.9-1.48,22.04c-8.24,7-19.81,7.8-26.48,1.83c-4.52-4.04-5.35-14.88-1.37-19.37
			c0.69-0.78,1.93-1.12,2.96-1.54c1.8-0.74,3.65-1.38,5.91-2.22c-5.9-4.93-5.93-5.8-1.4-11.2c0.84-1,1.65-2.1,2.19-3.29
			c1.49-3.29,2.09-7.47,7.53-4.12c2.02,1.24,4.74-2.5,3.34-5.47c-1.71-3.61-0.13-5.75,1.74-8.4c3.15-4.44,5.47-9.56,9.07-13.57
			c3.99-4.44,9.01-7.95,13.05-11.41c-0.76,2.56-1.85,6.16-2.89,9.78c-1.68,5.87-3.56,11.69-4.84,17.64
			c-0.42,1.96,0.19,5.73,1.3,6.16c5.37,2.08,2.65,5.64,2.05,8.64c-0.71,3.5-2.16,6.84-2.86,10.34
			C492.78,312.51,490.42,313.87,485.88,312.12z"/>
		<path d="M456.84,282.31c6.2,4.29,6.02,4.19,2.03,11.38c-2.16,3.89-3.57,8.18-5.37,12.28c-0.72,1.63-1.54,3.22-2.49,5.16
			c-1.76-1.15-3.08-2.02-4.49-2.95c-6.89,12.27-13.75,24.46-20.6,36.66c-0.32-0.01-0.65-0.01-0.97-0.02
			c0.25-4.74,0.44-9.49,0.75-14.22c0.49-7.4,1.06-14.8,1.61-22.2c0.29-3.84,1.77-6.64,6.02-7.33c3.78-0.62,3.2-2.03,1.11-4.59
			c-1.43-1.75-2.52-4.7-2.14-6.81c1.16-6.45,3.02-12.79,4.79-19.11c2.5-8.93,10.07-13.25,20.07-11.62
			c6.62,1.07,12.53,9.59,12.08,17.41c-0.31,5.32-2.05,6.21-6.91,4.24c-1.59-0.65-3.73,0.06-5.62,0.15
			C456.77,281.25,456.81,281.78,456.84,282.31z"/>
		<path d="M495.02,348.45c0.88-4.44,1.88-8.86,2.61-13.32c0.91-5.55,0.49-11.62,7.05-14.49c0.72-0.32,1.48-2.35,1.13-3.04
			c-4.07-8.13,3.71-14.04,2.59-21.8c3.99,0.63,7.92,2.93,7.43-2.87c-6.03-2.05-6.64-3.3-4.73-9.42
			c3.9-12.45,12.71-16.66,24.39-11.64c7.7,3.31,9.71,10.82,5.1,18.01c-4,6.24-7.55,12.77-11.64,18.94c-0.84,1.27-3.12,1.9-4.84,2.17
			c-1.48,0.23-3.11-0.48-4.89-0.81c0.12,0.93,0.01,1.66,0.27,1.84c5.73,3.95,1.95,6.41-0.98,9.82
			c-6.55,7.64-12.53,15.76-18.76,23.68c-0.99,1.25-2.06,2.44-3.09,3.65C496.12,348.93,495.57,348.69,495.02,348.45z"/>
	</g>
</g>
</svg>
