<?xml version="1.0" encoding="utf-8"?>
<!-- Generator: Adobe Illustrator 26.2.1, SVG Export Plug-In . SVG Version: 6.00 Build 0)  -->
<svg version="1.1" id="Layer_1" xmlns="http://www.w3.org/2000/svg" xmlns:xlink="http://www.w3.org/1999/xlink" x="0px" y="0px"
	 viewBox="0 0 960 560" style="enable-background:new 0 0 960 560;" xml:space="preserve">
<g>
	<g>
		<path d="M606,370c-6.13-2.33-11.72,0.35-17.43,1.88c-2.72,0.73-5.38,1.79-8.15,2.2c-5.99,0.9-11.83,0.98-14.76-7.12
			c-1.8,5.19-4.56,6.17-8.61,5.35c-7.42-1.49-14.94-2.47-22.38-3.89c-4.85-0.93-9.58-2.61-14.46-3.31
			c-3.41-0.49-7.19-0.58-10.42,0.4c-3.34,1.02-5.78,1.3-8.72-0.97c-2.78-2.15-5.92-4.58-9.24,0.11c-0.94,1.34-3.93,1.44-6.04,1.71
			c-3.45,0.44-7.1,0.02-10.39,0.93c-4.36,1.21-8.45,3.34-10.42-3.65c-5.76,9.26-15.27,8.88-23.04,11.98
			c-5.16,2.06-10.56,3.6-15.96,4.94c-1.6,0.4-4.17-0.06-5.24-1.16c-2.36-2.41-4.12-2.27-6.28-0.08c-2.54,2.57-5.07,2.74-8.23,0.63
			c-1.63-1.09-4.09-1.28-6.18-1.27c-7.58,0.05-8.22-0.38-9.64-8c-0.12-0.65-0.28-1.31-0.5-1.93c-0.1-0.29-0.38-0.52-1.39-1.8
			c-1.71,2.48-3.21,4.64-4.99,7.21c-5.43-2.45-11.49-4.94-17.33-7.89c-5.08-2.56-8.43-6.86-10.24-12.3c0-1.33,0-2.67,0-4
			c0.58-1.01,1.14-2.02,1.75-3.01c4.58-7.43,8.5-8.16,15.35-2.93c1.05,0.8,2.15,1.76,3.37,2.05c5.45,1.3,9.08,4.54,10.71,9.87
			c8.48-3.56,12.43-2.05,15.3,5.96c2.32-3.25,4.61-4.46,8.95-3.03c3.07,1.02,7.21-1.19,11.55-2.1c0.89,0.74,2.59,2.53,4.64,3.7
			c0.99,0.57,3.41,0.51,3.87-0.16c2.93-4.3,7.71-4.01,11.85-5.32c1.33-0.42,2.59-1.04,5.17-2.1c-7.77-1.53-15.08,0.08-19.14-4.39
			c-3.65,0.41-6.28,1.03-8.87,0.92c-3.12-0.13-6.39-0.43-9.25-1.54c-1.74-0.68-3.57-2.83-4.05-4.67c-0.95-3.63-1.67-4.26-5.71-2.91
			c-3.81,1.27-8.54,0.25-12.73-0.48c-0.86-0.15-1.15-3.52-1.9-6.08c-0.99,0.24-3.02,0.11-3.89,1.06c-3.9,4.23-6.55,0.68-9.38-1.25
			c-3.64-2.48-6.29-5.59-4.76-10.47c2.07-6.6,8.14-9.29,13.08-13.01c0.76-0.57,2.78-0.24,3.77,0.38c3.35,2.09,6.94,4.11,9.57,6.95
			c1.48,1.6,1.26,4.78,2.06,8.39c4.7-8.94,10.47-3.87,15.88-2.73c2.36,0.5,4.79,1.44,7.11,1.25c6.6-0.55,8.41,0.33,11.14,6.31
			c0.67,1.47,1.71,2.78,2.53,4.07c0.69-0.22,1.18-0.24,1.26-0.43c2.36-5.89,6.46-5.56,11.8-4.25c4.88,1.19,10.17,0.94,15.28,0.93
			c2.77-0.01,4.14,0.9,5.11,3.48c1.84,4.88,3.39,5.13,6.64,0.9c2.29-2.97,4.88-3.35,8.33-2.89c2.53,0.34,5.63,0.45,7.7-0.71
			c4.94-2.77,9.37-4.2,14.03,1c4.65-4.64,8.79-10.2,16-9.66c5.73,0.43,13.43-1.98,13.75,7.99c12.81-6.16,21.9-2.41,24.68,7.11
			c5.57-4.02,9.23,1.3,13.48,3.04c3.58,1.46,6.61,4.34,9.8,6.71c3.81,2.83,7.68,5.61,11.21,8.76c1.72,1.54,2.64,3.96,4.09,5.85
			c0.8,1.04,1.85,2.01,2.99,2.67c1.86,1.08,3.88,1.88,5.84,2.8C606,368.67,606,369.33,606,370z M550.97,346.35
			c-3.05,0-7.54,0.39-11.89-0.2c-1.67-0.23-3.04-2.71-4.81-4.41c-1.39,2.19-2.73,4.32-4.23,6.7c-3.22-3.51-6.35-3.95-9.34-1.33
			c4.07,5.3,13.33,0.51,15.61,8.98c6.68-4.78,10.51-3.69,13.33,3.38c0.38,0.96,1.23,1.73,1.86,2.59c0.93-0.74,2.3-1.28,2.71-2.24
			c1.2-2.81,2.32-3.38,5.63-2.31c4.17,1.36,8.88,1.07,13.35,1.49c0.04-0.5,0.08-1,0.12-1.5
			C566.81,353.09,558.54,351.91,550.97,346.35z"/>
		<path d="M476.93,269.75c1.76-2.11,3.96-4.83,6.24-7.47c3.32-3.86,2.85-10.66-0.56-14.74c-1.39-1.66-1.79-4.14-2.8-6.63
			c-3.99,0.37-5.81-2.6-7.14-6.26c-0.68-1.87-1.27-3.92-2.46-5.44c-3.05-3.88-4.25-7.43,0.99-10.76c-6-1.43-7-2.94-4.4-8.38
			c2.13-4.45,5.19-8.47,7.96-12.6c3.42-5.07,6.98-10.04,10.45-15.08c0.65-0.95,1.14-2.02,1.7-3.03c0.65,0.32,1.3,0.64,1.96,0.95
			c-0.22,2.47-0.21,4.99-0.71,7.4c-1.31,6.31-2.71,12.61-4.42,18.82c-0.31,1.11-2.26,1.77-3.45,2.64c-0.35-0.36-0.7-0.73-1.05-1.09
			c-0.15,0.27-0.49,0.7-0.42,0.79c2.73,3.47,2.67,7.09,2.08,11.43c-0.74,5.39,3.49,8.21,8.27,9.74c7.72,2.47,8.71,4.01,7.35,12.03
			c4.09,1.29,9.19,1.61,8.46,8.12c-0.47,4.18,0.87,8.74-3.38,11.92c-0.9,0.68-1.13,2.24-1.86,3.79c1.97,0,3.38,0,5.74,0
			c-2.42,8.06-1.85,16.56-7.57,23.03c-1.46,1.65-4.13,2.75-6.36,2.98c-0.93,0.09-2.16-2.75-3.57-4.71
			c-1.54,0.38-3.66,0.91-6.11,1.52c1.66,4.44,6.88,8.1,1.74,13.32c6.8,1.67,5.39,6.96,5.37,11.32c-0.03,7.54-6.93,15.41-14.08,16.66
			c-6.18,1.07-9.52-0.57-12-6.24c-1.71-3.89-3.25-7.87-4.64-11.89c-1.24-3.61-1.32-7.12,1.65-10.19c1.1-1.14,1.81-2.65,3.3-4.91
			c-2.87,0.52-4.73,0.85-7.46,1.35c-0.56-2.78-2-5.78-1.43-8.34c0.5-2.25,3.26-4,4.97-5.92c-0.85-0.89-1.05-1.3-1.31-1.34
			c-2.97-0.42-6.96,1.22-6.96-4.39c-0.01-5.34,2.82-10.25,7.37-11.01c2.94-0.49,6.04-0.96,8.93-0.52
			C470.59,267.12,473.71,268.65,476.93,269.75z"/>
	</g>
</g>
</svg>
