<?xml version="1.0" encoding="utf-8"?>
<!-- Generator: Adobe Illustrator 26.2.1, SVG Export Plug-In . SVG Version: 6.00 Build 0)  -->
<svg version="1.1" id="Layer_1" xmlns="http://www.w3.org/2000/svg" xmlns:xlink="http://www.w3.org/1999/xlink" x="0px" y="0px"
	 viewBox="0 0 960 560" style="enable-background:new 0 0 960 560;" xml:space="preserve">
<g>
	<g>
		<path d="M356,303c1.06-1.4,2.11-2.81,3.19-4.2c2.87-3.7,5.75-7.39,9.03-11.61c-2.15-6.06,8.71-21.02,19.17-23.49
			c-1.95-2.38-3.6-4.38-5.55-6.77c2.45-4.26,4.66-9.12,7.79-13.32c6.75-9.05,13.67-9.61,22.73-2.45c6.39,5.05,7.31,9.86,3.23,16.94
			c-0.32,0.56-1.07,1.3-0.91,1.64c3.73,8.06-5.2,11.35-6.71,17.46c-0.25,1.02-3.16,1.37-5.52,2.3c0.62,1.33,1.4,3.03,2.32,5.02
			c-2.36,3.33-4.84,6.82-7.74,10.91c3.3,2.19,6.18,4.87,9.58,6.19c6.36,2.47,7.56,7.8,8.78,13.36c0.27,1.22,0.4,2.48,0.59,3.72
			c0.43,0.17,0.86,0.35,1.3,0.52c1.71-2.38,3.43-4.77,5.64-7.85c2.25,2.48,4.56,4.99,6.84,7.52c3.11,3.45,6.26,4.76,10.02,0.72
			c2.22-2.38,4.65-2.44,6.22,0.04c4.54-3.91,9.01-7.76,14.47-12.47c-1.29-0.9-2.81-1.84-4.18-2.96c-2.09-1.7-4.02-3.33-2.6-6.72
			c0.48-1.14-0.91-3.06-2.47-4.45c-0.49,1.67-0.97,3.33-1.47,5.04c-0.68-0.07-1.35,0.07-1.61-0.19c-4.8-4.89-10.63-7.59-17.28-9.22
			c-5.4-1.32-5.98-4.05-3.32-8.95c3.4-6.27,6.61-12.66,9.88-19c1.09-2.11,1.98-4.14,5.17-3.51c1.02,0.2,3.03-1.06,3.38-2.06
			c0.35-1.02-0.75-2.57-1.32-3.84c-0.5-1.1-1.9-2.45-1.61-3.14c1.67-3.93,3.78-7.67,5.65-11.52c2.71-5.56,7.67-6.01,12.98-6.03
			c5.69-0.02,10.8,1.27,15.15,5.16c4.62,4.13,6.66,11.6,4.3,17.23c-0.33,0.79-1.66,1.35-2.63,1.63c-2,0.58-4.08,0.91-6.27,1.36
			c1.66,2.89,4.11,5.27,4.09,7.62c-0.02,2.62-2.28,5.22-4.23,9.18c2.59-1.03,3.87-1.47,5.1-2.04c2.45-1.12,4.63-2.21,7.11,0.44
			c2.13,2.27,4.07,0.95,4.67-1.69c0.9-3.99,3.51-5.12,7.2-5.49c4.12-0.41,8.16-1.68,12.28-1.89c2.54-0.13,5.14,1.03,8.72,1.84
			c4.19-4.61,10.66-2.17,16.24-0.8c12.24,3,24.21,7.13,36.27,10.86c1.18,0.36,2.21,1.17,4.49,2.41c-1.94,0.29-2.61,0.5-3.26,0.46
			c-4.6-0.27-9.2-0.88-13.79-0.82c-9.12,0.12-18.24,0.53-27.35,1c-2.45,0.13-5.08,0.47-7.24,1.51c-4.11,1.98-7.46,2.52-10.05-2.16
			c-0.33-0.59-1.85-1.09-2.43-0.81c-0.7,0.33-1.3,1.5-1.38,2.36c-0.13,1.27,0.24,2.58,0.51,4.75c-10.91-1.88-18.52,5.72-28.17,8.63
			c2.66,3.85,5.21,7.65,7.9,11.35c0.38,0.53,1.48,1.01,2.06,0.84c5.84-1.72,7.7,1.92,8.74,6.55c0.51-0.17,1.01-0.22,1.03-0.35
			c0.91-6.28,0.95-6.56,7.79-5.6c14.96,2.08,29.88,4.42,44.8,6.81c2.32,0.37,4.5,1.61,7.9,2.87c-1.98,1.07-2.73,1.79-3.54,1.87
			c-10.84,1.1-21.67,2.47-32.55,2.97c-3.69,0.17-7.48-1.9-10.45-2.73c-5,2.08-9.69,4.24-14.54,5.97c-2.72,0.97-3.76,2-2.76,5.02
			c1.14,3.44,1.79,7.05,2.43,10.63c0.57,3.18,2.59,2.77,4.8,2.32c3.98-0.79,8.16-2.65,11.24,2.51c4.51-6.53,10.56-5.26,16.56-4.23
			c0.64,0.11,1.39,0.52,1.9,0.32c12.38-4.84,24.15-0.97,34.67,4.55c9.08,4.77,16.82,12.26,24.75,19.01
			c4.51,3.83,8.23,8.59,12.3,12.94c0,0.67,0,1.33,0,2c-2-1.21-4.55-1.99-5.89-3.71c-3.04-3.91-6.59-6.21-11.57-6.89
			c-5.58-0.76-11.11-1.99-16.56-3.41c-1.79-0.47-3.77-1.83-4.78-3.36c-2.76-4.18-6.59-4.46-9.43-0.21
			c-0.97,1.46-1.63,3.13-2.37,4.56c-6.16-0.36-12.05-2.28-17.91,1.46c-1.72,1.1-5.09-0.41-7.78-0.73
			c-3.14,1.26-6.67,3.08-10.42,4.01c-2.24,0.56-5.13,0.39-7.19-0.59c-4.02-1.9-6.07-1.58-6.05,2.61c0.03,5.05-3.03,5.79-6.71,6.95
			c-3.67,1.16-7.02,3.28-10.65,4.61c-1.88,0.69-4.05,0.8-6.08,0.75c-1.66-0.04-3.3-0.72-5.42-1.23c0.41,1.99,0.45,3.2,0.91,4.22
			c1.87,4.08-0.05,6.06-3.43,8.29c-7.06,4.66-14.59,4.23-22.11,2.7c-8.24-1.68-19.42-14.88-15.6-26.12c1.62-4.76,4.32-9.16,6.66-14
			c-1.86-1.47-3.93-3.1-6.21-4.91c-2.13,1.56-5.01,2.58-5.93,4.53c-3.78,7.96-10.69,9.11-18.05,8.59c-5.54-0.4-9.18-4.17-11.43-9.26
			c-1.8-4.08-0.68-7.46,2.21-10.46c8.42-8.75,8.43-8.75-1.88-15.03c-0.84-0.51-1.8-1.11-2.73-1.16
			c-7.12-0.36-11.39-3.67-11.95-11.07c-0.01-0.16-0.54-0.28-0.88-0.43c-1.58,1.49-3.16,3-5,4.73c-4.99-7.44-11.53-11.11-19.73-12.42
			c-2.18-0.35-4.04-2.63-6.05-4.02C356,305,356,304,356,303z M485.75,339.28c-3.13-2.97-5.7-6.41-9.12-8.35
			c-3.39-1.92-7.63-2.31-10.69-3.16c-6.23,4.51-11.92,8.63-17.75,12.84c2.84,3.71,4.74,6.67,7.16,9.1c1.03,1.03,3.45,1.71,4.75,1.24
			c5.42-1.97,10.61-5.04,16.26-0.58C477.99,343.33,477.99,343.33,485.75,339.28z"/>
		<path d="M499.76,190.36c-1.03-2.69-1.6-5.72-3.22-7.99c-2.02-2.83-1.88-4.62,0.77-6.7c3.14-2.46,6.04-5.22,9.15-7.72
			c8.89-7.15,23.26-7.2,31.59,0.55c2.66,2.47,4.72,6.62,5.16,10.23c1.24,9.95-1.97,18.74-8.41,26.66
			c-6.86,8.43-14.18,15.74-25.3,18.18c-3.66,0.81-7.85-0.37-11.06,3.08c-0.62,0.66-3.96-1.2-4.83-1.5
			c-2.64,1.23-4.64,2.92-6.66,2.95c-7.1,0.1-14.35,0.43-21.25-0.89c-4.77-0.91-9.05-4.38-13.84-6.85c-4.03,9.16-12.2,3.8-18.52,2.27
			c-7.41-1.79-14.35-5.73-21.31-9.12c-3.95-1.93-7.46-4.67-6.51-9.76c-0.82-0.3-1.27-0.59-1.39-0.49
			c-6.03,5.31-10.31,1.14-14.32-2.86c-7-6.97-15.29-13.02-17.97-23.33c-1.17-4.52-2.23-9.06-3.34-13.6c0.65-0.22,1.3-0.44,1.95-0.67
			c1.05,1.75,1.88,3.7,3.2,5.23c5.25,6.12,10.16,12.69,16.22,17.91c3.02,2.6,8.19,2.85,12.47,3.78c3.23,0.7,6.58,0.94,9.89,1.14
			c4.53,0.27,8.66,0.8,8.54,6.82c-0.01,0.41,0.44,0.84,1.27,2.31c2.09-5.75,5.15-7.31,10.37-6.03c6.67,1.64,2.38,7.57,5.71,11.27
			c1.42-1.2,3.61-2.17,4.31-3.78c2.25-5.19,5.3-7.89,11.46-7.22c5.99,0.65,12.1,0.14,18.13,0.14c0.56,2.8,1.08,5.4,1.6,8.01
			c0.49,0.24,0.98,0.48,1.47,0.72c2.09-9.79,9.59-13.48,17.73-16.7c1.54,1.44,3.39,3.17,5.24,4.91
			C498.62,190.97,499.19,190.67,499.76,190.36z"/>
	</g>
</g>
</svg>
