<?xml version="1.0" encoding="utf-8"?>
<!-- Generator: Adobe Illustrator 26.2.1, SVG Export Plug-In . SVG Version: 6.00 Build 0)  -->
<svg version="1.1" id="Layer_1" xmlns="http://www.w3.org/2000/svg" xmlns:xlink="http://www.w3.org/1999/xlink" x="0px" y="0px"
	 viewBox="0 0 960 560" style="enable-background:new 0 0 960 560;" xml:space="preserve">
<g>
	<g>
		<path d="M606,314c-1.25-0.65-2.7-1.07-3.71-1.98c-9.82-8.9-19.43-18.04-29.4-26.76c-2.93-2.56-6.96-3.82-10.28-5.99
			c-3.87-2.54-3.75-4.5-0.01-7.18c1.66-1.19,3.22-2.52,4.83-3.79c-0.22-0.62-0.43-1.23-0.65-1.85c-4.35,0.84-8.68,1.8-13.06,2.45
			c-2.15,0.32-5.11,0.96-6.46-0.11c-5.91-4.69-13.06-4.92-19.81-6.76c-2.45-0.67-5.03-2.79-6.43-4.96c-1.92-3-4.97-4.1-7.96-2.14
			c-1.71,1.12-3.92,1.54-5.95,2.1c-0.93,0.26-2.02-0.07-2.98,0.13c-6.72,1.44-13.46,3.01-14.89-7.91c-0.62,0.21-1.24,0.42-1.86,0.63
			c-1.42,2.9-3.49,5.67-4.07,8.72c-0.63,3.27-1.81,4.28-5.03,4.75c-3.77,0.56-7.39,2.16-11.06,3.38c-4.81,1.6-9.59,4.53-14.15,0.06
			c-5.73,4.21-11.11,8.62-16.94,12.32c-9.47,6.02-21.86,2.28-27.1-7.77c-5.56-10.66-5.16-13.85,2.64-23.3
			c6.26-7.58,13.26-13.97,23.93-15.46c2.43,3.56,4.97,7.27,7.82,11.44c1.53-3.65,2.4-6.53,3.88-9.06c2.36-4.01,4.49-3.9,6.89,0.09
			c1.65,2.74,3.17,5.57,4.75,8.36c0.67-0.15,1.33-0.3,2-0.45c0-2.47,0.25-4.97-0.06-7.4c-0.5-3.85,0.56-5.94,4.79-6.23
			c9.41-0.64,18.8-1.67,28.21-2.18c1.56-0.08,3.43,1.42,4.77,2.62c1.41,1.26,2.38,3.02,3.87,5c1.04-2.11,1.76-3.57,2.93-5.94
			c7.58,2.17,15.42,4.08,23.01,6.68c7.44,2.56,14.64,5.83,22.19,8.89c-0.44,1.79-0.99,4.03-1.54,6.28c0.17,0.52,0.33,1.03,0.5,1.55
			c5.4-6.99,9.49-2.82,13.94,0.06c5.29,3.42,10.87,6.39,16.21,9.73c6.64,4.14,6.95,5.61,3.18,12.21c-0.4,0.7-0.74,1.44-1.19,2.33
			c8.8,3.02,13.41,9.93,17.37,17.51c2.26,4.33,4.59,8.61,6.89,12.91C606,309.33,606,311.67,606,314z"/>
		<path d="M356,330c0.52-2.72,1.28-5.43,1.5-8.17c0.5-6.24,0.64-12.51,1.13-18.76c0.22-2.89,1.43-5.01,5.01-4.95
			c1.15,0.02,2.32-1.33,3.48-2.05c-1.13-0.92-2.16-2.03-3.42-2.7c-1.41-0.74-3.03-1.07-5.1-1.75c1.89-2.95,3.48-5.43,5.3-8.28
			c-1.23-0.57-2.41-1.12-4.34-2.02c2.55-4.75,4.52-9.56,7.47-13.67c4.46-6.2,11.83-7.17,18.72-3.2c6.26,3.6,9.89,11.91,6.58,17.96
			c-1.54,2.8-6,4-9.67,6.25c-0.11-0.18,0.98,0.82,1.01,1.85c0.07,2.11,0.12,5.76-0.8,6.1c-5.79,2.11-6.08,7.9-8.71,12
			c-5.1,7.97-9.7,16.25-14.68,24.3c-0.63,1.02-2.3,1.4-3.49,2.08C356,333.33,356,331.67,356,330z"/>
		<path d="M476.75,293.47c1.12-1.89,1.93-4.07,3.42-5.6c3.09-3.19,6.68-5.9,9.81-9.06c4.83-4.87,13.93-9.53,19.46-9.02
			c-7.2,11.46-10.38,24.59-19.13,35.09c1.21,1.94,4.42,4.89,3.87,6.69c-1.2,3.95-4.03,7.55-6.7,10.89
			c-4.35,5.44-11.23,7.33-15.83,4.46c-8.32-5.19-12.53-10.1-9.27-18.38c1.09-2.77,2.37-5.52,4-7.98c1.91-2.89,4.09-5.69,8.41-4.85
			c0.91,0.18,2.05-0.81,3.08-1.26C477.51,294.12,477.13,293.79,476.75,293.47z"/>
		<path d="M524.2,317.02c0.06,0.08,0.95,1.25,1.8,2.37c-3.97,8.97-13.29,14.14-20.68,11.58c-7.18-2.49-9.85-11.35-5.34-17.44
			c1.96-2.65,3.61-5.54,5.62-8.15c0.67-0.88,2.02-1.82,3.03-1.78c4.11,0.17,5.57-1.04,3.89-5.25c-0.59-1.49-0.69-3.93,0.15-5.1
			c3.37-4.7,6.73-9.61,11.02-13.39c2.73-2.4,7.1-2.93,11.4-4.55c-0.26,1.35-0.36,2.69-0.8,3.91c-1.88,5.32-4.22,10.52-5.65,15.95
			c-0.87,3.32,0.01,7.08-0.64,10.5C527.36,309.12,525.8,312.4,524.2,317.02z"/>
	</g>
</g>
</svg>
