<?xml version="1.0" encoding="utf-8"?>
<!-- Generator: Adobe Illustrator 26.2.1, SVG Export Plug-In . SVG Version: 6.00 Build 0)  -->
<svg version="1.1" id="Layer_1" xmlns="http://www.w3.org/2000/svg" xmlns:xlink="http://www.w3.org/1999/xlink" x="0px" y="0px"
	 viewBox="0 0 960 560" style="enable-background:new 0 0 960 560;" xml:space="preserve">
<g>
	<g>
		<path d="M356,329c6.61-3.66,13.9-3.74,21.18-4.43c6.71-0.64,13.26-2.79,19.96-3.61c4.34-0.53,8.83,0.07,13.24,0.27
			c4.06,0.18,8.11,0.51,12.48,0.79c0.25-4.67,1.14-8.62-5.18-7.27c-0.78,0.17-1.89-0.96-2.77-1.59c-1.49-1.06-2.79-2.43-4.38-3.27
			c-6.81-3.63-6.84-3.58-4.11-11.3c0.15-0.42,0.14-0.88,0.27-1.7c-1.14,0.08-2.36-0.22-2.94,0.26c-4.39,3.6-7.57,1.63-10.53-2.01
			c-0.73-0.9-1.47-1.9-2.43-2.5c-9.15-5.69-9.26-15.86-2.95-24.78c7.1-10.05,23.39-9.77,29.47,0.91c0.76,1.33-0.2,3.64-0.37,5.49
			c-0.14,1.53-0.27,3.06-0.41,4.6c1.58,0.13,3.35,0.79,4.7,0.3c3.17-1.17,4.42,0.02,6.28,2.62c3.08,4.29,5.34,8.43,2.84,14.87
			c2.47-1.26,3.61-2.35,4.69-2.29c1.61,0.1,3.64,0.56,4.66,1.64c3.4,3.61,6.27,7.72,9.68,11.32c2.24,2.36,4.67,2.34,7.22-0.41
			c6.14-6.63,12.58-12.98,18.88-19.46c1.5-1.54,3.26-2.96,4.28-4.78c2.21-3.95,4.71-4.91,8.37-1.85c0.54,0.45,1.53,0.35,3.25,0.69
			c-0.59-2.49-1.04-4.42-1.66-7.04c4.51-3.74,9.23-7.92,14.25-11.69c2.47-1.85,3.61-3.25,2.24-6.52c-2.14-5.11,2.57-4.46,5.85-5.89
			c-8.87-0.06-12.6-4.47-11.37-11.15c-3.55-2-6.12-3.16-8.37-4.78c-2.76-1.99-4.48-0.34-4.88,1.77c-0.8,4.15-3.06,4.22-6.49,3.89
			c-3.26-0.31-6.61,0.6-9.92,0.54c-8.73-0.13-8.72-0.22-13.6-8.72c-0.65,1.7-0.99,3.03-1.64,4.19c-0.79,1.4-1.6,3.44-2.84,3.83
			c-4.66,1.5-9.47,2.66-14.3,3.53c-3.58,0.65-7.28,0.92-10.91,0.85c-2.35-0.04-4.69-1.01-7.78-1.73
			c-3.79,4.52-12.73,5.02-18.24-0.05c-1.46-1.34-2.9-2.75-4.54-3.83c-5.35-3.55-7.23-8.13-5.73-14.48
			c2.56-10.9,11.83-17.97,23.26-17.85c7.1,0.08,14.26-0.52,21.26,0.3c2.87,0.34,5.39,3.62,7.45,5.11c1.53-0.55,3.44-1.74,5.39-1.82
			c5.26-0.19,10.54,0.11,15.82,0.19c2.97,0.04,4.78,0.48,4.84,4.47c0.03,2.24,2.9,4.44,4.89,7.22c1.6-3.39,2.41-7.2,3.63-7.33
			c5.56-0.61,11.23-0.23,16.86-0.12c1.55,0.03,3.1,0.37,5.08,0.62c-0.99-4.17-3.25-8.17-2.22-10.98c0.96-2.64,5.38-4.02,9.11-6.51
			c-2.65-1.39-4.35-3.03-6.05-3.02c-4.73,0.03-5.09-2.46-5.26-6.33c-0.41-9.35,2.52-16.36,8.69-19.08
			c9.36-4.13,20.24-2.43,26.08,4.84c3.92,4.88,5.56,10.86,4.55,17.48c-1.18,0.48-2.59,0.71-3.51,1.51c-1.41,1.22-2.48,2.83-3.7,4.27
			c1.51,0.6,3.18,0.97,4.49,1.86c1.18,0.8,2.75,2.16,2.78,3.3c0.07,3.42-0.52,6.85-0.88,10.43c-1.96,0-3.37,0-5.16,0
			c0.51,0.61,0.71,1.11,1.04,1.21c1.42,0.44,2.87,1.07,4.32,1.07c5.93,0.02,11.55,0.55,13.69,5.45c3.48-0.77,6.2-2.2,8.57-1.76
			c13.03,2.42,26.01,5.18,38.93,8.12c2.71,0.62,5.13,2.47,7.68,3.75c-0.14,0.51-0.27,1.02-0.41,1.53c-4.83,0-9.7-0.36-14.48,0.09
			c-6.57,0.62-13.2,1.39-19.58,2.97c-4.47,1.11-8.13,2.42-9.39-4.3c-2.23,1.96-3.74,4.21-5.74,4.79c-2.2,0.64-4.99-0.85-7.28-0.33
			c-6.31,1.42-12.49,3.4-19.46,5.37c3.2,3.19,11.93,2.05,7.86,10.3c2.36,0.4,4.12,1.03,5.83,0.93c3.57-0.21,5.88,0.58,5.87,4.77
			c0,0.74,1.79,2.22,1.99,2.1c1.19-0.73,2.4-1.67,3.15-2.83c1.07-1.66,1.34-4.68,2.67-5.17c3.99-1.47,8.3-2.36,12.54-2.69
			c1.53-0.12,3.23,2.01,5.37,3.47c5.4-6.37,12.62-2.27,19.21-1.33c7.14,1.01,13,4.78,14.76,12.68c0,4,0,8,0,12
			c-0.34,0.68-0.95,1.35-0.96,2.03c-0.08,5.28-2.97,8.03-7.96,8.33c-3.6,0.22-7.24-0.46-10.85-0.42c-3.99,0.04-6.18-1.31-6.5-5.65
			c-0.09-1.31-2.01-2.48-3.1-3.72c-1.2,1.26-2.72,2.36-3.48,3.85c-0.52,1.02-0.2,2.64,0.13,3.89c0.68,2.56,0.09,3.13-2.63,2.8
			c-3.16-0.38-6.42,0.19-9.62,0.04c-1.89-0.09-4.36-0.15-5.52-1.29c-6.07-5.92-13.9-7.44-21.12-2.65c-3.42,2.27-5.79,6.13-8.79,9.45
			c3.7,1.67,3.76,4.79,3.08,8.61c-0.97,5.45,0.98,7.03,6.31,5.74c2.1-0.5,4.19-1.4,6.3-1.42c4.81-0.06,10.17-1.4,13.21,4.49
			c1.96-2.73,3.51-2.18,5.8-0.31c5.17,4.24,5.92,10.15,5.47,15.8c-0.36,4.63-0.76,10.73-6.68,12.27c-5.28,1.37-10.91,1.43-16.4,1.97
			c-0.51,0.05-1.37-0.47-1.58-0.94c-2.71-6.06-5.1-5.22-7.42,0.24c-0.18,0.43-0.59,0.83-0.98,1.11c-4.64,3.36-4.52,5.39,0.12,9.13
			c4.08,3.28,10.05,4.9,10.18,12.88c3.08-5.19,5.99-3.94,9.49-2.5c4.09,1.68,8.58,2.36,12.87,3.55c0.94,0.26,1.8,0.82,2.7,1.24
			c-7.36,2.48-14.61,3.98-21.87,5.39c-2.72,0.53-5.54,1.45-8.19,1.12c-4.13-0.51-8.87-0.89-9.78-6.62c-1.2,8.9-2.4,17.79-3.6,26.69
			c-0.5,0.07-0.99,0.14-1.49,0.2c-0.81-1.85-1.44-3.82-2.48-5.54c-2.61-4.32-5.04-8.84-8.25-12.69c-2.36-2.84-3.83-4.66,0.65-6.43
			c-5.17-5.37-15.78-9.72-29.58-12.29c-0.44-1.44-0.88-2.88-1.47-4.83c-1.02,1.12-1.78,1.63-2.06,2.33
			c-2.12,5.29-5.11,5.87-10.4,3.49c-6.39-2.87-13.21-4.78-20.24-7.25c-1.55,5.78-3.84,10.49-8.19,10.76
			c-3.64,7.2-6.88,13.01-9.55,19.07c-2.61,5.93-4.63,12.11-6.91,18.18c-1.11-8.91-1.71-17.38-0.94-25.73
			c0.75-8.14,6.69-14.81,7.84-23.1c0.41-2.94,2.54-5.64,4.07-8.84c-8.88-0.78-17.17-1.7-25.49-2.18
			c-6.26-0.36-12.79,0.52-16.63-6.57c-4.51,6.12-10.56,4.69-15.88,3.87c-7.21-1.11-14.24-3.19-21.61-1.54
			C356,330.33,356,329.67,356,329z M509.2,307.63c-0.48-7.61-0.92-14.63-1.41-22.42c-2.45,2.02-4.26,3.42-5.97,4.93
			c-1.82,1.61-3.56,3.31-5.43,5.06c-1.06-0.84-1.87-1.77-2.88-2.22c-1.29-0.58-2.75-0.77-4.14-1.14c0.71,1.04,1.21,2.39,2.19,3.05
			c2.62,1.78,1.95,3.4,0.25,5.29c-2.42,2.68-4.76,5.43-7.84,8.95c4.51-0.74,7.96-1.08,11.28-1.93c3.54-0.9,5.74-0.53,6.32,3.69
			c0.24,1.75,1.54,3.36,2.68,5.69C506.31,312.85,507.9,309.98,509.2,307.63z M487.46,335.96c6.15,2.63,12.38,5.29,18.79,8.03
			c2.2-8.99,1.49-10.08-6.02-9.85c-3.7,0.11-6.91-0.21-8.75-4.02c-0.27-0.55-1.23-0.78-2.06-1.27
			C488.78,331.18,488.24,333.15,487.46,335.96z"/>
	</g>
</g>
</svg>
