<?xml version="1.0" encoding="utf-8"?>
<!-- Generator: Adobe Illustrator 26.2.1, SVG Export Plug-In . SVG Version: 6.00 Build 0)  -->
<svg version="1.1" id="Layer_1" xmlns="http://www.w3.org/2000/svg" xmlns:xlink="http://www.w3.org/1999/xlink" x="0px" y="0px"
	 viewBox="0 0 960 560" style="enable-background:new 0 0 960 560;" xml:space="preserve">
<g>
	<g>
		<path d="M554,156c-0.1,1.47,0.21,3.13-0.38,4.37c-3.04,6.45-6.2,12.85-9.56,19.14c-0.88,1.65-2.63,2.82-3.43,3.65
			c-1.1,3.51-1.54,6.84-3.1,9.53c-3.67,6.34-7.58,12.34-7.71,20.18c-0.05,2.88-2.56,5.72-4.06,8.55
			c-2.71,5.97-5.42,11.95-8.28,18.24c2.61,1.29,4.64,2.3,7.97,3.96c0.81-3.11,1.36-5.74,2.23-8.25c0.36-1.04,1.59-2.7,2.17-2.6
			c6.66,1.17,8.5-3.61,9.27-8.13c-0.19-1.9-1.13-4.17-0.42-5.64c2.82-5.79,6.16-11.32,9.3-16.95c0.24-0.43,0.31-1.28,0.58-1.33
			c6.86-1.46,6.43-8.6,9.78-12.79c3.58-4.47,5.69-10.09,8.73-15.03c2.13-3.46,4.73-6.62,8.28-9.49c0,0.98,0.2,2.01-0.03,2.94
			c-2.38,9.67-4.61,19.38-7.38,28.93c-0.83,2.86-3.22,5.28-5.63,9.05c0.45,3.21-6.49,14.27-12.39,16.9c1.34,1.89,2.6,3.67,3.86,5.44
			c-3.49,5.48-7.79,10.57-10.05,16.44c-1.18,3.06-1.16,6.77-3.19,9.81c-0.29,0.43,0.38,1.98,1.02,2.47c3.51,2.71,6.69,5.5,5.86,8.62
			c3.26,2.98,6.21,4.65,7.59,7.17c2.3,4.2,3.57,8.95,5.32,13.46c2.79,7.18,5.82,14.27,8.32,21.55c1.02,2.96,0.92,6.3,1.33,9.46
			c-0.49,0.16-0.98,0.32-1.47,0.47c-2.11-3.76-4.15-7.56-6.37-11.26c-1.18-1.97-2.89-3.64-3.97-5.65c-1.12-2.1-1.75-4.45-2.73-7.03
			c-2.87-3.7-5.99-7.95-9.38-11.99c-1.66-1.98-3.88-3.48-5.69-5.35c-0.94-0.97-1.98-2.2-2.2-3.45c-0.84-4.88-3.9-6.44-8.3-3.69
			c-4.25,2.65-8.78,4.14-12.98,0.96c-2.56-1.95-4.52-5.15-5.81-8.19c-1.57-3.69-3.39-4.53-6.84-2.65c-4.6,2.51-8.71,2.88-13.09-1.31
			c-1.9-1.82-5.84-2.25-8.78-2.06c-3.78,0.25-6.7,0.17-7.92-4.57c-0.4,6.71-5.76,7.44-9.86,8.78c-4.33,1.41-9.27,2.04-11.83-3.93
			c0.35,2.19,1.2,4.48,0.81,6.54c-0.15,0.77-3.15,1.01-5.46,1.66c-0.03,2.57,0.53,6.52-3.73,8.66c-3.25,1.64-6.33,3.62-10.03,5.75
			c0.04,3.68-7.05,9.84-13.35,10.38c-8.13,0.7-12.36-4.72-16.13-10.57c-3.64-5.64-4.18-11.78-0.21-17.28
			c1.14-1.58,4.81-1.34,7.07-1.87c-0.59-1.38-2.53-3.8-2.31-5.99c0.24-2.38,2.3-4.7,3.93-6.77c1.96-2.49,1.64-4.25,0.04-7.03
			c-3.34-5.8-8.44-10.36-10.17-17.48c-1.02-4.19-6.15-7.3-9.08-11.16c-1.28-1.69-1.71-4.03-2.48-6.09
			c-0.31-0.84-0.35-1.82-0.81-2.56c-4.43-7.16-8.93-14.27-13.4-21.4c0.46-0.41,0.93-0.83,1.39-1.24c0.96,0.62,2.1,1.08,2.87,1.88
			c8.31,8.62,17.23,16.77,24.55,26.17c3.59,4.61,8.82,7.13,11.89,11.92c1.11,1.73,1.78,3.75,2.84,6.06
			c4.19-1.59,5.76,2.82,7.82,5.89c2.48,3.7,5.39,4.49,9.57,2.72c-2.74-5.85-5.41-11.55-8.91-19.01c-3.63-1.66-4.72-6.32-3.17-10.63
			c-4.5-5.22-8.35-9.69-12.2-14.17c3.31-6.91-3.86-9.72-5.8-14.57c-2.22-5.54-5.07-10.82-7.62-16.23c-0.34-0.72-0.48-1.54-0.71-2.31
			c0.67,0,1.33,0,2,0c5.65,6.24,11.27,12.5,16.94,18.71c2.84,3.11,6.93,5.51,5.63,10.83c-0.15,0.59,0.5,1.56,1.03,2.11
			c3.85,3.97,7.99,7.69,11.57,11.88c1.63,1.91,2.18,4.74,2.79,6.15c2.04,3.04,3.46,5.13,4.85,7.23c0.43,0.65,0.77,1.89,1.22,1.92
			c5.5,0.37,6.55,5.52,9.12,8.76c2.56,3.23,4.96,4.5,9.1,3.84c8.93-1.43,8.97-1.22,13.11,4.92c1.32-1.51,2.7-3.09,4.09-4.67
			c1.28,1.71,2.56,3.42,4.03,5.38c0.6-5.54,3.7-5.48,8.09-4.06c6.64,2.14,8.32,1.25,11.98-4.44c1.6-2.49,3.38-4.86,4.97-7.14
			c1.84,0.18,3.42,0.34,3.72,0.37c2.14-4.64,4.08-8.39,5.6-12.31c0.96-2.46,1.32-5.17,1.93-7.77c0.19-0.8,0.05-1.79,0.48-2.4
			c6-8.54,11.85-17.19,18.19-25.47c3.78-4.94,8.34-9.28,12.55-13.89C553.33,156,553.67,156,554,156z"/>
		<path d="M462,406c1-7.72,1.79-15.48,3.12-23.14c0.55-3.18,2.31-6.14,3.39-9.25c0.42-1.22,0.58-2.55,0.69-3.85
			c0.56-6.34,0.92-12.69,1.71-19c0.2-1.59,1.69-3.01,2.7-4.68c-2.32-4.79,0.22-9.59,1.43-14.41c1.15-4.56-0.31-10.42,6.36-12.48
			c-5.37-6.71,0.58-12.52,0.71-19.51c-2.99,0.77-5.6,1.43-8.59,2.2c-0.3-0.78-0.72-1.86-1.33-3.41c-1.03,1.71-1.86,3.09-3.14,5.21
			c-2.02-3.42-3.22-5.45-4.41-7.47c0.14,5.5,4.31,11.42-3.61,15.2c-5.55,2.65-10.47,2.78-15.02-0.87
			c-2.69,3.66-5.31,7.22-8.74,11.87c0.49,4.56-8.74,17.08-14.66,17.79c-3.98,15.23-19.5,21.21-26.19,34.27
			c-0.46-0.31-0.92-0.61-1.38-0.92c2.84-5.49,5.55-11.05,8.56-16.44c2.15-3.85,6.72-7.57,6.57-11.2c-0.22-5.55,3.82-8.19,5.21-12.39
			c0.45-1.35,1.44-3.01,2.62-3.52c3.4-1.47,4.62-3.93,4.51-7.38c-0.01-0.33-0.03-0.82,0.16-0.96c5.75-4.31,4.55-11.93,8.34-17.38
			c3.06-4.4,4.38-10.09,6.1-15.33c2.46-7.46,9.84-12.06,15.75-10.76c2.62-2.21,4.21-4.45,6.28-5.08c2.93-0.89,6.75-1.66,9.21-0.46
			c2.3,1.12,3.31,4.88,5.26,8.1c0.68-2.34,1.23-4.25,1.86-6.44c1.52-0.12,3.15-0.33,4.78-0.37c3.92-0.1,7.24-0.69,10.78-3.35
			c6.95-5.22,18.59,1.12,18.66,9.84c0.03,3.69,2.64,4.07,4.72,5.52c4.97,3.48,10.03,6.89,14.65,10.8c1.9,1.61,2.65,4.52,4.14,6.7
			c3.19,4.67,6.51,9.26,9.77,13.88c2.58,3.66,7.16,6.04,7.21,11.31c8.08,2.73,6.78,12.35,12.4,17c1.15,0.95,0.98,3.49,1.08,3.9
			c2.03,3.03,3.44,4.97,4.68,7.01c4.48,7.37,8.91,14.78,13.36,22.18c0.39,0.65,0.87,1.26,0.69,2.84c-1.01-0.44-2.23-0.66-3.01-1.36
			c-5.17-4.67-10.23-9.46-15.36-14.17c-2.56-2.36-5.2-4.64-7.81-6.94c-0.49-0.43-1.5-0.84-1.48-1.2c0.47-6.81-6.57-8.38-9.04-13.1
			c-0.94-1.81-1.77-3.68-2.02-4.2c-2.91-1.68-4.91-2.77-6.85-3.97c-1.52-0.94-3.18-1.79-4.38-3.06c-1.59-1.67-2.82-3.7-4.17-5.59
			c-1.39-1.95-2.31-4.83-4.19-5.74c-7.3-3.55-10.38-8.26-10.62-16.73c-0.05-1.67-1.74-3.73-3.26-4.79
			c-1.69-1.18-4.02-1.81-6.12-1.93c-1.4-0.08-3.4,0.77-4.21,1.87c-1.34,1.82-2.04,4.16-2.84,6.34
			c-3.96,10.87-8.05,21.71-11.72,32.68c-1.73,5.17-2.51,10.66-3.98,15.93c-0.52,1.86-1.82,3.5-2.92,5.51
			c-0.09,1.71,0.3,4.09-0.39,6.1c-4.19,12.23-8.61,24.39-12.98,36.56c-0.28,0.77-0.71,1.49-1.06,2.24C463.33,406,462.67,406,462,406
			z"/>
		<path d="M417.78,403.59c3.19-7.58,6.45-15.12,9.54-22.74c3.68-9.07,7.9-18.01,10.53-27.39c1.37-4.91,3.27-7.5,8.98-7.94
			c-1.46-2.01-2.37-3.26-3.82-5.25c3.05-5.8,5.88-12.32,9.74-18.16c3.11-4.71,8.2-6.79,13.84-4.36c1.77,0.76,4.09,3.08,4.07,4.66
			c-0.06,4.96-1.33,9.81-5.84,12.97c-0.65,0.46-1.58,0.75-1.92,1.38c-2.47,4.59-4.62,9.36-7.29,13.83
			c-1.36,2.27-3.66,3.97-5.43,6.02c-3.99,4.62-6.15,9.88-7.49,15.98c-1.03,4.7-4.37,9.04-7.22,13.17
			c-3.67,5.33-7.8,10.34-11.89,15.37c-1.16,1.43-2.88,2.41-4.34,3.6C418.75,404.35,418.26,403.97,417.78,403.59z"/>
		<path d="M517.43,349.86c-6.42,0.68-13.18-8.24-12.56-15.44c-7.69-0.55-9.64-2-9.49-9.17c0.06-2.87,1.79-6.89,4.04-8.21
			c2.54-1.49,6.52-0.58,9.87-0.58c0.52,0,1.27,0.64,1.53,1.17c2.81,5.65,5.29,11.48,8.36,16.99c3.37,6.06,7.45,11.73,10.82,17.8
			c1.33,2.41,1.58,5.42,2.53,8.93c4.81-1.25,5.76,3.81,7.81,7.6c3.98,7.36,7.95,14.71,11.93,22.07c-0.34,0.29-0.68,0.58-1.02,0.87
			c-1.07-0.8-2.3-1.46-3.19-2.43c-5-5.47-9.75-11.19-14.91-16.49c-3.55-3.65-7.8-6.6-11.44-10.16
			C518.18,359.36,513.29,356.19,517.43,349.86z"/>
	</g>
</g>
</svg>
