<?xml version="1.0" encoding="utf-8"?>
<!-- Generator: Adobe Illustrator 26.2.1, SVG Export Plug-In . SVG Version: 6.00 Build 0)  -->
<svg version="1.1" id="Layer_1" xmlns="http://www.w3.org/2000/svg" xmlns:xlink="http://www.w3.org/1999/xlink" x="0px" y="0px"
	 viewBox="0 0 960 560" style="enable-background:new 0 0 960 560;" xml:space="preserve">
<g>
	<g>
		<path d="M489,406c-2.53-6.41-5.33-12.74-7.51-19.27c-2.14-6.4-1.72-8.98,0.4-11.57c-1.6-5.66-3.44-11.03-4.54-16.55
			c-0.57-2.87-0.3-5.48-1.93-8.54c-1.67-3.15-1-8.59,0.57-12.18c2.56-5.82,10.6-5.83,14.56-0.75c2.8,3.6,3.85,14.52-1.02,17.87
			c2.28,3.98-0.19,25.74-2.17,27.96c0.31,3.64,0.44,6.02,0.73,8.38c0.59,4.88,1.27,9.76,1.91,14.64C489.67,406,489.33,406,489,406z"
			/>
		<path d="M485,156c0.94,4.46,1.89,8.93,2.83,13.39c1.27,5.97,4.23,11.89,0.83,18.23c3.12,3.32,3.01,8.16-0.42,11.76
			c1.24,1.45,2.49,2.91,3.99,4.67c-1.58,0.99-2.75,1.73-4.43,2.79c5.44,0.57,5.1,4.39,3.76,7.13c-1.33,2.72-3.92,5.39-6.63,6.71
			c-3.78,1.85-8.87-1.12-9.82-5.17c-0.82-3.53-1.5-7.43,2.73-7.57c0.17-2.85,0.02-5.23,0.5-7.48c1.06-5.05,3.88-9.59,2.84-15.27
			c-0.48-2.63,1.47-5.71,2.34-8.58c0.18-0.61,0.78-1.4,0.58-1.77c-3.43-6.29,0-12.58-0.09-18.86C484.33,156,484.67,156,485,156z"/>
		<path d="M537.29,271.61c-1.51,9.72-3.91,19.06-10.84,26.65c-3.69,4.04-7.07,8.4-10.32,12.81c-7.68,10.41-19.11,16.02-30.78,16.31
			c-11.08,0.27-23.8,2.27-33.64-7.1c-4.63-4.4-10.44-7.54-15.32-11.72c-2.01-1.71-3.38-4.49-4.34-7.05
			c-5.78-15.43-1.42-30.24,5.44-43.65c4.06-7.94,9.62-16.57,19.6-19.63c0.47-0.14,1.2-0.32,1.3-0.65
			c2.58-8.11,10.83-7.53,16.61-10.29c6.07-2.9,13.11-3.48,19.99-1.69c4.79,1.25,9.76,2,14.37,3.71c2.18,0.81,3.72,3.34,5.54,5.09
			c0.54,0.52,0.98,1.3,1.62,1.56c9.92,4.05,13.44,13.19,17.5,21.91c0.14,0.29,0.22,0.65,0.21,0.97c-0.19,6.78-6.94,7.72-10.42,11.56
			c-1.94,2.13-4.04,1.16-6.62-0.16c-3.08-1.58-4.61-3.46-5.13-6.63c-0.1-0.62-0.41-1.53-0.88-1.73
			c-7.8-3.42-11.67-11.28-18.28-16.02c-0.38-0.28-0.81-0.78-1.18-0.74c-6.34,0.61-12.95,0.39-18.94,2.22
			c-5.7,1.74-10.98,5.04-14.99,10.16c-3.88,4.94-9.14,8.82-12.91,13.83c-1.92,2.54-2.37,6.51-2.63,9.9
			c-0.39,4.96-0.01,9.98,0.06,14.97c0.01,0.65-0.06,1.47,0.29,1.92c5.96,7.65,12.52,15.19,21.71,18.4
			c11.09,3.88,22.72,3.21,33.57-1.92c4.94-2.34,9.71-5.19,14.18-8.34C524.35,297.61,532.07,285.55,537.29,271.61z"/>
		<path d="M372.39,283.45c-3.65,4.09-6.81,1.28-13.36-4.66c6.93,0,13.92,0.29,20.86-0.16c2.31-0.15,4.38-2.74,6.77-3.29
			c6.85-1.56,13.81-2.61,20.71-3.94c0.46-0.09,0.79-0.79,1.21-1.18c0.69-0.64,1.61-1.92,2.09-1.78c3.74,1.11,8.42,1.54,10.79,4.07
			c2.11,2.26,2.13,6.95,2.07,10.54c-0.02,1.31-2.88,3.49-4.6,3.65c-3.38,0.32-7.39,0.49-10.2-1.02c-6.38-3.43-12.1,0.08-17.85,0.93
			C385.15,287.46,375.43,286.91,372.39,283.45z"/>
		<path d="M601.95,279.67c-1.56,0-2.97,0.21-4.3-0.04c-6.08-1.11-12.23-3.47-18.17-2.99c-2.44,0.19-5.92-0.35-9.05,1.65
			c-3.14,2-8.01,1.29-13.82,1.96c-2.55,2.75-7.21,3.2-10.72-0.46c-3.95-4.12-3.63-11.13,0.7-14.72c0.5-0.41,1.19-0.93,1.75-0.88
			c5.51,0.44,11.01,0.96,16.51,1.54c0.58,0.06,1.23,0.99,1.63,0.86c6.06-2.03,10.94,1,16.55,2.53c7.06,1.93,12.16,6.44,18.39,9.24
			C601.62,278.44,601.65,278.9,601.95,279.67z"/>
	</g>
</g>
</svg>
