<?xml version="1.0" encoding="utf-8"?>
<!-- Generator: Adobe Illustrator 26.2.1, SVG Export Plug-In . SVG Version: 6.00 Build 0)  -->
<svg version="1.1" id="Layer_1" xmlns="http://www.w3.org/2000/svg" xmlns:xlink="http://www.w3.org/1999/xlink" x="0px" y="0px"
	 viewBox="0 0 960 560" style="enable-background:new 0 0 960 560;" xml:space="preserve">
<g>
	<g>
		<path d="M606,324c-0.4,1.02-0.92,2.01-1.17,3.06c-1.58,6.66-2.18,7.03-9.2,4.95c0.36,1.27,0.53,2.31,0.94,3.24
			c1.23,2.77,0.69,4.36-1.8,6.68c-5.42,5.05-10.01,10.99-15.9,17.65c-0.99-1.92-1.81-3.51-2.63-5.09c-0.45-0.12-0.9-0.24-1.35-0.37
			c0.57,9.08-5.62,8.67-11.11,9.79c-4.48,0.91-8.78,2.73-13.6,4.29c-0.6-1.79-1.13-3.38-1.8-5.37c-0.76,0.71-1.59,1.13-1.85,1.79
			c-2.33,5.84-6.8,5.83-11.92,4.69c-4.94-1.09-8.82-2.81-10.79-8.25c-3.32-9.17-1.37-16.15,6.8-21.29c-1.82-3.31-3.63-6.61-5.46-9.9
			c-0.48-0.87-0.99-1.73-1.59-2.53c-1.6-2.12-6.81-0.74-5.4-5.93c0.77-2.84,0.66-5.91,0.99-9.35c-1.39,0-3.24,0-5.06,0
			c-2.01-3.9-3.94-7.63-5.88-11.37c-0.51,0.16-1.02,0.32-1.53,0.49c1.15,4.87,2.08,9.81,3.52,14.59c1.24,4.13,1.55,7.8-1.37,10.27
			c2.32,10.4-0.12,20.13-0.99,30.01c-8.55-14.6-10.86-31.18-16.45-47.84c-1.23,2.1-2.15,3.45-2.84,4.9
			c-1.13,2.4-1.55,5.39-3.25,7.22c-6.15,6.59-5.89,16.09-11.17,23.14c-2.92,3.89-4.24,8.96-6.38,13.46
			c-0.68,1.43-1.66,2.71-3.3,5.35c-0.19-2.18-0.41-2.89-0.29-3.53c1.14-6.04,1.31-12.53,3.76-18c3.12-6.97,3.56-14.44,6.05-21.42
			c0.75-2.11,2.16-3.99,3.28-5.97c0.24-0.42,0.74-0.79,0.78-1.21c0.67-8.08,1.35-16.15,1.89-24.24c0.1-1.57-0.36-3.19-1.51-4.99
			c-2.35,5.7-5.05,11.28-6.93,17.13c-1.12,3.5-3.15,5.59-5.68,8.07c-3.19,3.12-4.96,7.69-7.36,11.63
			c-4.85,7.94-9.68,15.88-14.58,23.78c-0.75,1.21-1.81,2.22-2.73,3.33c-0.39-0.2-0.78-0.41-1.17-0.61c1.15-2.69,2.14-5.47,3.49-8.06
			c4.97-9.54,10.1-18.99,15.04-28.54c0.73-1.42,0.69-3.22,1.05-4.84c0.29-1.29,0.25-2.93,1.04-3.8c5.9-6.57,2.99-16.7,10.49-22.55
			c-0.6-0.56-1.19-1.13-1.79-1.69c-6.05,3.65-12.1,7.31-18.15,10.95c-1.18,0.71-2.34,1.79-3.61,1.97c-2.11,0.3-4.93-0.86-6.33,0.15
			c-4.5,3.23-9.02,6.73-12.51,10.98c-2.56,3.12-3.18,7.74-8.97,6.5c-0.84-0.18-2.39,2.49-3.46,3.96c-1.28,1.74-2.09,3.95-3.65,5.35
			c-4.33,3.87-8.81,7.59-13.51,10.99c-1.79,1.3-4.33,1.57-7.33,2.57c-2.62,10.13-13.43,13.68-20.66,20.74
			c-3.77,3.69-7.16,7.77-10.81,11.57c-1.27,1.32-2.83,2.37-4.26,3.54c0-0.33,0-0.67,0-1c3.1-5.24,6.18-10.5,9.31-15.73
			c7-11.69,16.54-21.08,26.99-29.62c1.84-1.51,3.01-2.74,1.97-5.37c-0.41-1.03,0.18-3.15,1.06-3.87c3.83-3.18,6.91-7.68,12.81-7.63
			c1.03,0.01,3.02-1.8,2.95-2.63c-0.46-5.36,4.06-6.77,6.97-9.44c2.77-2.55,5.48-5.21,8.48-7.48c1.35-1.02,3.31-1.55,5.05-1.7
			c2.52-0.2,4.65-0.12,4.52-3.69c-0.04-1.16,1.11-2.68,2.14-3.49c4.31-3.37,8.62-6.8,13.27-9.65c1.78-1.09,4.49-0.68,7.43-1.02
			c-0.01-0.05-0.52-1.29-0.25-2.32c0.4-1.5,1-3.52,2.15-4.13c3.61-1.93,7.51-3.32,11.94-5.18c-1.7-4.47-2.84-9.01-5.07-12.93
			c-3.01-5.28-3.68-9.85,2.59-14.68c-3.51-0.23-5.64-0.37-7.78-0.51c-0.21-0.39-0.41-0.78-0.62-1.17c3.74-2.4,7.48-4.79,11.22-7.19
			c-0.01-0.28-0.03-0.56-0.04-0.84c-1.43,0.1-2.86,0.24-4.29,0.28c-2.64,0.07-7.13,0.92-7.57-0.05c-1.42-3.11-2.32-7.11-1.63-10.39
			c1.27-6.04,11.45-12.64,17.7-12.49c0.66,0.02,1.58-0.2,1.95,0.15c5.28,5.01,11.14,2.34,16.91,1.44c5.59-0.87,12.4,4.1,12.93,9.69
			c0.15,1.63-0.97,3.87-2.23,5.02c-1.64,1.49-4.01,2.18-5.96,3.16c7.92,0.81,8.31,1.35,9.17,8.76c0.33,2.8-0.46,4.45-2.92,5.55
			c-3.27,1.47-6.51,3.01-9.46,5.62c2.05-0.57,4.15-1.02,6.14-1.75c5.57-2.04,9.03-0.15,10.1,5.61c0.27,1.46,0.42,3,0.99,4.34
			c2,4.65,5.3,5.65,13.51,4.26c1.42-0.24,2.83-0.57,4.6-0.93c0.32,2.21,0.59,4.04,0.86,5.87c1.79-4.56,5.09-5.57,9.37-4.85
			c3.91,0.66,7.91,0.94,11.7,1.99c0.95,0.27,2.05,3.07,1.72,4.35c-1.22,4.68,0.84,4.91,4.4,3.94c1.58-0.43,3.26-0.98,4.84-0.84
			c5.87,0.53,8.39,3.73,8.19,9.96c13.01,1.69,21.56,8.96,28.02,27.18c-1.25,0.37-2.58,0.54-3.71,1.13c-2.71,1.41-3.15,4.9-0.45,5.83
			c6.65,2.27,7.5,7.25,7.4,13.05c-0.01,0.45,0.39,0.91,0.6,1.36C606,316,606,320,606,324z M525.26,293.1
			c0.86,0.81,2.54,1.67,2.51,2.47c-0.3,8.33,7.38,15.87,2.43,24.62c-0.13,0.23,0.01,0.64,0.09,0.95c1.42,5.58,2.85,11.16,4.35,17
			c3.34-1.38,6.51-2.72,9.71-4.01c3.37-1.36,6.06-1.69,6.72,3.21c0.18,1.32,2.18,2.4,3.34,3.59c0.41-1.59,0.87-3.17,1.19-4.79
			c0.12-0.59-0.13-1.25-0.25-2.2c7.09-2.84,15.91-3.69,15.85-12.46c4.23-2.15,7.33-3.72,10.42-5.29c-0.16-0.43-0.33-0.86-0.49-1.29
			c-1.56-0.3-3.13-0.59-4.24-0.8c-0.76-4.09-0.45-8.58-2.42-11.57c-2.65-4.01-1.82-6.91,0.03-10.43c0.97-1.83,1.52-3.88,2.25-5.83
			c-0.43-0.18-0.86-0.37-1.3-0.55c-1.96,2.31-3.91,4.62-5.98,7.06c-3.69-3.36-6.73-6.7-10.34-9.25c-3.11-2.19-3.85-4.28-2.75-7.89
			c1.13-3.7,2.19-7.87-2.87-10.81c-1.17,1.88-2.18,3.73-3.42,5.41c-0.71,0.96-2.09,2.51-2.66,2.31c-5.65-1.93-13.52,1.46-16.63-6.76
			c-0.29-0.76-1.5-1.17-2.12-1.62c-3.32,1.27,0.82,8.17-5.55,6.26C523.25,278.33,530.53,285.05,525.26,293.1z"/>
	</g>
</g>
</svg>
