<?xml version="1.0" encoding="utf-8"?>
<!-- Generator: Adobe Illustrator 26.2.1, SVG Export Plug-In . SVG Version: 6.00 Build 0)  -->
<svg version="1.1" id="Layer_1" xmlns="http://www.w3.org/2000/svg" xmlns:xlink="http://www.w3.org/1999/xlink" x="0px" y="0px"
	 viewBox="0 0 960 560" style="enable-background:new 0 0 960 560;" xml:space="preserve">
<g>
	<g>
		<path d="M470,406c-5.06-0.64-10.16-1.08-15.18-1.97c-6.38-1.14-11.74-3.47-9.65-11.95c-6.11,3.1-8.03,2.68-11.84-2.8
			c-4.81-6.93-9.68-13.85-13.96-21.11c-1.08-1.83-0.38-5.04,0.25-7.42c0.52-1.98,2.14-3.66,3.63-6.04c-2.56,0-4.71,0-7.41,0
			c-0.54-2.39-1.86-4.88-1.47-7.06c1.28-7.11,2.47-14.38,5.08-21.05c2.01-5.13,3.52-5.03,11.56-5.3c-0.23-0.81-0.33-1.6-0.65-2.28
			c-3.1-6.66-2.8-7.95,3.72-11.63c3.29-1.86,6.79-3.4,10.32-4.78c7.53-2.93,13.57,0.46,18.24,5.75c4.66,5.28,4.47,11.9,2.15,18.37
			c-0.61,1.71-1.68,3.26-2.3,4.97c-2.93,8.08-7.83,12.78-16.67,10.06c-2.21,2.47-4.11,4.59-6.7,7.48c3.21,2.06,6.41,4.11,9.85,6.31
			c-1.38,1.8-2.85,3.72-4.32,5.64c0.15,0.37,0.3,0.74,0.44,1.1c2.97-0.89,6.1-1.43,8.87-2.74c3.36-1.59,5.63-1.49,8.16,1.66
			c5.2,6.48,8.29,13.45,8.96,22.59c3.54-1.69,4.25-12.14,11.03-3.34c0.81-1.31,1.77-2.29,2.08-3.45
			c3.29-12.06,14.97-15.21,23.21-22.01c0.89-0.73,2.47-1.23,2.69-2.1c1.75-6.92,6.87-6.87,12.35-6.34c0.6,0.06,1.24-0.37,2.31-0.71
			c-0.31-0.68-0.41-1.47-0.82-1.69c-6.36-3.41-3.67-9.21-3.91-14.29c-0.22-4.64-0.73-9.27-1.12-13.9c-0.55-0.14-1.09-0.27-1.64-0.41
			c2.22-1.53,4.43-3.06,6.63-4.58c-0.21-0.36-0.4-0.88-0.51-0.87c-6.8,1.01-10.91-2.09-14.31-7.88c-2.09-3.57-5.79-6.33-9.16-8.96
			c-2.37-1.85-3.95-3.37-2.61-6.55c1.42-3.36-0.56-4.41-3.4-3.95c-10.41,1.7-16.17-5.54-22.19-11.79c-1.4-1.45-0.66-4.96-0.92-7.68
			c-9.23,0.58-9.62-7.66-12.8-13.18c-0.23-0.4-0.03-1.02-0.2-1.47c-2.64-6.91-5.46-13.84,3.71-18.59c-7.34-4.35-7.78-5.59-6.1-13.52
			c1.63-7.72,5.06-14.4,10.99-19.68c1.17-1.05,2.52-1.9,4.6-2.19c-1.48,4.47-2.97,8.94-4.43,13.42c-2.85,8.73-2.58,17.08,3.37,24.55
			c2.9,3.64,2.57,6.71-0.46,10.14c-1.48,1.68-2.09,4.12-3.54,7.13c1.96-0.31,2.65-0.24,3.13-0.53c3.83-2.3,7.08-2.56,9.05,2.31
			c0.06,0.14,0.2,0.28,0.34,0.37c5.75,3.71,9.26,8.24,5.87,15.45c-0.19,0.41,0.34,1.16,0.65,2.1c0.95-0.31,1.78-0.39,2.39-0.8
			c2.3-1.55,4.75-4.78,6.73-4.49c4.02,0.59,8.08,2.58,11.5,4.9c2.42,1.64,4.72,4.54,5.4,7.3c0.58,2.35-1.21,5.29-1.94,7.95
			c7.34-3.42,10.94-4.29,9.87,7.01c8.47-1.97,12.03,4.12,15.9,9.71c1.59,2.3,3.19,4.6,4.68,6.97c4.49,7.13,3.91,12.68-2.13,18.74
			c0.9,0.27,1.64,0.67,2.39,0.69c6.51,0.16,8.31,2.14,6.52,8.57c-2.76,9.89-5.89,19.68-9.16,29.42c-1.63,4.85-7.55,7.22-14.26,5.5
			c2.27,2.14,3.79,3.56,6.23,5.86c-4.87,4.59-9.6,9.08-14.37,13.51c-1.82,1.69-4.02,3.01-5.6,4.89c-4.67,5.54-5.19,5.7-11.44,1.7
			c-0.68-0.43-1.44-0.73-2.17-1.09c-0.23,0.44-0.55,0.77-0.49,1c1.78,6.58,1.42,7.09-5.7,8.17c-1.13,0.17-2.22,0.56-3.33,0.84
			C480.67,406,475.33,406,470,406z"/>
		<path d="M491,156c2.53,6.79,5.37,13.48,7.42,20.41c0.6,2.05-1.02,4.76-1.71,7.47c1.24-0.18,2.91-0.42,5.35-0.77
			c1.2,5.74,3.04,11.5,3.24,17.33c0.07,1.89-4.14,3.93-6.98,6.42c0.86,0.13,2.24,0.28,3.59,0.53c2.22,0.41,5.81,0.21,6.41,1.44
			c1.98,4.1,6.59,7.65,4.16,13.16c-6.16,13.93-23.06,17.86-34.54,8.03c-4.65-3.98-8.11-19.49-4.87-24.68
			c1.7-2.72,4.95-4.48,8.02-7.12c-2.27-2-3.33-5.38-1.68-9.98c1.28-3.58-0.96-8.73,6.92-9.24c-6.76-4.03-3.53-7.92-1.77-11.9
			c1.61-3.64,2.97-7.39,4.44-11.1C489.67,156,490.33,156,491,156z"/>
	</g>
</g>
</svg>
