<?xml version="1.0" encoding="utf-8"?>
<!-- Generator: Adobe Illustrator 26.2.1, SVG Export Plug-In . SVG Version: 6.00 Build 0)  -->
<svg version="1.1" id="Layer_1" xmlns="http://www.w3.org/2000/svg" xmlns:xlink="http://www.w3.org/1999/xlink" x="0px" y="0px"
	 viewBox="0 0 960 560" style="enable-background:new 0 0 960 560;" xml:space="preserve">
<g>
	<g>
		<path d="M596,406c-6.43-12.1-15.17-22.13-26.78-29.49c-2.35-1.49-5.01-2.68-7.69-3.45c-3.96-1.14-6.01-3.93-8.58-6.85
			c-1.43-1.63-6.97,0.95-9.43-0.48c-6.8-3.95-13.89-6.63-21.4-8.82c-7.38-2.16-7.22-2.69-7.42-9.67c-4.06,1.69-8.11,3.39-12.18,5.05
			c-5.5,2.24-6.24,1.85-7.21-3.73c-0.14-0.8-0.27-1.6-0.39-2.33c-0.54-0.09-1.03-0.3-1.14-0.17c-6.35,7.02-14.14,5.72-22.16,4.14
			c-4.38-0.86-8.98-0.6-13.33-1.52c-2.53-0.53-5.12-2.02-7.08-3.75c-2.97-2.62-4.68-0.28-5.5,1.48c-2.32,5.04-5.72,6.26-11.22,6.34
			c-5.11,0.07-10.32,2.39-15.22,4.36c-4.45,1.79-8.31,2.31-10.86-0.76c-3.23,2.96-6,6.04-9.29,8.38c-3.9,2.77-8.19,5-12.41,7.28
			c-6.72,3.63-14.45,1.15-18.8-5.89c-6.81-11.02-6.68-19.4,1.86-29.18c6.17-7.06,13.39-13.22,20.23-19.67
			c1.04-0.98,2.55-1.54,3.93-2.1c5.75-2.35,8.16-0.93,9.44,5.08c0.28,1.3,1.95,3.48,2.38,3.34c1.56-0.49,4.1-1.83,4.07-2.78
			c-0.45-14.42,11.8-12.57,19.97-15.83c10.54-4.21,20.8,1.35,31.25,1.16c1.04-0.02,2.22,1.62,3.16,2.65
			c1.89,2.08,3.66,4.26,6.49,7.58c1.68-7.98,6.67-6.43,10.91-6.22c13.67,0.7,26.99,3.22,39.9,7.95c4.94,1.81,8.51,4.26,9.05,9.92
			c0.14,1.44,1.04,2.8,1.69,4.45c6.06-5.85,5.93-5.61,12.54-0.33c6.35,5.06,12.88,10.01,19.83,14.17
			c12.83,7.68,18.36,20.66,24.72,32.94c3.63,7.01,5.94,14.71,8.66,22.17c0.49,1.35,0.04,3.04,0.02,4.57
			C597.33,406,596.67,406,596,406z"/>
		<path d="M484,156c0.71,7.75,1.36,15.5,2.19,23.23c0.1,0.96,1.12,1.83,1.76,2.71c0.65,0.89,2.11,2.23,1.91,2.53
			c-2.86,4.43,0.47,8.15,1.16,12.15c0.99,5.77-1.14,8.96-6.96,10.33c-1.28,0.3-2.7,0.14-3.93,0.55c-4.05,1.38-7.87,2.69-11.28-1.54
			c-3.92-4.87-5.14-10.28-2.69-15.86c3.65-8.32,8.02-16.32,11.95-24.52c1.49-3.1,2.6-6.39,3.88-9.59C482.67,156,483.33,156,484,156z
			"/>
		<path d="M520.19,255.42c-0.52,2.14-1.15,4.74-1.77,7.33c2.77,0.43,5.53,0.86,9.25,1.43c3.49,13.76,13.07,26.28,15.76,41.36
			c-0.43,0.33-0.85,0.66-1.28,0.99c-1.36-0.9-2.89-1.62-4.04-2.74c-7.72-7.55-15.15-15.42-23.12-22.69c-3.99-3.64-9.12-6-13.35-9.41
			c-2.01-1.62-3.1-4.38-5.02-7.23c-7.91,1.06-11.91-5.55-16.38-11.97c-0.59,0.71-1.56,1.36-1.51,1.93
			c0.45,5.51-4.08,7.23-7.28,10.06c-1.81,1.6-3.4,3.61-4.59,5.72c-3.38,5.97-5.83,6.69-11.8,3.09c-0.67-0.4-1.47-0.6-3.12-0.2
			c1.03,1.65,2.22,3.22,3.03,4.98c0.7,1.51,1.77,3.58,1.26,4.79c-2.32,5.43-13.71,11.94-19.34,11.53
			c-6.38-0.47-15.4-7.31-16.94-12.86c-2.48-8.95,1.06-19.42,8.77-23.95c5.96-3.49,12.28-6.42,18.67-9.05
			c1.24-0.51,3.62,1.37,5.29,2.45c0.74,0.48,1.01,1.69,1.45,2.49c1.29-0.88,2.04-1.18,2.01-1.41c-0.55-6.01,3.68-8.61,7.58-12.01
			c3.09-2.68,4.58-7.13,7.05-10.6c2.85-4,5.69-8.1,9.18-11.49c1.02-0.99,4.99-0.53,6.32,0.68c4.65,4.22,8.79,9.02,13.04,13.68
			C506.33,240,513.27,247.74,520.19,255.42z"/>
		<path d="M560.27,245.87c0.76,1.54,2.11,3.04,2.2,4.61c0.63,10.96,4.22,21.07,8.29,31.09c0.37,0.92,0.67,1.91,0.77,2.89
			c0.43,4.45,1.26,9.07-3.16,12.25c-5.51,3.97-11.13,7.44-18.19,3.51c-3.81-2.12-5-5.49-4.71-9.61c0.13-1.8,0.82-3.9,0.16-5.37
			c-3.31-7.41-0.12-12.9,4.26-18.62c3.55-4.64,6.33-9.93,9.06-15.13c0.69-1.31-0.1-3.4-0.2-5.13
			C559.25,246.19,559.76,246.03,560.27,245.87z"/>
		<path d="M398.78,248.13c0,2.04-0.29,4.13,0.07,6.1c0.58,3.22,1.77,6.33,2.36,9.56c0.57,3.08,0.63,6.24,1.06,9.35
			c0.17,1.19,0.59,2.4,1.15,3.47c3.11,5.93,2.24,15.65-1.84,19.58c-3.48,3.36-8.75,4.14-13.23,1.33c-3.91-2.46-6.28-6.55-5.29-11.05
			c1.83-8.35,4.17-16.62,6.96-24.7c1.71-4.97,4.64-9.52,7.02-14.26C397.61,247.72,398.19,247.92,398.78,248.13z"/>
	</g>
</g>
</svg>
