<?xml version="1.0" encoding="utf-8"?>
<!-- Generator: Adobe Illustrator 26.2.1, SVG Export Plug-In . SVG Version: 6.00 Build 0)  -->
<svg version="1.1" id="Layer_1" xmlns="http://www.w3.org/2000/svg" xmlns:xlink="http://www.w3.org/1999/xlink" x="0px" y="0px"
	 viewBox="0 0 960 560" style="enable-background:new 0 0 960 560;" xml:space="preserve">
<g>
	<g>
		<path d="M606,196c-1.95,8.13-3.91,16.27-5.84,24.4c-3.06,12.89-5.99,25.82-9.29,38.65c-0.42,1.65-2.75,2.81-4.63,4.61
			c-1.16-3.13-1.99-5.39-3.25-8.79c-2.98,3.26-5.55,5.82-7.73,8.68c-0.37,0.48,0.62,2.73,1.54,3.34c9.2,6.15,9.64,11.77,1.31,19.28
			c-1.1,0.99-2.3,1.87-3.13,2.54c2.27,4.57,5.5,8.41,5.81,12.47c0.32,4.11-2.25,8.44-3.7,13.17c0.93,0,2.93,0.08,4.92-0.02
			c3.07-0.15,5.55,0.8,5.47,4.21c-0.23,10.1,4.57,18.7,8,27.7c2.52,6.61,5.71,12.97,8.15,19.61c0.66,1.81-0.33,4.22-0.56,6.36
			c-1.87-0.58-3.94-0.81-5.56-1.79c-8.23-4.97-16.47-9.94-24.45-15.29c-5.77-3.86-11.15-8.29-16.67-12.53
			c-2.56-1.97-3.23-3.88-0.2-6.35c1.45-1.18,2.07-3.38,3.49-5.86c-10.49-0.51-18.69-2.96-22.32-12.88
			c-0.61-1.66-1.91-3.07-3.18-5.05c-4.78,2.38-9.59,4.75-15.02,2.19c-0.26-0.12-2.21,1.89-2.22,2.92c-0.04,5.36-2.53,7.62-7.83,8.45
			c-7.27,1.15-14.35,3.57-21.62,4.77c-2.31,0.38-5.29-0.91-7.38-2.3c-2.18-1.46-3.67-3.97-5.85-6.47c-2,4.23-3.34,7.76-5.26,10.95
			c-3,4.98-5.72,5.43-11.25,3.71c-2.1-0.65-5.07-0.39-7.01,0.64c-7.42,3.94-11.53,2.94-15.2-4.38c-1.25-2.49-2.48-5-3.71-7.5
			c-0.52-0.02-1.04-0.04-1.57-0.06c-0.4,2.35-1.2,4.71-1.11,7.04c0.15,4.02-1.18,6.42-5.13,7.86c-3.87,1.4-7.67,3.26-11.12,5.49
			c-10.62,6.86-21.81,8.67-33.51,3.68c-11.33-4.84-18.68-13.47-21.99-25.44c-0.2-0.74-0.92-1.33-1.4-2c0-3.33,0-6.67,0-10
			c1.51-3.8,2.91-7.65,4.56-11.39c3.75-8.53,9.35-15.78,17.33-20.51c3.5-2.08,8.23-2.09,12.41-3.01c1.89-0.42,3.96-0.44,5.67-1.23
			c3.45-1.6,6.67-3.7,10.06-5.43c7.76-3.97,25.86,2.83,29.15,10.93c1.55,3.82,2.78,7.78,4.52,11.5c0.72,1.55,2.39,2.66,3.63,3.98
			c0.53-0.27,1.07-0.55,1.6-0.82c0-3.4-0.19-6.8,0.04-10.18c0.46-6.89,1.97-8.19,8.61-8.74c1.71-0.14,3.57-0.84,4.97-1.83
			c4.45-3.15,9.33-4.07,14.62-3.62c1.8,0.15,3.9,0.78,5.37,0.1c5.08-2.35,5.59,1.02,6.4,4.48c0.75,3.2,1.33,6.51,2.62,9.49
			c1.71,3.96,4.7,4.28,7.81,1.29c0.36-0.35,0.96-0.65,1.04-1.05c2.33-12.33,10.85-7.39,17.9-6.4c2.29,0.32,4.53,1.18,6.82,1.34
			c3.44,0.23,6.9,0.06,9.64,0.06c1.1-5.58,1.58-10.77,3.23-15.55c1.36-3.95,3.55-7.93,6.36-10.99c4.5-4.9,4.89-5.6,12.08-0.21
			c3.14-1.59,3.33-4.1,2.05-7c-1.41-3.19-0.72-4.95,2.35-7.3c4.78-3.65,8.68-8.48,12.74-13.01c9.73-10.87,19.4-21.81,28.95-32.85
			c2.08-2.4,2.96-6.41,7.48-4.02C606,192,606,194,606,196z"/>
	</g>
</g>
</svg>
