<?xml version="1.0" encoding="utf-8"?>
<!-- Generator: Adobe Illustrator 26.2.1, SVG Export Plug-In . SVG Version: 6.00 Build 0)  -->
<svg version="1.1" id="Layer_1" xmlns="http://www.w3.org/2000/svg" xmlns:xlink="http://www.w3.org/1999/xlink" x="0px" y="0px"
	 viewBox="0 0 960 560" style="enable-background:new 0 0 960 560;" xml:space="preserve">
<g>
	<g>
		<path d="M490,406c-3.95-6.33-5.62-13.32-6.25-20.68c-0.18-2.1-1.31-4.1-1.73-6.2c-0.55-2.72-0.83-5.5-0.5-8.4
			c-3.18-2.63-1.83-6.15-2.11-9.89c-0.53-6.94-3.12-13.74-5.06-20.54c-0.22-0.75-1.83-1.65-2.67-1.54
			c-0.92,0.12-2.01,1.18-2.46,2.11c-0.54,1.12-0.48,2.53-0.52,2.77c-6.66,3.71-12.77,6.94-18.68,10.51
			c-1.36,0.82-2.55,2.65-2.94,4.23c-1.79,7.32-4.1,8.52-11.55,4.49c0.8,6-3.98,7.54-7.13,10.71c-4.53,4.56-8.38,2.02-13.68-0.58
			c2.21,4.28,3.85,7.19,5.24,10.22c1.4,3.05,0.64,5.04-2.61,6.81c-5.64,3.09-11.07,6.63-16.28,10.41
			c-6.51,4.73-14.26,5.68-20.14,0.51c-7.5-6.6-14.4-13.88-12.94-25.43c1.37-10.85,8.49-17.38,16.77-22.87
			c1.52-1.01,5.11,0.11,7.19,1.26c1.88,1.04,3,3.46,4.45,5.27c0.36-0.23,0.72-0.47,1.09-0.7c0.15-2.96,0.31-5.92,0.46-8.8
			c2.98-0.69,5.52-1.27,7.99-1.84c-0.97-8.01,0.4-10.28,7.81-13.27c4.93-1.99,10.01-3.64,14.78-5.93c4.06-1.95,7.12-2.06,9.69,2.17
			c0.79,1.31,2.38,2.14,4.69,4.12c0.55-3.53,0.73-6.05,1.39-8.43c0.43-1.53,1.25-3.68,2.44-4.14c8.6-3.33,17.34-6.3,26.57-9.58
			c-0.09-0.64-0.16-1.89-0.44-3.09c-0.58-2.48-2.36-5.36-1.61-7.28c0.81-2.07,3.95-3.24,6.85-5.37c-2.17-0.89-3.86-1.67-5.6-2.28
			c-6.1-2.11-7.68-7.33-4.6-13.15c2.8-5.29,4.92-10.6,11.29-13.05c12.54-4.81,25.64,3.57,25.79,16.96c0.02,1.5-0.17,3-0.13,4.49
			c0.09,3.57-0.74,5.88-5.16,4.88c-2.93-0.67-4.96,0.4-4.62,3.92c5.89,1.32,5.89,1.32,5.07,15c10.34,1.84,20.59,3.66,30.3,5.38
			c0.4,5.45,0.7,9.57,1,13.64c1.5,0,2,0.14,2.13-0.02c4.84-6.19,9.99-4.24,15.38-0.78c2.19,1.41,4.72,2.28,7.31,3.49
			c-0.95,2.45-1.76,4.54-3.13,8.09c2.42-0.96,3.94-1.11,4.69-1.94c2.69-3.01,4.4-1.81,6.22,0.91c2.09,3.11,4.1,6.35,6.66,9.05
			c8.58,9.04,13.98,19.74,16.78,31.74c0.89,3.83,0.71,7.93,0.73,11.91c0,0.82-1.29,1.65-2.61,3.2
			c-2.13-12.86-11.37-19.24-19.05-26.57c-4.23-4.04-9.81-6.62-14.5-10.23c-1.73-1.34-2.65-3.73-4.37-6.28
			c-5.27,3.05-8.06-1.09-11.53-5.2c-1.65-1.95-5.3-2.54-8.17-3.06c-2.94-0.53-4.14-1.91-4.84-4.69c-0.42-1.66-2-3.02-3.07-4.52
			c-1.41,1.23-3.65,2.24-4.06,3.74c-0.84,3.09-2.46,2.61-4.48,1.89c-3.53-1.25-7.05-2.56-10.41-3.78
			c-4.52,5.66,1.41,14.12-7.01,18.42c7.08,2.98,5.95,8.02,4.85,13.23c-2.43,11.51-4.68,23.06-7,34.59C491.33,406,490.67,406,490,406
			z"/>
		<path d="M483,156c0.5,4.59,1.01,9.17,1.5,13.76c0.47,4.44,0.91,8.88,1.4,13.63c6.7,1.84,4.13,8.7,6.38,13.19
			c3.56,7.14-4.28,8.31-6.54,12.05c0.91,0.84,1.11,1.17,1.38,1.24c3.07,0.87,7.48-2.29,9.15,2.55c2.07,6.03,4.37,11.86,0.46,18.51
			c-4.86,8.25-15.8,12.45-24.4,7.52c-5.68-3.26-10.12-12.05-8.62-20.62c0.69-3.92,1.58-7.84,2.89-11.58
			c0.58-1.66,2.17-3.51,3.75-4.16c3.83-1.55,4.34-3.71,1.45-6.18c-2.62-2.25-1.5-4.21-0.76-6.63c3.4-11.07,6.66-22.19,9.97-33.29
			C481.67,156,482.33,156,483,156z"/>
		<path d="M434.26,260.92c-1.78,6.05-4.71,5.61-8.77,5.14c-7.48-0.87-15.13-0.23-22.69-0.62c-1.85-0.1-4.75-1.41-5.18-2.79
			c-1-3.2-2.87-3.48-5.58-3.58c-8.44-0.3-16.88-0.77-25.32-1.26c-0.88-0.05-1.71-0.73-3.94-1.74c3.95-1.15,6.64-2.03,9.37-2.72
			c8.45-2.14,16.95-4.07,25.36-6.35c4.62-1.25,8.17-0.95,9.39,5.13c1.33-1.17,2.42-1.71,2.86-2.58c1.65-3.28,3.3-3.1,5.61-0.59
			c0.88,0.95,2.51,1.22,3.79,1.8c0.56-1.47,1.81-3.06,1.56-4.37c-0.62-3.2,1.2-3.76,3.48-4.91c10.17-5.1,20.64-2.91,30.9-1.16
			c7.9,1.35,13.58,11.56,11.8,19.41c-1.07,4.75-4.51,7.44-8.65,8.9c-5.14,1.81-10.52,2.95-15.82,4.29c-3.45,0.88-5.74,0.3-5.81-4.11
			C436.6,266.68,435.4,264.56,434.26,260.92z"/>
		<path d="M527.64,261.94c-3.24,5.18-6.97,7.18-11.88,5.8c-7.63-2.13-12.46-8.5-12.59-16.6c-0.08-5.14,4-10.59,9.43-12.13
			c3.35-0.95,6.79-1.67,10.25-2.08c5.66-0.67,8.9,1.76,11.82,7.79c3.81,0,7.2,0,11.06,0c0.51-3.7,3.16-2.62,6.67-1.9
			c9.24,1.89,18.6,3.33,27.97,4.35c5.65,0.62,11.41,0.11,17.53,1.18c-2.48,1.13-4.85,2.63-7.45,3.33c-8.91,2.42-17.81,5.09-26.9,6.6
			c-5.54,0.92-10.62,0.7-15.33,5.27c-2.46,2.39-8.24,1.87-12.49,1.72C533.19,265.19,530.72,263.28,527.64,261.94z"/>
	</g>
</g>
</svg>
