<?xml version="1.0" encoding="utf-8"?>
<!-- Generator: Adobe Illustrator 26.2.1, SVG Export Plug-In . SVG Version: 6.00 Build 0)  -->
<svg version="1.1" id="Layer_1" xmlns="http://www.w3.org/2000/svg" xmlns:xlink="http://www.w3.org/1999/xlink" x="0px" y="0px"
	 viewBox="0 0 960 560" style="enable-background:new 0 0 960 560;" xml:space="preserve">
<g>
	<g>
		<path d="M356,308c3.37-3.58,6.73-7.16,10.1-10.74c1.03-2.61,1.85-5.81,3.49-8.53c1.61-2.66,4.17-4.73,6.09-7.22
			c2.77-3.59,4.89-8.15,11.99-4.32c-3.37-10.32,4.06-11.14,9.1-13.23c4.1-1.7,6.33-3.78,5.89-8.54c-5.46-1.47-15.65,3.54-13.1-10.24
			c-1.35,1.18-1.91,1.61-2.39,2.11c-1.7,1.8-3.81,5.41-4.97,5.12c-4.37-1.09-8.96-2.5-10.7-7.82c-4.1-12.55,4.2-22.58,17.32-22.05
			c8.16,0.33,14.82,2.98,21.07,7.96c-0.36,1.22-0.74,2.55-1.11,3.82c0.5,0.33,0.92,0.72,1.01,0.65c5.63-4.15,8.89,0.01,12.39,3.46
			c2.6,2.56,5.15,5.17,7.94,7.51c0.98,0.83,2.56,1.26,3.88,1.31c4.13,0.16,8.27,0.06,12.59,0.06c0.31,2.07,0.57,3.79,0.82,5.45
			c0.62,0.05,1.09,0.23,1.23,0.09c1.96-2.04,3.88-5.88,5.8-5.88c6.65,0.01,13.75-1.01,20.02,3.65c-0.35,1.23-0.73,2.58-1.54,5.46
			c2.74-0.69,5.52-0.56,6.65-1.86c2.66-3.04,4.82-6.13,9.56-5.49c0.89,0.12,2.01-0.99,2.93-1.66c2.27-1.66,4.39-3.52,6.73-5.06
			c3.77-2.48,7.67-4.41,11.26,0.35c4.71-6.71,12.34-8.42,22.85-5.36c4.44,1.29,8.09,5.78,8.37,10.71c4.65-4.72,8.2-2.41,11.97,1.22
			c5.99,5.79,11.35,11.74,14.64,19.73c1.51,3.68,5.72,6.74,9.39,8.93c8.77,5.22,18.44,7.45,28.73,6.38c0,0.67,0,1.33,0,2
			c-7.34,1.36-14.65,3.5-22.04,3.84c-5.59,0.26-11.3-1.73-16.93-2.84c-1.09-0.22-2.01-1.32-3.1-1.53c-5.95-1.19-8.98-3.93-5.29-10.2
			c-2.82-0.25-5.53,0.3-7.23-0.77c-5.71-3.6-11.07-7.78-17.02-12.07c-1.07,0-3.45,0.32-5.72-0.06c-5.6-0.93-11.11-1.87-15.71,2.32
			c-1.94-2.29-3.48-4.12-5.68-6.71c-0.13,1.73-0.4,2.45-0.18,2.91c3.56,7.36,7.17,14.61,13.98,19.78c1.49,1.13,1.8,3.84,2.88,6.36
			c8.73-2.34,12.37,6.85,18.46,11.64c0.52,0.41-0.26,2.48-0.46,3.99c13.24,7.91,15.69,22.48,19.69,36.36
			c-0.75-0.68-1.63-1.27-2.24-2.06c-5.78-7.44-12.65-13.61-21.13-17.83c-6.67-3.32-6.7-3.26-8.46-9.43
			c-1.51,1.04-2.93,2.02-4.68,3.24c-0.65-1.13-1.78-2.17-1.65-3.01c0.81-5.24-2.91-7.02-6.53-8.71c-6.97-3.26-14.03-6.31-21.05-9.45
			c-2.84,6.47-11.57,11.46-19.11,10.55c2.15,4.04-0.12,6.28-2.89,8.66c-2.61,2.24-4.79,4.99-7.08,7.58
			c-4.25,4.81-17.88,2.97-20.34-2.83c-0.28-0.66-0.1-1.6,0.11-2.35c1.01-3.54-0.66-4.64-3.47-3.05c-2.73,1.54-3.96,0.17-5.44-1.49
			c-2.55-2.85-4.92-5.88-7.68-8.51c-2.62-2.5-3.98-4.88,0.17-9.34c-6.88,1.64-10-1.69-13.09-5.34c-0.43-0.51-3.23-0.1-3.66,0.63
			c-2.7,4.6-5.84,4.72-9.72,0.97c1.32,8.76-2.67,14.37-9.9,12.9c1.72,2.53,3.02,4.44,4.29,6.31c-3.59,5.62-7.11,11.24-10.74,16.8
			c-5.37,8.23-17.33,8.98-23.38,1.25c-3.03-3.88-5.36-8.32-8-12.5C356,310.67,356,309.33,356,308z M468.33,290.74
			c-0.34-2.86-1.48-6-0.82-8.71c0.68-2.81,3.09-5.2,5.25-8.56c-3.56-0.56-6.5-0.81-9.31-1.56c-1.25-0.34-2.3-1.61-3.29-2.62
			c-1.02-1.05-1.85-2.28-2.77-3.44c-1.13,1.16-2.93,2.17-3.24,3.52c-0.69,3-2.35,3.52-5.02,3.52c-2.51,0-5.02,0.55-9.63,1.12
			c8.14,4.62,1.06,7.65,0.91,11.66c1.74-0.68,2.97-1.17,3.92-1.54c3.46,3.79,6.66,7.29,10.1,11.06c2.41-2.62,3.97-5.58,6.31-6.46
			C462.61,288.03,465.43,289.87,468.33,290.74z"/>
	</g>
</g>
</svg>
