<?xml version="1.0" encoding="utf-8"?>
<!-- Generator: Adobe Illustrator 26.2.1, SVG Export Plug-In . SVG Version: 6.00 Build 0)  -->
<svg version="1.1" id="Layer_1" xmlns="http://www.w3.org/2000/svg" xmlns:xlink="http://www.w3.org/1999/xlink" x="0px" y="0px"
	 viewBox="0 0 960 560" style="enable-background:new 0 0 960 560;" xml:space="preserve">
<g>
	<g>
		<path d="M509,156c9.25,2.93,9.68,11.73,12.88,18.79c-2.21,1.41-4.18,2.66-7.18,4.57c2.72,0.73,4.17,1.12,5.6,1.5
			c1.87,10.07-3.65,20.4-10.93,19.65c1.12,2.88,2.35,5.96-2.25,6.64c-0.36,0.05-0.92,0.6-0.93,0.92
			c-0.23,7.69-6.96,8.73-11.91,11.41c-0.99,0.54-2.86-0.54-4.78-0.97c0.54,1.37,0.98,2.5,1.23,3.15c-2.43,3.47-5.06,6.49-6.82,9.96
			c-1.71,3.37-2.53,7.2-3.7,10.69c-4.08-5.45-3.3-15.26,1.67-18.41c-1.31-7.63,4.45-11.84,8.35-16.88c0.6-0.77,2.51-0.4,3.62-0.95
			c1.24-0.62,2.25-1.68,3.36-2.55c-3.01-3.47,0.32-5.75,2.19-7.09c3.14-2.25,2.77-4.69,2.48-7.78c-0.36-3.95-0.09-7.96-0.09-12.01
			c-5.08-0.28-8.76-9.11-5.21-15.32c1.12-1.97,2.93-3.55,4.42-5.31C503.67,156,506.33,156,509,156z"/>
		<path d="M472,406c-4.76-3.23-6.88-7.84-7.16-13.46c-0.26-5.03,2.01-8.59,6.42-10.78c-4.1-6.92,3.33-10.35,4.08-15.81
			c5.5,8.11,9.28,16.48,8.03,26.74c6.24,4.97,5.48,8.48-3.37,13.3C477.33,406,474.67,406,472,406z"/>
		<path d="M424.2,344.42c0.41-3.07-2.53-7.26,1.98-7c1.28-5.1,1.89-9.89,3.7-14.19c2.67-6.37,2.76-13.92,9.11-18.74
			c3.41-2.59,6.03-3.65,9.71-0.87c1.32,0.99,3.37,1.04,5.11,1.45c5.39,1.27,8.35,5.43,6.7,9.49c6.18,1.72,11.59,10.57,10.31,16.64
			c-0.24,1.14-0.16,2.57,0.33,3.6c1.18,2.47,2.69,4.77,4.02,7.07c0.97-0.48,2.75-1.36,4.52-2.24c0.87,1.85,1.75,3.7,2.62,5.54
			c0.22-0.04,0.45-0.07,0.67-0.11c-0.09-1.73-0.18-3.47-0.29-5.63c1.49-0.71,3.22-1.53,4.93-2.34c-3.04-8.46,0.08-12.23,10.78-13.23
			c-1.48-6.21,1.62-11.55,8.42-14.43c-0.24-3.11-5.66-5.6-0.73-9.19c-4.2-1.02-12.52-10.96-12.28-14.21
			c-5.42-0.37-13.01-10.06-12.09-15.19c0.26-1.43-0.16-3-0.33-4.49c-0.44-3.87-2.23-8.17-1.14-11.54
			c3.52-10.91,6.65-22.37,18.82-29.89c-3.61,7.82-6.63,14.35-9.8,21.21c2.36,2.06,2.65,10.32,0.01,13.38
			c1.31,1.54,2.56,2.88,3.66,4.33c2.58,3.4,4.78,7.16,7.72,10.21c2.53,2.62,6.42,4.16,3.74,9.09c2.34-0.34,3.9-0.56,5.82-0.83
			c0.1,1.7,0.18,3.08,0.29,4.85c3.44-1.79,4.91,0.05,6.5,2.84c4.5,7.94,8.5,16.96,6.86,25.33c-1.41,7.23,1.34,12.38,2.6,18.4
			c0.13,0.62,0.61,1.71,0.82,1.69c4.64-0.56,4.03,3.82,5.89,5.88c2.15,2.38,1.8,7.3,6.72,7.05c0.32-0.02,0.71,0.66,1.01,1.06
			c5.27,6.95,10.55,13.89,15.77,20.88c1.56,2.09,2.92,4.34,3.59,7.42c-1.36-1.16-2.68-2.38-4.1-3.47
			c-6.19-4.77-12.4-9.51-18.61-14.26c-0.26-0.2-0.74-0.32-0.81-0.56c-1.51-5.69-7.48-6.05-10.95-9.32c-1.99-1.89-3.01-4.8-4.69-7.63
			c-2.11,1.48-7.79-5.7-8.67,3.46c-1.3-1.22-2.13-2-2.96-2.78c-0.27,0.18-0.54,0.37-0.81,0.55c3.28,5.66,6.55,11.33,10.23,17.69
			c7.2,8.76,15.11,18.37,23.01,27.97c-0.5,0.52-0.99,1.04-1.49,1.56c-6.2-4.45-12.98-8.33-18.35-13.63
			c-2.31-2.28-3.7-4.69-7.14-6.06c-2.62-1.04-4.07-4.86-6.22-7.28c-0.85-0.96-2.5-1.25-3.24-2.25c-0.71-0.96-0.72-2.44-1.22-4.43
			c-0.89,0.07-2.6-0.24-3.86,0.38c-4.57,2.26-9.64,3.22-14.38,4.66c-5.75,1.76-12.35,1.13-18.53,0.77c-1.8-0.1-3.45-2.82-4.85-4.07
			c-3.02-0.26-6.14-0.8-9.24-0.67c-1.48,0.06-3.39,1.03-4.27,2.21c-2.67,3.6-4.77,7.62-7.43,11.22c-1.28,1.74-3.33,2.92-5.73,4.94
			c-0.16,0.81-0.04,3.13-1.04,4.78c-4.39,7.23-9.09,14.28-13.72,21.37c-0.51,0.78-1.22,1.44-2.95,1.66
			c1.86-5.09,3.65-10.21,5.59-15.28c2.05-5.34,4.28-10.61,6.35-15.94c1.19-3.05,1.97-5.74,4.81-8.45c3.08-2.94,3.25-9.08,4.27-13.91
			c0.2-0.92-1.52-2.25-2.12-3.08c-8.24,5.22-12.35,12.9-16.8,20.68c-5.39,9.42-12.33,17.94-18.76,27.08
			C402.16,385.8,420.12,345.26,424.2,344.42z"/>
		<path d="M429.54,223.86c-9.17-8.38-12.91-19.67-19.49-29.52c4.26,0.39,17.19,14.1,19.42,18.24c1.56,1.07,3.41,1.89,4.63,3.27
			c2.74,3.1,6.81,5.6,5.79,10.78c-0.08,0.39,0.32,1.26,0.55,1.27c8.04,0.59,7.72,10.3,14.35,12.54c2.56-1.71,1.91-8.05,7.43-6.8
			c2.19-6.57,7.02-10.63,14.27-12.72c-3.43,7.56-6.87,15.13-10.52,23.17c2.65,1.74,1.05,4.36-1.22,6.84
			c4.54,2.07,8.13,9.98,6.45,13.73c3.87,0.76,9.28,9.64,9.42,15.46c0.11,4.61-4.58,8.69-11.42,9.94c-6.33,1.15-14.17-2.5-16.29-8
			c-1.27-3.29-3.23-7.08,2.5-9.73c-9.64-2.71-6.3-9.43-5.85-15.35c0.09-1.22-0.53-2.75-1.32-3.73c-2.73-3.34-7.37-5.57-6-11.16
			c0.1-0.42-0.55-1.1-0.97-1.56c-3.53-3.87-7.28-7.56-10.52-11.65C429.66,227.5,429.81,225.12,429.54,223.86z"/>
		<path d="M394.92,202.36c5.07,6.26,10.19,12.48,15.18,18.81c0.71,0.9,0.72,2.33,1.2,3.45c0.45,1.06,0.87,2.64,1.71,2.96
			c4.97,1.94,8.51,6.55,8.36,10.76c5.76,4.53,11.01,8.92,13.23,15.94c0.23,0.74,0.6,1.63,1.2,2.03c3.72,2.49,7.48,5.19,9.6,9.04
			c1.42,2.58,2.35,8.31,1.45,8.79c-3.23,1.72-7.5,2.86-11.05,2.26c-4.92-0.83-8.54-8.77-7.07-13.18
			c-6.74-1.51-12.55-10.69-9.94-16.23c-7.05-0.53-8.43-6.22-10.64-11.36c-1.79-4.16-4.27-8.01-6.1-12.16
			c-2.99-6.77-5.7-13.66-8.53-20.5C393.98,202.76,394.45,202.56,394.92,202.36z"/>
		<path d="M540.57,252.95c0.54,3.79-5.67,12.13-11.79,12.52c2.09,1.09,3.26,1.69,4.16,2.16c-0.3,1.18-0.33,1.69-0.55,2.1
			c-1.5,2.78-3.03,5.54-4.57,8.3c-2.41,4.31-5.77,5.36-10.51,3.24c-4.19-1.87-4.87-5.29-3.54-9.16c2.22-6.46,6.43-11.25,12.31-14.91
			c1.76-1.09,2.04-4.32,3.47-6.22c2.29-3.04,5.05-5.72,7.44-8.68c0.95-1.18,1.38-2.76,2.19-4.07c0.69-1.12,1.55-2.99,2.38-3.02
			c4.96-0.15,3.38-5.47,6.12-7.39c0.95-0.67,0.52-3.16,1.44-4.06c6.03-5.87,12.25-11.52,19.03-17.02
			c-2.23,3.94-4.52,7.85-6.68,11.82c-5.43,10-10.74,20.07-16.26,30.02C544.4,250.04,542.69,251,540.57,252.95z"/>
		<path d="M553.74,196.98c-6.63,10.17-13.3,20.31-19.87,30.52c-1.19,1.85-1.8,4.09-3.06,5.88c-1.09,1.56-2.73,2.74-3.13,3.13
			c-1.77,3.73-3.02,6.44-4.34,9.12c-1.46,2.97-2.98,5.91-4.58,9.07c-1.47-0.16-2.86-0.3-3.53-0.37c-0.49,2.7-0.56,5.14-1.41,7.28
			c-1.6,4.05-4.3,7.7-9.11,6.95c-1.93-0.3-4.26-3.09-4.94-5.21c-1.47-4.6-2.1-9.54,2.65-13.1c2.67-2,4.92-5.29,9.21-2.66
			c-0.17-6.58,4.28-10.36,7.46-14.89c2.6-3.69,4.58-7.81,7.14-11.53c0.88-1.28,2.65-1.96,4.06-2.85c0.59-0.37,1.48-0.4,1.93-0.87
			c6.43-6.89,12.8-13.82,19.21-20.73c0.27-0.29,0.78-0.36,1.18-0.53C552.99,196.45,553.37,196.72,553.74,196.98z"/>
	</g>
</g>
</svg>
