<?xml version="1.0" encoding="utf-8"?>
<!-- Generator: Adobe Illustrator 26.2.1, SVG Export Plug-In . SVG Version: 6.00 Build 0)  -->
<svg version="1.1" id="Layer_1" xmlns="http://www.w3.org/2000/svg" xmlns:xlink="http://www.w3.org/1999/xlink" x="0px" y="0px"
	 viewBox="0 0 960 560" style="enable-background:new 0 0 960 560;" xml:space="preserve">
<g>
	<g>
		<path d="M356,318c1.44-5.94,2.74-11.91,4.37-17.8c1.32-4.78,2.92-9.48,4.62-14.14c0.61-1.66,1.63-4.14,2.88-4.43
			c5.13-1.2,4.92-5.37,6.21-9.04c3.33-9.46,9.05-17.27,18.85-20.55c9.39-3.14,21.91,9.03,18.57,18.32
			c-2.18,6.06-6.51,11.4-10.26,16.8c-1.99,2.87-4.88,4.16-7.87-0.04c-0.08,1.18-0.25,1.69-0.12,2.12c2.3,7.4,2.13,7.63-3.86,12.53
			c-1.84,1.51-3.07,3.76-4.74,5.51c-1.84,1.93-3.67,3.96-5.85,5.42c-2.7,1.8-3.34,3.34-1.04,5.95c1.04,1.18,2.06,2.93,2.05,4.41
			c-0.09,8.68-0.46,17.37-0.79,26.05c-0.44,11.67,3.98,21.61,10.59,30.9c0.81,1.14,0.21,3.28,0.27,4.96
			c-1.64-0.07-3.72,0.49-4.85-0.3c-9.84-6.9-18.93-14.55-24.34-25.73c-3.28-6.79-3.27-7.92,1.91-13.46
			c0.55-0.59,0.91-1.36,1.04-1.55c-2.68-4.54-5.16-8.73-7.63-12.92C356,326.67,356,322.33,356,318z"/>
		<path d="M606,326c-3.23,7.59-6.26,15.28-9.76,22.75c-4.21,9-8.55,17.92-16.35,24.63c-4.72,4.06-8.92,8.74-13.61,12.85
			c-1.1,0.96-3.23,0.74-4.88,1.06c0.4-1.73,0.32-3.79,1.27-5.13c9.9-14,13.69-26.53,14.11-47.98c1.11,0.15,2.18,0.44,3.24,0.42
			c1.74-0.03,4.57,0.28,4.98-0.53c0.8-1.6,1.1-4.78,0.11-5.7c-3.19-2.97-2-6.27-2.4-9.75c-0.91-8-2.76-15.99-5.14-23.71
			c-1.26-4.1-2.49-7.14,2.3-9.37c0.59-0.28,0.84-1.3,1.41-2.23c-0.96-0.45-1.63-0.98-2.37-1.09c-8.39-1.24-12.37-5.45-14.22-15.2
			c-1.33-7.02,1.49-12.84,8.08-16.65c4.92-2.84,13.53-0.87,17.94,2.5c11.44,8.73,13.95,21.08,15.28,34.14c0,0.67,0,1.33,0,2
			c-0.84,3.02-2.25,6.02-2.41,9.08c-0.34,6.39-3.03,13.23,2.41,18.92C606,320,606,323,606,326z"/>
		<path d="M494.91,323.72c-2.31,2.09-3.38,3.04-5.44,4.91c-3.39-3.98-6.69-7.86-10.48-12.3c-0.51,1.32-1.27,3.26-2.03,5.21
			c-2.68-0.8-5.87-1.76-8.25-2.48c-4.9,9.47-11.68,15.95-19.92,20.97c-0.89,0.54-3.06-0.46-4.33-1.25c-2.03-1.26-3.8-2.94-6.74-5.29
			c0.4,5.68,0.71,9.98,1.08,15.22c-3.63-1.32-6.39-2.33-9.03-3.29c-0.54,0.88-0.82,1.15-0.85,1.43c-0.3,3.04,2.57,6.54-1.54,9.02
			c-5.44,3.29-11.08,5.61-17.5,3.41c-11.31-3.87-18.09-13.9-17.16-25.82c0.22-2.85,1.14-6.14,2.9-8.29
			c8.7-10.66,19.45-18.07,33.71-18.81c1.42-0.07,3.05,1.28,4.35,2.28c2.39,1.83,4.6,3.89,6.89,5.85c0.49-0.26,0.98-0.53,1.47-0.79
			c0-2.95,0-5.9,0-9.54c3.72,0,7.67,0,12.4,0c-0.98-1.86-1.37-2.92-2.02-3.78c-3.52-4.61-3.03-7.54,2.58-8.18
			c6.92-0.79,8.5-4.87,9.4-10.46c1.06-6.57,2.53-13.08,3.53-19.65c0.5-3.26,0.55-6.21,5.02-6.55c1.49-0.11,2.85-1.95,4.37-3.08
			c-2.33-3.4-5.11-6.15-6.21-9.46c-0.92-2.79-0.94-6.84,0.47-9.28c4.05-6.99,4.3-14.89,6.32-22.31c3.1-11.36,5.18-23.01,7.7-34.53
			c0.26-1.2,0.62-2.37,2.08-3.51c0.77,9.61,1.54,19.22,2.31,28.83c1.53-9.02,4.47-17.38,8.43-25.39c0.5,0.02,1,0.04,1.49,0.06
			c0.43,1.45,1.14,2.89,1.24,4.36c0.38,5.96,0.65,11.93,0.8,17.9c0.13,5.14-0.23,10.31,0.11,15.44c0.28,4.26,0.35,8.06-4.18,9.3
			c4.97,9.57,5.67,18.86,0.31,28.74c11.35,5.26,7.34,16.7,9.72,25.67c0.39,1.48-1.4,3.57-2.23,5.35c-1.46,3.15-2.1,5.83,1.97,7.87
			c1.28,0.64,2.31,3.23,2.25,4.88c-0.33,9.18,0.37,10.53,8.71,14.14c0.58,0.25,1.06,0.73,1.71,1.19c-1.07,3.39-2.83,7.03,2.63,8.19
			c6.13-4.4,6.13-4.4,9.85,6.11c2.29-2.56,4.52-4.34,5.79-6.65c1.56-2.86,3.23-4.03,6.36-2.75c1.22,0.5,2.57,0.67,3.85,1.03
			c6.12,1.74,13.2,3.1,14.76,10.25c1.93,8.86,0.43,17.79-5.5,25.04c-1.78,2.17-5.41,2.93-8.29,4.07c-1.98,0.79-4.12,1.47-6.23,1.57
			c-2.22,0.11-4.48-0.51-6.72-0.85c-1.6-0.24-3.19-0.59-4.79-0.8c-9.02-1.19-17.11-3.65-19.59-14.4
			c-6.97,1.12-11.27-3.65-15.79-7.69c-1.03-0.92-0.89-3.21-1.16-4.9C495.27,328.28,495.18,326.58,494.91,323.72z"/>
	</g>
</g>
</svg>
