<?xml version="1.0" encoding="utf-8"?>
<!-- Generator: Adobe Illustrator 26.2.1, SVG Export Plug-In . SVG Version: 6.00 Build 0)  -->
<svg version="1.1" id="Layer_1" xmlns="http://www.w3.org/2000/svg" xmlns:xlink="http://www.w3.org/1999/xlink" x="0px" y="0px"
	 viewBox="0 0 960 560" style="enable-background:new 0 0 960 560;" xml:space="preserve">
<g>
	<g>
		<path d="M356,276c6.16-7.21,8.48-15.98,9.73-25.04c0.67-4.89,1.19-9.22,7.68-7.7c0.1-0.93,0.29-1.42,0.15-1.56
			c-5.76-5.64-4.21-11.54-0.76-17.58c0.56-0.99,0.9-2.16,1.1-3.29c0.83-4.85,3.59-7.33,8.56-7.19c3.98,0.12,8.01-0.04,11.94,0.5
			c3.9,0.54,8.19,2.24,8.33,6.57c0.11,3.19-2.17,6.55-3.75,9.64c-0.6,1.17-2.23,1.81-3.86,3.06c5.53,4.44,3.95,9.07,0.84,13.99
			c-1.94,3.07-3.24,6.55-4.45,9.05c2.83,5.15-2.65,7.85-2.02,11.54c-2.63,0-4.89,0-7.88,0c2.7,1.6,5.67,2.54,5.69,3.54
			c0.05,2.08-1.47,4.18-2.07,5.62c5.09,0.76,9.88,2.31,14.51,1.92c4.65-0.38,5.19,1.38,4.94,4.96c-0.04,0.63,0.27,1.28,0.68,2.99
			c1.68-2.11,2.9-3.66,4.39-5.53c6.38,4.48,10.61-3.04,16.72-2.72c-0.65-4.36-2.99-6.61-6.49-8.35c-6.75-3.35-6.67-3.5-4.88-10.73
			c0.51-2.06,0.58-4.35,1.58-6.13c0.79-1.39,2.69-2.15,4.1-3.19c-0.27-0.51-0.55-1.02-0.82-1.53c-1.87,0.53-3.74,1.07-6.63,1.89
			c0.17-2.22-0.12-4.18,0.53-5.75c1.42-3.48,3.66-6.66,4.89-10.19c0.72-2.06,0.13-4.57,0.13-5.45c1.32-5.57,2.09-9.93,3.4-14.12
			c2.37-7.6,10.17-10.34,17.06-6.24c11.8,7.03,13.79,13.61,7.95,27.08c-4.71-2.1-9.16-1.65-13.15,2.03
			c2.57,1.58,5.96,2.54,7.08,4.68c1.12,2.14-0.03,5.47-0.2,8.6c3.31,0,6.51,0,9.77,0c2.31-6.18,7.66-5.12,12.16,0.64
			c7,0,13.47,0,20.28,0c0.7-1.21,1.52-2.6,2.61-4.47c5.26,1.98,10.48,3.94,16.01,6.02c2.47-6.84,8.01-1.9,12.36-2.3
			c2.58-0.24,5.24,0.63,7.84,0.48c3.12-0.18,4.99,0.42,3.88,4.47c26.22-1.36,45.9,8.71,58.2,32.41c-1.08-0.44-2.13-0.67-2.96-1.23
			c-7.33-4.96-15.52-7.36-24.19-8.57c-5.69-0.79-11.46-1.43-16.95-3.01c-2.05-0.59-3.39-3.64-5.82-6.45
			c-1.26,3.12-2.07,5.11-2.94,7.27c-4.44-0.6-9.11-1.52-13.82-1.79c-3.76-0.22-7.67-0.13-11.32,0.69c-3.59,0.81-4.48-0.69-4.88-3.59
			c-0.31-2.23-0.71-4.44-1.19-7.36c-1.67,1.07-3.09,1.46-3.43,2.28c-2.5,6.2-8.04,4.71-12.87,5.78c-7.04,1.56-13.67,0.69-20.57-0.49
			c-5.16-0.89-7.05,0.58-8.92,4.44c5.43,1.52,13.1-3.34,15.94,6.62c1.68-2.27,2.77-3.73,3.97-5.34c4.51,2,8.85,5.44,14.52,2.69
			c0.54-0.26,2.69,2.81,4.57,4.86c9.2-4.08,18.93-0.75,28.63,2.51c1.45,0.49,2.61,1.8,4.04,2.36c1.27,0.49,3.56,1.12,3.99,0.57
			c2.09-2.64,4.19-1.74,6.62-0.88c3.91,1.37,7.87,2.6,11.86,3.72c7.63,2.14,11.63,8.64,16.54,14.57c-1.41-0.42-2.87-0.7-4.21-1.28
			c-6.48-2.82-12.86-4.76-20.27-3.3c-4.55,0.89-9.54-0.47-15.64-0.91c-2.55,5.25-7.57,0.98-12.32,0.08
			c-4.76-0.9-11.05,0.56-9.57-9.31c-0.62,0.41-1.24,0.82-1.86,1.23c-2.17,2.31-4.34,4.61-5.84,6.21c-4.52,0.32-8.39,0.72-12.27,0.85
			c-4.53,0.14-9.12,1.17-13.08-2.78c-1.26-1.26-5.01-1.55-6.53-0.58c-1.47,0.94-2.1,4.08-2.11,6.25c-0.02,3.84,0.71,7.69-0.03,11.78
			c-3.37-3.3-6.87-6.49-10.08-9.94c-3.35-3.6-6.98-4.62-10.99-2.53c6.12,7.77,12.23,15.52,18.63,23.65c1.47-0.62,3.82-1.9,6.34-2.62
			c2.46-0.7,5.43-2.78,7.23,1.37c0.11,0.26,3.07-0.16,4.06-1.01c1-0.86,1.2-2.65,1.92-4.45c3.7,0.83,8.67-1.45,10.27,4.63
			c1.52-0.49,4.31-0.89,4.35-1.49c0.24-3.02,2.08-3.06,4.16-2.92c4.8,0.34,9.67,0.42,14.38,1.26c5.34,0.96,10.2,9.76,9.07,15.52
			c-1.37,6.97-7.54,11.86-14.15,10.04c-2.98-0.82-5.55-3.95-7.75-6.51c-2.28-2.65-4.75-4.06-7.57-1.82
			c-4.63,3.68-7.37,2.57-9.26-4.18c-2.08,8.68-9.28,5.95-13.75,8.59c-0.13,0.08-0.43,0.11-0.48,0.04c-3.98-5.27-7.6-3.12-12.26-0.39
			c-3.97,2.32-9.22,2.33-13.67,3.98c-4.31,1.6-8.32,3.98-12.46,6.02c-0.37-0.44-0.74-0.89-1.11-1.33
			c9.03-7.52,18.06-15.05,27.51-22.92c-9.72-8.75-19.99-15.17-32.61-16.92c-1.3-0.18-3.3,1.27-4.23,2.52
			c-5.79,7.76-8.16,9.99-18.51,1.36c-5.27-4.39-5.25-9.94-4.7-15.82c-3.31,0.15-6.79,1.24-9.19,0.09c-1.65-0.79-1.82-4.7-3.81-6.98
			c-0.34,1.53-0.69,3.06-1.09,4.84c-4.42-0.49-8.87-0.64-13.16-1.53c-5.98-1.24-11.72-6.22-8.93-13.28
			c1.15-2.92-0.74-4.24-3.37-4.78C356,278,356,277,356,276z"/>
		<path d="M606,313c-1.53-1.41-3.46-2.57-4.5-4.28c-3.09-5.04-6.21-10.13-8.56-15.53c-1.38-3.17-1.29-6.98-1.87-10.52
			c-0.04,0.03-0.83,0.63-2.26,1.71c-1.96-7.72-14.61-8.8-11.33-18.29c-3.04-0.93-6.6-0.95-8.27-2.74c-3.72-4-6.96-8.82-4.33-14.86
			c1.88-4.31,5.46-5.69,9.87-4.49c3.9,1.06,7.73,2.38,11.51,3.81c0.98,0.37,2.4,1.64,2.33,2.4c-0.47,5.8,5.44,8.75,6.02,13.95
			c0.26,2.31,0.04,4.67,0.04,7c-0.54,0.22-1.08,0.44-1.62,0.66c1.09,0.4,2.28,1.31,3.24,1.1c5.1-1.11,6.28,2.01,7.09,5.96
			c0.7,3.4,1.73,6.74,2.61,10.1C606,297,606,305,606,313z"/>
	</g>
</g>
</svg>
