<?xml version="1.0" encoding="utf-8"?>
<!-- Generator: Adobe Illustrator 26.2.1, SVG Export Plug-In . SVG Version: 6.00 Build 0)  -->
<svg version="1.1" id="Layer_1" xmlns="http://www.w3.org/2000/svg" xmlns:xlink="http://www.w3.org/1999/xlink" x="0px" y="0px"
	 viewBox="0 0 960 560" style="enable-background:new 0 0 960 560;" xml:space="preserve">
<g>
	<g>
		<path d="M356,317c4.92-9.33,9.92-18.63,14.71-28.03c0.82-1.62,0.49-3.79,1.18-5.52c2.95-7.42,5.96-14.81,9.18-22.12
			c1.93-4.38,6.33-3.97,9.97-3.86c2.85,0.09,5.66,1.58,8.99,2.6c-5.18,6.37-10.04,12.33-14.86,18.31c-0.41,0.5-1.02,1.39-0.84,1.74
			c2.53,4.86-2.37,6.54-3.96,9.64c-3.16,6.17-6.1,12.45-8.6,17.61c5.4,0.83,10.94,2.22,16.5,2.35c4.29,0.1,8.62-1.37,12.91-2.72
			c-4.68-1.81-8.88-4.69-14.24-3.22c-1.38,0.38-4-0.5-4.64-1.62c-0.63-1.1,0.17-3.41,0.96-4.86c3.31-6.12,6.43-12.42,10.42-18.1
			c5.68-8.1,11.89-15.84,18.21-23.46c2.57-3.1,8.43-2.49,11.63-0.18c4.44-1.48,8.15-2.72,12.32-4.12c-0.31-4.66-3.92-7.28-8.65-9.52
			c1.15-1.36,2.13-2.53,2.61-3.09c-6.03-5.06-11.95-10.02-17.81-14.93c5.21-7.42,14.77-12.19,19.61-9.8
			c-0.3-7.79,6.68-10.72,11.12-10.78c6.73-0.1,9.21-4.93,13.57-7.5c11.79-6.96,23.47-0.53,26.82,13.04
			c1.03,4.15-1.38,7.67-5.02,9.47c-5.31,2.62-10.94,4.6-16.53,6.88c-2.14-2.72-3.74-6.34-7.68-2.51c0.66,1.09,1.3,2.16,2.1,3.49
			c-2.66,2.11-5.23,4.16-7.95,6.31c1.95,4.04,7.75,6.92,2.93,12.93c7.08-0.42,9.55,3.6,11.44,9.16c0.57,1.69,4.6,2.48,7.18,3.13
			c2.97,0.75,6.42,0.5,5.76,6.16c3.32-5.93,8.08-4.46,12.23-3.79c4.01,0.65,7.85,2.37,11.43,4.36c2.52,0,5.05,0,8.36,0
			c-3.52-5.86-6.92-11.53-10.47-17.46c1.06-0.78,2.59-1.91,4.57-3.37c-1-0.65-1.7-1.49-2.23-1.39c-7.88,1.5-9.29-4.53-11.2-9.7
			c-2.66-7.18-1.95-8.66,4.65-12.34c4.51-2.51,8.87-5.3,13.44-7.67c1.65-0.86,3.75-0.85,5.83-0.72
			c11.58-9.39,26.58-4.59,30.07,10.12c1.22,5.15-3.1,12.23-8.58,13.47c-3.38,0.76-7,1.49-10.34,1.01c-2.12-0.3-3.92-2.85-6.93-3.95
			c0.5,1.8,1,3.61,1.63,5.89c-0.83,0.79-1.96,1.86-2.82,2.69c1.45,3.93,2.78,7.56,4.41,11.98c4.09,0.28,2.69,5.21,3.98,8.89
			c4.93-1.5,9.78-2.95,14.61-4.46c0.6-0.19,1.5-0.64,1.57-1.08c1.28-7.87,9.29-6.9,13.87-10.39c1.81-1.38,5.09-0.82,9.04-1.32
			c2.96-5.07,9.84-6.35,16.36-6.49c9.06-0.19,18.15,1.14,27.23,1.81c0,0.33,0,0.67,0,1c-6.73,2.42-13.55,4.61-20.15,7.34
			c-6.29,2.6-12.34,5.78-19.54,9.2c-1.2,3.03-16.22,12.84-20.95,12.57c-1.45,2.5-2.91,5.02-4.36,7.54
			c21.48,10.59,28.58,16.95,28.1,23.26c2.89,1.56,5.43,2.38,7.25,4.01c10.5,9.41,18.34,20.61,22.08,34.37
			c0.59,2.16,0.79,4.43,1.4,7.94c-2.49-1.51-4.18-2.15-5.38-3.31c-7.89-7.62-15.81-15.22-23.36-23.16
			c-1.38-1.45-1.16-4.43-1.67-6.69c-7.36,1.26-19.53-7.72-21.54-14.79c-4.97-1.59-9.32-2.99-14.29-4.58
			c-0.14,2.22-0.54,4.32-0.35,6.36c0.47,4.95,3.44,10.52-6.22,12.84c3.98,1.65,5.83,2.41,7.83,3.24
			c-1.65,14.62-3.37,29.21-11.58,42.51c-2.06-13.26-4.02-25.86-6.11-39.28c-5.04-1.03-2.33-6.74-3.43-10.54
			c-1.1-3.82-4.27-8.66,0.85-11.3c-1.63-2.64-3.5-4.83-4.42-7.36c-1.38-3.8-3.71-6.07-7.55-7.22c-12.09-3.61-24.28-5.72-37.03-2.7
			c-0.94-2.1-1.76-3.96-3.03-6.79c-1.39,5.65-4.44,6.76-8.91,6.13c-1.28-0.18-3.64,1.41-4.09,2.68c-0.7,2-2.16,4.65,1.39,6.31
			c7.39,3.45,14.58,7.34,21.93,10.89c13.7,6.62,22.27,17.66,27.32,31.66c2.59,7.19,5.37,14.4,6.99,21.83
			c1.01,4.65,0.03,9.73-1.18,14.84c-3.53-21.9-14.5-39.46-29.65-54.15c-1.99-0.82-3.92-1.52-5.77-2.39
			c-4.94-2.32-9.76-4.94-14.8-7.03c-5.6-2.32-11.38-4.21-17.1-6.23c-6.45-2.28-13.88-0.22-18.73,5.47
			c5.59,1.51,10.98,2.84,16.3,4.44c5.93,1.78,12.04,3.27,17.6,5.89c5.71,2.68,10.89,6.51,16.22,9.96c1.22,0.79,2.65,1.88,3.09,3.14
			c2.6,7.45,10.5,11.66,11.93,19.85c0.19,1.06,2.07,1.79,3.12,2.74c3.82,3.46,5.52,11.61,3.85,16.66
			c-3.82-4.33-7.76-8.96-11.88-13.43c-4.15-4.5-8.58-8.76-12.66-13.32c-0.98-1.09-1.09-2.97-1.73-4.89
			c-3.72,2.68-6.22,1.81-8.74-1.5c-4.04-5.32-9.87-8.04-16.19-9.91c-2.4-0.71-4.58-2.19-7.49-3.62c-1.3,0.19-3.53,0.51-5.73,0.83
			c1.18,13.83-0.01,27.09-8.62,38.57c2.79-12.45,3.31-24.74-0.03-37.33c-3.6,0.95-6.69,1.35-9.33,2.66
			c-1.03,0.51-1.72,3.21-1.41,4.66c1.01,4.69,2.95,9.19,3.79,13.9c0.81,4.54,0.7,9.24-0.19,13.82c-2.64-8.13-5.22-16.29-7.96-24.39
			c-1.21-3.57-5.02-4.59-8.28-2.58c-3.38,2.09-6.75,4.21-10.27,6.02c-4.85,2.51-10.5,1.34-13.52-2.51
			c-3.22-4.11-2.31-7.61,2.3-10.05c1.41-0.74,2.38-2.31,4.34-4.3c-8.7-2.53-15.59-0.84-22.5,0.21C356,319,356,318,356,317z
			 M431.54,278.58c-2.31,1.01-3.99,2.4-5.62,2.33c-5.25-0.21-10.48-0.97-15.73-1.49c-0.78-0.08-1.98-0.28-2.3,0.12
			c-3.23,3.98-6.31,8.08-9.21,11.85c2.5,1.74,4.35,3.03,6.24,4.34c3.41-4.88,5.47-8.4,13.38-8.65c8.49-0.27,17-0.06,25.36-0.06
			C444.33,275.77,434.5,280.97,431.54,278.58z"/>
	</g>
</g>
</svg>
