<?xml version="1.0" encoding="utf-8"?>
<!-- Generator: Adobe Illustrator 26.2.1, SVG Export Plug-In . SVG Version: 6.00 Build 0)  -->
<svg version="1.1" id="Layer_1" xmlns="http://www.w3.org/2000/svg" xmlns:xlink="http://www.w3.org/1999/xlink" x="0px" y="0px"
	 viewBox="0 0 960 560" style="enable-background:new 0 0 960 560;" xml:space="preserve">
<g>
	<g>
		<path d="M606,230c-6.27,1.32-12.48,3.27-18.82,3.83c-13.39,1.19-26.85,1.52-40.27,2.45c-8.91,0.62-17.77,1.91-26.69,2.41
			c-2.36,0.13-5.19-1.08-7.17-2.54c-5.11-3.77-7.1-3.97-9.35,1.84c-2.11,5.45-5.94,6.63-10.74,7.13c-2.48,0.26-5.06,1-7.41,0.55
			c-3.24-0.63-6.37-2.03-9.41-3.38c-1.72-0.76-3.18-2.1-5.67-3.81c-0.75,11.66-9.12,10.41-16.2,10.81
			c-9.42,0.54-18.88,0.42-28.31,0.9c-8.52,0.43-16.55,0.1-20.76-8.93c-0.82,0.46-1.22,0.55-1.31,0.76
			c-2.47,6.36-5.99,10.8-13.94,9.97c-6.25-0.65-12.43-0.35-17.15-5.75c-2.2-2.52-5.61-3.96-7.85-6.45
			c-5.64-6.27-4.76-15.38,2.13-22.53c4.47-4.65,9.23-9.03,14.05-13.32c1.54-1.37,3.6-2.51,5.6-2.95c6.44-1.43,12.95-2.56,19.45-3.67
			c6.17-1.05,10.91,1.59,13.39,7.12c0.59,1.31,1.59,2.43,3.06,4.62c2.24-10.22,9.58-6.61,15.33-7.05c3.09-0.24,6.21-0.04,9.67-0.04
			c0.11,2.1,0.25,4.63,0.4,7.3c1.19-0.23,1.73-0.21,1.78-0.36c2.45-7.34,7.33-7.82,14.13-6.11c7.97,2,16.27,2.69,24.41,4.01
			c2.63,0.43,3.88,1.25,3.1,4.7c-0.56,2.47,1.23,5.47,1.97,8.24c2.35-0.79,5.03-1.11,6.99-2.48c3.24-2.26,5.92-5.31,9.02-7.81
			c2.79-2.25,5.46-2.7,9-0.45c3.38,2.15,7.55,3.36,11.54,4.2c18.6,3.94,37.24,7.66,55.89,11.35c6.67,1.32,13.4,2.31,20.1,3.45
			C606,228.67,606,229.33,606,230z"/>
		<path d="M356,336c3.99-7.66,9.93-13.11,18.29-15.57c4.83-1.42,9.73-2.65,14.66-3.62c7.05-1.39,9.73,0.98,9.94,8.32
			c0.02,0.6,0.16,1.2,0.42,3.06c2.21-2.5,3.75-4.26,5.3-6.01c6.11-6.93,11.81-8.06,18.23-3.38c1.14,0.83,1.79,2.47,2.42,3.85
			c0.66,1.43,1.09,4.31,1.5,4.29c2-0.1,5.13-0.41,5.73-1.66c2.68-5.56,7.26-5.54,12.22-5.34c15.14,0.62,30.29,1.14,45.43,1.79
			c1.63,0.07,3.23,0.69,4.85,1.04c2.39,0.52,3.3,1.54,2.37,4.24c-0.63,1.83-0.12,4.06-0.12,6.11c0.58,0.1,1.16,0.19,1.74,0.29
			c1.24-1.64,2.93-3.12,3.63-4.97c1.42-3.74,3.99-3.82,7.23-3.29c14.85,2.4,29.74,4.63,44.58,7.1c7.66,1.28,15.25,2.96,22.87,4.44
			c6.31,1.23,12.65,2.29,18.9,3.74c1.47,0.34,2.65,1.92,3.96,2.94c-1.29,0.81-2.49,2.06-3.89,2.36
			c-13.55,2.89-27.07,6.05-40.75,8.21c-6.77,1.07-13.87-0.17-20.77,0.34c-8.9,0.67-17.77,1.85-26.59,3.19
			c-6.98,1.06-8.39,0.58-11.46-5.79c-1.45-3.01-8.8-3.73-11.34-1.11c-6.43,6.62-21.79,7.87-29.15,2.37
			c-4.47-3.34-4.66-3.15-6.96,1.61c-0.7,1.46-2.62,2.93-4.21,3.24c-5.32,1.04-10.73,1.74-16.14,2.2c-2.36,0.2-4.8-0.47-7.03-1.29
			c-2.28,0.55-4.62,1.75-6.84,1.55c-9.61-0.85-18.85,0.86-27.95,3.58c-17.46,5.23-26.96-5.45-30.26-20.22
			c-0.13-0.58-0.55-1.09-0.84-1.64C356,340,356,338,356,336z"/>
		<path d="M404,271.88c0.58-0.49,1.04-0.69,1.05-0.93c0.68-8.06,6.29-8.23,12.47-8.26c6.33-0.03,12.55-0.36,18.57,2.34
			c3.14,1.41,4.99,2.75,3.87,6.65c-0.56,1.96,0.14,4.27,0.31,7.18c1.61-1,2.42-1.21,2.62-1.68c2.81-6.45,8.37-5.07,13.64-5.1
			c5.88-0.03,11.89,0.06,17.62-1.05c7.95-1.54,7.86-1.99,11.81,5.3c0.31,0.58,0.72,1.12,1.16,1.6c0.33,0.35,0.79,0.58,1.53,1.11
			c1.04-0.92,2.81-1.7,3.09-2.85c1.41-5.75,5.53-5.49,10.07-5.34c22.11,0.76,43.83,4.27,65.54,8.32c8.16,1.52,16.77,0.54,25.18,0.82
			c2.75,0.09,5.49,0.57,8.23,0.87c0.15,0.57,0.31,1.14,0.46,1.71c-1.87,0.74-3.71,2.02-5.62,2.15c-12.71,0.83-25.45,1.35-38.17,2.08
			c-11.21,0.64-22.41,1.43-34.02,2.18c-0.27,4.37-3.33,4.77-7.28,4.86c-11.71,0.25-23.41,0.88-35.11,1.49
			c-1.1,0.06-2.48,0.83-3.16,1.71c-6.63,8.46-13.61,9.41-22.56,2.61c-6.8,6.84-15.53,6.83-24.42,6.27
			c-2.32-0.15-4.76-0.46-6.97,0.06c-7.4,1.73-13.37,1.06-15.17-8.48c-2.44,7.64-8.83,5.73-13.65,6.87
			c-8.2,1.93-16.28,3.76-24.87,0.54c-7.49-2.8-11.67-7.08-11.46-15.24c0.08-3.13-0.5-6.33-0.07-9.4c0.88-6.29,3.41-11.77,9.33-15.05
			c3.75-2.08,7.46-4.24,11.23-6.28c0.69-0.37,1.64-0.54,2.41-0.43c4.75,0.71,9.56,1.23,14.17,2.48c1.56,0.42,3.87,3.03,3.64,4.2
			C398.7,269.21,400.81,270.59,404,271.88z"/>
	</g>
</g>
</svg>
