<?xml version="1.0" encoding="utf-8"?>
<!-- Generator: Adobe Illustrator 26.2.1, SVG Export Plug-In . SVG Version: 6.00 Build 0)  -->
<svg version="1.1" id="Layer_1" xmlns="http://www.w3.org/2000/svg" xmlns:xlink="http://www.w3.org/1999/xlink" x="0px" y="0px"
	 viewBox="0 0 960 560" style="enable-background:new 0 0 960 560;" xml:space="preserve">
<g>
	<g>
		<path d="M580,406c-6.65-4.25-13.18-8.71-19.98-12.71c-6.43-3.78-13.21-6.97-19.72-10.62c-2.26-1.26-4.17-3.14-5.1-3.85
			c-3.14-0.58-5.14-0.89-7.11-1.34c-6.87-1.54-12.6-6.68-20.23-6.07c-3.33,0.26-7.15-5.67-7.01-10.27c0.07-2.28,0.64-4.55,1-6.95
			c-1.5,1.91-2.78,3.83-4.35,5.48c-6.48,6.82-13.3,1.95-19.21-0.51c-6-2.5-11.34-6.91-16.45-11.12c-3.55-2.93-6.68-6.7-3.9-12.19
			c0.32-0.62-1.46-2.54-2.54-3.58c-1.63-1.57-4.68-2.63-5.07-4.37c-1.39-6.27-2.42-12.72-2.61-19.14
			c-0.15-5.22,1.32-10.28,7.51-12.08c1.18-0.34,2.13-1.45,4.03-2.81c-8.17-2.77-6.62-8.97-4.77-12.6
			c5.18-10.19,11.78-19.55,21.92-25.85c6.97-4.34,19.4,2.33,23.84,10.36c3.92,7.09,1.68,16.37-5.23,21.22
			c-2.45,1.72-5.17,3.14-7.31,5.17c-1.53,1.44-3.5,3.89-3.21,5.52c1,5.69-0.48,9.4-7.59,10.87c8.05,6.2,1.08,10.22-1.42,14.88
			c0.4,0.3,0.8,0.59,1.2,0.89c3.05-2,6.09-4,9.66-6.35c2.19,1.95,4.73,4.23,7.27,6.5c0.5,0,1,0,1.5,0c-0.1-1.53-0.17-3.06-0.29-4.59
			c-0.16-1.86-1.01-3.95-0.43-5.52c1.56-4.19,3.75-8.14,5.65-12.2c1.26-2.7,2.73-4.2,6.22-3.16c1.61,0.48,3.8-0.95,5.72-1.51
			c-0.06-0.64-0.12-1.28-0.17-1.92c-2.75-0.71-5.51-1.42-9.08-2.34c1.04-4.05,1.8-8.24,3.28-12.15c0.5-1.32,2.69-2.49,4.28-2.8
			c3.56-0.69,7.23-0.94,10.86-1.09c4.75-0.2,8.26,4.14,10.38,8.23c3.54,6.84,1.9,12.43-1.51,18.33c-0.72,1.25-0.79,2.87-1.27,4.28
			c-0.84,2.47-2.22,3.51-4.92,2.11c-1.57-0.81-3.43-1.04-5.17-1.53c-0.36,0.58-0.71,1.17-1.07,1.75c1.62,1.54,2.98,3.65,4.9,4.53
			c5.83,2.67,6,2.97,3.69,9.26c-0.74,2.03-0.6,4.38-0.86,6.58c0.56,0.19,1.13,0.38,1.69,0.57c1.25-1.44,2.88-2.7,3.68-4.36
			c2.12-4.38,4.83-5.65,9.28-1.89c0-1.43,0.31-2.41-0.05-2.97c-3.58-5.66-0.13-10.55,1.99-15.34c0.58-1.32,3.58-1.57,4.29-1.84
			c-0.55-5.2-1.53-10.37-1.53-15.54c0.01-7.94-1.27-15.19-7.48-20.78c-3.05-2.75-3.38-5.81-1.35-9.37c0.53-0.93,0.21-2.33,0.29-3.52
			c-1.21,0.15-2.55,0.03-3.62,0.51c-9.24,4.15-8.97,3.94-16.16-3.47c-3.34-3.44-7.53-5.88-3.6-12.26
			c-6.64,3.57-7.77,3.13-10.72-2.46c-5.87-11.12-10.18-22.49-6.18-35.31c1.48-4.72,2.42-9.84,8.88-10.64
			c0.78-0.1,2.17-3.35,1.68-4.13c-2.53-4-0.23-7.01,2.07-9.31c10.14-10.12,20.71-19.74,35.49-22.65c4.33,0,8.67,0,13,0
			c2.03,0.76,4.06,1.52,6.09,2.28c-3.47,1.72-7.21,1.65-9.99,3.25c-7.14,4.11-14.18,8.55-20.61,13.68
			c-3.56,2.84-6.3,4.55-10.92,1.46c-0.25,2.4-0.64,4.96,0.45,6.43c2.25,3.06,1,5.22-0.17,8.14c-2.13,5.32-3.55,10.94-5.11,16.48
			c-0.53,1.88-0.59,3.9-0.92,6.2c9.48,5.95,19.29,12.46,29.46,18.33c3.76,2.17,6.79,4.03,5.74,9.83c6.29-3.31,8.99,0.98,11.57,4.52
			c7.77,10.63,12.86,22.06,9.19,35.92c7.82,3.56,9.26,5.86,7.23,14.64c-1.97,8.54-4.78,16.88-6.79,25.41
			c-1.8,7.66-1.57,7.75-9.57,9.06c-0.62,0.1-1.23,0.31-1.84,0.46c-0.4,0.48-0.81,0.96-1.21,1.44c2.74,1.56,5.49,3.12,9,5.11
			c-8.9,8.44-16.33,15.48-24.09,22.84c9.45,2.15,4.52,7.93,2.79,11.55c3.14,1.53,5.75,2.34,7.8,3.89
			c6.87,5.22,13.6,10.62,20.25,16.13c3.98,3.3,8.01,6.79,5.64,12.95C580.67,406,580.33,406,580,406z"/>
		<path d="M409.02,278.82c-2.8-0.61-5.07-1.11-8.07-1.76c0.96-4.71,1.38-10.09,3.35-14.84c0.84-2.03,4.83-3.68,7.5-3.87
			c9.12-0.66,17.3,2.55,23.08,9.52c2,2.4,1.92,7.17,1.55,10.72c-0.39,3.77-2.15,7.33-7.32,6.99c-1.08-0.07-2.28,1.49-3.42,2.3
			c0.85,1.15,1.46,2.92,2.58,3.34c3.97,1.48,3.75,4.1,2.54,7.22c-0.06,0.16-0.15,0.3-0.2,0.46c-1.74,5.58-2.17,12.37-10.07,11.05
			c0.32,10.68,0.46,20.72-6.2,28.19c6.69,2.62,13.88,5.12,20.73,8.33c1.7,0.8,2.33,3.89,3.65,6.28c8.44-3.63,14.1,1.45,20.13,7.29
			c8.95,8.67,16.38,18.26,22.56,30.65c-1.92-0.92-3.03-1.1-3.54-1.75c-5.33-6.81-12.94-9.59-20.76-12.12
			c-3.26-1.06-6.31-2.79-9.55-3.93c-4.36-1.54-8.77-3.02-13.25-4.12c-3.53-0.86-6.2-1.88-6.44-6.23c-0.06-1.14-2.2-2.99-3.48-3.08
			c-3.91-0.25-8.03,0.95-11.78,0.18c-5.07-1.05-9.86-3.44-14.8-5.18c-4.3-1.51-8.57-3.2-12.99-4.23c-3.11-0.72-5.43-0.94-4.36-5.23
			c0.88-3.51,0.78-7.26,1.19-10.9c0.42-3.78,1.54-6.82,6.34-6.59c1.31,0.06,2.67-0.96,3.88-1.43c-1.14-3.01-2.39-5.49-2.99-8.11
			c-0.67-2.91,0.5-4.77,3.93-4.72c2.9,0.04,5.8-0.27,8.7-0.43c0.1-0.41,0.21-0.82,0.31-1.24c-1.67-0.67-3.38-1.98-4.99-1.88
			c-3.52,0.23-4.18-1.46-3.56-4.2c1.46-6.45,2.28-13.23,4.99-19.13C399.67,283.29,404.55,281.8,409.02,278.82z"/>
	</g>
</g>
</svg>
