<?xml version="1.0" encoding="utf-8"?>
<!-- Generator: Adobe Illustrator 26.2.1, SVG Export Plug-In . SVG Version: 6.00 Build 0)  -->
<svg version="1.1" id="Layer_1" xmlns="http://www.w3.org/2000/svg" xmlns:xlink="http://www.w3.org/1999/xlink" x="0px" y="0px"
	 viewBox="0 0 960 560" style="enable-background:new 0 0 960 560;" xml:space="preserve">
<g>
	<g>
		<path d="M463.96,209.93c2.82,0.09,6.35-1.06,6.37,4.32c1.13-1.31,1.93-2.25,2.72-3.17c8.69,3.2,14.9,12.74,11.82,19.15
			c6.03-3.02,7.4,0.85,8.59,5.11c0.8,2.88,1.78,5.71,2.63,8.58c0.8,2.68,1.54,5.38,2.28,8c-2.14,1.46-4.15,2.82-6.15,4.18
			c0.14,0.49,0.28,0.98,0.42,1.47c1.98,0.28,3.95,0.55,6.36,0.89c1.49,5.79,3.04,11.83,4.74,18.44c0.55,0.09,0.55,0.09,4.65,10.5
			c-1.17,1.71-2.36,3.45-3.8,5.54c6.99,3.55,6.96,9.76,7.76,15.57c1.33,2.35,2.95,4.58,3.93,7.07c1.65,4.2,1.78,9.1,7.78,10.3
			c5.28,1.06,11.36,1.95,10.2,10.67c7.72-4.84,9.87,1.95,13.49,5c2.52,2.12,5.95,4.64,1.7,8.85c8.18,2.49,12.3-3.15,17.37-6.38
			c1.85-1.18,3.83-2.15,6.54-3.65c2.05-5.79,5.94-12.68,6.64-19.88c0.7-7.21-1.77-14.74-3.07-23.6c1.59,1.87,2.62,2.63,3.03,3.64
			c2.36,5.85,4.81,11.68,6.69,17.68c0.6,1.92,1.65,5-1.91,6.19c-0.33,0.11-0.6,1.24-0.46,1.77c2.51,9.14-2.07,16.34-6.67,23.38
			c-0.81,1.23-3.47,1.16-5.16,1.93c-1.49,0.68-2.94,1.56-4.2,2.6c-1.91,1.58-3.36,4.02-5.5,4.95c-3.82,1.67-5.53,3.75-4.37,7.99
			c0.56,2.03,0.46,4.24,0.68,6.6c-1.94,0-3.48,0-5.79,0c6.43,8.87-1.62,13.25-5.05,18.95c-1.6,2.67-3.91,4.91-6.32,7.86
			c-1.74-2.6-2.61-3.91-4.64-6.95c2.2,9.46-2.82,10.46-8.6,10.89c-1.58,0.12-3.1,1.05-4.65,1.61c-2.67,0-5.33,0-8,0
			c-2.18-1.34-4.37-2.68-7.08-4.34c-3.47,1.86-11.16,1.15-14.64-1.95c-3.37-3-5.07-9.09-2.99-12.62c2.64-4.48,3.47-11.17,10.75-10.9
			c7.3,0.27,9.84,3.38,12.84,14.02c0-3.12,0-6.25,0-9.38c2.8-1.15,5.49-2.24,8.36-3.42c1.52,1.98,2.98,3.89,4.74,6.19
			c0.87-1.19,1.95-1.99,1.88-2.66c-0.48-4.58,1.42-7.44,5.25-9.95c1.09-0.71,1.07-4.92,0.06-6.66c-2.61-4.53-3.67-8.56,1.08-12.74
			c-0.56-0.28-1.12-0.56-1.69-0.84c-1.72,2.02-3.44,4.04-5.49,6.44c-5.47-3.25-10.99-6.53-16.77-9.97
			c-0.38,0.62-1.02,1.67-1.67,2.72c0-0.47-0.01-0.94-0.01-1.4c-4.3-0.51-8.63-0.83-12.88-1.61c-2.06-0.38-4.1-1.38-5.89-2.52
			c-1.61-1.03-2.87-2.62-4.28-3.96c-0.35,0.28-0.69,0.56-1.04,0.84c0.26,2.01,0.53,4.03,0.67,5.12c-4.09,1.14-7.68,2.35-11.37,3.05
			c-1.11,0.21-2.7-0.75-3.71-1.6c-3.02-2.52-5.86-5.26-10.2-9.22c-0.88,4.3-1.46,7.13-2.04,9.96c0.42,0.48,0.85,0.97,1.27,1.45
			c-5.42,1.19-10.83,2.39-15.46,3.41c-5.04,2.95-9.68,5.67-14.76,8.64c-0.78-0.5-1.96-1.26-3.22-2.07
			c-0.73,0.77-1.77,1.35-1.77,1.94c-0.05,5.8-4.65,6.35-8.6,7.86c-1.8,0.69-3.58,1.79-4.99,3.1c-2.72,2.51-5.17,5.31-8.94-0.07
			c-0.82,2.13-1.76,3.33-1.58,4.32c0.66,3.61-1.3,5.7-3.89,7.37c-7.7,4.95-15.47,9.78-23.98,13.83c1.08-1.32,2.04-2.78,3.26-3.95
			c8.82-8.49,17.1-17.71,26.76-25.11c7.08-5.43,11.97-13.02,19.52-17.69c1.85-1.15,4.11-1.65,6.97-2.76
			c1.14-1.05,2.8-3.39,5.06-4.47c4.42-2.12,7.8-6.54,13.53-6.1c0.92,0.07,2.06-2.61,3.1-4.03c-6.99-3.89-7.48-5.34-4.52-12.6
			c1.09-2.68,2.12-5.22,5.74-2.73c-1.71-7.41,6.03-9.01,7.75-14.74c1.87,1.64,3.13,2.73,5.01,4.38c-0.34-2.57-0.95-4.34-0.72-6
			c0.78-5.73,4.83-8.55,10.83-7.29c1.3,0.27,2.19,2.47,3.42,3.95c3.51-4.82,5.92,1.23,9.2,1.89c-0.79,5.02-5.49,3.26-7.91,3.52
			c-4.08,0.43-4.65,2.47-5.56,5.49c-1.08,3.57-2.44,7.16-4.34,10.34c-1.75,2.92-4.37,5.32-7.15,8.58
			c13.03-2.18,25.18-4.21,38.03-6.36c-2.19-4.22-3.85-7.42-5.49-10.58c0.99-1.08,1.92-2.09,2-2.17c-3.32-3.34-6.24-6.28-9.17-9.22
			c-1.32-2.94-2.64-5.87-4.01-8.92c2.49-1.4,4.17-2.42,5.92-3.31c1.72-0.86,3.51-1.58,5.26-2.37c-0.12-0.44-0.24-0.88-0.36-1.31
			c-1.9,0.4-3.92,0.51-5.67,1.25c-3.35,1.43-5.38,0.46-6.66-2.78c-1.22-3.09-2.86-6.05-3.65-9.24c-0.53-2.14,0.09-4.56,0.23-7.34
			c-4.86-1.51-6.54-11.46-1.58-18.45c-2.05-0.32-3.91-0.61-5.77-0.91c0.27-0.29,0.55-0.58,0.82-0.86c-1.69-2.12-3.58-4.11-4.99-6.4
			c-0.79-1.28-0.86-3.05-1.08-4.63c-0.29-2.11-0.41-4.24-0.6-6.36c-0.62,0-1.24-0.01-1.86-0.01c-1.01,2.55-2.02,5.1-2.84,7.18
			c-4.11,0.31-7.91,0.6-12.63,0.96c-0.11-0.26-0.66-1.5-1.24-2.84c-0.29,0.22-0.76,0.42-0.98,0.78c-4.02,6.64-18.39,8.31-23.82,2.76
			c-3.81-3.9-1.11-16.5,4.15-18.52c4.14-1.59,8.47-2.69,13.32-4.19c0.77,2.26,1.52,4.49,2.76,8.14
			C447.36,212.68,457.58,214.58,463.96,209.93z"/>
		<path d="M429,156c7.16,6.42,14.35,12.8,21.42,19.31c1.06,0.97,1.51,2.6,2.41,4.23c4.95,0.31,12.02,7.47,12.23,13
			c5.39,0.44,6.98,5.06,8.5,8.89c0.54,1.36-2,4.44-3.76,6.07c-1.46,1.36-3.83,1.75-5.8,2.57c-1.57-1.15-3.57-2-4.64-3.5
			c-3.42-4.83-6.63-9.83-9.64-14.93c-0.83-1.4-0.66-3.39-0.98-5.3c-6.02-1.9-9.18-6.54-7.69-11.77
			c-8.22-3.5-10.59-11.45-14.05-18.57C427.67,156,428.33,156,429,156z"/>
		<path d="M472.68,275.6c-5.79,1.94-9.98,8.32-17.8,6.27c0.53,1.49,1.1,3.1,2,5.63c-3.47,3.15-7.54,6.3-10.87,10.1
			c-1.79,2.05-1.86,5.53-3.48,7.81c-3.99,5.61-7.89,5.85-12.87,1.33c-4.11-3.74-4.22-9.64-0.07-13.46
			c3.41-3.13,7.27-5.81,10.41-9.18c2.55-2.73,4.45-6.11,6.44-9.32c2.35-3.79,4.78-5.84,9.72-3.61c3.34,1.5,7.38,1.44,11.11,2.06
			c1.81,0.3,3.63,0.56,5.44,0.84C472.71,274.58,472.7,275.09,472.68,275.6z"/>
	</g>
</g>
</svg>
