<?xml version="1.0" encoding="utf-8"?>
<!-- Generator: Adobe Illustrator 26.2.1, SVG Export Plug-In . SVG Version: 6.00 Build 0)  -->
<svg version="1.1" id="Layer_1" xmlns="http://www.w3.org/2000/svg" xmlns:xlink="http://www.w3.org/1999/xlink" x="0px" y="0px"
	 viewBox="0 0 960 560" style="enable-background:new 0 0 960 560;" xml:space="preserve">
<g>
	<g>
		<path d="M356,207c4.84-10.92,12.93-18.88,22.58-25.68c5.3-3.74,10.92-4.93,16.91-3.97c1.7,0.27,3.1,3.2,4.36,5.09
			c0.81,1.2,0.88,2.9,1.71,4.07c1.16,1.62,2.73,2.95,4.12,4.41c1.35-1.75,3.96-3.6,3.82-5.23c-0.52-6.26,4.38-6.61,7.96-7.48
			c5.65-1.36,11.59-1.5,17.35-2.48c10.78-1.83,10.77-1.93,18.66,5.62c1.56-2.08,2.88-4.3,4.66-6.05c1.36-1.33,3.27-2.85,5-2.94
			c7.1-0.36,14.22-0.38,21.33-0.19c4.96,0.13,9.91,0.85,14.87,1.21c3.66,0.26,4.16,2.48,3.81,5.5c-0.32,2.77-0.62,5.57-0.56,8.35
			c0.03,1.29,0.68,3.38,1.51,3.64c1.06,0.34,2.84-0.51,3.86-1.38c1.08-0.91,1.38-2.79,2.49-3.61c1.94-1.43,4.18-3.18,6.39-3.34
			c3.24-0.22,5.13,2.41,5.09,5.58c-0.05,3.79-0.73,7.57-0.99,11.37c-0.09,1.39,0.24,2.82,0.39,4.23c0.42,0.11,0.83,0.22,1.25,0.34
			c1.24-2.88,2.63-5.71,3.67-8.66c0.97-2.76,2.31-3.78,5.18-2.4c6.7,3.22,13.4,6.46,20.24,9.37c2.96,1.26,4.46,2.66,3.1,5.92
			c-0.18,0.43-0.11,0.99-0.09,1.49c0.06,2.34,0.15,4.68,0.22,7.01c2.34-1.26,4.71-2.47,7-3.81c0.82-0.48,1.44-1.28,1.84-1.66
			c2.51,0.88,4.63,1.56,6.7,2.36c2.87,1.1,5.59,2.18,4.6,6.37c-0.25,1.05,1.05,2.97,2.16,3.77c8.21,5.91,16.54,11.72,21.89,20.59
			c2.61,4.34,4.62,9.03,6.9,13.57c0,2.67,0,5.33,0,8c-0.63,0.99-1.27,1.98-2.06,3.23c-1.39-4.01-2.9-7.45-3.74-11.04
			c-0.77-3.29-2.3-5.35-5.59-6.24c-0.81-0.22-1.98-1.25-2-1.93c-0.08-4.23-3.52-5.4-6.32-6.04c-6.47-1.47-11.13-5.6-16.11-9.38
			c-1.69-1.28-3.58-2.3-5.71-3.65c-1.33,2.12-2.44,3.9-3.63,5.8c-6.36-1.21-12.68-2.29-18.93-3.7c-1.05-0.24-2.17-1.72-2.57-2.87
			c-0.63-1.81-0.68-3.83-1.1-6.64c-1.78,1.86-2.94,3.07-4.3,4.5c-5.18-3.15-12.73-2.47-14.9-10.61c-7.79,5.4-15.14,0.86-22.55,0.43
			c-4.25-0.25-8.57-0.15-12.72-0.96c-2.05-0.4-3.78-2.47-5.61-3.86c-1.51-1.14-2.8-2.8-4.48-3.37c-0.6-0.2-2.46,1.95-3.04,3.33
			c-1.26,2.96-3.23,4.49-6.4,4.59c-4.64,0.14-9.31,0.59-13.92,0.27c-1.82-0.12-4.02-1.57-5.17-3.08c-3.38-4.43-6.42-4.61-9.55,0.06
			c-0.81,1.21-1.17,2.73-1.7,4.12c-0.95,2.5-2.16,3.38-5.38,3.56c-7.18,0.39-14.29,2.12-21.41,3.41c-8.99,1.62-8.98,1.67-14.89-4.58
			c-0.35,0.29-0.99,0.58-1,0.89c-0.21,5.53-2.18,9.14-7.78,11.82c-4.62,2.21-8.12,2.72-12.28,0.24c-6.14-3.65-10.9-8.46-13.2-15.42
			c-0.45-1.36-1.3-2.58-1.96-3.87C356,212.33,356,209.67,356,207z"/>
		<path d="M441.34,323.21c7.57,0.74,5.68,5.92,6.72,10.03c1.07,4.23,3.29,8.28,5.56,12.08c2.11,3.52,4.95,6.59,7.11,9.39
			c2.43,0.15,4.48,0.05,6.43,0.46c3.03,0.64,4.47,2.1,3.22,5.68c-0.51,1.47,0.46,4.46,1.72,5.31c2.08,1.4,4.56,1.09,6.35-1.7
			c0.85-1.32,2.97-2.11,4.67-2.52c4.27-1.04,8.89-1.07,12.9-2.69c8.01-3.23,7.88-3.56,13.28,3.75c0.94-1.49,2.29-2.69,2.43-4.01
			c0.84-7.49,4.03-12.21,12.08-11c0.46-0.84,0.82-1.26,0.74-1.39c-2.98-4.53-1.42-8.21,1.25-12.45c2.12-3.37,3.15-7.7,3.67-11.73
			c0.51-4,2.16-6.68,5.76-7.88c4.15-1.39,6.97-3.85,6.03-8.29c-0.97-4.56-5.06-4.6-8.86-4.47c-0.32,0.01-0.65-0.11-0.76-0.13
			c-2.28-6.29-4-12.73-6.91-18.57c-2.33-4.67-5.94-8.77-9.36-12.8c-1.27-1.49-3.53-2.48-5.52-2.95c-5.53-1.32-5.9-1.77-3.9-6.93
			c0.41-1.05,0.7-2.14,1.15-3.55c-7.04-2.73-5.93,4.52-8.97,6.76c-8.47-5.57-17.18-4.05-25.92-0.3c-0.59,0.26-1.42,0.69-1.86,0.47
			c-5.3-2.53-8.44-0.5-10.43,4.57c-0.25,0.65-1.56,1.05-2.45,1.25c-4.64,1.04-9.28,2.18-13.99,2.85c-1.6,0.23-3.41-0.69-5.05-1.26
			c-1.28-0.45-2.45-1.19-3.68-1.8c-0.61,1.28-1.49,2.51-1.75,3.85c-0.45,2.32,0.35,6.08-0.87,6.83c-4.71,2.9-9.81,5.65-15.14,6.93
			c-5.21,1.26-10.3-6.24-12.45-13.1c-4.59-14.63,5.63-22.16,13.56-30.71c6.23-6.72,14.63-10.19,23.21-13.05
			c3.55-1.19,5.34-0.58,5.83,3.81c0.42,3.77,2.43,7.35,3.74,11.02c0.63-0.05,1.27-0.1,1.9-0.14c0.29-2.04,1.01-4.12,0.8-6.1
			c-0.45-4.04,0.12-6.59,5-7.09c3.74-0.38,7.47-1.66,11.03-3c4.83-1.82,5.6-1.56,6.64,3.47c0.2,0.95,0.56,1.86,1.15,3.79
			c2.08-2,4.19-3.26,5.12-5.11c1.52-3,3.58-3.19,6.51-3.1c7.29,0.24,14.42,0.15,21.46,3.2c6.99,3.02,13.26,6.62,18.19,12.32
			c-2.04,3-3.94,5.78-5.83,8.57c0.33,0.51,0.66,1.03,0.99,1.54c1.75-0.61,4.11-0.71,5.14-1.93c2.72-3.21,4.49-2.12,6.82,0.35
			c7.42,7.89,14.32,15.87,16.61,27.08c1.23,6.02,7.38,11.87-1.6,16.45c0.49,0.82,0.59,1.25,0.82,1.33
			c10.13,3.55,9.87,1.8,7.53,13.01c-2.13,10.19-2.39,20.86-8.16,30.06c-2.11,3.37-4.2,6.75-6.19,10.18
			c-0.74,1.28-1.71,2.75-1.66,4.11c0.19,5.89-2.86,8.37-8.47,8.35c2.5,5.57,0.21,10.4-5.82,14.27c-11.1,7.14-23.42,10.41-36.21,12.8
			c-7.02,1.31-12.08,0.22-14.3-9.28c-3.55,9.07-8.93,7.47-13.92,4.76c-5.88-3.19-11.51-6.91-16.97-10.78
			c-2.39-1.69-3.81-4.76-6.2-6.44c-5.15-3.61-4.95-8.07-2.86-13.47c-1.07,0.05-1.98,0.1-2.89,0.14c-1.9,0.09-3.79,0.19-5.69,0.28
			c0.02-2.04-0.4-4.21,0.13-6.11c1.67-5.97,1.81-5.93-4.37-6.76c-3.57-15.6,1.36-28.68,12.02-39.95c0.84-0.89,2.86-0.89,4.34-0.9
			c2.16-0.02,4.33,0.32,7.48,0.6c-3.26-5.6-1.05-7.91,3.17-9.55c8.3-3.24,16.71-5.32,25.72-4.01c4.82,0.7,8.3,2.37,7.64,8.17
			c-0.09,0.79,0.7,1.69,1.26,2.96c1.14-1,2.08-1.64,2.78-2.47c4.4-5.25,8.97-5.89,13.82-0.8c3.2,3.36,5.97,7.6,7.53,11.94
			c1.93,5.39,2.49,11.28,3.4,17c0.14,0.9-1.01,2.01-1.56,3.03c-0.81-0.61-1.87-1.06-2.39-1.86c-3.65-5.66-6.37-11.93-12.94-15.34
			c-1.63-0.85-1.91-4.31-2.87-6.74c-0.48,0.23-1.12,0.33-1.24,0.64c-3.16,8.34-9.53,6.21-15.49,4.5c-1.26-0.36-2.03-2.5-2.96-3.87
			c-0.91-1.34-1.73-2.73-2.59-4.1c-0.68,1.69-1.46,3.34-1.99,5.07c-0.22,0.71,0.09,1.58,0.14,2.2c-4.46,1.99-8.69,3.83-12.87,5.79
			c-0.97,0.45-1.93,1.19-2.56,2.04c-3.17,4.3-5.8,9.56-13.38,4.64C441.83,321.54,441.59,322.37,441.34,323.21z"/>
	</g>
</g>
</svg>
