<?xml version="1.0" encoding="utf-8"?>
<!-- Generator: Adobe Illustrator 26.2.1, SVG Export Plug-In . SVG Version: 6.00 Build 0)  -->
<svg version="1.1" id="Layer_1" xmlns="http://www.w3.org/2000/svg" xmlns:xlink="http://www.w3.org/1999/xlink" x="0px" y="0px"
	 viewBox="0 0 960 560" style="enable-background:new 0 0 960 560;" xml:space="preserve">
<g>
	<g>
		<path d="M500,406c-5.58-2.99-9.03-7.65-10.66-13.69c-1.17-4.35-1.15-8.41,1.98-12.22c4.9-5.97,11.71-5.29,15,1.73
			c0.34,0.73,0.71,1.44,1.65,2.07c-0.13-1.15-0.45-2.32-0.36-3.45c0.15-1.8,0.15-4.87,0.96-5.14c2.6-0.86,5.56-1.01,8.34-0.79
			c2,0.16,3.91,1.37,5.87,2.11c-0.15-2.38-0.23-4.76-0.51-7.12c-0.09-0.76-0.73-1.46-1.28-2.48c3.18-2.92,4.04-9.01,10.67-7.25
			c0.61,0.16,2.17-0.85,2.2-1.38c0.06-0.99-0.41-2.32-1.14-2.98c-3.78-3.44-7.81-6.62-11.52-10.14c-0.79-0.75-0.62-2.54-0.85-3.86
			c-0.22-1.25-0.37-2.51-0.56-3.76c-1.09,0.8-2.35,1.46-3.21,2.46c-0.7,0.81-0.92,2.03-1.53,3.48c-3.23-2.07-6.21-3.99-9.87-6.33
			c0.19,3.58,0.34,6.39,0.53,10.02c3.93,2.69,3.02,10.46-3,15.34c-4.13,3.35-10.82,3.18-14.73-0.41c-0.6-0.55-1.3-1.19-1.52-1.92
			c-1.35-4.42-2.83-8.83-3.71-13.35c-0.37-1.89,0.64-4.05,1.15-6.76c-0.76-1.81-1.76-4.58-3.11-7.17c-0.43-0.82-1.81-1.67-2.72-1.63
			c-4.9,0.23-9.78,0.81-14.68,1.11c-2.69,0.17-5.4,0.03-8.34,0.03c-2.54,8.84-11.94,8.33-18.3,12.19c-0.69,0.42-2.81-1.54-4.23-2.38
			c-0.51,8.45-8.46,11.8-12.88,17.68c-2.64,3.52-5.88,6.59-9.3,10.35c-3.57-0.99-5.11,0.89-4.25,5.32c0.17,0.86-0.01,2.02-0.49,2.73
			c-5.8,8.58-11.69,17.11-17.84,26.07c2.3-8.79,4.56-17.39,7.17-27.36c-2.42-2.98,0.43-6.76,2.97-10.34
			c4.02-5.67,8.25-11.2,12.65-16.57c1.03-1.25,3.11-1.64,3.72-3.14c3.28-4.07,6.16-8.58,9.96-12.09c3.63-3.36,6.26-9.93,13.4-6.2
			c0.12-7.29,6.66-7.04,10.85-9.08c4.03-1.96,8.58-6.51,13.47,0.85c0-3.03,0-4.76,0-7.3c5.93-0.63,11.75-1.24,17.89-1.89
			c0.61-1.21,1.49-2.95,2-3.95c-0.8-1.97-1.92-3.41-1.86-4.8c0.26-6.13,0.86-12.25,1.33-18.37c4.81,0.93,8.38,8.68,6.23,14.45
			c4.62,0.05,5.85,2.98,6.68,6.98c1.03,4.91,3.68,8.77,9.32,9.78c2.51,0.45,4.87,1.79,7.06,2.64c0,2.83,0,4.96,0,7.67
			c4.57-4.29,9.89-4.81,15.98-1.17c4.83,2.88,8.94,6.75,8.46,13.85c1.84-1.22,3.04-2.01,4.53-3.01c5.19,5.5,8.98,11.64,9.29,19.56
			c0.07,1.79,0.59,3.56,0.96,5.33c1.09,5.17-0.53,6.94-5.81,6.43c-0.89-0.09-1.82,0.19-2.97,1.42c2.8,0.81,5.61,1.62,8.54,2.47
			c-0.68,8.59-5.42,14.41-12.12,19.02c-2.7,1.86-5.13,4.28-8.07,5.55c-1.6,0.69-4.01-0.49-5.87-0.8c1.48,4.05-0.5,6.9-5.38,8.32
			c-2.8,0.82-5.45,2.18-8.16,3.3C506.67,406,503.33,406,500,406z"/>
		<path d="M404,156c3.08,5.45,5.86,11.09,9.29,16.31c6.03,9.14,12.45,18.01,18.73,26.98c0.47,0.67,1,1.65,1.64,1.77
			c5.17,1.02,5.83,4.66,5.14,8.86c8.48,2.9,13.81,10.11,12.53,17.12c1.64-0.15,3.17-0.29,4.7-0.43c-0.2,0.29-0.41,0.58-0.61,0.87
			c4.02,3.06,7.92,6.31,12.11,9.12c2.5,1.68,2.74,2.95,1.3,5.62c-2.44,4.54-3.44,10.06-6.53,14.01c-3.6,4.6-3.41,10.59-6.93,14.91
			c-3.14,3.85-7.66,3.8-11.93,3.1c-4.27-0.71-4.96-4.66-5.37-8.1c-0.48-4.1,0.03-8.08,5.24-9.37c-2.98-3.29-2.13-5.9,0.65-8.71
			c6.11-6.19,5.61-9.66-1.48-15.32c-2.44-1.95-5.02-4.01-6.64-6.58c-0.96-1.53-0.18-4.16-0.18-6.49
			c-8.94-3.46-19.05-19.2-15.25-26.09c-2.3,0.67-3.87,1.12-5.61,1.62c-7.32-11.94-9.71-25.69-12.81-39.2
			C402.67,156,403.33,156,404,156z"/>
		<path d="M502.99,261.24c5.81,2.11,6.17,5.16,2.27,9.98c4.25,3.54,5.44,8.32,3.09,12.7c-2.54,4.74-6.79,4.34-10.9,3.13
			c-1.62-0.48-3.25-2.1-4.17-3.62c-3.99-6.66-6.79-13.47-4.5-21.7c0.98-3.51-0.03-7.6-0.24-11.42c-0.24-4.3,1.89-6.58,6.07-7.44
			c3.14-0.64,6.11-2.12,9.5-3.36c0.55,0.82,1.43,2.11,2.4,3.55c3.32-6.63,6.32-8.58,13.32-8.71c0.24-4.53,3.35-6.4,7.1-8.44
			c5.8-3.16,11.2-7.15,16.49-11.16c10.76-8.15,18.43-19.34,27.79-28.87c0.63-0.64,1.31-1.22,2.53-1.41
			c-4.79,9.39-8.67,19.46-14.84,27.84c-2.35,3.18-5.75,5.11-6.38,9.79c-0.19,1.38-4.32,1.96-6.22,3.45
			c-3.53,2.75-6.65,6.02-10.13,8.83c-1.74,1.4-3.91,2.28-5.91,3.35c-0.25,0.14-0.91,0.01-0.91,0.06
			c-0.76,6.82-7.77,6.85-11.47,10.48C513.45,252.63,508.51,256.48,502.99,261.24z"/>
		<path d="M466.09,281.82c-2.92,4.48-5.87,9-9.28,14.23c-0.69-1.45-1.43-2.31-1.47-3.21c-0.49-9.94,1.15-19.26,8.48-26.71
			c4.12-4.19,10.96-6.23,14.36-3.53c2.29,1.82,4.51,5.19,4.56,7.92c0.04,2.06-3.35,4.23-5.3,6.26c-0.91,0.95-2.32,1.51-2.99,2.57
			C471.94,283.29,469.03,284.02,466.09,281.82z"/>
	</g>
</g>
</svg>
