<?xml version="1.0" encoding="utf-8"?>
<!-- Generator: Adobe Illustrator 26.2.1, SVG Export Plug-In . SVG Version: 6.00 Build 0)  -->
<svg version="1.1" id="Layer_1" xmlns="http://www.w3.org/2000/svg" xmlns:xlink="http://www.w3.org/1999/xlink" x="0px" y="0px"
	 viewBox="0 0 960 560" style="enable-background:new 0 0 960 560;" xml:space="preserve">
<g>
	<g>
		<path d="M473,406c-4.12-2.64-8.21-5.33-12.37-7.91c-7.44-4.61-7.2-17.42,0.26-21.96c4.87-2.96,8.58-0.75,12.18,2.12
			c3.53,2.82,2.06,6.14,0.73,8.65c0.89,2.67,1.19,5.08,2.42,6.84c1.12,1.59,3.13,3.16,4.97,3.49c3.76,0.69,7.68,0.54,11.54,0.73
			c0.24,0.57,0.49,1.14,0.73,1.71c-3.49,2.11-6.98,4.21-10.47,6.32C479.67,406,476.33,406,473,406z"/>
		<path d="M477,156c0.23,0.79,0.35,1.63,0.7,2.36c2.72,5.76,3.01,11.26,0.36,17.4c-1.88,4.36-1.71,9.4,1.01,14.01
			c1.77,2.99-3.07,12.05-6.99,13.77c-2.99,1.31-9.49-2.37-10.05-6.91c-0.59-4.75,0.46-9.76,1.26-14.58
			c0.18-1.08,2.29-1.84,3.81-2.96c-2.46-9.29,7.88-14.45,8.91-23.09C476.33,156,476.67,156,477,156z"/>
		<path d="M540.44,281.33c0.51,6.58-4.53,7.34-8.93,9.31c-4.77,2.13-9.12,5.2-13.65,7.87c-0.43,0.25-0.78,0.72-1.23,0.82
			c-8.7,2.06-17.35,4.36-26.14,5.92c-2.51,0.45-5.42-1.3-8.14-2.05c0.1-0.48,0.2-0.95,0.3-1.43c-1.9,0.95-3.79,1.9-5.69,2.85
			c-0.03,0.32-0.07,0.65-0.1,0.97c6.73,0.54,13.48,1.73,20.17,1.43c6.3-0.29,8.8,0.3,11.8,6.16c6.08-2.5,6.04-2.43,12.19,1.62
			c6.21,4.09,12.41,8.12,12.08,17.01c0.44-0.35,0.88-0.71,1.31-1.06c2.22,2.48,4.92,4.68,6.55,7.5c3.23,5.6,6.06,11.46,8.71,17.36
			c3.32,7.37,4.12,15.11,1.85,23.25c-0.32-0.94-0.84-1.86-0.92-2.81c-1.19-14.58-10.01-24.57-20.38-33.47
			c-7.97-6.84-9.84-8.75-11.29-13.57c-3.48,0.33-6.78,0.88-10.08,0.89c-4.16,0.02-7.05-1.8-6.78-7.84
			c-1.82,1.73-2.69,2.82-3.79,3.52c-0.98,0.63-2.54,1.51-3.31,1.14c-5.54-2.61-11.08-0.42-16.62-0.46c-3.3-0.02-6.58-1.28-9.9-1.46
			c-2.11-0.11-4.56,0.24-6.33,1.29c-2.65,1.57-4.78,4.01-7.25,5.93c-2.91,2.27-6.06,4.24-8.9,6.6c-2.4,1.99-4.78,3.54-5.83,7.35
			c-1.12,4.04-4.64,1.46-7.55-1.13c0.42,1.62,0.43,2.64,0.91,3.31c3.84,5.33,3.61,6.91-0.89,11.8c-1.17,1.27-1.2,3.52-1.96,5.23
			c-0.7,1.56-1.45,4.03-2.61,4.32c-7.96,1.97-19.48-3.24-23.23-10.22c-7.26-13.53,1.72-26.76,13.39-31.34
			c2.31-0.91,4.69-0.86,4.95-4.41c0.1-1.44,2.31-3.04,3.9-3.99c3.26-1.93,7.16-2.95,10.08-5.26c8.23-6.5,18.66-4.71,28.12-8.45
			c-4.86-1.94-9.63-3.55-14.1-5.77c-1.67-0.83-2.41-3.38-4-4.6c-2.17-1.68-4.66-3.87-7.14-4.04c-10.61-0.76-16.28-8.74-22.2-15.48
			c-5.88-6.7-9.61-15.14-10.55-24.38c-0.05-0.49-0.1-1-0.01-1.48c0.05-0.26,0.4-0.45,0.88-0.96c2.94,4.4,5.49,9.02,8.8,12.99
			c6.74,8.09,16.25,12.36,25.47,16.74c5.5,2.62,12.76,2.68,17.07,6.39c6.02,5.18,11.36,2.04,16.8,1.27
			c5.83-0.82,11.44-3.12,17.17-4.71c2.55-0.71,5.15-1.24,6.46-1.55c6.35-3.7,12.03-6.51,17.12-10.13
			c5.04-3.58,9.48-7.99,14.86-12.62c-1.02-4.98,2.38-8.03,7.34-10.69c5.36-2.88,11.23-1.94,13.95,3.61
			c2.41,4.92,4.8,9.97,6.14,15.23c0.68,2.66-0.39,6.24-1.73,8.85C553.83,281.81,547.37,284.37,540.44,281.33z"/>
		<path d="M518.6,231.95c5.05,2.3,7.17,5.63,6.49,11.13c-0.64,5.1-7.63,11.95-13.11,12.83c-5.32,0.86-9.21-1.58-12.12-7.29
			c-1.37,2.66-2.18,6.46-4.53,8.22c-2.5,1.87-6.45,2.47-9.76,2.45c-5.23-0.04-7.75-4.97-5.97-10.01c0.53-1.5,0.13-3.33,0.15-5.01
			c-1.69,0.34-3.71,0.2-4.99,1.11c-2.48,1.77-4.55,4.13-6.19,5.68c1.1,2.73,2.18,4.8,2.77,6.99c1.52,5.62,3.89,10.58,10.35,11.31
			c2.51,0.29,5.19-0.91,7.78-1.51c0.96-0.22,1.87-0.63,2.81-0.95c0.38,0.57,0.76,1.14,1.15,1.71c-1.96,1.49-3.7,3.64-5.91,4.37
			c-7.55,2.49-15.62,5.52-22.89,0.43c-3.72-2.61-7.05-7.14-8.37-11.47c-1.64-5.37-1.79-11.53-1.03-17.14
			c0.39-2.91,4.11-5.39,6.4-8.01c0.65-0.74,1.82-1.12,2.26-1.93c2.39-4.39,9.3-7.6,14.4-6.44c3.41,0.77,6.77,1.76,10.18,2.49
			c4.69,1,7.65,3.77,9.07,8.29c0.49,1.57,1.08,3.1,1.71,4.88c1.12-0.48,1.98-0.84,2.84-1.2c-2.6-5.97-1.56-11.25,2.8-14.96
			c-5.03-3.95-6.98-12.62-3.64-18.49c4.12-7.25,9.62-13.86,9.04-23.08c2.81,4.14,3.4,8.64,2,13.02c-2.93,9.15-2.75,17.56,3.65,25.38
			C517.32,226.45,517.58,229.09,518.6,231.95z"/>
		<path d="M430.18,234.47c1.57,1.1,2.62,1.85,4.11,2.89c0.48-1.41,0.86-2.51,1.24-3.63c10.8,3.34,15.76,12.45,12.57,23
			c-0.72,2.37-1.38,4.85-2.64,6.93c-0.67,1.1-2.67,2.09-3.92,1.93c-0.98-0.12-1.73-2.08-3.06-3.85c-7.86,0.8-21.97-14.77-17.38-26.1
			c-5.29-5.51-6.66-19.33-3.12-23.32c-0.12-2.55-0.57-4.36-0.21-6c0.85-3.89,2.61-7.64,2.98-11.55c0.27-2.92-0.9-6.04-1.74-8.98
			c-0.52-1.81-1.63-3.44-2.67-5.55c10.09,3.26,11.63,11.35,12.27,19.49c0.34,4.29-0.39,8.88-1.69,13.01
			c-1.36,4.31-0.35,7.22,2.55,10.3C432.52,226.29,435.46,229.89,430.18,234.47z"/>
		<path d="M464.37,345.92c0.96,6.41-5.17,13.15,2.9,16.89c3.38,1.57,7.33,1.92,12.01,3.06c-2.11-8.53,3.68-8,7.73-9.37
			c1.41-6.73,8.66-13.47-0.85-19.92c4.42-0.82,10.9,4.2,12.08,9.43c1.97,8.78,1.45,17.13-5.28,24.1c-2.48,2.57-6.84,2.87-9.89,0.29
			c-1.37-1.16-2.45-2.67-3.79-4.18c-5.64,3.11-11.32,2.44-17.1-0.03c-11.61-4.96-12.03-12.62-9.53-21.94
			c0.73-2.7,4.15-4.57,5.8-7.16c2.64-4.14,5.3-7.76,10.7-8.68c4.33-0.74,11.33,0.68,13.4,4.4c1.08,1.95,1.4,5.52,0.3,7.21
			c-1.53,2.36-4.49,4.41-7.24,5.2C472.18,346.19,468.36,345.74,464.37,345.92z"/>
		<path d="M509.29,373.67c2.92,0.93,5.68,2.38,8.48,2.47c1.39,0.05,3.54-2.18,4.05-3.79c0.35-1.09-1.25-3.25-2.5-4.32
			c-2.86-2.45-7.05-3.64-7.19-8.39c-7.61,0.32-10.1-1.23-10.3-6.45c-0.25-6.21,4.88-11.88,11.13-12.31
			c7.65-0.52,12.03,2.71,13.79,10.39c4.65-0.55,6.12,2.36,6.94,6.36c2.32,11.29-1.76,19.57-11.96,23.79
			C515.32,384.08,509.57,380.17,509.29,373.67z"/>
		<path d="M440.77,211.88c-5.04-2.81-7.69-6.08-6.82-11.86c1.35-8.95,2.1-17.99,3.1-27c0.51-0.06,1.02-0.12,1.53-0.18
			c1.18,9.22,2.37,18.43,3.41,26.58c3.86,4.37,7.12,8.07,10.38,11.76c0.19-0.46,0.41-2.14,1.37-3.07c2.49-2.42,5.18-4.96,9.16-3.05
			c4.23,2.03,8,4.98,8.05,9.87c0.05,4.11-1.46,8.18-6.6,9.3c-2.08,0.45-4.34,1.15-5.97,2.43c-4.62,3.61-8.4,1.07-11.56-1.73
			C443.11,221.64,437.13,218.96,440.77,211.88z"/>
		<path d="M489.33,162.27c10.91,10.5,12.29,23.09,10.19,36.99c-0.82,5.45-2.85,8.82-7.76,10.92c0.21,1.01,0.36,1.8,0.55,2.58
			c1.36,5.69-0.64,8.24-7.49,9.53c-4.16,0.78-8.56-2.31-8.84-6.72c-0.17-2.58,0.08-5.49,1.15-7.77c1.88-4.02,4.28-7.87,6.99-11.38
			c1.03-1.34,3.52-1.56,4.75-2.06c1.25-4.27,2.92-8.56,3.65-13.01c0.44-2.64-0.49-5.54-0.99-8.29
			C490.9,169.44,490.07,165.87,489.33,162.27z"/>
		<path d="M435.7,370.53c-1.2-2.54-4.15-5.41-0.33-9.67c2.62-2.92,4.91-7.17,8.66-5.8c3.57,1.3,7.43,4.92,8.74,8.42
			c1.23,3.29,0.61,8.77-1.5,11.54c-7.59,9.98-18.16,14.73-30.36,8.27c-4.5-2.38-7.57-5.76-6.95-11.76c4.23,1.66,7.59,5.79,12.49,3.2
			c0.86-0.45,1.72-0.91,2.61-1.3C431.16,372.49,433.26,371.59,435.7,370.53z"/>
		<path d="M523.85,387.39c-0.48,9.75-5.73,14.78-14.38,14.77c-6.33-0.01-12.4-0.15-15.18-7.44c-0.33-0.85-1.7-1.77-2.66-1.84
			c-4.56-0.35-5.81-3.79-6.31-7.2c-1.34-9.16,2.04-12.13,11.06-10.19c2.08,0.45,4.29,0.74,6.17,1.65c5.5,2.66,5.89,4.77,4.01,10.85
			c-0.42,1.35,1.56,4.67,3.07,5.17c4.26,1.41,8.51,0.59,11.74-3.05C522.06,389.32,522.78,388.56,523.85,387.39z"/>
	</g>
</g>
</svg>
