<?xml version="1.0" encoding="utf-8"?>
<!-- Generator: Adobe Illustrator 26.2.1, SVG Export Plug-In . SVG Version: 6.00 Build 0)  -->
<svg version="1.1" id="Layer_1" xmlns="http://www.w3.org/2000/svg" xmlns:xlink="http://www.w3.org/1999/xlink" x="0px" y="0px"
	 viewBox="0 0 960 560" style="enable-background:new 0 0 960 560;" xml:space="preserve">
<g>
	<g>
		<path d="M606,381c-1.02-0.38-2.38-0.47-3.02-1.2c-3.61-4.06-7.61-7.93-10.41-12.51c-6.01-9.84-16.17-12.23-25.86-15.64
			c-3.03-1.06-5.93-1.85-5.45-6.33c0.26-2.43-5.2-3.65-7.64-1.77c-1.13,0.87-2.1,1.94-3.34,3.11c-5.59-7.53-13.82-8.94-21.59-10.64
			c-7.07-1.55-7.2-0.97-9.77-6.97c-4.57,4.3-10.12,5.19-15.9,4.14c-6.82-1.25-8-3.4-6.34-9.93c0.15-0.6,0.02-1.26,0.02-2.16
			c-4.23-0.57-7.13,0.28-8.48,4.84c-0.35,1.2-2.7,2.32-4.27,2.57c-6.03,0.94-12.15,1.38-18.18,2.33c-1.09,0.17-1.79,2.11-2.92,2.87
			c-1.79,1.22-3.67,2.6-5.71,3.09c-4.98,1.21-10.11,2.41-14.03-2.74c-0.57-0.75-2.75-1.27-3.29-0.83c-1.28,1.08-3.02,2.95-2.82,4.22
			c0.8,5-2.72,6.25-5.94,7.91c-1.91,0.98-4.02,1.66-5.73,2.9c-2.63,1.91-4.68,2.1-7.61,0.15c-1.96-1.31-4.99-1.01-7.54-1.43
			c0.77,2.72,1.31,5.54,2.41,8.12c0.52,1.21,2.13,1.94,3.7,3.27c-10,10.8-19.67,21.99-34.31,26.13
			c-13.52,3.83-21.43-1.91-25.16-16.73c-0.24-0.93-0.55-1.85-0.82-2.77c0-2.67,0-5.33,0-8c0.37-1.41,0.8-2.8,1.1-4.22
			c1.59-7.6,5.69-11.07,13.44-11.37c1.12-0.04,2.24-0.23,3.2-0.33c0.29-0.56,0.61-0.88,0.57-1.14c-0.6-3.84-1.98-7.52,0.97-11.28
			c5.05-6.44,9.74-13.23,17.83-16.14c1.54-0.55,3.68,0.74,5.57,0.89c1.87,0.15,4.15,0.54,5.51-0.33c0.88-0.56,1.02-3.42,0.48-4.87
			c-1.19-3.2-0.31-5.1,2.58-6.46c7.76-3.64,15.5-7.34,23.3-10.91c2.48-1.13,4.1-0.7,5.25,2.4c0.61,1.65,3.39,2.48,5.19,3.69
			c0.97-1.46,2.3-2.81,2.82-4.41c1.16-3.59,3.57-4.43,6.93-3.99c4.05,0.53,8.11,0.99,12.86,1.56c0.63,1.68,1.57,4.23,2.49,6.69
			c0.77,0,1.24,0.14,1.39-0.02c5.29-5.45,11.57-5.2,18.72-4.84c11.75,0.58,21.72,5.71,31.97,10.11c5.32,2.29,8.63,7.21,9.03,13.34
			c0.46,0.03,0.72,0.12,0.78,0.04c8.03-9.78,16.31-1.91,24.05,0.29c3.37,0.96,5.67,5.7,8.52,8.78c-0.29,1.6-0.61,3.31-0.89,4.83
			c0.62,0.48,0.89,0.88,1.13,0.86c12.15-1.01,16.4,9.32,23.09,16.11c1.38,1.4,2.42,3.14,3.74,4.6c4.64,5.16,9.72,9.99,13.86,15.52
			c2.02,2.7,2.33,6.68,3.47,10.05c0.19,0.57,0.7,1.03,1.05,1.54C606,379,606,380,606,381z"/>
		<path d="M495.47,258.43c-2.29,1.83-3.93,3.14-5.88,4.69c-4.92-4.42-9.91-8.9-15.55-13.96c-0.18,2.76-0.36,5.61-0.56,8.65
			c-0.65,0.12-1.41,0.52-1.89,0.3c-10.59-4.92-19.4,0.42-28.07,5.19c-10.27,5.64-19.1,13.1-25.89,22.82
			c-0.98,1.4-2.58,2.37-3.89,3.55c-0.37-0.28-0.74-0.56-1.11-0.85c0.15-0.72,0.15-1.52,0.48-2.15c3.59-7.09,6.38-14.8,11.07-21.08
			c6.68-8.95,14.75-16.88,22.28-25.2c1.67-1.85,3.49-3.57,5.35-5.23c4.52-4.06,8.16-3.26,10.99,2.74
			c4.44-9.29,12.38-11.18,21.46-10.77c6.22,0.28,6.82,0.95,6.01,7.88c12.01-5.45,17.42,5.4,24.99,10.33
			c6.98,4.54,6.4,12.74,7.1,20.25c0.81,8.71-4.65,13.42-10.16,18.16c-3.63,3.13-9.8,1.79-12.01-2.56
			c-2.09-4.11-3.92-8.45-5.06-12.89C494.42,265.58,495.26,262.48,495.47,258.43z"/>
		<path d="M468.42,189.1c4.57-3.69,8.43-8.36,13.38-10.45c8.6-3.63,18.65,1.89,23.17,10.16c3.31,6.06,7.68,11.58,11.95,17.05
			c2.37,3.04,3.88,5.73,0.86,9.3c1.78,0.9,3.35,1.42,4.59,2.37c4.13,3.18,3.71,9.29-0.95,11.57c-6.59,3.22-13.81,4.35-20.81,2.55
			c-2.73-0.7-5.54-4.2-6.73-7.08c-1.54-3.76-1.51-8.17-2.17-12.42c-3.33,2.13-5.27,0-7.5-3.44c-1.03-1.59-4.57-2.69-6.64-2.29
			c-11.1,2.15-20.38,8.03-27.98,16.15c-6.76,7.21-14.34,13.91-17.89,23.67c-0.68,1.86-2.65,3.25-4.9,5.88
			c1.14-14.06,5.15-25.32,11.75-35.92c6.32-10.16,14.54-18.53,23.15-26.55C463.08,188.36,466.46,189.21,468.42,189.1z"/>
	</g>
</g>
</svg>
