<?xml version="1.0" encoding="utf-8"?>
<!-- Generator: Adobe Illustrator 26.2.1, SVG Export Plug-In . SVG Version: 6.00 Build 0)  -->
<svg version="1.1" id="Layer_1" xmlns="http://www.w3.org/2000/svg" xmlns:xlink="http://www.w3.org/1999/xlink" x="0px" y="0px"
	 viewBox="0 0 960 560" style="enable-background:new 0 0 960 560;" xml:space="preserve">
<g>
	<g>
		<path d="M492,406c-3.28-12.6-10.66-23.03-17.84-33.56c-1.39-2.05-2.93-4.08-3.86-6.34c-0.59-1.42-0.89-3.84-0.09-4.78
			c3.01-3.56,1.48-6.36-1.73-7.47c-8.35-2.87-10.13-11.33-15.02-17.04c-2.06-2.41-1.47-7.27-1.55-11.03
			c-0.02-0.79,2.26-1.64,3.48-2.46c1.22-0.82,2.44-1.64,3.66-2.46c-0.99-1.04-1.92-2.16-2.98-3.12c-5.66-5.11-12.78-6.65-19.84-8.78
			c-3.55-1.08-6.57-4.84-9.06-8c-0.82-1.04,0.7-4,1.27-6.04c0.42-1.49,1.05-2.91,1.58-4.37c-1.65-0.41-3.44-1.44-4.94-1.11
			c-4.84,1.06-8.1-0.58-11.19-4.33c-4.79-5.81-8.36-11.81-7.92-19.73c0.13-2.4-0.87-4.88-1.45-7.3c-1.33-5.48-0.42-6.69,5.35-7
			c0.64-0.03,1.27-0.19,2.22-0.33c-1.49-5.34-5.66-7.82-9.88-9.94c-5.85-2.94-8.49-8.62-6.46-14.79c2.33-7.07,4.86-14.1,6.79-21.28
			c3.14-11.63,10.48-18.88,21.9-22.06c0.88-0.25,2.48,1.07,3.35,2.02c1.42,1.56,2.5,3.41,3.73,5.14c0.65-0.26,1.3-0.52,1.95-0.77
			c-0.59-3.44-0.95-6.94-1.84-10.3c-0.9-3.43-0.43-5.34,3.27-6.9c3.7-1.57,6.93-4.35,10.19-6.82c7.17-5.44,15.46-7.36,24.19-8.13
			c1.59-0.14,3.16-0.6,4.73-0.91c0.33,0,0.67,0,1,0c2.74,0.38,5.48,0.81,8.23,1.13c4.9,0.57,9.86,0.74,14.68,1.67
			c8.99,1.74,8.95,1.92,10.54,12.01c2.78-1.35,5.49-2.15,7.56-3.77c4.93-3.85,12-4.6,17.53-1.37c0.86,0.5,1.69,1.15,2.63,1.42
			c8.49,2.46,13.98,8.46,18.48,15.88c-1.01,3.47-2.85,5.82-7.29,6.37c-4.84,0.6-8.4,3.6-9.98,10.17c4.3-1.28,7.84-2.1,11.2-3.39
			c3.11-1.19,5.36-1,8.04,1.43c10.04,9.13,11.32,14.16,6.34,26.82c-2.66,6.76-4.69,13.77-10.88,18.51
			c-5.4,4.13-20.04,5.66-25.28,1.43c-5.6-4.52-10.59-9.87-15.43-15.22c-2.53-2.8-1.89-5.05,1.91-10.93
			c-3.07,0.82-5.53,0.99-7.45,2.09c-4.75,2.74-9.4,2.88-11.62-1.59c-2.72-5.5-7.54-6.17-12.16-7.26c-4.76-1.12-7.54-2.45-6.08-8.25
			c1.15-4.55-2.59-12.07-6.64-14.37c0,3.39-0.33,6.45,0.07,9.42c0.97,7.24-2.29,11.61-9.34,11.72c-4.18,0.07-7.76,0.99-10.5,4.52
			c-2.25,2.9-4.96,3.99-8.67,1.71c-1.46-0.89-3.88-0.22-5.86-0.26c0.77,1.62,1.22,3.54,2.38,4.8c2.35,2.54,2.67,4.28,0.65,7.64
			c-1.87,3.11-2.25,7.52-2.13,11.33c0.16,5.24,1.41,10.45,2.18,15.59c-6.6,3.42-6.71,3.6-5.92,8.54c3.02,0.83,7.51,0.86,8.25,2.54
			c1.05,2.39-0.66,6-1.18,9.09c2.56,1.05,5.05,2.34,7.7,3.03c1.38,0.36,3.04-0.35,4.57-0.58c-0.22-1.32-0.08-2.85-0.72-3.92
			c-7.73-13.08-1.35-28.02,13.83-31.32c3.2-0.7,7.03-0.12,10.2,0.96c5.79,1.98,11.4,4.56,16.89,7.29
			c5.93,2.96,9.29,10.66,8.35,17.19c-0.44,3.09-0.47,6.29-0.22,9.41c0.37,4.53,3.18,6.91,7.81,6.75c3.43-0.12,5.47,0.84,6.63,4.49
			c0.59,1.86,3.23,3.07,4.94,4.57c0.89-1.73,1.76-3.47,2.66-5.2c0.69-1.33,1.09-3.45,2.14-3.85c7.2-2.74,11.78-8.42,16.59-13.92
			c1.75-2,3.57-3.98,5.61-5.66c0.93-0.76,2.5-0.76,3.77-1.1c0.07,1.36,0.5,2.83,0.12,4.05c-0.59,1.88-1.56,3.7-2.68,5.33
			c-8.07,11.84-14.81,24.62-25.68,34.47c-2.8,2.54-4.5,6.06-9.06,4.97c-2.15-0.52-4.27-1.22-6.44-1.65
			c-4.04-0.8-4.78,1.73-4.75,4.94c0.05,4.62-0.12,9.25,0.21,13.85c0.18,2.61-0.57,3.5-3.12,3.88c-3.92,0.59-6.96,2.59-8.3,6.68
			c6.69,2.24,7.56,3.88,4.45,10.23c-2.15,4.4-2.36,8.62-1.89,13.43c1.22,12.3,1.79,24.67,2.43,37.02c0.09,1.71-0.85,3.48-1.32,5.23
			C493.33,406,492.67,406,492,406z"/>
	</g>
</g>
</svg>
