<?xml version="1.0" encoding="utf-8"?>
<!-- Generator: Adobe Illustrator 26.2.1, SVG Export Plug-In . SVG Version: 6.00 Build 0)  -->
<svg version="1.1" id="Layer_1" xmlns="http://www.w3.org/2000/svg" xmlns:xlink="http://www.w3.org/1999/xlink" x="0px" y="0px"
	 viewBox="0 0 960 560" style="enable-background:new 0 0 960 560;" xml:space="preserve">
<g>
	<g>
		<path d="M356,314c7.65,0.14,15.29,0.27,22.93,0.45c1.15,0.03,2.31,0.25,3.44,0.52c0.97,0.23,1.89,0.94,2.83,0.93
			c10.94-0.14,20.97,5.61,32.19,5.04c-1.12-3.58-2.18-7.01-3.28-10.42c-0.19-0.6-0.46-1.32-0.93-1.65
			c-3.74-2.69-7.41-5.49-11.33-7.9c-11.92-7.35-23.94-14.53-35.91-21.79c-0.65-0.39-1.27-0.82-1.9-1.24c0.2-0.52,0.4-1.04,0.6-1.56
			c15.36,5.4,30.71,10.81,46.3,16.29c1.73-6.97,3.34-13.18,4.77-19.44c0.22-0.97-0.1-2.37-0.7-3.17
			c-4.01-5.35-8.35-10.46-12.2-15.92c-2.81-3.99-5.04-8.4-7.52-12.62c0.41-0.34,0.81-0.68,1.22-1.03
			c7.33,6.57,14.66,13.15,21.77,19.53c6.16-7.7,11.8-15.43,18.2-22.47c2.99-3.29,7.4-5.31,11.25-7.76c1.7-1.08,4.35-1.06,3.54-4.37
			c-0.19-0.77,1.03-2.47,1.95-2.83c9.12-3.54,18.07-8.11,27.55-10.02c14.38-2.89,28.66-0.93,41.5,6.97
			c1.97,1.21,3.17,3.67,5.46,6.43c12.97,3.76,16.69,17.22,24.31,28.26c3.09-2.41,6.45-5.03,9.82-7.64c0.25,0.32,0.5,0.64,0.75,0.97
			c-1.13,1.05-2.28,2.07-3.37,3.16c-2.97,2.97-5.96,5.51-7.83,9.86c-1.71,3.98-6.55,6.94-10.52,9.56
			c-8.39,5.54-15.16,12.21-19.32,21.55c-1.04,2.34-3.69,4.96-6.05,5.51c-5.2,1.22-8.03,4.18-9.49,8.99c0.08,0.06,0.37,0.4,0.51,0.35
			c9.39-3.69,18.73-7.51,28.17-11.06c3.55-1.34,7.37-1.92,10.98-3.12c1.29-0.43,2.86-1.43,3.36-2.58
			c2.34-5.39,4.35-10.93,7.41-16.26c-1.19,4.98-2.37,9.97-3.75,15.76c9.27-3.53,17.74-6.77,26.21-10c0.32,0.62,0.64,1.23,0.96,1.85
			c-16.15,8.54-33.74,15.31-41.9,34.12c21.88-3.59,43.79-7.63,66.26-5.54c-7.28,1.59-14.55,3.21-21.84,4.77
			c-4.54,0.97-8.47,2.48-12.43,5.52c-3.92,3.01-9.8,3.57-14.88,4.96c-10.09,2.75-20.34,4.98-30.3,8.14
			c-4.76,1.51-8.86,5.02-13.53,6.97c-8.09,3.37-16.39,6.23-24.61,9.3c-0.45,0.17-0.96,0.36-1.42,0.32
			c-9.2-0.84-18.44-1.4-27.57-2.75c-3.81-0.56-7.94-2.1-10.9-4.48c-3.92-3.15-8.01-3.91-12.71-4.69c-6.97-1.15-13.72-3.62-20.6-5.44
			c-2.25-0.59-4.64-0.68-6.84-1.39c-3.84-1.24-7.56-2.86-11.38-4.15c-2.32-0.78-4.77-1.16-7.13-1.84
			c-9.07-2.62-18.14-5.26-27.18-7.97c-1.68-0.5-3.27-1.34-4.9-2.02C356,314.67,356,314.33,356,314z M475.94,308.4
			c17.97-12.61,35.24-24.73,52.52-36.85c-4.18,0.41-4.77-2.32-5.2-4.69c-0.76-4.21-2.65-7.19-6.67-9.2
			c-5.31-2.65-9.82-6.07-12.69-11.89c-2.86-5.79-9.36-7.37-15.64-6.15c-3.52,0.69-7.25,0.32-10.89,0.44
			c-1.97,0.06-4.21-0.48-5.85,0.28c-15.01,6.89-27.9,16.3-36.64,32.11c5.78,4.09,11.37,8.05,16.96,11.99
			c4.05,2.86,8.63,5.19,12.04,8.67C468.33,297.67,471.86,303.14,475.94,308.4z M448.35,308.56c-6.87-8.12-12.79-15.12-19.36-22.88
			c0,4.29,0.24,7.42-0.06,10.51c-0.34,3.45,0.95,5.85,3.99,7.03C437.54,305.02,442.29,306.48,448.35,308.56z M534.71,308.25
			c-7.33,3.82-14.65,7.64-21.98,11.46c0.3,0.52,0.6,1.05,0.9,1.57C522.53,320.14,529.22,315.04,534.71,308.25z M448.09,326.5
			c0.31-0.69,0.62-1.38,0.93-2.07c-4.12-2.02-8.24-4.05-12.36-6.07c-0.2,0.4-0.4,0.8-0.6,1.21
			C440.07,321.88,444.08,324.19,448.09,326.5z"/>
	</g>
</g>
</svg>
