<?xml version="1.0" encoding="utf-8"?>
<!-- Generator: Adobe Illustrator 26.2.1, SVG Export Plug-In . SVG Version: 6.00 Build 0)  -->
<svg version="1.1" id="Layer_1" xmlns="http://www.w3.org/2000/svg" xmlns:xlink="http://www.w3.org/1999/xlink" x="0px" y="0px"
	 viewBox="0 0 960 560" style="enable-background:new 0 0 960 560;" xml:space="preserve">
<g>
	<g>
		<path d="M606,323c-0.57,2.87-1.49,5.72-1.61,8.6c-0.17,3.86-1.55,5.59-5.63,5.86c-9.48,0.62-9.63,1.11-10.15,10.27
			c-0.11,1.93-1.17,5.17-2.32,5.42c-3.15,0.7-7.56,1.4-9.68-0.23c-3.33-2.55-6.19-6.71-7.41-10.75c-1.22-4.04-3.28-5.12-6.68-5.04
			c-10.28,0.26-20.54,0.81-30.82,1c-11.26,0.21-22.53-0.02-33.79,0.24c-10.08,0.23-20.15,0.88-30.23,1.32
			c-4.32,0.19-8.56,0.54-12.02-3.21c-0.73-0.79-3.42,0.01-5.13,0.42c-2.33,0.57-4.61,2.19-6.86,2.11
			c-10.44-0.41-20.9-0.92-31.27-2.1c-4.02-0.46-4.77,0.83-4.5,4.06c0.15,1.82,0.61,3.61,0.82,5.43c0.41,3.56,0.58,6.91-3.31,9.12
			c-1.19,0.68-1.67,2.72-2.32,4.2c-0.77,1.74-1.37,3.54-1.81,4.72c-5.11-3.41-9.93-6.34-14.38-9.75c-1.53-1.17-2.49-3.41-3.13-5.35
			c-1.18-3.57-1.55-7.45-3.05-10.86c-0.59-1.33-3.32-2.47-5.03-2.42c-4.64,0.13-9.25,1.06-13.89,1.43c-1.91,0.15-3.87-0.33-5.8-0.52
			c0-0.67,0-1.33,0-2c6.5-1.28,12.97-2.79,19.53-3.73c3.43-0.49,4.46-2.17,3.6-4.99c-1.23-4.06-0.25-7.37,2.07-10.71
			c1-1.44,1.52-3.37,1.77-5.14c2.78-19.68,2.75-39.47,2.16-59.27c-0.13-4.42-3.48-2.8-5.95-2.9c-4.03-0.17-8.08-0.35-12.08-0.87
			c-1.11-0.15-2.99-1.59-2.94-2.31c0.53-6.85-5.29-13.42-0.92-20.41c0.6-0.97,0.92-2.11,1.61-3.71c5.94,0.61,11.99,1.23,18.26,1.87
			c2.92-8.28-2.52-17.68,3.56-25.63c0.72,6.49,1.64,12.53,1.99,18.6c0.23,4.04,2.38,4.8,5.77,5.12c3.46,0.32,6.86,1.28,9.8,1.86
			c3.22-0.51,6.22-1.27,9.26-1.4c5.98-0.26,11.99-0.42,17.97-0.14c7.45,0.34,14.88,1.27,22.33,1.72c3.63,0.22,7.3-0.27,10.93-0.12
			c14.14,0.56,28.26,1.37,42.4,1.81c4.78,0.15,9.63-0.19,14.37-0.87c7.5-1.07,14.53-0.55,22.07,1.29
			c7.65,1.87,16.11,0.41,24.85,0.41c0.88-6.82,1.8-13.87,2.85-22.03c5.62,7.06,4.48,14.68,5.09,22.85
			c7.22,0.26,14.28,0.4,21.31,0.85c1.88,0.12,3.69,1.21,5.53,1.86c-1.79,0.97-3.54,2.68-5.38,2.78c-6.26,0.35-12.56,0.13-18.96,0.13
			c0.66,29.2,7.59,56.05,12.48,83.82c6.44-2.93,10.42,0.61,14.66,3.27C606,320.33,606,321.67,606,323z M568.65,237.82
			c-7.81,0-14.6,0.05-21.39-0.02c-6.71-0.07-13.43-0.56-20.13-0.33c-9.65,0.34-19.32,0.85-28.92,1.87
			c-15.03,1.6-30.39-0.84-45.17,3.67c-0.62,0.19-1.51,0.36-1.96,0.06c-6.88-4.61-13.49-2.51-20.17,0.53
			c-1.29,0.59-2.96,0.31-4.44,0.49c-5.29,0.66-10.58,1.29-15.85,2.03c-5.67,0.8-11.32,1.71-17.77,2.69c0,1.53-0.3,4.01,0.05,6.4
			c2.08,14.28,4.53,28.5,6.32,42.81c0.49,3.87-0.99,7.96-1.32,11.97c-0.14,1.7,0.07,3.57,0.65,5.16c3.51,9.68,10.4,11.35,19.35,7.91
			c0.45-0.17,0.99-0.15,1.48-0.18c21.56-1.33,43.12-2.67,64.69-3.95c1.64-0.1,3.31,0.22,4.97,0.37c6.45,0.59,12.95,1.98,19.35,1.63
			c11.78-0.63,23.49-2.41,35.26-3.44c5.72-0.5,11.54-0.9,17.24-0.43c5.34,0.43,6.01,0.45,6.2-5.13c0.15-4.33,0.09-8.66,0.08-12.99
			c-0.02-9.5-0.3-19-0.06-28.49C567.37,259.7,568.1,248.96,568.65,237.82z"/>
		<path d="M430.07,311.8c3.15-3.29,6.11-6.79,9.48-9.84c5.8-5.24,12.12-9.92,17.73-15.35c5.67-5.49,10.58-11.56,9.01-20.53
			c-0.51-2.93,0.76-5.47,4.4-6.16c1.29-0.24,3.05-1.42,3.41-2.55c1.88-5.89,8.39-5.99,11.94-9.77c0.45-0.48,3.31,0.32,4.09,1.3
			c2.19,2.73,5.4,5.92,5.31,8.84c-0.09,2.81-4.12,5.31-5.89,8.26c-7.37,12.28-18.34,20.25-30.47,27.32
			c-7.83,4.56-14.76,10.67-22.1,16.07c-1.81,1.33-3.66,2.61-5.49,3.91C431.01,312.8,430.54,312.3,430.07,311.8z"/>
		<path d="M539.95,247.94c-3,4.28-5.91,8.62-9.02,12.82c-4.54,6.15-9.18,12.22-13.84,18.28c-5.79,7.54-11.41,15.24-17.54,22.5
			c-3.39,4.01-7.58,7.38-11.63,10.77c-0.56,0.47-2.86-0.16-3.56-0.97c-6.85-7.93-3.96-19.86,5.3-24.36
			c4.54-2.2,8.84-5.21,12.67-8.52c12.12-10.46,23.98-21.23,35.93-31.88C538.85,247.04,539.4,247.49,539.95,247.94z"/>
		<path d="M406.21,299.63c3.05-3.86,6.37-7.55,9.05-11.65c1.42-2.17,1.75-5.07,2.56-7.64c0.05-0.15-0.04-0.34,0-0.5
			c3.13-11.83,7.1-23.18,18.26-30.1c2.88-1.79,9.82,0.55,11.14,3.65c1.11,2.59,2.03,5.28,2.86,7.98c1.24,4.02,0.59,6.94-4.07,8.54
			c-2.71,0.93-5.23,2.93-7.38,4.93c-6.07,5.63-11.6,11.87-17.94,17.16c-4.08,3.41-9.2,5.57-13.86,8.3
			C406.64,300.09,406.42,299.86,406.21,299.63z"/>
		<path d="M557.41,254.74c-5.06,8.11-10.2,16.16-15.12,24.34c-1.6,2.66-3.33,5.56-3.78,8.53c-1.19,7.77-5.89,12.64-11.87,16.97
			c-3.69,2.68-6.97,5.93-10.74,9.2c0.25,0.27-0.27-0.24-0.73-0.79c-1.6-1.95-6.37-0.02-5.78-4.55c0.87-6.73,1.48-13.38,7.33-18.41
			c8.89-7.64,17.29-15.84,25.9-23.8c4.53-4.19,9.07-8.38,13.6-12.57C556.62,254.02,557.01,254.38,557.41,254.74z"/>
	</g>
</g>
</svg>
