<?xml version="1.0" encoding="utf-8"?>
<!-- Generator: Adobe Illustrator 26.2.1, SVG Export Plug-In . SVG Version: 6.00 Build 0)  -->
<svg version="1.1" id="Layer_1" xmlns="http://www.w3.org/2000/svg" xmlns:xlink="http://www.w3.org/1999/xlink" x="0px" y="0px"
	 viewBox="0 0 960 560" style="enable-background:new 0 0 960 560;" xml:space="preserve">
<g>
	<g>
		<path d="M356,288c10.18-3.88,20.63-6.46,31.62-6.11c1.41,0.04,2.95,0.42,4.18,1.09c2.03,1.11,3.02,0.18,4.96-0.68
			c5.03-2.23,10.66-3.22,16.12-4.34c1.81-0.37,3.85,0.39,6.35,0.7c0.32-3.39,3.66-4.63,7.45-4.65c3.45-0.02,4.51-1.73,4.87-4.76
			c0.37-3.13,0.75-6.33,1.73-9.29c1.34-4.05,3.62-7.48,7.43-7.13c-0.12-2.4-1.14-5.35-0.1-6.61c1.25-1.52,4.24-1.6,6.98-2.46
			c-1.44-1.72-2.46-2.95-3.47-4.16c7.87-12.84,19.63-18.66,27.57-13.26c-0.2-5.56,3.96-5.73,7.59-6.12c3.76-0.41,5.79-2.01,5.6-5.9
			c-0.26-5.55,3.85-7.02,9.43-8.32c-6.52-2.59-7.53-6.61-6.45-11.62c0.94-4.36-0.89-9.77,5.07-11.84
			c-2.28-3.5-0.49-17.36,3.09-26.55c0.33,0,0.67,0,1,0c1.04,8.56,2.33,17.1,2.95,25.68c0.17,2.37-1.67,4.88-2.52,7.15
			c0.74,1.34,2.51,3.28,2.88,5.45c1.18,6.97,2.29,14,2.55,21.04c0.19,5.06,1.75,7.28,6.92,8.14c4.3,0.72,9.56,1.59,9.84,7.21
			c1.89,0.12,3.68-0.15,5.14,0.42c2.91,1.14,5.66,2.71,8.45,4.14c4.56,2.34,7.74,8.5,6.77,11.81c2.3,1.68,4.86,2.76,6.19,4.69
			c2.3,3.36,3.74,7.31,5.75,10.89c0.69,1.23,1.9,2.81,3.08,3c4.25,0.68,8.58,0.87,12.89,1.19c3.76,0.28,6.39,3.31,10.45,3.49
			c9.24,0.4,18.44,1.73,27.66,2.68c0,0.33,0,0.67,0,1c-6.54,1.62-13.59,2.21-19.47,5.16c-5.39,2.7-10.71,3.73-16.38,4.24
			c-1.86,0.17-3.78-0.29-5.67-0.46c0.01-0.44,0.01-0.89,0.02-1.33c-2.35,1.37-4.7,2.75-7.71,4.51c1.82,13.21-1.59,25.5-11.9,35.33
			c-0.2,1.8,0.29,4.52-0.7,5.26c-5.54,4.13-7.37,10.88-11.88,15.78c-6.62,7.2-12.85,14.57-22.4,18.06c-1.83,0.67-3.42,2.02-6.01,3.6
			c-0.59-1.07-1.31-2.36-2.02-3.66c-0.82,0.51-1.26,0.69-1.59,1c-1.24,1.13-2.26,2.72-3.71,3.38c-3.5,1.59-8.44,1.44-7.35,7.56
			c0.12,0.66-1.07,1.55-0.81,1.21c0.63,3.49,1.59,5.91,1.36,8.2c-0.57,5.77-1.66,11.49-2.6,17.22c-0.31,1.91-0.82,3.79-2.33,5.72
			c-0.81-4.32-2.16-8.63-2.28-12.97c-0.11-4.17-5.81-7.96-1.4-11.65c-0.84-1.19-2.32-2.35-2.17-3.23c1.06-6.31-3.53-7.09-7.72-7.98
			c-1.57-0.33-3.88,1.31-4.99,0.63c-5.36-3.28-10.43-7.04-15.61-10.61c-0.62-0.43-1.46-1.12-2.02-0.98
			c-4.31,1.12-5.73-2.16-7.79-4.73c-4.95-6.18-7.91-13.16-9.34-21.85c2.77,3.65,5.15,6.48,7.18,9.54
			c3.76,5.68,8.44,9.86,15.07,12.22c4.28,1.52,9.45,2.76,10.53,7.31c4.08-0.36,7.95-0.7,12.18-1.08c0-4.51,0-9.41,0-14.82
			c0.75-0.35,2.02-0.93,4.55-2.09c-7.14-2.87-4.56-8.67-5.31-12.97c-2.93-1.2-5.47-2.24-8.66-3.55c-0.11,0.12-0.93,1.03-2.08,2.3
			c-3.26-2.6-6.37-5.07-10.25-8.17c-5.81,1.06-15.18-10.74-12.36-19.07c-6.21,2.91-8.62-0.85-10.9-5.2
			c-0.46-0.88-2.03-1.53-3.16-1.67c-3.96-0.48-7.97-0.53-11.92-1.09c-1.82-0.26-3.53-1.34-6.18-2.41c-0.04,0.09-0.54,1.3-1.23,2.98
			c-1.54-2.06-2.3-3.08-3.42-4.59c-0.76,1.7-1.37,3.08-1.93,4.32c-4.17,0.27-8.12,0.64-12.08,0.69c-0.98,0.01-1.97-0.99-2.97-1.5
			c-0.97-0.49-2.13-1.53-2.92-1.31c-10.19,2.86-19.89-0.13-29.67-2.27C356,288.67,356,288.33,356,288z M521.28,300.9
			c-0.05-0.11,1.12,1.28,0.8,1.87c-1.94,3.59-4.02,7.14-6.43,10.42c-3.35,4.58-10.78,4.43-12.81,10.79
			c-0.23,0.72-1.59,1.49-2.45,1.53c-6.74,0.33-6.46,5.12-6.61,9.87c-0.08,2.64-0.43,5.33-1.11,7.87c-0.62,2.34-1.85,4.51-3.09,7.42
			c0.32,0.91,1.04,3.02,1.86,5.39c5.91-3.2,11.78-6.38,16.9-9.16c2.04,1.63,3.2,2.56,4.36,3.49c0.45-1.44,0.96-2.87,1.33-4.33
			c0.31-1.23,0.02-2.93,0.76-3.69c2.72-2.83,5.76-5.36,8.76-8.07c0.44,0.54,1.17,1.44,2.73,3.37c0.36-3.84,0.6-6.52,0.85-9.18
			c1.21-0.18,2.35-0.35,3.49-0.52c-0.45-0.27-0.91-0.54-1.36-0.81c0.75-2.74,1.34-5.54,2.31-8.2c0.68-1.85,1.61-3.75,2.91-5.19
			c1.97-2.18,4.61-3.78,6.47-6.04c0.93-1.13,1.58-4.08,0.95-4.65c-3.16-2.86-2.01-5.86-1.21-9.07c0.38-1.54,0.3-3.2,0.49-5.55
			c-4.5,0.36-8.39,0.77-12.29,0.95c-2.56,0.12-3.66,1-4.07,3.77C524.47,295.56,522.8,297.74,521.28,300.9z M521.6,263.81
			c-0.06,0.26-0.12,0.51-0.18,0.77c3.15-0.87,6.3-1.74,9.87-2.73c-3.95-3.33-0.74-5.4,2.35-8.54c-5.08,1.66-8.24,1.18-10.89-2.47
			c-1.89-2.61-4.85-4.45-7.43-6.72c-2.66,4.08-5.71-2.04-8.95-1.78c-5.11,8.79-9.28,10.89-14.89,10.12
			c-7.32-1.01-9.54-6.72-12.63-11.85c-5.88,1.49-11.32,6.93-17.61,0.27c5.37,8.04-3.41,11.14-3.82,16.76
			c-2.52-0.56-4.32-0.96-6.13-1.37c-0.12,0.26-0.24,0.51-0.36,0.77c1.31,1.1,2.61,2.2,3.73,3.14c-1.08,2.4-2.04,4.51-3.01,6.66
			c2.45,0.96,4.1,1.61,4.45,1.74c3.57-0.36,6.03-0.61,8.12-0.82c2.64-3.27,5.28-6.55,8.11-10.06c2.39,2.22,4.18,3.87,5.97,5.53
			c-0.82-4.67,1.21-6.39,4.88-7.13c1.95-0.39,3.82-1.18,5.78-1.53c4.83-0.86,10.25,3.07,10.48,7.43c0.01,0.24,0.37,0.47,0.69,0.84
			c0.88-1.09,1.74-2.14,2.85-3.5c1.68,1.22,3.34,2.08,4.53,3.37c2.7,2.94,5.19,4.13,8.82,1.12
			C517.37,262.96,519.8,263.77,521.6,263.81z M489.16,284.31c-1.28,6.36-3.05,8.81-7.92,10.03c-6.06,1.52-10.53-1.29-13.46-5.57
			c-4.13,2.51-7.95,4.83-12.03,7.3c0.87,3.35,6.02,6.41,0.88,10.96c7.56-1.94,10.19-0.21,10.48,5.8c2.35,0,4.65,0,6.94,0
			c-0.29-9.6,2.95-14.24,10.6-14.69c3.33-0.2,7.39-0.26,9.91,1.42c2.4,1.6,3.22,5.56,4.46,7.95c2.38-2.4,5.24-5.27,7.81-7.86
			c-5.43-4.19-5.75-10.78-5.3-17.73C498.5,285.13,498.5,285.13,489.16,284.31z"/>
	</g>
</g>
</svg>
