<?xml version="1.0" encoding="utf-8"?>
<!-- Generator: Adobe Illustrator 26.2.1, SVG Export Plug-In . SVG Version: 6.00 Build 0)  -->
<svg version="1.1" id="Layer_1" xmlns="http://www.w3.org/2000/svg" xmlns:xlink="http://www.w3.org/1999/xlink" x="0px" y="0px"
	 viewBox="0 0 960 560" style="enable-background:new 0 0 960 560;" xml:space="preserve">
<g>
	<g>
		<path d="M606,259c-15.38,15.25-31.05,30.21-50.3,40.57c-22.74,12.24-47.63,16.36-73.01,18.32c-3.94,0.3-7.89,0.93-11.82,0.89
			c-8.91-0.09-17.33-1.67-22.95-10.43c-9.32,9.3-19.34,5.14-29.63,2.97c-5.6-1.18-10.75-3.03-15.9-5.18
			c-5.42-2.26-9.68-5.49-11.54-11.54c-1.3-4.22-4.52-4.6-7.37-1.11c-1.56,1.9-2.42,4.37-3.89,6.36c-1.6,2.17-3.53,4.09-5.53,6.36
			c-7.44-8.2-14.75-15.26-18.04-25.22c0-2.67,0-5.33,0-8c6.28-8.14,11.89-16.96,19.07-24.21c5.63-5.69,13.9-6.47,21.95-5.38
			c6.61,0.9,13.21,1.93,19.85,2.61c2.81,0.28,5.8-0.75,8.54-0.25c10.72,1.96,16.79,9.15,20.69,18.86c1.14,2.84,3.49,5.19,6.06,8.86
			c4.4-10.14,12.51-12.63,20.5-13.78c6.42-0.93,13.19,0.56,19.81,0.96c1.32,0.08,2.66,0.26,3.97,0.13
			c6.32-0.64,8.73,0.91,10.51,6.97c0.78,2.65,1.77,6,5.16,3.99c2.66-1.57,5.26-4.51,6.22-7.39c1.63-4.87,4.81-5.12,8.57-4.28
			c3.05,0.68,6.21,1.66,8.86,3.26c6.11,3.7,12.76,4.55,19.64,4.74c0.83,0.02,1.71-0.11,2.49,0.11c12.26,3.4,22.65-1.07,32.95-7.14
			c4.63-2.73,10.08-4.08,15.15-6.06C606,256.33,606,257.67,606,259z"/>
	</g>
</g>
</svg>
