<?xml version="1.0" encoding="utf-8"?>
<!-- Generator: Adobe Illustrator 26.2.1, SVG Export Plug-In . SVG Version: 6.00 Build 0)  -->
<svg version="1.1" id="Layer_1" xmlns="http://www.w3.org/2000/svg" xmlns:xlink="http://www.w3.org/1999/xlink" x="0px" y="0px"
	 viewBox="0 0 960 560" style="enable-background:new 0 0 960 560;" xml:space="preserve">
<g>
	<g>
		<path d="M606,361c-6.65-1.22-9.51-6.77-12.63-10.35c-3.16-1.51-5.87-2.14-7.65-3.78c-8.66-8-19.24-12.31-30.11-15.98
			c-3.77-1.28-7.14-2.14-5.89-7.05c-1.04-0.24-1.63-0.6-1.97-0.43c-8.56,4.1-14.67-2.27-21.44-5.24c-4.37-1.91-8.04-5.48-12.46-7.17
			c-3.21-1.23-7.15-0.42-10.71-0.89c-2.03-0.27-3.96-1.3-6.94-2.34c-5.46,5.05-13.99,2.61-21.65,3.17
			c-11.37,0.83-22.38,2.38-32.91,6.76c-2.88,1.2-5.75,3.72-8.28-1.83c-0.65,8.25-5.87,10.52-11.54,13.04
			c-6.96,3.09-13.38,7.39-20.19,10.85c-2.37,1.2-5.22,1.46-8.13,2.23c2.69,4.09-0.01,7.05-4.82,9.46c-1.84,0.92-3.17,2.89-4.66,4.46
			c-7.99,8.48-20.73,7.14-27.11-2.85c-0.25-0.39-0.61-0.7-0.91-1.05c0-3,0-6,0-9c3.35-8.67,9.58-15.02,16.73-20.57
			c5.16-4,10.61-6.93,17.4-3.8c0.83,0.38,1.91,0.24,3.63,0.42c-1.13-7.24,4.1-7.76,8.96-9.31c5.35-1.71,10.4-4.37,15.62-6.51
			c9.06-3.72,18.09-7.52,27.28-10.89c1.63-0.6,3.96,0.7,6.71,1.29c2.32-5.84,8.25-4.05,13.55-4.6c9.57-0.98,19.07-2.68,28.64-3.56
			c5.9-0.54,11.9-0.1,17.31-0.1c0.85,2.58,1.37,4.15,1.88,5.72c2.17-0.91,4.33-1.82,6.07-2.55c4.28,1.64,8.6,3.09,12.74,4.94
			c3.11,1.39,7.53,0.88,8.67,5.59c0.1,0.43,2.21,0.37,3.7,0.58c0.08,0.45,0.31,1.22,0.36,2.01c0.28,4.37,2.56,5.83,5.99,3.18
			c2.89-2.24,4.81-1.7,7.4,0.14c3.1,2.22,6.49,4.02,9.75,6.02c2.46,1.51,4.97,2.46,4.11,6.64c-0.68,3.26,2.41,4.11,6.79,2.04
			c13.32,10.1,20.04,24.69,26.71,39.32C606,359.67,606,360.33,606,361z"/>
		<path d="M447.41,205.64c-5.52-3.26-2.51-9.72-2.5-14.78c0.03-8.03,8.27-14.45,19.34-16.57c5.26-1.01,11.51,2.66,14.63,8.69
			c3.82,7.38,5.57,15.23-1.98,21.63c3.26,7.97,6.53,15.94-4.12,22.9c10.37,1.27,7.78,7.05,6.37,12.83
			c-2.09,8.55-3.6,17.25-5.53,25.85c-0.45,1.99-1.59,3.82-3.01,5.7c-3.13-9.18-10.28-16.67-10.4-27.47c-3.95-0.21-5.1-3.77-6.3-7.68
			c-1.17-3.79-2.8-7.51-4.77-10.96c-1.9-3.33-3.26-6.09,0.44-9.11c0.63-0.51,0.24-2.55-0.04-3.81
			C449.11,210.81,448.38,208.84,447.41,205.64z"/>
		<path d="M453.41,338.77c-0.28-0.64-1.09-2.51-1.96-4.54c6.41-10.74,14.02-18.02,22.97-21.55c-0.36,2.21-0.6,4.12-0.98,6
			c-1.4,6.82-2.67,13.67-4.39,20.42c-0.47,1.83-1.98,4-3.61,4.8c-3.66,1.79-4.35,3.96-4.16,8.05c0.39,8.49-1.74,16.66-7.68,23.19
			c-2.93,3.21-13.33,3.89-16.57,1.51c-3.23-2.37-4.78-10.18-2.54-14.73c2.84-5.77,5.21-11.86,10.83-15.84
			C447.97,344.19,450.21,341.7,453.41,338.77z"/>
		<path d="M467.52,386.45c0.86-5.37,1.68-10.75,2.6-16.12c0.79-4.58,1.48-9.2,2.68-13.68c0.38-1.42,2.1-2.62,3.44-3.59
			c1.13-0.82,2.59-1.16,5.07-2.2c-2.66-1.17-3.95-1.73-5.7-2.5c1.09-1.72,2.05-3.42,3.2-4.99c1.5-2.03,3.52-3.83,0.61-6.35
			c-0.45-0.39-0.32-1.91,0.02-2.69c1.85-4.25,3.37-8.77,5.95-12.54c2.04-2.98,5.11-6.31,8.35-7.21c8.17-2.26,12.53,2.22,10.96,10.65
			c-0.86,4.58-0.4,10.21-6.62,12.08c-0.5,0.15-1,1.71-0.84,2.47c1.53,7.17-3.26,14.63-9.46,15.88c-1.29,2.76-2.1,5.02-3.33,7.02
			c-4.25,6.95-8.64,13.82-12.99,20.71c-0.76,1.2-1.58,2.35-2.37,3.52C468.56,386.77,468.04,386.61,467.52,386.45z"/>
	</g>
</g>
</svg>
