<?xml version="1.0" encoding="utf-8"?>
<!-- Generator: Adobe Illustrator 26.2.1, SVG Export Plug-In . SVG Version: 6.00 Build 0)  -->
<svg version="1.1" id="Layer_1" xmlns="http://www.w3.org/2000/svg" xmlns:xlink="http://www.w3.org/1999/xlink" x="0px" y="0px"
	 viewBox="0 0 960 560" style="enable-background:new 0 0 960 560;" xml:space="preserve">
<g>
	<g>
		<path d="M492,156c2.74,6.89,5.84,13.67,8.12,20.72c1.85,5.73,2.55,11.83,4.1,17.68c0.99,3.72-1.26,5.27-3.5,7.34
			c-2.12,1.95-3.73,4.46-5.21,7.24c7.28,0.03,8.39,5.22,9.55,9.76c1.85,7.26,7.23,12.09,11,18.04c3.14,4.96,4.53,11.25,5.71,17.15
			c0.75,3.76-0.29,7.87-0.53,11.83c-0.52,0.02-1.04,0.05-1.57,0.07c-0.8-0.87-1.61-1.75-2.41-2.62c-0.49,0.08-0.97,0.17-1.46,0.25
			c0.14,1.35-0.05,2.86,0.48,4.03c0.89,1.93,2.93,3.52,3.28,5.47c2.21,12.22,2.92,24.43-2.61,36.12
			c-3.38,7.14-10.3,10.13-16.61,13.71c-2.63,1.49-4.48,0.54-5.34-2.83c-1.16-4.51-2.43-4.66-6.21-1.94
			c-2.27,1.63-4.72,3.01-7.16,4.39c-4.06,2.3-4.67,6.16-3.04,10.46c2.44,6.44,5.69,10.87,13.01,12.71
			c2.18,0.55,3.65,6.54,4.17,10.22c0.36,2.52,0.86,3.8,2.84,5.48c2.08,1.77,3.82,4.77,4.28,7.47c2.61,15.34-2.88,27.66-14.9,37.26
			c-2,0-4,0-6,0c-1.34-0.53-2.73-1.62-4-1.49c-6.23,0.63-8.82-3.61-11.3-8.03c-1.36-2.41-2.49-4.95-3.77-7.52
			c1.49-0.78,2.7-1.41,3.91-2.04c-6.15,0.2-8.32-4.49-10.98-8.28c-4.79-6.85-7.66-14.36-6.85-23.16c1.55-0.7,3.14-1.41,4.49-2.02
			c-13.41-13.01-13.58-30.07-13.97-46.47c-0.14-5.88,4.35-11.98,7.22-17.73c0.65-1.3,3.56-2.43,5.14-2.12
			c5.48,1.07,11.1,2.18,16.16,4.43c6.39,2.84,7.84,3.11,12.53-2.03c3.31-3.63,6.74-6.69,12.06-7.32c1.6-0.19,3.98-2.93,4.11-4.63
			c0.35-4.72,0.14-9.59-0.72-14.24c-0.64-3.5-1.57-6.24,2.25-8.63c0.99-0.62,1.34-4.13,0.53-5.39c-1.66-2.59-4.23-4.62-6.55-6.74
			c-7.86-7.18-14.79-14.95-16.69-25.94c-0.82-4.78,0.11-9.04,2.99-13.18c4.26-6.13,8.36-12.46,11.77-19.1
			c3.53-6.87,2.87-13.99-0.43-21.09c-0.92-1.98,0.02-4.83,0.1-7.28C490.67,156,491.33,156,492,156z"/>
	</g>
</g>
</svg>
