<?xml version="1.0" encoding="utf-8"?>
<!-- Generator: Adobe Illustrator 26.2.1, SVG Export Plug-In . SVG Version: 6.00 Build 0)  -->
<svg version="1.1" id="Layer_1" xmlns="http://www.w3.org/2000/svg" xmlns:xlink="http://www.w3.org/1999/xlink" x="0px" y="0px"
	 viewBox="0 0 960 560" style="enable-background:new 0 0 960 560;" xml:space="preserve">
<g>
	<g>
		<path d="M530,156c1.33,0,2.67,0,4,0c1.31,0.65,2.68,1.21,3.92,1.97c8.25,5.06,15.77,10.83,16.14,21.61
			c0.17,4.9-0.2,9.92-1.16,14.71c-0.46,2.3-2.82,5.96-4.39,5.99c-5.43,0.11-6.99,4.06-9.42,7.39c1.14,1.85,2.26,3.68,3.39,5.5
			c6.09,9.73,7.83,20.69,8.83,31.8c0.39,4.34,0.45,8.77,0.02,13.09c-0.19,1.96-1.93,3.76-3.25,6.15
			c15.14,0.52,29.52-5.85,43.66,1.45c-9.93,3.5-19.98,6.38-30.02,9.33c-3.99,1.17-9.03,0.94-10.03,6.56
			c-1.09,6.13-2.52,12.27-2.82,18.46c-0.46,9.44-8.99,16.16-8.18,25.89c0.03,0.36-0.6,0.76-0.89,1.17
			c-1.55,2.11-3.09,4.23-4.48,6.13c6.32,8.7,13.52,16.75,18.5,26c5.03,9.35,5.79,20.14,4.07,30.85c-1.16-2.85-1.17-6.02-2.29-8.72
			c-1.9-4.57-4.09-9.14-6.91-13.18c-3.75-5.38-7.75-10.79-12.57-15.17c-3.09-2.81-7.86-3.78-11.43-5.37
			c-4.01,2.7-7.75,6.59-12.24,7.85c-4.12,1.16-7.25,1.52-6.63,6.69c-2.83,0.29-5.46,0.07-7.73,0.88c-7.56,2.69-15.03,5.68-22.47,8.7
			c-4.33,1.76-8.07,1.52-10.76-2.62c-9.16,5.93-29.94,3.24-33.85-1.99c-3.43,7.7-7.16,15.43-10.32,23.39
			c-2.41,6.06-3.53,12.79-10.71,15.46c-1,0-2,0-3,0c-5.34-4.7-10.64-9.45-16.04-14.07c-3.33-2.85-6.64-14.46-4.58-18.34
			c4.17-7.87,8.55-15.64,13.23-23.22c1.42-2.3,1.86-3.74,1.09-6.56c-1.16-4.27-0.56-8.89-5.32-11.67c-1.09-0.64-1.1-3.37-1.33-5.17
			c-0.63-4.88-1.11-9.78-1.56-13.79c-5.28-1.5-10.83-2.03-15.24-4.56c-8.72-5-7.65-11.95-5.54-23.19c0.38-2.04,1.91-4.73,3.63-5.48
			c5.34-2.33,10.91-4.73,16.6-5.45c4.75-0.6,9.98,2,12.4-2.54c2.28,1.43,3.7,2.84,5.36,3.25c5.37,1.33,10.6,2.22,16.43,1.07
			c7.1-1.4,14.56-0.93,21.87-1.29c0.23-0.01,0.44-0.35,0.8-0.66c-0.39-0.79-0.79-1.61-0.57-1.16c-2.78,0.22-5.51,1.27-6.68,0.35
			c-1.95-1.53-2.9-4.33-4.76-7.39c-5.88-1.31-8.49-4.05-8.74-10.37c-0.07-1.82-0.09-3.69,0.21-5.48
			c1.8-10.66,15.61-18.74,24.68-10.73c3.74,3.31,9.29,4.94,9.21,11.57c9.44-2.66,9.53,5.66,12.71,10.63
			c3.84-3.24,2.47-12.71,9.83-8.52c1.71-3.28,2.92-6.36,4.78-9c2.56-3.65,5.88-6.78,8.34-10.48c2.07-3.11,4.92-4.11,7.66-2.6
			c4.68,2.59,9.47,5.48,13.12,9.29c4.29,4.48,4.59,10.52,4.15,16.8c-0.4,5.73-0.75,6.73-6.5,5.54c-1.04-0.21-2.06-0.5-3.34-0.81
			c0.19,2.12,0.34,3.72,0.54,5.96c4.96-0.33,9.68-0.64,14.69-0.97c1.7-7.32-7.79-13.96-0.38-20.33c-2.23-1.97-4.64-3.19-5.61-5.13
			c-2.06-4.13-3.8-8.53-4.88-13.02c-2.07-8.57-4.94-7.34-12.58-4.44c-1.06,0.4-1.91,1.37-2.96,1.84c-4.45,1.97-8.55,5.44-14.05,3.18
			c-0.68-0.28-1.95,0.8-2.91,1.33c-1.29,0.72-2.46,1.99-3.81,2.23c-12.14,2.07-24.27,3.96-36.63,1.23c-2.46-0.54-6.05-0.19-7.86,1.3
			c-6.46,5.31-13.25,10.58-15.69,19.26c-0.22,0.79-0.6,1.57-1.03,2.27c-3.4,5.51-8.81,8.67-14.28,11.58
			c-1.08,0.57-3.33-0.04-4.51-0.86c-3.52-2.45-6.77-5.28-10.15-7.94c-4.91-3.86-7.35-8.52-5.03-14.84
			c2.79-7.61,5.53-15.24,8.32-22.84c0.22-0.6,0.64-1.17,1.07-1.66c3.07-3.51,6.16-6.99,8.46-9.59c-2.2-5.32-3.88-9.32-5.51-13.33
			c-0.79-1.95-1.12-4.2-2.31-5.84c-5.23-7.25-8.19-15.1-7.91-25.23c6.04,5.12,11.17,9.45,13.97,16.02c0.65,1.54,2.31,3.46,3.75,3.7
			c5.21,0.87,9.13,3.29,12.66,7.22c5.43,6.04,5.64,5.85,12.33,1.76c1.85-1.13,3.72-2.22,5.6-3.29c5.81-3.31,11-8.33,18.62-6.62
			c0.47,0.11,1.1-0.57,1.68-0.82c1.68-0.74,3.32-1.9,5.06-2.08c6.23-0.63,12.57-2.1,18.54,1.43c0.7,0.42,1.92-0.07,2.91-0.11
			c8.67-0.31,13.75-6.54,19.52-11.7c1.07-0.95,3.11-1.89,4.23-1.49c2.54,0.91,3.92,0.57,5.31-1.8c0.72-1.23,2.42-1.9,3.71-2.77
			C520.52,162.38,525.26,159.2,530,156z M518.14,322.47c0.3-0.29,0.61-0.59,0.91-0.88c-1.01-1.36-1.85-2.92-3.07-4.05
			c-7.3-6.72-14.9-13.12-21.97-20.07c-4.27-4.19-8.83-4.21-13.7-2.42c-3.37,1.24-6.99,2.68-9.55,5.05c-3.48,3.23-6.23,3.56-8.99,0.3
			c-4.53,3.97-8.76,7.66-13.11,11.47c0.79,0.49,1.05,0.78,1.32,0.8c4.47,0.25,9.5-2.94,13.23,2.2c0.19,0.26,1.83-0.02,2.21-0.51
			c3.23-4.15,7.47-2.75,11.48-2.12c5.32,0.84,10.59,1.96,15.9,2.89c0.78,0.14,1.66-0.03,2.45-0.25c7.78-2.18,14.18,0.6,20.04,5.45
			C516.2,321.09,517.18,321.76,518.14,322.47z M463.53,333.71c-1.53,1.25-3.62,4.33-5.35,4.14c-8.25-0.91-12.51,5.29-17.93,9.28
			c-0.71,0.52-0.12,4.57,0.34,4.67c4.41,0.92,9.08,2.33,13.38,1.68c9-1.35,17.79-4.01,26.73-5.83c2.71-0.55,5.63-0.09,9.06-0.09
			c2.47-2.84,5.67-6.51,9.02-10.36c-3.24-2-6.43-4.84-10.79-1.38c-0.74,0.59-2.2,0.39-3.32,0.35c-4.78-0.17-9.58-0.26-14.34-0.7
			C468.11,335.29,465.95,334.37,463.53,333.71z M414.22,330.05c4.03-2.84,9.46-6.49,14.71-10.4c8.59-6.4,11.2-9.44,12.74-13.74
			c-2.05-0.87-4.17-1.51-6.01-2.61c-3.71-2.23-9-1.37-12.35,1.46c-2.22,1.87-5.11,3.18-7.92,4.03c-3.81,1.15-7.82,1.63-11.15,2.28
			c0,4.13,0,7.69,0,11.24c0.32-0.55,0.64-1.1,0.97-1.65C408.12,323.69,411.04,326.74,414.22,330.05z M503.53,289.17
			c6.63,9.58,12.4,17.91,18.17,26.25c0.63-0.2,1.25-0.4,1.88-0.61c-0.18-2.42-0.08-4.9-0.6-7.25c-1.32-5.96-1.4-5.95,4.45-6.78
			c0.92-0.13,1.78-0.68,3.63-1.41c-5.16-4.01-4.7-9.09-2.85-15.42C519.58,285.78,512.23,287.33,503.53,289.17z"/>
	</g>
</g>
</svg>
