<?xml version="1.0" encoding="utf-8"?>
<!-- Generator: Adobe Illustrator 26.2.1, SVG Export Plug-In . SVG Version: 6.00 Build 0)  -->
<svg version="1.1" id="Layer_1" xmlns="http://www.w3.org/2000/svg" xmlns:xlink="http://www.w3.org/1999/xlink" x="0px" y="0px"
	 viewBox="0 0 960 560" style="enable-background:new 0 0 960 560;" xml:space="preserve">
<g>
	<g>
		<path d="M606,391c-1.89-1.03-4.3-1.63-5.59-3.16c-13.75-16.44-27.43-32.85-48.56-40.5c-3.95-1.43-8.21-3.09-5.8-9.27
			c1.03-2.65-1.9-3.46-3.81-2.52c-1.59,0.78-2.45,2.94-3.91,4.15c-1.16,0.96-3.16,2.35-4.09,1.95c-9.65-4.18-19.68-6.4-30.17-6.25
			c-3.65,0.05-5.22-1.41-5.04-5c0.09-1.64,0.01-3.29,0.01-5.17c-5.92,1.02-10.16,3.99-13.2,8.62c-2.04,3.11-3.63,6.17-8.4,5.08
			c-5.52-1.26-7.43-2.57-8.96-7.74c-7.71-0.53-9.77,0.98-10.52,8.06c-0.31,2.95-1.67,3.93-4.57,3.79
			c-8.29-0.42-15.83,1.73-22.94,6.18c-3,1.87-6.87,2.36-10.34,3.48c-0.42-0.4-0.85-0.8-1.27-1.2c0.6,2.48,1.06,5,1.82,7.43
			c0.93,2.96,0.13,4.67-2.49,6.62c-5.69,4.24-10.77,9.28-16.34,13.69c-3.72,2.95-7.64,5.76-11.83,7.95
			c-7.16,3.73-13.48-0.41-19.71-3.21c-7.38-3.31-12.4-8.89-14.28-16.97c0-2.33,0-4.67,0-7c2.99-2.69,5.98-5.38,9.01-8.1
			c-0.01-0.08,0.03-0.31-0.06-0.39c-6.73-5.66-7.08-5.98-2.88-14.42c4.76-9.57,11.19-18.02,19.69-24.69c1.28-1,2.86-1.87,4.43-2.2
			c7.54-1.59,15.56-5.57,21.33,3.58c0.2,0.32,0.88,0.34,2.27,0.83c-0.16-2.04,0.28-4-0.5-5.17c-3.07-4.62-0.45-8.12,2.76-10.21
			c10.82-7.04,22.46-12.11,35.82-11.49c0.98,0.05,2.54-0.13,2.85,0.39c2.99,4.94,5.88,2.25,10.08,1.29
			c11.28-2.58,22.7-1.11,33.06,4.74c1.19,0.67,1.68,2.77,2.25,4.3c1.13,3.06,3.76,4.22,5.75,2.16c9.42-9.73,19.78-4.21,29.84-2.23
			c5.49,1.08,11.11,2.35,16.16,4.65c7.49,3.42,14.72,7.52,21.68,11.94c3.95,2.5,4.23,9.42,1.64,15.18c-0.87,1.93-1.6,3.93-2.69,6.63
			c3.14,0.75,5.8,1.91,8.46,1.92c6.98,0.02,10.61,3.22,13,9.83c4.17,11.51,9.38,22.65,14.11,33.96c0.75,1.79,1.3,3.66,1.94,5.49
			C606,389,606,390,606,391z"/>
		<path d="M422.6,224.31c0.82,1.83,1.78,3.61,2.45,5.48c3.08,8.61,3.79,18.06,11.64,24.74c7.21,6.14,6.24,13.81-1.32,19.36
			c-1.47,1.08-3,2.21-4.1,3.63c-4.98,6.38-10.93,8.57-18.83,5.65c-4.39-1.62-9.64-7.46-9.24-12.1c0.77-8.84,2.61-17.35,8.03-24.78
			c2.72-3.73,5.11-7.79,7.12-11.95c1.36-2.82,1.81-6.09,2.67-9.15C421.54,224.9,422.07,224.6,422.6,224.31z"/>
		<path d="M466.78,170.61c0.69,1.15,1.52,2.05,1.83,3.11c3.83,13.03,8.25,25.93,11.12,39.17c1.69,7.81-0.63,18.42-7.49,19.58
			c-6.48,1.09-12.87,1.5-18.71-2.39c-3.69-2.46-5.66-5.54-3.88-10.13c0.35-0.91,0.57-2,0.43-2.94c-1.45-9.46,3.19-16.83,7.58-24.6
			C461.3,185.89,463.51,178.56,466.78,170.61z"/>
		<path d="M523.45,228.11c0.4,1.85,0.73,3.72,1.22,5.55c2.52,9.4,5.08,18.79,7.61,28.18c2.16,8-0.44,12.28-8.34,14.44
			c-2.34,0.64-4.46,2.12-6.65,3.27c-7.03,3.7-14.38,0.08-15.1-7.82c-0.6-6.64-0.42-12.95,5.02-18.46c4.72-4.79,8.22-10.8,12.07-16.4
			c0.87-1.27,1-3.06,1.42-4.63c0.39-1.44,0.71-2.89,1.07-4.33C522.33,227.99,522.89,228.05,523.45,228.11z"/>
	</g>
</g>
</svg>
