<?xml version="1.0" encoding="utf-8"?>
<!-- Generator: Adobe Illustrator 26.2.1, SVG Export Plug-In . SVG Version: 6.00 Build 0)  -->
<svg version="1.1" id="Layer_1" xmlns="http://www.w3.org/2000/svg" xmlns:xlink="http://www.w3.org/1999/xlink" x="0px" y="0px"
	 viewBox="0 0 960 560" style="enable-background:new 0 0 960 560;" xml:space="preserve">
<g>
	<g>
		<path d="M483,406c-2.23-0.39-4.45-1.12-6.68-1.11c-6,0.04-8.81-1.58-9.96-7.4c-1.32-6.7-0.53-13.18,3.54-19.09
			c2.61-3.79,6.03-5.76,10.46-5.64c4.1,0.12,8.21,0.62,12.25,1.32c0.97,0.17,1.64,1.83,2.56,2.68c1.45,1.34,3,2.56,4.75,4.05
			c3.68-9.49,14.2-15.45,24.25-13.38c-1.73-3.2-3.01-5.56-4.52-8.34c4.96-5.44-0.59-15.82,8.82-20.76
			c-5.29,1.05-7.04-2.05-9.34-4.96c-1.72-2.17-4.53-3.48-7.15-5.39c0.39-1.14,0.92-2.66,1.77-5.14c-5.97,3.7-9.46-0.79-13.62-2.9
			c-2.45-1.24-4.84-2.6-7.79-4.2c-0.07-0.78-0.19-2.2-0.46-5.34c-3.89,8.12-9.46,2.35-15.2,3.76c2.65,6.67,5.19,13.06,7.73,19.46
			c0.45-0.15,0.89-0.31,1.34-0.46c-0.61,1.62-1.21,3.24-2.18,5.83c2.62-0.29,4.43-0.5,7.18-0.81c6.36,8.67,13.05,17.81,19.75,26.95
			c-0.32,0.4-0.65,0.8-0.97,1.21c-3.76-2.19-7.9-3.93-11.19-6.68c-4.79-4.02-8.33-9.9-13.59-12.9c-4.8-2.73-7.77-6.8-11.75-10.02
			c-2.91-2.36-3.99-4.64-4.15-7.25c-3.46-4.57-6.92-9.13-10.86-14.33c-4.11,1.4-9,3.43-14.08,4.68c-4.94,1.21-8.95,2.89-13.13,6.41
			c-4.29,3.61-11.26,4.17-17.16,5.61c-1.4,0.34-3.26-1.16-5.26-1.96c-1.47,4.93-5.99,4.97-9.99,6.72c-6.88,3-12.98,7.86-19.28,12.13
			c-2.22,1.51-4.05,3.6-7.04,6.31c3.89-11.67,34.49-35.63,42.7-34.42c1.4-7.92,8.94-8.31,14.25-11.36c2.84-1.63,6.05-2.77,9.24-3.58
			c1.28-0.33,2.93,0.81,4.43,1.29c2.15-5.91,2.29-6.01,13.6-9.14c-0.38-4.73-0.66-9.4-1.23-14.03c-0.11-0.86-1.34-1.68-2.19-2.33
			c-5.28-4.06-6.22-10.99-2.07-15.67c-8.76-7.6-9.03-19.67-14.99-28.77c-0.44-0.68,0.74-2.87,1.67-3.91
			c3.22-3.6,2.52-6.48-2.16-8.02c-8.96-2.94-9.75-4.17-8.35-13.39c-2.97-0.01-6.79,3.28-8.47-2.03c-0.93-2.94-2.44-5.7-2.67-9.03
			c-0.25-0.19-0.59-0.61-0.74-0.55c-4.34,1.79-7.05,0.3-8.82-3.94c-2.08-4.97-1.32-10.06,2.33-13.31c3.75-3.33,9.85-4.38,13.41-1.64
			c2.49,1.91,4.27,4.74,6.75,7.59c0.63-0.73,1.88-3.43,3.79-4.03c1.86-0.58,4.39,0.99,6.45,1.57c-0.5,2.85-0.87,4.95-1.25,7.06
			c0.42,0.18,0.83,0.36,1.25,0.54c1.02-1.32,2.04-2.63,3.58-4.63c1.85,1.81,3.65,3.59,5.47,5.36c1.9,1.85,3.89,3.61,5.67,5.56
			c1.59,1.75,3.34,3.54,4.31,5.63c2.01,4.32,2.6,8.58-3.79,10.72c0.3,0.38,0.6,0.77,0.9,1.15c1.82-0.4,3.63-0.8,5.88-1.29
			c0.64,1.99,1.68,3.97,1.88,6.03c0.52,5.57,1.17,11.21,0.78,16.75c-0.18,2.54-2.7,4.91-4.64,8.18c-0.34-1.04-0.29-0.54-0.15-0.5
			c11.96,2.6,7.87,12.52,8.65,19.91c0.16,1.51-3.27,3.4-5.69,5.73c2.49,0.35,4.74,0.67,7.28,1.02c0.48,7.65,0.98,15.51,1.5,23.68
			c4.72-0.57,9.69-3.5,10.87,4.63c0.75-2.94,1.19-4.7,1.93-7.62c6.14,1.82,12.23,3.62,18.31,5.42c0.16,0.05,0.31,0.12,0.47,0.16
			c4.83,1.42,9.52,2.94,6.09,10.56c0.54-0.11,1.08-0.23,1.63-0.34c1.67-1.38,3.34-2.76,5.03-4.15c13.63,7.48,17.46,12.08,14.2,17.51
			c2.83,3.01,5.48,1.97,8.42-1.11c3.7,7.42,7.02,14.16,4.44,22.25c-0.16,0.51,0.32,1.32,0.68,1.87c2.5,3.85,1.82,5.28-2.82,5.92
			c-1.28,0.18-2.54,0.55-4,0.88c6.79,5.17,7.15,5.31,3.72,13.52c-2.42,5.79-5.49,11.46-9.16,16.54c-2.99,4.13-6.06,0.41-8.82-1.7
			c-4.06,3.43-1.04,6.66,0.45,10.86c-6.2,2.24-12.33,4.48-18.5,6.64c-1.25,0.44-2.61,0.54-3.9,0.85c-7.96,1.93-7.96,1.93-11.52-5.54
			c-0.37,3.85-0.75,7.7-1.12,11.55C485.67,406,484.33,406,483,406z"/>
		<path d="M518,156c8.42,3.68,12.71,11.11,17.19,18.51c2.03,3.35,4.83,6.3,7.62,9.1c1.96,1.97,3.82,3.35,2.4,6.67
			c-1.37,3.2,1.08,4.24,3.7,4.07c2.73-0.17,4.07,0.88,5.44,3.22c1.99,3.41,4.7,6.39,7.09,9.56c0.7,0.93,2.1,1.99,1.97,2.79
			c-1.5,9.19,5.41,5.67,9.49,6.42c0.32,0.06,0.64,0.15,1.11,0.27c4.39,9.44,7.71,19.68,16.76,26.35c-0.4,0.46-0.81,0.92-1.21,1.39
			c-7.43-5.57-14.86-11.14-22.3-16.72c-1.05-0.08-2.94,0.33-4.06-0.42c-4.26-2.84-8.62-5.69-12.21-9.27
			c-1.85-1.85-2.16-5.24-3.17-7.93c-5.32,2.04-13.64-7.04-13.74-16.43c-1.25,1.54-2.05,2.52-2.96,3.64
			c-3.1-1.66-6.62-2.94-9.33-5.19c-2.25-1.87-3.56-4.88-5.72-8.01c-3.62,8.01-5.68,18.29-18.85,15.67c-1.21,1.74,1.07,6.58-4.27,6.7
			c-2.71,0.06-5.39,1.16-8.09,1.79c-0.12-0.46-0.25-0.92-0.37-1.39c-0.85,2.13-1.14,5.47-2.65,6.17c-3.76,1.74-8.28,3.6-12.13,3.02
			c-6.33-0.96-9.41-11.3-6.34-18.53c2.71-6.39,8.16-8.03,15.47-4.45c3.91-6.5,9.56-10.14,17.95-10.74
			c2.86-4.67,6.25-10.39,9.85-15.98c2.28-3.54,4.9-6.86,7.36-10.29C515.33,156,516.67,156,518,156z"/>
		<path d="M372.82,243.34c-1.95-6.84-5.13-13.53-0.05-20.03c0.36-0.46,0.63-1.34,0.45-1.84c-3.45-9.41,4.93-13.88,8.6-20.25
			c0.48-0.83,2.87-0.55,3.57-0.66c1.12-1.94,1.77-4.75,3.33-5.41c2.97-1.26,6.96-2.57,9.6-1.53c3.62,1.43,6.74,4.74,9.37,7.83
			c1.2,1.41,1.01,4.24,0.95,6.42c-0.05,1.6-1.04,3.14-1.39,4.75c-1.61,7.34-3.55,8.69-10.95,8.17c-2.89-0.2-5.82,0.26-9.29,0.44
			c-0.51-0.8-1.36-2.11-2.21-3.42c1.95,5.47-2.28,7.47-5.05,10.6c-2.44,2.77-3.73,6.58-5.36,10.01
			C373.66,239.98,373.33,241.71,372.82,243.34z"/>
		<path d="M385.41,280.14c4.12-7.29,8.17-14.63,12.44-21.83c0.62-1.05,2.4-1.37,3.57-2.15c0.85-0.57,1.94-1.2,2.26-2.05
			c2.79-7.49,6.35-9.53,14.28-7.96c4.15-7.8,10.08-9.52,15.52-4.49c4.5,4.16,3.35,10.47-2.41,12.47c-6.2,2.15-12.86,2.45-19.09,3.85
			c-5.83,1.31-11.09,6.58-15.83,10.94c-3.68,3.4-6.18,8.08-9.2,12.2C386.44,280.79,385.93,280.46,385.41,280.14z"/>
		<path d="M529.7,232.52c7.29,2.63,6,8.84,6.74,14.33c0.74,5.5,1.94,10.94,2.94,16.41c-0.47,0.19-0.94,0.37-1.42,0.56
			c-1.65-3.77-3.21-7.58-4.99-11.28c-2.78-5.79-5.92-11.43-8.5-17.31c-0.96-2.19-0.79-4.89-1.16-7.51c-5.27,0.43-5.19-5-6.95-8.19
			c-0.85-1.55,0.66-4.4,1.14-6.85c-3.91,1.31-4.43-2.57-4.71-5.34c-0.21-2.09,0.84-5.02,2.38-6.41c2.59-2.33,6.03-1.4,7.95,1.2
			c2.08,2.81,4.52,6.27,4.55,9.48c0.06,6.28,2.58,11.37,5.22,16.7C531.96,229.52,530.99,230.8,529.7,232.52z"/>
		<path d="M418.96,288.24c-1.14-1.32-1.76-2.04-1.66-1.93c-6.72,5.5-13.24,10.83-19.76,16.17c-0.22-0.05-0.43-0.11-0.65-0.16
			c1.49-2.65,2.93-5.32,4.48-7.93c2.6-4.39,5.22-8.77,7.92-13.1c2.23-3.59,4.72-6.7,9.64-2.68c0.52-2.08,0.9-3.6,1.38-5.5
			c1.42,0.47,2.67,0.89,3.95,1.31c0.48-9.13,2.21-11.79,9.69-14.14c1.33-0.42,3.37-0.21,4.45,0.57c2.84,2.05,4.16,12.74,1.98,15.48
			c-2.62,3.28-5.52,1.78-8.3-0.14C430.29,283.13,422.62,283.12,418.96,288.24z"/>
	</g>
</g>
</svg>
