<?xml version="1.0" encoding="utf-8"?>
<!-- Generator: Adobe Illustrator 26.2.1, SVG Export Plug-In . SVG Version: 6.00 Build 0)  -->
<svg version="1.1" id="Layer_1" xmlns="http://www.w3.org/2000/svg" xmlns:xlink="http://www.w3.org/1999/xlink" x="0px" y="0px"
	 viewBox="0 0 960 560" style="enable-background:new 0 0 960 560;" xml:space="preserve">
<g>
	<g>
		<path d="M606,185c-5.32,3.91-10.61,7.89-15.99,11.72c-6.89,4.92-13.78,9.86-20.89,14.45c-1.34,0.86-3.72,0.12-6.26,0.12
			c-0.2,0.69-0.56,2.28-1.1,3.81c-1.87,5.32-7.07,4.68-11.1,6.27c-2.82,1.11-6.06,2.3-7.94,4.47c-6.48,7.48-8.91,8.47-18.31,5.62
			c-0.6-0.18-1.3-0.02-1.96-0.02c-0.3,9.04-8.4,12.87-12.63,19.23c-2.21,3.32-5.35,4.99-10.04,3c1.46,5.31-1.02,7.85-5.25,9.26
			c-0.57,0.19-1.47,0.66-1.49,1.05c-0.48,7.11-7.1,9.99-10.35,15.16c-1.66,2.64-3.57,5.2-4.76,8.05c-1.86,4.45-4.27,7.9-10.56,8.16
			c5.36,6.3-0.25,8.99-3.26,12.86c-7.35,9.43-14.4,19.1-21.58,28.66c-0.54,0.71-1.2,1.33-2.97,1.5c0.79-3.59,1.28-7.27,2.42-10.74
			c3.8-11.5,7.67-22.98,11.9-34.33c0.85-2.29,3.37-3.96,5.11-5.92c0.5,0.2,1,0.4,1.5,0.6c-0.17-1.59-0.43-3.18-0.46-4.78
			c-0.02-1.1,0.03-2.35,0.52-3.28c2.18-4.17,4.52-8.24,6.8-12.35c1.2-2.16,2.5-4.28,3.56-6.51c1.88-3.95,3.4-8.1,5.53-11.9
			c0.82-1.47,2.78-2.58,4.46-3.22c3.23-1.24,4.77-4.4,2.4-6.85c-2.64-2.73-1.62-4.78,0.23-6.9c2.51-2.88,5.14-5.66,7.93-8.27
			c0.76-0.72,2.28-0.59,3.41-0.96c1.01-0.34,2.56-0.63,2.8-1.31c0.27-0.79-0.34-2.45-1.08-2.93c-3.75-2.41-2.72-5.1-0.92-8.08
			c1.55-2.55,2.77-5.31,4.41-7.8c6.53-9.95,16.91-9.46,22.44,0.77c4.44-1.68,8.94-3.12,13.2-5.08c4.58-2.1,8.1-1.63,10.53,3.18
			c3.06-5.34,12.49-9.15,18.25-7.81c1.26,0.29,2.9-0.3,4.16-0.91c11.81-5.7,24.51-8.01,37.31-9.99C606,183.67,606,184.33,606,185z"
			/>
		<path d="M356,389c7.19-12.32,14.37-24.64,21.58-36.95c0.41-0.7,1.02-1.28,1.73-2.15c0.92,0.39,1.76,0.95,2.65,1.06
			c1.34,0.17,3.48,0.55,3.9-0.08c0.74-1.12,1.12-3.39,0.46-4.36c-2.78-4.07-2.19-5.81,2.91-6.41c1.73-0.2,3.64-2.1,4.75-3.72
			c2.79-4.08,5.17-8.43,7.88-12.95c1.11,0.48,1.96,1.13,2.84,1.18c1.75,0.09,3.52-0.16,5.28-0.27c-0.58-1.42-1.38-2.81-1.67-4.29
			c-0.29-1.43-0.63-3.34,0.06-4.39c2.22-3.42,4.27-7.91,7.56-9.42c3.57-1.63,10.01-2.17,12.47-0.04c6,5.19,11.49,11.68,10.54,20.87
			c-0.41,3.91-9.29,14.79-12.96,15.53c-1,0.2-2.23-0.28-3.25-0.7c-1.79-0.73-3.5-1.66-5.02-2.39c-0.71,0.58-1.14,0.76-1.18,0.99
			c-0.9,5.75-2.89,10.34-8.66,13.41c-4.27,2.28-7.49,6.52-11.75,10.4c-0.73-0.24-2.51-0.83-4.3-1.42c0.26,0.48,0.52,0.95,0.78,1.43
			c-2.96,2.54-5.81,5.22-8.92,7.57c-7.01,5.31-14.1,10.51-21.26,15.62c-1.97,1.41-4.28,2.33-6.44,3.48
			C356,390.33,356,389.67,356,389z"/>
		<path d="M373.04,170.63c6.07,1.5,12.11,3.11,18.21,4.47c5.59,1.24,10.88,2.62,10.78,10.03c9.1-4.69,16.56-1.61,16.38,6.91
			c3.56-2.61,6.83-4.49,11.2-2.14c6.22,3.35,12.14,6.81,14.99,13.69c0.59,1.42,0.58,3.08,1.06,5.82c1.99-3.16,2.97-6.12,5.02-7.57
			c1.84-1.3,4.85-0.94,7.66-1.36c-0.33-0.61-0.59-1.32-1.04-1.87c-4.72-5.77-2.42-12.91,4.76-14.7c8.28-2.07,21.87,3.47,26.29,10.66
			c3.41,5.55,4.12,11.44,0.63,16.94c-3.1,4.9-8.06,7.18-12.98,6.44c-0.63,2.5-0.72,4.9-1.79,6.72c-2.88,4.85-6.33,9.36-9.25,14.19
			c-1.59,2.64-3.1,3.98-6.34,2.67c-1.41-0.57-3.24-0.1-5.08-0.1c0.13,2,0.5,3.77,0.28,5.47c-0.17,1.35-1.15,3.75-1.63,3.72
			c-6.07-0.44-5.51,5.35-8.07,8.15c-4.27,4.66-9.36,8.64-13.14,13.64c-9.62,12.71-18.7,25.82-27.99,38.78
			c-0.72,1-1.38,2.03-2.3,3.39c-1.93-9.14,13.21-45.05,19.44-48.29c1.77-5.56,3.22-10.62,5.08-15.53c0.31-0.83,2.41-0.9,3.56-1.53
			c1.31-0.72,2.5-1.67,3.74-2.52c-3.65-4.62,0.82-8.28,1.5-12.38c0.27-1.62,1.01-3.17,1.84-5.66c-3.18-1.44-6.39-3.29-9.85-4.38
			c-7.09-2.23-7.53-2.63-6.69-9.95c0.09-0.81,0.16-1.64,0.08-2.45c-0.1-0.95-0.37-1.88-0.57-2.84c-0.59,0.15-0.94,0.16-1.21,0.32
			c-6.74,3.9-6.79,3.71-11.98-1.47c-2.71-2.71-6.29-4.54-9.14-7.15c-1.01-0.92-1.69-3.16-1.31-4.44c0.98-3.29-0.24-4.84-3.19-4.14
			c-3.41,0.8-4.84-1.02-6.51-3.19c-4.5-5.84-9.07-11.62-13.62-17.42C372.24,171.25,372.64,170.94,373.04,170.63z"/>
		<path d="M499.98,289.94c0.79-3.74,0.87-6.99,2.18-9.63c1.82-3.68,4.58-6.89,6.89-10.35c2.49-3.74,5.6-5.76,10.41-5.12
			c3.86,0.51,4.04-1.44,2.54-4.59c-0.77-1.62-1.08-4.09-0.39-5.65c2.3-5.16,4.2-10.42,10.83-12.46c7.56-2.33,17.81,3.06,18.76,11.03
			c0.85,7.14-0.45,13.35-7.01,17.83c-2.45,1.67-4.17,4.59-5.79,7.21c-0.55,0.89-0.23,3.37,0.5,3.83c6.4,4.01,7.37,8.8,1.69,15.05
			c1.48-0.16,2.14-0.05,2.29-0.27c2.68-4.17,4.99-3.3,7.35,0.35c0.79,1.23,2,2.2,3.06,3.25c3.46,3.45,6.02,7.05,2.83,12.1
			c-0.47,0.75-0.3,1.9-0.54,3.72c6.98-1.99,8.2,3.39,10.9,7.54c6.42,9.86,13.34,19.39,20.04,29.06c0.81,1.17,1.56,2.39,3.25,4.98
			c-2.72-0.69-4.09-0.78-5.21-1.36c-7.94-4.13-15.84-8.36-23.73-12.59c-1.16-0.62-2.85-1.2-3.24-2.21
			c-3.99-10.31-15.56-10.9-22.28-17.62c-1.57-1.57-2.95-3.34-4.78-5.43c-7.16,0.7-10.04-6.49-15.11-11.12
			c-4.49,3.33-5.72,13.9-15.67,6.44c-0.18,2.49-0.8,4.19-0.29,5.42c1.31,3.11-0.2,4.93-2.08,7.03c-7.63,8.5-15.13,17.12-22.69,25.67
			c-0.39,0.45-0.95,0.75-1.97,1.53c0-1.47-0.2-2.37,0.03-3.13c2.84-9.17,4.81-18.78,8.94-27.34c3.23-6.68,5.7-13.57,8.64-20.31
			c1.26-2.88,2.3-5.98,4.15-8.45C496.03,292.32,498.59,291.02,499.98,289.94z"/>
	</g>
</g>
</svg>
