<?xml version="1.0" encoding="utf-8"?>
<!-- Generator: Adobe Illustrator 26.2.1, SVG Export Plug-In . SVG Version: 6.00 Build 0)  -->
<svg version="1.1" id="Layer_1" xmlns="http://www.w3.org/2000/svg" xmlns:xlink="http://www.w3.org/1999/xlink" x="0px" y="0px"
	 viewBox="0 0 960 560" style="enable-background:new 0 0 960 560;" xml:space="preserve">
<g>
	<g>
		<path d="M606,304c-3.75,4.21-7.35,8.57-11.34,12.54c-1.64,1.63-4.13,2.4-6.25,3.54c-0.57,0.31-1.48,0.42-1.69,0.87
			c-3.18,6.64-9.98,6.31-15.62,8.22c-0.93,0.31-2.05,0.52-2.68,1.18c-7.78,8.11-17.78,10.26-28.41,10.85
			c-1.64,0.09-3.44,0.09-4.85,0.78c-14.43,7.09-30.47,5.3-45.72,8.08c5.76-1.98,11.58-3.81,17.28-5.97
			c5.5-2.08,10.88-4.48,16.91-6.99c-4.85-3.52-8-6.47-14.84-4.22c-9.74,3.21-20.41,4.64-30.71,4.79
			c-8.26,0.12-17.03-1.65-24.72-4.71c-6.77-2.7-10.04,0.58-15.23,4.36c12,4.54,23.18,8.77,35.17,13.3
			c-11.82-1.47-22.8-2.75-33.75-4.25c-2.25-0.31-4.36-1.52-6.59-2.1c-4.29-1.13-8.65-2.01-12.93-3.19
			c-7.48-2.06-16.11-2.62-22.02-6.9c-5.65-4.08-11.64-5.67-17.6-8.11c-0.76-0.31-1.62-0.57-2.2-1.11
			c-7.43-6.95-14.81-13.96-22.2-20.95c0-0.33,0-0.67,0-1c1.61,0.7,3.29,1.26,4.8,2.12c6.48,3.67,12.93,7.4,19.36,11.15
			c4.49,2.62,8.86,5.48,13.44,7.93c4.05,2.17,8.33,3.92,13.02,6.09c-2.69-9.67-11.69-19.86-19.31-24.41
			c-6.18-3.7-11.59-8.7-17.34-13.13c0.23-0.35,0.45-0.7,0.68-1.04c6.31,2.8,12.62,5.61,18.93,8.41c0.47-0.34,0.95-0.68,1.42-1.03
			c-2.4-6.44-5.49-12.72-6.95-19.36c-0.94-4.27,0.53-9.06,1.77-13.82c1.72,5,2.36,10.88,5.47,14.78c3.32,4.17,9.13,5.09,14.8,1.38
			c-1.13-5.23-2.35-10.83-3.56-16.43c0.33-0.11,0.65-0.23,0.98-0.34c2.51,4.71,4.86,9.52,7.58,14.1c2.79,4.69,6.37,8.33,12.4,8.93
			c3.24,0.32,6.38,1.73,9.86,2.73c1.12-4.89-1.88-7.54-4.5-10.45c-4.96-5.5-8.09-11.76-7.07-19.6c0.81,1.92,1.23,4.15,2.49,5.7
			c3.4,4.17,4.53,10.04,11.08,12.01c3.14,0.94,5.68,5.26,7.58,8.57c2.38,4.15,10.05,8.99,14.9,7.86c4.96-1.16,9.79-2.92,14.62-4.41
			c-2.91,8.77-11.58,8.18-18.82,9.98c2.44,5.31,2.42,5.25,7.6,4.34c4.06-0.71,8.15-1.23,12.52-1.16c-3.62,1.69-7.25,3.38-10.46,4.88
			c2.37,9.7,10.63,13.52,17.88,13.39c6.96-0.12,15.51-3.35,17.29-13.49c-2.75-1.29-6.41-3-10.06-4.72c0.07-0.23,0.13-0.45,0.2-0.68
			c3.92,0.56,7.96,0.71,11.73,1.78c4.15,1.18,6.72,0.2,8.46-4.39c-3.95-0.63-8.16-0.47-11.55-2.07c-3.32-1.57-5.78-4.94-7.91-8.29
			c3.02,1.13,6.22,1.93,9.02,3.47c5.88,3.23,11.22-0.14,16.65-1.18c1.52-0.29,2.9-3.04,3.73-4.93c2.31-5.22,5.32-9.36,11.53-10.11
			c0.68-0.08,1.33-1.24,1.81-2.01c2.92-4.74,5.78-9.52,8.84-14.6c0.67,7.84-2.85,13.85-7.45,19.32c-2.55,3.03-5.64,5.62-5.17,9.86
			c17.63,0.79,24.5-11.27,29.93-25.06c0.39,0.19,0.79,0.38,1.18,0.58c-1.16,5.51-2.33,11.02-3.48,16.48
			c5.27,3.47,11.2,2.87,14.55-1.15c3.25-3.89,3.95-9.92,6.87-14.97c0,2.27-0.33,4.6,0.06,6.81c1.17,6.59-0.52,12.19-4.24,17.74
			c-1.41,2.1-0.68,5.64-1.02,9.67c6.51-2.87,12.86-5.67,19.21-8.48c0.25,0.28,0.5,0.55,0.75,0.83c-5.44,4.32-10.49,9.3-16.42,12.79
			c-6.56,3.86-12.13,8.18-15.55,15.09c-1.46,2.95-3.35,5.69-5.68,9.6c6.42-2.09,11.83-3.49,15.91-8c1.16-1.29,2.89-2.24,4.55-2.88
			c9.97-3.85,19.8-7.9,27.86-15.25c0.74-0.67,2.12-0.64,3.2-0.93C606,303.33,606,303.67,606,304z M460.51,327.28
			c5.13,2.8,9.77,5.72,14.74,7.87c2.67,1.15,6.36,2.1,8.82,1.15c5.99-2.32,11.54-5.81,17.9-9.17c-4.24-1.23-7.04-5.33-11.49-2.08
			c-5.33,3.89-12.83,3.3-16.82,1.13C468.03,323.11,464.95,324.82,460.51,327.28z M416.87,310.49c-6.47-19.57-8.94-22.01-21.64-22.01
			c2.25,4.38,5.67,8.58,6.38,13.19c0.64,4.1,2.38,6,5.52,7.07C410,309.71,413.15,309.86,416.87,310.49z M545.07,309.71
			c11.03,0.57,12.1-0.14,15.42-9.53c0.38-1.09,1.03-2.09,1.62-3.09c1.66-2.84,3.35-5.67,5.02-8.49
			C550.9,286.4,550.08,299.74,545.07,309.71z M523.58,325.71c0.15,0.55,0.3,1.1,0.46,1.65c3.4,1.25,6.79,2.53,10.2,3.75
			c4.57,1.63,13.92-5.5,13.89-11.31C539.83,321.8,531.7,323.75,523.58,325.71z M438.22,328.03c0.07-0.8,0.15-1.6,0.22-2.4
			c-8.15-1.92-16.31-3.84-24.84-5.85c-0.34,5.65,4.09,6.66,6.64,9.11C426.71,335.11,432.12,327.08,438.22,328.03z M518.79,306.76
			c10.83,4.8,18.33,2.29,20.8-6.67c-5.54,0-11.14,0-16.4,0C521.69,302.36,520.34,304.41,518.79,306.76z M439.12,300.41
			c-3.08,0-5.87,0.1-8.66-0.03c-2.77-0.12-5.52-0.47-8.86-0.78c5.69,10.21,11.35,11.88,21.69,7.15
			C441.88,304.62,440.48,302.49,439.12,300.41z M443.27,317.44c9.91,5.26,13.22,5.94,19.03,3.92
			C456.86,315.94,451.01,311.65,443.27,317.44z M519.34,317.68c-8.34-5.84-14.28-2.02-19.71,4.04
			C507.16,324.49,512.84,319.34,519.34,317.68z"/>
		<path d="M489.7,212.3c-6.55,16.22-6.55,16.22-4.38,20.44c5.88,1.73,10.96,3.23,16.77,4.95c0,4.83,0.06,9.94-0.06,15.05
			c-0.02,0.85-0.57,1.95-1.23,2.49c-3.93,3.22-7.96,6.31-11.97,9.43c-3.47,2.71-4.11,11.03-1.24,14.28
			c1.02,1.16,2.57,3.35,2.17,3.97c-1.03,1.62-2.98,3.6-4.64,3.67c-3.34,0.15-7.09,5.09-10.11-0.18c-2.93-5.12-3.81-10.58-2.22-16.47
			c0.66-2.43,0.77-5.19,0.37-7.68c-0.71-4.33,0.68-6.8,5.04-7.44c1.97-0.29,4.2,0.01,5.89-0.82c2.53-1.23,5.19-2.83,6.86-4.99
			c1.77-2.29,1.13-4.57-2.42-5.38c-4.71-1.08-8.36-2.83-10.82-8.13C472.47,224.17,477.02,214.35,489.7,212.3z"/>
	</g>
</g>
</svg>
