<?xml version="1.0" encoding="utf-8"?>
<!-- Generator: Adobe Illustrator 26.2.1, SVG Export Plug-In . SVG Version: 6.00 Build 0)  -->
<svg version="1.1" id="Layer_1" xmlns="http://www.w3.org/2000/svg" xmlns:xlink="http://www.w3.org/1999/xlink" x="0px" y="0px"
	 viewBox="0 0 960 560" style="enable-background:new 0 0 960 560;" xml:space="preserve">
<g>
	<g>
		<path d="M473,406c-6.95-6.05-14.05-11.95-20.74-18.29c-1.35-1.28-1.39-4.17-1.59-6.36c-0.17-1.85,0.31-3.76,0.48-5.34
			c-4.63,0.91-8.69,1.71-12.75,2.5l0.13,0.09c-1.19-3.09-2.37-6.17-3.77-9.8c-1.12,0.35-2.95,0.92-4.87,1.52
			c-2.67-3.89-5.36-7.8-8.05-11.72c-5.98-8.7-2.46-21.58,7-26.62c8.46-4.51,17.49-7.48,27.21-3.19c3.11,1.37,4.48,3.27,4.25,6.91
			c-0.38,5.92-0.1,11.89-0.1,18.27c1.39,0.08,3.01,0.03,4.58,0.28c5,0.8,8.84,3.04,6.82,8.91c-0.81,2.36-0.96,4.95-1.4,7.43
			c0.54,0.2,1.09,0.4,1.63,0.6c1.64-2.98,3.28-5.96,4.75-8.63c4.43,1.33,8.72,2.12,12.51,3.96c1.99,0.97,3.82,3.56,4.43,5.77
			c1.09,4,3.38,6.09,7.36,7.45c0.2-2.23-0.06-4.21,0.65-5.75c0.76-1.68,2.14-3.48,3.73-4.32c8.76-4.64,12.09-9.7,10.62-18.2
			c-0.74-4.27,0.24-6.52,3.4-8.62c0.96-0.64,1.85-1.4,2.76-2.1c-1.63-3.18-3.21-4.59-6.1-2.46c-0.5,0.37-1.2,0.63-1.8,0.63
			c-1.34-0.01-9.12-7.61-9.5-8.99c-0.7-2.58-1.51-5.14-2.49-8.4c0.74-0.59,2.23-1.42,3.19-2.66c0.89-1.16,1.22-2.75,1.8-4.15
			c-1.53-0.2-3.12-0.74-4.58-0.51c-1.59,0.24-3.08,1.19-4.56,1.81c-3.03-2.46-5.97-4.81-8.88-7.21c-2.7-2.23-5.31-2.53-7.94,0.11
			c-4.68,4.69-9.37,9.37-14.08,14.04c-1.66,1.65-3.38,3.24-5.07,4.85c-0.37-0.31-0.74-0.61-1.11-0.92c4.46-9.7,8.92-19.4,12.37-26.9
			c-4.93-6.1-9.2-11.38-13.55-16.76c-4.74,4.68-9.25,9.13-13.76,13.58c-0.67-0.54-1.34-1.09-2.01-1.63
			c3.02-5.39,6.17-10.72,8.99-16.22c0.76-1.49,1.11-3.7,0.61-5.23c-2.09-6.34-2.97-12.71-0.66-19.05c0.94-2.59,2.77-5.05,4.74-7.03
			c1.85-1.86,2.88-2.73,1.23-5.69c-1.09-1.96-0.55-5.89,0.79-7.94c3.15-4.84,6.95-9.36,11.08-13.4c1.29-1.26,4.61-1.2,6.75-0.68
			c5.34,1.28,6.9,0.43,5.5-4.7c-0.96-3.52,0.57-4.81,2.97-6.33c5.36-3.4,11.05-5.11,17.48-4.43c1.28,0.14,3-0.69,3.99-1.63
			c1.42-1.35,2.39-3.18,3.47-4.85c3.63-5.63,6.31-6.51,12.46-3.5c12.3,6.03,18.8,12.87,16.71,28.79c-0.25,1.92-1.25,4.27-2.7,5.42
			c-7.14,5.69-6.93,4.8-5.87,16.75c7.24-7.55,15.33-6.57,23.4-2.52c2.32,1.17,4.99,3.41,5.71,5.72c4.23,13.48,4.42,18-6.54,26.74
			c-3.54,2.83-7.68,4.92-11.73,7.46c-2.23-3.59-2.73-8.23-7.95-6.61c4.42,8.49-3.82,14.28-12.27,13.25
			c-5.89-0.72-9.73,2.15-13.55,6.63c2.66,1.89,5.16,3.71,7.71,5.47c5.49,3.81,5.49,3.8,2.83,9.42c3.61,0.33,7.76-0.31,10.75,1.27
			c2.77,1.46,4.3,5.27,6.85,8.68c3.21-0.62,5.19,1.69,6.8,5.6c4.4,10.65,1.23,29.67-7.2,37.19c-2.38,2.12-6.16,2.66-9.91,4.16
			c1.9,1.4,3.61,2.61,5.27,3.89c4.65,3.57,5.07,6.16,1.39,10.81c-7.57,9.56-17.18,16.02-29.21,18.62c-1.79,0.39-3.59,0.69-5.38,1.07
			c-5.26,1.12-10.52,2.28-13.2-5.04c-0.75,2.91-1.49,5.81-2.24,8.72C479.67,406,476.33,406,473,406z M496.13,255.98
			c-0.45,0.27-0.89,0.54-1.33,0.81c3.07,4.84,1.85,8.02-3.03,9.85c-1.23,0.46-2.47,1.02-3.53,1.78c-3.26,2.35-6.44,4.82-9.65,7.24
			c0.11,0.74,0.23,1.48,0.34,2.23c2.31,0.5,5.77,2.19,6.73,1.28c2.89-2.76,5.15-2.23,7.98-0.51c0.95,0.58,2.19,0.68,4.03,1.22
			c-0.93-4.21-3.57-8.03,2.31-9.53c2.68-0.68,5.06-2.55,7.56-3.91c4.79-2.59,6.62-10.81,13.45-7.66c1.58-2.92,3.05-5.43,4.3-8.03
			c0.44-0.92,0.79-2.23,0.48-3.11c-2.2-6.11-7.92-7.68-12.26-3.23c-1.29,1.33-1.6,3.61-2.4,5.43c-0.68,1.56-1.07,3.48-2.22,4.57
			c-2.25,2.12-4.94,3.76-7.3,5.48C499.57,258.45,497.85,257.22,496.13,255.98z M474.24,251.28c3.4-5.07,6.8-10.13,10-14.9
			c-3.49,0-6.41,0-10.67,0C481.47,242.29,472.93,245.79,474.24,251.28z"/>
		<path d="M467,156c4.1,2,8.35,3.73,12.26,6.04c10.47,6.21,12.35,15.03,5.54,25.15c-2.19,3.26-4.25,7.06-8.85,2.37
			c-0.79-0.8-3.19-0.52-4.55,0.02c-0.5,0.2-0.04,2.59-0.2,3.96c-0.24,2.11-0.18,4.42-1.07,6.24c-1.59,3.26-3.77,6.23-5.76,9.29
			c-1.99,3.07-3.21,7.21-8.45,5.75c-0.73-0.2-2.21,0.84-2.75,1.68c-3.52,5.56-6.68,11.35-10.32,16.82
			c-8.17,12.27-16.55,24.4-24.87,36.57c-0.8,1.17-1.81,2.19-3.73,2.93c1.01-5.89,1.87-11.81,3.07-17.65
			c1.46-7.14,2.96-14.29,4.96-21.29c0.92-3.21,1.24-8.43,7.33-5.66c0.59,0.27,2.08-0.38,2.44-1.01c0.33-0.58,0-2.19-0.54-2.53
			c-3.65-2.27-2.25-4.93-0.96-7.76c2.47-5.42,4.76-10.93,7.28-16.32c0.46-0.98,1.68-1.6,2.55-2.39c1.3-1.19,3.49-2.27,3.66-3.61
			c0.2-1.56-0.96-4.31-2.24-4.84c-3.91-1.64-3.08-3.68-1.93-6.72c1.68-4.45,2.15-9.39,4.13-13.67c2.56-5.54,5.35-11.31,12.01-13.36
			C459.67,156,463.33,156,467,156z"/>
		<path d="M438.4,378.52c-0.21,1.76,0.2,4.02-0.74,5.18c-3.68,4.5-7.63,8.8-11.78,12.88c-5.72,5.63-7.94,5.57-14.99,0.44
			c-4.42,4.78-14.23,3.76-24.43-2.53c-9.19-5.67-12.35-13.22-8.93-22.47c-5.29-1.29-8.8-4.36-9.27-10.22
			c-0.48-6.03,2.48-9.62,7.71-11.62c-2.24-1.68-5.63-2.94-6.04-4.83c-0.59-2.78,0.89-6.02,1.61-9.04c0.31-1.28,0.92-2.49,1.44-3.71
			c3.71-8.68,10.28-11.78,18.88-8.06c7.6,3.28,15.09,7.11,17.04,16.5c1.46,6.98,0.85,8.28-5.69,10.7c-0.09,0.31-0.33,0.82-0.23,0.9
			c3.97,3.15,4,7.07,3.08,11.7c-0.54,2.71,0.58,5.76,1.02,9.21c-0.44,0.26-1.33,0.98-2.35,1.32c-2.5,0.84-4.95,1.85-3.85,5.06
			c0.92,2.71,6.23,4.42,8.54,2.98c1.26-0.78,2.17-2.17,3.48-2.81c1.18-0.57,3.22-1.17,3.96-0.59c7.57,5.96,14.68,4.54,21.68-0.9
			C438.53,378.61,438.4,378.52,438.4,378.52z"/>
		<path d="M562.87,352.34c-7.08,0.71-8.64-0.16-11.23-6.16c-1.7-3.93,0.72-13.36,4.27-16.67c7.16-6.68,17.18-7.13,25.05-1.15
			c0.53,0.4,1.07,0.79,1.61,1.17c8.23,5.8,8.23,5.92,2.24,14.02c-0.85,1.14-1.46,2.46-2.37,4.02c1.35,0.33,2.12,0.52,2.9,0.7
			c7.1,1.69,8.25,2.39,7.27,9.91c-0.93,7.14-2.91,14.31-5.68,20.95c-0.93,2.24-5.67,2.9-8.72,4.31c0.82,0.56,2.37,1.63,4.74,3.26
			c-1.58,2.13-2.81,4.7-4.8,6.31c-3.73,3-7.79,5.65-11.94,8.05c-1.92,1.11-4.38,1.77-6.6,1.76c-3.75-0.01-7.47-2.82-11.06,1.65
			c-0.85,1.06-6-0.65-8.75-1.96c-5.7-2.73-9.41-11.14-6.84-17.9c0.86,1.86,1.15,3.06,1.87,3.9c4.27,5.03,12.34,5.82,17.49,1.66
			c0.76-0.61,1.12-1.86,1.4-2.89c1.17-4.24,2.24-8.51,3.24-12.34c1.76,0,2.12-0.09,2.4,0.02c1.56,0.61,3.09,1.26,4.63,1.9
			c-0.06-1.79,0.18-3.66-0.28-5.34c-0.42-1.53-1.41-3.01-2.48-4.23c-4.59-5.24-4.36-9.19,0.92-13.68
			C562.48,353.33,562.61,352.81,562.87,352.34z"/>
	</g>
</g>
</svg>
