<?xml version="1.0" encoding="utf-8"?>
<!-- Generator: Adobe Illustrator 26.2.1, SVG Export Plug-In . SVG Version: 6.00 Build 0)  -->
<svg version="1.1" id="Layer_1" xmlns="http://www.w3.org/2000/svg" xmlns:xlink="http://www.w3.org/1999/xlink" x="0px" y="0px"
	 viewBox="0 0 960 560" style="enable-background:new 0 0 960 560;" xml:space="preserve">
<g>
	<g>
		<path d="M500,156c14.02,5.45,28.87,9.45,41.83,16.77c12.76,7.21,24.24,17.24,25.59,34.07c0.63,7.86-4.82,19.68-11.54,23.6
			c-5.71,3.33-10.1,2.87-15.08-1.44c-4.01-3.47-8.3-6.66-12.06-10.38c-2.25-2.23-3.71-5.24-5.63-8.05c-1.13,2.34-2.25,5.07-3.71,7.6
			c-2.39,4.13-4.6,4.42-8.21,1.55c-6.13-4.87-12.67-9.14-20.66-9.88c-4.74-0.44-9.57,0.08-14.37,0.17c-0.11,0.47-0.22,0.93-0.32,1.4
			c-0.83-1.73-1.25-3.97-2.6-5.06c-1.87-1.52-5.15-3.57-6.54-2.86c-1.87,0.95-3.67,4.43-3.44,6.61c0.48,4.65-0.38,6.03-5.38,7.08
			c-4.85,1.01-9.16,4.88-13.53,7.75c-2.2,1.44-4.04,3.44-6,5.23c-2.49,2.27-4.9,3.42-8.46,1.63c-1.33-0.67-3.75,0.82-5.67,1.32
			c0.4,1.49,0.6,3.08,1.26,4.45c0.48,0.99,1.46,1.82,2.39,2.47c3.55,2.46,3.3,4.69,0.28,7.61c-2.73,2.63-7.54,4.41-5.43,9.88
			c0.16,0.42-0.89,1.27-1.32,1.96c-3.1,4.87-6.77,9.5-9.06,14.73c-1.4,3.21-1.49,7.54-0.72,11.04c2.01,9.06,1.85,10.16-6.11,14.88
			c-1.13,0.67-2.16,1.49-4.37,3.02c3.73,0.74,6.38,1.23,9.02,1.79c5.85,1.23,7.18,2.71,7.02,8.67c-0.22,8.66,4.88,15.38,8.4,22.55
			c1.44,2.93,1.67,4.82,0.52,7.64c-0.85,2.09-0.71,4.58-1.04,7.14c9.05-0.14,13.71,5.38,18.28,10.76c2.26,2.66,3.68,3.78,7.75,2.46
			c3.25-1.05,8.53,0.2,11.33,2.41c12.58,9.94,26.07,16.94,42.51,16.48c3.33-0.09,5.87,0.41,8.28,3.02
			c3.01,3.26,8.37,2.63,11.48-0.49c1.09-1.09,2.81-1.73,4.36-2.15c3.34-0.91,6.77-1.52,10.15-2.31c5.98-1.38,12.12-2.33,17.89-4.32
			c7.17-2.48,14.03-5.87,21.06-8.78c1.36-0.56,2.88-0.72,4.32-1.07c-0.42,1.4-0.44,3.18-1.33,4.14
			c-6.55,7.03-12.99,14.2-20.02,20.73c-8.03,7.45-18.83,8.54-28.9,11.19c-3.12,0.82-6.16,1.98-9.24,2.98c-6.67,0-13.33,0-20,0
			c-4.24-12.79-5.22-13.16-17.44-6.64c-0.29,0.16-0.61,0.3-0.85,0.52c-4.08,3.63-8.06,2.5-12.36,0.18
			c-4.79-2.59-9.74-4.98-14.82-6.92c-8.81-3.36-17.83-6.19-26.65-9.53c-2.24-0.85-4.16-2.67-6.09-4.22
			c-2.84-2.29-5.36-5.01-8.36-7.03c-3.27-2.21-4.12-4.69-3.12-8.47c1.77-6.66,1.14-7.37-5.63-8.22c-5.81-0.73-11.84-1.38-15.05-7.12
			c-1.99-3.56-2.72-7.8-4.61-11.42c-2.36-4.54-5.83-8.53-7.92-13.17c-5.37-11.89-6.12-24.61-5.82-37.47
			c0.1-4.21,1.13-6.93,6.15-6.94c2.38,0,4.87-1.1,7.12-2.12c7.35-3.34,8.38-10.96,2.31-16.1c-1.01-0.86-1.86-1.94-2.93-2.71
			c-3.03-2.18-3.82-4.94-2.06-8.19c2.52-4.66,5.54-9.08,7.76-13.87c2.3-4.97,5.83-10.44,5.36-15.36
			c-0.73-7.78,2.93-13.21,6.36-18.87c3.82-6.32,9.15-9.87,17.5-7.52c5.17,1.45,8.94-3.96,7.81-9.21c-0.31-1.46,0.6-3.88,1.79-4.83
			c3.61-2.89,7.65-5.25,11.49-7.88c10.43-7.12,21.27-12.77,34.44-13.05c4.57-0.1,9.09-2.5,13.63-3.84C494,156,497,156,500,156z"/>
		<path d="M466.76,338.63c7.46-2.34,10.12,0.76,12.11,5.97c3.33,8.75,7.64,17.01,15.72,22.55c0.42,0.29,0.44,1.13,0.94,2.53
			c-6.87,0.85-13.04-0.5-17.97-4.25c-5.7-4.34-10.49-9.88-15.68-14.91c-0.36-0.35-0.61-0.91-1.02-1.06
			c-8.47-3.11-9.31-11.39-12.5-18.13c-0.76-1.61-2.33-3.79-3.76-3.98c-6.48-0.87-9.63-5-10.83-10.67c-1.08-5.14-2-10.55,1.53-15.38
			c0.36-0.5,0.43-1.21,0.63-1.83c-6.41-1.85-6.7-3.26-6.34-10.01c0.43-8.19,3.94-15.2,7.03-22.41c0.55-1.28,2.37-2.06,3.7-2.93
			c1.34-0.88,2.8-1.57,4.2-2.35c-1.2-1.28-2.37-2.59-3.61-3.82c-0.32-0.32-0.89-0.39-1.98-0.84c0.34-1.44,0.2-3.44,1.13-4.34
			c3.31-3.19,3.68-7.21,4.12-11.35c0.59-5.56,4.98-8.03,9.12-10.48c2.99-1.76,6.21-3.26,9.5-4.34c2.03-0.67,4.39-0.4,6.6-0.41
			c1.41,0,3.33,0.94,4.13,0.31c4.08-3.2,5.84-0.87,7.39,3.52c1.31-1.54,2.1-2.68,3.1-3.59c1.29-1.19,2.68-3.08,4.12-3.17
			c10.37-0.62,20.87-1.49,30.83,2.31c1.78,0.68,2.85,3.9,3.7,6.15c0.63,1.69,0.38,3.72,0.55,6.05c1.45-0.44,2.27-0.52,2.91-0.9
			c5.52-3.34,8.98-3.36,13.63,1.01c4.86,4.58,11.08,7.92,13.48,14.92c0.67,1.95,3.12,3.35,4.87,4.87c5.67,4.94,7.06,9.23,4.05,15.78
			c-2.06,4.49,0.74,6.23,3.53,8.2c1.87,1.32,3.94,2.37,6.12,3.67c-0.77,1.59-1.39,2.86-2.31,4.76c2.92,1.53,5.54,3.36,8.45,4.29
			c3.09,0.99,3.9,2.68,4.26,5.75c0.92,7.84,1.57,15.86,3.83,23.35c3.49,11.61,1.2,20.55-8.71,27.52c-1.09,0.77-2.52,1.2-3.33,2.17
			c-6.76,8.06-16.85,8.57-25.9,11.2c-2.12,0.62-5.63-0.71-7.45-2.32c-9.9-8.78-9.53-21.56-0.89-31.8c3.08-3.66,6.19-6.63,11.59-3.23
			c0.33-2.67,0.75-4.76,0.81-6.86c0.16-4.85-2.51-6.4-6.99-4.38c-1.18,0.53-3.41,0.98-3.84,0.43c-0.9-1.15-0.96-2.98-1.29-4.55
			c-0.05-0.26,0.23-0.61,0.41-0.89c5.04-7.95,1.68-15.37-2.09-22.3c-2.01-3.71-5.2-7.44-8.81-9.45c-5.15-2.87-6.54-5.57-1.76-11.05
			c-2.28,0.59-3.38,0.71-4.33,1.15c-6.26,2.89-7.73,2.33-12.11-3.22c-1.69-2.14-4.25-3.65-6.57-5.22c-2.7-1.83-4.3-3.76-3.37-7.4
			c0.59-2.3,0.11-4.87,0.11-8.19c-1.85,1.01-2.98,1.26-3.13,1.78c-1.73,6.09-7.21,7.06-11.96,9.18c-1.88,0.84-3.82,2.16-5.02,3.78
			c-2.33,3.17-3.98,6.19-9.09,4.46c-2.54-0.86-2.72,1.81-1.9,4.09c1.05,2.92,5.65,4.89,2.25,9.09c-2.14,2.64-3.83,5.66-5.63,8.57
			c-0.74,1.2-1.76,2.55-1.77,3.83c-0.11,11.82,0.42,23.64,7.06,33.96c1.83,2.85,1.67,4.59-0.24,6.94
			C470.48,332.8,469.18,335.05,466.76,338.63z"/>
		<path d="M519.28,323.05c5.66,5.41,6.85,13.2,2.7,20.09c-2.89,4.8-6.41,9.24-9.86,13.67c-1.83,2.35-6.14,1.31-9.26-1.44
			c-3.03-2.67-6.41-4.95-9.65-7.39c-0.39-0.3-1.06-0.39-1.26-0.76c-3.33-6.07-6.6-12.17-9.88-18.27c0.56-0.41,1.11-0.82,1.67-1.23
			c1.16,1.02,2.38,1.99,3.47,3.08c1.96,1.96,3.56,4.41,5.81,5.93c4.84,3.26,6.99,2.27,8.87-3.28c0.56-1.66,1.48-3.21,1.65-3.55
			c-2.13-7.38-4.04-14.01-6.22-21.54c0.96-1.77,2.57-4.73,4.28-7.88c-7.98-1.85-14.11-9.23-12.14-16.3
			c1.35-4.82,5.66-9.2,9.63-12.65c1.21-1.05,6.12,1.07,8.57,2.81c4.28,3.05,8.07,6.82,11.86,10.51c3.71,3.61,2.73,8.41,2.14,12.72
			c-0.56,4.13-1.48,7.51,1.68,11.51C527.33,314.11,525.38,319.32,519.28,323.05z"/>
	</g>
</g>
</svg>
