<?xml version="1.0" encoding="utf-8"?>
<!-- Generator: Adobe Illustrator 26.2.1, SVG Export Plug-In . SVG Version: 6.00 Build 0)  -->
<svg version="1.1" id="Layer_1" xmlns="http://www.w3.org/2000/svg" xmlns:xlink="http://www.w3.org/1999/xlink" x="0px" y="0px"
	 viewBox="0 0 960 560" style="enable-background:new 0 0 960 560;" xml:space="preserve">
<g>
	<g>
		<path d="M356,267c2.31-6.58,5.47-12.38,11.48-16.59c9.77-6.84,25.05-5.77,32.91,3.15c0.88,1,0.12,3.65-0.2,5.47
			c-0.37,2.13-2.1,4.58-1.48,6.21c1.52,3.96,4.55,3.61,7.9-0.05c4.78,1.84,9.24,3.81,13.87,5.25c3.22,1,2.6,3.09,2.66,5.44
			c0.05,1.78,0.93,3.53,1.44,5.3c1.44-0.47,2.85-1.08,4.32-1.36c1.3-0.25,2.8-0.5,4-0.1c4.19,1.39,8.2,3.33,12.43,4.53
			c3.51,1,6.04,2.37,6.57,6.34c0.23,1.73,1.05,3.39,1.6,5.07c0.55,0.31,1.1,0.63,1.66,0.94c0.58-1.12,1.69-2.25,1.65-3.35
			c-0.19-5.32,3.58-6.48,7.48-7.79c3.45-1.15,7.01-2.22,10.15-3.99c4.57-2.58,8.73-4.41,13.65-0.69c2.5,1.89,4.63,0.64,4.75-2.46
			c0.15-3.78,2.21-5.1,5.46-6.49c4.47-1.92,8.46-4.95,13.74-8.16c-4.34,0-7.72,0.96-9.75-0.27c-1.99-1.21-2.62-4.67-3.89-7.24
			c-5.77,6.53-15.2,7.66-22.57,2.73c-4.14-2.77-8.09-5.8-12.36-8.87c-3.16,3.51-6.34,2.8-9.81,0.16c-2.49-1.9-5.28-3.49-8.13-4.8
			c-3.7-1.7-7.06-3.31-3.96-9.91c-3.24,1.66-5.05,2.43-6.69,3.47c-2.64,1.67-4.93,1.73-6.97-0.9c-3.54-4.56-7.26-8.99-10.6-13.69
			c-2.78-3.92-2.15-8.23,0-12.21c5.32-9.87,13.36-15.6,24.48-18.55c9.12-2.42,14.88,2.19,21.01,6.57c1.91,1.37,2.24,4.94,3.39,7.72
			c4.97-3.5,8.78,0.93,12.78,4.15c4.13,3.33,8.27,6.71,11.91,10.55c1.47,1.56,1.49,4.44,2.4,6.61c0.84,2.02,2,3.91,3.02,5.85
			c1.74-1.15,3.95-1.96,5.13-3.54c2.06-2.76,4.28-3.57,7.66-3.09c3.75,0.54,7.64,0.11,11.42,0.56c1.68,0.2,3.6,1.16,4.77,2.38
			c2.95,3.09,7.46,3.69,9.29,0.01c2.77-5.54,8.08-6.5,12.48-6.59c7.7-0.15,13.82-3.6,19.76-7.22c9.46-5.77,18.34-12.51,27.48-18.81
			c0.5-0.34,1.17-0.44,3.12-1.12c-1.12,2.64-1.61,4.39-2.54,5.87c-9.1,14.42-22.24,24.96-34.75,36.11
			c-1.74,1.55-3.61,2.94-5.42,4.41c-2.29,1.85-4.38,3.11-6.46-0.48c-0.51-0.87-2.65-1.43-3.75-1.11c-0.83,0.24-1.62,2.07-1.69,3.24
			c-0.49,7.77-2.98,11.88-10.64,11.68c-9.77-0.26-12.3,6.81-16.06,12.74c-7.12,11.23-14.29,22.2-26.06,29.39
			c-4.44,2.71-8.13,6.62-14.12,1.58c0.29,6.9-4.85,7.78-8.36,9.13c-13.45,5.19-27.37,5.75-41.41,2.26
			c-5.58-1.39-9.04-4.71-9.48-11.55c-4.66,4.86-8.48,2.94-12.59,0.6c-2.37-1.35-5.29-2.58-7.9-2.47c-6.03,0.25-7.62-2.37-5.64-8.96
			c-1.8,1.61-2.7,2.23-3.38,3.04c-4.43,5.26-8.5,5.47-13.7,0.77c-7.47-6.76-13.09-14.87-17.48-23.87C356,269,356,268,356,267z"/>
		<path d="M606,281c-2.31,5.58-3.98,11.55-7.08,16.65c-6.44,10.61-13.51,20.84-20.59,31.05c-2.57,3.7-6.24,5.38-10.87,2.96
			c-0.79-0.41-2.04,0.06-3.89,0.18c4.82,5.32,2.73,8.64-1.85,11.36c-8.1,4.82-16.01,9.99-24.33,14.39
			c-6.15,3.25-7.65,2.5-12.19-2.82c-0.42-0.5-0.94-0.95-1.48-1.3c-0.39-0.26-0.91-0.32-1.89-0.64c-0.51,2.33-1,4.54-1.46,6.76
			c-0.24,1.14-0.08,3.06-0.66,3.31c-4.42,1.89-8.9,3.81-13.55,4.86c-1.05,0.24-2.88-2.88-4.32-4.48c-0.42-0.47-0.74-1.02-1.11-1.53
			c-8.99,11.42-20.74,9.08-32.08,6.27c-4.47-1.11-11.48-0.9-10.68-10.47c-3.83,7.43-8.85,5.77-13.56,3.98
			c-11.78-4.49-20.09-13.52-17.18-27.62c1.98-9.6,8.91-14.77,19.35-13.9c6.59,0.55,13.14,1.74,19.65,2.95
			c3.19,0.59,5.51,2.21,4.33,6.3c-0.42,1.45,0,3.31,0.55,4.79c0.32,0.88,1.62,1.88,2.52,1.92c0.77,0.04,1.75-1.1,2.37-1.92
			c0.47-0.62,0.57-1.55,0.77-2.35c0.92-3.71,2.25-4.71,6.26-2.6c8.16,4.29,17.14,3.88,25.69,1.39c7.86-2.28,7.69-2.8,10.95,4.78
			c0.42,0.98,1.11,1.85,2.48,4.09c2.05-5.34,3.66-9.54,5.27-13.74c0.54,0.11,1.08,0.23,1.62,0.34c-0.16,2.87-0.31,5.74-0.48,8.79
			c5.57,0.83,6.8-2.67,6.53-6.5c-0.33-4.68,2.15-5.84,5.84-7.55c7.17-3.31,15.77-4.34,21.07-13.44c0.6,3,0.49,4.59,1.21,5.56
			c0.98,1.34,2.47,2.67,3.99,3.08c0.65,0.17,2.82-2.07,2.76-3.13c-0.4-7.9,3.94-10.52,10.99-11.68c8.44-1.39,11.78-9.08,16.36-15.07
			c1.51-1.98,2.74-4.24,4.51-5.92c0.92-0.87,2.76-0.78,4.18-1.12C606,279.67,606,280.33,606,281z"/>
	</g>
</g>
</svg>
