<?xml version="1.0" encoding="utf-8"?>
<!-- Generator: Adobe Illustrator 26.2.1, SVG Export Plug-In . SVG Version: 6.00 Build 0)  -->
<svg version="1.1" id="Layer_1" xmlns="http://www.w3.org/2000/svg" xmlns:xlink="http://www.w3.org/1999/xlink" x="0px" y="0px"
	 viewBox="0 0 960 560" style="enable-background:new 0 0 960 560;" xml:space="preserve">
<g>
	<g>
		<path d="M437,406c-3.88-1.8-7.94-3.31-11.55-5.54c-1.78-1.1-3.38-3.37-3.93-5.41c-2.01-7.47,6.59-22.95,13.98-25.24
			c2.08-0.65,4.54-0.1,7.12-0.1c0.01-6.53,5.76-7.71,10.08-8.61c8.55-1.78,17.38-2.22,26.12-3.01c1.35-0.12,2.77,1.07,4.22,1.27
			c1.96,0.28,3.97,0.16,5.96,0.27c2.43,0.13,4.93-0.02,7.27,0.52c8.77,2.04,17.67,4.27,24.2,10.89
			c8.02,8.13,15.42,16.85,18.61,28.18c-0.33,0.44-0.67,0.89-1,1.33c-1.35-0.84-2.84-1.52-4.04-2.55c-6.23-5.37-12.24-11-18.66-16.14
			c-1.46-1.17-4.2-0.76-6.35-1.04c-1.28-0.17-2.77,0.11-3.8-0.46c-3.09-1.74-6.18-3.59-8.94-5.81c-3.15-2.52-5.3-1.13-6.97,1.44
			c-3.95,6.08-6.5,6.23-11.04,0.06c-5.96,4.07-12,8.21-20.1,7.42c-3.97,4.58-8.73,9.26-9.97,16.48c-0.39,2.3-4.04,4.04-6.19,6.04
			C440.33,406,438.67,406,437,406z"/>
		<path d="M519,156c3.19,2.03,6.4,4.04,9.57,6.11c6.62,4.33,8.67,11.13,4.36,17.59c-4.47,6.7-8.65,13.94-16.35,17.74
			c-2.2,1.08-4.65,1.67-6.77,2.87c-3.38,1.9-6.43,4.42-9.88,6.13c-10.89,5.4-22.03,6.87-34.12,3.57
			c-11.35-3.1-20.76-8.88-28.33-17.42c-3.4-3.84-5.1-9.2-7.41-13.95c-0.27-0.57,0.49-1.64,0.78-2.48c0.96,0.33,2.38,0.37,2.8,1.04
			c7.72,12.2,19.77,14.8,32.92,15.25c1.7,0.06,3.31,1.43,5.05,1.8c1.35,0.29,4,0.23,4.09-0.15c1.19-4.98,6.13-4.88,9.28-7.11
			c1.33-0.94,3.24-1.09,4.49-2.09c4.08-3.24,8.3-4.82,12.93-1.8c0.23-10.88,4.25-19.68,11.6-27.09C515.67,156,517.33,156,519,156z"
			/>
		<path d="M467.01,241.04c3.87-1.83,8.07-3.96,13.15-5.2c5.31-1.29,10.61-0.99,15.64-2.35c2.4-0.65,4.19-3.77,6.11-5.9
			c0.75-0.83,0.96-2.81,1.65-2.93c9.74-1.75,10.85-11.65,16.44-17.28c5.85-5.89,10.92-12.57,16.79-18.44
			c4.88-4.88,10.46-9.07,15.69-13.6c2.84-2.46,4.95-0.48,6.11,1.57c3.34,5.86,2.27,12.81-2.69,18.27c-2.94,3.24-5.87,7.02-9.63,8.86
			c-8.17,4-12.25,11.93-18.66,17.54c-1.86,1.63-3.5,3.55-5.07,5.47c-1.14,1.39-1.93,3.04-3,4.49c-1.9,2.56-3.9,5.06-5.6,7.25
			c2.93,5.07,6.02,10.43,8.98,15.58c3.19-2.87,5.81-5.06,8.23-7.46c2.18-2.16,3.62-5.05,7.78-3.94c0.93,0.25,3.58-2.9,4.14-4.85
			c2.53-8.73,9.77-13.13,16.26-18.04c3.2-2.42,4.46,1.15,5.34,3.66c1.19,3.39,2.95,6.78,3.16,10.25c0.2,3.36-0.26,7.56-2.16,10.09
			c-4.5,6-10.59,10.5-17.84,12.99c-2.08,0.71-4.37,0.82-7.14,1.3c-0.26,0.93-0.7,2.5-1.52,5.39c4.01,0.3,7.85,1.47,11.22,0.67
			c6.6-1.57,11.38,1.16,15.88,5.05c3.37,2.92,6.38,6.26,9.58,9.37c3.23,3.13,2.79,12.43-0.88,16.68
			c-8.56,9.93-23.75,13.44-34.9,3.62c-4.94-4.35-7.42-4.05-10.78-0.05c-3.81,4.54-3.43,7.29,1.09,12.05
			c9.02,9.51,17.91,19.13,26.81,28.75c0.88,0.95,1.44,2.18,2.15,3.27c-0.37,0.33-0.74,0.65-1.1,0.98
			c-9.86-8.38-19.73-16.76-29.59-25.14c-0.44,0.2-0.88,0.4-1.33,0.6c0.39,1.85,0.46,3.85,1.24,5.51c2.78,5.9,7.26,10.92,6.92,18.28
			c-0.22,4.66-1.33,6.93-6.15,7.3c-3.22,0.24-6.39,0.98-9.59,1.5c-0.12,0.62-0.24,1.24-0.35,1.87c2.06,1.72,4.26,3.31,6.17,5.19
			c5.56,5.5,11.02,11.11,16.49,16.7c0.69,0.71,1.37,1.49,1.82,2.36c2.11,4.11,4.14,8.26,5.63,13.13c-2.68-2.83-5.11-5.97-8.1-8.43
			c-8.52-7.02-17.83-13.18-25.72-20.83c-5.59-5.43-10.99-5.7-18.1-5.32c-7.22,0.39-13.83-2.24-18.03-9.98
			c-3.13-5.77-10.04-7.8-16.66-8.68c-0.73-0.1-1.73,0.26-2.29,0.76c-12.01,10.6-24.05,21.17-35.91,31.94
			c-7.26,6.59-14.28,13.46-21.29,20.31c-3.2,3.13-6.1,6.56-9.19,9.8c-1.16,1.22-2.47,2.29-4.25,2.89
			c18.09-25.09,37.12-49.29,59.97-71.03c-2.63-0.73-4.79-1.57-7.02-1.91c-6.93-1.06-8.16-0.02-7.9,6.87
			c0.35,9.19-5.77,15.27-12.61,15.39c-2.16,0.04-5.04-1.71-6.34-3.53c-1.12-1.57-0.94-4.53-0.44-6.66c0.61-2.62,2.16-5.01,2.95-6.74
			c-11.08,8.59-22.61,17.55-34.19,26.45c-0.14,0.11-0.78-0.42-1.38-0.76c4.41-4.06,8.89-7.8,12.92-11.98
			c8.09-8.39,15.91-17.03,23.88-25.54c2.22-2.37,2.98-4.58,1.74-8.04c-1.71-4.77-0.69-9.61,2.2-13.99c5.1-7.72,4.31-11.1-3.57-16.47
			c-3.43-2.34-7.13-4.37-10.21-7.11c-2.2-1.96-3.95-4.7-5.2-7.41c-1.37-2.97-2.53-4.26-5.91-2.45c-7.44,3.99-9.37,2.8-10.93-5.35
			c-0.91-4.75-2.19-9.34-0.18-14.12c1.56-3.72,4.59-5.4,7.73-3.09c6.1,4.48,11.65,9.7,17.59,14.42c4.53,3.6,9.3,6.9,14.67,10.85
			c0.14-6.31,1.33-11.51-4.13-15.38c-1.58-1.12-2.78-4.05-2.66-6.06c0.45-7.19,0.47-14.53,8.57-18.75c2.3-1.2,2.85-5.77,4.21-8.79
			c-0.67,0.21-1.33,0.41-2,0.62c-2.64-1.95-5.41-3.74-7.89-5.87c-5.89-5.06-12.27-9.74-17.24-15.6c-4.17-4.91-9.97-7.13-14.42-11.31
			c-2.81-2.64-2.66-11.91,0.24-15.43c3.4-4.12,7.04-2.43,10.69-0.34c8.2,4.7,13.89,11.68,18.2,19.93c0.31,0.59,0.53,1.41,1.03,1.67
			c10.1,5.25,15.53,15.48,23.92,22.56c2.21,1.87,3.57,2.32,5.92,0.77c6.42-4.23,12.83-4.93,20.23-1.53
			c6.35,2.92,13.24,3.19,18.8-2.82c0.66-0.72,2.11-0.7,3.2-1.02c-0.32,1.27-0.28,3.34-1.03,3.69c-5.62,2.59-11.34,4.98-17.16,7.09
			c-1.61,0.58-3.82,0.52-5.43-0.11c-6.46-2.51-9.64,3.16-14.12,5.48c-0.23,0.12,0.27,2.85,1.11,3.59
			C460.49,236.46,463.48,238.43,467.01,241.04z M514.78,326.53c-1.55-2.37-3.4-3.97-3.57-5.73c-0.4-4.07,0.09-8.21,0.07-12.33
			c0-1.33-0.03-3-0.78-3.93c-2.11-2.67-4.6-5.04-7.32-7.92c-6.94,7.31-13.28,13.99-19.89,20.95c8.84,8.06,17.11,15.59,25.32,23.08
			c1.85-3.11,3.66-6.13,5.93-9.94C514.59,329.8,514.71,327.68,514.78,326.53z M509.21,289.88c2.14,1.73,3.6,2.91,4.77,3.86
			c3.91-3.35,7.11-6.54,10.75-9.12c4.04-2.86,9.98-2.78,13.23,0.71c3.75,4.03,7.36,6.45,13.25,5.9c3.44-0.32,6.15-0.36,6.91-2.3
			c-0.45-4.87-0.76-8.22-1-10.78c-7.17-3.15-14.75-6.55-22.42-9.74c-0.98-0.41-2.82-0.18-3.55,0.51
			C523.92,275.65,516.84,282.54,509.21,289.88z M435.63,247.7c0.26,1.15,0.88,2.87,1.01,4.63c0.69,8.91,1.22,17.84,1.91,26.75
			c0.08,1.03,0.57,2.27,1.31,2.95c2.89,2.67,5.94,5.15,8.92,7.68c4.05-4.38,4.12-8.41,0.51-13.4c-6.09-8.43-6-11.02,0.17-19.46
			c1.82-2.5,3.16-5.35,4.54-7.72c-3.93-4.95-7.45-9.37-10.89-13.69C440.3,240.03,438.13,243.59,435.63,247.7z M501.11,280.21
			c5.01-5.31,10.03-10.54,14.92-15.89c0.8-0.88,1.75-2.94,1.38-3.37c-3.28-3.78-6.33-8.32-10.55-10.48
			c-2.07-1.06-6.68,2.08-9.74,3.97c-2.26,1.4-3.64,4.14-5.81,5.75c-2.54,1.88-3.96,6.29-1.82,8.58
			C493.19,272.74,497.21,276.41,501.11,280.21z M431.33,324.52c1.38,0.74,3.2,2.34,5.24,2.69c3.71,0.63,7.58,0.28,11.33,0.77
			c7.63,0.99,11.32-1.22,14.01-9.09c-4.89-3.58-9.86-7.22-15.85-11.61C441.62,312.47,436.91,317.99,431.33,324.52z M472.33,309.81
			c-0.7-0.89-1.4-1.78-2.1-2.68c8.11-6.42,16.22-12.84,24.7-19.54c-5.02-4.71-9.35-8.77-13.69-12.85c-3.09,2.41-6.38,4.89-9.55,7.53
			c-0.58,0.48-0.62,1.62-0.91,2.45c0.79-0.09,2,0.12,2.31-0.32c2.49-3.51,5.43-3.67,9.37-2.45c4.79,1.49,6.96,5.35,3.73,9.25
			c-3.36,4.05-6.23,10.01-13.52,7.19c-0.66-0.25-1.62,0.21-2.42,0.41c-3.08,0.77-5.79,0.62-8.07-2.12
			c-0.61-0.74-2.35-0.54-3.57-0.77c0.04,0.38,0.07,0.77,0.11,1.15C463.25,301.32,467.79,305.57,472.33,309.81z M492.48,347.51
			c0.27-0.6,0.54-1.21,0.81-1.81c-5.53-4.69-11.06-9.38-16.58-14.08c-3.59-3.05-5.87-1.59-7.83,2.4c6.66,1.8,12.46,4.43,16.47,10.37
			C486.58,346.21,490.05,346.51,492.48,347.51z M470.01,263.61c-3.95-4.72-3.91-4.7-7.19,0.71c-0.67,1.11-2,1.88-2.5,3.03
			c-0.64,1.51-1.03,3.25-0.96,4.87c0.03,0.65,1.77,1.9,2.37,1.71c1.55-0.48,3.34-1.3,4.24-2.55
			C467.55,269.17,468.54,266.54,470.01,263.61z M430.34,335.46c-0.53-0.45-1.74-1.45-2.94-2.45c-2.38,2.97-4.75,5.94-7.13,8.9
			c1.08,0.73,2.14,2.06,3.24,2.09C428,344.14,430.48,341.35,430.34,335.46z M428.89,312.04c3.8-4.13,6.94-7.56,10.25-11.15
			C433.46,298.42,429.54,302.62,428.89,312.04z M478.53,256.29c2.4-2.66,4.29-4.75,6.17-6.85c-0.22-0.33-0.45-0.65-0.67-0.98
			c-2.93,1.03-5.87,2.06-9.31,3.27C476.13,253.42,477.14,254.63,478.53,256.29z"/>
	</g>
</g>
</svg>
