<?xml version="1.0" encoding="utf-8"?>
<!-- Generator: Adobe Illustrator 26.2.1, SVG Export Plug-In . SVG Version: 6.00 Build 0)  -->
<svg version="1.1" id="Layer_1" xmlns="http://www.w3.org/2000/svg" xmlns:xlink="http://www.w3.org/1999/xlink" x="0px" y="0px"
	 viewBox="0 0 960 560" style="enable-background:new 0 0 960 560;" xml:space="preserve">
<g>
	<g>
		<path d="M606,356c-1.75,1.77-3.12,2.18-5.38,0.15c-3.04-2.73-6.75-4.72-10.15-7.06c-10.66-7.35-21.28-14.75-31.98-22.05
			c-3.36-2.3-4.66-4.93-2.72-8.87c1.4-2.86,1.94-6.14-1.43-7.88c-3.5-1.8-6.59-0.19-8.51,3.01c-1.7,2.85-3.8,3.88-6.5,1.86
			c-7.62-5.71-16.74-6.06-25.55-7.02c-9.41-1.03-10.75-2.2-8.77-11.19c1.12-5.07-2.06-6.37-6.39-7.14
			c-1.06,4.07-3.67,5.79-8.12,5.67c-2.48-0.06-4.95,1.99-7.52,2.27c-6.2,0.67-12.45,1.05-18.67,1.05c-1.27,0-2.76-1.99-3.74-3.36
			c-0.72-1.01-0.41-2.82-1.2-3.7c-1.55-1.74-3.37-3.75-5.44-4.31c-0.94-0.25-2.82,2.62-4.11,4.21c-0.49,0.59-0.59,1.54-0.76,2.34
			c-1.41,6.96-4.63,9.68-11.79,11.2c-4.23,0.9-8.69,2.14-12.26,4.45c-6.36,4.13-8.28,4.04-11.8-2.74c-0.73-1.4-1.41-2.82-3.38-4.14
			c-0.33,2.82-0.76,5.63-0.98,8.46c-0.55,7.06-1.05,7.64-8,8.95c-6.87,1.29-13.59,2.61-18.58,8.46c-1.25,1.47-4.78,1.93-6.99,1.49
			c-8.86-1.76-15.23-7.05-19.29-15.12c0-2.67,0-5.33,0-8c2.37-5.03,4.81-10.03,7.1-15.1c2.52-5.55,7.5-8.15,12.61-10.48
			c1.15-0.52,2.92-0.11,4.28,0.3c4.25,1.28,6.18-0.02,4.77-3.99c-1.42-3.98,0.1-5.41,3.43-6.62c4.65-1.68,9.15-3.79,13.83-5.39
			c4.57-1.57,6.45-0.16,6.84,4.66c0.09,1.16-0.35,2.68,0.23,3.42c1.24,1.56,2.88,3.53,4.57,3.76c1.29,0.18,4.02-1.93,4.19-3.27
			c1.05-8.25,6.72-9.21,13.45-10.3c9.84-1.6,19.49-4.39,30.13-6.88c1.22,2.95,2.82,6.83,4.85,11.73c1.19-1.94,2.1-3.27,2.86-4.68
			c2.06-3.85,3.27-7.87,9.42-7.57c6.83,0.34,13.74-1.15,20.63-1.55c1.67-0.1,3.7,0.56,5.06,1.56c6.93,5.1,13.68,10.45,20.52,15.68
			c1.56,1.2,3.22,2.28,4.55,3.22c-1.3,5.48-2.54,10.67-3.95,16.62c5.67-0.57,8.9-2.37,11-6.44c2.96-5.75,4.89-5.62,9.5-1.24
			c2.49,2.37,6.67,2.92,9.33,5.17c7.39,6.26,15.3,12.25,21.3,19.72c7.41,9.24,13.1,19.86,19.52,29.89c3.36,5.25,6.67,10.52,10,15.79
			C606,355.33,606,355.67,606,356z"/>
		<path d="M465.59,210.97c4.54-0.86,8.14-0.84,9.29-5.36c0.19-0.74,2.96-1.62,4.03-1.19c6.41,2.6,12.57,5.83,19.02,8.29
			c3.32,1.27,3.85,3.39,4.38,6.37c0.44,2.51,1.76,6.72,3.05,6.86c3.4,0.36,7.17-0.54,8.09-5.35c0.26-1.36,2.26-2.88,3.78-3.43
			c19.09-6.91,37.66-14.86,54.87-25.77c0.66-0.42,1.56-0.44,3.32-0.91c-0.16,7.68-1.85,14.45-7.08,19.55
			c-7.36,7.18-15.16,13.93-23.14,20.42c-1.89,1.54-5.27,1.14-7.87,1.93c-1.49,0.45-3.8,1.34-3.98,2.35
			c-0.69,3.76-3.38,4.64-6.31,5.5c-5.56,1.64-11.03,3.8-16.7,4.77c-6.64,1.13-13.47,1.71-20.18,1.51c-2.43-0.07-4.78-3.05-7.29-4.8
			c-1.12,3.81-3.95,3.75-7.23,1.46c-6.06-4.23-12.18-4.1-19.01-1.58c-3.5,1.29-7.8,0.98-11.67,0.61c-5.13-0.49-6.01-4.98-7.14-9.02
			c-0.53-1.9-1.24-3.76-1.66-5.01c-3.89,2.31-6.85,5.17-10.25,5.86c-5.91,1.2-10.21-2.74-14.33-6.58
			c-11.73-10.94-13.16-29.79-2.83-41.9c1.55-1.81,3.88-3.1,6.08-4.17c3.65-1.78,7.47-3.23,11.27-4.7c0.81-0.31,1.94-0.39,2.73-0.09
			c5.18,1.98,10.24,4.29,15.48,6.1c4.79,1.65,8.52,3.65,7.78,9.74c-0.12,1.02,1.4,2.79,2.57,3.3c1.6,0.69,3.57,0.53,5.39,0.68
			c5.69,0.48,7.39,2.98,5.91,8.24C465.48,206.44,465.72,208.42,465.59,210.97z"/>
		<path d="M436.08,368.48c-0.81,2.72-1.7,5.43-2.4,8.18c-0.96,3.81-2.42,5.18-6.63,3.15c-5.02-2.42-10.47-4.05-15.87-5.57
			c-5.27-1.49-7.94-5.34-9.63-9.91c-2.3-6.2-4.25-12.54-6.04-18.91c-2.71-9.64,2.29-17.72,11.47-21.74
			c8.04-3.52,15.68-3.04,23.58-0.75c1.99,0.58,3.71,2.03,5.66,2.84c1.62,0.67,3.47,0.8,5.08,1.51c5.22,2.3,10.44,4.61,15.49,7.25
			c1.51,0.79,2.45,2.66,3.31,3.64c-0.2,3.47-0.6,6.9-0.4,10.29c0.04,0.6,3.18,1.92,3.89,1.44c7.49-5.05,16.12-3.6,24.3-4.69
			c2.71-0.36,5.55-0.46,8.07-1.39c6.04-2.23,9.11-1.54,13.31,3.16c1.18,1.32,3.88,3.03,4.73,2.55c2.06-1.18,5.01-3.7,4.84-5.41
			c-0.84-8.49,4.48-9.77,10.84-11.34c6.53-1.61,13.17-3.56,17.91-9.1c0.88-1.03,2.69-1.27,4.07-1.87c0.31,1.69,1.23,3.56,0.81,5.04
			c-0.98,3.5-2.1,7.15-4.07,10.15c-3.67,5.62-7.86,10.91-12.04,16.17c-3.49,4.4-7.42,8.45-10.87,12.87
			c-2.69,3.44-5.07,5.51-8.41,0.77c-0.46-0.66-1.61-0.85-2.64-1.35c-4.39,13.14-15.28,16.99-26.93,19.27
			c-5.11,1-6.77-3.84-9.36-7.99c-1.99,2.42-3.62,4.79-5.67,6.72c-1.13,1.06-3.03,2.04-4.48,1.91c-7.2-0.63-14.37-1.53-21.52-2.57
			c-4.48-0.65-6.89-3.6-7.56-8.03c-0.31-2.05-0.65-4.1-0.97-6.15C437.34,368.58,436.71,368.53,436.08,368.48z"/>
	</g>
</g>
</svg>
