<?xml version="1.0" encoding="utf-8"?>
<!-- Generator: Adobe Illustrator 26.2.1, SVG Export Plug-In . SVG Version: 6.00 Build 0)  -->
<svg version="1.1" id="Layer_1" xmlns="http://www.w3.org/2000/svg" xmlns:xlink="http://www.w3.org/1999/xlink" x="0px" y="0px"
	 viewBox="0 0 960 560" style="enable-background:new 0 0 960 560;" xml:space="preserve">
<g>
	<g>
		<path d="M606,381c-1.05-1.88-2.76-3.67-3.06-5.67c-2.09-14.03-11.08-24.09-21.32-31.93c-5.77-4.42-12.38-8.16-17.92-13.17
			c-3.88-3.51-7.35-7.48-11.39-10.79c-3.56-2.93-7.47-4.76-12.69-4.4c-5.4,0.38-7.18-5.32-9.29-9.04c-1.67-2.94-2.1-3.31-5.33-2.01
			c-3.12,1.26-7.07,1.02-10.58,0.65c-9.73-1.03-19.41-2.54-29.13-3.66c-1.7-0.19-3.52,0.63-6.3,1.19c0,4.03-0.25,8.29,0.16,12.49
			c0.12,1.22,1.98,2.98,3.3,3.25c6.22,1.26,8.94,6.61,5.52,12.29c2.09,2.57,4.67,5.03,6.36,8c1.45,2.55,2.15,5.63,2.74,8.56
			c1.59,7.9-4.39,11.58-9.3,15.63c-7.66,6.31-19.5,3.6-23.5-5.54c-3.71-8.48-6.74-17.25-10.28-25.8c-0.74-1.8-3.3-3.1-3.51-4.81
			c-0.76-6.27-0.87-12.62-1.23-18.85c-4.65,2.15-8.72,10.7-17.03,3.67c-4.83,3.75-9.69,7.71-14.75,11.4
			c-2.67,1.95-5.11,6.02-9.27,1.91c-0.26-0.25-2.94,0.96-3.29,1.93c-3.63,9.95-12.39,15.29-19.51,22.08
			c-3.47,3.31-6.97,6.65-10.87,9.4c-1.08,0.77-4.15,0.12-5.33-0.96c-2.12-1.93-3.51-3.72-7.08-3.35c-1.87,0.19-4.07-2.88-6.12-4.47
			c0-2,0-4,0-6c4.32-11.07,10.57-20.71,20.74-27.31c1.91-1.24,4.33-1.73,6.16-3.06c5.18-3.76,10.52-7.41,15.17-11.77
			c8.39-7.88,18.96-11.11,29.31-14.92c5.77-2.13,11.74-3.83,17.28-6.45c7.19-3.4,14.69-1.5,21.98-2.42
			c5.08-0.64,10.58-1.86,14.79-4.55c5.99-3.83,6.06-9.48,0.73-14.08c-5.49-4.73-11.7-8.61-17.47-13.02
			c-8.39-6.4-9.1-12.41-1.62-20.16c5-5.19,10.81-9.61,16.44-14.16c8.68-7.02,17.14-14.18,22.53-24.27c1.33-2.49,3.23-4.68,4.87-7.01
			c0.51,0.23,1.02,0.46,1.53,0.7c-1.12,3.73-1.61,7.82-3.49,11.12c-3.32,5.84-7.32,11.3-11.32,16.72
			c-3.17,4.29-6.86,8.19-10.1,12.44c-0.91,1.19-1.22,2.97-1.43,4.53c-0.15,1.1,0.83,2.45,0.49,3.39c-2.58,7.25,2.35,9.06,7.52,10.97
			c2.64,0.98,5.14,2.36,7.59,3.77c4.23,2.42,8.57,4.84,6.67,11.07c-0.27,0.88-0.21,2.2,0.28,2.93c4.15,6.16,0.3,10.86-2.69,15.75
			c-0.76,1.24-1.37,2.57-2.36,4.47c2.76,0.14,5.08-0.13,7.17,0.45c4.55,1.27,9.11,2.66,13.43,4.56c8.3,3.66,16.54,7.5,24.57,11.71
			c3.46,1.81,6.5,4.56,9.47,7.18c6.73,5.93,13.15,12.23,19.96,18.05c13.34,11.41,22.62,25.53,28.92,41.78
			c0.76,1.95,1.92,3.75,2.89,5.62C606,371.67,606,376.33,606,381z"/>
	</g>
</g>
</svg>
