<?xml version="1.0" encoding="utf-8"?>
<!-- Generator: Adobe Illustrator 26.2.1, SVG Export Plug-In . SVG Version: 6.00 Build 0)  -->
<svg version="1.1" id="Layer_1" xmlns="http://www.w3.org/2000/svg" xmlns:xlink="http://www.w3.org/1999/xlink" x="0px" y="0px"
	 viewBox="0 0 960 560" style="enable-background:new 0 0 960 560;" xml:space="preserve">
<g>
	<g>
		<path d="M416,406c2.51-7.85,4.75-15.79,7.6-23.51c2.41-6.53,5.37-12.88,8.41-19.15c1.02-2.11,3.05-3.73,5.25-4.89
			c0.73-3.75,0.21-8.82,2.46-10.93c3.6-3.38,4.46-6.6,5.08-11.17c0.62-4.53,3.63-8.73,5.82-13.58c-3.09-1.55-5.79-2.91-8.62-4.32
			c-3.02,4.36,0.38,12.36-6.36,12.08c-3.21,4.98-5.63,9.1-8.42,12.97c-2.66,3.69-2.77,10.49-8.72,9.03
			c-3.58,5.5-6.85,10.48-10.08,15.49c-5.2,8.07-10.38,16.15-15.54,24.24c-0.76,1.18-1.37,2.45-2.91,3.4
			c0.08-0.84-0.03-1.75,0.26-2.52c3.49-9.53,6.68-19.18,10.67-28.49c3.37-7.87,7.56-15.41,11.69-22.93
			c0.83-1.52,2.98-2.33,4.65-3.57c-0.82-5.19,1.04-10.51,5.84-12.63c1.05-3.61,1.62-6.37,2.66-8.95c1.56-3.89,5.34-7.46,0.1-11.62
			c-1.13-0.9-0.77-3.65-1.16-5.86c-3.16,3.53-5.61,1.85-8.12-1.17c-2.66-3.21-7.06-5.37-5.75-10.74c0.12-0.49-0.83-1.76-1.35-1.8
			c-5.57-0.41-6.45-5.16-8.28-8.9c-2.07-4.25-3.82-8.65-4.81-13.61c0.82,0.63,1.81,1.13,2.43,1.92c6.27,7.89,14.6,12.93,23.48,17.29
			c1.41,0.69,2.32,2.4,3.87,4.07c2.85-1.42,5.81-0.78,8.01,2.81c0.43,0.7,1.9,0.93,2.93,1.05c3.49,0.43,7.13,0.26,10.44,1.23
			c1.96,0.57,3.42,2.86,5.4,4.64c3.78-5.51,8.18,0.88,12.39,1.76c6.32,1.31,12.14,0.77,18.15-0.59c1.12-0.25,2.44-0.97,3.34-0.63
			c3.76,1.42,6.88,0.38,10.31-1.35c5.72-2.9,11.83-6.13,16.81,2.89c-0.29-8.69,5.87-9.14,10.86-11.41c3.37-1.53,6.07-4.51,9.35-7.05
			c1.51,0.66,3.37,1.46,5.23,2.27c-0.29-0.46-0.59-0.93-0.88-1.39c2.1-2.79,3.68-6.29,6.39-8.25c7.04-5.11,13.95-10.07,15.8-19.47
			c4.06,16.46-7.56,26.79-15.17,39.14c-0.61-0.1-1.94-0.32-3.61-0.59c0,2.62,0,4.89,0,7.54c-1.71-0.16-3.08-0.3-3.51-0.34
			c-3.16,3.4-5.84,6.41-8.66,9.29c-1.97,2.02-2.99,2.89-0.32,6.11c4.59,5.53,7.51,12.43,11.33,19.11c-1.23,0.68-2.35,1.31-3.22,1.79
			c7.63,3.74,12.76,9.09,13.93,16.17c2.49,2.64,4.54,4.23,5.86,6.29c5.9,9.18,11.59,18.5,17.36,27.77c-0.3,0.37-0.61,0.75-0.91,1.12
			c-3.73-3.2-7.59-6.27-11.17-9.63c-5.7-5.35-11.37-10.75-16.73-16.43c-1.57-1.66-2.09-4.33-2.74-5.78
			c-2.15-1.19-4.15-1.91-5.64-3.21c-2.74-2.4-5.37-4.99-7.68-7.8c-1.29-1.57-1.9-3.72-2.72-5.65c-0.38-0.88-0.26-2.46-0.82-2.71
			c-4.35-1.94-2.72-5.21-1.53-9.13c-2.71,0.73-4.68,1.27-7.11,1.93c-1.65-2.41-3.41-4.98-5.39-7.87c-1.42,0.95-2.81,1.88-4.53,3.03
			c3.15,5.3,5.95,10.6,9.34,15.49c2.1,3.03,3.88,5.52-0.2,8.9c7.81-2.08,7.41,4.91,10.37,7.98c3.29,3.43,7.87,6.32,4.9,11.03
			c2.21,3.04,4.07,5.24,5.55,7.68c3.26,5.4,6.33,10.92,9.48,16.39c0.78,1.36,1.57,2.73,2.35,4.09c-0.35,0.33-0.69,0.65-1.04,0.98
			c-1.52-1.24-3.12-2.38-4.55-3.72c-5.56-5.24-11.06-10.55-16.59-15.83c-0.6-0.57-1.81-1.16-1.77-1.67
			c0.58-7.12-7.67-8.29-9.43-14.23c-0.98-3.33-5.13-5.82-8.08-8.44c-2.65-2.35-4.29-4.7-1.04-9.07
			c-11.96,2.29-10.45-8.02-14.32-13.16c-1.52-2.02-2.19-4.69-2.81-6.08c-3.1,1.34-5.81,2.5-8.97,3.87
			c-0.84-3.14-1.38-5.17-2.29-8.58c-1.18,3.9-1.99,6.56-2.89,9.54c-2.91-0.53-5.79-1.06-8.11-1.48c-2.78,3.04-5.21,5.99-7.95,8.62
			c-2.52,2.42,1.57,8.87-3.87,8.21c-1.42,3.39-2.3,6.09-3.64,8.52c-2.32,4.2-5.54,7.99-7.24,12.4c-1.66,4.28-3.43,7.49-7.06,7.48
			c-1.8,3.42-3.01,6.11-4.56,8.58c-5.35,8.6-10.82,17.13-16.24,25.69C416.67,406,416.33,406,416,406z"/>
		<path d="M480,156c0.54,6.24,0.92,12.49,1.64,18.7c1.1,9.54,2.05,19.13,3.83,28.56c0.75,3.95,0.78,6.01-3.63,6.52
			c-0.73,0.09-1.36,1.13-2.77,2.39c7.36,0.44,6.84,3.63,6.55,9.42c-0.35,7.11,3.35,14.42,5.29,21.59
			c5.46-1.27,2.99-12.88,12.58-6.42c-1.22-5.27,0.13-8.01,4.2-10.65c3.33-2.16,4.89-6.97,7.44-10.46
			c10.02-13.73,20.12-27.4,30.21-41.08c0.12-0.17,0.58-0.09,2.37-0.29c-5.94,9.15-5.42,20.62-13.66,26.53
			c-0.61,2.87-0.73,5.05-1.53,6.93c-1.96,4.58-4.33,8.98-6.36,13.53c-1.28,2.86-1.88,6.14-5.82,6.72c-0.54,0.08-1.41,1.2-1.34,1.73
			c1.08,7.71-5.61,12.77-6.65,19.81c-0.45,3.03-2.15,5.91-3.47,8.78c-3.01,6.55-6.3,8.27-12.68,6.95c-1.13,2.36-2.25,4.7-3.41,7.11
			c6.09,3.45,5.63,15.26-1.89,19.09c-4.74,2.42-10.32,3.73-15.65,4.31c-5.74,0.62-11.85-7.33-10.71-13.7
			c0.5-2.78-2.01-7.75,4.06-7.75c0.1-0.69,0.4-1.34,0.2-1.62c-5.35-7.31-10.92-14.46-16.01-21.94c-1.22-1.8-0.89-4.66-1.28-7.11
			c-7.27-0.21-16.41-12.27-13.43-18.82c-8.39-3.81-11.58-11.11-14.18-19.54c-1.52-4.93-6.25-8.83-9.31-13.35
			c-4.49-6.65-8.78-13.43-13.16-20.16c0.41-0.4,0.83-0.79,1.24-1.19c1.1,0.71,2.39,1.24,3.28,2.16c5.54,5.75,10.99,11.59,16.47,17.4
			c1.37,1.45,2.56,3.17,4.15,4.31c5.2,3.74,10.04,7.53,6.9,15.71c8.38-2.25,9.77,4.59,12.97,8.51c3.15,3.86,9.69,5.96,7.42,11.65
			c4.25,2.85,7.72,5.18,11.33,7.61c2.53-3.2,0.91-9.64,8.85-9.36c-2.25-2.14-3.56-3.39-4.61-4.39c0.5-5.49,0.95-10.75,1.51-16
			c0.12-1.1,0.34-2.53,1.08-3.15c4.46-3.83,4.81-6.68,1.15-10.47c1.96-12.94,3.89-25.75,5.83-38.57C479.33,156,479.67,156,480,156z"
			/>
		<path d="M492.53,363.41c-2.71,2.31-5.67,3.61-6.25,5.6c-0.97,3.3-2.45,4.61-5.69,5.04c-1.67,0.22-3.18,1.57-5.04,2.56
			c-1.24-2.18-2.48-4.36-3.72-6.53c-0.3,0.13-0.6,0.26-0.9,0.39c0.13,1.1,0.11,2.24,0.4,3.29c1.84,6.7-2.87,11.66-9.95,10.41
			c-7.1-1.25-12.45-9.38-12.11-17.88c0.38-9.56,5.49-15.8,13.59-19.94c6.13-3.14,10.8-1.39,13.88,4.83c0.72,1.45,1.5,2.86,3.47,4.19
			c0-1.7,0.04-3.39-0.01-5.09c-0.06-1.8-0.21-3.6-0.32-5.58c9.32-0.4,17.09,2.75,23.05,9.36c1.59,1.76,1.03,5.45,1.45,8.24
			c5.69-1.14,6.42-0.28,9.1,6.73c4.24,11.09-1.52,20.18-4.26,29.91c-0.61-0.04-1.22-0.09-1.83-0.13c0-1.84,0.21-3.71-0.04-5.51
			c-0.49-3.53-0.83-7.17-2-10.49c-0.88-2.5-3.83-4.4-0.84-7.37c0.33-0.33-0.1-2.16-0.63-2.44c-0.85-0.46-2.34-0.64-3.11-0.18
			c-2.01,1.21-3.18,3.58-6.32,1.12c-3.08-2.42-2.33-4.61-1.32-7.31C493.22,366.35,493.02,365.97,492.53,363.41z"/>
		<path d="M387.63,190.17c6.82,6.81,13.81,13.47,20.37,20.53c2.26,2.43,3.81,4.86,7.55,5.67c5.52,1.2,9.38,7.17,8.79,12.33
			c6.53-0.85,6.98,5.57,10.21,8.71c3.27,3.17,8.45,5.78,4.71,12.39c4.74-0.5,8.21,0.04,6.57,5.73c6.54-1.42,9.54,3.06,12.4,7.08
			c2.92,4.11,2.73,8.94,0.48,13.3c-2.49,4.84-8.87,6.1-13.29,2.83c-3.87-2.86-7.84-5.77-8.06-11.32c-0.03-0.74-0.55-1.55-1.04-2.17
			c-3.72-4.7-7.68-9.23-11.12-14.13c-0.88-1.25-0.13-3.64-0.13-5.81c-5.28-1.3-13.3-11.74-13.05-17.71
			c-1.65-1.13-3.74-1.84-4.68-3.3c-7.02-10.93-13.81-22-20.68-33.03C387,190.91,387.32,190.54,387.63,190.17z"/>
		<path d="M551.92,213.32c0.93-2,1.46-4.36,2.86-5.95c6.01-6.83,12.28-13.43,18.45-20.12c0.43,0.26,0.85,0.51,1.28,0.77
			c-6.93,12.45-13.85,24.9-21.07,37.88c2.39,3.31-1.03,6.7-3.03,9.98c-3.42,5.62-7.63,10.75-11.05,16.36
			c-5.09,8.36-9.79,16.97-14.66,25.47c-2.51,4.38-6.1,5.04-10.63,3.35c-4.36-1.63-7.37-5.87-6.27-10.57
			c0.77-3.3,2.68-6.34,4.08-9.49c0.13-0.3,0.35-0.85,0.47-0.83c8.29,1.12,7.4-7.86,11.94-10.85c2.22-1.46,4.31-3.12,6.46-4.69
			c0.44,0.33,0.87,0.65,1.31,0.98c-0.61-1.44-1.22-2.88-2.02-4.76c1.98-0.69,3.93-1.38,4.75-1.66c1.1-2.89,1.62-5.09,2.7-6.96
			c3.22-5.61,6.54-11.16,10.11-16.55C548.36,214.51,550.32,214.15,551.92,213.32z"/>
	</g>
</g>
</svg>
