<?xml version="1.0" encoding="utf-8"?>
<!-- Generator: Adobe Illustrator 26.2.1, SVG Export Plug-In . SVG Version: 6.00 Build 0)  -->
<svg version="1.1" id="Layer_1" xmlns="http://www.w3.org/2000/svg" xmlns:xlink="http://www.w3.org/1999/xlink" x="0px" y="0px"
	 viewBox="0 0 960 560" style="enable-background:new 0 0 960 560;" xml:space="preserve">
<g>
	<g>
		<path d="M423,406c-4.9-9.78-1.3-18.61,3.85-26.68c5.46-8.55,11.04-16.85,13.58-26.87c1.05-4.14,2.9-8.08,5.02-13.83
			c-6.02,1.81-10.85,3.14-15.59,4.73c-3.32,1.12-6.59,3.16-9-1.34c-0.31-0.57-0.75-1.19-0.75-1.79
			c-0.07-6.73,7.07-13.14,13.95-13.07c3.78,0.04,7.7-0.34,11.32-1.37c1.74-0.49,3.94-2.77,4.19-4.5c0.9-6.06,1.06-12.23,1.52-18.65
			c-6.35-0.82-12.01-3.46-18.65-0.92c-3.81,1.46-8.64,0.26-13.25,0.26c0.34-1.11,0.38-1.61,0.52-1.64
			c10.13-2.32,20.28-4.57,30.4-6.97c1-0.24,2.43-1.26,2.59-2.12c1.68-9.02,3.15-18.08,4.68-27.12c-0.47-0.5-0.93-1.01-1.4-1.51
			c-5.74,1.86-11.47,3.72-17.35,5.63c-2.31-4.6-3.73-8.15,0.26-12.84c5.81-6.82,5.29-7.14,13.73-5.43c1.05,0.21,3.47-1.3,3.57-2.21
			c0.81-6.91,1.2-13.86,1.79-21.67c-7.91,0-14.96,0-23.49,0c6.38-1.86,11.49-3.67,16.74-4.78c4.99-1.05,7.09-3.22,6.98-8.68
			c-0.1-4.59,1.94-9.18,2.43-13.84c0.4-3.81-0.14-7.72-0.19-11.59c-0.13-9.65-0.24-19.3-0.29-28.95c0-0.75,0.55-1.51,0.85-2.26
			c0.33,0,0.67,0,1,0c2.79,10.41,5.62,20.81,8.33,31.24c0.44,1.71,0.6,3.58,0.47,5.34c-0.6,7.66-1.37,15.3-2.03,22.95
			c-0.05,0.6,0.32,1.23,0.65,2.41c4.65-1.26,9.15-2.48,14.55-3.94c0.48-9.24,0.58-18.93,1.58-28.52c1.03-9.88,2.93-19.67,4.45-29.5
			c0.33,0,0.67,0,1,0c0.76,8.44,1.76,16.87,2.18,25.34c0.32,6.45-0.13,12.93-0.19,19.4c-0.04,4.29-0.01,8.59-0.01,13.47
			c4.26-0.39,8.86-0.79,13.45-1.25c4.43-0.45,8.85-1.11,13.29-1.39c3.45-0.22,5.85,0.57,6.25,5.1c0.26,2.91,2.72,5.62,4.19,8.42
			c-3.61,1.24-6.85,2.38-10.13,3.43c-0.56,0.18-1.48,0.16-1.85-0.18c-7.49-6.77-15.65-2.24-23.97-1.84c0,7.79-0.12,15.21,0.16,22.62
			c0.03,0.89,2.1,2.26,3.39,2.47c13.17,2.22,26.37,4.25,39.56,6.33c-0.05,0.68-0.1,1.37-0.16,2.05c-2.32,0-4.65-0.02-6.97,0.01
			c-2.5,0.03-5,0.19-7.49,0.13c-7.95-0.22-15.78,3.1-23.85,0.67c-2.15-0.65-3.88,0.44-3.77,3.22c0.12,2.99-0.03,6,0.13,8.99
			c0.2,3.91,0.83,7.82,0.81,11.73c-0.02,3.21,1.11,4.72,4.3,4.55c4.97-0.28,9.98-0.3,14.9-0.97c9.83-1.34,12.99,1.06,13.71,10.95
			c0.07,0.96,0.45,1.92,0.78,2.85c0.28,0.77,0.69,1.49,1.03,2.23c-3.96,2.34-12.16,2.02-15.42-0.23c-1.38-0.95-3.17-1.52-4.85-1.78
			c-4.87-0.74-9.79-1.23-14.46-1.8c0.33,7.38,0.5,14.82,1.18,22.21c0.11,1.18,2.48,2.98,3.89,3.07c6.98,0.42,13.98,0.38,20.98,0.48
			c2.09,0.03,4.19,0,6.28,0c0.03,0.46,0.06,0.93,0.09,1.39c-5.09,0.74-10.19,1.39-15.27,2.23c-3.27,0.54-6.46,1.63-9.74,1.97
			c-5.47,0.57-6.08,3.8-5.52,8.35c0.61,4.95,0.28,10.06,1.24,14.92c0.79,4,2.76,7.79,4.42,11.58c1.82,4.17,3.63,8.38,5.93,12.29
			c1.48,2.5,4.34,4.22,5.66,6.76c1.19,2.3,2.24,5.69,1.38,7.8c-1.44,3.53-3.96,7.06-6.97,9.35c-1.8,1.37-6.15,1.48-8.01,0.2
			c-3.29-2.25-6.02-5.73-8.08-9.23c-1.17-1.99-0.6-5.03-0.75-7.59c-0.07-1.14,0.38-2.44-0.03-3.42
			c-5.65-13.76-6.59-28.35-7.74-42.91c-0.09-1.16-0.17-2.34-0.46-3.46c-0.2-0.77-0.73-1.46-1.52-2.98
			c-6.62,1.04-13.41,1.94-20.11,3.3c-1.59,0.32-3.58,1.91-4.14,3.4c-1.6,4.16-2.47,8.58-3.77,12.86
			c-2.58,8.54-5.17,17.08-7.96,25.55c-0.48,1.47-1.93,2.63-2.38,3.21c1.5,8.8,0.14,16.55-2.63,24.17C435.67,406,429.33,406,423,406z
			 M465.66,300.38c-1.48,8.29-2.9,16.22-4.5,25.16c8,0,14.62,0,20.6,0c0-8.99,0-16.86,0-23.62
			C476.35,295.8,471.22,301.04,465.66,300.38z M465.8,262.94c0,9.64,0,18.21,0,26.83c4.7,0,9.33,0.23,13.92-0.17
			c1.1-0.09,2.89-2.26,2.87-3.45c-0.14-7.97-0.68-15.94-1.11-24.2C475.74,262.31,471.11,262.6,465.8,262.94z M483.04,250.9
			c0-8.27,0-15.65,0-22.29c-2.73-1.03-4.73-1.57-6.52-2.51c-3.15-1.65-7.53,0.27-7.63,3.78c-0.2,6.58-0.06,13.17-0.06,19.89
			C473.17,250.11,478.13,250.51,483.04,250.9z"/>
	</g>
</g>
</svg>
