<?xml version="1.0" encoding="utf-8"?>
<!-- Generator: Adobe Illustrator 26.2.1, SVG Export Plug-In . SVG Version: 6.00 Build 0)  -->
<svg version="1.1" id="Layer_1" xmlns="http://www.w3.org/2000/svg" xmlns:xlink="http://www.w3.org/1999/xlink" x="0px" y="0px"
	 viewBox="0 0 960 560" style="enable-background:new 0 0 960 560;" xml:space="preserve">
<g>
	<g>
		<path d="M606,317c-7.49-2.71-14.94-5.52-22.48-8.08c-3.6-1.22-7.43-1.75-11.02-2.98c-2.36-0.8-4.48-2.29-6.71-3.47
			c0.12-0.44,0.24-0.87,0.36-1.31c-1.62,0.8-3.18,1.8-4.89,2.32c-1.12,0.34-3.35,0.35-3.55-0.12c-1.98-4.86-5.85-3.14-8.55-3.15
			c-0.48,2.9-0.9,5.47-1.32,8.04c0.97,0.79,3.07,1.64,3.63,3.09c3.58,9.32,10.52,13.67,20.13,14.47c0.76,0.06,1.5,0.31,3.06,0.64
			c-5.14,4.32-10.53,5.01-15.83,3.63c-8.14-2.12-16.22-4.52-22.98-10.14c-2.64-2.19-4.3-4.04-2.77-7.83
			c-6.27,0.5-9.38-2.48-10.66-8.13c-0.27-1.19-2.32-2.58-3.71-2.79c-3.1-0.48-6.36,0.08-9.44-0.48c-2.05-0.37-4.49-1.47-5.69-3.06
			c-1.98-2.62-4.31-2.36-5.01-0.2c-1.8,5.59-6.18,5.42-10.49,5.93c-0.6,0.07-1.17,0.47-2.1,0.87c1.7,2.16,3.22,4.1,4.6,5.86
			c-0.53,2.27-1.03,4.38-1.52,6.5c0.47,0.13,0.93,0.27,1.4,0.4c1.63-1.04,3.25-2.07,3.91-2.49c7.08,5.02,13.54,9.6,21.26,15.07
			c-5.61,0-9.76,0.15-13.88-0.05c-2.96-0.15-5.89-0.95-8.85-1.17c-10.52-0.77-18.6-5.74-24.22-14.45c-2.05-3.19-4.13-1.56-6.4-1.28
			c-2.12,0.26-4.24,0.43-7.23,0.73c-1.91,5.01-8.02,3.14-12.51,4.99c-6.9,2.85-7.74-4.89-12.43-6.25c0.02-0.01-0.52,0.01-0.56,0.15
			c-2.28,8.51-9.59,7.87-16.05,9.01c-4.22,0.74-8.57,1.5-12.45,3.21c-8.29,3.64-8.18,3.89-14.61-2.32c-0.8,1.71-1.35,3.39-2.3,4.79
			c-1.17,1.74-2.5,4.45-4.05,4.67c-7.72,1.08-12.57,7.21-19.17,10.06c-1.3,0.56-3.26-0.41-4.91-0.67c0-2.33,0-4.67,0-7
			c0.55-1.35,1.64-2.73,1.57-4.05c-0.75-13.64,6.04-25.36,9.81-37.8c1.07-3.53,4.78-6.26,7.7-9.87c-0.53-0.41-2.15-1.67-3.82-2.96
			c2.76-6.13,5.45-12.34,8.41-18.42c0.48-0.99,2.1-1.55,3.29-2.06c2.09-0.89,5.44-1.06,6.11-2.51c0.9-1.98,0.7-5.8-0.69-7.19
			c-3.21-3.24-1.92-5.69-0.29-8.74c2.12-3.96,4.59-7.89,5.79-12.14c2.55-9.02,13.4-12.02,21-8.35c3.59,1.74,7.39,3.03,10.98,4.75
			c5.71,2.74,8.82,9.69,6.69,16.1c-1.67,5.01-4.14,9.76-6.51,14.5c-0.47,0.93-2,1.52-3.17,1.88c-2.93,0.91-5.93,1.6-7.53,2.01
			c0.77,4.19,2.62,7.87,1.73,10.67c-1.91,5.97-6.79,0.59-9.81,1.33c-2.03,3.22-3.83,6.08-5.71,9.08c0.5,0.22,0.95,0.61,1.31,0.54
			c3.03-0.6,6.12-1.09,7.84,2.26c1,1.96-3.19,8.35-5.53,9.64c-3.42,1.88-6.62,4.14-9.92,6.23c0.25,0.4,0.49,0.81,0.74,1.21
			c5.48-1.88,10.97-3.77,16.54-5.68c0.91,4.33,1.67,7.9,2.62,12.39c3.57-5.46,5.62-11.03,9.61-14c4.05-3.02,10.01-3.48,15.44-5.16
			c0.65,3.02,1.22,5.67,1.79,8.33c0.35,0.06,0.69,0.13,1.04,0.19c0.77-1.72,1.23-3.7,2.39-5.1c1.21-1.46,3.1-2.36,4.75-3.54
			c-3.43-5.89-9.67-10.55-7.82-18.98c2.86-0.5,5.86-1.03,9.25-1.62c-1.68-4.22-3.18-7.87-4.57-11.57c-0.27-0.71-0.39-1.79-0.03-2.38
			c2.78-4.67,5.29-9.61,8.76-13.73c1.48-1.76,5.05-1.76,8.25-2.74c-2.65-4.14,0.14-6.08,3.18-8.29c11.62-8.43,23.94-7.1,35.55-0.49
			c7.86,4.47,9.59,19.09,3.16,24.49c-5.15,4.32-10.72,1.92-15.27-0.64c-4.91-2.76-8.48-2.27-12.67,0.88c-3.27,2.46-7,4.31-9.59,5.87
			c1.57,1.98,5.11,4.45,5.38,7.22c0.42,4.46,4.09,9.37,0.03,14.26c2.4,2.83,5.68,3.11,9.43,1.57c1.52-0.62,3.26-0.71,4.79-1.32
			c4.24-1.68,8.15-2.24,10.55,2.66c2.54-2.13,4.42-4.74,6.85-5.45c2.62-0.76,5.76,0.27,8.69,0.52c1.18-5.14-2.3-11.83,6.13-13.81
			c-0.79-1.06-1.39-1.74-1.85-2.49c-2.24-3.63-0.51-6.85,3.74-7.26c1.94-0.18,3.84-0.71,6.51-1.22c-0.85-1.95-1.14-3.97-2.3-5.02
			c-4.04-3.66-2.26-7.36,0.45-9.96c7.19-6.89,15.82-11.04,26.08-10.09c2.95,0.27,5.79,1.85,9.37,3.07
			c4.75-5.24,10.29-1.2,14.26,1.94c6.64,5.24,11.81,12.2,12.73,21.18c0.69,6.79-1.76,10.41-8.3,12.27
			c-2.98,0.85-6.19,1.31-9.29,1.27c-5.09-0.06-8.69-4.19-8.79-9.41c-0.02-1.28-0.14-2.57-0.24-4.4c-2.06,0.25-3.72,0.45-5.83,0.71
			c0.58,1.41,1.1,2.14,1.12,2.87c0.05,1.85,0.45,4.08-0.42,5.41c-0.51,0.77-3.49,0.66-4.87-0.02c-3.69-1.82-7.01-1.94-10.17,0.8
			c-0.54,0.47-0.66,1.42-1.14,2.57c2.32,0.98,4.39,1.85,6.85,2.88c-0.58,1.17-1.03,2.17-1.58,3.12c-3,5.17-2.55,5.97,3.11,8.02
			c2.19,0.79,3.92,2.76,5.98,3.99c1.87,1.12,3.81,2.22,5.87,2.88c17.21,5.54,29.66,18.62,44.51,27.89C606,315.67,606,316.33,606,317
			z"/>
	</g>
</g>
</svg>
