<?xml version="1.0" encoding="utf-8"?>
<!-- Generator: Adobe Illustrator 26.2.1, SVG Export Plug-In . SVG Version: 6.00 Build 0)  -->
<svg version="1.1" id="Layer_1" xmlns="http://www.w3.org/2000/svg" xmlns:xlink="http://www.w3.org/1999/xlink" x="0px" y="0px"
	 viewBox="0 0 960 560" style="enable-background:new 0 0 960 560;" xml:space="preserve">
<g>
	<g>
		<path d="M606,319c-5.54,0.26-11.09,0.51-16.63,0.79c-18.69,0.93-36.1,6.73-53.05,14.14c-2.13,0.93-3.69,1.68-4.6-1.22
			c-1.15-3.65-3.85-3.55-7.19-2.73c0.37,4.16-2.52,5.15-5.89,5.44c-4.43,0.38-4.96,2.23-4.14,6.61c1.52,8.13,1.87,16.48,2.53,24.75
			c0.08,0.98-1.01,2.04-1.55,3.07c-0.79-0.65-1.98-1.14-2.3-1.97c-3.45-8.98-9.09-16.1-17.34-21.14c-0.92-0.56-1.83-1.6-2.13-2.6
			c-0.56-1.9-0.27-5.43-1.05-5.64c-3.73-1.02-7.76-1.77-11.57-1.42c-3.5,0.32-6.79,2.5-10.3,3.23c-2.25,0.47-4.73-0.2-8.01-0.42
			c3.23,12.2,7.07,24.21,4.59,36.63c-0.59,0.11-1.19,0.23-1.78,0.34c-4.5-7.04-8.9-14.14-13.55-21.08c-1.46-2.17-3.4-4.11-5.44-5.77
			c-2.52-2.05-5.07-2.79-8.57-0.91c-1.99,1.07-5.24-0.21-7.93-0.44c-0.04-0.51-0.08-1.02-0.12-1.53c-0.41,0.48-0.82,0.97-1.24,1.43
			c-7.37,8.01-13.92,8.31-20.9,0.03c-3.98-4.72-7.69-10.12-9.85-15.84c-3.31-8.77-0.37-20.13,13.63-18.93
			c3.85,0.33,7.78-0.32,11.97-0.54c-4.15-12.35-11.63-19.8-25.27-21.43c2.49-4.13,4.3-7.14,6.11-10.15
			c-0.15-0.39-0.31-0.78-0.46-1.17c-3.32,1.72-6.65,3.44-9.68,5.01c-4.51-2.06-9.26-4.22-14-6.41c-0.59-0.27-1.45-0.62-1.58-1.1
			c-2.09-7.52-8.59-6.52-14.11-7.42c-1.45-0.24-2.88-0.6-2.96-0.62c-2.29-3.65-3.96-6.31-5.62-8.97c0-1.33,0-2.67,0-4
			c5.16-8.43,10.58-16.71,15.36-25.34c2.53-4.56,5.22-6.04,9.83-3.37c0.67,0.39,1.52,0.48,2.23,0.7c0.29-0.48,0.57-0.75,0.59-1.03
			c0.24-2.93-1.93-6.43,2.03-8.46c6.49-3.33,13.12-6.24,20.32-2.31c3.17,1.73,5.95,4.16,9.58,6.75c3.92-3.09,8.03-6.63,12.44-9.72
			c4.81-3.37,9.47-7.46,16.29-5.42c0.8,0.24,3.27-1.85,3.3-2.89c0.08-4.03,2.26-5.94,5.6-7.36c8.68-3.7,17.15-7.94,25.99-11.19
			c11.99-4.42,21.01-2.62,28.85,9.82c5.49,8.7,5.33,8.8,5.94,18.21c0.72,0.09,1.52,0.37,2.25,0.25c3.59-0.6,7.31-0.09,8.4,3.46
			c0.6,1.95-1.58,4.79-2.6,7.19c-0.79,1.86-1.73,3.65-1.75,6.31c2.33-1.02,4.67-2.03,8.27-3.61c5.68,5.49,11.91,11.38,17.91,17.49
			c0.68,0.7,0.51,2.76,0.05,3.93c-0.7,1.79-2,3.35-3.34,5.49c4.86,0.31,7.83,1.83,7.93,6.8c0.14,7.27-3.04,11.08-12.35,14.59
			c15.6,4.59,31.78,9.35,47.97,14.12c-0.06,0.78-0.12,1.56-0.18,2.34c-15.19-2.99-29.9-1.57-44.28,3.85
			c-1.01-1.62-1.85-2.96-2.75-4.39c-4.54,6.48-4.56,6.18-13.56,6.79c-4.21,0.29-8.36,1.91-12.47,3.15
			c-0.78,0.23-1.88,1.69-1.71,2.23c0.26,0.83,1.45,1.42,2.34,1.96c0.37,0.23,0.99,0.15,1.47,0.07c6.89-1.13,13.32-0.75,18.01,6.24
			c6.58-10.37,15.97-2.97,23.86-4.64c0.66-0.14,2.13,1.5,2.52,2.57c1.42,3.85,3.73,3.03,5.53,0.85c3.01-3.66,6.42-3.97,10.7-2.92
			c7.09,1.74,14.33,2.85,21.4,4.64c2.82,0.71,5.36,2.54,8.02,3.86C606,318.33,606,318.67,606,319z M417.41,226.83
			c1.21,3.7,2.4,6.63,3.1,9.68c1.67,7.23-2.26,11.45-9.38,10.53c-1.82-0.24-3.72,0.21-5.89,0.37c2.78,5.16,2.78,5.16-1.89,10.21
			c3.36,1.82,6.56,3.88,10.02,5.32c2.92,1.22,4.24,2.82,3.8,6.03c-0.27,1.97-0.05,4.02-0.05,6.5c7.96-4.33,7.83-4.16,13.41,0.06
			c4.12,3.12,1.06,6.23,0.45,9.42c5.98,4.61,11.77,9.24,14.28,16.79c0.36,1.1,2.9,2.33,4.2,2.11c6.37-1.08,12.67-2.6,18.99-4.02
			c2.8-0.63,4.39-2.4,2.56-4.98c-3.2-4.53-6.94-8.69-10.3-13.12c-0.93-1.23-2.22-3.14-1.86-4.24c1.63-4.94-1.25-6.77-5.02-7.13
			c-9.9-0.94-15.8-7.88-22.15-14.12c-2.25-2.21-2.93-5.07-0.69-8.11c4.63-6.27,9.05-12.69,13.63-18.99
			c3.16-4.34,8.37-5.92,13.23-3.39c5.13,2.67,10.22,5.62,14.73,9.21c6.59,5.25,6.18,14.15-0.66,19.06
			c-1.46,1.05-4.01,0.63-6.06,0.77c-1.53,0.1-3.07,0.02-5.38,0.02c2.96,4.47,6.83,5.13,9.16,8.59c3.8,5.65,5.15,6.4,5.5,12.74
			c0.01,0.21,0.4,0.4,1.15,1.1c6.94-8.09,11.95-2.38,17.46,2.51c1.6,1.42,4.49,2.16,6.68,1.98c5.89-0.48,11.73-1.64,18.04-2.59
			c-7.72-4.37-13.12-9.65-8-19.33c-7.04,2.38-7.03,2.37-11.17-4.06c-1.08-1.68-2.21-3.33-3.4-4.93c-3.07-4.16-1.54-8.3,3.51-9.55
			c2.17-0.53,4.3-1.18,6.45-1.78c0.07-0.53,0.13-1.07,0.2-1.6c-1.97-0.63-3.94-1.25-5.9-1.9c-1.35-0.45-3.7-0.74-3.85-1.46
			c-0.92-4.5-3.54-9.16,0.27-13.62c0.78-0.91,1.27-2.08,1.9-3.12c-0.25-0.31-0.5-0.62-0.75-0.93c-3.13,1.63-6.26,3.27-9.84,5.14
			c-0.82-1.28-1.45-2.87-2.59-3.9c-1.37-1.24-3.18-2.82-4.77-2.79c-3,0.06-4.17-1.13-4.9-3.73c-0.29-1.04-1.34-1.88-2.19-3
			c-4.76,8.14-5.84,8.37-13.93,3.62c-1.71,1.65-3.13,3.87-5.15,4.79c-2.82,1.29-6.09,1.54-9.14,2.35
			C435.95,221.8,426.71,224.32,417.41,226.83z"/>
	</g>
</g>
</svg>
