<?xml version="1.0" encoding="utf-8"?>
<!-- Generator: Adobe Illustrator 26.2.1, SVG Export Plug-In . SVG Version: 6.00 Build 0)  -->
<svg version="1.1" id="Layer_1" xmlns="http://www.w3.org/2000/svg" xmlns:xlink="http://www.w3.org/1999/xlink" x="0px" y="0px"
	 viewBox="0 0 960 560" style="enable-background:new 0 0 960 560;" xml:space="preserve">
<g>
	<g>
		<path d="M508,156c0.93,0.67,1.9,1.28,2.77,2.01c2.28,1.92,5.76,3.21,3.72,7.43c-0.28,0.58,0.61,1.72,1.37,3.68
			c2.55-2.49,4.75-4.36,6.61-6.53c2.38-2.79,4.74-3.53,8.28-1.86c9.12,4.31,16.19,10.2,17.95,20.45c-2.21,2.31-4.29,4.47-6.36,6.63
			c0.31,0.38,0.63,0.76,0.94,1.14c0.92-0.17,1.9-0.19,2.75-0.52c3.6-1.41,5.69,0.24,6.1,3.58c0.68,5.57,0.93,11.2,1.2,16.81
			c0.13,2.64,0.26,5.38-0.28,7.93c-0.34,1.6-1.62,3.49-3.03,4.27c-3.97,2.2-4.13,3.02-0.73,5.82c1.23,1.01,2.85,3,2.58,4.13
			c-1.84,7.56-3.67,15.19-6.53,22.39c-1.04,2.6-4.92,4.06-9.69,7.22c2.13,1.09,4.26,2.18,5.08,2.6
			c-4.97,10.72-9.65,20.83-14.01,30.22c7.19,5.16,13.11,9.4,18.92,13.58c-1.84,2.59-2.96,4.16-4.13,5.81
			c0.98,0.52,1.31,0.85,1.51,0.78c7.73-2.6,8.73-2.1,11.56,5.98c0.61,1.73,1.12,3.48,1.76,5.2c1.47,3.93,3.86,8-2.05,10.53
			c-0.39,0.17-0.44,1.12-0.86,2.29c6-1.36,7.74,2.19,8.5,6.67c1.07,6.38,2.04,12.77,2.96,19.17c0.16,1.12-0.04,2.33-0.28,3.46
			c-1.56,7.37-2.92,8.33-10.63,7.72c0,2.91,1.22,6.95-0.23,8.51c-4.42,4.75-9.75,8.72-15.04,12.54c-0.83,0.6-3.34-1.13-5.4-1.91
			c0.37,7.39-5.19,7.01-10.63,8.53c-7.45,2.08-9.41-2.44-12.19-7.72c-0.1,5.92-0.69,10.87-7.5,11.44c-2,0-4,0-6,0
			c-4.53-4.11-9.5-7.85-13.49-12.44c-4.83-5.55-4.89-12.87-1.26-17.94c2.51-3.5,5.59-5.56,10.17-4.81c2.29,0.37,4.66,0.16,6.98,0.41
			c4.01,0.43,8.66-0.78,10.98,4.3c0.35,0.76,1.98,0.92,3.09,1.39c0.74-7.16,0.74-7.16,9.55-6.47c-0.54-3.22-1.07-6.4-1.63-9.74
			c-5.45-1.17-4.08-6.83-5.98-10.4c-1.94-3.65-5.77-7.76-0.51-11.9c-4.65-3.59-5.68-8.41-5.21-13.64c0.68-7.59,0.77-7.44-6.54-7.83
			c-1.76-0.09-3.46-1.46-5.7-2.48c-0.57,1.02-1.42,2.54-2.36,4.22c-2.65,0-5.45-0.25-8.17,0.06c-3.68,0.42-6.87,1.51-7.72,6.06
			c-1.15,6.2-2.62,12.37-4.4,18.42c-0.5,1.7-2.57,2.94-4.66,3.82c-0.06,0.32-0.28,0.85-0.17,0.93c4.94,3.45,2.71,7.07,1.33,11.64
			c-1.88,6.25-1.79,13.1-2.53,19.7c-0.28,2.44-0.54,4.88-0.83,7.56c-5.09-4.04-10.59-13.88-7.53-19.97
			c-3.99,1.19-4.73-1.06-4.93-4.12c-0.1-1.46-0.58-2.94-1.08-4.34c-2.28-6.36-2.14-7.68,1.95-13.23c-4.55,0.06-4.46-2.86-4.17-5.98
			c0.48-5.12,0.88-10.25,1.33-15.5c-1.26-0.64-2.66-1.34-4.71-2.38c0.55,9.51-9.37,8.94-13.38,14.28c-0.32,0.43-1.93-0.31-2.74,0.01
			c-1.17,0.45-2.46,1.15-3.17,2.12c-1.49,2.06-2.12,5.08-4.01,6.47c-9.67,7.11-21.01,12.17-27.55,23.04
			c-0.19,0.32-0.8,0.4-2.49,1.19c1.21-2.71,1.76-4.55,2.77-6.08c4.19-6.4,8.39-12.8,12.87-19c1.39-1.92,3.7-3.17,5.57-4.76
			c1.12-0.95,2.94-1.81,3.17-2.96c1.46-7.33,7.94-10.36,12.54-14.92c1.13-1.12,3.44-1.03,5.56-1.59c-0.65-3.83,1.94-6.09,5.31-8.1
			c6.4-3.81,12.78-7.58,15.98-15.02c0.85-1.98,3.59-3.15,5.89-5.04c-0.21-0.29-1.12-1.55-2.27-3.16c4.2-3.98,6.32-11.13,14.28-9.28
			c8.33,1.94,12.65,7.13,13.27,15.12c3.94,0.94,7.86,1.87,12.2,2.9c0.03-0.17,0.28-1.67,0.54-3.27c3.7-0.74,7.42-1.26,10.97-2.31
			c1.2-0.35,2.53-1.9,2.88-3.15c1.03-3.67,1.7-7.46,2.32-11.23c0.61-3.7,1.39-7.08,5.38-6.69c-0.31-2.92-1.04-5.57-0.76-8.12
			c0.47-4.28,1.22-8.61,2.59-12.66c0.6-1.76,2.87-3.15,4.66-4.27c2.39-1.5,4.9-2.5,0.92-5.15c-0.8-0.53-1.11-2.11-1.25-3.26
			c-0.67-5.71-1.5-11.43-1.63-17.16c-0.04-2.02,1.43-4.34,2.83-6.01c0.9-1.08,2.91-1.25,4.76-1.96c-2.55-4.13-5.56-2.07-8.71-1.08
			c-3.6-4.59-7.22-9.22-11.06-14.12c1.13-1.95,2.38-4.12,3.95-6.85c-1.57-0.13-2.56-0.53-3.05-0.19c-4.29,2.95-8.64,2.94-13.71,1.93
			c-7.03-1.4-7.14-0.85-7.2-8.69c-1.27,1.39-2.68,2.22-2.7,3.08c-0.11,5.25-4.31,6.47-7.79,6.77c-11.37,0.99-16.44,0.51-16.88-12.22
			c-0.12-3.58,0.5-7.32,1.52-10.77c1.35-4.58,4.47-7.43,9.53-8.42c6.17-1.21,12.2-3.14,18.29-4.76C502,156,505,156,508,156z
			 M526.25,322.31c-0.72,0.23-1.43,0.47-2.15,0.7c0.2,2.43-0.19,5.11,0.72,7.23c2.23,5.17,4.09,10.09,0.48,15.38
			c-0.42,0.62-0.36,1.56-0.3,1.29c5.12,6.33,3.23,13.63,5.58,19.99c0.57-0.33,1.12-0.61,1.63-0.94c3.91-2.56,6.46-7.89,12.64-5.9
			c0.71,0.23,2.07-1.55,3.66-2.84c-4.18-2.82-9.89-3.6-8.65-9.93c0.78-4-4.37-8.73,1.35-12.64c-2.15,0.58-4.3,1.16-6.32,1.7
			C532,331.66,529.12,326.98,526.25,322.31z"/>
		<path d="M407.85,268.2c3.1-19.16,12.59-32.86,26.33-44.32c1.42,0.96,2.75,1.86,4.16,2.82c4.36-2.57-1.7-11.81,7.58-10.73
			c-0.07-1.63-0.35-2.79-0.13-3.84c0.48-2.21,0.7-4.74,1.95-6.47c3.78-5.22,19.4-6.45,24.27-2.26c3.45,2.96,3.23,6.64,2.28,10.53
			c-1.24,5.09-3.48,9.39-8.89,11.09c-1.7,0.54-3.5,0.78-5.23,1.15c-1.41-1.76-2.79-3.49-4.99-6.25c0,2.11-0.24,2.96,0.04,3.56
			c2.3,4.91,1.79,7.38-4.39,9.1c-4.2,1.17-7.31,6.01-11.16,8.86c-1.18,0.87-3.26,0.44-4.87,0.84c-1.29,0.32-2.82,0.68-3.68,1.57
			C423.61,251.59,416.22,259.42,407.85,268.2z"/>
		<path d="M418.37,324.25c-1.29-12.72,0.35-24.5,7.1-35.04c0.74-1.16,2.95-1.48,4.54-1.99c2.51-0.8,4.06-1.78,1.84-4.51
			c-3.27-4.02-2.07-9.16,2.76-10.81c2.74-0.94,3.58-2.1,3.17-5.04c-1.04-7.31,3.19-13.11,8.47-16.28
			c3.94-2.36,10.25-1.93,15.22-1.07c4.64,0.8,7.19,9.77,4.7,14.04c-1.66,2.85-3.7,5.47-5.72,8.43c-2.23-1.45-4.33-2.83-6.38-4.16
			c-0.45,0.59-0.67,0.78-0.64,0.85c4.61,8.72-3.94,12.28-7.04,17.98c-0.16,0.29-0.34,0.61-0.6,0.79
			c-9.04,6.16-15.79,14.11-20.82,24.59c-1.29,2.69-2.42,5.47-3.79,8.12C420.43,321.6,419.32,322.89,418.37,324.25z"/>
		<path d="M488.27,253.64c2.49-8.83,2.49-18.81,11.67-25.19c-2.97-2.02-1.7-4.62,0.09-7.65c1.22-2.06,1.12-4.87,2.17-7.09
			c0.86-1.82,2.31-4.33,3.88-4.64c2.96-0.59,8.11-0.84,8.88,0.61c1.47,2.76,0.68,6.84,0.36,10.33c-0.06,0.61-2.4,1.07-3.73,1.49
			c-0.68,0.22-1.43,0.22-2.15,0.31c0.12,0.72-0.02,1.79,0.4,2.09c3.4,2.44,1.5,4.53-0.34,6.58c-4.11,4.57-8.39,8.99-12.36,13.68
			c-2.72,3.22-5.01,6.79-7.5,10.2C489.19,254.12,488.73,253.88,488.27,253.64z"/>
	</g>
</g>
</svg>
