<?xml version="1.0" encoding="utf-8"?>
<!-- Generator: Adobe Illustrator 26.2.1, SVG Export Plug-In . SVG Version: 6.00 Build 0)  -->
<svg version="1.1" id="Layer_1" xmlns="http://www.w3.org/2000/svg" xmlns:xlink="http://www.w3.org/1999/xlink" x="0px" y="0px"
	 viewBox="0 0 960 560" style="enable-background:new 0 0 960 560;" xml:space="preserve">
<g>
	<g>
		<path d="M356,338c7.42-7.23,14.69-14.63,22.38-21.55c1.53-1.38,4.68-0.96,7.45-1.43c-1.03-4.47,2.55-6.01,6.49-7.25
			c4.29-1.35,10.32-1.42,12.52-4.35c4.76-6.34,12.32-5.72,17.76-9.58c3.6-2.56,5.62-1.6,7.33,1.94c0.34,0.7,1.01,1.25,1.88,2.29
			c3.27-6.14,4.17-11.93,1.31-18.61c-1.64,1.42-2.93,2.53-4.78,4.14c-3.92-8.65-5.97-17.07-3.77-26.15
			c0.35-1.44,1.28-2.74,1.58-4.18c0.32-1.55,0.21-3.19,0.29-4.8c-1.52,0.11-3.12-0.05-4.54,0.37c-3.51,1.05-5.23,0.41-4.36-3.68
			c0.34-1.59,0.32-3.26,0.6-6.33c-3.06,2-5.24,3.42-7.66,5c-0.75-1.24-1.62-2.67-2.48-4.1c-0.33,0.08-0.67,0.16-1,0.23
			c0.23,1.29,0.47,2.57,0.7,3.86c0.64,3.53,1.31,7.05-3.07,8.87c-0.56,0.23-1.35,0.84-1.37,1.3c-0.25,6.37-5.87,8.35-9.49,12.05
			c-4.19,4.27-7.88,9.04-11.91,13.72c1.58-6.25,3.19-12.73,4.87-19.19c0.33-1.28,1.03-2.46,1.39-3.73c1.52-5.41,1.5-5.42,7.64-7.32
			c-1.58-1.24-2.74-2.14-4.4-3.44c4.61-9.37,9.33-19.03,14.11-28.66c1.43-2.87,3.74-3.81,7-3.48c18.68,1.88,16.06,1.29,20.28,16.65
			c1.23,4.47,2.63,8.92,4.29,13.25c1.59,4.16,3.61,8.16,5.31,11.92c-2.4,1.99-4.37,3.62-6.34,5.25c0.28,0.46,0.57,0.93,0.85,1.39
			c0.89-0.09,1.84,0,2.66-0.29c3.31-1.15,4.88-0.56,5.98,3.33c1.66,5.86,4.48,11.39,7.25,18.13c1.59-3.55,2.24-7.02,4.3-9.06
			c2.1-2.07,5.59-2.74,9.62-4.53c-2.49-1.77-4.68-3.34-7.54-5.37c5.69-6.71,5.85-17.63,16.35-21.58c-0.13-0.39-0.27-0.78-0.4-1.17
			c-1.87-0.41-3.75-0.83-6.27-1.39c6.13-6.88,1.12-12.97-1.65-18.76c-1.89-3.95-1.62-6.37,1.26-9.14c0.77-0.74,1.19-1.84,1.96-3.09
			c-6.99,2.43-6.99,2.43-8.63-4.54c-2.02-8.57,0.59-13.61,8.78-16.95c11.43-4.67,22.56-2.22,28.66,6.44
			c1.02,1.45,1.64,3.23,2.18,4.94c0.87,2.73,1.3,5.17-2.83,5.84c-1.5,0.24-2.74,2.07-5.38,4.2c9.09-0.01,8.62,5.27,8.45,10.61
			c-0.1,3.13,0.84,6.32,0.55,9.42c-0.41,4.39-1.06,9.13-8.28,8.08c4.45,2.86,7.14,5.67,4.17,10.37c-2.45,3.88-0.7,11.35-10.03,9.89
			c5.03,5.95,1.94,10.54-1.02,14.78c-2.76,3.95-3.22,10.29-9.92,10.48c0.66,2.4,1.31,4.75,2.13,7.76c3.02-0.23,6.86-0.53,10.89-0.84
			c0.11,2.32,0.19,4.2,0.34,7.32c4.02-5.13,8.48-4.5,13.02-3.59c4.07,0.82,8.17,1.48,12.21,2.4c3.59,0.81,6.14,2.65,5.14,6.82
			c3.44-1.13,6.69-2.19,9.82-3.22c-0.56-3.15-1.12-7.01-2-10.78c-0.24-1.03-1.32-2.08-2.28-2.69c-4.7-2.98-9.5-5.81-14.26-8.7
			c-0.28-0.17-0.6-0.37-0.76-0.64c-5.91-9.96-11.2-20.26-8.17-32.26c1.07-4.24,4.44-7.87,6.49-11.91c0.76-1.51,0.29-3.72,1.19-5.07
			c2.38-3.58,5.2-6.88,7.87-10.27c0.3-0.38,0.72-0.89,1.13-0.94c4.08-0.49,8.52-2.1,12.18-1.05c5.7,1.64,10.42,5.69,12.68,11.6
			c1.26,3.28,2.68,5.53,6.69,6.11c3.79,0.54,8.7,0.55,8.95,5.33c2.11,1.2,4.02,1.73,5.09,2.98c5.43,6.39,9.1,13.76,8.45,22.25
			c-0.41,5.35,1.67,6.97,6.36,7.54c2.85,0.35,5.69,0.26,8.3,2.86c2.5,2.49,9.75-0.92,12.25-4.48c1.29-1.84,3.45-3.06,5.22-4.56
			c0,1,0,2,0,3c-0.33,0.51-0.93,1-0.96,1.53c-0.4,6.68-5.51,14.16-11.73,15.16c-4.16,0.67-8.64-0.61-13.25-1.04
			c0.92-1.88,1.45-2.96,2.03-4.13c-3.6-0.75-6.81-1.42-8.95-1.87c-3.43,3.47-5.92,7.13-9.36,9.11c-3.28,1.89-7.27,6.69-10.72,1.85
			c-3.06,0.32-5.35,0.46-7.61,0.81c-7.62,1.17-7.72-0.88-7.14,7.93c0.33,4.98,1.74,8.44,6.81,9.91c1.19,0.35,2.15,1.45,3.25,2.23
			c-0.47,1.67-0.89,3.15-1.03,3.64c2.95,0,6.43-1.05,8.46,0.22c4.01,2.53,9.23,5.47,4.74,11.73c5.39,1.75,6.47,2.27,7.1,7.25
			c1.01,8.05,1.66,16.2,1.57,24.29c-0.03,2.48-2.79,5.11-4.72,7.31c-0.96,1.09-2.86,1.36-4.26,1.96c1.41,9.34,0.35,13.9-9.73,16.43
			c-3.12,0.78-5.96,2.65-9.06,3.55c-1.33,0.39-3.14-0.15-4.49-0.78c-1.37-0.64-2.45-1.91-4.04-3.22c-0.38,1.53-0.85,2.48-0.82,3.41
			c0.21,5.51-3.29,7.18-7.86,7.59c-4.56,0.41-7.08-2.19-8.41-6.25c-0.85-2.6-1.68-5.21-2.47-7.68c-3.64,1.1-6.76,2.28-9.97,2.95
			c-5.45,1.14-11.04,1.2-15.86-1.83c-1.58-0.99-1.89-3.98-3.04-6.64c-1.87,1.38-3.53,3.02-5.52,3.96c-1.49,0.7-3.88,1.27-5.06,0.56
			c-5.53-3.32-11.04-6.79-16.01-10.87c-2-1.64-3.51-4.95-3.65-7.58c-0.3-5.78,0.12-5.8-5.94-4.71c-2.57-7.27-9.44-14.08-0.81-22.64
			c-2.35-0.2-3.82-0.32-6.56-0.55c1.51-6.78,2.93-13.13,4.5-20.16c-2.76,0.51-6.05,0.45-8.68,1.74c-4.7,2.31-5.15-3.26-8.09-3.8
			c-7,5.66-16.38,8.43-21.37,6.35c-5.4,6.72-17.81,10.75-22.37,8.2c-3.78,1.94-6.9,3.57-10.04,5.15c-2.52,1.27-5.16,2.32-7.57,3.75
			c-3.84,2.27-7.54,4.78-11.29,7.18C356,339.33,356,338.67,356,338z M511.6,366.03c2.2-7.38,4.01-8.65,11.92-8.26
			c0.87,0.04,1.99-0.36,2.61-0.96c6.74-6.51,10.68-6.83,17.71-1.34c0.46,0.36,1.07,0.54,1.6,0.8c-0.41-2.47-1.83-4.16-2.9-6.03
			c-0.71-1.24-1.68-3.08-1.24-4.1c1.69-3.93-0.29-6.56-2.79-8.8c-3.21-2.87-6.68-5.5-10.24-7.93c-5.47-3.74-7.1-5.8-7.99-11.97
			c-1.87,1-4.19,1.44-4.95,2.77c-2.82,4.98-6.19,2.9-9.64,1.27c-2.22-1.06-4.39-3.16-6.57-3.14c-4.44,0.05-7.73-0.84-9.01-5.86
			c-2.25,1.46-3.95,2.84-5.88,3.72c-1.36,0.62-3.04,0.83-4.55,0.77c-2.98-0.13-5.94-0.84-8.9-0.84c-3.12,0-5.04,1.74-4.71,5.1
			c0.47,4.77,1.09,9.53,1.65,14.3c-5.05,2.67-5.07,2.7-3.51,6.64c1.48-0.93,2.92-1.84,4.15-2.62c2.77,3.61,5.27,6.87,7.11,9.26
			c0,3.99,0,7.12,0,10.24c4.7-4,8.46-2.79,12.41-0.17c1.64,1.09,3.58,1.78,5.47,2.4c4.14,1.34,8.97,1.65,9.26,7.34
			C505.68,367.73,508.27,366.98,511.6,366.03z M526.37,276c0.22-7.4,0.68-13.54,7.4-17.41c-2.14-0.92-3.57-1.54-4.93-2.12
			c0.88-7.98,4.73-13.64,11.33-16.52c-0.37-1.69-0.68-3.45-1.14-5.18c-2.56-9.55-9.83-12.92-18.34-8.35
			c-1.12,0.6-2.6,2.74-2.28,3.49c2.26,5.43-1.97,7.74-4.75,10.76c-3.7,4.03-6.42,8.57-4.74,14.15c0.79,2.62,3.02,4.8,5.11,7.97
			c-0.02,0.05-0.45,1.44-0.86,2.73C517.44,268.91,521.5,272.13,526.37,276z M561.94,276.5c-3.15-4.36-6.42-8.64-9.43-13.1
			c-3.12-4.62-6-9.41-9.49-14.92c-1.21,2.72-2.59,5.08-3.31,7.63c-1.33,4.75-1.58,9.69-1.66,14.6c-0.14,8.71,5.23,13.2,12.02,9.56
			C553.84,278.26,556.75,274.62,561.94,276.5z M566.76,258.74c-1.73-2.8-3.77-5.86-5.57-9.06c-2.33-4.13-5.68-5.41-11.27-4.27
			c2.22,2.9,5.1,5,5.46,7.46c0.84,5.86,4.89,8.7,7.9,11.99C564.73,262.3,565.89,260.26,566.76,258.74z"/>
		<path d="M442.93,181.05c-1.28,0.79-2.26,1.39-3.23,2c1.11,0.23,2.44,0.96,3.28,0.59c4.36-1.91,6.7,0.26,8.19,3.88
			c1.33,3.22,2.48,6.53,3.38,9.89c0.93,3.46,0.87,6.69-4.38,6.95c2.29,0.89,4.65,1.12,5.74,2.42c1.32,1.57,2.78,4.74,2.05,5.99
			c-1.61,2.78-4.17,6.09-6.99,6.88c-7.11,1.98-13.82-0.07-18.8-5.78c-1.35-1.55-2.26-4.11-2.17-6.15c0.15-3.75,1.2-7.46,1.96-11.69
			c-1.61,0.55-3,1.03-4.93,1.7c2.36-14.96-9.94-9.93-16.57-12.42c0.25-2.44,0.47-4.56,0.69-6.69c-0.43-0.17-0.86-0.33-1.29-0.5
			c-1.12,1.44-2.23,2.89-3.12,4.04c-5.31-0.66-10.41-1.3-15.39-1.93c4.06-8.37,23.89-14.35,30.79-8.99
			C427.31,168.15,438.34,173.35,442.93,181.05z"/>
	</g>
</g>
</svg>
