<?xml version="1.0" encoding="utf-8"?>
<!-- Generator: Adobe Illustrator 26.2.1, SVG Export Plug-In . SVG Version: 6.00 Build 0)  -->
<svg version="1.1" id="Layer_1" xmlns="http://www.w3.org/2000/svg" xmlns:xlink="http://www.w3.org/1999/xlink" x="0px" y="0px"
	 viewBox="0 0 960 560" style="enable-background:new 0 0 960 560;" xml:space="preserve">
<g>
	<g>
		<path d="M356,377c3.53-3.17,6.79-6.74,10.66-9.42c6.41-4.44,13.21-8.34,19.87-12.41c0.82-0.5,2.3-1.27,2.64-0.97
			c3.89,3.47,4.85,0.98,6.47-2.42c2.01-4.23,13.1-8.02,16.91-6.43c8.7-9.83,8.7-9.83,27.18-17.56c0.86,1,1.79,2.08,2.86,3.32
			c0.85-0.47,1.88-0.76,2.52-1.43c4.86-5.12,10.46-7.13,17.4-4.73c0.87,0.3,2.34-0.15,3.12-0.76c2.95-2.31,5.74-4.84,8.21-6.97
			c-2.31-4.81-3.71-11.81-7.97-15.62c-5.91-5.29-6.53-12.67-10.49-18.56c-2.07-3.07-2.42-7.28-3.63-10.94
			c-0.33-0.99-1.03-2.72-1.45-2.69c-3.84,0.29-4.03-2.78-5.09-5.1c-1.66-3.63-3.26-7.29-5.04-10.86c-2.85-5.72-2.92-6.64-0.23-11.99
			c-8.88-0.58-9.54-8.16-12.04-14.17c-5.8,2.8-10.15,2.22-13.58-1.83c-3.9,5.5-7.8,5.89-13.19,1.49c-4.04-3.31-5.15-7.82-4.62-12.54
			c0.34-3,1.57-6.02,5.78-6.41c4.53-0.41,8.87-4,13.64-0.15c0.65,0.52,3.49-0.83,4.67-1.98c3.52-3.44,6.69-3.62,10.54-0.5
			c2.42,1.96,5.16,3.53,7.78,5.24c0.41,0.27,1.34,0.39,1.33,0.53c-0.38,5.58,6.02,5.53,7.66,9.15c4.06,8.95,10.08,17.33,8.68,28.05
			c-0.18,1.36,0.88,3.88,1.9,4.21c3.5,1.14,3.36,4.02,4.06,6.6c1.92,7.04,5.11,14,5.51,21.12c0.72,12.77,12.27,18.5,16.63,28.68
			c0.68,1.58,0.58,3.55,1.42,4.99c0.84,1.44,2.23,2.91,3.73,3.52c1.84,0.75,4.13,0.34,6.07,0.95c4.83,1.52,8.74,0.43,12.25-3.19
			c3.75-3.87,16.85-5.8,21.46-3.04c1.27,0.76,1.76,2.84,2.92,4.86c1.43-1.59,2.71-3.01,4.21-4.67c3.95,0.77,8.12,1.75,12.35,2.33
			c1.41,0.19,3.26-0.23,4.38-1.07c2.51-1.89,4.77-4.13,6.94-6.42c0.72-0.76,1.06-2.06,1.18-3.16c0.87-8.2,1.64-16.42,2.47-24.63
			c0.07-0.74,0.27-1.46,0.47-2.48c4.93,5.26,6.51,15.48,4.06,21.09c-3.08,7.06-5.92,14.24-8.34,21.54c-0.41,1.25,1.79,3.36,3.08,5.6
			c-0.15,0.56-0.54,1.98-0.92,3.39c1.98-0.2,3.95-0.4,7.19-0.72c7.9,6.19,10.8,15.98,11.78,26.67c0.09,0.99-0.29,2.07-0.02,2.98
			c1.11,3.76-0.35,5.67-4.42,5.8c1.43,2.18,4,4.47,3.56,5.69c-1.99,5.58-3.81,11.72-7.57,16.05c-6.78,7.82-16.22,12.29-26.46,13.68
			c-3.47,0.47-7.4-2.05-11-3.51c-0.53-0.21-0.35-2.15-0.55-3.67c-1.12,0.94-2.16,1.83-4.3,3.64c-2.19-4.9-4.91-9.25-6.04-13.98
			c-1.17-4.88,3.9-8.99,10.9-9.91c7.47-0.97,10.05,1,11.93,9.41c0.33-0.44,0.74-0.74,0.72-1.01c-0.6-10.48,8.44-11.58,14.8-15.29
			c0.38-0.22,0.6-0.74,0.05-0.03c-3.69-7.89-7.08-15.15-11.07-23.68c-0.65,1.17-1.58,2.84-2.66,4.77
			c-4.32-1.64-8.48-3.23-12.98-4.94c-0.17-1.34-0.37-2.9-0.62-4.89c-5.41,0.8-10.61,1.81-15.85,2.28
			c-5.74,0.51-11.52,0.63-17.28,0.63c-1.04,0-2.14-1.31-3.1-2.14c-4.21-3.64-6.82-3.02-8.4,1.68c-8.64,1.16-17.1,2.29-25.56,3.42
			c-3.59-5.81-4.51-5.72-8.63,0.33c-0.65,0.95-2.25,1.48-3.5,1.73c-2.75,0.56-5.73,0.35-8.29,1.32c-2.55,0.97-4.16,1.36-6.69-0.52
			c-1.66-1.23-4.9-0.85-7.26-0.37c-1.01,0.2-1.59,2.5-2.74,4.52c-5.75,2.62-12.46,5.67-19.18,8.73c0.01-0.16,0.03-0.31,0.04-0.47
			c-2.64,0.5-5.5,0.51-7.89,1.57c-8.61,3.81-17.02,8.05-25.57,11.99c-6.54,3.01-13.17,5.81-19.76,8.71
			C356,378.33,356,377.67,356,377z"/>
		<path d="M606,181c-8.66,7.91-19.47,11.74-30.12,15.85c-6.38,2.46-6.7,2.31-15.24-4.15c-3.35,6.08-8.3,5.19-13.61,2.94
			c-1.49-0.63-3.35-1.26-4.83-0.93c-5.67,1.24-8.66-1.19-10.63-6.61c-0.32,1.74-0.64,3.47-1.16,6.32
			c-6.06-2.91-11.93-5.47-17.53-8.53c-3.38-1.84-3.65,0.71-4.5,2.51c-1.48,3.13-2.47,6.53-4.24,9.47
			c-3.03,5.05-10.82,5.41-12.17,12.77c-0.37,2.04-4.89,3.8-7.81,4.75c-2.09,0.68-4.7-0.2-7.74-0.44c0.03-0.08-0.47,0.75-0.58,1.63
			c-0.26,2.05,0.48,5.04-0.62,6c-3.44,3.01-7.3,5.87-11.49,7.62c-3.93,1.64-9.32-2.61-9.56-7.83c-0.4-8.96,1.61-17.3,8.38-24.09
			c4.25-4.27,8.85-1.25,13.27-1.62c1.39-0.12,2.82,0.3,4.23,0.47c-0.7-1.83-1.39-3.67-2.11-5.49c-0.12-0.29-0.36-0.54-0.63-0.92
			c6.85-6.14,8.86,4.28,15.2,4.15c-1.96-2.95-3.38-5.37-5.09-7.58c-1.73-2.24-2.41-3.76,0.16-6.28c2.36-2.32,4.1-5.62,5.22-8.8
			c2.85-8.12,6.87-11.04,15.2-9.85c1.36,0.19,3.04,0.93,3.83,1.97c5.56,7.34,13.94,9.25,22.35,12.03c0.31,1.25,0.69,2.78,1.21,4.87
			c0.57-1.35,0.93-2.2,1.19-2.82c4.64,0.84,9.23,1.51,13.73,2.57c1.37,0.32,2.79,1.45,3.67,2.61c3.65,4.81,5.88,4.98,8.74-0.18
			c2.16-3.91,5.33-4.61,8.82-3.34c9.34,3.38,18.68,2.22,28.08,0.72c2.12-0.34,4.26-0.53,6.39-0.79C606,180.33,606,180.67,606,181z"
			/>
		<path d="M537.45,215.07c1.88-0.51,3.73-1.02,5.57-1.52c2.27,7.17,2.6,7.37,8.88,5.76c8.29,7.17,16.45,14.24,24.51,21.22
			c-4.98-1.1-10.2-3.1-15.45-3.23c-8.51-0.21-15.19-3.86-21.78-8.54c-2.48-1.76-5.59-2.7-8.49-3.82c-5.07-1.94-5.09-1.88-5.08-8.07
			c-2.18,4.63-5.35,3.71-8.4,2.1c-4.08-2.15-5.33-6.31-4.7-10.21c0.47-2.92,2.58-7.04,4.9-7.81c2.58-0.86,6.41,1.09,9.35,2.52
			c2.92,1.43,5.65,3.49,8.01,5.75C536.06,210.47,536.42,212.71,537.45,215.07z"/>
		<path d="M431.8,311.28c2.94,3.02,2.27,8.04-2.69,13.97c-2.84,3.39-9.08,4.57-12.09,1.56c-1.71-1.71-3.14-5.04-2.72-7.27
			c1.15-6.23,2.91-12.28,1.07-18.67c-0.21-0.72,0.37-1.92,0.95-2.56c2.33-2.59,4.64-5.24,7.29-7.48c2.27-1.92,4.85-4.29,7.55-4.7
			c4.38-0.66,8.52-4.67,13.54-1.19c0.94,0.65,3.78-1.44,5.74-2.26c0.39,0.58,0.78,1.16,1.17,1.73c-2.82,2.18-5.33,5.23-8.52,6.36
			c-5.98,2.12-9.03,6.58-11.13,11.8C431.03,304.86,431.8,307.83,431.8,311.28z"/>
		<path d="M433.44,256.1c-5.29,7.87-8.82,9.02-16.8,5.03c1.01,8.79-1.3,12.67-6.65,11.16c1.61,4.09-1.08,9.05-6.19,11.41
			c-3.43,1.58-7.81-0.83-10.21-5.61c-1.99-3.97-0.64-8.88,3.83-10.35c6.58-2.15,10.6-5.51,11.01-12.92c0.07-1.34,4.08-3.76,5.9-3.46
			C420.84,252.43,427.2,254.47,433.44,256.1z"/>
	</g>
</g>
</svg>
