<?xml version="1.0" encoding="utf-8"?>
<!-- Generator: Adobe Illustrator 26.2.1, SVG Export Plug-In . SVG Version: 6.00 Build 0)  -->
<svg version="1.1" id="Layer_1" xmlns="http://www.w3.org/2000/svg" xmlns:xlink="http://www.w3.org/1999/xlink" x="0px" y="0px"
	 viewBox="0 0 960 560" style="enable-background:new 0 0 960 560;" xml:space="preserve">
<g>
	<g>
		<path d="M515,156c6.25,0.78,8.12,5.8,8.84,10.64c0.69,4.6,3.41,9.74-0.87,14.19c-0.22,0.22-0.38,0.6-0.39,0.91
			c-0.39,13.51-12.37,15.72-20.77,21.5c-4.2,2.89-8.08,6.26-12.07,9.45c-3.19,2.54-6.34,5.12-9.16,7.41
			c-3.3-9.61,12.7-32.17,24.3-32.41c-0.68-5.93-1.09-11.89-2.13-17.74c-0.84-4.69,0.26-8.13,4.35-10.61
			c1.69-1.02,3.27-2.21,4.9-3.33C513,156,514,156,515,156z"/>
		<path d="M479,406c-10.2-4.85-13.85-14.89-9.47-26.08c0.17-0.44,0.56-1.14,0.4-1.33c-4.17-4.7-0.04-8.73,1.02-12.98
			c1.33-5.29,2.7-10.58,4.25-15.81c0.45-1.53,1.56-2.86,2.68-4.85c6.33,12.08,8.71,24.23,11.1,36.4c0.49,2.49,2.44,4.68,3.02,7.17
			c1.69,7.34-0.11,13.48-7.01,17.47C483,406,481,406,479,406z"/>
		<path d="M493.45,309.77c0-1.98,0.21-5.27-0.05-8.51c-0.35-4.27-0.8-8.56-1.7-12.74c-0.8-3.72-2.5-7.24-3.36-10.95
			c-1.13-4.86-3.92-10,2.77-14.83c-7.55-0.52-7.01-4.98-7.3-9.32c-0.83-12.6,0.49-24.61,8.9-34.76c2.63-3.17,5.66-6.03,8.75-8.76
			c0.96-0.84,2.73-0.76,4.36-1.17c-0.07,1.16,0.04,1.62-0.13,1.78c-14.58,13.42-10.97,29.02-5.41,44.86
			c7.49,6.35,7.63,15.48,8.9,24.09c0.49,3.35,0.08,6.84,0.08,10.73c3.7,0.14,3.68,3.56,3.78,7.17c0.26,9.57-1.01,18.59-7.91,25.97
			c-0.78,0.83-1.62,1.92-1.76,2.98c-1.42,11.03-10.92,12.12-18.68,15.37c-1.21,0.51-2.42,1.04-3.66,1.43
			c-2.46,0.76-4.95,1.43-8.65,2.49c-1.39,2.61-4.79,2.41-8.67,1.54c-6.27-1.4-11.58-4.01-15.11-9.64c-0.69-1.11-1.64-2.14-2.67-2.94
			c-4.82-3.72-6.32-8.38-3.89-14.47c-7.29-2.62-6.64-8.26-5.37-14.01c0.86-3.89,1.78-7.79,3.03-11.56
			c2.26-6.79,7.8-10.19,14.31-10.72c2.95-0.24,8.36,2.4,8.8,4.54c0.85,4.06,0.24,9.69-2.17,12.83c-2.93,3.83-3.8,6.76-2.65,11.2
			c0.64,2.46-0.13,5.3-0.3,8.62c1.77,1.13,4.69,3.1,7.73,4.88c3.39,1.99,10.78,0.89,13.55-2c2.18-2.28,4.07-4.86,6.32-7.07
			C487.65,314.5,490.27,312.49,493.45,309.77z"/>
		<path d="M478.62,193.54c-0.99,7.57-6.14,13.75-7.2,19.97c0.46,3.48,0.62,6.12,1.19,8.66c0.75,3.33,1.13,7.04,2.9,9.78
			c3.46,5.36,3.99,11.17,4.28,17.13c0.14,2.9-5.8,10.11-8.95,11.16c-2.95,0.99-12-2.68-14.09-5.96c-2.51-3.92-2.38-7.66,0.78-11.44
			c0.87-1.05,0.36-3.33,0.31-5.04c-0.02-0.93-0.63-1.88-0.56-2.78c1.08-14.62,4.99-28.09,15.97-38.63c1.27-1.22,2.56-2.42,3.84-3.63
			C477.6,193.02,478.11,193.28,478.62,193.54z"/>
	</g>
</g>
</svg>
