<?xml version="1.0" encoding="utf-8"?>
<!-- Generator: Adobe Illustrator 26.2.1, SVG Export Plug-In . SVG Version: 6.00 Build 0)  -->
<svg version="1.1" id="Layer_1" xmlns="http://www.w3.org/2000/svg" xmlns:xlink="http://www.w3.org/1999/xlink" x="0px" y="0px"
	 viewBox="0 0 960 560" style="enable-background:new 0 0 960 560;" xml:space="preserve">
<g>
	<g>
		<path d="M356,376c2.28-7.05,4.5-14.12,6.85-21.14c5.6-16.69,12.5-32.97,25.03-45.52c5.49-5.5,9.73-11.21,13.75-17.71
			c4.33-6.99,9.86-13.67,16.18-18.91c10.39-8.61,21.84-15.95,32.85-23.81c0.81-0.58,2.06-0.84,2.49-1.6
			c4.63-8.18,13.15-11.07,20.85-14.54c12.26-5.52,24.89-10.29,37.6-14.72c9.91-3.45,20.18-5.86,30.26-8.83
			c4.18-1.23,8.24-2.91,12.44-4.03c3.06-0.81,5.85-0.02,7.88,2.79c0.48,0.66,1.66,0.81,2.51,1.19c-0.17-0.52-0.34-1.04-0.51-1.56
			c3.3-1.84,6.41-4.3,9.94-5.4c8.77-2.73,17.43-1.74,25.75,2.22c3.39,1.61,5.01,3.76,4.29,7.89c-0.36,2.06,1.15,4.44,1.82,6.68
			c0,3,0,6,0,9c-3.35,4.65-6.17,9.84-10.22,13.76c-2.6,2.52-7,4.38-10.61,4.42c-7.7,0.1-15.52-0.03-22.74-4.07
			c-4.83-2.71-10-5.55-16.09-3.52c-0.66,0.22-1.98-0.05-2.31-0.55c-2.85-4.29-5.8-1.41-8.92-0.44c-8.36,2.58-16.79,4.95-25.23,7.26
			c-3.99,1.09-8.07,1.82-12.11,2.73c-0.64,0.14-1.57,0.78-1.83,0.55c-4.51-3.76-7.4,0.78-10.74,2.19
			c-9.17,3.89-18.39,7.73-27.19,12.33c-5.38,2.81-10.04,6.99-15.01,10.58c-4.99,3.6-9.02,9.2-16.44,7.78
			c-0.55-0.11-1.44,0.68-1.94,1.26c-7.06,8.09-14.24,16.08-21.05,24.37c-5.79,7.05-10.84,14.72-16.77,21.65
			c-8.7,10.15-13.27,22.8-21.01,33.53c-2.44,3.38-2.96,8.1-4.86,11.96c-1.14,2.32-3.25,4.16-4.93,6.22
			C356,378.67,356,377.33,356,376z"/>
		<path d="M487.07,326.14c-0.68,3.01-3.05,2.37-6.18,2.16c-8.58-0.58-17.23-0.26-25.84-0.45c-3.49-0.08-6.98-0.58-10.47-0.88
			c-0.64-0.05-1.5-0.34-1.91-0.04c-7.93,5.73-18.12,7.91-24.66,15.94c-1.09,1.34-3.84,1.34-5.43,1.83
			c-3.08,5.71-5.62,12.03-9.57,17.27c-4.03,5.35-10.51,6.09-16.88,4.7c-1.59-0.35-3.26-1.78-4.26-3.17
			c-3.44-4.79-3.16-12.09-0.08-17.18c1.86-3.07,2.58-6.95,4.81-9.64c8.23-9.9,18.13-17.43,31.29-19.64
			c3.88-0.65,7.74-1.44,12.86-2.4c1.69-5.47,7.83-5.8,13.55-5.84c9.11-0.07,18.23,0.59,27.33,1.07c1.01,0.05,1.95,1.02,2.97,1.42
			c1.55,0.6,3.11,1.38,4.73,1.54c4.21,0.43,8.75-0.3,12.62,1.01c7.21,2.45,14.56,5.2,20.88,9.32c7.54,4.91,15.95,8.2,22.91,14.38
			c9.41,8.34,16.19,18.42,22.89,28.72c0.83,1.28,1.2,2.87,0.77,5.02c-1.02-0.9-2.05-1.81-3.06-2.71
			c-6.61-5.89-13.24-11.76-19.81-17.7c-1.71-1.55-3.05-3.57-4.9-4.89c-1.79-1.27-3.99-2-6.07-2.82c-0.88-0.34-2.01-0.08-2.87-0.44
			c-8.25-3.47-16.51-6.9-24.66-10.59C494.42,330.51,491.04,328.33,487.07,326.14z"/>
		<path d="M536.84,263.44c-3.31,1.11-5.78,1.89-8.22,2.76c-7.42,2.66-14.8,5.41-22.24,8c-2.12,0.74-4.86,2.05-6.53,1.31
			c-4.9-2.16-8.07,0.59-11.94,2.53c-7.89,3.95-16.1,7.26-24.1,11.01c-2.95,1.38-5.67,3.26-8.51,4.89c-1.19,0.68-2.41,1.31-3.61,1.96
			c-0.32-0.35-0.65-0.7-0.97-1.04c0.87-1.17,1.6-2.5,2.65-3.48c12.55-11.85,26.75-21.42,42.07-29.21c3.44-1.75,7.41-5.03,12.03-1.65
			c0.43,0.32,2.29-1.15,3.37-1.93c3.42-2.47,6.44-6.26,10.23-7.28c10.4-2.79,21.08-4.58,31.72-6.34c1.82-0.3,5.08,0.98,5.74,2.41
			c1.12,2.43,1.97,6.5,0.7,8.26C554.65,261.91,544.51,267.76,536.84,263.44z"/>
		<path d="M419.79,248c1.21-1.63,2.28-3.4,3.65-4.88c20.41-21.97,45.29-37.26,72.84-48.49c4.84-1.97,9.76-4.33,15.27-1.91
			c0.64,0.28,1.77-0.38,2.59-0.76c3.49-1.62,6.82-3.73,10.46-4.88c6.89-2.19,13.9-5.06,20.96-5.36c6.43-0.27,13.38,1.6,19.37,4.21
			c4.37,1.9,3.27,8.21-1.31,10.52c-4.54,2.29-9.2,3.53-14.4,1.58c-2.62-0.98-5.62-0.93-8.06-0.73c-4.74,1.33-9.43,2.85-14.22,3.96
			c-7.21,1.67-14.53,2.86-21.7,4.66c-3.41,0.85-6.61,2.74-8.75-3.61c-2.61,7.31-8.34,7.21-13.23,9.12
			c-9.37,3.65-18.69,7.7-27.44,12.63c-11.38,6.41-22.9,12.86-31.66,23.01c-0.82,0.95-2.27,1.36-3.43,2.02
			C420.43,248.71,420.11,248.36,419.79,248z"/>
	</g>
</g>
</svg>
