<?xml version="1.0" encoding="utf-8"?>
<!-- Generator: Adobe Illustrator 26.2.1, SVG Export Plug-In . SVG Version: 6.00 Build 0)  -->
<svg version="1.1" id="Layer_1" xmlns="http://www.w3.org/2000/svg" xmlns:xlink="http://www.w3.org/1999/xlink" x="0px" y="0px"
	 viewBox="0 0 960 560" style="enable-background:new 0 0 960 560;" xml:space="preserve">
<g>
	<g>
		<path d="M606,332c-1.25,0.75-2.44,2-3.76,2.15c-5.42,0.63-10.93,1.52-16.31,1.07c-2.59-0.21-4.95-3.17-7.41-4.9
			c-8.56-5.99-17.14-11.95-25.66-18c-6.06-4.31-12.08-8.68-18.01-13.16c-3.26-2.46-6.44-2.3-9.72-0.33c-2.71,1.62-5.56,3.1-8,5.07
			c-9.29,7.55-19.75,9.09-31.33,7.37c-7.02-1.04-14.3-0.31-21.35-1.24c-8.13-1.07-15.31-4.75-20.54-11.27
			c-2.16-2.7-4.08-1.65-6.02-0.46c-14.59,8.93-29.1,17.98-43.69,26.89c-2.02,1.23-4.4,1.86-6.57,2.85
			c-1.34,0.61-2.72,1.23-3.87,2.11c-8.15,6.23-16.25,12.54-24.38,18.8c-0.22,0.17-0.64,0.06-0.97,0.08
			c12.72-15.12,26.91-28.48,44.28-38.27c4.39-2.48,8.18-6.03,12.27-9.05c6.15-4.53,12.32-9.04,17.47-12.81
			c-2.8-8.72-5.63-17.11-8.14-25.61c-0.61-2.07-1.81-4.85,2.21-5.89c0.82-0.21,1.16-3.79,1.05-5.78
			c-0.59-11.55,1.09-22.29,7.99-32.16c2.34-3.36,6.58-6,7.44-8.74c2.41-7.66,8.86-9.97,14.24-13.58c6.58-4.41,13.56-7.56,22.22-6.54
			c6.76,0.79,13.83-1.33,20.64-0.75c11.83,1,23.01,4.62,32.6,12.02c4.56,3.52,5.01,11.1,2.13,15.97c-1.67,2.81-1.91,6.52-2.54,9.88
			c-0.32,1.7-0.06,3.5-0.06,6.98c-5.58-3.21-9.8-6.74-14.63-8.11c-5.83-1.66-7.31-7.22-11.5-10.08c-7.17-4.89-15.4-5.71-23.47-4.09
			c-7.11,1.43-14.53,3.44-20.63,7.15c-4.85,2.95-8.75,8.39-11.53,13.55c-3.6,6.68-5.85,14.12-8.31,21.36
			c-0.65,1.92,0,4.29,0.13,6.45c0.05,0.8,0.71,1.73,0.46,2.35c-2.48,6.28,1.08,11.67,2.45,17.37c0.64,2.64,2.01,3.53,4.72,2.42
			c13.4-5.5,27.51-4.19,41.32-3.24c14.18,0.98,28.25,3.62,42.38,5.39c1.1,0.14,2.54-0.53,3.46-1.28c5.52-4.5,10.92-9.14,16.65-13.49
			c-2.49,7.02-9.1,10.56-13.66,15.63c15.41,7.48,30.92,14.87,46.28,22.54c5.63,2.81,10.96,6.25,16.33,9.57
			c0.77,0.47,1.16,1.8,1.41,2.81c0.72,2.98,1.27,6,1.89,9C606,330.67,606,331.33,606,332z M522.64,294.36
			c0.04-0.54,0.08-1.07,0.12-1.61c-5.61-1.02-11.18-2.48-16.83-2.96c-10.7-0.9-21.46-1.76-32.18-1.61
			c-6.73,0.1-13.44,2.07-20.64,3.28C464.1,309.57,505.94,307.16,522.64,294.36z"/>
		<path d="M473.51,368c-4.82,1.28-10.1-1.08-13.67-3.94c-8.6-6.9-14.77-15.94-17.37-26.99c-0.15-0.65-0.21-1.45-0.63-1.88
			c-5.43-5.6-4.52-13.45-7.13-20.04c-1.45-3.66,1.39-7.42,5.29-7.36c6.55,0.1,10.49,3.8,10.89,10.43c0.25,4.14-0.57,8.54,0.54,12.4
			c2.66,9.27,5.33,18.72,9.7,27.23C463.34,362.2,469.23,364.66,473.51,368z"/>
		<path d="M489.66,369.12c0.61-1.18,1.24-2.35,1.82-3.54c3.31-6.79,7.31-13.34,9.72-20.44c3.04-8.95,4.5-18.43,7.26-27.49
			c0.69-2.28,3.74-5.45,5.68-5.44c5.08,0.03,9.3,5.84,8.54,10.39c-1.56,9.39-5.41,17.89-10.76,25.65
			c-3.39,4.92-7.09,9.71-11.2,14.03c-2.87,3.01-6.66,5.14-10.05,7.66C490.35,369.66,490,369.39,489.66,369.12z"/>
		<path d="M510.42,368.05c3.24-4.72,6.65-9.34,9.66-14.2c1.44-2.33,2.2-5.1,3.15-7.72c2.11-5.86,4.18-11.74,6.18-17.64
			c0.35-1.04,0.17-2.25,0.4-3.35c0.42-2.05,0.37-5.3,1.56-5.88c2.78-1.35,6.18-1.63,9.36-1.82c0.65-0.04,1.91,2.19,2.07,3.48
			c1.42,11.01,0.17,21-9.49,28.6c-4.99,3.93-8.9,9.19-13.63,13.49c-2.57,2.33-5.83,3.91-8.78,5.82
			C510.75,368.57,510.59,368.31,510.42,368.05z"/>
		<path d="M437.78,363.56c-4.36-1.63-8.74-3.23-13.08-4.93c-0.9-0.35-1.94-0.9-2.44-1.67c-3.07-4.77-6-9.62-8.95-14.46
			c-0.25-0.41-0.13-1.23-0.44-1.39c-6.56-3.43-4.33-9.86-4.4-14.95c-0.04-2.71,3.02-5.98,5.51-7.96c1.05-0.83,4.72,0.44,6.36,1.78
			c5.58,4.57,8.6,9.66,6.36,17.89c-2.35,8.63,1.25,16.57,8.32,22.49c1.1,0.92,2.18,1.85,3.28,2.78
			C438.12,363.28,437.95,363.42,437.78,363.56z"/>
	</g>
</g>
</svg>
