<?xml version="1.0" encoding="utf-8"?>
<!-- Generator: Adobe Illustrator 26.2.1, SVG Export Plug-In . SVG Version: 6.00 Build 0)  -->
<svg version="1.1" id="Layer_1" xmlns="http://www.w3.org/2000/svg" xmlns:xlink="http://www.w3.org/1999/xlink" x="0px" y="0px"
	 viewBox="0 0 960 560" style="enable-background:new 0 0 960 560;" xml:space="preserve">
<g>
	<g>
		<path d="M356,242c0.55-1.01,1.31-1.96,1.61-3.04c2.32-8.25,9.74-10.28,16.31-13.01c4.2-1.74,5.3-0.09,5.6,4.76
			c0.22,3.56,1.33,7.13,2.46,10.56c1.33,4.02,1.61,7.66-0.91,11.41c-0.91,1.35-1.1,3.43-1.02,5.15c0.14,3.26,0.71,6.51,1.09,9.63
			c8.16,5.63,5.92,14.72,6.88,23.69c3.09-2.18,5.38-3.73,7.6-5.37c4.78-3.52,9.59-7,14.27-10.65c12.29-9.57,26.43-15.04,41.15-19.52
			c1.76-0.54,2.35-4.93,3.48-7.53c-0.44-0.38-0.87-0.76-1.31-1.14c-5.78,1.88-11.61,3.6-17.31,5.7c-3.59,1.32-6.71,2.33-8.05-2.97
			c-6.6,3.68-12.78,7.22-19.06,10.59c-10.41,5.59-13.3,3.97-14.45-7.76c-0.19-1.95-1.05-3.82-1.43-5.77
			c-0.62-3.17-1.16-6.36-1.63-9.56c-0.69-4.73-1.13-9.5-1.97-14.2c-0.58-3.27,0.44-5.33,3.25-7.04c2.67-1.63,5.02-3.8,7.55-5.66
			c4.79-3.53,7.39-2.67,9.78,2.74c0.67,1.52,2.21,2.85,3.65,3.8c5.54,3.64,6.63,7.66,3.56,13.41c-0.99,1.86-1.63,3.9-2.91,7.02
			c6.46-1.58,11.86-2.9,17.26-4.21c5.01-1.22,9.98-2.71,15.05-3.51c2.56-0.4,5.32,0.47,8.02,1.48c5.71-0.23,6.43-5.85,9.39-9.37
			c8.79-10.45,16.69-21.89,30.03-27.35c0.92-0.38,1.88-0.73,2.71-1.28c21.44-14.15,45.86-15.86,70.43-16.91
			c3.98-0.17,7.98,0.05,11.98,0.13c0.23,0,0.45,0.36,1.4,1.18c-3.84,0.93-7.18,2.46-10.5,2.42c-17.75-0.18-34.18,5.3-50.05,12.17
			c-10.61,4.59-20.69,10.68-30.27,17.19c-3.75,2.55-5.63,7.98-8.03,12.28c-1.17,2.1-1.59,4.62-2.36,6.98
			c0.2,0.14,0.43,0.39,0.7,0.46c5.53,1.43,8.61-0.59,12.29-5.39c8.09-10.52,17.74-19.67,30.5-24.99
			c17.71-7.4,44.62-15.34,57.41-15.5c-12.83,5.13-25.88,9.81-38.43,15.55c-9.87,4.51-20.77,7.65-28.1,16.52
			c-4.21,5.1-8.13,10.43-12.15,15.62c4.25,0.79,8.94,1.74,13.65,2.54c11,1.87,20.62,7.06,30.2,12.38c0.72,0.4,1.43,1.13,2.17,1.16
			c9.44,0.48,17.02,5.97,23.88,11.08c7.66,5.71,16.57,10.42,21.74,19.32c3.8,6.55,8.56,12.54,12.89,18.78c0,0.33,0,0.67,0,1
			c-2.26-2.04-4.61-3.99-6.77-6.13c-3.96-3.93-7.2-8.97-11.81-11.78c-11.48-6.99-23.7-12.75-35.37-19.44
			c-15.47-8.88-32.57-10.92-49.79-12.71c-0.66-0.07-1.33-0.01-2-0.06c-6.73-0.5-8.06,0.51-9.93,7c-0.75,2.61-0.05,3.9,2.7,3.81
			c17.02-0.58,32.61,5.99,48.76,9.76c2.68,0.63,5.12,2.32,7.64,3.57c15.04,7.44,30.08,14.89,45.1,22.39c0.92,0.46,1.63,1.35,2,2.82
			c-3.96-1.5-7.98-2.86-11.86-4.52c-6.56-2.82-12.91-6.17-19.59-8.67c-8.14-3.05-16.51-5.51-24.81-8.11
			c-3.96-1.24-8.02-2.18-12.01-3.33c-11.62-3.34-23.49-3.72-36.13-3.57c1.02,9.89,2.07,19.22,2.9,28.57
			c0.28,3.13,0.47,6.42-0.17,9.45c-1.67,7.84-0.4,14.82,3.87,21.68c1.89,3.03,2.63,6.68-1.55,9.93c-3.94,3.06-6.37,8.03-10.25,11.19
			c-4.29,3.5-9.47,5.91-14.28,8.76c-5.28,3.12-10.56,6.25-15.92,9.23c-1.87,1.04-3.94,2.24-5.97,2.36
			c-7.83,0.45-13.07,5.31-18.19,10.28c-2.88,2.79-5.69,3.99-9.82,3.14c-2.45-0.51-5.47,0.08-7.83,1.1
			c-5.25,2.27-9.01,0.94-11.01-4.41c-0.99-2.64-2.22-5.18-3.34-7.77c5.22-6.09,10.9-11.6,19.73-12.64c2.4-0.28,4.58-2.58,6.84-3.98
			c9.71-5.98,19.34-12.11,29.17-17.89c3.78-2.22,8.14-3.45,12-5.56c1.24-0.67,1.83-2.66,2.55-4.12c0.35-0.71,0.02-1.86,0.48-2.39
			c5.9-6.73,3.73-14.46,2.56-21.91c-0.99-6.31-1.38-11.96,5.05-14.05c0-4.5,0.17-8.2-0.06-11.87c-0.16-2.54-0.04-6.1-1.55-7.28
			c-1.49-1.16-4.99-0.27-7.37,0.48c-0.95,0.3-2.02,2.83-1.73,4.03c1.23,4.96-0.68,8.65-4.19,12.05c3.86,2.79,6.62,5.68,4.27,10.83
			c-1,2.19-0.86,4.89-1.26,7.35c-1.75,10.73-5.76,19.86-15.83,25.7c-9.61,5.58-18.39,12.74-28.33,17.55
			c-5.13,2.48-11.11,5.83-17.92,3.51c-1.91-0.65-4.62,1.36-7.03,1.76c-2.47,0.41-6.76,1.23-7.23,0.33
			c-1.46-2.86-2.63-6.78-1.79-9.67c0.94-3.21,3.9-6.08,6.54-8.48c4.29-3.9,8.86-7.57,13.68-10.79c1.82-1.22,4.65-0.92,7.02-1.37
			c1.03-0.19,2.13-0.32,3.04-0.79c5.88-3.08,11.77-6.16,17.54-9.44c1.33-0.76,2.66-2.12,3.23-3.51c2.78-6.75,7.08-13.23,3.86-21.19
			c-0.38-0.93,1.06-2.62,1.7-3.94c1.59-3.33,3.21-6.65,5.37-11.14c-3.05,0.23-5.03-0.23-6.06,0.56
			c-8.92,6.84-17.65,13.94-26.48,20.91c-7.92,6.25-15.7,12.7-26.01,14.86c-3.61,0.76-7.02,2.47-10.62,3.35
			c-5.13,1.26-8.07-1.84-9.36-6.14c-4.79-15.91-9.32-31.91-13.82-47.91c-0.43-1.51,0.44-3.38,0.06-4.92
			c-0.58-2.35-1.72-4.55-2.63-6.82C356,245.33,356,243.67,356,242z M480.73,246.67c-5.52-1.72-9.54-0.36-11.58,4.94
			c-0.36,0.95,0.1,3.02,0.84,3.45c4.45,2.6,8.48,0.78,9.82-4.17C480.17,249.49,480.42,248.06,480.73,246.67z"/>
	</g>
</g>
</svg>
