<?xml version="1.0" encoding="utf-8"?>
<!-- Generator: Adobe Illustrator 26.2.1, SVG Export Plug-In . SVG Version: 6.00 Build 0)  -->
<svg version="1.1" id="Layer_1" xmlns="http://www.w3.org/2000/svg" xmlns:xlink="http://www.w3.org/1999/xlink" x="0px" y="0px"
	 viewBox="0 0 960 560" style="enable-background:new 0 0 960 560;" xml:space="preserve">
<g>
	<g>
		<path d="M606,288c-1.06,4.18-2.79,7.3-8.08,6.28c-0.86-0.16-2.4,1.42-3.08,2.53c-1.2,1.96-1.86,4.23-2.96,6.26
			c-2.25,4.17-7.07,6.37-11.67,5.46c-0.32-0.06-0.62-0.36-0.92-0.36c-12.67-0.02-25.34-0.02-38.49-0.02
			c8.68,18.1,23.05,24.66,42.3,22.32c-13.95,4.84-28,5.79-41.35,0.93c-9.41-3.42-18.01-9.52-22.23-19.57
			c-1.31-3.13-3.23-4.05-6.5-4.05c-7.32-0.01-14.64-0.54-21.96-0.71c-2.41-0.06-4.83,0.35-8.51,0.64
			c11.59,11.25,21.66,22.37,38.21,23.45c-4.38,3.21-9.08,3.28-14.05,2.58c-15.12-2.13-27.69-10.77-41.58-16.04
			c-1.66-0.63-3.43-1.7-4.47-3.08c-4.78-6.35-11.63-5.45-18.26-5.78c-7.45-0.38-14.88-1.18-22.32-1.75c-1.3-0.1-2.63,0.01-3.92,0.17
			c-9.87,1.2-19.73,2.43-29.59,3.64c-0.81,0.1-1.64,0.01-2.58-0.48c9.02-5.25,19.5-5.29,30.12-7.98c-16.02,0-31.11,0-45.59,0
			c25.78-5.87,52.78-9.14,78.98-16.51c-29.91-1.43-59.67-2.01-89.37,1.96c-0.06-0.66-0.11-1.33-0.17-1.99
			c9.47-1.62,18.92-3.42,28.42-4.81c13.62-1.99,27.28-3.74,40.95-5.43c4.45-0.55,8.96-0.63,13.45-0.81
			c3.62-0.15,6.26-0.91,6.69-5.39c0.91-9.31,6.88-16.64,10.61-24.82c1.23-2.7,4.69-4.42,7.22-6.49c0.74-0.6,1.79-0.81,2.66-1.27
			c5.35-2.88,10.55-6.1,16.11-8.51c2.27-0.98,5.34-0.51,7.98-0.17c3.91,0.52,8.11,0.79,11.57,2.44
			c10.33,4.94,14.5,13.14,12.98,24.34c-0.2,1.5-1.31,2.95-2.22,4.26c-2.01,2.89-4.16,5.69-6.48,8.83c4.13,1.66,5.52,0.76,6.47-2.68
			c2.66-9.54,7.88-18.22,15.61-23.84c6.81-4.95,14.58-9.92,23.81-10.09c7.7-0.15,14.04,2.41,17.73,9.69
			c0.45,0.89,0.94,1.76,1.42,2.64c1.67,2.99,4.97,6.22,4.56,8.88c-0.41,2.69-4.52,4.79-6.97,7.19c-0.68,0.67-1.22,1.48-1.39,3.49
			c3.33-0.85,6.71-1.55,9.98-2.6c5.03-1.62,9.91-3.77,14.99-5.15c3.16-0.86,5.28,0.76,4.58,4.41c-0.48,2.52-2.61,6.16-1.66,7.24
			c2.26,2.57,5.9,3.91,8.99,5.74C606,278,606,283,606,288z M532.55,267.24c10.38-1.33,19.54-2.51,29.54-3.79
			C554.84,258.51,538.81,260.42,532.55,267.24z M477.37,271.38c7.06-0.67,14.13-1.34,21.96-2.08
			C494.27,265.33,483.53,266.08,477.37,271.38z"/>
	</g>
</g>
</svg>
