<?xml version="1.0" encoding="utf-8"?>
<!-- Generator: Adobe Illustrator 26.2.1, SVG Export Plug-In . SVG Version: 6.00 Build 0)  -->
<svg version="1.1" id="Layer_1" xmlns="http://www.w3.org/2000/svg" xmlns:xlink="http://www.w3.org/1999/xlink" x="0px" y="0px"
	 viewBox="0 0 960 560" style="enable-background:new 0 0 960 560;" xml:space="preserve">
<g>
	<g>
		<path d="M356,292c0.4-0.3,0.87-0.53,1.18-0.9c2.13-2.54,2.3-7.68,7.54-6.12c3.26,0.97,6.35,2.51,9.52,3.8
			c1.01,0.41,1.98,0.98,3.03,1.24c4.31,1.08,8.7,1.88,12.96,3.13c7.1,2.08,14.02,4.83,21.2,6.53c5.14,1.22,10.57,1.26,15.89,1.64
			c1.3,0.09,2.66-0.59,5.09-1.19c-16.83-5.62-32.4-10.92-48.04-15.98c-5.38-1.74-11.04-2.62-16.39-4.44c-2-0.68-5.32-1.22-4.13-5.3
			c1-3.41,1.44-6.7,6.25-5.66c13.92,3.01,27.16,7.62,40.17,13.69c9.85,4.6,19.03,12.1,31.52,10.92c-3.03-2.08-6.05-3.84-8.7-6.04
			c-3.73-3.09-7.18-6.52-10.75-9.79c-0.37-0.33-0.72-0.74-1.16-0.92c-8.87-3.65-17.59-7.75-26.68-10.72
			c-6.49-2.12-13.51-2.58-20.23-4.06c-2.02-0.45-3.83-1.85-5.8-2.85c6.05-9.55,8.48-9.78,18.63-4.38c3.09,1.64,7.14,1.54,10.77,2.08
			c10.41,1.54,19.13,6.95,27.87,12.23c1.92,1.16,3.63,3,4.89,4.89c4.64,6.92,11.2,11.57,18.65,14.49c3.3,1.29,8.07,0.85,11.46-0.53
			c10.88-4.43,21.29-10.02,32.15-14.52c15.26-6.33,31.02-11.66,47.79-9.68c6.19,0.73,11.99,4.76,17.95,7.33
			c1.65,0.71,3.42,1.35,4.83,2.42c5.51,4.2,10.91,8.53,16.32,12.86c3.36,2.69,6.57,5.56,9.98,8.18c4.11,3.16,8.32,6.24,14.08,2.8
			c0.02,0.57,0.03,1.15,0.05,1.72c-6.79,0.95-13.56,2.15-20.38,2.79c-11.24,1.06-22.52,1.74-33.78,2.62
			c-5.75,0.45-10.94-0.62-16.35-3.13c-8.77-4.07-17.67-7.57-27.72-8.84c-9.24-1.16-18.24-3.87-27.47-1.19
			c-8.26,2.39-16.29,5.55-24.49,8.14c-9.47,3-19.01,5.77-28.53,8.6c-1.73,0.51-3.56,0.68-5.29,1.19c-5.01,1.46-9.47,1.17-14.23-1.73
			c-4.03-2.46-8.98-3.43-13.55-4.96c-4.02-1.34-8.67-4.41-12-3.37c-5.92,1.85-9.84-1.52-14.57-2.74c-3.24-0.83-6.36-2.13-9.53-3.22
			C356,292.67,356,292.33,356,292z M581.8,296.89c0.27-0.53,0.55-1.06,0.82-1.59c-0.3-0.38-0.52-0.86-0.9-1.13
			c-6.16-4.44-12.28-8.93-18.52-13.24c-3.51-2.42-6.95-5.49-10.89-6.6c-8.61-2.42-17.48-4.08-26.34-5.38
			c-2.77-0.41-5.85,1.33-8.78,2.09c0.11,0.68,0.23,1.35,0.34,2.03c3.86,0.45,8.13-0.02,11.49,1.51c9.5,4.35,19.96,5.94,28.91,12.33
			C564.76,291.8,573.76,293.67,581.8,296.89z M496.14,281.07c0.07,0.61,0.14,1.22,0.22,1.82c2.57,0.61,5.13,1.67,7.71,1.74
			c10.51,0.28,20.11,4.1,29.54,7.94c14.71,5.99,23.49,7.7,34.37,4.53c-12.67-4.54-24.45-8.99-36.4-12.91
			c-4.19-1.38-8.81-1.5-13.24-2.1c-5-0.68-10-1.45-15.03-1.82C500.95,280.1,498.53,280.78,496.14,281.07z"/>
		<path d="M510.76,253.7c-6.92,4.38-13.79,8.85-20.79,13.11c-3.81,2.32-7.73,4.5-11.78,6.34c-2.37,1.08-5.11,1.32-7.66,2.06
			c-1,0.29-2.01,0.76-2.86,1.36c-6.77,4.76-14.03,5.38-21.52,2.22c-1.38-0.58-2.59-2.58-2.95-4.13c-0.19-0.79,1.55-2.79,2.63-2.98
			c2.61-0.45,5.38-0.4,8.04-0.11c3.1,0.33,6.53,2.34,9.15,1.51c9.14-2.9,18.11-6.45,26.93-10.24c6.93-2.98,13.54-6.68,20.3-10.07
			C510.43,253.08,510.6,253.39,510.76,253.7z"/>
	</g>
</g>
</svg>
