<?xml version="1.0" encoding="utf-8"?>
<!-- Generator: Adobe Illustrator 26.2.1, SVG Export Plug-In . SVG Version: 6.00 Build 0)  -->
<svg version="1.1" id="Layer_1" xmlns="http://www.w3.org/2000/svg" xmlns:xlink="http://www.w3.org/1999/xlink" x="0px" y="0px"
	 viewBox="0 0 960 560" style="enable-background:new 0 0 960 560;" xml:space="preserve">
<g>
	<g>
		<path d="M466,156c1.16,0.6,2.28,1.3,3.5,1.77c11.4,4.46,16.68,15.7,12.77,27.82c5.54,1.17,5.05,4.75,3.61,8.97
			c-0.91,2.65-1.69,5.52-1.63,8.27c0.08,4.23-0.15,7.89-5.11,8.95c0.09,0.86-0.04,1.56,0.22,1.78c5.63,4.76,4,10.58,2.48,16.39
			c-1.28,4.91-2.56,9.81-4.1,15.68c-1.24-1.57-2.23-2.52-2.87-3.67c-3.23-5.81-6.65-11.55-9.39-17.58c-0.92-2.03-0.4-4.95,0.11-7.32
			c0.45-2.09,2.97-3.94-0.96-5.46c-0.98-0.38-1.05-2.96-1.65-4.48c-1.61-4.06-3.48-8.04-4.83-12.18c-0.44-1.35,0.04-3.3,0.74-4.64
			c0.84-1.62,2.36-2.89,3.83-4.6c-8.33-1.67-11.67-8.21-15.42-13.61c-2.42-3.48,0.47-7.67,3.62-10.27c2.76-2.27,6.05-3.91,9.1-5.83
			C462,156,464,156,466,156z"/>
		<path d="M460,406c-11.51-5.5-14.29-20.98-4.98-29.43c-3.57-3.24-2-6.54-0.13-10.03c2.82-5.26,5.33-10.68,8.1-15.96
			c0.71-1.35,1.89-2.46,3.46-4.44c1.55,7.91,2.75,14.81,4.35,21.61c0.4,1.7,1.87,3.3,3.17,4.62c2.66,2.7,3.98,5.07-1.54,7.31
			c2.25,0.72,3.68,1.18,5.11,1.65c1.22,9.88-3.41,20.12-13.54,24.68C462.67,406,461.33,406,460,406z"/>
		<path d="M403.82,270.73c3.96,2.58,4.85,6.06,3.51,11.01c-0.85,3.12-0.01,6.93,0.83,10.23c1.14,4.49,2.74,8.76-1.75,11.86
			c5.92,14.2,11.64,27.92,17.36,41.63c-0.34,0.31-0.69,0.62-1.03,0.93c-2.42-2.46-5.04-4.76-7.22-7.41
			c-7.18-8.71-14.43-17.39-21.08-26.49c-1.34-1.84-0.19-5.49-0.19-8.85c-9.92-4.3-13.32-13.99-13.75-24.23
			c-0.22-5.19,3.71-10.21,0.94-16.28c-0.88-1.92,2.95-5.67,3.87-8.8c1.64-5.57,2.64-11.33,4.04-16.98c0.72-2.89,1.53-5.8,2.73-8.5
			c0.52-1.18,2-2.29,3.28-2.71c4.98-1.63,6-4.83,2.07-8.16c-2.46-2.08-2.61-3.75-0.93-6.32c2.27-3.47,4.22-7.16,6.3-10.75
			c0.17-0.29,0.25-0.81,0.45-0.86c6.97-1.67,7.28-6.9,7.01-12.63c-0.06-1.19,0.77-2.56,1.52-3.61c2.79-3.92,15.22-7.38,19.68-5.59
			c6.91,2.76,12.56,11.56,11.73,18.24c-0.59,4.72-6.17,8.04-11.45,6.96c-1.81,2.85-3.61,5.62-5.36,8.43
			c-0.61,0.98-1.85,2.45-1.55,2.99c2.85,5.09-2.25,7.16-3.79,10.53c-1.3,2.86-2.81,5.62-4.2,8.43c-0.29,0.59-0.41,1.29-0.75,1.85
			c-9.57,15.81-9.45,18.43-10.23,30.6C405.77,267.71,404.59,269.1,403.82,270.73z"/>
		<path d="M519.64,351.28c1.32-2.62,2.35-5.44,4.03-7.81c6.82-9.66,10.87-20.37,13.67-31.8c0.8-3.28,3.94-6.18,6.49-8.78
			c2.3-2.33,3.83-4.23,3.76-7.99c-0.09-4.87,1.05-9.87,2.33-14.64c2-7.42,4.33-14.69,2.98-22.54c-0.46-2.68,0.66-4.14,3.57-4.89
			c5.22-1.35,6.4-6.38,1.71-8.98c-7.54-4.17-6.02-11.3-6.77-17.47c-0.24-1.98,3.34-4.42,5.26-6.77c-0.18-0.33-0.33-1.04-0.63-1.11
			c-10.69-2.49-10.83-12.49-14.02-20.14c-0.68-1.63,0.34-4.87,1.7-6.3c4.78-5.03,10.9-7.39,17.9-6.36c5.93,0.88,7.56,2.9,7.97,8.96
			c4.49,0.98,5.63,3.58,4.9,8.35c-0.64,4.14,0.63,8.55,0.9,12.85c0.15,2.34-0.25,4.73,0.01,7.05c0.15,1.33,0.82,2.9,1.79,3.77
			c4.36,3.93,4.48,8.59,2.9,13.71c-2.53,8.21-4.81,16.51-7.64,24.62c-0.78,2.25-3.14,3.95-4.23,5.25c-0.22,3.05,0.15,5.89-0.71,8.29
			c-3.04,8.58-6.46,17.02-9.85,25.47c-0.46,1.13-1.48,2.67-2.46,2.86c-4.67,0.88-5.25,3.4-4.28,7.58c0.42,1.79-0.31,4.45-1.5,5.92
			c-8.21,10.04-16.65,19.89-25.1,29.72c-0.88,1.02-2.37,1.52-3.58,2.26C520.38,352.02,520.01,351.65,519.64,351.28z"/>
		<path d="M486.17,279.35c-1.12,9.04,5.14,17.62-4.16,24.43c0.38,0.37,0.75,0.74,1.13,1.12c2.23-0.21,4.46-0.43,7.66-0.73
			c0.17,6.41,3.3,12.77-0.46,19.36c-5.68,9.97-18.87,15.81-29.91,13.01c-1.44-0.37-2.94-1.51-3.86-2.72
			c-6.79-8.88-8.2-18.56-3.82-28.95c1.99-4.72,3.91-9.46,6.06-14.1c0.59-1.27,1.75-2.44,2.93-3.25c5.55-3.8,5.58-3.75,0.13-8.47
			c5.39-10.15,10.84-20.41,15.99-30.1c1.12,9.07,2.4,18.34,3.35,27.64C481.51,279.52,482.07,281.23,486.17,279.35z"/>
		<path d="M504.79,210.44c-5.02-10.11,3.61-14.9,5.35-21.78c0.27-1.06,3.75-1.52,5.81-1.86c3.11-0.52,4.81-2.17,3.54-5.1
			c-1.63-3.77-0.82-6.52,1.87-9.35c1.7-1.78,2.69-4.22,4.34-6.06c6.97-7.83,19.96-6.67,25.4,2.35c0.8,1.33,1.15,3.85,0.43,5.04
			c-3.85,6.32-7.28,13.11-15,15.92c-0.92,0.33-1.44,2.14-1.88,3.36c-0.56,1.55-0.44,3.48-1.33,4.74c-4.1,5.77-4.19,5.7-11.57,5.47
			c2.11,9.43-6.2,11.34-11.43,15.21c-2.6,1.92-5.06,3.11-5.73,6.76c-0.95,5.2-5.24,3.06-7.4,4c-4.48,5.29-8.96,10.58-13.44,15.87
			c-0.55-0.23-1.11-0.46-1.66-0.69c0.59-2.9,0.78-5.97,1.87-8.67c2.32-5.74,2.08-12.9,9.11-16.22c1.37-0.65,1.57-3.53,2.55-5.24
			C497.33,211.17,498.84,207.65,504.79,210.44z"/>
	</g>
</g>
</svg>
