<?xml version="1.0" encoding="utf-8"?>
<!-- Generator: Adobe Illustrator 26.2.1, SVG Export Plug-In . SVG Version: 6.00 Build 0)  -->
<svg version="1.1" id="Layer_1" xmlns="http://www.w3.org/2000/svg" xmlns:xlink="http://www.w3.org/1999/xlink" x="0px" y="0px"
	 viewBox="0 0 960 560" style="enable-background:new 0 0 960 560;" xml:space="preserve">
<g>
	<g>
		<path d="M458,406c-2.37-1.51-4.7-3.07-7.1-4.52c-2.23-1.35-4.28-2.6-2.98-5.86c0.26-0.65-0.67-2.51-1.33-2.67
			c-5.1-1.23-5.38-5.89-5.71-9.36c-0.51-5.44,0.55-11.02,0.83-16.54c0.07-1.41-0.32-2.85-0.55-4.64c2.55-0.58,5.16-1.18,8.88-2.03
			c-2.86-1.74-4.73-2.89-6.79-4.14c2.98-7.78,4.03-16.21,11.17-21.84c2.17-1.71,3.7-2.4,6.07-1c2.69,1.58,5.66,2.77,8.11,4.65
			c5.01,3.83,3.09,13.67-3.28,16.38c-2.94,1.24-2.42,2.84-2.87,5.45c-0.9,5.26-3.32,10.5-6.15,15.1c-1.55,2.52-1.55,3.34-0.41,6.13
			c2.79,6.83,4.18,14.23,10.49,18.95c1.95-0.42,4.13-1.61,5.82-1.12c8.59,2.48,14.68-2.06,20.79-6.77c1.25-0.96,2.34-2.12,3.89-2.81
			c-0.85,4.87-4.69,7.24-8.29,9.49c-4.33,2.71-9.05,4.8-13.6,7.16C469.33,406,463.67,406,458,406z"/>
		<path d="M500,156c8.32,4.69,14.2,11.82,18.32,20.14c2.12,4.28,2.99,9.39,3.48,14.21c0.52,5.09,0.21,10.32-0.34,15.43
			c-0.25,2.32-2.58,4.4-2.88,6.74c-0.68,5.25-4.7,9.72-5.12,14.12c-0.8,8.47-4.94,13.99-10.78,18.78
			c-3.41,2.8-10.67-0.11-13.12-4.61c-3.12-5.72,0.46-14.76,6.65-16.79c0.45-0.15,1.17-0.04,1.36-0.32
			c7.45-11.44,18.51-21.56,13.52-37.58c-0.52-1.67,0.6-3.86,1.01-6.06c-0.72-1.23-1.99-2.79-2.61-4.57
			c-2.22-6.31-4.35-12.59-10.45-16.47c-0.7-0.45-0.71-1.99-1.04-3.02C498.67,156,499.33,156,500,156z"/>
		<path d="M500.71,275.39c-0.49-0.18-1.73-0.87-3.05-1.07c-6.59-0.98-11.32-4.39-14.43-10.3c-1.54-2.93-3.48-5.65-5.23-8.48
			c-0.43-0.69-1.2-1.47-1.12-2.12c1.19-9.09-1.68-18.77,3.95-27.21c1.88-2.82,3.57-5.91,7.97-5.65
			c-6.26,10.02-3.77,20.47-2.34,31.09c4.34-2.14,5.77,1.06,8.02,4.54c2.71,4.17,6.78,7.47,10.3,11.1c3.73,3.84,8.42,7.11,11,11.59
			c2.55,4.42,3.37,10,4.19,15.18c0.37,2.34-1.1,4.98-1.47,6.41c0,4.27,0.73,7.84-0.15,10.95c-1.79,6.34-3.67,12.88-6.94,18.51
			c-3.51,6.04-8.64,10.66-17.05,9.12c-2.86-0.52-6.12,1.48-9.25,1.94c-5.89,0.86-10.58-2.24-15.23-5.18
			c-6.77-4.29-12.86-9.05-11.89-18.39c0.05-0.52-0.47-1.2-0.88-1.66c-4.63-5.21-5.52-11.53-4.04-17.84
			c1.91-8.13,4.47-16.16,7.4-23.98c1.64-4.38,6.88-5.76,11.37-3.99c10.6,4.18,13.08,9.7,8.06,18.71c-0.87,1.57-3.15,2.35-4.76,3.51
			c-0.99,0.72-2.32,1.32-2.78,2.31c-0.27,0.57,1.03,1.76,1.36,2.75c0.58,1.78,1.35,3.63,1.32,5.43c-0.04,2.12-0.84,4.22-1.31,6.33
			c-1.86,8.38,4.62,16.33,13.16,16.92c2.01,0.14,4.94,0.96,5.88-0.03c3.43-3.6,6.76-7.55,9-11.94c1.29-2.53,1.21-5.48,4.29-7.23
			c2.77-1.57,2.42-3.83,0.76-6.75c-3.24-5.72-5.9-11.81-8.28-17.94C498,280.68,499.62,278.5,500.71,275.39z"/>
	</g>
</g>
</svg>
