<?xml version="1.0" encoding="utf-8"?>
<!-- Generator: Adobe Illustrator 26.2.1, SVG Export Plug-In . SVG Version: 6.00 Build 0)  -->
<svg version="1.1" id="Layer_1" xmlns="http://www.w3.org/2000/svg" xmlns:xlink="http://www.w3.org/1999/xlink" x="0px" y="0px"
	 viewBox="0 0 960 560" style="enable-background:new 0 0 960 560;" xml:space="preserve">
<g>
	<g>
		<path d="M356,244c2.02-5.94,3.71-12.02,6.13-17.8c3.1-7.41,5.91-15.19,14.6-19.13c-5.21-3.73-3.38-7.57-1.5-11.38
			c4.61-9.33,11.17-16.83,20.12-22.32c7.17-4.39,14.04-3.29,20.74,0.59c5.49,3.19,6.86,7.31,5.18,13.5
			c-0.13,0.48-0.27,0.96-0.36,1.45c-1.48,7.33-1.48,7.33-8.94,9.27c2.43,4.92-1,7.57-3.88,10.86c-4.14,4.72-7.55,10.07-11.46,15
			c-1.04,1.31-2.75,2.1-4.39,3.29c1.5,6.08-5.4,24.24-11.01,27.85c0.69,3.01,2.03,6.07,1.88,9.05c-0.12,2.43-1.54,5.2-3.22,7.06
			c-2.55,2.83-5.73,22.12-2.75,24.22c4.77,3.36,2.79,6.77,1.33,10.31c-1.87,4.55-2.3,8.92-0.14,13.52c0.9,1.92,1.3,4.13,1.66,6.25
			c0.76,4.42,3.5,9.18-3.48,12.85c8.07,2.39,6.82,8.68,8.65,13.55c4.6,12.27,9.62,24.38,14.51,36.54c0.55,1.38,1.38,2.65,2.01,4
			c0.1,0.22-0.14,0.59-0.39,1.51c-1.16-1.31-2.11-2.33-3-3.41c-6.21-7.57-12.58-15.01-18.55-22.77
			c-5.72-7.44-11.01-15.22-16.97-23.52c3.25-1.41,5.11-2.22,7.75-3.37c-6.46-4.46-10.59-10.09-11.42-17.24
			c-0.73-6.27-3.95-13.3,3.56-18.88c-2.32-1.7-4.49-3.29-6.67-4.88c0-12.33,0-24.67,0-37c1.69-1.8,3.38-3.59,5.03-5.35
			c-1.65-2.85-3.34-5.75-5.03-8.65C356,247.33,356,245.67,356,244z"/>
		<path d="M606,239c-1.42,7.16-2.66,14.36-4.33,21.46c-0.65,2.75-1.95,5.49-3.56,7.81c-1.71,2.47-2.04,4.51,0.91,5.53
			c3.58,1.25,3.38,3.78,2.77,6.37c-1.76,7.44-3.64,14.85-5.67,22.22c-1.8,6.54-3.86,13.02-5.8,19.52c-0.62,2.07-0.86,4.38-1.96,6.15
			c-2.22,3.57-2.7,6.4,1.1,9.31c0.76,0.58,0.66,3.52-0.11,4.64c-9.43,13.88-18.9,27.73-28.72,41.32c-2.5,3.46-6.25,6.01-9.43,8.98
			c-0.65-0.49-1.3-0.98-1.95-1.47c2.61-4.85,5.04-9.81,7.88-14.53c3.07-5.1,6.71-9.86,9.7-15.01c1.37-2.37,2.14-5.24,2.54-7.98
			c0.67-4.64,0.05-9.13,3.2-13.66c2.08-3,0.67-8.28,1.33-12.46c0.9-5.74,2.35-11.4,3.43-17.12c0.33-1.76,0.54-3.66,0.24-5.4
			c-0.66-3.86-0.43-7.01,3.02-9.82c1.21-0.99,1.08-4.07,0.94-6.15c-0.16-2.33-1.27-4.59-1.53-6.92c-1.11-9.91-1.84-19.88-3.19-29.75
			c-0.47-3.46-0.02-6.02,2.16-8.7c3.48-4.26,2.48-7.6-2.76-8.71c-2.79-0.59-3.91-1.71-4.27-4.37c-0.6-4.43-1.29-8.87-2.27-13.23
			c-0.4-1.77-1.26-3.95-2.63-4.88c-3.11-2.1-2.96-3.91-0.72-6.42c1.38-1.55,2.47-3.35,3.07-6.03c-1.81,0.38-3.63,0.76-5.68,1.19
			c-2.27-3.01-4.75-6.08-6.95-9.34c-0.52-0.78-0.45-2.28-0.12-3.26c3.29-9.57,9.87-16.11,19.28-19.52
			c7.72-2.8,19.06,4.46,20.35,12.5c1.08,6.68,3.06,13.29,3.36,19.99c0.19,4.17-2.02,8.46-3.33,13.37c6.15,0.88,7.39,7.53,9.72,13.33
			C606,231.67,606,235.33,606,239z"/>
		<path d="M417.11,229.31c-1.71-1.26-2.88-2.12-4.58-3.37c0.97-1.56,1.7-3.44,3.01-4.75c5.34-5.34,10.84-10.52,16.31-15.72
			c0.33-0.31,0.94-0.53,1.38-0.47c6.24,0.77,9.09-3.82,13.16-7.29c5.38-4.59,11.5-8.95,19.49-8.44c1.66,0.11,3.36-1.19,5.11-1.5
			c1.97-0.35,4-0.28,6-0.45c1.19-0.1,2.95,0.13,3.44-0.54c2.2-2.96,5.08-2.85,8.1-2.3c8.82,1.6,17.62,3.26,26.42,4.91
			c0.16,0.03,0.33,0.2,0.46,0.17c9.68-2.63,15.11,4.57,21.32,9.5c11.17,8.86,20.63,19.01,21.93,34.25c0.16,1.83,0.02,3.69,0.02,5.54
			c-0.49,0.14-0.99,0.28-1.48,0.42c-1.01-1.72-2.4-3.32-2.97-5.17c-3.54-11.52-13.96-16.12-22.78-21.96
			c-2.35-1.56-6.74-0.88-9.58-3.26c-0.87-0.73-2.26-1.29-2.55-2.2c-1.29-4.07-4.54-3.5-7.32-3c-8.97,1.61-17.86,3.62-26.83,5.23
			c-0.97,0.17-2.23-1.28-3.37-1.96c-1.86-1.1-3.65-2.71-5.63-2.99c-0.79-0.11-2,2.75-3.5,4.98c-10-0.09-18.86,4.9-26.58,12.15
			c-1.18,1.1-1.36,3.24-2.08,4.86c-0.61,1.36-1.2,2.76-2.04,3.97c-3.46,4.96-7.02,9.84-10.53,14.77c-0.18,0.26-0.34,0.63-0.31,0.93
			c1.09,11.09-8.03,19.66-7.61,30.69c0.06,1.65-2.24,3.95-4.02,4.98c-3.47,2.01-2.9,4.03-1.48,7.01c1.2,2.52,2.29,5.53,2.05,8.2
			c-0.68,7.72-0.46,15.19,1.69,22.74c0.81,2.86-0.3,6.32-0.77,9.47c-0.41,2.76-1.17,5.45,3.13,5.49c0.71,0.01,1.68,0.27,2.09,0.77
			c3.67,4.47,7.45,8.87,10.76,13.6c1.72,2.46,2.56,5.53,4.07,8.93c3.92,1.95,8.79,4.66,13.9,6.82c4.4,1.87,8.98,3.62,13.65,4.47
			c3.27,0.59,5.75,0.52,6.87,4.59c0.91,3.29,3.64,1.8,4.88-0.1c3.26-4.99,7.43-3.7,11.87-2.38c1.98,0.59,4.19,1.03,6.18,0.73
			c2.54-0.38,4.8-1.42,6.22,1.92c0.22,0.52,3.15,0.66,3.28,0.34c1.93-4.66,6.59-4.79,10.29-6.11c12.02-4.31,24.07-8.45,33.77-17.49
			c0.39,0.5,0.78,0.99,1.17,1.49c-1.59,1.43-3.16,2.88-4.78,4.27c-10.14,8.7-20.9,16.43-33.12,22.06c-3.28,1.51-6.01,4.2-9.26,5.8
			c-2,0.99-4.56,1.49-6.77,1.27c-5.29-0.53-10.03,0.56-15.22,1.79c-6.57,1.55-14.22,0.63-20.23-4.34c-0.92-0.76-2.32-1.61-3.35-1.45
			c-9.55,1.48-18.41-0.78-26.83-4.95c-2.41-1.2-4.23-3.57-6.36-5.34c-0.92-0.76-1.88-1.8-2.96-2c-9.45-1.78-16.52-5.82-17.59-16.6
			c-0.15-1.47-2.16-2.8-3.4-4.11c-1.68-1.77-4.66-3.26-4.97-5.21c-1.22-7.62-1.85-15.35-2.21-23.07c-0.15-3.2,1.64-6.63-2.23-8.82
			c-0.13-0.08-0.22-0.25-0.31-0.38c-3.37-5.26-1.94-31.37,2.01-36.04c0.63-0.75,1.44-1.38,2.25-1.95c4.61-3.27,4.67-4.45,0.87-8.65
			c-0.74-0.82-1.25-2.48-0.96-3.48c1.89-6.52,3.63-13.13,6.21-19.38c1.87-4.52,4.43-9.06,10.37-9.67
			C415.13,231.42,415.84,230.35,417.11,229.31z"/>
	</g>
</g>
</svg>
