<?xml version="1.0" encoding="utf-8"?>
<!-- Generator: Adobe Illustrator 26.2.1, SVG Export Plug-In . SVG Version: 6.00 Build 0)  -->
<svg version="1.1" id="Layer_1" xmlns="http://www.w3.org/2000/svg" xmlns:xlink="http://www.w3.org/1999/xlink" x="0px" y="0px"
	 viewBox="0 0 960 560" style="enable-background:new 0 0 960 560;" xml:space="preserve">
<g>
	<g>
		<path d="M394,406c1.42-3.44,2.17-7.4,4.38-10.22c9.74-12.45,19.28-25.15,30.07-36.65c11.55-12.3,24.43-23.37,36.74-34.96
			c2.16-2.04,4.33-4.08,6.59-6c7.83-6.65,15.81-13.11,23.52-19.9c5.42-4.77,10.15-10.37,15.78-14.85
			c15.83-12.58,32.09-24.63,47.89-37.24c2.92-2.33,4.33-6.48,6.78-9.52c1.68-2.08,3.74-4.07,6.03-5.4
			c3.86-2.25,8.15-3.76,12.06-5.94c5.87-3.27,9.86-1.53,11.34,5.01c0.93,4.12,2.46,8.12,3.29,12.25c0.28,1.36-0.6,3.06-1.24,4.47
			c-2.58,5.69-4.83,11.61-8.04,16.94c-5.5,9.12-14.65,14.11-23.61,19.2c-2.58,1.47-5.23,3.05-7.3,5.12
			c-8.57,8.58-20.35,11.71-30.17,18.14c-1.03,0.67-2.64,0.4-3.79,0.96c-1.56,0.75-3.02,1.79-4.39,2.86
			c-3.19,2.49-5.93,6.02-9.52,7.46c-9.5,3.79-17.71,9.38-25.43,15.85c-1.82,1.53-3.01,3.34-5.95,1.82c-1-0.51-3.33,0.62-4.55,1.62
			c-16.2,13.28-32.37,26.61-48.43,40.06c-4.7,3.93-8.96,8.38-13.59,12.4c-2.49,2.17-5.6,3.67-7.96,5.95
			c-3.39,3.28-6.35,7.01-9.5,10.55C394.67,406,394.33,406,394,406z"/>
		<path d="M563,156c1.84,1.71,4.61,3.1,5.33,5.19c1.73,5.01,4.4,10.09,2.78,15.66c-0.46,1.57-1.7,3.51-3.09,4.1
			c-4.96,2.1-9.53,4.33-12.98,8.85c-2.03,2.66-5.4,4.27-8.07,6.47c-7.82,6.44-15.36,13.26-23.49,19.29
			c-3.86,2.86-8.7,4.57-13.31,6.18c-2.97,1.04-4.04,2.67-4.84,5.53c-0.65,2.32-2.2,4.69-3.99,6.35
			c-10.8,10.03-21.79,19.86-32.7,29.77c-3.07,2.79-5.96,5.79-9.16,8.4c-8.19,6.68-16.79,12.88-24.73,19.84
			c-17.01,14.91-33.73,30.15-50.49,45.34c-3.19,2.89-6.03,6.16-9.03,9.25c-0.16-0.15-0.32-0.3-0.48-0.45
			c14.78-18.19,29.49-36.43,44.41-54.49c2.18-2.63,5.77-4.07,8.03-6.66c3.86-4.44,7.07-9.42,10.73-14.04
			c4.41-5.57,9.13-10.9,13.47-16.53c1.92-2.48,3.22-5.44,4.87-8.14c0.86-1.4,1.7-2.88,2.83-4.05c13.74-14.25,27.52-28.46,41.3-42.67
			c4.38-4.52,8.84-8.95,13.09-13.58c0.72-0.79,1.22-2.79,0.74-3.5c-1.85-2.76-0.77-4.8,1.19-6.58c5.28-4.78,10.35-9.9,16.16-13.94
			c2.74-1.91,7.02-1.54,10.56-2.39c3.98-0.95,7.91-2.11,11.86-3.18C557,156,560,156,563,156z"/>
		<path d="M366.76,383.94c2.04-3.3,3.68-6.96,6.2-9.83c7.02-8.01,14.64-15.5,21.61-23.55c21.53-24.87,45.12-47.61,70.25-68.79
			c2.27-1.91,5.06-3.22,7.3-5.17c7.22-6.28,14.4-12.62,21.38-19.15c5.96-5.57,11.35-11.77,17.52-17.09
			c5.25-4.54,11.31-8.13,16.86-12.35c1.38-1.05,3.4-3.44,3.02-4.25c-1.64-3.58,0.9-4.73,2.81-6.48c5.53-5.05,12.68-9.24,16.08-15.47
			c4.73-8.67,12.22-12.03,20.12-15.47c2.81-1.22,6.35-1.98,9.29-1.45c4.02,0.72,6.43,3.6,6.08,8.35c-0.14,1.8,1.06,3.75,1.82,5.56
			c0.81,1.92,2.97,4.12,2.52,5.57c-1.37,4.35-3.04,8.95-5.87,12.41c-3.19,3.91-8.4,6.16-11.63,10.04
			c-9.23,11.08-23.37,15.2-33.71,24.71c-5.82,5.36-12.57,9.75-19.12,14.26c-2.39,1.64-5.42,2.33-8.13,3.53
			c-0.7,0.31-1.37,0.81-1.9,1.36c-1.94,2.03-3.55,4.49-5.77,6.14c-13.74,10.18-27.57,20.24-41.46,30.21
			c-6.1,4.38-12.35,8.58-18.71,12.56c-3.94,2.46-8.79,3.69-12.23,6.64c-7.24,6.19-13.81,13.16-20.68,19.79
			c-1.55,1.5-3.16,2.93-4.76,4.37c-9.31,8.4-18.62,16.8-27.94,25.2c-3.31,2.98-6.63,5.94-9.95,8.91
			C367.41,384.29,367.09,384.11,366.76,383.94z"/>
		<path d="M375.23,346.21c-3.41,4.68-6.83,9.35-10.24,14.02c-0.5-0.4-1-0.8-1.51-1.2c3.76-4.43,7.51-8.85,11.27-13.28
			C374.92,345.91,375.08,346.06,375.23,346.21z"/>
	</g>
</g>
</svg>
