<?xml version="1.0" encoding="utf-8"?>
<!-- Generator: Adobe Illustrator 26.2.1, SVG Export Plug-In . SVG Version: 6.00 Build 0)  -->
<svg version="1.1" id="Layer_1" xmlns="http://www.w3.org/2000/svg" xmlns:xlink="http://www.w3.org/1999/xlink" x="0px" y="0px"
	 viewBox="0 0 960 560" style="enable-background:new 0 0 960 560;" xml:space="preserve">
<g>
	<g>
		<path d="M456,406c-1.12-0.65-2.2-1.82-3.35-1.88c-8.34-0.45-13.22-6.59-17.05-12.29c-8.92-13.27-9.06-27.98-2.02-42.11
			c2.68-5.38,7.75-9.66,12.13-14.04c0.87-0.88,4.01-0.59,5.27,0.32c1.27,0.92,2.55,4.16,1.98,4.84c-1.43,1.72-3.9,2.57-6.25,2.98
			c-0.99,1.84-1.52,4.39-3.06,5.4c-5.4,3.56-5.83,9.29-7.36,14.62c-0.46,1.59-1.34,3.05-2.14,4.8c0.49,2.64,1.08,5.8,1.67,8.95
			c0.09,0.47,0.06,1.24,0.31,1.34c5.05,2.06,3.19,8.05,6.36,11.12c2.77,2.69,5.26,5.95,8.53,7.78c7.64,4.27,15.86,4.67,24.51,2.33
			c-2.42,0.96-4.84,1.92-7.26,2.9c-2.42,0.97-4.84,1.95-7.26,2.93C459.33,406,457.67,406,456,406z"/>
		<path d="M542.28,187.37c0.69,5.38,2.1,10.79,1.88,16.14c-0.29,7-1.32,14.09-3.08,20.86c-1.31,5.03,0.18,8.62,3.69,11.24
			c4.33,3.24,5.85,7.58,7.75,12.32c2.34,5.86,3.13,11.62,2.77,17.71c-0.35,5.96-0.84,11.91-1.29,18.14
			c-1.28,0.29-2.48,0.55-3.54,0.79c-0.13,0.38-0.27,0.6-0.21,0.67c5.41,7.34-2.42,13.3-2.39,20.36c0.03,6.11-4,13.1-10.23,16.05
			c-2.42,1.15-7.47-1.21-10.19-3.39c-2.25-1.8,0.59-5.48,4.62-5.67c-0.39-1.28-0.75-2.48-1.16-3.82c1.58-0.97,3.1-1.91,5.1-3.15
			c-3.64-2.44-2.95-5.01-1.28-8.31c1.68-3.32,2.12-7.26,3.25-10.88c0.3-0.97,1.38-1.7,1.67-2.67c0.48-1.59,0.81-3.29,0.85-4.95
			c0.05-1.97-0.57-3.98-0.38-5.91c0.39-3.79,1.03-7.57,1.79-11.3c0.46-2.24,1.4-4.39,2.05-6.6c0.27-0.91,0.82-2.11,0.48-2.79
			c-1.99-3.96-4.15-7.85-6.41-11.67c-0.41-0.69-1.87-1.55-2.2-1.33c-0.78,0.51-1.17,1.61-1.69,2.48c-0.07,0.12,0.07,0.38-0.01,0.49
			c-5.79,8.27,0.16,15.97,1.15,23.9c0.04,0.33,0.22,0.66,0.18,0.98c-1.04,8.62-1.64,17.33-3.4,25.81c-0.61,2.95-4.11,5.31-6.51,8.21
			c4.92,1.63,3.08,4.97,1.32,7.93c-1.76,2.96-4,5.64-6.73,9.42c5.86,4.31,11.78,8.65,17.57,12.91c3.92-1.91,7.25-3.56,10.61-5.16
			c6.39-3.04,8.51-9.38,11.29-15.05c3.27-6.67,3.32-13.88,2.2-21.13c-1.09-7.13-2.1-14.27-3.05-20.81
			c4.18,1.92,5.65,7.07,9.58,28.21c2.15,11.6-6.12,19.89-7.59,30.84c9.65-3.65,18.17-8.49,23.8-17.6
			c-1.46,11.12-9.72,17.7-17.51,23.74c-3.96,3.08-10.55,3.65-17.08,2.24c-6.95,8.47-16.19,14.73-28.13,17.17
			c-2.54,0.52-5.14,1.69-7.6,1.44c-5.38-0.55-10.68-1.83-16.48-2.9c1.21-3.35,2.08-5.76,2.57-7.1c6.99,0,13.37,0.26,19.72-0.09
			c4.12-0.23,8.48-0.87,10.04-6.72c-2.02-0.84-4.41-1.36-6.19-2.69c-3.67-2.74-6.9-6.05-10.55-8.82c-1.19-0.91-3.13-0.79-4.68-1.29
			c-2.27-0.73-4.66-2.51-6.7-2.15c-2.19,0.39-4.3,4.23-6,3.94c-7.29-1.23-15.68-0.41-19.93-8.49c-4.05,2.82-7.71,5.37-11.38,7.92
			c9.87,12.04,18.53,16.5,35.41,9.18c-4.08,5.87-16.51,9.29-21.86,7.38c-7.91-2.83-14.75-6.77-19.71-13.37
			c-15.67,7.13-35.8,8.01-45.88-11.57c12.1,9.99,24.72,10.19,38.17,6.18c2.46-6.88-7.32-8.09-6.91-14.89
			c1.15-0.55,2.84-1.35,4.57-2.18c3.3,4.23,6.41,8.21,9.8,12.57c3.12-2.37,6.02-4.56,10.3-7.81c-7.22,0.41-8.98-4.1-10.25-7.86
			c-2.38-7.04-4.37-14.34-5.36-21.68c-1.59-11.87,3.06-21.88,14.68-25.1c9.5-2.63,20.44-7.53,29.79,1.19
			c5.6,5.23,10.43,11.07,7.14,19.87c-0.8,2.13,0.29,4.9-0.13,7.26c-1.85,10.53-11.24,15.38-21.58,12.55
			c-4.65-1.27-7.96-3.23-8.61-7.49c-0.66-4.35-0.42-9.13,0.7-13.39c1.2-4.58,5.69-5.18,9.81-4.63c3.47,0.46,5.48,4.92,5.05,9.54
			c-1.93-1.73-4.13-5.23-6.25-5.19c-2.29,0.05-4.5,3.42-6.59,5.2c2.96,9.86,7.11,11.14,13.24,9.65c4.08-0.99,6.47-3.5,6.76-8.18
			c0.3-4.71,2.26-9.17-1.29-13.77c-3.58-4.64-9.95-7.66-15.75-6.63c-5.64,1-10.56,3.37-14.07,7.78c-2.28,2.86-4.12,6.32-5.19,9.8
			c-0.58,1.9,0.85,4.42,1.66,7.89c-0.02-0.01,1.19,0.79,2.72,1.8c-0.89,1.33-1.66,2.48-1.9,2.85c3.16,3.82,6.09,7.37,9.59,11.6
			c1.19-2.07,2.34-4.06,3.54-6.14c3.18,3.04,5.18,4.95,7.35,7.02c-0.9,1.27-1.72,2.44-2.53,3.58c5.09,4.26,13.39,4.36,20.56,0.32
			c-1.27-1.49-2.52-2.96-3.88-4.55c5.61-6.05,10.62-4.4,14.42-0.27c2.05-3.85,4.08-7.68,6.72-12.65c-1.47-3.85-0.26-9.54,3.48-12.64
			c-2.13-6.13-4.21-12.11-6.37-18.33c-2.01,0.86-3.5,1.5-4.98,2.13c-5.37-6.48-6.69-11.95-3.42-14.48
			c-4.82-4.26-13.5-0.63-16.6-7.79c-3.1,0.93-6.27,1.88-9.05,2.72c0-7.59-0.11-14.44,0.05-21.28c0.07-2.89,5.71-4.11,9.44-2.2
			c0.78,0.4,2.01,1.25,2.36,0.99c4.4-3.25,7.84,0.42,10.89,2.09c6.8,3.74,13.06,8.46,19.63,12.85c1.34-0.87,3.07-1.7,4.39-2.97
			c0.96-0.92,1.36-2.42,2.02-3.67c-1.2-0.44-2.36-1.06-3.6-1.28c-3.49-0.62-7.01-1.07-11.21-1.69c4.08-3.27,8.22-3.71,12.73-3.52
			c1.48,0.06,3.82-1.1,4.41-2.35c2.28-4.78,5.16-9.7,5.65-14.78c0.6-6.28-0.73-12.8-1.68-19.16c-0.35-2.37-8.7-5.39-11.16-4.76
			c-2.39,0.61-4.86,0.89-7.3,1.27c-8.28,1.31-13.49,7.66-19.59,12.35c-3.31,2.54-5.03,4.19-7.07-0.78
			c-0.74-1.79-2.28-3.25-3.44-4.84c4.69-6.58,8.24-8.39,12.62-6.31c2.78-6.97,8.76-7.59,15.17-7.79c1.52-0.05,2.89-2.08,4.51-2.46
			c4.71-1.13,9.56-2.14,13.79,3.88c-0.81-8.47-4.54-13.7-9.17-18.55c5.23,2.02,7.82,6.61,10.15,11.19c1.53,3,3.28,4.95,6.69,5.88
			c7.5,2.06,10.93,8.65,14.01,14.79c2.6,5.19,4.37,11.1,5.03,16.86c0.86,7.5-0.74,14.84-7.28,21.75c1.9-5.16,3.72-8.93,4.67-12.91
			c2.07-8.63-2.37-15.68-6.67-22.42c-2.02-3.17-5.5-5.42-8.31-8.08C543.21,186.71,542.74,187.04,542.28,187.37z"/>
		<path d="M460.9,227.48c-5.59-3.63-1.58-8.05-0.6-11.71c2.81-10.57,9.74-18.19,20.1-23.26c-1.17,2.92-2.49,5.79-3.47,8.77
			c-1.13,3.4-1.98,6.9-2.93,10.36c-0.09,0.31,0.1,0.75-0.05,0.98c-4,6.06-0.15,12.47-0.89,18.66c-0.19,1.55-0.71,3.07-1.07,4.59
			c1.08,1.29,3.42,2.87,3.27,4.16c-0.41,3.69-0.82,9.3-3.09,10.43c-4.05,2.02-9.46,1.42-14.32,1.56c-0.45,0.01-1.36-2.53-1.39-3.91
			C456.28,240.98,455.97,233.76,460.9,227.48z"/>
		<path d="M445.85,277.1c3.95,6.31,3.19,9.98-3.07,14.16c1.01,5.38,0.79,5.71-4.45,6.2c-4.8,0.45-9.6,1.16-14.4,1.17
			c-9.51,0.01-23.83-12.63-25.85-21.65c-0.45-2.02-1.08-4.01-1.62-6.01c5.09,3.76,9.97,7.37,15.21,11.24
			c3.64-1.68,9.35-0.27,12.56,3.83C431.4,283.07,438.61,280.09,445.85,277.1z"/>
		<path d="M449.68,220.45c-2.77-3.14-5.33-6.03-6.88-7.8c-4.78-2.53-8.56-4.53-12.34-6.53c-0.04-0.76-0.07-1.52-0.11-2.28
			c-6.32,3.01-13.97,4.71-18.58,9.4c-4.8,4.87-6.66,12.63-8.71,16.87c0,9,0,15.56,0,22.72c-9.75-17.74-2.43-44.48,15.12-52.86
			c4.34-2.07,10.15-5.53,16.29-2.58c1.11,0.53,3.43-1.47,4.75-2.1c4.6,4.1,8.86,7.97,13.22,11.74
			C455.66,209.84,454.69,215.94,449.68,220.45z"/>
		<path d="M495.5,347.29c2.83,6.62,2.21,12.82-2.14,17.64c-2.61,2.89-6.81,5.14-10.65,5.9c-4.38,0.88-9.93,1.21-13.56-0.79
			c-5.05-2.77-8.77-7.96-13.12-12.05c-1.23-1.16-3.01-1.88-3.91-3.23c-1.11-1.67-2.7-4.46-2.04-5.55c1.1-1.84,3.7-3.6,5.85-3.85
			c8.52-0.97,10.94,0.48,13.59,10.8c3.28,1.59,8.44-1.05,9.96,4.58C484.15,355.53,493.82,356.44,495.5,347.29z"/>
		<path d="M442.28,249.59c2.89,1.08,7.08,1.35,8.41,3.44c1.91,3,2.35,7.34,2.27,11.08c-0.08,3.97-4.39,5.17-6.96,4.48
			c-2.55-0.69-5.3-3.64-6.29-6.24c-0.91-2.39-1.91-3.32-3.83-4.95c-5.35-4.52-10.46-9.89-9.64-18.03c0.07-0.73,0.14-1.75-0.27-2.18
			c-8.2-8.58-5.63-17.3-0.2-26.19c-2.44,10.75,3.97,19.12,7.52,28.32C437.48,239.26,441.23,243.39,442.28,249.59z"/>
		<path d="M411.69,313.58c-1.91-0.78-4.05-1.65-6.18-2.53c0.99-0.99,1.97-1.99,2.96-2.98c-4.87,1.17-8.96,1.23-13.99-1.7
			c-9.75-5.68-16.3-12.84-18.13-23.99c5.6,3.68,10.89,7.95,16.86,10.82c4.63,2.22,10.18,2.45,15.18,4.03
			c2.94,0.93,7.4,2.27,7.96,4.31C417.37,305.22,417.69,310.16,411.69,313.58z"/>
	</g>
</g>
</svg>
