<?xml version="1.0" encoding="utf-8"?>
<!-- Generator: Adobe Illustrator 26.2.1, SVG Export Plug-In . SVG Version: 6.00 Build 0)  -->
<svg version="1.1" id="Layer_1" xmlns="http://www.w3.org/2000/svg" xmlns:xlink="http://www.w3.org/1999/xlink" x="0px" y="0px"
	 viewBox="0 0 960 560" style="enable-background:new 0 0 960 560;" xml:space="preserve">
<g>
	<g>
		<path d="M511,156c5.41,7.7,8.55,15.79,4.04,25.28c1.01,0.17,1.85,0.32,2.72,0.47c-2.24,6.8-12.39,15.52-18.7,15.65
			c-1.52,0.03-3.09-1.82-4.88-2.97c-1.33,3.25-2.45,5.99-7.68,4.66c-1.88-0.48-6.17,4.86-7.88,8.28c-1.64,3.3-0.6,7.33,3.47,9.26
			c3.68,1.75,7.55,3.21,6.1,8.1c2.25-0.15,4.38-0.7,6.35-0.36c7.62,1.33,10.48,7.88,5.51,13.89c-5.1,6.15-11.73,10.33-20.33,9.89
			c-4.75-0.24-8.92-2.01-9.75-6.9c-0.74-4.36,0.78-8.58,5.51-10.62c0.42-0.18,0.73-0.63,2.04-1.8c-1.81-0.83-3.26-1.27-4.44-2.1
			c-2.04-1.42-5.09-2.77-5.62-4.72c-1.3-4.83-5.38-10.13,0.74-14.95c0.83-0.65-0.24-3.7-0.55-6.91
			c5.14-8.99,14.69-14.51,25.14-18.79c0.98-0.4,2.65,0.54,3.86,1.14c1.07,0.52,1.95,1.43,1.89,1.39c2.96-3.66,5.12-7.11,8.01-9.74
			c5.84-5.32,5.63-11.47,3.44-18.14C510.33,156,510.67,156,511,156z"/>
		<path d="M419.54,256.06c3.82-1.51,6.64-2.62,9.31-3.67c-0.31-5.39-1.32-10.75-0.74-15.94c0.64-5.72,14.48-11.69,19.66-9.06
			c0.71,0.36,1.81,1.15,1.75,1.64c-0.54,4.93,3.77,9.69-0.07,14.89c-1.73,2.35-2.16,5.89-2.49,8.97c-0.32,2.93,3.06,4.87,5.42,3.19
			c7.41-5.28,15.18-2.78,23.18-1.85c0,2.02,0,3.61,0,5.4c3.82,1.68,4.9-0.32,4.64-4.76c9.19,0,18.14-0.55,26.98,0.22
			c4.91,0.43,6.47-0.52,5.77-5.24c-0.11-0.77,0.14-1.6,0.25-2.61c1.44,0.31,2.67,0.58,4.07,0.89c0.15-0.67,0.45-1.21,0.3-1.52
			c-0.75-1.48-1.6-2.91-2.44-4.34c-1.92-3.25-2.32-6.18,1.35-8.64c1.03-0.69,1.73-1.92,2.48-2.98c3.68-5.21,11.55-7.23,16.85-3.88
			c1.29,0.81,2.21,3.22,2.21,4.89c-0.03,7.49-0.48,14.97-0.7,22.46c-0.04,1.18,0.32,2.38,0.49,3.57c0.66-0.02,1.31-0.04,1.97-0.06
			c0-3.49,0.74-7.19-0.17-10.43c-1.51-5.37,0.64-6.85,5.33-8.36c3.95-1.28,7.47-1.8,10.91,0.23c2.04,1.2,4.35,3.04,5.11,5.12
			c1.98,5.38,3.52,10.98,4.55,16.62c0.54,2.96,1.13,4.68,4.36,5.51c5.75,1.48,11.34,3.56,17.02,6.47c-1.94,0.21-3.87,0.57-5.81,0.6
			c-2.66,0.04-5.32-0.19-7.99-0.25c-6.8-0.15-7.87,0.79-6.47,7.44c1.18,5.62-0.74,9.38-5.64,11.86c4.71,5.71,7.63,11.33,5.5,18.78
			c-1.34,4.67-1.31,9.71-2.38,14.48c-0.37,1.66-1.92,3.37-3.38,4.4c-2.8,1.97-3.79,4.43-2.16,7.24c3.81,6.57,3.7,9.66-0.01,15.01
			c-0.4,3.18,0.22,7.04-1.37,9.42c-10.17,15.17-20.29,30.45-33.78,43.01c-0.5-0.24-1-0.49-1.5-0.73c2.23-5.06,3.9-10.48,6.82-15.11
			c5.07-8.06,8.12-16.67,9.72-25.97c0.3-1.75,1.58-3.62,2.94-4.84c2.33-2.09,3.03-3.71,1.32-6.81c-1.23-2.23-1.2-5.32-1.18-8.03
			c0.02-2.96,0.52-5.95,1.13-8.86c0.27-1.29,1.23-2.46,2.01-3.6c0.83-1.22,2.72-2.57,2.5-3.45c-0.34-1.36-2.08-2.38-4.44-3.09
			c0-5.08,0-10.16,0-15.24c0-0.16,0.12-0.4,0.05-0.48c-6.06-6.87,1.21-15.36-2.71-22.5c-0.7-1.28-0.8-2.97-1.71-4.03
			c-0.98-1.14-2.58-1.76-3.91-2.61c-0.75,1.37-1.99,2.68-2.15,4.11c-0.53,4.79-0.38,9.66-1.08,14.41c-0.34,2.32-1.99,4.45-3.07,6.65
			c-0.4,0.82-1.32,1.66-1.24,2.41c0.96,8.3,1.1,16.4-2.76,24.22c-1.04,2.1-0.77,4.9-0.91,7.38c-0.19,3.47,0.36,7.18-4.16,8.6
			c-0.55,0.17-1.03,1.26-1.15,1.99c-2.16,12.55-4.26,25.1-6.38,37.66c-0.46,2.74-0.95,5.48-2.37,8.24c-0.5-3.33-1.41-6.65-1.41-9.98
			c-0.03-12.94,0.46-25.87,0.28-38.81c-0.07-5.19,0.17-9.87,2.85-14.61c1.09-1.91-0.15-5.43-0.93-8.04
			c-1.05-3.55-1.54-6.62,1.18-9.81c0.88-1.04,0.37-3.33,0.36-5.05c-0.01-1.28-0.36-2.55-0.37-3.83c-0.04-8.15-0.02-16.31-0.02-25.02
			c-2.18-0.28-5.09-0.47-7.91-1.05c-3.61-0.74-7.12-2.01-10.75-2.63c-2.41-0.41-4.95-0.07-7.43-0.06
			c-7.44,0.02-14.89,0.27-22.31-0.1c-2.17-0.11-4.24-2.03-5.8-2.82c-4,0.19-7.9,0.79-11.7,0.42c-3.6-0.36-4.6,1.89-5.02,4.24
			c-1.67,9.48-3.02,19.02-4.47,28.54c-0.22,1.44-0.18,2.93-0.56,4.32c-1.64,6.02-3.96,11.92-4.9,18.04
			c-0.74,4.83-1.06,9.29-6.8,11.43c3.92,3.46,2.91,6.6,1.15,10.16c-6.64,13.43-7.61,28.16-9.4,42.68c-0.15,1.19-0.47,2.36-1.93,3.48
			c-0.49-8.82-1.53-17.65-1.33-26.46c0.23-10.13,0.86-20.35,2.61-30.31c1.73-9.84,0.06-19.45-0.12-29.14
			c-0.07-3.67,0.1-6.42,3.29-8.64c2.33-1.63,3.6-3.49,0.25-5.8c-0.92-0.63-1.33-2.9-1.04-4.21c1.24-5.76,2.82-11.45,4.28-17.16
			c-9.26-2.27-10.42-1.86-14.25,5.67c-2.54,5-4.74,10.16-7.15,15.23c-0.49,1.04-1.05,2.22-1.93,2.88c-3.53,2.64-4.82,5.45-1.96,9.5
			c0.69,0.97,0.64,3.21-0.02,4.26c-3.93,6.16-3.45,13.02-3.86,19.83c-0.17,2.82-1.65,5.57-2.54,8.35c-0.46-0.1-0.92-0.19-1.38-0.29
			c0.19,0.44,0.28,1.16,0.59,1.28c6.41,2.54,5.87,7.81,5.42,13.21c-1.07,12.82,0.64,25.23,5.61,37.18c1.13,2.71,1.49,5.74,1.59,8.79
			c-11.48-9.89-18.58-22.13-21.83-36.58c-0.27-1.2-0.03-2.73,0.5-3.86c1.72-3.68,0.85-6.51-1.8-9.48
			c-5.31-5.95-6.47-22.72-2.47-29.91c2.03-3.64,4.65-7.31-0.5-10.8c-0.68-0.46-0.6-2.5-0.38-3.72c1.11-6.05,2.34-12.08,3.64-18.1
			c0.24-1.1,0.69-2.52,1.52-3.07c3.17-2.1,5.85-4.05,1.9-7.84c-0.23-0.22,0.1-1.34,0.45-1.83c3.1-4.3,5.83-8.99,9.54-12.69
			c3.39-3.39,4.6-6.31,2.17-9.64c1.61-2.86,2.69-5.52,4.4-7.68c4.61-5.81,9.95-10.88,17.39-12.77c1.52-0.39,4.16,0.13,4.98,1.21
			c2.01,2.66,6.73,5.5,3.21,9.22C420.54,246.93,421.63,251.23,419.54,256.06z"/>
		<path d="M421.33,386.6c1.58-2.43,3.23-4.82,4.74-7.31c5.16-8.53,10.09-17.21,15.51-25.58c2-3.09,2.94-7.96,8.68-7.2
			c0.93,0.12,3.43-2.83,3.17-3.82c-1.31-4.92,2.48-7.57,4.28-11.03c1.68-3.24,3.79-6.26,5.86-9.29c1.84-2.69,2.95-6.17,7.86-4.33
			c2.78,1.04,4.19-1.61,4.43-4.56c0.98-12.3,8.54-19.66,19.13-24.27c5.84-2.54,12.57,3.04,10.96,9.26
			c-1.22,4.72-2.92,11.24-6.42,13.04c-7.54,3.87-10.33,12.15-17.54,15.95c-2.13,1.13-3.29,4.08-4.92,6.18
			c-12.63,16.25-28.03,29.69-43.51,43.06c-3.93,3.4-7.82,6.83-11.73,10.25C421.66,386.84,421.49,386.72,421.33,386.6z"/>
		<path d="M492.19,356.69c2.01-0.48,3.64-0.86,6.45-1.53c-0.9,2.35-1.48,3.86-2.18,5.68c5.09,3.55,1.54,7.15-0.73,10.35
			c-3.51,4.96-10.79,7.77-14.3,6.08c-2.45-1.18-6.23-8.36-5.76-10.97c-4.75-0.72-6.11-2.48-4.67-7.06
			c2.89-9.2,10.08-12.8,19.46-11.46C495.23,348.46,495.61,350.8,492.19,356.69z"/>
		<path d="M467.28,302.83c4.01,2.71,1.98,4.92-0.25,7.01c-4.92,4.61-10.67,5.9-15.35,3.39c-1.11-0.6-2.93-2.22-2.81-2.43
			c2.35-4.08-2.66-7.09-2.15-9.18c1.1-4.44,3.87-9.29,7.44-12.08c4.03-3.16,10.13-2.34,14.67-0.44c2.35,0.98,3.47,5.45,4.54,8.55
			c0.23,0.65-2.12,2.26-3.35,3.34C469.31,301.61,468.45,302.06,467.28,302.83z"/>
	</g>
</g>
</svg>
