<?xml version="1.0" encoding="utf-8"?>
<!-- Generator: Adobe Illustrator 26.2.1, SVG Export Plug-In . SVG Version: 6.00 Build 0)  -->
<svg version="1.1" id="Layer_1" xmlns="http://www.w3.org/2000/svg" xmlns:xlink="http://www.w3.org/1999/xlink" x="0px" y="0px"
	 viewBox="0 0 960 560" style="enable-background:new 0 0 960 560;" xml:space="preserve">
<g>
	<g>
		<path d="M495,156c1.33,10.89,2.83,21.77,3.93,32.68c0.46,4.55,0.08,9.19,0.08,15.21c4.72,4.21,0.96,11.52,2.05,17.99
			c0.15,0.91-0.5,2.03-0.19,2.82c2.59,6.61-1.29,15.13-7.95,17.21c-4.65,1.45-11.66-3.94-11.79-10.13
			c-0.11-5.36-1.03-11.4,4.16-15.63c0.63-0.51,0.59-2.03,0.6-3.08c0.04-5.32-1.92-11.75,0.39-15.71c3.97-6.83,0.83-13.81,3.09-20.46
			c2.28-6.71,3.15-13.91,4.64-20.89C494.33,156,494.67,156,495,156z"/>
		<path d="M356,281c7.07-1.71,14.12-3.46,21.21-5.1c1.09-0.25,2.65-0.48,3.4,0.08c4.55,3.38,7.05,0.68,9.91-2.62
			c3.02-3.47,6.52-1.11,9.57,0.32c3.18,1.49,3.34,4.26,2.05,7.23c-0.86,1.98-1.57,4.05-2.66,5.9c-3.02,5.11-6.2,5.27-10.03,0.29
			c-2.08,4.76-4.72,4.77-8.53,1.66c-1.67-1.37-4.73-1.76-7.03-1.49c-6.82,0.8-12.83-0.43-17.89-5.26C356,281.67,356,281.33,356,281z
			"/>
		<path d="M606,276c-7.22,1.76-14.39,3.89-21.7,5.13c-3.13,0.53-6.41-0.29-9.82,0.39c-3.12,0.62-5.99-1.66-6.47-5.5
			c-0.54-4.3,2.78-9.91,6.88-11.03c3.15-0.87,6.56-2.03,8.15,2.76c0.31,0.92,2.58,1.28,4,1.7c6.31,1.89,12.64,3.71,18.96,5.55
			C606,275.33,606,275.67,606,276z"/>
		<path d="M553.27,266.74c-4.16-5.53-8.32-11.06-12.6-16.76c0.21-1.48,0.5-3.51,0.7-4.83c-3.37,0-6.38,0.91-8.16-0.19
			c-3.7-2.28-3.95-6.07-2.28-10.14c3.6-8.81,9.24-12.69,16.88-11.08c1.56,0.33,3.51,0.96,4.35,2.12c3.78,5.24,7.48,10.58,10.6,16.22
			c0.89,1.61-0.29,4.36,0.66,6.24c0.91,2.75,2.86,5.63,2.52,8.21c-1.1,8.34-2.82,16.63-4.73,24.84c-1.39,5.96-3.2,11.86-5.35,17.59
			c-1.28,3.41-3.58,6.43-5.82,10.31c2.67,4.19-0.44,8.81-3.61,11.88c-7.75,7.52-16.38,14.13-24.65,21.1c-0.4-0.36-0.8-0.71-1.2-1.07
			c1.74-2.23,3.37-4.57,5.24-6.68c5.63-6.34,8.75-13.34,10.41-21.98c1.12-5.84,1.96-13.68,8.84-17.49c0.6-0.33,0.82-1.63,0.95-2.51
			c0.89-6.28,1.39-12.64,2.71-18.83C549.21,271.31,551.51,269.31,553.27,266.74z"/>
		<path d="M436.09,341.64c-6.86-7.83-13.82-15.58-20.51-23.55c-1.89-2.25-3.39-5.02-4.34-7.8c-0.67-1.97-0.13-4.35,0.56-6.66
			c-5.79-8.02-7.94-22.4-3.43-29.52c-6.58-8.81-3.36-17.72,0.8-26.19c1.08-2.2,5.8-2.46,7.28-4.67c1.37-2.05-0.43-7.04,1.03-8.07
			c7.58-5.33,15.66-9.99,23.84-14.38c1.35-0.72,5.33,0.51,5.87,1.78c1.68,3.95,2.98,8.34,3.08,12.59c0.08,3.48-4.47,4.58-8.28,3.13
			c-1.44,2.35-2.46,4.68-4.06,6.49c-3.62,4.09-7.54,7.93-11.33,11.87c-0.34,0.36-0.63,1.05-0.99,1.08
			c-6.85,0.65-4.25,4.32-3.36,8.42c0.69,3.17-0.8,6.83-1.42,10.26c-0.95,5.27,1.95,10.99-1.91,15.95c-0.3,0.38-0.04,1.3,0.13,1.93
			c2.37,8.76,4.6,17.56,7.24,26.24c1,3.28,2.88,6.3,4.47,9.39c1.95,3.8,4,7.54,6.01,11.31
			C436.55,341.38,436.32,341.51,436.09,341.64z"/>
		<path d="M491.04,291.18c-1.7,2.13-2.89,3.73-4.2,5.23c-1.92,2.21-4.24,2.36-5.91,0.05c-1.72-2.38-3.52-2.41-5.99-1.68
			c-3.96,1.17-7.08-0.45-8.59-4.06c-1.4-3.33-2.75-7.01-2.67-10.5c0.05-2.22,2.57-4.53,4.33-6.49c0.91-1.02,2.57-1.38,5.23-2.71
			c-2.77-0.74-3.94-1.05-5.18-1.38c-0.03-0.56-0.19-1.07-0.07-1.5c2.2-7.44,7.63-10.56,14.96-10.9c7.46-0.35,14.54,0.96,19.03,7.51
			c0.87,1.26-1.21,4.55-2.07,7.38c3.03,3.12,3.08,9.24-0.38,15.95C497.6,291.82,494.99,293.32,491.04,291.18z"/>
		<path d="M474.43,405.45c-2.2-10.38-4.35-19.94-6.18-29.56c-0.65-3.39-1.35-7.17-0.47-10.33c0.72-2.6,3.76-4.55,5.84-6.85
			c-5.72-8.29-6.29-14.51-1.31-20.85c-5.67-3.64-3.38-9.3-3.2-14.41c0.13-3.68,7.9-8.49,12.48-8.19c5.41,0.36,8.69,3.47,8.64,8.88
			c-0.03,3.63-0.73,7.26-1.23,10.88c-0.1,0.76-0.54,2.01-1,2.1c-5.42,1.05-3.43,4.84-3.17,8.08c0.44,5.5,2.39,11.11-2.62,16
			c-1.22,1.19-0.23,4.48-0.59,6.76c-1.86,11.84-3.82,23.66-5.77,35.47C475.77,403.84,475.32,404.19,474.43,405.45z"/>
		<path d="M509.3,356.22c-5.15-2.6-10.97-15.22-8.87-20.11c-5-3.55-6.9-10.56-4.38-16.21c2.44-5.49,7.58-6.35,11.52-1.9
			c1.54,1.74,3.08,3.49,4.49,5.33c1.9,2.5,1.58,19.3,1.79,19.43c10.92,6.68,10.17,19,13.96,28.92c2.13,5.56,2.21,11.91,2.75,18.1
			C521.53,380.15,513.1,370.23,509.3,356.22z"/>
		<path d="M415.97,382.62c0.35-1.01,0.6-2.07,1.08-3.02c4.48-8.89,8.9-17.82,13.6-26.6c0.93-1.73,2.79-3.2,4.56-4.2
			c3.51-2,5.54-4.39,3.4-8.44c-1.69-3.19-0.9-5.66,0.84-8.75c2.71-4.79,4.41-10.16,6.59-15.25c1.99-4.65,6.04-4.8,10.13-4.23
			c3.96,0.55,5.74,3.01,6.32,7.12c0.72,5.12,1.6,10.32-2.94,13.8c-7.02,5.38-11.1,12.99-16.45,19.66
			c-5.92,7.37-12.6,14.14-18.87,21.24c-2.61,2.95-5.03,6.07-7.54,9.12C416.45,382.9,416.21,382.76,415.97,382.62z"/>
		<path d="M450.06,176.36c2.64,5.66,5.25,11.34,7.94,16.98c1.85,3.87,2.85,9.35,5.95,11.14c5.27,3.03,5.1,7.08,5.53,11.65
			c0.07,0.71,1.54,1.81,2.39,1.84c3.99,0.14,4.32,2.65,3.59,5.51c-0.65,2.54-1.46,5.2-2.89,7.34c-2.67,4-6.15,7.3-11.58,5.98
			c-5.29-1.29-5-6.39-6.36-10.25c-0.93-2.61-1.94-5.35-2.02-8.06c-0.08-2.7,0.95-5.44,1.64-8.93c-7.24-9.37-3.09-21.65-5.49-32.87
			C449.19,176.59,449.63,176.48,450.06,176.36z"/>
		<path d="M552.34,179.18c-1.25,2.85-1.86,4.5-2.66,6.04c-5.43,10.4-10.91,20.79-16.37,31.18c-0.46,0.87-1.4,1.86-1.24,2.62
			c1.07,5.13-1.75,7.57-5.86,9.53c-0.81,0.39-1.04,2.21-1.33,3.42c-0.88,3.61-2.78,5.86-6.78,6.13c-3.94,0.27-4.93-2.15-5.97-5.26
			c-2.69-8.05-1.1-13.71,5.76-19.01c3.12-2.42,6.23-4.85,9.27-7.37c0.74-0.61,1.73-1.57,1.7-2.33c-0.2-5.08,3.8-6.93,6.86-9.63
			C541,189.82,546.1,184.95,552.34,179.18z"/>
	</g>
</g>
</svg>
