<?xml version="1.0" encoding="utf-8"?>
<!-- Generator: Adobe Illustrator 26.2.1, SVG Export Plug-In . SVG Version: 6.00 Build 0)  -->
<svg version="1.1" id="Layer_1" xmlns="http://www.w3.org/2000/svg" xmlns:xlink="http://www.w3.org/1999/xlink" x="0px" y="0px"
	 viewBox="0 0 960 560" style="enable-background:new 0 0 960 560;" xml:space="preserve">
<g>
	<g>
		<path d="M606,198c-21.3,1.22-40.45,9.88-60.71,17.48c1.71,3.29,3.17,6.38,4.89,9.32c3.94,6.71,3.92,7.38-1.23,13.44
			c-0.61,0.72-1,1.62-1.74,2.87c1.8,0.34,3.48,0.21,4.56,0.95c1.57,1.08,3.7,2.68,3.88,4.25c1.08,9.21,0.87,18.31-4.5,26.51
			c-1.27,1.93-2.37,4.07-3.08,6.26c-1.89,5.81-6.4,7.6-11.81,8.35c-1.72,0.24-3.83,0.41-5,1.46c-12.45,11.1-26.81,11.04-41.82,7.47
			c-8.1-1.93-15.48-5.28-20.94-11.8c-1.07-1.28-1.09-3.44-1.59-5.19c1.65,0.21,3.31,0.34,4.94,0.65c6.32,1.2,12.57,3.07,18.94,3.56
			c9.53,0.74,13-7.7,18.14-13.43c0.52-0.57,0.77-1.39,1.5-2.78c1.89,1.54,3.45,2.82,5.34,4.36c4.72-2.99,5.14-7.77,4.78-12.6
			c-0.22-3-0.53-5.56,2.79-7.14c0.66-0.32,1.21-2.01,0.99-2.85c-1.11-4.24-2.45-8.42-3.79-12.6c-0.39-1.2-1.05-2.32-1.79-3.9
			c-6.27,3.81-12.14,7.38-18.01,10.96c-0.28,0.17-0.74,0.42-0.74,0.64c0.05,8.93-5.61,4.22-9.82,3.73c0.68,4.22-0.68,5.46-5.1,6.51
			c-5.82,1.39-11.26,5.15-16.36,8.62c-6.87,4.68-13.58,3.21-17.07-4.46c-3.98-8.73-1.81-15.98,4.4-23.16
			c5.72-6.6,11.65-9.13,20-6.65c0.74,0.22,3.42-2.49,3.28-3.59c-0.38-3.04,1.32-3.5,3.37-4.54c6.19-3.16,12.21-6.62,18.3-9.97
			c0.09-0.51,0.18-1.03,0.28-1.54c-5.08-1.39-10.1-3.45-15.26-3.97c-4.85-0.49-9.29-0.43-10.87-6.87c-0.86,7.77-6.94,6.47-11.2,7.47
			c-7.87,1.85-15.88,3.15-23.87,4.49c-1.51,0.25-3.55,0.14-4.69-0.69c-3.1-2.25-5.79-1.24-7.19,1.34c-2.42,4.47-6.84,4.29-10.58,5.9
			c-3.19,1.37-6.91,2.91-8.86,5.52c-6.16,8.23-11.53,17.04-17.38,25.51c-0.76,1.1-2.5,2.07-3.82,2.1c-2.74,0.08-3.41,0.89-3.82,3.75
			c-0.71,4.96-1.81,10.11-4.01,14.54c-3.88,7.79-8.59,15.1-5.81,24.42c0.29,0.96,0.01,2.71-0.66,3.23
			c-3.9,2.98-1.87,6.51-1.92,10.27c-0.18,14.29,8.86,25.19,12.83,37.91c3.86,12.38,14.42,18.9,24.67,25.07
			c10.72,6.44,22.33,11.05,34.8,13.2c1.47,0.25,2.71,1.83,4.06,2.79c-1.51,0.54-3.11,1.72-4.51,1.52
			c-14.94-2.05-28.47-7.93-41.07-15.98c-7.12-4.55-14.54-8.87-20.79-14.45c-5.86-5.24-11.6-11.37-15.13-18.27
			c-4.01-7.83-5.48-16.95-8.09-25.51c-0.66-2.17-1.42-4.31-2.13-6.47c0-6,0-12,0-18c0.4-1.59,0.32-4.13,1.28-4.62
			c6.01-3.07,4.74-8.29,4.65-13.33c-0.03-1.6,0.53-3.31,1.21-4.79c6.35-13.72,12.8-27.39,19.19-41.09c1.39-2.98,3.18-5.13,6.49-3.63
			c2.91-4.99,4.68-10.74,8.53-14.1c8.24-7.18,17.41-13.33,26.49-19.48c4.21-2.85,8.87-5.48,13.72-6.86c7-1.99,14.41-2.48,21.52-4.15
			c4.84-1.13,8.74-1.39,10.59,4.27c0.06,0.19,0.57,0.23,0.97,0.37c3.61-3.94,8.34-4.27,13.28-3.94
			c17.15,1.18,31.99,7.13,43.18,20.75c2.84,3.45,6.68,4.09,10.88,3.24c13.83-2.8,27.67-5.57,41.5-8.41
			c9.01-1.85,17.81-0.81,26.52,1.76C606,195.33,606,196.67,606,198z"/>
	</g>
</g>
</svg>
