<?xml version="1.0" encoding="utf-8"?>
<!-- Generator: Adobe Illustrator 26.2.1, SVG Export Plug-In . SVG Version: 6.00 Build 0)  -->
<svg version="1.1" id="Layer_1" xmlns="http://www.w3.org/2000/svg" xmlns:xlink="http://www.w3.org/1999/xlink" x="0px" y="0px"
	 viewBox="0 0 960 560" style="enable-background:new 0 0 960 560;" xml:space="preserve">
<g>
	<g>
		<path d="M356,270c0.74-0.35,1.45-0.87,2.24-1.04c14.55-3.17,28.98-7.5,43.71-9.1c13.69-1.48,25.42-7.45,37.78-12.11
			c8.41-3.18,13.73-2.52,17.79,2.94c0.1,0.13,0.29,0.26,0.3,0.39c0.22,5.76,1.66,11.86,0.18,17.14c-0.89,3.2-6.3,5.13-9.39,7.42
			c-1.2-0.68-2.39-1.86-3.69-2.01c-4.1-0.49-8.27-0.38-12.35-0.95c-2.19-0.31-4.24-1.56-6.87-2.59c-4.67,2.02-10.08,4.77-16.61,3.56
			c-2.18-0.4-4.57,0.46-6.85,0.37c-2.01-0.08-4-0.91-6.01-0.97c-3.92-0.13-7.86,0.18-11.78,0.07c-8.58-0.24-17.17-0.6-25.75-1
			c-0.91-0.04-1.8-0.73-2.7-1.12C356,270.67,356,270.33,356,270z"/>
		<path d="M463.79,225.72c-2.46-6.62-5.48-8.69-11.86-8.33c-1.14,0.06-2.4,0.16-3.43-0.21c-3.82-1.39-6.3,0.28-8.6,3.13
			c-2.76,3.42-5.39,7.07-8.71,9.88c-4.22,3.57-14.07,1.87-17.3-2.59c-0.76-1.05-1.35-2.99-0.9-4.03c2.24-5.11,3.99-10.8,7.53-14.88
			c5.22-6.02,10.85-12.08,19.05-14.56c6.58-1.99,12.97-3.35,18.81,1.79c0.12,0.11,0.27,0.3,0.4,0.29
			c10.68-0.62,10.86,10.52,16.87,15.11c0.5,0.38,0.79,1.05,1.19,1.57c0.09,0.12,0.28,0.16,0.76,0.42
			c7.48-8.55,7.84-17.77,2.14-27.69c0.66-0.13,1.32-0.26,1.98-0.39c1.54,4.66,4.39,9.33,4.33,13.97c-0.09,7.45-0.45,15.13-4.5,22.11
			c-1.78,3.07-2.62,7.16-2.53,10.75c0.17,6.91,1.31,13.79,2.05,20.71c0.5-0.96,1.34-2.13,1.75-3.45
			c4.12-13.21,11.38-24.64,20.08-35.2c2.48-3.02,3.48-5.65,1.33-9.34c-2.34-4.01-4.03-8.4-6.18-12.53
			c-3.99-7.68-1.6-17.16,5.95-21.11c2.33-1.22,5.99-1.83,8.21-0.84c3.04,1.36,5.13,4.4,4.85,8.54c-0.34,5.11-0.08,10.25-0.08,16.53
			c5.02-3.68,8.7-6.37,12.37-9.05c0.47,0.46,0.94,0.92,1.4,1.38c-2.41,2.93-4.72,5.96-7.25,8.79c-6.22,6.96-5.8,15.21,1.1,21.61
			c5.57,5.16,11.35,9.55,19.52,9.78c3.07,0.09,6.1,1.72,9.06,2.91c-10.2,0.24-36.33-6.2-43.56-15.03c-2.41,1.93-5.42,3.44-7.07,5.87
			c-2.99,4.4-5.61,9.18-7.59,14.12c-3.46,8.61-6.57,17.4-9.33,26.26c-1,3.2-1.13,6.91-0.7,10.27c1.59,12.43,3.3,24.85,5.52,37.18
			c1.29,7.14,5.35,8.52,12.65,5.17c0-3.75-0.13-7.53,0.04-11.3c0.13-2.83,1.56-4.65,4.73-4.63c2.88,0.02,4.91,0.67,6.14,3.84
			c1.47,3.78,3.32,7.65,5.91,10.73c6.89,8.19,4.6,18.08-2.48,23.4c-4.44,3.34-10.61,4.67-17.71,3.32
			c-12.96-2.47-18.04-11.89-21.67-21.75c-2.62-7.12-1.54-15.66-1.82-23.57c-0.23-6.58-0.05-13.17-0.05-20.34
			c-0.77,1.87-1.62,3.48-2.1,5.2c-3.6,12.8-6.89,25.69-10.77,38.4c-1.55,5.08-4.41,9.75-6.56,14.65c-4.38,9.98-8.69,20-13.36,30.78
			c1.35-5.61,2.44-10.58,3.75-15.49c2.94-11.01,4.75-22.54,9.28-32.87c7.1-16.19,8.24-33.78,13.76-50.29
			c1.84-5.51,0.5-12.07,0.72-18.15c0.08-2.31,0.46-4.6,0.83-8.07c-2.23,0.91-4.11,1.25-5.45,2.29c-5.06,3.92-10.61,1.78-15.82,1.13
			c-3.42-0.43-6.6-13.31-3.81-15.49c1.51-1.18,5.54-1.2,7.02,0C457.72,229.65,460.61,228.31,463.79,225.72z"/>
		<path d="M521.74,272.29c-2.94,1.39-5.12,3.28-7.32,3.3c-6.46,0.05-12.98-0.29-19.36-1.25c-1.89-0.29-4.41-2.93-4.85-4.89
			c-0.88-3.91-0.56-8.09-0.65-12.17c-0.13-6.14,5.11-7.91,9.13-9.85c3.85-1.86,8.12-1.72,11.44,2.66c1.59,2.1,4.8,4.07,7.35,4.18
			c10.71,0.46,20.91,2.95,31.03,6.14c1.4,0.44,3,0.72,4.44,0.53c17.19-2.34,33.99,2.87,51.31,3.09c-0.87,0.33-1.71,0.84-2.6,0.95
			c-9.36,1.14-18.74,2.15-28.09,3.33c-11.83,1.49-23.64,3.1-35.45,4.67c-0.66,0.09-1.32,0.17-1.96,0.33
			C528.05,275.37,528.05,275.38,521.74,272.29z"/>
		<path d="M469.13,317.29c1.01,3.12,2.17,6.19,2.99,9.36c1.66,6.44,3.26,12.9,4.6,19.41c0.44,2.15-0.02,4.48,0,6.73
			c0.01,1.06-0.24,2.41,0.3,3.14c6.91,9.31,8.52,19.77,7.02,30.95c-0.08,0.63-0.25,1.7-0.58,1.79c-4.42,1.13-8.89,2.96-13.32,2.89
			c-3.42-0.05-6.86-2.33-7.33-6.9c-0.14-1.35-1.23-2.66-2.05-3.88c-3.77-5.58-5.3-12-2.41-17.88c6.44-13.09,6.53-27.29,8.75-41.15
			c0.23-1.41,0.41-2.84,0.61-4.25C468.19,317.44,468.66,317.36,469.13,317.29z"/>
	</g>
</g>
</svg>
