<?xml version="1.0" encoding="utf-8"?>
<!-- Generator: Adobe Illustrator 26.2.1, SVG Export Plug-In . SVG Version: 6.00 Build 0)  -->
<svg version="1.1" id="Layer_1" xmlns="http://www.w3.org/2000/svg" xmlns:xlink="http://www.w3.org/1999/xlink" x="0px" y="0px"
	 viewBox="0 0 960 560" style="enable-background:new 0 0 960 560;" xml:space="preserve">
<g>
	<g>
		<path d="M356,260c0.78-1.61,2.4-3.35,2.19-4.81c-0.99-6.86,0.23-10.93,6.48-14.09c6.51-3.3,7.31-4.96,15.64,0.26
			c-0.95,1.93-2.12,3.88-2.85,5.97c-0.35,1,0.11,2.29,0.2,3.45c0.98-0.35,2.19-0.46,2.9-1.11c1.58-1.46,2.73-3.42,4.38-4.77
			c2.53-2.07,5.25-3.94,8.06-5.61c1.75-1.03,4.42-0.94,3.41-4.24c-0.12-0.4,1.13-1.49,1.93-1.85c4.69-2.13,9.36-4.35,14.18-6.15
			c12.84-4.79,25.51-3.06,37.79,1.97c2.67,1.09,4.5,4.2,6.76,6.34c0.57,0.54,1.24,1.03,1.95,1.35
			c11.01,4.95,15.34,15.06,19.27,25.34c0.45,1.16-0.74,3.44-1.81,4.59c-1.91,2.05-4.32,3.61-6.5,5.41
			c-6.8,5.6-12.22,3.69-15.73-4.44c-1.34-3.1-5.3-5.05-8.02-7.57c-1.86-1.74-4.1-3.3-5.36-5.42c-3.82-6.41-7.89-8.43-15.23-7.04
			c-1.62,0.31-3.46,0.72-4.95,0.27c-6.86-2.08-12,1.97-17.61,5.04c3.37,0,6.76-0.18,10.12,0.04c7.44,0.49,10.58,5.99,8.05,12.91
			c-0.9,2.46-0.87,5.5-0.45,8.14c0.55,3.48,0.36,5.95-3.46,7.32c-2.69,0.97-5.05,2.41-4.41,6.2c0.68,4,3.52,3.2,6.08,3.35
			c1.16,0.07,2.5-0.05,3.43,0.49c6.97,4.03,13.97,2.48,21.27,0.93c9.4-1.99,18.97-3.27,28.52-4.46c5.15-0.64,5.71-4.97,7.66-8.21
			c0.8-1.33,0.95-3.05,2.43-4.31c-0.99,3.59-1.98,7.19-3.31,11.98c8.9-1.9,17.23-3.6,25.51-5.48c8.72-1.98,17.59-3.57,26.06-6.36
			c15.75-5.19,32.34-5.18,48.37-8.57c8.27-1.75,16.89-1.82,25.56-1.97c-0.65,0.39-1.26,0.99-1.96,1.15
			c-9.37,2.23-18.66,5.26-28.17,6.42c-20.24,2.46-40.05,6.56-59.47,12.63c-12.03,3.76-23.98,7.76-35.96,11.67
			c-7.24,2.36-9.98,9.39-14.75,14.31c-2.41,2.49-4.39,5.4-6.5,8.17c-8.37,11-20.76,15.16-33.3,17.19c-8.03,1.3-16.7-1.31-25.07-2.26
			c-1.12-0.13-2.3-0.62-3.23-1.26c-7.19-4.96-14.8-9.47-21.38-15.16c-9.18-7.93-10.97-18.47-8.6-30.15
			c0.83-4.07,0.3-8.43,0.23-12.65c-0.01-0.61-0.84-1.33-1.45-1.78c-2.93-2.1-5.92-4.11-8.88-6.16C356,264.67,356,262.33,356,260z
			 M465.2,303.37c-0.12-0.55-0.24-1.09-0.36-1.64c-8.47,1.23-16.94,2.52-25.42,3.65c-7.72,1.03-15.45,1.95-23.2,2.73
			c-1.55,0.16-3.24-0.36-4.76-0.86c-2.83-0.92-5.59-2.92-8.38-2.92c-4.78-0.01-7.67-2.21-9.21-6.14c-1.31-3.36-2.06-7.01-2.49-10.6
			c-0.21-1.73,0.36-4.19,1.53-5.32c2.11-2.02,5.11-3.08,7.42-4.93c1.25-1.01,1.84-2.83,2.72-4.29c-1.59-0.62-3.18-1.76-4.78-1.76
			c-3.64,0-7.29,0.51-10.93,0.9c-6.36,0.67-8.07,2.23-8.37,8.72c-0.31,6.81-0.14,13.64-0.16,20.45c0,0.65-0.1,1.51,0.25,1.93
			c3.18,3.73,6.02,7.92,9.79,10.93c4.71,3.76,9.82,7.92,15.44,9.48C429.02,330.56,447.91,318.98,465.2,303.37z"/>
	</g>
</g>
</svg>
