<?xml version="1.0" encoding="utf-8"?>
<!-- Generator: Adobe Illustrator 26.2.1, SVG Export Plug-In . SVG Version: 6.00 Build 0)  -->
<svg version="1.1" id="Layer_1" xmlns="http://www.w3.org/2000/svg" xmlns:xlink="http://www.w3.org/1999/xlink" x="0px" y="0px"
	 viewBox="0 0 960 560" style="enable-background:new 0 0 960 560;" xml:space="preserve">
<g>
	<g>
		<path d="M356,297c2.78-1.76,5.48-3.69,8.37-5.27c11.08-6.02,22.18-12,33.38-17.79c1.52-0.78,3.66-0.38,5.52-0.49
			c0.63-0.04,1.6,0.34,1.85,0.04c4.02-4.75,10.04-4.13,15.22-5.59c5.57-1.57,11.31-2.64,17.04-3.5c2.61-0.39,3.7-1.55,5.17-3.66
			c4.6-6.65,9.58-13.08,14.9-19.17c2.34-2.68,5.89-4.49,8.58,2.69c1.44-3.59,2.19-5.86,3.26-7.96c0.62-1.22,1.57-2.52,2.72-3.2
			c9.54-5.71,19.97-9.06,30.89-10.77c1.33-0.21,3.19,1.45,4.41,2.65c0.82,0.8,0.94,2.31,1.3,3.28c0.59,0.11,0.79,0.22,0.9,0.16
			c9.91-5.7,12.6-5.52,21.81,1.42c1.2,0.9,2.45,1.72,3.68,2.58c4.98,3.5,12.83,4.88,9.45,14.2c7.4-2.3,11.64-0.75,16.41,6.77
			c2.68,4.22,5.64,6.82,10.71,7.5c4.49,0.61,8.54,2.88,13.5,0.52c2.51-1.19,6.66-0.62,9.39,0.64c6.63,3.06,11.41,12.76,9.45,19.74
			c-0.85,3.03-3.79,6.52-6.65,7.71c-4.97,2.06-10.6,3.22-15.99,3.35c-3.75,0.09-7.56-2.16-11.35-3.36c0.14-0.47,0.28-0.94,0.41-1.41
			c-1.81,0.88-3.61,1.75-5.57,2.7c0.84,7.47,0.86,7.26,8.94,8.25c6.4,0.78,12.72,2.24,19.1,3.25c4.39,0.7,8.81,1.15,13.22,1.71
			c0,1,0,2,0,3c-3.59,1.1-7.12,2.69-10.8,3.19c-6.87,0.95-13.85,1.07-20.74,1.91c-4.84,0.59-9.74,1.36-14.36,2.86
			c-5.36,1.75-8.01,0.49-9.36-4.87c-1.59-6.27-3.37-12.55-5.8-18.53c-0.83-2.03-3.72-4.2-5.93-4.52c-8.31-1.21-16.71-1.84-25.1-2.36
			c-2.67-0.17-4.16-0.64-3.93-3.61c0.11-1.48,0.02-2.98,0.02-4.41c-0.6-0.13-1.08-0.36-1.2-0.24c-4.32,4.58-9.23,7.36-15.83,5.71
			c-0.84-0.21-2.02,0.28-2.83,0.79c-5.03,3.14-8.4,0.13-12.04-3.32c-2.76,6.76-9.49,4.3-14.15,6.25c-1.33,4.33-2.63,8.54-3.93,12.77
			c6.65,6.33,6.71,8.76-0.32,15.66c-2.51,2.47-5.3,5.5-8.45,6.27c-4.77,1.17-9.73-0.19-13.79-4.37c-2.35,7.11-9.01,5.59-14.08,6.68
			c-3.61,0.77-8.47,0.6-11.4-1.29c-10.32-6.66-12.94-17.28,0.24-24.81c3.29-1.88,6.88-3.49,10.54-4.37
			c1.75-0.42,3.98,1.17,5.01,1.52c4.46-1.43,8.52-2.45,12.31-4.1c1.44-0.63,2.99-2.63,3.17-4.16c0.27-2.37-0.59-4.87-1.09-8.07
			c-4.98,0.83-9.67,1.45-14.29,2.4c-7.6,1.57-15.14,3.39-22.73,5c-1.44,0.31-3.19-0.35-4.46,0.21
			c-11.68,5.16-25.46,3.25-36.41,11.03c-2.26,1.61-5.48,1.87-8.26,2.75C356,298.33,356,297.67,356,297z M469.11,260.03
			c4.49-0.29,8.92-0.5,13.34-0.87c3.59-0.3,6.91-0.22,8.02,4.27c1.78-1.5,3.11-2.69,4.51-3.79c1.05-0.82,2.14-2.1,3.29-2.19
			c4.07-0.32,8.17-0.24,12.26-0.27c2.46-0.01,5.34-0.75,7.28,0.27c3.92,2.05,6.58,0.61,9.5-1.67c-2.2-2.1-4.38-4.05-6.41-6.15
			c-8.3-8.6-19.24-9.93-29.79-4.12c-4.44,2.44-9.27,4.71-14.18,5.62C470.82,252.25,469.6,252.75,469.11,260.03z"/>
		<path d="M561.11,333.4c-1.21,0.62-2.31,1.7-3.25,1.58c-7.67-0.99-15.34-2.13-22.95-3.48c-0.84-0.15-2.16-2.09-1.96-2.88
			c1.44-5.74-2.76-6.75-6.49-7.68c-3.77-0.94-7.59-1.18-8.4-6.13c-0.84-5.11,1.28-8.75,5.38-11.39c2.36-1.52,5.21-4.07,7.4-3.69
			c4.85,0.84,8.68,4.18,10.15,9.23c3.01,10.3,10.21,17.04,18.76,22.72C560.13,331.94,560.35,332.43,561.11,333.4z"/>
		<path d="M451.09,338.67c2.52-3.44,5.2-6.77,7.51-10.34c3.48-5.38,6.93-10.8,9.98-16.43c3-5.53,12.76-8.23,17.55-4.22
			c2.33,1.96,3.39,4.43,2.2,7.98c-2.82,8.38-9.96,12.15-16.69,16.09c-5.36,3.14-11.43,5.07-17.22,7.48
			c-0.8,0.34-1.74,0.35-2.62,0.52C451.56,339.39,451.32,339.03,451.09,338.67z"/>
	</g>
</g>
</svg>
