<?xml version="1.0" encoding="utf-8"?>
<!-- Generator: Adobe Illustrator 26.2.1, SVG Export Plug-In . SVG Version: 6.00 Build 0)  -->
<svg version="1.1" id="Layer_1" xmlns="http://www.w3.org/2000/svg" xmlns:xlink="http://www.w3.org/1999/xlink" x="0px" y="0px"
	 viewBox="0 0 960 560" style="enable-background:new 0 0 960 560;" xml:space="preserve">
<g>
	<g>
		<path d="M356,293c12.87-3.28,25.74-6.57,38.62-9.82c0.94-0.24,2.22-0.55,2.92-0.12c5.21,3.17,8.62,1.58,10.88-3.72
			c0.17-0.41,0.69-0.88,1.11-0.95c6.59-1.11,13.16-2.58,19.8-3.04c3.36-0.23,4.82,2.5,4.54,6.26c-0.66,8.94-5.44,14.32-14.07,17.26
			c-1.16-1.64-2.46-3.46-3.56-5.01c-2.21,1.78-4.02,4.28-6.29,4.79c-2.53,0.57-5.46-0.93-8.23-1.05
			c-7.94-0.34-15.89-0.65-23.83-0.56c-7.48,0.08-15.02,1.15-21.89-3.04C356,293.67,356,293.33,356,293z"/>
		<path d="M606,284c-10.11,1.81-20.23,3.56-30.32,5.46c-2.7,0.51-5.32,1.45-7.97,2.21c-1.28,0.37-2.53,1.06-3.81,1.11
			c-6.34,0.25-12.69,0.28-19.03,0.55c-0.96,0.04-1.9,0.92-2.83,1.43c-3.82,2.09-9.94,1.83-12.16-0.88
			c-3.25-3.96-2.67-8.36-0.66-12.67c2.08-4.45,5.79-6.49,10.51-5.81c1.88,0.27,3.55,2.07,5.47,3.27c6.63-4.14,9.51-3.69,12.65,2.82
			c2.53-6.22,7.14-4.38,11.69-3.68c12.13,1.86,24.3,3.48,36.46,5.19C606,283.33,606,283.67,606,284z"/>
		<path d="M430.07,337.19c0.99-10.03,0.68-18.8,3-26.81c2.18-7.51,2.37-15.11,4-22.56c0.47-2.15,1.83-4.1,2.11-6.07
			c0.48-5.29,0.96-10.59,1.33-14.71c-4.43-2.12-10.71-3.23-11.61-6.05c-1.07-3.36-2.32-9.53,2.46-12.67
			c3.87-2.55,8.22-3.77,13.11,1.41c2.55-3.46,5.35-6.22,6.84-9.56c1.66-3.73,3.99-4.7,7.44-3.77c3.53,0.94,6.65,2.53,6.39,7.03
			c-0.09,1.66-0.33,3.32-0.34,4.98c0,1.07,0.3,2.14,0.46,3.2c1.18-0.19,2.51-0.1,3.53-0.61c3.36-1.69,16.43-0.06,18.02,1.55
			c5.55,0,10.09,0,15.15,0c0.07-1.6-0.27-3.22,0.29-4.41c0.91-1.93,2.03-4.45,3.74-5.21c6.46-2.89,17.03,3.69,16.64,10.73
			c-0.28,5.04,2.04,4.95,5.47,5.11c8.92,0.43,17.83,1.05,26.75,1.59c0.08,0.52,0.16,1.05,0.24,1.57c-3.67,1.04-7.28,2.54-11.02,3.02
			c-6.25,0.79-12.58,1-18.88,1.32c-3.64,0.18-5.96,1.08-5.33,5.57c0.72,5.06,1.95,10.41,1,15.25c-1.17,5.92,1.95,10.38,2.65,15.44
			c1.33,9.56,0.38,19.43-0.74,29.26c-9.13-14.89-9.82-31.47-12.25-48.61c-5.28-2.91-1.62-9.58-4.04-15.25
			c-6.22-0.27-13.22,0.15-19.9-1.09c-5.53-1.03-11.44,2.22-16.56-1.74c-0.23-0.17-0.8-0.28-0.92-0.15
			c-3.3,3.66-7.33,2.62-11.42,2.11c-0.68-0.08-2.01,1.93-2.39,3.17c-1.86,6.04-3.46,12.16-5.23,18.23
			c-0.36,1.24-0.87,3.23-1.67,3.44c-5.78,1.48-5.31,4.78-3.16,8.97c0.38,0.73,0.13,2.01-0.23,2.86
			c-4.28,10.1-8.62,20.16-12.98,30.23C431.69,334.65,431.21,335.29,430.07,337.19z"/>
		<path d="M486.12,173.4c1.11,6.29,1.74,12.72,3.44,18.84c2.06,7.42,1.66,15.31,5.66,22.49c1.81,3.25,2.71,9-3.31,11.85
			c4.52,3.81,3.8,7.87,0.97,11.99c-2.67,3.89-9.36,7.18-13,5.16c-2.57-1.43-5.47-5.21-5.4-7.86c0.16-5.71,2.16-11.36,3.35-17.05
			c0.26-1.24,0.08-2.59,0.41-3.8c0.42-1.52,1.3-2.92,1.73-4.44c0.55-1.95,1.17-3.98,1.17-5.97c0-1.55-1.54-3.21-1.29-4.64
			c1.52-8.91,3.35-17.77,5.07-26.65C485.32,173.34,485.72,173.37,486.12,173.4z"/>
		<path d="M472.73,388.55c-0.95-6.14-2.07-12.27-2.77-18.44c-0.36-3.19,0.08-6.47,0.05-9.71c-0.01-1.13,0.05-2.65-0.61-3.32
			c-4.15-4.2-4.09-9.84-3.34-14.57c0.6-3.79,0.8-5.94-1.54-9.38c-2.86-4.19,1.21-11.95,6.16-14.13c5.28-2.32,12.38-0.29,14.86,4.54
			c0.76,1.49,1.27,3.68,0.77,5.15c-1.94,5.67-0.83,12.4-5.82,17.08c-0.53,0.5-0.14,2.06-0.05,3.12c0.21,2.42,1.07,4.95,0.64,7.24
			c-1.72,9.13-3.81,18.19-5.8,27.26c-0.38,1.73-0.91,3.44-1.38,5.15C473.51,388.54,473.12,388.55,472.73,388.55z"/>
		<path d="M398.25,191.61c6.88,5.83,13.57,11.9,20.7,17.41c6.03,4.65,12.57,8.64,19.36,13.25c-0.1,0.54-0.4,2.1-0.76,3.96
			c3.45,0.05,7.28-0.75,7.34,4.33c0.05,4.35-3.19,8.96-7.26,8.47c-5.24-0.63-10.49-2.31-15.38-4.37c-2.94-1.23-4.66-4.07-2.98-7.91
			c0.44-1-0.8-3.96-1.37-3.99c-5.32-0.29-6.34-4.72-8.36-8.15c-3.61-6.13-7.14-12.31-10.64-18.51c-0.67-1.19-1.07-2.53-1.59-3.8
			C397.62,192.06,397.93,191.83,398.25,191.61z"/>
		<path d="M463.89,287.26c1-6.87,9.28-13.32,15.49-11.76c1.76,0.44,3.04,2.77,5.44,5.11c9.87-0.04,1.87,5.82,0.86,9.97
			c1.41-0.25,2.29-0.37,3.15-0.56c2.8-0.6,4.12,0.91,3.22,3.25c-2.14,5.55-5.33,10.41-11.55,12.13c-4.48,1.24-11.06-1.81-14.25-6.35
			c-2.61-3.72-2.11-7.07,1.78-9.84C466.51,288.5,465.17,287.87,463.89,287.26z"/>
		<path d="M557.35,206.07c-3.21,5.4-6.64,10.68-9.54,16.24c-1.7,3.25-2.3,7.06-3.86,10.4c-1.79,3.84-3.58,7.9-6.31,11.04
			c-3.27,3.76-9.6,3.18-12.97-0.35c-3.33-3.48-3.82-10.88-0.26-14.13c2.32-2.11,5.83-4.47,8.57-4.21c3.99,0.38,4.39-1.37,5.14-4.08
			c0.38-1.38,1.08-2.94,2.14-3.8c5.21-4.25,10.58-8.28,15.89-12.4C556.56,205.22,556.96,205.65,557.35,206.07z"/>
	</g>
</g>
</svg>
