<?xml version="1.0" encoding="utf-8"?>
<!-- Generator: Adobe Illustrator 26.2.1, SVG Export Plug-In . SVG Version: 6.00 Build 0)  -->
<svg version="1.1" id="Layer_1" xmlns="http://www.w3.org/2000/svg" xmlns:xlink="http://www.w3.org/1999/xlink" x="0px" y="0px"
	 viewBox="0 0 960 560" style="enable-background:new 0 0 960 560;" xml:space="preserve">
<g>
	<g>
		<path d="M406.74,350.45c6.84-6.77,13.68-13.54,20.52-20.31c-0.3-0.49-0.6-0.99-0.9-1.48c-17.32,0.86-32.04,9.45-47.06,17.14
			c-0.24-0.34-0.47-0.68-0.71-1.02c4.02-2.85,7.98-5.77,12.06-8.54c4.23-2.87,8.56-5.6,12.62-9.44c-11.67-0.7-23.33-1.4-35-2.1
			c-0.01-0.4-0.03-0.8-0.04-1.19c10.46-1.53,20.91-3.07,31.37-4.6c-0.02-0.22-0.04-0.44-0.06-0.65c-5.28,0.26-10.56,0.52-15.84,0.78
			c-0.05-0.31-0.09-0.62-0.14-0.93c14.78-3.15,29.56-6.3,44.34-9.45c0.01-0.33,0.02-0.66,0.03-1c-9.84-0.62-19.67-1.24-29.51-1.85
			c0.03-0.37,0.05-0.73,0.08-1.1c4.64,0.39,9.29,0.78,13.93,1.17c0.04-0.19,0.09-0.38,0.13-0.57
			c-18.38-5.82-36.75-11.65-55.76-17.67c0.96-0.41,1.47-0.85,1.92-0.8c9.84,1.17,20.02-1.72,29.6,2.48
			c6.25-3.12,11.08,2.02,16.64,2.93c7.28,1.19,14.46,3.03,21.73,4.31c2,0.35,4.19-0.57,6.25-0.41c5.73,0.45,11.43,1.17,17.52,0.7
			c-8.35-3.36-16.71-6.69-25.05-10.1c-1.05-0.43-2.26-1.01-2.87-1.89c-2.35-3.36-5.44-4.38-9.43-4.1c-1.42,0.1-3.25-0.87-4.38-1.91
			c-12.59-11.52-27.36-19.61-42.43-27.26c-0.82-0.42-1.56-1-2.09-2.05c28.68,7.12,55.17,20.08,82.34,31.21
			c0.28-0.34,0.56-0.67,0.84-1.01c-1.15-1.47-2.25-2.97-3.45-4.39c-6.55-7.73-13.27-15.32-19.66-23.17
			c-6.52-8-12.79-16.22-19.08-24.41c-3.07-3.99-6.01-8.1-8.9-12.22c-0.47-0.67-0.39-1.72-0.87-4.11
			c6.87,6.28,12.48,11.79,18.5,16.82c6.03,5.03,12.44,9.61,18.73,14.33c1.18,0.89,2.98,1.18,3.81,2.27
			c6.56,8.65,16.81,12.13,25.17,18.24c0.92,0.67,1.75,1.51,2.45,2.41c3.87,4.92,7.7,9.87,12.02,15.44
			c29-20.99,57.4-41.55,85.8-62.11c0.22,0.26,0.44,0.52,0.67,0.79c-5.82,5.43-11.68,10.81-17.46,16.29
			c-8.39,7.96-17.4,15.38-22.4,26.28c-2.03,4.42-5.56,7.01-10.27,8.8c-2.86,1.09-4.84,4.48-7.21,6.84c0.3,0.3,0.6,0.6,0.9,0.9
			c24.24-8.99,48.49-17.98,72.73-26.98c0.18,0.4,0.36,0.79,0.54,1.19c-22.08,13.25-44.16,26.51-66.23,39.76
			c0.16,0.45,0.32,0.9,0.48,1.35c3.05-1.13,6.39-1.79,9.07-3.49c4.13-2.62,8.21-3.4,13.14-3.44c7.09-0.05,14.14-1.86,21.24-2.61
			c15.57-1.64,31.17-3.08,46.76-4.61c0.09,0.66,0.18,1.32,0.27,1.99c-6.51,1.54-13,3.16-19.53,4.6c-5.3,1.17-10.12,2.37-14.86,6
			c-4.37,3.35-11.09,3.69-16.81,5.2c-10.08,2.65-20.2,5.19-30.03,8.53c21.46,3.8,42.92,7.6,64.38,11.41
			c-0.04,0.66-0.07,1.32-0.11,1.98c-1.1,0.09-2.21,0.34-3.3,0.26c-9.94-0.76-19.87-1.83-29.82-2.26c-3.46-0.15-7,1.79-10.49,1.77
			c-3.71-0.03-7.39-1.37-11.11-1.92c-5.18-0.76-10.4-1.31-15.6-1.95c-0.1,0.44-0.2,0.87-0.29,1.31
			c10.61,3.78,21.22,7.55,31.84,11.33c-0.14,0.43-0.27,0.87-0.4,1.3c-10.55-0.46-21.1-0.92-32.91-1.44
			c6.2,8.29,11.57,15.48,16.94,22.67c-0.21,0.15-0.43,0.29-0.64,0.44c-7.45-6.27-14.82-12.66-22.42-18.74
			c-1.8-1.45-4.39-2.68-6.62-2.69c-8.8-0.06-17.6,0.58-26.4,0.6c-3.57,0.01-7.17-0.74-10.7-1.4c-12.15-2.26-23.59,0-34.07,6.11
			c-6.4,3.73-12.15,8.57-18.16,12.96c-1.69,1.23-3.26,2.63-4.89,3.95C407.67,351.44,407.21,350.94,406.74,350.45z"/>
		<path d="M484.7,244.83c0.73,6,7.52,6.04,10.63,10.26c-3.97-1.9-7.94-3.83-11.92-5.7c-3.24-1.52-5.84-1.35-9.11,1.05
			c-3.98,2.92-8.98,4.43-13.55,6.56c-0.26-0.47-0.51-0.93-0.77-1.4c3.95-3.29,7.9-6.58,12.77-10.63
			c-5.59-2.98-10.21-5.71-15.05-7.97c-8.5-3.98-15.4-8.95-15.95-19.52c-0.32-6.13,1.63-8.91,7.74-9.4c4.36-0.35,8.11,3.27,9.14,7.65
			c0.69,2.91,2.32,5.81,4.2,8.19c4.1,5.19,8.62,10.05,13.38,15.51c2.67-3.9,4.93-7.09,7.07-10.36c3.34-5.11,6.2-10.61,10.13-15.2
			c1.2-1.4,5.38-0.82,7.96-0.18c1.14,0.28,2.24,2.93,2.36,4.58c0.19,2.75-0.12,5.64-0.79,8.32c-0.49,1.96-1.49,4.13-2.95,5.45
			C495.21,236.38,490.1,240.37,484.7,244.83z"/>
	</g>
</g>
</svg>
