<?xml version="1.0" encoding="utf-8"?>
<!-- Generator: Adobe Illustrator 26.2.1, SVG Export Plug-In . SVG Version: 6.00 Build 0)  -->
<svg version="1.1" id="Layer_1" xmlns="http://www.w3.org/2000/svg" xmlns:xlink="http://www.w3.org/1999/xlink" x="0px" y="0px"
	 viewBox="0 0 960 560" style="enable-background:new 0 0 960 560;" xml:space="preserve">
<g>
	<g>
		<path d="M466,406c0.53-1.32,0.96-2.7,1.61-3.96c3.22-6.27,6.75-12.38,9.67-18.78c3.08-6.77,5.67-13.78,8.33-20.74
			c3.4-8.91,6.77-17.83,9.94-26.82c1.43-4.06,2.5-8.27,3.44-12.48c0.81-3.65,0.28-7.75,4.52-9.88c0.61-0.31,1.23-2.13,0.91-2.55
			c-4.57-6.11,0.76-11.22,1.56-16.75c0.07-0.48,0.16-0.96,0.45-2.75c-5.84,2.6-10.98,4.89-16.13,7.19c-0.46,0.2-0.97,0.69-1.35,0.6
			c-6.37-1.48-12.05-0.34-17.16,3.94c-1.24,1.04-3.17,1.3-4.83,1.76c-3.95,1.11-7.94,3.03-11.9,2.98
			c-6.66-0.08-14.16,2.27-19.49-4.43c-0.55-0.69-2.12-0.68-3.24-0.81c-4.35-0.48-8.67-0.9-11.29-5.2c-0.37-0.6-1.46-1.33-1.99-1.19
			c-6.28,1.74-9.15-2.81-11.89-6.77c-5.22-7.53-12.44-13.91-14.06-23.6c-0.68-4.09-2.81-8.66-1.66-12.15
			c1.71-5.22,2.6-9.07-2.42-12.64c-0.59-0.42-0.23-2.5,0.01-3.74c2.57-12.89,8.1-24.51,15.06-35.58c2.58-4.1,3.08-9.34,7.18-12.7
			c3.58-2.94,6.44-7.77,10.44-8.93c4.65-1.35,8.41-2.06,11.7-6.38c2.43-3.19,6.71-1.44,9.19,2.22c6.7-2.92,13.11-3.74,19.41,0.83
			c1.45,1.05,3.58,2.37,5.65-0.25c0.72-0.91,3.61-1.03,4.93-0.36c5.53,2.82,10.75,6.26,16.27,9.13c5.19,2.7,5.79,7.18,5.77,12.23
			c-0.01,1.86,0.37,3.84,1.07,5.55c2.22,5.44-1.88,12.47-7.64,12.94c-4.69,0.38-9.44,2.13-13.88-1.03
			c-1.16-0.83-2.65-1.25-3.67-2.21c-8.36-7.91-18.16-11.36-29.66-10.01c-2.67,0.31-5.41,0.05-7.47,0.05
			c-4.12,4.19-8.19,8.42-12.36,12.55c-5.93,5.86-6.94,13.1-6.71,21.01c0.09,2.92-1.64,5.89-2.81,9.73
			c5.36,2.17,4.38,9.44,7.15,14.79c2.68,5.17,5.79,10.12,8.63,15.03c2.19,0.58,5.08,1.53,8.04,2.07c4.58,0.83,9.24,1.19,13.79,2.13
			c1.56,0.32,2.99,1.67,4.29,2.77c1.9,1.63,3.63,3.47,6.09,5.86c2.68-7.13,7.43-8.47,13.45-8.55c4.39-0.06,8.76-1.74,13.14-2.65
			c3.75-0.78,7.51-1.5,11.73-2.34c2.98-1.76,6.58-3.97,10.27-6.04c4.01-2.25,5.84-8.69,4.91-13.02c-0.93-4.28-0.49-8.87-0.53-13.33
			c-0.06-6.31-1.72-13.3,0.45-18.75c2.47-6.21-0.87-10.7-1.02-15.97c-0.01-0.5,0.01-1-0.06-1.5c-0.56-4.4-3.34-9.19,4.23-12.47
			c-2.73-0.57-3.65-1.05-4.44-0.88c-3.08,0.65-3.96-0.8-4.6-3.6c-0.75-3.26-2.93-6.25-3.35-9.51c-0.39-3.06,0.28-6.46,1.29-9.43
			c1-2.92,2.95-5.52,4.61-8.19c4.79-7.74,11.33-7.8,17.05-0.82c5.18,6.31,7.94,13.37,8.88,21.32c0.1,0.83,0.12,1.66,0.23,2.49
			c0.74,5.57-5.55,10.15-0.63,17c3.15,4.37,1.85,11.9,2.71,17.98c0.77,5.47-1,9.91-4.06,12.81c1.11,4.26,2.55,7.9,2.9,11.63
			c0.36,3.9-0.35,7.9-0.67,13.21c25.7-14.7,49.62-29.97,68.01-53.1c-0.64,1.41-1.03,3.02-1.96,4.2c-2.67,3.4-5.36,6.84-8.4,9.9
			c-7.28,7.32-12.07,16.89-21.3,22.55c-3.31,2.03-4.9,6.66-7.9,9.43c-7.69,7.13-15.72,13.89-23.62,20.8
			c-0.37,0.33-0.63,0.86-1.05,1.06c-10.37,4.84-9.6,15.03-12.13,23.95c-2.65,9.33-6.99,18.17-10.6,27.22
			c-0.18,0.46-0.74,0.93-0.67,1.31c1.4,7.93-4.99,13.23-7.14,19.99c-3.22,10.13-9.57,19.25-14.45,28.87
			c-6.56,12.95-18.57,21.11-27.75,31.74C466.67,406,466.33,406,466,406z"/>
		<path d="M393,156c4.46,2.62,7.58,5.94,6.29,11.67c-0.14,0.62-0.04,1.35,0.14,1.98c2.32,8.4,1.49,15.74-5.44,22.15
			c-2.05,1.9-1.31,6.54-3.07,9.08c-5.43,7.88-9.17,16.13-8.95,25.91c0.03,1.21-0.73,3.36-1.47,3.53c-6.83,1.59-1.48,4.89-1.39,7.61
			c0.24,7.84-0.04,15.69-0.05,23.53c0,2.49-0.08,5.04,0.41,7.45c0.55,2.72,1.97,5.27,2.52,7.99c2.24,11.17,4.54,22.33,6.33,33.57
			c0.99,6.2,2.65,12.64-1.37,18.66c-0.52,0.78-0.02,2.79,0.67,3.76c4.03,5.6,3.38,12.18,4.44,18.45c1.04,6.17,2.88,12.22,4.65,18.23
			c1.96,6.68,4.08,13.34,6.45,19.89c1.37,3.79,3.37,7.36,5.09,11.03c-0.32,0.27-0.64,0.55-0.96,0.82c-1.18-1.11-2.61-2.04-3.51-3.35
			c-10.06-14.61-19.7-29.11-23.99-47.08c-2.12-8.86-5.52-17.51-7.05-26.77c-1.72-10.41-4.96-20.57-7.65-30.81
			c-1.34-5.11-3.45-10.07-4.22-15.25c-0.51-3.4,0.77-7.07,1.84-10.55c-2.2-6.81-8.57-13.42-0.12-21.11
			c-4.76-2.32-4.41-5.81-3.95-9.67c1.61-13.62,2.82-27.29,4.56-40.9c0.26-2.01,2.51-3.78,4.26-6.25
			c-5.95-6.18,0.56-12.72,1.86-19.42c1.52-7.81,7.91-11.38,14.69-14.16C387,156,390,156,393,156z"/>
	</g>
</g>
</svg>
