<?xml version="1.0" encoding="utf-8"?>
<!-- Generator: Adobe Illustrator 26.2.1, SVG Export Plug-In . SVG Version: 6.00 Build 0)  -->
<svg version="1.1" id="Layer_1" xmlns="http://www.w3.org/2000/svg" xmlns:xlink="http://www.w3.org/1999/xlink" x="0px" y="0px"
	 viewBox="0 0 960 560" style="enable-background:new 0 0 960 560;" xml:space="preserve">
<g>
	<g>
		<path d="M496.58,159.96c-8.79,11.48-14.98,24.3-19.68,37.92c-0.79,2.3-2.28,4.36-2.69,6.53c0,1.82,0.12,3.64-0.02,5.45
			c-0.54,7.2-1.03,14.4-1.83,21.57c-0.24,2.13-1.43,4.16-2.18,6.22c5.2,1.48,9.57,10.96,8.51,16.8c2.42,1.63,4.57,2.61,6.1,4.19
			c3.92,4.04,7.8,8.17,11.19,12.65c1.33,1.77,1.29,4.57,1.91,7.02c7.89,0.5,14.84,6.55,14.65,12.28c2.28,1.55,4.45,2.58,6.06,4.19
			c6.64,6.62,10.79,14.68,12.96,23.78c0.15,0.64,0.64,1.69,0.43,1.85c-5.32,4.08,1.14,5.83,1.31,8.06c0.6,7.8,4.74,15.91-0.24,23.79
			c-0.88,1.4-0.38,3.72-0.37,5.62c0.01,1.77,0.62,3.62,0.29,5.3c-2.39,12.19-7.33,23.53-16.75,31.52c-5,4.25-12.53,5.63-19.06,7.86
			c-1.14,0.39-3.03-1.39-5.11-2.44c-3.03,1.76-6.54,3.81-10.05,5.86c-3.33,0-6.67,0-10,0c-1.94-3.74-4.08-5.52-9.12-6.38
			c-7.08-1.21-12.94-6.88-16.99-13.41c-1.31-2.11-2.22-4.46-3.44-6.64c-2.16-3.85-1.52-7.32,1.41-10.39
			c-6.53-6.87-5.95-23.66,0.82-28.57c-4.12-6.14-3.67-8.84,2.62-13.39c5.25-3.8,10.6-7.46,16.02-11c6.77-4.42,19.3-2.02,25.81,5
			c-4.46,4.7-0.36,6.75,2.88,9.48c1.56,1.32,3.37,3.92,3.06,5.58c-0.87,4.73-1.84,9.93-4.49,13.74c-3.19,4.58-7,3.94-12.04-0.16
			c-1.1-0.89-2.64-2.55-3.44-2.28c-4.6,1.58-10.67-1.98-14.01,3.9c-0.32,0.55-0.79,1.02-1.26,1.62c-1.75-0.85-3.37-1.63-5.99-2.9
			c0.59,1.91,0.59,3.02,1.07,3.29c7.39,4.17,3.48,10.35,2.13,15.36c-1.15,4.26-1.65,6.77,3.08,8.6c1.27,0.49,1.79,2.91,2.06,3.4
			c3.16,0.46,6.08,0.62,8.84,1.35c4.12,1.1,8.09,2.71,12.2,3.87c0.87,0.25,2.55-0.2,2.97-0.87c2.4-3.9,4.93-3.17,8.08,0.11
			c0.77-1.39,1.99-2.57,1.81-3.44c-0.95-4.43,2.27-5.7,5.08-7.44c4.67-2.9,9.33-5.82,13.85-8.93c0.8-0.55,1.34-2.04,1.32-3.09
			c-0.14-10.19,2.24-20.57-1.98-30.49c-1.49-3.5-2.98-7-4.7-11.05c0.63-1.17,1.6-3,2.95-5.52c-5.03,0.3-6.76-2.43-8.61-6.06
			c-1.47-2.86-4.82-4.88-7.59-6.93c-2.93-2.17-6.13-4-9.28-5.86c-2.66-1.57-6-2.7-2.35-7.21c-13.3,0.01-16.8-11.02-23.5-18.18
			c-0.4-0.43-0.77-1.47-0.54-1.83c2.77-4.34-0.88-7.15-2.54-10.27c-3.48-6.58-4.69-13.47-3.18-20.68c0.56-2.67,2.25-5.09,3.94-8.73
			c-2.94-11.88,3.18-22.83,9.83-33.34c6.74-10.65,14.17-20.88,21.54-31.12C491.84,163.01,494.46,161.66,496.58,159.96z"/>
		<path d="M407.14,223.35c-1.83,9.11-1.94,18.06-7.25,24.99c0.42,5.11,0.79,9.97,1.22,14.83c0.26,2.96,0.76,5.91,0.85,8.88
			c0.06,1.92-0.53,3.84-0.64,5.78c-0.09,1.59-0.12,3.25,0.23,4.79c1.03,4.44,2.27,8.83,3.41,13.24c1.61,6.24,3.33,12.45,4.75,18.73
			c0.65,2.87,0.67,5.88,0.31,8.83c4.26,7.9,8.05,16.1,12.9,23.61c4.91,7.6,10.87,14.51,16.37,21.73c-0.35,0.42-0.71,0.85-1.06,1.27
			c-5.97-4.89-12.02-9.7-17.89-14.71c-2.64-2.26-5.05-4.83-7.31-7.48c-1.14-1.34-1.61-3.23-2.55-4.77c-0.52-0.85-1.38-1.49-2.11-2.2
			c-2.42-2.35-5.4-4.33-7.13-7.11c-2.52-4.05-4.62-8.52-5.99-13.08c-0.89-2.99-0.17-6.46-0.17-8.1c-2.08-4.99-4.04-8.69-5.18-12.62
			c-1.94-6.69-3.7-13.46-4.87-20.32c-0.48-2.82,0.76-5.94,2.03-8.94c-4.56-6.91-2.23-15.01-3.05-22.64
			c-0.34-3.19-1.88-6.45-1.43-9.47c0.62-4.16,2.6-8.12,4.02-12.16c0.24-0.69,1.04-1.4,0.92-1.96c-2.9-13.37,5.08-22.16,13.13-30.76
			c2.51-2.68,6.29-3.67,9.61-1.36c3.3,2.29,7.19,4.61,5.92,9.85c-0.19,0.78-0.17,1.69,0.03,2.47c0.52,2,2.28,4.51,1.61,5.82
			c-2.18,4.24-5.12,8.12-8.03,11.93C409.15,223.27,407.4,223.27,407.14,223.35z"/>
		<path d="M557.64,221.3c-3.89-1.36-8.39-1.55-9.73-3.7c-2.19-3.54-4.3-9.2-2.9-12.43c2.43-5.59,6.83-11.02,11.79-14.6
			c4.98-3.59,12.23,1.38,12.81,8.11c0.36,4.2,1.57,7.47,4.51,10.63c1.82,1.96,2.4,5.24,3.05,8.04c0.79,3.39,1.24,6.89,1.49,10.37
			c0.2,2.72,1.07,5.2-2.54,7.62c-1.67,1.12-0.16,7.27,0.27,11.11c0.21,1.9,1.83,3.7,1.83,5.54c0.01,10.3,0.05,20.62-0.69,30.88
			c-0.21,2.93-3,5.66-4.77,8.78c4.06,1.45,3.49,4.89,2.35,8.91c-2.28,8-3.9,16.18-6.37,24.11c-1.06,3.41-3.56,6.37-4.96,8.76
			c-1.1,3.32-1.6,6.16-2.92,8.53c-3.16,5.65-6.55,11.19-10.17,16.56c-2.24,3.32-5.07,6.25-7.63,9.35c-0.54-0.33-1.08-0.66-1.62-0.98
			c1.94-5.01,4.06-9.97,5.78-15.05c1.72-5.11,3.27-10.3,4.46-15.55c0.8-3.51,0.66-6.94,4.45-9.36c1.51-0.96,1.99-4.79,1.66-7.14
			c-1.11-7.91-0.38-15.17,4.08-22.13c1.17-1.83,1.04-5.85-0.23-7.65c-5.09-7.3-1.39-15.32-2.54-22.88
			c-0.13-0.85,2.07-1.89,2.81-3.08c0.83-1.32,1.99-3.1,1.68-4.36c-1.64-6.81-3.7-13.52-5.6-20.27c-0.14-0.48-0.19-0.98-0.27-1.47
			C556.86,232.24,552.38,226.61,557.64,221.3z"/>
	</g>
</g>
</svg>
