<?xml version="1.0" encoding="utf-8"?>
<!-- Generator: Adobe Illustrator 26.2.1, SVG Export Plug-In . SVG Version: 6.00 Build 0)  -->
<svg version="1.1" id="Layer_1" xmlns="http://www.w3.org/2000/svg" xmlns:xlink="http://www.w3.org/1999/xlink" x="0px" y="0px"
	 viewBox="0 0 960 560" style="enable-background:new 0 0 960 560;" xml:space="preserve">
<g>
	<g>
		<path d="M478,156c0.19,8.3,0.48,16.6,0.52,24.9c0.01,3.05-0.56,6.1-0.88,9.14c-0.08,0.8-0.46,1.68-0.24,2.39
			c3.97,13.16,2.43,26.54,2.26,39.96c-0.12,9.39,1.63,18.84,2.97,28.2c0.76,5.29-2.96,13.01-7.81,14.01
			c-1.05,0.22-2.71-0.91-3.6-1.88c-4.89-5.31-4.33-12.3-4.14-18.51c0.45-14.6,2.74-29.16,3.06-43.76
			c0.4-18.45,5.21-36.24,6.87-54.46C477.33,156,477.67,156,478,156z"/>
		<path d="M475.24,403.48c-0.72-5.92-1.72-11.82-2.12-17.77c-1.44-21.6-2.65-43.21-4.01-64.81c-0.46-7.2-0.51-14.31-0.1-21.56
			c0.31-5.55,1.57-10.09,3.64-14.76c0.55-1.24,2.25-2.76,3.4-2.74c1.28,0.03,2.79,1.46,3.71,2.66c1.58,2.07,3.11,4.31,4.01,6.72
			c0.72,1.93,1.14,4.44,0.51,6.29c-1.32,3.87-3.63,7.29-0.66,11.55c0.79,1.14-0.14,3.5-0.32,5.29c-0.48,4.74-1.13,9.47-1.44,14.21
			c-0.38,5.83-0.6,11.67-0.67,17.52c-0.04,2.94,0.81,5.92,0.56,8.82c-0.58,6.75-1.57,13.46-2.42,20.18
			c-1.19,9.39-2.42,18.77-3.63,28.16C475.54,403.32,475.39,403.4,475.24,403.48z"/>
		<path d="M552.29,273.84c-5.69,1.57-11.39,3.09-17.06,4.72c-3.78,1.09-7.45,2.7-11.29,3.42c-3.09,0.58-6.37,0.15-9.56,0.26
			c-0.94,0.03-2.1,0.09-2.77,0.63c-5.86,4.72-12.35,4.18-18.4,1.26c-1.9-0.92-3.2-5-3.13-7.58c0.08-3.22,1.32-6.76,3.11-9.45
			c1.24-1.87,11.59,0.08,13.77,1.7c0.95,0.7,2.32,1.08,3.52,1.13c7.89,0.32,15.8,0.31,23.68,0.81c6.07,0.39,12.1,1.36,18.15,2.08
			C552.31,273.14,552.3,273.49,552.29,273.84z"/>
		<path d="M409.93,289.2c2.7-1.19,5.42-2.33,8.1-3.56c7.76-3.57,15.41-7.39,23.29-10.66c4.37-1.81,9.03-3.21,13.7-3.93
			c5.14-0.79,6.46,4.03,8.01,7.45c0.7,1.53-0.25,4.16-1.1,5.99c-3.27,7.07-10.53,7.09-16.65,8.44c-6.75,1.48-13.7,3.67-20.64-0.52
			c-2-1.2-5.21-0.27-7.84-0.58c-2.32-0.28-4.6-0.92-6.9-1.41C409.92,290.01,409.93,289.61,409.93,289.2z"/>
		<path d="M489.5,245.71c-4.37-3.04-5.63-5.35-2.61-9.21c4.66-5.97,11.03-11.82,12.65-18.67c2.52-10.7,11.21-16.38,15.85-25.07
			c0.51-0.95,1.36-1.71,2.54-2.28C508.47,208.82,501.99,228.7,489.5,245.71z"/>
		<path d="M517.38,346.12c-7.3-8.7-14.9-17.16-21.76-26.19c-3.24-4.27-5.31-9.51-7.38-14.54c-0.62-1.51,0.02-4.98,1.03-5.43
			c2.26-1,4.44-0.16,5.92,2.75c4.56,9.01,9.41,17.89,14.45,26.65c2.99,5.21,6.54,10.11,9.84,15.14
			C518.78,345.05,518.08,345.59,517.38,346.12z"/>
		<path d="M427.77,349.85c7.87-12.62,15.78-25.21,23.56-37.89c1.72-2.81,2.8-6.01,4.52-8.81c0.72-1.18,2.37-1.78,3.6-2.65
			c0.89,1.28,1.86,2.52,2.65,3.86c4.49,7.61-2.73,9.55-6.26,13.66c-8.18,9.52-15.79,19.52-23.63,29.33
			c-0.98,1.23-1.93,2.48-2.89,3.72C428.8,350.67,428.28,350.26,427.77,349.85z"/>
		<path d="M536.25,215.79c-0.51,0.71-0.94,1.51-1.55,2.13c-9.97,10.1-19.98,20.17-29.94,30.28c-1.52,1.54-2.94,3.18-4.27,4.88
			c-1.76,2.25-3.48,2.71-5.87,0.76c-2.46-2.01-2.72-4-0.74-6.36c0.42-0.51,0.93-0.96,1.46-1.36c13.32-10.27,26.64-20.54,39.97-30.81
			C535.61,215.46,535.93,215.62,536.25,215.79z"/>
		<path d="M498.82,297.37c2.59-5.5,4.6-5.8,9.56-2.85c5.37,3.19,11.4,5.25,16.85,8.32c6.73,3.79,13.17,8.11,19.37,12.92
			C529.55,308.95,511.93,308.84,498.82,297.37z"/>
		<path d="M437.92,207.62c7.04,12.98,14.06,25.97,21.16,38.92c0.93,1.69,2.51,3.05,3.29,4.78c0.81,1.81,1.37,3.9,1.35,5.86
			c-0.01,0.9-2.19,2.69-2.43,2.55c-1.44-0.9-2.76-2.12-3.84-3.46c-8.61-10.67-11.74-23.96-17.03-36.21
			c-1.66-3.84-2.25-8.14-3.32-12.22C437.38,207.77,437.65,207.69,437.92,207.62z"/>
		<path d="M413.68,331.2c4.77-5.84,8.47-13.53,14.58-17.01c6.74-3.85,11.73-9.45,18.09-13.38c1.35-0.83,3.45-0.45,5.2-0.62
			c-0.08,1.98,0.63,4.76-0.4,5.79c-2.96,2.96-6.62,5.23-10.03,7.74c-0.38,0.28-1.06,0.22-1.36,0.54
			c-7.63,8.1-19.45,8.52-27.55,15.74C412.7,330.39,413.19,330.79,413.68,331.2z"/>
		<path d="M426.43,231.64c9.02,7.77,18.18,15.37,26.95,23.41c2.34,2.14,5.76,5.76,2.62,8.97c-3.63,3.71-6.36-1.47-8.41-3.21
			c-3.78-3.19-6.49-7.7-9.48-11.78c-4.1-5.59-8.04-11.3-12.05-16.96C426.19,231.93,426.31,231.78,426.43,231.64z"/>
	</g>
</g>
</svg>
