<?xml version="1.0" encoding="utf-8"?>
<!-- Generator: Adobe Illustrator 26.2.1, SVG Export Plug-In . SVG Version: 6.00 Build 0)  -->
<svg version="1.1" id="Layer_1" xmlns="http://www.w3.org/2000/svg" xmlns:xlink="http://www.w3.org/1999/xlink" x="0px" y="0px"
	 viewBox="0 0 960 560" style="enable-background:new 0 0 960 560;" xml:space="preserve">
<g>
	<g>
		<path d="M606,253c0,2.33,0,4.67,0,7c-1.66,5.63-3.39,11.24-4.93,16.9c-0.27,0.99-0.19,2.69,0.43,3.21
			c4.03,3.37,2.36,7.23,1.2,11.02c-1.65,5.4-3.45,10.74-5.18,16.11c-0.56,1.74-0.62,4.14-1.82,5.07c-3.38,2.62-5.15,5.02-1.75,8.84
			c0.38,0.43,0.29,1.9-0.14,2.35c-5.36,5.58-3.54,15.19-11.06,19.62c-0.8,0.47-1.34,2.54-1.03,3.59c1.59,5.35-1.24,8.77-5.04,11.46
			c-8,5.68-16.18,11.13-24.36,16.55c-1.25,0.82-2.94,0.98-4.42,1.44c1.94-3.77,4.6-6.49,7-9.41c3.26-3.97,6.27-8.16,9.49-12.16
			c1.87-2.32,3.98-4.43,5.9-6.7c0.6-0.71,1.54-2.09,1.31-2.38c-2.77-3.52,0.53-6.18,1.1-9.21c1.48-7.85,2.78-15.73,4.31-23.56
			c0.63-3.22,0.77-7.19,2.74-9.36c3.51-3.87,2.64-5.46-1.53-6.56c0-1.86-0.03-3.35,0-4.85c0.09-4.72-1.11-9.94,4.74-12.57
			c0.06-0.03-0.67-2.87-1.61-3.83c-1.94-1.97-4.28-3.54-6.83-5.58c-6.65,4.33-9.93,11.26-7.29,20.22c-2,1.32-3.58,2.37-5.33,3.52
			c6.27,4.92,1.73,10.05,0.88,14.7c-0.88,4.83,0.32,11.47-7.19,12.43c0.36,2.16,1.52,4.45,0.85,5.84
			c-3.98,8.18-7.36,16.9-15.36,22.28c-2,1.34-4.46,1.99-7.48,3.29c0.34,6.76-5.3,9.75-11.21,11.58c-5.21,1.61-10.32,8.47-16,0.86
			c-3.37,5.37-24.42,11.77-29.12,9.91c1.02-1.83,2.1-3.77,3.44-6.19c-3.03,0-5.15,0.66-6.19-0.12c-3.83-2.87-5.36,0.1-7.66,2.2
			c-2.62,2.39-5.64,4.35-8.55,6.41c-1.34,0.95-2.99,1.5-4.23,2.54c-8.67,7.29-17.28,14.66-25.9,22.01c-0.47-0.5-0.94-1-1.41-1.49
			c11.32-14.33,22.64-28.66,33.59-42.53c-2.3-3.04-4.51-5.96-6.72-8.88c-1.11-1.64-3.06-3.02-5.22-3.54
			c-1.58-0.38-3.85-0.22-5.08,0.69c-7.23,5.36-10.56,14.08-18.15,19.69c-8.5,6.29-14.87,15.46-22.18,23.36
			c-1.59,1.72-3.23,3.4-4.85,5.09c-0.37-0.29-0.73-0.57-1.1-0.86c5.15-9.26,10.11-18.62,15.49-27.74
			c5.28-8.92,11.38-17.32,16.47-26.41c3.14-5.61-0.69-8.08-2.59-11.72c-1.19-2.29-2.32-4.6-3.48-6.91c0.11-0.04,0.23-0.09,0.34-0.13
			c-1.74-2.58-3.47-5.17-6.03-8.97c-8.25,11.91-16.15,23.32-24.05,34.73c-0.6-0.3-1.2-0.6-1.8-0.89
			c5.76-13.97,11.52-27.93,17.19-41.68c6.08-0.29,6.79-1.06,7.44-6.72c0.26-2.3,0.44-4.77,1.4-6.81c3.48-7.43,6.8-15,11.09-21.96
			c3.6-5.83,3.18-14.27,11-17.46c0.36-0.15,0.34-1.19,0.52-1.81c0.74-2.6,1.34-5.26,2.27-7.79c1.88-5.1,3.94-10.14,6.05-15.5
			c-3.71-0.9-6.98-1.79-10.29-2.47c-2.33-0.48-4.73-0.65-7.1-0.97c-5.66-0.76-12.87,2.77-15.1-4.92c-3.46,1.88-6.53,4.37-9.99,5.17
			c-3.34,0.77-7.08-0.21-11.19-0.45c0.33,5.95-2.59,11.83-8.32,16.35c-0.49,0.39-0.85,1.59-0.63,2.15
			c2.07,5.07-0.82,8.92-4.11,11.37c-5.12,3.81-5.2,8.75-4.5,13.79c0.69,5.02,0.83,9.33-2.79,11.02c0,5.4,0.1,9.54-0.02,13.68
			c-0.23,7.94,4.65,14.57,4.77,22.85c0.15,9.92,6.85,18.9,8.55,28.97c0.08,0.48,0.35,0.94,0.61,1.36
			c4.04,6.48,8.1,12.95,12.12,19.45c0.52,0.84,0.85,1.8,1.27,2.71c-2.34,0.05-4.14-0.46-5.33-1.61c-4.69-4.48-9.46-8.93-13.68-13.83
			c-4.54-5.28-10.96-9.7-9.98-18.17c0.07-0.59-1.5-1.37-2.31-2.07c-1.91-1.64-4.44-2.92-5.62-4.98c-2.39-4.16-3.81-8.87-6.08-13.11
			c-2.56-4.76-2.48-9.44,0.2-13.78c2.63-4.26,1.66-6.51-2.88-7.78c0-3.33,0-6.67,0-10c0.04-6.44,3.09-11.73,7.65-17.15
			c-7.85-2.55-5.79-7.8-4.85-12.67c0.98-5.06,1.95-10.13,3.19-15.14c0.36-1.46,1.33-3.2,2.54-3.92c3.16-1.88,4.05-3.39,1.1-6.46
			c-0.97-1.01-0.61-3.82-0.12-5.61c2.1-7.63,5.69-13.78,15.12-13c0.32,0.03,0.66-0.08,0.99-0.12c2.71-0.3,3.86-0.87,2.22-4.09
			c-3.22-6.34-2.08-9.2,4.23-12.37c2.81-1.41,5.76-2.71,8.79-3.5c2.07-0.54,4.39-0.1,5.97-0.1c2.17-1.23,4.03-2.89,6.15-3.35
			c3.38-0.73,6.97-0.44,10.4-0.99c7.11-1.16,14.15,0.69,21.39,0c5.58-0.53,11.67,3.06,17.35,5.27c5.41,2.1,6.64,1.54,9.01-3.86
			c1.53-3.5,4.01-6.59,6.06-9.87c0.4,0.24,0.8,0.49,1.21,0.73c0.18-1.92-0.23-4.19,0.66-5.69c4.48-7.58,15.41-10.31,22.83-5.6
			c3.32,2.11,6.24,4.95,9.05,7.74c3.25,3.23,4.33,7.4,2.15,11.47c-3.2,5.99-7,11.66-11.16,18.49c0.93,4.1,11.58,3.31,8.89,11.36
			c2.52-0.25,5.48,0.35,6.93-0.86c5.57-4.64,10.81-9.71,15.88-14.91c3.5-3.58,10.26-5.11,14.67-2.71
			c12.28,6.69,13.97,19.53,4.37,29.47c-8.54,8.84-8.87,7.09,0.16,16.59c2.05,2.16,2.36,3.6,0.93,5.85
			c-0.09,0.14,0.21,0.53,0.38,0.94c1.05-0.28,2.11-0.57,3.13-0.85c0.72,1.39,1.35,2.61,1.78,3.43c5.21-4.69,10.24-9.21,14.94-13.44
			c-2.53-6.86-15.94-8.45-6.9-18.34c-6.02-6.59-5.75-10.58,0.89-16.51c1.74-1.55,3.3-3.33,5.17-4.69c6.8-4.94,11.35-3.55,13.2,2.75
			c2.97,1.15,6.44,1.39,7.21,2.96c4.48,9.17,8.64,18.54,12.24,28.09c1.55,4.11,1.69,8.81,2.06,13.27c0.24,2.87-0.29,5.81-0.52,9.43
			C603.64,252.14,604.82,252.57,606,253z M482.57,334.04c-0.35-0.89-0.69-1.79-1.04-2.68c0.83-1.79,1.25-3.97,2.54-5.32
			c11.23-11.73,22.56-23.37,34.01-34.88c1.4-1.41,3.71-1.91,4.83-2.45c1.86-2.63,3.3-4.95,5.02-7.05c1.79-2.18,4.13-3.95,5.64-6.28
			c0.7-1.09,0.49-3.3-0.14-4.61c-1.33-2.77-3.21-5.27-4.45-7.25c-2.62-0.47-5.4-1.05-8.2-1.42c-1.69-0.22-4.26-0.85-4.99-0.02
			c-3.39,3.84-6.86,7.03-13.05,5.78c3.62,3.66,2.29,5.55-0.94,7.5c-2.49,1.51-4.54,3.76-6.91,5.79c0.87,1.14,1.44,1.92,2.05,2.68
			c5.03,6.22,5.52,11.73,1.36,18.3c-0.63,0.99-2.24,1.36-3.39,2.01c-0.08-1.18-0.54-2.5-0.16-3.51c1.81-4.84-0.56-7.42-4.33-9.39
			c-4.16,2.37-4.51,8.87-9.01,8.65c-4.08,10.06-12.21,16.87-16.49,24.78c1.48,3.27,2.65,5.86,3.68,8.13
			C473.39,333.22,477.98,333.63,482.57,334.04z M479.96,235.9c-4.45-2.82-4.44-2.81-7.79,1.89c-2.88,4.04-5.8,8.05-8.7,12.05
			c-1.62-0.67-2.93-1.22-3.58-1.49c-0.19,2.61,0.1,4.98-0.62,6.97c-0.8,2.2-2.53,4.05-3.72,5.86c5.31,3.45,10.18,6.61,15.44,10.03
			c3.01-3.65,5.67-7.23,8.7-10.47c2.97-3.16,6.32-5.96,9.61-9.03c1.16-2.54,2.56-5.62,4.18-9.18c-1.69-2.95-8.49-3.33-6.04-10.6
			C484.26,233.62,482.12,234.75,479.96,235.9z M445.16,313.23c4.75-2.81,4.84-11.23,11.02-10.51c3.53-5.75,6.6-10.75,9.58-15.61
			c-2.1-1.85-4.15-3.65-5.52-4.85c-3.3-0.89-6.13-1.29-8.62-2.42c-2.45-1.11-3.73-0.9-5.29,1.42c-1.58,2.34-3.9,4.18-6.3,6.65
			c0,0.74,0.65,2.88-0.11,4.24C435.46,300.28,437.16,307.73,445.16,313.23z M517.56,325.27c-0.13-0.01-0.26-0.02-0.38-0.03
			c-5.18,4.9-10.35,9.79-15.53,14.69c0.37,0.47,0.73,0.93,1.1,1.4c5.66-1.54,11.32-3.08,17.47-4.75c0.46-0.9,0.9-3.43,2.34-4.32
			c5.64-3.46,4.32-8.91,5.8-15.17C523.9,320.47,520.73,322.87,517.56,325.27z"/>
	</g>
</g>
</svg>
