<?xml version="1.0" encoding="utf-8"?>
<!-- Generator: Adobe Illustrator 26.2.1, SVG Export Plug-In . SVG Version: 6.00 Build 0)  -->
<svg version="1.1" id="Layer_1" xmlns="http://www.w3.org/2000/svg" xmlns:xlink="http://www.w3.org/1999/xlink" x="0px" y="0px"
	 viewBox="0 0 960 560" style="enable-background:new 0 0 960 560;" xml:space="preserve">
<g>
	<g>
		<path d="M606,223c-1.12,0.65-2.22,1.82-3.37,1.87c-13.71,0.68-25.38,8.49-38.58,10.88c-5.85,1.06-11.63,2.51-17.51,3.27
			c-4.42,0.57-6.83,2.15-6.14,6.95c0.28,1.97,0.04,4.05,0.51,5.96c0.83,3.31,0.34,5.95-1.83,8.79c-2.07,2.71-3.89,6.12,1.11,8.51
			c0.95,0.45,1.32,2.58,1.54,3.99c1.18,7.4,2.5,14.79,3.18,22.24c0.25,2.78-0.67,5.9-1.83,8.53c-1.56,3.53-1.63,6.33,1.56,8.84
			c2.74,2.16,3.16,4.9,2.97,8.41c-0.69,12.29-0.83,24.61-1.27,36.92c-0.08,2.32-0.54,4.63-0.82,6.95c-0.72,0.14-1.45,0.28-2.17,0.42
			c-2.19-4.98-4.62-9.87-6.5-14.97c-1.71-4.63-2.73-9.5-4.2-14.22c-2.86-9.15-5.84-18.26-8.74-27.4c-1.05-3.32-1.72-6.8-3.11-9.97
			c-1.28-2.94-2.02-5.3,0.15-8.29c0.65-0.9-0.8-3.53-1.6-5.21c-0.69-1.45-2.62-2.68-2.63-4.01c-0.04-13.08-2.82-25.62-6.5-38.31
			c-5.36,0-10.48,0-15.76,0c-0.64-1.56-0.85-3.28-1.83-4.13c-0.94-0.82-3.65-1.34-3.89-0.95c-4.42,7.16-11.4,3.67-17.26,4.13
			c-6.04,0.47-12.15-0.14-18.22,0.03c-4.18,0.12-8.29,0.91-11.47-2.99c-1.69-2.07-3.67-1.76-5.47,0.33
			c-2.42,2.8-5.19,3.41-8.95,2.18c-2.65-0.87-5.81-0.17-8.66-0.17c-1.97,7.82-3.99,14.96-5.53,22.2
			c-2.53,11.86-5.02,23.75-6.98,35.71c-0.9,5.49-3.02,9.52-8.25,11.4c-2.72,0.98-3.43,2.67-2.44,4.97
			c2.97,6.88-0.12,12.69-2.2,19.11c-4.44,13.69-7.72,27.76-11.54,41.66c-0.69,2.53-1.66,4.99-2.5,7.48
			c-0.65-0.09-1.29-0.18-1.94-0.27c-0.3-4.01-0.92-8.02-0.81-12.02c0.15-5.32,1.04-10.61,1.31-15.92
			c0.97-18.75,1.78-37.52,2.73-56.27c0.26-5.18-0.58-10.54,3.42-15.09c1.13-1.29,0.78-4.05,0.75-6.14
			c-0.04-2.98-0.97-6.05-0.52-8.93c1.21-7.81,2.94-15.55,4.63-24.15c-5.34,1.39-7.9,0.13-6.13-5.88c-5.17,1.12-9.39,2.21-13.68,2.86
			c-1.41,0.21-3.48-0.24-4.41-1.2c-3.08-3.17-5.78-6.72-8.62-10.12c0-2.33,0-4.67,0-7c0.35-1.58,0.45-3.29,1.11-4.72
			c1.6-3.46,2.71-8.76,5.38-9.8c6.66-2.6,14.18-2.88,21.16-4.81c4.45-1.23,8.57-3.69,12.79-5.71c0.38-0.18,0.39-1.21,0.48-1.87
			c0.3-2.14,0.64-4.27,0.82-6.42c0.86-10.12,7.64-15.24,17.63-13.25c1.79,0.36,3.55,1.05,5.34,1.14
			c6.63,0.35,10.84,4.59,10.25,11.12c-0.43,4.74-1.79,9.4-2.21,14.13c-0.18,2.02,0.54,4.55,1.79,6.06c0.61,0.74,3.42-0.19,5.18-0.61
			c1.9-0.45,3.76-1.78,5.58-1.68c8.81,0.47,17.61,1.29,26.86,2.03c0.78,2.2,1.93,5.42,2.71,7.6c4.46-2.39,7.87-5.08,11.7-6.04
			c4.06-1.02,8.58-0.08,12.82-0.64c1.81-0.24,4.27-1.74,4.93-3.3c1.33-3.16,2.06-6.73,2.28-10.18c0.78-12.13,6.08-16.94,18.03-15.78
			c12.25,1.19,21.82,11.53,22.35,23.29c0.16,3.49,0.1,6.98,0.1,10.48c-0.01,6.5,4.29,9.27,10.77,7.72c4.56-1.09,9.38-1.51,14.09-1.5
			c12.69,0.03,25.37,0.45,38.06,0.72C606,222.33,606,222.67,606,223z"/>
		<path d="M465.63,292.75c-2.97,2.73-5.6,7.04-8.83,7.55c-2.94,0.47-6.54-3.17-9.67-4.9c-0.67,6.8-1.58,13.77-1.97,20.77
			c-0.36,6.26,1.86,11.63,6.64,15.94c2.71,2.45,5.09,5.14,4.27,9.47c-0.24,1.26,1.19,2.83,1.85,4.26c1.21-0.7,2.35-1.64,3.65-2.04
			c1.68-0.52,3.75-1.31,5.21-0.78c7.33,2.63,14.38,3.71,21.52-0.7c1.07-0.66,3.47-0.12,4.74,0.68c3.28,2.06,5.11,1.15,6.66-2.08
			c4.15-8.62,8.45-17.19,9.7-26.81c0.59-4.57,0.54-9.23,0.86-13.84c0.13-1.82,0.49-3.63,0.74-5.44c0.51-0.11,1.02-0.22,1.53-0.32
			c1.06,2.1,2.82,4.12,3.06,6.31c0.98,8.89,2.8,17.97,1.85,26.72c-1.26,11.63-9.12,19.94-18.47,26.68
			c-7.24,5.22-14.42,9.39-24.15,8.8c-6.61-0.4-13.52,1.58-20.06,3.36c-8.55,2.34-15.03-1.64-21.17-6.18
			c-4.62-3.42-8.62-7.75-12.57-11.98c-6.55-7.02-10.46-14.83-6.36-24.75c0.51-1.23-0.05-3.26-0.76-4.58
			c-3.79-7.05-5.53-14.19-2.09-21.92c2.56-5.74,4.83-11.61,7.58-17.25c2.82-5.79,7.45-9.68,13.77-11.41
			c2.17-0.59,3.8-1.51,2.44-4.21c-1.85-3.68,0.57-5.4,3.22-7.15c7.89-5.2,16.91-6.34,25.87-6c9.51,0.36,18.97,2.2,28.45,3.43
			c0.46,0.06,0.89,0.43,1.32,0.68c5.95,3.45,14.52,21.34,13.24,27.64c-2.14,10.55-11.56,18.99-22.8,20.11
			c-7.35,0.73-12.7-3.07-17.26-8.34c-0.43-0.5-0.87-1-1.36-1.44C466.08,292.83,465.71,292.78,465.63,292.75z"/>
	</g>
</g>
</svg>
