<?xml version="1.0" encoding="utf-8"?>
<!-- Generator: Adobe Illustrator 26.2.1, SVG Export Plug-In . SVG Version: 6.00 Build 0)  -->
<svg version="1.1" id="Layer_1" xmlns="http://www.w3.org/2000/svg" xmlns:xlink="http://www.w3.org/1999/xlink" x="0px" y="0px"
	 viewBox="0 0 960 560" style="enable-background:new 0 0 960 560;" xml:space="preserve">
<g>
	<g>
		<path d="M460,406c-4.54-24.33-4.61-48.51,1.23-72.74c2.19-9.1,1.64-18.86,3.86-27.95c3.96-16.21,5.38-33.26,14.39-48
			c0.91-1.49,1.21-3.35,1.76-4.95c-4.34-1.17-8.22-2.24-12.12-3.23c-0.91-0.23-1.92-0.42-2.82-0.27c-7.14,1.22-8.69-0.3-8.18-7.22
			c0.37-5,0.07-10.05-0.7-15.63c-0.69,1.79-1.34,3.6-2.1,5.36c-0.52,1.21-1.15,2.39-1.82,3.53c-2.85,4.8-7,9.27-8.28,14.45
			c-1.57,6.37-0.9,13.32-0.93,20.03c-0.02,4.98,0.49,9.96,0.56,14.94c0.05,3.87,2.19,4.44,5.26,3.69c3.02-0.73,6.01-1.62,9.01-2.44
			c0.25,0.48,0.5,0.95,0.75,1.43c-3.42,2.25-6.59,5.18-10.33,6.56c-3.79,1.4-4.67,3.45-4.52,7.01c0.09,2.07-0.54,4.17-1.77,6.36
			c-1.14-2.51-2.27-5.03-3.26-7.22c-10.47-0.62-20.68-1.95-29.46-7.78c-2.77-1.84-4.53-5.56-6.13-8.73
			c-1.78-3.54-3.18-7.35-4.13-11.2c-0.53-2.14-0.68-5.29,0.51-6.74c2.74-3.33,3.91-8.31,9.95-8.64c6.56-0.35,9.39,2.37,7.37,8.76
			c-0.3,0.94-0.67,1.85-1.02,2.82c6.23,1.1,5.85,6.96,7.73,10.92c2.15,4.54,5.37,7.13,11.16,9.55c-2.4-9.21-4.46-17.11-6.51-25.01
			c-0.53-2.06-1.14-4.11-1.5-6.2c-0.69-4.03-1.29-8.09-1.77-12.15c-0.17-1.45-0.2-3.06,0.26-4.41c3.12-9.25,6.36-18.47,9.68-27.65
			c0.27-0.76,1.53-1.11,2.18-1.79c1.13-1.2,3.06-2.51,3.06-3.78c0-6.47,4.88-7.8,9.38-9.64c0.46-0.19,1.12-0.06,1.44-0.35
			c3.95-3.6,8.49-5.36,13.89-5.51c1.06-0.03,2.57-2.39,2.99-3.91c2.17-7.79,3.7-15.79,6.25-23.45c0.79-2.38,3.82-4.42,6.29-5.73
			c2.86-1.52,6.23-2.08,9.38-3.06c1,0,2,0,3,0c3.04,9.54,8.64,18.98,1.04,28.91c-0.8,1.05-1.43,2.25-2.07,3.41
			c-1.83,3.36-0.47,5.56,3.22,6.56c7.71,2.09,15.25,5.73,19.21,12.51c10.36,17.73,15.51,36.52,7.1,56.88
			c-1.83,4.42-2.73,9.24-3.91,13.92c-0.48,1.89-0.54,3.88-0.94,6.97c3.57-1.78,6.48-2.85,8.99-4.54
			c8.21-5.52,17.37-9.99,21.28-20.21c1.37-3.57,7.48-3.19,9.43,0.4c3.26,6,5.44,11.32,1.35,18.82c-2.8,5.13-5.1,7.19-10.47,7.85
			c-2.9,0.35-5.85,2.35-8.26,4.26c-3.27,2.59-6.04,3.45-9.24-0.56c-3.41,4.25-7.82,4.43-12.58,3.31c-3.55-0.83-6.23,0.42-7.58,3.88
			c-1.34,3.4-2.39,6.92-3.81,10.29c-0.77,1.84-2.02,3.48-3.05,5.21c-0.42-0.16-0.84-0.31-1.26-0.47c1.16-5.89,2.32-11.78,3.53-17.93
			c-3.2-0.7-6.31-1.37-10.21-2.22c3.89-0.99,6.95-1.44,9.71-2.61c1.18-0.5,2.22-2.4,2.49-3.83c2.99-15.5,1.13-30.91-2.1-46.07
			c-1.35-6.33-4.92-12.19-7.53-18.37c-6.63,3.3-9.33-6.55-16.87-4.75c-1.56,4.26-3.5,9.57-5.96,16.28c3.11-0.34,5.14-0.17,6.86-0.83
			c7.82-2.96,14.46,2.31,13.8,10.52c-0.29,3.62,0.27,7.83,1.96,10.95c1.84,3.41,1.43,6.22,0.71,9.5c-0.83,3.79-1.06,7.73-2.1,11.45
			c-1.15,4.11-2.43,8.33-4.53,12c-8.46,14.78-15.66,30.08-20.27,46.51c-2.58,9.18-5.3,18.34-7.27,27.65
			c-1.16,5.44-0.95,11.16-1.4,16.75c-0.74,9.2-1.51,18.39-2.27,27.59C460.67,406,460.33,406,460,406z"/>
	</g>
</g>
</svg>
