<?xml version="1.0" encoding="utf-8"?>
<!-- Generator: Adobe Illustrator 26.2.1, SVG Export Plug-In . SVG Version: 6.00 Build 0)  -->
<svg version="1.1" id="Layer_1" xmlns="http://www.w3.org/2000/svg" xmlns:xlink="http://www.w3.org/1999/xlink" x="0px" y="0px"
	 viewBox="0 0 960 560" style="enable-background:new 0 0 960 560;" xml:space="preserve">
<g>
	<g>
		<path d="M356,270c0.62-3.08,1.01-6.22,1.89-9.22c1.77-6.01,3.78-11.96,5.75-17.91c0.31-0.93,1.08-1.71,1.36-2.65
			c0.75-2.49,0.62-6.51,2.14-7.26c4.69-2.3,9.91-4.15,15.08-4.68c5.86-0.6,8.81,4.49,11.84,8.71c2.65,3.7-0.03,6.44-1.97,8.84
			c-3.45,4.27-7.51,8.04-11.16,12.15c-1.17,1.32-2.16,2.96-2.74,4.63c-1.33,3.88-2.42,7.85-3.51,11.81
			c-3.19,11.54-6.77,22.66,3.33,33.46c5.89,6.3,9.49,14.73,14.23,22.12c2.33,3.63,4.91,7.09,6.93,11.4
			c-2.77-1.86-5.65-3.58-8.28-5.61c-7.58-5.87-15.07-11.86-22.58-17.83c-0.62-0.49-1.39-1.04-1.64-1.73
			c-2.99-8.19-5.9-16.4-8.81-24.61c-0.66-1.86-1.26-3.75-1.89-5.62C356,280.67,356,275.33,356,270z"/>
		<path d="M574.94,296.84c2.48-7.68,5-15.34,7.4-23.05c0.2-0.64-0.09-1.78-0.57-2.24c-4.63-4.42-3.52-9.97-3.39-15.45
			c0.14-6.08-0.26-12.17-0.19-18.25c0.02-1.71,0.38-3.76,1.37-5.05c6.1-7.96,18.89-7.48,24.78,0.76c0.57,0.8,1.11,1.63,1.66,2.44
			c0,2.33,0,4.67,0,7c-1.06,3.48-3.06,6.98-3,10.44c0.23,12.77-4.23,24.14-9.53,35.3c-3.55,7.46-7.36,14.81-11.31,22.07
			c-6.51,11.97-14.26,22.86-26.96,29.13c-1.55,0.76-3.1,1.53-4.92,1.92c11.87-11.47,16.48-26.69,22.37-41.21
			C573.42,299.38,574.18,298.11,574.94,296.84z"/>
		<path d="M574.94,296.84c-0.76,1.27-1.52,2.54-2.28,3.82c-10.37,13.95-23.3,23.63-41.44,23.96c-3.46,0.06-7.08-1-10.38-2.2
			c-3.59-1.31-6.79-1.99-10.47-0.2c-9.7,4.72-20.14,5.99-30.8,7.06c-7.07,0.71-13.3-0.2-19.46-3.19c-1.62-0.79-3.12-1.84-5.02-2.98
			c-3.75,4.91-9.44,5.61-15.38,5.86c-2.97,0.13-6.05,0.36-8.84,1.27c-5.88,1.91-10.47-1-15.39-3.22
			c-12.9-5.83-22.94-14.34-28.62-27.76c-2.66-6.28-3.13-12.26-2.16-18.91c1.79-12.29,4.03-24.73,12.36-34.06
			c6.36-7.12,14.6-13.05,22.99-17.73c7.8-4.35,16.91-6.35,25.44-9.39c6.35-2.27,8.87-1.31,12.49,4.27
			c2.52,3.89,5.36,7.58,8.05,11.35c10.55-7.1,22.04-11.16,34.08-13.41c6.04-1.13,8.63,1.4,10.32,7.46c0.77,2.78,2.04,5.42,2.75,7.26
			c3.83-2.4,6.89-5.08,10.46-6.41c11.79-4.42,23.73-7.45,36.33-2.46c7.04,2.79,10.74,8.8,14.82,14.34c1.19,1.62,0.95,5.71-0.32,7.44
			c-3.39,4.61-7.3,9.05-11.76,12.59c-3.14,2.49-6.07-0.32-8.34-3.01c-2.23-2.65-4.51-5.3-7.05-7.64c-3.86-3.56-8.11-3.26-12.32-0.5
			c-1.53,1-3.24,1.88-4.46,3.19c-2.53,2.72-5.15,3.4-8.49,0.69c-2.06,2.74-3.93,5.22-5.79,7.71c-1.09,1.46-1.89,3.69-3.33,4.24
			c-5.42,2.07-6.01,6.57-6.46,11.26c-0.52,5.45-1.29,10.91-1.29,16.36c0,4.66,1.05,8.58,7.07,10.09c3.35,0.84,5.87,4.98,8.98,7.83
			c0.99-0.65,2.04-1.35,3.82-2.52c-1.01,1.88-1.65,3.07-2.26,4.21c7.53,7.49,15.93,5.25,24.31,2.77c7.57-2.24,13.21-6.92,18.13-13.1
			C567.48,300.28,571.64,298.89,574.94,296.84z M498.14,254.47c-2.95,0.83-4.96,1.34-6.94,1.95c-3.8,1.17-7.52,2.84-11.4,3.52
			c-9.32,1.63-25,15.3-25.46,24.7c-0.44,8.94,1.49,18.04,2.79,27.01c0.43,2.98,2.58,4.04,5.5,1.86c3.86-2.87,7.76-5.7,11.86-8.2
			c2.13-1.29,4.72-1.82,7.11-2.69c-1.65,2.29-2.96,4.96-5.02,6.79c-3.02,2.69-6.57,4.78-10.18,7.33
			c11.57,6.97,34.77,6.69,41.11,0.24c-12.18-5.33-12.88-17.26-15.43-27.83C489.24,277.38,494.95,266.7,498.14,254.47z
			 M447.47,251.79c-6.67,2.35-11.88,3.58-16.48,5.96c-6.44,3.33-12.55,7.36-18.55,11.45c-2.15,1.46-4.38,3.71-5.17,6.07
			c-1.95,5.79-3.59,11.78-4.42,17.82c-0.86,6.24,0.31,12.45,6.17,16.21c5.54,3.56,11.3,6.86,17.24,9.69
			c6.76,3.22,13.92,2.67,21.25,1.3C430.62,297.75,427.45,275.46,447.47,251.79z"/>
	</g>
</g>
</svg>
