<?xml version="1.0" encoding="utf-8"?>
<!-- Generator: Adobe Illustrator 26.2.1, SVG Export Plug-In . SVG Version: 6.00 Build 0)  -->
<svg version="1.1" id="Layer_1" xmlns="http://www.w3.org/2000/svg" xmlns:xlink="http://www.w3.org/1999/xlink" x="0px" y="0px"
	 viewBox="0 0 960 560" style="enable-background:new 0 0 960 560;" xml:space="preserve">
<g>
	<g>
		<path d="M460,406c-6.17-5.37-5.21-18.13,1.99-22.71c-1.31-1.06-2.53-2.05-4.32-3.5c2.69-3.95,5.33-7.82,8.22-12.06
			c3.5,5.55,6.66,10.28,9.43,15.22c0.56,1-0.36,2.83,0.48,3.79c1.3,2.33,3.62,4.66,3.64,7c0.02,2.52-1.54,5.68-3.45,7.42
			c-2.45,2.22-5.94,3.28-8.98,4.84C464.67,406,462.33,406,460,406z"/>
		<path d="M491,156c4.97,5.2,3.63,19.41-1.54,23.83c0.46,0.14,0.93,0.29,1.39,0.43c-0.45,2.49-0.27,5.35-1.47,7.39
			c-3.82,6.48-8.15,12.65-12.27,18.92c0.88-9.41,1.49-18.32,2.62-27.16c0.65-5.08,2.08-9.88-2.39-14.2
			c-1.91-1.84,1.27-6.08,4.99-7.17c1.62-0.48,3.12-1.35,4.68-2.04C488.33,156,489.67,156,491,156z"/>
		<path d="M439.47,338.32c-7.03-6.16-7.4-17.3-1.22-23.68c-4.27-3.78-4.28-8.36,0.46-14.63c6.13-8.11,17.02-12.94,27.38-4.71
			c4.72,3.75,5.92,7.57,3.57,15.15c-1.51,4.86-5.94,3.72-9.69,4.48c-0.78-2.36-1.48-4.49-2.28-6.92c-8,3.32-5.37,11.25-8.09,17.1
			c4.67-0.74,4.73,2.59,5.61,5.85c0.89,3.3,2.86,6.32,5.2,9.04c-0.16,2.26-0.32,4.52-0.48,6.78c0.37,0.19,0.74,0.38,1.1,0.57
			c0.95-1.11,2.35-2.08,2.75-3.36c1.35-4.32,3.71-3.39,6.43-1.6c7.6,5.01,7.59,5,10.92-3.79c0.26-0.69,0.86-1.51,1.5-1.75
			c10.28-3.89,13.89-12.2,14.59-22.31c2.71-0.79,5.16-1.5,7.01-2.03c-0.18-3.62-0.1-6.61-0.53-9.52
			c-0.93-6.37-2.18-12.69-3.19-19.06c-1.21-7.63-7.15-12.29-11.2-18.13c-2.13-3.07-6.24-5.64-1.94-10.12
			c-10.59-4.88-8.59-14.9-8.83-23.15c-0.24-8.21,1.52-16.65,3.53-24.71c2.36-9.45,7.72-17.54,14.78-24.52
			c-2.56,6.14-5.08,12.3-7.7,18.41c-2.73,6.37-3.52,12.82-1.9,19.67c0.42,1.79-0.7,3.95-0.99,5.34c0.82,2.16,1.44,4,2.21,5.78
			c1.96,4.54,3.6,9.3,6.13,13.51c1.88,3.13,4.63,5.62,0.55,10.41c5.94-1.65,8.41,0.34,10.13,4.36c1.15,2.69,3.31,4.94,4.94,7.44
			c2.72,4.18,6.07,8.36-0.74,13.81c7.53-1.21,8.01,3.25,8.95,7.23c1.89,8,3.84,15.83-2.4,23.26c-1.56,1.85-0.13,5.93-1.14,8.57
			c-3.57,9.29-9.03,17.54-16.71,23.86c-6.68,5.49-13.77,10.6-21.19,15.04c-7.41,4.44-15.48,4.46-23.37,0.46
			c-0.71-0.36-1.98-0.7-2.41-0.35c-3.42,2.79-5.66,0.55-7.49-1.88C439.29,352.35,434.35,346.47,439.47,338.32z"/>
		<path d="M445.52,257.65c-2.2,6.04-5.4,13.02-12.24,18.32c-3.11,8.52-6.41,17.59-10.05,27.57c0.49,4.48,1.15,10.45,1.79,16.42
			c0.05,0.49,0.21,1.2-0.04,1.47c-4.89,5.1-0.32,9.66,0.76,14.41c1.21,5.35,2.37,10.71,3.72,16.02c0.92,3.64,2.13,7.21,2.74,11.19
			c-2.62-3.31-5.27-6.61-7.86-9.94c-3.15-4.05-6.46-8-9.31-12.25c-1.1-1.64-1.16-3.99-1-6.25c-6.23-8.82-7.78-25.17-2.13-31.62
			c-7.04-5.78-2.33-12.53-1.16-18.8c0.75-4,2.5-8.08,4.79-11.45c2.06-3.04,6.75-4.69,7.93-7.83c1.35-3.6,0.53-7.91,5.27-9.72
			c0.62-0.23,1.13-1.59,1.14-2.43c0.06-11.13,12.93-20.76,23.77-17.7c5.33,1.51,7.87,8.87,4.54,13.16
			c-1.43,1.84-2.54,4.12-4.35,5.43C451.55,255.31,448.7,256.18,445.52,257.65z"/>
		<path d="M546.22,307.43c0.31,1.85,1.45,4.08,0.8,5.49c-3.6,7.82-7.5,15.52-11.63,23.07c-0.71,1.3-3.07,1.7-4.68,2.52
			c-0.08,6.01-19.23,26.14-28.33,29.06c1.07-1.38,1.72-2.11,2.26-2.92c3.57-5.34,7.11-10.7,10.68-16.04
			c1.09-1.64,1.88-3.79,3.4-4.78c5.83-3.78,8.14-9.4,9.17-15.85c0.1-0.66-0.06-1.8,0.23-1.92c6.5-2.63,3.23-9.3,5.66-13.63
			c3.13-5.58,1.79-11.59,1.08-17.57c-0.57-4.86-2.71-10.32,3.25-13.83c0.52-0.31,0.68-2.46,0.48-2.55
			c-1.33-0.59-2.81-0.84-4.75-1.34c2.23-7.1-8.92-13.79-0.59-21.76c-7.58-1.17-9.74-3.48-9.88-9.93c-0.13-6.3,3.9-11.08,9.97-12.37
			c10.6-2.25,15.62,1.78,16.22,7.52c0.7,6.68,2.63,13.36,0.59,20.51c-1.45,5.08-1.62,10.93,1.67,16.3c1.27,2.08,0.48,5.66,0.07,8.48
			c-0.35,2.37-1.68,4.59-2.24,6.95c-0.61,2.57-0.46,5.37-1.36,7.81c-0.82,2.22-2.59,4.1-3.94,6.12
			C544.97,307,545.6,307.21,546.22,307.43z"/>
		<path d="M464.96,269.35c-1.59-9.5,5.75-14.34,9.14-22.28c1.36,7.17,2.36,12.97,3.61,18.72c0.37,1.69,1.23,3.35,2.15,4.84
			c2.29,3.72,0.45,10.28-4.14,14.25c-3.69,3.2-9.68,3.4-12.9,0.45c-2.55-2.34-2.25-11.51,0.49-14.47
			C463.98,270.14,464.76,269.53,464.96,269.35z"/>
		<path d="M475.24,192.18c-1.65,9.84-3.27,19.49-4.88,29.14c0.23-0.05,0.47-0.11,0.7-0.16c0,7.73,0,15.45,0,23.18
			c-0.44,0.11-0.88,0.22-1.32,0.33c-1.9-5.49-9.28-8.67-6.04-16.34c-3.44-2.39-2.52-5.84-1.52-8.73
			C465.55,209.97,468.85,200.23,475.24,192.18z"/>
	</g>
</g>
</svg>
