<?xml version="1.0" encoding="utf-8"?>
<!-- Generator: Adobe Illustrator 26.2.1, SVG Export Plug-In . SVG Version: 6.00 Build 0)  -->
<svg version="1.1" id="Layer_1" xmlns="http://www.w3.org/2000/svg" xmlns:xlink="http://www.w3.org/1999/xlink" x="0px" y="0px"
	 viewBox="0 0 960 560" style="enable-background:new 0 0 960 560;" xml:space="preserve">
<g>
	<g>
		<path d="M446,406c-8.94-4.64-17.96-9.13-26.79-13.98c-5.05-2.78-8.52-6.84-7.65-13.27c0.11-0.85-0.2-2.02-0.75-2.65
			c-6.66-7.51-2.63-16.24-2.77-24.46c-0.01-0.88,1.12-2.08,2.02-2.63c4.34-2.68,8.8-5.15,13.16-7.79c0.91-0.55,1.86-1.31,2.34-2.22
			c3.81-7.12,7.67-7.95,15.88-8.63c6.72-0.56,11.92,1.48,17.11,4.46c2.04,1.17,4.13,3.69,4.59,5.92
			c1.34,6.53-4.63,17.05-10.66,19.99c-4.52,2.2-8.35,1.15-11.11-3.13c-0.9-1.4-1.34-3.29-2.55-4.23c-1.84-1.43-4.23-3.15-6.26-3
			c-1.6,0.12-3.59,2.63-4.39,4.51c-2.59,6.08-2.16,12.43,0,18.53c1.53,4.34,4.03,7.94,9.27,8.77c1.31,0.21,2.18,2.41,3.55,3.12
			c3.25,1.69,6.65,3.13,10.06,4.46c0.82,0.32,2.01-0.42,2.94-0.23c12.23,2.47,18.53-6.83,25.87-13.45c5.55-5,6.68-12.05,5.32-19.37
			c-0.15-0.81-0.11-2.05-0.6-2.35c-6.08-3.65-6.95-10.39-8.91-16.1c-2.2-6.41-7.92-9.35-11.59-14.24
			c-7.54-10.05-13.12-21.09-17.8-32.54c-2.2-5.37-2.24-11.64-3.09-17.53c-0.79-5.39-2.03-10.84-1.84-16.21
			c0.2-5.57,1.3-11.27,3.04-16.58c3.84-11.66,7.42-23.55,12.85-34.48c4.18-8.42,10.88-15.62,16.73-23.15
			c3.64-4.69,7.3-9.56,11.81-13.31c5.4-4.48,11.71-7.86,17.62-11.73c1.22-0.8,2.4-1.67,3.6-2.5c1,0,2,0,3,0
			c-5.18,3.81-10.59,7.35-15.49,11.49c-7.88,6.65-13.67,14.88-17.79,24.44c-1.75,4.05-5.53,7.2-7.36,11.23
			c-3.49,7.67-6.25,15.68-9.31,23.55c-0.06,0.15-0.12,0.34-0.08,0.49c2.45,8.35-4.36,14.45-5.31,21.83
			c-0.88,6.81-0.45,13.84-0.06,20.74c0.38,6.63,0.54,13.51,2.5,19.74c1.64,5.21,5.64,9.72,8.8,14.4
			c3.88,5.76,7.91,11.43,11.98,17.05c1.54,2.13,3.09,4.44,5.16,5.97c12.12,8.96,19.12,28.63,14.98,43.17
			c-1.17,4.1-2.19,8.42-7.34,9.81c-0.91,0.25-1.44,2.25-1.97,3.51c-0.98,2.34-1.31,5.14-2.81,7.05
			c-6.4,8.12-14.94,12.84-25.14,14.57c-0.95,0.16-1.84,0.63-2.76,0.96C454,406,450,406,446,406z"/>
		<path d="M555.52,182.55c-6.21-2.5-11.21-4.56-16.25-6.53c-5.07-1.98-9.77-0.36-14.45,1.6c-3.1,1.29-6.3,2.32-9.3,3.41
			c-2.37,5.54-5.15,11.56-7.51,17.74c-1.14,3-1.64,6.27-2.13,9.47c-0.62,4.04-0.99,8.13-1.35,12.21c-0.1,1.1-0.16,2.61,0.46,3.3
			c5.73,6.31,11.59,11.91,20.46,14.48c11.24,3.25,19.86-1.06,29.39-5.93c-2.85,3.31-5.19,7.35-8.65,9.81
			c-9.71,6.89-20.21,10.96-32.76,10.43c-11.42-0.48-19.81-6.23-28.24-12.33c-2.61-1.89-4.55-5.48-5.53-8.68
			c-3.05-10.03-5-20.3-2.7-30.86c0.21-0.97,0.17-2.09,0.66-2.9c7.06-11.7,12.84-24.53,26.89-30.05c8.68-3.41,17.35-6.51,26.81-7.1
			c7.75-0.48,13.68,2.28,17.66,8.79C551.29,173.2,552.98,177.39,555.52,182.55z"/>
	</g>
</g>
</svg>
