<?xml version="1.0" encoding="utf-8"?>
<!-- Generator: Adobe Illustrator 26.2.1, SVG Export Plug-In . SVG Version: 6.00 Build 0)  -->
<svg version="1.1" id="Layer_1" xmlns="http://www.w3.org/2000/svg" xmlns:xlink="http://www.w3.org/1999/xlink" x="0px" y="0px"
	 viewBox="0 0 960 560" style="enable-background:new 0 0 960 560;" xml:space="preserve">
<g>
	<g>
		<path d="M423,406c-4.9-9.78-1.29-18.62,3.86-26.69c5.46-8.55,11.05-16.85,13.58-26.87c1.04-4.14,2.9-8.08,5.02-13.83
			c-6.02,1.81-10.86,3.13-15.59,4.73c-3.32,1.12-6.59,3.19-8.99-1.33c-0.31-0.57-0.75-1.19-0.75-1.79
			c-0.1-6.7,7.07-13.14,13.95-13.07c3.79,0.04,7.7-0.34,11.32-1.37c1.74-0.49,3.03-2.85,4.31-4.52c0.43-0.56,0.21-1.61,0.27-2.44
			c0.36-5.3,0.72-10.6,1.11-16.2c-6.34-0.76-11.99-3.5-18.63-0.9c-3.79,1.48-8.64,0.27-13.25,0.27c0.34-1.12,0.38-1.61,0.52-1.64
			c10.13-2.33,20.28-4.57,30.39-6.97c1.01-0.24,2.44-1.26,2.6-2.11c1.68-9.02,3.15-18.08,4.67-27.12c-0.47-0.5-0.93-1.01-1.4-1.51
			c-5.73,1.86-11.47,3.72-17.32,5.62c-2.41-4.6-3.73-8.15,0.23-12.84c5.79-6.85,5.27-7.17,13.75-5.43c1.05,0.22,3.47-1.29,3.57-2.2
			c0.8-6.91,1.19-13.86,1.77-21.67c-7.9,0-14.96,0-23.47,0c6.37-1.86,11.47-3.69,16.73-4.78c5.01-1.04,7.08-3.23,6.97-8.68
			c-0.09-4.59,1.92-9.19,2.43-13.84c0.4-3.64-0.08-7.38-0.13-11.08c-0.14-9.82-0.28-19.63-0.36-29.45
			c-0.01-0.75,0.55-1.51,0.85-2.26c0.33,0,0.67,0,1,0c2.79,10.41,5.63,20.81,8.34,31.25c0.45,1.71,0.61,3.58,0.47,5.34
			c-0.6,7.66-1.38,15.3-2.04,22.95c-0.05,0.6,0.31,1.24,0.63,2.41c4.66-1.26,9.16-2.48,14.59-3.94c0.48-9.22,0.59-18.91,1.58-28.51
			c1.03-9.88,2.91-19.68,4.43-29.51c0.33,0,0.67,0,1,0c0.76,8.44,1.77,16.88,2.21,25.34c0.33,6.28-0.11,12.6-0.16,18.91
			c-0.04,4.46-0.01,8.92-0.01,13.96c4.23-0.39,8.83-0.79,13.42-1.26c4.44-0.45,8.86-1.11,13.3-1.38c3.43-0.21,5.86,0.54,6.22,5.11
			c0.23,2.9,2.73,5.61,4.22,8.43c-3.49,1.16-6.58,2.24-9.71,3.2c-0.72,0.22-1.86,0.39-2.29,0c-7.52-6.76-15.66-2.19-24.06-1.81
			c0,7.64-0.15,14.9,0.16,22.14c0.05,1.06,2.15,2.69,3.5,2.92c13.17,2.26,26.37,4.27,39.57,6.35c-0.05,0.68-0.1,1.36-0.15,2.05
			c-2.32,0-4.65-0.02-6.97,0.01c-2.33,0.02-4.67,0.2-6.99,0.12c-8.12-0.3-16.11,3.12-24.35,0.69c-2.58-0.76-3.98,0.84-3.8,3.68
			c0.2,3.15,0.15,6.32,0.31,9.47c0.18,3.42,0.79,6.84,0.65,10.24c-0.15,3.63,1.06,5.36,4.77,5.11c4.8-0.33,9.65-0.33,14.41-0.98
			c9.88-1.37,12.96,1,13.76,10.9c0.14,1.76,1.04,3.45,1.59,5.19c-3.68,2.23-11.92,1.9-15.21-0.29c-1.51-1.01-3.5-1.47-5.34-1.77
			c-4.71-0.76-9.46-1.28-13.99-1.87c0.33,7.39,0.49,14.82,1.17,22.21c0.11,1.19,2.46,3.02,3.87,3.11
			c6.98,0.43,13.99,0.38,20.98,0.48c2.1,0.03,4.21,0,6.31,0c0.03,0.46,0.05,0.93,0.08,1.39c-4.59,0.66-9.19,1.24-13.76,2.02
			c-4.25,0.72-8.43,1.88-12.7,2.45c-3.57,0.47-4.38,3.09-4.29,5.61c0.24,6.65,0.53,13.37,1.76,19.88c0.75,3.98,3.23,7.65,5.02,11.42
			c1.75,3.67,3.38,7.42,5.52,10.86c1.36,2.19,4.08,3.61,5.2,5.87c1.16,2.33,2.23,5.7,1.36,7.81c-1.44,3.53-4,6.98-6.97,9.37
			c-1.69,1.36-6.16,1.71-7.58,0.47c-3.77-3.31-6.75-7.6-9.62-11.79c-0.75-1.1,0.02-3.25,0.12-4.91c0.07-1.29,0.65-2.78,0.21-3.85
			c-5.68-13.93-6.57-28.69-7.81-43.41c-0.15-1.75-0.77-3.46-1.36-6.01c-7.17,1.13-13.96,2.03-20.66,3.39
			c-1.59,0.32-3.57,1.91-4.14,3.39c-1.6,4.16-2.48,8.59-3.77,12.87c-2.58,8.54-5.17,17.08-7.96,25.56
			c-0.48,1.47-1.93,2.63-2.39,3.23c1.6,8.78,0.14,16.52-2.62,24.14C435.67,406,429.33,406,423,406z M461.1,325.5
			c8.13,0,14.75,0,20.66,0c0-9.02,0-16.89,0-26.24c-5.67,0.28-10.65,0.54-15.97,0.8C464.26,308.38,462.79,316.34,461.1,325.5z
			 M465.82,262.98c0,9.59,0,18.16,0,26.78c4.67,0,9.3,0.23,13.88-0.16c1.1-0.09,2.92-2.25,2.9-3.43c-0.13-7.98-0.67-15.95-1.1-24.23
			C475.76,262.32,471.14,262.62,465.82,262.98z M483.23,228.74c-3.04-1.24-5.12-1.96-7.08-2.92c-2.81-1.38-7.17,0.8-7.26,4.01
			c-0.18,6.59-0.05,13.18-0.05,19.96c4.44,0.33,9.51,0.7,14.39,1.06C483.23,242.78,483.23,235.52,483.23,228.74z"/>
		<path d="M483.35,394.92c-2.76-2.72-5.45-5.9-8.72-8.25c-0.99-0.71-4.54,0.25-5.31,1.47c-2.72,4.27-5.13,8.83-6.9,13.57
			c-1.4,3.77-3.4,4.06-6.47,2.7c-5.67-2.52-7.25-5.74-6.01-12.13c2.02-10.48,6.73-14.59,17.2-15.02
			C476.05,376.88,484.48,386.57,483.35,394.92z"/>
	</g>
</g>
</svg>
