<?xml version="1.0" encoding="UTF-8" standalone="no"?>
<!-- Created with Inkscape (http://www.inkscape.org/) -->

<svg
   width="152.51872mm"
   height="86.783401mm"
   viewBox="0 0 152.51872 86.783404"
   version="1.1"
   id="svg8"
   xmlns="http://www.w3.org/2000/svg"
   xmlns:svg="http://www.w3.org/2000/svg"
   xmlns:rdf="http://www.w3.org/1999/02/22-rdf-syntax-ns#"
   xmlns:cc="http://creativecommons.org/ns#"
   xmlns:dc="http://purl.org/dc/elements/1.1/">
  <defs
     id="defs2" />
  <metadata
     id="metadata5">
    <rdf:RDF>
      <cc:Work
         rdf:about="">
        <dc:format>image/svg+xml</dc:format>
        <dc:type
           rdf:resource="http://purl.org/dc/dcmitype/StillImage" />
      </cc:Work>
    </rdf:RDF>
  </metadata>
  <g
     id="layer1"
     transform="translate(-38.349125,-92.411701)">
    <g
       id="g862"
       transform="matrix(2.5850067,0,0,2.5850067,-51.34664,-284.41259)">
      <path
         style="display:inline;fill:#d2242c;stroke-width:0.26458332"
         d="m 42.890661,170.27467 c -0.701202,-0.7012 -0.583018,-1.94845 0.377141,-3.98016 l 0.667804,-1.41308 0.0238,1.19063 c 0.0142,0.71082 0.235635,1.51049 0.549476,1.98437 0.656259,0.99092 0.671414,1.77363 0.04531,2.34024 -0.638746,0.57806 -0.989171,0.55236 -1.663531,-0.122 z m 49.464597,-3.7949 c -0.236855,-0.51984 -0.209124,-0.78389 0.137964,-1.31361 0.238924,-0.36464 0.434406,-0.92911 0.434406,-1.25438 0,-1.11608 0.537821,-0.0938 0.708406,1.3465 0.124037,1.04729 0.07286,1.45312 -0.205467,1.62934 -0.573747,0.36326 -0.755354,0.29438 -1.075309,-0.40785 z"
         id="path866" />
      <path
         style="display:inline;fill:#000000;stroke-width:0.26458332"
         d="m 60.374025,176.74443 c -0.687074,-3.01602 -1.077134,-4.02685 -1.809727,-4.68983 -0.973238,-0.88077 -1.758995,-0.39638 -2.738479,1.68819 -0.476245,1.01355 -0.959674,1.92651 -0.959674,1.92651 0,0 -2.444317,-3.95343 -2.839322,-5.43715 -0.539216,-2.02541 -0.475154,-5.37607 0.140612,-7.35452 0.414902,-1.82191 2.940058,-4.9336 2.940058,-4.9336 0,0 -0.291994,1.04955 -0.568054,1.77609 -1.085656,2.85722 -1.092025,8.06624 -0.01165,9.52694 0.636461,0.86051 1.634727,0.87144 2.05795,0.0225 0.175194,-0.3514 0.579408,-2.05414 0.898255,-3.78387 0.318847,-1.72972 0.688209,-3.15231 0.688209,-3.15231 0,0 0.284738,1.2341 0.500154,2.46824 0.770024,4.41156 1.763899,7.35581 2.483059,7.35581 0.39244,0 0.622038,-0.84768 0.788302,-2.91041 l 0.159949,-1.98438 h 1.190625 1.190625 l -0.03238,1.85363 c -0.01781,1.01949 -0.287954,2.78522 -0.600329,3.92385 -0.605732,2.20791 -2.689688,6.26106 -2.689688,6.26106 -0.112278,0.0154 -0.468151,-1.15055 -0.788503,-2.55679 z m 19.076498,1.47945 c -1.227074,-1.69393 -1.897137,-4.14769 -2.06166,-7.5498 -0.190801,-3.94545 0.05034,-5.71488 0.919636,-6.74798 l 0.687943,-0.81757 -0.48659,-0.90355 c -0.267626,-0.49695 -0.972756,-1.34995 -1.611458,-1.87332 -0.638701,-0.52337 -1.405684,-1.16229 -1.405684,-1.16229 0,0 3.92404,1.57287 5.932181,3.13942 2.810854,1.9844 4.740842,3.86483 6.189139,6.03022 l 1.308097,1.95576 0.187669,-1.50205 c 0.651002,-5.21044 -2.99281,-10.46665 -9.543626,-13.76672 -4.549598,-2.29192 -9.569786,-3.46697 -15.742709,-3.68482 -8.886024,-0.3136 -16.658895,1.31874 -24.804687,5.20911 -1.78263,0.85137 -3.51421,1.6128 -3.51421,1.6128 0,0 4.770431,-3.1014 6.892294,-4.10479 14.994026,-7.09043 36.432788,-5.11151 46.621784,4.30345 1.781585,1.64624 3.557572,3.72821 3.690007,4.33489 l 0.179376,0.65413 c 0,0 -0.581058,-0.69423 -0.758247,-0.92209 -0.507442,-0.65248 -2.093826,-1.91287 -2.432308,-1.91287 -0.119314,0 0.0778,0.44648 0.438023,0.99218 2.131052,3.22831 1.791322,9.80788 -0.724064,14.02292 -0.455917,0.76399 -1.007885,1.44194 -1.007885,1.44194 0,0 -0.444762,-1.12607 -0.858655,-2.42238 -0.413893,-1.29631 -1.264134,-3.23091 -1.889427,-4.29909 -1.086397,-1.8559 -3.232615,-4.17932 -3.860561,-4.17932 -0.616464,0 -1.850242,1.70159 -2.262826,3.12083 -0.559707,1.92533 -0.372988,5.86016 0.39125,8.24489 0.301125,0.93964 0.496878,1.90709 0.496878,1.90709 0,0 -0.520836,-0.50138 -0.96968,-1.12099 z m -10.269418,-1.89922 c -0.741196,-0.79442 -1.496067,-2.78367 -2.01879,-5.31997 -0.436184,-2.11641 -0.423543,-3.10228 -0.393083,-3.65227 0,0 0.857405,-0.0238 1.546051,-0.0238 0.861857,0 1.274255,-0.0373 1.274255,-0.0373 -0.0534,0.32583 -0.114969,0.48027 -0.217674,0.93101 -0.628145,1.4269 0.39955,4.46425 1.604952,4.46425 0.542634,0 1.665036,-1.40412 2.378019,-2.97488 0.622708,-1.37189 0.647025,-1.89017 0.113702,-2.4235 -0.345175,-0.34517 -0.164928,-0.26796 -5.12187,-0.25903 -6.007854,0.0108 -8.81102,-0.70116 -9.204843,-1.22674 -0.09486,-0.13802 -0.118249,-0.23835 -0.118249,-0.23835 0,0 0.173452,0.0219 0.464302,0.10317 3.450276,1.38281 12.982495,-0.34745 14.497214,-2.85193 0.229989,-0.38027 0.185859,-0.55543 -0.214934,-0.85313 -0.702488,-0.52179 -2.993168,-1.15458 -4.901706,-1.35406 -1.541129,-0.16108 -1.605409,-0.1438 -1.605409,0.43164 0,0.32969 0.383367,1.29679 0.851929,2.1491 0.506485,0.92129 0.62908,1.81979 0.62908,1.81979 -0.232233,0.18328 -0.647801,0.26942 -1.418459,0.45347 l -1.059858,0.14216 -0.536799,-1.43473 c -0.719432,-1.92285 -1.266333,-4.85392 -1.266333,-4.85392 0,0 1.638107,-0.2694 2.848565,-0.36322 l 2.200833,-0.17059 -1.5875,-0.84012 c -0.794167,-0.50155 -1.481437,-0.93008 -1.481437,-0.93008 1.661082,0.1489 8.712423,3.09477 10.47727,4.64767 1.334932,1.17462 1.166879,1.54764 -1.272804,2.82517 -0.972654,0.50932 -1.768785,1.01534 -1.769182,1.12448 -5.29e-4,0.10914 0.520481,0.19843 1.157507,0.19843 1.406396,0 1.828078,0.41191 1.510808,1.47581 -0.730242,2.44869 -3.272409,7.01948 -4.793247,8.61821 -1.106622,1.16331 -1.778619,1.27385 -2.572313,0.42317 z M 42.47768,175.86327 c -1.26525,-0.93047 -2.814536,-3.09561 -3.385496,-4.73125 -0.222277,-0.63676 -0.404139,-1.89218 -0.404139,-2.78983 0,-1.37401 0.135973,-1.85635 0.859896,-3.05037 0.472942,-0.78006 1.266627,-1.72729 1.763745,-2.10496 l 0.903849,-0.68668 -0.655515,1.05833 c -2.065186,3.33427 -1.84478,6.66076 0.576306,8.69797 1.171392,0.98566 2.135451,0.90757 3.449283,-0.2794 2.892217,-2.61294 3.077199,-6.8478 0.415387,-9.50962 -2.552791,-2.55279 -6.125435,-1.9839 -9.892639,1.57526 -0.72331,0.56961 -1.409892,1.09585 -1.409892,1.09585 0,0 0.09832,-0.54747 0.267689,-1.00425 0.916988,-2.41186 5.355928,-5.19067 9.492835,-5.94257 0.809988,-0.14722 2.426746,-0.42103 2.426746,-0.42103 0,0 -1.312566,0.62833 -1.761925,0.89306 -1.068317,0.61893 -0.719121,0.79375 1.249178,0.79375 1.610595,0 1.949757,0.0856 2.493882,0.62978 0.842567,0.84256 1.463719,3.04498 1.458931,5.17293 -0.0083,3.67998 -1.504262,7.59463 -3.813308,9.97859 -1.646502,1.69992 -2.411474,1.81832 -4.034813,0.6245 z m 19.493698,-12.14459 c 0,-2.44633 -0.771158,-4.78489 -1.836764,-6.7086 -0.461238,-0.83266 -0.864515,-1.52986 -0.864515,-1.52986 0,0 0.845122,0.68963 1.40158,1.39757 1.461605,1.8595 3.229842,5.89275 3.781731,8.20208 0.06676,0.27935 0.101175,0.48286 0.06488,0.59611 0,0 -0.414348,0.13149 -1.218951,0.13149 h -1.327957 z"
         id="path864" />
      <g
         aria-label="ONE WORLD BY NIGHT"
         transform="translate(-0.13961477,-1.0586277)"
         style="font-style:normal;font-variant:normal;font-weight:bold;font-stretch:normal;font-size:3.96875px;line-height:1.25;font-family:Arial;-inkscape-font-specification:'Arial Bold';letter-spacing:0.79374999px;word-spacing:-0.59531248px;display:inline;fill:#d2242c;fill-opacity:1;stroke:none;stroke-width:0.26458332"
         id="text870">
        <path
           d="m 37.159911,155.35477 q -0.211976,-0.37881 -0.242513,-0.69926 -0.02143,-0.23671 0.03978,-0.46861 0.0629,-0.23283 0.196395,-0.40302 0.176793,-0.22773 0.479499,-0.39712 0.547916,-0.30661 1.066198,-0.15028 0.519974,0.15537 0.858756,0.76079 0.335943,0.60034 0.199772,1.12289 -0.137118,0.52085 -0.683342,0.82652 -0.552988,0.30944 -1.067687,0.15555 -0.515646,-0.15558 -0.846858,-0.74746 z m 0.506321,-0.30554 q 0.235633,0.42108 0.552185,0.53041 0.315604,0.10763 0.614928,-0.0599 0.299324,-0.16749 0.370236,-0.4892 0.07166,-0.32434 -0.169655,-0.75557 -0.238473,-0.42615 -0.543528,-0.53081 -0.303364,-0.1056 -0.612835,0.0676 -0.30947,0.17317 -0.379637,0.49224 -0.07111,0.31737 0.168306,0.74522 z"
           style="font-style:normal;font-variant:normal;font-weight:bold;font-stretch:normal;font-size:3.96875px;line-height:1.25;font-family:Arial;-inkscape-font-specification:'Arial Bold';letter-spacing:0.79374999px;word-spacing:-0.59531248px;fill:#d2242c;fill-opacity:1;stroke-width:0.26458332"
           id="path903" />
        <path
           d="m 41.358344,154.66411 -1.205875,-2.57228 0.505333,-0.2369 1.858064,1.22424 -0.805288,-1.71778 0.482523,-0.2262 1.205875,2.57228 -0.521125,0.2443 -1.823353,-1.19129 0.786368,1.67743 z"
           style="font-style:normal;font-variant:normal;font-weight:bold;font-stretch:normal;font-size:3.96875px;line-height:1.25;font-family:Arial;-inkscape-font-specification:'Arial Bold';letter-spacing:0.79374999px;word-spacing:-0.59531248px;fill:#d2242c;fill-opacity:1;stroke-width:0.26458332"
           id="path905" />
        <path
           d="m 44.69229,153.16471 -0.994687,-2.66108 1.973124,-0.73754 0.168269,0.45017 -1.435824,0.5367 0.220514,0.58994 1.335988,-0.49938 0.167591,0.44835 -1.335989,0.49938 0.270724,0.72427 1.48665,-0.5557 0.16759,0.44836 z"
           style="font-style:normal;font-variant:normal;font-weight:bold;font-stretch:normal;font-size:3.96875px;line-height:1.25;font-family:Arial;-inkscape-font-specification:'Arial Bold';letter-spacing:0.79374999px;word-spacing:-0.59531248px;fill:#d2242c;fill-opacity:1;stroke-width:0.26458332"
           id="path907" />
        <path
           d="m 49.57263,151.53209 -1.335759,-2.59742 0.570255,-0.13993 0.880995,1.79314 0.03932,-2.01898 0.662475,-0.16257 0.956599,1.80851 -0.04946,-2.03111 0.560845,-0.13763 0.007,2.92347 -0.590957,0.14502 -1.055723,-1.92785 -0.0415,2.1971 z"
           style="font-style:normal;font-variant:normal;font-weight:bold;font-stretch:normal;font-size:3.96875px;line-height:1.25;font-family:Arial;-inkscape-font-specification:'Arial Bold';letter-spacing:0.79374999px;word-spacing:-0.59531248px;fill:#d2242c;fill-opacity:1;stroke-width:0.26458332"
           id="path909" />
        <path
           d="m 53.262897,149.25337 q -0.06989,-0.42842 0.01083,-0.74004 0.06069,-0.22981 0.197401,-0.42686 0.138628,-0.19736 0.322208,-0.31174 0.243929,-0.15367 0.586282,-0.20952 0.619677,-0.10109 1.05343,0.22282 0.435665,0.32359 0.547359,1.00829 0.110759,0.67897 -0.195659,1.12362 -0.306731,0.44273 -0.924496,0.5435 -0.625415,0.10202 -1.056631,-0.21836 -0.431528,-0.32231 -0.540727,-0.99171 z m 0.580219,-0.11429 q 0.07769,0.47624 0.337882,0.68708 0.259882,0.20893 0.59841,0.15371 0.338528,-0.0552 0.515026,-0.33338 0.1781,-0.28038 0.09854,-0.76808 -0.07862,-0.48198 -0.329607,-0.68451 -0.249072,-0.20284 -0.599075,-0.14574 -0.350003,0.0571 -0.524901,0.33302 -0.175211,0.27402 -0.09628,0.7579 z"
           style="font-style:normal;font-variant:normal;font-weight:bold;font-stretch:normal;font-size:3.96875px;line-height:1.25;font-family:Arial;-inkscape-font-specification:'Arial Bold';letter-spacing:0.79374999px;word-spacing:-0.59531248px;fill:#d2242c;fill-opacity:1;stroke-width:0.26458332"
           id="path911" />
        <path
           d="m 57.439964,150.04181 -0.294362,-2.82562 1.200792,-0.12509 q 0.452948,-0.0472 0.665288,0.009 0.214066,0.0537 0.357702,0.23551 0.143636,0.18182 0.169739,0.43239 0.03313,0.31802 -0.132145,0.54566 -0.165476,0.22572 -0.531849,0.31844 0.196278,0.0887 0.329232,0.20535 0.134882,0.11648 0.373525,0.42479 l 0.402438,0.51531 -0.682312,0.0711 -0.476524,-0.57189 q -0.254064,-0.3067 -0.343851,-0.38307 -0.08999,-0.0783 -0.18379,-0.0997 -0.094,-0.0233 -0.290601,-0.003 l -0.115646,0.012 0.122885,1.17959 z m 0.40065,-1.69004 0.422109,-0.044 q 0.410543,-0.0428 0.509083,-0.0881 0.09854,-0.0453 0.147528,-0.13617 0.04899,-0.0908 0.03574,-0.21804 -0.01486,-0.14263 -0.100992,-0.22133 -0.08441,-0.0808 -0.225591,-0.0895 -0.07039,-0.002 -0.41733,0.0337 l -0.445237,0.0464 z"
           style="font-style:normal;font-variant:normal;font-weight:bold;font-stretch:normal;font-size:3.96875px;line-height:1.25;font-family:Arial;-inkscape-font-specification:'Arial Bold';letter-spacing:0.79374999px;word-spacing:-0.59531248px;fill:#d2242c;fill-opacity:1;stroke-width:0.26458332"
           id="path913" />
        <path
           d="m 61.099457,149.65705 -0.03952,-2.81738 0.573552,-0.008 0.03281,2.33878 1.426129,-0.02 0.0067,0.47861 z"
           style="font-style:normal;font-variant:normal;font-weight:bold;font-stretch:normal;font-size:3.96875px;line-height:1.25;font-family:Arial;-inkscape-font-specification:'Arial Bold';letter-spacing:0.79374999px;word-spacing:-0.59531248px;fill:#d2242c;fill-opacity:1;stroke-width:0.26458332"
           id="path915" />
        <path
           d="m 64.501016,146.90517 1.045654,0.0756 q 0.353706,0.0256 0.535342,0.0931 0.244021,0.0915 0.408281,0.29183 0.164259,0.20034 0.237324,0.47958 0.07321,0.2773 0.04441,0.67546 -0.0253,0.34984 -0.130592,0.59675 -0.128672,0.30156 -0.339658,0.47865 -0.159311,0.1342 -0.418382,0.19707 -0.193749,0.0462 -0.510732,0.0233 l -1.076579,-0.0779 z m 0.537446,0.52071 -0.135738,1.87677 0.427153,0.0309 q 0.23967,0.0173 0.347932,-0.002 0.141679,-0.0247 0.238532,-0.10127 0.09879,-0.0764 0.17047,-0.26163 0.07182,-0.18715 0.09559,-0.51573 0.02376,-0.32858 -0.0215,-0.50866 -0.04526,-0.18008 -0.142507,-0.2862 -0.09724,-0.10612 -0.25515,-0.15252 -0.117878,-0.0357 -0.467718,-0.061 z"
           style="font-style:normal;font-variant:normal;font-weight:bold;font-stretch:normal;font-size:3.96875px;line-height:1.25;font-family:Arial;-inkscape-font-specification:'Arial Bold';letter-spacing:0.79374999px;word-spacing:-0.59531248px;fill:#d2242c;fill-opacity:1;stroke-width:0.26458332"
           id="path917" />
        <path
           d="m 69.688326,147.39265 1.121399,0.17897 q 0.332975,0.0531 0.491054,0.1078 0.160298,0.0531 0.274465,0.16155 0.116079,0.10879 0.178678,0.26989 0.0629,0.15918 0.03389,0.34097 -0.03146,0.19711 -0.164885,0.34458 -0.131516,0.14778 -0.326445,0.20105 0.244519,0.11556 0.353594,0.31743 0.109075,0.20187 0.07029,0.4449 -0.03054,0.19137 -0.149495,0.35881 -0.116736,0.16584 -0.289149,0.25018 -0.170195,0.0827 -0.399975,0.0716 -0.144054,-0.007 -0.686227,-0.0899 l -0.954912,-0.1524 z m 0.491923,0.55733 -0.103532,0.64873 0.371248,0.0592 q 0.331062,0.0528 0.412962,0.0561 0.148186,0.006 0.243605,-0.0632 0.09764,-0.0708 0.119322,-0.20663 0.02077,-0.13013 -0.03912,-0.22211 -0.05767,-0.0936 -0.196535,-0.13341 -0.08267,-0.023 -0.482626,-0.0868 z m -0.17805,1.11566 -0.119717,0.75015 0.52434,0.0837 q 0.306184,0.0489 0.391219,0.0448 0.129966,-0.003 0.222474,-0.0783 0.09473,-0.0771 0.118549,-0.22638 0.02016,-0.1263 -0.02703,-0.2241 -0.04719,-0.0978 -0.157508,-0.15662 -0.108405,-0.0585 -0.494962,-0.1202 z"
           style="font-style:normal;font-variant:normal;font-weight:bold;font-stretch:normal;font-size:3.96875px;line-height:1.25;font-family:Arial;-inkscape-font-specification:'Arial Bold';letter-spacing:0.79374999px;word-spacing:-0.59531248px;fill:#d2242c;fill-opacity:1;stroke-width:0.26458332"
           id="path919" />
        <path
           d="m 73.574818,150.99896 0.27512,-1.16358 -0.634142,-1.84055 0.654397,0.15473 0.392002,1.24764 0.896046,-0.94309 0.643081,0.15205 -1.395944,1.36453 -0.274229,1.15981 z"
           style="font-style:normal;font-variant:normal;font-weight:bold;font-stretch:normal;font-size:3.96875px;line-height:1.25;font-family:Arial;-inkscape-font-specification:'Arial Bold';letter-spacing:0.79374999px;word-spacing:-0.59531248px;fill:#d2242c;fill-opacity:1;stroke-width:0.26458332"
           id="path921" />
        <path
           d="m 77.368838,152.03821 0.964394,-2.67221 0.524964,0.18945 0.44965,2.17922 0.644025,-1.78451 0.501268,0.1809 -0.964393,2.67222 -0.541369,-0.19538 -0.448376,-2.13137 -0.628895,1.74258 z"
           style="font-style:normal;font-variant:normal;font-weight:bold;font-stretch:normal;font-size:3.96875px;line-height:1.25;font-family:Arial;-inkscape-font-specification:'Arial Bold';letter-spacing:0.79374999px;word-spacing:-0.59531248px;fill:#d2242c;fill-opacity:1;stroke-width:0.26458332"
           id="path923" />
        <path
           d="m 80.763247,153.34646 1.153243,-2.59631 0.52422,0.23286 -1.153243,2.5963 z"
           style="font-style:normal;font-variant:normal;font-weight:bold;font-stretch:normal;font-size:3.96875px;line-height:1.25;font-family:Arial;-inkscape-font-specification:'Arial Bold';letter-spacing:0.79374999px;word-spacing:-0.59531248px;fill:#d2242c;fill-opacity:1;stroke-width:0.26458332"
           id="path925" />
        <path
           d="m 84.165449,153.84708 0.228082,-0.42081 1.08697,0.58913 -0.539271,0.99497 q -0.241552,0.0675 -0.606825,0.0216 -0.362645,-0.0467 -0.671018,-0.21381 -0.391854,-0.21238 -0.594542,-0.53384 -0.201764,-0.32316 -0.182993,-0.70754 0.01969,-0.38608 0.214533,-0.74557 0.211461,-0.39015 0.539384,-0.60476 0.327924,-0.21461 0.730835,-0.20564 0.307632,0.006 0.665412,0.19975 0.465114,0.25209 0.61959,0.5893 0.157104,0.33643 0.04554,0.72121 l -0.551679,-0.17778 q 0.04691,-0.21263 -0.04236,-0.39767 -0.08664,-0.18582 -0.304716,-0.30402 -0.330521,-0.17914 -0.640027,-0.0758 -0.307803,0.10429 -0.531268,0.51659 -0.24101,0.44467 -0.164346,0.77497 0.07759,0.3286 0.397886,0.5022 0.158446,0.0859 0.350134,0.11042 0.194315,0.0238 0.356481,-0.003 l 0.171754,-0.31689 z"
           style="font-style:normal;font-variant:normal;font-weight:bold;font-stretch:normal;font-size:3.96875px;line-height:1.25;font-family:Arial;-inkscape-font-specification:'Arial Bold';letter-spacing:0.79374999px;word-spacing:-0.59531248px;fill:#d2242c;fill-opacity:1;stroke-width:0.26458332"
           id="path927" />
        <path
           d="m 85.880134,156.05288 1.612278,-2.33909 0.472286,0.32553 -0.634574,0.92064 0.925425,0.63787 0.634573,-0.92064 0.472285,0.32554 -1.612277,2.33909 -0.472286,-0.32554 0.704959,-1.02275 -0.925424,-0.63787 -0.704959,1.02275 z"
           style="font-style:normal;font-variant:normal;font-weight:bold;font-stretch:normal;font-size:3.96875px;line-height:1.25;font-family:Arial;-inkscape-font-specification:'Arial Bold';letter-spacing:0.79374999px;word-spacing:-0.59531248px;fill:#d2242c;fill-opacity:1;stroke-width:0.26458332"
           id="path929" />
        <path
           d="m 89.336104,158.60809 1.525922,-1.80074 -0.643122,-0.54497 0.310696,-0.36666 1.722386,1.45953 -0.310697,0.36665 -0.641644,-0.54372 -1.525922,1.80074 z"
           style="font-style:normal;font-variant:normal;font-weight:bold;font-stretch:normal;font-size:3.96875px;line-height:1.25;font-family:Arial;-inkscape-font-specification:'Arial Bold';letter-spacing:0.79374999px;word-spacing:-0.59531248px;fill:#d2242c;fill-opacity:1;stroke-width:0.26458332"
           id="path931" />
      </g>
    </g>
  </g>
</svg>
