<?xml version="1.0" encoding="utf-8"?>
<!-- Generator: Adobe Illustrator 26.2.1, SVG Export Plug-In . SVG Version: 6.00 Build 0)  -->
<svg version="1.1" id="Layer_1" xmlns="http://www.w3.org/2000/svg" xmlns:xlink="http://www.w3.org/1999/xlink" x="0px" y="0px"
	 viewBox="0 0 960 560" style="enable-background:new 0 0 960 560;" xml:space="preserve">
<style type="text/css">
	.st0{fill:#808099;stroke:#FFFFFF;stroke-width:3;stroke-miterlimit:10;}
</style>
<g>
	<g>
		<path class="st0" d="M500,156c4.3,0,8.7,0,13,0c19.8,2.9,34.5,14.2,46.8,29.1c7.1,8.5,14.1,17.3,20.2,26.6
			c6.1,9.1,6.3,19.4,3,29.8c-4.9,15.2-11.7,28.2-27.8,35.4c-15.7,6.9-29.4,6.2-43.3-3.2c-1.7-1.2-4.4-2.2-6.3-1.7
			c-8.2,1.9-16.3,4.4-24.4,6.6c-1.4,0.4-2.9,1.2-4.1,0.9c-5.6-1.4-11.2-3.1-16.4-4.6c-1.1,6.1-2,12.4-3.4,18.6
			c-2,9.1-2.1,17.9,1.1,27c6.2,17.4,19.7,29.8,29.5,45.1c3-3.9,6.4-4.6,10.1-2.6c11.5,6.1,23.6,6,36,4.5c8.1-0.9,16.3-0.9,24.4-1.5
			c3.7-0.3,5.2,2.3,6,4.9c0.5,1.4-0.5,3.9-1.7,5c-5.1,4.5-10.4,8.8-15.8,13c-5.2,4.1-9,9.9-16.9,10.7c-6.5,0.7-12.7,4.3-19.1,6.6
			c-5.7,0-11.3,0-17,0c-20.6-3.3-39.4-11.9-58.1-20.5c-0.8-0.3-1.6-0.8-2.4-0.7c-5.3,0.8-6-2.8-6.6-6.7c-0.5-3.1-1.4-6.1-2.2-9.3
			c-9.5,4-13.6,3.1-19.5-3.9c-3.1-3.7-6.5-7.3-8.9-11.4c-4.3-7.7-8.6-15.6-11.6-23.9c-2.5-6.9-3.1-14.5-4.3-21.8
			c-1.3-7.9-2.9-15.7-3.2-23.7c-0.4-7.4,3-13.5,9.3-17.8c6.6-4.4,6.5-5.1-0.5-9.1c-0.6-0.3-1.2-0.8-1.8-0.9
			c-3.6-0.5-3.1-2.6-2.2-5.1c2.7-7.9,5.1-15.8,8-23.6c4.1-11.1,8.9-22.3,18-30.2c11.9-10.3,24.8-19.6,37.4-29.1
			c4.9-3.7,9.9-3,14.8,0.4c3,2.1,6.1,3.9,9.4,5.6c1.2,0.6,2.9,0.3,4.3,0.4c0.1-1.6,0.6-3.3,0.1-4.6c-1.7-4.2,0.2-6.5,3.7-7.8
			c2.6-0.9,5.5-1.1,8.2-1.8C490.7,159.1,495.3,157.5,500,156z"/>
	</g>
</g>
</svg>
