<?xml version="1.0" encoding="utf-8"?>
<!-- Generator: Adobe Illustrator 26.2.1, SVG Export Plug-In . SVG Version: 6.00 Build 0)  -->
<svg version="1.1" id="Layer_1" xmlns="http://www.w3.org/2000/svg" xmlns:xlink="http://www.w3.org/1999/xlink" x="0px" y="0px"
	 viewBox="0 0 960 560" style="enable-background:new 0 0 960 560;" xml:space="preserve">
<g>
	<g>
		<path d="M474,406c-1.3,0-2.7,0-4,0c-4.1-2.6-9.8-2.9-11-9.4c-0.5-2.6-3.8-2.5-5.6-0.3c-1.4,1.6-1.9,4.1-3.5,5.3
			c-1.5,1.2-4.3,2.5-5.7,1.9c-5.1-2.3-10-3.6-15.7-3.4c-7,0.2-8.4-2-7.5-9c0.1-1.1-0.2-2.2-0.3-3.7c-1.8,0.5-3.5,0.4-4.5,1.2
			c-5.5,4.1-9.4,2.4-13.7-2.2c-7.1-7.5-14-14.9-15.8-25.7c-0.8-5.2-2.8-10.2-4.5-15.2c-2.1-6.4,0.6-11.5,7.2-13.3
			c1.7-0.5,3.3-1.1,6.1-2c-2.3-1.3-4.1-1.9-5.2-3.1s-2.1-3.2-1.9-4.8c1.4-10.7,7.9-18.7,14.6-26.6c2.5-2.9,5.2-3.9,8.6-1.1
			c1.1,0.9,3.7,1.5,4.4,0.9c1.1-1,1.2-3.1,1.5-4.8c0.1-0.8-0.2-1.7-0.6-2.4c-2.1-3.7,0-5.1,3.2-5.9c7.5-1.9,15.1-3.7,22.6-5.7
			c0.8-0.2,1.6-0.9,2.2-1.5c5.1-5.2,5-12.3,3.8-18.2c-1.4-7.1,1.8-11.5,5.3-16.2c4.9-6.5,11.4-10,19.9-7.9
			c5.9,1.4,12.5,3.1,13.5,10.1c1.2,9.3,3.1,18.8-2.8,27.9c-5,7.9-4.4,8.2,2.3,14.6c0.6,0.6,1,1.3,1.6,1.9c3.2,3.5,5.4,3.3,7.5-1
			c0.6-1.2,1.1-2.5,1.3-3.8c0.4-2.5,1.5-3.6,4.3-3.6c4.4,0,5.5-1.8,3.2-5.5c-2-3.3-1.1-5.5,1-8c3.8-4.4,7.2-9,11-13.4
			c2.6-3,5.3-6.4,10.9-5.4c-0.8,4.2-1.2,8.2-2.2,11.9c-2.9,10.1-6,20.2-9,30.3c-1.9,6.3-2.5,13.4-5.8,18.9
			c-5.7,9.6-9.2,19.6-12,30.3c-2.2,8.5-4.2,15.9-16.1,16.5c-2.4,0.1-4.9-0.5-7.3-0.6c-10.3-0.8-19.3-12.9-16.9-22.9
			c0.3-1.1,0.9-2.2,1.6-3c4-4.8,7.7-10,12.3-14.3c4.7-4.3,2-7.3-0.6-11.5c-3,4.3-6.4,7.9-8.3,12.2c-5.2,12-10.3,24-17.3,35
			c-0.9,1.4-2.4,2.5-4.5,4.7c-0.1-2.4-0.3-2.9-0.2-3.4c1.4-11.4,5-22.7,0.8-34.4c-1.4-3.8,0.2-6.9,5-7.8c2.2-0.4,4.1-2.1,6.8-3.5
			c-3.5-2-6.5-2.8-7.8-4.7c-1.8-2.7-3.4-2.5-5.8-1.8c-10.2,2.8-17,9.4-20.9,19c-1.4,3.5-2.5,6.1-7,3.5c-1.1-0.6-3.3,0.7-5,1.2
			c-0.1,0.5-0.2,1-0.2,1.5c6,1.5,5.9,5.8,6.1,10.5c0.4,10.9,1.9,21.6,10.8,29.3c2.3,2,1.6,4,0.1,6c-1.7,2.3-3.4,4.5-5,6.8
			c0.3,0.3,0.7,0.6,1,0.8c1-0.8,2.2-1.4,3-2.3c4.1-5.3,8.8-5.7,14.9-3c3.9,1.8,8.9,3.1,13,2.5c10.1-1.6,20-4.6,29.9-7
			c2.6-0.6,5.2-1,8.4-1.6c-0.4,3.5-0.9,6-0.8,8.4c0.1,4.8,3.2,6.8,6.8,3.8c2.2-1.9,4.1-5.3,4.3-8.2c0.2-2.9,0.3-4.6,3.3-5.6
			c1.8-0.6,3.5-1.8,5.2-2.8c5.6-3.5,11.9-6.4,16.5-10.9c3.8-3.7,6.1-4.7,10.3-1.4c2.9,2.3,6,1.6,7-2.2c1-3.9,1.7-8.1,1.4-12.1
			c-0.3-4.4,0.3-7.7,3.7-10.6c5.6-4.9,8.7-11.2,9.9-18.5c1.2-7.1,1.2-7.1,8.5-6.4c4.3,0.4,6-2.4,6.7-5.9c0.6-3.4-1.2-4.6-4.5-4.9
			c-2.7-0.3-5.6-1.3-8-2.6c-1.4-0.8-3-2.8-3-4.3c0.2-13.5-4.8-24.9-13.9-34.7c-2.3-2.5-1.6-4,0.7-5.6c1-0.7,2.2-1.2,2.7-2.1
			c0.7-1.4,0.9-3.1,1.3-4.6c-1.6-0.4-3.3-1.4-4.7-1c-2.5,0.7-4.8,2.2-7.1,3.5c-3,1.8-5.2,2.1-8.3-0.4c-4.6-3.8-9.7-7.9-16.7-5
			c-1,0.4-3.9-1.2-4.3-2.3c-0.9-3-1.1-6.2-1.1-9.3c0-2.2,0.6-4.3,1.1-7.5c-3.8,1.5-6.6,2.7-9.3,3.7c-6.2,2.4-10.8,7.1-19.4,5.5
			c-8.4-1.6-18,1.7-25.8,7c-2.1,1.4-3.9,1.9-6-0.6c-4-4.8-6.7-5.1-13.9-2.2c3,2.7,6,5.1,8.5,7.9c0.8,0.9,0.7,4.1,0.4,4.2
			c-6.4,2.1-9.2,7.6-12.7,12.6c-8.3,11.7-21.4,14.3-34.3,15.1c-17.3,1-29.3-9.6-35.5-27.4c-2.1-6-1-6.9,5.2-7.8
			c3-0.4,5.7-3.2,8.5-4.9c-1.6-2-3.3-4-4.8-6.1c-1.1-1.7-2.8-3.8-2.7-5.6c0.8-9.7,5.5-17.9,11.8-25c12-13.5,27.8-20.6,44.8-25.3
			c1.8-0.5,4.1,0.1,6,0.8c3.1,1.1,5.5,1.1,5.6-2.7c0-3.6,2-3.8,4.8-4c3.5-0.2,7.1-1.1,10.6-1.7c4.7,0,9.3,0,14,0
			c6,1.5,11.9,3.1,18,4.4c2.9,0.6,3.9,2,3.8,4.8c-0.2,4.7,2.1,8.1,5.2,10.6c2.5-2.3,4.7-4.6,7.2-6.4c1.7-1.2,4-1.7,6-2.5
			c0.8,2.3,2.5,4.6,2.2,6.8c-0.6,5.1,2,8,6.4,11.3c0.9-2.9,1.6-5.2,2.1-7.5c1.4-6.4,5.7-8.8,11.7-6.6c2.3,0.9,4.7,1.9,7.1,2.2
			c10.9,1.1,20.4,5.2,28.8,12.2c7.2,5.9,7,4.4,2.7,13.7c-0.3,0.7-1.1,1.3-1.4,2.1c-1.2,3.6-2.3,7.2-3.4,10.8
			c0.4,0.2,0.9,0.4,1.3,0.6c3.4-2.4,6.5-5.2,10.2-6.9c2.6-1.2,7.1-2.5,8.7-1.2c5.3,4.3,11.1,9,14.2,14.9c4.8,8.9,7.9,18.9,11.2,28.6
			c1,2.8,0.6,6.3,0.2,9.3c-0.3,2.5-1.8,3.9-5,2.6c-5.5-2.3-9.1-1-13.7,4.6c1.3,0.5,2.4,1.1,3.6,1.4c3.1,0.6,6.2,1,9.3,1.5
			c4,0.6,5.7,3.7,5.7,7.1c0.1,3.9-3.1,3.3-5.9,3.3c-6.3,0.1-8.9,2.3-9.4,7.8c1.8,0.6,3.7,1.4,5.6,1.9c4.4,1.1,6.1,4.1,5.9,8.4
			c-0.2,3.8-0.8,7.6-0.8,11.4c-0.2,14.3-5.5,27-11.7,39.6c-1.9,3.8-4.3,4.3-8.1,2.6c-2.6-1.1-5.7-1-9.1-1.6c1.2,4.7,2.5,8,2.8,11.4
			c0.2,1.5-1.1,3.6-2.4,4.6c-2.7,2.3-6.2,3.8-8.8,6.2c-6.3,5.8-12.3,12.1-21,14.2c-2.9,0.7-6.5,4.6-8.2-1.5
			c-0.1-0.4-1.2-0.6-1.8-0.6c-3.2-0.1-6.4,0-10.3,0c2.8,4.4,4.5,8.5-0.5,10.8c-7.2,3.2-14.6,6.2-22.1,8.3
			C490.6,403.2,482.2,404.4,474,406z"/>
	</g>
</g>
</svg>
