<?xml version="1.0" encoding="utf-8"?>
<!-- Generator: Adobe Illustrator 26.2.1, SVG Export Plug-In . SVG Version: 6.00 Build 0)  -->
<svg version="1.1" id="Layer_1" xmlns="http://www.w3.org/2000/svg" xmlns:xlink="http://www.w3.org/1999/xlink" x="0px" y="0px"
	 viewBox="0 0 960 560" style="enable-background:new 0 0 960 560;" xml:space="preserve">
<g>
	<g>
		<path d="M487,156c3.5,5.2,9.3,4.2,14.3,5c4.2,0.7,7.7,1.9,9.2,6.4c1.2,3.6,3.9,2.3,6.1,1.6c4-1.2,13.5,1.4,14.9,4.9
			c0.8,1.8-0.1,4.4-0.3,6.6c10.9,2.3,18.8,12.5,18.8,24.1c-0.1,13.3-3.7,17.1-17.2,18.5c-1.9,0.2-3.8,1-5.7,1.7
			c-6.9,2.5-11.3,0.9-15.1-5.4c-1-1.7-1.7-3.7-2.9-5.2c-3.3-4.4-3.7-8.4,0.7-12.5c1.1-1,1.2-3,0.8-4.9c-3,2.6-6,5.2-8.5,7.5
			c-3.8-2.7-6.6-5.2-9.8-7c-4-2.3-7.4-1.1-10,4.1c-2.8-3.8-5.1-6.9-7.5-10.1c-0.7,0.5-1.4,1.1-2.1,1.6c1.1,2,1.9,4.2,3.3,5.8
			c2.1,2.5,2,4.2-1,5.2c-6.7,2.3-10.1,7.7-13.2,13.4c-0.5,0.9-2.1,1.4-3.2,1.9c-1.6,0.8-3.4,1.4-4.6,2.6c-0.6,0.6-0.1,2.3-0.1,3.5
			c1.1-0.1,2.1,0,3.2-0.1c1.8-0.2,3.6-0.5,5.4-0.7c0.1,2-0.2,4.2,0.5,5.9c1.4,3.6,3.1,7.1,5.1,10.4c0.8,1.2,2.9,1.6,4,2.9
			c-5.4,3.3-6.8,6.4-3.4,11.1c1.6-0.9,3.1-2.3,4.8-2.6c2.6-0.5,5.4-0.9,8-0.4c3.9,0.8,7.5,3,11.3,3.5c3.5,0.5,4.5,1.8,4.8,4.9
			c0.2,2.4,1.1,4.6,1.9,7.8c1.6-1.4,2.8-1.9,3.2-2.8c2.8-6.2,8-6.4,13.5-5.3c8.4,1.7,13.5-4,18.2-8.9c5.8-6.1,10.4-13.5,15.8-20.8
			c0.3,0.5,1.3,1.5,1.4,2.5c1.5,11.6-1.3,22.1-9.8,30.4c-5.8,5.6-12.1,10.6-18.5,15.6c-6.2,4.9-6.8,4.6-11.3-1.6
			c-6.8,7.8-15.1,3.2-23,2.9c-5.6-0.2-7.7-3-5.7-9.2c-7.5,4-13.8,1.7-20.1-1.4c-6.4-3.1-12.9-6-19.3-9.3c-2.4-1.2-4.5-3.2-6.7-4.8
			c1.4-2.6,2.6-4.7,4.1-7.4c-6.9-0.4-7.3-5-7.6-9.9c-0.2-3.5-0.7-6.9-1.4-10.3c-0.7-3.6-2.1-7.2,2.3-9.7c0.3-0.2-0.2-3.3-1-3.8
			c-4.5-2.3-5.2-5.7-3.5-10c2.8-7.1,5.1-14.4,8.4-21.2c2.7-5.7,7.2-10.1,13.5-12.7c1.5,2.8,2.7,5.1,4.4,8.3c1.6-2.1,3.4-3.3,3.6-4.8
			c1.6-9.4,9.1-12,16.5-14.8c2.9-1.1,5.8-2.2,8.7-3.3C485.7,156,486.3,156,487,156z"/>
		<path d="M475,406c-6.4-2.1-10.2-6.8-13.4-12.6c-6.2-11.2-8.2-22.7-4-34.9c0.7-2,2.9-3.6,4.7-5.1c2.2-1.7,4.2-3,0.8-5.6
			c-0.9-0.7-1.5-2.5-1.3-3.7c0.7-3.9,1.8-7.7,2.4-10.3c-1.2-5-2.2-8.9-3.1-12.8c-4.9,4-4.9,4-11.2,1.1c-0.8-0.3-1.6-0.6-2.4-0.8
			c-7.5-1.3-9-4.5-8.1-13.2c-6.8,4.1-11.2,0.1-16.7-3.6c-6.6-4.5-5.4-10-4.5-17c-2.5,1.4-4.3,2.4-6,3.3
			c-6.4-5.3-19.5-42.6-16.7-49.6c1,2.1,1.9,3.5,2.5,5c2,5.6,4.9,10.3,10.2,13.6c2.2,1.4,3.2,4.7,4.3,6.4c3,1.9,5.7,3.4,8.2,5.3
			c1.3,1,1.9,2.7,3.1,3.9c3.3,3.5,5.7,3.3,8.4-0.7c0.6-1,1.3-1.9,1.6-2.2c6.6,3.4,12.5,6.2,18.1,9.5c1.5,0.9,2.5,3,3,4.8
			c0.6,2.3,0.4,4.8,0.6,7.8c1.6-0.6,2.7-0.7,2.9-1.2c2.3-5.7,6.4-3.5,10.2-2.3c0.5,0.1,0.9,0.3,1.4,0.5c4,1.1,8.7,1.3,11.7,3.7
			c2.7,2.2,3.5,6.8,5.6,11.2c2.9-4.3,5.6-8.3,7.7-11.4c10.4-0.5,20-1.1,29.6-1.4c1.5,0,3,1.9,4.5,2.9c1.8,1.2,3.6,2.3,5.4,3.4
			c0.6-2.1,2-4.4,1.8-6.4c-0.5-3.3,0.4-4.6,3.4-6c6.6-3.1,14.7-3.7,19.6-10c2.5-3.2,4.4-6.8,6.6-10.4c2.7,3.6,2.4,10.8-0.2,15.1
			c-1.8,3-3.3,6-5,9c-4.1,7.3-8.1,14.7-12.6,21.8c-0.9,1.5-3.6,1.8-5.4,2.7c-2.9,1.3-6.4,2-8.6,4.1c-4.5,4.2-4.2,4.5-8-0.3
			c-0.6-0.8-0.8-1.8-2.2-2.6c-0.4,5.9-2,10.2-8,9.7c-5.1-0.4-11.9,4-14.3-6.5c-1.3,8.2-7.6,8.7-11.9,11.5c-3.3,2.2-4.2,4.3-3.2,7.7
			c1.9,6.7,3.6,13.3,8.5,18.8c1.4,1.5,1.7,5,0.9,7c-0.5,1.3-3.6,2-5.6,2.5c-1.6,0.4-3.4,0.1-5.9,0.1c3.2,5,7,6,11.5,4.6
			c3.7-1.1,5.2-0.2,5.3,3.7c0.1,3.3,0.7,6.6,1.1,9.9c0.6,5.1-1.8,8.7-5.9,11.2c-4.7,2.9-9.5,5.8-14.3,8.6
			C479.7,406,477.3,406,475,406z"/>
	</g>
</g>
</svg>
