<?xml version="1.0" encoding="utf-8"?>
<!-- Generator: Adobe Illustrator 26.2.1, SVG Export Plug-In . SVG Version: 6.00 Build 0)  -->
<svg version="1.1" id="Layer_1" xmlns="http://www.w3.org/2000/svg" xmlns:xlink="http://www.w3.org/1999/xlink" x="0px" y="0px"
	 viewBox="0 0 960 560" style="enable-background:new 0 0 960 560;" xml:space="preserve">
<g>
	<g>
		<path d="M469,156c7.2,4.8,14.4,9.8,21.7,14.4c4.3,2.7,9.3,4.5,13.3,7.5c5.5,4.1,10.5,9,15.5,13.7c9.9,9.2,18.9,19.8,29.8,27.6
			c16.2,11.5,29.5,25.1,39.6,42c0.9,1.5,0.5,3.7,0.8,5.5c-0.6,0.3-1.3,0.7-1.9,1c-15.3-10.6-30.8-21.1-45.8-32.1
			c-5.8-4.3-10.5-10.1-15.9-15c-2.8-2.6-5.8-5.3-9.2-6.9c-12.6-5.9-20.8-16.2-28.2-27.3c-2.7-4-4.5-8.6-7.2-12.4
			c-3.4-4.8-7.4-9.1-11.8-14.4c-5.8,8.1-11.3,15.1-16.2,22.5c-7.9,12.2-16.5,24.1-22.8,37.1c-4.9,10.1-12.9,15.6-20.8,22.4
			c-13.9,11.9-26.3,25.5-39.3,38.4c-2.1,2.1-4.4,4.1-6.3,6.5c-1.4,1.7-2.1,3.9-3.3,5.7c-0.6,0.8-1.6,1.4-2.4,2
			c-0.5-0.9-1.5-1.8-1.5-2.8s0.5-2.5,1.2-3.1c8-6.6,12-15.7,16.7-24.5c10.4-19.4,23.7-36.8,39.1-52.5c11-11.2,21.9-22.6,32.6-34.1
			c6.5-7,12.8-14.2,19.2-21.4C467,156,468,156,469,156z"/>
		<path d="M483,402.6c-1.4,1-2.3,1.7-3.5,2.5c-0.1-0.1-0.7-0.1-1-0.4c-6.3-5.6-12.5-11.4-18.8-17c-6-5.3-12.5-9.4-20.1-12.4
			c-8.7-3.3-16.6-8.7-24.8-13.1c-2.8-1.5-5.5-3.3-8.5-4c-5.5-1.4-7.8-5.1-10.2-9.8c-3.4-6.5-7.6-12.9-12.3-18.5
			c-9-10.6-13.8-23.3-19.3-35.7c-1.2-2.6,0.5-4.2,2.9-3.5c4.4,1.2,8.4,2.3,11.6,6.7c8.2,11.2,17.6,21.3,29,29.8
			c9.7,7.4,21.4,12.5,28.8,22.8c3.5,5,6.8,10.3,10.9,14.9c10.6,11.6,21.6,22.9,32.4,34.3C480.7,400.1,481.6,401.1,483,402.6z"/>
		<path d="M605.7,263.9c-0.9,1.9-1.3,3-1.9,3.9c-7.6,9.9-15.3,19.6-22.8,29.6c-2.4,3.2-3.7,7.3-6.1,10.6c-3.3,4.5-7,8.7-10.7,13
			c-14.3,16.5-31.6,30.1-44.1,48.4c-7.4,10.8-16.6,20.3-25,30.3c-1,1.1-2.6,1.7-4,2.5c-0.5-0.5-0.9-1-1.4-1.4
			c1.6-2.3,3.2-4.6,4.9-6.9c9.9-13.5,19.8-26.9,29.7-40.3c8.4-11.3,14.8-23.8,20.6-36.6c2.4-5.3,6.9-9.7,10.8-14.1
			c6.2-6.9,12.4-13.9,19.2-20.2c7.2-6.6,14.9-12.7,22.8-18.5C599.3,262.9,602.4,263.9,605.7,263.9z"/>
	</g>
</g>
</svg>
