<?xml version="1.0" encoding="utf-8"?>
<!-- Generator: Adobe Illustrator 26.2.1, SVG Export Plug-In . SVG Version: 6.00 Build 0)  -->
<svg version="1.1" id="Layer_1" xmlns="http://www.w3.org/2000/svg" xmlns:xlink="http://www.w3.org/1999/xlink" x="0px" y="0px"
	 viewBox="0 0 960 560" style="enable-background:new 0 0 960 560;" xml:space="preserve">
<g>
	<g>
		<path d="M476,406c-6.7-4.2-8.8-9.9-6.9-18.1c1.6-7.1,2.8-14.4,4.2-22.1c-5.6,4.4-11.1,2.5-14.9-1.2c-4.5-4.3-11.5-7.9-8.6-16.5
			c-4.3-1.4-4.5-4.7-3.9-8.1c1.2-6.8,1.4-14.1,9.6-17.2c3.5-1.3,7.4-1.5,8.9,1.6c1.2,2.6,1.1,7.5-0.5,9.6c-2.6,3.4-3.2,6.1-2,9.9
			c0.4,1.3-0.5,3.1-0.9,4.9c1.2,0.7,3,1.6,4.6,2.7c3.5,2.4,8.4,2.2,11.3-0.8c1.8-1.9,3.2-4.2,5-6.2c1.3-1.5,2.9-2.7,4.7-4.3
			c-1-9.9-2.2-20.6-3.3-31.7c-4.3-0.6-3.7-5.6-4.3-9.2c-1.2-7.1-2.9-8.5-9.6-5.9c-0.6,7.2-0.5,14.6-7.8,19.4
			c0.7,0.6,1.6,1.3,3.5,2.8c-11.6,5.3-20.9,13.5-33.4,14.7c-0.2-0.4-0.4-0.8-0.6-1.2c0.9-0.6,1.6-1.5,2.6-1.7
			c8.9-2.6,9.6-11.4,13.1-17.9c1.9-3.5,3-6.5,7.7-5.7c0.5,0.1,1.1-0.6,2.7-1.7c-5.6-1.4-9.4-3.7-6.2-9.8c-5.4,0.1-9.1,6.5-13.1,2.1
			c-1.3,2.6-2.1,5.8-4,7.6c-1.8,1.8-4.9,2.3-8,3.6c0.3,0.6,1.1,2.3,1.9,4c-0.6-0.6-1.2-1.2-1.8-1.8c-3.3,4.4-6.1,9.3-9.9,13.1
			c-4.7,4.7-11,5.8-17.1,3c-6-2.7-7.9-8.3-7.8-14.5c0.2-9,3.5-16.2,12.6-19.5c-2.4-8.9,5.9-11.5,10-16c4.2-4.8,10.3-9,17.6-4.2
			c0.4-1.2,0.9-1.7,0.7-2c-2.8-6,1.2-8.1,5.6-10.2c5.4-2.5,5.8-5.9,1.5-10.2c-0.7-0.7-1.5-1.3-2.2-2c0.9-1.9,1.7-3.7,2.5-5.5
			c-0.3-0.2-0.6-0.4-0.9-0.6c-1.8,1.2-3.5,3.3-5.4,3.4c-2.1,0.1-4.2-2.1-6.5-2.3c-5.4-0.3-10.8-0.2-16.3,0.1c-2,0.1-4,0.8-6.7,1.4
			c6.5-9.5,22-13.9,28.1-8.6c2.4-1.2,4.8-3,7.4-3.6c7.4-1.8,12.7,2.3,17.8,6.9c0.5,0.4,1,1.2,0.9,1.7c-1.3,7.1,6.7,9.5,7.4,15.8
			c-0.3-21.5,1.8-41.7,21.2-56.2c0.4,1.5,0.6,2,0.5,2.1c-8.9,5.9-9.2,16-11.2,24.7c-1.6,6.8,0.1,14.3,0.5,21.5
			c0.1,1.8,0.6,3.5,0.9,5c3-5,1.3-15.4,12.8-11.7c-1-6.6,0.1-8.7,6.5-11.3c3-1.2,6.4-1.8,9.7-2.2c5.6-0.7,6.4-0.1,8.1,5.2
			c10-3.6,16.2-1.6,23.8,7.3c0.5,0.5,1.3,0.8,2,1c9.9,2.9,13.6,17.2,6.3,24.3c-2.9,2.8-6.7,2.9-9.7,1c-2.6-1.5-4.5-4.4-6.3-6.9
			c-0.8-1.1-0.5-3-0.6-4.5c-0.4-0.1-0.8-0.1-1.3-0.2c-0.7,1.4-1.4,2.7-2.2,4.3c-5.5-0.8-11.4,0-16.2-4.5c-1-0.9-3.9,0.1-5.2,0.2
			c0,3.6,0,6,0,9.3c2,2,8.8,0.5,7,8.3c6.1-4.1,11.2-1.1,15.9,1.2c3.8,1.9,7,5.3,10.3,8.2c3.7,3.3,5.7,3.3,8-1.2
			c1.9-3.8,3.1-7.9,4.8-12.5c3.4,6.4,2.5,12.5,0.4,18.2c-1.7,4.7-1.3,7.6,3.4,10c3.8,2,4.5,5.6,2.3,9.2c8.9,7.5,13.5,16.7,14.2,27.8
			c-0.8,0.7-1.6,1.4-2.5,2.1c-0.4-1.3-0.4-2.9-1.2-3.7c-6-6.4-12.3-12.6-18.2-19.1c-1.3-1.4-1.5-3.7-1.8-4.8
			c-4-1.6-7.9-3.2-10.8-4.3c-6.4,2.7-12.2,6.2-18.5,7.6c-6.4,1.5-13.4-0.3-20,3.2c0,2.6,0,6.5,0,11.4c4.4,5.8,4.1,17.4-0.9,24.6
			c-1.6,2.2-1.8,5.6-3.7,7.3c-3.4,3.1-7.5,5.4-11.5,7.9c-1.2,0.7-2.7,0.8-3.6,1.1c1.9,8.4,3.6,16.3,5.5,24.2
			c0.4,1.6,1.8,3.1,2.2,4.7c1.1,5.2-0.3,9.5-5,12.4C479.3,406,477.7,406,476,406z M496.9,297.9c2.8-1.9,4.9-4.5,7-4.5
			c4.4,0.1,8.7,1.5,12.9,2.4c0.3,2.1,0.5,3.9,0.9,7.1c2.3-3.6,3.8-6,5.4-8.4c-2.8-2.8-10.2-1.7-7.2-9.7c-6.1,6.3-13.1,0.9-19,3.6
			C496.9,291.5,496.9,294.6,496.9,297.9z"/>
		<path d="M491,156c4.8,2.4,7.4,11.5,6.2,16.7c-2.1,9.1-8.8,13.2-16,17.6c-5.6,3.4-10.4,8.2-15.4,12.3c-2.5-7.4,8-22.7,17.2-24
			c-0.6-4.9-2.2-9.9-1.5-14.7c0.4-2.9,4.2-5.3,6.5-7.9C489,156,490,156,491,156z"/>
		<path d="M464.2,183.4c-1.4,3.7-3,7.4-4.1,11.1c-1.8,5.8-0.6,11.4,1.7,16.9c1.4,3.3,2.3,6.9,2.8,10.4c0.5,3.4-3.5,9.9-6.3,9.4
			c-3.6-0.6-7-2.8-10.4-4.7c-0.7-0.4-1.2-2.3-0.8-3.2c3.4-9,0.5-19.3,5.6-27.8c2.8-4.7,6.4-8.9,9.6-13.3
			C463,182.7,463.6,183.1,464.2,183.4z"/>
	</g>
</g>
</svg>
