<?xml version="1.0" encoding="utf-8"?>
<!-- Generator: Adobe Illustrator 26.2.1, SVG Export Plug-In . SVG Version: 6.00 Build 0)  -->
<svg version="1.1" id="Layer_1" xmlns="http://www.w3.org/2000/svg" xmlns:xlink="http://www.w3.org/1999/xlink" x="0px" y="0px"
	 viewBox="0 0 960 560" style="enable-background:new 0 0 960 560;" xml:space="preserve">
<g>
	<g>
		<path d="M606,271c0,8,0,16,0,24c-2.4,6.4-3.4,13.6-9.4,18.2c-0.8,0.6-1,2.1-1.3,3.2c-1.8,6.4-3.9,12.6-5.2,19.1
			c-2.1,10.2-6.8,19-12.3,27.6c-2.9,4.5-4.6,9.7-11.1,9.9c-0.5,0-1.1,0.7-1.6,1.1c-4.6,4.4-9.7,7.9-17,6.3
			c-1.2,5.9-4.4,9.4-10.5,10.3c-1.8,0.3-3.3,2.1-5.1,3c-2,1-4.1,2.2-6.3,2.6c-5.7,1.2-11.4,2.6-17.2,3.1c-6.5,0.6-13.2,0.5-19.8,0.2
			c-3.5-0.1-5.3-2.2-4.3-6.1c0.5-1.8,0.1-3.9,0.1-6.9c-3.4,1.7-6,3.4-8.9,4.4c-3,1-6.6,2.5-9.4,1.7c-6-1.7-11.8-4.5-17.5-7.1
			c-8.2-3.7-15.2-15.1-14.2-22.5c-1.6-0.8-3.8-1.2-4.7-2.5c-4.5-6.2-7.8-13-6.1-20.9c0.7-3-0.4-4-2.4-5.6c-1.8-1.5-3.5-3.8-4.2-6
			c-1.1-3.3-1.3-6.9-1.9-10.3c-0.9-4.8-0.4-9.1,2.6-13.3c1-1.4,1.2-4.5,0.3-5.9c-2.5-4.1-2.4-8.1-0.4-11.9
			c5.4-10.5,10.8-20.9,16.8-31c1.5-2.5,5-4.4,7.9-5.4c6.8-2.2,13.8-3.4,20.7-5.4c7-2,6.9-2.1,11.2,2.8c0.5-0.7,1.1-1.3,1.5-2
			c4.7-7.4,5.3-7.9,13.6-4.9c7.8,2.8,15.5,6.1,23,9.6c2.3,1.1,4.8,3,6,5.2c2,3.4,3.4,6.9,8.1,7.2c0.7,0,1.5,1.2,1.8,2
			c5.4,13.1,6.2,26.9,4.2,40.7c-2.2,15.7-16,22.3-26,32.3c-0.9-1.1-1.4-1.5-1.7-2.1c-3.3-6.4-3.4-6.5-7.7-0.5
			c-2.3,3.1-5.5,3.5-8.4,2.3c-4.4-1.8-8.6-4.4-12.8-6.8c-7.1-4.1-6.8-11.1-6.8-18c-0.1-12.6,2.3-16.3,13.8-20.7
			c5.8-2.2,8.9,0.1,8.8,6.7c-11-2.1-12.7-0.4-11.1,11.1c0,0.2,0,0.3,0,0.5c0.8,3.4,2.7,5.8,6.5,5.6c4.5-0.3,9-0.8,13.4-1.5
			c1-0.2,2.6-1.5,2.6-2.3c-0.2-4,2.4-4.1,5.2-4.4c1.4-0.1,2.6-0.9,3.3-1.2c-0.4-4-1.3-7.3-1-10.5c0.7-8.6-4.4-13.6-11.1-16.6
			c-4-1.8-7.4-3.1-8.5-7.5c0-0.2-0.6-0.2-1.2-0.5c-1.2,0.9-2.3,2.2-3.8,2.7c-1.7,0.6-4.1,1.1-5.4,0.3c-9.9-6.5-22.3-4.3-27.6,9
			c-1.6,4-3.9,7.1-9.1,4.1c-1-0.6-3.5,0.2-4.6,1.2c-0.5,0.4,0,3.5,1,4.1c4.2,2.8,4.6,7,5,11.4c0.4,5,0.6,10,1.4,14.9
			c1,6.2-0.7,13.2,5,18.2c0.7,0.6,0.4,2.5,0.6,3.8c0.7,5.5,6.2,7.6,8.4,12c0.1,0.3,1.2,0.1,1.9,0.2c2.4,0.2,4.8,0.2,7.2,0.5
			c8.4,0.9,16.8,1.9,25.1,3c1.6,0.2,3.5,0.9,4.5,2c3.2,3.4,8.6,3.2,12.1,0.1c7.8-6.9,15.9-13.8,27.7-9.2c1.3,0.5,3.7-0.3,4.8-1.3
			c0.7-0.7,0.6-3.2-0.1-4.4c-2.1-3.3-0.8-5.7,1-8.6c4.6-7.3,9.8-14.5,12.9-22.4c2.3-5.7,5.6-9.8,9.8-13.7c5-4.6,4.6-9.1-0.7-13.7
			c-2.4-2-4.2-5.1-5.4-8c-1.1-2.5-0.8-5.6-1.6-8.3c-2.2-7.7-4.5-14.9,2.5-21.9c2.6-2.6,0.8-4.9-3.1-4.6c-2.1,0.2-4.3,1.2-6.4,1
			c-2.3-0.2-5-0.8-6.7-2.2c-6.7-5.9-13-12.3-19.6-18.4c-2-1.9-4.3-4.5-6.6-4.7c-5.5-0.4-7.2-3.8-8.3-8.8c-3.8,4.9-7.7,6.3-13.1,3.2
			c-2.8-1.6-6.4-2.7-9.6-2.5c-5.6,0.3-11.1,1.8-16.7,2.6c-4.5,0.7-9.5,0.1-13.6,1.9c-5.2,2.3-9.6,3.4-14.8-2.4
			c-0.4,3.5-0.4,5.8-1,7.8c-0.7,2.2-1.7,4.6-3.3,6.1c-2.6,2.4-5.7,4.5-8.8,6.3c-5.4,3.1-10.8,6.5-16.7,8.4c-2.4,0.8-5.9-2-8.9-3.2
			c-0.2-0.1-0.6,0.2-0.3,0.1c-1,3.9-1.6,7.6-3,11c-0.8,2-3.1,3.4-4.4,5.2c-3.9,5.7-8.9,6.2-13.4,0.8c-7.2-8.5-14.2-17.1-21.2-25.7
			c-2.6-3.2-5.1-6.4-7.6-9.7c0-1,0-2,0-3c8.2-11.4,20.1-16.8,33.2-20.3c1.3-0.4,2.7-1.4,3.6-2.5c3-3.5,6.5-3.6,10.3-1.7
			c1.4,0.7,2.9,1.3,4.6,2.1c1.2-2.2,2.4-4.1,3.3-6c3.8-7.5,9.5-11.5,18.3-12.6c8.6-1.1,17.1-3.9,25.3-6.9
			c10.1-3.7,11.7-3.9,18.8,3.3c1.8-2.6,3.9-5,5.3-7.8s3.1-4,6.2-3.5c3.6,0.5,7.5,1.6,10.9,0.7c8.7-2.3,15.6,1.3,22.6,5.3
			c4.6,2.6,9.4,3.9,14.8,2.2c3.5-1.1,13.8,3.4,15.5,6.4c0.4,0.7,0,2-0.1,3c5.1-1.5,10.7,2.3,10.5,7.5c-0.1,3.8,1.3,5.4,4.8,5.2
			c4.3-0.3,7.2,1.6,9.5,5.1c1.5,2.3,3.5,4.4,5.5,6.5c8.5,8.9,14.8,18.8,14.8,31.7c0,8.8,6.8,16.4,4.8,25.6c-0.1,0.6,0.8,1.4,1.3,2
			C601.9,265.3,603.9,268.1,606,271z"/>
	</g>
</g>
</svg>
