<?xml version="1.0" encoding="utf-8"?>
<!-- Generator: Adobe Illustrator 26.2.1, SVG Export Plug-In . SVG Version: 6.00 Build 0)  -->
<svg version="1.1" id="Layer_1" xmlns="http://www.w3.org/2000/svg" xmlns:xlink="http://www.w3.org/1999/xlink" x="0px" y="0px"
	 viewBox="0 0 960 560" style="enable-background:new 0 0 960 560;" xml:space="preserve">
<g>
	<g>
		<path d="M356,261c2.9-9.5,10.2-14.7,18.4-19.2c0.8-0.4,2.4,0,3.4,0.5c1.3,0.7,2.2,2.1,3.5,2.7c1.2,0.5,2.6,0.3,4,0.4
			c0-1.5,0.5-3.6-0.2-4.4c-3.9-4.1-0.8-4.6,2.4-5.7c5.9-2,11.9-3.9,17.6-6.5c7.6-3.6,7.9-3.8,12.9,2.7c1.4,1.8,2.8,3.6,4.7,6.1
			c1.7-5.6,3.2-10.2,5-16.1c1.4,2.2,1.9,3.4,2.7,4.3c1,1.2,2.4,3.2,3.3,3c1.5-0.3,3.3-1.8,4-3.2c3.9-7.4,6.1-8.8,14.2-7.8
			c1,0.1,2,0.1,3,0.1c8.7-0.3,17.4-0.7,26.2-0.8c6.7-0.1,8.1,1,10.2,7.5c0.4,1.4,0.8,2.7,1.6,5.6c1.5-4.9,2.5-8.4,3.8-12.7
			c3.3,0.4,6.8,0.3,9.7,1.4c11.5,4.5,22.9,9.4,34.3,14.2c4.7,2,8.1,7,14.2,5.5c0.6-0.2,2.7,2.2,2.7,3.4c0.1,2.9-0.7,5.9-0.9,8.8
			c-0.2,2.6,0,5.2,0,7.8c0.7,0.2,1.4,0.4,2.1,0.5c1.1-2.2,2.6-4.3,3.2-6.6c0.5-2.3,0.1-4.8,0.1-8.4c1.9,1.4,2.8,1.9,3.5,2.6
			c3.2,3.6,6.3,7.5,9.7,11c6,6.4,12,12.8,18.1,19.1c6.6,6.8,5.9,16.4,9.5,24.3c1.2,2.5,2.2,5.1,3.3,7.7c0,0.7,0,1.3,0,2
			c-1-0.3-2.3-0.2-3.1-0.8c-10.1-7.6-19.9-15.5-30.2-22.8c-4.7-3.3-10.3-5.2-15.4-8c-1.9-1-3.8-2.7-4.7-4.6
			c-3.7-7.6-8.1-8.8-15.8-3.3c-5.3-4-10.7-8.4-16.4-12.2c-2.5-1.6-5.8-1.9-8.8-2.6c-3.2-0.8-6.6-1-9.7-2c-5.1-1.5-6.1-3.6-5-8.9
			c-4.6-0.9-9.6,0.9-11.4,5.3c-2,4.9-4.6,5.3-9.3,4c-3.4-0.9-7.4-0.8-10.9,0.1c-5,1.3-6.3-1.1-7.2-4.9c-0.3-1.4-0.6-2.8-1-4.3
			c-5.1,0.7-6.5,4.1-6.6,7.9c-0.2,4.1-2.2,4.6-5.7,5.1c-6.5,1-12.9,2.4-19.1,4.4c-3.8,1.2-5.7,0.7-6.7-3.1c-0.6-2.4-1.4-4.7-2.3-7.6
			c-3.8,3.4-4.4,6.6-1.9,10.3c1.9,2.9,1.8,4.9-1.9,5.9c-6,1.6-10.3,5.4-13.6,10.7c-4.1,6.6-11,8.5-18.2,9.8
			c-15.6,2.9-23-2.6-24.5-18.6c-0.1-0.6-0.5-1.2-0.7-1.8C356,266.3,356,263.7,356,261z"/>
		<path d="M494.8,319.1c6,9.1,2.9,14.6-4.1,19c-1.7,1.1-3.3,2.3-4.8,3.5c-6.3,5.1-14.8,4.9-20-1.2c-1.6-1.8-2.2-5.8-1.4-8
			c2-5.2,5.1-9.9,7.9-14.8c1.8-3.1,3.6-6.2,5.7-9.7c1.5,0.9,3,1.8,4.7,2.8c-1-13.8,5.5-24.5,13.4-34.6c1-1.3,3.1-1.8,4.7-2.7
			c0.1,1.7,0.4,3.5,0.4,5.2c0,2,0,4-0.2,6c-0.5,4.8-1.3,9.5-1.5,14.3c-0.2,3.7-0.1,7.6,0.5,11.3
			C500.8,314.5,502.5,318.9,494.8,319.1z"/>
		<path d="M446.3,298c3.2,0.4,4.6,0.5,7.1,0.8c-3-2.9-8-3.3-6.2-7.9c1.3-3.2,2.8-6.5,5-9c4.8-5.3,7.1-12.8,14.3-16.1
			c4.5-2.1,7.4-1.2,10.5,2.2c3,3.4,5,6.6,2,11c-1.9,2.9-3.3,6.1-5.2,9c-0.6,0.9-1.9,1.3-3.4,2.3c1.6,3.8,0.6,7.2-4,11.2
			s-7,10.6-10.3,16.1c-2.6,4.2-5.2,8.4-7.9,12.6c-2.5,4-5.1,8-7.8,12c-0.9,1.3-2,2.5-3.8,4.9c-1.7-10.1,4.3-16.9,5.5-24.8
			C443.3,314.3,444.9,306.3,446.3,298z"/>
	</g>
</g>
</svg>
