<?xml version="1.0" encoding="utf-8"?>
<!-- Generator: Adobe Illustrator 26.2.1, SVG Export Plug-In . SVG Version: 6.00 Build 0)  -->
<svg version="1.1" id="Layer_1" xmlns="http://www.w3.org/2000/svg" xmlns:xlink="http://www.w3.org/1999/xlink" x="0px" y="0px"
	 viewBox="0 0 960 560" style="enable-background:new 0 0 960 560;" xml:space="preserve">
<g>
	<g>
		<path d="M601,406c-2.1-8.3-7.5-13.6-14.6-17.9c-2.5-1.5-4.4-4-6.2-6.3c-6-8.1-15.4-11.2-23.3-16.5c-2.5-1.6-5.2-2.9-7.9-4.3
			c-2.8-1.5-3.3-3.5-2.4-6.6c0.6-2,0.2-5.2-1.1-6.5c-1.2-1.1-4.9-1.2-6.3-0.1c-4,3.2-6.9,1.6-10.2-0.9c-4-3-8-6-12.4-8.2
			c-4.5-2.2-9.4-3.9-14.3-4.9c-4.2-0.9-5.7-2.1-4.5-6.5c0.8-3,0.5-6.4,0.6-9.6c-0.5-0.2-1.1-0.5-1.6-0.8c-3,3.3-5.9,6.6-8.9,9.8
			c-0.9,1-2,1.8-3.1,2.5c-3.5,2.1-5.1,1.3-5.6-2.6c-0.3-2.5-0.9-5-1.4-8.1c-4.6,2.3-7.3,4.9-8.7,9.2c-0.4,1.4-2.5,3-4.1,3.4
			c-6.6,1.4-13.4,2.2-20,3.5c-4.3,0.9-7.3-0.5-10.5-3.9c0.3,1.6,0.1,3.5,0.9,4.8c2.4,3.5,0.5,4.9-2.5,5.7c-8.6,2.3-16.4,6-23.5,11.6
			c-4.2,3.4-5.2,2.9-12.4-0.8c-3.2,6.1-8.5,9.6-15.1,11.7c-9.5,3.1-20.9-2.9-22.9-12.8c-1.9-9.7-1-18.1,6.7-26.3s14.9-16,26.1-18.8
			c2.8-0.7,5.7-0.8,8.6-1.1c0.2,3.4-0.2,6.3,0.8,8.6c0.8,1.7,3.3,2.7,5,4c0.7-1.8,2.5-4,2-5.4c-1.8-5.3,0.9-6.9,5.1-8.1
			c6.6-2,13.1-4.3,19.8-6.2c3.9-1.1,3.2,2.4,3.4,4.5c1,7.4,2,8.8,8.8,9.9c1-4.6,2-9.2,3.2-14.6c2.2,1.8,3.6,3,5.4,4.5
			c1.2-3.5,3.9-6.1-1.8-8.4c-2.1-0.8-2.5-6-3.9-9.8c-5.9,4-11.9,6.7-17.6-0.3c-4.2-5.1-10.3-9.4-5.3-18.8c-4.6,2.2-7.3,3.4-10.6,5
			c-0.7-5.5-1.3-10.2-2.1-14.9c-0.3-1.8-0.5-4-1.7-5.1c-4-3.8-2-6.6,0.7-9.7c1.2-1.3,2.1-2.9,3-4.3c-0.5-0.6-0.6-1.1-0.9-1.1
			c-6.6-1.7-6.8-2-6.3-9c0.6-8.2-0.3-16.7,4-24.3c1.1-2,2.3-4.1,3.5-6c1.8-2.8,4.2-3.5,7.3-2.5c1.4,0.5,3,1.1,4.3,0.8
			c1.4-0.3,3.4-1.3,3.8-2.4c0.4-1-0.7-3-1.7-4c-1.4-1.3-3.3-2.1-5.5-3.4c4.4-6.5,9.1-12.1,16.3-15.5c11.6-5.6,23.4-10.1,36.1-12.1
			c5.3,0,10.7,0,16,0c2.2,1,4.4,2,7.3,3.3c-0.6,3.1-1.4,6.6-2.1,10.2c2.1-0.4,3.2-1.2,4-2.3c2.3-3,5-4.7,9-3.7
			c1.4,0.4,3,0.2,4.5-0.1c3.4-0.8,4.8,0.6,4.5,3.9c-0.2,2.2-0.1,4.7-1,6.7c-1.9,4.2-4.5,8.1-6.6,12.2c-0.8,1.5-1.1,3.3-1.7,5
			c0.5,0.3,1,0.6,1.5,1c5.9-5.5,11.9-11.1,17.8-16.6c0.4,0.4,0.8,0.7,1.3,1.1c-0.6,2.4-1.3,4.8-1.9,7.1c3.4-1.1,6.2-2.6,8.3-4.8
			c2.4-2.4,4.5-2.3,7-0.8c6.8,4.1,12,9.8,14.1,17.4c3.7,12.9,0.8,24.5-8.4,34.7c-4.5,5-18.3,8.4-23.7,4.7c-4.9-3.3-9.4-7.3-14-11
			c-2.7-2.2-4.3-4.3-1.6-8c0.8-1.1-0.8-4-1.3-6.1c-1.7,0.5-3.4,0.8-5,1.4c-1,0.4-1.7,1.4-1.4,1.2c-6.4-1.7-11.7-3.6-17.1-4.3
			c-4.4-0.6-6.9-2.1-6.7-6.7c0-1.3,0.2-2.7-0.1-4c-0.2-1-1-2.5-1.6-2.5c-0.9-0.1-2.4,0.8-2.6,1.6c-0.6,1.9-0.6,4.1-0.9,6.5
			c-8.6,2.4-14.8,7.9-19.6,15.6c-3,4.9-5.2,4.9-9.6,1.3c-0.7-0.6-1.5-1.1-2.6-1.9c-1.2,1.6-2.3,3-3.4,4.6c1,0.7,1.4,1.2,2,1.4
			c7.8,2.8,8.9,5.2,6.4,13.3c-0.6,1.9-0.5,4.3,0.2,6.1c1.2,3,3.5,5.6,4.9,8.6c0.6,1.3,0.5,3.5-0.3,4.6c-1.4,2-3.1,3.7-0.6,5.9
			c2,1.8,3.5,4.4,7.1,1.8c1.6-1.2,5-1.6,6.8-0.7c4.1,2,7.7,5,11.3,7.4c-0.2,3.8-0.4,7.4-0.5,11.5c3.1-1.4,5.4-2.8,7.7-3.2
			c6.2-1.2,12.6-1.8,18.8-3.2c3.5-0.8,6.3-2.1,9.3,1.7c1.3,1.6,5.3,2.1,7.5,1.4c2-0.6,4.3-3.4,4.6-5.5c0.4-2.9,1.7-3.8,4-4.8
			c9.3-4.4,18.4-9.3,25-17.6c2.5-3.1,5-6.2,7.4-9.4c0.5,0.3,1.1,0.6,1.6,0.9c-0.5,1.3-0.9,2.7-1.5,3.9c-3.4,6.4-6.9,12.8-10.3,19.3
			c-1.3,2.5-2.3,5.5-4.3,7.1c-7.7,6-15.7,11.6-23.6,17.2c-4.2,3-8.7,4-12.2,1c-4.9,2.2-9.1,4.1-14,6.2c7.7,1.6,14.5,2.9,21.3,4.3
			c6.2,1.2,8.8,4,9.5,10.4c0.3,2.4,0.4,4.8,0.7,8.3c3.5-5.3,7-9,12.4-5.8c6.4,3.7,12.7,7.8,18.5,12.3c4,3.1,7.3,7.2,10.6,11.2
			c1.2,1.5,2.1,3.8,2.1,5.7c-0.1,3.1-1.1,6.1-1.7,9.5c3.2-1.1,5.9-3.9,8.5,0.4c2,3.4,4.8,6.3,7.1,9.5c4.9,6.9,10.5,13.2,12.6,21.8
			c1.8,7,4.3,13.9,6.5,20.8C603,406,602,406,601,406z"/>
	</g>
</g>
</svg>
