<?xml version="1.0" encoding="utf-8"?>
<!-- Generator: Adobe Illustrator 26.2.1, SVG Export Plug-In . SVG Version: 6.00 Build 0)  -->
<svg version="1.1" id="Layer_1" xmlns="http://www.w3.org/2000/svg" xmlns:xlink="http://www.w3.org/1999/xlink" x="0px" y="0px"
	 viewBox="0 0 960 560" style="enable-background:new 0 0 960 560;" xml:space="preserve">
<g>
	<g>
		<path d="M371,406c3.2-5.6,6.1-11.4,9.7-16.7c11.8-17.1,23.8-34.1,35.7-51.1c7.4-10.6,14.4-21.5,22.1-32c3.3-4.5,6.3-9.9,14.1-7.9
			c1.1,0.3,4.1-5.5,5.8-8.6c0.5-1-0.2-3-1-4.2c-3.4-5.4-0.4-8.9,2.7-13.1c7.4-10.2,14-21,21.1-31.4c1.6-2.4,1.4-7.3,6.4-5.4
			c0.8-4.7,0.8-9.3,2.4-13.3c2.4-6.2,3.3-6.2,9-3.9c1.8-1.5,3.8-2.8,5.3-4.5c0.8-1,1.6-3,1.1-3.9c-3.6-7.5,0.5-13.1,4.5-18.6
			c4-5.3,8.1-10.6,12.4-15.6c9-10.4,20-17.7,33.9-19.8c1.3,0,2.7,0,4,0c4.3,1.4,8.6,3.4,13.1,4.2c8.2,1.5,11.8,7.6,14.5,14.3
			c6.5,16.3-0.8,29.1-11.4,40.6c-2.9,3.2-7.1,5.5-11.1,7.3c-4.2,1.9-8.3,1.6-11-3.4c-1-1.8-3.6-2.8-6.3-3.6
			c6.8,7.9,0.8,12.9-3.2,17.8c-7.9,9.6-15.8,19.3-26.2,26.5c-2.7,1.8-4.8,3.9-7.2-0.2c-0.4-0.7-2-1.2-2.9-1
			c-4.2,0.8-7.4,8.1-5.4,11.8c2.1,4,0.8,8-3.7,8.8c-5.8,1.1-9.8,4.3-13.2,8.9c-2.8,3.6-5.5,7.6-10.9,7.9c-0.7,0-1.9,1.6-1.9,2.6
			c-0.6,9-7.3,13.4-13.4,18.2c-19.6,15.4-36.3,33.6-53,51.9c-9.4,10.3-18.8,20.6-28.1,31c-1.8,2-3.1,4.3-4.6,6.4
			C373,406,372,406,371,406z"/>
	</g>
</g>
</svg>
