<?xml version="1.0" encoding="utf-8"?>
<!-- Generator: Adobe Illustrator 26.2.1, SVG Export Plug-In . SVG Version: 6.00 Build 0)  -->
<svg version="1.1" id="Layer_1" xmlns="http://www.w3.org/2000/svg" xmlns:xlink="http://www.w3.org/1999/xlink" x="0px" y="0px"
	 viewBox="0 0 960 560" style="enable-background:new 0 0 960 560;" xml:space="preserve">
<g>
	<g>
		<path d="M356,267c2.5-4.8,4.7-9.6,7.5-14.2c1.8-3,4-5.8,6.4-8.4c2.1-2.3,4.4-4.7,7.1-6.1c6.2-3.1,12.7-5.7,19.5-8.7
			c1,0.8,2.6,2.1,5.6,4.4c-2.4-5.8,0.6-6.9,3.9-8.4c4.5-2.1,8.5-5,11.9-7.1c4,1.6,7.3,3,10.9,4.5c0.6-6.1,0.6-6.4,5.5-7
			c18.7-2.2,37.2-5.9,56.1-4.9c4.9,0.3,9.2,1,12,5.6c0.5,0.9,1.7,1.4,2.7,2.2c0.9-2.2,1.2-5.1,2.4-5.5c2-0.7,4.6-0.2,6.8,0.6
			c11.3,3.9,22.6,7.9,33.7,12.4c2.4,1,4,3.9,6,6.1c1.6,1.7,3.1,3.5,5.2,5.9c1-2.8,1.6-4.4,2.4-6.7c2,1.7,3.9,3,5.5,4.6
			c9.3,9,18.9,17.8,27.7,27.3c3.3,3.5,4.7,8.7,7.1,13c1.1,2,2.8,3.7,4.1,5.5c0,0.7,0,1.3,0,2c-1.6-0.4-3.5-0.4-4.8-1.2
			c-2.7-1.6-5.3-3.5-7.7-5.6c-13.2-11.6-28.7-19.1-44.5-26.3c-7.6-3.5-15.1-7-23.7-7.1c-1.1,0-3-1.4-3.1-2.3c-0.6-3.8-3-4-5.9-3.3
			c-11.1,2.9-22,1.6-33.1,0c-5.5-0.8-11.3,0.1-16.9,0.7c-3.5,0.4-5.5-0.3-6-4.6c-1.3,9.1-8.8,7.9-14.6,10
			c-6.9,2.6-13.3,6.5-19.8,10.3c-2.7,1.6-4.7,2.6-7.6,0.5c-3.3-2.4-5.2-0.4-5.3,2.9c-0.1,4-1.8,6-5.5,7.2c-2.6,0.9-5.2,2.3-7.5,4
			c-4.2,3.2-8,5.1-12.4-1.1c3.3,8.6-2.4,11.3-7.8,14.2c-1,0.6-2,1.2-3,1.9c-8.9,5.8-9.1,5.8-16.5-1.7c-1.5-1.5-3.1-3-4.6-4.4
			C356,274.3,356,270.7,356,267z"/>
		<path d="M477.8,251.2c2.8-0.1,7.6-0.4,13-0.7c-0.2,0.4,0.1,0,0.3-0.4c1.1-2.4,2.5-6.9,3.4-6.8c4.5,0.5,9,1.9,13.1,3.6
			c1,0.4,1.1,3.6,1.1,5.6c0,3.2,1,5.1,4.5,5.1c0.2,0,0.4,0,0.5,0.1c2.6,2,5.2,4,7.8,6c-2.8,0.4-5.6,0.9-8.4,1
			c-1.8,0.1-3.6-0.6-5.4-0.8c-4.3-0.3-6.3,1.5-5.8,5.8c0.5,4.6,0.4,8.6-2.9,12.5c-1.5,1.7-1.4,4.7-2.2,7c-0.9,2.7-1.9,5.3-3,8.3
			c0.4,0.2,1.5,0.7,2.9,1.4c-1.2,5-1,9.3,2.3,13.9c4.4,6.1,2,11-4.8,14.2c-1.4,0.6-2.8,2.8-2.9,4.4c-0.4,4.8,0,9.6-0.1,14.5
			c0,1.3-0.2,2.5-0.4,3.8c-0.5,0-1,0.1-1.4,0.1c-1.8-6.2-4.2-12.4-5.2-18.8c-0.6-3.8-2-4.2-5.1-4.2c-2.4,0-4.7-0.8-7-1.1
			c-1.1-0.1-2.7-0.4-3.2,0.2c-3.1,3.7-6.9,3.1-11,2.3c-2.5-0.5-5.3-0.1-8.7-0.1c2.9,5,5.5,9.5,8,14c-0.5,0.4-0.9,0.8-1.4,1.3
			c-10.7-11.9-24.1-18.4-40.1-19.5c0.1-0.7,0.2-1.5,0.3-2.2c3.6-0.6,7.3-1.2,11-1.8c-0.9-3.1-1.7-6.1-2.6-9.1c-7-1.8-8-3.3-8.8-10.5
			c-0.3-2.7-2-5.2-3.8-7.6c-0.3-3,1.2-5.7-2.9-8.6c-3.7-2.6-0.1-14.8,4.1-17.4c4.4-2.7,7.3-2.1,10.2,2.2c1.9,2.9,3.8,5.8,5.8,8.9
			c-1.3,1.1-2.6,2.2-4.8,4.1c8.1-0.7,8.4,5.4,9.7,9.9c1.2,4.3,8.6,7.7,2.6,13.1c1.8,3.8,3.5,7.3,5.3,10.8c1.1,2.3,8.7,3.8,12.8,2.8
			c3.8-0.9,7.7-1.5,11.5-2.5c4-1.1,8.2-1.9,11.8-3.9c1.6-0.9,2.2-4.1,2.7-6.4c0.5-2.8,0.1-5.7,0.4-8.5s1.1-5.5,1.3-8.2
			c1.3-8.4,2.6-16.9,4-26.2c-11.7,4.4-23.2,1.6-34.7,2.8c0-0.5,0-0.9,0-1.4c-1.7,0.9-3.3,2.1-5,2.5c-6.9,1.6-9.8-0.9-9.5-7.8
			c0.3-7,5.9-10.3,14-8.4c1,0.2,2.1-0.2,3.1-0.2C461.6,250.7,468.8,250.9,477.8,251.2z"/>
		<path d="M517.7,331c-0.9,8-4.8,12-12.3,12.2c-3.5,0.1-6.3-0.8-7.5-4.4c-1.4-4-1.6-8.4,1.7-11.2c3.7-3.1,6.4-6.8,7.4-11.2
			c1.2-5.6,3.6-8.8,10.3-7.1c-3.2-10.5,6-16,7.7-24.1c0.1-0.5,0.9-1.3,1.3-1.2c7.1,0.4,4.1-3.8,3.3-7.1c-0.3-1.2-0.1-2.6,0.3-3.7
			c2-5.5,4.2-11,6.4-16.5c0.2-0.6,0.6-1.2,0.9-1.8c0.4,0.1,0.9,0.2,1.3,0.3c0.4,1.1,1,2.1,1.2,3.2c1.5,11.8,0.9,23.5-1.6,35.1
			c-0.7,3.4-3.1,6.4-3.8,9.7c-0.2,2.2,0.3,4.8-0.7,6.6c-3.3,6.3-6.9,12.5-10.8,18.5C522.1,329.6,519.9,330,517.7,331z"/>
	</g>
</g>
</svg>
