<?xml version="1.0" encoding="utf-8"?>
<!-- Generator: Adobe Illustrator 26.2.1, SVG Export Plug-In . SVG Version: 6.00 Build 0)  -->
<svg version="1.1" id="Layer_1" xmlns="http://www.w3.org/2000/svg" xmlns:xlink="http://www.w3.org/1999/xlink" x="0px" y="0px"
	 viewBox="0 0 960 560" style="enable-background:new 0 0 960 560;" xml:space="preserve">
<g>
	<g>
		<path d="M509,406c-3.3,0-6.7,0-10,0c-0.6-0.3-1.1-0.8-1.7-0.8c-12.6-1.2-24.5-4.8-36.4-9.5c0.7-3.2,1.3-6.1,2-9.5
			c-6.5-0.4-5,6.3-9.3,8.8c-2.8-1.9-6.4-3.7-9.2-6.2c-7.1-6.3-14.5-12.6-16.6-22.7c-1.4-6.8-0.5-9.1,5.6-12.2
			c0.9-0.5,1.7-2.1,1.7-3.1c0-0.9-1.3-2.2-2.2-2.4c-1.7-0.5-3.6-0.2-5.5-0.4c-5-0.6-6.1-2.4-5.3-7.4c0.7-4.6,0.7-9.4,2.1-13.7
			c1.6-4.6,3.5-10.5,7.1-12.6c5.6-3.2,4.5-6.7,4.2-11.3c-0.1-2.5,1.3-6,3.3-7.6c7.9-6.4,17-8.9,27.3-7.5c2.7,0.4,6.7-0.6,8.2-2.5
			c2.9-3.6,5.5-4.1,9.3-2.4c1.6,0.7,3.6,0.5,5.3,1.1c6.7,2.2,13.8,4,17,11.6c0.7,1.6,2.2,3.5,3.8,4c7.7,2.5,16.2,14.6,14.7,22.5
			c-1.1,5.5-2.9,10.9-5.4,15.9c-1.6,3.2-4.9,5.6-7.4,8.3c-0.6-0.4-1.2-0.8-1.8-1.2c0.3-1.3,0.4-2.7,1-3.9c1.7-3.2,3.6-6.3,5.4-9.5
			c3.2-5.5,2.1-11.1-1.6-15.3c-1.8-2.1-6.5-2.4-9.9-2.1c-3.6,0.2-6-0.1-7.7-3.6c-0.5-1-2.3-1.5-3.6-1.7c-1.5-0.3-3.2-0.1-4.8-0.1
			c0.3-0.4,0.7-0.9,1-1.3c-2.1-2.4-4-5-6.3-7.1c-0.7-0.6-3.9,0.4-3.9,0.6c0,3,0.4,6,0.8,9.6c-0.1,0.1-0.9,0.7-1.7,1.1
			c-5.1,2.6-10.1,5.4-15.2,7.8c-2.2,1-4.7,1.5-8.3,2.6c-5.5,7.3-1.9,15,3.7,22.2c-1.9,3.2-4.1,6-5.5,9.1c-2.3,5.4-0.8,7.1,5,7.3
			c2.8,0.1,5.6,1.1,8.4,1.9c4.3,1.2,8.5,2.4,12.7,3.9c5.8,2,12.8,1.1,15,10c1.5,6.3,10.1,6.4,13.9,0.9c1.5-2.2,2.4-4.8,4-6.9
			c1-1.4,2.6-3.1,4-3.3c11.8-1,17.5-8.4,20.7-18.8c1.2-4,2.8-7.4,8.7-6.6c2.8,0.4,7.3-2.3,8.8-4.9c1.9-3.5,0.2-7.4-4.3-9
			c-2.6-0.9-3.4-2.9-2.4-5.6c0.8-2.2,1.1-4.5,1.8-6.8c4.5-14.8,3.9-29.1-3.7-42.9c-3.6-6.5-3.5-6.4,2-11.5c2.3-2.1,4.2-4.5,6.5-7
			c-5.3-2.8-8.2,0-11.2,1.8c-2.7,1.7-5.2,3-7.9-0.2c-4.7-5.6-10.8-8.2-17.9-9.6c-5.2-1-10.3-2.6-15.1-4.6c-1.6-0.6-2.7-3.2-3.2-5.2
			s-0.1-4.4-0.1-6.5c-0.5-0.2-1.1-0.4-1.6-0.7c-1.5,1.9-3.3,3.7-4.6,5.8c-1.9,3-4.1,4.1-7.8,3.8c-4.4-0.4-9-0.1-13.3,0.8
			c-9.4,1.9-18.6,4-23.1,14.5c-1.4,3.2-5.5,6.6-8.8,7.1c-4.6,0.6-4.6,1.9-3.4,5.2c0.6,1.7,0.6,3.7,1.6,5.2c2,3.2,0.8,5.6-1.2,8.1
			c-3.1,3.9-6.7,7.5-9.1,11.8c-5.8,10.1-7,10.9-18.7,7.7c-0.2,3.6-0.2,7-0.7,10.4c-0.4,2.6-0.6,5.6-2.2,7.5
			c-13.6,16.3-25.4,33.8-34.1,53.2c-1.2,2.8-3.7,5-5.6,7.5c-0.6-0.2-1.1-0.5-1.7-0.7c0-1.7-0.3-3.5,0-5.1c0.9-4.7,1.6-9.5,3.1-14.1
			c5.3-15.6,11.2-31,16.3-46.7c2.6-7.9,3.8-16.2,5.7-24.4c0.6-2.4,0.9-5,2.3-7c3.2-4.8,7-9.2,10.8-14.1c-0.3-0.5-0.6-1.8-1.5-2.4
			c-3.6-2.5-3.1-5.6-1.9-9.1c1.6-4.8,2.6-9.8,4.3-14.6c4.2-11.5,8.5-23,13.2-34.3c0.9-2.2,3.9-3.8,6.2-5.2c2.6-1.6,5.5-2.8,9.3-4.7
			c-3-2.7-5.2-4.5-7.2-6.7c-0.9-1-2.1-3.1-1.6-3.9c5.6-11.5,9.7-24.3,23.7-29.1c3.7,0,7.3,0,11,0c2,0.6,4.1,1.3,6.1,1.7
			c8.2,1.9,16,4.6,22.5,10c1.5,1.2,2.7,3.3,3.1,5.2c1,5.1,1.4,10.3,2,15.2c3.5,0.2,7.2-0.1,10.6,0.7c5.8,1.4,11.3,3.4,17,5.1
			c7.5,2.2,5.8,1.1,5.1,9.5c-0.1,0.7-0.5,1.4-1.2,3.5c2.5-1.6,4.2-2.2,5-3.4c2.4-3.5,5.8-3.2,9-2.2c7.7,2.4,15.7,4.3,22.7,8.2
			c7.3,4,15.3,8.8,19.6,15.4c6.3,9.8,9.6,21.6,14.5,33.2c-3.6,1.3-6.2,1.6-8,2.9c-2.4,1.8-4.2,4.3-6.3,6.5c1.8,1.2,3.5,3,5.6,3.6
			c7.6,2.2,7.6,2.1,7.8,10.3c0,1.2,0,2.4,0.3,3.5c2.8,10.6,4,21.4,2.2,32.4c-0.9,5.2,0,11.3-8.7,11.1c-4.3-0.1-5.5,3.2-3.5,6.2
			c3.9,5.8,3.7,11.3-0.5,16.9c-5.7,7.5-11.4,15-17,22.6c-6.1,8.3-6.1,8.4-15.5,5.8c-5.3-1.4-5.9-0.7-5,4.9c0.4,2.6,1.9,6.2-1.8,7.4
			C531.8,396.1,522,405.1,509,406z"/>
	</g>
</g>
</svg>
