<?xml version="1.0" encoding="utf-8"?>
<!-- Generator: Adobe Illustrator 26.2.1, SVG Export Plug-In . SVG Version: 6.00 Build 0)  -->
<svg version="1.1" id="Layer_1" xmlns="http://www.w3.org/2000/svg" xmlns:xlink="http://www.w3.org/1999/xlink" x="0px" y="0px"
	 viewBox="0 0 960 560" style="enable-background:new 0 0 960 560;" xml:space="preserve">
<g>
	<g>
		<path d="M481,156c1.1,3.9,2.3,7.9,3.2,11.9c0.7,3.1,0.9,6.2,1.4,9.8c4.1,0.1,3.6,5,4.8,8.5c2.5,6.8-4.8,5.2-8.3,8.1
			c1.8,0.5,2.6,0.7,3.3,0.9c2.4,0.7,6.6,1.1,6.8,2.1c0.6,4.2,1.3,9.2-0.3,12.9c-2.7,6.4-6.9,7.5-13.5,6c-6.7-1.6-10.5-6-11.1-12.9
			c-0.2-2.3-0.2-4.7-0.5-7c-0.3-2.7-0.3-4.9,3.3-5.4c1-0.1,1.9-1.6,3.3-3c-4.9-2-4-4.9-2.6-8.5c3.1-7.7,5.6-15.6,8.3-23.4
			C479.7,156,480.3,156,481,156z"/>
		<path d="M481,406c-2.9-10.1-5.8-20.2-8.4-30.3c-0.4-1.6,0.5-3.6,1.3-5.3c0.6-1.4,1.8-2.5,2.9-3.9c-2.4-1-5.7-1.5-5.8-2.5
			c-0.5-4.9-1-10,0-14.7c1.3-5.8,7.6-7.3,14.4-4.4c9.5,4,10.8,7.2,7.4,17c-1.2,3.5-1.4,7.4-2.6,11c-0.6,1.9-2.4,3.5-4,5.6
			c4.9,1.7,2.4,6.1,1.3,10.3c-1.6,5.8-3,11.6-4.5,17.3C482.3,406,481.7,406,481,406z"/>
		<path d="M473.5,252c-6-2.7-7-6.2-4.5-10.9c3.4-6.2,6.8-12.2,15.5-11.4c2.9,0.3,4-1.3,3.2-4.6c-0.4-1.6,0.4-4.4,1.6-5.1
			c4.2-2.6,8.8-4.6,13.4-6.5c1-0.4,2.6,0.5,4,0.9c-0.4,1.4-0.4,3-1.2,4c-2.1,2.5-5,4.5-6.8,7.1c-2,2.9-3.9,6.2-4.5,9.6
			c-1,6-5.3,4.6-8.9,4.7c-0.3,0.6-0.6,1.1-0.5,1.1c3.1,3.1,3,7.1,3.9,11.1c0.8,3.6,5.2,6.5,8.3,9.9c-0.5,1.2-1.2,2.6-1.8,4.1
			c0.4,0.3,0.8,0.8,0.9,0.7c4-3.1,6.4-1.6,8.5,2.6c1,2.1,3.6,3.4,5.2,5.3c1.1,1.4,2.7,3.7,2.2,4.7c-2.5,4.8,0.7,5,3.8,6.6
			c2.1,1.1,4,3.9,4.7,6.4c1.1,3.4,1.2,7.2,1.4,10.9c0.3,4.8-1.9,7.2-7.1,7.9c0.2,0.6,0.3,1.4,0.7,1.7c3.9,3.4,3.9,6.8,1.4,11.4
			c-6.9,13-12.5,15.2-27.7,14.4c-0.3-1.4-0.6-2.8-1-4.9c-2.1,1-4.3,1.5-5.8,2.7c-3.6,3.1-10.7,4.2-15.1,0.8
			c-2.2-1.7-2.7-5.5-4.2-8.9c-2.7,0.4-5.6,6.7-10.8,2.1c-3.3-3-7.5-5.1-10.4-8.4c-1.5-1.7-0.9-5.2-1.3-9.1
			c-7.9-4.4-7.7-12.9-5.8-21.7c1.4-6.4,7.6-11,15.3-11.2c3.5-0.1,6.9,0.5,10.4,0.6c7.3,0.2,10.4,4.6,11.8,11.2
			c0.8,3.6,0.6,6.1-3.6,7c-1.5,0.3-2.9,1.3-5.8,2.6c2.6,0.6,3.9,0.8,5.2,1.3c1,0.4,2.6,1.1,2.6,1.7c0.3,5.3,4.7,6.3,8.1,8
			c0.9,2.7-3.8,6.4,1.5,7.5c3.6,0.8,7.2,0,7.1-5.2c2.3-0.2,4.4-0.3,7-0.5c-0.4-1.8-0.8-3.4-1.1-4.9c4.9-2,6.3-4.8,5.5-9.4
			c-0.4-2.4-0.1-5-0.1-8.2c-13.8-7.5-13.8-7.5-13-18.4c-5.7,0.5-13.6-5.4-15.8-12.2C468.7,257.8,466.8,253.9,473.5,252z"/>
		<path d="M546.4,286.4c-0.8,4.5-6.3,7.7-12.5,7.3c-2.1-0.1-4.3-0.2-6.3-0.9c-1.8-0.6-3.8-1.5-5-2.9c-4.5-5-3-17.7,2.5-21.7
			c3.2-2.4,8.5-0.4,12.1,4.6c4.2-5.1,9.9-3.2,15-2.5c1.3,0.2,2.2,4.1,3.3,6.3c5.7-2.1,29,6.4,34,13.4c-3.7,0.7-6.9,1.8-10.2,2
			c-8.1,0.3-16.3,0.6-24.4,0C551.8,291.6,549.3,288.4,546.4,286.4z"/>
		<path d="M397.3,293.6c-1,2-1.6,3.1-2.1,4c-6.7-2.2-12.9-4.2-19.5-6.3c3.1-5.7,8.5-4.1,12.8-5.2c4.6-1.3,9.2-2.2,13.9-3.3
			c1.6-0.4,3.2-0.9,4.8-1.1c5.3-0.7,10.6-2.1,15.8-1.9c9.6,0.4,13.6,9.9,7.9,17.9c-2.8,3.9-7.4,5.4-12.2,4.3
			c-3.4-0.8-6.8-0.9-10.3-1.4C404.4,299.9,399.9,299.9,397.3,293.6z"/>
	</g>
</g>
</svg>
