<?xml version="1.0" encoding="utf-8"?>
<!-- Generator: Adobe Illustrator 26.2.1, SVG Export Plug-In . SVG Version: 6.00 Build 0)  -->
<svg version="1.1" id="Layer_1" xmlns="http://www.w3.org/2000/svg" xmlns:xlink="http://www.w3.org/1999/xlink" x="0px" y="0px"
	 viewBox="0 0 960 560" style="enable-background:new 0 0 960 560;" xml:space="preserve">
<g>
	<g>
		<path d="M356,278c5.3-9.1,9.8-18.8,16.3-26.9c3.7-4.6,10.7-6.7,16.3-9.8c0.9-0.5,2.4,0,3.4-0.5c4-1.8,6.4-0.7,7.3,3.6
			c0.1,0.6,0.8,1,1.3,1.6c4.3-1.5,5.2-5.1,6.6-8.7c0.8-2,2.6-4.4,4.5-5c15-4.6,30.4-5.2,45.8-3.4c2,0.2,3.7,2.8,5.6,4.3
			c-0.3,0.4-0.6,0.8-0.8,1.1c0.3,0.1,0.8,0.2,0.9,0.1c7.2-8.6,16.1-6.4,25-3.9c4,1.1,8.2,1.7,12,3.2c4.7,1.9,9.1,4.6,13.6,7
			c0.5,0.2,1,1.1,0.9,1.6c-0.9,6.7,3.3,4.8,6.5,3.6c2.6-1,4.2-0.5,6.8,0.6c11.3,5.2,21.1,12.5,30.2,20.7c1.8,1.7,2.1,5.1,3.3,8.6
			c10.1,1.7,17,9.6,24,17.7c9.3,10.7,15.4,23.3,20.7,36.4c0,0.7,0,1.3,0,2c-1.7-0.6-3.8-0.8-4.9-1.9c-4.2-4.3-7.5-9.5-12.1-13.2
			c-4.5-3.6-10.2-5.9-15.5-8.4c-4-1.9-8.2-3.4-6.9-9.3c-2.9,0-5.1,0.4-7.1-0.1c-3.1-0.8-6-2-8.9-3.4c-3.7-1.7-7.2-4-11-5.5
			c-4.7-1.7-8.2-3.9-8.6-9.5c-0.2-3.5-5.3-5.9-8.3-3.7c-4.4,3.1-7.8,2.6-11.2-1.5c-1.9-2.2-4.5-3.9-7-6.1c-4.5,5.8-9.1,11-12.9,16.8
			c-1,1.5,0.4,4.6,0.8,6.9c0.2,1.4,1.2,3.4,0.6,4.2c-3.5,4.6-7.1,9.1-11.2,13.2c-3.7,3.7-8.1,6.1-13.2,1.4c-0.3,0.4-0.6,0.8-0.9,1.1
			c1.6,1.8,3.3,3.5,4.6,5.5c0.8,1.2,2,3.3,1.5,4.1c-3.5,5.8-8.3,10.5-15.4,10.1c-7.6-0.5-15.9-0.2-20.3-9c-1.6-3.3-1.6-5.7,0.3-9.1
			c4.7-8.7,9.6-16.9,18.8-21.9c3.3-1.8,6-3.2,9.7-1.9c1.3,0.4,2.9,0.3,4.9,0.5c-3.3-6.3-1.2-10.3,3.9-13.8
			c5.4-3.8,10.2-8.3,15.9-13.1c-8.3,0-15.7-0.1-23,0.1c-2.4,0.1-5,0.4-7.2,1.4c-7.2,3.2-9.7,2.8-15.4-3c-0.7-0.7-1.5-1.2-3.2-2.5
			c0.4,8.9-6.2,8-11.3,10c-4,1.6-7.3,4.9-10.7,7.7c-3.2,2.6-6,5.6-11.1,1.2c1.9,6-0.9,8.1-5.1,10.2c-3.2,1.7-5.5,5.2-8.1,8
			c-8,8.1-21.9,8.3-29.9,0c-3.8-3.9-7-8.4-10.4-12.6C356,282.7,356,280.3,356,278z"/>
	</g>
</g>
</svg>
