<?xml version="1.0" encoding="utf-8"?>
<!-- Generator: Adobe Illustrator 26.2.1, SVG Export Plug-In . SVG Version: 6.00 Build 0)  -->
<svg version="1.1" id="Layer_1" xmlns="http://www.w3.org/2000/svg" xmlns:xlink="http://www.w3.org/1999/xlink" x="0px" y="0px"
	 viewBox="0 0 960 560" style="enable-background:new 0 0 960 560;" xml:space="preserve">
<g>
	<g>
		<path d="M606,269c-2.2,8.3-4.1,16.8-6.8,24.9c-1.2,3.5-4,6.7-6.5,9.6c-2.3,2.6-3.7,4.6-0.7,7.5c3.2,3.1,3.4,6.1,0.8,10.1
			c-3.4,5.3-5.6,11.3-8.8,16.7c-4.5,7.7-9.3,15.2-14.1,22.7c-0.9,1.4-1.9,2.7-3.1,3.9c-4.5,4.6-6.4,4.8-12,1.8
			c-0.8-0.5-1.8-0.8-2.6-1.1c-0.3,0.5-0.7,0.9-0.7,1c2.6,5.2,0.8,7.7-4.6,9.6c-3.9,1.5-7.1,4.9-10.9,7c-4.7,2.6-9.6,5.3-14.7,7
			c-2.3,0.8-5.3-0.6-7.9-1.1c-0.3,0.5-0.6,0.8-0.6,1c0.2,8.6,0.2,8.6-8.8,10.2c-0.3,0.1-0.8,0-1,0.2c-7.8,6.7-16.7,4.8-25.1,2.6
			c-5.5-1.4-10.8-4.2-15.5-7.3c-1.9-1.2-2-5.1-3.2-8.2c-7.4,7.2-13.6,1-19.7-1.4c-4.2-1.6-7.8-5.1-11.5-7.8c-3.4-2.5-6.3-5.7-10-7.4
			c-6.1-2.9-9.2-6.9-8.7-13.8c0.1-1-2.1-3.2-2.8-3c-3.3,0.8-4.5-1.4-5.9-3.5c-3.7-5.7-8.3-11.1-11-17.3c-3-7.1-4.4-14.9-6.5-22.4
			c-0.6-2.1-1.7-4.1-1.8-6.2c-0.1-2.4,0-5.3,1.2-7.3c2.1-3.4,2.7-6.4,2.9-10.5c0.4-7.3,2.9-14.5,5-21.7c1-3.6,2.8-7.1,4.6-10.5
			c1-1.8,2.6-3.3,4.1-5.1c0.9,1.2,1.3,1.6,1.2,1.8c-5.2,8.9-1.2,19.3-4.8,28.6c-2.2,5.8-1.6,12.2,2.5,17.6c2.7,3.5,0.5,6.2-2.1,9.2
			c1.6,1.8,2.9,4.3,4.9,5.3c5,2.5,6.6,6.9,8.6,11.5c4.5,10.2,11.7,18.6,20,25.9c1.1,1,2.4,1.8,3.8,2.3c3.5,1.3,5.9,3.1,4.4,7.1
			c0.6,0.4,0.9,0.7,1.1,0.7c8.4-0.1,13.7,5.4,19.5,10.2c8.5,7,18.5,10.3,29.4,10.9c2.1,0.1,4.3,1.2,6.2,2.3c4.4,2.5,6,2,8.2-2.4
			c0.9-1.8,2.5-3.4,4-4.7c11.1-9,22.3-17.8,33.4-26.8c2.8-2.3,5.2-4.2,9.2-4c6.1,0.4,7.6-1.2,7.1-7.2c-0.3-2.9,0.2-4.6,2.8-6.1
			c1.9-1.1,3.8-3,4.7-5c5.5-12.2,12.3-24,14.9-37.4c0.4-2,0.8-4,0.5-5.9c-0.4-3.4,0.8-5.6,3.5-7.6c1.6-1.2,3.6-3.6,3.4-5.2
			c-0.2-1.5-3-2.7-5.6-4.7c1-8.5-1.7-17.6-5.5-26.7c-2-4.8-5-8.1-9.1-10.8c-3.9-2.5-6.5-5.1-2.9-10c2-2.7,0.1-5.3-3.2-4
			c-5,1.9-7.3-1-10.7-3.5c-8.4-6.3-17-12.3-26-17.6c-3.3-2-7.9-1.7-12.3-2.5c0.2-0.7,0.5-1.8,0.7-2.8c0.6-2.8-0.9-4.3-3.2-3.1
			c-3.9,1.9-7.5,4.6-11.3,6.9c-1.6,1-3.8,2.5-5.3,2.1c-13.6-3.9-27.3-3.2-40.9-0.4c-2.6,0.5-4.7,0.1-4.4-3.4c0.1-1-0.4-2.1-0.6-3.1
			c-0.6-0.2-1.1-0.4-1.7-0.6c-1.4,2.7-3.4,5.3-4,8.1c-0.8,3.5-2.5,4.5-6,5.2c-3.9,0.8-7.5,3.2-11,5.4c-7.4,4.7-14.5,9.8-21.9,14.4
			c-2.1,1.3-5,1.2-8.1,1.9c3,7.4-2.7,10.7-8.3,14.4c-11.3,7.4-18.9,5.6-25.2-6.5c-1.1-2.2-2.1-4.4-3.1-6.7c0-2.3,0-4.7,0-7
			c5-7.1,9.4-14.8,15.3-21.1c4.3-4.6,10.4-7.6,15.9-11.1c6.2-3.9,7.5-3.4,10.7,3.4c0.3,0.7,0.9,1.3,1.7,2.6c1.2-2.4,2.9-4.3,3-6.1
			c0.5-11.1,9.6-14.6,17.1-19.3c1.7-1.1,4.1-1.6,6.2-1.6c7,0,14-2.2,21,0.3c1.5,0.6,3.6-0.2,5.4-0.6c4.2-0.8,8.3-1.8,9.5,4.3
			c0.2,0.9,1.1,1.6,2.1,2.8c1.2-1.6,2.6-2.7,3-4.1c1.5-5.8,5.7-7.7,11.1-8.4c1.1-0.1,2.1-0.7,3.2-1c5.7,0,11.3,0,17,0
			c4.7,1.9,9.3,4.2,14.1,5.7c7.9,2.5,16,4.3,23.9,6.8c1.4,0.4,2.9,2.9,3.1,4.6c0.3,2.8-0.3,5.7-0.7,9.7c1.7-1.4,2.4-2,3.1-2.7
			c5.6-5.6,6.7-5.8,13.7-1.7c12.1,7.1,23.2,15.1,29.6,28.5c2.5,5.1,5.7,9.4,0.5,14.4c-0.1,0.1,0.1,0.6,0.2,1.6
			c8.3-1.5,9.4,5.3,11.6,10.7c2,4.9,3.5,10,5,15.1c1.4,4.7,2.6,9.5,3.8,14.3C606,265,606,267,606,269z"/>
		<path d="M549.7,272.6c1,3.8,2.2,7.7,3.1,11.7c3.3,14.6,0,28.2-7.5,40.7c-3,5-6.5,10-12,13.4c-4.7,2.9-8.2,7.7-12.8,10.7
			c-2.8,1.8-6.8,1.5-10.3,2.2c-1.2,0.2-2.8,0.1-3.5,0.8c-10.2,10.1-18.9,11.5-32.9,4.8c-1.8-0.9-3.6-1.9-5.5-2.4
			c-4.1-1.1-8.7-1.6-8.8-7.8c-6.1,3.2-10-0.5-13.4-3.5c-5.8-5-10.8-10.8-16.3-16.2c-3-3-3-6.4-1.6-10.1c1.6-4.5,1-4.9-3.8-5
			c-1.8,0-4-1.4-5.1-2.9c-5.6-7.8-6.6-16.9-6.5-26.2c0.1-5.9-0.2-11.9,0.4-17.7c0.2-2.2,2.2-4.6,4.1-6.1c3.8-2.9,6.2-5,5-10.9
			c-0.7-3.7,2.8-9.1,5.9-12.4c6-6.4,13-11.9,19.9-17.4c1.4-1.1,4.1-1.2,6-0.7c3.5,0.9,5.3,0.4,6.1-3.5c0.3-1.5,1.8-3.3,3.2-3.9
			c12.8-5.1,26.3-6,39.6-3.6c5,0.9,9.4,5.2,14.4,8.1c2.1-3.6,5.8-2.6,10.2-1.3c9.2,2.8,17.2,7.1,23,15c8.3,11.3,6.1,24.4-5.8,31.8
			c-4.1,2.6-8.3,0.5-11.4-2.1c-2.3-2-3.6-5.4-5.2-8.2c-0.9-1.7-1.6-3.6-2.3-5.4c-1.5,0.9-3,1.7-4.4,2.6c-0.4,0.2-0.9,0.5-1.6,0.9
			c-0.7-0.5-1.5-1-2.2-1.7c-7.4-7.9-16.8-9.7-27-8.4c-4.9,0.6-9.8,2.7-14.6-1.8c2.4,5.1-0.9,5.8-4.1,7.3c-8.8,4.1-17.4,8.7-27,13.6
			c6.2,5,3.8,8.2-0.1,11.6c-1.4,1.1-2.8,3.4-2.6,5c1.1,9.8,0.1,20.1,8.2,28.1c1.4,1.4,0.5,4.9,0.8,7.8c3.7,1.1,7.3,2.4,7.6,7.9
			c0.1,2,3.7,3.9,5.7,5.8c5.6,5.3,11.5,10,19.8,10.5c1.2,0.1,2.5,1.4,3.4,2.5c2.2,2.8,4.3,4.2,7.3,0.8c0.7-0.8,2.5-1.5,3.5-1.2
			c10.8,3.2,18.6-3.2,26.7-8.2c4.1-2.5,7.5-6,11.1-9.2c6-5.3,8.7-12,8.3-20c0-0.5,0-1,0.1-1.5C546.4,288.9,548,281,549.7,272.6z"/>
	</g>
</g>
</svg>
