<?xml version="1.0" encoding="utf-8"?>
<!-- Generator: Adobe Illustrator 26.2.1, SVG Export Plug-In . SVG Version: 6.00 Build 0)  -->
<svg version="1.1" id="Layer_1" xmlns="http://www.w3.org/2000/svg" xmlns:xlink="http://www.w3.org/1999/xlink" x="0px" y="0px"
	 viewBox="0 0 960 560" style="enable-background:new 0 0 960 560;" xml:space="preserve">
<g>
	<g>
		<path d="M356,321c6.2-9,12.1-18.3,18.6-27c3.8-5,8.4-9.4,13-13.7c4.2-4,9-7.4,13.2-11.4c2.3-2.2,4.4-3.8,7.9-2.7
			c0.9,0.3,2.5-0.5,3.4-1.2c2.2-1.8,3.9-4.5,6.3-5.7c10.5-5.3,21-10.8,32.1-14.8c5.8-2.1,12.6-1.1,19-1.6c1.5-0.1,3.7-0.4,4.2-1.3
			c1.7-3.1,4.2-3.3,7.1-3.5c9.8-0.4,19.5-1.2,29.3-1.3c5.8-0.1,11.6,0.6,17.3,1.4c1.5,0.2,3.1,1.8,4.3,3c1.5,1.7,2.7,3.8,4.4,6.1
			c5.2-3.9,10-0.2,15.1,0.4c13.4,1.6,23.8,8.9,33.9,16.6c3.9,3,6.9,7.1,10.3,10.8c0.6,0.6,1.5,1.4,1.4,2c-1.2,8.2,6.6,11.7,9.2,18
			c0,1.3,0,2.7,0,4c-1,3.3-1.8,6.6-2.9,9.9c-1.6,5.2-4.9,7.9-10.6,8.2c-13.7,0.6-19.9-3.1-25.5-15.4c-1.4-3.2-3.4-6.1-4.9-9.2
			c-0.9-2-1.3-4.2-2-6.9c-7.9,4.5-10.2-4-14.6-7.2c-6.8-4.9-14.4-8-21.4-12c-5.7-3.3-10.8-3-16-3.2c-11.8-0.5-23.7,0.2-35.5,0.5
			c-2,0-4,0.5-5.9,0.9c-6.6,1.3-6.6,1.3-10.2-4.5c-4.4,9.4-14.3,9.1-21.9,13c-8.6,4.3-17.5,8-26.3,11.9c-1.1,0.5-2.7,0.9-3.7,0.6
			c-4.4-1.6-6.5,0.3-8.8,4c-1.8,3-5,5.2-7.7,7.7c-3.8,3.5-7.6,6.9-11.4,10.4c-6,5.5-12,11.1-18.1,16.6c-0.6,0.6-1.8,0.7-2.7,1
			C356,323.7,356,322.3,356,321z"/>
	</g>
</g>
</svg>
