<?xml version="1.0" encoding="utf-8"?>
<!-- Generator: Adobe Illustrator 26.2.1, SVG Export Plug-In . SVG Version: 6.00 Build 0)  -->
<svg version="1.1" id="Layer_1" xmlns="http://www.w3.org/2000/svg" xmlns:xlink="http://www.w3.org/1999/xlink" x="0px" y="0px"
	 viewBox="0 0 960 560" style="enable-background:new 0 0 960 560;" xml:space="preserve">
<g>
	<g>
		<path d="M466,406c-0.9-0.4-1.7-1-2.6-1.3c-12.3-3.5-17.9-13.4-15.1-25.9c1.1-5.1,1.6-10.4,2.1-15.6c0.3-3.6,0.6-6.9,5-8.1
			c3.5-1,3.4-3.4,1.3-5.7c-2.9-3.1-3.1-6.4-2.4-10.5c0.8-4.4,0.2-9,0.2-12.2c-8.2-2.8-16.6-4.6-23.9-8.4c-3.4-1.8-4.6-7.4-6.9-11.5
			c-3.1,2.4-7,1.2-9.9-2c-3.7-4-6.7-8.5-9.9-12.8c-0.4-0.5-0.6-1.2-1-1.7c-4.8-5.2-6.6-10.6-0.9-16.4c0.3-0.3,0-1.2,0-2.5
			c-1.5,0.6-2.7,1.1-4,1.6c-5.1-7.6-6.6-36.4-1.5-44.2c5.6,14.1,11,27.6,16.4,41c6.8-1.1,12,3.3,12.1,10.1c0.1,3.8,0,7.5,5.7,4.8
			c0.7-0.3,2,0.4,3,0.8c5.5,2.6,11,5.2,16.3,8.1c1.5,0.8,2.9,2.5,3.7,4.1c1.1,2.3,1.6,4.9,2.7,8.4c4.2-4.9,8-3.8,12.1-1
			c2.7,1.8,6.4,3.1,7.6-2.2c0.1-0.5,0.8-1.1,1.3-1.4c2.8-1.3,5.6-2.6,8.8-4.1c1.5,1.9,3.5,4.4,5.5,6.9c0.6-0.1,1.1-0.3,1.7-0.4
			c0.5-2.5,0.8-5,1.6-7.4c0.5-1.5,1.6-3.1,2.9-3.9c2.6-1.7,5.7-2.6,8.3-4.3c3.8-2.4,7.4-3.9,12.1-2.5c3.8,1.2,6.1-1.3,4.5-5
			c-1.7-3.9-0.1-6.2,2.6-8.1c6.9-4.8,9.5-12.1,11.9-19.6c0.8-2.5,1.8-4.9,3.4-6.8c0,5.1,0.4,10.2-0.1,15.3
			c-0.7,7.6-1.1,15.4-3.1,22.6c-1.8,6.5-5,13.1-14,13.9c5,7.5-1.2,9.2-5.5,12c-4.2,2.8-8.3,5.8-12.4,8.6h-0.1
			c-3.4-0.1-6.7-0.2-10.4-0.3c0.1,3.2-2.2,5.1-6.7,6c-4.1,0.8-8.1,2.9-13.3,4.8c1.2,3.1,2.4,6.3,3.7,9.5c0.5,1.4,1.8,2.8,1.7,4.1
			c-0.7,6.6,3.4,11.4,5.7,16.9c0.9,2.2,1.2,3.5-1.6,4.5c-2.9,1-5.6,2.7-8.4,5.2c2.5,0.4,4.9,1,7.4,1.2c5.8,0.5,8.1,2.2,7.7,8
			c-0.9,10.8-5.8,19.6-15.2,25.4c-1,0.6-1.9,1.2-2.9,1.8C470.7,406,468.3,406,466,406z"/>
		<path d="M467,156c1.9,11,3.9,21.9,5.5,32.9c0.5,3.2-0.3,6.6-0.3,9.9c0,1.6,0.1,3.4,0.9,4.6c3,4.7,3.3,9.6,2,14.8
			c-0.2,0.9-0.6,2.4-0.1,2.8c5.2,5.1,4.6,11.7,5.2,18.2c0.4,3.6,2.9,7,4.2,10.6c0.6,1.7,1.4,3.9,0.8,5.3c-2.2,5.7-5,11.1-7.6,16.6
			c-0.3,0.6-0.9,1-1.4,1.4c-3.7,2.8-17.7,2.3-21.5-0.8c-5.5-4.3-7.6-12.6-5.1-19.2c1.3-3.4,2.2-6.9,3.4-10.7
			c1.3,0.9,2.5,1.7,3.9,2.7c0.7-0.9,1.8-1.8,1.8-2.6c0-1.6-0.2-4.3-1.1-4.8c-3.9-1.9-3.2-4.5-2.2-7.5c0.5-1.4,0.4-3,0.8-4.4
			c1.3-3.8,0.4-8.8,5.7-10.7c1.4-0.5,2.1-2.9,3-4.4c-2.8-2.4-5.5-4.6-8-7c-2.2-2.1-2-3.9,1.1-5.2c3.9-1.6,4-3.7,1.8-7.1
			c-1.3-2-2.4-4.9-2-7c2-9.6,4.6-19,7-28.4C465.7,156,466.3,156,467,156z"/>
		<path d="M361.6,338.1c4.1-1.6,8.2-4.1,12.5-4.8c6.3-1,12.8-0.9,19.2-1c4.7-0.1,9.5,1.6,13.1-3.4c0.9-1.2,3.2-1.6,5-2.1
			c2.9-0.7,5.8-1.1,8.9-1.7c0.9,2.8,1.6,5.3,2.4,7.8c0.5,0.1,1,0.3,1.4,0.4c0.3-0.6,0.6-1.2,0.8-1.8c1.7-7.1,1.7-7,9.2-6.4
			c2.1,0.2,4.3,0,6.4-0.2c6.6-0.7,10.8,3,11,9.5c0.3,7.9,0,15.6-4.8,22.4c-5,7.1-11.3,8.5-18.9,4.4c-3.3-1.8-7-3.5-10.6-3.9
			c-5.5-0.6-8-3.2-8.5-8.5c-0.1-1.1-0.7-2.2-1.4-4.3c-1.2,2.5-2,4.1-2.5,5.2c-14.4-3.4-28.5-6.7-42.7-10
			C362,339.4,361.8,338.7,361.6,338.1z"/>
		<path d="M505.5,318.9h0.1c3.3-1,6.6-2.6,9.9-2.7c2.7,0,5.5,1.8,7.9,3.9c0.4-0.2,1.1-0.3,1.3-0.6c3.7-6.4,10.3-5.6,16.1-6.2
			c2.1-0.2,4.5,1.6,6.7,2.6c5.6,2.5,7,2,9.2-3.4c14.3,2.4,28.6,4.7,42.9,7c0.2,0.5,0.4,1,0.6,1.5c-1.2,0.8-2.4,1.8-3.7,2.3
			c-8.1,2.6-16.3,5.3-24.5,7.7c-6.8,1.9-13.8,3.4-20.7,4.8c-0.8,0.2-2.2-1.1-3-2c-1-1.2-1.6-2.7-2.5-4.2c-3.2,3.6-5.4,8-8.8,9.3
			c-2.9,1.1-7.2-1.3-11.2-2.2c0,1.9,0,3.3,0,5.2c-5.1,1.2-10,2.5-15,3.7c-6.1,1.4-10.3-0.1-12.6-4.4c-3.5-6.3-3.2-12.2,1-16.6
			C501.2,322.5,503.4,320.7,505.5,318.9z"/>
	</g>
</g>
</svg>
