<?xml version="1.0" encoding="utf-8"?>
<!-- Generator: Adobe Illustrator 26.2.1, SVG Export Plug-In . SVG Version: 6.00 Build 0)  -->
<svg version="1.1" id="Layer_1" xmlns="http://www.w3.org/2000/svg" xmlns:xlink="http://www.w3.org/1999/xlink" x="0px" y="0px"
	 viewBox="0 0 960 560" style="enable-background:new 0 0 960 560;" xml:space="preserve">
<g>
	<g>
		<path d="M356,287c6.3-4.1,12.2-9,19-12.2c13.9-6.6,28.2-12.5,42.4-18.4c3.8-1.6,8.1-2.6,12.1-2.5c2.7,0.1,5.1,1.1,8.3,0.8
			c11-1.2,22.2-1.1,33.2,1.1c9.1,1.8,18.1,3.8,27.2,5.7c1,0.2,2.7,0.2,3.1-0.4c3-4.5,8.1-4.7,12.5-6.2c9.4-3.2,18.9-6.1,28.4-9.2
			c0.8-0.2,1.8-0.8,2.4-0.5c7.9,3,16.6,0,24.5,3.1c8,3.1,16.3,5.7,23.9,9.8c8,4.3,11.1,12.5,13,21c0,3,0,6,0,9
			c-0.2,0.2-0.6,0.5-0.6,0.8c-1,13.5-8.7,21-21.5,23.9c-5.8,1.3-11.4,3.6-17.2,4c-3.2,0.2-6.5-2.8-9.8-4.4c-0.8-0.4-1.4-1.6-2.2-1.9
			c-6.5-1.7-7.6-6.1-6.5-11.9c0.3-1.6-0.4-3.4,0.1-4.9c0.5-1.7,1.8-3.2,2.8-4.8c4.1-6.1,9.2-4.1,14.3-1.8c1,0.5,2.1,0.9,3,1.7
			c2.3,2,4.3,3.8,6.8-0.1c0.6-1,3-0.6,4.2-1.4c5.2-3.5,6.3-11.4,2.6-16.7c-4.3-6-4.7-5.2-9.5-7.5c-7.3-3.4-15-1.9-22.4-2.6
			c-12.5-1.1-24.8,1.3-37.3,5.5c9.7,6,18.8,11.7,28,17.4c-0.4,0.7-0.7,1.3-1.1,2c-6.2-2.8-12.2-6.1-18.7-8.1
			c-8.2-2.5-16.8-5.8-25.1-5.4c-7.4,0.3-14.6,5.1-21.8,8.1c-15.2,6.4-28,16.5-40.7,26.7c-0.7,0.5-1.5,1-2.4,1.2
			c11.1-15.9,27.6-25.6,42.7-37.7c-8.7,0-17.8-1.6-25.9,0.6c-5.4,1.5-11,2.1-16.4,3.6c-11.9,3.4-22.4,9.4-32.7,16.1
			c-1.9,1.2-3.9,2.3-5.8,3.6c-0.7,0.4-1.6,0.9-1.9,1.5c-3.5,8.4-12.4,9.3-19,13.3c-1.1,0.7-4.5-0.5-5.7-1.8c-3.4-4-8.9-6.5-9.3-12.7
			c-0.1-1.1-0.8-2.1-1.2-3.2C356,289.7,356,288.3,356,287z"/>
	</g>
</g>
</svg>
