<?xml version="1.0" encoding="utf-8"?>
<!-- Generator: Adobe Illustrator 26.2.1, SVG Export Plug-In . SVG Version: 6.00 Build 0)  -->
<svg version="1.1" id="Layer_1" xmlns="http://www.w3.org/2000/svg" xmlns:xlink="http://www.w3.org/1999/xlink" x="0px" y="0px"
	 viewBox="0 0 960 560" style="enable-background:new 0 0 960 560;" xml:space="preserve">
<g>
	<g>
		<path d="M606,250c-0.8,0-1.8,0.3-2.4-0.1c-7.5-4.1-15.1-8.2-22.4-12.6c-3.1-1.9-5.6-4.7-8.5-6.8c-7.7-5.4-15.4-10.8-23.3-15.7
			c-1.3-0.8-4,0-5.8,0.8c-1.5,0.7-2.5,2.6-3.8,4c-4.5-3.3-8.8-6.7-13.3-9.6c-3.9-2.4-8-5.2-12.3-5.8c-6.7-0.9-12.8-1.7-15.3-9.9
			c-1.8,5.6-5.2,5.9-9.8,5.5c-9.5-0.8-19.1-0.6-28.6-1.6c-3-0.3-5.9-3-8.8-4.6c-1.4-0.8-2.7-1.7-4.5-2.9c-0.6,2-1.2,3.3-1.5,4.8
			c-1.4,7.8-1.4,7.7-9.5,8.4c-3.3,0.3-6.7,0.6-9.8,1.8c-6.8,2.5-12.6,1.6-17.9-3.3c-0.8-0.7-1.8-1.2-2.7-1.7c-0.5,0.5-0.9,0.6-1,0.9
			c-1.4,2.9,2.8,6.6-1.6,9.4c-11,6.9-21.1,18.1-35.5,6.8c-4-3.1-7.9-6.5-11.8-9.8c0-2.7,0-5.3,0-8c1.7-4.6,2.5-9.8,5.3-13.6
			c7.9-10.9,19.4-16.7,32.4-19.5c6.1-1.3,7.1-0.4,9.1,5.3c0.9,2.4,2.2,4.7,3.9,8.1c2.1-3.9,3.5-7,5.3-9.9c0.8-1.3,2.2-2.2,3.3-3.4
			c0.9,1,1.7,2.2,2.8,3.1c2.8,2.1,5.8,4.1,8.6,6.2c0.5-2.8,1-5.5,1.6-8.2c0-0.1,0.1-0.3,0.2-0.4c6.4-2.1,12.8-4.3,19.2-6.3
			c0.6-0.2,1.3,0,2,0c8.6,0.5,17.1,1.1,25.7,1.4c4.3,0.1,6.7,1.9,7.7,6.2c0.6,2.6,2.1,4.9,3.8,8.7c1.4-3.4,2-5.3,3-6.9
			c0.6-0.9,1.9-1.9,2.9-1.9c15.4,0.9,29.8,5.5,43.7,12.2c1.1,0.5,1.9,1.8,2.8,2.7c4.8,4.3,2.4,9.3,0.6,14.8c2.7-0.5,5.1-0.3,6.4-1.4
			c4.4-3.6,7.8-1.4,11.4,1.2c1.9,1.4,3.8,2.7,5.7,4c16.9,11.1,32.8,23.3,42.7,41.7C606,246,606,248,606,250z"/>
		<path d="M437.1,258c-1,6.6-1.6,12.3-10.3,13.1c-6.2,0.5-12,3-17.1-3.7c-3,11.5-12.3,11.5-21,12.5c-3.8,0.4-7.6,1.1-11.4,1
			c-8.5-0.1-14.5-5.8-16.1-14.2c-1.5-7.7,0.3-14.9,3-21.8c3.4-8.6,10.9-12.3,19.4-13.7c3.4-0.6,7,0.5,9.1,4.7c1,2.1,4.5,2.9,6.8,4.3
			c1-1.9,2.8-3.7,3-5.7c0.5-5.4,4-6.6,8.5-7.2c5.9-0.7,11.8-2,17.7-2.3c4.9-0.2,9.9,0.5,14.8,1.2c0.9,0.1,1.8,2.1,2.3,3.4
			c0.7,2.1,1.1,4.4,2.2,7.2c0.8-11.4,10.1-9,16.6-11c0.6-0.2,2,1.4,2.6,2.5c1.5,2.6,2.8,5.3,4.1,7.9c0.5-0.1,0.9-0.3,1.4-0.4
			c0.2-0.8,0.6-1.6,0.7-2.5c0.6-4.3,3-6.5,7.3-6.6c15-0.4,29.2,3,43.1,8c1.5,0.5,2.5,3.4,3,5.3c0.7,2.3,0.7,4.7,1,7.6
			c7.1-5.9,7.3-5.8,14.2,0c9.9,8.3,19.9,16.4,29.9,24.6c3.7,3,7.3,6.1,11.2,8.8c5.8,4,9.8,9,11.3,16.8
			c-10.9-5.9-20.9-11.6-31.1-16.9c-10.2-5.3-20.6-10.1-31.6-15.5c-0.2,2.3-0.3,4.2-0.5,6.5c-1.1-0.2-2.3-0.1-3.3-0.5
			c-9.4-4.5-19.4-6.5-29.6-7.7c-1.3-0.1-2.7-1.7-3.6-2.9c-1.3-1.6-2.2-3.5-3.5-5.8c-1.5,1.3-3.1,2-3.7,3.2c-2.3,5.1-6,5.3-11,4.8
			c-5.8-0.6-11.9,0.1-17.7,1c-6.2,0.9-12.1,1.9-17.1-3.4C440.6,259.7,439,259.1,437.1,258z"/>
		<path d="M457.7,311.1c-1.8-1-2.8-2.1-3.5-1.9c-6.4,1.8-7.9-2.3-9.1-7.2c-1.6-7.2-4-14.9,2.8-20.3c4.8-3.8,10.4-7.1,17.4-4.7
			s14.3,3.7,21.1,6.4c8.6,3.4,8.7,12.2,6.4,20.6c-1.3,4.6-2.6,9.3-3,14c-0.8,9.3-1.2,9.8-10,8.2c-0.7-0.1-1.5,0.3-2.2,0.4
			c0,0.6-0.1,1.1,0,1.2c6.6,4.2,6.2,9.6,4.4,16.7c-3.3,13.1-4.9,26.7-7.4,40.1c-0.8,4.4-2.1,8.7-3.4,13c-0.3,0.9-1.4,1.6-2.2,2.4
			c-0.8-0.9-2.2-1.7-2.3-2.8c-2.6-16.2-9.8-30.9-14.6-46.3c-0.6-1.9-0.1-5,1.1-6.6c2.6-3.5,4.6-6.4,1.7-10.9
			c-2.2-3.4-2.8-7.8-4.7-11.5c-2-3.8-1-5.8,2.7-7.4C454.6,313.8,455.7,312.6,457.7,311.1z"/>
	</g>
</g>
</svg>
