<?xml version="1.0" encoding="utf-8"?>
<!-- Generator: Adobe Illustrator 26.2.1, SVG Export Plug-In . SVG Version: 6.00 Build 0)  -->
<svg version="1.1" id="Layer_1" xmlns="http://www.w3.org/2000/svg" xmlns:xlink="http://www.w3.org/1999/xlink" x="0px" y="0px"
	 viewBox="0 0 960 560" style="enable-background:new 0 0 960 560;" xml:space="preserve">
<g>
	<g>
		<path d="M356,279c2.2-3.3,4.2-6.8,6.8-9.7c2.3-2.6,5-5.4,8.9-2c2.8-12.7,13.4-17.8,22.1-24.5c0.4-0.3,2,0.9,3.4,1.6
			c8.2-11.6,22.2-14.9,34.3-21.1c1.8-0.9,3.5-1.8,5.7-2.9c0.5,0.6,1.1,1.4,1.2,1.5c8.4-1.9,16.4-3.8,24.3-5.6
			c7.7-1.7,9.1-3.5,8.3-11.4c-0.1-1.1-0.3-2.3-0.5-3.5c1.7-1.1,3.3-2.2,3.8-2.5c-1.8-3.7-3.1-6.9-4.7-9.9c-2.1-3.8-4.5-7.5-6.6-11
			c8.5,0.2,24.2,16.4,20,38.5c10.2-4.6,19.4,0.6,28.7,2.7c9.6,2.2,18.7,6.7,27.8,10.6c1.2,0.5,1.4,3,1.9,4
			c5.3,2.1,10.7,3.8,15.8,6.2c2.7,1.3,6.5,2.5,5.2,7.2c-0.1,0.5,2,2.3,3.2,2.5c6.7,1.2,10.7,6.4,15.3,10.5
			c8.6,7.6,13.2,18,16.8,28.5c3.5,10.2,5.6,20.9,8.3,31.3c0,2,0,4,0,6c-1.3-2.2-3.2-4.2-3.7-6.6c-2.2-10.2-6.7-18.9-14.3-26.2
			c-2.1-2-2.6-5.7-3.9-8.6c-0.7-1.5-1.5-3-2.7-4c-2.6-2.4-5.5-4.5-8.2-6.9c-2.1-1.8-4.5-3.4-3.2-6.9c0.2-0.6-1.4-2.4-2.5-2.8
			c-3.1-1.3-6.7-1.5-9.4-3.3c-4.6-3.1-8.6-7.1-13.2-10.3c-1.8-1.2-3.4-2.4-5.5-3.2c-3.6-1.2-8.1-0.6-10-5.2
			c-0.2-0.4-0.7-0.7-1.2-0.8c-10.4-1.9-20.7-3.6-31.1-5.6c-3.3-0.6-6.5-1.9-9.4-3.9c-1.8,0.2-3.5,0.7-5.3,0.6
			c-6.9-0.4-10.6,3.7-10.8,11.2c-0.1,4.8-0.4,9.9-2.2,14.1c-1.7,4.1,0,4.9,2.8,5.4c3.1,0.6,4.2,2.2,5.2,5.1
			c1.2,3.7,3.5,7.1,5.4,10.8c6.7-0.4,10.9,4.5,14.7,9.1c1.5,1.8,1.2,6.3,0,8.8c-2.5,5.5-13.6,10.6-19.3,5.9c-4.8-4-10.7-6.8-15-11.2
			c-3.7-3.7-6.7-8.6-8.8-13.5c-2.2-5.2-4.1-11-4.3-16.6c-0.2-4.7,1.9-9.7,3.7-14.3c0.5-1.3,3.6-1.5,4.2-1.8
			c0.6-4.3,1.1-7.9,1.6-11.4c0.4,0,0.7,0.1,1,0.1c-0.9-1.4-1.8-2.8-2.4-3.8c-11.2,5.2-22.2,10.3-34,15.7c-0.4-0.3-1.7-1.2-3-2.1
			c-0.2,0.1-0.4,0.1-0.5,0.3c-3,9.4-12.7,11.8-18.9,17.9c-1.9,1.9-4,3.5-5.8,5.4c-1.6,1.7-2.8,4.5-5.1,0.9
			c-4.8,10.8-12.6,17.6-22.6,22c-4.1,1.8-8.1-0.3-10.5-4.3c-0.6-1.1-1.4-2.2-2-3.4C356,281.7,356,280.3,356,279z"/>
		<path d="M412.6,362.7c-3.6-2.5-7.2-5.3-11-7.4c-1.5-0.8-3.8-0.4-5.6,0c-6.6,1.5-12.8,1.1-18.8-2.2c-0.5-0.3-0.8-0.9-1.4-1.5
			c6.1-2.3,13,0.1,18-4.7c-3.1-5.8-6.8-9-14-7.2c-7.9,2-15-1.2-21.8-6c4.1,0,7.8,0.5,11.3-0.1c3.4-0.6,6.7-2.2,9.8-3.9
			c0.6-0.3,0.4-3.2-0.2-4.6c-3.1-7.8-6.4-15.5-9.6-23.2c0.6-0.3,1.2-0.6,1.8-1c4.4,5.8,8.4,11.8,13.3,17.1c2.2,2.4,5.9,3.7,9.2,4.7
			c1.3,0.4,3.3-1.5,5.8-2.9c-9.6-9.3-12.5-20.6-14.2-33.6c9.3,11.5,14,26.9,31.7,26.4c0.8-1.2,1.4-2.6,2.4-3.7s2.3-1.8,3.5-2.7
			c-3.7-6.7-7.6-12.8-10.5-19.4c-2.9-6.5-4.7-13.6-6.3-20.8c4.3,4.6,8.7,9.2,13,13.9c0.5,0.5,0.8,1.5,0.7,2.2
			c-0.5,2.3-0.5,4,2.6,3.9c0.4,0,1.2,0.5,1.2,0.7c-0.7,4.2,3.6,3.9,5.2,5.9s3.4,4,6,7.2c6.1-5.6,11.9-11,18.1-16.7
			c-2.7,6-5.1,12.1-8.1,17.9c-1.7,3.4-4.3,6.4-1,10.3c0.6,0.7,0.2,2.2,0.2,2.4c8.4,5,13.8,14,24.5,13.9c-0.2,0.5-0.3,1-0.5,1.4
			c-2.8,0-5.5,0.1-8.3,0c-3.1-0.2-6.3-0.5-9.4-1.1c-8-1.5-9.5-0.4-12.7,7.6c-0.8,2.1-3.8,3.4-6.2,5.4c3.2,2.4,5.5,4.2,7.8,5.9
			c-0.1,0.5-0.3,0.9-0.4,1.4c-4.2-0.9-8.3-2.2-12.5-2.5c-4.3-0.3-8.6,0.4-10.9,4.5c1.3,2.2,2.5,4.1,3.7,6c1.5,2.7,3.7,3.9,6.7,2.5
			c4.4-2,8.8-3.9,13-6.4c6.4-3.8,12-8.7,17.5-13.6c1.2-1,2.4-2,4.1-3.3c-3.9,27.4-49.9,49.3-71.4,34.2c8-1.9,15.7-3.8,23.5-5.7
			C412.4,363.6,412.5,363.2,412.6,362.7z M436,324c-1.7-1.4-2.4-2.1-3.2-2.6c-1.5-0.8-3.5-2.5-4.6-2.1c-3,1.2-5.7,3.3-8.4,5.1
			c-0.2,0.1-0.3,0.6-0.3,0.9c0.1,1.9,6.9,6.1,8.4,5.1C430.5,328.6,432.9,326.5,436,324z M412.9,336.6c-5.6-5.2-9.1-5.1-12.3,0.1
			C405,342,406.3,342,412.9,336.6z"/>
		<path d="M483.6,334c5.3-4.3,9.9-9.8,15.8-12.3c6.7-2.9,10-9.1,16-12.5c0.7-0.4,1-3.1,0.4-4.1c-3.2-5.5-6.8-10.8-9.8-15.5
			c6.7,1.7,13.4,5.7,17.9,12.6c14.5-6.9,26.3-16.2,31.9-31.9c1.6,5.2,0.5,12.9-4.7,19.6c-5.6,7.4-7,15.2-7.2,24.2
			c-0.3,8.4-2.9,16.8-4.6,25.6c2.5,0.3,4.8,0.8,7.1,0.7c4.9-0.1,7.8-3.1,9.2-7.6c1.5-4.7,3-9.5,5.1-14.2c0,5.7,0,11.4,0,18.6
			c6.8-3.5,12.8-6.7,19-9.8c0,0.5,0.3,1.2,0.1,1.4c-5.6,5.6-11.3,11.1-17,16.6c-2.6,2.5-5.4,4.9-8,7.5c-1,1-1.9,2.2-2,3.7
			c-1,2.5-1.7,5.2-3.1,7.4c-1.6,2.6-3.9,4.9-6.9,8.5c10.5,2.4,19.9,4.6,29.3,6.8c0.1,0.4,0.2,0.8,0.2,1.2
			c-6.3,0.9-12.5,2.3-18.8,2.6c-6.3,0.3-13.6,1.3-18.9-1.3c-5.7-2.8-12.2-1.8-17.3-5.8s-10.6-7.5-15.9-11.3c0.2-0.5,0.5-1,0.7-1.5
			c1.4,0.5,2.7,1.1,4.2,1.4c8.3,1.9,16.6,3.7,25,5.3c0.9,0.2,2.3-1,3.2-1.8c2.7-2.3,5.3-4.8,7.4-6.8c0.9-3.3,1.8-6.2,2.6-9.3
			c-5.5-2.2-10.8-0.9-14.8,3.1c-3.3,3.4-6.9,6.3-11,9c1.8-4.7,5.3-8.7,3.3-14c-12.6,1.2-21.7-6.2-31.5-11.6c6,1.2,12,3.1,18.1,3.5
			c5.7,0.4,11.9,0.3,16.9-1.8c2.7-1.1,3.6-6.9,5.2-10.6c1.7-4.1,3.2-8.4,5.8-12c-0.9-1.7-1.8-3.4-2.8-5.4
			c-4.2,2.9-8.7,5.4-11.4,11.4c-2.6,5.9-8.5,10.3-12.9,15.4c-0.5-0.4-0.9-0.7-1.4-1.1c2.3-4.4,4.6-8.7,7.5-14.1
			C504.2,327.5,495.1,335.2,483.6,334z"/>
	</g>
</g>
</svg>
