<?xml version="1.0" encoding="utf-8"?>
<!-- Generator: Adobe Illustrator 26.2.1, SVG Export Plug-In . SVG Version: 6.00 Build 0)  -->
<svg version="1.1" id="Layer_1" xmlns="http://www.w3.org/2000/svg" xmlns:xlink="http://www.w3.org/1999/xlink" x="0px" y="0px"
	 viewBox="0 0 960 560" style="enable-background:new 0 0 960 560;" xml:space="preserve">
<g>
	<g>
		<path d="M356,235c3.6,1.8,7.2,3.7,10.9,5.5c0.9,0.4,1.6,1.3,2.5,1.4c15.8,2.7,31.6,5.2,47.4,8c2.7,0.5,5.2,1.9,7.8,3
			c3,1.3,6.1,4.4,8.4-1.2c0.3-0.8,3.4-1.1,4.9-0.7c14.9,3.6,30,3.7,45.1,2c2.3-0.2,4.5-1,6.8-1.4c3.6-0.6,7.3-1,12.1-1.7
			c0.7-3.9,5-3.2,9.3-4.2c6.2-1.4,12-4.6,18-7.1c7.8-3.4,15.3-6.9,21.4-13.2c1.2-1.3,4.9-0.2,6.8-0.2c2.8-2.7,5.8-5.6,8.8-8.4
			c1.4-1.4,2.8-2.8,4.3-4.1c2.9-2.6,6.1-7.4,8.9-7.2c7.6,0.5,15.2,2.8,22.7,5c1.7,0.5,2.6,3.6,3.9,5.5c0,3,0,6,0,9
			c-0.8,2.5-1.4,5-2.3,7.4c-3.4,9.7-12.7,12.6-20.3,17.4c-6.6,4.1-13.8,7.3-20.3,11.5c-4.5,2.9-7.7,0.8-12.2-2
			c0.5,3.3,0.8,5.4,1.2,8.5c-3.5,1-7.1,2.7-10.9,3.1c-17.7,1.5-35.4,2.9-53.2,3.7c-4.6,0.2-9.4-1.9-14.1-2.7
			c-1.5-0.2-3.2,0.7-4.8,0.7c-3.9,0-7.8,0.4-11.5-0.4c-14.8-3-29.6-6.4-44.4-9.5c-2.6-0.5-5.3-0.4-7.9-1c-1.7-0.4-3.2-1.5-4.8-2.4
			c-0.8-0.5-1.4-1.4-2.3-1.6c-7.3-1.9-15.2-2.4-21.8-5.7c-7.4-3.7-13.6-9.9-20.4-15C356,236.3,356,235.7,356,235z"/>
		<path d="M527.5,308.8c-5.9-1.5-11.7-3.2-17.5-4.3c-7.1-1.4-14.3-2.2-21.8-2.6c14,8.9,19.9,21.2,19.4,38.1c3.7,2.2,3.9,6.3,2.2,11
			c-2,5.5-3.3,11.3-6.1,16.3c-2,3.6-5.4,6.7-8.8,9.1c-3,2.1-6.6,1.9-9-2c-0.8-1.3-2.3-2.5-3.8-3.1c-4.5-1.8-5.4-5.2-3.6-8.9
			c2-4.3,4.9-8.3,7.7-12.2c0.6-0.8,2.6-0.8,4-0.8c1.3,0,2.7,0.5,4.6,0.5c-4.1-3.9-1.8-7.3-0.8-11.4c2.1-9.1,2.8-18.4-4.2-26.5
			c-2.3-2.6-3.7-6-5.8-9.6c-5.9,0-12.6,0-19.7,0c-0.1,3.7-3.2,5.7-7.5,5.8c-11.5,0.3-20.4,6-28.5,13.6c-2.3,2.2-4.6,4.4-7.3,6
			c-2.7,1.6-5.8,2.5-9.8,4.2c1.6,6.5-4.7,10.7-8.8,16c-1.5,1.9-2.1,4.5-3.4,6.6c-2.6,4-5,8.2-8.2,11.7c-2.6,2.9-6.1,3.3-10.1,1.5
			c-5.4-2.4-11.9-3.3-14-10c-0.8-2.5-1.3-5.6-0.5-8c3.9-11.8,9.9-22.5,19.2-31.1c4.2-3.8,7.5-8.6,11.9-12.1c4.9-3.9,10.3-7.2,16-10
			c2.5-1.2,6-0.2,9.4-0.2c-0.4-8.1,6.3-8.3,12.6-9.6c6.8-1.4,13.7-3,20.2-5.4c8.2-3.1,16.2-3.4,24.5-1.3c7.4,1.9,14.8,3,22.4,3.9
			s14.9,4.4,22.1,7.4c4,1.7,7.2,4.9,11,7.1c3.1,1.9,6.5,3.1,9.5,5c8,5,16.1,9.9,23.6,15.5c9.9,7.4,13.7,18.9,18.1,29.9
			c1.1,2.8,1.6,5.7,2.4,8.6c-0.5,0.2-1,0.4-1.5,0.6c-0.8-1.3-1.8-2.5-2.2-3.9c-4.4-12.4-12.1-21.9-24-27.7
			c-9.8-4.8-19.6-9.6-29.3-14.5C530.1,311.3,528.7,309.7,527.5,308.8z"/>
		<path d="M454.9,337.1c-0.9-1.6-1.5-2.7-2.2-4c-0.4,0.4-0.9,0.6-1,0.9c-0.1,0.9-0.5,2.3,0,2.8c4.4,4.3,1.6,8.9,1.3,13.7
			c-0.3,4.5,0.6,10.2,3.3,13.5c5.8,7.1,13.5,12.3,23.6,12.1c1.4,0,2.8,1,4.1,1.5c-1.2,0.9-2.2,2.4-3.5,2.7c-11.9,3.2-31-3-37.7-13.4
			c-4.2-6.5-6.7-14.1-5.6-22.3c0.2-1.1,0.8-2.5,0.3-3.3c-5.2-9.4,0-17.2,4.1-24.8c3-5.6,12.7-6.2,17.5-2.1c1,0.9,2.2,1.5,3.3,2.2
			c7.3,4.4,7.1,13.1-0.4,17.4C460,335.2,457.7,335.9,454.9,337.1z"/>
		<path d="M495.1,221.4c-0.6,2.4-1,4.9-2,7.1c-4,9.3-15.6,20.4-29.2,16.8c-11.8-3.1-22-14.5-21.7-26.7c0-0.8,0.2-1.8-0.1-2.4
			c-4.1-7.6-2.4-16,1.7-21.5c4.9-6.6,12.1-12.8,21.8-13c1.4,0,2.9-0.8,4.3-1.3c1.1-0.4,2.1-1.1,3.2-1.1c7.1-0.2,13.3,2.2,18.2,7.4
			c0.6,0.6,1.3,1.8,1.1,2.5c-1.4,5.4,1.3,6.1,6.1,4.6c2.8,6.6,2.1,12.7-1,18.7c-2.4,4.6-6.1,7.2-11.3,6.3c-3.1-0.6-6.4-1.7-9-3.5
			c-4.5-3.1-4.6-7.8-0.9-12.5c-0.1-0.5-0.3-0.9-0.5-1.4c-5.8,2-11.6,3.9-16.2,5.5c-4.5,11.3,3.1,18.6,5.8,27.2
			c10.7-1.6,20.8-4.4,27.7-14.1C493.8,220.3,494.4,220.8,495.1,221.4z"/>
	</g>
</g>
</svg>
