<?xml version="1.0" encoding="utf-8"?>
<!-- Generator: Adobe Illustrator 26.2.1, SVG Export Plug-In . SVG Version: 6.00 Build 0)  -->
<svg version="1.1" id="Layer_1" xmlns="http://www.w3.org/2000/svg" xmlns:xlink="http://www.w3.org/1999/xlink" x="0px" y="0px"
	 viewBox="0 0 960 560" style="enable-background:new 0 0 960 560;" xml:space="preserve">
<g>
	<g>
		<path d="M356,297c0.4-0.5,0.9-1,1-1.5c2.5-9.1,7.8-15.6,17.8-18.2c-4.4-5-1.8-8.4,1.8-11.6c5.6-5.1,11.2-10.2,17.1-15
			c5.4-4.4,11.4-6.4,17.9-0.9c0.4-0.3,0.7-0.6,1.1-0.8c-0.2-2.1,0-4.3-0.6-6.2c-1.3-3.7-0.3-5.9,3.1-7.4c2.4-1.1,4.7-2.4,7.1-3.7
			c4.8-2.6,5.7-4.9,2.9-9.8c-1.4-2.5-3.7-4.5-5.8-6.9c1.3-2.1,2.7-4.5,4.1-6.9c-0.4-0.4-0.9-0.7-1.3-1.1c-1.2,0.9-2.7,1.6-3.5,2.8
			c-1.9,2.8-3.8,2.9-6.7,1.5c-10.9-5.2-22-5.5-33.3-1.3c-1.6,0.6-3.4,0.9-5.3,0.8c4.9-6.8,11.1-11.7,19.2-13.6
			c4.5-1.1,9.1-1.6,13.8-1.8c1.9-0.1,3.8,1.4,5.8,2.1c-0.1,0.6-0.1,1.2-0.2,1.9c1.5-0.6,3.1-0.9,4.3-1.8c7.6-5.9,15.5-6,23.4-0.1
			c2,1.5,4.1,2.8,6.1,4.4c2.4,1.9,4.9,3.7,2.6,7.4c-0.4,0.6-0.1,2.6,0.2,2.7c5.2,1.3,5.5,6.3,7.5,9.9c2.3,4.2,4.8,7.4,10.4,6.3
			c2.2-0.4,4.6,0.2,7.8,0.5c1.3-4.2,2.6-8.6,4-12.9c0.6-1.9,1.2-3.8,2.3-5.5c2-3.1,4.2-5.6,8.5-3.3c1.2,0.6,3.1,0.2,4.5,0.3
			c0.3-1,0.5-1.3,0.4-1.6c-2.7-6.6-2.6-6.4,3.3-11c7.3-5.7,15.7-6.8,24.5-6.1c3.6,0.3,3.6,0.5,5.2,8.7c5.9-5.9,12.4-4.4,19-2.1
			c6.5,2.2,13.2,4.1,14.6,12.3c10.7,0.2,18.4,10.7,16.2,22.6c-1.1,6.1-2.5,12.1-10,14c-8.2,2-16.8-4-17.3-12.3
			c-0.1-1.6-1.2-3-1.9-4.6c-0.8,1.3-1.4,2.7-2.4,3.7c-0.9,0.9-2.3,1.9-3.5,1.9c-2.6,0-5.3-0.2-7.8-0.9c-3.2-1-6.6-2.1-9.3-3.9
			c-5.1-3.4-7.2-3.5-11.9,1.1c4.1,2.8,2.3,6,0.1,9.4c1.8,0.9,3.3,2,4.9,2.5c4.6,1.5,9.5,2.8,6.4,10.3c5.1-3.6,9.8-4.1,14.5-1.5
			c4.1,2.2,10.5,1.2,10.7,6.3c4.7,3.4,8.4,5.9,11.8,8.6c4.7,3.8,7.1,3.8,10.1-1.8c2.4-4.5,3.5-9.6,5.3-14.4c0.4-1.1,0.8-2.3,1.7-4.6
			c3.3,7.1,3.5,13.2,2.7,19.4c-0.2,1.5-0.7,2.9-1.2,4.3c-1.1,3.3-3.7,6.9-3,9.8c0.6,2.7,4.6,4.6,7.3,6.7c4.7,3.6,5.8,7.9,2.7,12.8
			c11.6,8,15.7,20.2,19.7,32.4c0,2,0,4,0,6c-1.2,0-2.9,0.5-3.5-0.1c-8.2-8.8-15.9-18.1-24.6-26.5c-3.5-3.3-7.2-5.2-3.3-11.4
			c-8.8,5.5-12.3-3.2-16-4.4c-8,4.1-14.4,7.7-21,10.8c-7,3.3-14.2,2.4-21.5-0.7c-2.1,6.3-6.4,5.8-11,4.1c-4.5-1.6-9.2-3-13.6-5
			c-5.5-2.5-6.2-4.5-4.1-10.2c0.4-1,0.7-2.1,1.1-3.2c-4.4-1.6-6.8,5.9-10.8,2.1c-2.8-2.6-4.6-6.2-7.3-10c-5.7-0.5-5.5-0.1-6.1,6.3
			c-0.6,5.7-2.3,11.4-4.3,16.8c-0.9,2.2-4,3.6-5.9,5.2c3.9,2.4,4.2,4.5-0.3,6.7c-12.2,5.9-24.5,11.5-36.9,17
			c-1.6,0.7-3.8,0.1-5.8,0.1c-0.1-0.5-0.2-0.9-0.3-1.4c4.3-2.7,8.7-5.3,12.8-8.2c1.6-1.1,3.7-3.1,3.8-4.7c0.1-5.4,3.5-9.2,5.8-13.5
			c0.6-1.2,1.4-2.4,1.6-3.6c0.8-3.9,3.3-5,6.8-5.1c1.5,0,3.1-0.3,4.6-0.4c0.1-0.5,0.3-1,0.4-1.5c-1.6-0.8-3.1-1.9-4.7-2.3
			c-3.6-0.8-6-1.9-4.1-6.3c0.6-1.5,0.1-3.5,0.1-5.5c-6.4,0.9-11.5,10.4-18.9,1.8c1,4.7,1.8,8.5-2.8,12c-4,3-6.8,6.6-11.9,1.5
			c-0.3,0.4-0.6,0.8-0.9,1.3c1.2,2.8,2.3,5.6,3.5,8.4c-5.9,5.5-11.6,11.5-18,16.7c-11,9-29.9,4.9-32.2-11.1
			c-0.1-0.6-0.5-1.1-0.8-1.7C356,305,356,301,356,297z M503.1,288.9c0.5,0.1,1.1,0.2,1.6,0.4c1-1.5,1.9-3.3,3.2-4.6
			c1.1-1.1,2.8-2.6,4-2.4c6.4,0.9,12.6,2.2,18.9,3.4c0.2,2.8,0.4,5.4,0.6,8.1c0.5,0.1,0.9,0.3,1.4,0.5c2.4-3.3,4.8-6.7,7.5-10.4
			c-3.6-1.8-7.8-3.9-11.7-5.8c0.4-2.7,0.7-4.9,0.9-7c-0.5-0.4-1-0.8-1.5-1.2c-1.7,6.4-6,5.2-10.1,4.9c-5.1-0.4-10.2-0.5-14.7-0.7
			C503.1,279.3,503.1,284.1,503.1,288.9z"/>
		<path d="M430.2,369.4c0.2-0.9,0.3-1.8,0.6-2.6c3.5-8.4,7-16.8,10.8-25.1c1.9-4.4,3.6-9.4,10.3-7.3c1,0.3,2.6-1,3.9-1.6
			c-0.6-1.2-1.1-2.5-1.9-3.7c-0.4-0.7-1.2-1.1-2.2-1.9c1-1.7,1.6-4,3.1-5c4.9-3,6-8.2,7.4-12.9c1.7-5.9,5.6-6.8,10.6-6.5
			c7.3,0.4,11.2,2.8,12.9,8.2c2,6.8-0.7,16-5.6,20c-2.8,2.3-4.7,2.8-6.6-0.8c-0.3-0.6-1.3-0.8-2.9-1.6c0.7,2.4,1.6,3.9,1.4,5.4
			c-0.3,1.8-1,4.1-2.4,5c-13.4,8.4-24.1,20-36.7,29.3c-0.6,0.5-1.3,0.9-2,1.4C430.9,369.7,430.7,369.5,430.2,369.4z"/>
		<path d="M506.7,310.6c-0.3,1.9-0.4,3.9-1,5.7c-1.7,6-5.3,12.1-4.8,17.9c0.4,4.6-0.2,8.9-0.5,13.2c-0.3,5.4-3.7,7.5-10.2,5.6
			c2.1,2.2,3,3.7,4.3,4.5c4.7,2.9,3.4,6.3,0.7,9.5c-8.1,9.8-22.5,8.1-28.5-3.2c-2.8-5.3-0.2-13.9,5.4-18.2c2.3-1.8,4.4-4,6.8-5.7
			c1.5-1,3.5-1.1,5.2-1.8c1.2-0.5,3.2-1.7,3.1-2c-2.3-6.8,3.3-10.5,6.2-14.8c2.9-4.4,7.6-7.5,11.6-11.1
			C505.7,310.4,506.2,310.5,506.7,310.6z"/>
	</g>
</g>
</svg>
