<?xml version="1.0" encoding="utf-8"?>
<!-- Generator: Adobe Illustrator 26.2.1, SVG Export Plug-In . SVG Version: 6.00 Build 0)  -->
<svg version="1.1" id="Layer_1" xmlns="http://www.w3.org/2000/svg" xmlns:xlink="http://www.w3.org/1999/xlink" x="0px" y="0px"
	 viewBox="0 0 960 560" style="enable-background:new 0 0 960 560;" xml:space="preserve">
<g>
	<g>
		<path d="M356,256c10.4-13.1,22.5-24.4,36.9-35.2c0.7,1.7,1.2,3,1.3,3.2c2.2-2.3,3.7-4.8,5.9-6c8.2-4.6,16.6-9.1,25.1-13.2
			c4.4-2.1,9-3.3,13.4,0.9c2,2,3.8,0.4,5.2-1.6c3.8-5.3,3.9-5.2,8.2-1c3.7-1.8,7.3-3.9,11.1-5.3c7.3-2.6,10.7-0.4,13.9,9.4
			c0.2-2.7,0.4-4.6,0.5-6.5c19.8-3,39.6-2.5,59.3-0.6c2.6,0.2,5.6,0.4,4.1,5.6c4.9-5.1,10-4.6,14.8-2.5c7.7,3.4,15.7,5.1,24.1,5.6
			c3.7,0.2,7.6,2.4,10.8,4.6c6.5,4.6,12.8,9.6,15.5,17.6c0,2.7,0,5.3,0,8c-3.5,4.4-6.8,8.9-10.6,13.1c-0.9,1-3.7,1.6-4.8,1
			c-6.1-3.2-13.3-4.7-17.4-11.2c-0.5-0.8-1.5-1.2-2.4-1.7c-5.5-2.8-11-5.7-16.7-8.3c-4.2-1.9-4.3-3.7-0.5-6.1
			c0.9-0.6,1.5-1.6,2.3-2.4c-0.3-0.4-0.6-0.7-0.9-1.1c-1.5,1.1-2.9,2.3-4.4,3.4c-1.4,1-3.1,2.9-4.4,2.6c-6.8-1.2-13.4-3-20.2-4.4
			c-5.6-1.2-11.3-3.4-16.9-3.1c-6.5,0.3-11.4,0.1-12.9-8c-2,1.4-3.4,2.6-4.9,3.4c-1.4,0.8-2.9,1.8-4.3,1.8
			c-10.1,0.1-20.1-0.1-30.2,0.1c-4,0.1-7.9,1.1-11.8,1.6c-3.2,0.4-6.5,3.4-9.8-0.1c-0.1-0.1-1,0.5-1.5,0.7c-4.7,1.5-9.4,3-14.5,4.6
			c-0.6-1.9-0.9-3.1-1.4-4.6c-0.4,0.5-0.8,0.9-1,1.2c-1,1.8-1.6,4.6-3,5.2c-7,2.9-14.2,5.2-21.9,7.9c0-1.9,0-3.1,0-4.7
			c-0.8,0.7-1.2,1-1.5,1.3c-2.2,2.5-4.1,5.4-6.6,7.4c-7.6,6.1-15.5,11.9-23.4,17.7c-1.3,0.9-3,1.2-4.5,1.7
			C356,257.3,356,256.7,356,256z"/>
		<path d="M524.2,290.3c-1-2.3-1.6-3.4-2.1-4.7c-0.3,0.3-0.7,0.5-0.7,0.5c1.5,4.8-0.6,7.6-4.7,10.2c-7.5,4.7-15.3,7.1-24.4,5
			c-0.2,1.5-0.8,2.5-0.5,3.4c2.6,9,5.1,18.1,8.3,26.9c1.2,3.3,0.9,5-2.2,6.2c-1.3,0.5-2.7,0.7-4,2c1.3-0.1,2.6,0,3.8-0.4
			c3.2-1.2,4.5,1.2,4.1,3.2c-1.2,7-1.6,14.4-8.1,19.2c-5.7,4.2-13.1,2.4-15.4-4.3c-1.1-3.4-1.3-7.1-1.3-10.7c0-3.5,0.9-6.9,1.2-10.4
			c0.5-5.7,0.7-5.9,7.4-4.4c-6.6-10.2,0.7-20.2,0.2-29.7c-6.7-2.2-13-4.2-20.3-6.6c1.8-2,2.7-3,3.6-4c-5.9,2.2-10-1.6-13.8-4.5
			c-3.6-2.7-9.2-5.2-6.5-11.8c-5.6-1.1-8.7-4.2-11.2-9.4c-3.5-7.1-2.9-14.5-3.9-21.7c-0.5-3.4,2.3-7.2,6.7-7.2
			c5.6,0,11.5-0.2,16.8,1.2c2.8,0.8,4.6,5,6.6,7.8c0.2,0.2-1.5,2.4-2.6,2.7c-2.3,0.6-4.7,0.6-7.1,0.8c0,0.4,0,0.9,0,1.3
			c1.4,0,2.8,0.2,4.2,0c4.5-0.8,6.2,0.9,5.8,5.6c-0.1,1.6-0.2,4,0.7,4.9c3.3,2.9,5,5.8,1.1,11.1c8.5-6.2,8.8-6,15.7-0.1
			c2.2,1.9,5.4,3.3,8.3,3.9c5.8,1.3,6.6,2.6,4.2,8.1c-0.3,0.7-0.6,1.5-0.9,2.3c0,0.1,0.1,0.3,1,2c1.4-4,2.5-7,3.6-10
			c6.8-1.5,14-3.2,21.2-4.6c4.1-0.8,6.5-2.8,8.2-6.9c2.4-5.7,5.9-10.9,8.9-16.3c0.3-0.5-0.3-1.3-0.3-2c0-2.2,0-4.5,0-6.8
			c0.7-0.1,1.5-0.2,2.2-0.3c0.7,2.4,2.2,4.8,2,7c-0.4,4.9-0.4,10.5-2.8,14.5c-2.5,4.2-2.4,9-4.8,13
			C529.8,280.7,527.3,285,524.2,290.3z"/>
		<path d="M416.3,289.8c1.4-0.7,2.4-1.3,3.7-2c-0.6-0.4-0.9-0.7-1.1-0.6c-5.1,1.1-11.1-2.9-13.5-8.7c-1-2.3-2.4-4.7-4.2-6.4
			c-4.9-4.7-5.1-10.7-6.1-16.6c2.5-0.6,4.4-1.1,6.2-1.6c0-0.4-0.1-0.8-0.1-1.2c-1.9-0.3-3.7-0.6-5.5-1c-1.5-9.8,4.2-15.5,13.8-14.2
			c8.1,1.1,11.7,5.7,11.1,15c-0.2,3.2-1.8,6.3-2.9,9.3s-2.4,5.9-3.6,8.8c0.5-0.2,1.7-0.6,3.2-1.1c0.5,0.7,1.3,1.3,1.7,2.1
			c4.3,8.5,8.5,17,16.7,22.6c0.7,0.5,0.8,1.9,1.1,2.9c-1,0.3-2,1-3,0.9C427.3,297.4,421.4,295,416.3,289.8z"/>
		<path d="M544.5,294.1c2.2-5.1,4.4-10.1,6.4-14.9c-0.6-2.6-1.3-5.4-2-8.1c-0.2-1-0.3-2.1-1-2.8c-4.7-5.2-3.3-10.5-0.7-16.1
			c4.5-9.8,4.5-10.1,14-4c3.4,2.2,6.1,5.8,8.2,9.3c1.8,3.1,2.3,7-2.1,8.1c0.4,1.6,1.3,3,0.9,3.8c-4.7,8.9-9.2,18-17.1,24.7
			c-1.3,1.1-3.8,0.9-5.7,1.3C545.2,295,544.8,294.6,544.5,294.1z"/>
	</g>
</g>
</svg>
