<?xml version="1.0" encoding="utf-8"?>
<!-- Generator: Adobe Illustrator 26.2.1, SVG Export Plug-In . SVG Version: 6.00 Build 0)  -->
<svg version="1.1" id="Layer_1" xmlns="http://www.w3.org/2000/svg" xmlns:xlink="http://www.w3.org/1999/xlink" x="0px" y="0px"
	 viewBox="0 0 960 560" style="enable-background:new 0 0 960 560;" xml:space="preserve">
<g>
	<g>
		<path d="M606,274c-5.3-0.9-10.7-1.4-15.8-2.9c-5.4-1.6-10.4-1.5-16-0.3c-12.5,2.7-25.1,6.2-38.2,3.4c-1.7-0.4-3.5-2-4.5-3.5
			c-4-5.9-8.7-6.1-13.4-0.3c0.2,0.4,0.5,0.9,0.7,1.3c0.7,1.6,1.3,3.1,2,4.7c-1.7,0.4-3.6,1.4-5.1,1c-8.3-2.3-15,2.2-21.9,5.1
			c-4.4,1.8-6.8,1.6-8.5-2.9c-0.3-0.8-1.3-1.3-2.7-2.6c-2.8,8.1-5.9,15.5-15.1,17.8c3.3,3.6,6.4,3.6,9.9,2.5c3.1-1,6.4-1.5,9.8-2.3
			c0.9,2.5,1.6,4.6,2.3,6.7c0.6-0.1,1.1-0.1,1.1-0.2c4.3-11.6,15.9-8.9,24.4-12.1c0.7-0.3,2.8,3.1,5,5.6c0.6-0.3,2.6-0.9,4.1-2.2
			c2.9-2.5,5.4-2.4,9-1c8.5,3.1,17.4,5.1,25.8,8.3c4.9,1.9,9.2,5.3,14.3,8.3c-5.8,5.5-11.8,4.5-17.1,4.5c-7.9,0.1-15,1.9-21.9,5.7
			c-6.5,3.7-7.5,3.2-11.4-3c-0.9-1.5-2.2-3-3.7-3.7c-5.4-2.5-9.2,0.2-9.5,6c-4.6,0.8-9.1,1.6-13.6,2.5c-3,0.6-4.4,1.8-3.7,5.5
			c0.6,3.6-0.2,7.5-0.8,11.1c-2,11.4-4.2,22.8-6.4,34.1c-0.5,2.7-1.4,5.3-2.2,7.9c-0.5,0-1,0-1.5,0c-0.4-1.4-1.1-2.8-1.2-4.2
			c-1.1-10.2-1.9-20.5-3.3-30.6c-0.3-2.5-2.2-4.8-3.6-7.6c-5.1,5.3-6.7,1.3-8.7-2.4c-0.6-1.1-2.5-1.5-3.7-2.2
			c-0.3,1.2-1.2,2.9-0.8,3.4c4.9,5.1,3,9-2.8,12.3c2.3,2.6,4.5,4.6,6.2,7c4,5.8,7.9,11.7,11.7,17.6c0.7,1,0.5,2.6,0.8,3.9
			c-1.4-0.4-3.2-0.4-4.1-1.3c-8.2-8.2-18.1-13.4-29-17.1c-2.9-1-4.5-0.6-5.9,2.4c-1.5,3.2-3.1,7.9-5.6,8.7c-4.6,1.5-10.1,1-15.1,0.4
			c-3.3-0.4-6.6-2.1-9.5-3.9c-4-2.5-5.5-6.5-3-10.8c2.8-4.7,6.1-9,9.9-14.5c-4-1.8-8.7-4.2-13.6-6c-5.2-1.9-10.4-3.4-7.7-11.5
			c-0.6,0-1.2,0-1.8,0c-2,2.2-4.5,4.1-5.9,6.6c-1.4,2.6-2.9,3.1-5.5,2.6c-3.7-0.8-7.5-1.2-11.3-1.6c-5.6-0.5-6.6-2-6.6-7.6
			c-0.1-7.6-0.6-15.2-1.1-22.7c-0.2-3.2,0.3-5.6,3.2-7.5c2.3-1.6,4-4.1,7-7.2c-3.7-1.1-6.1-2.5-8.5-2.5c-4,0-4.7-1.9-4.7-5.2
			c0-1.7-0.7-3.5-1.1-5.2c0-4.7,0-9.3,0-14c2.2-1.5,4.2-3.2,6.5-4.3c9.2-4.2,17.5-0.6,25.4,3.6c3.9,2,2.9,6.4,1.9,10
			c-0.8,2.8-1.5,4.9,1.8,7.2c1.7,1.2,2.5,5.2,1.9,7.5c-1.4,5.3-3.8,10.3-5.8,15.4c7.2,2.5,13.8,5,20.5,7.2c3.5,1.2,5.1,3,3.2,6.6
			c-0.2,0.4-0.5,1-0.4,1.4c0.7,2.2,1.5,4.4,2.2,6.6c1.7-0.9,3.4-1.8,6.1-3.2c4.6,2.4,10.6,5.2,16.2,8.4c2.5,1.5,4.2,2.2,6.2-0.6
			c1.8-2.6,4-4.8,5.8-7c-4-3.9-7.9-7.9-12-11.5c-1.4-1.2-3.4-2.2-5.2-2.3c-4-0.3-3.9-2-2.5-5c0.7-1.5,0.9-3.2,1.8-6.2
			c-8.5,5.7-14.4,0.6-20.5-2.2c-3-1.4-1.9-11,1.3-13.7c3.9-3.3,3.9-6.1-0.4-9.2c-2.4-1.8-7.2-2.8-7.5-4.6c-0.9-6.5-1-13.3,0-19.8
			c1.2-7.6,4.4-8.4,12.2-9.1c4.7-0.4,8.2,0.3,12.2,2.3c12.3,6,14.3,19.4,3.8,27.9c-0.2,0.2-0.2,0.6-0.4,1.2c1.3,0.2,2.5,0.5,3.7,0.7
			c4.2,0.5,5.6,2.9,5,7c-0.3,2.1,0,4.2,0,6.6c7.3-6.5,13.9-12.4,20.4-18.3c3,2.4,4.8,3.9,7.5,6.1c0.9-3.2,1.6-5.6,2.1-7.1
			c-6.6-0.9-12.6-1.7-18.7-2.7c-1.2-0.2-2.5-1.1-3.3-2.1c-5.7-7.4-5.6-24.8,0.3-32.1c1.5-1.9,4.1-2.8,6.6-4.5c0,0,0.1-1-0.2-1.2
			c-4.9-2.8-3.6-6.5-1.9-10.5c3-6.8,5.7-13.7,8.8-20.4c0.6-1.3,2.4-2.9,3.6-2.9c1.1,0,2.7,1.8,3.3,3.1c2.6,5.4,4.7,11,7.3,16.4
			c1.4,2.8,3.5,5.3,5,8c0.6,1.1,0.9,2.8,0.6,4.1c-0.7,2.6-1.8,5-3,7.8c1.2,0.7,2.3,1.7,3.6,2.1c5.3,1.5,6.4,5.6,5.9,10.1
			c-0.9,7.2-3,13.9-9.1,19.4c3.8-0.4,7.6-0.9,11.3-1.3c3.9,6.4,5.3,6.4,9.5,0.2c1.8-2.6,3.7-3.8,7.4-3.5c4.5,0.3,9.1-1.8,13.6-1.8
			c5.1-0.1,10.2,0.8,15.2,1.7c1.2,0.2,2.2,2,3.1,3.3c0.8,1.3,1.3,2.8,2.4,5.3c3.8-7.1,9.2-6,14.8-5c6.2,1.1,12.5,1.4,18.6,2.9
			c4.7,1.2,9.2,3.5,13.6,5.6c6.2,3,12.3,6.2,18.5,9.3C606,272,606,273,606,274z"/>
	</g>
</g>
</svg>
