<?xml version="1.0" encoding="utf-8"?>
<!-- Generator: Adobe Illustrator 26.2.1, SVG Export Plug-In . SVG Version: 6.00 Build 0)  -->
<svg version="1.1" id="Layer_1" xmlns="http://www.w3.org/2000/svg" xmlns:xlink="http://www.w3.org/1999/xlink" x="0px" y="0px"
	 viewBox="0 0 960 560" style="enable-background:new 0 0 960 560;" xml:space="preserve">
<g>
	<g>
		<path d="M606,256c0,1,0,2,0,3c-2.6,2.9-4.8,2.2-7.5-0.3c-5-4.7-10.5-9-15.6-13.4c-4,7.8-4.8,15.5-3.8,23.9
			c0.7,5.5-0.3,11.5-1.9,16.9c-2.1,6.8-1,10,4.8,14.4c6.8,5.2,12.8,11.5,19,17.5c0.7,0.7,0.7,3,0.1,3.8s-2.7,1.5-3.7,1.1
			c-4-1.6-7.8-3.6-11.7-5.7c-3.7-2-7.3-4.2-11-6.4c-0.5,0.4-1,0.9-1.6,1.3c0.9,1.6,1.5,3.7,2.8,4.8c8.2,7.1,16.6,13.9,24.8,21
			c1,0.9,1.6,3.7,1,4.6c-0.7,1-3.4,1.7-4.6,1.1c-4.1-2.1-7.9-4.9-12-7.2c-4.2-2.4-8.6-4.6-13.7-7.4c-2.5,9.5-4.7,17.7-6.8,25.9
			c0.5,0.4,1,0.8,1.5,1.3c4.8-1.5,9.9-2.6,14.5-4.6c4.6-2.1,6.9-0.4,8.6,3.5c3.4,8.1,4.1,16.6,1,24.8c-0.9,2.6-4.2,5.1-7,6
			c-5.7,1.8-11.7,2.3-17.5,3.7c-13.7,3.3-27.2,8.2-41.2,10c-17.4,2.2-35.2,1.8-52.8,2.5c-6.8,0.3-13.9,2.4-19.5-3.7
			c-0.6-0.6-1.9-0.6-2.9-0.7c-9.3-1-18.5-2.1-27.8-2.8c-10.5-0.8-20.1-4.2-29.3-9.1c-2.6-1.4-3.6-3.3-2-5.5c0.9-1.3,3.4-2.2,5-2
			c3.8,0.3,7.5,1.3,11.2,2.2c11,2.7,22,4.7,33.5,4.2c4.3-0.2,8.6,0.1,12.8-0.5c5.6-0.9,11-2.3,16.5-3.8c6.1-1.6,12-1.3,17.5,1.6
			c3.2,1.7,5,0.8,7.3-1.6c1.2-1.4,3.6-2,5.5-2.3c4.4-0.6,8.8-0.7,13.2-1.3c4.1-0.5,8.1-2.1,12.2-2.1c9.6-0.1,16.5-4.2,21.3-12.4
			c4.7-8,5.6-16.5,4.9-25.5c-0.7-9-1.3-10-10.3-12.2c-1.3-0.3-2.6-0.5-3.9-0.8c-6.6-1.5-13.2-3.4-19.8-4.5c-5.1-0.9-10.3-1-16.4-1.6
			c5.2,9.3,9.8,17.2,9.5,26.7c0,1.8-0.4,3.6-0.6,5.4c-2.2-0.7-4.8-1-6.6-2.3c-2.3-1.8-3.9-4.5-6.1-6.5c-4.6-4.2-9.3-8.4-14.3-12.1
			c-3.1-2.3-6.7-4.6-10.3-5.2c-4.8-0.8-10-0.1-14.9,0.4c-2.5,0.2-4.9,1.2-7.6,1.9c2.7,3.7,5.4,6.4,6.8,9.6
			c4.1,9.1,7.8,18.4,11.3,27.7c0.5,1.3,0.2,3.7-0.7,4.5c-0.8,0.7-3.4,0.5-4.4-0.2c-5.5-4.2-11.2-8.3-16.1-13.2
			c-6.3-6.5-13.6-10.5-22.3-12.3c-1.3-0.3-3.7,0.4-4.1,1.4c-2.7,5.9-7.9,7.1-13.5,8.1c-7.4,1.4-16.3-3.4-18.8-9.8
			c-2.8-6.9-0.5-17.4,7.3-20.3c2.8-1.1,5.1-3.3,8-5.2c-8.1-8.5-15.5-17.1-26.5-21.3c-8.4-3.1-15.5-8.1-20.4-15.8c0-2.3,0-4.7,0-7
			c3.4-7.7,7.1-15.3,10-23.2c2.9-8.1,4.8-16.6,7.2-24.9c3.3-11.7,8.2-14.6,20-12c7.8,1.7,11.8,5.9,10.7,13.7
			c-1,7.5-3.4,14.9-6.1,21.9c-1.8,4.7-5.2,8.7-8.1,13.3c2.9,1.3,5.3,3.6,3.4,8.5c-0.6,1.5,0.4,4.8,1.8,5.7c6.1,4.3,12.7,7.8,18.8,12
			c4.6,3.1,9.1,6.6,12.9,10.7c2.1,2.3,3.5,3,6.2,1.8c4.8-2.2,9.6-4.2,14.6-6.3c-1.7-2.1-3.5-4.2-5.3-6.3c-4.3-4.9-7.3-4.9-12-0.2
			c-1.3,1.2-3.5,2.7-4.9,2.4c-3.7-0.9-7.3-2.4-10.7-4.1c-4.4-2.2-6.5-6.4-5-10.9c1.5-4.4-0.3-6.5-3.1-9.1c-5.9-5.6-6.1-9.5-2.8-16.9
			c4.4-10,7.8-20.6,12.6-30.3c2.4-4.8,6.5-9.8,11.1-12c5.5-2.7,11.1,1.4,15.8,5.1c3.8,3,3.3,7.1,2.3,11c-1.7,6.7-3.7,13.3-5.6,20
			c8.2,0,16.1,0.9,23.7-0.3c6.8-1.1,11.9,1,17.3,4c1.1,0.6,2.9,1.1,3.8,0.6c5.7-3,10.9-1.6,16.1,1.3c4.6,2.6,9.2,5.2,14,7.6
			c5.9,2.9,12.1,5.3,17.9,8.4c7.7,4.1,15.2,8.8,24,13.9c-0.5-4-1.1-7-1.1-10c0-2.7,0.5-5.4,1.1-8c0.4-2.1,1.8-4.2,1.8-6.2
			c-0.2-7.8-0.7-15.6-1.6-23.4c-0.3-2.4-1.7-5.1-3.5-6.7c-6.9-6.1-14-12-23.1-14.9c-8-2.5-16.1-5-24-7.9c-2.6-0.9-5.2-2.4-7.2-4.3
			c-1.5-1.3-2-3.7-3-5.8c-8.5,4.4-17.4,2.8-26.2,2.1c-7.8-0.5-15.6-2-23.3-1.1c-7.8,0.9-15.1,4.6-22.9,6.2c-3.6,0.8-9,1.1-11.1-0.9
			c-4.2-4-6.6-3.5-10,0.3c-7.3,8.2-16.6,7.4-26,5.2c-0.9-0.2-2.1-0.8-2.4-1.6c-3.1-6.4-6.4-13.7-3.4-20c2.9-6.1,7.1-13,14.6-15
			c10-2.8,20.3-4.8,30.5-7c3.6-0.8,6.1,0.1,7,4.2c0.7,3.5,2.5,4.3,5.7,2.1c7.7-5,16.4-5.3,24.5-2.1c4.8,1.9,9.4,2.7,14.3,3.2
			c5.1,0.5,10.4,0.4,15.4,1.5c11.3,2.6,23.3,4.1,33.5,9.1c11.1,5.4,24,9,31.1,21.2c3.4-5.4,0.9-9-1-12.9c-1.6-3.3-3.8-7.2-3.4-10.5
			c1-6.9,12.2-13.7,19.5-13c8.4,0.8,21.3,13.4,21.5,21.9c0.3,10.3-0.6,20.7-0.2,31c0.3,6.6,1.9,13.2,6.1,18.9
			C595.3,240.4,600.6,248.3,606,256z M552.4,306c0.3-0.3,0.7-0.6,1-0.9c-2.1-1.6-4-3.5-6.3-4.7c-16.3-8.9-32.4-18.2-50.1-24.4
			c-9.6-3.4-18.8-1.5-28.3,0.2c4.8,9,4.8,9,14.1,9.4c0.6,0,1.3,0.1,1.9,0.3c12.9,3.4,26,5.2,38.3,11.4
			C532,301.8,542.6,303.2,552.4,306z"/>
	</g>
</g>
</svg>
