<?xml version="1.0" encoding="utf-8"?>
<!-- Generator: Adobe Illustrator 26.2.1, SVG Export Plug-In . SVG Version: 6.00 Build 0)  -->
<svg version="1.1" id="Layer_1" xmlns="http://www.w3.org/2000/svg" xmlns:xlink="http://www.w3.org/1999/xlink" x="0px" y="0px"
	 viewBox="0 0 960 560" style="enable-background:new 0 0 960 560;" xml:space="preserve">
<g>
	<g>
		<path d="M483,156c0.6,4.76,1.28,9.51,1.77,14.28c1.22,11.88,2.34,23.77,3.56,35.66c0.19,1.79,0.53,3.63,1.2,5.3
			c2.57,6.42,2.52,6.69-3.51,9.65c3.96,4.12,4.69,10.97,1.69,15.97c-2.33,3.88-13.85,3.84-15.76-0.48
			c-1.75-3.95-2.47-8.45-3.06-12.78c-0.42-3.07,0.12-6.26,0.22-9.4c0.01-0.33-0.18-0.71-0.07-0.98c3.31-8.02,2.7-16.8,5.14-25.09
			c3.09-10.46,4.61-21.38,6.81-32.11C481.67,156,482.33,156,483,156z"/>
		<path d="M481,406c-0.94-5.95-2.16-11.88-2.74-17.86c-0.68-7.11,0.5-14.68-1.56-21.28c-1.92-6.12-2.85-12.1-3.19-18.3
			c-0.14-2.58,0.38-5.2,0.7-8.86c-5.64-7.25,0.59-16.72,7.25-19.9c2.87-1.37,8.74,2.6,9.42,7c0.79,5.15,0.51,10.47,0.57,15.71
			c0.02,1.8-0.85,3.72-0.44,5.38c0.91,3.67-0.56,6.22-3.27,8.11c-2.24,1.56-2.01,2.82-0.78,4.91c2.29,3.88,2.16,7.89,1.14,12.39
			c-2.44,10.81-4.11,21.8-6.09,32.71C481.67,406,481.33,406,481,406z"/>
		<path d="M504.81,265.38c5.12,1.96,6.57,5.29,4.16,12.51c-3.57,10.71-8.51,14.16-16.58,11.5c-4.24-1.4-5.33-4.97-7.03-8.75
			c-1.82-4.06-1.75-7.15,0.97-10.68c-0.34-0.24-0.67-0.47-1.01-0.71c-6.33,2.4-12.67,4.79-19.23,7.28
			c1.84,6.55-0.85,14.64,7.54,18.56c1.85,0.87,3.29,2.62,4.71,3.8c7.15-1.82,14.71-3.73,23.24-5.9
			c-3.91,6.05-5.82,11.75-13.62,14.42c-6.32,2.16-11.88,4.37-18.44,2.64c-8.83-2.33-14.04-8.47-17.12-16.66
			c-0.47-1.26,0.19-2.9,0.04-4.34c-0.15-1.41-0.59-2.8-1.05-4.15c-0.26-0.74-1.02-1.32-1.25-2.06c-2.52-8.27,2.71-22.28,10.09-27.16
			c1.25-0.82,2.79-1.39,3.7-2.49c2.74-3.32,5.79-4.09,9.35-1.55c3.5-6.37,12.42-7.85,19.99-3.07c3.31,2.09,6.35,4.95,8.75,8.04
			C503.54,258.58,503.69,261.64,504.81,265.38z"/>
		<path d="M429.41,297.88c-8.22-3.16-6.17-11.45-8.39-17.71c-0.81-2.29-0.69-4.92-0.87-7.4c-0.1-1.48-0.57-3.54,0.18-4.39
			c5.12-5.76,2.85-14.39,8.02-20.03c2.1-2.29,3.95-4.97,6.44-6.73c9.72-6.87,18.12-3.41,19.75,8.28c0.27,1.95-1.76,4.82-3.53,6.32
			c-4.11,3.51-10.1,4.82-12.4,10.45c-1.48,3.62-2.67,7.36-3.43,9.48c1.1,5.28,2.57,9.3,2.67,13.35
			c0.42,17.2,12.51,26.11,24.36,35.29c0.36,0.28,0.65,0.67,0.96,1c-2.06,2.09-7.89,0.5-17.5-4.68
			C437.2,316.58,428.12,303.86,429.41,297.88z"/>
		<path d="M538.48,270.81c4.52,3.66,3.2,9.07,1.66,13.13c-4.23,11.14-9.17,22.18-19.92,28.91c-4.39,2.75-7.55,7.62-13.39,7.88
			c-0.8,0.04-1.61,0-3.29,0c1.88-2.42,3.19-4.51,4.89-6.2c6.38-6.34,10.84-13.75,13.6-22.33c1.19-3.7,2.97-7.25,4.84-10.67
			c1.53-2.79,2.55-5.38-0.93-7.09c-4.58-2.24-5.32-6.3-5.85-10.63c-7-1.97-9.18-4.62-9.38-11.47c-0.15-4.83,4.51-11.5,9.54-12.66
			c2.02-0.47,4.79,0.11,6.58,1.23c8.88,5.56,14.26,13.39,13.89,24.26C540.65,266.93,539.38,268.63,538.48,270.81z"/>
	</g>
</g>
</svg>
