<?xml version="1.0" encoding="utf-8"?>
<!-- Generator: Adobe Illustrator 27.0.0, SVG Export Plug-In . SVG Version: 6.00 Build 0)  -->
<svg version="1.1" id="Layer_1" xmlns="http://www.w3.org/2000/svg" xmlns:xlink="http://www.w3.org/1999/xlink" x="0px" y="0px"
	 viewBox="0 0 500 500" style="enable-background:new 0 0 500 500;" xml:space="preserve">
<style type="text/css">
	.st0{fill:#FFFFFF;}
</style>
<g>
	<g>
		<path class="st0" d="M0,3c166.7,0,333.3,0,500,0c0,164.7,0,329.4,0,494.1c-166.7,0-333.3,0-500,0C0,332.3,0,167.7,0,3z"/>
		<path d="M427.8,424.1c-19.9-10-39.4-19.9-59.4-30c-1.4,1-2.9,2.3-4.6,3.5c-3.4,2.5-6.8,5-10.3,7.3c-3.2,2.1-6.6,4-9.9,6
			c-1.9,1.1-3.7,2.3-5.5,3.4c0.2,11.8-9.2,21-22.8,16.5c-1.4-1.4-3.1-3.1-4.8-4.8c-12.8,4.7-25.9,7.5-39.5,9
			c-2.7,2.6-3.1,6.5-4.1,9.9c-3.6,11.5-7.9,22.8-11.4,34.3c-1.5,4.8-3,9.6-4.5,14.4c-0.3,0.9-0.8,1.7-1.3,2.7
			c-2.5-5.1-3.1-10.4-5.2-15.3c-2.1-5-3.6-10.4-5.1-15.6c-1.5-5.1-3.8-10-5.2-15.2c-1.4-5.2-2.8-10.3-4.9-15.1
			c-14.7-0.7-28.4-4.6-42.3-8.8c-2.2,2.1-4.3,5.2-7.7,6.5c-2.1,0.8-4.7,1.3-6.9,0.9c-2.6-0.4-5.3-1.6-7.7-2.9
			c-3.9-2.1-8.6-12.4-5.7-16.6c-4.9-3-9.8-6-14.5-9.1c-4.7-3.1-9.3-6.4-14.5-10c-18.8,9.2-38.1,19-57.9,28.9
			c0.5-1.2,0.7-2.2,1.2-3.1c9-18,17.9-36,26.9-54.1c0.2-0.4,0.6-0.7,0.9-1.2c-8-9.3-14.4-19.5-20.6-30.7c-1.5,0-3.6-0.1-5.7,0
			c-4.3,0.3-7.3-2.2-9.7-5c-2.2-2.6-3.5-6.1-3.7-9.8c-0.1-2.3,0.9-4.2,1.7-6.2c0.3-0.7,0.3-1.5,0.4-2.4c1.6-1.6,3.2-3.2,4.8-4.8
			c-3.5-12.7-7.5-25.3-8.1-39.2c-3-1.2-6.2-2.6-9.5-3.7c-4.5-1.5-9.2-2.5-13.6-4.1c-11.1-4.2-22.6-7.3-33.7-11.7
			c-0.7-0.3-1.5-0.1-2.4-0.9c6.4-2.3,12.8-4.7,19.3-6.8c6.4-2.1,12.8-3.9,19.2-6c6.5-2.1,13.1-4,19.5-6.8c0.6-3.3,0.9-6.7,1.6-9.8
			c0.8-3.9,0.4-8.1,2.7-11.7c-0.3-2.9,0.8-5.6,1.5-8.3c1.1-4,2.3-7.9,3.5-12c-0.9-1.6-2.4-2.3-3.8-3.3c-1.3-0.9-2-2.8-3.2-4.5
			c-1.5-3.4-0.9-7.5-1-9.9c1.3-5.5,4.6-8,7.1-10.6c2.6-0.7,5-1.3,7.5-1.9c1.8,0.3,3.7,0.6,5.9,0.9c6.3-11.3,13.2-21.8,21.1-31.4
			c-1.6-3.5-2.9-6.7-4.8-9.7c-1.9-2.9-3.1-6.3-4.6-9.4c-1.5-3.2-3-6.4-4.6-9.5c-1.5-3-3.3-5.9-4.9-8.9c-1.6-3.1-3-6.3-4.6-9.5
			c-1.5-3.1-3-6.2-4.8-9.8c19.1,10,38.3,18.5,56.8,28.8c8.9-7.4,18.6-13.4,28.5-18.9c-2.4-4.5-0.2-8,1.1-11.5
			c1.4-3.8,4.9-5.6,8.9-7.4c1-0.2,3,0.9,4.2-0.8c5.7,0.9,10.5,3.2,13.9,8c5.4-2.6,10.8-4.1,16.4-5.2c5.5-1.1,10.9-3,16.6-3
			c2.2-1.5,4.7-0.8,7-1c1.5-0.2,3-0.7,4.6-1.2c3.7-8.2,6.2-17,9-25.7c2.8-8.7,6.1-17.3,8.5-26.9c0.7,1.2,1.3,2,1.6,2.9
			c1,3,1.9,6.1,3,9.1c1.7,4.9,2.7,10,4.8,14.8c1.5,3.5,2.1,7.3,3.4,10.9c1.2,3.6,2.9,7,4,10.7c0.3,1.1,0.4,2.1,0.7,3.2
			c0.2,0.7,0.8,1.3,1.2,2.2c7.2-0.4,14,1.4,21,2.9c8.6,1.8,14.5,3.3,19.9,6.1c4.4-5.5,9.6-9.6,17.4-7.7c4.1,1.1,7.5,3.8,9.5,7.3
			c1.9,3.3,3.8,7.4,0.9,11.5c12,6.4,23.1,13.8,33.7,22.5c17.6-8.8,35.4-17.7,53.9-26.9c-3,6.6-6,12.5-9.1,18.4
			c-3.2,6.1-6,12.3-9.1,18.5c-3,6-6.2,11.9-9.1,17.6c7.7,9.1,13.9,18.6,19.2,28.8c1.3-0.1,2.8,0.2,3.5-0.3c1.4-1.3,2.1,0.8,3.3,0.4
			c1-0.4,2.3-0.1,2.8-0.1c6.4,2.6,9.9,7.3,10.9,13.3c0.9,5.5-2.2,12.2-8,15c4.7,13.5,7.6,27.4,9.4,41.8
			c19.9,8.1,40.9,13.3,61.6,20.9c-10.9,3.7-20.9,7.3-31.1,10.7c-10.1,3.4-20.3,6.6-30.8,10c-0.7,4.6-1.2,9.3-2,13.9
			c-0.5,3.1-1.3,6.1-2.1,9c-1.3,4.4-2,9-3.8,13.2c-0.3,0.8-0.7,1.7-1.1,2.8c3.1,2.7,5,6,6.4,10c1.4,4.5,0.2,8.1-2.1,11.4
			c-1.9,2.7-4.3,5.3-7.8,6.8c-2.3,0-5,0-7.9,0c-6.2,9.5-11.5,19.8-19.4,28.7c3,6.8,6.4,13.4,10,20c3.6,6.6,6.6,13.4,10,20.1
			C421.4,410.2,424.4,417,427.8,424.1z"/>
		<path class="st0" d="M144.4,181.8c-0.2,0.9-0.1,1.5-0.4,1.7c-1.6,1.2-2.8,2.8-4.2,4.1c-1.8,1.7-2.5,3.7-3.2,5.9
			c0.2,0.1,0.4,0.2,0.5,0.2c4.2-3.5,8.4-6.9,13-10.7c4.2-0.6,8.9-1.5,13.8-2.1c4.8-0.6,9.6-0.9,14.8-1.4c0.7-3.2,1.4-6.9,2.2-10.5
			c0.8-3.5,1.6-7,2.6-11.3c0.2-0.4,1.2-1.6,1.3-2.9c0.1-2.8,1.6-4.7,3.4-6.5c0.4-0.3,0.7-0.7,1.1-1c3.4-2.9,6.3-6.3,7.5-10.7
			c0.2-0.7,0.5-1.3,1.2-2.7c-3.2,1.6-6,2.5-8.2,4.3c-2.3,1.8-4,4.3-6,6.4c-0.4-0.4-0.7-0.5-0.6-0.6c0.4-3.5,0.7-7.1,3.5-9.8
			c2.6-2.5,5.1-5.2,7.7-7.7c1.8-1.7,3-3.6,3.9-6.3c1.8,0.7,3.5,1.3,5.9,2.3c4.1-0.8,9,1.2,14,1.1c1.4,1.4,2.8,2.8,4.5,4.5
			c-0.6,0.4-1.3,0.7-2,1.2c-3.2-1.7-7-0.5-10.2-0.8c-0.8,0.6-1.3,1-1.8,1.5c3.5,1.1,6.9,1.9,10.4,1.4c2.7-0.4,5.2,0.8,7,2.2
			c5.2,4.1,11.1,7,16.2,11.1c2.4,1.9,4.6,3.8,6.9,5.8c8.6-6.1,17-12.1,25.1-17.9c6.4,1.4,12.4,1.5,18.7-0.6
			c-2.7-1.9-5.2-3.5-7.7-5.2c-2.5-1.6-4.9,1.5-7.6,0.2c2-2.5,5.5-4.3,8.3-4.5c4.4-0.4,8.4,1.1,12.4,2.4c2.1,0.7,3.9,1,5.8-0.3
			c0.7,0.7,1.4,1.4,2.1,2.1c0.9,2.6,1.4,5.3,3.4,7.5c2.1,2.4,3.6,5.3,4.6,8.4c0.4,1.1,0.1,2.4,0.1,4.5c-3.6-3-5.2-7.2-9.6-9.1
			c-0.1,4,3.1,5.9,4.2,8.8c1.1,2.8,3.6,5.1,5.3,7.3c0.8,3.1-0.1,5.9,1.1,8.8c1,2.5,0.2,5.6,1,8.4c0.7,2.7-0.4,5.7,1.7,8.5
			c4.5-0.9,9,0.7,13.7,0.9c5.3,0.2,10.7-0.7,16.2,1.5c2.8,5.9,9,9.3,13.6,14.4c0.2-1.6-0.8-5.5-1.4-7.4c-0.8-2.8-3.6-3.7-5.6-5.8
			c3-1.3,4.9,0.1,6.8,1.2c3,1.8,5.7,4,7.3,7.2c1.5,2.9,3.8,4.8,6.8,5.9c0.6,0.2,1,0.8,1.9,1.5c-2.8,1.8-2.1,4.8-3.4,7.1
			c-0.4,0.6-0.4,1.9,0,2.4c1.5,1.7,0.3,3.9,1,5.5c0.8,1.9,0.9,3.7,0.9,6.1c-1.6,1.8-3.5,3.9-5.6,6.3c-1-3.8,2-6.9,0.3-10.2
			c-1.3-2.7-1.7-5.8-4.2-8.1c-0.6,5.6-2,10.7-1.3,15.6c-2.3,5.8-6.2,10-10.2,14c-2.4,2.4-4.4,5.1-6.6,7.7c0,0.5,0,1.2,0,1.9
			c4.5,1.5,5.9,6.1,9,9c3.2,2.9,6,6.3,8.9,9.3c-1.9,4.2-1.6,8.4-1,12.3c0.6,3.7,0.8,7.7,3.1,11.5c0.7-0.7,1.6-1.2,1.6-1.7
			c-0.1-1.7,0.9-3,1.5-4.3c1.6-3.2,1.7-6.4-0.4-9.5c0.4-0.4,0.9-0.8,1.7-1.6c1.4,2.2,2.8,4.4,4.4,6.8c-0.5,5.4-0.9,11-1.3,15.9
			c0.9,1.7,1.4,2.6,2,3.7c0,0.1-0.1,0.4-0.3,0.5c-0.7,0.4-1.3,0.7-2,1.1c-2.9,1.5-5.1,3.6-6.3,6.7c-1.2,3.1-2.7,6-5.1,7.7
			c-2.5,0.5-4.5,0.8-6.8,1.3c0.1-0.7,0.1-1.2,0.4-1.7c0.2-0.4,0.7-0.7,1-1.1c1.3-1.6,3.3-2.6,3.9-4.8c0.4-1.8,1.2-3.5,1.7-5.2
			c0.4-1.5,0.6-3,1-4.9c-0.7,0.1-1.3,0.1-1.7,0.3c-5.5,3-7,4.3-11.1,10.5c-0.3,0.4-0.4,0.9-0.7,1.2c-0.9,1-1.8,1.9-2.3,2.3
			c-6.3,1.8-12.4,1.1-18.1,3.2c-1.3,0.5-2.9,0.2-4.4,0.2c-1.9,0-3.9,0-5.9,0c-0.1,0.7-0.1,1.1-0.2,1.6c-0.4,2.3,0.5,4.6-0.8,7.1
			c-1,2,0.5,4.7-1,7c-0.6,0.9-0.3,2.6-0.1,3.9c0.4,2.8-1.6,4.6-2.3,7c-0.1,0.4-0.6,0.9-1,1c-6.7,2.6-9.9,8.3-12.5,14.4
			c-0.2,0.4-0.6,0.7-0.9,1.1c2.3,1.8,4.2-1,6.4-0.5c2.5-2.8,6-4.9,6.7-9.1c2.8,1.8,3.1,3.6,2.1,7.2c-1.2,4.6-4,7.7-8,10
			c-0.9,0.5-1.7,1.3-3.3,2.6c-0.3,0.9-0.8,2.8-1.3,4.7c-1.5-0.9-3.2-1.9-4.9-3c-5.8,3.2-11.7,3-17.3,0.7c-1.9-0.8-4.8-1.9-5.1-5.1
			c2.5,0.4,4.8,0.7,6.8,1c3.6-1.9,6.7-3.9,10.1-5.5c-1.8-0.7-3.6-1.5-6.4-2.7c-4.1-0.4-9.4-0.8-14.7-1.2c-7.8-4.5-16-8.4-23.1-14.6
			c-4.7,8.6-13.8,12.2-20.5,18.8c-2.2,0.2-4.5,0.1-6.8-0.8c-2-0.7-4.5,0.6-6.2-0.9c-3.9,0.7-7.5,1.3-11.5,2.1c3,2.5,5.8,4.9,8.8,7.4
			c2.3,0.2,4.9,2.6,8.2-0.7c-0.2,1.6-0.1,2.5-0.5,2.8c-1.5,1-3.2,1.8-5,2.8c-0.2-0.1-0.5-0.4-0.8-0.6c-1.6,0.3-3.7,1.3-4.9,0.7
			c-1.8-1-3.5-0.4-5.1-0.9c-6-1.6-7.5-1.1-12.3,0c0.2-5.1-2.8-8.2-7-10.3c-2.3-1.1-3.8-2.7-4.7-5c-0.3-1.9-0.7-3.9-1.1-6
			c0.3-0.3,0.7-0.7,1.5-1.6c0.6,1.3,1.1,2.5,1.8,4c7.8,4.1,7.8,4.1,12.6,3.9c-4.7-4.6-8.8-9.3-13.5-12.2c-2.1-4.8-1.6-9.5-3.6-13.7
			c0.6-4.7-1.5-9.2-1-13.8c-0.5-0.5-1-1-1.3-1.3c-6.8-1-13.5-1.5-19.9-4c-1.3-0.5-2.8-0.3-4.4-0.4c-1.3-1-2.8-2-4-3.2
			c-3.5-3.5-7.1-6.7-12-8c-1.1-0.3-2.2-1.1-3.8-1.9c0.1,1.1,0,1.9,0.3,2.4c2.1,2.7,4.3,5.2,6.4,7.8c1.3,0,2.4,0,3.3,0
			c0.6,0.6,1.1,1.1,1.6,1.6c-1.6,0.8-3.2,1.7-4.8,2.5c-6.4-2.9-6.4-2.9-17.6-14c-0.6,0-1.4,0-2.6,0c1.4-3.6,1.6-7.1,1.2-10.6
			c-0.3-2.3-1.1-4.6-0.9-7c0.2-3.1,0.9-5.9,3.5-7.9c0.3,0.3,0.7,0.7,1.2,1.2c-1.7,2.8,0.1,5.3,1,8c0.8,2.4,3.1,4.4,2.9,7.6
			c1.6-4.1,3.3-8.2,5.2-13c-0.1,0.5,0,0.2,0-0.1c-0.7-5.7,0.9-10.4,4.6-14.9c2.8-3.4,4.6-7.6,7.2-11.3c0.9-1.3,1.9-2.5,3.1-4.1
			c-0.2-0.6-0.4-1.6-1-2.2c-2.8-3.4-5-7-7.2-10.9c-2.5-4.4-5-8.8-7.2-13.3c-0.5-1-0.7-1.9-0.6-2.7c0.9-4.3,0.6-4.3,0.1-9.1
			c-0.3-2.5-1.1-4.8-1.5-8.4c-1.2,2.6-2,4.1-2.6,5.7c-0.4,1-0.4,2.5-1.1,2.9c-2.5,1.5-1.2,4.5-2.8,6.4c-0.3,0.3,0.4,1.4,0.5,2.2
			c0.2,0.9,0.3,1.7,0.5,2.6c-2.3,0.7-2.6-1.4-3.9-2c-0.1-3-2.3-6-1-8.9c2.1-4.9,1.8-10,1.9-15c0-1.3,0-2.6,0-4
			c2.4-0.9,4.8-1.9,8-3.1c2.1-3.2,6.1-5.1,10.1-7C141.6,181.7,143,181.9,144.4,181.8z"/>
		<path class="st0" d="M363.7,155.1c0-1.2,0-2.2,0-3c-1.2-2.3-3.4-2.8-5.5-3.5c-0.7-2.3-0.8-5.1-3.1-6.1c-1.5-0.7-2.2-1.8-3.3-2.6
			c-0.3-0.2-0.5-0.5-0.9-0.9c0-1.3,0-2.7,0-4.3c-1.6,0-3,0-4,0c-3.4-1.9-3.9-6-7.6-6.9c-0.5,0.3-1.1,0.6-2.1,1.2
			c-0.2-0.9-0.2-1.5-0.4-2.2c1.7,0,3.1,0,4.6,0c0.5,0.5,1.1,1.1,1.7,1.7c2.2-2.5,4.3-4.9,6.8-7.7c-0.3-1.6-0.7-3.6-1.1-5.7
			c4.1-0.6,7.9-0.6,10.9,3.5c-0.5,1-1.1,2.2-1.8,3.7c-1.1-1.4-1.7-2.7-2.8-3.4c-1.1-0.7-2.6-0.7-4.2-1.1c0,1.5,0,2.9,0,3.9
			c-1.9,2.3-3.6,4.2-5.1,5.9c0,1.8,0,3.2,0,4.8c1.9,0,3.6,0,4.7,0c1.4,0.7,2.2,1.1,3.3,1.7c-1.7,1.9-1.4,3.9,0.2,6.1
			c0.4,0.2,1.2,0.6,2,1c3-2.7,6.1-5.6,9.1-8.2c-0.2-0.9-0.5-1.9-0.9-3.2c2,0,3.8,0,5.9,0c1.6,2.8,3.4,6,5.2,9.2
			c-0.4,0.4-0.9,0.9-1.4,1.4c-1.9-3.2-2.7-4-7-6c-4.2,1.1-6.3,5-9.4,7.5c0.9,2.2,1.7,4.1,2.6,6.3c1.1,0.5,3.1-0.7,4.3,1.7
			c0,0.7,0,1.8,0,2.9c0.2-0.1,0.4-0.3,0.6-0.4c0.4,0.8,0.7,1.5,1.3,2.8c0.8-1.4,1.2-2.2,1.7-2.9c0.5-0.6,1.1-1.1,1.9-1.9
			c-0.9-1-1.7-1.8-2.5-2.7c0.1-0.7,0-1.8,0.5-2.2c2-1.5,4.4-2.3,6.7-2.2c1.6,1.6,3.1,3.1,4.8,4.8c-1.8,3.8-5.4,3-8.5,3.1
			c-1.4,1.8-2.7,3.5-4.2,5.3C365.6,155.9,364.6,155.5,363.7,155.1z"/>
		<path class="st0" d="M96.4,203.6c5.3-1.9,8.1-3.5,10.1-7.3c2.2-4,4-8.2,3-13.3c-0.6-0.4-1.5-1-2.6-1.7c-1.9-4.6-1.7-5.3,2.8-9.5
			c1.3,1.1,2.5,2.2,4.2,3.7c0.6-1.8,1.2-3.3,1.8-5.2c-1.1-0.1-2.2-0.3-3.5-0.4c-0.9-0.6-2-1.4-3.5-2.4c-2-3.9-1.3-8.1,0.6-12.7
			c1.2,1,2.3,1.9,3.3,2.7c0,2.7,0,5.4,0,8.3c1.5,0.5,3.1,1.1,4.9,1.7c0.3,3-0.3,5.9-2.4,8.6c-0.8,1-1.5,2.5-1.4,3.8
			c0.1,1.8-1.2,2.5-1.7,3.1c-1.3,9.2-2.7,17.8-11,23c0.3,2.1,0.6,4.2,0.9,6c-0.8,0.8-1.1,1.1-1.7,1.7c-2.1-3.2-4.1-6.4-6.2-9.7
			c0.3-0.3,0.7-0.7,1.2-1.2C95.7,202.9,96,203.2,96.4,203.6z"/>
		<path class="st0" d="M97.1,302.2c1.5,0.5,3.4-0.6,4.5,1.7c0,0.6,0,1.6,0,2.9c-0.4,0.5-1.1,1.3-1.9,2.1c3.5,0.9,6.4-0.2,9.6-1.4
			c2.2,0.5,3.5,2.3,4.3,4.5c-0.6,2.7-3.5,2.9-5.1,4.7c-1.6,1.8-3.5,3.5-5.6,5.7c0.1-1,0-1.9,0.3-2.2c2.7-2.7,4.4-6.4,9-7.5
			c-1.3-1.5-2.2-2.5-3.1-3.5c-3.3,1.1-6.3,2.7-10.2,1.7c-0.2-0.3-0.8-1.1-1.4-1.8c-1.6,1.1-3,2-4.3,2.9c-0.8-1.6,0.1-2.5,1-3.8
			c0.7-1,3.4-0.2,2.3-3.1c-0.8,0.3-1.6,0.6-2.5,1c-1.2-0.4-2.7-0.9-4.1-1.4c0-0.4,0-0.7,0-1.4c1.9,0,3.8,0,5.6,0
			c0.8-2-0.4-2.6-1.6-3.1c-2-0.8-4-1.5-5.9-2.3c0-0.8,0-1.4,0-2.2c0.7-0.7,1.6-1.4,2.5-2.2c2.7,1.4,5.7,1.5,11.1-1.3
			c0-1.3,0-2.7,0-4.7c-0.5-0.4-1.2-1.3-2.2-1.9c-0.9-0.6-1.9-0.8-3-1.3c-3.4,1.7-6.7,3.3-10.1,5c-0.1-0.5-0.2-0.8-0.4-1.3
			c2.7-2.1,7.2-2.2,8.3-6.4c0.9-0.1,1.8-0.3,2.9-0.4c-0.3-0.8-0.4-1.4-0.7-1.6c-0.9-0.6-1.8-1-3.1-1.7c1.3-1.4,2.2-2.4,3.1-3.3
			c0.9,0,1.5,0.1,2.8,0.1c-1.4,0.9-2.3,1.5-3.3,2.1c1.4,1.1,2.7,2,4,3.1c-0.8,0.9-1.6,1.7-2.3,2.5c2.1,1.8,4,3.5,6,5.2
			c0,1.5,0,2.9,0,4.5c-0.9,0.9-1.9,1.9-3,3c-1.6,0.4-3.3,0.7-5.2,1.2c-0.2-0.2-0.7-0.5-1.4-1c-0.4,0.3-1,0.6-1.6,0.9
			c-0.5-0.3-1.1-0.6-1.9-1c-0.3,0.6-0.5,1-0.9,1.7C92.8,297.9,96.1,298.6,97.1,302.2z"/>
		<path class="st0" d="M142.6,138.2c1.5,0,2.9,0,4.4,0c0.6-3.4,1.4-6.6,5.1-8.9c1.1,0.2,2.7,0.5,4.7,0.9c1.6-0.6,1.4-2.3,1.3-4.2
			c-3.2-3-5-7.1-6.4-11.8c-0.9,0.6-1.9,1-2.3,1.7c-1,1.7-1.7,3.6-2.5,5.5c-0.5,0-0.9,0-1.7-0.1c1.4-6.2,6.6-9.3,10.4-13.7
			c0.8,0.1,1.7,0.1,2.8,0.2c-0.3,0.8-0.3,1.4-0.6,1.6c-1.5,0.8-3,1.5-4.9,2.4c0.9,2.4,1.4,4.7,2.4,6.6c1,1.7,1,3.9,3.2,5.2
			c1.4,0.8,2.1,3.1,1.6,5c-1.3,1.2-2.7,2.3-4.3,3.8c-0.5-0.2-1.5-0.6-2.7-1c-0.7,0.3-1.5,0.7-2.8,1.4c-0.4,1.3-0.9,3-1.8,5.9
			c-1.5,2.4-5.7,1.9-8.5,3.7c-1.2,1.5-2.4,3-3.8,4.6c0.1,0.7,0.4,1.5,0.7,2.9c-0.5,1.7-0.9,4-3.5,5.1c-0.8-0.3-1.7-0.7-2.8-1.2
			c-0.3-1-0.5-2-0.9-3.5c0.6-1.2,1.5-2.9,2.5-4.9c0.7-0.1,1.5-0.2,2.4-0.4c1.7-1.4,3.5-2.9,5.1-4.3c-1.3-1.1-2.8-2.3-4.4-3.7
			c0-1.2,0-2.3,0-3.5c0.4-0.1,0.9-0.3,1.3-0.2C139.5,134.1,141.8,135.3,142.6,138.2z"/>
		<path class="st0" d="M399.2,257.6c0.1-0.4,0.4-1.4,0.9-2.9c-0.5-0.8-1.2-2.2-2.1-3.7c-0.5,0.3-0.8,0.6-1.1,0.8
			c-1.7-0.5-1.8-1.8-1.5-3.5c1,0,2.1,0,3.6,0c0.2-1,0.3-1.9,0.4-2.8c0.6-0.6,1.2-1.2,1.7-1.7c-1-0.8-2.1-1.5-3.7-2.7
			c1.1-0.9,1.7-1.5,2.7-2.3c1.1,1,1.9,1.8,2.7,2.5c1.5-0.5,2.9-1,4.4-1.4c-0.2-0.3-0.4-0.5-0.8-0.9c0.4-0.8,0.8-1.6,1.2-2.6
			c0.7,0,1.3,0,2.3,0c0.1,1.1,0.2,2.4,0.4,3.7c1.4,0.5,2.8,1,4.3,1.5c0.3-0.9,0.5-1.5,0.7-2c1.8-0.7,3.1-0.1,3.9,2.1
			c-0.9,0.7-1.9,1.4-2.9,2.2c0.6,1.2,1.3,2.7,2.1,4.3c1,0,2.1,0.1,3.4,0.2c0,0.8,0,1.6,0,2.7c-1,0.1-2.2,0.3-3.4,0.4
			c-0.7,1.4-1.3,2.8-2,4.3c0.8,0.6,1.9,1.4,3.2,2.4c-1.2,0.8-2.1,1.3-3.1,2c-0.6-0.9-1.3-1.9-1.8-2.8c-0.9,0.7-1.9,1.4-3.6,2.7
			c-0.3,0.4,0.6,2.6-2.1,3c-1.8-0.2-1.8-1.9-1.8-3.5c-1.3-0.4-2.6-0.9-4.5-1.5c-0.3,0.6-0.7,1.5-1.5,3.1
			C400.2,259.4,399.8,258.7,399.2,257.6z"/>
		<path class="st0" d="M141.6,372c-0.7,2.4-1.8,2.4-2.8,2.4c-1.8-1.4-1.9-3.1-0.9-4.8c0.7-1.3,1.8-2.5,2.9-3.9
			c0.7-0.1,1.6-0.2,2.7-0.4c-0.5-0.5-0.8-0.9-1.5-1.7c1.2,0.2,2,0.4,3.2,0.6c0.4-0.6,1-1.6,1.7-2.6c0.6,0,1.3,0,2.2,0
			c1.1,3.3,4,5,7.1,6.9c1.2,0,2.9,0,4.4,0c1.3,0.8,2.5,1.5,3.8,2.4c-0.4,1.4-0.8,2.7-1.3,4.3c1.5,0,2.9,0,4.2,0c1.1,1.1,2,2,2.9,2.8
			c-0.6,5.2-4.8,9.3-4,14.3c0.7,1.3,1.2,2.3,1.9,3.6c-0.3,0.2-0.9,0.4-1.6,0.7c-1.3-0.2-3.1-0.4-5-0.7c-1.7-1.2-1.4-2.9-0.9-4.9
			c0.9,0.4,1.7,0.8,3.1,1.5c0.2-0.6,0.5-1.4,0.8-2.2c0.2,0.2,0.4,0.4,0.6,0.5c0-1.6,0-3.3,0-5.1c0.7-0.5,1.5-1,2.6-1.8
			c-1.1-0.4-1.7-0.6-2.5-0.9c1.1-1.7,2.1-3.3,3.4-5.4c-2.3-0.1-4.2-0.2-6-0.3c-0.5-0.9-0.9-1.9-1.5-2.9c0.4-0.6,0.7-1.3,1.4-2.4
			c-0.7-0.3-1.5-0.7-2.2-1c0.1-0.1,0.3-0.3,0.4-0.4c-1,0-2,0-3.3,0c-2,3.3-3.4,7.3-7.8,8.7c-0.1-0.3-0.3-1.1-0.3-1.1
			c3.5-1.5,4.5-4.8,6-8c-2.1-2.2-5.9-2.9-6.3-6.7c-2.7,1.4-2.7,1.4-4.1,4c-1,0-2.1,0-3.7,0c0.3,0.9,0.3,1.6,0.7,2
			C143.7,371.8,143.8,371.8,141.6,372c-0.8-2-1.1-1.5-1.3-0.9C140.5,370.5,140.8,370,141.6,372z"/>
		<path class="st0" d="M393.4,208.8c0.5-0.5,0.8-0.8,1.4-1.4c1.3,1.7,2.6,3.4,4,5.2c2.4-1.6,4.7-3.1,7.3-4.9
			c-0.2-0.6-0.6-1.6-1.1-2.8c0.8-0.2,1.5-0.3,2.1-0.4c0.4,0.2,0.7,0.3,0.9,0.5c0.6,0.6,1.6,1.1,1.7,1.7c0.5,3,3.1,4.6,4.5,7
			c0.8,1.4,0.7,2.7,0.9,4.6c-1.1-0.2-2.6,0-3-0.6c-1.1-1.8-3.1-1.3-4.6-2.2c-2-1.2-5.9,2.1-6.2,4.9c-0.2,1.5,0,2.9,0,4.3
			c1.1,1.1,2.2,2.2,3,3c1-1,1.9-1.9,2.3-2.3c3.7-0.3,6.4-0.5,8.9,1.9c-2.8,1.2-4.7,3.8-8.4,2.5c-1.5-0.5-3.5,0.2-4.9,2
			c1.1,0.2,2,0.4,3.1,0.7c-0.3,2.8-2.7,2.7-4.5,4c-0.3-0.8-0.4-1.4-0.6-2c0.8-0.3,1.3-0.5,2-0.7c-1-0.7-1.9-1.3-3.1-2
			c1.1-0.9,2.1-1.8,3.1-2.7c-1-1.5-1.9-2.9-2.9-4.3c-0.1-6-0.1-6,4.2-10.2c1.1-0.3,2-0.5,3.4-0.8c1.6,0.6,3.7,1.5,6.3,2.5
			c-0.6-1.5-1.1-2.7-1.7-4.2c-1.9-0.8-3.9-1.6-6.1-2.5c-2,2.1-4.3,4.1-7.6,5C396.4,212.7,395,210.8,393.4,208.8z"/>
		<path class="st0" d="M394.2,311.4c0.8,4.9-2.8,6.9-5.3,9.7c-1-1-1.9-1.9-2.9-2.9c-2,1.8-3.7,3.7-3.4,7.1c0.7-0.5,1-0.8,1.2-1
			c1,0.6,2.1,1.2,3.1,1.7c2.3,1.3,2.9,3.8,3.4,6c0.4,2-0.9,3.8-2.9,5.3c-2.8-2.9-4.3-5.9-3.8-10.3c-0.9-0.7-2-1.7-3.3-2.8
			c0.5-1.1,0.8-2.1,1.3-3c2-3.2,3.6-6.6,6.5-9.2c1.4-1.3,2.8-3.2,3.1-5.1c0.4-2.5,2.6-4.3,2.3-7c2.3-3.1,3.4-7.2,7.6-8.4
			c-1.3-2.7-2.5-5.1-3.7-7.6c1.7-1,2.4,0.4,2.9,1.1c0.6,1.2,0.8,2.6,1,3.7c1.5,1.1,2.7,2,4.4,3.2c-1.8,0.4-3,0.6-4.3,0.9
			c-2.2,0.5-4.6,4-5.9,7.8c-1.1,3.1-2.1,6.3-3.8,9C392.4,310.4,393.4,311,394.2,311.4z"/>
		<path class="st0" d="M85.1,241.2c0.1-1.9,1.8-0.5,2.5-1.2c-0.3-1.1-0.6-2.2-0.9-3.6c1.5,0,2.8,0,4.3,0c-0.2,1.2-0.4,2.2-0.7,3.3
			c1.4,0.7,3.1,1.6,5,2.6c0.3-0.7,0.6-1.3,0.9-2c0.8,0,1.5,0,2.5,0c0,0.9,0,1.7,0,2.5c-0.5,0.5-1.1,1.1-1.7,1.7
			c1.6,2.9,0.4,6,0.9,8.8c-0.7,1.3-2.6,1.9-2,3.7c-0.6,0.1-1.5,0-1.8,0.4c-1,1.4-2.6,1.6-4.4,1.9c0.5,1,0.9,1.8,1.6,3.3
			c-0.5,0.4-1.3,0.9-2.3,1.7c-0.8-0.7-1.4-1.3-2.2-2c0.3-1.1,0.6-2,1-3.3c-0.9,0-1.9,0.1-2.8,0c-0.7-0.1-1.3-0.7-1.8-0.9
			c-1.4,0.4-2.5,0.8-4.1,1.3c0-1.2-0.3-2.2,0.1-2.7c0.9-1.1,1.4-2.2,0.6-3.4c-0.9-1.4-1.2-3.3-3.5-3.3c0-0.9,0-1.6,0-2.6
			c0.8,0,1.5,0,2.1,0c0.9-1.4,1.7-2.5,2.6-3.9c-0.6-0.4-1.3-1-2.3-1.7c0.8-1.1,1.4-1.9,1.9-2.6C82.5,239.2,83,241.8,85.1,241.2
			c1.6,4-3.4,6.2-2,9.9c1.2,2.5,2.9,4.3,6,4.2c3.2-0.1,5-2.3,5.4-4.9c0.5-3-1.4-5.2-4.2-6.3C88.4,243.2,85.8,243.8,85.1,241.2z"/>
		<path class="st0" d="M323.5,118.8c1.9-4.3,1.5-9.4,5.8-12.4c0.4,0.5,0.8,1,0.7,1c-2.3,2.5-2.6,5.9-3.9,8.8
			c-0.6,1.4-0.9,2.9-1.3,4.6c-6.2-1.5-10.4-5.9-15.3-9.2c-1,0.4-1.9,0.8-2.9,1.1c-2-1.2-3.8-2.3-6.2-3.7c-0.6-1.5-1.5-3.6-2.5-5.9
			c-0.4,0.1-1.1,0.6-1.9,0.6c-0.9,0-1.8-0.3-2.7-0.6c-0.9-0.3-1.6-0.8-2.6-1.3c0-1.3,0-2.5,0-3.7c1.9-0.7,3.1-0.1,3.8,1.8
			c-0.3,0.5-0.7,0.9-1,1.4c0.9,0.9,2.7,0.5,4.9-1c0-2.6,0-5.4,0-8.1c0.2-0.2,0.4-0.3,0.6-0.5c0.2,0.7,0.5,1.5,0.7,2.2
			c0.2-0.2,0.4-0.4,0.7-0.6c0,3.9,0,7.9,0,11.7c0.8,1.1,1.6,2.1,2.7,3.6c0.9,0.4,2.4,1.2,3.4,1.7c3-0.3,5.6-0.5,8.5-0.8
			c0,1.7,0,3.1,0,4.4C318,115.6,320.8,117.2,323.5,118.8z"/>
		<path class="st0" d="M189.3,387.3c2.5,4.7,1,8.5-0.4,12.3c-0.5,1.4-0.9,2.7-3,2.4c2.5-4.9,4.3-9.7,1.8-15.3
			c1.5-0.8,3.4-0.9,4.6-0.3c4.3,2.3,9.3,2.8,13.6,5.4c2.2,1.3,4.4,2.3,6,4.3c3.1,0,3.1,0,5,1c2.4-2.1,4.4-0.4,6.4,0.5
			c0,0.7,0,1.4,0,2.1c-0.8,0.8-1.6,1.6-3.1,3c0.5-1.8,0.8-2.8,1.2-4.2c-0.9-0.1-1.8-0.3-2.9-0.4c0,3.6-3.7,5.4-3.3,9.1
			c-0.7-0.1-1.2-0.2-2-0.3c1.1-2.8,2.1-5.5,3.3-8.5c-1.5-0.1-2.9-0.2-4.5-0.3c-2-1.5-4.1-3.2-6.1-4.7c-1-0.3-1.9-0.5-2.8-0.8
			c-1.1,1.3-2.3,2.8-3.9,4.8c-0.6-1.3-1.1-2.5-1.6-3.6c-0.4,0.2-0.8,0.5-1.2,0.7c0.6-0.9,1.3-1.8,2.1-2.9
			C196.2,389.3,193,388.7,189.3,387.3z"/>
		<path class="st0" d="M356,352.2c-0.9,2-1.5,3.6-2.2,5.2c3.8,2.2,6.4,5.3,6.5,10c-2.5-3-3.9-6.8-7.8-9c-2.6,3.6-6.6,5.2-11,6.6
			c1.5,2.6,2.7,4.9,4.3,7.6c0.3,1.4,0.7,3.3,1.2,5.4c-0.6,0.2-1,0.3-1.8,0.6c0-5.5-3.2-9.5-6.3-13.9c2.1-1.1,4.1-2.6,6.2-3
			c3.2-0.7,5-2.9,6.4-5.4c0.6-1.2,1.7-1.5,2.3-2.4c0.6-0.9,0.8-2,1-3c0.6-2.6,3.5-2.4,4.8-4.1c0.5-0.6,1.2-1.1,2.1-2
			c1.5-0.3,2.8,0.4,3.1,2.7c-1.1-0.3-2-0.5-3.9-1c1.3,1.9,2.1,2.9,2.9,4c-0.3,0.8-0.8,1.7-1.3,2.8C360.3,354.7,358,356,356,352.2z"
			/>
		<path class="st0" d="M314.2,390.3c-2,1.2-4,2.3-6.1,3.6c0.9,1.5,1.9,2.8,2.6,4.3c0.7,1.5,2.2,2.8,1.1,5.1
			c-1.8-2.6-3.4-5.1-5.6-8.3c0.2-1.3,0.5-3.4,0.9-5.7c-4.4,0.5-3.4,4.8-5.5,7.1c0-3.1,0-6,0-9c2.3-1.3,4.4-3.2,7.6-3.1
			c0,2.3,0,4.4,0,6.7c4.1-1.4,5.6-5.4,8.8-8c1,0.8,2.1,1.7,3.2,2.6c-0.4,4-0.9,8-1.4,12.3c-0.2,0.2-0.6,0.6-1.1,1.1
			c-2-4.6,1.3-9,0.2-14c-0.9,0.5-1.8,0.7-2.3,1.3c-0.7,0.8-1,1.9-1.4,2.8c0,0,0,0.4,0,0.4c-0.1,0.3-0.3,0.5-0.6,0.6
			C314.7,390.4,314.2,390.3,314.2,390.3z"/>
		<path class="st0" d="M169,101.8c0.8-3,1.9-3.7,6.1-3.6c-1.7,5.1-6.5,7.7-9,12.5c1.5,1.7,1,5.5,5.2,6.2c1.1-1.6,2.9-2.5,3.8-4.7
			c1.1-2.8,3.2-5.1,6.7-6.2c0.2,0.3,0.6,0.9,1.3,2.1c-1.7,5.9-7.7,7.6-12.3,11c-1.6-0.9-3-1.6-4.2-2.2c-0.7-2.1-0.9-4.2-1.9-5.9
			c-0.9-1.6-2.4-2.8-2.5-5.2c0.8,0.5,1.2,0.7,1.7,1c1.3-1.5,2.7-3.1,4.2-4.9C168,101.8,168.5,101.8,169,101.8
			c0.2,0.1,0.4,0.3,0.4,0.5c0-0.1,0,0.2,0,0.1c0,0,0-0.2,0-0.2c0,0-0.2-0.2-0.2-0.2S169,101.8,169,101.8z"/>
		<path class="st0" d="M128.6,359c-1.6-3.5-5.2-0.9-5.9-3.9c5.5,0.7,5.5,0.7,8.4-0.5c0.3-1,0.6-2.1,1.1-3c0.4-0.9,1.1-1.8,1.4-2.4
			c-2.3-2.3-4.2-4.2-6.4-6.4c-0.5,0.4-1.2,1.1-2.1,1.9c-1.2,0-2.6,0-4.2,0c-1.4-1.3-4.2-1.5-4.4-4.8c1.8,0.8,2.4,2.3,3.8,2.8
			c1.2,0.4,2.3,0.8,3.7,1.3c0.9-1.3,1.9-2.7,2.9-4c2.3,1.6,3.6,4.1,6.2,5.3c1.3,0.6,1.8,2.7,2.8,4.4c-2.8,2.2-2.5,6-5.7,7.6
			c0.9,1.9,1.7,3.5,2.4,5c1.3,0.5,2.6,1,4.4,1.8c-3.7,0.8-4.7,4.8-8.4,4.4C128.6,365,128.6,361.6,128.6,359z"/>
		<path class="st0" d="M126.3,148.9c-1.7,1.7-2.8,2.8-4.1,4.1c1.3,5,7.3,5.3,9.6,9.7c-4.9,1.2-8.8-0.7-13.1-3.1
			c-0.3-0.7-0.8-1.9-1.4-3.4c1.1-1.2,2.2-2.4,3.2-3.6c0-0.6,0-1.3,0-1.9c-1.3-1.3-2.6-2.6-3.5-3.5c-0.5-1.6-0.9-2.7-1.4-4
			c0.4-0.8,0.8-1.8,1.3-2.8c1.3,0,2.6,0,4.2,0c0.5,0.7,1.1,1.6,2.2,3.1c0,0.2-0.3,1.2-0.6,2.7C123.6,146.7,124.7,147.6,126.3,148.9z
			"/>
		<path class="st0" d="M382.6,249.6c-1.7,0.6-3.3,1.4-5.1,1.8c-4.2,0.9-8.1,2.9-12.7,2.7c-3.3-0.2-5.9-0.9-8-3.6c0-1.1,0-2.4,0-3.9
			c1.1-0.9,2.3-2,4-3.5c6.2-0.5,12.8,1.3,19.2,3.8C381.3,247.5,382.1,248,382.6,249.6z"/>
		<path class="st0" d="M139.1,252.5c-2.9,1.7-5.5,3.3-8.4,2.4c-3.7-1.2-7.7-2-11-4.3c-1.4-1-2.8-1.6-4.5-2.2c2.5-2,4.8-2.9,7.5-3.6
			c2.8-0.7,5.5-1.8,8.6-1.8c2.8,0,4.8,0.1,7.6,1.2c0.6,1.4,1.3,2.8,2.1,4.4C140.4,249.7,139.7,251.2,139.1,252.5z"/>
		<path class="st0" d="M198.7,103.1c1.3,0.9,2.1,1.5,3.2,2.3c-0.6,0.8-1,1.4-1.5,2.2c-1.1,0-2.2,0-3.5,0c-0.1-0.7-0.3-1.6-0.4-2.5
			c-0.3-0.1-0.7-0.3-0.9-0.2c-1.5,0.7-3.2,1.2-4.5,2.2c-1.4,1.1-2.7,0.6-3.8,0.5c-0.9-4.4-1.7-8.7-2.6-13.2c0.9-0.7,1.8-1.3,2.9-2.1
			c0.3,0.2,1.1,0.5,2,1c0,0.3,0.1,0.8,0.1,1.5c-0.9-0.4-1.7-0.7-2.9-1.2c0.4,4.3,0.8,8.1,1.2,12c3.3,1.4,5.3-2.4,8.3-1.8
			c0.5-3.3,1-6.4,1.5-10c-1.9,0.2-3.4,0.4-5.2,0.7c-0.3-0.2-1.1-0.6-2.1-1.1c0.1-0.4,0.2-1,0.5-1.3c1.8-1.5,3.7-2.9,5.8-4.6
			C199.9,92.7,198,98.2,198.7,103.1z"/>
		<path class="st0" d="M243.1,356.2c0.8-0.8,1.6-1.6,2.5-2.4c1.6,0,3.3,0,5,0c1.1,1.1,2.2,2.3,3.4,3.6c0,2.2,0.8,4.9-0.2,6.7
			c-2.2,3.9-2.2,8.7-5.2,12.6c-1.9-1.7-2.5-4.1-3.6-6.2c-1.1-2.2-2.1-4.5-2-7.1C240.4,360.9,243.5,358.6,243.1,356.2z"/>
		<path class="st0" d="M173.8,173.7c-5.2,2-8.9,1.1-11.6-3.4c-1.9-3.1-4.4-6-5-9.7c-0.1-0.7-0.8-1.3-0.9-2.1c-0.2-0.7,0-1.5,0-2.9
			c4.9,2.9,9.9,4.1,13.6,7.7c0.4,0.4,1.2,0.4,1.6,0.7C174.6,166.3,175.4,169.4,173.8,173.7z"/>
		<path class="st0" d="M249.7,117.3c1.5,2.7,3,4.1,3.2,5.7c0.6,5.3,2.9,10.4,1.9,16c-1.5,2.5-1.5,2.5-4.9,4.2
			c-1.5-0.8-3-1.5-4.6-2.3c-1.7-3.3-1.8-6.9-0.3-10.6C246.6,126.4,247.9,122.4,249.7,117.3z"/>
		<path class="st0" d="M173.9,326.4c0,1.4,0,2.7,0,4c-4.8,6.4-12.2,8.6-19.7,11.9c0.3-1.2,0.2-1.9,0.6-2.4c1-1.4,2.9-2.2,2.4-4.4
			c2.1-3.4,3.8-6.9,7.2-9.2C168.3,323.5,169.1,323.4,173.9,326.4z"/>
		<path class="st0" d="M330.9,174.9c-1.9,0-3.4,0-4.9,0c-0.2,0-0.3,0-0.5-0.1c-0.7-0.7-1.4-1.4-2.2-2.2c0-1.3,0-2.7,0-4.3
			c2.2-4.2,6.2-6.3,10.5-8.4c2.5-1.1,5.2-1.8,7.4-3.5c0.3-0.2,0.9-0.2,1.4-0.3c0.9,2.2-0.5,3.6-1.4,5.2c-1,1.7-2,3.5-3.1,5.1
			c-1.1,1.6-2.7,2.8-3.4,4.5C333.9,172.9,331.6,172.9,330.9,174.9z"/>
		<path class="st0" d="M405.7,185.2c-1.2,1.4-2.1,2.5-3.1,3.7c-1.8-0.3-3.7-0.6-6.2-0.9c-0.1,0.2-0.5,1.1-0.8,1.5
			c-3.9-0.1-3.9-0.1-4.4-3.3c-1.5-1.5-3-3.1-4.6-4.5c-2.4-2.2-3.8-4.7-3.2-8.3c2.4-1.9,2.8-5.9,6.5-7.3c1.1,1.6,2.3,3.4,3.6,5.4
			c-0.7,0.3-1.2,0.4-1.6,0.6c-0.8-1.1-1.6-2.2-2.7-3.7c-1.4,1.9-2.5,3.3-3.8,5.1c0,1.1,0,2.5,0,4.1c2.8,3.2,6.8,5.7,8.3,10.5
			c1.2-1.1,2.3-2.4,3.6-3.2c1.3-0.8,2.8-1.2,4.3-1.8C402.7,183.6,403.9,184.2,405.7,185.2z"/>
		<path class="st0" d="M402.4,264.4c3.2,1.8,4.2,4.9,6.4,7.2c0.1-0.7,0.2-1.6,0.3-2.4c0-1,0-1.9,0-3.1c1.1,0,2.2,0,3.7,0
			c2,2.3,5.1,4.2,6.2,7.7c-2.1,2.3-2.1,2.3-5,0.9c-1.1,1.4-2.3,2.7-3.7,4.4C405.8,275.2,401.4,271.6,402.4,264.4z"/>
		<path class="st0" d="M235.8,101.7c-1.2,0.4-2.5,0.9-3.8,1.3c-0.7-0.6-1.1-1.1-1.6-1.5c-0.6-5.4-1.4-10.7-4.4-16
			c0.7-0.3,1.4-0.7,2.4-1.1c3,0.8,3.4,3.9,3.8,7c0.4,3.1,0.9,6.2,1.3,9c2.6-2.4,5.3-5,8-7.5c2-0.2,3.4,0.3,3.6,2.7
			c-1.1-0.3-2-0.5-3.5-0.8c0.8,0.9,1.1,1.2,1.4,1.6c-0.4,0.4-0.7,0.7-1.4,1.4c-0.3-0.3-0.7-0.6-1.2-1.1c-0.9,0.4-1.9,0.9-3,1.4
			C237,99,236.5,100.1,235.8,101.7z"/>
		<path class="st0" d="M326.1,327.8c0-0.2,0-1.2,0-2.2c1.1-1.1,2.3-2.3,3.5-3.4c1.3,0,2.6,0,3.7,0c1.7,1.6,3.3,3.1,4.2,4
			c1.8,5.2,4.2,9.3,7,13.9c-4.4-0.5-7.2-3.1-10.6-4.2C330.5,334.7,327.9,331.8,326.1,327.8z"/>
		<path class="st0" d="M334.9,376.5c0.4,5.3-0.3,9.4-3.8,13.4c0.1-3,1.7-4.9,1.9-7c0.2-2.4,0-4.8,0-7.5c-1.8,1.4-3.2,2.5-4.9,3.8
			c0,1.3,0,2.9,0,4.4c-0.9,1.1-1.8,2-2.5,2.9c-3.2-0.8-3.2-0.8-3.4-3.9c1.6-1.6,3.1-3.1,5-5c0,0,0.8-0.1,1.6-0.2
			c1.1-1.6,2.3-3.1,3.3-4.6c4.5,1.1,5.5,5.3,8.1,7.9c-0.5,0.4-0.8,0.6-1.3,0.9c-0.8-0.7-1.7-1.3-2.4-2.1
			C336,378.9,335.7,378,334.9,376.5z"/>
		<path class="st0" d="M405,274.7c0.2,0.8,0.4,1.5,0.8,2.9c-0.7,1-1.8,2.6-2.9,4.1c-3.2-0.5-4.1-1.5-4.7-4.5
			c-0.2-1.2-0.6-2.3-1.7-3.4c-0.1,1.5-0.2,3-0.3,4.4c-0.5,0.5-0.9,1-1.5,1.6c-0.8-1.3-1.6-2.4-2.3-3.6c2-2.8,1.4-7,4.4-9.4
			c0.6,0.6,1.2,1.2,1.8,1.8c0.4-0.2,0.9-0.4,1.5-0.7c0,1.5,0,3,0,4.2c1,1,1.8,1.8,2.6,2.6C403.5,274.7,404.3,274.7,405,274.7z"/>
		<path class="st0" d="M95,226.8c-0.5,0.2-0.8,0.4-1.3,0.6c-1.3-1.3-1.6-3.7-4.3-4.2c-0.2,1.2-0.4,2.3-0.6,4
			c-0.7,0.3-1.8,0.9-2.7,1.3c-2.5-3.3-4.8-6.3-7.3-9.6c1-0.3,1.8-0.5,3-0.7c0.8,1.1,1.7,2.2,2.9,3.7c1-2.1,1.8-3.8,2.5-5.4
			c1.2,0,2.2,0,3.2,0C92.5,219.6,93.6,223.2,95,226.8z"/>
		<path class="st0" d="M263,403.5c-2.4-1.4-2.4-3.1-1.9-5.3c3.7-0.8,6.3-3.8,9.4-5.9c2.3,0.6,2.8,2.3,2.2,3.8
			c-1.8,4.4-1.4,8.3,2,11.8c0.2,0.2-0.2,0.8-0.3,1.3c-4.5-2.3-5.8-7.1-3.6-13.5c-1.7-1.1-2.3,0.3-2.9,1.4c-0.6,1-0.9,2.3-1.6,3.3
			C265.3,401.4,264.2,402.3,263,403.5z"/>
		<path class="st0" d="M377.5,337c2.3-0.1,3.1,1.2,2.9,3.6c-0.4,0.4-1,0.9-1.7,1.5c-1.1-0.5-2.2-1.1-3-1.5c-0.3-0.7-0.4-1.1-0.6-1.6
			c-0.2,0-0.3,0.1-0.5,0.1c0,2.1,0,4.2,0,6.5c-0.7,0.6-1.5,1.2-2.6,2c1,0.9,1.7,1.7,2.5,2.1c0.9,0.5,2,0.7,2.9,1
			c-0.8,1.6-1.4,2.8-2,4c-0.6,0-1.2,0-1.8,0c-0.1-0.2-0.2-0.4-0.3-0.6c0.9-0.4,1.8-0.8,2.9-1.3c-2.5-1.9-4.2-3.2-6.1-4.6
			c0.8-1.1,1.5-1.9,2.4-3.1c-0.4-3,0.7-6.5-0.9-10.1c0.9-0.4,1.9-0.9,3.1-1.4C375.7,334.8,376.6,335.9,377.5,337z"/>
		<path class="st0" d="M407.1,195.3c-1.8-1-3.4-2-5-2.9c0.4-2.2,1.5-2.8,3.6-2.6c1,1,2.3,2.2,3.4,3.6c1,1.2,1.8,2.6,2.8,4
			c0,0.5,0,1.2,0,2.3c-0.6-0.4-0.9-0.7-1.3-1c-0.4,1.2-0.9,2.4-1.4,3.7c-2.1,0-4,0-6,0c0-0.6,0-1,0-1.6c0.9,0,1.6,0,2.5,0
			c-0.2-1.7-0.5-3.3-0.7-4.8C406,195.7,406.6,195.5,407.1,195.3z"/>
		<path class="st0" d="M227.7,100.9c-0.5,1.1-0.7,1.5-1.1,2.3c-1.3-1.2-2.5-2.2-3.7-3.2c-1.6,1.2-3.3,2.5-5.1,3.7
			c-0.2-0.1-0.4-0.3-0.6-0.4c0.4-0.7,0.7-1.5,1.2-2.1c0.2-0.3,0.9-0.2,1.2-0.5c0.3-0.2,0.5-0.7,1-1.3c-2.2-0.6-4.2-1.2-6.2-1.8
			c0-0.7,0.1-1.1,0.1-2c1.6,0.7,3.1,1.3,4.5,2c-0.6-3.4-3.5-5.5-8.4-5.9c-0.7-1.8-0.1-3,2-4c0.7,0.7,1.5,1.5,2.3,2.2
			c3.6,3.3,7.2,6.5,10.8,9.8C226.4,100.3,227.1,100.6,227.7,100.9z"/>
		<path class="st0" d="M100,179.4c-0.4,2.5-0.4,5.4-1.4,8c-1.2,3.1-1,5.8,0.4,8.7c-0.7,0.6-1.4,1.2-2,1.8c-1.6-1.6-2.1-3.2-2.1-5.2
			c0.1-4.4,0-8.8,0-13.3C97.2,177.5,97.2,177.5,100,179.4z"/>
		<path class="st0" d="M280.5,85.5c0.8-1.9-0.7-2.9-1.8-3.9c1.7-3.1,3.7-0.9,5.8-0.3c0.4,1.6,0.8,3.4,1.2,4.9
			c-0.9,0.9-1.5,1.5-1.8,1.8c0.3,1.3,0.5,2.4,0.7,3.7c-1.1,0-1.9,0-2.9,0c-0.2-3.7-3.8-3.4-6.5-5.4c0.8-0.2,1.4-0.4,2-0.5
			c-0.2-0.3-0.3-0.6-0.5-0.9C278,85.1,279.1,85.3,280.5,85.5z"/>
		<path class="st0" d="M399.2,302.4c1.5,1.2,2.1,1.6,3,2.3c-0.5,3.9,0.9,7.7,2.1,11.1c-1.8,1.8-3.4,3.4-5,5c-0.3-0.4-1.1-1.1-1-1.7
			c0.2-2.5-0.4-4.9,0.7-7.5C400,309.3,399.2,306.3,399.2,302.4z"/>
		<path class="st0" d="M282.4,411.1c-0.8-0.1-1.1-0.1-1.8-0.2c0.6-3.8-1-7.2-2-10.6c0.7-1.8,1.9-2.4,3.5-2.1
			c0.7-2.7,2.8-3.4,5.2-4.1c0.1,0.7,0.2,1.2,0.3,1.7c-0.6,0.2-1.2,0.4-1.8,0.6c-0.3,1-0.5,2.1-0.9,3.4c0.4,0.6,1.2,1.5,2.2,2.9
			c-1.2,0.2-2,0.3-2.9,0.5c-1-1-2.1-2.1-3.6-3.6C281.3,403.9,283.2,407.2,282.4,411.1z"/>
		<path class="st0" d="M241.8,88.9c-2.5-1.6-5.2-2.4-4.6-6.2c-1.9,1.2-3.3,2.1-5.5,3.5c0.8-1.4,1-2.4,1.6-2.8c1.5-1,3.3-1.6,5.2-2.6
			c0.9,1.3,1.1,4,4.6,2.7c0.9-0.5,1.7-3.2,4.7-2.4c0.1,0.6,0.1,1.4,0.2,2.5C246,85.5,243.7,87.4,241.8,88.9z"/>
		<path class="st0" d="M281.1,102.8c-1.6,0-3.8,0-6,0c-0.5-0.7-1.1-1.4-1.9-2.6c4.3-0.7,8.1-1.6,11.3-4.3c-1.5,0.3-3.1,0.6-4.6,1
			c-0.1-0.3-0.2-0.6-0.3-0.8c1.7-0.8,3.5-1.5,5.5-2.4c0.5,0.6,1,1.2,1.5,1.8C287.1,99.4,283.4,100.5,281.1,102.8z"/>
		<path class="st0" d="M172.7,378.9c0.5,2.2,4.4,0.8,5.1,3c-1.5,1.5-2.7,2.7-4.6,4.6c0.4,0-0.4,0-1.3,0c0.6,1.5,1.7,2,3,1.8
			c1.6-0.2,2.4,0.6,3.1,2.6c-0.6,0.2-1.3,0.5-2,0.8c-0.1-0.4-0.3-1.3-0.5-2.6c-0.9,0.5-1.5,0.8-2.2,1.2c-1.1-0.7-2.2-1.4-3.2-2
			c0.6-2.7,3.2-5,0.4-8.1C171.3,379.6,172.1,379.2,172.7,378.9z"/>
		<path class="st0" d="M290.6,396.5c0.8-2.7,1.4-4.9,2.1-7c2-0.3,3.8-0.5,4.9,1.8c-0.9,1.4-1.9,3-3.1,4.9c0,0.8,0,2.1,0,3.5
			c0.6,0.6,1.3,1.3,2.2,2.3c-1.1,0.1-1.8,0.1-2.4,0.2C291.6,401.1,291.8,398.3,290.6,396.5z"/>
		<path class="st0" d="M82.8,274.8c-1.5-0.5-3.1-1-4.7-1.5c0-0.4,0.1-0.9,0.1-1.3c0.4-0.1,0.8-0.4,1-0.2c2.9,2.1,5.3,0.7,7.5-1.3
			c1.5-1.4,3.1-2.7,5.5-2.7c0.7,1,1.5,2.1,2.3,3.2c2.3-1.6,4.4-3.1,6.5-4.6c-1.2,3.7-4.6,4.5-7.3,6.7c-0.9-1.3-1.7-2.3-2.7-3.7
			C88.4,271.2,85.7,273,82.8,274.8z"/>
		<path class="st0" d="M251.9,95.9c-1-0.5-2-1.1-3.4-1.8c1.5-1.5,2.7-2.8,4-4.1c1.5,1.1,3,2.1,4.4,3.1c0.3,4.3,0.5,8.2-4.5,9.6
			c-0.9-1.7,0.9-2.1,1.6-3.2c0-1.2,0-2.7,0-4.1C253,94.5,253,95.7,251.9,95.9z"/>
		<path class="st0" d="M105.9,334.9c0-1.2,0-2,0-3.4c1.4,0.9,2.4,1.6,3.4,2.3c1.3,0,2.7,0,4.9,0c-1.6-1.1-2.5-1.7-3.5-2.4
			c-0.3-1.2-0.1-2.5,1.3-3.2c1-0.5,2.2-0.6,3.9-1.1c-0.5,0.8-0.8,1.4-1.2,1.8c-0.6,0.5-1.3,0.8-2,1.3c1.1,0.8,2.1,1.6,3.6,2.7
			c-1.2,0.8-2,1.5-2.9,2c-0.9,0.5-1.8,0.8-3.7,1.6c2,0.3,2.9,0.4,3.9,0.6c-0.2,0.3-0.3,0.7-0.4,0.8
			C110,338.6,108.3,336.1,105.9,334.9z"/>
		<path class="st0" d="M262.9,411.7c1.1,1,1.9,1.7,2.9,2.6c1.2-1.1,2.4-2.2,3.5-3.2c0.8,0.8,1.6,1.6,2.5,2.5c-0.5,2.5-2.9,3-4.3,4
			c-2.4-0.1-2.7-2.3-4.2-3.6c-2.2,2.1-4.3,4.4-6.5,6.4c-0.2-0.3-0.5-0.6-0.7-0.8C258.2,417.1,260.4,414.6,262.9,411.7z"/>
		<path class="st0" d="M93,220c-0.2-0.9-0.4-2-0.8-3.5c0.1-0.1,0.6-0.6,1.1-1.1c2.9-0.4,4.6,1.6,6.1,3.1c0.4,1.8,0.8,3.3,1.2,5.1
			c-1.5,0.5,0.2,3.2-2.5,3.9c-0.1-0.9-0.3-1.6-0.3-2.3c-0.1-0.8,0-1.6,0-2.7C96.3,221.7,94.7,220.8,93,220z"/>
		<path class="st0" d="M399.9,179.4c0.7-1.4,1.2-2.5,1.8-3.5c0.7,0,1.4,0,1.6,0c1.9,2.6,3.6,5,5.6,7.8c0,0.9,0,2.5,0,4.9
			c-1.7-2.1-2.9-3.4-3.9-5.2C404,181.7,401.7,180.7,399.9,179.4z"/>
		<path class="st0" d="M337.7,108.6c1.5,2.7-1,4-1.9,5.5c-1.8,2.8-3.8,5.2-3.8,8.8c0,0.6-0.9,1.1-1.8,2.1c-0.5-5.9,2.3-10.3,4-15
			C335.4,109.5,336.6,109,337.7,108.6z"/>
		<path class="st0" d="M119.3,319.7c-1.4,1.8-2.3,3.4-3.5,4.5c-1.1,1.1-2.5,1.8-3.9,2.7c-1-1.4-2.9-2.2-3.4-4.3
			c1.1-0.8,2.1,1.5,3.3,0c0.3-0.4,2.1,0.4,3.3,0.6c0.6-1.3,1.1-2.5,1.7-3.8c0.7-0.4,1.5-0.7,2.3-1.1c1,1,2,2,3.1,3.1
			c0,1.5,0,3,0,4.9C121.3,324,120.4,322,119.3,319.7z"/>
		<path class="st0" d="M199.2,404.1c4.4-2.2,4.4-2.2,10.5-0.4c-0.5,1.8-2.1,2.1-3.5,2.3c-1.4,0.3-3.2,0.6-4.3,0
			c-2.6-1.4-5.3-0.5-8-1C195.9,402.7,196.2,402.7,199.2,404.1z"/>
		<path class="st0" d="M102.5,192.7c-0.4-0.3-0.9-0.8-1.6-1.4c-0.2-3.8-0.4-7.7,3.1-11.1c0.8,1.4,1.3,2.4,1.9,3.5
			C103.3,186.3,106.4,190.2,102.5,192.7z"/>
		<path class="st0" d="M131.8,137.4c-0.3,0-0.6-0.1-1.4-0.1c0.3-0.9,0.5-1.6,0.8-2.4c0.8-1.9-0.8-4.2,1.2-5.9
			c-0.4-2,0.6-3.6,1.4-5.3c0.8,0,1.5,0,2.3,0C136.1,126.2,133.8,133.5,131.8,137.4z"/>
		<path class="st0" d="M207.6,105c0.4-1.3,0.7-2.5,1.2-4.1c-1.2,0-2,0-3.1,0c-0.1-1-0.1-1.9-0.2-3.2c3.4,0.4,6.2,1.2,8.6,3.1
			c0.2,3.3,0.2,3.3-5.2,5.9C208.6,106.3,208.2,105.8,207.6,105z"/>
		<path class="st0" d="M386.5,159.4c-2.1-0.6-4.2,0.5-5.1-2.1c2.8,0,5.5,0,8.9,0c0.4,1.1,0.8,2.5,1.3,3.8c-1.6,1.5-2.4,3.6-5.1,2.7
			C386.5,162.5,386.5,161,386.5,159.4z"/>
		<path class="st0" d="M237.5,401.9c0.6,0.2,1.2,0.4,1.7,0.6c-0.1,0.2-0.2,0.3-0.3,0.5c-1.8,0-3.5,0-5.1,0c-1.4,1.4-2.7,2.7-3.9,3.9
			c-1.8,0.5-3.1,0.1-3.6-1.5c1.4-1.4,2.6-2.6,4.2-4.3c1.8,0,4.4,0,7,0C237.6,401.4,237.5,401.7,237.5,401.9z"/>
		<path class="st0" d="M305.7,102c-0.2-0.7-0.3-1.1-0.4-1.5c0.3-0.2,0.5-0.5,0.8-0.6c2-0.4,3.9-0.7,5.9-1.2c1.9-0.5,3.7-1.5,5.6-1.7
			c2.3-0.3,4.7-0.5,6.6,1.6c0,0.3-0.1,0.6-0.2,1.3c-3.1-0.6-6.2-2.3-9.3,0C311.5,99.3,308.7,100.9,305.7,102z"/>
		<path class="st0" d="M101.8,221.6c1.5,1,2.2,1.6,2.9,2.1c0,3,0.6,5.9-1.3,8.4c-1.1,0-2.2,0-3.4,0
			C98.9,228.3,102.6,225.8,101.8,221.6z"/>
		<path class="st0" d="M150.2,380.3c1.4,0.9,2.6,1.6,3.8,2.3c0,1.2,0,2.3,0,3.5c-0.4,0.1-0.9,0.4-1.2,0.2c-2.9-1.3-5.7-2.8-8.8-4.3
			c0.7-0.7,1.3-1.2,2-1.9c0.7,0.5,1.4,0.9,2.2,1.4C148.7,381.2,149.4,380.8,150.2,380.3z"/>
		<path class="st0" d="M279.4,415.8c1.7-4.1,6.3-4,8-7.4c0.3,0.2,0.6,0.4,0.9,0.6c0.1,1.2,0.3,2.4,0.4,3.3c-1.3,1.4-2.4,2.5-3.4,3.5
			C283.3,415.8,281.5,415.8,279.4,415.8z"/>
		<path class="st0" d="M343.1,116.4c-1.4,0.5-2.7,0.9-3.9,1.3c-2.9-2.3-2.9-2.3-0.6-5.2c2.3,0.9,4.7,1.9,7.1,2.9c0,1.2,0,2.1,0,3.3
			C344.7,117.8,343.9,117.2,343.1,116.4z"/>
		<path class="st0" d="M365.3,354.1c0.5-1.7,1-3.5,1.5-5.2c2.7-0.3,2.4,2.3,3.5,3.1c0,2,0,3.8,0,6C368,357.2,367,355.4,365.3,354.1z
			"/>
		<path class="st0" d="M224.7,80.2c-1.9,4.2-5.5,5.3-9.1,7.1c-0.1-1.1-0.2-1.9-0.2-2.8C217.8,82,220.5,80.1,224.7,80.2z"/>
		<path class="st0" d="M181.3,396.4c-0.7-0.2-1-0.3-1.6-0.5c0.6-1.4,1.2-2.7,2.2-4.7c0.4-2.1-0.9-5.1,1-7.7
			c-0.4-0.8-0.8-1.6-1.3-2.7c0.8-0.2,1.4-0.3,2-0.4C184.2,389.3,184.1,390.2,181.3,396.4z"/>
		<path class="st0" d="M103.4,329.2c-5.8-5.8-5.8-5.8-7.3-11.6c0.3-0.1,0.6-0.2,1.2-0.4c0.5,1,1.4,1.9,1.5,3c0.4,3.8,2.8,5.7,5.9,7
			c0.5,0.2,0.8,0.6,2,1.4C105,328.8,104.2,329,103.4,329.2z"/>
		<path class="st0" d="M116.5,151.9c0,0.6,0,1.2,0,1.8c-1.3,1.3-4.7,0-7.8-2.9c1.2-1.3,1.1-4.2,4.1-3.5
			C114.1,148.8,115.3,150.3,116.5,151.9z"/>
		<path class="st0" d="M226.8,401.2c-0.7-0.7-1-1-1.5-1.5c3-0.6,2.3-4.3,5-5.6c1.2,0.5,2.6,1,4.1,1.6
			C233.4,399.9,228.8,398.8,226.8,401.2z"/>
		<path class="st0" d="M336.7,122.3c1.4-1.3,2.6-2.3,4-3.6c0.8,0,1.9,0,3.1,0c-0.4,2.2-0.7,4.3-1.2,6.8
			C340.7,124.5,338.2,125.2,336.7,122.3z"/>
		<path class="st0" d="M257.6,82.2c0.5,0.5,0.9,0.9,1.2,1.2c-1.7,2.6-5,2-7,3.8c-2.2-2,0.3-3.3,0.3-5
			C253.9,82.2,255.6,82.2,257.6,82.2z"/>
		<path class="st0" d="M381.6,348.5c-1.9-1.3-0.9-3.4-1-4.1c1.2-1.6,1.9-2.7,3.2-4.5c0.3,1.3,0.6,2.2,0.8,3.1
			c0.3-0.2,0.5-0.5,0.8-0.7c0,1,0,1.9,0,3.2C384.3,346.3,383,347.3,381.6,348.5z"/>
		<path class="st0" d="M85.5,285.7c-0.2-0.5-0.4-0.9-0.7-1.4c1.8-1,3.5-1.9,6-3.3c-2.5-0.3-4.1-0.4-6.9-0.7c3.3-0.7,5.5-1.2,7.9-1.8
			c0,1.3,0,2.4,0,3.9C89.9,283.4,87.8,284.5,85.5,285.7z"/>
		<path class="st0" d="M130.3,147.1c-0.7,0.5-1.4,1-2.1,1.4c-1-2.3-1.8-4.4-2.8-6.8c0.5-0.4,1.1-1,1.9-1.7c0.9,0.4,1.9,0.7,3,1.1
			C130.3,143.2,130.3,145,130.3,147.1z"/>
		<path class="st0" d="M380,161.1c0.4,0.4,0.9,0.9,1.4,1.4c0,0.9,0,1.9,0,3c-0.8,0.8-1.7,1.7-2.8,2.8c-1.1-1-2.2-1.9-3.2-2.8
			C375.9,162.8,378.3,162.4,380,161.1z"/>
		<path class="st0" d="M232.4,413c-1.7-0.6-3-1.1-5.3-1.9c2.1-0.9,3.2-1.4,4.4-1.9c1.1-0.5,2.3-0.9,3.7-1.4c0.7,0.6,1.4,1.2,2.1,1.9
			c-0.3,0.5-0.4,1.1-0.7,1.3C235.3,411.8,233.9,412.3,232.4,413z"/>
		<path class="st0" d="M375.7,354.5c1.2,0.4,2.5,0.8,3.7,1.1c0,1.6,0,2.7,0,3.6c-1.5,1.7-2.9,2.1-4.7,0
			C374.2,357.8,374.4,356.2,375.7,354.5z"/>
		<path class="st0" d="M248.3,403.8c0.8,1.2,1.6,2.2,2.3,3.3c0.9,1.8-0.8,2.7-2,4c-0.6-0.4-1.2-0.7-2.3-1.4
			c-0.3-0.6-0.8-1.6-1.4-2.9C245.8,405.9,246.8,405.1,248.3,403.8z"/>
		<path class="st0" d="M266.7,408.7c-2.1,0.5-3.8,0.9-6.1,1.4c0.5-1,0.6-1.7,1-2.2c1.2-1.3,2.5-2.5,3.7-3.8
			C268.3,405.9,268.3,405.9,266.7,408.7z"/>
		<path class="st0" d="M192,96c0.9,0,1.7,0,2.6,0c0,1.1,0,2,0,3.2c-0.7,1.1-1.6,2.3-2.6,3.8c-0.6-0.4-1.2-0.8-2.1-1.3
			C190.6,99.7,191.3,97.8,192,96z"/>
		<path class="st0" d="M315.3,108.1c-1.1-0.9-1.7-1.4-2.5-2c1.3-1.9,2.5-3.6,3.7-5.3c0.8,0.7,1.2,1.2,1.7,1.6
			C318.2,104.6,317.2,106.4,315.3,108.1z"/>
		<path class="st0" d="M236.6,415.8c-1.3,1-3.8,0.6-6.2,0.1c0-0.6,0-1,0-1.5c1.5-0.8,3.4,0.4,4.7-1.2c0.2-0.3,1.7,0.1,2.1,0.5
			C237.8,414.4,238,415.5,236.6,415.8c-2.2-1.5-2-1.3-1.9-1C234.5,414.5,234.4,414.3,236.6,415.8z"/>
		<path class="st0" d="M353.6,372.9c-1-1.3-1.8-2.3-2.8-3.5c0.7-0.8,1.6-1.8,2.7-3.1c0.7,0.6,1.5,0.9,1.9,1.5
			C356.2,369.5,355.8,370.7,353.6,372.9z"/>
		<path class="st0" d="M353.8,130c0-1.2,0-2.1,0-3.1c0.8-0.8,3.3-0.6,4.3,0.3c1,0.9,0.9,2,0.3,3C357.3,131.9,356.5,131.8,353.8,130z
			"/>
		<path class="st0" d="M335.2,105.4c1.1-0.5,1.8-0.8,2.6-1.2c1.3-0.5,3.1-1,4.2,1.6c-0.9,0.9-1.9,2-3.1,3.4
			C337.7,107.9,336.7,106.9,335.2,105.4z"/>
		<path class="st0" d="M196.6,110.2c1.9-0.7,3.7-1.5,6.1-2.4c0.8,0,2.3,0,4.4,0c-1.3,0.9-2,1.8-2.6,1.7c-1.9-0.1-3.3,0.8-4.8,1.5
			c-0.8,0.4-1.7,0.5-2.7,0.7C196.8,111.1,196.7,110.6,196.6,110.2z"/>
		<path class="st0" d="M89.6,198c1.4,1.3,2.4,2.2,3.3,3c0,0.9,0,1.6,0,2.2c-0.9,0.4-1.7,0.8-2.4,1.2c-0.8-0.4-1.6-0.8-2.8-1.4
			C88.2,201.5,88.8,200,89.6,198z"/>
		<path class="st0" d="M304.3,403.3c0,1.3,0,2.4,0,3.4c-2.3,1.7-2.9,1.8-4,0.7c-1.6-1.5-1-2.8,0.5-4.1
			C301.7,403.3,302.8,403.3,304.3,403.3z"/>
		<path class="st0" d="M144.5,124.3c0.7,1.1,1.5,2.1,2.3,3.3c-0.1,0.1-0.5,0.9-0.9,1.8c-1,0-2.1,0-3.2,0c-0.6-0.6-1.1-1.2-1.6-1.8
			C142.3,126.4,143.2,125.4,144.5,124.3z"/>
		<path class="st0" d="M315.2,389.3c0.5,0,1,0,1.5,0c-0.6,2.9-1.3,5.8-2,8.8c-0.3,0-0.7,0-1.6,0.1c0.5-1.9-0.7-3.8,1-5.5
			c0.4-0.4,0.1-1.6,0.1-2.4C314.6,390,314.9,389.7,315.2,389.3z"/>
		<path class="st0" d="M267.7,89.7c1.2-0.9,2.1-1.8,3.4-2.8c0.5,0.8,1.2,1.9,2.1,3.4c-0.8,0.4-1.5,0.8-2.2,1.2
			C269.6,92.2,268.4,91.6,267.7,89.7z"/>
		<path class="st0" d="M180.5,403.2c-1.3,0.1-2.5-0.9-2.6-2.2c-0.2-1.6,1-2.8,2.6-2.7c1.3,0.1,2.3,1.1,2.3,2.5
			C182.8,402,181.8,403.1,180.5,403.2z"/>
		<path class="st0" d="M415.4,222.7c-1.2,0.6-2.1,1.1-2.8,1.4c-0.7-0.4-1.6-0.8-2.4-1.2c0-0.6,0-1.2,0-2c1-0.5,2-1,3.5-1.8
			C414.3,220.3,414.8,221.5,415.4,222.7z"/>
		<path class="st0" d="M406.6,293.3c0.6-1.5,1.1-2.7,1.5-3.7c1.5,0,2.5,0,3.6,0c0.9,1.6,0.3,2.8-1.2,3.9
			C409.5,293.4,408.3,293.4,406.6,293.3z"/>
		<path class="st0" d="M215,413c-0.7,1.3-2.1,1.2-3.3,0.9c-0.8-0.2-1.5-0.9-2.3-1.4c1.4-2,1.4-2,3.6-2.6
			C213.5,410.9,214.2,411.9,215,413z"/>
		<path class="st0" d="M379.2,144.3c0,0-0.6,0-1.3,0c-0.4-0.8-0.8-1.6-1.3-2.6c0.8-0.6,1.8-1.4,3-2.4c0.7,0.6,1.6,1.4,2.3,2
			C381.1,142.2,380.3,143,379.2,144.3z"/>
		<path class="st0" d="M201.9,88.1c1.2,0.7,2.3,1.4,3.3,1.9c-0.8,1-1.6,1.9-2.4,2.9c-0.5,0-1.2,0-1.8,0
			C200.2,92,200.5,90,201.9,88.1z"/>
		<path class="st0" d="M308.5,108.5c-0.1-2-0.2-3.2-0.2-4.5c1.3-0.8,2.5-1.4,3.8-2.2c0,1.3,0,2.4,0,3.7
			C311.2,106.2,310.1,107.1,308.5,108.5z"/>
		<path class="st0" d="M300.2,91.2c-0.8-0.8-1.2-1.2-1.5-1.5c0.8-1,1.5-2,2.1-2.7c2.1-0.2,3.3,0.4,3.6,2.5
			C303,90.1,301.5,90.7,300.2,91.2z"/>
		<path class="st0" d="M350.8,375.8c-0.3,3.5-1.9,6.5-3.6,9.5c-0.3,0-0.7,0-1.1-0.1c1.3-3.3,2.5-6.6,3.7-9.9
			C350.2,375.6,350.5,375.7,350.8,375.8z"/>
		<path class="st0" d="M364.4,364.5c-0.2,4-1.1,6.3-3.6,8.9C362.1,370.5,361.2,366.9,364.4,364.5z"/>
		<path class="st0" d="M240.9,89c0.4,0.5,0.8,1,1.1,1.5c-0.8,0.4-1.6,0.8-2.4,1.2c-0.8-1.3-1.6,0.2-2.5,0.2c-0.9,0-1.9,0-2.9,0
			c0-0.8,0-1.2,0-1.6C236.6,89.8,238.9,89.4,240.9,89z"/>
		<path class="st0" d="M392.8,181.8c-0.5-1-1-2.1-1.5-3.1c0.6-1.5,3-1.1,5,0.9C395.8,181.5,394.6,182.1,392.8,181.8z"/>
		<path class="st0" d="M99.2,316.1c1.5-1.1,2.8-2,4-2.8c0.4,0.4,0.9,0.8,1.4,1.3c-0.8,1.2-1.5,2.5-2.2,3.6c-0.6-0.1-1,0-1.2-0.2
			C100.6,317.6,100.1,317,99.2,316.1z"/>
		<path class="st0" d="M294.5,410c-1.4,0-2.5,0-3.8,0c-0.3-1.9-0.8-3.8,1.8-5c0.6,0.5,1.3,1,1.9,1.6
			C294.5,407.6,294.5,408.6,294.5,410z"/>
		<path class="st0" d="M287.1,100.6c0.2,0.7,0.4,1.1,0.6,1.7c-2.7,0.7-4.8,3.5-8.2,2C282.1,103,284.5,101.8,287.1,100.6z"/>
		<path class="st0" d="M108.2,302.1c-0.8,0.9-1.4,1.6-1.8,2.2c-1.9,0.5-2.9-0.4-3.9-2c0.7-0.7,1.3-1.4,1.9-2
			C105.6,300.9,106.7,301.4,108.2,302.1z"/>
		<path class="st0" d="M90,292.5c0-1.1,0-1.9,0-2.7c2.6-0.1,3.3,0.2,5.1,2.1C93.4,292.8,91.7,292.3,90,292.5z"/>
		<path class="st0" d="M399.3,202.1c-1.1,0.6-2,1-3.3,1.7c-0.6-0.5-1.2-1.2-2.1-2c0.7-0.8,1.3-1.5,2.1-2.5
			C397.2,200.2,398.2,201.1,399.3,202.1z"/>
		<path class="st0" d="M96,256.9c0.5-0.3,1.2-0.7,2.3-1.4c0.6,0.6,1.2,1.3,1.7,1.7c-0.7,2.5-2,2.9-4,2.4C96,258.8,96,257.9,96,256.9
			z"/>
		<path class="st0" d="M115.4,349.3c3.6-0.6,4-0.2,3.8,3.5C117.1,352.5,116.2,351.1,115.4,349.3z"/>
		<path class="st0" d="M314.4,407.2c-0.4-0.2-0.8-0.4-1.2-0.6c0.9-1.9,1.8-3.6,2.7-5.5c2.2,0.1,1.6,1.7,1.1,2.7
			C316.3,405.1,315.3,406,314.4,407.2z"/>
		<path class="st0" d="M123.9,346.8c1.3,0.9,2.5,1.8,4.2,3c-1.7,0.9-2.8,1.5-4.2,2.3c-0.2-0.8-0.4-1.3-0.6-1.9
			c0.8-0.3,1.3-0.5,2-0.7C125.2,348.4,122.5,349.1,123.9,346.8z"/>
		<path class="st0" d="M157,383.6c1.3,0,2.5,0,3.9,0c0,0.7,0,1.5,0,2.3c-0.1,0.1-0.3,0.3-0.6,0.4C158.5,386.5,157.3,385.9,157,383.6
			z"/>
		<path class="st0" d="M103.2,248.9c-0.8,0.9-1.3,1.4-1.8,1.9c-0.5-0.3-0.9-0.6-1.4-0.9c-0.4-0.2-0.8-0.3-1.6-0.5
			c0.8-1,1.4-1.8,2.3-3C101.6,247.4,102.3,248,103.2,248.9z"/>
		<path class="st0" d="M397.1,312.2c-0.6,0-1,0-1.6,0c0-1.6,0-3.1,0-4.8c0.6,0,1,0,1.6,0C397.1,309,397.1,310.5,397.1,312.2z"/>
		<path class="st0" d="M139.3,358.7c-0.4,1.9-1.7,0.8-2.8,0.8c0-1.5,0-3.1,0-4.7c1.7-0.4,2.4,0.5,2.8,1.8c0,0.2-0.1,0.3-0.1,0.5
			c-0.1,0.3-0.1,0.7,0,1C139.3,358.4,139.3,358.5,139.3,358.7z"/>
		<path class="st0" d="M137.7,379.5c-0.6-0.9-1.1-1.7-1.5-2.4c1.8-1.6,2.3,0.2,3.2,0.8C138.9,378.4,138.4,378.8,137.7,379.5z"/>
		<path class="st0" d="M85.1,266.1c-0.2,2.8-1.3,3.4-2.9,3.4C82.8,268.5,83.7,267.6,85.1,266.1z"/>
		<path class="st0" d="M203.7,400.7c-0.5,0.2-1,0.4-1.9,0.8c-0.1-1.2-0.2-2-0.3-3C203,399.5,203,399.5,203.7,400.7z"/>
		<path class="st0" d="M87.7,301.4c-0.6,0-0.9,0-1.4,0c-0.1-0.5-0.2-1-0.4-1.7c0.6-0.1,1.1-0.2,1.8-0.4
			C87.7,300.1,87.7,300.7,87.7,301.4z"/>
		<path class="st0" d="M195.1,399.5c0.5,0.3,1.1,0.7,2.1,1.3C194.8,401,194.8,401,195.1,399.5z"/>
		<path class="st0" d="M117.7,328.2c0-0.9,0-1.3,0-1.6c0.5,0.3,1.1,0.7,1.9,1.3C119,328,118.5,328,117.7,328.2z"/>
		<path class="st0" d="M173.9,377.7c0.7,0,1.3,0,2,0c0,0.2,0,0.3,0,0.5c-0.7,0-1.3,0-2,0C173.9,378,173.9,377.9,173.9,377.7z"/>
		<path class="st0" d="M139.3,356.7c0.3,0.4,0.7,0.8,1,1.2c-0.3,0.2-0.7,0.5-1,0.7C138.7,358,138.7,357.4,139.3,356.7z"/>
		<path class="st0" d="M91.6,307.3c0,0.3,0,0.7,0,1c-0.1,0-0.2,0-0.3,0c0-0.3,0-0.7,0-1C91.3,307.3,91.5,307.3,91.6,307.3z"/>
		<path d="M361.7,187.7c2.1,1.5,3.7,3.2,5.2,5.4c1.6,2.4,4.3,4.2,6.6,6.4c-0.9,2.4-2.3,5.1-1.9,8.2c0.2,1.5,0.8,3,0.9,4.5
			c0.1,1.4,0.1,2.8,1,4.1c0.4,0.7,0.1,1.9,0.1,3.6c-2.3-5.8-4.4-10.7-6.6-16.3c-1,1.5-2.1,2.4-2.2,3.4c-0.4,4.9-2.6,9.5-2.1,14.5
			c0.4,3.6-1.4,6.3-3.7,8.8c-4.6,5.2-9.4,10.3-14.3,15.7c0.7,0.7,1.4,1.6,2.2,2.4c5.2,5.6,10.4,11.2,15.8,17c0,3.7,0,7.6,0,11.5
			c0,4,1.6,7.6,2.4,11.4c0.4,1.9,2.1,3.6,3.6,5.9c1.9-4.9,3.6-9.2,5.7-14.4c-0.2,4.6,0.8,8.3-0.6,12.1c-0.6,1.7,0.2,3.9,0.4,6.4
			c-0.6,0.4-1.7,0.9-2.7,1.6c-2.5,1.9-3.6,4.7-4.9,7.3c-1,2-1.7,4.1-4,5c0.7-1.9,1.4-3.7,2-5.6c0.7-2.5,1.3-5.1,2-7.6
			c0.3-1,0.7-2,1.1-3.4c-1.2-0.1-2.2-0.2-2.6-0.3c-7.9,3.6-12.7,9.8-17.3,15.6c-9.7,1.5-18.8,4.1-28.7,3c-1.4,4.6-1,9.3-1.9,13.7
			c-0.9,4.3-1.6,8.6-2.4,13.2c-6.1,2.9-10.5,7.8-13.5,14.1c-0.9,2-2.4,3.7-1.8,6.3c3.1,0.9,5.9-0.7,8.8-1.7c3-1.1,4.9-3.2,6.3-6.2
			c0.5,5-1.5,8.8-5.8,11.1c-3.1,1.7-4.3,2.9-6,6.1c-2.1-1.2-4.1-1.5-6.5-0.2c-3.8,2-7.8,2.8-11.9,0.6c-0.8-0.4-1.8-0.5-2.8-0.8
			c3.8-1.8,7.5-3.6,12.1-5.7c0.5,0,1.9,0,3.7,0c-0.3-2.2-1.5-3.3-3.1-3.9c-3.2-1.1-6.2-2.4-9.6-3.1c-3.3-0.7-6.6-0.8-10-0.9
			c-1.3,0-2.7-0.6-3.9-1.3c-4.1-2.4-8.5-4.4-12.3-7.3c-2.7-2.1-5.6-4-8.9-6.3c-0.5,0.3-1.9,0.6-2.3,1.4c-2.7,5-7.4,8-11.6,11.3
			c-2.6,2-4.8,4.6-8.6,6.1c-0.9-0.3-2.8,1-4.2-0.7c-7.2-0.4-14.3-0.5-21.2,2.2c-0.4,0.2-0.7,0.7-1.2,1.2c4.6,3.4,9.1,6.8,13.6,10.1
			c-3.5,1.1-7-0.3-10.5-1.2c-3-0.8-5.8-0.7-8.7,0.2c-0.9-3.1-2.3-5.8-5.3-7.7c-2.6-1.6-5.5-3.1-7.4-7c1.3,0.6,1.8,0.9,2.4,1.1
			c3.6,1.6,7,3.5,11.1,3c0.5-0.1,1,0.6,0.9,0.5c1-0.4,1.8-0.7,2.4-0.9c-3.9-6.7-9.5-11.1-14.5-14.9c-2.1-5-1.7-9.9-3.6-14.2
			c0.7-4.9-1.9-9.5-0.9-14.3c-2.9-1.3-5.9-1.3-8.9-1.7c-2.2-0.4-4.9,0.1-6.4-1c-2-1.4-4-0.1-5.9-1.4c-1.7-1.1-4.1-1.1-6.4-1.6
			c-6.2-7.8-15.3-11.3-24.9-15c0.2,1.1,0.2,1.9,0.6,2.3c2.9,2.9,4.2,7,7.3,9.8c1.3,1.2,2.6,2.4,4.6,4.4c-2-0.7-3.3-0.8-4.1-1.5
			c-3.8-2.9-7.7-5.8-10.4-9.9c-0.6-0.9-1.9-1.5-3-2.3c0.9-5.7-0.7-11.3-0.6-17.1c2.1,4.2,4.5,8.3,3.6,13.5c1,0,1.8,0,2.7,0
			c2.9-4.7,4.5-10.1,6.6-15.3c0.8-1.8,0.7-3.5,0.5-5.2c-0.3-3.1,1.1-5.5,2.5-7.9c3-4.9,6.2-9.6,9.5-14.3c1.1-1.6,2.6-2.8,4.2-4.4
			c-6.8-8.7-12.6-17.9-17.1-28.1c1.1-3.4,2-6.9,0-10.4c0.6-2.2-0.5-4.1-1.1-6c-0.7-2.2-1.7-4.4-4.7-5.3c0.5,6.3-4.3,10.5-5.4,16.6
			c-1.8-3.6-0.3-6.7,0.8-9.1c1.3-2.8-1.4-6,1.4-7.8c-0.4-2-0.8-3.4-1.1-5.1c1-0.5,1.9-0.9,2.7-1.3c2.6-1,5.2-2,7.2-4.2
			c0.8-0.9,1.6-2.2,3.2-1.8c-0.6,1.1-1.6,2.1-1.6,3.2c-0.1,2.3-1.6,3.4-2.9,4.8c-0.6,0.7-1.1,1.5-2,2.7c1.7,0.1,2.8,0.2,4.1,0.2
			c5.2-4.1,10.6-8.3,16.4-12.8c4.3,0.1,8.8-2.1,13.8-2.2c4.8,0,9.6-0.8,14.6-1.2c0.2-0.2,1-0.6,1.1-1.1c0.5-2.6,0.7-5.3,1.1-8
			c0.2-1.2,0.6-2.4,1-3.5c1.4-4.5,2.2-9.2,3.8-13.7c0.8-2.4,1.8-4.3,3.6-5.9c4-3.5,6.7-7.8,8.7-12.7c0.5-1.3,1.4-2.5,1.6-3.8
			c0.1-1.1-0.6-2.3-0.9-3.3c-1.2,1.2-2.1,2.3-3.2,2.9c-1.4,0.9-3,1.6-4.6,2c-1.6,0.3-2.1,2.8-4.1,2c3-3.2,6.1-6.4,9.1-9.6
			c0.8-0.9,1.6-1.9,2.7-3.4c5.4,1.4,11.8,0.5,17.8,2.8c-5.2-0.1-10.1,0.8-15.8,3.2c2.3,0.9,3.7,1.7,5.2,1.9c1.3,0.2,2.4,0.5,3.6,1
			c2.8,1.1,5.9,1.3,8.9,1c2-0.2,3.7,0.7,5.2,1.7c6.1,4,12.2,8,18.1,12.3c2.2,1.6,3.9,3.9,5.8,5.8c8.8-6.4,17.4-12.6,25.6-18.5
			c3.5,0.3,6.8,1,9.8,0.6c4.4-0.6,9.1-0.4,13.1-2.9c0.3-0.2,0.4-0.8,0.9-1.7c-5.3,0.3-8.1-3.9-12.4-5.8c3.6-1.2,6.7-0.3,9.7,0.7
			c2.7,0.9,5.3,1.6,8.4,2c0.3,0.7,0.7,1.5,1,2.4c0.6,1.8,1.4,3.5,2.9,4.7c0.9,0.7,1.2,1.5,1,2.5c-2.2-0.1-3.8-1.3-5.3-2.8
			c-0.6-0.6-1.4-0.9-2.4-1.5c0.5,5.4,8.4,18,11.4,22.3c1,9.1,1.6,17.8,3.9,26.6c1-0.5,1.5-1,1.9-1c0.6,0.1,1.1,0.7,1.6,0.7
			c6.5-0.2,12.8,1.8,19.3,1c2.6-0.3,5,0.5,7.5,1.2c0.6,0.9,1.2,2,2.1,2.8c4.2,4,8.5,7.9,12.8,11.9c1.7,1.6,3.7,2.3,5.5,1.9
			c-1.1-1.1-2.4-2.4-3.6-3.6c0.3-0.3,0.6-0.5,0.9-0.8C363.2,193.4,362.4,190.6,361.7,187.7z"/>
		<path d="M137.2,186.7c0.2-0.3,0.5-0.5,0.7-0.8c0.1,0.1,0.2,0.2,0.3,0.3c-0.3,0.2-0.5,0.5-0.8,0.7
			C137.4,186.8,137.3,186.7,137.2,186.7z"/>
		<path d="M361.6,187.9c-0.3-0.2-0.5-0.5-0.8-0.7c0.1-0.1,0.2-0.2,0.3-0.3c0.2,0.3,0.5,0.5,0.7,0.8
			C361.7,187.7,361.6,187.8,361.6,187.9z"/>
		<path d="M308.4,137.2c0.3,0.2,0.5,0.5,0.8,0.7c-0.1,0.1-0.2,0.2-0.3,0.3c-0.2-0.3-0.5-0.5-0.7-0.8
			C308.3,137.4,308.3,137.3,308.4,137.2z"/>
		<path d="M187.9,136.5c-0.2,0.3-0.5,0.5-0.7,0.8c-0.1-0.1-0.2-0.2-0.3-0.3c0.3-0.2,0.5-0.5,0.8-0.7
			C187.7,136.3,187.8,136.4,187.9,136.5z"/>
		<path d="M362.8,312.3c-0.2,0.3-0.5,0.5-0.7,0.8c-0.1-0.1-0.2-0.2-0.3-0.3c0.3-0.2,0.5-0.5,0.8-0.7
			C362.6,312.2,362.7,312.3,362.8,312.3z"/>
		<path d="M371.5,145.3c1.3,0,2.3,0,3.6,0c0.8,0.8,1.7,1.9,2.9,3.2c-1.6,0.6-2.9,1-4.1,1.4c-0.7-0.4-1.5-0.8-2.3-1.2
			C371.5,147.7,371.5,146.7,371.5,145.3z"/>
		<path d="M367.4,130.1c1,0.9,2.1,1.9,3.5,3.2c-3,0.4-2.9-1.8-4.4-2.2C366.8,130.7,367.1,130.4,367.4,130.1z"/>
		<path d="M356.7,117.9c0.3,0,0.7,0,1,0c0,0.1,0,0.2,0,0.3c-0.3,0-0.7,0-1,0C356.7,118.1,356.7,118,356.7,117.9z"/>
		<path d="M110.7,166.1c-1.1-2.7-1-5.3-0.2-7.9c0.1,1.3,0.1,2.7,0.2,4C110.7,163.4,110.7,164.8,110.7,166.1z"/>
		<path d="M99.2,209.8c-0.5-1.9-2.3-3.2-0.9-5.4C98.8,206.2,100.6,207.3,99.2,209.8z"/>
		<path d="M111.5,179.8c-0.6,0-1,0-1.6,0c0-1,0-1.8,0-2.8c0.6,0,1,0,1.6,0C111.5,177.9,111.5,178.8,111.5,179.8z"/>
		<path d="M108.7,175.9c0-0.6,0.1-1.2,0.1-2c0.7,0,1.2,0.1,1.9,0.1c-0.6,0.9-1.1,1.6-1.5,2.3C109,176.2,108.8,176.1,108.7,175.9z"/>
		<path d="M108.8,176c-0.2,0.3-0.5,0.5-0.7,0.8c-0.1-0.1-0.2-0.2-0.3-0.3c0.3-0.2,0.5-0.5,0.8-0.7
			C108.7,175.9,108.7,175.9,108.8,176z"/>
		<path d="M111.7,166.9c0.3,0.2,0.5,0.5,0.8,0.7c-0.1,0.1-0.2,0.2-0.3,0.3c-0.2-0.3-0.5-0.5-0.7-0.8
			C111.6,167,111.7,167,111.7,166.9z"/>
		<path d="M110.7,166c0.3,0.3,0.7,0.7,1,1C111.3,166.7,111,166.3,110.7,166z"/>
		<path d="M98.1,303.3c1.9,0.2,2.6,1,2.7,2.7C99.9,305.1,99.1,304.3,98.1,303.3z"/>
		<path d="M135.1,146c0.7,3,0.2,5.1-1.4,7.2c-1.3-0.4-2.6-1-2.2-2.5C131.9,148.8,132.4,146.7,135.1,146z"/>
		<path d="M135.6,135.4c3.1-0.1,3.5,1.7,5.4,2.9C138.1,138.5,137.5,136.7,135.6,135.4z"/>
		<path d="M402.5,243.4c2.8-1.1,5.2-3.1,8.7-2c1.4,1.1,3.1,2.5,4.5,3.6c0.4,1.9,0.8,3.4,1.2,5.4c-0.2,0.6-0.6,1.8-1.4,3.8
			c-1.1,0.9-2.9,2.4-4.6,3.8c-1.9,0-3.6,0-5.2,0c-5.4-3.4-5.5-3.7-5.4-11.4c0.6-0.6,1.2-1.1,1.7-1.8
			C402.3,244.3,402.4,243.6,402.5,243.4z"/>
		<path d="M141.2,369.5c0,0.9,0,1.9,0,2.8c-0.6,0.1-1,0.1-1.6,0.2c0-1,0-1.8,0-2.9C140.1,369.6,140.7,369.6,141.2,369.5z"/>
		<path d="M160.6,393.1c1.2,0.3,1.8,0.5,2.4,0.7c-0.5,0.2-0.9,0.4-1.4,0.4C161.5,394.3,161.3,393.9,160.6,393.1z"/>
		<path d="M163.1,394.2c0.3,0.2,0.5,0.5,0.8,0.7c-0.1,0.1-0.2,0.2-0.3,0.3c-0.2-0.3-0.5-0.5-0.7-0.8
			C163,394.3,163.1,394.2,163.1,394.2z"/>
		<path d="M407.3,227.4c1.5,0,3.1,0,5.7,0C410.4,228.6,408.8,228.1,407.3,227.4z"/>
		<path d="M388.7,319.3c-0.6-1.5-1.1-2.9-1.6-4.3c1.6-1.1,3-2,4.4-3C392.4,314.5,392.4,314.5,388.7,319.3z"/>
		<path d="M388.1,334.9c-0.5,0-1,0-1.4,0c-0.4-1.6-1-3.2-1.3-4.8c-0.2-0.9,0-1.9,0.3-2.8C386.8,329.7,389.1,331.7,388.1,334.9z"/>
		<path d="M85.7,241.1c2.7-0.2,5.9-0.1,8.5,2.7c2.1,2.3,3,4.7,2.7,7.3c-0.9,1.7-1.6,3.1-2.3,4.6c-2.5,0.9-4.8,3.3-8.8,1.7
			c-6-4.1-7-5.6-3.7-13.6C83.1,243,84.2,242.2,85.7,241.1z"/>
		<path d="M198.5,394.8c0.5-0.9,1-1.7,1.5-2.7C201.5,393.9,199.7,394.4,198.5,394.8z"/>
		<path d="M361.8,350c-0.6,2.5-1.9,3.1-4,2.6c0-0.7-0.1-1.6-0.2-2.6C359.1,350,360.3,350,361.8,350z"/>
		<path d="M304.6,388.7c0.3-1.5,0.8-2.8,3-2C306.4,387.5,305.5,388.1,304.6,388.7z"/>
		<path d="M304.5,388.4c-0.2,0.3-0.5,0.5-0.7,0.8c-0.1-0.1-0.2-0.2-0.3-0.3c0.3-0.2,0.5-0.5,0.8-0.7
			C304.3,388.3,304.4,388.4,304.5,388.4z"/>
		<path d="M315.2,389.3c-0.3,0.3-0.7,0.7-1,1C314.6,390,314.9,389.7,315.2,389.3z"/>
		<path d="M169,101.8c0.9-0.6,1.7-1.2,3-2.2c-0.4,2.8-2.2,4-4,5.1C168.3,103.8,168.6,102.8,169,101.8z"/>
		<path d="M180.6,108c-0.1,2.4-2,3.2-3.8,5.5C177,109.9,179.3,109.3,180.6,108z"/>
		<path d="M165.9,108.1c0.3-1.2,0.5-1.8,0.7-2.4c0.2,0.5,0.4,0.9,0.4,1.4C167,107.3,166.6,107.5,165.9,108.1z"/>
		<path d="M168,104.7c-0.3,0.3-0.7,0.7-1,1C167.3,105.4,167.7,105.1,168,104.7z"/>
		<path d="M132,364.9c-0.2,0.5-0.6,1.2-1.2,2.5c-0.2-1.4-0.3-1.8-0.4-2.5C131.1,364.9,131.8,364.9,132,364.9z"/>
		<path d="M119.2,158.5c0.5-1.2,1-2.3,1.4-3.5c2.5,1.9,4.7,3.7,6.9,5.5c-1.3,0.9-2.2,0.6-3.4-0.2
			C122.9,159.5,121.4,159.3,119.2,158.5z"/>
		<path d="M120.4,147.4c-2.9-1.7-3.3-3.2-1.5-5.9c0.9,0.4,1.8,0.9,2.9,1.4C121.3,144.3,120.9,145.7,120.4,147.4z"/>
		<path d="M120.5,147.2c1.9-0.3,2.7,0.7,3.2,2.4c-0.4,0.2-0.8,0.5-1.5,0.8C121.6,149.3,121,148.3,120.5,147.2z"/>
		<path d="M361.2,245.2c6.6-1,12.3,1.4,19.3,3.2c-7.7,2.4-14.1,5.5-21.5,2.4c0-1,0-2.1,0-3.5C359.5,246.8,360.3,246,361.2,245.2z"/>
		<path d="M119,247.5c3.5-0.9,6.5-1.7,9.6-2.5c0.6-0.2,1.3-0.1,1.8-0.5c2.6-1.7,4.7,0.6,7,1c0.7,0.1,0.9,1.1,1,3.9
			c-0.2,0.2-0.6,0.8-1.1,1.1c-1.3,0.8-2.6,1.6-3.9,2.4c0,0-4.6-1-4.7-1c-2.9-1-5.7-2-8.6-3C119.9,248.9,119.7,248.5,119,247.5z"/>
		<path d="M194.2,91.4c0.7-0.5,1.4-0.9,2.3-1.5c0,0.7,0.1,1.2,0.1,1.9c-0.8,0.1-1.4,0.1-2,0.1C194.5,91.8,194.3,91.6,194.2,91.4z"/>
		<path d="M199.4,104.9c0,0.5,0,1.1,0,1.6c-0.2,0-0.3,0.1-0.5,0.1c-0.1-0.5-0.3-1.1-0.4-1.6C198.9,105,199.2,104.9,199.4,104.9z"/>
		<path d="M194.8,92c-0.2,0.3-0.5,0.5-0.7,0.8c-0.1-0.1-0.2-0.2-0.3-0.3c0.3-0.2,0.5-0.5,0.8-0.7C194.6,91.9,194.7,91.9,194.8,92z"
			/>
		<path d="M244.5,359.6c0.6-1.4,0.9-3.7,3.1-4.8c1.4,1.1,3,2.2,4.3,3.1c0,2.3,0,4.2,0,5.4c-1.3,3.2-2.3,5.8-3.4,8.4
			C245.4,368.4,245.3,364.1,244.5,359.6z"/>
		<path d="M158.5,158.8c5.9,2.8,10.6,5.6,14.4,9.7c0,1,0,1.9,0,3c-1.1,0.5-2.1,1.1-3.3,1.6C163.2,170.7,160.9,165.3,158.5,158.8z"/>
		<path d="M253,137.9c-1.4,1.4-2.3,2.3-3.3,3.3c-0.9-0.5-2.1-1.2-3.4-2c-1.3-6.1,2.3-11.1,3-17.2c0.8,0.9,1.5,1.3,1.6,1.8
			C251.4,128.9,254,133.6,253,137.9z"/>
		<path d="M168.4,325.6c1.3,1.1,2.4,1.9,3.4,2.7c-1.9,6.2-8.2,7.1-12.6,10.9c-0.3-3.4,2.1-5.3,3-7.8
			C163.3,328.5,165.9,327.7,168.4,325.6z"/>
		<path d="M330.5,172.9c-1.6,0-3.3,0-5.2,0c0-1.4,0-2.8,0-4.6c3.3-4.8,9.1-6.4,14.3-9.2C337.2,164.2,334.7,169.1,330.5,172.9z"/>
		<path d="M401.5,184.6c0.7,0.7,1.1,1.1,1.8,1.8c-1.7,0.7-3.3,0.3-5-0.1C399.3,185.8,400.2,185.2,401.5,184.6z"/>
		<path d="M411.2,270.7c0-1.8,0-2.7,0-3.8c0.3,0.1,0.7,0.1,0.8,0.2c1.1,2.4,4.1,3.1,4.8,5.7c0.1,0.2-0.1,0.5-0.2,1.2
			C414.6,272.9,412.8,271.8,411.2,270.7z"/>
		<path d="M406.6,271.2c0.4,0.9,0.8,1.8,1.1,2.5c1.8,0,3,0,4.3,0c-0.7,1.2-1.1,2.1-1.7,3.2C408.5,275.5,406.3,274.5,406.6,271.2z"/>
		<path d="M405.6,272.2c-0.5-0.7-0.9-1.4-1.5-2.3c0.7,0,1.2-0.1,1.9-0.1c0.1,0.8,0.1,1.4,0.1,2C406,271.9,405.8,272.1,405.6,272.2z"
			/>
		<path d="M230.2,88.6c-0.3,0-0.7,0-1,0c0-0.1,0-0.2,0-0.3c0.3,0,0.7,0,1,0C230.2,88.4,230.2,88.5,230.2,88.6z"/>
		<path d="M332.4,324.1c4,2.9,5.1,7.6,7.9,12.3c-5.4-2.5-10.4-3.9-12.3-9.4C330.3,324.4,330.3,324.4,332.4,324.1z"/>
		<path d="M323.7,384.2c0.6-1.5,1.1-2.7,1.6-4.1c0.7,0.8,1.2,1.2,1.6,1.7C325.8,382.3,326.8,384.8,323.7,384.2z"/>
		<path d="M334.9,377.6c-0.3-0.2-0.5-0.5-0.8-0.7c0.1-0.1,0.2-0.2,0.3-0.3c0.2,0.3,0.5,0.5,0.7,0.8C335,377.4,335,377.5,334.9,377.6
			z"/>
		<path d="M401.2,279.5c-0.5-1.3-1.2-2.9-2.2-5.4c1.5,0.9,2.2,1.4,2.9,1.8c0.6,0.4,1.3,0.7,1.7,0.9
			C402.9,277.5,402.1,278.4,401.2,279.5z"/>
		<path d="M394.5,276.7c0-0.7,0-1.3,0-2c0.2,0,0.3,0,0.5,0c0,0.7,0,1.3,0,2C394.8,276.7,394.7,276.7,394.5,276.7z"/>
		<path d="M398.2,270.4c-0.3,0-0.7,0-1,0c0-0.1,0-0.2,0-0.3c0.3,0,0.7,0,1,0C398.2,270.2,398.2,270.3,398.2,270.4z"/>
		<path d="M87,225c0-2.2,0-3.6,0-4.4c0.7-1.1,1.1-1.8,1.3-2.2c1.7,0,2.3,1,2.5,3.8c-0.8,0-1.5,0-2.2,0C88.1,223,87.7,223.8,87,225z"
			/>
		<path d="M87,224.2c-0.1,0.7-0.1,1.3-0.1,1.9c-0.2,0.1-0.4,0.3-0.5,0.4c-0.3-0.7-0.5-1.4-0.7-1.9C85.7,224.5,86.3,224.3,87,224.2z"
			/>
		<path d="M265.2,398.6c-0.6,0.6-1.4,1.4-2.1,2.2c0.1,0.2-0.2-0.2-0.2-0.3C263.7,398.7,263.7,398.7,265.2,398.6z"/>
		<path d="M377.4,336.9c0.4,0.8,0.8,1.6,1.5,3.1c-2-0.7-2.5-1.9-4-2.9C376.2,337,376.9,337,377.4,336.9z"/>
		<path d="M407.3,199.4c0-0.5,0-1.1,0-1.6c0.2,0,0.3-0.1,0.5-0.1c0.1,0.5,0.3,1.1,0.4,1.6C407.9,199.4,407.6,199.4,407.3,199.4z"/>
		<path d="M213.1,89.9c0,0.3,0,0.7,0,1c-0.1,0-0.2,0-0.3,0c0-0.3,0-0.7,0-1C212.9,89.9,213,89.9,213.1,89.9z"/>
		<path d="M97.2,178.7c0.6,0.6,1,1,1.3,1.3c-0.3,1.5-0.7,3.1-1,4.7c-0.4,0-0.9,0-1.6,0C96.3,182.7,96.7,180.9,97.2,178.7z"/>
		<path d="M282.4,82.3c1.3,1.3,1.7,1.7,2.2,2.2c-0.4,0.4-0.9,0.9-1.6,1.6C282.8,85,282.7,84.1,282.4,82.3z"/>
		<path d="M400.3,318.6c0-2.9,0-4.9,0-7.1C402.9,314.9,402.9,315.3,400.3,318.6z"/>
		<path d="M242.1,86c0.1-1.5,1.2-0.8,2-1C244,86.5,242.8,85.8,242.1,86z"/>
		<path d="M245,83.9c0.2-0.3,0.5-0.5,0.7-0.8c0.1,0.1,0.2,0.2,0.3,0.3c-0.3,0.2-0.5,0.5-0.8,0.7C245.1,84,245,84,245,83.9z"/>
		<path d="M244.1,85c0.3-0.3,0.7-0.7,1-1C244.7,84.3,244.4,84.7,244.1,85z"/>
		<path d="M242.2,86.1c-0.2,0.3-0.5,0.5-0.7,0.8c-0.1-0.1-0.2-0.2-0.3-0.3c0.3-0.2,0.5-0.5,0.8-0.7C242.1,85.9,242.1,86,242.2,86.1z
			"/>
		<path d="M279.7,101.6c-1,0-1.9,0.1-2.9,0.1c0-0.2,0-0.4-0.1-0.7c1-0.1,1.9-0.3,2.9-0.4C279.6,101,279.6,101.3,279.7,101.6z"/>
		<path d="M279.6,100c0.6-0.1,1.3-0.1,1.9-0.2c0,0.2,0.1,0.4,0.1,0.6c-0.6,0.1-1.3,0.3-1.9,0.4C279.7,100.6,279.6,100.3,279.6,100z"
			/>
		<path d="M174.8,383.3c0.2-0.3,0.5-0.5,0.7-0.8c0.1,0.1,0.2,0.2,0.3,0.3c-0.3,0.2-0.5,0.5-0.8,0.7
			C174.9,383.4,174.9,383.4,174.8,383.3z"/>
		<path d="M175,383.5c-0.2,0.3-0.5,0.5-0.7,0.8c-0.1-0.1-0.2-0.2-0.3-0.3c0.3-0.2,0.5-0.5,0.8-0.7
			C174.9,383.4,174.9,383.4,175,383.5z"/>
		<path d="M293.6,391.4c0.6,0,1,0,1.7,0c-0.5,1-0.9,1.9-1.7,3.7C293.6,393.2,293.6,392.4,293.6,391.4z"/>
		<path d="M250.3,94.1c1.2-1.2,1.7-1.7,2.2-2.2c0.4,0.5,0.8,0.9,1.5,1.7C253,93.7,252.1,93.8,250.3,94.1z"/>
		<path d="M269.9,413.6c-0.5,0.8-1,1.7-1.5,2.6C266.9,414.4,268.6,413.9,269.9,413.6z"/>
		<path d="M93.9,217.8c1.9-0.9,3-0.2,4,1.2C96,219.9,94.9,219.2,93.9,217.8z"/>
		<path d="M403.7,180.8c-0.8-0.8-2.2-1.2-1.2-3C403.3,178.7,404.8,179.1,403.7,180.8z"/>
		<path d="M205.4,405c-0.5,0-1.1,0-1.6,0c0-0.2-0.1-0.3-0.1-0.5c0.5-0.1,1.1-0.3,1.6-0.4C205.3,404.4,205.3,404.7,205.4,405z"/>
		<path d="M103.6,186.9c0,0.5,0,1.1,0,1.6c-0.2,0-0.3,0-0.5,0.1c-0.1-0.6-0.2-1.1-0.4-1.7C103,187,103.3,187,103.6,186.9z"/>
		<path d="M103.8,185.4c-0.3,0-0.7,0-1,0c0-0.1,0-0.2,0-0.3c0.3,0,0.7,0,1,0C103.8,185.2,103.8,185.3,103.8,185.4z"/>
		<path d="M209.7,105.5c0-2.1,0-3.4,0-5.3c1.2,0.9,2,1.5,3.2,2.3C211.9,103.6,211.1,104.3,209.7,105.5z"/>
		<path d="M389,158.2c0.1,0.5,0.1,1,0.4,1.4c0.2,0.4,0.7,0.6,1,0.9c-0.6,0.6-1,1-1.8,1.8c-0.1-1.6-0.2-2.8-0.3-4
			C388.5,158.3,388.8,158.2,389,158.2z"/>
		<path d="M228.3,406.7c-0.2-3,1.6-3.4,2.8-5.2C231.4,404.3,229.6,404.9,228.3,406.7z"/>
		<path d="M104.1,226.6c-0.7,1.3-1.2,2.4-1.9,3.9C102,227.6,102,227.6,104.1,226.6z"/>
		<path d="M152.2,382.7c0,0.6,0,0.9,0,1.6c-1.1-0.5-2-0.9-3.7-1.6C150.2,382.7,151.2,382.7,152.2,382.7z"/>
		<path d="M286.6,412.6c-1.1,0.9-2.1,1.8-3.6,3.1C283.8,413,283.8,413,286.6,412.6z"/>
		<path d="M339.6,114.6c0,0.3,0,0.7,0,1c-0.1,0-0.2,0-0.3,0c0-0.3,0-0.7,0-1C339.4,114.6,339.5,114.6,339.6,114.6z"/>
		<path d="M367.8,353.8c0-1,0-2,0-3c0.2,0,0.3,0,0.5,0c0,1,0,2,0,3C368.2,353.8,368,353.8,367.8,353.8z"/>
		<path d="M220.4,83.8c-0.6,0.1-1.3,0.1-1.9,0.2c0-0.2-0.1-0.4-0.1-0.6c0.6-0.1,1.3-0.3,1.9-0.4C220.3,83.2,220.4,83.5,220.4,83.8z"
			/>
		<path d="M220.3,82.9c0.2-0.3,0.5-0.5,0.7-0.8c0.1,0.1,0.2,0.2,0.3,0.3c-0.3,0.2-0.5,0.5-0.8,0.7C220.4,83,220.3,83,220.3,82.9z"/>
		<path d="M114.9,151.8c-3.8,0.2-4,0-3.8-2.6C113,149.1,113.4,150.9,114.9,151.8z"/>
		<path d="M230.2,396.5c0.6-0.1,1.3-0.1,1.9-0.2c0,0.2,0.1,0.4,0.1,0.6c-0.6,0.1-1.3,0.3-1.9,0.4C230.2,397,230.2,396.8,230.2,396.5
			z"/>
		<path d="M230.3,397.3c-0.2,0.3-0.5,0.5-0.7,0.8c-0.1-0.1-0.2-0.2-0.3-0.3c0.3-0.2,0.5-0.5,0.8-0.7
			C230.2,397.2,230.3,397.3,230.3,397.3z"/>
		<path d="M342,121c-0.5,0.9-0.9,1.7-1.5,2.7c-0.6-0.7-1-1.1-1.6-1.8c0.7-0.5,1.5-1.1,2.2-1.6C341.5,120.6,341.8,120.8,342,121z"/>
		<path d="M253.3,85c0-0.3,0-0.7,0-1c0.1,0,0.2,0,0.3,0c0,0.3,0,0.7,0,1C253.5,85,253.4,85,253.3,85z"/>
		<path d="M383.5,345.7c-0.8,0-1.2,0.1-1.9,0.1c0.4-1,0.8-1.9,1.4-3.4C383.2,343.9,383.3,344.7,383.5,345.7z"/>
		<path d="M127.8,141c0.7,1.4,1.3,2.5,1.9,3.9C127.7,144,127.7,144,127.8,141z"/>
		<path d="M377.6,166c0-0.8,0-1.2,0-1.8c0.5-0.1,0.9-0.2,1.5-0.3C379.8,165.3,379.8,166.1,377.6,166z"/>
		<path d="M235.1,409c0,0.9,0,1.3,0,1.9c-1,0-1.8,0-3.3,0C233.1,410.1,233.9,409.7,235.1,409z"/>
		<path d="M378.2,357.1c-0.3,0.5-0.7,1.1-1.3,2.1C376.7,356.8,376.7,356.8,378.2,357.1z"/>
		<path d="M246.9,406.6c0.5-0.2,1-0.4,1.9-0.8c0.1,1.2,0.2,2,0.3,3C247.6,407.8,247.6,407.8,246.9,406.6z"/>
		<path d="M265,407.9c0-0.5,0-1.1,0-1.6c0.2,0,0.3,0,0.5-0.1c0.1,0.6,0.2,1.1,0.4,1.7C265.6,407.9,265.3,407.9,265,407.9z"/>
		<path d="M234.7,413.5c0.5,0.7,0.9,1.4,1.5,2.3c-0.7,0-1.2,0.1-1.9,0.1c-0.1-0.8-0.1-1.4-0.1-2
			C234.3,413.9,234.5,413.7,234.7,413.5z"/>
		<path d="M352.9,370.4c0-0.5,0-1.1,0-1.6c0.2,0,0.3,0,0.5-0.1c0.1,0.6,0.2,1.1,0.4,1.7C353.5,370.3,353.2,370.4,352.9,370.4z"/>
		<path d="M355.9,129.3c0-0.5,0-1.1,0-1.6c0.2,0,0.3,0,0.5-0.1c0.1,0.6,0.2,1.1,0.4,1.7C356.5,129.2,356.2,129.2,355.9,129.3z"/>
		<path d="M338.3,105c0.5,0.3,1.1,0.7,2.1,1.3C338,106.5,338,106.5,338.3,105z"/>
		<path d="M90.1,202.4c0-0.5,0-1.1,0-1.6c0.2,0,0.3,0,0.5-0.1c0.1,0.6,0.2,1.1,0.4,1.7C90.7,202.4,90.4,202.4,90.1,202.4z"/>
		<path d="M303.1,406.1c-0.6,0-0.9,0-1.4,0c-0.1-0.5-0.2-1-0.4-1.7c0.6-0.1,1.1-0.2,1.8-0.4C303.1,404.8,303.1,405.5,303.1,406.1z"
			/>
		<path d="M143.1,126.6c0.9,0,1.3,0,1.6,0c-0.3,0.5-0.7,1.1-1.3,1.9C143.4,127.9,143.3,127.4,143.1,126.6z"/>
		<path d="M181.6,401.2c-1-0.1-1.9-0.1-3.2-0.2c0.9-0.7,1.3-1.2,2.1-1.8C180.8,399.7,181.2,400.4,181.6,401.2z"/>
		<path d="M413,222c-0.3,0-0.7,0-1,0c0-0.1,0-0.2,0-0.3c0.3,0,0.7,0,1,0C413,221.8,413,221.9,413,222z"/>
		<path d="M409.4,292.5c0-0.3,0-0.7,0-1c0.1,0,0.2,0,0.3,0c0,0.3,0,0.7,0,1C409.6,292.5,409.5,292.5,409.4,292.5z"/>
		<path d="M212.4,412.2c-0.3-0.2-0.5-0.5-0.8-0.7c0.1-0.1,0.2-0.2,0.3-0.3c0.2,0.3,0.5,0.5,0.7,0.8
			C212.5,412,212.4,412.1,212.4,412.2z"/>
		<path d="M212.5,412c0.3,0.2,0.5,0.5,0.8,0.7c-0.1,0.1-0.2,0.2-0.3,0.3c-0.2-0.3-0.5-0.5-0.7-0.8C212.4,412.1,212.5,412,212.5,412z
			"/>
		<path d="M378.5,142.9c0-0.4,0-0.8,0-1.4c0.6,0,1.2,0,1.7,0c0.1,0.2,0.2,0.3,0.3,0.5C379.9,142.3,379.2,142.6,378.5,142.9z"/>
		<path d="M203.6,90.6c-0.3,0-0.7,0-1,0c0-0.1,0-0.2,0-0.3c0.3,0,0.7,0,1,0C203.6,90.4,203.6,90.5,203.6,90.6z"/>
		<path d="M309.6,105.7c0-0.3,0-0.7,0-1c0.1,0,0.2,0,0.3,0c0,0.3,0,0.7,0,1C309.8,105.7,309.7,105.7,309.6,105.7z"/>
		<path d="M302.4,88.6c-0.3,0-0.7,0-1,0c0-0.1,0-0.2,0-0.3c0.3,0,0.7,0,1,0C302.4,88.4,302.4,88.5,302.4,88.6z"/>
		<path d="M393.9,179.8c0,0.3,0,0.7,0,1c-0.1,0-0.2,0-0.3,0c0-0.3,0-0.7,0-1C393.7,179.8,393.8,179.8,393.9,179.8z"/>
		<path d="M102.4,315.2c0,0.3,0,0.7,0,1c-0.1,0-0.2,0-0.3,0c0-0.3,0-0.7,0-1C102.2,315.2,102.3,315.2,102.4,315.2z"/>
		<path d="M291.5,408.8c0-0.6,0-0.9,0-1.4c0.5-0.1,1-0.2,1.7-0.4c0.1,0.6,0.2,1.1,0.4,1.8C292.8,408.8,292.2,408.8,291.5,408.8z"/>
		<path d="M104.6,303.8c0.3-1.2,0.5-1.8,0.7-2.4c0.2,0.5,0.4,0.9,0.4,1.4C105.7,302.9,105.3,303.1,104.6,303.8z"/>
		<path d="M139.3,356.7c0,0.7,0,1.3,0,2c-0.5,0-1,0-1.5,0C137.3,356.9,137.3,356.9,139.3,356.7z"/>
		<path class="st0" d="M285.6,285c-2.2,8.2-5.7,16-8.4,24.6c-9-3.2-18-6.4-26.4-11.4c-9.7,4.3-18.6,10.1-28.7,12.3
			c-5.3-7.6-6.6-16.4-9.8-24.5c-8.8-3.7-17.9-7-26.6-11.9c0.8-4.5,3-8.9,5.1-13.3c2-4.3,4.5-8.4,6.8-12.7c-2.1-3.9-4.3-7.9-6.3-12
			c-1.5-3-2.9-6-4.1-9.1c-0.5-1.3-0.3-2.8-0.4-4.5c8.1-4.5,16.4-8.4,26-10.6c3.2-9.2,6.3-19,12.7-26.9c4.7,1.1,8.6,3.4,12.9,4.9
			c4.2,1.5,7.7,5.1,11.7,7.8c4.6-1.1,8.3-4,12.3-6c3.9-2,8-3.8,12.2-5.9c0.8,1.2,2,2.5,2.7,4.1c3,6.3,6.7,12.3,8.3,19.3
			c0.6,2.6,2.8,3.5,4.7,4.2c6.1,2.2,11.8,5.1,17.2,8.6c1.1,0.7,2.5,1.2,3.9,1.8c-2.2,9.6-4.3,19.2-11.1,27c2,3.5,4.1,6.9,5.9,10.4
			c1.8,3.5,3.3,7.2,5.1,11.2C303.6,277.9,294.8,281.2,285.6,285z"/>
		<path class="st0" d="M155.7,190.7c1.5,0,3.5,0.6,4.6-0.1c1.8-1.1,3.4-0.7,5.1-0.8c1.6-0.1,3.5,0.4,4.9-0.1
			c1.6-0.7,2.7,2.2,4.1,0.2c0.5,0.5,1,1,1.3,1.3c0.6,2.4-0.4,4.7,0.9,7.2c0.9,1.7,0.2,4.2,1,6.4c0.9,2.1,0.5,4.7,1.2,6.9
			c0.6,1.8,1.9,3.5,2.2,5.5c0.1,0.6,0.6,1.1,0.7,1.7c0.1,0.6,0,1.3,0,1.6c-2.2,1.6-4.2,3-6.1,4.6c-3.8,3.3-7.6,6.8-11.7,9.8
			c-2,1.4-3.5,3.5-5.3,5.1c-0.8,0.7-1.8,1.1-2.6,1.5c-4.8-7.5-9.3-14.6-14-22c3.2-2.6-1.1-5.5,0.1-8.3c-1.2-2.6-2.5-5.2-3.9-8.2
			c2.6-1.9,6.3-2.4,9-4.4C150.4,196.3,152.9,193.4,155.7,190.7z"/>
		<path class="st0" d="M290.4,141.3c2-0.9,3.5-1.6,5.1-2.3c3.1,4.6,5.6,9.3,9,13.2c2.1,2.4,2.3,4.8,3,7.6c1.2,4.5,0.5,9,0.8,13.5
			c0,0.7-0.4,1.4-0.7,2.3c0.2,0.4,0.6,1,0.9,1.7c-0.4,0.3-0.7,0.6-1,0.6c-0.5,0.1-1,0.1-1.5,0c-8.8-0.8-17.4,1.5-26.2,1
			c-0.5,0-1.1,0.5-1.9,0.8c-2.5-2.1-3.6-5.4-5.3-8.3c-3.3-5.3-6.5-10.7-11.2-15.1c-0.6-0.5-1.3-0.9-2-1.5
			c6.5-4.8,12.5-9.2,18.3-13.5C282.4,141.3,286.7,141.3,290.4,141.3z"/>
		<path class="st0" d="M220.7,313.7c6,8.7,12.5,16.6,20.2,23.4c-2.4,4.9-11.6,13.7-18.3,17.6c-3.9-1.7-14.7-1.5-20.3,1.2
			c-3.8-5-8.1-9.7-13.5-13.8c-2.1-6.5-0.5-13.6-1-20.6C199,319.6,210.2,319.1,220.7,313.7z"/>
		<path class="st0" d="M142.3,293.4c-1,0-2.3,0-4,0c0.2-1,0-2,0.5-2.7c1-1.6,2.3-2.9,3.7-4.6c-1.4-3.9,2.3-7.9,0.2-11.8
			c0.8-0.8,1.8-1.6,2.6-2.7c3.3-4.5,6.2-9.2,10.9-13c7.5,6.5,15.4,12.4,24.6,16.5c-0.4,1.4-0.5,3.1-1.3,4.3
			c-1.1,1.6,0.1,3.5-0.7,4.6c-1.3,1.6-0.7,3.1-0.9,4.6c-0.1,1.5,0,3,0,4.4c0,1.6,0.6,3.7-0.2,4.8c-1.2,1.8,0.8,2.7,0.3,4.3
			c-0.5,1.5-0.1,3.2-0.1,4.7c-0.5,0.5-0.8,0.8-1.2,1.2c-0.2,0-0.4-0.1-0.6-0.1c-2.4-0.5-4.7-1.3-7.2-1.7c-5.3-0.7-10.5-2-15.5-4.3
			c-1.1-0.5-2.1-1.3-3.1-2.1c-1.2-1.1-2.3-2.4-3.5-3.4C145.5,295.5,144.2,294.7,142.3,293.4z"/>
		<path class="st0" d="M278.7,313.2c1,0.6,1.4,1,1.8,1c7.3,0.4,14.5,1.5,21.8,1c3.3-0.2,6.7-0.3,9.8,1.4c-0.3,0.5-0.7,1-1.1,1.6
			c0.4,0.5,0.8,1,1.2,1.5c-2,6.1-1.3,12.9-4.8,19.5c-6.1,2.9-8.8,9.7-12.4,15.8c-2.9-1.5-5.4-2.8-8.3-4.3c-2-0.1-4.3-0.2-6.7-0.8
			c-1.9-0.5-4.3,0.7-6,1c-1.8-1.2-3.3-2.1-4.6-3.2c-1.3-1-2.3-2.3-3.6-3.4c-1.3-1.1-2.8-2-3.9-3.2c-1.1-1.1-1.9-2.5-2.8-3.9
			c1.9-1.6,4.1-3.1,6-5c1.9-1.9,3.6-4.1,5.2-6.2c1.5-2,2.8-4.1,4.2-6.2C275.9,317.7,277.3,315.4,278.7,313.2z"/>
		<path class="st0" d="M357.9,203.3c-0.4,3-0.8,6.2-1.1,9.3c-0.3,3-0.5,6-0.6,8.6c-5.1,5.7-8.1,12.4-14.1,17
			c-3.9-3.4-7.7-7.1-11.8-10.3c-4-3-8.5-5.5-13-8.4c1.3-4.8,1.8-10.1,3.1-15.1c1.4-5.5,0.4-10.9,1-16.7c4,0,8.3-0.8,12,0.2
			c3.7,1.1,7.7-0.5,10.5,1.6c2.6,3.5,4.6,6.9,7.2,9.7C352.7,201,355.2,201.8,357.9,203.3z"/>
		<path class="st0" d="M321.5,306.2c-0.6-0.6-0.9-0.9-1.2-1.2c-0.4-5.2-0.3-10.4-1.4-15.4c-0.5-2.6-0.2-5.1-0.9-7.5
			c-0.7-2.4-0.9-4.6-0.8-7c1.7-2.3,4.8-1.9,6.9-3.7c1.7-1.5,4.5-1.6,6.4-3.5c1.8-1.8,4.4-3,6.4-4.6c2-1.7,3.7-3.6,5.6-5.5
			c5.8,3.6,10.2,8.7,14.9,13.3c0.6,2.1-0.5,4-0.7,5.9c-0.5,4.9-0.4,9.8,2.8,14.1c0.2,0.2,0,0.6,0,1.2c-7.3,2.5-12.8,7.7-16.9,13.9
			c-3.7,0.6-7.4-0.7-10.8,1.1C328.8,305.4,325.1,306.8,321.5,306.2z"/>
		<path class="st0" d="M223.7,180.9c-3.4-0.4-6.5-2.2-10.3-2.2c-3.7,0-7.3-1.3-11-1.7c-3.7-0.5-7.5-0.1-11.6-0.1
			c-0.3-4.8-0.3-9.4,1.4-14c0.6-1.6,0.4-3.5,0.5-4.7c1-2.4,1.6-4.5,2.8-6.2c1.3-1.9,3.7-3,4.7-5c1.4-2.7,4.6-4.4,4.4-8
			c-0.1-1.2,2.4-1.9,3.6-1.3c7.1,3.7,7.1,3.7,13.9,3.8c5.3,4.2,10.8,8.6,16.5,13.1C233.2,163.2,227.2,171.2,223.7,180.9z"/>
		<path class="st0" d="M310,212.5c-3.5-0.4-5.3-3.8-8.7-4.1c-2.9-0.3-5.7-1.9-8.5-2.8c-0.3-3.3-1.5-6.1-2.6-9
			c-1.1-2.8-2.1-5.5-4.6-7.4c0.5-1.7,1.4-2.4,3.1-2.5c2-0.1,4-0.6,5.8-1.4c1.4-0.6,2.6-0.3,4-0.2c1.4,0.1,3,1.5,4.5-0.2
			c0.4-0.4,2,0.3,3.3,0.5c1.4-1.6,3.7-0.1,5.6-0.7c0.5,1,0.9,1.8,1.2,2.3c-1.3,2.9-0.5,5.8-0.7,8.6c-0.2,2.8,0,5.6-0.9,8.5
			C310.5,206.7,310.4,209.6,310,212.5z"/>
		<path class="st0" d="M189.2,212.4c-0.5-0.5-1.4-1-1.3-1.4c0.3-3.7-2.8-6.8-2.1-10.5c-1.8-2.5-0.1-5.5-1.1-7.9
			c-1.1-2.6-0.6-5-0.8-7.5c0-0.3,0.1-0.6,0.2-1.3c4.9,0.5,9.9-0.9,14.8,0.8c4.4,1.5,9.3,0.7,13.7,4c-0.2,0.5-0.2,1.8-0.9,2.4
			c-1.9,1.8-2.8,4-3.5,6.5c-0.7,2.6-1.9,5.1-3,7.9c-2.5,1-5.3,2.3-8.2,3.1C193.9,209.2,191.4,210.4,189.2,212.4z"/>
		<path class="st0" d="M185,313.2c-0.6-2,0.4-4.1-1.2-5.7c-0.2-0.2-0.2-1,0-1.4c1.3-2.7,0.4-5.8,1.1-8.4c0.6-2.2,0.4-4.4,0.9-6.5
			c0.5-1.9,0.2-4.5,2.7-5.6c5.1,2.8,9.6,7,16.1,7.1c1.6,4.9,2.7,10.1,5.9,14.7c-1.3,3-4.7,3.2-7.3,3.7c-3.2,0.7-6.3,1.4-9.5,2
			C190.9,313.7,187.9,313.2,185,313.2z"/>
		<path class="st0" d="M250.2,308.3c2.2,1.7,5.2,2.4,7.8,4.3c1.6,1.2,4.1,1.1,6.2,1.7c0.9,0.2,1.7,0.7,2.9,1.1
			c-5.4,7.3-10.5,14.5-18.3,19.8c-3-3-6.3-5.9-9.1-9.2c-2.6-3-5.2-6.2-6.6-10.5c3.2-0.2,6.4-0.2,9.1-1.8
			C244.8,312.1,247.3,310.2,250.2,308.3z"/>
		<path class="st0" d="M181.5,231.7c0.9,5.8,3.4,10.5,6.4,15.3c-4.6,4.7-5,11.6-8.4,17c-7.7-2.8-13.2-8.4-19.3-14.1
			c0-0.2,0-1.3,0-2.6C166.3,241.3,173.6,236.4,181.5,231.7z"/>
		<path class="st0" d="M250.3,187.8c-5.3-3-10.1-5.7-14.9-8.5c0.4-5.1,8.8-17.8,14.8-22.1c6.4,6.6,10.1,15,14.9,23.1
			C260,182.7,254.5,184.1,250.3,187.8z"/>
		<path class="st0" d="M317.5,232.3c0.5,0,1-0.2,1.4-0.1c1,0.3,2.1,0.6,2.9,1.2c3.7,3,8.2,5.2,11,9.1c1.6,2.3,4.4,3.7,5.3,6.8
			c-3.3,3.1-6.1,6.5-10.2,8.6c-2.1,1.1-3.7,2.9-5.7,4.2c-1.7,1.2-3.5,2.1-5.9,1.4c-0.1-5.6-3-10.4-5.4-15.4
			C314.8,243.5,316.4,238,317.5,232.3z"/>
		<path class="st0" d="M308.7,283.4c0.9,1.7,1.8,3.2,1.6,5c-0.1,0.6-0.1,1.4,0.3,1.8c2.2,2.4,1.5,5.4,1.7,8.2
			c0.2,3.1,0.4,6.3,0.6,9.4c-0.9,0.4-1.9,1-3.1,1.3c-0.7,0.2-1.5,0-2.3-0.2c-0.6-0.1-1.2-0.7-1.7-0.6c-5.7,0.7-11.2-1.5-16.8-1
			c-0.4-0.5-0.9-0.9-1.2-1.3c0.9-2.1,1.5-4.5,2.9-6.1c1.7-1.9-0.3-4.6,1.8-6.2c-0.5-2.2,1.4-3,2.8-3.8
			C299.7,287.8,304,285.7,308.7,283.4z"/>
		<path class="st0" d="M411.9,251.7c-1.1,0.5-2.1,0.9-3.3,1.4c-1.6-1.2-4.7-0.8-4.5-3.9c1.4-1.4,2.6-2.7,4.1-4.2
			c1,0.5,2.3,1.3,3.7,2C411.9,248.6,411.9,250,411.9,251.7z"/>
		<path class="st0" d="M92.8,249.5c-0.6,1.1-1.2,2.1-1.9,3.3c-1.1,0-2.2,0-3.1,0c-1-0.8-2-1.6-3.1-2.4c0.9-1.5,1.6-2.9,2.4-4.2
			c1.2,0,2.3,0,3.6,0C91.4,247.2,92.1,248.4,92.8,249.5z"/>
		<path d="M270.8,189.7c0.8-2.1,2.4-0.5,4.1-1c2.9,6.1,5.8,12.1,8.3,17.5c0.6,2.9,1,5,1.4,6.8c8.6,3,16.3,6.6,23.7,11.5
			c0.8,5.1-1.4,9.7-2.8,14.4c-1.4,4.8-5.4,8.2-7.2,13.1c5.2,5.8,7.3,13.1,10.5,19.7c-3.5,3.6-19.5,10.7-24.7,11.2
			c-1.5,8.5-5.2,16.2-8.1,24.2c-9.1-2.2-17-6.7-25.2-10.9c-4.6,2.3-9.1,4.5-13.5,6.9c-4.5,2.4-9.4,3.5-14,5.6
			c-4.5-8-6.6-16.5-8.9-25c-1.3,0-2.6,0-3.2,0c-8-3.4-15.4-6.6-23-9.8c2.9-9.5,7.3-17.9,12.8-26c-3-3.4-5.7-7.1-7.2-11.7
			c-1.4-4.2-4.3-7.8-5-12.7c8.3-3.6,16.3-8.2,25.6-10.2c1.4-4.3,2.4-9.1,4.4-13.3c2.1-4.2,3.4-9,7.4-12.5c1.4,0.4,2.9,0.8,4.3,1.2
			c4.3,1.3,8.4,3,11.9,5.7c0.3,0.3,0.5,0.8,0.5,1c2.3,11.5-3.3,20.3-8.1,29c-3.4,6.3-8.7,11.4-13.4,16.7c-1.6,1.9-2.8,4.1-4.1,6.1
			c-1.1,1.7-2.3,2.9-4.9,1.1c0.3-5.4,2.9-10.1,6.2-14.3c4.9-6.3,9.8-12.4,11.1-20.2c-4.4,11.1-14.1,19.4-18.3,30.9
			c-1.3,1-2.8-0.3-4.2,0.7c-2.7,3.1-4.4,7.3-6.1,11.3c3.9,3,6.2,8,12.1,8c2.3-0.6,3.8-2.7,6.1-4.4c1.3-6.6,2.5-13.7,6.7-19.6
			c3.4-4.8,6.4-10,9.6-15c4.7-7.2,6.8-15.2,8-23.5c0.3-2.3-1-4.5-0.6-6.9c3.1,0.5,4.7,2.8,7.1,4.2c3.1-0.7,5.8-2.4,8.5-4.1
			C262.4,193.3,266.3,190.9,270.8,189.7c3,6.9,1.4,13.9-0.2,20.7c-1.9,7.9-6.1,14.9-9.6,22.1c-2.6,5.2-2.8,6.9-1.5,11.7
			c0.6-7.9,3.7-15.1,7-22.1c3.3-6.9,5-14.3,7.6-21.8c4.1,2.1,3.2,5,2.9,7.3c-0.8,6.4-3.5,12.2-5.8,18.2c-2.2,5.6-4.2,11.2-4.3,17.5
			c-0.1,6.6,0.9,12.3,5.5,17.2c0.8,0.8,1.3,1.9,0.6,3.2c-2.6,2.7-7.3,1.7-9.2,6.1c-4.2-3.3-9.2-3.4-13.4-5.6
			c-1.5-5.1,3.2-9.1,9.2-7.6c-0.4-1.8-1.7-1.8-3-1.7c-4.4,0.5-7.9,2.8-10.4,6.1c-2.2,2.8-5.5,4.6-6.7,8.3c-0.6,1.9-3.1,2.3-4.9,3.2
			c-0.9,1.9-1,4.1-1.6,6c2.5,4.5,6.5,5.8,11.7,4c7.7-2.5,15.5-4.2,23.7-2.3c1.8,0.4,3.5,0.9,4.7,2.7c0.2,3.5-2.3,4.8-5.2,5.1
			c-2.7,0.3-5.5,0.5-8.3,0.3c-11.1-0.8-21.7,1-30.5,8.5c9-7.8,19.7-8,30.4-5.9c6.7,1.4,11.8,1,16-4.8c1.8-2.5,4.9-4,5-7.6
			c-0.9-2.2-3.3-2.7-4.3-4.5c-5-0.6-9.1,0.3-13.7,2.3c-5.3,2.3-11.4,4.2-17.4,4.7c-2.7,0.2-5.3,0-7.1-2.5c-0.1-2.4,0.8-4.5,1.4-6.8
			c3-1.7,5.5-4,7.4-7c0.7-1.1,1.5-2.3,3.2-1.2c2.7,1.7,0.3,3.8,0.3,6.4c5.4,0.4,10.7,0.2,15.5-2.7c2.3-1.4,5.8-0.4,7.1-3.6
			c2.5-2.7,4.9,0.1,7.2,0.4c1.8,0.3,3.8,0.9,5.6,1.4c1.7,1,2,3,3.7,4.6c3.6,0.1,7.4-1.1,11.2-1.7c1.3-4.4,0.9-6.1-1.9-6.9
			c-0.3,0.3-0.7,0.5-1.1,0.6c-0.7,0.1-1.3-0.3-2.1-0.1c-0.4,2.7-1.3,5.3-4.5,5.9c-3.6-1.7,0-6-3.5-7.9c-3.9,0.7-7.8-0.8-11.4-3.1
			c-1.2-0.7-2.8-1.4-1.7-3.3c1.4-1.4,1.8-3,1.3-5c-0.5-1.9-0.7-3.9,0.7-5.5c4.5-0.8,7.2,3.4,11.2,3.8c3.2-2,2-6.5,4.7-8.6
			c3.4-0.6,2.2,2.9,3.8,3.8c2.3-3.8,2.3-3.8,1-15.9c0.6,7.8,0.6,7.8-1.8,11.6c-1.4,1.2-2.4-0.7-3.7-0.3c-1.7,1.1-2.1,4-6,3.5
			c0.4-6.6,3.8-13.1,2.4-19.2c-0.2,8-2.4,14.4-6.4,18.6c-4.3-1-5.5-3.1-3.8-7.9c1.6-4.3,2.8-8.7,3.5-13.8c-2.1,5.7-3.6,11-5.8,16.1
			c-2.2,4.9-2.7,9.8-0.8,14.8c0.7,1.7,0.8,3.2-0.9,4.3c-2.3,0.9-3.4-0.6-4.3-2.2c-2.1-4-2.9-8.2-1.8-12.8c1.8-7.3,3.9-14.5,7-21.4
			c1.4-3.1,2.1-6.3,2.4-9.7c0.3-3,0.1-5.6-2.2-8.2C272.4,196.9,272.4,192.9,270.8,189.7z"/>
		<path d="M144.2,219c0.3-4.7,0.3-9.9-3.3-14.6c2.5-2.5,5.8-3,8.4-4.9c2.6-1.9,4.8-4.3,7.6-6.8c1.2,0,2.9,0.3,4.4-0.1
			c1.5-0.4,2.7-1.8,4.2,0c1.1-1.2,2.6-0.9,4-0.8c1.5,0.1,3.4-0.8,4.2,1.3c1.5,8.7,2,17.6,6.4,25.7c-7.6,6.4-15.1,12.8-22.9,19.4
			c0,0-0.6,0-0.8-0.3c-2.7-4-5.4-7.9-8-11.9C147,223.9,145.9,221.8,144.2,219z"/>
		<path d="M305.2,156.5c0.6,2.8-0.7,5.7,1,8.5c0.4,0.7-0.5,2.3-0.9,3.4c0.3,0.4,0.7,0.7,0.8,0.9c-0.4,2.1-0.8,4.1-1.2,6.5
			c-1.2,0-2.6,0.1-4,0c-7.6-0.6-15.1,2-22.9,0.8c-3.6-7.7-9-14.6-14.5-21.7c3.8-4.3,8.4-7.6,13.1-10.7c1-0.7,2.1-1.2,3.5-1
			c1.6,0.2,3.3,0.1,4.9,0c1.8-0.1,3.5-0.1,5.2-0.4c1.5-0.3,2.9-1,4.5-1.6C297.7,146.8,301.6,151.5,305.2,156.5z"/>
		<path d="M238.5,337.7c-1.4,4-4.8,6.2-7.6,8.8c-2.6,2.4-5.8,4.2-8.5,6.1c-6.8-1.9-13-0.1-19.6,1c-3.1-4.4-7-8.6-11.8-11.8
			c-2.4-5.9-0.9-12.1-1.4-18.3c5.4-0.7,10.5-2,15.9-2.4c3.7-0.3,7.3-2.2,10.9-3.3c1.2-0.4,2.3-0.8,3.4-1.2
			C225.5,323.8,231.2,331.2,238.5,337.7z"/>
		<path d="M178.1,275.9c-0.8,3.3-1.8,6-2.1,8.7c-0.3,2.8,0,5.6-0.1,8.4c0,1.4,0,2.7-0.8,4.1c-0.6,1-0.6,3,0.5,4.6
			c0.9,1.2,0.8,3.1-0.7,4.2c-6.7-1.6-13.4-3.2-20.6-5c-3.6-3.5-7.2-8-13-9.7c3.4-4.6,3.3-9.7,3-14.7c3.9-5,6.8-10.8,11.9-14.9
			C163.1,266.8,170.1,272.1,178.1,275.9z"/>
		<path d="M279.7,315.1c1,0.6,1.4,1,1.8,1c7.6,0,15.1,1.7,22.8,1c1.6-0.1,3.2,0,4.9,0c0.6,6-0.4,11.6-1.8,17.1
			c-0.5,2-1.3,3.5-2.7,4.8c-0.2,0.2-0.5,0.5-0.7,0.7c-4.2,3.7-7.6,8-10.1,13.5c-5.8-5.8-12.9-4.3-19.4-4.5
			c-4.3-3.5-8.5-6.9-12.6-10.1c0-0.6,0-1.2,0.1-1.3c4.8-2.4,7-7.3,10.7-10.8c1-0.9,1.4-2.4,2.1-3.5
			C276.3,320.4,278,317.8,279.7,315.1z"/>
		<path d="M319.2,218.8c1-3,2.1-5.9,2-9.1c-0.1-3.3,1.9-6.3,2-9.5c0.1-3.3,0-6.6,0-10.2c2.2-0.5,4.5-0.1,6.7-0.2
			c2.1-0.1,4.3-0.2,6.4,0c2.1,0.2,4.2,0.9,6.5,1.4c6.3,9.1,7.7,10.5,13,12.8c-0.3,2.3-0.8,4.8-1,7.2c-0.2,2.6,0,5.2,0,8
			c-4.1,5.6-8.2,11.3-12.4,17C335.6,229.1,327.5,223.8,319.2,218.8z"/>
		<path d="M356.5,291.3c-5.4,3.7-11.7,6.7-14.6,12.8c-2.4,0.8-4.7-0.8-6.4,1.2c-2.2-0.3-4.5,0.6-6.6-0.6c-1.4-0.8-3-0.7-4.2,0.4
			c-0.8-0.3-1.4-0.7-2.5-1.2c0-2.2,0.8-5-0.2-6.9c-1.2-2.5,0-4.9-0.9-7c-1-2.3-0.1-5-1.1-6.9c-1.3-2.5-0.3-4.7-0.9-7.2
			c4.4-2.1,9.1-3.4,12.8-6.5c3.7-3.1,7.3-6.3,11.2-9.7c2.1,1.9,4,4.5,6.6,5.9c2.9,1.6,3.8,4.6,6.1,6.6c0.2,3.2-1.7,6.1-1,9.4
			C355.4,284.6,355.9,287.7,356.5,291.3z"/>
		<path d="M206.9,139.4c3.7,2.4,7.8,3.3,11.9,3.8c2.5,0.3,4.6,1.3,6.3,2.6c3.6,2.6,6.8,5.8,10,8.6c0.5,3.4-2.1,5.1-3.3,7.4
			c-1.7,3.3-4.4,6-6.1,9.4c-1.2,2.4-1.9,5.1-3.5,7.4c-9.7-2.7-19.6-2.5-29.5-3.9c-0.4-3.6-0.2-7.2,1.3-10.6c0.3-0.6,0.5-1.2,0.5-1.8
			c-0.1-5.8,2.7-10.2,6.5-14.1C203.6,145.7,205.4,142.8,206.9,139.4z"/>
		<path d="M288.7,189.1c6.9-3.4,14.1-2,21.7-2.4c-0.8,3.9,0.4,7.6-0.9,11.5c-1.1,3.4,0.3,7.6-1.5,11c-4.1-2.3-8.4-4.3-13.3-4.9
			C294.4,198.7,291.1,194.2,288.7,189.1z"/>
		<path d="M203.6,203.9c-4.7,2.4-9.5,2.7-13.6,5.6c-3.1-7.6-3.7-15.5-4.4-23.4c8.5-1.2,16.2,0.6,24.3,3
			C207.1,194.1,205,198.9,203.6,203.9z"/>
		<path d="M188.9,288.6c5,1.9,9,5.5,14,5.6c1.7,4.7,3.3,9,5,13.7c-7,1.9-13.6,3.7-20.7,3.3c-1.1-2.3-2.7-4.6-0.6-7.3
			c0.3-0.4,0.1-1.3,0.1-1.9c0.3-3.5,0.6-7,1-10.4c0.1-0.6,0.7-1,0.9-1.6C188.9,289.6,188.9,289.1,188.9,288.6z"/>
		<path d="M263.8,316.4c-4.1,6.4-8.9,11.7-14.3,16.6c-4.6-4.8-9.8-9.1-13.1-15.4c4.4-1.3,9-2.4,12.1-6.3c1.4,0,3.1-0.5,3.9,0.1
			C255.8,313.9,260.1,314.3,263.8,316.4z"/>
		<path d="M178.1,262.2c-5.9-4.2-11.6-7.9-16.3-12.9c3.6-4.4,13-11.7,18.7-14.3c-0.3,3.7,1.8,6.5,3.3,9.4c1.2,2.2,0.9,3.7-0.1,5.7
			c-1.7,3.2-3.2,6.6-4,10.2C179.6,260.9,178.8,261.4,178.1,262.2z"/>
		<path d="M249.8,159.9c0.6,0.3,0.9,0.4,1.1,0.6c0.4,0.3,0.8,0.6,1,1c3.4,5.8,6.7,11.6,10.3,17.8c-5,1-8.3,4.7-12.6,6.1
			c-4.1-2.3-8.2-4.7-12.4-7.1C238.3,174,245.1,164.3,249.8,159.9z"/>
		<path d="M313.2,248.8c3-4.5,4.5-9.7,6.2-14.6c6.7,3.7,12.1,8.6,16.5,14.6c-2.1,2.8-8.8,7.9-17.5,13.1c-0.5-2.3-0.8-4.6-1.6-6.8
			C316,253.1,314.6,251.2,313.2,248.8z"/>
		<path d="M294.6,292c4.7-2.2,9-4.1,13.3-6.1c1.8,6.7,3.1,13.8,2.1,21.4c-3.3,0.3-6.4-1.3-9.8-1.1c-3.1,0.2-6.2-0.6-9.6-1
			C292.1,300.6,294.9,296.5,294.6,292z"/>
		<path class="st0" d="M274.7,254c2.6,2.4,6,3.3,9.4,4.7c1.4-0.6,3-1.2,4.7-2c-0.5-1.1-0.8-1.9-1.1-2.8c4.3,0.4,1.8,4.5,3.8,5.9
			c-0.3,2.3-0.6,4.5-1,6.8c0.2,0.1,0.4,0.2,0.6,0.3c0.5-1,1.1-2,1.6-3c0.3,0.2,0.6,0.3,0.9,0.5c-0.2-1.9-0.3-3.8-0.7-5.6
			c-0.3-1.6-1-3.1-1.6-4.7c2-0.5,2.5,0.6,3.1,1.8c1,1.6,1.1,3.8,2.9,4.9c-0.1-0.9,0.1-2.1-0.4-2.8c-1.3-1.7-0.2-3.4-0.8-5.7
			c1,0.9,1.4,1.1,1.6,1.5c1.6,2.9,3.1,6,4.9,8.8c1.9,2.9,2.2,5.7,0.3,8.8c-3.4,1.4-3.4,1.4-6.6-0.3c-1.4,1.4-2.7,2.7-3.9,3.9
			c-2.5-1.3-2.5-1.3-5.7-1.3c-1.1-2-3.7-3.6-1.1-6.9c-5,0.8-8.8-1.9-13.1-3c-0.9-1.1-1.8-2.2-2.8-3.3c-3.2-3.5-5-7.5-5.1-12.2
			c0-1.8,0.1-3.6,0-5.4c-0.2-6.2,2-11.9,4.3-17.5c2.2-5.4,4.3-10.7,5.7-16.4c0.6-2.5,0.9-4.9,0.8-8.1c-1.8,5.8-3.3,10.9-4.8,15.9
			c-0.4,1.2-0.8,2.3-1.4,3.4c-2.6,5.3-4.9,10.8-6.6,16.5c-1,3.2-1.2,6.7-0.4,9.3c0.3,1.2,0.5,2.4,0.7,3.8c-1.8,0-3.2,0-4.7,0
			c-1-0.6-2.1-1.3-3.3-1.9c0-2.1,0-4.2,0-6.3c0.6-1,1.6-2,1.7-3.1c0.9-6,4.5-10.7,7.1-15.8c1.4-2.7,2.5-5.5,3.5-8.4
			c2.4-6.9,3.7-14,3.2-21.3c0-0.6-0.5-1.1-0.8-1.7c0.2-0.4,0.5-0.9,0.8-1.4c4.1,2,3.9,6.3,5.3,9.8c0.5,0.1,0.9,0.2,1.8,0.4
			c0.2,3.1,0.5,6.2,0.7,9.3c0.2,2.9-0.9,5.5-2,8c-3,7-6,14.1-6.9,21.8c-2.3,4.2-0.6,8.2,1,12.1c0.5,1.3,1.4,2.1,3,1.8
			c0,0,0.4-0.1,0.4-0.1c0.3,0.1,0.5,0.3,0.6,0.6C274.8,253.5,274.7,254,274.7,254z"/>
		<path class="st0" d="M242.6,195.7c0.8,1.2,1.4,2.3,2,3.3c0.1,0,0.1-0.1,0.2-0.1c0.1,0.1,0.2,0.3,0.2,0.4c-0.1,3.1,0.1,6.2-0.5,9.2
			c-0.8,3.9-2.2,7.6-3.4,11.4c-0.1,0.3,0.1,0.8,0,1c-5,6.2-8,13.6-12.8,19.9c-3.2,4.3-5.7,9.1-6.1,14.8c-0.2,2.9-1.3,5.7-2,8.9
			c-1.7,1.8-3.5,4.1-7.3,4.5c-0.5-1-1.1-2.4-1.8-3.8c-0.3,0.3-0.7,0.5-1,0.8c-1.2,0.6-2.3,1.2-3.5,1.9c-0.9-0.4-1.9-0.8-3.4-1.5
			c-0.3-2.2-0.7-4.6-1.1-7.3c-2.7,1-1.7,5.7-5.4,5.8c2.5-11.3,6.7-19.3,13.7-26.1c-0.4,2-0.7,3.5-1,5.1c0.2,0.1,0.4,0.1,0.7,0.2
			c0.7-1.7,1.4-3.4,2.1-5.1c2.2-5,5.6-9.2,8.7-13.7c0.4-0.5,1.1-0.9,1.3-1.4c1.2-2.9,3.4-5.3,4.7-7.9c1.1-2.3,2.2-4.7,3.2-7.1
			c0.4-0.9,0.1-2.1,0.1-3.2c0.8,0,1.1,0,1.8,0c0.7,4.1-0.1,8-1.3,12c-1.7,5.5-4.4,10.1-8.3,14.4c-2,2.2-4.2,4.5-5.1,7.7
			c-0.8,2.8-2.5,5.4-3.9,8.1c0.6,0.2,0.9,0.2,1.3,0.4c3.4-6.2,8.3-11.3,12.8-16.7c4.1-4.8,7.6-9.9,9.9-16.1c1.5-4.3,3-8.6,4.4-13
			c0.6-1.6,0.2-3.5,0.3-5.3C242.2,196.4,242.5,196,242.6,195.7z"/>
		<path class="st0" d="M238.8,277.7c4,3.4,7.6,1.1,11.1,0.5c4.4-0.8,8.3-3.1,12.4-4.7c2.4-0.9,4.6-1.9,7.1-1.8c0.3,0,0.7,0,1,0
			c7.5-1.3,13.5,2,16,7.4c-2.8,2.1-5.5,4.3-8.2,6.4c-1.9,1.5-3,3.6-3.9,5.8c-1.2,2.9-3.4,4.3-6.6,4.1c-0.5,0-1,0-0.7,0
			c-4.8-2-8.8-4.1-13.5-4c-2.3,0.1-4.6-0.1-6.9,0c-6.3,0.5-12.1,2.6-16.9,6.8c-2,1.8-4.2,3.4-6.3,5c-0.1,0.1-0.6-0.1-1.2-0.3
			c3.7-8.2,11.1-11.8,19-15.5c1.1,0,3.2,0.6,4.3-0.1c3.2-2.2,7.2,0.8,10.1-1.8c1,0.3,2,0.9,3,0.9c2.6,0.1,5.3,0,7.9,0.1
			c2.4,0,4.1-1.1,5.8-3.4c-1.9-0.6-3.3-1.2-4.7-1.5c-1.5-0.3-3.2,0.3-4.6-1c-0.3-0.3-1.3-0.2-1.9,0c-6.5,1.3-13.2,1.5-19.2,4.9
			c-1.6,0.9-3.4,1.4-5.3,2.1c-1.1-1.8-3.6-2.5-3.6-5.3c0-1.1-1.8-2.2-2.5-3c-0.5-1.8-1-3.3-1.5-5c4.2-3.8,8.3-7.7,12.5-11.4
			c1.4-1.3,3.9-3.9,4.8-5.8c0.9-2,1.9-3.6,4.4-3.4c0.2,0,0.5-0.4,0.7-0.7c0.3,0.3,0.7,0.6,1.2,1.1c3.1-1.2,6.3-2.8,9.9-1.9
			c1.4,2,1.9,4.1,0,6.3c-2,1.3-4.1,2.8-6.3,4.2c-0.4-0.4-0.7-0.7-0.8-0.8c1-1,1.9-1.9,2.9-2.9c-0.9-0.9-1.3-1.4-1.8-1.9
			c-2.6,1.2-4.4,3-6,5.5c-2.4,3.8-5.6,7.1-8.4,10.6C241,274.6,240,276.1,238.8,277.7z"/>
		<path class="st0" d="M256.2,199.7c3.2,1.3,0.4,4.8,2.7,6.4c-0.3,1.2-0.8,2.3-0.9,3.5c-0.3,2.5-1.2,4.7-2.4,6.9
			c-2.4,4.4-6,7.7-9.7,11.5c2.1,0,3.9,0,5.8,0c1.2,1.6,2.3,3.1,3.2,4.4c1,5.9-0.9,10.7-3.8,15.4c-0.3,0.5-0.5,1.2-0.9,1.6
			c-5,5.4-9.6,11.1-15.1,15.9c-3.7,3.1-6,7.1-9.1,10.6c-1.4,1.6-1.8,4.2-2.5,6.3c-1,2.9-2.1,5.8-2.8,8.7c-0.5,2.3-0.6,4.7,1.2,7.1
			c-0.8,0.2-1.4,0.4-2,0.5c-0.7-2.7-1.4-5.2-2.2-8.1c0.2-0.7,0.6-1.9,0.8-3.1c0.2-1.3,0-2.6,0-3.9c1.6-3.4,3.4-6.8,4.9-10.3
			c1.5-3.6,3.7-6.5,6.4-9.2c3.9-4.1,7.9-8.1,11.5-12.6c1.8-2.2,4.1-4.4,4-7.7c0-0.3,0.6-0.7,0.8-1c-0.6-1.1-1.3-2.2-1.9-3.2
			c-3.6-1.2-6.3,0.2-8.6,2.8c-2.3,2.6-5.1,5.1-6.9,8c-1.6,2.7-2.3,6-3.3,9c-0.4,1.2-0.9,2.4-1.6,4.1c-1.2-5.5,0.1-10.2,1.7-14.5
			c1.5-4,4.2-7.5,6.6-11.1c2.7-4,5.7-7.9,8.7-11.7c3.5-4.5,6.3-9.6,9.4-14.4C252.8,208,254.9,203.9,256.2,199.7z"/>
		<path class="st0" d="M273.7,253c-0.9-2.9-1.9-5.8-2.9-9.1c0.2-0.3,1-1.1,0.9-1.6c-0.6-4.2,1.6-7.6,3.1-11.1
			c1.9-4.4,2.9-9,4.7-13.4c0.9-2.1,0.1-4.8,0.1-7.1c0.7-0.1,1-0.1,1.3-0.2c1.2,1.5,1.6,3.2,1.7,5.1c0.2,6.2-0.7,12.2-3.6,17.8
			c-0.6,1.2-0.4,2.8-0.6,4.3c0.8,0.6,1.6,1.2,2.8,2c1.5-4.2,3.3-8,4.2-12c0.9-4,1-8.2,1.5-12.7c1,1.5,1.7,2.6,2.6,3.9
			c0,2.9-0.1,6.1,0,9.2c0.2,3.7-0.7,7.1-2.7,10.3c-0.2,0.4-0.2,0.9-0.4,1.4c2.5-1.7,4.8-6.2,5.4-10.4c0.3,0,0.6-0.1,1.4-0.2
			c0.1,1.4,0.2,2.7,0.2,4.1c0,1.3,0,2.5,0,4.6c3.2-4.9,1.4-9.5,2.1-13.8c-1.1-1.8-2.2-3.5-3.5-5.6c1,0,1.8-0.2,2.1,0
			c2.3,1.8,3.4,4.4,4.2,7.1c0.5,1.5,0.8,3,1,4.5c0.2,1.6,0,3.3,0,4.9c0.2,4.3-0.2,8.5-2.8,12.2c-0.5,0.7-0.4,1.7-0.6,3.1
			c-1-1.6-1.8-2.8-2.8-4.4c0-2,0-4.4,0-8.1c-2.2,6.4-2.3,12.8-8.4,16.4c-0.4-2.4-0.8-4.2,0.5-6.1c-1-0.2-2.2-0.2-2.7-0.7
			c-1.5-1.9-3.5-2.6-5.6-3.2c-0.7,3.5,0.3,5.8,4.4,10.2c-2.4,1.6-4.5-1.2-6.8-0.6C274.4,253.6,274.1,253.3,273.7,253z"/>
		<path class="st0" d="M203.6,228.1c-0.3,0.8-0.8,1.7-1.2,2.6c2.3,1.6,4.1-0.6,6.7-0.4c0.2,0.5,0.5,1.4,1,2.9c0.2-0.7,0.2-0.3,0-0.2
			c-2.6,1.7-5.3,3.2-7.8,5c-1.1,0.8-1.7,2.1-2.7,3.5c-3.1-3.5-2.1-8.9-5.9-11.6c-0.4-3.3,1.2-5.6,3.6-7.6c2.2-0.3,4.6-0.5,6.9-1.1
			c2.4-0.6,4.4-2.1,6.5-3.4c1-0.7,2-1.5,3.1-2.1c1.3-0.7,2.5-0.2,3.4,0.9c0.4,5,0.4,5-4.3,13.6c-1.7,0.2-1.4-1.1-1.2-2
			c0.1-0.9,0.8-1.7,0.9-2.6c0.2-1,0-2,0-3.5c-1.2,0.5-1.7,1.6-2.5,2c-1.1,0.6-2.3,0.9-3.3,1.5C205.7,226.3,204.9,227.1,203.6,228.1z
			"/>
		<path class="st0" d="M272.7,263.8c0.5,0.8,1.1,1.5,1.8,2.6c-0.8,0.4-1.8,0.8-2.8,1.3c-0.9,0.8-2.7,1.6-4.3,0.3
			c-0.9,0.5-1.9,1.6-2.9,1.6c-1.6,0.1-2.6,0.7-3.8,1.6c-0.9,0.7-2.2,0.8-3.4,1.1c-2.2-0.3-4.5-0.6-6.8-0.9c-2.5,0.5-2.8,3.7-5.6,4.5
			c0.8-3.4,2.7-5.7,3.7-8.3c0.5-1.3,1.8-2.3,1.4-3.8c3.9-0.7,7.6,1.1,11.5,1c0.6,1.2,1.1,2.5,1.9,4.1c0.6-2.1,1.2-3.9,1.8-5.8
			C267.6,262.2,270.2,263.2,272.7,263.8z"/>
		<path class="st0" d="M230.6,201.5c-1.5-1.1-2.5-1.8-4.4-3.1c1.3-0.4,2.1-0.7,2.9-1c-0.2-0.2-0.4-0.4-0.6-0.6c1.1,0,2.2,0,3.2,0
			C234.1,200,233.6,201,230.6,201.5z"/>
		<path class="st0" d="M275.7,296.8c0,1,0,1.9,0,2.7c0,0.2,0,0.3-0.1,0.9c-0.9,0.4-2,0.9-3.4,1.5c-0.7-1.4-1.2-2.5-1.9-3.7
			c1.2-0.9,2.1-1.6,3.1-2.4C273.8,296,274.6,296.3,275.7,296.8z"/>
		<path d="M300.2,266.9c0.1-1.3,0.3-2.6,0.4-3.9c0.3,0.1,0.7,0.1,0.7,0.2c1,1.9,1.4,3.9,1,6.4c-0.8,0.4-1.9,0.9-3.1,1.5
			c-1.3-1.6-2.3-2.9-3.6-4.4c-0.5,1.1-1,2.2-1.4,3.2c-0.9,0.9-1.9,1.7-2.9,2.7c-1.2-0.5-2.8-1.1-4-1.6c-2.1-2.6,1.1-4.8,0.1-7
			c-4.5,1.9-8.6,0.7-12.5-1.5c-4.7-2.6-6.1-7.5-8-11.9c-0.7-1.6-0.8-3.5-0.5-5.5c0.5,1,1.2,1.9,1.4,3c0.8,3.9,3.2,6.4,6.7,8
			c1.1,0.5,2.2,1.1,3.2,1.8c3.7,2.3,7.5,2.9,12,0.7c-0.3,3.1,0.7,5.8-1.4,8.7c0.7,0.2,1.6,0.5,2.4,0.7c0.8,0.9,1.8-0.2,5.2-5.1
			C296.9,264.5,297.6,266.6,300.2,266.9z"/>
		<path d="M265.3,224.6c-1.9,4.9-3.5,9-5.4,14c0,0.9-0.1,2.9,0,4.8c0.2,1.8,0.7,3.5,1.1,5.6c-1.3-0.7-2.3-1.1-3.2-1.6
			c-0.3-0.2-0.5-0.5-0.8-0.8c0-1.8,0-3.8,0-5.9c1.2-2.5,2.6-5.3,3.8-8C262,230.2,262.1,227,265.3,224.6z"/>
		<path d="M272.3,206.9c-1.8-4.3,1.5-7.5,0.7-11.2C274.6,199.4,273,202.9,272.3,206.9z"/>
		<path d="M274.5,216.3c0.5-1.9,1-3.9,1.7-6.2C277.4,212.9,276.1,214.7,274.5,216.3z"/>
		<path d="M267.7,235.9c0,1.5,0,2.7,0,4c-0.4-0.1-0.8-0.2-0.8-0.3C267.1,238.5,266.1,237,267.7,235.9z"/>
		<path d="M267.9,236c0-0.8,0-1.7,0-2.8C268.8,234.9,268.8,234.9,267.9,236z"/>
		<path d="M274.7,216.4c-0.4,1,0.9,2.5-1,3C274.1,218.4,272.8,216.9,274.7,216.4z"/>
		<path d="M268.9,216.3c0-0.8,0-1.7,0-2.8C269.8,215.1,269.8,215.1,268.9,216.3z"/>
		<path d="M267.6,219.5c0,0.5,0,1.1,0,1.6c-0.2,0-0.3,0-0.5,0.1c-0.1-0.6-0.2-1.1-0.4-1.7C267.1,219.6,267.3,219.6,267.6,219.5z"/>
		<path d="M271.9,208.1c-0.3,1.2-0.5,1.8-0.7,2.4c-0.2-0.5-0.4-0.9-0.4-1.4C270.8,208.9,271.1,208.8,271.9,208.1z"/>
		<path d="M267.6,218.8c0.3-1.2,0.5-1.8,0.7-2.4c0.2,0.5,0.4,0.9,0.4,1.4C268.8,217.9,268.4,218.1,267.6,218.8z"/>
		<path d="M269.6,228.7c0.4-1.3,0.5-1.8,0.7-2.4c0.2,0.5,0.4,0.9,0.4,1.4C270.7,227.8,270.4,228,269.6,228.7z"/>
		<path d="M272.6,221.8c0.3-1.2,0.5-1.8,0.7-2.4c0.2,0.5,0.4,0.9,0.4,1.4C273.7,220.9,273.3,221.1,272.6,221.8z"/>
		<path d="M271.9,223.8c-0.4,1.3-0.5,1.8-0.7,2.4c-0.2-0.5-0.4-0.9-0.4-1.4C270.8,224.8,271.1,224.6,271.9,223.8z"/>
		<path d="M298.2,260.8c0.1,0.6,0.1,1.3,0.2,1.9c-0.2,0-0.4,0.1-0.6,0.1c-0.1-0.6-0.3-1.3-0.4-1.9
			C297.6,260.9,297.9,260.9,298.2,260.8z"/>
		<path d="M269.6,212.9c0.3-1.2,0.5-1.8,0.7-2.4c0.2,0.5,0.4,0.9,0.4,1.4C270.7,212,270.4,212.2,269.6,212.9z"/>
		<path d="M264.8,225.3c0.1-0.7-0.5-1.9,1-2C265.7,224.1,266.3,225.2,264.8,225.3z"/>
		<path d="M269.8,231.9c-0.3,0-0.7,0-1,0c0-0.1,0-0.2,0-0.3c0.3,0,0.7,0,1,0C269.8,231.7,269.8,231.8,269.8,231.9z"/>
		<path d="M272.7,223c-0.3,0-0.7,0-1,0c0-0.1,0-0.2,0-0.3c0.3,0,0.7,0,1,0C272.7,222.8,272.7,222.9,272.7,223z"/>
		<path d="M265.7,223.2c0.2-0.3,0.5-0.5,0.7-0.8c0.1,0.1,0.2,0.2,0.3,0.3c-0.3,0.2-0.5,0.5-0.8,0.7
			C265.8,223.4,265.8,223.3,265.7,223.2z"/>
		<path d="M273.7,253c0.3,0.3,0.7,0.7,1,1C274.4,253.6,274,253.3,273.7,253z"/>
		<path d="M235.2,225.3c-0.3,1.2-0.4,2.5-1.1,3.5c-2.7,4.2-5.8,8.1-8.2,12.4c-2.7,4.6-5.2,9.4-5.6,14.9c-0.2,2.9-1.4,5.6-2.1,8.5
			c-2.7,1.9-2.8,1.9-5.5,2.1c0-1.1,0-2.2,0-3.1c-0.6-0.6-1.1-1.1-1.8-1.8c-0.2,2.9-2.5,3.2-4.6,4.2c-0.4-0.4-0.9-0.8-1.3-1.2
			c-1.7-3.7,1.2-7.1,0.5-10.6c-3-1.1-2.1,3-4.9,2.7c2.2-3.6,3.2-7.7,6-10.8c0,2.1,0,4.3,0,6.4c0.5,0.5,0.9,0.9,1.4,1.4
			c0.2-0.2,0.5-0.3,0.6-0.6c1.9-4.2,2.9-8.6,4.8-12.8c2.4-5.1,5.6-9.6,8.7-14.1c1.9-2.7,3.3-5.6,5.3-8.2c0.5-0.6,1-1.2,2-1.5
			c-0.2,0.6-0.4,1.3-0.6,1.9c-1.9,5.6-5.5,10-9.4,14.4c-2.6,3-4.3,6.7-5.8,10.4c-0.2,0.4-0.5,0.8-0.7,1.1c-0.3,1.9-0.6,3.7-0.9,5.8
			c0.3,1.7,0.6,3.7,1,5.7c0.4,0,0.9,0,1.6,0c-0.5-5.4,3-9,5.7-12.9c2.2-3.2,5.1-5.8,7.6-8.7c1.6-1.9,3-4,4.5-6
			C233.1,227.2,234.2,226.3,235.2,225.3z"/>
		<path d="M235.2,225.3c0.2-0.7,0.4-1.5,0.7-2.2c1.4-3.3,2.8-6.6,4.3-9.9c0.1-0.3,0.6-0.5,1-0.8C240.8,216.8,238,222.7,235.2,225.3z
			"/>
		<path d="M241.2,212.3c0-0.8,0-1.7,0-2.8C242.1,211.2,242.1,211.2,241.2,212.3z"/>
		<path d="M206.4,246c0.2-0.3,0.5-0.5,0.7-0.8c0.1,0.1,0.2,0.2,0.3,0.3c-0.3,0.2-0.5,0.5-0.8,0.7C206.5,246.1,206.5,246,206.4,246z"
			/>
		<path d="M234.5,292.2c1.9-0.9,3.2-1.4,4.4-2c2.1-0.9,4.3-1.7,6.7-1.8c2.7-0.1,5.3-0.7,8-0.9c2.6-0.2,5.3,0,7.9,0
			c1,0,2.3-0.4,2.9,0.1c1.6,1.6,2.8,0.7,4.2-0.1c0.4-0.2,1,0,1.7,0c1.1-1.7,3.8-2.4,3.4-5.4c-1.4-0.7-2.9-1.5-4.5-2.3
			c-4.8,0-10-0.8-14.9,0.2c-5.4,1.1-11.2,2-16.1,5.8c-3.7-2.3-4.4-6.7-7-9.7c0.5-1.6,1.3-2.7,2.7-3.8c4-3,7.5-6.6,11.2-10
			c0.9-0.8,1.5-2,2.1-3.1c1.2-2.2,2.3-4.5,5.5-3.5c2.7-1.4,5.6-2.2,8.8-1.5c1.1,1.4,0.2,2.5-1.2,3.8c-0.2-0.6-0.4-1-0.7-1.8
			c-3.8-0.5-6.8,0.1-9.8,4c-4.1,5.4-7.2,11.6-12.6,15.9c-0.7,2.4,0.9,3.7,2.4,4.4c1.3,0.6,2.9,2.5,4.6,0.5c3.3,0,6.3-1.4,9.4-2.3
			c1-0.3,2.1-0.5,3-1c3.2-1.8,6.7-3,10.2-3.9c1.4-0.4,2.8-0.4,4.2-0.9c1.5-0.5,3,0,4.5,0.8c0.9,0.5,2.3,0.1,3.5,0.1
			c0.7,2.3,5.4,1.6,4.3,5.5c-3.9,2.5-7.8,5-9.8,9.6c-1.1,2.5-2.6,4.7-5.4,5.4c-2.5-1.1-5-2.7-7.8-3.3c-2.7-0.6-5.4-1.7-8.4-1.4
			c-3,0.3-6,0.5-9,0.8C240.3,290.6,238.2,293.3,234.5,292.2z"/>
		<path d="M230.2,295.5c0.1-1.5,1.2-0.8,2-1C232.1,295.9,231,295.3,230.2,295.5z"/>
		<path d="M235.2,292.5c-0.1,1.5-1.2,0.8-2,1C233.3,292,234.4,292.6,235.2,292.5z"/>
		<path d="M229.4,296.5c-0.2,0.3-0.5,0.5-0.7,0.8c-0.1-0.1-0.2-0.2-0.3-0.3c0.3-0.2,0.5-0.5,0.8-0.7
			C229.2,296.4,229.3,296.5,229.4,296.5z"/>
		<path d="M229.2,296.4c0.3-0.3,0.7-0.7,1-1C229.9,295.8,229.6,296.1,229.2,296.4z"/>
		<path d="M233.2,293.5c-0.3,0.3-0.7,0.7-1,1C232.5,294.1,232.9,293.8,233.2,293.5z"/>
		<path d="M231.2,243.1c0-0.5-0.2-1.2,0-1.5c4.8-5.3,8.4-11.4,12.8-17c3.4-4.4,6-9.3,8.9-14c1.1-1.7,2-3.5,3.4-5.7
			c1.3,3.2-0.6,5.3-1,7.6c-0.7,3.1-4.2,8.2-6.5,10.6c-2.5,2.5-5.2,4.8-7,8c-0.5,0.9-0.5,1.9-0.5,3.1c2.2-2.6,5.1-3.7,8.4-4.5
			c0.4,0.2,1.2,0.6,2.2,1c2.7,6.4,0.7,12.1-3.3,17.2c-2.2,2.9-4.8,5.4-6.6,8.6c-0.3,0.6-0.9,1-1.4,1.4c-2.3,2-4.6,3.9-6.9,5.9
			c-2.2,1.9-4.3,3.9-6.4,5.9c0.2-0.7,0.3-1.6,0.7-2.1c1.9-2.1,3.9-4,5.9-6c1.7-1.7,3.2-3.7,5.1-5.2c3.2-2.6,4.9-6.4,7.2-9.8
			c1.7-2.5,0-4.8,1.1-6.8c-1.8-2.1-4-2.4-6.1-2.7c-1.8-0.2-3.2,1-4.6,2C234.8,240.5,233,241.8,231.2,243.1z"/>
		<path d="M225.3,273.7c-0.1-1.7,0.7-3,2-4C227.4,271.4,227.5,273.2,225.3,273.7z"/>
		<path d="M231.2,243.1c-0.1,0.7,0.5,1.9-1,2C230.4,244.3,229.7,243.2,231.2,243.1z"/>
		<path d="M225.4,273.8c-0.2,0.3-0.5,0.5-0.7,0.8c-0.1-0.1-0.2-0.2-0.3-0.3c0.3-0.2,0.5-0.5,0.8-0.7
			C225.3,273.7,225.3,273.7,225.4,273.8z"/>
		<path d="M229.2,246c0.3-0.3,0.7-0.7,1-1C229.9,245.4,229.6,245.7,229.2,246z"/>
		<path d="M221.3,284.3c-0.3,0-0.7,0-1,0c0-0.1,0-0.2,0-0.3c0.3,0,0.7,0,1,0C221.3,284,221.3,284.1,221.3,284.3z"/>
		<path d="M221.7,281.6c0-0.3,0-0.7,0-1c0.1,0,0.2,0,0.3,0c0,0.3,0,0.7,0,1C221.9,281.6,221.8,281.6,221.7,281.6z"/>
		<path d="M229.4,246.1c-0.2,0.3-0.5,0.5-0.7,0.8c-0.1-0.1-0.2-0.2-0.3-0.3c0.3-0.2,0.5-0.5,0.8-0.7
			C229.2,246,229.3,246.1,229.4,246.1z"/>
		<path d="M222.3,278c0.3,0,0.7,0,1,0c0,0.1,0,0.2,0,0.3c-0.3,0-0.7,0-1,0C222.3,278.2,222.3,278.1,222.3,278z"/>
		<path d="M223.3,276c0.3,0,0.7,0,1,0c0,0.1,0,0.2,0,0.3c-0.3,0-0.7,0-1,0C223.3,276.2,223.3,276.1,223.3,276z"/>
		<path d="M284,241.5c-3.5,2-6.2,2.2-9,0.4c-1.1,3.7,0.1,6.7,1.8,9.6c-1.3,0.9-1.7-0.3-1.9-0.7c-2.6-3.9-2-8.2-0.9-12.3
			c1-3.8,2.5-7.5,4.1-11.1c0.9-2.1,1.2-4.4,2-7.6c1.1,3.8-0.1,6.4-1.2,9c-1.3,2.8-2.6,5.7-2.1,9.2c0.7,0.6,1.5,1.3,2.6,2.2
			c0.8,0,1.9,0,3.1,0c2.4-3.9,4.7-7.8,4.4-12.6c1.7,4.5-0.7,8.2-2.3,11.9c1,2.4,2.9,1.7,4.5,1.8c0.6-1.4,1.2-2.6,2-4.2
			c1.2,2.9-1.2,4.8-1.4,7c-0.3,2.4-0.8,4.4-3.2,5.8c0.7-1.7,1.5-3.4,2.6-6c-2.5,1.1-4.3,1.8-6.8,2.9
			C282.9,244.7,283.3,243.6,284,241.5z"/>
		<path d="M296,245.1c-0.6-0.1-0.9-0.2-1.4-0.3c0.7-3.8,1.4-7.7,2.1-11.5C297.4,237.2,298.2,241.2,296,245.1z"/>
		<path d="M200.6,228.9c0,1.2,0,2,0,3.2c1.9,0.1,3.7,0.2,6.5,0.3c-2.7,2.2-4.9,3.9-7.1,5.7c-0.8-3.1-1.4-6.3-4.5-8.3
			c0.4-1.6,0.8-3.3,1.2-5.2c3.1-0.8,6.5-1.3,9.6-2.5c2.9-1.2,5.6-3.1,8.9-5.1c0.1,1.8,0.1,3.1,0.2,5.5c-0.8-1.7-1.1-2.4-1.6-3.3
			C209.5,222.5,204.1,224.2,200.6,228.9z"/>
		<path d="M248.9,270c0.7-1.4,1-2.2,1.4-2.9c2.1-0.5,4.2-0.9,6.3-1.4c0.1,0.2,0.2,0.4,0.2,0.6c-1.2,0.6-2.4,1.2-4.1,2
			c1,0.2,1.6,0.2,2.2,0.4c0.7,0.3,1.4,0.7,2.6,1.3c0.6-0.6,1.2-1.2,1.9-1.9c-0.7-0.9-1.1-1.4-1.5-2c0.4-0.1,1-0.5,1.3-0.3
			c1.5,0.7,2.1,1.9,1.7,3C257.1,272.9,253.2,269,248.9,270z"/>
		<path d="M265.2,266.4c0.8-1.1,1.2-1.7,1.7-2.3c0.8,0.3,1.6,0.6,2.4,0.7c0.7,0.1,1.5,0,2.3,0c0,1.1,0,1.9,0,3.1
			C269.7,267.5,267.8,267,265.2,266.4z"/>
		<path d="M231.1,199.4c-0.5,0-1.1,0-1.6,0c0-0.2-0.1-0.3-0.1-0.5c0.5-0.1,1.1-0.3,1.6-0.4C231,198.9,231,199.2,231.1,199.4z"/>
		<path d="M273,299.4c0-0.7,0-1.3,0-2c0.2,0,0.3,0,0.5,0c0,0.7,0,1.3,0,2C273.3,299.4,273.1,299.4,273,299.4z"/>
	</g>
</g>
</svg>
