<?xml version="1.0" encoding="UTF-8" standalone="no"?>
<!-- Generator: Adobe Illustrator 27.0.0, SVG Export Plug-In . SVG Version: 6.00 Build 0)  -->

<svg
   version="1.1"
   id="Layer_1"
   x="0px"
   y="0px"
   viewBox="0 0 500 500"
   style="enable-background:new 0 0 500 500;"
   xml:space="preserve"
   sodipodi:docname="assamite-anti.svg"
   xmlns:inkscape="http://www.inkscape.org/namespaces/inkscape"
   xmlns:sodipodi="http://sodipodi.sourceforge.net/DTD/sodipodi-0.dtd"
   xmlns="http://www.w3.org/2000/svg"
   xmlns:svg="http://www.w3.org/2000/svg"><defs
   id="defs711" /><sodipodi:namedview
   id="namedview709"
   pagecolor="#ffffff"
   bordercolor="#999999"
   borderopacity="1"
   inkscape:pageshadow="0"
   inkscape:pageopacity="0"
   inkscape:pagecheckerboard="true"
   showgrid="false" />
<style
   type="text/css"
   id="style2">
	.st0{fill:#FFFFFF;}
</style>
<g
   id="g706"
   style="display:inline">
	<g
   id="g704"
   style="display:inline">
		<path
   class="st0"
   d="m 0,3 c 166.7,0 333.3,0 500,0 0,164.7 0,329.4 0,494.1 -166.7,0 -333.3,0 -500,0 C 0,332.3 0,167.7 0,3 Z"
   id="path4"
   style="display:none" />
		<path
   d="m 427.8,424.1 c -19.9,-10 -39.4,-19.9 -59.4,-30 -1.4,1 -2.9,2.3 -4.6,3.5 -3.4,2.5 -6.8,5 -10.3,7.3 -3.2,2.1 -6.6,4 -9.9,6 -1.9,1.1 -3.7,2.3 -5.5,3.4 0.2,11.8 -9.2,21 -22.8,16.5 -1.4,-1.4 -3.1,-3.1 -4.8,-4.8 -12.8,4.7 -25.9,7.5 -39.5,9 -2.7,2.6 -3.1,6.5 -4.1,9.9 -3.6,11.5 -7.9,22.8 -11.4,34.3 -1.5,4.8 -3,9.6 -4.5,14.4 -0.3,0.9 -0.8,1.7 -1.3,2.7 -2.5,-5.1 -3.1,-10.4 -5.2,-15.3 -2.1,-5 -3.6,-10.4 -5.1,-15.6 -1.5,-5.1 -3.8,-10 -5.2,-15.2 -1.4,-5.2 -2.8,-10.3 -4.9,-15.1 -14.7,-0.7 -28.4,-4.6 -42.3,-8.8 -2.2,2.1 -4.3,5.2 -7.7,6.5 -2.1,0.8 -4.7,1.3 -6.9,0.9 -2.6,-0.4 -5.3,-1.6 -7.7,-2.9 -3.9,-2.1 -8.6,-12.4 -5.7,-16.6 -4.9,-3 -9.8,-6 -14.5,-9.1 -4.7,-3.1 -9.3,-6.4 -14.5,-10 -18.8,9.2 -38.1,19 -57.9,28.9 0.5,-1.2 0.7,-2.2 1.2,-3.1 9,-18 17.9,-36 26.9,-54.1 0.2,-0.4 0.6,-0.7 0.9,-1.2 -8,-9.3 -14.4,-19.5 -20.6,-30.7 -1.5,0 -3.6,-0.1 -5.7,0 -4.3,0.3 -7.3,-2.2 -9.7,-5 -2.2,-2.6 -3.5,-6.1 -3.7,-9.8 -0.1,-2.3 0.9,-4.2 1.7,-6.2 0.3,-0.7 0.3,-1.5 0.4,-2.4 1.6,-1.6 3.2,-3.2 4.8,-4.8 -3.5,-12.7 -7.5,-25.3 -8.1,-39.2 -3,-1.2 -6.2,-2.6 -9.5,-3.7 -4.5,-1.5 -9.2,-2.5 -13.6,-4.1 C 26,255.5 14.5,252.4 3.4,248 2.7,247.7 1.9,247.9 1,247.1 c 6.4,-2.3 12.8,-4.7 19.3,-6.8 6.4,-2.1 12.8,-3.9 19.2,-6 6.5,-2.1 13.1,-4 19.5,-6.8 0.6,-3.3 0.9,-6.7 1.6,-9.8 0.8,-3.9 0.4,-8.1 2.7,-11.7 -0.3,-2.9 0.8,-5.6 1.5,-8.3 1.1,-4 2.3,-7.9 3.5,-12 -0.9,-1.6 -2.4,-2.3 -3.8,-3.3 -1.3,-0.9 -2,-2.8 -3.2,-4.5 -1.5,-3.4 -0.9,-7.5 -1,-9.9 1.3,-5.5 4.6,-8 7.1,-10.6 2.6,-0.7 5,-1.3 7.5,-1.9 1.8,0.3 3.7,0.6 5.9,0.9 6.3,-11.3 13.2,-21.8 21.1,-31.4 -1.6,-3.5 -2.9,-6.7 -4.8,-9.7 -1.9,-2.9 -3.1,-6.3 -4.6,-9.4 -1.5,-3.2 -3,-6.4 -4.6,-9.5 -1.5,-3 -3.3,-5.9 -4.9,-8.9 -1.6,-3.1 -3,-6.3 -4.6,-9.5 -1.5,-3.1 -3,-6.2 -4.8,-9.8 19.1,10 38.3,18.5 56.8,28.8 8.9,-7.4 18.6,-13.4 28.5,-18.9 -2.4,-4.5 -0.2,-8 1.1,-11.5 1.4,-3.8 4.9,-5.6 8.9,-7.4 1,-0.2 3,0.9 4.2,-0.8 5.7,0.9 10.5,3.2 13.9,8 5.4,-2.6 10.8,-4.1 16.4,-5.2 5.5,-1.1 10.9,-3 16.6,-3 2.2,-1.5 4.7,-0.8 7,-1 1.5,-0.2 3,-0.7 4.6,-1.2 3.7,-8.2 6.2,-17 9,-25.7 2.8,-8.7 6.1,-17.3 8.5,-26.9 0.7,1.2 1.3,2 1.6,2.9 1,3 1.9,6.1 3,9.1 1.7,4.9 2.7,10 4.8,14.8 1.5,3.5 2.1,7.3 3.4,10.9 1.2,3.6 2.9,7 4,10.7 0.3,1.1 0.4,2.1 0.7,3.2 0.2,0.7 0.8,1.3 1.2,2.2 7.2,-0.4 14,1.4 21,2.9 8.6,1.8 14.5,3.3 19.9,6.1 4.4,-5.5 9.6,-9.6 17.4,-7.7 4.1,1.1 7.5,3.8 9.5,7.3 1.9,3.3 3.8,7.4 0.9,11.5 12,6.4 23.1,13.8 33.7,22.5 17.6,-8.8 35.4,-17.7 53.9,-26.9 -3,6.6 -6,12.5 -9.1,18.4 -3.2,6.1 -6,12.3 -9.1,18.5 -3,6 -6.2,11.9 -9.1,17.6 7.7,9.1 13.9,18.6 19.2,28.8 1.3,-0.1 2.8,0.2 3.5,-0.3 1.4,-1.3 2.1,0.8 3.3,0.4 1,-0.4 2.3,-0.1 2.8,-0.1 6.4,2.6 9.9,7.3 10.9,13.3 0.9,5.5 -2.2,12.2 -8,15 4.7,13.5 7.6,27.4 9.4,41.8 19.9,8.1 40.9,13.3 61.6,20.9 -10.9,3.7 -20.9,7.3 -31.1,10.7 -10.1,3.4 -20.3,6.6 -30.8,10 -0.7,4.6 -1.2,9.3 -2,13.9 -0.5,3.1 -1.3,6.1 -2.1,9 -1.3,4.4 -2,9 -3.8,13.2 -0.3,0.8 -0.7,1.7 -1.1,2.8 3.1,2.7 5,6 6.4,10 1.4,4.5 0.2,8.1 -2.1,11.4 -1.9,2.7 -4.3,5.3 -7.8,6.8 -2.3,0 -5,0 -7.9,0 -6.2,9.5 -11.5,19.8 -19.4,28.7 3,6.8 6.4,13.4 10,20 3.6,6.6 6.6,13.4 10,20.1 3.6,6.4 6.6,13.2 10,20.3 z"
   id="path6" />
		
		
		
		
		
		
		
		
		
		
		
		
		
		
		
		
		
		
		
		
		
		
		
		
		
		
		
		
		
		
		
		
		
		
		
		
		
		
		
		
		
		
		
		
		
		
		
		
		
		
		
		
		
		
		
		
		
		
		
		
		
		
		
		
		
		
		
		
		
		
		
		
		
		
		
		
		
		
		
		
		
		
		
		
		
		
		
		
		
		
		
		
		
		
		
		
		
		
		
		
		
		
		
		
		
		
		
		
		
		
		
		
		
		
		
		
		
		
		
		
		
		
		
		
		
		
		
		
		
		
		
		
		
		
		
		
		
		
		
		
		
		
		
		
		
		
		
		
		
		
		
		
		
		
		
		
		
		
		
		
		
		
		
		
		
		
		
		
		
		
		
		
		
		
		
		
		
		
		
		
		
		
		
		
		
		
		
		
		
		
		
		
		
		
		
		
		
		
		
		
		
		
		
		
		
		
		
		
		
		
		
		
		
		
		
		
		
		
		
		
		
		
		
		
		
		
		
		
		
		
		
		
		
		
		
		
		
		
		
		
		
		
		
		
		
		
		
		
		
		
		
		
		
		
		
		
		
		
		
		
		
		
		
		
		
		
		
		
		
		
		
		
		
		
		
		
		
		
		
		
		
		
		
		
		
		
		
		
		
		
		
		
		
		
		
		
		
		
		
		
		
		
		
		
		
		
		
		
		
		
		
		
		
		
		
		
		
		
		
		
		
		
		
		
		
		
		
		
		
		
		
		
		
		
		
		
		
		
		
		
		
		
		
		
		
		
		
		<g
   id="g1320"><path
     class="st0"
     d="m 144.4,181.8 c -0.2,0.9 -0.1,1.5 -0.4,1.7 -1.6,1.2 -2.8,2.8 -4.2,4.1 -1.8,1.7 -2.5,3.7 -3.2,5.9 0.2,0.1 0.4,0.2 0.5,0.2 4.2,-3.5 8.4,-6.9 13,-10.7 4.2,-0.6 8.9,-1.5 13.8,-2.1 4.8,-0.6 9.6,-0.9 14.8,-1.4 0.7,-3.2 1.4,-6.9 2.2,-10.5 0.8,-3.5 1.6,-7 2.6,-11.3 0.2,-0.4 1.2,-1.6 1.3,-2.9 0.1,-2.8 1.6,-4.7 3.4,-6.5 0.4,-0.3 0.7,-0.7 1.1,-1 3.4,-2.9 6.3,-6.3 7.5,-10.7 0.2,-0.7 0.5,-1.3 1.2,-2.7 -3.2,1.6 -6,2.5 -8.2,4.3 -2.3,1.8 -4,4.3 -6,6.4 -0.4,-0.4 -0.7,-0.5 -0.6,-0.6 0.4,-3.5 0.7,-7.1 3.5,-9.8 2.6,-2.5 5.1,-5.2 7.7,-7.7 1.8,-1.7 3,-3.6 3.9,-6.3 1.8,0.7 3.5,1.3 5.9,2.3 4.1,-0.8 9,1.2 14,1.1 1.4,1.4 2.8,2.8 4.5,4.5 -0.6,0.4 -1.3,0.7 -2,1.2 -3.2,-1.7 -7,-0.5 -10.2,-0.8 -0.8,0.6 -1.3,1 -1.8,1.5 3.5,1.1 6.9,1.9 10.4,1.4 2.7,-0.4 5.2,0.8 7,2.2 5.2,4.1 11.1,7 16.2,11.1 2.4,1.9 4.6,3.8 6.9,5.8 8.6,-6.1 17,-12.1 25.1,-17.9 6.4,1.4 12.4,1.5 18.7,-0.6 -2.7,-1.9 -5.2,-3.5 -7.7,-5.2 -2.5,-1.6 -4.9,1.5 -7.6,0.2 2,-2.5 5.5,-4.3 8.3,-4.5 4.4,-0.4 8.4,1.1 12.4,2.4 2.1,0.7 3.9,1 5.8,-0.3 0.7,0.7 1.4,1.4 2.1,2.1 0.9,2.6 1.4,5.3 3.4,7.5 2.1,2.4 3.6,5.3 4.6,8.4 0.4,1.1 0.1,2.4 0.1,4.5 -3.6,-3 -5.2,-7.2 -9.6,-9.1 -0.1,4 3.1,5.9 4.2,8.8 1.1,2.8 3.6,5.1 5.3,7.3 0.8,3.1 -0.1,5.9 1.1,8.8 1,2.5 0.2,5.6 1,8.4 0.7,2.7 -0.4,5.7 1.7,8.5 4.5,-0.9 9,0.7 13.7,0.9 5.3,0.2 10.7,-0.7 16.2,1.5 2.8,5.9 9,9.3 13.6,14.4 0.2,-1.6 -0.8,-5.5 -1.4,-7.4 -0.8,-2.8 -3.6,-3.7 -5.6,-5.8 3,-1.3 4.9,0.1 6.8,1.2 3,1.8 5.7,4 7.3,7.2 1.5,2.9 3.8,4.8 6.8,5.9 0.6,0.2 1,0.8 1.9,1.5 -2.8,1.8 -2.1,4.8 -3.4,7.1 -0.4,0.6 -0.4,1.9 0,2.4 1.5,1.7 0.3,3.9 1,5.5 0.8,1.9 0.9,3.7 0.9,6.1 -1.6,1.8 -3.5,3.9 -5.6,6.3 -1,-3.8 2,-6.9 0.3,-10.2 -1.3,-2.7 -1.7,-5.8 -4.2,-8.1 -0.6,5.6 -2,10.7 -1.3,15.6 -2.3,5.8 -6.2,10 -10.2,14 -2.4,2.4 -4.4,5.1 -6.6,7.7 0,0.5 0,1.2 0,1.9 4.5,1.5 5.9,6.1 9,9 3.2,2.9 6,6.3 8.9,9.3 -1.9,4.2 -1.6,8.4 -1,12.3 0.6,3.7 0.8,7.7 3.1,11.5 0.7,-0.7 1.6,-1.2 1.6,-1.7 -0.1,-1.7 0.9,-3 1.5,-4.3 1.6,-3.2 1.7,-6.4 -0.4,-9.5 0.4,-0.4 0.9,-0.8 1.7,-1.6 1.4,2.2 2.8,4.4 4.4,6.8 -0.5,5.4 -0.9,11 -1.3,15.9 0.9,1.7 1.4,2.6 2,3.7 0,0.1 -0.1,0.4 -0.3,0.5 -0.7,0.4 -1.3,0.7 -2,1.1 -2.9,1.5 -5.1,3.6 -6.3,6.7 -1.2,3.1 -2.7,6 -5.1,7.7 -2.5,0.5 -4.5,0.8 -6.8,1.3 0.1,-0.7 0.1,-1.2 0.4,-1.7 0.2,-0.4 0.7,-0.7 1,-1.1 1.3,-1.6 3.3,-2.6 3.9,-4.8 0.4,-1.8 1.2,-3.5 1.7,-5.2 0.4,-1.5 0.6,-3 1,-4.9 -0.7,0.1 -1.3,0.1 -1.7,0.3 -5.5,3 -7,4.3 -11.1,10.5 -0.3,0.4 -0.4,0.9 -0.7,1.2 -0.9,1 -1.8,1.9 -2.3,2.3 -6.3,1.8 -12.4,1.1 -18.1,3.2 -1.3,0.5 -2.9,0.2 -4.4,0.2 -1.9,0 -3.9,0 -5.9,0 -0.1,0.7 -0.1,1.1 -0.2,1.6 -0.4,2.3 0.5,4.6 -0.8,7.1 -1,2 0.5,4.7 -1,7 -0.6,0.9 -0.3,2.6 -0.1,3.9 0.4,2.8 -1.6,4.6 -2.3,7 -0.1,0.4 -0.6,0.9 -1,1 -6.7,2.6 -9.9,8.3 -12.5,14.4 -0.2,0.4 -0.6,0.7 -0.9,1.1 2.3,1.8 4.2,-1 6.4,-0.5 2.5,-2.8 6,-4.9 6.7,-9.1 2.8,1.8 3.1,3.6 2.1,7.2 -1.2,4.6 -4,7.7 -8,10 -0.9,0.5 -1.7,1.3 -3.3,2.6 -0.3,0.9 -0.8,2.8 -1.3,4.7 -1.5,-0.9 -3.2,-1.9 -4.9,-3 -5.8,3.2 -11.7,3 -17.3,0.7 -1.9,-0.8 -4.8,-1.9 -5.1,-5.1 2.5,0.4 4.8,0.7 6.8,1 3.6,-1.9 6.7,-3.9 10.1,-5.5 -1.8,-0.7 -3.6,-1.5 -6.4,-2.7 -4.1,-0.4 -9.4,-0.8 -14.7,-1.2 -7.8,-4.5 -16,-8.4 -23.1,-14.6 -4.7,8.6 -13.8,12.2 -20.5,18.8 -2.2,0.2 -4.5,0.1 -6.8,-0.8 -2,-0.7 -4.5,0.6 -6.2,-0.9 -3.9,0.7 -7.5,1.3 -11.5,2.1 3,2.5 5.8,4.9 8.8,7.4 2.3,0.2 4.9,2.6 8.2,-0.7 -0.2,1.6 -0.1,2.5 -0.5,2.8 -1.5,1 -3.2,1.8 -5,2.8 -0.2,-0.1 -0.5,-0.4 -0.8,-0.6 -1.6,0.3 -3.7,1.3 -4.9,0.7 -1.8,-1 -3.5,-0.4 -5.1,-0.9 -6,-1.6 -7.5,-1.1 -12.3,0 0.2,-5.1 -2.8,-8.2 -7,-10.3 -2.3,-1.1 -3.8,-2.7 -4.7,-5 -0.3,-1.9 -0.7,-3.9 -1.1,-6 0.3,-0.3 0.7,-0.7 1.5,-1.6 0.6,1.3 1.1,2.5 1.8,4 7.8,4.1 7.8,4.1 12.6,3.9 -4.7,-4.6 -8.8,-9.3 -13.5,-12.2 -2.1,-4.8 -1.6,-9.5 -3.6,-13.7 0.6,-4.7 -1.5,-9.2 -1,-13.8 -0.5,-0.5 -1,-1 -1.3,-1.3 -6.8,-1 -13.5,-1.5 -19.9,-4 -1.3,-0.5 -2.8,-0.3 -4.4,-0.4 -1.3,-1 -2.8,-2 -4,-3.2 -3.5,-3.5 -7.1,-6.7 -12,-8 -1.1,-0.3 -2.2,-1.1 -3.8,-1.9 0.1,1.1 0,1.9 0.3,2.4 2.1,2.7 4.3,5.2 6.4,7.8 1.3,0 2.4,0 3.3,0 0.6,0.6 1.1,1.1 1.6,1.6 -1.6,0.8 -3.2,1.7 -4.8,2.5 -6.4,-2.9 -6.4,-2.9 -17.6,-14 -0.6,0 -1.4,0 -2.6,0 1.4,-3.6 1.6,-7.1 1.2,-10.6 -0.3,-2.3 -1.1,-4.6 -0.9,-7 0.2,-3.1 0.9,-5.9 3.5,-7.9 0.3,0.3 0.7,0.7 1.2,1.2 -1.7,2.8 0.1,5.3 1,8 0.8,2.4 3.1,4.4 2.9,7.6 1.6,-4.1 3.3,-8.2 5.2,-13 -0.1,0.5 0,0.2 0,-0.1 -0.7,-5.7 0.9,-10.4 4.6,-14.9 2.8,-3.4 4.6,-7.6 7.2,-11.3 0.9,-1.3 1.9,-2.5 3.1,-4.1 -0.2,-0.6 -0.4,-1.6 -1,-2.2 -2.8,-3.4 -5,-7 -7.2,-10.9 -2.5,-4.4 -5,-8.8 -7.2,-13.3 -0.5,-1 -0.7,-1.9 -0.6,-2.7 0.9,-4.3 0.6,-4.3 0.1,-9.1 -0.3,-2.5 -1.1,-4.8 -1.5,-8.4 -1.2,2.6 -2,4.1 -2.6,5.7 -0.4,1 -0.4,2.5 -1.1,2.9 -2.5,1.5 -1.2,4.5 -2.8,6.4 -0.3,0.3 0.4,1.4 0.5,2.2 0.2,0.9 0.3,1.7 0.5,2.6 -2.3,0.7 -2.6,-1.4 -3.9,-2 -0.1,-3 -2.3,-6 -1,-8.9 2.1,-4.9 1.8,-10 1.9,-15 0,-1.3 0,-2.6 0,-4 2.4,-0.9 4.8,-1.9 8,-3.1 2.1,-3.2 6.1,-5.1 10.1,-7 0.5,-0.7 1.9,-0.5 3.3,-0.6 z"
     id="path8" /><path
     class="st0"
     d="m 363.7,155.1 c 0,-1.2 0,-2.2 0,-3 -1.2,-2.3 -3.4,-2.8 -5.5,-3.5 -0.7,-2.3 -0.8,-5.1 -3.1,-6.1 -1.5,-0.7 -2.2,-1.8 -3.3,-2.6 -0.3,-0.2 -0.5,-0.5 -0.9,-0.9 0,-1.3 0,-2.7 0,-4.3 -1.6,0 -3,0 -4,0 -3.4,-1.9 -3.9,-6 -7.6,-6.9 -0.5,0.3 -1.1,0.6 -2.1,1.2 -0.2,-0.9 -0.2,-1.5 -0.4,-2.2 1.7,0 3.1,0 4.6,0 0.5,0.5 1.1,1.1 1.7,1.7 2.2,-2.5 4.3,-4.9 6.8,-7.7 -0.3,-1.6 -0.7,-3.6 -1.1,-5.7 4.1,-0.6 7.9,-0.6 10.9,3.5 -0.5,1 -1.1,2.2 -1.8,3.7 -1.1,-1.4 -1.7,-2.7 -2.8,-3.4 -1.1,-0.7 -2.6,-0.7 -4.2,-1.1 0,1.5 0,2.9 0,3.9 -1.9,2.3 -3.6,4.2 -5.1,5.9 0,1.8 0,3.2 0,4.8 1.9,0 3.6,0 4.7,0 1.4,0.7 2.2,1.1 3.3,1.7 -1.7,1.9 -1.4,3.9 0.2,6.1 0.4,0.2 1.2,0.6 2,1 3,-2.7 6.1,-5.6 9.1,-8.2 -0.2,-0.9 -0.5,-1.9 -0.9,-3.2 2,0 3.8,0 5.9,0 1.6,2.8 3.4,6 5.2,9.2 -0.4,0.4 -0.9,0.9 -1.4,1.4 -1.9,-3.2 -2.7,-4 -7,-6 -4.2,1.1 -6.3,5 -9.4,7.5 0.9,2.2 1.7,4.1 2.6,6.3 1.1,0.5 3.1,-0.7 4.3,1.7 0,0.7 0,1.8 0,2.9 0.2,-0.1 0.4,-0.3 0.6,-0.4 0.4,0.8 0.7,1.5 1.3,2.8 0.8,-1.4 1.2,-2.2 1.7,-2.9 0.5,-0.6 1.1,-1.1 1.9,-1.9 -0.9,-1 -1.7,-1.8 -2.5,-2.7 0.1,-0.7 0,-1.8 0.5,-2.2 2,-1.5 4.4,-2.3 6.7,-2.2 1.6,1.6 3.1,3.1 4.8,4.8 -1.8,3.8 -5.4,3 -8.5,3.1 -1.4,1.8 -2.7,3.5 -4.2,5.3 -1.1,-0.6 -2.1,-1 -3,-1.4 z"
     id="path10" /><path
     class="st0"
     d="m 96.4,203.6 c 5.3,-1.9 8.1,-3.5 10.1,-7.3 2.2,-4 4,-8.2 3,-13.3 -0.6,-0.4 -1.5,-1 -2.6,-1.7 -1.9,-4.6 -1.7,-5.3 2.8,-9.5 1.3,1.1 2.5,2.2 4.2,3.7 0.6,-1.8 1.2,-3.3 1.8,-5.2 -1.1,-0.1 -2.2,-0.3 -3.5,-0.4 -0.9,-0.6 -2,-1.4 -3.5,-2.4 -2,-3.9 -1.3,-8.1 0.6,-12.7 1.2,1 2.3,1.9 3.3,2.7 0,2.7 0,5.4 0,8.3 1.5,0.5 3.1,1.1 4.9,1.7 0.3,3 -0.3,5.9 -2.4,8.6 -0.8,1 -1.5,2.5 -1.4,3.8 0.1,1.8 -1.2,2.5 -1.7,3.1 -1.3,9.2 -2.7,17.8 -11,23 0.3,2.1 0.6,4.2 0.9,6 -0.8,0.8 -1.1,1.1 -1.7,1.7 -2.1,-3.2 -4.1,-6.4 -6.2,-9.7 0.3,-0.3 0.7,-0.7 1.2,-1.2 0.5,0.1 0.8,0.4 1.2,0.8 z"
     id="path12" /><path
     class="st0"
     d="m 97.1,302.2 c 1.5,0.5 3.4,-0.6 4.5,1.7 0,0.6 0,1.6 0,2.9 -0.4,0.5 -1.1,1.3 -1.9,2.1 3.5,0.9 6.4,-0.2 9.6,-1.4 2.2,0.5 3.5,2.3 4.3,4.5 -0.6,2.7 -3.5,2.9 -5.1,4.7 -1.6,1.8 -3.5,3.5 -5.6,5.7 0.1,-1 0,-1.9 0.3,-2.2 2.7,-2.7 4.4,-6.4 9,-7.5 -1.3,-1.5 -2.2,-2.5 -3.1,-3.5 -3.3,1.1 -6.3,2.7 -10.2,1.7 -0.2,-0.3 -0.8,-1.1 -1.4,-1.8 -1.6,1.1 -3,2 -4.3,2.9 -0.8,-1.6 0.1,-2.5 1,-3.8 0.7,-1 3.4,-0.2 2.3,-3.1 -0.8,0.3 -1.6,0.6 -2.5,1 -1.2,-0.4 -2.7,-0.9 -4.1,-1.4 0,-0.4 0,-0.7 0,-1.4 1.9,0 3.8,0 5.6,0 0.8,-2 -0.4,-2.6 -1.6,-3.1 -2,-0.8 -4,-1.5 -5.9,-2.3 0,-0.8 0,-1.4 0,-2.2 0.7,-0.7 1.6,-1.4 2.5,-2.2 2.7,1.4 5.7,1.5 11.1,-1.3 0,-1.3 0,-2.7 0,-4.7 -0.5,-0.4 -1.2,-1.3 -2.2,-1.9 -0.9,-0.6 -1.9,-0.8 -3,-1.3 -3.4,1.7 -6.7,3.3 -10.1,5 -0.1,-0.5 -0.2,-0.8 -0.4,-1.3 2.7,-2.1 7.2,-2.2 8.3,-6.4 0.9,-0.1 1.8,-0.3 2.9,-0.4 -0.3,-0.8 -0.4,-1.4 -0.7,-1.6 -0.9,-0.6 -1.8,-1 -3.1,-1.7 1.3,-1.4 2.2,-2.4 3.1,-3.3 0.9,0 1.5,0.1 2.8,0.1 -1.4,0.9 -2.3,1.5 -3.3,2.1 1.4,1.1 2.7,2 4,3.1 -0.8,0.9 -1.6,1.7 -2.3,2.5 2.1,1.8 4,3.5 6,5.2 0,1.5 0,2.9 0,4.5 -0.9,0.9 -1.9,1.9 -3,3 -1.6,0.4 -3.3,0.7 -5.2,1.2 -0.2,-0.2 -0.7,-0.5 -1.4,-1 -0.4,0.3 -1,0.6 -1.6,0.9 -0.5,-0.3 -1.1,-0.6 -1.9,-1 -0.3,0.6 -0.5,1 -0.9,1.7 3.2,1 6.5,1.7 7.5,5.3 z"
     id="path14" /><path
     class="st0"
     d="m 142.6,138.2 c 1.5,0 2.9,0 4.4,0 0.6,-3.4 1.4,-6.6 5.1,-8.9 1.1,0.2 2.7,0.5 4.7,0.9 1.6,-0.6 1.4,-2.3 1.3,-4.2 -3.2,-3 -5,-7.1 -6.4,-11.8 -0.9,0.6 -1.9,1 -2.3,1.7 -1,1.7 -1.7,3.6 -2.5,5.5 -0.5,0 -0.9,0 -1.7,-0.1 1.4,-6.2 6.6,-9.3 10.4,-13.7 0.8,0.1 1.7,0.1 2.8,0.2 -0.3,0.8 -0.3,1.4 -0.6,1.6 -1.5,0.8 -3,1.5 -4.9,2.4 0.9,2.4 1.4,4.7 2.4,6.6 1,1.7 1,3.9 3.2,5.2 1.4,0.8 2.1,3.1 1.6,5 -1.3,1.2 -2.7,2.3 -4.3,3.8 -0.5,-0.2 -1.5,-0.6 -2.7,-1 -0.7,0.3 -1.5,0.7 -2.8,1.4 -0.4,1.3 -0.9,3 -1.8,5.9 -1.5,2.4 -5.7,1.9 -8.5,3.7 -1.2,1.5 -2.4,3 -3.8,4.6 0.1,0.7 0.4,1.5 0.7,2.9 -0.5,1.7 -0.9,4 -3.5,5.1 -0.8,-0.3 -1.7,-0.7 -2.8,-1.2 -0.3,-1 -0.5,-2 -0.9,-3.5 0.6,-1.2 1.5,-2.9 2.5,-4.9 0.7,-0.1 1.5,-0.2 2.4,-0.4 1.7,-1.4 3.5,-2.9 5.1,-4.3 -1.3,-1.1 -2.8,-2.3 -4.4,-3.7 0,-1.2 0,-2.3 0,-3.5 0.4,-0.1 0.9,-0.3 1.3,-0.2 2.9,0.8 5.2,2 6,4.9 z"
     id="path16" /><path
     class="st0"
     d="m 399.2,257.6 c 0.1,-0.4 0.4,-1.4 0.9,-2.9 -0.5,-0.8 -1.2,-2.2 -2.1,-3.7 -0.5,0.3 -0.8,0.6 -1.1,0.8 -1.7,-0.5 -1.8,-1.8 -1.5,-3.5 1,0 2.1,0 3.6,0 0.2,-1 0.3,-1.9 0.4,-2.8 0.6,-0.6 1.2,-1.2 1.7,-1.7 -1,-0.8 -2.1,-1.5 -3.7,-2.7 1.1,-0.9 1.7,-1.5 2.7,-2.3 1.1,1 1.9,1.8 2.7,2.5 1.5,-0.5 2.9,-1 4.4,-1.4 -0.2,-0.3 -0.4,-0.5 -0.8,-0.9 0.4,-0.8 0.8,-1.6 1.2,-2.6 0.7,0 1.3,0 2.3,0 0.1,1.1 0.2,2.4 0.4,3.7 1.4,0.5 2.8,1 4.3,1.5 0.3,-0.9 0.5,-1.5 0.7,-2 1.8,-0.7 3.1,-0.1 3.9,2.1 -0.9,0.7 -1.9,1.4 -2.9,2.2 0.6,1.2 1.3,2.7 2.1,4.3 1,0 2.1,0.1 3.4,0.2 0,0.8 0,1.6 0,2.7 -1,0.1 -2.2,0.3 -3.4,0.4 -0.7,1.4 -1.3,2.8 -2,4.3 0.8,0.6 1.9,1.4 3.2,2.4 -1.2,0.8 -2.1,1.3 -3.1,2 -0.6,-0.9 -1.3,-1.9 -1.8,-2.8 -0.9,0.7 -1.9,1.4 -3.6,2.7 -0.3,0.4 0.6,2.6 -2.1,3 -1.8,-0.2 -1.8,-1.9 -1.8,-3.5 -1.3,-0.4 -2.6,-0.9 -4.5,-1.5 -0.3,0.6 -0.7,1.5 -1.5,3.1 -1,-1.8 -1.4,-2.5 -2,-3.6 z"
     id="path18" /><path
     class="st0"
     d="m 141.6,372 c -0.7,2.4 -1.8,2.4 -2.8,2.4 -1.8,-1.4 -1.9,-3.1 -0.9,-4.8 0.7,-1.3 1.8,-2.5 2.9,-3.9 0.7,-0.1 1.6,-0.2 2.7,-0.4 -0.5,-0.5 -0.8,-0.9 -1.5,-1.7 1.2,0.2 2,0.4 3.2,0.6 0.4,-0.6 1,-1.6 1.7,-2.6 0.6,0 1.3,0 2.2,0 1.1,3.3 4,5 7.1,6.9 1.2,0 2.9,0 4.4,0 1.3,0.8 2.5,1.5 3.8,2.4 -0.4,1.4 -0.8,2.7 -1.3,4.3 1.5,0 2.9,0 4.2,0 1.1,1.1 2,2 2.9,2.8 -0.6,5.2 -4.8,9.3 -4,14.3 0.7,1.3 1.2,2.3 1.9,3.6 -0.3,0.2 -0.9,0.4 -1.6,0.7 -1.3,-0.2 -3.1,-0.4 -5,-0.7 -1.7,-1.2 -1.4,-2.9 -0.9,-4.9 0.9,0.4 1.7,0.8 3.1,1.5 0.2,-0.6 0.5,-1.4 0.8,-2.2 0.2,0.2 0.4,0.4 0.6,0.5 0,-1.6 0,-3.3 0,-5.1 0.7,-0.5 1.5,-1 2.6,-1.8 -1.1,-0.4 -1.7,-0.6 -2.5,-0.9 1.1,-1.7 2.1,-3.3 3.4,-5.4 -2.3,-0.1 -4.2,-0.2 -6,-0.3 -0.5,-0.9 -0.9,-1.9 -1.5,-2.9 0.4,-0.6 0.7,-1.3 1.4,-2.4 -0.7,-0.3 -1.5,-0.7 -2.2,-1 0.1,-0.1 0.3,-0.3 0.4,-0.4 -1,0 -2,0 -3.3,0 -2,3.3 -3.4,7.3 -7.8,8.7 -0.1,-0.3 -0.3,-1.1 -0.3,-1.1 3.5,-1.5 4.5,-4.8 6,-8 -2.1,-2.2 -5.9,-2.9 -6.3,-6.7 -2.7,1.4 -2.7,1.4 -4.1,4 -1,0 -2.1,0 -3.7,0 0.3,0.9 0.3,1.6 0.7,2 1.8,2.3 1.9,2.3 -0.3,2.5 -0.8,-2 -1.1,-1.5 -1.3,-0.9 0.2,-0.6 0.5,-1.1 1.3,0.9 z"
     id="path20" /><path
     class="st0"
     d="m 393.4,208.8 c 0.5,-0.5 0.8,-0.8 1.4,-1.4 1.3,1.7 2.6,3.4 4,5.2 2.4,-1.6 4.7,-3.1 7.3,-4.9 -0.2,-0.6 -0.6,-1.6 -1.1,-2.8 0.8,-0.2 1.5,-0.3 2.1,-0.4 0.4,0.2 0.7,0.3 0.9,0.5 0.6,0.6 1.6,1.1 1.7,1.7 0.5,3 3.1,4.6 4.5,7 0.8,1.4 0.7,2.7 0.9,4.6 -1.1,-0.2 -2.6,0 -3,-0.6 -1.1,-1.8 -3.1,-1.3 -4.6,-2.2 -2,-1.2 -5.9,2.1 -6.2,4.9 -0.2,1.5 0,2.9 0,4.3 1.1,1.1 2.2,2.2 3,3 1,-1 1.9,-1.9 2.3,-2.3 3.7,-0.3 6.4,-0.5 8.9,1.9 -2.8,1.2 -4.7,3.8 -8.4,2.5 -1.5,-0.5 -3.5,0.2 -4.9,2 1.1,0.2 2,0.4 3.1,0.7 -0.3,2.8 -2.7,2.7 -4.5,4 -0.3,-0.8 -0.4,-1.4 -0.6,-2 0.8,-0.3 1.3,-0.5 2,-0.7 -1,-0.7 -1.9,-1.3 -3.1,-2 1.1,-0.9 2.1,-1.8 3.1,-2.7 -1,-1.5 -1.9,-2.9 -2.9,-4.3 -0.1,-6 -0.1,-6 4.2,-10.2 1.1,-0.3 2,-0.5 3.4,-0.8 1.6,0.6 3.7,1.5 6.3,2.5 -0.6,-1.5 -1.1,-2.7 -1.7,-4.2 -1.9,-0.8 -3.9,-1.6 -6.1,-2.5 -2,2.1 -4.3,4.1 -7.6,5 -1.4,-1.9 -2.8,-3.8 -4.4,-5.8 z"
     id="path22" /><path
     class="st0"
     d="m 394.2,311.4 c 0.8,4.9 -2.8,6.9 -5.3,9.7 -1,-1 -1.9,-1.9 -2.9,-2.9 -2,1.8 -3.7,3.7 -3.4,7.1 0.7,-0.5 1,-0.8 1.2,-1 1,0.6 2.1,1.2 3.1,1.7 2.3,1.3 2.9,3.8 3.4,6 0.4,2 -0.9,3.8 -2.9,5.3 -2.8,-2.9 -4.3,-5.9 -3.8,-10.3 -0.9,-0.7 -2,-1.7 -3.3,-2.8 0.5,-1.1 0.8,-2.1 1.3,-3 2,-3.2 3.6,-6.6 6.5,-9.2 1.4,-1.3 2.8,-3.2 3.1,-5.1 0.4,-2.5 2.6,-4.3 2.3,-7 2.3,-3.1 3.4,-7.2 7.6,-8.4 -1.3,-2.7 -2.5,-5.1 -3.7,-7.6 1.7,-1 2.4,0.4 2.9,1.1 0.6,1.2 0.8,2.6 1,3.7 1.5,1.1 2.7,2 4.4,3.2 -1.8,0.4 -3,0.6 -4.3,0.9 -2.2,0.5 -4.6,4 -5.9,7.8 -1.1,3.1 -2.1,6.3 -3.8,9 0.7,0.8 1.7,1.4 2.5,1.8 z"
     id="path24" /><path
     class="st0"
     d="m 85.1,241.2 c 0.1,-1.9 1.8,-0.5 2.5,-1.2 -0.3,-1.1 -0.6,-2.2 -0.9,-3.6 1.5,0 2.8,0 4.3,0 -0.2,1.2 -0.4,2.2 -0.7,3.3 1.4,0.7 3.1,1.6 5,2.6 0.3,-0.7 0.6,-1.3 0.9,-2 0.8,0 1.5,0 2.5,0 0,0.9 0,1.7 0,2.5 -0.5,0.5 -1.1,1.1 -1.7,1.7 1.6,2.9 0.4,6 0.9,8.8 -0.7,1.3 -2.6,1.9 -2,3.7 -0.6,0.1 -1.5,0 -1.8,0.4 -1,1.4 -2.6,1.6 -4.4,1.9 0.5,1 0.9,1.8 1.6,3.3 -0.5,0.4 -1.3,0.9 -2.3,1.7 -0.8,-0.7 -1.4,-1.3 -2.2,-2 0.3,-1.1 0.6,-2 1,-3.3 -0.9,0 -1.9,0.1 -2.8,0 -0.7,-0.1 -1.3,-0.7 -1.8,-0.9 -1.4,0.4 -2.5,0.8 -4.1,1.3 0,-1.2 -0.3,-2.2 0.1,-2.7 0.9,-1.1 1.4,-2.2 0.6,-3.4 -0.9,-1.4 -1.2,-3.3 -3.5,-3.3 0,-0.9 0,-1.6 0,-2.6 0.8,0 1.5,0 2.1,0 0.9,-1.4 1.7,-2.5 2.6,-3.9 -0.6,-0.4 -1.3,-1 -2.3,-1.7 0.8,-1.1 1.4,-1.9 1.9,-2.6 1.9,0 2.4,2.6 4.5,2 1.6,4 -3.4,6.2 -2,9.9 1.2,2.5 2.9,4.3 6,4.2 3.2,-0.1 5,-2.3 5.4,-4.9 0.5,-3 -1.4,-5.2 -4.2,-6.3 -1.9,-0.9 -4.5,-0.3 -5.2,-2.9 z"
     id="path26" /><path
     class="st0"
     d="m 323.5,118.8 c 1.9,-4.3 1.5,-9.4 5.8,-12.4 0.4,0.5 0.8,1 0.7,1 -2.3,2.5 -2.6,5.9 -3.9,8.8 -0.6,1.4 -0.9,2.9 -1.3,4.6 -6.2,-1.5 -10.4,-5.9 -15.3,-9.2 -1,0.4 -1.9,0.8 -2.9,1.1 -2,-1.2 -3.8,-2.3 -6.2,-3.7 -0.6,-1.5 -1.5,-3.6 -2.5,-5.9 -0.4,0.1 -1.1,0.6 -1.9,0.6 -0.9,0 -1.8,-0.3 -2.7,-0.6 -0.9,-0.3 -1.6,-0.8 -2.6,-1.3 0,-1.3 0,-2.5 0,-3.7 1.9,-0.7 3.1,-0.1 3.8,1.8 -0.3,0.5 -0.7,0.9 -1,1.4 0.9,0.9 2.7,0.5 4.9,-1 0,-2.6 0,-5.4 0,-8.1 0.2,-0.2 0.4,-0.3 0.6,-0.5 0.2,0.7 0.5,1.5 0.7,2.2 0.2,-0.2 0.4,-0.4 0.7,-0.6 0,3.9 0,7.9 0,11.7 0.8,1.1 1.6,2.1 2.7,3.6 0.9,0.4 2.4,1.2 3.4,1.7 3,-0.3 5.6,-0.5 8.5,-0.8 0,1.7 0,3.1 0,4.4 3,1.7 5.8,3.3 8.5,4.9 z"
     id="path28" /><path
     class="st0"
     d="m 189.3,387.3 c 2.5,4.7 1,8.5 -0.4,12.3 -0.5,1.4 -0.9,2.7 -3,2.4 2.5,-4.9 4.3,-9.7 1.8,-15.3 1.5,-0.8 3.4,-0.9 4.6,-0.3 4.3,2.3 9.3,2.8 13.6,5.4 2.2,1.3 4.4,2.3 6,4.3 3.1,0 3.1,0 5,1 2.4,-2.1 4.4,-0.4 6.4,0.5 0,0.7 0,1.4 0,2.1 -0.8,0.8 -1.6,1.6 -3.1,3 0.5,-1.8 0.8,-2.8 1.2,-4.2 -0.9,-0.1 -1.8,-0.3 -2.9,-0.4 0,3.6 -3.7,5.4 -3.3,9.1 -0.7,-0.1 -1.2,-0.2 -2,-0.3 1.1,-2.8 2.1,-5.5 3.3,-8.5 -1.5,-0.1 -2.9,-0.2 -4.5,-0.3 -2,-1.5 -4.1,-3.2 -6.1,-4.7 -1,-0.3 -1.9,-0.5 -2.8,-0.8 -1.1,1.3 -2.3,2.8 -3.9,4.8 -0.6,-1.3 -1.1,-2.5 -1.6,-3.6 -0.4,0.2 -0.8,0.5 -1.2,0.7 0.6,-0.9 1.3,-1.8 2.1,-2.9 -2.3,-2.3 -5.5,-2.9 -9.2,-4.3 z"
     id="path30" /><path
     class="st0"
     d="m 356,352.2 c -0.9,2 -1.5,3.6 -2.2,5.2 3.8,2.2 6.4,5.3 6.5,10 -2.5,-3 -3.9,-6.8 -7.8,-9 -2.6,3.6 -6.6,5.2 -11,6.6 1.5,2.6 2.7,4.9 4.3,7.6 0.3,1.4 0.7,3.3 1.2,5.4 -0.6,0.2 -1,0.3 -1.8,0.6 0,-5.5 -3.2,-9.5 -6.3,-13.9 2.1,-1.1 4.1,-2.6 6.2,-3 3.2,-0.7 5,-2.9 6.4,-5.4 0.6,-1.2 1.7,-1.5 2.3,-2.4 0.6,-0.9 0.8,-2 1,-3 0.6,-2.6 3.5,-2.4 4.8,-4.1 0.5,-0.6 1.2,-1.1 2.1,-2 1.5,-0.3 2.8,0.4 3.1,2.7 -1.1,-0.3 -2,-0.5 -3.9,-1 1.3,1.9 2.1,2.9 2.9,4 -0.3,0.8 -0.8,1.7 -1.3,2.8 -2.2,1.4 -4.5,2.7 -6.5,-1.1 z"
     id="path32" /><path
     class="st0"
     d="m 314.2,390.3 c -2,1.2 -4,2.3 -6.1,3.6 0.9,1.5 1.9,2.8 2.6,4.3 0.7,1.5 2.2,2.8 1.1,5.1 -1.8,-2.6 -3.4,-5.1 -5.6,-8.3 0.2,-1.3 0.5,-3.4 0.9,-5.7 -4.4,0.5 -3.4,4.8 -5.5,7.1 0,-3.1 0,-6 0,-9 2.3,-1.3 4.4,-3.2 7.6,-3.1 0,2.3 0,4.4 0,6.7 4.1,-1.4 5.6,-5.4 8.8,-8 1,0.8 2.1,1.7 3.2,2.6 -0.4,4 -0.9,8 -1.4,12.3 -0.2,0.2 -0.6,0.6 -1.1,1.1 -2,-4.6 1.3,-9 0.2,-14 -0.9,0.5 -1.8,0.7 -2.3,1.3 -0.7,0.8 -1,1.9 -1.4,2.8 0,0 0,0.4 0,0.4 -0.1,0.3 -0.3,0.5 -0.6,0.6 0.1,0.3 -0.4,0.2 -0.4,0.2 z"
     id="path34" /><path
     class="st0"
     d="m 169,101.8 c 0.8,-3 1.9,-3.7 6.1,-3.6 -1.7,5.1 -6.5,7.7 -9,12.5 1.5,1.7 1,5.5 5.2,6.2 1.1,-1.6 2.9,-2.5 3.8,-4.7 1.1,-2.8 3.2,-5.1 6.7,-6.2 0.2,0.3 0.6,0.9 1.3,2.1 -1.7,5.9 -7.7,7.6 -12.3,11 -1.6,-0.9 -3,-1.6 -4.2,-2.2 -0.7,-2.1 -0.9,-4.2 -1.9,-5.9 -0.9,-1.6 -2.4,-2.8 -2.5,-5.2 0.8,0.5 1.2,0.7 1.7,1 1.3,-1.5 2.7,-3.1 4.2,-4.9 -0.1,-0.1 0.4,-0.1 0.9,-0.1 0.2,0.1 0.4,0.3 0.4,0.5 0,-0.1 0,0.2 0,0.1 0,0 0,-0.2 0,-0.2 0,0 -0.2,-0.2 -0.2,-0.2 0,0 -0.2,-0.2 -0.2,-0.2 z"
     id="path36" /><path
     class="st0"
     d="m 128.6,359 c -1.6,-3.5 -5.2,-0.9 -5.9,-3.9 5.5,0.7 5.5,0.7 8.4,-0.5 0.3,-1 0.6,-2.1 1.1,-3 0.4,-0.9 1.1,-1.8 1.4,-2.4 -2.3,-2.3 -4.2,-4.2 -6.4,-6.4 -0.5,0.4 -1.2,1.1 -2.1,1.9 -1.2,0 -2.6,0 -4.2,0 -1.4,-1.3 -4.2,-1.5 -4.4,-4.8 1.8,0.8 2.4,2.3 3.8,2.8 1.2,0.4 2.3,0.8 3.7,1.3 0.9,-1.3 1.9,-2.7 2.9,-4 2.3,1.6 3.6,4.1 6.2,5.3 1.3,0.6 1.8,2.7 2.8,4.4 -2.8,2.2 -2.5,6 -5.7,7.6 0.9,1.9 1.7,3.5 2.4,5 1.3,0.5 2.6,1 4.4,1.8 -3.7,0.8 -4.7,4.8 -8.4,4.4 0,-3.5 0,-6.9 0,-9.5 z"
     id="path38" /><path
     class="st0"
     d="m 126.3,148.9 c -1.7,1.7 -2.8,2.8 -4.1,4.1 1.3,5 7.3,5.3 9.6,9.7 -4.9,1.2 -8.8,-0.7 -13.1,-3.1 -0.3,-0.7 -0.8,-1.9 -1.4,-3.4 1.1,-1.2 2.2,-2.4 3.2,-3.6 0,-0.6 0,-1.3 0,-1.9 -1.3,-1.3 -2.6,-2.6 -3.5,-3.5 -0.5,-1.6 -0.9,-2.7 -1.4,-4 0.4,-0.8 0.8,-1.8 1.3,-2.8 1.3,0 2.6,0 4.2,0 0.5,0.7 1.1,1.6 2.2,3.1 0,0.2 -0.3,1.2 -0.6,2.7 0.9,0.5 2,1.4 3.6,2.7 z"
     id="path40" /><path
     class="st0"
     d="m 382.6,249.6 c -1.7,0.6 -3.3,1.4 -5.1,1.8 -4.2,0.9 -8.1,2.9 -12.7,2.7 -3.3,-0.2 -5.9,-0.9 -8,-3.6 0,-1.1 0,-2.4 0,-3.9 1.1,-0.9 2.3,-2 4,-3.5 6.2,-0.5 12.8,1.3 19.2,3.8 1.3,0.6 2.1,1.1 2.6,2.7 z"
     id="path42" /><path
     class="st0"
     d="m 139.1,252.5 c -2.9,1.7 -5.5,3.3 -8.4,2.4 -3.7,-1.2 -7.7,-2 -11,-4.3 -1.4,-1 -2.8,-1.6 -4.5,-2.2 2.5,-2 4.8,-2.9 7.5,-3.6 2.8,-0.7 5.5,-1.8 8.6,-1.8 2.8,0 4.8,0.1 7.6,1.2 0.6,1.4 1.3,2.8 2.1,4.4 -0.6,1.1 -1.3,2.6 -1.9,3.9 z"
     id="path44" /><path
     class="st0"
     d="m 198.7,103.1 c 1.3,0.9 2.1,1.5 3.2,2.3 -0.6,0.8 -1,1.4 -1.5,2.2 -1.1,0 -2.2,0 -3.5,0 -0.1,-0.7 -0.3,-1.6 -0.4,-2.5 -0.3,-0.1 -0.7,-0.3 -0.9,-0.2 -1.5,0.7 -3.2,1.2 -4.5,2.2 -1.4,1.1 -2.7,0.6 -3.8,0.5 -0.9,-4.4 -1.7,-8.7 -2.6,-13.2 0.9,-0.7 1.8,-1.3 2.9,-2.1 0.3,0.2 1.1,0.5 2,1 0,0.3 0.1,0.8 0.1,1.5 -0.9,-0.4 -1.7,-0.7 -2.9,-1.2 0.4,4.3 0.8,8.1 1.2,12 3.3,1.4 5.3,-2.4 8.3,-1.8 0.5,-3.3 1,-6.4 1.5,-10 -1.9,0.2 -3.4,0.4 -5.2,0.7 -0.3,-0.2 -1.1,-0.6 -2.1,-1.1 0.1,-0.4 0.2,-1 0.5,-1.3 1.8,-1.5 3.7,-2.9 5.8,-4.6 3.1,5.2 1.2,10.7 1.9,15.6 z"
     id="path46" /><path
     class="st0"
     d="m 243.1,356.2 c 0.8,-0.8 1.6,-1.6 2.5,-2.4 1.6,0 3.3,0 5,0 1.1,1.1 2.2,2.3 3.4,3.6 0,2.2 0.8,4.9 -0.2,6.7 -2.2,3.9 -2.2,8.7 -5.2,12.6 -1.9,-1.7 -2.5,-4.1 -3.6,-6.2 -1.1,-2.2 -2.1,-4.5 -2,-7.1 -2.6,-2.5 0.5,-4.8 0.1,-7.2 z"
     id="path48" /><path
     class="st0"
     d="m 173.8,173.7 c -5.2,2 -8.9,1.1 -11.6,-3.4 -1.9,-3.1 -4.4,-6 -5,-9.7 -0.1,-0.7 -0.8,-1.3 -0.9,-2.1 -0.2,-0.7 0,-1.5 0,-2.9 4.9,2.9 9.9,4.1 13.6,7.7 0.4,0.4 1.2,0.4 1.6,0.7 3.1,2.3 3.9,5.4 2.3,9.7 z"
     id="path50" /><path
     class="st0"
     d="m 249.7,117.3 c 1.5,2.7 3,4.1 3.2,5.7 0.6,5.3 2.9,10.4 1.9,16 -1.5,2.5 -1.5,2.5 -4.9,4.2 -1.5,-0.8 -3,-1.5 -4.6,-2.3 -1.7,-3.3 -1.8,-6.9 -0.3,-10.6 1.6,-3.9 2.9,-7.9 4.7,-13 z"
     id="path52" /><path
     class="st0"
     d="m 173.9,326.4 c 0,1.4 0,2.7 0,4 -4.8,6.4 -12.2,8.6 -19.7,11.9 0.3,-1.2 0.2,-1.9 0.6,-2.4 1,-1.4 2.9,-2.2 2.4,-4.4 2.1,-3.4 3.8,-6.9 7.2,-9.2 3.9,-2.8 4.7,-2.9 9.5,0.1 z"
     id="path54" /><path
     class="st0"
     d="m 330.9,174.9 c -1.9,0 -3.4,0 -4.9,0 -0.2,0 -0.3,0 -0.5,-0.1 -0.7,-0.7 -1.4,-1.4 -2.2,-2.2 0,-1.3 0,-2.7 0,-4.3 2.2,-4.2 6.2,-6.3 10.5,-8.4 2.5,-1.1 5.2,-1.8 7.4,-3.5 0.3,-0.2 0.9,-0.2 1.4,-0.3 0.9,2.2 -0.5,3.6 -1.4,5.2 -1,1.7 -2,3.5 -3.1,5.1 -1.1,1.6 -2.7,2.8 -3.4,4.5 -0.8,2 -3.1,2 -3.8,4 z"
     id="path56" /><path
     class="st0"
     d="m 405.7,185.2 c -1.2,1.4 -2.1,2.5 -3.1,3.7 -1.8,-0.3 -3.7,-0.6 -6.2,-0.9 -0.1,0.2 -0.5,1.1 -0.8,1.5 -3.9,-0.1 -3.9,-0.1 -4.4,-3.3 -1.5,-1.5 -3,-3.1 -4.6,-4.5 -2.4,-2.2 -3.8,-4.7 -3.2,-8.3 2.4,-1.9 2.8,-5.9 6.5,-7.3 1.1,1.6 2.3,3.4 3.6,5.4 -0.7,0.3 -1.2,0.4 -1.6,0.6 -0.8,-1.1 -1.6,-2.2 -2.7,-3.7 -1.4,1.9 -2.5,3.3 -3.8,5.1 0,1.1 0,2.5 0,4.1 2.8,3.2 6.8,5.7 8.3,10.5 1.2,-1.1 2.3,-2.4 3.6,-3.2 1.3,-0.8 2.8,-1.2 4.3,-1.8 1.1,0.5 2.3,1.1 4.1,2.1 z"
     id="path58" /><path
     class="st0"
     d="m 402.4,264.4 c 3.2,1.8 4.2,4.9 6.4,7.2 0.1,-0.7 0.2,-1.6 0.3,-2.4 0,-1 0,-1.9 0,-3.1 1.1,0 2.2,0 3.7,0 2,2.3 5.1,4.2 6.2,7.7 -2.1,2.3 -2.1,2.3 -5,0.9 -1.1,1.4 -2.3,2.7 -3.7,4.4 -4.5,-3.9 -8.9,-7.5 -7.9,-14.7 z"
     id="path60" /><path
     class="st0"
     d="m 235.8,101.7 c -1.2,0.4 -2.5,0.9 -3.8,1.3 -0.7,-0.6 -1.1,-1.1 -1.6,-1.5 -0.6,-5.4 -1.4,-10.7 -4.4,-16 0.7,-0.3 1.4,-0.7 2.4,-1.1 3,0.8 3.4,3.9 3.8,7 0.4,3.1 0.9,6.2 1.3,9 2.6,-2.4 5.3,-5 8,-7.5 2,-0.2 3.4,0.3 3.6,2.7 -1.1,-0.3 -2,-0.5 -3.5,-0.8 0.8,0.9 1.1,1.2 1.4,1.6 -0.4,0.4 -0.7,0.7 -1.4,1.4 -0.3,-0.3 -0.7,-0.6 -1.2,-1.1 -0.9,0.4 -1.9,0.9 -3,1.4 -0.4,0.9 -0.9,2 -1.6,3.6 z"
     id="path62" /><path
     class="st0"
     d="m 326.1,327.8 c 0,-0.2 0,-1.2 0,-2.2 1.1,-1.1 2.3,-2.3 3.5,-3.4 1.3,0 2.6,0 3.7,0 1.7,1.6 3.3,3.1 4.2,4 1.8,5.2 4.2,9.3 7,13.9 -4.4,-0.5 -7.2,-3.1 -10.6,-4.2 -3.4,-1.2 -6,-4.1 -7.8,-8.1 z"
     id="path64" /><path
     class="st0"
     d="m 334.9,376.5 c 0.4,5.3 -0.3,9.4 -3.8,13.4 0.1,-3 1.7,-4.9 1.9,-7 0.2,-2.4 0,-4.8 0,-7.5 -1.8,1.4 -3.2,2.5 -4.9,3.8 0,1.3 0,2.9 0,4.4 -0.9,1.1 -1.8,2 -2.5,2.9 -3.2,-0.8 -3.2,-0.8 -3.4,-3.9 1.6,-1.6 3.1,-3.1 5,-5 0,0 0.8,-0.1 1.6,-0.2 1.1,-1.6 2.3,-3.1 3.3,-4.6 4.5,1.1 5.5,5.3 8.1,7.9 -0.5,0.4 -0.8,0.6 -1.3,0.9 -0.8,-0.7 -1.7,-1.3 -2.4,-2.1 -0.5,-0.6 -0.8,-1.5 -1.6,-3 z"
     id="path66" /><path
     class="st0"
     d="m 405,274.7 c 0.2,0.8 0.4,1.5 0.8,2.9 -0.7,1 -1.8,2.6 -2.9,4.1 -3.2,-0.5 -4.1,-1.5 -4.7,-4.5 -0.2,-1.2 -0.6,-2.3 -1.7,-3.4 -0.1,1.5 -0.2,3 -0.3,4.4 -0.5,0.5 -0.9,1 -1.5,1.6 -0.8,-1.3 -1.6,-2.4 -2.3,-3.6 2,-2.8 1.4,-7 4.4,-9.4 0.6,0.6 1.2,1.2 1.8,1.8 0.4,-0.2 0.9,-0.4 1.5,-0.7 0,1.5 0,3 0,4.2 1,1 1.8,1.8 2.6,2.6 0.8,0 1.6,0 2.3,0 z"
     id="path68" /><path
     class="st0"
     d="m 95,226.8 c -0.5,0.2 -0.8,0.4 -1.3,0.6 -1.3,-1.3 -1.6,-3.7 -4.3,-4.2 -0.2,1.2 -0.4,2.3 -0.6,4 -0.7,0.3 -1.8,0.9 -2.7,1.3 -2.5,-3.3 -4.8,-6.3 -7.3,-9.6 1,-0.3 1.8,-0.5 3,-0.7 0.8,1.1 1.7,2.2 2.9,3.7 1,-2.1 1.8,-3.8 2.5,-5.4 1.2,0 2.2,0 3.2,0 2.1,3.1 3.2,6.7 4.6,10.3 z"
     id="path70" /><path
     class="st0"
     d="m 263,403.5 c -2.4,-1.4 -2.4,-3.1 -1.9,-5.3 3.7,-0.8 6.3,-3.8 9.4,-5.9 2.3,0.6 2.8,2.3 2.2,3.8 -1.8,4.4 -1.4,8.3 2,11.8 0.2,0.2 -0.2,0.8 -0.3,1.3 -4.5,-2.3 -5.8,-7.1 -3.6,-13.5 -1.7,-1.1 -2.3,0.3 -2.9,1.4 -0.6,1 -0.9,2.3 -1.6,3.3 -1,1 -2.1,1.9 -3.3,3.1 z"
     id="path72" /><path
     class="st0"
     d="m 377.5,337 c 2.3,-0.1 3.1,1.2 2.9,3.6 -0.4,0.4 -1,0.9 -1.7,1.5 -1.1,-0.5 -2.2,-1.1 -3,-1.5 -0.3,-0.7 -0.4,-1.1 -0.6,-1.6 -0.2,0 -0.3,0.1 -0.5,0.1 0,2.1 0,4.2 0,6.5 -0.7,0.6 -1.5,1.2 -2.6,2 1,0.9 1.7,1.7 2.5,2.1 0.9,0.5 2,0.7 2.9,1 -0.8,1.6 -1.4,2.8 -2,4 -0.6,0 -1.2,0 -1.8,0 -0.1,-0.2 -0.2,-0.4 -0.3,-0.6 0.9,-0.4 1.8,-0.8 2.9,-1.3 -2.5,-1.9 -4.2,-3.2 -6.1,-4.6 0.8,-1.1 1.5,-1.9 2.4,-3.1 -0.4,-3 0.7,-6.5 -0.9,-10.1 0.9,-0.4 1.9,-0.9 3.1,-1.4 1,1.2 1.9,2.3 2.8,3.4 z"
     id="path74" /><path
     class="st0"
     d="m 407.1,195.3 c -1.8,-1 -3.4,-2 -5,-2.9 0.4,-2.2 1.5,-2.8 3.6,-2.6 1,1 2.3,2.2 3.4,3.6 1,1.2 1.8,2.6 2.8,4 0,0.5 0,1.2 0,2.3 -0.6,-0.4 -0.9,-0.7 -1.3,-1 -0.4,1.2 -0.9,2.4 -1.4,3.7 -2.1,0 -4,0 -6,0 0,-0.6 0,-1 0,-1.6 0.9,0 1.6,0 2.5,0 -0.2,-1.7 -0.5,-3.3 -0.7,-4.8 1,-0.3 1.6,-0.5 2.1,-0.7 z"
     id="path76" /><path
     class="st0"
     d="m 227.7,100.9 c -0.5,1.1 -0.7,1.5 -1.1,2.3 -1.3,-1.2 -2.5,-2.2 -3.7,-3.2 -1.6,1.2 -3.3,2.5 -5.1,3.7 -0.2,-0.1 -0.4,-0.3 -0.6,-0.4 0.4,-0.7 0.7,-1.5 1.2,-2.1 0.2,-0.3 0.9,-0.2 1.2,-0.5 0.3,-0.2 0.5,-0.7 1,-1.3 -2.2,-0.6 -4.2,-1.2 -6.2,-1.8 0,-0.7 0.1,-1.1 0.1,-2 1.6,0.7 3.1,1.3 4.5,2 -0.6,-3.4 -3.5,-5.5 -8.4,-5.9 -0.7,-1.8 -0.1,-3 2,-4 0.7,0.7 1.5,1.5 2.3,2.2 3.6,3.3 7.2,6.5 10.8,9.8 0.7,0.6 1.4,0.9 2,1.2 z"
     id="path78" /><path
     class="st0"
     d="m 100,179.4 c -0.4,2.5 -0.4,5.4 -1.4,8 -1.2,3.1 -1,5.8 0.4,8.7 -0.7,0.6 -1.4,1.2 -2,1.8 -1.6,-1.6 -2.1,-3.2 -2.1,-5.2 0.1,-4.4 0,-8.8 0,-13.3 2.3,-1.9 2.3,-1.9 5.1,0 z"
     id="path80" /><path
     class="st0"
     d="m 280.5,85.5 c 0.8,-1.9 -0.7,-2.9 -1.8,-3.9 1.7,-3.1 3.7,-0.9 5.8,-0.3 0.4,1.6 0.8,3.4 1.2,4.9 -0.9,0.9 -1.5,1.5 -1.8,1.8 0.3,1.3 0.5,2.4 0.7,3.7 -1.1,0 -1.9,0 -2.9,0 -0.2,-3.7 -3.8,-3.4 -6.5,-5.4 0.8,-0.2 1.4,-0.4 2,-0.5 -0.2,-0.3 -0.3,-0.6 -0.5,-0.9 1.3,0.2 2.4,0.4 3.8,0.6 z"
     id="path82" /><path
     class="st0"
     d="m 399.2,302.4 c 1.5,1.2 2.1,1.6 3,2.3 -0.5,3.9 0.9,7.7 2.1,11.1 -1.8,1.8 -3.4,3.4 -5,5 -0.3,-0.4 -1.1,-1.1 -1,-1.7 0.2,-2.5 -0.4,-4.9 0.7,-7.5 1,-2.3 0.2,-5.3 0.2,-9.2 z"
     id="path84" /><path
     class="st0"
     d="m 282.4,411.1 c -0.8,-0.1 -1.1,-0.1 -1.8,-0.2 0.6,-3.8 -1,-7.2 -2,-10.6 0.7,-1.8 1.9,-2.4 3.5,-2.1 0.7,-2.7 2.8,-3.4 5.2,-4.1 0.1,0.7 0.2,1.2 0.3,1.7 -0.6,0.2 -1.2,0.4 -1.8,0.6 -0.3,1 -0.5,2.1 -0.9,3.4 0.4,0.6 1.2,1.5 2.2,2.9 -1.2,0.2 -2,0.3 -2.9,0.5 -1,-1 -2.1,-2.1 -3.6,-3.6 0.7,4.3 2.6,7.6 1.8,11.5 z"
     id="path86" /><path
     class="st0"
     d="m 241.8,88.9 c -2.5,-1.6 -5.2,-2.4 -4.6,-6.2 -1.9,1.2 -3.3,2.1 -5.5,3.5 0.8,-1.4 1,-2.4 1.6,-2.8 1.5,-1 3.3,-1.6 5.2,-2.6 0.9,1.3 1.1,4 4.6,2.7 0.9,-0.5 1.7,-3.2 4.7,-2.4 0.1,0.6 0.1,1.4 0.2,2.5 -2,1.9 -4.3,3.8 -6.2,5.3 z"
     id="path88" /><path
     class="st0"
     d="m 281.1,102.8 c -1.6,0 -3.8,0 -6,0 -0.5,-0.7 -1.1,-1.4 -1.9,-2.6 4.3,-0.7 8.1,-1.6 11.3,-4.3 -1.5,0.3 -3.1,0.6 -4.6,1 -0.1,-0.3 -0.2,-0.6 -0.3,-0.8 1.7,-0.8 3.5,-1.5 5.5,-2.4 0.5,0.6 1,1.2 1.5,1.8 0.5,3.9 -3.2,5 -5.5,7.3 z"
     id="path90" /><path
     class="st0"
     d="m 172.7,378.9 c 0.5,2.2 4.4,0.8 5.1,3 -1.5,1.5 -2.7,2.7 -4.6,4.6 0.4,0 -0.4,0 -1.3,0 0.6,1.5 1.7,2 3,1.8 1.6,-0.2 2.4,0.6 3.1,2.6 -0.6,0.2 -1.3,0.5 -2,0.8 -0.1,-0.4 -0.3,-1.3 -0.5,-2.6 -0.9,0.5 -1.5,0.8 -2.2,1.2 -1.1,-0.7 -2.2,-1.4 -3.2,-2 0.6,-2.7 3.2,-5 0.4,-8.1 0.8,-0.6 1.6,-1 2.2,-1.3 z"
     id="path92" /><path
     class="st0"
     d="m 290.6,396.5 c 0.8,-2.7 1.4,-4.9 2.1,-7 2,-0.3 3.8,-0.5 4.9,1.8 -0.9,1.4 -1.9,3 -3.1,4.9 0,0.8 0,2.1 0,3.5 0.6,0.6 1.3,1.3 2.2,2.3 -1.1,0.1 -1.8,0.1 -2.4,0.2 -2.7,-1.1 -2.5,-3.9 -3.7,-5.7 z"
     id="path94" /><path
     class="st0"
     d="m 82.8,274.8 c -1.5,-0.5 -3.1,-1 -4.7,-1.5 0,-0.4 0.1,-0.9 0.1,-1.3 0.4,-0.1 0.8,-0.4 1,-0.2 2.9,2.1 5.3,0.7 7.5,-1.3 1.5,-1.4 3.1,-2.7 5.5,-2.7 0.7,1 1.5,2.1 2.3,3.2 2.3,-1.6 4.4,-3.1 6.5,-4.6 -1.2,3.7 -4.6,4.5 -7.3,6.7 -0.9,-1.3 -1.7,-2.3 -2.7,-3.7 -2.6,1.8 -5.3,3.6 -8.2,5.4 z"
     id="path96" /><path
     class="st0"
     d="m 251.9,95.9 c -1,-0.5 -2,-1.1 -3.4,-1.8 1.5,-1.5 2.7,-2.8 4,-4.1 1.5,1.1 3,2.1 4.4,3.1 0.3,4.3 0.5,8.2 -4.5,9.6 -0.9,-1.7 0.9,-2.1 1.6,-3.2 0,-1.2 0,-2.7 0,-4.1 -1,-0.9 -1,0.3 -2.1,0.5 z"
     id="path98" /><path
     class="st0"
     d="m 105.9,334.9 c 0,-1.2 0,-2 0,-3.4 1.4,0.9 2.4,1.6 3.4,2.3 1.3,0 2.7,0 4.9,0 -1.6,-1.1 -2.5,-1.7 -3.5,-2.4 -0.3,-1.2 -0.1,-2.5 1.3,-3.2 1,-0.5 2.2,-0.6 3.9,-1.1 -0.5,0.8 -0.8,1.4 -1.2,1.8 -0.6,0.5 -1.3,0.8 -2,1.3 1.1,0.8 2.1,1.6 3.6,2.7 -1.2,0.8 -2,1.5 -2.9,2 -0.9,0.5 -1.8,0.8 -3.7,1.6 2,0.3 2.9,0.4 3.9,0.6 -0.2,0.3 -0.3,0.7 -0.4,0.8 -3.2,0.7 -4.9,-1.8 -7.3,-3 z"
     id="path100" /><path
     class="st0"
     d="m 262.9,411.7 c 1.1,1 1.9,1.7 2.9,2.6 1.2,-1.1 2.4,-2.2 3.5,-3.2 0.8,0.8 1.6,1.6 2.5,2.5 -0.5,2.5 -2.9,3 -4.3,4 -2.4,-0.1 -2.7,-2.3 -4.2,-3.6 -2.2,2.1 -4.3,4.4 -6.5,6.4 -0.2,-0.3 -0.5,-0.6 -0.7,-0.8 2.1,-2.5 4.3,-5 6.8,-7.9 z"
     id="path102" /><path
     class="st0"
     d="m 93,220 c -0.2,-0.9 -0.4,-2 -0.8,-3.5 0.1,-0.1 0.6,-0.6 1.1,-1.1 2.9,-0.4 4.6,1.6 6.1,3.1 0.4,1.8 0.8,3.3 1.2,5.1 -1.5,0.5 0.2,3.2 -2.5,3.9 -0.1,-0.9 -0.3,-1.6 -0.3,-2.3 -0.1,-0.8 0,-1.6 0,-2.7 -1.5,-0.8 -3.1,-1.7 -4.8,-2.5 z"
     id="path104" /><path
     class="st0"
     d="m 399.9,179.4 c 0.7,-1.4 1.2,-2.5 1.8,-3.5 0.7,0 1.4,0 1.6,0 1.9,2.6 3.6,5 5.6,7.8 0,0.9 0,2.5 0,4.9 -1.7,-2.1 -2.9,-3.4 -3.9,-5.2 -1,-1.7 -3.3,-2.7 -5.1,-4 z"
     id="path106" /><path
     class="st0"
     d="m 337.7,108.6 c 1.5,2.7 -1,4 -1.9,5.5 -1.8,2.8 -3.8,5.2 -3.8,8.8 0,0.6 -0.9,1.1 -1.8,2.1 -0.5,-5.9 2.3,-10.3 4,-15 1.2,-0.5 2.4,-1 3.5,-1.4 z"
     id="path108" /><path
     class="st0"
     d="m 119.3,319.7 c -1.4,1.8 -2.3,3.4 -3.5,4.5 -1.1,1.1 -2.5,1.8 -3.9,2.7 -1,-1.4 -2.9,-2.2 -3.4,-4.3 1.1,-0.8 2.1,1.5 3.3,0 0.3,-0.4 2.1,0.4 3.3,0.6 0.6,-1.3 1.1,-2.5 1.7,-3.8 0.7,-0.4 1.5,-0.7 2.3,-1.1 1,1 2,2 3.1,3.1 0,1.5 0,3 0,4.9 -0.9,-2.3 -1.8,-4.3 -2.9,-6.6 z"
     id="path110" /><path
     class="st0"
     d="m 199.2,404.1 c 4.4,-2.2 4.4,-2.2 10.5,-0.4 -0.5,1.8 -2.1,2.1 -3.5,2.3 -1.4,0.3 -3.2,0.6 -4.3,0 -2.6,-1.4 -5.3,-0.5 -8,-1 2,-2.3 2.3,-2.3 5.3,-0.9 z"
     id="path112" /><path
     class="st0"
     d="m 102.5,192.7 c -0.4,-0.3 -0.9,-0.8 -1.6,-1.4 -0.2,-3.8 -0.4,-7.7 3.1,-11.1 0.8,1.4 1.3,2.4 1.9,3.5 -2.6,2.6 0.5,6.5 -3.4,9 z"
     id="path114" /><path
     class="st0"
     d="m 131.8,137.4 c -0.3,0 -0.6,-0.1 -1.4,-0.1 0.3,-0.9 0.5,-1.6 0.8,-2.4 0.8,-1.9 -0.8,-4.2 1.2,-5.9 -0.4,-2 0.6,-3.6 1.4,-5.3 0.8,0 1.5,0 2.3,0 0,2.5 -2.3,9.8 -4.3,13.7 z"
     id="path116" /><path
     class="st0"
     d="m 207.6,105 c 0.4,-1.3 0.7,-2.5 1.2,-4.1 -1.2,0 -2,0 -3.1,0 -0.1,-1 -0.1,-1.9 -0.2,-3.2 3.4,0.4 6.2,1.2 8.6,3.1 0.2,3.3 0.2,3.3 -5.2,5.9 -0.3,-0.4 -0.7,-0.9 -1.3,-1.7 z"
     id="path118" /><path
     class="st0"
     d="m 386.5,159.4 c -2.1,-0.6 -4.2,0.5 -5.1,-2.1 2.8,0 5.5,0 8.9,0 0.4,1.1 0.8,2.5 1.3,3.8 -1.6,1.5 -2.4,3.6 -5.1,2.7 0,-1.3 0,-2.8 0,-4.4 z"
     id="path120" /><path
     class="st0"
     d="m 237.5,401.9 c 0.6,0.2 1.2,0.4 1.7,0.6 -0.1,0.2 -0.2,0.3 -0.3,0.5 -1.8,0 -3.5,0 -5.1,0 -1.4,1.4 -2.7,2.7 -3.9,3.9 -1.8,0.5 -3.1,0.1 -3.6,-1.5 1.4,-1.4 2.6,-2.6 4.2,-4.3 1.8,0 4.4,0 7,0 0.1,0.3 0,0.6 0,0.8 z"
     id="path122" /><path
     class="st0"
     d="m 305.7,102 c -0.2,-0.7 -0.3,-1.1 -0.4,-1.5 0.3,-0.2 0.5,-0.5 0.8,-0.6 2,-0.4 3.9,-0.7 5.9,-1.2 1.9,-0.5 3.7,-1.5 5.6,-1.7 2.3,-0.3 4.7,-0.5 6.6,1.6 0,0.3 -0.1,0.6 -0.2,1.3 -3.1,-0.6 -6.2,-2.3 -9.3,0 -3.2,-0.6 -6,1 -9,2.1 z"
     id="path124" /><path
     class="st0"
     d="m 101.8,221.6 c 1.5,1 2.2,1.6 2.9,2.1 0,3 0.6,5.9 -1.3,8.4 -1.1,0 -2.2,0 -3.4,0 -1.1,-3.8 2.6,-6.3 1.8,-10.5 z"
     id="path126" /><path
     class="st0"
     d="m 150.2,380.3 c 1.4,0.9 2.6,1.6 3.8,2.3 0,1.2 0,2.3 0,3.5 -0.4,0.1 -0.9,0.4 -1.2,0.2 -2.9,-1.3 -5.7,-2.8 -8.8,-4.3 0.7,-0.7 1.3,-1.2 2,-1.9 0.7,0.5 1.4,0.9 2.2,1.4 0.5,-0.3 1.2,-0.7 2,-1.2 z"
     id="path128" /><path
     class="st0"
     d="m 279.4,415.8 c 1.7,-4.1 6.3,-4 8,-7.4 0.3,0.2 0.6,0.4 0.9,0.6 0.1,1.2 0.3,2.4 0.4,3.3 -1.3,1.4 -2.4,2.5 -3.4,3.5 -2,0 -3.8,0 -5.9,0 z"
     id="path130" /><path
     class="st0"
     d="m 343.1,116.4 c -1.4,0.5 -2.7,0.9 -3.9,1.3 -2.9,-2.3 -2.9,-2.3 -0.6,-5.2 2.3,0.9 4.7,1.9 7.1,2.9 0,1.2 0,2.1 0,3.3 -1,-0.9 -1.8,-1.5 -2.6,-2.3 z"
     id="path132" /><path
     class="st0"
     d="m 365.3,354.1 c 0.5,-1.7 1,-3.5 1.5,-5.2 2.7,-0.3 2.4,2.3 3.5,3.1 0,2 0,3.8 0,6 -2.3,-0.8 -3.3,-2.6 -5,-3.9 z"
     id="path134" /><path
     class="st0"
     d="m 224.7,80.2 c -1.9,4.2 -5.5,5.3 -9.1,7.1 -0.1,-1.1 -0.2,-1.9 -0.2,-2.8 2.4,-2.5 5.1,-4.4 9.3,-4.3 z"
     id="path136" /><path
     class="st0"
     d="m 181.3,396.4 c -0.7,-0.2 -1,-0.3 -1.6,-0.5 0.6,-1.4 1.2,-2.7 2.2,-4.7 0.4,-2.1 -0.9,-5.1 1,-7.7 -0.4,-0.8 -0.8,-1.6 -1.3,-2.7 0.8,-0.2 1.4,-0.3 2,-0.4 0.6,8.9 0.5,9.8 -2.3,16 z"
     id="path138" /><path
     class="st0"
     d="m 103.4,329.2 c -5.8,-5.8 -5.8,-5.8 -7.3,-11.6 0.3,-0.1 0.6,-0.2 1.2,-0.4 0.5,1 1.4,1.9 1.5,3 0.4,3.8 2.8,5.7 5.9,7 0.5,0.2 0.8,0.6 2,1.4 -1.7,0.2 -2.5,0.4 -3.3,0.6 z"
     id="path140" /><path
     class="st0"
     d="m 116.5,151.9 c 0,0.6 0,1.2 0,1.8 -1.3,1.3 -4.7,0 -7.8,-2.9 1.2,-1.3 1.1,-4.2 4.1,-3.5 1.3,1.5 2.5,3 3.7,4.6 z"
     id="path142" /><path
     class="st0"
     d="m 226.8,401.2 c -0.7,-0.7 -1,-1 -1.5,-1.5 3,-0.6 2.3,-4.3 5,-5.6 1.2,0.5 2.6,1 4.1,1.6 -1,4.2 -5.6,3.1 -7.6,5.5 z"
     id="path144" /><path
     class="st0"
     d="m 336.7,122.3 c 1.4,-1.3 2.6,-2.3 4,-3.6 0.8,0 1.9,0 3.1,0 -0.4,2.2 -0.7,4.3 -1.2,6.8 -1.9,-1 -4.4,-0.3 -5.9,-3.2 z"
     id="path146" /><path
     class="st0"
     d="m 257.6,82.2 c 0.5,0.5 0.9,0.9 1.2,1.2 -1.7,2.6 -5,2 -7,3.8 -2.2,-2 0.3,-3.3 0.3,-5 1.8,0 3.5,0 5.5,0 z"
     id="path148" /><path
     class="st0"
     d="m 381.6,348.5 c -1.9,-1.3 -0.9,-3.4 -1,-4.1 1.2,-1.6 1.9,-2.7 3.2,-4.5 0.3,1.3 0.6,2.2 0.8,3.1 0.3,-0.2 0.5,-0.5 0.8,-0.7 0,1 0,1.9 0,3.2 -1.1,0.8 -2.4,1.8 -3.8,3 z"
     id="path150" /><path
     class="st0"
     d="m 85.5,285.7 c -0.2,-0.5 -0.4,-0.9 -0.7,-1.4 1.8,-1 3.5,-1.9 6,-3.3 -2.5,-0.3 -4.1,-0.4 -6.9,-0.7 3.3,-0.7 5.5,-1.2 7.9,-1.8 0,1.3 0,2.4 0,3.9 -1.9,1 -4,2.1 -6.3,3.3 z"
     id="path152" /><path
     class="st0"
     d="m 130.3,147.1 c -0.7,0.5 -1.4,1 -2.1,1.4 -1,-2.3 -1.8,-4.4 -2.8,-6.8 0.5,-0.4 1.1,-1 1.9,-1.7 0.9,0.4 1.9,0.7 3,1.1 0,2.1 0,3.9 0,6 z"
     id="path154" /><path
     class="st0"
     d="m 380,161.1 c 0.4,0.4 0.9,0.9 1.4,1.4 0,0.9 0,1.9 0,3 -0.8,0.8 -1.7,1.7 -2.8,2.8 -1.1,-1 -2.2,-1.9 -3.2,-2.8 0.5,-2.7 2.9,-3.1 4.6,-4.4 z"
     id="path156" /><path
     class="st0"
     d="m 232.4,413 c -1.7,-0.6 -3,-1.1 -5.3,-1.9 2.1,-0.9 3.2,-1.4 4.4,-1.9 1.1,-0.5 2.3,-0.9 3.7,-1.4 0.7,0.6 1.4,1.2 2.1,1.9 -0.3,0.5 -0.4,1.1 -0.7,1.3 -1.3,0.8 -2.7,1.3 -4.2,2 z"
     id="path158" /><path
     class="st0"
     d="m 375.7,354.5 c 1.2,0.4 2.5,0.8 3.7,1.1 0,1.6 0,2.7 0,3.6 -1.5,1.7 -2.9,2.1 -4.7,0 -0.5,-1.4 -0.3,-3 1,-4.7 z"
     id="path160" /><path
     class="st0"
     d="m 248.3,403.8 c 0.8,1.2 1.6,2.2 2.3,3.3 0.9,1.8 -0.8,2.7 -2,4 -0.6,-0.4 -1.2,-0.7 -2.3,-1.4 -0.3,-0.6 -0.8,-1.6 -1.4,-2.9 0.9,-0.9 1.9,-1.7 3.4,-3 z"
     id="path162" /><path
     class="st0"
     d="m 266.7,408.7 c -2.1,0.5 -3.8,0.9 -6.1,1.4 0.5,-1 0.6,-1.7 1,-2.2 1.2,-1.3 2.5,-2.5 3.7,-3.8 3,1.8 3,1.8 1.4,4.6 z"
     id="path164" /><path
     class="st0"
     d="m 192,96 c 0.9,0 1.7,0 2.6,0 0,1.1 0,2 0,3.2 -0.7,1.1 -1.6,2.3 -2.6,3.8 -0.6,-0.4 -1.2,-0.8 -2.1,-1.3 0.7,-2 1.4,-3.9 2.1,-5.7 z"
     id="path166" /><path
     class="st0"
     d="m 315.3,108.1 c -1.1,-0.9 -1.7,-1.4 -2.5,-2 1.3,-1.9 2.5,-3.6 3.7,-5.3 0.8,0.7 1.2,1.2 1.7,1.6 0,2.2 -1,4 -2.9,5.7 z"
     id="path168" /><path
     class="st0"
     d="m 236.6,415.8 c -1.3,1 -3.8,0.6 -6.2,0.1 0,-0.6 0,-1 0,-1.5 1.5,-0.8 3.4,0.4 4.7,-1.2 0.2,-0.3 1.7,0.1 2.1,0.5 0.6,0.7 0.8,1.8 -0.6,2.1 -2.2,-1.5 -2,-1.3 -1.9,-1 -0.2,-0.3 -0.3,-0.5 1.9,1 z"
     id="path170" /><path
     class="st0"
     d="m 353.6,372.9 c -1,-1.3 -1.8,-2.3 -2.8,-3.5 0.7,-0.8 1.6,-1.8 2.7,-3.1 0.7,0.6 1.5,0.9 1.9,1.5 0.8,1.7 0.4,2.9 -1.8,5.1 z"
     id="path172" /><path
     class="st0"
     d="m 353.8,130 c 0,-1.2 0,-2.1 0,-3.1 0.8,-0.8 3.3,-0.6 4.3,0.3 1,0.9 0.9,2 0.3,3 -1.1,1.7 -1.9,1.6 -4.6,-0.2 z"
     id="path174" /><path
     class="st0"
     d="m 335.2,105.4 c 1.1,-0.5 1.8,-0.8 2.6,-1.2 1.3,-0.5 3.1,-1 4.2,1.6 -0.9,0.9 -1.9,2 -3.1,3.4 -1.2,-1.3 -2.2,-2.3 -3.7,-3.8 z"
     id="path176" /><path
     class="st0"
     d="m 196.6,110.2 c 1.9,-0.7 3.7,-1.5 6.1,-2.4 0.8,0 2.3,0 4.4,0 -1.3,0.9 -2,1.8 -2.6,1.7 -1.9,-0.1 -3.3,0.8 -4.8,1.5 -0.8,0.4 -1.7,0.5 -2.7,0.7 -0.2,-0.6 -0.3,-1.1 -0.4,-1.5 z"
     id="path178" /><path
     class="st0"
     d="m 89.6,198 c 1.4,1.3 2.4,2.2 3.3,3 0,0.9 0,1.6 0,2.2 -0.9,0.4 -1.7,0.8 -2.4,1.2 -0.8,-0.4 -1.6,-0.8 -2.8,-1.4 0.5,-1.5 1.1,-3 1.9,-5 z"
     id="path180" /><path
     class="st0"
     d="m 304.3,403.3 c 0,1.3 0,2.4 0,3.4 -2.3,1.7 -2.9,1.8 -4,0.7 -1.6,-1.5 -1,-2.8 0.5,-4.1 0.9,0 2,0 3.5,0 z"
     id="path182" /><path
     class="st0"
     d="m 144.5,124.3 c 0.7,1.1 1.5,2.1 2.3,3.3 -0.1,0.1 -0.5,0.9 -0.9,1.8 -1,0 -2.1,0 -3.2,0 -0.6,-0.6 -1.1,-1.2 -1.6,-1.8 1.2,-1.2 2.1,-2.2 3.4,-3.3 z"
     id="path184" /><path
     class="st0"
     d="m 315.2,389.3 c 0.5,0 1,0 1.5,0 -0.6,2.9 -1.3,5.8 -2,8.8 -0.3,0 -0.7,0 -1.6,0.1 0.5,-1.9 -0.7,-3.8 1,-5.5 0.4,-0.4 0.1,-1.6 0.1,-2.4 0.4,-0.3 0.7,-0.6 1,-1 z"
     id="path186" /><path
     class="st0"
     d="m 267.7,89.7 c 1.2,-0.9 2.1,-1.8 3.4,-2.8 0.5,0.8 1.2,1.9 2.1,3.4 -0.8,0.4 -1.5,0.8 -2.2,1.2 -1.4,0.7 -2.6,0.1 -3.3,-1.8 z"
     id="path188" /><path
     class="st0"
     d="m 180.5,403.2 c -1.3,0.1 -2.5,-0.9 -2.6,-2.2 -0.2,-1.6 1,-2.8 2.6,-2.7 1.3,0.1 2.3,1.1 2.3,2.5 0,1.2 -1,2.3 -2.3,2.4 z"
     id="path190" /><path
     class="st0"
     d="m 415.4,222.7 c -1.2,0.6 -2.1,1.1 -2.8,1.4 -0.7,-0.4 -1.6,-0.8 -2.4,-1.2 0,-0.6 0,-1.2 0,-2 1,-0.5 2,-1 3.5,-1.8 0.6,1.2 1.1,2.4 1.7,3.6 z"
     id="path192" /><path
     class="st0"
     d="m 406.6,293.3 c 0.6,-1.5 1.1,-2.7 1.5,-3.7 1.5,0 2.5,0 3.6,0 0.9,1.6 0.3,2.8 -1.2,3.9 -1,-0.1 -2.2,-0.1 -3.9,-0.2 z"
     id="path194" /><path
     class="st0"
     d="m 215,413 c -0.7,1.3 -2.1,1.2 -3.3,0.9 -0.8,-0.2 -1.5,-0.9 -2.3,-1.4 1.4,-2 1.4,-2 3.6,-2.6 0.5,1 1.2,2 2,3.1 z"
     id="path196" /><path
     class="st0"
     d="m 379.2,144.3 c 0,0 -0.6,0 -1.3,0 -0.4,-0.8 -0.8,-1.6 -1.3,-2.6 0.8,-0.6 1.8,-1.4 3,-2.4 0.7,0.6 1.6,1.4 2.3,2 -0.8,0.9 -1.6,1.7 -2.7,3 z"
     id="path198" /><path
     class="st0"
     d="m 201.9,88.1 c 1.2,0.7 2.3,1.4 3.3,1.9 -0.8,1 -1.6,1.9 -2.4,2.9 -0.5,0 -1.2,0 -1.8,0 -0.8,-0.9 -0.5,-2.9 0.9,-4.8 z"
     id="path200" /><path
     class="st0"
     d="m 308.5,108.5 c -0.1,-2 -0.2,-3.2 -0.2,-4.5 1.3,-0.8 2.5,-1.4 3.8,-2.2 0,1.3 0,2.4 0,3.7 -0.9,0.7 -2,1.6 -3.6,3 z"
     id="path202" /><path
     class="st0"
     d="m 300.2,91.2 c -0.8,-0.8 -1.2,-1.2 -1.5,-1.5 0.8,-1 1.5,-2 2.1,-2.7 2.1,-0.2 3.3,0.4 3.6,2.5 -1.4,0.6 -2.9,1.2 -4.2,1.7 z"
     id="path204" /><path
     class="st0"
     d="m 350.8,375.8 c -0.3,3.5 -1.9,6.5 -3.6,9.5 -0.3,0 -0.7,0 -1.1,-0.1 1.3,-3.3 2.5,-6.6 3.7,-9.9 0.4,0.3 0.7,0.4 1,0.5 z"
     id="path206" /><path
     class="st0"
     d="m 364.4,364.5 c -0.2,4 -1.1,6.3 -3.6,8.9 1.3,-2.9 0.4,-6.5 3.6,-8.9 z"
     id="path208" /><path
     class="st0"
     d="m 240.9,89 c 0.4,0.5 0.8,1 1.1,1.5 -0.8,0.4 -1.6,0.8 -2.4,1.2 -0.8,-1.3 -1.6,0.2 -2.5,0.2 -0.9,0 -1.9,0 -2.9,0 0,-0.8 0,-1.2 0,-1.6 2.4,-0.5 4.7,-0.9 6.7,-1.3 z"
     id="path210" /><path
     class="st0"
     d="m 392.8,181.8 c -0.5,-1 -1,-2.1 -1.5,-3.1 0.6,-1.5 3,-1.1 5,0.9 -0.5,1.9 -1.7,2.5 -3.5,2.2 z"
     id="path212" /><path
     class="st0"
     d="m 99.2,316.1 c 1.5,-1.1 2.8,-2 4,-2.8 0.4,0.4 0.9,0.8 1.4,1.3 -0.8,1.2 -1.5,2.5 -2.2,3.6 -0.6,-0.1 -1,0 -1.2,-0.2 -0.6,-0.4 -1.1,-1 -2,-1.9 z"
     id="path214" /><path
     class="st0"
     d="m 294.5,410 c -1.4,0 -2.5,0 -3.8,0 -0.3,-1.9 -0.8,-3.8 1.8,-5 0.6,0.5 1.3,1 1.9,1.6 0.1,1 0.1,2 0.1,3.4 z"
     id="path216" /><path
     class="st0"
     d="m 287.1,100.6 c 0.2,0.7 0.4,1.1 0.6,1.7 -2.7,0.7 -4.8,3.5 -8.2,2 2.6,-1.3 5,-2.5 7.6,-3.7 z"
     id="path218" /><path
     class="st0"
     d="m 108.2,302.1 c -0.8,0.9 -1.4,1.6 -1.8,2.2 -1.9,0.5 -2.9,-0.4 -3.9,-2 0.7,-0.7 1.3,-1.4 1.9,-2 1.2,0.6 2.3,1.1 3.8,1.8 z"
     id="path220" /><path
     class="st0"
     d="m 90,292.5 c 0,-1.1 0,-1.9 0,-2.7 2.6,-0.1 3.3,0.2 5.1,2.1 -1.7,0.9 -3.4,0.4 -5.1,0.6 z"
     id="path222" /><path
     class="st0"
     d="m 399.3,202.1 c -1.1,0.6 -2,1 -3.3,1.7 -0.6,-0.5 -1.2,-1.2 -2.1,-2 0.7,-0.8 1.3,-1.5 2.1,-2.5 1.2,0.9 2.2,1.8 3.3,2.8 z"
     id="path224" /><path
     class="st0"
     d="m 96,256.9 c 0.5,-0.3 1.2,-0.7 2.3,-1.4 0.6,0.6 1.2,1.3 1.7,1.7 -0.7,2.5 -2,2.9 -4,2.4 0,-0.8 0,-1.7 0,-2.7 z"
     id="path226" /><path
     class="st0"
     d="m 115.4,349.3 c 3.6,-0.6 4,-0.2 3.8,3.5 -2.1,-0.3 -3,-1.7 -3.8,-3.5 z"
     id="path228" /><path
     class="st0"
     d="m 314.4,407.2 c -0.4,-0.2 -0.8,-0.4 -1.2,-0.6 0.9,-1.9 1.8,-3.6 2.7,-5.5 2.2,0.1 1.6,1.7 1.1,2.7 -0.7,1.3 -1.7,2.2 -2.6,3.4 z"
     id="path230" /><path
     class="st0"
     d="m 123.9,346.8 c 1.3,0.9 2.5,1.8 4.2,3 -1.7,0.9 -2.8,1.5 -4.2,2.3 -0.2,-0.8 -0.4,-1.3 -0.6,-1.9 0.8,-0.3 1.3,-0.5 2,-0.7 -0.1,-1.1 -2.8,-0.4 -1.4,-2.7 z"
     id="path232" /><path
     class="st0"
     d="m 157,383.6 c 1.3,0 2.5,0 3.9,0 0,0.7 0,1.5 0,2.3 -0.1,0.1 -0.3,0.3 -0.6,0.4 -1.8,0.2 -3,-0.4 -3.3,-2.7 z"
     id="path234" /><path
     class="st0"
     d="m 103.2,248.9 c -0.8,0.9 -1.3,1.4 -1.8,1.9 -0.5,-0.3 -0.9,-0.6 -1.4,-0.9 -0.4,-0.2 -0.8,-0.3 -1.6,-0.5 0.8,-1 1.4,-1.8 2.3,-3 0.9,1 1.6,1.6 2.5,2.5 z"
     id="path236" /><path
     class="st0"
     d="m 397.1,312.2 c -0.6,0 -1,0 -1.6,0 0,-1.6 0,-3.1 0,-4.8 0.6,0 1,0 1.6,0 0,1.6 0,3.1 0,4.8 z"
     id="path238" /><path
     class="st0"
     d="m 139.3,358.7 c -0.4,1.9 -1.7,0.8 -2.8,0.8 0,-1.5 0,-3.1 0,-4.7 1.7,-0.4 2.4,0.5 2.8,1.8 0,0.2 -0.1,0.3 -0.1,0.5 -0.1,0.3 -0.1,0.7 0,1 0.1,0.3 0.1,0.4 0.1,0.6 z"
     id="path240" /><path
     class="st0"
     d="m 137.7,379.5 c -0.6,-0.9 -1.1,-1.7 -1.5,-2.4 1.8,-1.6 2.3,0.2 3.2,0.8 -0.5,0.5 -1,0.9 -1.7,1.6 z"
     id="path242" /><path
     class="st0"
     d="m 85.1,266.1 c -0.2,2.8 -1.3,3.4 -2.9,3.4 0.6,-1 1.5,-1.9 2.9,-3.4 z"
     id="path244" /><path
     class="st0"
     d="m 203.7,400.7 c -0.5,0.2 -1,0.4 -1.9,0.8 -0.1,-1.2 -0.2,-2 -0.3,-3 1.5,1 1.5,1 2.2,2.2 z"
     id="path246" /><path
     class="st0"
     d="m 87.7,301.4 c -0.6,0 -0.9,0 -1.4,0 -0.1,-0.5 -0.2,-1 -0.4,-1.7 0.6,-0.1 1.1,-0.2 1.8,-0.4 0,0.8 0,1.4 0,2.1 z"
     id="path248" /><path
     class="st0"
     d="m 195.1,399.5 c 0.5,0.3 1.1,0.7 2.1,1.3 -2.4,0.2 -2.4,0.2 -2.1,-1.3 z"
     id="path250" /><path
     class="st0"
     d="m 117.7,328.2 c 0,-0.9 0,-1.3 0,-1.6 0.5,0.3 1.1,0.7 1.9,1.3 -0.6,0.1 -1.1,0.1 -1.9,0.3 z"
     id="path252" /><path
     class="st0"
     d="m 173.9,377.7 c 0.7,0 1.3,0 2,0 0,0.2 0,0.3 0,0.5 -0.7,0 -1.3,0 -2,0 0,-0.2 0,-0.3 0,-0.5 z"
     id="path254" /><path
     class="st0"
     d="m 139.3,356.7 c 0.3,0.4 0.7,0.8 1,1.2 -0.3,0.2 -0.7,0.5 -1,0.7 -0.6,-0.6 -0.6,-1.2 0,-1.9 z"
     id="path256" /><path
     class="st0"
     d="m 91.6,307.3 c 0,0.3 0,0.7 0,1 -0.1,0 -0.2,0 -0.3,0 0,-0.3 0,-0.7 0,-1 0,0 0.2,0 0.3,0 z"
     id="path258" /><path
     d="m 361.7,187.7 c 2.1,1.5 3.7,3.2 5.2,5.4 1.6,2.4 4.3,4.2 6.6,6.4 -0.9,2.4 -2.3,5.1 -1.9,8.2 0.2,1.5 0.8,3 0.9,4.5 0.1,1.4 0.1,2.8 1,4.1 0.4,0.7 0.1,1.9 0.1,3.6 -2.3,-5.8 -4.4,-10.7 -6.6,-16.3 -1,1.5 -2.1,2.4 -2.2,3.4 -0.4,4.9 -2.6,9.5 -2.1,14.5 0.4,3.6 -1.4,6.3 -3.7,8.8 -4.6,5.2 -9.4,10.3 -14.3,15.7 0.7,0.7 1.4,1.6 2.2,2.4 5.2,5.6 10.4,11.2 15.8,17 0,3.7 0,7.6 0,11.5 0,4 1.6,7.6 2.4,11.4 0.4,1.9 2.1,3.6 3.6,5.9 1.9,-4.9 3.6,-9.2 5.7,-14.4 -0.2,4.6 0.8,8.3 -0.6,12.1 -0.6,1.7 0.2,3.9 0.4,6.4 -0.6,0.4 -1.7,0.9 -2.7,1.6 -2.5,1.9 -3.6,4.7 -4.9,7.3 -1,2 -1.7,4.1 -4,5 0.7,-1.9 1.4,-3.7 2,-5.6 0.7,-2.5 1.3,-5.1 2,-7.6 0.3,-1 0.7,-2 1.1,-3.4 -1.2,-0.1 -2.2,-0.2 -2.6,-0.3 -7.9,3.6 -12.7,9.8 -17.3,15.6 -9.7,1.5 -18.8,4.1 -28.7,3 -1.4,4.6 -1,9.3 -1.9,13.7 -0.9,4.3 -1.6,8.6 -2.4,13.2 -6.1,2.9 -10.5,7.8 -13.5,14.1 -0.9,2 -2.4,3.7 -1.8,6.3 3.1,0.9 5.9,-0.7 8.8,-1.7 3,-1.1 4.9,-3.2 6.3,-6.2 0.5,5 -1.5,8.8 -5.8,11.1 -3.1,1.7 -4.3,2.9 -6,6.1 -2.1,-1.2 -4.1,-1.5 -6.5,-0.2 -3.8,2 -7.8,2.8 -11.9,0.6 -0.8,-0.4 -1.8,-0.5 -2.8,-0.8 3.8,-1.8 7.5,-3.6 12.1,-5.7 0.5,0 1.9,0 3.7,0 -0.3,-2.2 -1.5,-3.3 -3.1,-3.9 -3.2,-1.1 -6.2,-2.4 -9.6,-3.1 -3.3,-0.7 -6.6,-0.8 -10,-0.9 -1.3,0 -2.7,-0.6 -3.9,-1.3 -4.1,-2.4 -8.5,-4.4 -12.3,-7.3 -2.7,-2.1 -5.6,-4 -8.9,-6.3 -0.5,0.3 -1.9,0.6 -2.3,1.4 -2.7,5 -7.4,8 -11.6,11.3 -2.6,2 -4.8,4.6 -8.6,6.1 -0.9,-0.3 -2.8,1 -4.2,-0.7 -7.2,-0.4 -14.3,-0.5 -21.2,2.2 -0.4,0.2 -0.7,0.7 -1.2,1.2 4.6,3.4 9.1,6.8 13.6,10.1 -3.5,1.1 -7,-0.3 -10.5,-1.2 -3,-0.8 -5.8,-0.7 -8.7,0.2 -0.9,-3.1 -2.3,-5.8 -5.3,-7.7 -2.6,-1.6 -5.5,-3.1 -7.4,-7 1.3,0.6 1.8,0.9 2.4,1.1 3.6,1.6 7,3.5 11.1,3 0.5,-0.1 1,0.6 0.9,0.5 1,-0.4 1.8,-0.7 2.4,-0.9 -3.9,-6.7 -9.5,-11.1 -14.5,-14.9 -2.1,-5 -1.7,-9.9 -3.6,-14.2 0.7,-4.9 -1.9,-9.5 -0.9,-14.3 -2.9,-1.3 -5.9,-1.3 -8.9,-1.7 -2.2,-0.4 -4.9,0.1 -6.4,-1 -2,-1.4 -4,-0.1 -5.9,-1.4 -1.7,-1.1 -4.1,-1.1 -6.4,-1.6 -6.2,-7.8 -15.3,-11.3 -24.9,-15 0.2,1.1 0.2,1.9 0.6,2.3 2.9,2.9 4.2,7 7.3,9.8 1.3,1.2 2.6,2.4 4.6,4.4 -2,-0.7 -3.3,-0.8 -4.1,-1.5 -3.8,-2.9 -7.7,-5.8 -10.4,-9.9 -0.6,-0.9 -1.9,-1.5 -3,-2.3 0.9,-5.7 -0.7,-11.3 -0.6,-17.1 2.1,4.2 4.5,8.3 3.6,13.5 1,0 1.8,0 2.7,0 2.9,-4.7 4.5,-10.1 6.6,-15.3 0.8,-1.8 0.7,-3.5 0.5,-5.2 -0.3,-3.1 1.1,-5.5 2.5,-7.9 3,-4.9 6.2,-9.6 9.5,-14.3 1.1,-1.6 2.6,-2.8 4.2,-4.4 -6.8,-8.7 -12.6,-17.9 -17.1,-28.1 1.1,-3.4 2,-6.9 0,-10.4 0.6,-2.2 -0.5,-4.1 -1.1,-6 -0.7,-2.2 -1.7,-4.4 -4.7,-5.3 0.5,6.3 -4.3,10.5 -5.4,16.6 -1.8,-3.6 -0.3,-6.7 0.8,-9.1 1.3,-2.8 -1.4,-6 1.4,-7.8 -0.4,-2 -0.8,-3.4 -1.1,-5.1 1,-0.5 1.9,-0.9 2.7,-1.3 2.6,-1 5.2,-2 7.2,-4.2 0.8,-0.9 1.6,-2.2 3.2,-1.8 -0.6,1.1 -1.6,2.1 -1.6,3.2 -0.1,2.3 -1.6,3.4 -2.9,4.8 -0.6,0.7 -1.1,1.5 -2,2.7 1.7,0.1 2.8,0.2 4.1,0.2 5.2,-4.1 10.6,-8.3 16.4,-12.8 4.3,0.1 8.8,-2.1 13.8,-2.2 4.8,0 9.6,-0.8 14.6,-1.2 0.2,-0.2 1,-0.6 1.1,-1.1 0.5,-2.6 0.7,-5.3 1.1,-8 0.2,-1.2 0.6,-2.4 1,-3.5 1.4,-4.5 2.2,-9.2 3.8,-13.7 0.8,-2.4 1.8,-4.3 3.6,-5.9 4,-3.5 6.7,-7.8 8.7,-12.7 0.5,-1.3 1.4,-2.5 1.6,-3.8 0.1,-1.1 -0.6,-2.3 -0.9,-3.3 -1.2,1.2 -2.1,2.3 -3.2,2.9 -1.4,0.9 -3,1.6 -4.6,2 -1.6,0.3 -2.1,2.8 -4.1,2 3,-3.2 6.1,-6.4 9.1,-9.6 0.8,-0.9 1.6,-1.9 2.7,-3.4 5.4,1.4 11.8,0.5 17.8,2.8 -5.2,-0.1 -10.1,0.8 -15.8,3.2 2.3,0.9 3.7,1.7 5.2,1.9 1.3,0.2 2.4,0.5 3.6,1 2.8,1.1 5.9,1.3 8.9,1 2,-0.2 3.7,0.7 5.2,1.7 6.1,4 12.2,8 18.1,12.3 2.2,1.6 3.9,3.9 5.8,5.8 8.8,-6.4 17.4,-12.6 25.6,-18.5 3.5,0.3 6.8,1 9.8,0.6 4.4,-0.6 9.1,-0.4 13.1,-2.9 0.3,-0.2 0.4,-0.8 0.9,-1.7 -5.3,0.3 -8.1,-3.9 -12.4,-5.8 3.6,-1.2 6.7,-0.3 9.7,0.7 2.7,0.9 5.3,1.6 8.4,2 0.3,0.7 0.7,1.5 1,2.4 0.6,1.8 1.4,3.5 2.9,4.7 0.9,0.7 1.2,1.5 1,2.5 -2.2,-0.1 -3.8,-1.3 -5.3,-2.8 -0.6,-0.6 -1.4,-0.9 -2.4,-1.5 0.5,5.4 8.4,18 11.4,22.3 1,9.1 1.6,17.8 3.9,26.6 1,-0.5 1.5,-1 1.9,-1 0.6,0.1 1.1,0.7 1.6,0.7 6.5,-0.2 12.8,1.8 19.3,1 2.6,-0.3 5,0.5 7.5,1.2 0.6,0.9 1.2,2 2.1,2.8 4.2,4 8.5,7.9 12.8,11.9 1.7,1.6 3.7,2.3 5.5,1.9 -1.1,-1.1 -2.4,-2.4 -3.6,-3.6 0.3,-0.3 0.6,-0.5 0.9,-0.8 -0.9,-2.3 -1.7,-5.1 -2.4,-8 z"
     id="path260" /><path
     d="m 137.2,186.7 c 0.2,-0.3 0.5,-0.5 0.7,-0.8 0.1,0.1 0.2,0.2 0.3,0.3 -0.3,0.2 -0.5,0.5 -0.8,0.7 0,-0.1 -0.1,-0.2 -0.2,-0.2 z"
     id="path262" /><path
     d="m 361.6,187.9 c -0.3,-0.2 -0.5,-0.5 -0.8,-0.7 0.1,-0.1 0.2,-0.2 0.3,-0.3 0.2,0.3 0.5,0.5 0.7,0.8 -0.1,0 -0.2,0.1 -0.2,0.2 z"
     id="path264" /><path
     d="m 308.4,137.2 c 0.3,0.2 0.5,0.5 0.8,0.7 -0.1,0.1 -0.2,0.2 -0.3,0.3 -0.2,-0.3 -0.5,-0.5 -0.7,-0.8 0.1,0 0.1,-0.1 0.2,-0.2 z"
     id="path266" /><path
     d="m 187.9,136.5 c -0.2,0.3 -0.5,0.5 -0.7,0.8 -0.1,-0.1 -0.2,-0.2 -0.3,-0.3 0.3,-0.2 0.5,-0.5 0.8,-0.7 0,0 0.1,0.1 0.2,0.2 z"
     id="path268" /><path
     d="m 362.8,312.3 c -0.2,0.3 -0.5,0.5 -0.7,0.8 -0.1,-0.1 -0.2,-0.2 -0.3,-0.3 0.3,-0.2 0.5,-0.5 0.8,-0.7 0,0.1 0.1,0.2 0.2,0.2 z"
     id="path270" /><path
     d="m 371.5,145.3 c 1.3,0 2.3,0 3.6,0 0.8,0.8 1.7,1.9 2.9,3.2 -1.6,0.6 -2.9,1 -4.1,1.4 -0.7,-0.4 -1.5,-0.8 -2.3,-1.2 -0.1,-1 -0.1,-2 -0.1,-3.4 z"
     id="path272" /><path
     d="m 367.4,130.1 c 1,0.9 2.1,1.9 3.5,3.2 -3,0.4 -2.9,-1.8 -4.4,-2.2 0.3,-0.4 0.6,-0.7 0.9,-1 z"
     id="path274" /><path
     d="m 356.7,117.9 c 0.3,0 0.7,0 1,0 0,0.1 0,0.2 0,0.3 -0.3,0 -0.7,0 -1,0 0,-0.1 0,-0.2 0,-0.3 z"
     id="path276" /><path
     d="m 110.7,166.1 c -1.1,-2.7 -1,-5.3 -0.2,-7.9 0.1,1.3 0.1,2.7 0.2,4 0,1.2 0,2.6 0,3.9 z"
     id="path278" /><path
     d="m 99.2,209.8 c -0.5,-1.9 -2.3,-3.2 -0.9,-5.4 0.5,1.8 2.3,2.9 0.9,5.4 z"
     id="path280" /><path
     d="m 111.5,179.8 c -0.6,0 -1,0 -1.6,0 0,-1 0,-1.8 0,-2.8 0.6,0 1,0 1.6,0 0,0.9 0,1.8 0,2.8 z"
     id="path282" /><path
     d="m 108.7,175.9 c 0,-0.6 0.1,-1.2 0.1,-2 0.7,0 1.2,0.1 1.9,0.1 -0.6,0.9 -1.1,1.6 -1.5,2.3 -0.2,-0.1 -0.4,-0.2 -0.5,-0.4 z"
     id="path284" /><path
     d="m 108.8,176 c -0.2,0.3 -0.5,0.5 -0.7,0.8 -0.1,-0.1 -0.2,-0.2 -0.3,-0.3 0.3,-0.2 0.5,-0.5 0.8,-0.7 0.1,0.1 0.1,0.1 0.2,0.2 z"
     id="path286" /><path
     d="m 111.7,166.9 c 0.3,0.2 0.5,0.5 0.8,0.7 -0.1,0.1 -0.2,0.2 -0.3,0.3 -0.2,-0.3 -0.5,-0.5 -0.7,-0.8 0.1,-0.1 0.2,-0.1 0.2,-0.2 z"
     id="path288" /><path
     d="m 110.7,166 c 0.3,0.3 0.7,0.7 1,1 -0.4,-0.3 -0.7,-0.7 -1,-1 z"
     id="path290" /><path
     d="m 98.1,303.3 c 1.9,0.2 2.6,1 2.7,2.7 -0.9,-0.9 -1.7,-1.7 -2.7,-2.7 z"
     id="path292" /><path
     d="m 135.1,146 c 0.7,3 0.2,5.1 -1.4,7.2 -1.3,-0.4 -2.6,-1 -2.2,-2.5 0.4,-1.9 0.9,-4 3.6,-4.7 z"
     id="path294" /><path
     d="m 135.6,135.4 c 3.1,-0.1 3.5,1.7 5.4,2.9 -2.9,0.2 -3.5,-1.6 -5.4,-2.9 z"
     id="path296" /><path
     d="m 402.5,243.4 c 2.8,-1.1 5.2,-3.1 8.7,-2 1.4,1.1 3.1,2.5 4.5,3.6 0.4,1.9 0.8,3.4 1.2,5.4 -0.2,0.6 -0.6,1.8 -1.4,3.8 -1.1,0.9 -2.9,2.4 -4.6,3.8 -1.9,0 -3.6,0 -5.2,0 -5.4,-3.4 -5.5,-3.7 -5.4,-11.4 0.6,-0.6 1.2,-1.1 1.7,-1.8 0.3,-0.5 0.4,-1.2 0.5,-1.4 z"
     id="path298" /><path
     d="m 141.2,369.5 c 0,0.9 0,1.9 0,2.8 -0.6,0.1 -1,0.1 -1.6,0.2 0,-1 0,-1.8 0,-2.9 0.5,0 1.1,0 1.6,-0.1 z"
     id="path300" /><path
     d="m 160.6,393.1 c 1.2,0.3 1.8,0.5 2.4,0.7 -0.5,0.2 -0.9,0.4 -1.4,0.4 -0.1,0.1 -0.3,-0.3 -1,-1.1 z"
     id="path302" /><path
     d="m 163.1,394.2 c 0.3,0.2 0.5,0.5 0.8,0.7 -0.1,0.1 -0.2,0.2 -0.3,0.3 -0.2,-0.3 -0.5,-0.5 -0.7,-0.8 0.1,-0.1 0.2,-0.2 0.2,-0.2 z"
     id="path304" /><path
     d="m 407.3,227.4 c 1.5,0 3.1,0 5.7,0 -2.6,1.2 -4.2,0.7 -5.7,0 z"
     id="path306" /><path
     d="m 388.7,319.3 c -0.6,-1.5 -1.1,-2.9 -1.6,-4.3 1.6,-1.1 3,-2 4.4,-3 0.9,2.5 0.9,2.5 -2.8,7.3 z"
     id="path308" /><path
     d="m 388.1,334.9 c -0.5,0 -1,0 -1.4,0 -0.4,-1.6 -1,-3.2 -1.3,-4.8 -0.2,-0.9 0,-1.9 0.3,-2.8 1.1,2.4 3.4,4.4 2.4,7.6 z"
     id="path310" /><path
     d="m 85.7,241.1 c 2.7,-0.2 5.9,-0.1 8.5,2.7 2.1,2.3 3,4.7 2.7,7.3 -0.9,1.7 -1.6,3.1 -2.3,4.6 -2.5,0.9 -4.8,3.3 -8.8,1.7 -6,-4.1 -7,-5.6 -3.7,-13.6 1,-0.8 2.1,-1.6 3.6,-2.7 z"
     id="path312" /><path
     d="m 198.5,394.8 c 0.5,-0.9 1,-1.7 1.5,-2.7 1.5,1.8 -0.3,2.3 -1.5,2.7 z"
     id="path314" /><path
     d="m 361.8,350 c -0.6,2.5 -1.9,3.1 -4,2.6 0,-0.7 -0.1,-1.6 -0.2,-2.6 1.5,0 2.7,0 4.2,0 z"
     id="path316" /><path
     d="m 304.6,388.7 c 0.3,-1.5 0.8,-2.8 3,-2 -1.2,0.8 -2.1,1.4 -3,2 z"
     id="path318" /><path
     d="m 304.5,388.4 c -0.2,0.3 -0.5,0.5 -0.7,0.8 -0.1,-0.1 -0.2,-0.2 -0.3,-0.3 0.3,-0.2 0.5,-0.5 0.8,-0.7 0,0.1 0.1,0.2 0.2,0.2 z"
     id="path320" /><path
     d="m 315.2,389.3 c -0.3,0.3 -0.7,0.7 -1,1 0.4,-0.3 0.7,-0.6 1,-1 z"
     id="path322" /><path
     d="m 169,101.8 c 0.9,-0.6 1.7,-1.2 3,-2.2 -0.4,2.8 -2.2,4 -4,5.1 0.3,-0.9 0.6,-1.9 1,-2.9 z"
     id="path324" /><path
     d="m 180.6,108 c -0.1,2.4 -2,3.2 -3.8,5.5 0.2,-3.6 2.5,-4.2 3.8,-5.5 z"
     id="path326" /><path
     d="m 165.9,108.1 c 0.3,-1.2 0.5,-1.8 0.7,-2.4 0.2,0.5 0.4,0.9 0.4,1.4 0,0.2 -0.4,0.4 -1.1,1 z"
     id="path328" /><path
     d="m 168,104.7 c -0.3,0.3 -0.7,0.7 -1,1 0.3,-0.3 0.7,-0.6 1,-1 z"
     id="path330" /><path
     d="m 132,364.9 c -0.2,0.5 -0.6,1.2 -1.2,2.5 -0.2,-1.4 -0.3,-1.8 -0.4,-2.5 0.7,0 1.4,0 1.6,0 z"
     id="path332" /><path
     d="m 119.2,158.5 c 0.5,-1.2 1,-2.3 1.4,-3.5 2.5,1.9 4.7,3.7 6.9,5.5 -1.3,0.9 -2.2,0.6 -3.4,-0.2 -1.2,-0.8 -2.7,-1 -4.9,-1.8 z"
     id="path334" /><path
     d="m 120.4,147.4 c -2.9,-1.7 -3.3,-3.2 -1.5,-5.9 0.9,0.4 1.8,0.9 2.9,1.4 -0.5,1.4 -0.9,2.8 -1.4,4.5 z"
     id="path336" /><path
     d="m 120.5,147.2 c 1.9,-0.3 2.7,0.7 3.2,2.4 -0.4,0.2 -0.8,0.5 -1.5,0.8 -0.6,-1.1 -1.2,-2.1 -1.7,-3.2 z"
     id="path338" /><path
     d="m 361.2,245.2 c 6.6,-1 12.3,1.4 19.3,3.2 -7.7,2.4 -14.1,5.5 -21.5,2.4 0,-1 0,-2.1 0,-3.5 0.5,-0.5 1.3,-1.3 2.2,-2.1 z"
     id="path340" /><path
     d="m 119,247.5 c 3.5,-0.9 6.5,-1.7 9.6,-2.5 0.6,-0.2 1.3,-0.1 1.8,-0.5 2.6,-1.7 4.7,0.6 7,1 0.7,0.1 0.9,1.1 1,3.9 -0.2,0.2 -0.6,0.8 -1.1,1.1 -1.3,0.8 -2.6,1.6 -3.9,2.4 0,0 -4.6,-1 -4.7,-1 -2.9,-1 -5.7,-2 -8.6,-3 -0.2,0 -0.4,-0.4 -1.1,-1.4 z"
     id="path342" /><path
     d="m 194.2,91.4 c 0.7,-0.5 1.4,-0.9 2.3,-1.5 0,0.7 0.1,1.2 0.1,1.9 -0.8,0.1 -1.4,0.1 -2,0.1 -0.1,-0.1 -0.3,-0.3 -0.4,-0.5 z"
     id="path344" /><path
     d="m 199.4,104.9 c 0,0.5 0,1.1 0,1.6 -0.2,0 -0.3,0.1 -0.5,0.1 -0.1,-0.5 -0.3,-1.1 -0.4,-1.6 0.4,0 0.7,-0.1 0.9,-0.1 z"
     id="path346" /><path
     d="m 194.8,92 c -0.2,0.3 -0.5,0.5 -0.7,0.8 -0.1,-0.1 -0.2,-0.2 -0.3,-0.3 0.3,-0.2 0.5,-0.5 0.8,-0.7 0,0.1 0.1,0.1 0.2,0.2 z"
     id="path348" /><path
     d="m 244.5,359.6 c 0.6,-1.4 0.9,-3.7 3.1,-4.8 1.4,1.1 3,2.2 4.3,3.1 0,2.3 0,4.2 0,5.4 -1.3,3.2 -2.3,5.8 -3.4,8.4 -3.1,-3.3 -3.2,-7.6 -4,-12.1 z"
     id="path350" /><path
     d="m 158.5,158.8 c 5.9,2.8 10.6,5.6 14.4,9.7 0,1 0,1.9 0,3 -1.1,0.5 -2.1,1.1 -3.3,1.6 -6.4,-2.4 -8.7,-7.8 -11.1,-14.3 z"
     id="path352" /><path
     d="m 253,137.9 c -1.4,1.4 -2.3,2.3 -3.3,3.3 -0.9,-0.5 -2.1,-1.2 -3.4,-2 -1.3,-6.1 2.3,-11.1 3,-17.2 0.8,0.9 1.5,1.3 1.6,1.8 0.5,5.1 3.1,9.8 2.1,14.1 z"
     id="path354" /><path
     d="m 168.4,325.6 c 1.3,1.1 2.4,1.9 3.4,2.7 -1.9,6.2 -8.2,7.1 -12.6,10.9 -0.3,-3.4 2.1,-5.3 3,-7.8 1.1,-2.9 3.7,-3.7 6.2,-5.8 z"
     id="path356" /><path
     d="m 330.5,172.9 c -1.6,0 -3.3,0 -5.2,0 0,-1.4 0,-2.8 0,-4.6 3.3,-4.8 9.1,-6.4 14.3,-9.2 -2.4,5.1 -4.9,10 -9.1,13.8 z"
     id="path358" /><path
     d="m 401.5,184.6 c 0.7,0.7 1.1,1.1 1.8,1.8 -1.7,0.7 -3.3,0.3 -5,-0.1 1,-0.5 1.9,-1.1 3.2,-1.7 z"
     id="path360" /><path
     d="m 411.2,270.7 c 0,-1.8 0,-2.7 0,-3.8 0.3,0.1 0.7,0.1 0.8,0.2 1.1,2.4 4.1,3.1 4.8,5.7 0.1,0.2 -0.1,0.5 -0.2,1.2 -2,-1.1 -3.8,-2.2 -5.4,-3.3 z"
     id="path362" /><path
     d="m 406.6,271.2 c 0.4,0.9 0.8,1.8 1.1,2.5 1.8,0 3,0 4.3,0 -0.7,1.2 -1.1,2.1 -1.7,3.2 -1.8,-1.4 -4,-2.4 -3.7,-5.7 z"
     id="path364" /><path
     d="m 405.6,272.2 c -0.5,-0.7 -0.9,-1.4 -1.5,-2.3 0.7,0 1.2,-0.1 1.9,-0.1 0.1,0.8 0.1,1.4 0.1,2 -0.1,0.1 -0.3,0.3 -0.5,0.4 z"
     id="path366" /><path
     d="m 230.2,88.6 c -0.3,0 -0.7,0 -1,0 0,-0.1 0,-0.2 0,-0.3 0.3,0 0.7,0 1,0 0,0.1 0,0.2 0,0.3 z"
     id="path368" /><path
     d="m 332.4,324.1 c 4,2.9 5.1,7.6 7.9,12.3 -5.4,-2.5 -10.4,-3.9 -12.3,-9.4 2.3,-2.6 2.3,-2.6 4.4,-2.9 z"
     id="path370" /><path
     d="m 323.7,384.2 c 0.6,-1.5 1.1,-2.7 1.6,-4.1 0.7,0.8 1.2,1.2 1.6,1.7 -1.1,0.5 -0.1,3 -3.2,2.4 z"
     id="path372" /><path
     d="m 334.9,377.6 c -0.3,-0.2 -0.5,-0.5 -0.8,-0.7 0.1,-0.1 0.2,-0.2 0.3,-0.3 0.2,0.3 0.5,0.5 0.7,0.8 -0.1,0 -0.1,0.1 -0.2,0.2 z"
     id="path374" /><path
     d="m 401.2,279.5 c -0.5,-1.3 -1.2,-2.9 -2.2,-5.4 1.5,0.9 2.2,1.4 2.9,1.8 0.6,0.4 1.3,0.7 1.7,0.9 -0.7,0.7 -1.5,1.6 -2.4,2.7 z"
     id="path376" /><path
     d="m 394.5,276.7 c 0,-0.7 0,-1.3 0,-2 0.2,0 0.3,0 0.5,0 0,0.7 0,1.3 0,2 -0.2,0 -0.3,0 -0.5,0 z"
     id="path378" /><path
     d="m 398.2,270.4 c -0.3,0 -0.7,0 -1,0 0,-0.1 0,-0.2 0,-0.3 0.3,0 0.7,0 1,0 0,0.1 0,0.2 0,0.3 z"
     id="path380" /><path
     d="m 87,225 c 0,-2.2 0,-3.6 0,-4.4 0.7,-1.1 1.1,-1.8 1.3,-2.2 1.7,0 2.3,1 2.5,3.8 -0.8,0 -1.5,0 -2.2,0 -0.5,0.8 -0.9,1.6 -1.6,2.8 z"
     id="path382" /><path
     d="m 87,224.2 c -0.1,0.7 -0.1,1.3 -0.1,1.9 -0.2,0.1 -0.4,0.3 -0.5,0.4 -0.3,-0.7 -0.5,-1.4 -0.7,-1.9 0,-0.1 0.6,-0.3 1.3,-0.4 z"
     id="path384" /><path
     d="m 265.2,398.6 c -0.6,0.6 -1.4,1.4 -2.1,2.2 0.1,0.2 -0.2,-0.2 -0.2,-0.3 0.8,-1.8 0.8,-1.8 2.3,-1.9 z"
     id="path386" /><path
     d="m 377.4,336.9 c 0.4,0.8 0.8,1.6 1.5,3.1 -2,-0.7 -2.5,-1.9 -4,-2.9 1.3,-0.1 2,-0.1 2.5,-0.2 z"
     id="path388" /><path
     d="m 407.3,199.4 c 0,-0.5 0,-1.1 0,-1.6 0.2,0 0.3,-0.1 0.5,-0.1 0.1,0.5 0.3,1.1 0.4,1.6 -0.3,0.1 -0.6,0.1 -0.9,0.1 z"
     id="path390" /><path
     d="m 213.1,89.9 c 0,0.3 0,0.7 0,1 -0.1,0 -0.2,0 -0.3,0 0,-0.3 0,-0.7 0,-1 0.1,0 0.2,0 0.3,0 z"
     id="path392" /><path
     d="m 97.2,178.7 c 0.6,0.6 1,1 1.3,1.3 -0.3,1.5 -0.7,3.1 -1,4.7 -0.4,0 -0.9,0 -1.6,0 0.4,-2 0.8,-3.8 1.3,-6 z"
     id="path394" /><path
     d="m 282.4,82.3 c 1.3,1.3 1.7,1.7 2.2,2.2 -0.4,0.4 -0.9,0.9 -1.6,1.6 -0.2,-1.1 -0.3,-2 -0.6,-3.8 z"
     id="path396" /><path
     d="m 400.3,318.6 c 0,-2.9 0,-4.9 0,-7.1 2.6,3.4 2.6,3.8 0,7.1 z"
     id="path398" /><path
     d="m 242.1,86 c 0.1,-1.5 1.2,-0.8 2,-1 -0.1,1.5 -1.3,0.8 -2,1 z"
     id="path400" /><path
     d="m 245,83.9 c 0.2,-0.3 0.5,-0.5 0.7,-0.8 0.1,0.1 0.2,0.2 0.3,0.3 -0.3,0.2 -0.5,0.5 -0.8,0.7 C 245.1,84 245,84 245,83.9 Z"
     id="path402" /><path
     d="m 244.1,85 c 0.3,-0.3 0.7,-0.7 1,-1 -0.4,0.3 -0.7,0.7 -1,1 z"
     id="path404" /><path
     d="m 242.2,86.1 c -0.2,0.3 -0.5,0.5 -0.7,0.8 -0.1,-0.1 -0.2,-0.2 -0.3,-0.3 0.3,-0.2 0.5,-0.5 0.8,-0.7 0.1,0 0.1,0.1 0.2,0.2 z"
     id="path406" /><path
     d="m 279.7,101.6 c -1,0 -1.9,0.1 -2.9,0.1 0,-0.2 0,-0.4 -0.1,-0.7 1,-0.1 1.9,-0.3 2.9,-0.4 0,0.4 0,0.7 0.1,1 z"
     id="path408" /><path
     d="m 279.6,100 c 0.6,-0.1 1.3,-0.1 1.9,-0.2 0,0.2 0.1,0.4 0.1,0.6 -0.6,0.1 -1.3,0.3 -1.9,0.4 0,-0.2 -0.1,-0.5 -0.1,-0.8 z"
     id="path410" /><path
     d="m 174.8,383.3 c 0.2,-0.3 0.5,-0.5 0.7,-0.8 0.1,0.1 0.2,0.2 0.3,0.3 -0.3,0.2 -0.5,0.5 -0.8,0.7 -0.1,-0.1 -0.1,-0.1 -0.2,-0.2 z"
     id="path412" /><path
     d="m 175,383.5 c -0.2,0.3 -0.5,0.5 -0.7,0.8 -0.1,-0.1 -0.2,-0.2 -0.3,-0.3 0.3,-0.2 0.5,-0.5 0.8,-0.7 0.1,0.1 0.1,0.1 0.2,0.2 z"
     id="path414" /><path
     d="m 293.6,391.4 c 0.6,0 1,0 1.7,0 -0.5,1 -0.9,1.9 -1.7,3.7 0,-1.9 0,-2.7 0,-3.7 z"
     id="path416" /><path
     d="m 250.3,94.1 c 1.2,-1.2 1.7,-1.7 2.2,-2.2 0.4,0.5 0.8,0.9 1.5,1.7 -1,0.1 -1.9,0.2 -3.7,0.5 z"
     id="path418" /><path
     d="m 269.9,413.6 c -0.5,0.8 -1,1.7 -1.5,2.6 -1.5,-1.8 0.2,-2.3 1.5,-2.6 z"
     id="path420" /><path
     d="m 93.9,217.8 c 1.9,-0.9 3,-0.2 4,1.2 -1.9,0.9 -3,0.2 -4,-1.2 z"
     id="path422" /><path
     d="m 403.7,180.8 c -0.8,-0.8 -2.2,-1.2 -1.2,-3 0.8,0.9 2.3,1.3 1.2,3 z"
     id="path424" /><path
     d="m 205.4,405 c -0.5,0 -1.1,0 -1.6,0 0,-0.2 -0.1,-0.3 -0.1,-0.5 0.5,-0.1 1.1,-0.3 1.6,-0.4 0,0.3 0,0.6 0.1,0.9 z"
     id="path426" /><path
     d="m 103.6,186.9 c 0,0.5 0,1.1 0,1.6 -0.2,0 -0.3,0 -0.5,0.1 -0.1,-0.6 -0.2,-1.1 -0.4,-1.7 0.3,0.1 0.6,0.1 0.9,0 z"
     id="path428" /><path
     d="m 103.8,185.4 c -0.3,0 -0.7,0 -1,0 0,-0.1 0,-0.2 0,-0.3 0.3,0 0.7,0 1,0 0,0.1 0,0.2 0,0.3 z"
     id="path430" /><path
     d="m 209.7,105.5 c 0,-2.1 0,-3.4 0,-5.3 1.2,0.9 2,1.5 3.2,2.3 -1,1.1 -1.8,1.8 -3.2,3 z"
     id="path432" /><path
     d="m 389,158.2 c 0.1,0.5 0.1,1 0.4,1.4 0.2,0.4 0.7,0.6 1,0.9 -0.6,0.6 -1,1 -1.8,1.8 -0.1,-1.6 -0.2,-2.8 -0.3,-4 0.2,0 0.5,-0.1 0.7,-0.1 z"
     id="path434" /><path
     d="m 228.3,406.7 c -0.2,-3 1.6,-3.4 2.8,-5.2 0.3,2.8 -1.5,3.4 -2.8,5.2 z"
     id="path436" /><path
     d="m 104.1,226.6 c -0.7,1.3 -1.2,2.4 -1.9,3.9 -0.2,-2.9 -0.2,-2.9 1.9,-3.9 z"
     id="path438" /><path
     d="m 152.2,382.7 c 0,0.6 0,0.9 0,1.6 -1.1,-0.5 -2,-0.9 -3.7,-1.6 1.7,0 2.7,0 3.7,0 z"
     id="path440" /><path
     d="m 286.6,412.6 c -1.1,0.9 -2.1,1.8 -3.6,3.1 0.8,-2.7 0.8,-2.7 3.6,-3.1 z"
     id="path442" /><path
     d="m 339.6,114.6 c 0,0.3 0,0.7 0,1 -0.1,0 -0.2,0 -0.3,0 0,-0.3 0,-0.7 0,-1 0.1,0 0.2,0 0.3,0 z"
     id="path444" /><path
     d="m 367.8,353.8 c 0,-1 0,-2 0,-3 0.2,0 0.3,0 0.5,0 0,1 0,2 0,3 -0.1,0 -0.3,0 -0.5,0 z"
     id="path446" /><path
     d="m 220.4,83.8 c -0.6,0.1 -1.3,0.1 -1.9,0.2 0,-0.2 -0.1,-0.4 -0.1,-0.6 0.6,-0.1 1.3,-0.3 1.9,-0.4 0,0.2 0.1,0.5 0.1,0.8 z"
     id="path448" /><path
     d="m 220.3,82.9 c 0.2,-0.3 0.5,-0.5 0.7,-0.8 0.1,0.1 0.2,0.2 0.3,0.3 -0.3,0.2 -0.5,0.5 -0.8,0.7 -0.1,-0.1 -0.2,-0.1 -0.2,-0.2 z"
     id="path450" /><path
     d="m 114.9,151.8 c -3.8,0.2 -4,0 -3.8,-2.6 1.9,-0.1 2.3,1.7 3.8,2.6 z"
     id="path452" /><path
     d="m 230.2,396.5 c 0.6,-0.1 1.3,-0.1 1.9,-0.2 0,0.2 0.1,0.4 0.1,0.6 -0.6,0.1 -1.3,0.3 -1.9,0.4 -0.1,-0.3 -0.1,-0.5 -0.1,-0.8 z"
     id="path454" /><path
     d="m 230.3,397.3 c -0.2,0.3 -0.5,0.5 -0.7,0.8 -0.1,-0.1 -0.2,-0.2 -0.3,-0.3 0.3,-0.2 0.5,-0.5 0.8,-0.7 0.1,0.1 0.2,0.2 0.2,0.2 z"
     id="path456" /><path
     d="m 342,121 c -0.5,0.9 -0.9,1.7 -1.5,2.7 -0.6,-0.7 -1,-1.1 -1.6,-1.8 0.7,-0.5 1.5,-1.1 2.2,-1.6 0.4,0.3 0.7,0.5 0.9,0.7 z"
     id="path458" /><path
     d="m 253.3,85 c 0,-0.3 0,-0.7 0,-1 0.1,0 0.2,0 0.3,0 0,0.3 0,0.7 0,1 -0.1,0 -0.2,0 -0.3,0 z"
     id="path460" /><path
     d="m 383.5,345.7 c -0.8,0 -1.2,0.1 -1.9,0.1 0.4,-1 0.8,-1.9 1.4,-3.4 0.2,1.5 0.3,2.3 0.5,3.3 z"
     id="path462" /><path
     d="m 127.8,141 c 0.7,1.4 1.3,2.5 1.9,3.9 -2,-0.9 -2,-0.9 -1.9,-3.9 z"
     id="path464" /><path
     d="m 377.6,166 c 0,-0.8 0,-1.2 0,-1.8 0.5,-0.1 0.9,-0.2 1.5,-0.3 0.7,1.4 0.7,2.2 -1.5,2.1 z"
     id="path466" /><path
     d="m 235.1,409 c 0,0.9 0,1.3 0,1.9 -1,0 -1.8,0 -3.3,0 1.3,-0.8 2.1,-1.2 3.3,-1.9 z"
     id="path468" /><path
     d="m 378.2,357.1 c -0.3,0.5 -0.7,1.1 -1.3,2.1 -0.2,-2.4 -0.2,-2.4 1.3,-2.1 z"
     id="path470" /><path
     d="m 246.9,406.6 c 0.5,-0.2 1,-0.4 1.9,-0.8 0.1,1.2 0.2,2 0.3,3 -1.5,-1 -1.5,-1 -2.2,-2.2 z"
     id="path472" /><path
     d="m 265,407.9 c 0,-0.5 0,-1.1 0,-1.6 0.2,0 0.3,0 0.5,-0.1 0.1,0.6 0.2,1.1 0.4,1.7 -0.3,0 -0.6,0 -0.9,0 z"
     id="path474" /><path
     d="m 234.7,413.5 c 0.5,0.7 0.9,1.4 1.5,2.3 -0.7,0 -1.2,0.1 -1.9,0.1 -0.1,-0.8 -0.1,-1.4 -0.1,-2 0.1,0 0.3,-0.2 0.5,-0.4 z"
     id="path476" /><path
     d="m 352.9,370.4 c 0,-0.5 0,-1.1 0,-1.6 0.2,0 0.3,0 0.5,-0.1 0.1,0.6 0.2,1.1 0.4,1.7 -0.3,-0.1 -0.6,0 -0.9,0 z"
     id="path478" /><path
     d="m 355.9,129.3 c 0,-0.5 0,-1.1 0,-1.6 0.2,0 0.3,0 0.5,-0.1 0.1,0.6 0.2,1.1 0.4,1.7 -0.3,-0.1 -0.6,-0.1 -0.9,0 z"
     id="path480" /><path
     d="m 338.3,105 c 0.5,0.3 1.1,0.7 2.1,1.3 -2.4,0.2 -2.4,0.2 -2.1,-1.3 z"
     id="path482" /><path
     d="m 90.1,202.4 c 0,-0.5 0,-1.1 0,-1.6 0.2,0 0.3,0 0.5,-0.1 0.1,0.6 0.2,1.1 0.4,1.7 -0.3,0 -0.6,0 -0.9,0 z"
     id="path484" /><path
     d="m 303.1,406.1 c -0.6,0 -0.9,0 -1.4,0 -0.1,-0.5 -0.2,-1 -0.4,-1.7 0.6,-0.1 1.1,-0.2 1.8,-0.4 0,0.8 0,1.5 0,2.1 z"
     id="path486" /><path
     d="m 143.1,126.6 c 0.9,0 1.3,0 1.6,0 -0.3,0.5 -0.7,1.1 -1.3,1.9 0,-0.6 -0.1,-1.1 -0.3,-1.9 z"
     id="path488" /><path
     d="m 181.6,401.2 c -1,-0.1 -1.9,-0.1 -3.2,-0.2 0.9,-0.7 1.3,-1.2 2.1,-1.8 0.3,0.5 0.7,1.2 1.1,2 z"
     id="path490" /><path
     d="m 413,222 c -0.3,0 -0.7,0 -1,0 0,-0.1 0,-0.2 0,-0.3 0.3,0 0.7,0 1,0 0,0.1 0,0.2 0,0.3 z"
     id="path492" /><path
     d="m 409.4,292.5 c 0,-0.3 0,-0.7 0,-1 0.1,0 0.2,0 0.3,0 0,0.3 0,0.7 0,1 -0.1,0 -0.2,0 -0.3,0 z"
     id="path494" /><path
     d="m 212.4,412.2 c -0.3,-0.2 -0.5,-0.5 -0.8,-0.7 0.1,-0.1 0.2,-0.2 0.3,-0.3 0.2,0.3 0.5,0.5 0.7,0.8 -0.1,0 -0.2,0.1 -0.2,0.2 z"
     id="path496" /><path
     d="m 212.5,412 c 0.3,0.2 0.5,0.5 0.8,0.7 -0.1,0.1 -0.2,0.2 -0.3,0.3 -0.2,-0.3 -0.5,-0.5 -0.7,-0.8 0.1,-0.1 0.2,-0.2 0.2,-0.2 z"
     id="path498" /><path
     d="m 378.5,142.9 c 0,-0.4 0,-0.8 0,-1.4 0.6,0 1.2,0 1.7,0 0.1,0.2 0.2,0.3 0.3,0.5 -0.6,0.3 -1.3,0.6 -2,0.9 z"
     id="path500" /><path
     d="m 203.6,90.6 c -0.3,0 -0.7,0 -1,0 0,-0.1 0,-0.2 0,-0.3 0.3,0 0.7,0 1,0 0,0.1 0,0.2 0,0.3 z"
     id="path502" /><path
     d="m 309.6,105.7 c 0,-0.3 0,-0.7 0,-1 0.1,0 0.2,0 0.3,0 0,0.3 0,0.7 0,1 -0.1,0 -0.2,0 -0.3,0 z"
     id="path504" /><path
     d="m 302.4,88.6 c -0.3,0 -0.7,0 -1,0 0,-0.1 0,-0.2 0,-0.3 0.3,0 0.7,0 1,0 0,0.1 0,0.2 0,0.3 z"
     id="path506" /><path
     d="m 393.9,179.8 c 0,0.3 0,0.7 0,1 -0.1,0 -0.2,0 -0.3,0 0,-0.3 0,-0.7 0,-1 0.1,0 0.2,0 0.3,0 z"
     id="path508" /><path
     d="m 102.4,315.2 c 0,0.3 0,0.7 0,1 -0.1,0 -0.2,0 -0.3,0 0,-0.3 0,-0.7 0,-1 0.1,0 0.2,0 0.3,0 z"
     id="path510" /><path
     d="m 291.5,408.8 c 0,-0.6 0,-0.9 0,-1.4 0.5,-0.1 1,-0.2 1.7,-0.4 0.1,0.6 0.2,1.1 0.4,1.8 -0.8,0 -1.4,0 -2.1,0 z"
     id="path512" /><path
     d="m 104.6,303.8 c 0.3,-1.2 0.5,-1.8 0.7,-2.4 0.2,0.5 0.4,0.9 0.4,1.4 0,0.1 -0.4,0.3 -1.1,1 z"
     id="path514" /><path
     d="m 139.3,356.7 c 0,0.7 0,1.3 0,2 -0.5,0 -1,0 -1.5,0 -0.5,-1.8 -0.5,-1.8 1.5,-2 z"
     id="path516" /><path
     class="st0"
     d="m 285.6,285 c -2.2,8.2 -5.7,16 -8.4,24.6 -9,-3.2 -18,-6.4 -26.4,-11.4 -9.7,4.3 -18.6,10.1 -28.7,12.3 -5.3,-7.6 -6.6,-16.4 -9.8,-24.5 -8.8,-3.7 -17.9,-7 -26.6,-11.9 0.8,-4.5 3,-8.9 5.1,-13.3 2,-4.3 4.5,-8.4 6.8,-12.7 -2.1,-3.9 -4.3,-7.9 -6.3,-12 -1.5,-3 -2.9,-6 -4.1,-9.1 -0.5,-1.3 -0.3,-2.8 -0.4,-4.5 8.1,-4.5 16.4,-8.4 26,-10.6 3.2,-9.2 6.3,-19 12.7,-26.9 4.7,1.1 8.6,3.4 12.9,4.9 4.2,1.5 7.7,5.1 11.7,7.8 4.6,-1.1 8.3,-4 12.3,-6 3.9,-2 8,-3.8 12.2,-5.9 0.8,1.2 2,2.5 2.7,4.1 3,6.3 6.7,12.3 8.3,19.3 0.6,2.6 2.8,3.5 4.7,4.2 6.1,2.2 11.8,5.1 17.2,8.6 1.1,0.7 2.5,1.2 3.9,1.8 -2.2,9.6 -4.3,19.2 -11.1,27 2,3.5 4.1,6.9 5.9,10.4 1.8,3.5 3.3,7.2 5.1,11.2 -7.7,5.5 -16.5,8.8 -25.7,12.6 z"
     id="path518" /><path
     class="st0"
     d="m 155.7,190.7 c 1.5,0 3.5,0.6 4.6,-0.1 1.8,-1.1 3.4,-0.7 5.1,-0.8 1.6,-0.1 3.5,0.4 4.9,-0.1 1.6,-0.7 2.7,2.2 4.1,0.2 0.5,0.5 1,1 1.3,1.3 0.6,2.4 -0.4,4.7 0.9,7.2 0.9,1.7 0.2,4.2 1,6.4 0.9,2.1 0.5,4.7 1.2,6.9 0.6,1.8 1.9,3.5 2.2,5.5 0.1,0.6 0.6,1.1 0.7,1.7 0.1,0.6 0,1.3 0,1.6 -2.2,1.6 -4.2,3 -6.1,4.6 -3.8,3.3 -7.6,6.8 -11.7,9.8 -2,1.4 -3.5,3.5 -5.3,5.1 -0.8,0.7 -1.8,1.1 -2.6,1.5 -4.8,-7.5 -9.3,-14.6 -14,-22 3.2,-2.6 -1.1,-5.5 0.1,-8.3 -1.2,-2.6 -2.5,-5.2 -3.9,-8.2 2.6,-1.9 6.3,-2.4 9,-4.4 3.2,-2.3 5.7,-5.2 8.5,-7.9 z"
     id="path520" /><path
     class="st0"
     d="m 290.4,141.3 c 2,-0.9 3.5,-1.6 5.1,-2.3 3.1,4.6 5.6,9.3 9,13.2 2.1,2.4 2.3,4.8 3,7.6 1.2,4.5 0.5,9 0.8,13.5 0,0.7 -0.4,1.4 -0.7,2.3 0.2,0.4 0.6,1 0.9,1.7 -0.4,0.3 -0.7,0.6 -1,0.6 -0.5,0.1 -1,0.1 -1.5,0 -8.8,-0.8 -17.4,1.5 -26.2,1 -0.5,0 -1.1,0.5 -1.9,0.8 -2.5,-2.1 -3.6,-5.4 -5.3,-8.3 -3.3,-5.3 -6.5,-10.7 -11.2,-15.1 -0.6,-0.5 -1.3,-0.9 -2,-1.5 6.5,-4.8 12.5,-9.2 18.3,-13.5 4.7,0 9,0 12.7,0 z"
     id="path522" /><path
     class="st0"
     d="m 220.7,313.7 c 6,8.7 12.5,16.6 20.2,23.4 -2.4,4.9 -11.6,13.7 -18.3,17.6 -3.9,-1.7 -14.7,-1.5 -20.3,1.2 -3.8,-5 -8.1,-9.7 -13.5,-13.8 -2.1,-6.5 -0.5,-13.6 -1,-20.6 11.2,-1.9 22.4,-2.4 32.9,-7.8 z"
     id="path524" /><path
     class="st0"
     d="m 142.3,293.4 c -1,0 -2.3,0 -4,0 0.2,-1 0,-2 0.5,-2.7 1,-1.6 2.3,-2.9 3.7,-4.6 -1.4,-3.9 2.3,-7.9 0.2,-11.8 0.8,-0.8 1.8,-1.6 2.6,-2.7 3.3,-4.5 6.2,-9.2 10.9,-13 7.5,6.5 15.4,12.4 24.6,16.5 -0.4,1.4 -0.5,3.1 -1.3,4.3 -1.1,1.6 0.1,3.5 -0.7,4.6 -1.3,1.6 -0.7,3.1 -0.9,4.6 -0.1,1.5 0,3 0,4.4 0,1.6 0.6,3.7 -0.2,4.8 -1.2,1.8 0.8,2.7 0.3,4.3 -0.5,1.5 -0.1,3.2 -0.1,4.7 -0.5,0.5 -0.8,0.8 -1.2,1.2 -0.2,0 -0.4,-0.1 -0.6,-0.1 -2.4,-0.5 -4.7,-1.3 -7.2,-1.7 -5.3,-0.7 -10.5,-2 -15.5,-4.3 -1.1,-0.5 -2.1,-1.3 -3.1,-2.1 -1.2,-1.1 -2.3,-2.4 -3.5,-3.4 -1.3,-0.9 -2.6,-1.7 -4.5,-3 z"
     id="path526" /><path
     class="st0"
     d="m 278.7,313.2 c 1,0.6 1.4,1 1.8,1 7.3,0.4 14.5,1.5 21.8,1 3.3,-0.2 6.7,-0.3 9.8,1.4 -0.3,0.5 -0.7,1 -1.1,1.6 0.4,0.5 0.8,1 1.2,1.5 -2,6.1 -1.3,12.9 -4.8,19.5 -6.1,2.9 -8.8,9.7 -12.4,15.8 -2.9,-1.5 -5.4,-2.8 -8.3,-4.3 -2,-0.1 -4.3,-0.2 -6.7,-0.8 -1.9,-0.5 -4.3,0.7 -6,1 -1.8,-1.2 -3.3,-2.1 -4.6,-3.2 -1.3,-1 -2.3,-2.3 -3.6,-3.4 -1.3,-1.1 -2.8,-2 -3.9,-3.2 -1.1,-1.1 -1.9,-2.5 -2.8,-3.9 1.9,-1.6 4.1,-3.1 6,-5 1.9,-1.9 3.6,-4.1 5.2,-6.2 1.5,-2 2.8,-4.1 4.2,-6.2 1.4,-2.1 2.8,-4.4 4.2,-6.6 z"
     id="path528" /><path
     class="st0"
     d="m 357.9,203.3 c -0.4,3 -0.8,6.2 -1.1,9.3 -0.3,3 -0.5,6 -0.6,8.6 -5.1,5.7 -8.1,12.4 -14.1,17 -3.9,-3.4 -7.7,-7.1 -11.8,-10.3 -4,-3 -8.5,-5.5 -13,-8.4 1.3,-4.8 1.8,-10.1 3.1,-15.1 1.4,-5.5 0.4,-10.9 1,-16.7 4,0 8.3,-0.8 12,0.2 3.7,1.1 7.7,-0.5 10.5,1.6 2.6,3.5 4.6,6.9 7.2,9.7 1.6,1.8 4.1,2.6 6.8,4.1 z"
     id="path530" /><path
     class="st0"
     d="m 321.5,306.2 c -0.6,-0.6 -0.9,-0.9 -1.2,-1.2 -0.4,-5.2 -0.3,-10.4 -1.4,-15.4 -0.5,-2.6 -0.2,-5.1 -0.9,-7.5 -0.7,-2.4 -0.9,-4.6 -0.8,-7 1.7,-2.3 4.8,-1.9 6.9,-3.7 1.7,-1.5 4.5,-1.6 6.4,-3.5 1.8,-1.8 4.4,-3 6.4,-4.6 2,-1.7 3.7,-3.6 5.6,-5.5 5.8,3.6 10.2,8.7 14.9,13.3 0.6,2.1 -0.5,4 -0.7,5.9 -0.5,4.9 -0.4,9.8 2.8,14.1 0.2,0.2 0,0.6 0,1.2 -7.3,2.5 -12.8,7.7 -16.9,13.9 -3.7,0.6 -7.4,-0.7 -10.8,1.1 -3,-1.9 -6.7,-0.5 -10.3,-1.1 z"
     id="path532" /><path
     class="st0"
     d="m 223.7,180.9 c -3.4,-0.4 -6.5,-2.2 -10.3,-2.2 -3.7,0 -7.3,-1.3 -11,-1.7 -3.7,-0.5 -7.5,-0.1 -11.6,-0.1 -0.3,-4.8 -0.3,-9.4 1.4,-14 0.6,-1.6 0.4,-3.5 0.5,-4.7 1,-2.4 1.6,-4.5 2.8,-6.2 1.3,-1.9 3.7,-3 4.7,-5 1.4,-2.7 4.6,-4.4 4.4,-8 -0.1,-1.2 2.4,-1.9 3.6,-1.3 7.1,3.7 7.1,3.7 13.9,3.8 5.3,4.2 10.8,8.6 16.5,13.1 -5.4,8.6 -11.4,16.6 -14.9,26.3 z"
     id="path534" /><path
     class="st0"
     d="m 310,212.5 c -3.5,-0.4 -5.3,-3.8 -8.7,-4.1 -2.9,-0.3 -5.7,-1.9 -8.5,-2.8 -0.3,-3.3 -1.5,-6.1 -2.6,-9 -1.1,-2.8 -2.1,-5.5 -4.6,-7.4 0.5,-1.7 1.4,-2.4 3.1,-2.5 2,-0.1 4,-0.6 5.8,-1.4 1.4,-0.6 2.6,-0.3 4,-0.2 1.4,0.1 3,1.5 4.5,-0.2 0.4,-0.4 2,0.3 3.3,0.5 1.4,-1.6 3.7,-0.1 5.6,-0.7 0.5,1 0.9,1.8 1.2,2.3 -1.3,2.9 -0.5,5.8 -0.7,8.6 -0.2,2.8 0,5.6 -0.9,8.5 -1,2.6 -1.1,5.5 -1.5,8.4 z"
     id="path536" /><path
     class="st0"
     d="m 189.2,212.4 c -0.5,-0.5 -1.4,-1 -1.3,-1.4 0.3,-3.7 -2.8,-6.8 -2.1,-10.5 -1.8,-2.5 -0.1,-5.5 -1.1,-7.9 -1.1,-2.6 -0.6,-5 -0.8,-7.5 0,-0.3 0.1,-0.6 0.2,-1.3 4.9,0.5 9.9,-0.9 14.8,0.8 4.4,1.5 9.3,0.7 13.7,4 -0.2,0.5 -0.2,1.8 -0.9,2.4 -1.9,1.8 -2.8,4 -3.5,6.5 -0.7,2.6 -1.9,5.1 -3,7.9 -2.5,1 -5.3,2.3 -8.2,3.1 -3.1,0.7 -5.6,1.9 -7.8,3.9 z"
     id="path538" /><path
     class="st0"
     d="m 185,313.2 c -0.6,-2 0.4,-4.1 -1.2,-5.7 -0.2,-0.2 -0.2,-1 0,-1.4 1.3,-2.7 0.4,-5.8 1.1,-8.4 0.6,-2.2 0.4,-4.4 0.9,-6.5 0.5,-1.9 0.2,-4.5 2.7,-5.6 5.1,2.8 9.6,7 16.1,7.1 1.6,4.9 2.7,10.1 5.9,14.7 -1.3,3 -4.7,3.2 -7.3,3.7 -3.2,0.7 -6.3,1.4 -9.5,2 -2.8,0.6 -5.8,0.1 -8.7,0.1 z"
     id="path540" /><path
     class="st0"
     d="m 250.2,308.3 c 2.2,1.7 5.2,2.4 7.8,4.3 1.6,1.2 4.1,1.1 6.2,1.7 0.9,0.2 1.7,0.7 2.9,1.1 -5.4,7.3 -10.5,14.5 -18.3,19.8 -3,-3 -6.3,-5.9 -9.1,-9.2 -2.6,-3 -5.2,-6.2 -6.6,-10.5 3.2,-0.2 6.4,-0.2 9.1,-1.8 2.6,-1.6 5.1,-3.5 8,-5.4 z"
     id="path542" /><path
     class="st0"
     d="m 181.5,231.7 c 0.9,5.8 3.4,10.5 6.4,15.3 -4.6,4.7 -5,11.6 -8.4,17 -7.7,-2.8 -13.2,-8.4 -19.3,-14.1 0,-0.2 0,-1.3 0,-2.6 6.1,-6 13.4,-10.9 21.3,-15.6 z"
     id="path544" /><path
     class="st0"
     d="m 250.3,187.8 c -5.3,-3 -10.1,-5.7 -14.9,-8.5 0.4,-5.1 8.8,-17.8 14.8,-22.1 6.4,6.6 10.1,15 14.9,23.1 -5.1,2.4 -10.6,3.8 -14.8,7.5 z"
     id="path546" /><path
     class="st0"
     d="m 317.5,232.3 c 0.5,0 1,-0.2 1.4,-0.1 1,0.3 2.1,0.6 2.9,1.2 3.7,3 8.2,5.2 11,9.1 1.6,2.3 4.4,3.7 5.3,6.8 -3.3,3.1 -6.1,6.5 -10.2,8.6 -2.1,1.1 -3.7,2.9 -5.7,4.2 -1.7,1.2 -3.5,2.1 -5.9,1.4 -0.1,-5.6 -3,-10.4 -5.4,-15.4 3.9,-4.6 5.5,-10.1 6.6,-15.8 z"
     id="path548" /><path
     class="st0"
     d="m 308.7,283.4 c 0.9,1.7 1.8,3.2 1.6,5 -0.1,0.6 -0.1,1.4 0.3,1.8 2.2,2.4 1.5,5.4 1.7,8.2 0.2,3.1 0.4,6.3 0.6,9.4 -0.9,0.4 -1.9,1 -3.1,1.3 -0.7,0.2 -1.5,0 -2.3,-0.2 -0.6,-0.1 -1.2,-0.7 -1.7,-0.6 -5.7,0.7 -11.2,-1.5 -16.8,-1 -0.4,-0.5 -0.9,-0.9 -1.2,-1.3 0.9,-2.1 1.5,-4.5 2.9,-6.1 1.7,-1.9 -0.3,-4.6 1.8,-6.2 -0.5,-2.2 1.4,-3 2.8,-3.8 4.4,-2.1 8.7,-4.2 13.4,-6.5 z"
     id="path550" /><path
     class="st0"
     d="m 411.9,251.7 c -1.1,0.5 -2.1,0.9 -3.3,1.4 -1.6,-1.2 -4.7,-0.8 -4.5,-3.9 1.4,-1.4 2.6,-2.7 4.1,-4.2 1,0.5 2.3,1.3 3.7,2 0,1.6 0,3 0,4.7 z"
     id="path552" /><path
     class="st0"
     d="m 92.8,249.5 c -0.6,1.1 -1.2,2.1 -1.9,3.3 -1.1,0 -2.2,0 -3.1,0 -1,-0.8 -2,-1.6 -3.1,-2.4 0.9,-1.5 1.6,-2.9 2.4,-4.2 1.2,0 2.3,0 3.6,0 0.7,1 1.4,2.2 2.1,3.3 z"
     id="path554" /><path
     d="m 270.8,189.7 c 0.8,-2.1 2.4,-0.5 4.1,-1 2.9,6.1 5.8,12.1 8.3,17.5 0.6,2.9 1,5 1.4,6.8 8.6,3 16.3,6.6 23.7,11.5 0.8,5.1 -1.4,9.7 -2.8,14.4 -1.4,4.8 -5.4,8.2 -7.2,13.1 5.2,5.8 7.3,13.1 10.5,19.7 -3.5,3.6 -19.5,10.7 -24.7,11.2 -1.5,8.5 -5.2,16.2 -8.1,24.2 -9.1,-2.2 -17,-6.7 -25.2,-10.9 -4.6,2.3 -9.1,4.5 -13.5,6.9 -4.5,2.4 -9.4,3.5 -14,5.6 -4.5,-8 -6.6,-16.5 -8.9,-25 -1.3,0 -2.6,0 -3.2,0 -8,-3.4 -15.4,-6.6 -23,-9.8 2.9,-9.5 7.3,-17.9 12.8,-26 -3,-3.4 -5.7,-7.1 -7.2,-11.7 -1.4,-4.2 -4.3,-7.8 -5,-12.7 8.3,-3.6 16.3,-8.2 25.6,-10.2 1.4,-4.3 2.4,-9.1 4.4,-13.3 2.1,-4.2 3.4,-9 7.4,-12.5 1.4,0.4 2.9,0.8 4.3,1.2 4.3,1.3 8.4,3 11.9,5.7 0.3,0.3 0.5,0.8 0.5,1 2.3,11.5 -3.3,20.3 -8.1,29 -3.4,6.3 -8.7,11.4 -13.4,16.7 -1.6,1.9 -2.8,4.1 -4.1,6.1 -1.1,1.7 -2.3,2.9 -4.9,1.1 0.3,-5.4 2.9,-10.1 6.2,-14.3 4.9,-6.3 9.8,-12.4 11.1,-20.2 -4.4,11.1 -14.1,19.4 -18.3,30.9 -1.3,1 -2.8,-0.3 -4.2,0.7 -2.7,3.1 -4.4,7.3 -6.1,11.3 3.9,3 6.2,8 12.1,8 2.3,-0.6 3.8,-2.7 6.1,-4.4 1.3,-6.6 2.5,-13.7 6.7,-19.6 3.4,-4.8 6.4,-10 9.6,-15 4.7,-7.2 6.8,-15.2 8,-23.5 0.3,-2.3 -1,-4.5 -0.6,-6.9 3.1,0.5 4.7,2.8 7.1,4.2 3.1,-0.7 5.8,-2.4 8.5,-4.1 3.8,-2.1 7.7,-4.5 12.2,-5.7 3,6.9 1.4,13.9 -0.2,20.7 -1.9,7.9 -6.1,14.9 -9.6,22.1 -2.6,5.2 -2.8,6.9 -1.5,11.7 0.6,-7.9 3.7,-15.1 7,-22.1 3.3,-6.9 5,-14.3 7.6,-21.8 4.1,2.1 3.2,5 2.9,7.3 -0.8,6.4 -3.5,12.2 -5.8,18.2 -2.2,5.6 -4.2,11.2 -4.3,17.5 -0.1,6.6 0.9,12.3 5.5,17.2 0.8,0.8 1.3,1.9 0.6,3.2 -2.6,2.7 -7.3,1.7 -9.2,6.1 -4.2,-3.3 -9.2,-3.4 -13.4,-5.6 -1.5,-5.1 3.2,-9.1 9.2,-7.6 -0.4,-1.8 -1.7,-1.8 -3,-1.7 -4.4,0.5 -7.9,2.8 -10.4,6.1 -2.2,2.8 -5.5,4.6 -6.7,8.3 -0.6,1.9 -3.1,2.3 -4.9,3.2 -0.9,1.9 -1,4.1 -1.6,6 2.5,4.5 6.5,5.8 11.7,4 7.7,-2.5 15.5,-4.2 23.7,-2.3 1.8,0.4 3.5,0.9 4.7,2.7 0.2,3.5 -2.3,4.8 -5.2,5.1 -2.7,0.3 -5.5,0.5 -8.3,0.3 -11.1,-0.8 -21.7,1 -30.5,8.5 9,-7.8 19.7,-8 30.4,-5.9 6.7,1.4 11.8,1 16,-4.8 1.8,-2.5 4.9,-4 5,-7.6 -0.9,-2.2 -3.3,-2.7 -4.3,-4.5 -5,-0.6 -9.1,0.3 -13.7,2.3 -5.3,2.3 -11.4,4.2 -17.4,4.7 -2.7,0.2 -5.3,0 -7.1,-2.5 -0.1,-2.4 0.8,-4.5 1.4,-6.8 3,-1.7 5.5,-4 7.4,-7 0.7,-1.1 1.5,-2.3 3.2,-1.2 2.7,1.7 0.3,3.8 0.3,6.4 5.4,0.4 10.7,0.2 15.5,-2.7 2.3,-1.4 5.8,-0.4 7.1,-3.6 2.5,-2.7 4.9,0.1 7.2,0.4 1.8,0.3 3.8,0.9 5.6,1.4 1.7,1 2,3 3.7,4.6 3.6,0.1 7.4,-1.1 11.2,-1.7 1.3,-4.4 0.9,-6.1 -1.9,-6.9 -0.3,0.3 -0.7,0.5 -1.1,0.6 -0.7,0.1 -1.3,-0.3 -2.1,-0.1 -0.4,2.7 -1.3,5.3 -4.5,5.9 -3.6,-1.7 0,-6 -3.5,-7.9 -3.9,0.7 -7.8,-0.8 -11.4,-3.1 -1.2,-0.7 -2.8,-1.4 -1.7,-3.3 1.4,-1.4 1.8,-3 1.3,-5 -0.5,-1.9 -0.7,-3.9 0.7,-5.5 4.5,-0.8 7.2,3.4 11.2,3.8 3.2,-2 2,-6.5 4.7,-8.6 3.4,-0.6 2.2,2.9 3.8,3.8 2.3,-3.8 2.3,-3.8 1,-15.9 0.6,7.8 0.6,7.8 -1.8,11.6 -1.4,1.2 -2.4,-0.7 -3.7,-0.3 -1.7,1.1 -2.1,4 -6,3.5 0.4,-6.6 3.8,-13.1 2.4,-19.2 -0.2,8 -2.4,14.4 -6.4,18.6 -4.3,-1 -5.5,-3.1 -3.8,-7.9 1.6,-4.3 2.8,-8.7 3.5,-13.8 -2.1,5.7 -3.6,11 -5.8,16.1 -2.2,4.9 -2.7,9.8 -0.8,14.8 0.7,1.7 0.8,3.2 -0.9,4.3 -2.3,0.9 -3.4,-0.6 -4.3,-2.2 -2.1,-4 -2.9,-8.2 -1.8,-12.8 1.8,-7.3 3.9,-14.5 7,-21.4 1.4,-3.1 2.1,-6.3 2.4,-9.7 0.3,-3 0.1,-5.6 -2.2,-8.2 -2.5,-2.6 -2.5,-6.6 -4.1,-9.8 z"
     id="path556" /><path
     d="m 144.2,219 c 0.3,-4.7 0.3,-9.9 -3.3,-14.6 2.5,-2.5 5.8,-3 8.4,-4.9 2.6,-1.9 4.8,-4.3 7.6,-6.8 1.2,0 2.9,0.3 4.4,-0.1 1.5,-0.4 2.7,-1.8 4.2,0 1.1,-1.2 2.6,-0.9 4,-0.8 1.5,0.1 3.4,-0.8 4.2,1.3 1.5,8.7 2,17.6 6.4,25.7 -7.6,6.4 -15.1,12.8 -22.9,19.4 0,0 -0.6,0 -0.8,-0.3 -2.7,-4 -5.4,-7.9 -8,-11.9 -1.4,-2.1 -2.5,-4.2 -4.2,-7 z"
     id="path558" /><path
     d="m 305.2,156.5 c 0.6,2.8 -0.7,5.7 1,8.5 0.4,0.7 -0.5,2.3 -0.9,3.4 0.3,0.4 0.7,0.7 0.8,0.9 -0.4,2.1 -0.8,4.1 -1.2,6.5 -1.2,0 -2.6,0.1 -4,0 -7.6,-0.6 -15.1,2 -22.9,0.8 -3.6,-7.7 -9,-14.6 -14.5,-21.7 3.8,-4.3 8.4,-7.6 13.1,-10.7 1,-0.7 2.1,-1.2 3.5,-1 1.6,0.2 3.3,0.1 4.9,0 1.8,-0.1 3.5,-0.1 5.2,-0.4 1.5,-0.3 2.9,-1 4.5,-1.6 3,5.6 6.9,10.3 10.5,15.3 z"
     id="path560" /><path
     d="m 238.5,337.7 c -1.4,4 -4.8,6.2 -7.6,8.8 -2.6,2.4 -5.8,4.2 -8.5,6.1 -6.8,-1.9 -13,-0.1 -19.6,1 -3.1,-4.4 -7,-8.6 -11.8,-11.8 -2.4,-5.9 -0.9,-12.1 -1.4,-18.3 5.4,-0.7 10.5,-2 15.9,-2.4 3.7,-0.3 7.3,-2.2 10.9,-3.3 1.2,-0.4 2.3,-0.8 3.4,-1.2 5.7,7.2 11.4,14.6 18.7,21.1 z"
     id="path562" /><path
     d="m 178.1,275.9 c -0.8,3.3 -1.8,6 -2.1,8.7 -0.3,2.8 0,5.6 -0.1,8.4 0,1.4 0,2.7 -0.8,4.1 -0.6,1 -0.6,3 0.5,4.6 0.9,1.2 0.8,3.1 -0.7,4.2 -6.7,-1.6 -13.4,-3.2 -20.6,-5 -3.6,-3.5 -7.2,-8 -13,-9.7 3.4,-4.6 3.3,-9.7 3,-14.7 3.9,-5 6.8,-10.8 11.9,-14.9 6.9,5.2 13.9,10.5 21.9,14.3 z"
     id="path564" /><path
     d="m 279.7,315.1 c 1,0.6 1.4,1 1.8,1 7.6,0 15.1,1.7 22.8,1 1.6,-0.1 3.2,0 4.9,0 0.6,6 -0.4,11.6 -1.8,17.1 -0.5,2 -1.3,3.5 -2.7,4.8 -0.2,0.2 -0.5,0.5 -0.7,0.7 -4.2,3.7 -7.6,8 -10.1,13.5 -5.8,-5.8 -12.9,-4.3 -19.4,-4.5 -4.3,-3.5 -8.5,-6.9 -12.6,-10.1 0,-0.6 0,-1.2 0.1,-1.3 4.8,-2.4 7,-7.3 10.7,-10.8 1,-0.9 1.4,-2.4 2.1,-3.5 1.5,-2.6 3.2,-5.2 4.9,-7.9 z"
     id="path566" /><path
     d="m 319.2,218.8 c 1,-3 2.1,-5.9 2,-9.1 -0.1,-3.3 1.9,-6.3 2,-9.5 0.1,-3.3 0,-6.6 0,-10.2 2.2,-0.5 4.5,-0.1 6.7,-0.2 2.1,-0.1 4.3,-0.2 6.4,0 2.1,0.2 4.2,0.9 6.5,1.4 6.3,9.1 7.7,10.5 13,12.8 -0.3,2.3 -0.8,4.8 -1,7.2 -0.2,2.6 0,5.2 0,8 -4.1,5.6 -8.2,11.3 -12.4,17 -6.8,-7.1 -14.9,-12.4 -23.2,-17.4 z"
     id="path568" /><path
     d="m 356.5,291.3 c -5.4,3.7 -11.7,6.7 -14.6,12.8 -2.4,0.8 -4.7,-0.8 -6.4,1.2 -2.2,-0.3 -4.5,0.6 -6.6,-0.6 -1.4,-0.8 -3,-0.7 -4.2,0.4 -0.8,-0.3 -1.4,-0.7 -2.5,-1.2 0,-2.2 0.8,-5 -0.2,-6.9 -1.2,-2.5 0,-4.9 -0.9,-7 -1,-2.3 -0.1,-5 -1.1,-6.9 -1.3,-2.5 -0.3,-4.7 -0.9,-7.2 4.4,-2.1 9.1,-3.4 12.8,-6.5 3.7,-3.1 7.3,-6.3 11.2,-9.7 2.1,1.9 4,4.5 6.6,5.9 2.9,1.6 3.8,4.6 6.1,6.6 0.2,3.2 -1.7,6.1 -1,9.4 0.6,3 1.1,6.1 1.7,9.7 z"
     id="path570" /><path
     d="m 206.9,139.4 c 3.7,2.4 7.8,3.3 11.9,3.8 2.5,0.3 4.6,1.3 6.3,2.6 3.6,2.6 6.8,5.8 10,8.6 0.5,3.4 -2.1,5.1 -3.3,7.4 -1.7,3.3 -4.4,6 -6.1,9.4 -1.2,2.4 -1.9,5.1 -3.5,7.4 -9.7,-2.7 -19.6,-2.5 -29.5,-3.9 -0.4,-3.6 -0.2,-7.2 1.3,-10.6 0.3,-0.6 0.5,-1.2 0.5,-1.8 -0.1,-5.8 2.7,-10.2 6.5,-14.1 2.6,-2.5 4.4,-5.4 5.9,-8.8 z"
     id="path572" /><path
     d="m 288.7,189.1 c 6.9,-3.4 14.1,-2 21.7,-2.4 -0.8,3.9 0.4,7.6 -0.9,11.5 -1.1,3.4 0.3,7.6 -1.5,11 -4.1,-2.3 -8.4,-4.3 -13.3,-4.9 -0.3,-5.6 -3.6,-10.1 -6,-15.2 z"
     id="path574" /><path
     d="m 203.6,203.9 c -4.7,2.4 -9.5,2.7 -13.6,5.6 -3.1,-7.6 -3.7,-15.5 -4.4,-23.4 8.5,-1.2 16.2,0.6 24.3,3 -2.8,5 -4.9,9.8 -6.3,14.8 z"
     id="path576" /><path
     d="m 188.9,288.6 c 5,1.9 9,5.5 14,5.6 1.7,4.7 3.3,9 5,13.7 -7,1.9 -13.6,3.7 -20.7,3.3 -1.1,-2.3 -2.7,-4.6 -0.6,-7.3 0.3,-0.4 0.1,-1.3 0.1,-1.9 0.3,-3.5 0.6,-7 1,-10.4 0.1,-0.6 0.7,-1 0.9,-1.6 0.3,-0.4 0.3,-0.9 0.3,-1.4 z"
     id="path578" /><path
     d="m 263.8,316.4 c -4.1,6.4 -8.9,11.7 -14.3,16.6 -4.6,-4.8 -9.8,-9.1 -13.1,-15.4 4.4,-1.3 9,-2.4 12.1,-6.3 1.4,0 3.1,-0.5 3.9,0.1 3.4,2.5 7.7,2.9 11.4,5 z"
     id="path580" /><path
     d="m 178.1,262.2 c -5.9,-4.2 -11.6,-7.9 -16.3,-12.9 3.6,-4.4 13,-11.7 18.7,-14.3 -0.3,3.7 1.8,6.5 3.3,9.4 1.2,2.2 0.9,3.7 -0.1,5.7 -1.7,3.2 -3.2,6.6 -4,10.2 -0.1,0.6 -0.9,1.1 -1.6,1.9 z"
     id="path582" /><path
     d="m 249.8,159.9 c 0.6,0.3 0.9,0.4 1.1,0.6 0.4,0.3 0.8,0.6 1,1 3.4,5.8 6.7,11.6 10.3,17.8 -5,1 -8.3,4.7 -12.6,6.1 -4.1,-2.3 -8.2,-4.7 -12.4,-7.1 1.1,-4.3 7.9,-14 12.6,-18.4 z"
     id="path584" /><path
     d="m 313.2,248.8 c 3,-4.5 4.5,-9.7 6.2,-14.6 6.7,3.7 12.1,8.6 16.5,14.6 -2.1,2.8 -8.8,7.9 -17.5,13.1 -0.5,-2.3 -0.8,-4.6 -1.6,-6.8 -0.8,-2 -2.2,-3.9 -3.6,-6.3 z"
     id="path586" /><path
     d="m 294.6,292 c 4.7,-2.2 9,-4.1 13.3,-6.1 1.8,6.7 3.1,13.8 2.1,21.4 -3.3,0.3 -6.4,-1.3 -9.8,-1.1 -3.1,0.2 -6.2,-0.6 -9.6,-1 1.5,-4.6 4.3,-8.7 4,-13.2 z"
     id="path588" /><path
     class="st0"
     d="m 274.7,254 c 2.6,2.4 6,3.3 9.4,4.7 1.4,-0.6 3,-1.2 4.7,-2 -0.5,-1.1 -0.8,-1.9 -1.1,-2.8 4.3,0.4 1.8,4.5 3.8,5.9 -0.3,2.3 -0.6,4.5 -1,6.8 0.2,0.1 0.4,0.2 0.6,0.3 0.5,-1 1.1,-2 1.6,-3 0.3,0.2 0.6,0.3 0.9,0.5 -0.2,-1.9 -0.3,-3.8 -0.7,-5.6 -0.3,-1.6 -1,-3.1 -1.6,-4.7 2,-0.5 2.5,0.6 3.1,1.8 1,1.6 1.1,3.8 2.9,4.9 -0.1,-0.9 0.1,-2.1 -0.4,-2.8 -1.3,-1.7 -0.2,-3.4 -0.8,-5.7 1,0.9 1.4,1.1 1.6,1.5 1.6,2.9 3.1,6 4.9,8.8 1.9,2.9 2.2,5.7 0.3,8.8 -3.4,1.4 -3.4,1.4 -6.6,-0.3 -1.4,1.4 -2.7,2.7 -3.9,3.9 -2.5,-1.3 -2.5,-1.3 -5.7,-1.3 -1.1,-2 -3.7,-3.6 -1.1,-6.9 -5,0.8 -8.8,-1.9 -13.1,-3 -0.9,-1.1 -1.8,-2.2 -2.8,-3.3 -3.2,-3.5 -5,-7.5 -5.1,-12.2 0,-1.8 0.1,-3.6 0,-5.4 -0.2,-6.2 2,-11.9 4.3,-17.5 2.2,-5.4 4.3,-10.7 5.7,-16.4 0.6,-2.5 0.9,-4.9 0.8,-8.1 -1.8,5.8 -3.3,10.9 -4.8,15.9 -0.4,1.2 -0.8,2.3 -1.4,3.4 -2.6,5.3 -4.9,10.8 -6.6,16.5 -1,3.2 -1.2,6.7 -0.4,9.3 0.3,1.2 0.5,2.4 0.7,3.8 -1.8,0 -3.2,0 -4.7,0 -1,-0.6 -2.1,-1.3 -3.3,-1.9 0,-2.1 0,-4.2 0,-6.3 0.6,-1 1.6,-2 1.7,-3.1 0.9,-6 4.5,-10.7 7.1,-15.8 1.4,-2.7 2.5,-5.5 3.5,-8.4 2.4,-6.9 3.7,-14 3.2,-21.3 0,-0.6 -0.5,-1.1 -0.8,-1.7 0.2,-0.4 0.5,-0.9 0.8,-1.4 4.1,2 3.9,6.3 5.3,9.8 0.5,0.1 0.9,0.2 1.8,0.4 0.2,3.1 0.5,6.2 0.7,9.3 0.2,2.9 -0.9,5.5 -2,8 -3,7 -6,14.1 -6.9,21.8 -2.3,4.2 -0.6,8.2 1,12.1 0.5,1.3 1.4,2.1 3,1.8 0,0 0.4,-0.1 0.4,-0.1 0.3,0.1 0.5,0.3 0.6,0.6 0.5,-0.1 0.4,0.4 0.4,0.4 z"
     id="path590" /><path
     class="st0"
     d="m 242.6,195.7 c 0.8,1.2 1.4,2.3 2,3.3 0.1,0 0.1,-0.1 0.2,-0.1 0.1,0.1 0.2,0.3 0.2,0.4 -0.1,3.1 0.1,6.2 -0.5,9.2 -0.8,3.9 -2.2,7.6 -3.4,11.4 -0.1,0.3 0.1,0.8 0,1 -5,6.2 -8,13.6 -12.8,19.9 -3.2,4.3 -5.7,9.1 -6.1,14.8 -0.2,2.9 -1.3,5.7 -2,8.9 -1.7,1.8 -3.5,4.1 -7.3,4.5 -0.5,-1 -1.1,-2.4 -1.8,-3.8 -0.3,0.3 -0.7,0.5 -1,0.8 -1.2,0.6 -2.3,1.2 -3.5,1.9 -0.9,-0.4 -1.9,-0.8 -3.4,-1.5 -0.3,-2.2 -0.7,-4.6 -1.1,-7.3 -2.7,1 -1.7,5.7 -5.4,5.8 2.5,-11.3 6.7,-19.3 13.7,-26.1 -0.4,2 -0.7,3.5 -1,5.1 0.2,0.1 0.4,0.1 0.7,0.2 0.7,-1.7 1.4,-3.4 2.1,-5.1 2.2,-5 5.6,-9.2 8.7,-13.7 0.4,-0.5 1.1,-0.9 1.3,-1.4 1.2,-2.9 3.4,-5.3 4.7,-7.9 1.1,-2.3 2.2,-4.7 3.2,-7.1 0.4,-0.9 0.1,-2.1 0.1,-3.2 0.8,0 1.1,0 1.8,0 0.7,4.1 -0.1,8 -1.3,12 -1.7,5.5 -4.4,10.1 -8.3,14.4 -2,2.2 -4.2,4.5 -5.1,7.7 -0.8,2.8 -2.5,5.4 -3.9,8.1 0.6,0.2 0.9,0.2 1.3,0.4 3.4,-6.2 8.3,-11.3 12.8,-16.7 4.1,-4.8 7.6,-9.9 9.9,-16.1 1.5,-4.3 3,-8.6 4.4,-13 0.6,-1.6 0.2,-3.5 0.3,-5.3 0.1,-0.8 0.4,-1.2 0.5,-1.5 z"
     id="path592" /><path
     class="st0"
     d="m 238.8,277.7 c 4,3.4 7.6,1.1 11.1,0.5 4.4,-0.8 8.3,-3.1 12.4,-4.7 2.4,-0.9 4.6,-1.9 7.1,-1.8 0.3,0 0.7,0 1,0 7.5,-1.3 13.5,2 16,7.4 -2.8,2.1 -5.5,4.3 -8.2,6.4 -1.9,1.5 -3,3.6 -3.9,5.8 -1.2,2.9 -3.4,4.3 -6.6,4.1 -0.5,0 -1,0 -0.7,0 -4.8,-2 -8.8,-4.1 -13.5,-4 -2.3,0.1 -4.6,-0.1 -6.9,0 -6.3,0.5 -12.1,2.6 -16.9,6.8 -2,1.8 -4.2,3.4 -6.3,5 -0.1,0.1 -0.6,-0.1 -1.2,-0.3 3.7,-8.2 11.1,-11.8 19,-15.5 1.1,0 3.2,0.6 4.3,-0.1 3.2,-2.2 7.2,0.8 10.1,-1.8 1,0.3 2,0.9 3,0.9 2.6,0.1 5.3,0 7.9,0.1 2.4,0 4.1,-1.1 5.8,-3.4 -1.9,-0.6 -3.3,-1.2 -4.7,-1.5 -1.5,-0.3 -3.2,0.3 -4.6,-1 -0.3,-0.3 -1.3,-0.2 -1.9,0 -6.5,1.3 -13.2,1.5 -19.2,4.9 -1.6,0.9 -3.4,1.4 -5.3,2.1 -1.1,-1.8 -3.6,-2.5 -3.6,-5.3 0,-1.1 -1.8,-2.2 -2.5,-3 -0.5,-1.8 -1,-3.3 -1.5,-5 4.2,-3.8 8.3,-7.7 12.5,-11.4 1.4,-1.3 3.9,-3.9 4.8,-5.8 0.9,-2 1.9,-3.6 4.4,-3.4 0.2,0 0.5,-0.4 0.7,-0.7 0.3,0.3 0.7,0.6 1.2,1.1 3.1,-1.2 6.3,-2.8 9.9,-1.9 1.4,2 1.9,4.1 0,6.3 -2,1.3 -4.1,2.8 -6.3,4.2 -0.4,-0.4 -0.7,-0.7 -0.8,-0.8 1,-1 1.9,-1.9 2.9,-2.9 -0.9,-0.9 -1.3,-1.4 -1.8,-1.9 -2.6,1.2 -4.4,3 -6,5.5 -2.4,3.8 -5.6,7.1 -8.4,10.6 -1.1,1.4 -2.1,2.9 -3.3,4.5 z"
     id="path594" /><path
     class="st0"
     d="m 256.2,199.7 c 3.2,1.3 0.4,4.8 2.7,6.4 -0.3,1.2 -0.8,2.3 -0.9,3.5 -0.3,2.5 -1.2,4.7 -2.4,6.9 -2.4,4.4 -6,7.7 -9.7,11.5 2.1,0 3.9,0 5.8,0 1.2,1.6 2.3,3.1 3.2,4.4 1,5.9 -0.9,10.7 -3.8,15.4 -0.3,0.5 -0.5,1.2 -0.9,1.6 -5,5.4 -9.6,11.1 -15.1,15.9 -3.7,3.1 -6,7.1 -9.1,10.6 -1.4,1.6 -1.8,4.2 -2.5,6.3 -1,2.9 -2.1,5.8 -2.8,8.7 -0.5,2.3 -0.6,4.7 1.2,7.1 -0.8,0.2 -1.4,0.4 -2,0.5 -0.7,-2.7 -1.4,-5.2 -2.2,-8.1 0.2,-0.7 0.6,-1.9 0.8,-3.1 0.2,-1.3 0,-2.6 0,-3.9 1.6,-3.4 3.4,-6.8 4.9,-10.3 1.5,-3.6 3.7,-6.5 6.4,-9.2 3.9,-4.1 7.9,-8.1 11.5,-12.6 1.8,-2.2 4.1,-4.4 4,-7.7 0,-0.3 0.6,-0.7 0.8,-1 -0.6,-1.1 -1.3,-2.2 -1.9,-3.2 -3.6,-1.2 -6.3,0.2 -8.6,2.8 -2.3,2.6 -5.1,5.1 -6.9,8 -1.6,2.7 -2.3,6 -3.3,9 -0.4,1.2 -0.9,2.4 -1.6,4.1 -1.2,-5.5 0.1,-10.2 1.7,-14.5 1.5,-4 4.2,-7.5 6.6,-11.1 2.7,-4 5.7,-7.9 8.7,-11.7 3.5,-4.5 6.3,-9.6 9.4,-14.4 2.6,-3.6 4.7,-7.7 6,-11.9 z"
     id="path596" /><path
     class="st0"
     d="m 273.7,253 c -0.9,-2.9 -1.9,-5.8 -2.9,-9.1 0.2,-0.3 1,-1.1 0.9,-1.6 -0.6,-4.2 1.6,-7.6 3.1,-11.1 1.9,-4.4 2.9,-9 4.7,-13.4 0.9,-2.1 0.1,-4.8 0.1,-7.1 0.7,-0.1 1,-0.1 1.3,-0.2 1.2,1.5 1.6,3.2 1.7,5.1 0.2,6.2 -0.7,12.2 -3.6,17.8 -0.6,1.2 -0.4,2.8 -0.6,4.3 0.8,0.6 1.6,1.2 2.8,2 1.5,-4.2 3.3,-8 4.2,-12 0.9,-4 1,-8.2 1.5,-12.7 1,1.5 1.7,2.6 2.6,3.9 0,2.9 -0.1,6.1 0,9.2 0.2,3.7 -0.7,7.1 -2.7,10.3 -0.2,0.4 -0.2,0.9 -0.4,1.4 2.5,-1.7 4.8,-6.2 5.4,-10.4 0.3,0 0.6,-0.1 1.4,-0.2 0.1,1.4 0.2,2.7 0.2,4.1 0,1.3 0,2.5 0,4.6 3.2,-4.9 1.4,-9.5 2.1,-13.8 -1.1,-1.8 -2.2,-3.5 -3.5,-5.6 1,0 1.8,-0.2 2.1,0 2.3,1.8 3.4,4.4 4.2,7.1 0.5,1.5 0.8,3 1,4.5 0.2,1.6 0,3.3 0,4.9 0.2,4.3 -0.2,8.5 -2.8,12.2 -0.5,0.7 -0.4,1.7 -0.6,3.1 -1,-1.6 -1.8,-2.8 -2.8,-4.4 0,-2 0,-4.4 0,-8.1 -2.2,6.4 -2.3,12.8 -8.4,16.4 -0.4,-2.4 -0.8,-4.2 0.5,-6.1 -1,-0.2 -2.2,-0.2 -2.7,-0.7 -1.5,-1.9 -3.5,-2.6 -5.6,-3.2 -0.7,3.5 0.3,5.8 4.4,10.2 -2.4,1.6 -4.5,-1.2 -6.8,-0.6 -0.1,-0.2 -0.4,-0.5 -0.8,-0.8 z"
     id="path598" /><path
     class="st0"
     d="m 203.6,228.1 c -0.3,0.8 -0.8,1.7 -1.2,2.6 2.3,1.6 4.1,-0.6 6.7,-0.4 0.2,0.5 0.5,1.4 1,2.9 0.2,-0.7 0.2,-0.3 0,-0.2 -2.6,1.7 -5.3,3.2 -7.8,5 -1.1,0.8 -1.7,2.1 -2.7,3.5 -3.1,-3.5 -2.1,-8.9 -5.9,-11.6 -0.4,-3.3 1.2,-5.6 3.6,-7.6 2.2,-0.3 4.6,-0.5 6.9,-1.1 2.4,-0.6 4.4,-2.1 6.5,-3.4 1,-0.7 2,-1.5 3.1,-2.1 1.3,-0.7 2.5,-0.2 3.4,0.9 0.4,5 0.4,5 -4.3,13.6 -1.7,0.2 -1.4,-1.1 -1.2,-2 0.1,-0.9 0.8,-1.7 0.9,-2.6 0.2,-1 0,-2 0,-3.5 -1.2,0.5 -1.7,1.6 -2.5,2 -1.1,0.6 -2.3,0.9 -3.3,1.5 -1.1,0.7 -1.9,1.5 -3.2,2.5 z"
     id="path600" /><path
     class="st0"
     d="m 272.7,263.8 c 0.5,0.8 1.1,1.5 1.8,2.6 -0.8,0.4 -1.8,0.8 -2.8,1.3 -0.9,0.8 -2.7,1.6 -4.3,0.3 -0.9,0.5 -1.9,1.6 -2.9,1.6 -1.6,0.1 -2.6,0.7 -3.8,1.6 -0.9,0.7 -2.2,0.8 -3.4,1.1 -2.2,-0.3 -4.5,-0.6 -6.8,-0.9 -2.5,0.5 -2.8,3.7 -5.6,4.5 0.8,-3.4 2.7,-5.7 3.7,-8.3 0.5,-1.3 1.8,-2.3 1.4,-3.8 3.9,-0.7 7.6,1.1 11.5,1 0.6,1.2 1.1,2.5 1.9,4.1 0.6,-2.1 1.2,-3.9 1.8,-5.8 2.4,-0.9 5,0.1 7.5,0.7 z"
     id="path602" /><path
     class="st0"
     d="m 230.6,201.5 c -1.5,-1.1 -2.5,-1.8 -4.4,-3.1 1.3,-0.4 2.1,-0.7 2.9,-1 -0.2,-0.2 -0.4,-0.4 -0.6,-0.6 1.1,0 2.2,0 3.2,0 2.4,3.2 1.9,4.2 -1.1,4.7 z"
     id="path604" /><path
     class="st0"
     d="m 275.7,296.8 c 0,1 0,1.9 0,2.7 0,0.2 0,0.3 -0.1,0.9 -0.9,0.4 -2,0.9 -3.4,1.5 -0.7,-1.4 -1.2,-2.5 -1.9,-3.7 1.2,-0.9 2.1,-1.6 3.1,-2.4 0.4,0.2 1.2,0.5 2.3,1 z"
     id="path606" /><path
     d="m 300.2,266.9 c 0.1,-1.3 0.3,-2.6 0.4,-3.9 0.3,0.1 0.7,0.1 0.7,0.2 1,1.9 1.4,3.9 1,6.4 -0.8,0.4 -1.9,0.9 -3.1,1.5 -1.3,-1.6 -2.3,-2.9 -3.6,-4.4 -0.5,1.1 -1,2.2 -1.4,3.2 -0.9,0.9 -1.9,1.7 -2.9,2.7 -1.2,-0.5 -2.8,-1.1 -4,-1.6 -2.1,-2.6 1.1,-4.8 0.1,-7 -4.5,1.9 -8.6,0.7 -12.5,-1.5 -4.7,-2.6 -6.1,-7.5 -8,-11.9 -0.7,-1.6 -0.8,-3.5 -0.5,-5.5 0.5,1 1.2,1.9 1.4,3 0.8,3.9 3.2,6.4 6.7,8 1.1,0.5 2.2,1.1 3.2,1.8 3.7,2.3 7.5,2.9 12,0.7 -0.3,3.1 0.7,5.8 -1.4,8.7 0.7,0.2 1.6,0.5 2.4,0.7 0.8,0.9 1.8,-0.2 5.2,-5.1 1,1.6 1.7,3.7 4.3,4 z"
     id="path608" /><path
     d="m 265.3,224.6 c -1.9,4.9 -3.5,9 -5.4,14 0,0.9 -0.1,2.9 0,4.8 0.2,1.8 0.7,3.5 1.1,5.6 -1.3,-0.7 -2.3,-1.1 -3.2,-1.6 -0.3,-0.2 -0.5,-0.5 -0.8,-0.8 0,-1.8 0,-3.8 0,-5.9 1.2,-2.5 2.6,-5.3 3.8,-8 1.2,-2.5 1.3,-5.7 4.5,-8.1 z"
     id="path610" /><path
     d="m 272.3,206.9 c -1.8,-4.3 1.5,-7.5 0.7,-11.2 1.6,3.7 0,7.2 -0.7,11.2 z"
     id="path612" /><path
     d="m 274.5,216.3 c 0.5,-1.9 1,-3.9 1.7,-6.2 1.2,2.8 -0.1,4.6 -1.7,6.2 z"
     id="path614" /><path
     d="m 267.7,235.9 c 0,1.5 0,2.7 0,4 -0.4,-0.1 -0.8,-0.2 -0.8,-0.3 0.2,-1.1 -0.8,-2.6 0.8,-3.7 z"
     id="path616" /><path
     d="m 267.9,236 c 0,-0.8 0,-1.7 0,-2.8 0.9,1.7 0.9,1.7 0,2.8 z"
     id="path618" /><path
     d="m 274.7,216.4 c -0.4,1 0.9,2.5 -1,3 0.4,-1 -0.9,-2.5 1,-3 z"
     id="path620" /><path
     d="m 268.9,216.3 c 0,-0.8 0,-1.7 0,-2.8 0.9,1.6 0.9,1.6 0,2.8 z"
     id="path622" /><path
     d="m 267.6,219.5 c 0,0.5 0,1.1 0,1.6 -0.2,0 -0.3,0 -0.5,0.1 -0.1,-0.6 -0.2,-1.1 -0.4,-1.7 0.4,0.1 0.6,0.1 0.9,0 z"
     id="path624" /><path
     d="m 271.9,208.1 c -0.3,1.2 -0.5,1.8 -0.7,2.4 -0.2,-0.5 -0.4,-0.9 -0.4,-1.4 0,-0.2 0.3,-0.3 1.1,-1 z"
     id="path626" /><path
     d="m 267.6,218.8 c 0.3,-1.2 0.5,-1.8 0.7,-2.4 0.2,0.5 0.4,0.9 0.4,1.4 0.1,0.1 -0.3,0.3 -1.1,1 z"
     id="path628" /><path
     d="m 269.6,228.7 c 0.4,-1.3 0.5,-1.8 0.7,-2.4 0.2,0.5 0.4,0.9 0.4,1.4 0,0.1 -0.3,0.3 -1.1,1 z"
     id="path630" /><path
     d="m 272.6,221.8 c 0.3,-1.2 0.5,-1.8 0.7,-2.4 0.2,0.5 0.4,0.9 0.4,1.4 0,0.1 -0.4,0.3 -1.1,1 z"
     id="path632" /><path
     d="m 271.9,223.8 c -0.4,1.3 -0.5,1.8 -0.7,2.4 -0.2,-0.5 -0.4,-0.9 -0.4,-1.4 0,0 0.3,-0.2 1.1,-1 z"
     id="path634" /><path
     d="m 298.2,260.8 c 0.1,0.6 0.1,1.3 0.2,1.9 -0.2,0 -0.4,0.1 -0.6,0.1 -0.1,-0.6 -0.3,-1.3 -0.4,-1.9 0.2,0 0.5,0 0.8,-0.1 z"
     id="path636" /><path
     d="m 269.6,212.9 c 0.3,-1.2 0.5,-1.8 0.7,-2.4 0.2,0.5 0.4,0.9 0.4,1.4 0,0.1 -0.3,0.3 -1.1,1 z"
     id="path638" /><path
     d="m 264.8,225.3 c 0.1,-0.7 -0.5,-1.9 1,-2 -0.1,0.8 0.5,1.9 -1,2 z"
     id="path640" /><path
     d="m 269.8,231.9 c -0.3,0 -0.7,0 -1,0 0,-0.1 0,-0.2 0,-0.3 0.3,0 0.7,0 1,0 0,0.1 0,0.2 0,0.3 z"
     id="path642" /><path
     d="m 272.7,223 c -0.3,0 -0.7,0 -1,0 0,-0.1 0,-0.2 0,-0.3 0.3,0 0.7,0 1,0 0,0.1 0,0.2 0,0.3 z"
     id="path644" /><path
     d="m 265.7,223.2 c 0.2,-0.3 0.5,-0.5 0.7,-0.8 0.1,0.1 0.2,0.2 0.3,0.3 -0.3,0.2 -0.5,0.5 -0.8,0.7 -0.1,0 -0.1,-0.1 -0.2,-0.2 z"
     id="path646" /><path
     d="m 273.7,253 c 0.3,0.3 0.7,0.7 1,1 -0.3,-0.4 -0.7,-0.7 -1,-1 z"
     id="path648" /><path
     d="m 235.2,225.3 c -0.3,1.2 -0.4,2.5 -1.1,3.5 -2.7,4.2 -5.8,8.1 -8.2,12.4 -2.7,4.6 -5.2,9.4 -5.6,14.9 -0.2,2.9 -1.4,5.6 -2.1,8.5 -2.7,1.9 -2.8,1.9 -5.5,2.1 0,-1.1 0,-2.2 0,-3.1 -0.6,-0.6 -1.1,-1.1 -1.8,-1.8 -0.2,2.9 -2.5,3.2 -4.6,4.2 -0.4,-0.4 -0.9,-0.8 -1.3,-1.2 -1.7,-3.7 1.2,-7.1 0.5,-10.6 -3,-1.1 -2.1,3 -4.9,2.7 2.2,-3.6 3.2,-7.7 6,-10.8 0,2.1 0,4.3 0,6.4 0.5,0.5 0.9,0.9 1.4,1.4 0.2,-0.2 0.5,-0.3 0.6,-0.6 1.9,-4.2 2.9,-8.6 4.8,-12.8 2.4,-5.1 5.6,-9.6 8.7,-14.1 1.9,-2.7 3.3,-5.6 5.3,-8.2 0.5,-0.6 1,-1.2 2,-1.5 -0.2,0.6 -0.4,1.3 -0.6,1.9 -1.9,5.6 -5.5,10 -9.4,14.4 -2.6,3 -4.3,6.7 -5.8,10.4 -0.2,0.4 -0.5,0.8 -0.7,1.1 -0.3,1.9 -0.6,3.7 -0.9,5.8 0.3,1.7 0.6,3.7 1,5.7 0.4,0 0.9,0 1.6,0 -0.5,-5.4 3,-9 5.7,-12.9 2.2,-3.2 5.1,-5.8 7.6,-8.7 1.6,-1.9 3,-4 4.5,-6 0.7,-1.2 1.8,-2.1 2.8,-3.1 z"
     id="path650" /><path
     d="m 235.2,225.3 c 0.2,-0.7 0.4,-1.5 0.7,-2.2 1.4,-3.3 2.8,-6.6 4.3,-9.9 0.1,-0.3 0.6,-0.5 1,-0.8 -0.4,4.4 -3.2,10.3 -6,12.9 z"
     id="path652" /><path
     d="m 241.2,212.3 c 0,-0.8 0,-1.7 0,-2.8 0.9,1.7 0.9,1.7 0,2.8 z"
     id="path654" /><path
     d="m 206.4,246 c 0.2,-0.3 0.5,-0.5 0.7,-0.8 0.1,0.1 0.2,0.2 0.3,0.3 -0.3,0.2 -0.5,0.5 -0.8,0.7 -0.1,-0.1 -0.1,-0.2 -0.2,-0.2 z"
     id="path656" /><path
     d="m 234.5,292.2 c 1.9,-0.9 3.2,-1.4 4.4,-2 2.1,-0.9 4.3,-1.7 6.7,-1.8 2.7,-0.1 5.3,-0.7 8,-0.9 2.6,-0.2 5.3,0 7.9,0 1,0 2.3,-0.4 2.9,0.1 1.6,1.6 2.8,0.7 4.2,-0.1 0.4,-0.2 1,0 1.7,0 1.1,-1.7 3.8,-2.4 3.4,-5.4 -1.4,-0.7 -2.9,-1.5 -4.5,-2.3 -4.8,0 -10,-0.8 -14.9,0.2 -5.4,1.1 -11.2,2 -16.1,5.8 -3.7,-2.3 -4.4,-6.7 -7,-9.7 0.5,-1.6 1.3,-2.7 2.7,-3.8 4,-3 7.5,-6.6 11.2,-10 0.9,-0.8 1.5,-2 2.1,-3.1 1.2,-2.2 2.3,-4.5 5.5,-3.5 2.7,-1.4 5.6,-2.2 8.8,-1.5 1.1,1.4 0.2,2.5 -1.2,3.8 -0.2,-0.6 -0.4,-1 -0.7,-1.8 -3.8,-0.5 -6.8,0.1 -9.8,4 -4.1,5.4 -7.2,11.6 -12.6,15.9 -0.7,2.4 0.9,3.7 2.4,4.4 1.3,0.6 2.9,2.5 4.6,0.5 3.3,0 6.3,-1.4 9.4,-2.3 1,-0.3 2.1,-0.5 3,-1 3.2,-1.8 6.7,-3 10.2,-3.9 1.4,-0.4 2.8,-0.4 4.2,-0.9 1.5,-0.5 3,0 4.5,0.8 0.9,0.5 2.3,0.1 3.5,0.1 0.7,2.3 5.4,1.6 4.3,5.5 -3.9,2.5 -7.8,5 -9.8,9.6 -1.1,2.5 -2.6,4.7 -5.4,5.4 -2.5,-1.1 -5,-2.7 -7.8,-3.3 -2.7,-0.6 -5.4,-1.7 -8.4,-1.4 -3,0.3 -6,0.5 -9,0.8 -2.6,0.2 -4.7,2.9 -8.4,1.8 z"
     id="path658" /><path
     d="m 230.2,295.5 c 0.1,-1.5 1.2,-0.8 2,-1 -0.1,1.4 -1.2,0.8 -2,1 z"
     id="path660" /><path
     d="m 235.2,292.5 c -0.1,1.5 -1.2,0.8 -2,1 0.1,-1.5 1.2,-0.9 2,-1 z"
     id="path662" /><path
     d="m 229.4,296.5 c -0.2,0.3 -0.5,0.5 -0.7,0.8 -0.1,-0.1 -0.2,-0.2 -0.3,-0.3 0.3,-0.2 0.5,-0.5 0.8,-0.7 0,0.1 0.1,0.2 0.2,0.2 z"
     id="path664" /><path
     d="m 229.2,296.4 c 0.3,-0.3 0.7,-0.7 1,-1 -0.3,0.4 -0.6,0.7 -1,1 z"
     id="path666" /><path
     d="m 233.2,293.5 c -0.3,0.3 -0.7,0.7 -1,1 0.3,-0.4 0.7,-0.7 1,-1 z"
     id="path668" /><path
     d="m 231.2,243.1 c 0,-0.5 -0.2,-1.2 0,-1.5 4.8,-5.3 8.4,-11.4 12.8,-17 3.4,-4.4 6,-9.3 8.9,-14 1.1,-1.7 2,-3.5 3.4,-5.7 1.3,3.2 -0.6,5.3 -1,7.6 -0.7,3.1 -4.2,8.2 -6.5,10.6 -2.5,2.5 -5.2,4.8 -7,8 -0.5,0.9 -0.5,1.9 -0.5,3.1 2.2,-2.6 5.1,-3.7 8.4,-4.5 0.4,0.2 1.2,0.6 2.2,1 2.7,6.4 0.7,12.1 -3.3,17.2 -2.2,2.9 -4.8,5.4 -6.6,8.6 -0.3,0.6 -0.9,1 -1.4,1.4 -2.3,2 -4.6,3.9 -6.9,5.9 -2.2,1.9 -4.3,3.9 -6.4,5.9 0.2,-0.7 0.3,-1.6 0.7,-2.1 1.9,-2.1 3.9,-4 5.9,-6 1.7,-1.7 3.2,-3.7 5.1,-5.2 3.2,-2.6 4.9,-6.4 7.2,-9.8 1.7,-2.5 0,-4.8 1.1,-6.8 -1.8,-2.1 -4,-2.4 -6.1,-2.7 -1.8,-0.2 -3.2,1 -4.6,2 -1.8,1.4 -3.6,2.7 -5.4,4 z"
     id="path670" /><path
     d="m 225.3,273.7 c -0.1,-1.7 0.7,-3 2,-4 0.1,1.7 0.2,3.5 -2,4 z"
     id="path672" /><path
     d="m 231.2,243.1 c -0.1,0.7 0.5,1.9 -1,2 0.2,-0.8 -0.5,-1.9 1,-2 z"
     id="path674" /><path
     d="m 225.4,273.8 c -0.2,0.3 -0.5,0.5 -0.7,0.8 -0.1,-0.1 -0.2,-0.2 -0.3,-0.3 0.3,-0.2 0.5,-0.5 0.8,-0.7 0.1,0.1 0.1,0.1 0.2,0.2 z"
     id="path676" /><path
     d="m 229.2,246 c 0.3,-0.3 0.7,-0.7 1,-1 -0.3,0.4 -0.6,0.7 -1,1 z"
     id="path678" /><path
     d="m 221.3,284.3 c -0.3,0 -0.7,0 -1,0 0,-0.1 0,-0.2 0,-0.3 0.3,0 0.7,0 1,0 0,0 0,0.1 0,0.3 z"
     id="path680" /><path
     d="m 221.7,281.6 c 0,-0.3 0,-0.7 0,-1 0.1,0 0.2,0 0.3,0 0,0.3 0,0.7 0,1 -0.1,0 -0.2,0 -0.3,0 z"
     id="path682" /><path
     d="m 229.4,246.1 c -0.2,0.3 -0.5,0.5 -0.7,0.8 -0.1,-0.1 -0.2,-0.2 -0.3,-0.3 0.3,-0.2 0.5,-0.5 0.8,-0.7 0,0.1 0.1,0.2 0.2,0.2 z"
     id="path684" /><path
     d="m 222.3,278 c 0.3,0 0.7,0 1,0 0,0.1 0,0.2 0,0.3 -0.3,0 -0.7,0 -1,0 0,-0.1 0,-0.2 0,-0.3 z"
     id="path686" /><path
     d="m 223.3,276 c 0.3,0 0.7,0 1,0 0,0.1 0,0.2 0,0.3 -0.3,0 -0.7,0 -1,0 0,-0.1 0,-0.2 0,-0.3 z"
     id="path688" /><path
     d="m 284,241.5 c -3.5,2 -6.2,2.2 -9,0.4 -1.1,3.7 0.1,6.7 1.8,9.6 -1.3,0.9 -1.7,-0.3 -1.9,-0.7 -2.6,-3.9 -2,-8.2 -0.9,-12.3 1,-3.8 2.5,-7.5 4.1,-11.1 0.9,-2.1 1.2,-4.4 2,-7.6 1.1,3.8 -0.1,6.4 -1.2,9 -1.3,2.8 -2.6,5.7 -2.1,9.2 0.7,0.6 1.5,1.3 2.6,2.2 0.8,0 1.9,0 3.1,0 2.4,-3.9 4.7,-7.8 4.4,-12.6 1.7,4.5 -0.7,8.2 -2.3,11.9 1,2.4 2.9,1.7 4.5,1.8 0.6,-1.4 1.2,-2.6 2,-4.2 1.2,2.9 -1.2,4.8 -1.4,7 -0.3,2.4 -0.8,4.4 -3.2,5.8 0.7,-1.7 1.5,-3.4 2.6,-6 -2.5,1.1 -4.3,1.8 -6.8,2.9 0.6,-2.1 1,-3.2 1.7,-5.3 z"
     id="path690" /><path
     d="m 296,245.1 c -0.6,-0.1 -0.9,-0.2 -1.4,-0.3 0.7,-3.8 1.4,-7.7 2.1,-11.5 0.7,3.9 1.5,7.9 -0.7,11.8 z"
     id="path692" /><path
     d="m 200.6,228.9 c 0,1.2 0,2 0,3.2 1.9,0.1 3.7,0.2 6.5,0.3 -2.7,2.2 -4.9,3.9 -7.1,5.7 -0.8,-3.1 -1.4,-6.3 -4.5,-8.3 0.4,-1.6 0.8,-3.3 1.2,-5.2 3.1,-0.8 6.5,-1.3 9.6,-2.5 2.9,-1.2 5.6,-3.1 8.9,-5.1 0.1,1.8 0.1,3.1 0.2,5.5 -0.8,-1.7 -1.1,-2.4 -1.6,-3.3 -4.3,3.3 -9.7,5 -13.2,9.7 z"
     id="path694" /><path
     d="m 248.9,270 c 0.7,-1.4 1,-2.2 1.4,-2.9 2.1,-0.5 4.2,-0.9 6.3,-1.4 0.1,0.2 0.2,0.4 0.2,0.6 -1.2,0.6 -2.4,1.2 -4.1,2 1,0.2 1.6,0.2 2.2,0.4 0.7,0.3 1.4,0.7 2.6,1.3 0.6,-0.6 1.2,-1.2 1.9,-1.9 -0.7,-0.9 -1.1,-1.4 -1.5,-2 0.4,-0.1 1,-0.5 1.3,-0.3 1.5,0.7 2.1,1.9 1.7,3 -3.8,4.1 -7.7,0.2 -12,1.2 z"
     id="path696" /><path
     d="m 265.2,266.4 c 0.8,-1.1 1.2,-1.7 1.7,-2.3 0.8,0.3 1.6,0.6 2.4,0.7 0.7,0.1 1.5,0 2.3,0 0,1.1 0,1.9 0,3.1 -1.9,-0.4 -3.8,-0.9 -6.4,-1.5 z"
     id="path698" /><path
     d="m 231.1,199.4 c -0.5,0 -1.1,0 -1.6,0 0,-0.2 -0.1,-0.3 -0.1,-0.5 0.5,-0.1 1.1,-0.3 1.6,-0.4 0,0.4 0,0.7 0.1,0.9 z"
     id="path700" /><path
     d="m 273,299.4 c 0,-0.7 0,-1.3 0,-2 0.2,0 0.3,0 0.5,0 0,0.7 0,1.3 0,2 -0.2,0 -0.4,0 -0.5,0 z"
     id="path702" /></g>
	</g>
</g>
</svg>
