<?xml version="1.0" encoding="UTF-8" standalone="no"?>
<!-- Created with Inkscape (http://www.inkscape.org/) -->

<svg
   xmlns:dc="http://purl.org/dc/elements/1.1/"
   xmlns:cc="http://creativecommons.org/ns#"
   xmlns:rdf="http://www.w3.org/1999/02/22-rdf-syntax-ns#"
   xmlns:svg="http://www.w3.org/2000/svg"
   xmlns="http://www.w3.org/2000/svg"
   xmlns:sodipodi="http://sodipodi.sourceforge.net/DTD/sodipodi-0.dtd"
   xmlns:inkscape="http://www.inkscape.org/namespaces/inkscape"
   width="128.26833mm"
   height="134.61627mm"
   viewBox="0 0 128.26833 134.61627"
   version="1.1"
   id="svg8"
   sodipodi:docname="BH-simplified.svg"
   inkscape:version="0.92.4 (5da689c313, 2019-01-14)">
  <defs
     id="defs2" />
  <sodipodi:namedview
     id="base"
     pagecolor="#ffffff"
     bordercolor="#666666"
     borderopacity="1.0"
     inkscape:pageopacity="0.0"
     inkscape:pageshadow="2"
     inkscape:zoom="1.3365151"
     inkscape:cx="242.39682"
     inkscape:cy="254.39297"
     inkscape:document-units="mm"
     inkscape:current-layer="layer1"
     showgrid="false"
     inkscape:window-width="1600"
     inkscape:window-height="847"
     inkscape:window-x="-8"
     inkscape:window-y="-8"
     inkscape:window-maximized="1"
     fit-margin-top="0"
     fit-margin-left="0"
     fit-margin-right="0"
     fit-margin-bottom="0" />
  <metadata
     id="metadata5">
    <rdf:RDF>
      <cc:Work
         rdf:about="">
        <dc:format>image/svg+xml</dc:format>
        <dc:type
           rdf:resource="http://purl.org/dc/dcmitype/StillImage" />
        <dc:title></dc:title>
      </cc:Work>
    </rdf:RDF>
  </metadata>
  <g
     inkscape:label="Layer 1"
     inkscape:groupmode="layer"
     id="layer1"
     transform="translate(-51.905961,-61.558596)">
    <path
       style="fill:#070707;stroke-width:0.99999994"
       d="m 503.5918,232.66406 c -6.63517,0.11788 -14.84165,6.55841 -19.98633,16.71094 -4.98554,9.83848 -6.8489,18.55068 -7.08399,33.125 -0.26812,16.61947 -1.15394,23.60728 -3.48632,27.5 -3.14162,5.24334 -6.00459,16.42339 -9.47461,37 -2.12327,12.59051 -5.02103,25.37189 -7.82227,34.5 -5.68811,18.53537 -5.91421,19.91339 -4.38672,26.78125 1.40126,6.30032 1.02989,10.26143 -2.17968,23.21875 -1.15801,4.67501 -2.61344,11.18798 -3.23438,14.47266 -1.07021,5.66154 -1.56473,6.39548 -9.51172,14.11328 -4.95167,4.80884 -8.38476,8.95249 -8.38476,10.12304 0,2.90563 2.87924,5.03676 9.04296,6.69336 7.08428,1.90398 13.16646,1.95506 17.49024,0.14844 3.33596,-1.39389 3.46913,-1.65043 3.48047,-6.75 0.009,-3.8465 0.71659,-6.53553 2.58398,-9.80078 2.7504,-4.80934 7.40235,-23.42526 7.40235,-29.62305 0,-3.15877 0.74594,-4.46169 4.77148,-8.34179 2.62379,-2.529 6.87966,-5.58926 9.45703,-6.80078 2.57737,-1.21149 5.09253,-2.99787 5.58985,-3.96876 1.78945,-3.49334 2.00999,-9.25311 0.60937,-15.94726 -0.7844,-3.74922 -1.42773,-9.56235 -1.42773,-12.91797 0,-3.35565 -0.51681,-7.58462 -1.14844,-9.39648 -1.37564,-3.94624 -0.20819,-7.99682 4.41406,-15.33008 3.12711,-4.9612 4.00114,-10.12804 6.56445,-38.77539 0.69166,-7.73 1.88877,-10.35555 5.19922,-11.40625 1.01636,-0.32258 2.38064,-2.25284 3.03125,-4.28907 0.65061,-2.03622 3.36457,-7.52812 6.03125,-12.20312 5.93915,-10.4119 6.92201,-16.2664 4.5586,-27.14062 C 514.81165,260.31153 513.65048,252.5 513.11133,247 c -0.87232,-8.89931 -1.26554,-10.24766 -3.58008,-12.25 -1.69094,-1.46288 -3.72773,-2.12523 -5.93945,-2.08594 z M 395.33008,245.92383 C 391.6026,245.80208 389.2231,248.73801 384.84961,257 l -4.76367,9 -0.0234,12.55664 c -0.0143,8.34733 0.64903,16.20705 1.97852,23.44336 2.57457,14.01301 2.55415,14.73275 -0.98243,32.77734 -1.64099,8.37279 -3.39937,19.27265 -3.90625,24.22266 -0.50691,4.95001 -1.70255,11.17126 -2.6582,13.82422 -1.64107,4.55618 -1.64395,5.49863 -0.0586,17 0.92311,6.69702 1.5665,16.22581 1.42968,21.17578 -0.21086,7.63854 0.16243,10.15996 2.46485,16.66797 1.92778,5.44909 2.71094,9.62629 2.71094,14.43555 0,5.57212 0.38553,7.17639 2.17578,9.08203 h 0.002 c 1.19588,1.27294 3.2424,2.31445 4.54883,2.31445 3.17586,0 7.97273,-2.56407 9.24609,-4.94336 1.51967,-2.83952 1.2517,-9.59726 -0.54883,-13.83789 -2.3402,-5.51165 -1.97984,-9.16901 1.60157,-16.26367 2.41031,-4.77487 3.55745,-8.91363 4.54882,-16.41992 0.729,-5.51963 2.02335,-12.00351 2.87696,-14.41016 0.8536,-2.40665 1.55078,-5.97537 1.55078,-7.92969 0,-1.95426 0.53101,-5.02061 1.17969,-6.81445 0.82337,-2.27724 0.87327,-3.94615 0.16601,-5.53125 -0.66965,-1.49915 -0.68018,-3.15126 -0.0332,-4.86523 0.74407,-1.97137 0.46841,-4.14657 -1.14844,-9.04102 -1.17075,-3.54414 -2.57026,-9.59338 -3.10937,-13.44336 -0.53912,-3.85002 -1.5099,-8.51854 -2.15821,-10.375 -0.96922,-2.77493 -0.90613,-3.84229 0.36133,-6 1.46309,-2.4907 2.86644,-10.28921 4.24805,-23.625 0.34189,-3.3 1.52285,-9.825 2.625,-14.5 3.64384,-15.45601 3.99288,-19.02831 2.39648,-24.5 -1.9206,-6.58279 -6.47724,-11.93349 -11.93945,-14.01953 -1.6661,-0.63629 -3.05829,-1.01606 -4.30078,-1.05664 z m 184.51562,86.36914 c -0.75837,0.0219 -1.53262,0.13401 -2.30468,0.3418 -10.57157,2.84511 -22.55018,22.95384 -24.07227,40.41015 -0.38147,4.37511 -1.09199,8.73006 -1.58008,9.67774 -0.48809,0.94771 -1.33196,4.06631 -1.875,6.92968 -0.79616,4.19823 -1.83803,6.0215 -5.38281,9.41797 -3.95301,3.78766 -4.8352,5.55694 -8.74414,17.57031 L 531.54102,430 l -4.69336,2.24414 c -5.28987,2.52828 -7.74926,5.47729 -13.54883,16.25586 -4.09901,7.61802 -6.25491,14.76059 -8.35742,27.67773 -1.31029,8.04998 -0.8685,10.32227 2.00976,10.32227 3.11494,0 3.50542,1.92912 0.94531,4.66992 -3.44016,3.683 -7.05567,5.27508 -15.67382,6.90625 -7.48687,1.41706 -11.48537,3.37345 -13.53516,6.62305 -1.39007,2.20365 0.97508,12.42039 3.44727,14.89258 v 0.002 c 2.41145,2.40986 5.41016,2.40607 12.65234,-0.0215 3.16471,-1.0608 8.1092,-2.22745 10.98633,-2.5918 2.87713,-0.36442 6.31731,-1.51653 7.64453,-2.56055 1.32722,-1.04398 6.13392,-7.86488 10.68164,-15.1582 4.54772,-7.29332 10.90247,-16.14763 14.12305,-19.67578 7.65418,-8.38507 11.51572,-16.37264 12.85156,-26.58594 0.74804,-5.71892 2.03996,-9.93077 4.5332,-14.77344 4.98429,-9.68111 6.76713,-17.43657 5.92774,-25.79492 -0.56002,-5.57613 -0.30258,-7.93375 1.41015,-12.88281 1.15291,-3.33139 2.10182,-6.61743 2.10938,-7.30274 0.007,-0.6853 2.42869,-3.36459 5.38281,-5.95507 6.71044,-5.88454 14.52864,-16.7188 16.80664,-23.29102 2.24564,-6.47868 2.44232,-22.35302 0.32813,-26.44141 -1.43238,-2.76989 -4.44027,-4.3607 -7.72657,-4.26562 z m -368.76367,71.29297 c -2.92719,-0.0561 -5.70176,0.53279 -7.74219,1.81445 -7.60698,4.77812 -8.72427,15.17736 -5.36132,49.84375 2.57767,26.57178 3.65482,31.50045 9.66601,44.21875 5.21446,11.03259 6.5124,12.686 11.89649,15.14844 4.36218,1.99506 6.95086,1.68677 9.93945,-1.1836 1.61507,-1.55115 2.03315,-3.74847 2.5,-13.14453 0.30837,-6.20557 0.92943,-11.85477 1.38086,-12.55273 0.45142,-0.69793 2.99734,-2.37236 5.6582,-3.7207 4.49462,-2.27759 5.00484,-2.93212 7.17969,-9.23047 1.81893,-5.26764 2.33764,-8.89777 2.33008,-16.2793 l -0.006,-9.5 -6.36524,-12.5 c -7.95413,-15.62287 -15.04691,-25.98783 -20.25586,-29.59766 -3.03913,-2.10612 -7.05677,-3.24433 -10.82031,-3.3164 z m 460.16992,35.57617 c -1.27292,0.0611 -2.7284,0.2499 -4.41601,0.55664 -13.25636,2.40941 -23.57741,12.16744 -29.60156,27.98242 -2.41577,6.34194 -3.20477,7.43697 -6.00782,8.35547 -1.77456,0.58148 -3.9013,2.02294 -4.72656,3.20117 -0.8253,1.17827 -3.70157,3.6261 -6.39062,5.44141 -9.22005,6.22416 -35.52808,32.27905 -41.47071,41.07031 -3.06009,4.52704 -7.13238,9.23761 -9.04883,10.46875 -4.19187,2.69291 -6.91319,7.49651 -5.98437,10.5625 0.84079,2.77561 4.32317,6.66557 6.93555,7.7461 2.79178,1.15475 3.14045,1.13209 6.95312,-0.46094 1.86304,-0.77843 3.93264,-2.46595 4.59961,-3.75 2.23363,-4.3002 8.07804,-10.85138 11.05469,-12.39063 2.17485,-1.12463 5.68232,-1.47294 13.38281,-1.33008 11.36825,0.21109 12.49095,-0.19954 15.20117,-5.54296 0.85724,-1.69006 3.01179,-4.87228 4.78711,-7.07227 4.54507,-5.63229 6.0178,-8.90853 7.93164,-17.63281 1.02395,-4.66768 2.44235,-8.32648 3.64844,-9.41797 1.08476,-0.98173 3.19554,-3.71955 4.69141,-6.08399 2.29167,-3.62237 4.68835,-5.35098 15.23437,-10.98437 22.05267,-11.77992 22.08626,-11.81788 22.77734,-25.88086 0.39289,-7.99506 0.21015,-9.29335 -1.63671,-11.62891 -1.9143,-2.42073 -4.09529,-3.39221 -7.91407,-3.20898 z m -290.07031,25.70508 -14.36133,0.17187 -2.39258,2.98047 c -1.31501,1.63869 -3.12713,5.00349 -4.02734,7.47852 -4.67565,12.85546 -5.89986,14.67878 -12.76367,19.01367 -7.78042,4.91376 -11.01279,9.0049 -11.00977,13.93359 10e-4,1.95432 1.4232,8.24494 3.16016,13.97852 2.94599,9.72438 3.55669,10.8329 9.08398,16.5 3.25898,3.34137 7.49446,8.5492 9.41211,11.57422 1.9177,3.02498 4.64154,6.5622 6.05274,7.85937 2.37596,2.18404 3.08631,2.30569 9.61133,1.65039 l 7.04687,-0.70703 1.11133,2.84961 c 3.19313,8.18283 2.66292,7.84766 12.46875,7.84766 H 403.5 l 0.52344,2.96289 c 0.33316,1.88232 1.72723,3.77179 3.82226,5.18359 6.15285,4.14818 20.05949,4.16917 22.59571,0.0352 0.92556,-1.5086 0.42027,-2.38005 -3.17969,-5.48633 -4.84887,-4.18394 -8.20155,-8.85873 -8.21289,-11.44336 -0.005,-1.44794 0.89871,-1.74559 5.24219,-1.73047 10.52968,0.0403 17.44094,1.63515 22.34375,5.15235 4.29845,3.08175 5.13975,3.31031 11.39453,3.07031 4.49446,-0.17235 7.09756,0.16215 7.7832,1 1.91815,2.34391 6.11395,13.79985 6.79102,18.54297 0.59845,4.19247 1.4632,5.47378 7.80468,11.54687 5.08426,4.86909 9.43057,7.91644 15.13282,10.61328 8.88744,4.20325 11.56549,6.37812 16.26953,13.2168 1.76398,2.56445 3.7746,4.89219 4.46875,5.17187 v -0.002 c 2.06713,0.83274 2.3195,0.78304 11.31054,-2.23828 9.18327,-3.08595 13.84887,-6.50926 14.9336,-10.95508 0.35433,-1.45221 2.46539,-6.61159 4.68945,-11.46484 3.57729,-7.80635 4.14535,-10.09891 4.93164,-19.88086 0.79733,-9.9188 1.14633,-11.29714 3.39258,-13.37891 2.99339,-2.77417 2.95011,-2.21109 0.60351,-7.68554 -2.76873,-6.4591 -7.71419,-11.73047 -11.00585,-11.73047 -4.37575,0 -12.78068,4.76008 -15.13672,8.57226 -2.23423,3.61508 -3.07001,3.95613 -12.09571,4.9336 -5.36802,0.58136 -5.7396,0.47457 -7.66992,-2.23633 -2.34538,-3.29375 -6.18775,-14.14219 -6.19531,-17.48828 -0.006,-2.70184 -3.01551,-6.56022 -8.38281,-10.74805 -3.60556,-2.81325 -4.481,-3.0332 -12.0625,-3.0332 -7.91309,0 -8.24367,-0.0944 -10.37891,-2.98243 -1.21319,-1.64091 -3.70662,-6.27746 -5.54101,-10.30273 -3.26298,-7.16016 -4.71816,-8.775 -13.17969,-14.63281 -2.91209,-2.01604 -4.39884,-3.96615 -5.28907,-6.9375 -1.77834,-5.9356 -5.38474,-7.58681 -14.82226,-6.78906 l -7.25977,0.61328 -5.69531,-4.98438 c -3.13243,-2.74114 -6.63714,-4.99049 -7.78906,-4.99804 -4.67271,-0.0305 -6.85674,-1.48238 -10.66602,-7.0918 -2.18347,-3.21532 -4.74825,-6.26269 -5.69922,-6.77149 -0.95092,-0.50883 -8.19116,-0.84839 -16.08984,-0.7539 z M 243.10352,492 c -0.88556,-0.0538 -1.77541,0.64481 -2.86524,1.82227 -2.64461,2.85728 -4.95883,15.5138 -5.82226,31.83789 -0.66214,12.51889 -0.63964,12.71231 2.03906,17.2832 2.53054,4.318 2.69268,5.29578 2.45117,14.83984 L 238.64844,568 l 4.19726,6.9375 c 4.98463,8.23835 5.1817,10.74204 2.1543,27.31641 -1.85711,10.16719 -1.90487,11.44793 -0.52148,14.12304 0.83678,1.61817 2.0939,3.17193 2.79296,3.45313 9.50937,3.82605 14.12389,-7.52151 15.1836,-37.33008 0.73636,-20.71378 -0.48577,-40.17516 -2.79688,-44.5 -0.88172,-1.65003 -1.60639,-5.28416 -1.60937,-8.07617 -0.004,-3.64279 -1.40812,-8.79057 -4.97071,-18.23047 -5.47466,-14.5063 -7.71153,-19.55581 -9.9746,-19.69336 z m 84.69336,47.92969 c -1.45315,0.0998 -3.00967,0.9828 -5.17188,2.68359 -2.45129,1.9282 -2.58398,2.51184 -2.58398,11.48633 v 9.45508 l -4.75,4.45508 c -5.62836,5.27969 -9.57465,5.9032 -13.16993,2.07617 -1.24803,-1.32847 -5.03846,-7.06254 -8.42382,-12.74219 -4.6351,-7.77638 -6.85783,-10.57054 -9.00196,-11.3125 -3.78992,-1.31146 -5.65429,1.18265 -5.65429,7.57031 0,4.86267 -3.39388,18.95975 -7.60352,31.57422 -1.91327,5.73324 -2.39648,9.26885 -2.39648,17.58203 0,9.60446 -0.30801,11.26932 -4,21.61914 -2.25706,6.32735 -4,13.04874 -4,15.42383 0,3.88358 0.57528,4.7975 7.42968,11.83203 5.65981,5.80846 8.5431,9.85642 12.10742,16.9961 2.57322,5.15429 5.81596,10.88168 7.20508,12.72851 3.62075,4.8138 12.73363,10.36116 23.43555,14.26367 7.99264,2.91455 10.23449,4.28393 16.29492,9.95118 3.86514,3.61436 8.15235,7.36061 9.52735,8.32617 h 0.002 c 3.17475,2.22939 11.22796,1.6051 19.64062,-1.52344 4.57074,-1.69977 7.52665,-3.84999 13.44532,-9.77734 6.33671,-6.3461 7.78815,-8.42143 8.80859,-12.59766 0.67192,-2.74998 2.60024,-8.01214 4.28516,-11.69336 3.03843,-6.63855 3.11416,-7.54181 1.26367,-15.05664 -0.89594,-3.63821 0.78208,-3.58506 6.49219,0.20312 7.42896,4.92847 8.90836,9.48967 3.98632,12.29102 -4.67176,2.6589 -3.68443,5.61717 3.00586,9.00586 5.84247,2.95926 12.13055,3.58981 13.94922,1.39844 0.82923,-0.99942 0.82883,-2.19311 -0.002,-4.57617 -2.29886,-6.59456 2.5392,-5.98106 16.12305,2.04492 6.03004,3.56284 8.78624,4.30658 10.54882,2.84375 2.40594,-1.99673 1.6823,-4.2327 -3.16796,-9.77735 -3.33669,-3.8143 -6.88032,-6.41506 -12.75,-9.35742 -11.1975,-5.61313 -12.66057,-6.78008 -20.87696,-16.65625 -3.96688,-4.76817 -9.61071,-10.8755 -12.54101,-13.57226 -6.26899,-5.76934 -8.67887,-10.10114 -10.75391,-19.32618 -3.34633,-14.8769 -19.93814,-52.7826 -26.54102,-60.63476 -1.78654,-2.12459 -6.21071,-5.82302 -9.83203,-8.21875 -3.62128,-2.39573 -8.02249,-5.53169 -9.77929,-6.9707 -1.74856,-1.43229 -3.09764,-2.11735 -4.55078,-2.01758 z M 473.31055,668.5 c -6.59588,0 -9.26953,2.01791 -9.26953,6.99805 0,2.13637 0.45,4.16217 1,4.50195 2.01327,1.24426 0.92487,5.1772 -2.25,8.13086 -1.78749,1.66299 -5.66563,4.53427 -8.61914,6.37891 -5.49635,3.43275 -11.85601,10.56399 -15.08985,16.92187 -2.49116,4.8977 -6.04101,16.67922 -6.04101,20.05078 0,3.49085 1.47863,4.70355 9.25781,7.59375 3.43343,1.27567 7.61028,2.34086 9.28125,2.3711 4.30643,0.0738 11.33308,-3.80089 14.80469,-8.16602 2.56376,-3.22356 3.0589,-4.89147 3.71484,-12.5 0.75942,-8.80898 4.58699,-21.76694 10.27344,-34.78125 3.35981,-7.68918 3.4192,-11.84056 0.21484,-15.04492 -1.92748,-1.92749 -3.49003,-2.45508 -7.27734,-2.45508 z"
       transform="scale(0.26458333)"
       id="path21"
       inkscape:connector-curvature="0" />
  </g>
</svg>
