<?xml version="1.0" encoding="utf-8"?>
<!-- Generator: Adobe Illustrator 28.2.0, SVG Export Plug-In . SVG Version: 6.00 Build 0)  -->
<svg version="1.1" id="Layer_1" xmlns="http://www.w3.org/2000/svg" xmlns:xlink="http://www.w3.org/1999/xlink" x="0px" y="0px"
	 viewBox="0 0 500 500" style="enable-background:new 0 0 500 500;" xml:space="preserve">
<style type="text/css">
	.st0{display:none;fill:#FFFFFF;}
</style>
<g>
	<path class="st0" d="M500,118.6c0,94,0,187.9,0,282c-166.6,0-333.2,0-500,0c0-94,0-188,0-282c1.9,5.8,4,11.5,5.8,17.4
		c4.3,13.8,7.9,27.7,12.8,41.3c7.1,20,17.6,37.9,34.7,51.2c10.4,8,21.5,14.5,35.1,15.1c1.2,0.1,2.3,0.7,3.7,1.1
		c-3,4.8-7.5,7.2-11.7,9.7c-7.3,4.4-13.6,9.8-18.6,16.7c-4.4,6.1-4.3,7.1,0,13.2c14.5,20,34.4,31.6,57.8,38.2
		c15.8,4.5,31.3,4,45.2-4.9c14-8.9,27.2-19.2,40.6-29c1.3-1,2.4-3.2,2.3-4.8c-0.6-16.1,0.5-32,3.9-47.7c0.3-1.3-0.1-2.9-0.7-4.1
		c-2.9-5.4-4.3-11-4.3-17.1c0-9,1.5-17.7,5.7-25.8c1.9-3.8,1.3-4.9-2.6-6.3c-3.1-1.1-6.1-2.4-9-4C169,162,137.4,145,106.9,126.1
		c-12.4-7.7-25.5-14-39.9-17.1c-19.1-4.1-38.4-3.7-57.8-2.7c-4.7,0.2-7.9,2-9.2,6.6c0-10.4,0-20.8,0-31.2c69.9,0,139.9,0,209.8,0
		c0.4,1.3,0.7,2.7,1.3,3.9c3.2,7.1,3.1,14.4,0.8,21.7c-1.6,5.3-3,10.6-4.3,16c-2.1,8.7-1,16.9,4.7,24.1c3.7,4.6,7.8,8.9,11.7,13.4
		c0.5,0.6,1.1,1.2,2.1,2.3c-6.1,2.5-8.4,6.4-4.2,12.6c1.8-0.9,3.8-1.9,5.9-2.8c4-1.6,7.9-4,12.1-4.5c11.8-1.6,23.6-1.6,34.1,5.5
		c1.3,0.9,3,1.2,3.9,1.6c4.8-6.4,1.1-9.8-4.7-12.9c1.5-1.2,2.5-1.7,3.2-2.5c4.2-4.9,8.6-9.7,12.4-14.8c4-5.3,5.2-11.6,4-18.1
		c-1.2-6-2.8-11.9-4.5-17.9c-2.3-8.3-3.3-16.4,0.8-24.5c0.5-0.9,0.6-2,0.9-3c69.9,0,139.9,0,209.8,0c0,10.4,0,20.8,0,31.2
		c-1.4-4.5-4.5-6.5-9.2-6.6c-8.4-0.1-16.8-0.5-25.2-0.7c-24.5-0.5-47.2,5.5-68.4,18c-21.7,12.9-43.6,25.6-65.6,37.9
		c-14,7.8-28.5,14.6-42.8,21.7c-1.8,0.9-2.4,2-1.9,3.8c0.3,1.1,0.8,2.2,1.2,3.3c6.1,14.1,7.8,28.3,0.3,42.6
		c-0.5,0.9-0.4,2.2-0.2,3.3c3,14.7,5.1,29.5,3.8,44.5c-0.4,4.9,1.4,7.8,5.1,10.4c4.9,3.4,9.6,7.1,14.3,10.6
		c5.8,4.3,11.5,8.8,17.5,12.7c14.3,9.3,29.7,13.7,46.7,9.1c8.7-2.4,17.3-5.1,25.5-8.8c15.7-7.1,28.5-17.9,38.3-32.2
		c2.3-3.3,2.5-6.2,0.1-9.3c-2.2-2.8-4.2-6-6.9-8.3c-5.6-4.7-11.7-8.7-17.5-13.2c-2.6-2-5-4.2-7.5-6.3c0.2-0.3,0.4-0.7,0.5-1
		c1.4-0.3,2.8-0.5,4.2-0.9c4.9-1.1,10.2-1.6,14.8-3.6c17.3-7.4,30.8-19.4,40.8-35.2c9.1-14.4,14.9-30.2,19.7-46.4
		C491.8,145,495.9,131.8,500,118.6z M250.1,378.2c2.8,4.4,4,8.9,3.7,13.8c-0.2,2.7,0,5.5,2.5,8.1c0.6-1.4,1.1-2.4,1.4-3.4
		c3.4-9.9,6.2-20.1,10.5-29.6c11.1-24.6,18-50.2,19.7-77.2c0.9-14.3,0.4-28.4-2.8-42.4c-1.1-4.7-3.4-5.7-7.6-3.5
		c-2.2,1.1-4.2,2.5-6.3,3.8c-9.3,5.6-19.5,7.9-30,4.9c-6.3-1.8-12.1-5.4-18-8.4c-4.9-2.5-7-1.7-8.2,3.6c-3.1,13-3.2,26.2-2.7,39.5
		c1,23.7,5.7,46.3,14.9,68.3c5.7,13.6,10.2,27.6,15.3,41.4c0.3,0.8,0.8,1.6,1.1,2.5c0.4,0,0.8,0.1,1.2,0.1c0.5-2,1.4-4,1.4-6
		C246.2,388.2,246.6,383,250.1,378.2z M250.2,174.5c-1.3,0-2.6-0.1-3.8,0c-14.8,1.1-26.9,6.8-32.4,21.5c-2,5.2-2.8,11.1-3.1,16.8
		c-0.5,10.2,2.4,19.1,11.7,24.8c7.7,4.7,16.1,7.6,24.9,9.3c1.2,0.2,2.5,0.1,3.8-0.1c8.3-1.1,16.1-3.8,23.5-7.6
		c8.4-4.4,13.1-11.3,13.9-20.6c0.3-3.5,0.4-7,0-10.5c-1.1-12.4-5.9-22.7-17.4-28.9C264.8,175.6,257.6,174.5,250.2,174.5z"/>
	<path d="M500,118.6c-4.1,13.2-8.2,26.4-12.2,39.7c-4.8,16.2-10.6,32-19.7,46.4c-10.1,15.9-23.6,27.8-40.8,35.2
		c-4.6,2-9.8,2.4-14.8,3.6c-1.4,0.3-2.8,0.6-4.2,0.9c-0.2,0.3-0.4,0.7-0.5,1c2.5,2.1,4.9,4.4,7.5,6.3c5.8,4.4,11.9,8.5,17.5,13.2
		c2.7,2.3,4.7,5.5,6.9,8.3c2.5,3.1,2.2,6-0.1,9.3c-9.8,14.2-22.7,25-38.3,32.2c-8.2,3.7-16.8,6.5-25.5,8.8
		c-16.9,4.6-32.4,0.1-46.7-9.1c-6-3.9-11.7-8.5-17.5-12.7c-4.8-3.5-9.5-7.2-14.3-10.6c-3.7-2.6-5.5-5.5-5.1-10.4
		c1.2-15-0.8-29.8-3.8-44.5c-0.2-1-0.3-2.4,0.2-3.3c7.5-14.3,5.8-28.4-0.3-42.6c-0.5-1.1-0.9-2.1-1.2-3.3c-0.5-1.8,0.1-2.9,1.9-3.8
		c14.3-7.2,28.8-14,42.8-21.7c22.1-12.3,43.9-25,65.6-37.9c21.1-12.5,43.9-18.5,68.4-18c8.4,0.2,16.8,0.5,25.2,0.7
		c4.7,0.1,7.8,2.1,9.2,6.6C500,114.8,500,116.7,500,118.6z"/>
	<path d="M0,112.9c1.3-4.6,4.5-6.4,9.2-6.6c19.3-1,38.6-1.5,57.8,2.7c14.4,3.1,27.5,9.5,39.9,17.1c30.5,18.9,62.1,36,93.8,52.7
		c2.9,1.5,5.9,2.8,9,4c3.9,1.4,4.6,2.5,2.6,6.3c-4.1,8.1-5.7,16.8-5.7,25.8c0,6.1,1.4,11.7,4.3,17.1c0.6,1.2,1,2.8,0.7,4.1
		c-3.4,15.7-4.5,31.6-3.9,47.7c0.1,1.6-1,3.9-2.3,4.8c-13.4,9.8-26.6,20.1-40.6,29c-13.9,8.8-29.4,9.4-45.2,4.9
		c-23.4-6.6-43.3-18.2-57.8-38.2c-4.4-6-4.4-7.1,0-13.2c5-6.9,11.3-12.3,18.6-16.7c4.2-2.6,8.7-4.9,11.7-9.7
		c-1.4-0.4-2.5-1.1-3.7-1.1c-13.6-0.6-24.7-7.1-35.1-15.1c-17.2-13.2-27.6-31.2-34.7-51.2c-4.8-13.6-8.5-27.5-12.8-41.3
		C4,130.1,1.9,124.4,0,118.6C0,116.7,0,114.8,0,112.9z"/>
	<path class="st0" d="M210.5,81.7c26.4,0,52.7,0,79.1,0c-4.1,4.2-6.7,9.2-7.2,14.9c-0.7,8-0.8,16.1-0.9,24.1
		c-0.1,10.6-0.2,21.2-3.9,31.4c-1.2,3.3-2.7,6.3-6,8.7c-1.8-2.2-3.5-4.2-5.1-6.3c-3.9-5.2-9-6.9-15.4-5.3c-0.7,0.2-1.5,0.2-2.1,0
		c-6.3-1.7-11.5,0-15.4,5.2c-1.6,2.2-3.4,4.2-5.7,7.1c-2-3.4-4-5.9-5.1-8.8c-3.1-7.7-3.9-15.8-4-24c-0.1-9.2,0-18.4-0.4-27.7
		C217.9,93.7,215.8,87,210.5,81.7z"/>
	<path d="M210.5,81.7c5.3,5.3,7.5,12.1,7.8,19.3c0.4,9.2,0.3,18.4,0.4,27.7c0.1,8.2,0.9,16.3,4,24c1.2,2.9,3.1,5.4,5.1,8.8
		c2.3-2.9,4.1-5,5.7-7.1c3.9-5.2,9.1-7,15.4-5.2c0.7,0.2,1.5,0.2,2.1,0c6.4-1.7,11.4,0.1,15.4,5.3c1.6,2.1,3.3,4.1,5.1,6.3
		c3.2-2.3,4.8-5.4,6-8.7c3.6-10.2,3.8-20.8,3.9-31.4c0.1-8,0.3-16.1,0.9-24.1c0.5-5.7,3.1-10.7,7.2-14.9c0.2,0,0.4,0,0.6,0
		c-0.3,1-0.4,2.1-0.9,3c-4.1,8-3.1,16.2-0.8,24.5c1.6,5.9,3.3,11.8,4.5,17.9c1.2,6.5,0,12.8-4,18.1c-3.9,5.2-8.2,9.9-12.4,14.8
		c-0.7,0.8-1.7,1.3-3.2,2.5c5.7,3,9.5,6.4,4.7,12.9c-0.9-0.4-2.6-0.7-3.9-1.6c-10.5-7.1-22.3-7.1-34.1-5.5
		c-4.2,0.6-8.1,2.9-12.1,4.5c-2.1,0.9-4.1,1.9-5.9,2.8c-4.2-6.2-1.9-10.1,4.2-12.6c-1-1.1-1.6-1.7-2.1-2.3c-3.9-4.4-8-8.7-11.7-13.4
		c-5.7-7.1-6.9-15.3-4.7-24.1c1.3-5.3,2.7-10.7,4.3-16c2.2-7.4,2.3-14.6-0.8-21.7c-0.6-1.2-0.9-2.6-1.3-3.9
		C210,81.7,210.2,81.7,210.5,81.7z"/>
	<path d="M250.1,378.2c-3.4,4.8-3.9,10-3.9,15.4c0,2-0.9,4-1.4,6c-0.4,0-0.8-0.1-1.2-0.1c-0.4-0.8-0.8-1.6-1.1-2.5
		c-5.1-13.8-9.7-27.8-15.3-41.4c-9.1-21.9-13.9-44.6-14.9-68.3c-0.6-13.3-0.4-26.5,2.7-39.5c1.3-5.3,3.4-6.1,8.2-3.6
		c5.9,3,11.7,6.6,18,8.4c10.5,3,20.6,0.7,30-4.9c2.1-1.3,4.1-2.6,6.3-3.8c4.2-2.2,6.6-1.2,7.6,3.5c3.2,14,3.6,28.1,2.8,42.4
		c-1.7,27-8.6,52.5-19.7,77.2c-4.3,9.5-7,19.7-10.5,29.6c-0.4,1-0.8,2-1.4,3.4c-2.5-2.6-2.7-5.3-2.5-8.1
		C254,387.1,252.9,382.6,250.1,378.2z"/>
	<path d="M250.2,174.5c7.4,0,14.6,1.1,21.2,4.7c11.5,6.2,16.2,16.5,17.4,28.9c0.3,3.5,0.3,7,0,10.5c-0.8,9.4-5.5,16.3-13.9,20.6
		c-7.4,3.8-15.2,6.5-23.5,7.6c-1.2,0.2-2.6,0.3-3.8,0.1c-8.8-1.7-17.2-4.6-24.9-9.3c-9.3-5.7-12.2-14.7-11.7-24.8
		c0.3-5.6,1.1-11.5,3.1-16.8c5.5-14.7,17.5-20.4,32.4-21.5C247.7,174.4,248.9,174.5,250.2,174.5z M248.1,185.9
		c-0.2,0.4-0.5,0.9-0.5,1.3c-0.9,5.7-3.2,10.6-6.8,15.2c-3.4,4.3-5.4,9.3-5.9,14.9c-0.8,8.1,4.3,13.9,12.3,14.1
		c9.2,0.3,15.2-4.9,14.3-13.3c-0.5-4.5-2-9.2-4.3-13.1C253.6,198.9,249,193.3,248.1,185.9z"/>
	<path class="st0" d="M248.1,185.9c0.9,7.5,5.4,13,9.1,19.1c2.3,3.9,3.8,8.6,4.3,13.1c0.9,8.4-5.1,13.6-14.3,13.3
		c-8.1-0.2-13.1-6-12.3-14.1c0.5-5.5,2.5-10.6,5.9-14.9c3.6-4.5,5.9-9.5,6.8-15.2C247.6,186.7,247.9,186.3,248.1,185.9z"/>
</g>
</svg>
