<?xml version="1.0" encoding="utf-8"?>
<!-- Generator: Adobe Illustrator 24.3.0, SVG Export Plug-In . SVG Version: 6.00 Build 0)  -->
<svg version="1.1" id="Layer_1" xmlns="http://www.w3.org/2000/svg" xmlns:xlink="http://www.w3.org/1999/xlink" x="0px" y="0px"
	 viewBox="0 0 612 792" style="enable-background:new 0 0 612 792;" xml:space="preserve">
<style type="text/css">
	.st0{fill:#FFFFFF;}
</style>
<g>
	<path d="M306,146c0.33,0,0.67,0,1,0c4.37,13.76,9.25,27.38,12.92,41.32c2.42,9.18,6.3,14.04,16.67,14.71
		c10.11,0.66,20.04,4.16,30.05,6.41c5.72-6.54,11.72-8.51,18.51-6.04c6.66,2.42,9.68,7.62,10.14,16.61c0.07,1.37,1.53,3.05,2.8,3.92
		c9.04,6.23,18.28,12.16,27.25,18.47c2.24,1.58,3.77,1.87,6.19,0.61c10.17-5.31,20.45-10.43,30.7-15.59
		c6.43-3.24,12.89-6.42,20.51-10.21c-1.31,2.76-1.97,4.23-2.69,5.68c-7.65,15.32-15.35,30.61-22.91,45.98
		c-0.69,1.41-1.24,3.79-0.54,4.86c6.08,9.29,12.45,18.39,18.83,27.68c8.74-1.04,14.81,1.72,18.14,8.45
		c3.28,6.62,1.74,12.52-4.59,19.3c-0.89,0.95-0.96,3.18-0.65,4.67c2.47,11.87,5.3,23.67,7.58,35.58c0.54,2.8,1.65,3.87,4.09,4.65
		c9.03,2.89,18.01,5.96,27.01,8.95c10.28,3.41,20.57,6.81,31.92,10.57c-2.53,0.94-3.89,1.49-5.28,1.96
		c-16.73,5.57-33.44,11.23-50.23,16.62c-5.03,1.61-7.45,4.42-8.41,9.74c-1.77,9.8-4.52,19.42-6.56,29.18
		c-0.34,1.65,0.29,4.05,1.37,5.35c4.37,5.26,5.62,11.02,2.92,17.2c-2.64,6.03-7.76,9.22-14.28,9.12c-2.93-0.05-3.96,1.13-5.28,3.23
		c-4.78,7.6-9.59,15.19-14.77,22.51c-1.83,2.59-1.81,4.38-0.43,7.06c8.95,17.45,17.73,35,26.54,52.53c0.6,1.19,1.02,2.46,1.92,4.66
		c-19.81-9.97-38.56-19.35-57.22-28.89c-2.44-1.25-3.94-1.04-6.18,0.54c-7.74,5.47-15.66,10.69-23.67,15.75
		c-2.54,1.61-3.99,3.03-4.28,6.41c-0.95,11.12-13.41,17.87-22.55,11.75c-4.75-3.18-8.5-3.12-13.14-1.25c-2,0.8-4.19,1.09-6.22,1.82
		c-0.97,0.35-2.09,1.01-2.57,1.86c-3.46,6.04-6.72,12.2-10.16,18.25c-9.12,16.03-18.3,32.03-27.45,48.04c-3.67,0-7.33,0-11,0
		c-10.04-17.62-20.53-35.01-29.95-52.96c-4.95-9.43-10.69-16.45-21.95-17.21c-1.3-0.09-2.66-0.51-3.81-1.12
		c-2.54-1.35-4.13-0.44-6.01,1.48c-4.95,5.04-11.37,6.16-17.4,3.47c-5.77-2.58-9.06-8.52-9.14-15.37c-0.02-1.67-1.3-3.89-2.69-4.87
		c-7.49-5.25-15.28-10.07-22.79-15.29c-2.17-1.51-3.63-1.9-6.16-0.59c-14.47,7.51-29.08,14.78-43.65,22.11
		c-3.83,1.92-7.7,3.75-12.4,6.04c9.65-19.26,18.7-37.41,27.88-55.49c1.27-2.51,1.29-4.18-0.47-6.66
		c-5.85-8.28-11.19-16.92-16.92-25.29c-0.8-1.17-2.66-2.25-4.05-2.28c-6.99-0.15-12.24-2.97-15.28-9.33
		c-2.78-5.82-1.32-12.38,3.23-17.61c1.03-1.19,1.73-3.39,1.43-4.89c-2.28-11.23-5.03-22.37-7.22-33.62
		c-0.61-3.14-2.01-4.46-4.83-5.32c-7.8-2.39-15.55-4.92-23.28-7.51c-10.51-3.52-20.99-7.14-32.41-11.03
		c2.44-0.86,3.84-1.37,5.25-1.84c16.9-5.61,33.83-11.16,50.68-16.91c1.53-0.52,3.49-2.14,3.79-3.56c2.85-13.47,5.38-27,8.1-41.01
		c-7.19-6.33-9.4-12.17-6.77-19.15c2.81-7.47,8.25-10.06,19.81-9.79c7.35-10.91,14.49-21.51,21.75-32.29
		c-9.21-18.29-18.57-36.9-28.53-56.67c2.4,1.18,3.55,1.73,4.68,2.3c16.5,8.31,32.97,16.69,49.57,24.81
		c1.65,0.81,4.53,0.76,6.07-0.17c7.81-4.75,15.43-9.84,22.96-15.03c1.21-0.83,2.4-2.8,2.33-4.19c-0.35-7.34,2.69-12.6,9.16-15.77
		c6.15-3,12.09-1.43,18.18,4.04c0.97,0.87,2.91,1.34,4.21,1.08c13.51-2.72,27-5.58,40.45-8.59c1.27-0.28,2.89-1.6,3.3-2.79
		C294.85,180.12,300.4,163.05,306,146z M378.53,271.99c-24.26-23.44-48.13-46.51-72.28-69.85c-23.02,23.4-45.75,46.5-67.99,69.09
		c6.39,3.7,13.78,7.44,20.57,12.05c7.14,4.86,10.71,11.81,10.48,20.87c-0.37,14.15-0.1,28.32-0.1,42.49c0,4.95,0,9.91,0,15.37
		c-2.31,0-4.1,0-5.89,0c-16,0-32-0.34-47.99,0.11c-11.85,0.33-20.64-4.3-26.85-14.06c-2.75-4.33-5.02-8.97-7.45-13.51
		c-0.97-1.8-1.77-3.69-2.8-5.86c-24.1,23.55-47.61,46.54-71.22,69.61c23.92,22.98,47.38,45.53,70.89,68.12
		c3.27-6.11,5.95-11.83,9.25-17.16c6.37-10.29,15.04-16.29,27.96-15.74c15.63,0.67,31.31,0.34,46.97,0.44c2.12,0.01,4.23,0,6.83,0
		c0,1.99,0,3.44,0,4.9c0.09,36.32,0.19,72.64,0.28,108.96c0.03,10-1.87,20.5,0.59,29.85c2.46,9.32,9.27,17.5,14.18,26.18
		c0.41,0.72,0.79,1.46,1.21,2.18c7.29,12.66,14.58,25.31,22.07,38.3c0.77-1,1.33-1.58,1.73-2.25
		c11.76-20.29,23.56-40.56,35.17-60.94c1.15-2.01,1.54-4.71,1.54-7.09c0.09-44.49,0.06-88.98,0.06-133.47c0-1.94,0-3.88,0-6.32
		c2.45,0,4.24,0,6.03,0c16.66,0,33.33,0.08,49.99-0.03c9.42-0.06,16.93,3.73,22.11,11.34c4.52,6.65,8.25,13.83,12.54,21.13
		c22.7-22.11,45.75-44.57,68.42-66.65c-23.52-23.45-46.58-46.45-69.08-68.89c-3.6,6.22-7.29,13.27-11.6,19.91
		c-5.11,7.86-12.76,11.3-22.12,11.26c-17-0.07-33.99-0.01-50.99-0.03c-1.61,0-3.22-0.17-5.29-0.28c0-2.13,0-3.92,0-5.71
		c0-17.66,0.15-35.33-0.08-52.99c-0.08-6.51,2.47-11.53,6.71-16.07C359.37,279.78,368.4,275.73,378.53,271.99z"/>
	<path class="st0" d="M313,646c9.16-16.01,18.33-32.01,27.45-48.04c3.44-6.05,6.69-12.21,10.16-18.25c0.49-0.85,1.6-1.51,2.57-1.86
		c2.03-0.74,4.23-1.02,6.22-1.82c4.64-1.87,8.39-1.93,13.14,1.25c9.13,6.12,21.6-0.63,22.55-11.75c0.29-3.38,1.74-4.8,4.28-6.41
		c8.01-5.07,15.93-10.28,23.67-15.75c2.24-1.58,3.74-1.79,6.18-0.54c18.66,9.54,37.41,18.91,57.22,28.89
		c-0.9-2.2-1.33-3.48-1.92-4.66c-8.81-17.53-17.58-35.08-26.54-52.53c-1.38-2.69-1.41-4.47,0.43-7.06
		c5.18-7.32,9.99-14.92,14.77-22.51c1.32-2.1,2.35-3.28,5.28-3.23c6.51,0.1,11.64-3.08,14.28-9.12c2.7-6.18,1.45-11.94-2.92-17.2
		c-1.08-1.31-1.72-3.71-1.37-5.35c2.04-9.76,4.79-19.38,6.56-29.18c0.96-5.32,3.39-8.13,8.41-9.74
		c16.79-5.38,33.5-11.05,50.23-16.62c1.39-0.46,2.75-1.02,5.28-1.96c-11.35-3.76-21.63-7.15-31.92-10.57
		c-9-2.99-17.98-6.06-27.01-8.95c-2.44-0.78-3.55-1.85-4.09-4.65c-2.29-11.9-5.11-23.7-7.58-35.58c-0.31-1.48-0.24-3.71,0.65-4.67
		c6.33-6.78,7.87-12.67,4.59-19.3c-3.33-6.72-9.39-9.48-18.14-8.45c-6.38-9.29-12.75-18.38-18.83-27.68
		c-0.7-1.07-0.15-3.44,0.54-4.86c7.55-15.37,15.25-30.66,22.91-45.98c0.72-1.44,1.38-2.91,2.69-5.68
		c-7.62,3.79-14.08,6.97-20.51,10.21c-10.25,5.16-20.53,10.28-30.7,15.59c-2.42,1.26-3.95,0.97-6.19-0.61
		c-8.97-6.32-18.21-12.25-27.25-18.47c-1.27-0.88-2.73-2.55-2.8-3.92c-0.47-8.98-3.49-14.19-10.14-16.61
		c-6.78-2.46-12.78-0.5-18.51,6.04c-10.01-2.25-19.94-5.75-30.05-6.41c-10.37-0.68-14.25-5.53-16.67-14.71
		c-3.68-13.94-8.56-27.56-12.92-41.32c84,0,168,0,252,0c0,166.67,0,333.33,0,500C477,646,395,646,313,646z"/>
	<path class="st0" d="M306,146c-5.6,17.05-11.15,34.12-16.88,51.13c-0.4,1.19-2.02,2.51-3.3,2.79c-13.45,3-26.94,5.86-40.45,8.59
		c-1.3,0.26-3.24-0.2-4.21-1.08c-6.1-5.48-12.03-7.05-18.18-4.04c-6.47,3.16-9.51,8.42-9.16,15.77c0.07,1.39-1.12,3.36-2.33,4.19
		c-7.53,5.19-15.15,10.28-22.96,15.03c-1.53,0.93-4.42,0.97-6.07,0.17c-16.6-8.12-33.06-16.5-49.57-24.81
		c-1.14-0.57-2.28-1.12-4.68-2.3c9.96,19.78,19.32,38.38,28.53,56.67c-7.26,10.78-14.4,21.38-21.75,32.29
		c-11.56-0.27-17,2.32-19.81,9.79c-2.63,6.98-0.41,12.82,6.77,19.15c-2.72,14.01-5.25,27.54-8.1,41.01
		c-0.3,1.42-2.26,3.04-3.79,3.56c-16.85,5.75-33.78,11.3-50.68,16.91c-1.41,0.47-2.81,0.98-5.25,1.84
		c11.41,3.89,21.89,7.51,32.41,11.03c7.73,2.59,15.48,5.13,23.28,7.51c2.81,0.86,4.21,2.18,4.83,5.32
		c2.19,11.25,4.94,22.39,7.22,33.62c0.3,1.5-0.4,3.7-1.43,4.89c-4.55,5.23-6.01,11.79-3.23,17.61c3.04,6.35,8.28,9.17,15.28,9.33
		c1.39,0.03,3.25,1.11,4.05,2.28c5.73,8.37,11.07,17.01,16.92,25.29c1.75,2.48,1.74,4.15,0.47,6.66
		c-9.18,18.08-18.23,36.23-27.88,55.49c4.7-2.28,8.57-4.11,12.4-6.04c14.57-7.32,29.17-14.59,43.65-22.11
		c2.52-1.31,3.98-0.92,6.16,0.59c7.51,5.23,15.3,10.05,22.79,15.29c1.4,0.98,2.67,3.21,2.69,4.87c0.08,6.86,3.37,12.8,9.14,15.37
		c6.03,2.7,12.45,1.57,17.4-3.47c1.89-1.92,3.47-2.83,6.01-1.48c1.15,0.61,2.52,1.04,3.81,1.12c11.27,0.76,17.01,7.78,21.95,17.21
		c9.41,17.95,19.9,35.34,29.95,52.96c-82.67,0-165.33,0-248,0c0-166.67,0-333.33,0-500C138,146,222,146,306,146z"/>
	<path class="st0" d="M378.53,271.99c-10.14,3.74-19.16,7.79-26.15,15.27c-4.24,4.53-6.79,9.56-6.71,16.07
		c0.23,17.66,0.08,35.32,0.08,52.99c0,1.79,0,3.58,0,5.71c2.07,0.12,3.68,0.28,5.29,0.28c17,0.02,33.99-0.04,50.99,0.03
		c9.36,0.04,17.01-3.4,22.12-11.26c4.31-6.64,8-13.68,11.6-19.91c22.5,22.44,45.56,45.43,69.08,68.89
		c-22.67,22.08-45.72,44.54-68.42,66.65c-4.29-7.3-8.02-14.48-12.54-21.13c-5.18-7.62-12.68-11.41-22.11-11.34
		c-16.66,0.11-33.33,0.03-49.99,0.03c-1.79,0-3.59,0-6.03,0c0,2.44,0,4.38,0,6.32c0,44.49,0.02,88.98-0.06,133.47
		c0,2.38-0.39,5.07-1.54,7.09c-11.61,20.38-23.41,40.65-35.17,60.94c-0.39,0.67-0.95,1.25-1.73,2.25
		c-7.48-12.99-14.78-25.64-22.07-38.3c-0.41-0.72-0.8-1.46-1.21-2.18c-4.9-8.68-11.72-16.86-14.18-26.18
		c-2.46-9.35-0.57-19.85-0.59-29.85c-0.09-36.32-0.19-72.64-0.28-108.96c0-1.45,0-2.91,0-4.9c-2.6,0-4.72,0.01-6.83,0
		c-15.66-0.1-31.33,0.23-46.97-0.44c-12.92-0.55-21.59,5.44-27.96,15.74c-3.3,5.34-5.99,11.05-9.25,17.16
		c-23.51-22.59-46.97-45.13-70.89-68.12c23.61-23.07,47.12-46.06,71.22-69.61c1.03,2.17,1.83,4.06,2.8,5.86
		c2.43,4.53,4.69,9.18,7.45,13.51c6.21,9.76,15,14.39,26.85,14.06c15.98-0.45,31.99-0.11,47.99-0.11c1.79,0,3.57,0,5.89,0
		c0-5.47,0-10.42,0-15.37c0-14.16-0.27-28.33,0.1-42.49c0.24-9.06-3.33-16.01-10.48-20.87c-6.79-4.62-14.17-8.35-20.57-12.05
		c22.23-22.6,44.96-45.7,67.99-69.09C330.4,225.47,354.28,248.55,378.53,271.99z"/>
</g>
</svg>
