<?xml version="1.0" encoding="utf-8"?>
<!-- Generator: Adobe Illustrator 24.3.0, SVG Export Plug-In . SVG Version: 6.00 Build 0)  -->
<svg version="1.1" id="Layer_1" xmlns="http://www.w3.org/2000/svg" xmlns:xlink="http://www.w3.org/1999/xlink" x="0px" y="0px"
	 viewBox="0 0 612 792" style="enable-background:new 0 0 612 792;" xml:space="preserve">
<style type="text/css">
	.st0{fill:#FFFFFF;}
</style>
<g>
	<path class="st0" d="M53,146.2c168.54,0,337.09,0,505.76,0c0,166.52,0,333.11,0,499.7c-168.59,0-337.17,0-505.76,0
		C53,479.35,53,312.81,53,146.2z M53.22,393.34c2.24,0.84,3.46,1.35,4.71,1.76c17.05,5.66,34.1,11.34,51.18,16.92
		c2.54,0.83,4.05,1.88,4.64,4.88c2.28,11.57,5.01,23.04,7.46,34.58c0.23,1.08,0,2.48-0.51,3.47c-2.39,4.68-4.96,9.27-7.91,14.7
		c-8.03,0.67-28.52,17.58-32.72,28.48c-6.49,16.85-3.15,31.91,8.72,45.46c1.59-0.67,3.09-1.38,4.64-1.96
		c5.67-2.12,9.35-5.64,11.81-11.61c2.12-5.16,5.89-10.5,10.42-13.6c6.15-4.21,13.57-6.74,20.69-9.31c10.91-3.93,11-3.68,17.93,5.58
		c0.19,0.25,0.23,0.61,0.38,1.03c-4.81,9.58-9.67,19.23-14.49,28.89c-4.78,9.58-9.53,19.18-14.82,29.83
		c2.56-1.19,4.02-1.82,5.44-2.53c16.79-8.45,33.6-16.88,50.35-25.4c2.05-1.04,3.53-1.51,5.78,0.07c7.9,5.54,16.09,10.64,24.05,16.09
		c1.09,0.75,2.11,2.5,2.11,3.79c0,7.92,3.04,13.69,9.26,16.2c6.95,2.81,12.95,1.16,18.21-4.12c0.89-0.9,2.88-1.37,4.17-1.11
		c12.19,2.55,24.31,5.47,36.54,7.87c3.11,0.61,4.47,1.86,5.36,4.71c3.34,10.63,6.86,21.2,10.36,31.77c2.77,8.36,5.6,16.7,8.79,26.2
		c0.72-1.99,1-2.72,1.24-3.46c6.06-18.31,12.04-36.64,18.28-54.88c0.61-1.79,2.62-3.92,4.36-4.36c11.29-2.8,22.66-5.26,34.06-7.57
		c1.75-0.35,4.17,0.12,5.62,1.14c5.07,3.57,10.41,4.5,16.06,2.2c5.92-2.41,8.82-7.18,9.66-13.49c0.22-1.64,1.3-3.65,2.62-4.57
		c8.47-5.87,17.08-11.55,25.78-17.09c1.21-0.77,3.48-1.04,4.71-0.43c17.91,8.84,35.73,17.87,53.57,26.84
		c1.23,0.62,2.54,1.07,4.61,1.94c-0.99-2.04-1.54-3.21-2.12-4.36c-8.88-17.68-17.69-35.39-26.72-52.99
		c-1.35-2.63-1.01-4.22,0.61-6.55c5.21-7.51,9.98-15.32,15.13-22.87c0.91-1.33,2.81-2.7,4.32-2.77c7-0.33,12.32-3.24,15.05-9.67
		c2.73-6.44,1.19-12.32-3.58-17.49c-0.86-0.93-1.36-2.83-1.09-4.08c2.42-11.2,5.25-22.31,7.48-33.55c0.6-3.03,1.92-4.1,4.51-4.94
		c16.14-5.25,32.25-10.61,48.36-15.94c3.16-1.05,6.3-2.16,10.72-3.68c-17.93-5.95-34.52-11.46-52.51-17.43
		c8.01-3.78,14.55-7,21.2-9.98c8.58-3.85,16.95-8.07,22.38-16.09c1.49-2.21,2.58-5.63,2.05-8.11
		c-4.99-23.53-13.88-45.37-29.37-64.11c-3.71-4.48-7.5-8.93-11.64-13.01c-9.31-9.19-18.86-18.15-28.23-27.12
		c-2.93,1.85-5.17,3.26-7.63,4.82c-1.27-1.04-2.49-2.03-3.5-2.86c3.6-7.59,7-14.75,10.75-22.68c-4.58,2.23-8.36,4.07-12.35,6.01
		c-7.98-14.81-20.29-24.55-33.94-32.88c-16.88-10.3-16.95-10.36-32.36,2.27c-4.71,3.86-9.33,6.47-15.72,7.94
		c-9.11,2.11-17.38,1.26-25.94-0.78c-12.67-3.01-25.3-6.14-38.37-2.32c-0.23,0.07-0.58-0.25-1.15-0.53
		c-5.47-16.33-11.01-32.86-16.93-50.52c-5.9,17.79-11.37,34.18-16.73,50.61c-0.81,2.48-1.97,3.48-4.74,4.02
		c-13.2,2.56-26.3,5.65-39.49,8.29c-1.47,0.29-3.64-0.67-4.84-1.76c-5.22-4.75-11.35-6.08-17.49-3.4c-6.13,2.68-9.58,8.69-9.5,15.65
		c0.02,1.51-1.12,3.59-2.38,4.46c-7.37,5.12-15.02,9.85-22.4,14.96c-2.19,1.52-3.72,1.78-6.19,0.5
		c-11.52-5.97-23.18-11.67-34.79-17.47c-6.26-3.13-12.52-6.26-19.7-9.85c9.12,18.22,17.65,35.48,26.43,52.61
		c1.71,3.34,1.74,5.51-0.7,8.71c-5.62,7.4-10.71,15.23-15.63,23.12c-2.01,3.22-3.69,4.88-8.01,4.62
		c-11.3-0.68-19.39,10.29-15.17,20.38c1.47,3.5,4.56,6.32,6.55,8.98c-2.61,13.48-5.14,27-7.97,40.45c-0.31,1.48-2.15,3.21-3.66,3.76
		c-7.35,2.66-14.84,4.92-22.27,7.38C76.07,385.67,65.1,389.36,53.22,393.34z"/>
	<path d="M53.22,393.34c11.88-3.98,22.86-7.67,33.84-11.32c7.42-2.46,14.92-4.72,22.27-7.38c1.52-0.55,3.35-2.28,3.66-3.76
		c2.83-13.45,5.36-26.97,7.97-40.45c-1.99-2.65-5.08-5.48-6.55-8.98c-4.22-10.09,3.87-21.06,15.17-20.38c4.32,0.26,6-1.4,8.01-4.62
		c4.92-7.9,10.01-15.72,15.63-23.12c2.43-3.2,2.41-5.37,0.7-8.71c-8.78-17.13-17.31-34.39-26.43-52.61
		c7.18,3.59,13.44,6.72,19.7,9.85c11.61,5.8,23.27,11.49,34.79,17.47c2.47,1.28,4,1.02,6.19-0.5c7.38-5.11,15.02-9.84,22.4-14.96
		c1.26-0.88,2.4-2.95,2.38-4.46c-0.08-6.96,3.37-12.97,9.5-15.65c6.14-2.69,12.27-1.35,17.49,3.4c1.2,1.09,3.38,2.05,4.84,1.76
		c13.19-2.64,26.29-5.73,39.49-8.29c2.77-0.54,3.93-1.54,4.74-4.02c5.36-16.43,10.84-32.82,16.73-50.61
		c5.92,17.66,11.46,34.19,16.93,50.52c0.57,0.27,0.92,0.59,1.15,0.53c13.07-3.81,25.7-0.69,38.37,2.32
		c8.56,2.03,16.82,2.88,25.94,0.78c6.39-1.48,11.01-4.08,15.72-7.94c15.41-12.63,15.48-12.57,32.36-2.27
		c13.65,8.33,25.96,18.07,33.94,32.88c3.99-1.94,7.77-3.78,12.35-6.01c-3.76,7.93-7.15,15.08-10.75,22.68
		c1.01,0.83,2.23,1.82,3.5,2.86c2.46-1.56,4.7-2.97,7.63-4.82c9.37,8.97,18.92,17.93,28.23,27.12c4.13,4.08,7.93,8.53,11.64,13.01
		c15.49,18.74,24.39,40.58,29.37,64.11c0.53,2.48-0.56,5.9-2.05,8.11c-5.43,8.02-13.79,12.25-22.38,16.09
		c-6.65,2.98-13.19,6.2-21.2,9.98c17.99,5.97,34.58,11.48,52.51,17.43c-4.41,1.52-7.55,2.63-10.72,3.68
		c-16.11,5.34-32.22,10.7-48.36,15.94c-2.59,0.84-3.91,1.92-4.51,4.94c-2.23,11.23-5.06,22.35-7.48,33.55
		c-0.27,1.25,0.23,3.15,1.09,4.08c4.78,5.17,6.32,11.05,3.58,17.49c-2.73,6.43-8.05,9.34-15.05,9.67c-1.51,0.07-3.41,1.44-4.32,2.77
		c-5.15,7.55-9.92,15.36-15.13,22.87c-1.62,2.33-1.96,3.92-0.61,6.55c9.03,17.6,17.84,35.32,26.72,52.99
		c0.58,1.15,1.13,2.32,2.12,4.36c-2.08-0.87-3.39-1.32-4.61-1.94c-17.85-8.97-35.66-18-53.57-26.84c-1.23-0.61-3.5-0.34-4.71,0.43
		c-8.7,5.54-17.3,11.22-25.78,17.09c-1.32,0.92-2.4,2.93-2.62,4.57c-0.84,6.3-3.74,11.08-9.66,13.49c-5.65,2.3-10.99,1.36-16.06-2.2
		c-1.45-1.02-3.87-1.5-5.62-1.14c-11.4,2.31-22.77,4.77-34.06,7.57c-1.74,0.43-3.75,2.57-4.36,4.36
		c-6.24,18.24-12.22,36.57-18.28,54.88c-0.25,0.74-0.53,1.47-1.24,3.46c-3.19-9.5-6.02-17.84-8.79-26.2
		c-3.5-10.58-7.02-21.14-10.36-31.77c-0.9-2.85-2.26-4.1-5.36-4.71c-12.22-2.4-24.34-5.32-36.54-7.87
		c-1.29-0.27-3.27,0.21-4.17,1.11c-5.27,5.28-11.27,6.92-18.21,4.12c-6.22-2.51-9.26-8.28-9.26-16.2c0-1.29-1.02-3.04-2.11-3.79
		c-7.96-5.45-16.15-10.56-24.05-16.09c-2.26-1.58-3.73-1.11-5.78-0.07c-16.76,8.52-33.56,16.95-50.35,25.4
		c-1.42,0.71-2.88,1.35-5.44,2.53c5.29-10.65,10.04-20.25,14.82-29.83c4.82-9.67,9.68-19.31,14.49-28.89
		c-0.15-0.43-0.2-0.79-0.38-1.03c-6.93-9.25-7.02-9.5-17.93-5.58c-7.12,2.56-14.54,5.1-20.69,9.31c-4.52,3.1-8.3,8.44-10.42,13.6
		c-2.46,5.97-6.14,9.49-11.81,11.61c-1.55,0.58-3.05,1.28-4.64,1.96c-11.88-13.54-15.21-28.6-8.72-45.46
		c4.2-10.9,24.69-27.81,32.72-28.48c2.95-5.43,5.51-10.02,7.91-14.7c0.51-1,0.74-2.39,0.51-3.47c-2.45-11.53-5.18-23.01-7.46-34.58
		c-0.59-3.01-2.1-4.05-4.64-4.88c-17.08-5.59-34.13-11.26-51.18-16.92C56.68,394.69,55.46,394.18,53.22,393.34z M92.72,532.17
		c1.25-2.18,2.44-3.97,3.36-5.89c5.8-12.1,14.66-20.76,27.5-25.29c20.73-7.31,42.21-10.46,64.01-12.13
		c19.24-1.47,38.66-2.47,57.02-8.95c12.6-4.44,26.61-7.22,35.93-17.57c11.42-12.68,21.88-26.29,31.98-40.06
		c5.74-7.83,9.96-16.78,14.77-25.28c0.52-0.92,0.87-2.36,0.54-3.29c-3.26-9.27-1.94-18.66-1.35-28.13
		c0.22-3.54-1.85-7.22-2.88-10.84c-0.58,0.02-1.15,0.04-1.73,0.06c-3.98,6.43-8.35,12.65-11.82,19.34
		c-3.13,6.02-4.98,12.69-7.9,18.84c-12.64,26.57-29.3,50.27-56.64,62.87c-16.89,7.78-35.52,11.96-53.58,16.98
		c-6.43,1.79-13.49,1.68-20.27,1.75c-10.6,0.11-21.24-0.98-31.8-0.43c-16.12,0.84-30.71,6.24-43.33,16.73
		C85.25,500.25,82.83,520.31,92.72,532.17z M429.28,354.78c9.65-4.6,17.93-8.1,25.74-12.43c5.02-2.78,9.75-6.39,13.9-10.37
		c3.82-3.66,6.86-8.23,6.17-14.13c-1.01-8.57-5.45-15.22-11.81-20.71c-2.64-2.28-3.75-1.18-4.55,1.99
		c-1.56,6.2-3.03,12.55-5.65,18.33c-2.51,5.53-6.44,10.41-9.56,15.3c-23.86-0.75-27.71-20.73-36.32-37.52
		c-6.56,17.05-3.4,32.23,4.17,47.44c-1.05-0.35-1.55-0.39-1.91-0.65c-16.43-11.77-24.55-28.17-25.41-47.98
		c-0.32-7.44-0.01-15.65,8.45-19.86c0.15-0.08,0.09-0.58,0.16-1.15c-1.16-0.64-2.4-1.33-3.07-1.7c0.75-10.63,5.05-19.22,11.56-26.88
		c0.77-0.9,0.38-2.78,0.55-4.35c-12.85,1.51-30.47,7.94-39.9,14.34c-13.47,9.14-19.67,33.76-11.7,49.15
		c1.22-2.26,2.42-3.96,3.1-5.85c1.47-4.06,2.31-8.37,4.04-12.3c4.6-10.46,17.52-16.49,28.07-13.14c-4.21,1.77-8.2,3.36-12.12,5.11
		c-7.15,3.2-13.07,8.07-14.86,15.81c-2.16,9.33-3.15,18.93-4.47,28.43c-0.15,1.06,0.56,2.7,1.41,3.38
		c11.67,9.33,23.27,18.76,35.23,27.7c7.01,5.24,15.64,6.55,24.13,6.91c3.85,0.16,7.77-1.63,12.15-2.65
		c-1.68-3.23-2.73-5.24-4.04-7.77c5.44-3.6,10.73-7.1,16.03-10.6c0.35,0.46,0.69,0.93,1.04,1.39c-3.09,3.23-6.28,6.37-9.19,9.75
		C429.83,350.7,429.89,352.33,429.28,354.78z M392.46,210.17c-0.28-0.37-0.56-0.75-0.84-1.12c-1.1,0.1-2.21,0.15-3.31,0.31
		c-4.17,0.61-8.37,1.91-12.49,1.72c-5.6-0.26-11.13-1.71-16.71-2.56c-7.99-1.21-16.15-3.87-23.96-3.12
		c-10.11,0.97-19.92,4.88-29.94,7.13c-3.41,0.76-4.64,2.46-5.02,5.59c-3.26,26.83-4.48,53.67,0.81,80.38
		c2.91,14.66,8.74,28.1,18.53,39.88c4.03-3.25,2.73-7.26,2.12-10.79c-4.45-25.58,1.95-48.51,17.41-68.88
		c12.6-16.6,29.79-28.34,45.83-41.25C387.61,215.25,389.95,212.6,392.46,210.17z M446.24,391.4c1.47,0.66,2.03,1.06,2.65,1.16
		c1.48,0.22,2.99,0.51,4.47,0.4c12.59-0.93,24-5.05,33.57-13.4c11.3-9.87,24.14-16.96,37.84-22.88c5.41-2.33,10.26-6.04,15.17-9.4
		c2.71-1.85,3.59-4.7,2.34-7.94c-4.92-12.86-8.62-26.37-15.04-38.44c-10.61-19.95-27.73-34.73-44.16-49.84
		c-0.63-0.58-2.14-0.19-3.49-0.27c1.82,3.81,3.68,6.66,4.58,9.79c6.07,20.94,9.16,42.23,6.65,64.06
		c-1.98,17.25-7.61,33.14-19.32,46.2c-6.14,6.85-12.46,13.89-21.99,16.57C448.26,387.76,447.49,389.81,446.24,391.4z M332.22,364.81
		c-0.45,0.44-0.9,0.87-1.36,1.31c0.36,2.59,0.62,5.2,1.11,7.77c2.11,11.22,1.72,23.26,8.17,33.16c6.14,9.42,13.42,18.11,20.42,26.94
		c0.86,1.08,3.14,1.55,4.72,1.47c6.13-0.33,12.24-1.22,18.38-1.5c17.67-0.83,34.56-4.47,50.23-13.02
		c7.22-3.94,14.22-8.06,18.49-15.46c2.88-5,2.38-6.68-3.21-7.29c-6.58-0.71-13.26-0.9-19.88-0.67c-17.52,0.6-34.95,0.08-51.95-4.49
		c-15.3-4.12-29.52-10.24-38.95-24.13C337.1,367,334.31,366.14,332.22,364.81z M360.7,336.21c-0.47,0.42-0.93,0.85-1.4,1.27
		c7.23,19.57,17.37,37.01,35.54,48.84c7.51,4.89,15.31,6.45,24.17,5.06c13.2-2.06,25.22-6.97,36.9-13.2
		c11.72-6.25,18.64-16.23,23.21-28.18c2.4-6.27,1.01-12.81-3.17-16.42c-1.18,0.81-2.36,1.73-3.64,2.47
		c-12.94,7.46-25.49,15.8-39.01,21.99c-8.34,3.82-18.18,5.96-27.37,6.03c-16.05,0.13-27.98-9.16-37.99-21.07
		C365.82,340.49,363.12,338.46,360.7,336.21z M383.26,385.17c-3.77-3.94-7.14-7.09-10.07-10.6c-15.68-18.83-25.47-40.45-29.24-64.61
		c-1.32-8.46-2-16.86-0.85-25.81c0.85-6.63,0.83-13.61,2.35-20.37c0.33-1.48-0.48-3.22-0.77-4.84c-0.59-0.15-1.18-0.29-1.77-0.44
		c-2.38,4.59-5.83,8.93-6.95,13.81c-3.94,17.14-8.1,34.33-10.24,51.75c-1.98,16.09,0.67,31.57,15.87,41.83
		c7.96,5.37,15.35,11.64,23.55,16.61C370.12,385.51,376.14,386.83,383.26,385.17z M394.38,271.1c24.98-2.13,45.85,1.7,61.32,20.71
		c-4.55-1.73-8.9-3.93-13.29-6.02c-4.56-2.18-9.18-4.11-15.27-1.34c6.05,3.46,8.02,8.44,8.75,14c0.95,7.29-0.67,14.17-3.67,20.83
		c-1.1,2.45-1.79,5.09-2.83,8.12c7.56,0.28,12.2-2.98,15.22-8.26c4.11-7.18,6.89-15.27,11.77-21.83c2.94-3.96,4.01-7.33,3.24-11.65
		c-0.43-2.42-1.29-4.81-2.28-7.07c-7.34-16.79-20.52-28.8-33.66-40.82c-0.68-0.62-3-0.52-3.74,0.15
		c-6.25,5.65-12.88,11.05-18.23,17.49C398.4,259.35,397.12,264.99,394.38,271.1z M381.59,238.26c0.34,0.32,0.68,0.63,1.01,0.95
		c0.99-0.45,2.12-0.72,2.95-1.38c11.69-9.26,25.42-10.1,39.33-8.96c11.25,0.92,22.4,2.98,33.61,4.42c1.49,0.19,3.07-0.33,4.61-0.53
		c-0.33-1.5-0.46-3.09-1.05-4.48c-0.77-1.82-1.84-3.53-2.91-5.21c-8.91-14.04-22.75-22.13-36.69-30c-1.09-0.62-3.46,0.13-4.79,0.96
		c-11.5,7.17-20.79,16.6-27.66,28.28C386.96,227.49,384.38,232.94,381.59,238.26z M438.17,243.48c3.29,3.98,5.91,7.19,8.56,10.38
		c9.33,11.23,14.65,24.37,18.42,38.28c0.53,1.96,1.27,4.57,2.76,5.44c7.4,4.33,9.94,11.18,11.01,19.04c0.29,2.16,0.81,4.3,1.5,7.91
		c1.57-2.4,2.48-3.34,2.88-4.47c6.83-18.85,6.17-37.5-2.27-55.65c-6.27-13.48-17.21-20.82-32.01-21.97
		C445.29,242.15,441.46,243.13,438.17,243.48z M280.74,468.19c-6.41,2.77-12.49,5.25-18.38,8.12c-0.68,0.33-0.98,3.27-0.32,4.2
		c3.55,5.01,7.26,9.94,11.27,14.59c11.4,13.22,25.27,18.78,42.75,13.83c14.37-4.07,18.94-16.12,17.24-27.97
		c-0.95-6.63-3.22-12.26-10.55-14.02c-1.06-0.26-2.27,0.1-3.41,0.17c0.64,0.97,1.11,2.15,1.97,2.86c1.97,1.63,4.82,2.6,6.09,4.61
		c4.61,7.3,3.04,18.71-2.81,23.91c-7.37,6.54-18.87,7.33-26.18,1.37c-7.71-6.29-14.2-13.53-15.8-23.96
		C282.21,473.28,281.37,470.74,280.74,468.19z M394.92,273.93c-7.61,15.58-5.58,30.47,1.63,45.15c0.55,1.12,1.93,1.85,2.92,2.75
		c0.21-1.31,0.6-2.63,0.59-3.94c-0.09-18.2,3.6-29.97,20.55-33.82c1.75-0.4,3.25-1.91,4.86-2.91c-0.13-0.79-0.27-1.58-0.4-2.37
		C415.22,277.2,405.38,275.62,394.92,273.93z"/>
	<path class="st0" d="M92.72,532.17c-9.89-11.85-7.47-31.91,3.81-41.3c12.62-10.49,27.21-15.9,43.33-16.73
		c10.56-0.55,21.2,0.55,31.8,0.43c6.78-0.07,13.84,0.04,20.27-1.75c18.06-5.02,36.69-9.19,53.58-16.98
		c27.34-12.6,44-36.3,56.64-62.87c2.92-6.14,4.77-12.81,7.9-18.84c3.47-6.69,7.84-12.91,11.82-19.34c0.58-0.02,1.15-0.04,1.73-0.06
		c1.03,3.62,3.1,7.3,2.88,10.84c-0.59,9.47-1.91,18.85,1.35,28.13c0.33,0.93-0.02,2.37-0.54,3.29c-4.81,8.5-9.03,17.45-14.77,25.28
		c-10.1,13.78-20.56,27.39-31.98,40.06c-9.32,10.35-23.32,13.13-35.93,17.57c-18.37,6.47-37.79,7.47-57.02,8.95
		c-21.8,1.67-43.28,4.81-64.01,12.13c-12.83,4.53-21.7,13.19-27.5,25.29C95.16,528.19,93.98,529.98,92.72,532.17z"/>
	<path class="st0" d="M429.28,354.78c0.61-2.45,0.55-4.08,1.33-4.99c2.91-3.38,6.1-6.52,9.19-9.75c-0.35-0.46-0.69-0.93-1.04-1.39
		c-5.29,3.5-10.59,7-16.03,10.6c1.32,2.53,2.36,4.54,4.04,7.77c-4.37,1.02-8.3,2.81-12.15,2.65c-8.49-0.36-17.12-1.67-24.13-6.91
		c-11.96-8.94-23.56-18.37-35.23-27.7c-0.86-0.69-1.56-2.32-1.41-3.38c1.32-9.51,2.31-19.11,4.47-28.43
		c1.79-7.74,7.71-12.62,14.86-15.81c3.92-1.75,7.9-3.34,12.12-5.11c-10.56-3.34-23.47,2.68-28.07,13.14
		c-1.73,3.93-2.58,8.24-4.04,12.3c-0.68,1.89-1.88,3.59-3.1,5.85c-7.96-15.39-1.77-40.02,11.7-49.15
		c9.43-6.4,27.06-12.83,39.9-14.34c-0.17,1.58,0.22,3.45-0.55,4.35c-6.51,7.66-10.81,16.26-11.56,26.88
		c0.68,0.38,1.91,1.06,3.07,1.7c-0.07,0.57-0.01,1.07-0.16,1.15c-8.46,4.21-8.77,12.42-8.45,19.86c0.86,19.8,8.98,36.21,25.41,47.98
		c0.35,0.25,0.85,0.3,1.91,0.65c-7.57-15.22-10.73-30.39-4.17-47.44c8.61,16.8,12.45,36.77,36.32,37.52
		c3.12-4.88,7.05-9.77,9.56-15.3c2.62-5.78,4.09-12.13,5.65-18.33c0.8-3.17,1.91-4.27,4.55-1.99c6.36,5.49,10.8,12.14,11.81,20.71
		c0.7,5.91-2.35,10.47-6.17,14.13c-4.15,3.98-8.88,7.58-13.9,10.37C447.2,346.68,438.93,350.18,429.28,354.78z"/>
	<path class="st0" d="M392.46,210.17c-2.52,2.44-4.86,5.08-7.57,7.27c-16.04,12.92-33.24,24.65-45.83,41.25
		c-15.45,20.37-21.85,43.3-17.41,68.88c0.61,3.54,1.91,7.54-2.12,10.79c-9.8-11.77-15.63-25.22-18.53-39.88
		c-5.3-26.71-4.07-53.55-0.81-80.38c0.38-3.13,1.61-4.83,5.02-5.59c10.03-2.25,19.83-6.16,29.94-7.13
		c7.82-0.75,15.97,1.91,23.96,3.12c5.58,0.85,11.11,2.3,16.71,2.56c4.13,0.19,8.32-1.11,12.49-1.72c1.09-0.16,2.2-0.21,3.31-0.31
		C391.91,209.42,392.19,209.79,392.46,210.17z"/>
	<path class="st0" d="M446.24,391.4c1.25-1.58,2.02-3.64,3.28-3.99c9.53-2.68,15.84-9.72,21.99-16.57
		c11.71-13.06,17.34-28.95,19.32-46.2c2.51-21.83-0.58-43.12-6.65-64.06c-0.91-3.13-2.77-5.98-4.58-9.79
		c1.34,0.08,2.86-0.31,3.49,0.27c16.44,15.1,33.56,29.88,44.16,49.84c6.42,12.07,10.12,25.58,15.04,38.44
		c1.24,3.25,0.37,6.09-2.34,7.94c-4.91,3.36-9.76,7.07-15.17,9.4c-13.7,5.91-26.55,13.01-37.84,22.88
		c-9.57,8.36-20.98,12.47-33.57,13.4c-1.47,0.11-2.99-0.18-4.47-0.4C448.27,392.46,447.71,392.06,446.24,391.4z"/>
	<path class="st0" d="M332.22,364.81c2.09,1.33,4.88,2.2,6.16,4.08c9.43,13.89,23.65,20.02,38.95,24.13
		c17,4.57,34.43,5.09,51.95,4.49c6.62-0.23,13.3-0.04,19.88,0.67c5.59,0.61,6.1,2.29,3.21,7.29c-4.27,7.4-11.28,11.52-18.49,15.46
		c-15.67,8.56-32.56,12.2-50.23,13.02c-6.14,0.29-12.24,1.17-18.38,1.5c-1.58,0.09-3.86-0.38-4.72-1.47
		c-7-8.83-14.28-17.52-20.42-26.94c-6.45-9.9-6.05-21.94-8.17-33.16c-0.48-2.57-0.74-5.18-1.11-7.77
		C331.32,365.68,331.77,365.24,332.22,364.81z"/>
	<path class="st0" d="M360.7,336.21c2.43,2.25,5.12,4.28,7.24,6.8c10.01,11.91,21.94,21.2,37.99,21.07
		c9.19-0.07,19.02-2.21,27.37-6.03c13.53-6.2,26.07-14.53,39.01-21.99c1.28-0.74,2.46-1.66,3.64-2.47
		c4.18,3.61,5.57,10.15,3.17,16.42c-4.57,11.96-11.49,21.94-23.21,28.18c-11.69,6.23-23.7,11.14-36.9,13.2
		c-8.86,1.39-16.66-0.17-24.17-5.06c-18.17-11.84-28.31-29.27-35.54-48.84C359.77,337.05,360.23,336.63,360.7,336.21z"/>
	<path class="st0" d="M383.26,385.17c-7.13,1.66-13.14,0.34-18.13-2.68c-8.19-4.97-15.58-11.24-23.55-16.61
		c-15.2-10.26-17.85-25.74-15.87-41.83c2.14-17.41,6.3-34.61,10.24-51.75c1.12-4.88,4.57-9.22,6.95-13.81
		c0.59,0.15,1.18,0.29,1.77,0.44c0.29,1.62,1.1,3.36,0.77,4.84c-1.52,6.76-1.5,13.74-2.35,20.37c-1.15,8.95-0.46,17.35,0.85,25.81
		c3.77,24.16,13.55,45.78,29.24,64.61C376.12,378.08,379.49,381.23,383.26,385.17z"/>
	<path class="st0" d="M394.38,271.1c2.74-6.11,4.02-11.75,7.32-15.71c5.36-6.44,11.98-11.84,18.23-17.49
		c0.74-0.67,3.06-0.77,3.74-0.15c13.13,12.02,26.32,24.03,33.66,40.82c0.99,2.26,1.84,4.65,2.28,7.07c0.78,4.33-0.3,7.7-3.24,11.65
		c-4.88,6.56-7.66,14.64-11.77,21.83c-3.02,5.28-7.66,8.54-15.22,8.26c1.04-3.03,1.73-5.67,2.83-8.12
		c2.99-6.65,4.62-13.54,3.67-20.83c-0.73-5.56-2.7-10.54-8.75-14c6.08-2.77,10.7-0.83,15.27,1.34c4.4,2.1,8.75,4.29,13.29,6.02
		C440.23,272.8,419.36,268.97,394.38,271.1z"/>
	<path class="st0" d="M381.59,238.26c2.79-5.32,5.37-10.77,8.42-15.95c6.87-11.68,16.16-21.11,27.66-28.28
		c1.33-0.83,3.69-1.58,4.79-0.96c13.95,7.87,27.78,15.96,36.69,30c1.07,1.68,2.14,3.39,2.91,5.21c0.59,1.39,0.72,2.98,1.05,4.48
		c-1.54,0.19-3.12,0.72-4.61,0.53c-11.21-1.43-22.36-3.49-33.61-4.42c-13.91-1.14-27.64-0.3-39.33,8.96
		c-0.83,0.66-1.96,0.93-2.95,1.38C382.26,238.89,381.92,238.57,381.59,238.26z"/>
	<path class="st0" d="M438.17,243.48c3.29-0.35,7.12-1.33,10.85-1.04c14.8,1.15,25.74,8.49,32.01,21.97
		c8.45,18.15,9.1,36.8,2.27,55.65c-0.41,1.13-1.31,2.07-2.88,4.47c-0.69-3.62-1.21-5.75-1.5-7.91c-1.07-7.86-3.61-14.7-11.01-19.04
		c-1.49-0.87-2.23-3.48-2.76-5.44c-3.78-13.91-9.09-27.05-18.42-38.28C444.08,250.67,441.45,247.46,438.17,243.48z"/>
	<path class="st0" d="M280.74,468.19c0.63,2.55,1.47,5.09,1.87,7.7c1.6,10.43,8.09,17.67,15.8,23.96
		c7.31,5.96,18.82,5.17,26.18-1.37c5.86-5.2,7.43-16.61,2.81-23.91c-1.27-2.01-4.12-2.98-6.09-4.61c-0.86-0.71-1.32-1.89-1.97-2.86
		c1.14-0.07,2.35-0.43,3.41-0.17c7.33,1.76,9.6,7.4,10.55,14.02c1.69,11.85-2.88,23.91-17.24,27.97
		c-17.49,4.95-31.35-0.61-42.75-13.83c-4.01-4.65-7.73-9.57-11.27-14.59c-0.66-0.93-0.35-3.87,0.32-4.2
		C268.25,473.44,274.33,470.95,280.74,468.19z"/>
	<path class="st0" d="M394.92,273.93c10.46,1.68,20.3,3.27,30.15,4.85c0.13,0.79,0.27,1.58,0.4,2.37c-1.61,1-3.11,2.51-4.86,2.91
		c-16.95,3.85-20.64,15.62-20.55,33.82c0.01,1.31-0.39,2.63-0.59,3.94c-0.99-0.91-2.37-1.63-2.92-2.75
		C389.34,304.41,387.31,289.52,394.92,273.93z"/>
</g>
</svg>
