<?xml version="1.0" encoding="utf-8"?>
<!-- Generator: Adobe Illustrator 24.3.0, SVG Export Plug-In . SVG Version: 6.00 Build 0)  -->
<svg version="1.1" id="Layer_1" xmlns="http://www.w3.org/2000/svg" xmlns:xlink="http://www.w3.org/1999/xlink" x="0px" y="0px"
	 viewBox="0 0 612 792" style="enable-background:new 0 0 612 792;" xml:space="preserve">
<style type="text/css">
	.st0{fill:#FFFFFF;}
</style>
<g>
	<path class="st0" d="M559,645.88c-168.65,0-337.3,0-505.94,0c0-166.63,0-333.26,0-499.88c168.65,0,337.3,0,505.94,0
		C559,312.63,559,479.26,559,645.88z M159.19,555.74c4.61,11.47,11.26,19.57,24.37,20.18c4.09,0.19,8.18,1.5,12.15,2.68
		c10.23,3.04,19.55,7.54,25.72,16.89c5.73,8.67,14.28,11.77,24.17,10.79c12.2-1.21,23.07-6.15,32.85-13.5
		c2.46-1.85,4.93-3.68,7.73-5.76c6.55,19.68,12.9,38.76,19.63,58.99c0.74-1.94,1.04-2.65,1.28-3.38
		c6.06-18.32,12.03-36.66,18.27-54.91c0.61-1.79,2.6-3.96,4.34-4.39c11.45-2.85,22.98-5.36,34.54-7.73c1.6-0.33,3.82,0.26,5.16,1.23
		c5.2,3.75,10.72,4.64,16.5,2.09c5.64-2.48,8.4-7.18,9.27-13.28c0.25-1.74,1.55-3.8,3-4.81c8.19-5.7,16.51-11.23,24.95-16.54
		c1.43-0.9,4.07-1.23,5.51-0.52c17.94,8.79,35.76,17.83,53.62,26.79c1.09,0.55,2.24,0.97,4.22,1.82c-1.14-2.39-1.81-3.86-2.54-5.31
		c-8.73-17.39-17.41-34.8-26.29-52.11c-1.33-2.59-1.13-4.19,0.53-6.56c5.23-7.5,9.99-15.32,15.15-22.87
		c0.91-1.34,2.81-2.74,4.31-2.81c7-0.33,12.33-3.22,15.07-9.65c2.74-6.43,1.24-12.32-3.55-17.5c-0.87-0.94-1.39-2.83-1.12-4.08
		c2.42-11.2,5.26-22.32,7.48-33.56c0.6-3.04,1.93-4.11,4.5-4.94c15.51-5.04,30.99-10.19,46.48-15.32c3.82-1.26,7.61-2.6,12.45-4.27
		c-2.03-0.74-2.94-1.1-3.86-1.41c-18.33-6.07-36.65-12.17-55-18.17c-2.6-0.85-3.86-1.95-4.33-5.02c-1.43-9.36-2.93-18.78-5.52-27.86
		c-1.6-5.59-0.88-8.86,3.7-12.56c7.28-5.88,13.43-12.94,16.27-22.25c3.33-10.93,1.16-18.16-8.57-23.77c-5.2-3-11.22-5.07-17.13-6.25
		c-9.57-1.92-19.35-2.78-29.55-4.16c9.32-18.51,18.38-36.5,27.92-55.44c-17.97,8.98-34.76,17.43-51.63,25.7
		c-1.42,0.7-3.92,0.9-5.1,0.11c-10.35-6.93-20.52-14.13-31.25-21.61c0.03,0.38-0.07-0.11-0.04-0.59c0.47-8.2-2.58-14.07-8.82-16.94
		c-6.24-2.87-12.44-1.32-18.66,4.23c-1.01,0.9-3.21,1.09-4.67,0.76c-6.98-1.55-13.92-3.32-20.82-5.19c-1.69-0.46-3.33-1.4-4.75-2.44
		c-4.56-3.34-9.16-6.65-13.44-10.33c-2.12-1.83-4.26-4.2-5.19-6.77c-3.97-10.94-7.48-22.05-11.18-33.09
		c-0.38-1.13-0.88-2.23-1.65-4.14c-3.59,10.89-6.85,20.81-10.17,30.89c-6.48-1.33-12.6-2.8-18.8-3.81
		c-9.72-1.59-9.74-1.46-13.47,8.12c6.32,5.45,7.32,12.85,7.81,20.44c-8.51,2.26-16.57,4.26-24.54,6.59
		c-2.75,0.8-4.57,1.11-6.88-1.45c-4.58-5.08-11.31-5.99-17.38-3.2c-5.92,2.72-9.73,8.7-9.01,15.3c0.3,2.78-0.76,3.7-2.78,4.97
		c-7.19,4.5-14.41,8.99-21.25,13.99c-3.01,2.2-5.12,2.3-8.36,0.64c-17.37-8.92-34.87-17.57-53.09-26.7c0.6,1.37,0.81,1.94,1.08,2.48
		c8.54,17.11,17.02,34.25,25.71,51.28c1.33,2.61,1.11,4.23-0.58,6.56c-5.47,7.53-10.9,15.13-15.73,23.08
		c-2.36,3.89-4.35,6.18-9.44,5.59c-6.76-0.77-11.35,3.27-14.11,9.12c-2.73,5.78-1.25,12.44,3.37,17c1.27,1.26,2.71,2.35,3.13,2.72
		c-2.71,13.67-5.45,26.5-7.67,39.41c-0.57,3.34-1.81,4.77-4.88,5.75c-15.22,4.87-30.37,9.96-45.53,14.98
		c-2.98,0.99-5.93,2.05-10.09,3.49c19.54,6.46,37.69,12.51,55.88,18.43c2.75,0.89,4.35,1.98,4.97,5.21
		c2.2,11.42,4.93,22.73,7.29,34.12c0.27,1.3-0.09,3.29-0.96,4.17c-5.09,5.19-6.79,11.14-3.89,17.8c2.89,6.64,8.43,9.51,15.65,9.46
		c1.17-0.01,2.83,0.76,3.45,1.7c6.36,9.73,12.56,19.57,19.07,29.79c-9.32,18.69-18.95,38.02-29.19,58.56
		C137.39,566.62,148.1,561.28,159.19,555.74z"/>
	<path d="M159.19,555.74c-11.09,5.53-21.8,10.88-33.92,16.92c10.24-20.54,19.88-39.87,29.19-58.56
		c-6.51-10.23-12.71-20.07-19.07-29.79c-0.62-0.94-2.28-1.71-3.45-1.7c-7.22,0.05-12.75-2.81-15.65-9.46
		c-2.9-6.66-1.2-12.62,3.89-17.8c0.87-0.88,1.22-2.87,0.96-4.17c-2.36-11.39-5.09-22.7-7.29-34.12c-0.62-3.23-2.22-4.31-4.97-5.21
		c-18.19-5.92-36.34-11.97-55.88-18.43c4.16-1.44,7.11-2.5,10.09-3.49c15.17-5.03,30.32-10.11,45.53-14.98
		c3.08-0.99,4.31-2.41,4.88-5.75c2.22-12.92,4.96-25.74,7.67-39.41c-0.42-0.36-1.85-1.46-3.13-2.72c-4.62-4.56-6.1-11.22-3.37-17
		c2.76-5.85,7.35-9.89,14.11-9.12c5.09,0.58,7.08-1.7,9.44-5.59c4.82-7.95,10.26-15.54,15.73-23.08c1.7-2.34,1.92-3.95,0.58-6.56
		c-8.69-17.03-17.17-34.17-25.71-51.28c-0.27-0.54-0.49-1.11-1.08-2.48c18.22,9.13,35.73,17.78,53.09,26.7
		c3.24,1.66,5.35,1.56,8.36-0.64c6.84-4.99,14.06-9.49,21.25-13.99c2.02-1.26,3.08-2.19,2.78-4.97c-0.72-6.6,3.09-12.58,9.01-15.3
		c6.07-2.79,12.8-1.89,17.38,3.2c2.31,2.56,4.12,2.25,6.88,1.45c7.97-2.32,16.03-4.33,24.54-6.59c-0.49-7.59-1.5-15-7.81-20.44
		c3.72-9.58,3.75-9.71,13.47-8.12c6.2,1.01,12.32,2.48,18.8,3.81c3.32-10.08,6.59-20,10.17-30.89c0.77,1.92,1.27,3.01,1.65,4.14
		c3.7,11.04,7.21,22.15,11.18,33.09c0.93,2.56,3.07,4.94,5.19,6.77c4.27,3.68,8.88,6.99,13.44,10.33c1.42,1.04,3.07,1.98,4.75,2.44
		c6.9,1.87,13.84,3.64,20.82,5.19c1.46,0.33,3.66,0.14,4.67-0.76c6.23-5.55,12.42-7.1,18.66-4.23c6.24,2.87,9.29,8.75,8.82,16.94
		c-0.03,0.48,0.07,0.97,0.04,0.59c10.72,7.47,20.89,14.68,31.25,21.61c1.18,0.79,3.68,0.58,5.1-0.11
		c16.88-8.27,33.67-16.72,51.63-25.7c-9.54,18.95-18.6,36.93-27.92,55.44c10.21,1.38,19.99,2.23,29.55,4.16
		c5.91,1.19,11.93,3.25,17.13,6.25c9.73,5.61,11.9,12.85,8.57,23.77c-2.84,9.31-8.99,16.37-16.27,22.25
		c-4.59,3.7-5.3,6.97-3.7,12.56c2.6,9.08,4.1,18.5,5.52,27.86c0.47,3.07,1.73,4.16,4.33,5.02c18.35,6,36.67,12.1,55,18.17
		c0.92,0.31,1.83,0.67,3.86,1.41c-4.85,1.66-8.64,3-12.45,4.27c-15.48,5.13-30.96,10.27-46.48,15.32c-2.58,0.84-3.9,1.9-4.5,4.94
		c-2.22,11.24-5.06,22.36-7.48,33.56c-0.27,1.25,0.25,3.14,1.12,4.08c4.78,5.18,6.28,11.07,3.55,17.5
		c-2.74,6.43-8.07,9.33-15.07,9.65c-1.5,0.07-3.4,1.47-4.31,2.81c-5.16,7.55-9.92,15.38-15.15,22.87c-1.66,2.37-1.86,3.97-0.53,6.56
		c8.88,17.31,17.56,34.73,26.29,52.11c0.73,1.44,1.4,2.92,2.54,5.31c-1.98-0.85-3.13-1.27-4.22-1.82
		c-17.86-8.96-35.68-18-53.62-26.79c-1.44-0.71-4.08-0.38-5.51,0.52c-8.45,5.31-16.76,10.84-24.95,16.54
		c-1.45,1.01-2.75,3.07-3,4.81c-0.88,6.09-3.64,10.79-9.27,13.28c-5.78,2.54-11.3,1.66-16.5-2.09c-1.35-0.97-3.57-1.56-5.16-1.23
		c-11.56,2.37-23.09,4.88-34.54,7.73c-1.74,0.43-3.73,2.6-4.34,4.39c-6.24,18.25-12.21,36.6-18.27,54.91
		c-0.24,0.73-0.54,1.44-1.28,3.38c-6.73-20.23-13.08-39.31-19.63-58.99c-2.8,2.09-5.27,3.92-7.73,5.76
		c-9.78,7.35-20.65,12.29-32.85,13.5c-9.89,0.98-18.44-2.12-24.17-10.79c-6.18-9.35-15.49-13.84-25.72-16.89
		c-3.97-1.18-8.06-2.49-12.15-2.68C170.45,575.32,163.8,567.21,159.19,555.74z M507.41,297.23c-1.64-2.71-2.8-5.93-5.02-8.04
		c-5.21-4.94-11.76-7.24-18.89-8.24c-18.12-2.55-36.28-4.96-54.29-8.16c-8.6-1.53-17.47-3.57-25.22-7.39
		c-21.98-10.84-39.6-27.51-55.73-45.57c-12.46-13.94-25.4-27.07-43.41-33.34c-10.31-3.58-21.12-5.71-31.74-8.38
		c-0.94-0.24-2.24,0.14-3.06,0.7c-0.32,0.22-0.06,1.89,0.41,2.59c5.76,8.69,6.12,18.44,5.56,28.33
		c-1.02,18.08-6.43,35.01-14.69,50.91c-11.73,22.59-24.61,44.42-41,64.17c-9.39,11.31-17.94,23.66-24.78,36.64
		c-12.59,23.87-14.27,50.26-14.16,76.72c0.06,14.63,0.84,29.29,0.35,43.9c-0.65,19.4-4.14,38.3-12.63,56.04
		c-1.84,3.85-3.2,8.08-3.95,12.28c-1.57,8.83,5.97,18.37,14.89,19.73c5.09,0.78,10.23,1.55,15.17,2.95
		c11.36,3.22,22.05,7.77,29.28,17.8c6.92,9.61,14.95,12.34,26.41,9.39c11.05-2.84,20.68-8.15,29.38-15.37
		c7.04-5.85,13.79-12.12,21.26-17.37c12.58-8.84,23.12-19.56,31.72-32.17c8.53-12.51,16.75-25.22,24.95-37.95
		c11.36-17.65,24.88-32.89,44.57-41.64c3.31-1.47,6.27-3.76,9.3-5.82c6.77-4.61,11.99-10.37,14.38-18.5
		c1.92-6.53,4.66-12.83,6.55-19.37c9.94-34.53,27.95-63.74,56.31-86.22c1.69-1.34,3.26-2.85,4.76-4.41
		C500.55,314.77,506.23,307.66,507.41,297.23z"/>
	<path class="st0" d="M507.41,297.23c-1.18,10.43-6.86,17.54-13.32,24.21c-1.5,1.55-3.07,3.06-4.76,4.41
		c-28.36,22.49-46.37,51.69-56.31,86.22c-1.88,6.54-4.63,12.83-6.55,19.37c-2.39,8.14-7.61,13.89-14.38,18.5
		c-3.02,2.06-5.99,4.35-9.3,5.82c-19.7,8.75-33.21,23.99-44.57,41.64c-8.19,12.73-16.42,25.45-24.95,37.95
		c-8.6,12.61-19.14,23.33-31.72,32.17c-7.47,5.25-14.21,11.52-21.26,17.37c-8.7,7.22-18.34,12.53-29.38,15.37
		c-11.47,2.95-19.49,0.22-26.41-9.39c-7.23-10.03-17.92-14.59-29.28-17.8c-4.94-1.4-10.08-2.17-15.17-2.95
		c-8.92-1.36-16.46-10.9-14.89-19.73c0.75-4.2,2.11-8.43,3.95-12.28c8.49-17.75,11.98-36.65,12.63-56.04
		c0.49-14.61-0.29-29.26-0.35-43.9c-0.11-26.47,1.57-52.85,14.16-76.72c6.85-12.98,15.4-25.33,24.78-36.64
		c16.4-19.75,29.28-41.58,41-64.17c8.26-15.9,13.67-32.84,14.69-50.91c0.56-9.89,0.2-19.64-5.56-28.33
		c-0.46-0.7-0.73-2.37-0.41-2.59c0.82-0.56,2.12-0.93,3.06-0.7c10.62,2.67,21.43,4.8,31.74,8.38c18.02,6.27,30.96,19.4,43.41,33.34
		c16.13,18.06,33.75,34.74,55.73,45.57c7.75,3.82,16.62,5.86,25.22,7.39c18.01,3.2,36.17,5.61,54.29,8.16
		c7.13,1,13.68,3.3,18.89,8.24C504.61,291.3,505.77,294.52,507.41,297.23z M318.06,450.93c-1.18,0.55-2.39,1.04-3.54,1.65
		c-5.13,2.74-7.44,1.43-7.47-4.45c-0.01-1.96,0.29-4.02,0.92-5.87c1.75-5.19,3.78-10.29,5.63-15.45c2.6-7.24,5.15-14.5,7.72-21.75
		c-0.47-0.2-0.94-0.4-1.41-0.6c-0.69,1.2-1.42,2.38-2.06,3.61c-7.29,14.12-12.34,29.04-16.05,44.46c-0.54,2.24-1.66,4.83-3.37,6.21
		c-3.87,3.11-8.12,5.84-12.49,8.23c-13.15,7.19-15.64,8.45-19.35-9.12c-1.57-7.43,0.04-13.69,5.39-20.05
		c8.42-10.01,15.23-21.37,22.69-32.19c0.17-0.25-0.04-0.76-0.11-1.51c-7.28,9.39-14.29,18.48-21.37,27.52
		c-1.11,1.41-2.32,2.91-3.82,3.79c-1.45,0.85-3.7,1.72-4.91,1.14c-1.01-0.49-1.47-3.09-1.37-4.7c0.35-5.56,1.06-11.1,1.64-16.75
		c-11,1.2-22.58,7.14-31.24,15.45c-14.91,14.32-22.89,32.81-31.49,51.04c-6.31,13.37-7.49,27.69-9.51,41.95
		c2.48-7.03,4.4-14.21,6.5-21.34c7.51-25.45,17.55-49.58,37.47-68.17c4.71-4.4,9.82-8.52,15.26-11.94c4.14-2.61,7.47-1.04,7.99,2.86
		c1.38,10.4,2.55,20.83,3.82,31.25c0.8,6.58,1.37,13.21,2.52,19.74c1.19,6.76,5.22,7.49,10.91,3.14c6.02-4.6,12.45-8.74,19.03-12.51
		c7.88-4.52,16.71-7.6,21.97-15.75c4.04,2.14,3.34,5.68,2.66,9.17c-3.96,20.17-8.39,40.2-18.28,58.89c0.76-0.23,1.16-0.22,1.3-0.41
		c11.59-15.88,20.34-33.07,23.96-52.56c1.56-8.41,1.45-16.72-2.66-24.87C322.51,444.55,320.29,447.74,318.06,450.93z M259.39,550.61
		c8.14-10.26,17.01-21.39,25.78-32.6c1.21-1.55,2.02-3.45,2.8-5.28c3.55-8.38,1.27-14.14-7.08-17.56c-2.44-1-5.07-1.91-7.66-2.11
		c-6.07-0.47-10.64-3.45-14.67-7.66c-2.19-2.29-4.26-4.7-6.62-6.79c-4.56-4.04-9.84-6.17-15.48-2.69
		c-5.02,3.1-10.3,6.34-14.14,10.69c-8.7,9.86-16.11,34.61-14.71,48.83c5.59-5.15,10.07-11.61,15.97-16.25
		c14.25-11.22,33.54-4.9,35.71,14.88C259.91,539.74,259.39,545.52,259.39,550.61z M247.7,322.04c5.38-3.02,9.44-5.25,13.45-7.57
		c17.48-10.1,35.62-12.84,55.13-6.21c8.46,2.87,17.33,4.8,26.16,6.23c13.53,2.2,20.73-2.11,25.85-14.78
		c0.78-1.94-0.07-4.54-0.17-6.84c-0.52-0.07-1.05-0.13-1.57-0.2c-8.12,11.48-19.42,13.94-32.27,11.45
		c-8.48-1.64-16.9-3.63-25.32-5.59C287.65,293.59,261.17,303.33,247.7,322.04z M242.13,353.46c8.65-1.23,15.16,1.03,21.33,4.63
		c3.6,2.09,7.14,4.28,10.82,6.22c1.21,0.63,2.93,1.15,4.14,0.79c12.92-3.85,23.82-10.79,32.94-22.26c-10.78,4.01-20.58,2-30.22-0.41
		C266.5,338.75,254.01,342.14,242.13,353.46z M372.45,436.58c5.94-10.37,5.65-20.98,0.84-31.14c-6.15-13-13.19-25.57-20.18-38.95
		c-3.72,9.42-5.92,18.43-4.91,28.09c0.46,4.35,2.26,7.61,5.7,10.52C363.69,413.35,371.16,423.14,372.45,436.58z M255.54,296.15
		c3.9-2.38,7.72-4.93,11.72-7.12c12.24-6.71,25.8-8.15,39.32-10.19c11.27-1.7,22.58-3.95,33.41-7.4
		c7.92-2.52,14.57-8.05,18.76-15.67c1.71-3.11,2.1-7.13-1.23-8.85c-1.5-0.77-5.82,1.33-7.17,3.29
		c-8.71,12.6-21.51,17.77-35.68,20.82c-12.5,2.69-25.03,5.25-37.45,8.26C267.6,281.62,261.32,288.65,255.54,296.15z M399.79,420.5
		c10.46-14.63,12.84-35.59,5.95-51.66c-4.11-9.59-9.07-18.83-13.76-28.17c-5.3-10.55-7.73-20.96,0.82-31.78
		c-3.18,0.2-6.7,0.27-8.52,2.06c-9.11,8.93-12.15,16.28-3.38,27.35c1.55,1.95,3.15,3.86,4.77,5.76c7.36,8.62,12.2,18.6,15.29,29.38
		C405.33,388.68,404.41,403.96,399.79,420.5z M215.41,382.16c-10.55,7.95-16.25,16.69-18.79,28.05c-1.01,4.51-0.31,8.57,2.87,12.02
		c3.8,4.11,7.14,4.51,10.82,1.42c5.33-4.48,6.7-9.01,3.12-13.11c-4.87-5.57-4.38-11.48-2.29-17.7
		C212.27,389.47,213.77,386.21,215.41,382.16z M424.77,374.12c0.61-0.07,1.23-0.13,1.84-0.2c-0.72-8.4-1.06-16.85-2.23-25.18
		c-2.44-17.42-3.92-34.46,8.34-49.46c1.81-2.22,1.92-5.83,2.82-8.8c-0.55-0.3-1.1-0.61-1.64-0.91c-1.38,0.99-3.33,1.67-4.05,3.02
		c-4.13,7.7-9.4,15.18-11.61,23.44C412.89,336.03,421.88,354.81,424.77,374.12z M238.75,557.63c0.81-2.62,2.11-5.19,2.34-7.86
		c0.75-8.77-5.47-12.84-13.37-9.02c-2.38,1.16-4.96,1.94-7.27,3.23c-2.37,1.33-4.51,3.06-6.76,4.62
		C229.25,545.17,233.7,546.72,238.75,557.63z"/>
	<path d="M259.39,550.61c0-5.08,0.53-10.87-0.1-16.53c-2.17-19.78-21.46-26.1-35.71-14.88c-5.9,4.64-10.37,11.1-15.97,16.25
		c-1.39-14.22,6.01-38.97,14.71-48.83c3.84-4.35,9.12-7.59,14.14-10.69c5.64-3.49,10.92-1.36,15.48,2.69
		c2.36,2.09,4.43,4.51,6.62,6.79c4.03,4.21,8.6,7.19,14.67,7.66c2.6,0.2,5.22,1.11,7.66,2.11c8.35,3.43,10.63,9.18,7.08,17.56
		c-0.78,1.83-1.59,3.73-2.8,5.28C276.4,529.22,267.52,540.35,259.39,550.61z"/>
	<path d="M317.97,450.82c-5.26,8.15-14.08,11.23-21.96,15.75c-6.58,3.77-13.01,7.92-19.03,12.51c-5.69,4.34-9.72,3.62-10.91-3.14
		c-1.15-6.52-1.72-13.15-2.52-19.74c-1.27-10.42-2.44-20.84-3.82-31.25c-0.52-3.91-3.84-5.47-7.99-2.86
		c-5.44,3.43-10.54,7.55-15.26,11.94c-19.92,18.59-29.96,42.71-37.47,68.17c-2.1,7.13-4.02,14.31-6.5,21.34
		c2.02-14.25,3.2-28.58,9.51-41.95c8.6-18.23,16.58-36.72,31.49-51.04c8.65-8.31,20.23-14.25,31.24-15.45
		c-0.58,5.66-1.29,11.19-1.64,16.75c-0.1,1.61,0.37,4.21,1.37,4.7c1.21,0.58,3.46-0.29,4.91-1.14c1.5-0.88,2.72-2.38,3.82-3.79
		c7.08-9.04,14.09-18.13,21.37-27.52c0.07,0.75,0.28,1.27,0.11,1.51c-7.46,10.81-14.27,22.17-22.69,32.19
		c-5.35,6.36-6.96,12.62-5.39,20.05c3.71,17.57,6.2,16.31,19.35,9.12c4.37-2.39,8.62-5.12,12.49-8.23c1.71-1.37,2.83-3.96,3.37-6.21
		c3.7-15.43,8.76-30.34,16.05-44.46c0.63-1.23,1.37-2.41,2.06-3.61c0.47,0.2,0.94,0.4,1.41,0.6c-2.57,7.25-5.12,14.51-7.72,21.75
		c-1.86,5.16-3.88,10.26-5.63,15.45c-0.63,1.86-0.93,3.91-0.92,5.87c0.03,5.89,2.33,7.19,7.47,4.45c1.15-0.61,2.36-1.11,3.54-1.65
		L317.97,450.82z"/>
	<path d="M247.7,322.04c13.47-18.72,39.96-28.45,61.27-23.5c8.42,1.96,16.84,3.95,25.32,5.59c12.85,2.49,24.15,0.02,32.27-11.45
		c0.52,0.07,1.05,0.13,1.57,0.2c0.1,2.3,0.95,4.9,0.17,6.84c-5.12,12.67-12.32,16.97-25.85,14.78c-8.83-1.43-17.7-3.35-26.16-6.23
		c-19.51-6.63-37.65-3.89-55.13,6.21C257.14,316.79,253.07,319.02,247.7,322.04z"/>
	<path d="M242.13,353.46c11.87-11.32,24.36-14.71,39.02-11.04c9.63,2.41,19.44,4.42,30.22,0.41c-9.12,11.47-20.02,18.41-32.94,22.26
		c-1.21,0.36-2.93-0.15-4.14-0.79c-3.68-1.93-7.23-4.12-10.82-6.22C257.29,354.49,250.78,352.23,242.13,353.46z"/>
	<path d="M372.45,436.58c-1.3-13.44-8.77-23.23-18.54-31.49c-3.44-2.91-5.25-6.16-5.7-10.52c-1.01-9.65,1.18-18.67,4.91-28.09
		c6.98,13.38,14.03,25.95,20.18,38.95C378.1,415.6,378.39,426.21,372.45,436.58z"/>
	<path d="M255.54,296.15c5.78-7.5,12.06-14.53,21.68-16.86c12.42-3.01,24.95-5.57,37.45-8.26c14.17-3.05,26.97-8.21,35.68-20.82
		c1.36-1.96,5.68-4.07,7.17-3.29c3.33,1.72,2.94,5.74,1.23,8.85c-4.19,7.62-10.84,13.15-18.76,15.67
		c-10.83,3.44-22.14,5.7-33.41,7.4c-13.52,2.04-27.08,3.48-39.32,10.19C263.26,291.23,259.44,293.77,255.54,296.15z"/>
	<path d="M399.79,420.5c4.62-16.54,5.54-31.82,1.17-47.06c-3.09-10.78-7.93-20.76-15.29-29.38c-1.62-1.9-3.22-3.81-4.77-5.76
		c-8.77-11.07-5.72-18.41,3.38-27.35c1.83-1.79,5.34-1.86,8.52-2.06c-8.55,10.82-6.12,21.23-0.82,31.78
		c4.69,9.34,9.64,18.57,13.76,28.17C412.63,384.91,410.25,405.87,399.79,420.5z"/>
	<path d="M215.41,382.16c-1.63,4.05-3.13,7.31-4.27,10.69c-2.09,6.21-2.58,12.12,2.29,17.7c3.58,4.1,2.21,8.63-3.12,13.11
		c-3.68,3.09-7.02,2.69-10.82-1.42c-3.19-3.45-3.88-7.51-2.87-12.02C199.16,398.85,204.85,390.12,215.41,382.16z"/>
	<path d="M318.06,450.93c2.22-3.19,4.45-6.38,6.9-9.9c4.11,8.15,4.22,16.45,2.66,24.87c-3.62,19.49-12.38,36.68-23.96,52.56
		c-0.14,0.19-0.54,0.18-1.3,0.41c9.88-18.69,14.32-38.72,18.28-58.89c0.68-3.48,1.38-7.03-2.66-9.17
		C317.97,450.82,318.06,450.93,318.06,450.93z"/>
	<path d="M424.77,374.12c-2.89-19.31-11.88-38.09-6.53-58.1c2.21-8.27,7.48-15.74,11.61-23.44c0.72-1.34,2.67-2.03,4.05-3.02
		c0.55,0.3,1.1,0.61,1.64,0.91c-0.9,2.97-1.01,6.58-2.82,8.8c-12.26,15-10.78,32.04-8.34,49.46c1.17,8.33,1.51,16.78,2.23,25.18
		C426,373.99,425.38,374.05,424.77,374.12z"/>
	<path d="M238.75,557.63c-5.06-10.9-9.51-12.45-25.05-9.03c2.24-1.56,4.38-3.3,6.76-4.62c2.3-1.29,4.88-2.07,7.27-3.23
		c7.89-3.82,14.12,0.25,13.37,9.02C240.86,552.43,239.56,555.01,238.75,557.63z"/>
</g>
</svg>
