<?xml version="1.0" encoding="utf-8"?>
<!-- Generator: Adobe Illustrator 24.3.0, SVG Export Plug-In . SVG Version: 6.00 Build 0)  -->
<svg version="1.1" id="Layer_1" xmlns="http://www.w3.org/2000/svg" xmlns:xlink="http://www.w3.org/1999/xlink" x="0px" y="0px"
	 viewBox="0 0 612 792" style="enable-background:new 0 0 612 792;" xml:space="preserve">
<style type="text/css">
	.st0{fill:#FFFFFF;}
</style>
<g>
	<path class="st0" d="M610.04,298.99c0,101.67,0,203.34,0,305.01c-203.35,0-406.69,0-610.04,0c0-46.62,0-93.23,0-139.85
		c0.74,0.24,1.51,0.76,2.22,0.69c17.1-1.57,33.78-4.55,48.48-14.28c1.47-0.97,3.25-1.47,4.89-2.19c-0.62-0.9-1.25-1.8-1.87-2.71
		c-1.78,0-3.65-0.38-5.31,0.06c-14.92,3.94-29.81,7.98-44.67,12.14c-1.39,0.39-2.5,1.76-3.75,2.67c0-53.85,0-107.7,0-161.55
		c22.72,7.43,45.44,14.84,68.15,22.31c6.12,2.01,8.6,13.06,3.87,17.49c-8.06,7.54-16.28,14.92-24.57,22.5
		c0.69,0.52,1.66,1.26,2.63,1.99c-0.67-0.5-1.33-1-2-1.5c-4.91,5.88-9.88,11.71-14.68,17.67c-0.82,1.02-0.93,2.62-1.37,3.96
		c1.37-0.19,3.04,0.06,4.07-0.63c5.54-3.73,10.92-7.69,17.59-12.45c-4.16,7.98-13.97,9.53-14.79,17.92
		c0.45,0.46,0.91,0.91,1.36,1.37c8.18-5.92,16.36-11.84,24.54-17.76c0.47,0.6,0.94,1.21,1.41,1.81c-3.02,2.61-6.03,5.23-9.05,7.84
		c0.06,0.51,0.13,1.03,0.19,1.54c3.65-0.31,7.31-0.61,11.47-0.96c-2.58,1.61-5.07,2.69-6.87,4.47c-1.28,1.26-1.62,3.45-2.38,5.23
		c1.84-0.19,3.95,0.12,5.45-0.69c3.2-1.74,6.09-4.08,9.37-6.35c0.57,3.88,1,6.82,1.48,10.05c-2.86,1.62-5.94,3.09-8.71,5.02
		c-2.38,1.66-7.2,1.78-5.31,7.02c2.82-0.17,5.42-0.33,9.81-0.6c-8.98,4.48-16.25,8.11-24.41,12.18c2.41,1.37,3.78,2.16,5.95,3.4
		c-10.77,5.6-20.92,10.91-31.11,16.14c-2.32,1.19-4.85,1.98-7.15,3.19c-0.98,0.52-1.64,1.65-2.45,2.5c2.5,1.11,4.41,1.05,6.22,0.58
		c5.83-1.53,11.73-2.91,17.4-4.91c17.05-6.03,33.99-12.4,51.04-18.42c1.99-0.7,4.45-0.1,6.7-0.1c-0.05,0.49-0.1,0.99-0.15,1.48
		c-7.21,3.29-14.42,6.59-21.63,9.88c0.34,1.02,0.67,2.04,1.01,3.06c8.09-1.72,16.18-3.43,24.27-5.15c0.12,0.39,0.24,0.78,0.36,1.18
		c-2.54,1.17-5.08,2.33-8.49,3.9c2.31,0.9,3.61,1.41,5.83,2.28c-2.75,1.49-4.57,2.73-6.57,3.52c-4.86,1.92-9.9,3.39-14.65,5.53
		c-1.76,0.79-2.89,2.96-4.3,4.51c0.41,0.48,0.83,0.97,1.24,1.45c2.55-0.32,5.18-0.35,7.65-1c12.24-3.22,24.42-6.67,36.66-9.88
		c2.12-0.55,4.44-0.3,6.68-0.43c-0.5,2.03-0.65,4.23-1.56,6.06c-10.38,20.82-20.88,41.58-31.31,62.37
		c-0.63,1.26-1.01,2.65-1.94,5.13c2.97-1.4,4.77-2.19,6.53-3.08c20.49-10.27,41.01-20.49,61.43-30.88c2.99-1.52,4.99-1.73,7.99,0.43
		c8.63,6.21,17.58,12.01,26.61,17.65c2.83,1.77,4.25,3.18,3.92,6.94c-0.72,8.27,3.89,15.31,11.02,18.33
		c7.29,3.09,15.4,1.59,20.95-4.58c2.26-2.51,3.99-2.75,7.13-1.97c13.25,3.3,26.55,6.45,39.95,9.05c4.97,0.97,7.76,2.87,9.33,7.78
		c6.61,20.63,13.53,41.16,20.36,61.71c0.72,2.15,1.61,4.25,2.99,7.85c6.58-19.73,12.64-37.93,18.79-56.36
		c28.04,9.76,56.44,14.02,85.16,16.43c0.28-1.02,0.55-2.04,0.83-3.07c-9.78-4.13-20.61-5.44-30.55-9.82
		c1.76-0.79,3.51-1.04,5.28-1.19c1.48-0.13,3.48,0.43,4.37-0.34c3.44-2.96,6.45-1.64,10.03-0.27c5.39,2.07,10.99,3.8,16.64,4.92
		c3.56,0.7,7.46,0.11,5.48-6.08c11.47,3.25,22.38,6.49,33.38,9.41c5.07,1.34,9.46,0.13,12.47-5.56
		c-11.54-1.97-21.43-6.62-31.7-14.48c3.5,0.47,5.38,1.19,7.02,0.82c2.41-0.53,4.65-1.84,6.97-2.82c-1.72-1.62-3.17-3.78-5.2-4.76
		c-6.11-2.95-13.16-4.47-18.49-8.39c-4.98-3.66-8.22-9.68-12.22-14.66c-0.41,0.4-0.82,0.81-1.23,1.21c2.26-0.45,4.53-0.91,7.29-1.46
		c-2.16-2.36-3.85-4.19-5.24-5.71c10.9-7.47,21.39-14.87,32.16-21.84c1.62-1.05,4.93-0.86,6.81,0.07
		c21.29,10.46,42.45,21.19,63.66,31.82c1.81,0.91,3.71,1.64,6.96,3.06c-10.14-20.27-19.47-38.93-29.16-58.31
		c10.93,0.74,18.92-2.79,22.45-12.14c2.95-7.8,9.68-14.96,2.95-24.91c-4.36-6.45-1.34-13.03,4.83-17.89
		c8.66-6.82,9.35-19.2,1.76-27.77c-1.23-1.39-2.45-3.8-2.11-5.41c2.75-12.94,5.56-25.88,9.12-38.61c0.86-3.07,4.13-6.72,7.11-7.76
		C563.78,314.02,586.94,306.59,610.04,298.99z M466.36,567.74c-12.67-5.84-24.72-8.83-38.45-5.26
		C432.66,567.68,461.39,571.72,466.36,567.74z"/>
	<path d="M610.04,298.99c-23.1,7.61-46.26,15.04-69.22,23.04c-2.98,1.04-6.25,4.69-7.11,7.76c-3.56,12.73-6.37,25.67-9.12,38.61
		c-0.34,1.61,0.88,4.02,2.11,5.41c7.59,8.57,6.91,20.94-1.76,27.77c-6.17,4.86-9.19,11.44-4.83,17.89c6.73,9.95,0,17.12-2.95,24.91
		c-3.54,9.35-11.52,12.88-22.45,12.14c9.69,19.38,19.03,38.05,29.16,58.31c-3.26-1.42-5.15-2.15-6.96-3.06
		c-21.21-10.63-42.37-21.36-63.66-31.82c-1.88-0.93-5.19-1.11-6.81-0.07c-10.77,6.97-21.26,14.36-32.16,21.84
		c1.39,1.51,3.07,3.35,5.24,5.71c-2.76,0.55-5.03,1.01-7.29,1.46c0.41-0.4,0.82-0.81,1.23-1.21c4,4.98,7.24,10.99,12.22,14.66
		c5.32,3.92,12.37,5.44,18.49,8.39c2.03,0.98,3.48,3.14,5.2,4.76c-2.31,0.98-4.55,2.28-6.97,2.82c-1.64,0.36-3.51-0.36-7.02-0.82
		c10.27,7.86,20.16,12.51,31.7,14.48c-3.01,5.69-7.41,6.9-12.47,5.56c-11-2.92-21.91-6.16-33.38-9.41c1.98,6.19-1.92,6.79-5.48,6.08
		c-5.66-1.12-11.25-2.85-16.64-4.92c-3.58-1.38-6.59-2.69-10.03,0.27c-0.89,0.77-2.89,0.21-4.37,0.34c-1.77,0.16-3.53,0.4-5.28,1.19
		c9.93,4.38,20.76,5.69,30.55,9.82c-0.28,1.02-0.55,2.04-0.83,3.07c-28.71-2.41-57.11-6.67-85.16-16.43
		c-6.15,18.44-12.21,36.63-18.79,56.36c-1.38-3.6-2.27-5.7-2.99-7.85c-6.83-20.56-13.75-41.09-20.36-61.71
		c-1.57-4.9-4.36-6.81-9.33-7.78c-13.4-2.61-26.7-5.76-39.95-9.05c-3.14-0.78-4.87-0.54-7.13,1.97c-5.55,6.17-13.66,7.67-20.95,4.58
		c-7.13-3.02-11.74-10.06-11.02-18.33c0.33-3.75-1.09-5.17-3.92-6.94c-9.03-5.64-17.98-11.44-26.61-17.65c-3-2.16-5-1.95-7.99-0.43
		c-20.43,10.39-40.94,20.62-61.43,30.88c-1.76,0.88-3.56,1.68-6.53,3.08c0.92-2.47,1.3-3.86,1.94-5.13
		c10.44-20.79,20.94-41.55,31.31-62.37c0.91-1.82,1.06-4.03,1.56-6.06c-2.23,0.12-4.56-0.13-6.68,0.43
		c-12.24,3.2-24.42,6.65-36.66,9.88c-2.47,0.65-5.1,0.68-7.65,1c-0.41-0.48-0.83-0.97-1.24-1.45c1.42-1.54,2.55-3.71,4.3-4.51
		c4.75-2.14,9.79-3.62,14.65-5.53c2-0.79,3.82-2.03,6.57-3.52c-2.22-0.87-3.53-1.38-5.83-2.28c3.41-1.56,5.95-2.73,8.49-3.9
		c-0.12-0.39-0.24-0.78-0.36-1.18c-8.09,1.72-16.18,3.43-24.27,5.15c-0.34-1.02-0.67-2.04-1.01-3.06
		c7.21-3.29,14.42-6.59,21.63-9.88c0.05-0.49,0.1-0.99,0.15-1.48c-2.24,0-4.7-0.61-6.7,0.1c-17.06,6.03-33.99,12.39-51.04,18.42
		c-5.67,2-11.57,3.38-17.4,4.91c-1.81,0.48-3.72,0.53-6.22-0.58c0.81-0.85,1.47-1.98,2.45-2.5c2.31-1.21,4.83-2,7.15-3.19
		c10.19-5.23,20.33-10.54,31.11-16.14c-2.17-1.24-3.54-2.02-5.95-3.4c8.15-4.07,15.43-7.7,24.41-12.18
		c-4.39,0.27-6.99,0.43-9.81,0.6c-1.89-5.24,2.93-5.37,5.31-7.02c2.77-1.93,5.85-3.4,8.71-5.02c-0.48-3.24-0.91-6.18-1.48-10.05
		c-3.28,2.28-6.16,4.61-9.37,6.35c-1.5,0.82-3.61,0.5-5.45,0.69c0.76-1.78,1.11-3.97,2.38-5.23c1.8-1.77,4.29-2.85,6.87-4.47
		c-4.17,0.35-7.82,0.66-11.47,0.96c-0.06-0.51-0.13-1.03-0.19-1.54c3.02-2.61,6.03-5.23,9.05-7.84c-0.47-0.6-0.94-1.21-1.41-1.81
		c-8.18,5.92-16.36,11.84-24.54,17.76c-0.45-0.46-0.91-0.91-1.36-1.37c0.82-8.39,10.63-9.94,14.79-17.92
		c-6.67,4.76-12.05,8.72-17.59,12.45c-1.03,0.69-2.7,0.45-4.07,0.63c0.44-1.33,0.54-2.93,1.37-3.96c4.8-5.97,9.77-11.79,14.68-17.67
		c0.67,0.5,1.33,1,2,1.5c-0.97-0.74-1.94-1.47-2.63-1.99c8.29-7.58,16.5-14.96,24.57-22.5c4.74-4.43,2.26-15.48-3.87-17.49
		C45.44,313.83,22.72,306.42,0,298.99c0-0.4,0-0.8,0-1.21c19.44-6.48,38.72-13.51,58.4-19.2c10.14-2.93,15.44-7.05,16.36-18.56
		c1.02-12.81,5.24-25.37,8.09-38.12c-9.12-7.02-12.1-14.99-8.75-23.7c3.4-8.84,10.2-11.95,24.46-11.24
		c4.16-6.67,7.9-13.6,12.57-19.84c3.3-4.41,3.21-8.19,1.79-13.21c-3.33-11.72-6.84-23.55-8.33-35.57
		c-1.07-8.64-3.55-16.25-7.59-23.7c-2.54-4.68-4.73-9.54-7.53-15.23c5.25,1.29,9.44,2.32,13.62,3.36c0.23-0.34,0.47-0.68,0.7-1.01
		c-4.51-4.28-9.01-8.55-13.52-12.83c0.31-0.65,0.62-1.3,0.93-1.95c4.16,1.09,8.32,2.17,12.82,3.35c0.63-5.1,1.33-10.8,2.04-16.5
		c0.75-0.1,1.5-0.19,2.25-0.29c1.64,3.86,3.28,7.72,4.55,10.73c1.49,0,3.63-0.56,4.13,0.1c1.6,2.13,3.39,4.63,3.65,7.14
		c0.5,4.8,2.61,7.58,7.04,9.4c11.14,4.57,22.32,9.1,33.17,14.28c15.01,7.17,14.85,7.36,29.22-0.94c2.57-1.48,3.61-2.8,3.38-6.02
		c-0.65-8.88,3.68-15.73,11.12-18.83c7.54-3.14,15.04-1.24,21.53,4.88c1.31,1.24,4.1,1.85,5.91,1.45
		c6.66-1.48,13.16-3.71,19.81-5.24c4.84-1.11,6.75-3.73,5.5-9.15c4.09,0,7.76,0,11.44,0c0.2-0.4,0.4-0.79,0.6-1.19
		c-13.27-7.98-26.55-15.96-39.82-23.94c0.11-0.64,0.23-1.29,0.34-1.93c2.21,0.2,4.69-0.19,6.59,0.69
		c10.39,4.8,20.63,9.93,30.94,14.91c0.87,0.42,1.86,0.6,2.79,0.89c0.17-0.28,0.34-0.56,0.51-0.84c-3.45-2.75-6.9-5.49-10.35-8.24
		c0.73-1,1.46-1.99,2.19-2.99c8.34,3.78,16.68,7.56,25.34,11.49C293.52,33.1,298.97,16.55,304.42,0c0.4,0,0.81,0,1.21,0
		c6.76,20.36,13.62,40.69,20.17,61.12c1.16,3.63,2.91,4.75,6.59,5.43c13.42,2.47,26.8,5.32,40.06,8.55
		c3.61,0.88,5.68,0.64,8.27-2.12c5.59-5.98,13.94-7.31,21.06-4.03c6.95,3.2,10.95,10,10.63,18.06c-0.06,1.38-0.2,2.76-0.24,3.27
		c12.09,8.29,23.83,16.02,35.17,24.3c3.38,2.47,5.68,3,9.46,1.04c18.38-9.5,36.92-18.7,55.42-27.97c1.77-0.89,3.64-1.57,7.05-3.03
		c-11.27,22.36-21.59,42.96-32.09,63.48c-1.47,2.88-1.32,4.7,0.61,7.43c6.38,9,12.42,18.25,18.28,27.59c1.67,2.67,3,3.97,6.5,3.69
		c3.45-0.27,7.39,0.26,10.47,1.76c10.6,5.16,21.21,9.1,33.21,5.55c0.92-0.27,1.99,0.01,2.98-0.08c10.07-0.92,20.31-1,30.14-3.05
		c8.69-1.81,15.23,1.76,12.9,10.03c-3,10.63-7.16,21.17-12.48,30.84c-3.98,7.24-9.06,13.42-7.88,22.48c0.45,3.4-0.83,7.15-1.83,10.6
		c-1.95,6.71-4.26,13.31-6.51,20.25c12.23,4.22,24.35,8.4,36.47,12.57C610.04,298.18,610.04,298.58,610.04,298.99z M521.64,334.28
		c0.43,0.27,0.87,0.54,1.3,0.82c5.49-7.04,12.19-13.47,16.14-21.28c3.98-7.88,9.63-10.55,17.43-11.5c1.73-0.21,3.98-1.18,4.85-2.54
		c9.28-14.36,16.02-30.07,16.77-47.07c0.41-9.25,4.61-15.47,8.59-22.78c4.92-9.03,8.72-18.77,11.96-28.55
		c1.94-5.84-1.67-8.26-7.84-6.89c-6.44,1.43-12.97,2.66-19.53,3.35c-5.27,0.55-10.65,0.15-15.98,0.22
		c-4.67,0.06-9.4,0.72-13.99,0.16c-22.14-2.68-44.25-5.62-66.35-8.61c-3.82-0.52-9.11,4.06-11.16-1.58
		c-1.3-3.6,0.03-8.31,0.73-12.44c1.12-6.6-0.72-10.85-6.92-13.47c-4.06-1.71-8.31-3.01-12.52-4.36c-11.86-3.8-23.88-7.17-35.6-11.38
		c-17.22-6.2-29.98-19.32-44.33-29.87c-8.69-6.39-16.66-13.92-24.21-21.67c-18.83-19.3-39.85-35.3-64.84-45.66
		c0.29,5.5-4.03,5.47-7.4,6.51c4.29,3.51,8.59,7.02,13.6,11.12c-7.1,4.22-11.68-1.91-17.1-1.96c-0.98,1.39-2.04,2.89-3.37,4.77
		c4.96,3.09,9.93,6.04,14.72,9.25c1.37,0.92,2.22,2.61,3.31,3.95c-4.74,2.68,2.39,3.19,0.96,5.45c-1.87,0.27-3.76,0.54-6.02,0.86
		c10.73,6.09,10.77,6.1,8,18.85c-0.62,2.85-2.39,5.62-2.34,8.41c0.13,7.19-1.06,8.44-8.18,8.99c-5.54,0.42-11.06,1.61-16.47,2.92
		c-5.65,1.37-11.11,3.5-16.75,4.92c-4.7,1.18-8.7,0.06-12.75-3.27c-5.7-4.68-11.86-9.26-18.58-12.15
		c-24.72-10.62-49.75-20.53-74.67-30.7c-7.22-2.95-15.57-4.59-16.76-14.49c-0.3,1.85-0.6,3.71-0.9,5.56
		c-0.52,0.18-1.04,0.36-1.56,0.54c-1.94-3.44-3.88-6.88-6.12-10.85c-0.72,7.25-1.39,14.08-2.05,20.74c0.53,3.92,1.18,8.05,1.63,12.2
		c1.33,12.12,1.5,24.49,4.13,36.31c3.38,15.23,8.65,30.05,13.2,45.02c1.28,4.19,2.28,8.64,4.48,12.34c2.91,4.9,2.46,8.59-0.77,13.16
		c-5.76,8.13-10.83,16.74-16.19,25.15c8.67-4.49,15.54-11.9,27.23-11.1c-17.48,23.77-40.57,40.44-60.32,60.68
		c6.52-3.3,12.35-7.56,18.39-11.52c2.63-1.72,5.68-2.8,8.54-4.18c0.49,0.77,0.98,1.54,1.47,2.31c-5.82,6.09-11.63,12.18-17.45,18.28
		c0.43,0.42,0.87,0.83,1.3,1.25c3.07-2.49,6.06-5.1,9.23-7.45c3.86-2.87,7.54-6.77,11.92-7.96c5.2-1.41,7.84-4.57,11.18-8.13
		c5.55-5.92,14.02-6.82,21.19-10c0.24-0.1,0.85,0.64,1.46,1.13c-0.69,1.11-1.23,2.17-1.95,3.1C119.94,290.29,95.94,321.8,66.91,349
		c-2.95,2.76-5.1,6.37-8.21,10.33c4.86-1.08,8.27-1.84,12.67-2.82c-2.42,3.8-4.14,6.5-6.52,10.23c2.95-1.1,4.68-1.74,7.53-2.81
		c-0.61,4.27-1.08,7.55-1.61,11.3c6.79-1.26,10.87-8.5,17.95-3.78c35.99-21.18,72.71-42.01,108.59-64.19
		c24.27-15,47.31-31.95,71.03-47.85c2.66-1.79,6.15-2.35,10.25-3.85c-0.61,2.09-0.6,2.58-0.84,2.8c-1.18,1.08-2.41,2.13-3.66,3.13
		c-32.18,25.93-64.26,51.98-96.61,77.71c-10.05,7.99-20.23,16.11-31.35,22.42c-23.48,13.34-47.62,25.54-71.5,38.2
		c-0.53,0.28-1.17,0.41-1.63,0.77c-0.46,0.36-0.76,0.93-1.56,1.97c6.01-0.51,11.32-4.83,17.11,0.49
		c-6.39,2.89-12.33,5.58-18.27,8.27c0.15,0.36,0.31,0.72,0.46,1.08c3.27-0.9,6.54-1.8,9.81-2.69c0.29,0.5,0.58,1,0.87,1.5
		c-1.46,1.21-2.77,2.75-4.42,3.57c-4.32,2.14-8.79,3.96-13.21,5.91c-5.81,2.57-5.81,2.57-8.67,7.78
		c15.93-5.59,32.21-11.38,48.56-16.94c2.24-0.76,4.88-0.37,7.33-0.51c0.28,0.78,0.56,1.56,0.84,2.35
		c-5.27,4.53-10.55,9.06-15.66,13.45c7.15-0.39,14.62-9.45,23.19-0.6c-2.36,1.08-4.31,1.95-6.23,2.86c-1.44,0.68-4.05,1.33-4.1,2.12
		c-0.4,6.62-6.24,6.18-10.13,8.26c-2.8,1.5-5.55,3.09-8.32,4.64c57.05-15.68,112.34-35.2,161.9-68.93
		c-0.23,3.62-0.94,6.49-2.37,8.94c-11.81,20.28-16.04,42.27-14.78,65.42c2.27,41.61,27.19,66.99,61.86,85.26
		c1.06,0.56,2.26,0.83,3.41,1.21c8.77,2.92,17.44,6.22,26.34,8.66c17.32,4.76,34.78,9.03,52.25,13.53
		c-1.79-3.38-2.95-5.57-4.11-7.77c2.92-1.53,5.77-3.22,8.79-4.5c1.33-0.57,3.02-0.44,4.53-0.42c4,0.07,8.11-0.24,11.97,0.56
		c3.76,0.78,7.26,2.76,10.88,4.21c0.15-0.35,0.31-0.7,0.46-1.04c-1.75-1.54-3.49-3.07-5.15-4.53c2.1-4.34,4.25-4.72,8.7-3.1
		c11.65,4.23,23.71,7.33,35.6,10.87c-9.57-6.13-19.18-11.67-27.59-18.89c0.33-0.68,0.66-1.35,0.99-2.03
		c5.98,1.12,11.96,2.24,17.94,3.36c-14.86-3.46-24.35-14.9-35.43-23.8c-7.02-5.64-13.2-12.31-19.76-18.52
		c0.59-0.75,1.18-1.5,1.77-2.26c5.91,3.81,11.81,7.63,17.72,11.44c-5.75-6.82-12.8-12.05-18.39-18.52
		c-6.48-7.5-12.31-15.74-17.18-24.35c-2.77-4.89-3.77-11.14-1.94-16.16c12.4,2,17.81,11.3,23.89,19.9c1.97,2.78,4.09,5.51,6.48,7.92
		c2.74,2.76,5.85,5.15,8.8,7.7c0.68-0.43,1.36-0.85,2.03-1.28c-1.1-3.09-1.81-6.39-3.39-9.22c-4.58-8.21-9.99-16-14.01-24.45
		c-1.34-2.82,0.51-7.16,0.9-10.81c2.87,0.34,6.15-0.11,8.53,1.16c11.66,6.2,23,12.99,34.63,19.24c2.79,1.5,6.64,3.07,9.35,2.3
		c7.93-2.25,15.07-4.6,24.1-4.18c8.4,0.39,16.93,0.41,25.38,1.74c7.48,1.17,14.23-1.36,17.15-8.27c3.2-7.57,10.22-14.85,3.47-24.45
		c-1.85-2.63-0.96-7.44-0.73-11.21c0.3-5,1.57-9.95,1.71-14.94c0.11-3.89-0.86-7.81-1.36-11.71c-0.57,0.04-1.13,0.07-1.7,0.11
		c-3,6.93-6.48,13.71-8.85,20.85c-1.88,5.67-5.5,8.7-10.79,10.24c-11.68,3.4-22.6-0.45-33.37-4.13c-1.76-0.6-3.33-4.07-3.57-6.36
		c-0.75-7.27-0.83-14.6-1.16-21.78c-0.57,0.79-1.38,2.08-2.35,3.24c-4.1,4.92-8.15,9.89-12.41,14.67
		c-3.53,3.95-7.38,4.41-11.07,0.07c-5.83-6.86-12.33-13.29-17.24-20.76c-5.45-8.29-11.74-15.34-20.4-20.03
		c-8.48-4.58-17.08-9-25.94-12.8c-6.58-2.82-5.95-7.57-3.29-11.41c8.7-12.54,17.94-24.7,26.74-37.17c4.59-6.51,9.65-8.7,17.77-5.96
		c12.12,4.08,24.7,6.8,37.07,10.17c9.61,2.62,9.53,2.68,10.92,12.65c0.35,2.5,1.45,4.9,1.91,7.4c0.35,1.89,0.46,3.88,0.25,5.79
		c-0.36,3.29-1.06,6.55-1.62,9.82c3.68-1.5,6.51-3.26,8.33-5.75c5.56-7.61,10.57-15.62,16.18-23.2c1.2-1.62,4.1-3.03,6.07-2.85
		c9.55,0.85,18.98,3.46,28.7,1.12c1.64-0.39,3.51,0.18,4.98,0.29c0.87,2.62,1.01,6.04,2.38,6.65c5.71,2.5,4.35,6.46,2.88,10.46
		C525.05,327.19,523.25,330.7,521.64,334.28z"/>
	<path class="st0" d="M304.42,0c-5.45,16.55-10.9,33.1-16.52,50.17c-8.66-3.92-17-7.7-25.34-11.49c-0.73,1-1.46,1.99-2.19,2.99
		c3.45,2.75,6.9,5.49,10.35,8.24c-0.17,0.28-0.34,0.56-0.51,0.84c-0.93-0.29-1.92-0.47-2.79-0.89
		c-10.31-4.98-20.55-10.1-30.94-14.91c-1.9-0.88-4.38-0.49-6.59-0.69c-0.11,0.64-0.23,1.29-0.34,1.93
		c13.27,7.98,26.55,15.96,39.82,23.94c-0.2,0.4-0.4,0.79-0.6,1.19c-3.67,0-7.34,0-11.44,0c1.25,5.42-0.66,8.03-5.5,9.15
		c-6.65,1.53-13.15,3.77-19.81,5.24c-1.82,0.4-4.6-0.21-5.91-1.45c-6.49-6.12-13.99-8.02-21.53-4.88
		c-7.44,3.1-11.77,9.95-11.12,18.83c0.23,3.22-0.81,4.54-3.38,6.02c-14.37,8.3-14.21,8.12-29.22,0.94
		c-10.85-5.19-22.03-9.72-33.17-14.28c-4.43-1.82-6.54-4.6-7.04-9.4c-0.26-2.51-2.05-5.01-3.65-7.14c-0.5-0.66-2.64-0.1-4.13-0.1
		c-1.28-3.01-2.91-6.87-4.55-10.73c-0.75,0.1-1.5,0.19-2.25,0.29c-0.7,5.7-1.41,11.4-2.04,16.5c-4.5-1.18-8.66-2.26-12.82-3.35
		c-0.31,0.65-0.62,1.3-0.93,1.95c4.51,4.28,9.01,8.55,13.52,12.83c-0.23,0.34-0.47,0.68-0.7,1.01c-4.19-1.03-8.37-2.06-13.62-3.36
		c2.8,5.7,4.99,10.56,7.53,15.23c4.04,7.44,6.52,15.06,7.59,23.7c1.49,12.02,5,23.85,8.33,35.57c1.42,5.01,1.51,8.8-1.79,13.21
		c-4.67,6.24-8.41,13.17-12.57,19.84c-14.25-0.71-21.05,2.41-24.46,11.24c-3.36,8.71-0.38,16.68,8.75,23.7
		c-2.85,12.75-7.06,25.31-8.09,38.12c-0.92,11.51-6.22,15.63-16.36,18.56c-19.67,5.68-38.95,12.72-58.4,19.2C0,198.52,0,99.26,0,0
		C101.47,0,202.94,0,304.42,0z M192.92,30.26c-0.45,0.99-0.9,1.97-1.34,2.96c7.36,7.56,19.09,5.36,27.57,10.5
		c0.61,0.37,2.56-1.46,3.89-2.27c-0.04-0.68-0.07-1.37-0.11-2.05C212.93,36.36,202.92,33.31,192.92,30.26z"/>
	<path class="st0" d="M610.04,297.78c-12.12-4.18-24.24-8.36-36.47-12.57c2.25-6.94,4.56-13.54,6.51-20.25
		c1-3.44,2.28-7.19,1.83-10.6c-1.19-9.06,3.89-15.24,7.88-22.48c5.32-9.67,9.48-20.21,12.48-30.84c2.33-8.27-4.21-11.84-12.9-10.03
		c-9.83,2.05-20.08,2.13-30.14,3.05c-0.99,0.09-2.06-0.19-2.98,0.08c-12,3.55-22.61-0.4-33.21-5.55c-3.08-1.5-7.02-2.03-10.47-1.76
		c-3.5,0.27-4.83-1.02-6.5-3.69c-5.86-9.35-11.89-18.6-18.28-27.59c-1.94-2.73-2.09-4.55-0.61-7.43
		c10.5-20.51,20.82-41.12,32.09-63.48c-3.41,1.46-5.28,2.14-7.05,3.03c-18.5,9.27-37.04,18.47-55.42,27.97
		c-3.78,1.95-6.08,1.42-9.46-1.04c-11.34-8.28-23.08-16.01-35.17-24.3c0.04-0.51,0.19-1.89,0.24-3.27
		c0.32-8.06-3.69-14.85-10.63-18.06c-7.12-3.28-15.47-1.95-21.06,4.03c-2.58,2.76-4.65,3-8.27,2.12
		c-13.26-3.24-26.63-6.08-40.06-8.55c-3.68-0.68-5.43-1.8-6.59-5.43C319.24,40.69,312.38,20.36,305.62,0C407.1,0,508.57,0,610.04,0
		C610.04,99.26,610.04,198.52,610.04,297.78z"/>
	<path d="M0,460.53c1.24-0.91,2.36-2.28,3.75-2.67c14.86-4.16,29.75-8.2,44.67-12.14c1.66-0.44,3.54-0.06,5.31-0.06
		c0.62,0.9,1.25,1.8,1.87,2.71c-1.64,0.72-3.42,1.22-4.89,2.19c-14.7,9.73-31.38,12.71-48.48,14.28c-0.71,0.07-1.48-0.45-2.22-0.69
		C0,462.95,0,461.74,0,460.53z M41.45,452.79c-0.29-0.6-0.57-1.2-0.86-1.8c-9.76,2.84-19.52,5.68-29.28,8.52
		c0.15,0.53,0.3,1.05,0.46,1.58C21.66,458.32,31.56,455.56,41.45,452.79z"/>
	<path d="M466.36,567.74c-4.96,3.98-33.7-0.06-38.45-5.26C441.64,558.91,453.69,561.9,466.36,567.74z"/>
	<path class="st0" d="M521.64,334.28c1.6-3.58,3.4-7.09,4.76-10.76c1.48-3.99,2.83-7.95-2.88-10.46c-1.38-0.6-1.51-4.03-2.38-6.65
		c-1.47-0.11-3.34-0.68-4.98-0.29c-9.71,2.34-19.15-0.28-28.7-1.12c-1.97-0.17-4.87,1.23-6.07,2.85
		c-5.61,7.57-10.62,15.58-16.18,23.2c-1.82,2.49-4.65,4.26-8.33,5.75c0.56-3.27,1.25-6.53,1.62-9.82c0.21-1.9,0.09-3.9-0.25-5.79
		c-0.46-2.5-1.56-4.89-1.91-7.4c-1.39-9.97-1.31-10.03-10.92-12.65c-12.36-3.37-24.95-6.08-37.07-10.17
		c-8.12-2.74-13.18-0.55-17.77,5.96c-8.79,12.47-18.04,24.63-26.74,37.17c-2.67,3.84-3.29,8.59,3.29,11.41
		c8.85,3.79,17.46,8.21,25.94,12.8c8.66,4.68,14.95,11.74,20.4,20.03c4.91,7.47,11.41,13.9,17.24,20.76
		c3.69,4.34,7.54,3.89,11.07-0.07c4.27-4.77,8.31-9.75,12.41-14.67c0.97-1.16,1.78-2.45,2.35-3.24c0.33,7.18,0.41,14.52,1.16,21.78
		c0.24,2.29,1.81,5.76,3.57,6.36c10.77,3.68,21.7,7.53,33.37,4.13c5.3-1.54,8.91-4.57,10.79-10.24c2.37-7.14,5.85-13.92,8.85-20.85
		c0.57-0.04,1.13-0.07,1.7-0.11c0.49,3.91,1.47,7.83,1.36,11.71c-0.14,4.99-1.41,9.94-1.71,14.94c-0.23,3.77-1.12,8.58,0.73,11.21
		c6.75,9.6-0.27,16.88-3.47,24.45c-2.92,6.91-9.68,9.44-17.15,8.27c-8.45-1.32-16.97-1.35-25.38-1.74
		c-9.03-0.42-16.17,1.93-24.1,4.18c-2.71,0.77-6.56-0.8-9.35-2.3c-11.63-6.25-22.97-13.04-34.63-19.24
		c-2.37-1.26-5.66-0.82-8.53-1.16c-0.39,3.65-2.24,7.98-0.9,10.81c4.02,8.46,9.44,16.24,14.01,24.45c1.57,2.82,2.28,6.13,3.39,9.22
		c-0.68,0.43-1.36,0.85-2.03,1.28c-2.95-2.55-6.06-4.94-8.8-7.7c-2.39-2.42-4.52-5.14-6.48-7.92c-6.08-8.6-11.49-17.9-23.89-19.9
		c-1.83,5.02-0.83,11.28,1.94,16.16c4.88,8.61,10.71,16.85,17.18,24.35c5.59,6.47,12.64,11.7,18.39,18.52
		c-5.91-3.81-11.81-7.63-17.72-11.44c-0.59,0.75-1.18,1.5-1.77,2.26c6.56,6.21,12.74,12.88,19.76,18.52
		c11.08,8.9,20.57,20.34,35.43,23.8c-5.98-1.12-11.96-2.24-17.94-3.36c-0.33,0.68-0.66,1.35-0.99,2.03
		c8.41,7.22,18.02,12.76,27.59,18.89c-11.9-3.55-23.96-6.64-35.6-10.87c-4.45-1.62-6.61-1.24-8.7,3.1c1.66,1.46,3.41,3,5.15,4.53
		c-0.15,0.35-0.31,0.7-0.46,1.04c-3.62-1.45-7.12-3.43-10.88-4.21c-3.86-0.8-7.97-0.49-11.97-0.56c-1.52-0.03-3.2-0.15-4.53,0.42
		c-3.02,1.29-5.87,2.98-8.79,4.5c1.16,2.19,2.32,4.39,4.11,7.77c-17.48-4.5-34.93-8.77-52.25-13.53c-8.9-2.45-17.57-5.75-26.34-8.66
		c-1.14-0.38-2.35-0.66-3.41-1.21c-34.66-18.27-59.58-43.65-61.86-85.26c-1.26-23.15,2.97-45.14,14.78-65.42
		c1.43-2.45,2.14-5.32,2.37-8.94c-49.56,33.73-104.85,53.24-161.9,68.93c2.77-1.55,5.52-3.15,8.32-4.64
		c3.89-2.08,9.73-1.63,10.13-8.26c0.05-0.79,2.66-1.44,4.1-2.12c1.93-0.91,3.87-1.78,6.23-2.86c-8.57-8.85-16.04,0.21-23.19,0.6
		c5.12-4.39,10.39-8.92,15.66-13.45c-0.28-0.78-0.56-1.56-0.84-2.35c-2.45,0.14-5.09-0.25-7.33,0.51
		c-16.36,5.56-32.63,11.35-48.56,16.94c2.86-5.21,2.86-5.21,8.67-7.78c4.41-1.95,8.89-3.77,13.21-5.91
		c1.66-0.82,2.96-2.36,4.42-3.57c-0.29-0.5-0.58-1-0.87-1.5c-3.27,0.9-6.54,1.8-9.81,2.69c-0.15-0.36-0.31-0.72-0.46-1.08
		c5.94-2.69,11.88-5.38,18.27-8.27c-5.8-5.32-11.11-1-17.11-0.49c0.8-1.04,1.1-1.6,1.56-1.97c0.46-0.36,1.1-0.48,1.63-0.77
		c23.87-12.66,48.01-24.86,71.5-38.2c11.12-6.32,21.3-14.43,31.35-22.42c32.34-25.73,64.43-51.78,96.61-77.71
		c1.25-1.01,2.48-2.05,3.66-3.13c0.24-0.22,0.23-0.71,0.84-2.8c-4.1,1.49-7.58,2.06-10.25,3.85
		c-23.72,15.89-46.76,32.85-71.03,47.85c-35.88,22.18-72.6,43-108.59,64.19c-7.08-4.72-11.16,2.52-17.95,3.78
		c0.53-3.75,1-7.02,1.61-11.3c-2.86,1.06-4.58,1.71-7.53,2.81c2.38-3.74,4.1-6.44,6.52-10.23c-4.41,0.98-7.81,1.74-12.67,2.82
		c3.11-3.96,5.26-7.57,8.21-10.33c29.03-27.21,53.03-58.71,77.49-89.83c0.72-0.92,1.26-1.99,1.95-3.1
		c-0.61-0.49-1.22-1.23-1.46-1.13c-7.17,3.17-15.64,4.07-21.19,10c-3.34,3.56-5.98,6.72-11.18,8.13c-4.38,1.19-8.06,5.09-11.92,7.96
		c-3.17,2.36-6.16,4.96-9.23,7.45c-0.43-0.42-0.87-0.83-1.3-1.25c5.82-6.09,11.63-12.18,17.45-18.28c-0.49-0.77-0.98-1.54-1.47-2.31
		c-2.86,1.37-5.91,2.45-8.54,4.18c-6.04,3.95-11.87,8.22-18.39,11.52c19.75-20.24,42.84-36.91,60.32-60.68
		c-11.69-0.79-18.56,6.62-27.23,11.1c5.36-8.41,10.43-17.02,16.19-25.15c3.23-4.57,3.68-8.26,0.77-13.16
		c-2.2-3.7-3.21-8.15-4.48-12.34c-4.55-14.97-9.82-29.79-13.2-45.02c-2.62-11.83-2.8-24.19-4.13-36.31
		c-0.45-4.15-1.1-8.27-1.63-12.2c0.66-6.66,1.33-13.49,2.05-20.74c2.24,3.97,4.18,7.41,6.12,10.85c0.52-0.18,1.04-0.36,1.56-0.54
		c0.3-1.85,0.6-3.71,0.9-5.56c1.2,9.9,9.54,11.54,16.76,14.49c24.92,10.17,49.95,20.08,74.67,30.7c6.72,2.89,12.88,7.47,18.58,12.15
		c4.05,3.33,8.05,4.45,12.75,3.27c5.64-1.42,11.1-3.55,16.75-4.92c5.41-1.31,10.93-2.5,16.47-2.92c7.12-0.55,8.31-1.79,8.18-8.99
		c-0.05-2.78,1.72-5.56,2.34-8.41c2.77-12.74,2.72-12.75-8-18.85c2.25-0.32,4.15-0.59,6.02-0.86c1.42-2.26-5.71-2.77-0.96-5.45
		c-1.09-1.34-1.94-3.03-3.31-3.95c-4.79-3.22-9.76-6.17-14.72-9.25c1.32-1.87,2.38-3.38,3.37-4.77c5.42,0.05,10,6.19,17.1,1.96
		c-5.02-4.1-9.31-7.61-13.6-11.12c3.37-1.04,7.68-1.01,7.4-6.51c24.99,10.36,46.02,26.35,64.84,45.66
		c7.55,7.74,15.52,15.27,24.21,21.67c14.35,10.55,27.12,23.67,44.33,29.87c11.71,4.22,23.73,7.58,35.6,11.38
		c4.21,1.35,8.46,2.65,12.52,4.36c6.2,2.61,8.04,6.87,6.92,13.47c-0.7,4.12-2.04,8.84-0.73,12.44c2.04,5.64,7.34,1.06,11.16,1.58
		c22.1,2.98,44.21,5.93,66.35,8.61c4.59,0.55,9.32-0.11,13.99-0.16c5.33-0.06,10.7,0.34,15.98-0.22c6.56-0.69,13.09-1.91,19.53-3.35
		c6.17-1.37,9.78,1.04,7.84,6.89c-3.24,9.78-7.05,19.52-11.96,28.55c-3.98,7.31-8.18,13.53-8.59,22.78
		c-0.75,17-7.49,32.7-16.77,47.07c-0.87,1.35-3.13,2.33-4.85,2.54c-7.8,0.95-13.45,3.62-17.43,11.5
		c-3.95,7.82-10.65,14.25-16.14,21.28C522.51,334.82,522.08,334.55,521.64,334.28z M325.91,180.06c10.6,7.09,20.4,13.59,30.12,20.19
		c2.81,1.91,5.19,1.81,8.28,0.23c5.16-2.63,10.56-5.01,16.11-6.61c6.22-1.79,12.72-2.59,19.24-3.85
		c-10.59-13.53-23.77-20.73-40.99-17.57C347.69,174.47,336.89,177.48,325.91,180.06z"/>
	<path d="M192.92,30.26c10,3.05,20.01,6.1,30.01,9.14c0.04,0.68,0.07,1.37,0.11,2.05c-1.33,0.81-3.28,2.64-3.89,2.27
		c-8.48-5.13-20.22-2.94-27.57-10.5C192.02,32.23,192.47,31.25,192.92,30.26z"/>
	<path class="st0" d="M41.45,452.79c-9.89,2.77-19.79,5.53-29.68,8.3c-0.15-0.53-0.3-1.05-0.46-1.58
		c9.76-2.84,19.52-5.68,29.28-8.52C40.88,451.59,41.17,452.19,41.45,452.79z"/>
	<path d="M325.91,180.06c10.98-2.58,21.78-5.59,32.77-7.6c17.22-3.16,30.4,4.04,40.99,17.57c-6.52,1.26-13.02,2.06-19.24,3.85
		c-5.55,1.6-10.95,3.98-16.11,6.61c-3.1,1.58-5.47,1.68-8.28-0.23C346.31,193.65,336.51,187.16,325.91,180.06z"/>
</g>
</svg>
