<?xml version="1.0" encoding="utf-8"?>
<!-- Generator: Adobe Illustrator 24.3.0, SVG Export Plug-In . SVG Version: 6.00 Build 0)  -->
<svg version="1.1" id="Layer_1" xmlns="http://www.w3.org/2000/svg" xmlns:xlink="http://www.w3.org/1999/xlink" x="0px" y="0px"
	 viewBox="0 0 612 792" style="enable-background:new 0 0 612 792;" xml:space="preserve">
<style type="text/css">
	.st0{fill:#FFFFFF;}
</style>
<g>
	<path class="st0" d="M559,646c-168.67,0-337.33,0-506,0c0-166.67,0-333.33,0-500c168.67,0,337.33,0,506,0
		C559,312.67,559,479.33,559,646z M486.65,572.82c-10.15-20.17-19.58-39.03-29.17-57.8c-1.32-2.58-1.12-4.23,0.55-6.62
		c5.32-7.64,10.17-15.6,15.4-23.3c0.82-1.21,2.67-2.38,4.07-2.41c7.07-0.15,12.26-3.18,15.04-9.61c2.81-6.48,1.2-12.29-3.53-17.47
		c-0.87-0.95-1.4-2.85-1.13-4.11c2.41-11.19,4.91-22.37,7.71-33.47c0.46-1.82,2.19-4.07,3.87-4.69c8.26-3.08,16.69-5.67,25.06-8.45
		c11.09-3.68,22.18-7.39,34.36-11.44c-2.09-0.76-2.99-1.12-3.9-1.42c-18.46-6.15-36.94-12.25-55.37-18.51
		c-1.45-0.49-3.37-1.92-3.64-3.21c-2.82-13.46-5.35-26.97-8.04-40.9c6.29-5.41,8.56-11.82,5.94-18.71
		c-2.19-5.74-8.75-11.44-17.25-9.82c-0.94,0.18-2.59-0.63-3.13-1.48c-3.29-5.16-6.36-10.46-9.54-15.77
		c6.09,1.23,9.74-0.54,11.21-5.13c0.63-1.96,1.65-3.8,2.64-5.62c2.03-3.77,4.46-7.37,6.14-11.29c1.08-2.51,2.25-3.63,5.04-3.67
		c4.65-0.06,9.29-0.55,13.94-0.86c0.22-0.45,0.43-0.89,0.65-1.34c-13.39-3.46-21.59-10.74-23.28-25.16
		c-0.55-4.71-0.6-8.14,1.46-12.13c3.43-6.68,2.89-8.92-2.19-13.5c2.89-3.53,5.77-7.04,9.46-11.54c-8.19-0.6-12.63-5.15-16.91-10.14
		c-4.03-4.69-6.74-4.57-11.08-0.15c-0.76,0.78-1.51,1.58-1.59,1.67c-11.88-6.29-16.03,4.24-22.34,8.92
		c-6.69-5-13.45-9.82-19.93-14.98c-2.59-2.06-4.17-1.77-6.83,0c-6.26,4.19-12.11,9.14-20.35,9.75c-5.35,0.4-7.34,3.92-7.09,9.58
		c0.05,1.23,0.01,2.46,0.01,3.86c-6.51-0.45-11.45,1.26-15.5,5.65c-0.83,0.9-2.89,1.31-4.2,1.04c-12.04-2.46-24.07-5.01-36.03-7.84
		c-1.65-0.39-3.65-2.12-4.24-3.69c-2.59-6.83-4.69-13.83-7.01-20.76c-3.23-9.68-6.5-19.36-10.1-30.09
		c-5.82,17.48-11.35,33.77-16.59,50.16c-0.92,2.87-2.28,3.75-5.08,4.31c-13.19,2.63-26.31,5.61-39.49,8.34
		c-1.2,0.25-3.19,0.07-3.79-0.7c-5.31-6.9-14.58-6.66-19.45-4.07c-6.14,3.26-8.92,9.46-7.96,17.71c-7.53,4.94-15.4,9.39-22.4,14.93
		c-4.54,3.59-7.68,3.43-12.59,0.82c-16.48-8.76-33.3-16.89-50.87-25.71c0.69,1.53,0.93,2.09,1.2,2.63
		c8.58,17.08,17.1,34.18,25.81,51.19c1.33,2.6,1.08,4.23-0.62,6.6c-5.81,8.1-11.42,16.36-16.73,24.8c-1.81,2.88-3.3,4.17-6.97,3.72
		c-7.02-0.86-12.96,3.03-15.55,9.26c-2.68,6.45-0.96,13.37,4.49,18.07c0.97,0.84,1.95,1.66,1.95,1.66
		c-2.74,14.08-5.22,27.29-7.98,40.44c-0.32,1.54-1.91,3.45-3.36,4.02c-5.73,2.21-11.65,3.94-17.5,5.88
		c-12.75,4.23-25.49,8.47-39.15,13.02c2.14,0.82,3.3,1.31,4.49,1.7c17.2,5.73,34.43,11.37,51.57,17.28
		c1.76,0.61,3.84,2.61,4.27,4.34c2.83,11.43,5.31,22.96,7.72,34.49c0.27,1.3-0.14,3.27-1.02,4.19c-5.13,5.39-6.82,11.5-3.65,18.29
		c2.95,6.34,8.29,9.23,15.37,9.05c1.18-0.03,2.89,0.73,3.51,1.68c6.26,9.58,12.34,19.28,18.6,29.14
		c-6.64,10.51-16.6,16.05-27.85,15.71c-3.93,7.73-6.51,14.93-10.86,20.83c-5.08,6.88-7.96,13.3-4.01,21.56
		c0.49,1.02,0.17,3.48-0.53,3.84c-5.13,2.67-4.77,7.85-5.35,12.19c-0.3,2.27,1.25,5.78,3.11,7.06c1.6,1.09,5.07,0.37,7.27-0.58
		c2.52-1.09,4.62-3.22,6.76-5.07c2.21-1.9,4.24-2.54,7.23-1.3c5.99,2.48,11.86,1.49,16.97-2.44c3.42-2.63,6.33-5.92,9.74-8.56
		c2.02-1.56,4.47-3.01,6.92-3.48c4.63-0.89,7.38-3.77,6.71-8.71c-0.33-2.41-1.85-4.67-2.14-7.08c-0.25-2.03-0.23-5.29,0.95-6.07
		c4.68-3.1,9.84-5.48,14.89-8c0.52-0.26,1.59,0.18,2.2,0.6c9.06,6.18,18.08,12.4,27.35,18.79c-1.2,7.42,1.25,13.69,8.4,17.6
		c6.01,3.29,11.97,1.77,18.97-4.13c0.99-0.83,3.02-1.04,4.38-0.73c9.88,2.24,19.63,6.03,29.6,6.68c9.63,0.64,12.09,5.68,14.41,13.35
		c5.01,16.57,10.79,32.92,16.61,50.4c0.65-1.76,0.95-2.48,1.19-3.22c6.1-18.45,12.13-36.93,18.39-55.33c0.56-1.64,2.4-3.62,4-4.01
		c11.3-2.76,22.66-5.25,34.06-7.53c1.9-0.38,4.49,0.06,6.08,1.14c5.09,3.44,10.25,4.67,15.99,2.11c5.68-2.53,9.01-7,9.22-13.12
		c0.11-3.12,1.62-4.21,3.81-5.62c7.98-5.11,16.01-10.18,23.66-15.76c2.82-2.05,4.63-1.84,7.45-0.4
		C448.13,553.57,466.73,562.82,486.65,572.82z"/>
	<path d="M486.65,572.82c-19.92-10-38.51-19.24-57.01-28.69c-2.82-1.44-4.63-1.65-7.45,0.4c-7.65,5.58-15.68,10.65-23.66,15.76
		c-2.19,1.4-3.71,2.5-3.81,5.62c-0.21,6.12-3.54,10.6-9.22,13.12c-5.75,2.56-10.91,1.34-15.99-2.11c-1.59-1.07-4.17-1.52-6.08-1.14
		c-11.4,2.29-22.77,4.78-34.06,7.53c-1.6,0.39-3.44,2.37-4,4.01c-6.26,18.4-12.29,36.87-18.39,55.33c-0.24,0.74-0.54,1.46-1.19,3.22
		c-5.81-17.48-11.59-33.83-16.61-50.4c-2.32-7.67-4.78-12.72-14.41-13.35c-9.97-0.66-19.72-4.44-29.6-6.68
		c-1.36-0.31-3.39-0.1-4.38,0.73c-7,5.9-12.96,7.42-18.97,4.13c-7.16-3.92-9.61-10.18-8.4-17.6c-9.28-6.38-18.3-12.61-27.35-18.79
		c-0.61-0.42-1.68-0.85-2.2-0.6c-5.05,2.52-10.21,4.9-14.89,8c-1.18,0.78-1.19,4.04-0.95,6.07c0.29,2.41,1.81,4.67,2.14,7.08
		c0.67,4.94-2.08,7.82-6.71,8.71c-2.45,0.47-4.9,1.92-6.92,3.48c-3.41,2.64-6.32,5.93-9.74,8.56c-5.11,3.93-10.98,4.92-16.97,2.44
		c-2.99-1.24-5.02-0.6-7.23,1.3c-2.14,1.84-4.24,3.98-6.76,5.07c-2.2,0.95-5.67,1.68-7.27,0.58c-1.86-1.27-3.41-4.78-3.11-7.06
		c0.58-4.35,0.22-9.52,5.35-12.19c0.69-0.36,1.01-2.82,0.53-3.84c-3.95-8.26-1.08-14.68,4.01-21.56c4.36-5.9,6.94-13.11,10.86-20.83
		c11.25,0.34,21.21-5.2,27.85-15.71c-6.25-9.86-12.34-19.56-18.6-29.14c-0.62-0.95-2.33-1.71-3.51-1.68
		c-7.07,0.18-12.41-2.71-15.37-9.05c-3.16-6.79-1.48-12.89,3.65-18.29c0.88-0.92,1.29-2.89,1.02-4.19
		c-2.41-11.53-4.89-23.06-7.72-34.49c-0.43-1.73-2.51-3.73-4.27-4.34c-17.14-5.91-34.37-11.55-51.57-17.28
		c-1.19-0.4-2.35-0.89-4.49-1.7c13.66-4.54,26.41-8.79,39.15-13.02c5.84-1.94,11.76-3.66,17.5-5.88c1.45-0.56,3.04-2.47,3.36-4.02
		c2.76-13.15,5.24-26.36,7.98-40.44c0,0-0.99-0.82-1.95-1.66c-5.45-4.7-7.17-11.62-4.49-18.07c2.59-6.23,8.53-10.12,15.55-9.26
		c3.67,0.45,5.16-0.84,6.97-3.72c5.31-8.44,10.92-16.7,16.73-24.8c1.7-2.37,1.95-4,0.62-6.6c-8.7-17.01-17.23-34.12-25.81-51.19
		c-0.27-0.54-0.51-1.11-1.2-2.63c17.57,8.82,34.39,16.94,50.87,25.71c4.9,2.61,8.05,2.77,12.59-0.82
		c7.01-5.54,14.87-9.99,22.4-14.93c-0.96-8.25,1.83-14.45,7.96-17.71c4.87-2.59,14.14-2.83,19.45,4.07c0.59,0.77,2.59,0.95,3.79,0.7
		c13.17-2.73,26.29-5.71,39.49-8.34c2.8-0.56,4.16-1.44,5.08-4.31c5.24-16.39,10.77-32.69,16.59-50.16
		c3.6,10.73,6.87,20.41,10.1,30.09c2.31,6.93,4.42,13.94,7.01,20.76c0.6,1.58,2.59,3.3,4.24,3.69c11.96,2.82,23.99,5.38,36.03,7.84
		c1.31,0.27,3.36-0.14,4.2-1.04c4.05-4.39,8.99-6.1,15.5-5.65c0-1.4,0.05-2.64-0.01-3.86c-0.24-5.66,1.75-9.18,7.09-9.58
		c8.23-0.61,14.08-5.56,20.35-9.75c2.65-1.77,4.24-2.07,6.83,0c6.48,5.17,13.24,9.99,19.93,14.98c6.31-4.69,10.45-15.21,22.34-8.92
		c0.08-0.09,0.82-0.89,1.59-1.67c4.34-4.42,7.05-4.54,11.08,0.15c4.28,4.99,8.72,9.54,16.91,10.14c-3.68,4.49-6.56,8.01-9.46,11.54
		c5.08,4.59,5.63,6.83,2.19,13.5c-2.05,3.99-2.01,7.43-1.46,12.13c1.69,14.42,9.89,21.7,23.28,25.16c-0.22,0.45-0.43,0.89-0.65,1.34
		c-4.65,0.31-9.29,0.81-13.94,0.86c-2.79,0.03-3.96,1.16-5.04,3.67c-1.68,3.92-4.11,7.52-6.14,11.29c-0.98,1.82-2.01,3.66-2.64,5.62
		c-1.47,4.58-5.12,6.36-11.21,5.13c3.18,5.31,6.25,10.62,9.54,15.77c0.54,0.85,2.19,1.66,3.13,1.48c8.5-1.62,15.06,4.07,17.25,9.82
		c2.62,6.88,0.35,13.3-5.94,18.71c2.69,13.93,5.22,27.45,8.04,40.9c0.27,1.29,2.19,2.72,3.64,3.21
		c18.42,6.26,36.9,12.36,55.37,18.51c0.92,0.31,1.82,0.66,3.9,1.42c-12.18,4.06-23.27,7.76-34.36,11.44
		c-8.37,2.78-16.8,5.37-25.06,8.45c-1.68,0.62-3.41,2.88-3.87,4.69c-2.8,11.1-5.3,22.28-7.71,33.47c-0.27,1.26,0.26,3.16,1.13,4.11
		c4.73,5.18,6.33,10.99,3.53,17.47c-2.78,6.43-7.97,9.47-15.04,9.61c-1.4,0.03-3.25,1.21-4.07,2.41c-5.23,7.7-10.08,15.66-15.4,23.3
		c-1.66,2.39-1.87,4.04-0.55,6.62C467.07,533.79,476.5,552.65,486.65,572.82z M364.52,335.87c0.28-0.49,0.55-0.99,0.83-1.48
		c-1.88-3.15-3.2-6.3,0.98-8.36c1.91-0.94,4.07-1.41,6.14-2c8.25-2.34,14.41-7.22,16.72-15.59c1-3.62,2.88-4.88,6.03-5.33
		c2.47-0.36,4.99-0.4,7.41-0.93c1.27-0.28,2.87-1,3.49-2.02c9.27-15.19,23.83-21.29,40.54-23.05c6.69-0.71,13.83-2.95,20.34,1.53
		c0.35,0.24,2.3-1.05,2.84-2c4.09-7.3,7.97-14.7,12.02-22.02c0.44-0.8,1.47-1.28,2.38-2.03c-5.86-4.67-6.13-11.61-7.69-18
		c-1.55-6.38-2.86-7.33-9.28-7c-2.46,0.13-5.31,0.46-7.29-0.6c-1.48-0.79-2.33-3.61-2.55-5.62c-0.13-1.21,1.5-2.61,2.34-3.93
		c1.25,1.29,2.92,2.37,3.66,3.9c1.83,3.74,4.1,3.46,6.65,1.11c2.44-2.25,4.75-4.67,6.97-7.13c2.77-3.07,2.27-4.66-1.62-6.17
		c-2.63-1.02-5.21-2.18-7.81-3.27c0.02-0.57,0.04-1.13,0.06-1.7c4.07-2.23,8.13-4.45,12.05-6.59c-4.67-4.31-8.97-8.27-13.79-12.72
		c-1.2,2.06-2.1,3.98-3.36,5.62c-1.04,1.35-2.51,3.24-3.81,3.26c-1.21,0.02-3.06-1.91-3.56-3.36c-1.19-3.39-3.21-3.32-5.26-1.49
		c-3.96,3.52-7.61,7.38-10.59,10.31c3.13,3.16,5.37,5.43,7.61,7.7c-1.76,1.34-3.52,2.68-5.31,4.04c-1.83-3.34-2.62-6.17-4.45-7.9
		c-6.62-6.25-13.62-12.09-20.39-18.18c-2.13-1.91-3.66-1.54-6.05-0.12c-6.18,3.67-11.68,9-19.69,8.85c-1.02-0.02-3.07,2.1-2.96,3.02
		c1,7.83-2.98,13.2-8,17.82c1.74,2.44,4.14,4.61,5.04,7.29c3.03,9.06,3.39,18.02-3.29,25.94c-2.25,2.67-4.91,5.08-6.77,7.99
		c-2.44,3.83-4.79,7.87-6.26,12.13c-1.91,5.56-2.92,11.44-4.32,17.21c-8.86-2.63-12.93-0.77-15.9,7.54c-1.6,4.47-2.2,9.3-3.26,14.04
		c-7.48,1.31-7.48,1.31-7.29,9.16c0.02,0.67,0.01,1.33,0.01,2c0,4.22-1.36,7.02-6.3,7.07c-1.89,0.02-3.87,0.95-5.62,1.85
		c-4.63,2.38-9.14,4.71-14.02-1c-0.2,2.53-0.22,4.87,0.87,5.66c4.17,3.01,3.65,6.09,1.25,9.85c-1.76,2.76-3.12,5.79-4.52,8.76
		c-0.87,1.84-1.01,4.2-2.26,5.64c-19.73,22.79-39.58,45.49-59.46,68.16c-0.79,0.9-2.28,2.16-3.05,1.92
		c-5.53-1.66-9.26,1.45-13.08,4.46c-6.97,5.5-8.09,5.56-16.66-0.32c0.28,2.38-0.06,4.41,0.69,4.97c4.49,3.35,3.56,6.94,1.12,10.89
		c-2.56,4.14-4.58,8.36,0.29,12.68c-15.51,17.79-30.77,35.4-46.2,52.86c-2.04,2.31-4.71,4.74-7.54,5.55
		c-5.72,1.62-9.6,5.32-13.73,9.13c-6.35,5.86-14.36,8.01-23.04,8.6c1.18,7.5-2.3,13-6.7,17.91c-5,5.56-7.31,11.28-3.69,18.52
		c1.69,3.37,0.76,6.49-2.39,8.79c-3.75,2.74-3.51,6.55-3.23,11.73c4.02-3.02,6.96-5.69,10.34-7.6c2.27-1.28,5.75-2.79,7.65-1.93
		c8.11,3.72,14.17,0.97,19.74-4.74c4.56-4.67,9.07-9.39,16.97-9.88c-0.67-2.57-0.8-4.96-1.86-6.81c-2.61-4.56-1.94-8.66,1.12-12.5
		c1.96-2.46,4.73-4.35,6.34-6.98c1.59-2.61,2.14-5.83,3.2-8.77c0.4-1.12,0.7-2.4,1.43-3.27c8.61-10.15,17.17-20.36,26.01-30.31
		c8.39-9.44,17.05-18.64,25.75-27.8c1.05-1.11,3.05-1.53,4.69-1.82c3.12-0.55,6.57-0.12,9.39-1.28c4.71-1.93,9.07-4.26,13.63,0.24
		c1.42-2.51,2.55-4.51,3.81-6.74c-4.67-2.38-4.61-5.9-2.91-10.17c1.27-3.19,1.84-6.65,2.78-9.98c0.56-2.01,0.7-4.42,1.93-5.91
		c12.97-15.7,28.32-29.29,40.47-45.76c3.14-4.26,6.97-8.11,10.94-11.62c9.49-8.39,18.9-17.1,33.13-18.61
		c-2.61-6.07,0.12-11.49,3.27-16.89c0.9-1.55,1.45-3.37,1.84-5.13c0.96-4.31,3.37-4.72,7.04-3.18
		C359.72,334.9,362.17,335.26,364.52,335.87z"/>
	<path class="st0" d="M364.52,335.87c-2.35-0.61-4.81-0.96-7.03-1.89c-3.67-1.53-6.08-1.12-7.04,3.18
		c-0.39,1.76-0.94,3.58-1.84,5.13c-3.14,5.39-5.87,10.82-3.27,16.89c-14.23,1.51-23.65,10.22-33.13,18.61
		c-3.97,3.51-7.81,7.36-10.94,11.62c-12.14,16.47-27.5,30.05-40.47,45.76c-1.23,1.49-1.36,3.91-1.93,5.91
		c-0.93,3.33-1.51,6.79-2.78,9.98c-1.7,4.27-1.76,7.78,2.91,10.17c-1.26,2.22-2.39,4.22-3.81,6.74c-4.57-4.49-8.92-2.17-13.63-0.24
		c-2.83,1.16-6.27,0.73-9.39,1.28c-1.64,0.29-3.64,0.71-4.69,1.82c-8.7,9.16-17.36,18.36-25.75,27.8
		c-8.84,9.95-17.4,20.16-26.01,30.31c-0.74,0.87-1.03,2.15-1.43,3.27c-1.05,2.94-1.61,6.17-3.2,8.77c-1.6,2.63-4.38,4.53-6.34,6.98
		c-3.06,3.84-3.73,7.94-1.12,12.5c1.06,1.85,1.19,4.24,1.86,6.81c-7.89,0.49-12.41,5.21-16.97,9.88c-5.56,5.7-11.62,8.46-19.74,4.74
		c-1.89-0.87-5.38,0.65-7.65,1.93c-3.38,1.91-6.32,4.58-10.34,7.6c-0.28-5.18-0.52-8.99,3.23-11.73c3.15-2.31,4.07-5.42,2.39-8.79
		c-3.62-7.25-1.31-12.96,3.69-18.52c4.4-4.9,7.89-10.41,6.7-17.91c8.68-0.59,16.69-2.74,23.04-8.6c4.13-3.81,8.02-7.51,13.73-9.13
		c2.83-0.8,5.5-3.24,7.54-5.55c15.43-17.46,30.7-35.07,46.2-52.86c-4.87-4.32-2.86-8.54-0.29-12.68c2.45-3.95,3.38-7.55-1.12-10.89
		c-0.75-0.56-0.41-2.59-0.69-4.97c8.56,5.88,9.69,5.82,16.66,0.32c3.82-3.01,7.55-6.13,13.08-4.46c0.77,0.23,2.26-1.03,3.05-1.92
		c19.87-22.67,39.72-45.36,59.46-68.16c1.25-1.45,1.4-3.81,2.26-5.64c1.4-2.97,2.76-6,4.52-8.76c2.4-3.77,2.92-6.84-1.25-9.85
		c-1.1-0.79-1.08-3.13-0.87-5.66c4.88,5.71,9.39,3.38,14.02,1c1.75-0.9,3.73-1.83,5.62-1.85c4.94-0.05,6.3-2.85,6.3-7.07
		c0-0.67,0-1.33-0.01-2c-0.2-7.85-0.2-7.85,7.29-9.16c1.06-4.73,1.66-9.57,3.26-14.04c2.98-8.31,7.04-10.18,15.9-7.54
		c1.4-5.77,2.41-11.64,4.32-17.21c1.46-4.26,3.81-8.3,6.26-12.13c1.86-2.92,4.52-5.32,6.77-7.99c6.68-7.92,6.33-16.88,3.29-25.94
		c-0.9-2.68-3.3-4.85-5.04-7.29c5.02-4.62,9-9.99,8-17.82c-0.12-0.91,1.94-3.04,2.96-3.02c8.02,0.15,13.51-5.17,19.69-8.85
		c2.39-1.42,3.93-1.8,6.05,0.12c6.77,6.09,13.77,11.93,20.39,18.18c1.83,1.73,2.63,4.56,4.45,7.9c1.79-1.36,3.55-2.7,5.31-4.04
		c-2.24-2.27-4.49-4.54-7.61-7.7c2.98-2.93,6.63-6.79,10.59-10.31c2.05-1.82,4.07-1.9,5.26,1.49c0.51,1.44,2.35,3.37,3.56,3.36
		c1.3-0.02,2.77-1.91,3.81-3.26c1.27-1.64,2.16-3.57,3.36-5.62c4.82,4.44,9.12,8.41,13.79,12.72c-3.92,2.14-7.98,4.37-12.05,6.59
		c-0.02,0.57-0.04,1.13-0.06,1.7c2.6,1.09,5.18,2.25,7.81,3.27c3.89,1.51,4.39,3.1,1.62,6.17c-2.22,2.47-4.53,4.88-6.97,7.13
		c-2.55,2.35-4.82,2.63-6.65-1.11c-0.75-1.53-2.41-2.61-3.66-3.9c-0.84,1.31-2.47,2.71-2.34,3.93c0.21,2.01,1.06,4.83,2.55,5.62
		c1.98,1.06,4.83,0.73,7.29,0.6c6.42-0.33,7.73,0.62,9.28,7c1.56,6.38,1.83,13.32,7.69,18c-0.9,0.75-1.93,1.23-2.38,2.03
		c-4.04,7.32-7.93,14.73-12.02,22.02c-0.53,0.95-2.49,2.24-2.84,2c-6.51-4.48-13.64-2.23-20.34-1.53
		c-16.71,1.76-31.27,7.86-40.54,23.05c-0.63,1.02-2.22,1.75-3.49,2.02c-2.42,0.53-4.95,0.57-7.41,0.93
		c-3.14,0.45-5.03,1.72-6.03,5.33c-2.31,8.37-8.47,13.24-16.72,15.59c-2.07,0.59-4.22,1.06-6.14,2c-4.19,2.05-2.86,5.21-0.98,8.36
		C365.08,334.88,364.8,335.37,364.52,335.87z M442.88,263.45c8.14-0.99,13.96-4.74,17.57-11.45c0.86-1.61,1.43-3.95,0.93-5.6
		c-1.45-4.81-10.79-8.99-16.95-8.01c-5.82,0.92-11.24,6.95-11.61,12.63c-0.21,3.23,1.21,4.98,4.26,4.47
		c3.24-0.55,4.13,1.26,4.84,3.61C442.32,260.5,442.55,261.96,442.88,263.45z M409.11,228.48c-0.3,5.59,0.46,6.06,5.85,4.91
		c5.05-1.08,5.96-4.96,7.28-9c2.2-6.71,0.1-12.2-4.53-16.74c-3.11-3.05-7.3-3.28-11.15-1.17c-5.91,3.24-7.87,8.67-7.63,15.12
		c0.01,0.17,0,0.33,0.01,0.5c0.22,3.55,1.77,4.78,5.24,3.21C408.61,223.3,409.36,223.84,409.11,228.48z M367.83,313.91
		c0.31,0.63,0.61,1.26,0.92,1.88c2.46-0.84,5.74-0.99,7.17-2.69c1.48-1.76,1.16-5.03,1.63-7.64c-0.7-0.27-1.39-0.53-2.09-0.8
		C372.92,307.75,370.38,310.83,367.83,313.91z M362.32,294.71c-0.25-0.47-0.51-0.94-0.76-1.41c-1.59,0.54-3.88,0.63-4.59,1.73
		c-0.98,1.52-0.76,3.81-1.06,5.77c0.51,0.12,1.01,0.23,1.52,0.35C359.06,299,360.69,296.86,362.32,294.71z M441.08,226.06
		c0.72,0.38,1.43,0.76,2.15,1.14c0.71-1.4,1.99-2.81,1.94-4.18c-0.03-0.96-1.76-2.13-2.97-2.64c-0.42-0.18-2.12,1.27-2.22,2.11
		C439.84,223.62,440.67,224.87,441.08,226.06z"/>
	<path d="M442.88,263.45c-0.33-1.5-0.56-2.95-0.98-4.35c-0.7-2.35-1.6-4.16-4.84-3.61c-3.05,0.52-4.47-1.24-4.26-4.47
		c0.37-5.68,5.79-11.7,11.61-12.63c6.17-0.98,15.51,3.19,16.95,8.01c0.5,1.65-0.07,3.99-0.93,5.6
		C456.84,258.72,451.02,262.46,442.88,263.45z"/>
	<path d="M409.11,228.48c0.25-4.64-0.5-5.18-4.92-3.18c-3.47,1.57-5.02,0.34-5.24-3.21c-0.01-0.17,0-0.33-0.01-0.5
		c-0.24-6.45,1.72-11.88,7.63-15.12c3.85-2.11,8.04-1.88,11.15,1.17c4.63,4.54,6.74,10.04,4.53,16.74c-1.33,4.04-2.23,7.92-7.28,9
		C409.57,234.54,408.81,234.07,409.11,228.48z M414.76,228.65c3.58-5.68,4.74-10.6,0.97-15.33c-1.17-1.47-4.5-2.99-5.63-2.35
		c-2.66,1.51-4.58,4.3-7.64,7.43C412.31,219.15,413.42,220.12,414.76,228.65z"/>
	<path d="M367.83,313.91c2.54-3.08,5.08-6.16,7.63-9.25c0.7,0.27,1.39,0.53,2.09,0.8c-0.47,2.61-0.15,5.87-1.63,7.64
		c-1.43,1.7-4.7,1.86-7.17,2.69C368.45,315.17,368.14,314.54,367.83,313.91z"/>
	<path d="M362.32,294.71c-1.63,2.15-3.27,4.3-4.9,6.44c-0.51-0.12-1.01-0.23-1.52-0.35c0.3-1.96,0.08-4.25,1.06-5.77
		c0.71-1.11,3.01-1.19,4.59-1.73C361.82,293.77,362.07,294.24,362.32,294.71z"/>
	<path d="M441.08,226.06c-0.41-1.2-1.24-2.44-1.1-3.57c0.11-0.84,1.81-2.29,2.22-2.11c1.21,0.51,2.94,1.68,2.97,2.64
		c0.05,1.37-1.23,2.79-1.94,4.18C442.52,226.82,441.8,226.44,441.08,226.06z"/>
	<path class="st0" d="M414.76,228.65c-1.35-8.53-2.45-9.5-12.31-10.25c3.06-3.13,4.99-5.92,7.64-7.43c1.13-0.64,4.46,0.88,5.63,2.35
		C419.51,218.04,418.34,222.97,414.76,228.65z"/>
</g>
</svg>
