<?xml version="1.0" encoding="UTF-8" standalone="no"?>
<!-- Generator: Adobe Illustrator 24.3.0, SVG Export Plug-In . SVG Version: 6.00 Build 0)  -->

<svg
   version="1.1"
   id="Layer_1"
   x="0px"
   y="0px"
   viewBox="0 0 609.1275 618.97998"
   xml:space="preserve"
   sodipodi:docname="clan.brujah.svg"
   width="609.1275"
   height="618.97998"
   inkscape:version="1.1.1 (3bf5ae0d25, 2021-09-20)"
   xmlns:inkscape="http://www.inkscape.org/namespaces/inkscape"
   xmlns:sodipodi="http://sodipodi.sourceforge.net/DTD/sodipodi-0.dtd"
   xmlns="http://www.w3.org/2000/svg"
   xmlns:svg="http://www.w3.org/2000/svg"><defs
   id="defs29" /><sodipodi:namedview
   id="namedview27"
   pagecolor="#ffffff"
   bordercolor="#999999"
   borderopacity="1"
   inkscape:pageshadow="0"
   inkscape:pageopacity="0"
   inkscape:pagecheckerboard="0"
   showgrid="false"
   fit-margin-top="0"
   fit-margin-left="0"
   fit-margin-right="0"
   fit-margin-bottom="0"
   inkscape:zoom="0.81565657"
   inkscape:cx="305.88854"
   inkscape:cy="329.79567"
   inkscape:window-width="1920"
   inkscape:window-height="1017"
   inkscape:window-x="-8"
   inkscape:window-y="1072"
   inkscape:window-maximized="1"
   inkscape:current-layer="g24" />
<style
   type="text/css"
   id="style2">
	.st0{fill:#FFFFFF;}
</style>
<g
   id="g24"
   transform="translate(17.234087,-16.692074)">
	
	<path
   d="m -17.164087,434.78207 c 10.3700003,-4.02 20.7600003,-7.98 31.09,-12.08 7.34,-2.91 14.62,-6 22.1,-9.09 0.02,-3.66 -1.25,-4.61 -5.14,-3.63 -2.63,0.66 -5.72,-0.48 -8.6,-0.82 2.46,-1.19 4.83,-2.65 7.4,-3.51 8.03,-2.68 16.13,-5.14 24.68,-7.84 -0.54,-1.52 -0.89,-2.51 -1.41,-3.95 2.19,-0.8 4.37,-1.61 6.54,-2.41 0.13,-0.6 0.27,-1.19 0.4,-1.79 -2.41,-0.51 -5.03,-1.88 -7.17,-1.34 -4.48,1.13 -8.64,3.48 -13.07,4.93 -2.75,0.9 -5.75,1.08 -8.64,1.58 -0.22,-0.63 -0.43,-1.26 -0.65,-1.9 6.46,-2.75 12.78,-5.93 19.42,-8.15 10.19,-3.41 20.63,-6.06 30.89,-9.25 2.36,-0.73 6.05,-2.1 6.32,-3.66 0.74,-4.26 0.29,-8.82 -0.29,-13.18 -0.44,-3.3 -2.83,-6.56 -2.6,-9.7 0.93,-12.51 2.54,-24.96 4.03,-38.56 -1.66,1.53 -2.61,2.41 -3.63,3.36 -1.22,-9.27 14.91,-58.8 26.379997,-80.99 -7.3,-1.97 -6.1,-6.41 -3.22,-11.38 6.14,-10.59 12.2,-21.23 18.3,-31.84 0.85,0.36 1.69,0.73 2.54,1.09 -2.21,7.65 -4.43,15.29 -6.64,22.94 0.27,0.17 0.53,0.35 0.8,0.52 4.28,-5.94 8.62,-11.85 12.78,-17.88 0.57,-0.83 0.59,-2.42 0.24,-3.45 -2.82,-8.39 -5.85,-16.71 -8.66,-25.1 -0.96,-2.85 -1.43,-5.87 -2.21,-8.78 -5.92,-21.88 -11.88,-43.75 -17.78,-65.629996 -0.5,-1.87 -0.66,-3.84 -0.97,-5.77 0.54,-0.18 1.08,-0.36 1.62,-0.54 3.81,10.13 7.62,20.249996 11.43,30.379996 0.51,-0.19 1.01,-0.38 1.52,-0.57 -5.64,-30.909996 -19.49,-59.869996 -23.709997,-91.119996 0.78,-0.22 1.55,-0.44 2.33,-0.66 3.029997,8.82 5.919997,17.69 9.119997,26.45 5.46,14.95 11.1,29.82 17.14,45.96 0.34,-2.84 0.81,-4.75 0.73,-6.64 -0.08,-1.94 -0.7,-3.85 0.15,-6.18 5.79,14.06 11.57,28.109996 17.36,42.169996 0.58,-0.14 1.16,-0.28 1.74,-0.42 -0.99,-4.66 -1.98,-9.32 -2.97,-13.97 0.4,-0.15 0.81,-0.29 1.21,-0.44 7.43,18.64 14.86,37.28 22.29,55.92 0.74,0.04 1.48,0.09 2.23,0.13 0.21,-1.9 1.05,-4.01 0.51,-5.67 -1.98,-6.09 -4.43,-12.04 -6.7,-18.04 0.65,-0.35 1.31,-0.7 1.96,-1.05 3.3,6.23 6.59,12.45 10.04,18.96 17.5,-10.35 33.39,-23.01 51.31,-32.19 0.41,0.57 0.82,1.14 1.23,1.72 -1.19,1.39 -2.39,2.79 -3.58,4.18 0.19,0.48 0.38,0.96 0.57,1.45 5.89,-2.16 14.16,-2.64 17.15,-6.85 5.36,-7.53 12.85,-9.24 20.1,-11.27 8.28,-2.32 17.15,-2.6 25.78,-3.53 1.61,-0.17 3.35,0.78 5.91,1.44 -1.69,1.93 -2.72,3.12 -4.04,4.64 1.79,-0.1 3.27,0.1 4.57,-0.3 16.14,-4.97 31.57,1.24 47.16,3.32 15.68,2.1 31.16,5.67 45.28,13.48 3.15,1.74 6.75,2.76 10.24,3.77 1.2,0.34 2.7,-0.39 5.7,-0.92 -5.9,-3.29 -10.2,-5.69 -14.55,-8.12 0.64,-0.91 0.95,-1.5 1.04,-1.47 6.71,2.47 14,4.03 19.99,7.69 17.5,10.68 34.49,22.19 51.64,33.44 1.91,1.26 3.54,2.95 5.29,4.44 -0.34,0.63 -0.68,1.25 -1.02,1.88 -7.03,-2.27 -14.07,-4.54 -21.42,-6.91 5.24,11.06 16.54,14.13 26.73,19.92 5.34,-8.29 11.17,-16.76 16.39,-25.59 14.24,-24.11 28.21,-48.38 42.32,-72.559996 1.43,-2.45 3,-4.83 4.7,-7.09 0.82,-1.09 2.4,-2.78 3.15,-2.56 7.28,2.15 8.68,-4.33 11.36,-8.01 4.88,-6.7 8.59,-14.26 13.4,-21.02 9.23,-12.95 18.9,-25.58 28.49,-38.48 4.4,2.21 2.97,4.89 1.39,7.62 -6.69,11.59 -13.73,23.01 -19.96,34.84 -6.54,12.41 -12.32,25.22 -17.27,38.67 3.13,-4.4 6.27,-8.79 9.81,-13.77 2.81,4.04 0.66,6.73 -1.08,9.54 -8.39,13.589996 -16.75,27.199996 -24.15,41.789996 1.65,-0.71 3.3,-1.42 5.96,-2.57 -1.42,3.39 -2.2,6.12 -3.61,8.46 -11.51,19.09 -23.15,38.1 -34.66,57.18 -0.6,0.99 -0.91,2.75 -0.44,3.69 2.5,5.05 5.38,9.92 7.94,14.94 0.7,1.37 0.78,3.06 1.14,4.6 -1.98,0.15 -4.72,1.19 -5.8,0.27 -3.81,-3.23 -7.05,-7.13 -10.84,-11.12 -2.86,3.45 -5.92,6.49 -2.32,11.45 0.72,0.99 -0.1,3.09 -0.32,6.38 1.67,3.85 4.45,9.4 6.41,15.23 0.75,2.21 -0.43,5.06 -0.67,7.62 -0.16,1.7 -0.21,3.42 -0.31,5.13 0.93,0.06 1.85,0.12 2.78,0.18 0.51,-2.81 1.02,-5.62 1.72,-9.44 1.46,1.67 3.21,2.93 3.91,4.61 3.02,7.29 6.33,14.54 8.38,22.12 1.65,6.11 4.9,6.83 10.25,6.06 4.9,-0.71 9.93,-0.76 14.9,-0.65 1.53,0.03 3.04,1.54 4.09,3.75 -5.47,1.04 -10.94,2.07 -16.42,3.11 0.16,0.99 0.32,1.99 0.48,2.98 9.83,-1.23 19.66,-2.47 29.49,-3.68 1.58,-0.19 3.5,-0.85 4.69,-0.22 2.17,1.15 3.9,3.1 5.82,4.72 -1.87,1.26 -3.59,2.99 -5.65,3.69 -8.76,2.94 -17.61,5.61 -26.46,8.28 -1.33,0.4 -2.87,0.05 -4.22,0.41 -2.53,0.68 -6.93,1.29 -7.13,2.5 -0.78,4.71 -5.68,9.66 -0.26,14.5 0.53,0.48 1.04,1.36 1.01,2.03 -0.29,7.71 0.14,15.57 -1.23,23.1 -2.12,11.61 -5.5,22.98 -8.7,35.88 8.96,-3.77 6.86,-12.84 10.89,-17.98 0.68,0.28 1.37,0.55 2.05,0.83 -6.76,17.99 -13.01,36.2 -20.44,53.91 -7.47,17.79 -16.12,35.09 -24.69,53.56 11.36,-11.58 19.04,-24.88 25.87,-38.8 0.48,0.17 0.96,0.34 1.44,0.51 -0.06,1.16 0.24,2.51 -0.24,3.46 -3.53,7.06 -7.42,13.94 -10.79,21.07 -5.63,11.94 -15.03,21.04 -23.4,30.82 -9.58,11.21 -18.77,23.13 -33.29,28.89 -2.55,1.01 -4.97,2.94 -6.77,5.04 -1.54,1.79 -2.09,4.42 -3.08,6.67 0.46,0.33 0.93,0.66 1.39,0.99 -4.55,1.59 -9.92,2.15 -13.52,4.96 -12.66,9.89 -28.29,12.81 -42.61,18.38 -17.64,6.87 -36.45,10.82 -54.86,15.61 -4.81,1.25 -6.68,3.9 -8.55,8.15 -3.22,7.32 -7.55,14.15 -11.41,21.18 -0.49,-0.19 -0.98,-0.38 -1.48,-0.57 1.64,-5.7 3.28,-11.4 4.92,-17.1 -0.5,-0.17 -1.01,-0.35 -1.51,-0.52 -1.29,3.26 -2.69,6.49 -3.84,9.8 -3.91,11.29 -7.59,22.66 -11.7,33.88 -0.78,2.12 -3.11,3.67 -4.73,5.48 -0.47,-0.36 -0.95,-0.73 -1.42,-1.09 -0.95,2.66 -1.91,5.31 -2.86,7.97 -0.81,0 -1.63,0 -2.44,0 1.69,-7.75 5.47,-15.26 3.2,-25.19 -2.43,4.84 -4.12,8.21 -5.81,11.58 -0.8,-0.27 -1.6,-0.54 -2.4,-0.8 1.03,-4.52 1.65,-9.19 3.21,-13.52 1.87,-5.17 1.92,-9.96 -1.31,-14.38 -1.18,-1.62 -4.19,-2.14 -4.93,-3.8 -2.53,-5.69 -5.11,-11.51 -6.38,-17.56 -1.58,-7.47 -3.15,-9.47 -10.74,-11.85 -7.67,-2.41 -15.14,-5.51 -22.61,-8.53 -3.95,-1.6 -7.72,-3.66 -11.57,-5.52 -0.26,0.44 -0.53,0.89 -0.79,1.33 5.44,4.71 10.89,9.41 16.04,13.87 0.27,-0.06 -0.44,0.35 -0.8,0.15 -12.17,-6.74 -24.56,-13.13 -36.37,-20.46 -8.83,-5.48 -14.89,-14.99 -26,-17.39 -2.89,-0.62 -5.67,-2.92 -7.92,-5.06 -4.26,-4.04 -8.19,-8.43 -12.08,-12.83 -5.81,-6.59 -11.68,-13.14 -17.08,-20.06 -3.18,-4.07 -5.7,-8.71 -8.07,-13.32 -0.57,-1.12 0.64,-3.14 1.28,-5.75 -0.38,-0.59 -1.33,-2.06 -2.05,-3.19 -3.14,1.8 -4.98,2.87 -7.03,4.04 -1.01,-1.76 -1.8,-2.93 -2.38,-4.19 -6.4,-13.78 -12.89,-27.52 -19.069997,-41.4 -1.96,-4.4 -4.21,-5.72 -8.79,-3.59 -3.71,1.72 -7.84,3.09 -12.01,-0.34 6.05,-6.37 17.74,-2.87 21.31,-14.64 -3.1,0.29 -5.63,0.15 -7.93,0.8 -18.64,5.29 -37.28,10.58 -55.82,16.18 -11.63,3.52 -23.05,7.76 -34.65999969,11.33 -5.96000001,1.83 -12.14000031,2.92 -18.23000031,4.34 0.07,-0.33 0.07,-0.74 0.07,-1.14 z m 186.809997,-234.67 c 13.6,31.57 26.29,62.77 35.6,95.19 -0.5,0.28 -1.01,0.56 -1.51,0.85 -2.79,-3.64 -5.58,-7.27 -8.37,-10.91 -0.25,0.14 -0.5,0.28 -0.75,0.42 4.53,11.14 9.06,22.28 14.23,35.01 3.52,-13.62 6.56,-25.39 9.6,-37.15 0.8,0.18 1.6,0.35 2.39,0.53 -1.22,10.82 -2.43,21.64 -3.67,32.59 9.26,0.46 8.5,-9.95 15.17,-11.93 7.63,7.75 -5.5,10.94 -3.78,17.91 7.55,-6.18 14.74,-12.07 21.93,-17.96 0.6,0.53 1.19,1.06 1.79,1.6 -5.1,7.24 -10.2,14.48 -16.17,22.94 16.88,-3.55 31.8,-6.69 46.71,-9.83 0.35,0.86 0.7,1.73 1.05,2.59 -4.29,8.61 -16.85,5.67 -21.8,13.54 8.2,-0.61 16.35,-0.28 24.04,-1.99 11.76,-2.61 23.23,-6.58 34.8,-10.03 6.54,-1.95 13.04,-4 19.56,-6 -10.39,-1.64 -19.88,4.37 -29.98,3.07 -0.13,-0.88 -0.26,-1.76 -0.39,-2.64 27.71,-6.39 55.42,-12.77 82.52,-19.02 0.68,-3.09 1.27,-5.8 1.86,-8.51 2.03,2.03 4.06,4.05 7.14,7.13 -0.63,-4.83 -0.78,-8.72 -1.72,-12.41 -0.94,-3.69 -2.66,-7.19 -4.06,-10.75 -1.37,-3.48 -2.79,-6.94 -4.19,-10.41 0.48,-0.21 0.95,-0.41 1.43,-0.62 3.73,6.54 7.46,13.08 11.96,20.96 1.92,-19.56 3.67,-37.45 5.42,-55.35 1.62,2.08 1.94,4.18 1.95,6.28 0.03,6.01 -0.69,12.11 0.05,18.03 1.06,8.42 3.16,16.7 4.84,25.12 0.66,-1.13 1.53,-2.61 2.38,-4.11 4.9,-8.64 9.69,-17.35 14.8,-25.86 0.86,-1.43 3.14,-2.01 4.77,-2.98 2.47,-2.5 3.88,-6.16 6.03,-9.32 2.6,-3.81 2.5,-7.05 -0.61,-10.29 -8.83,-9.21 -17.69,-18.4 -26.51,-27.62 -4.41,-4.6 -8.02,-10.5 -13.3,-13.63 -12.34,-7.35 -25.39,-13.54 -38.33,-19.83 -2.8,-1.36 -6.35,-1.17 -9.55,-1.7 -0.24,0.65 -0.47,1.3 -0.71,1.95 2.82,1.7 5.51,3.66 8.48,5.04 3.67,1.71 7.86,2.46 11.25,4.54 2.59,1.59 4.67,4.41 6.13,7.13 0.41,0.77 -2.24,3.1 -3.36,4.78 -0.53,0.8 -0.8,1.78 -1.55,3.53 -4.09,-8.69 -11.3,-9.93 -18.71,-10.91 -5.02,-0.66 -10.14,-1.11 -14.98,-2.48 -6.55,-1.85 -8.59,-5.56 -6.8,-10.88 5.48,1.59 10.98,3.18 16.87,4.89 -1.02,-6.87 -6.29,-9.9 -14.04,-9.22 -1.57,0.14 -3.25,-0.29 -4.79,-0.76 -1.83,-0.57 -3.53,-2.03 -5.34,-2.14 -8.89,-0.52 -17.84,-0.25 -26.69,-1.15 -9.09,-0.92 -17.83,-2.02 -27.03,0.69 -7.89,2.32 -16.4,5.37 -24.76,0.47 -0.59,-0.35 -1.97,0.32 -2.82,0.8 -13.56,7.58 -27.22,15.01 -40.6,22.89 -9.69,5.71 -19.01,12.04 -28.69,18.22 -0.71,-1.84 -1.36,-3.52 -2.13,-5.53 -2.59,1.94 -4.7,3.49 -7.06,5.23 z m 65.29,168.59 c 8.26,20.89 16.09,40.7 23.92,60.51 0.44,-0.14 0.89,-0.28 1.33,-0.42 -3.19,-15.83 -6.38,-31.65 -9.58,-47.48 0.62,-0.17 1.23,-0.35 1.85,-0.52 7.6,11.92 9.25,25.81 12.67,39.31 3.66,14.45 -3.95,26.92 -3.98,40.11 0.93,0.36 3,0.56 3.27,1.36 2.33,6.78 4.7,13.59 6.36,20.56 4.26,17.86 11.55,34.37 21.68,51.75 14.05,-27.82 20.25,-57.78 40.27,-82.14 -3.14,-0.15 -4.26,-0.2 -6.07,-0.29 16.7,-38.02 38.32,-72.85 62.54,-107.84 -3.19,0 -4.21,-0.17 -5.15,0.03 -23.21,4.84 -46.4,9.75 -69.62,14.54 -3.17,0.65 -6.45,0.73 -9.68,1.08 0.01,-0.44 0.01,-0.88 0.02,-1.33 4.56,-2.6 9.12,-5.21 13.68,-7.81 -0.19,-0.62 -0.39,-1.24 -0.58,-1.86 -4.93,0.75 -9.85,1.5 -14.78,2.25 -0.21,-0.62 -0.42,-1.24 -0.63,-1.86 2.69,-2.51 5.38,-5.02 8.07,-7.54 -0.12,-0.27 -0.23,-0.55 -0.35,-0.82 -10.18,3.1 -20.36,6.2 -30.54,9.29 0.05,0.68 0.09,1.36 0.14,2.04 1.92,0.56 3.85,1.11 5.77,1.67 0.09,0.59 0.18,1.19 0.27,1.78 -16.62,4.46 -33.25,8.91 -50.88,13.63 z m 223.6,-40.36 c -2.2,2.85 -3.38,5.68 -5.49,6.86 -4.61,2.57 -9.59,4.6 -14.62,6.28 -3.25,1.08 -5.29,2.32 -5.51,6.07 -0.28,4.84 -0.75,9.72 -1.74,14.46 -0.42,2.03 -1.99,4.86 -3.66,5.4 -4.39,1.41 -7.72,3.35 -9.45,7.86 -0.93,2.43 -2.53,4.61 -3.91,6.85 -7.95,12.95 -15.94,25.87 -23.87,38.84 -0.56,0.91 -0.68,2.09 -1.55,4.9 2.12,-2.42 3.09,-3.38 3.88,-4.46 7.3,-9.99 14.6,-19.98 21.85,-30.01 4.24,-5.86 8.31,-11.86 12.66,-17.64 0.79,-1.05 2.6,-1.33 3.93,-1.97 0.22,1.44 0.65,2.9 0.57,4.33 -0.05,0.92 -0.81,1.83 -1.32,2.71 -8.95,15.37 -17.91,30.74 -27.17,46.61 3.12,2.13 1.67,5.95 -0.46,9.5 -2.07,3.45 -4.3,6.92 -7.11,9.75 -1.45,1.46 -4.3,1.53 -6.52,2.23 0.25,-2.39 -0.18,-5.16 0.88,-7.11 2.13,-3.91 5.08,-7.39 7.7,-11.04 -0.58,-0.4 -1.17,-0.81 -1.75,-1.21 -2.22,3.37 -4.3,6.84 -6.72,10.06 -1.48,1.97 -3.83,5.24 -5.19,4.97 -4.09,-0.82 -5.31,1.7 -6.25,4.17 -2.67,7.01 -4.94,14.17 -7.37,21.27 0.35,0.18 0.71,0.37 1.06,0.55 2.56,-2.24 5.12,-4.49 7.68,-6.73 0.07,2.5 -0.67,4.3 -1.75,5.88 -11.42,16.74 -23.28,33.21 -34.14,50.31 -3.47,5.46 -4.36,12.54 -6.91,20.36 7,-2.9 12.28,-5.09 18.18,-7.53 -2.42,-1.23 -3.86,-1.95 -6.5,-3.29 5.67,-2.06 10.14,-3.3 14.28,-5.25 14.78,-6.95 29.6,-13.83 44.09,-21.34 8.01,-4.16 15.95,-8.86 22.84,-14.61 3.98,-3.32 5.81,-9.2 8.6,-13.94 -0.5,-0.23 -1,-0.46 -1.49,-0.69 -2.09,0.85 -4.19,1.71 -6.28,2.56 -0.33,-0.42 -0.67,-0.84 -1,-1.26 1.17,-1.75 2.1,-3.73 3.53,-5.22 9.28,-9.62 18.66,-19.14 28.04,-28.67 9.8,-9.96 14.11,-22.57 18.16,-35.32 -0.52,-0.31 -1.05,-0.62 -1.57,-0.92 -3.69,6 -7.38,11.99 -11.07,17.99 -0.64,-0.31 -1.27,-0.62 -1.91,-0.93 1.71,-5.42 3.07,-10.99 5.2,-16.24 5.78,-14.26 11.96,-28.37 17.8,-42.61 0.97,-2.36 1.59,-5.17 1.32,-7.66 -1.26,-11.63 -2.88,-23.23 -4.45,-35.43 -2.19,0.26 -4.4,-0.14 -5.56,0.78 -5.87,4.68 -13.05,3.69 -19.68,5.02 -3.42,0.68 -6.84,1.4 -10.25,2.09 0.04,0.38 0.08,0.77 0.12,1.15 2.73,0.36 5.45,0.71 9.85,1.27 z m -211.48,195.98 c -2.77,-7.32 -4.86,-13.18 -7.19,-18.95 -4.25,-10.52 -9.81,-20.66 -12.74,-31.53 -6.32,-23.45 -12.15,-46.96 -23.67,-68.58 -0.88,-1.65 -1.94,-3.21 -3.44,-5.69 -7.33,14.08 -14.12,27.13 -20.92,40.19 -0.64,-0.29 -1.28,-0.58 -1.92,-0.87 0.97,-3.14 1.94,-6.27 3.03,-9.8 -5.07,-0.92 -4.63,-3.7 -2.88,-7.2 4.22,-8.47 8.28,-17.03 12.4,-25.55 -0.3,-0.5 -0.6,-1 -0.9,-1.5 -7.26,2.19 -14.54,4.32 -21.77,6.59 -10.84,3.4 -21.31,8.67 -34.2,5.54 2.11,5.72 3.87,10.5 5.63,15.27 0.51,-0.36 1.01,-0.71 1.52,-1.07 1.41,1.17 3.4,2.06 4.14,3.56 3.83,7.82 7.19,15.87 10.99,23.7 4.32,8.9 8.94,17.65 13.43,26.47 0.44,-0.64 0.88,-1.28 1.31,-1.92 2.76,0.73 5.78,0.97 8.19,2.32 2.59,1.45 4.62,3.91 6.86,5.96 7.33,6.69 14.91,13.13 21.82,20.22 2.86,2.94 4.52,6.22 9.64,4.99 1.74,-0.42 4.51,1.36 6.11,2.86 6.74,6.32 14.09,11.51 24.56,14.99 z m -71.71,-199.33 c 0.2,-2.84 -0.38,-5.32 0.56,-6.25 4.15,-4.08 1.33,-7.77 -0.04,-11.6 -0.27,-0.76 -0.64,-1.49 -0.9,-2.26 -3.78,-11.06 -12.03,-20.86 -9.48,-33.72 0.17,-0.86 -0.64,-1.89 -0.93,-2.85 -1.22,-4.05 -2.41,-8.11 -3.62,-12.17 -3.29,-11.07 -4.06,-23.13 -13.21,-32.88 -4.99,8.28 -9.72,16.15 -14.85,24.67 2.63,0 3.94,0 5.24,0 -0.11,1.52 0.22,3.26 -0.41,4.52 -4.17,8.34 -8.88,16.43 -12.71,24.92 -2,4.43 -2.53,9.52 -3.73,14.31 0.55,0.13 1.09,0.27 1.64,0.4 3.54,-6.74 7.08,-13.48 10.62,-20.22 0.55,0.1 1.1,0.2 1.65,0.3 -1.23,6.83 -0.92,14.48 -4.03,20.31 -5.48,10.27 -6.36,20.82 -5.93,31.79 0.43,11.01 1.44,21.99 2.25,33.73 10.55,-3.42 19.87,-6.44 29.18,-9.45 -0.19,-0.57 -0.37,-1.14 -0.56,-1.71 -8.7,-1.28 -15.88,7.27 -24.96,4.17 2.91,-2.09 6.09,-3.07 9.23,-4.17 3.96,-1.39 9.25,-1.78 11.5,-4.58 3.18,-3.97 6.8,-5.17 11.12,-6.18 2.66,-0.62 5.25,-1.53 8.38,-2.46 -2.35,-2.96 -4.79,-5.06 -5.86,-7.72 -0.72,-1.78 0.51,-4.33 0.86,-6.54 1.76,0.58 3.64,0.93 5.23,1.81 1.17,0.63 1.96,1.94 3.76,3.83 z m 77.61,26.69 c 0.14,0.58 0.27,1.17 0.41,1.75 6.82,-2.13 13.83,-1.33 20.91,-5.07 9.34,-4.93 20.3,-6.79 30.56,-9.99 2.18,-0.68 4.34,-1.44 7.69,-2.55 -10.98,-2.83 -19.43,-1.24 -28.03,4.1 -7.39,4.6 -16.02,7.25 -24.21,10.51 -2.25,0.89 -4.87,0.86 -7.33,1.25 z m 230.7,-76.99 c -2.93,-6.78 -5.52,-12.76 -8.1,-18.74 -0.6,-0.08 -1.2,-0.15 -1.8,-0.23 -3.34,7.45 -6.67,14.9 -10.63,23.73 7.67,-1.78 13.68,-3.17 20.53,-4.76 z"
   id="path6"
   style="display:inline" />
	
	
	
	
	
	
	
	
</g>
</svg>
