<?xml version="1.0" encoding="utf-8"?>
<!-- Generator: Adobe Illustrator 24.3.0, SVG Export Plug-In . SVG Version: 6.00 Build 0)  -->
<svg version="1.1" id="Layer_1" xmlns="http://www.w3.org/2000/svg" xmlns:xlink="http://www.w3.org/1999/xlink" x="0px" y="0px"
	 viewBox="0 0 612 792" style="enable-background:new 0 0 612 792;" xml:space="preserve">
<style type="text/css">
	.st0{fill:#FFFFFF;}
</style>
<g>
	<path d="M306,146c0.33,0,0.67,0,1,0c5.46,16.6,10.84,33.23,16.51,49.75c0.58,1.7,2.78,3.6,4.55,4.02
		c11.65,2.74,23.36,5.2,35.11,7.47c1.66,0.32,4.11-0.35,5.33-1.48c4.41-4.07,9.35-5.42,15.18-4.57c2.21,0.32,4.58,0.36,6.77-0.03
		c15.46-2.77,30.54-2.22,42.87,8.61c6.95,6.11,12.3,14.05,18.85,21.72c9.2-4.61,19.75-9.89,30.3-15.18
		c-0.08,2.49-0.81,4.13-1.61,5.73c-7.53,15.03-15.01,30.09-22.69,45.05c-1.48,2.89-1.38,4.82,0.61,7.57
		c5.17,7.13,9.97,14.56,14.59,22.06c1.56,2.54,2.85,3.76,6.13,3.49c7.14-0.58,12.99,3.27,15.53,9.42c2.58,6.24,1.3,13.14-4.02,17.76
		c-2.42,2.1-2.12,3.81-1.5,6.43c2.63,11.16,5.25,22.34,7.25,33.63c0.66,3.69,1.94,5.36,5.39,6.47
		c19.32,6.24,38.57,12.69,57.85,19.08c0,0.33,0,0.67,0,1c-20.25,6.6-40.52,13.15-60.7,19.93c-1.18,0.4-2.1,2.64-2.46,4.18
		c-2.56,10.84-5.02,21.71-7.28,32.62c-0.33,1.59,0.03,3.94,1.03,5.09c4.64,5.31,5.99,11.18,3.32,17.61
		c-2.71,6.51-8.01,9.45-15.03,9.62c-1.27,0.03-3.12,0.62-3.68,1.56c-4.42,7.45-8.6,15.04-12.52,22c5.14,6.26,14.26,7.18,13.68,15.92
		c-0.44,6.57,1.96,13.88-4.37,19.17c2.51,3.83,5.25,7.23,7.11,11.04c2.67,5.48,4.72,11.26,6.99,16.93c0.38,0.94,0.56,1.95,0.98,3.46
		c-1.56-0.72-2.48-1.11-3.36-1.57c-3.31-1.73-6.07-3.74-10.04-0.11c-3.22,2.94-13.81,1.26-15.82-1.64
		c-2.46-3.54-5.35-7.09-6.61-11.09c-2.35-7.47-9.34-7.78-14.65-10.4c-3.52-1.74-7.89-1.77-12.78-2.74
		c-7.84,4.94-17.02,10.63-26.04,16.55c-1.08,0.71-1.69,2.69-1.83,4.15c-0.61,6.39-3.66,11.08-9.53,13.57
		c-5.83,2.47-11.3,1.44-16.5-2.28c-1.42-1.02-3.87-1.41-5.63-1.04c-11.07,2.29-22.05,5.07-33.15,7.24
		c-2.92,0.57-4.24,1.62-5.12,4.33c-6.27,19.32-12.66,38.6-19.02,57.89c-0.33,0-0.67,0-1,0c-6.37-19.1-12.79-38.18-19.07-57.31
		c-0.93-2.84-2.27-4.12-5.41-4.7c-11.59-2.16-23.13-4.68-34.61-7.4c-2.82-0.67-4.63-0.99-6.89,1.46c-4.55,4.94-11.52,6.13-17.45,3.4
		c-6.19-2.85-9.26-7.86-9.38-14.67c-0.03-1.53,0-3.06,0-6.01c-3.88,3.45-6.41,6.34-9.53,8.34c-5.94,3.82-11.97,7.66-18.41,10.47
		c-4.88,2.13-9.8-2.22-9.39-7.59c0.16-2.08,0.88-4.25,1.89-6.09c3.47-6.38,7.18-12.64,11.01-19.3c-1.55-0.97-3.1-1.94-5.24-3.27
		c-0.64,10.75-4.87,19.09-10.86,26.58c-4.97,6.22-10.25,11.67-19.56,10.33c-5.51-0.8-9.66-3.73-10.42-9.32
		c-0.24-1.76-0.3-3.54-0.49-5.93c-5.56,2.74-10.66,5.25-17.01,8.38c1.23-2.74,1.83-4.2,2.54-5.62c8.42-16.82,16.91-33.61,25.18-50.5
		c0.75-1.54,0.86-4.23,0.01-5.59c-5.54-8.89-11.36-17.6-17.29-26.24c-0.83-1.2-2.73-2.32-4.16-2.34
		c-7.01-0.11-12.43-2.87-15.24-9.31c-2.95-6.76-1.52-12.96,3.62-18.39c0.88-0.93,1.35-2.89,1.08-4.19c-2.42-11.72-5-23.4-7.69-35.06
		c-0.28-1.2-1.35-2.8-2.4-3.16C91.59,406.55,72.29,400.29,53,394c0-0.33,0-0.67,0-1c18.65-6.18,37.29-12.4,55.96-18.51
		c2.42-0.79,3.73-1.76,4.27-4.61c2.33-12.25,5.17-24.4,7.58-36.63c0.29-1.47-0.44-3.79-1.54-4.78c-5.24-4.7-7.35-10.29-5.4-17.05
		c1.95-6.78,6.72-10.43,13.72-11.39c1.26-0.17,2.75-0.96,3.53-1.94c1.72-2.16,3.06-4.63,5.01-7.68
		c-12.84-4.44-12.94-14.19-11.52-25.28c1.48-11.51,8.28-18.32,18.17-22.99c-5.23-10.43-10.1-20.14-14.97-29.86
		c0.29-0.24,0.57-0.49,0.86-0.73c10.94,5.48,21.87,10.97,33.37,16.73c1.9-4.19,3.79-8.04,5.41-11.99
		c5.09-12.41,12.74-21.7,27.18-23.06c1.81-0.17,3.58-0.75,5.38-0.97c9.52-1.14,19.02-2.79,28.58-3.17
		c10.39-0.41,18.18,8.84,16.65,17.75c13.46-2.43,27.16-4.8,40.8-7.52c1.37-0.27,2.83-2.49,3.39-4.1
		C295.05,178.85,300.5,162.42,306,146z M347.88,276.36c-0.5,3.05-0.79,6.15-1.55,9.14c-0.79,3.1-3.16,6.2-2.88,9.11
		c0.76,7.95-3.46,12.47-11.73,11.95c-1.83-0.11-4.34,1.13-5.54,2.57c-3.17,3.83-5.74,8.13-8.63,12.19
		c-1.74,2.44-4.04,3.65-6.87,1.86c-3.22-2.04-6.91-3.77-9.31-6.56c-7.64-8.86-16.84-12.17-28.18-9.51
		c-4.56,1.07-6.39-1.33-6.29-5.27c0.06-2.34,0.96-4.83,2.08-6.93c2.89-5.38,1.57-10.55-3.59-13.72c-1.1-0.68-1.78-2.24-2.37-3.53
		c-1.52-3.33-2.11-7.43-4.44-9.98c-6.15-6.73-13.2-12.62-19.55-19.18c-3.59-3.7-7.06-3.85-10.13,0.41c-1.45,2.02-3.08,3.93-4.45,6
		c-1.79,2.69-4.1,2.18-5.09,0.01c-2.23-4.93-4.73-10.11-0.94-15.54c2.67-3.82,3.29-8.01,1.63-12.36c-1.34-3.52,0-5.53,3-7.36
		c3.9-2.38,7.7-4.97,11.22-7.86c2.65-2.18,5.36-4.65,3.85-8.91c-1.51-4.26-4.86-5.53-8.73-4.99c-6.15,0.85-12.2,2.41-18.33,3.4
		c-3.5,0.57-7.13,1.09-10.63,0.81c-5.18-0.41-10.01,0.59-13.25,4.38c-5.71,6.71-11.78,13.47-15.69,21.22
		c-3.58,7.09-9,11.71-14.54,16.64c-3.76,3.35-7.41,6.61-12.96,6.67c-1.35,0.02-2.99,1.45-3.96,2.67
		c-5.21,6.55-7.25,14.23-6.62,22.43c0.33,4.23,2.51,7.66,6.79,9.74c3.07,1.49,5.64,4.03,9.03,6.53c-2.96,1.99-4.77,3.06-6.41,4.34
		c-2.96,2.31-4.9,5.36-3.59,9.13c2.63,7.59,6.75,14.63,14.33,17.78c3.87,1.61,9.03,0.87,13.41,0.08c1.35-0.24,2.01-4.17,3.05-6.38
		c0.26-0.56,0.77-1,1.18-1.51c0.62,0.22,1.18,0.26,1.52,0.56c9.53,8.27,18.95,16.67,28.62,24.77c1.64,1.38,4.68,2.63,6.46,2.05
		c7.51-2.46,12.87,0.36,14.33,8.17c2.08,11.13,6.35,20.9,16.06,27.77c4.13,2.92,7.55,6.83,11.44,10.42
		c-4.8,5.76-9.06,10.82-13.26,15.93c-7.82,9.52-15.26,19.38-23.52,28.49c-6.33,6.98-9.98,14.85-11.99,24.57c3.12,0,5.82,0,8.67,0
		c-0.98,2.76-2.52,5.23-2.57,7.74c-0.05,2.53,1.36,5.09,2.13,7.64c2.23-0.78,4.56-1.37,6.66-2.41c1.63-0.8,2.98-2.17,4.45-3.28
		c0.4,0.36,0.79,0.72,1.19,1.08c-3.67,7.1-8.27,13.55-13.71,19.57c-5.55,6.14-10.9,12.5-15.83,19.14
		c-4.16,5.59-7.43,11.76-6.24,20.13c1.94-0.31,4.57,0.07,5.74-1.06c9.53-9.15,18.78-18.58,28.13-27.91c1.3-1.3,2.73-2.48,4.11-3.71
		c0.26,0.33,0.52,0.66,0.78,0.98c-0.84,3.68-1.69,7.36-2.69,11.74c3.86-0.25,6.42-0.42,10.61-0.69
		c-6.75,7.97-12.84,14.97-18.71,22.16c-2.88,3.52-5.19,7.49-8.04,11.03c-6.13,7.64-12.59,15.02-18.59,22.75
		c-1.71,2.2-2.31,5.26-3.54,8.19c5.47,1.28,9.03-0.4,11.98-4.17c1.51-1.93,3.38-3.6,5.18-5.29c5.52-5.19,11.39-10.05,16.55-15.58
		c6.7-7.19,12.84-14.91,19.25-22.37c0.13-0.16,0.61-0.02,0.91-0.02c0.63,1.29,1.25,2.54,1.97,4c1.31-0.73,2.39-1.17,3.29-1.85
		c7.63-5.75,15.77-10.96,22.66-17.48c6.39-6.04,11.45-13.5,17.08-20.34c0.2-0.24,0.2-0.64,0.35-0.93c1.97-3.78,3.7-7.7,6-11.27
		c1.82-2.83,4.49-5.11,6.51-7.84c4.37-5.92,8.6-11.95,12.83-17.97c1.95-2.77,4.07-3.16,6.64-0.86c9.14,8.16,18.28,16.32,27.45,24.44
		c3.48,3.08,6.26,7.02,12.15,6.09c5.47-0.86,11.7-1.69,13.58,6.16c0.06,0.26,0.44,0.49,0.71,0.66c3.35,1.99,7.09,3.52,10,6.01
		c11.31,9.66,22.33,19.67,33.53,29.45c6.36,5.56,12.79,11.06,19.37,16.36c2.34,1.88,4.91,2.21,5.78-2.08
		c-4.01-5.21-7.8-10.75-12.2-15.74c-10.75-12.19-21.81-24.11-32.68-36.19c-3.11-3.46-6.16-7.01-8.91-10.77
		c-1.12-1.53-1.37-3.7-2.01-5.58c0.54-0.45,1.08-0.9,1.61-1.35c2.92,1.31,6.08,2.25,8.69,4.02c3,2.04,5.66,4.66,8.2,7.29
		c3.95,4.09,7.56,8.55,13.89,8.83c1.56,0.07,3.11,0.22,4.66,0.34c-0.34-1.83-0.09-4.17-1.14-5.41c-3.54-4.18-7.72-7.83-11.31-11.97
		c-1.95-2.24-3.22-5.08-4.79-7.65c2.99,0.67,6.73,0.43,8.85,2.17c10.12,8.27,19.91,16.96,29.58,25.77
		c3.12,2.84,5.61,6.13,10.51,5.61c1.04-0.11,2.29,1.03,3.32,1.77c1.41,1.01,2.7,2.18,4.1,3.32c2.39-2.6,2.26-4.31-0.2-6.15
		c-2.1-1.58-4.04-3.45-5.77-5.43c-3.65-4.17-6.84-8.79-10.75-12.69c-6.53-6.52-13.4-12.7-20.27-18.86
		c-6.8-6.1-13.74-12.04-20.71-17.94c-1.89-1.6-4.39-2.56-6.08-4.32c-0.98-1.01-0.9-3.04-1.3-4.61c1.26,0.31,2.8,0.26,3.75,0.98
		c4.61,3.48,8.73,7.72,13.65,10.65c6.6,3.93,8.82,12.93,17.61,14.32c2.77,0.44,4.36,0.69,5.35-2.42c-6.7-8-12.15-16.96-20.01-24.19
		c-16-14.74-28.75-32.3-41.54-49.78c-1.99-2.72-2.7-5.5,1.79-6.94c1.08-0.34,2.18-1.59,2.65-2.68c2.82-6.55,5.41-13.19,8.21-19.75
		c0.39-0.92,1.44-1.6,2.28-2.27c2.19-1.73,4.96-3,6.54-5.16c4.24-5.77,5.93-13.45,13.82-16.43c1.75-0.66,2.7-3.97,3.57-6.23
		c0.6-1.57,0.43-3.43,0.67-5.75c1.03,0.85,1.55,1.2,1.96,1.65c1.01,1.12,1.97,2.28,2.95,3.43c0.94-1.21,1.87-2.42,2.8-3.63
		c1.38-1.8,2.76-3.6,4.42-5.77c1.66,3.03,2.73,4.97,3.71,6.75c-1.38,0.57-3.27,0.74-3.85,1.69c-5.13,8.44-9.76,17.09-9.23,27.48
		c0.18,3.52,2.03,4.58,5.25,4.23c4.8-0.52,8.26-3.67,9.03-9.83c0.92-7.3,1-14.71,1.46-22.32c4.75,0.19,8.01-3.15,10.01-7.55
		c1.7-3.72,3.1-7.75,3.64-11.78c1.51-11.26,2.91-22.56,3.56-33.89c0.57-9.9,0.76-19.93-0.28-29.76c-0.46-4.35-4.01-8.6-6.79-12.44
		c-7.61-10.55-19.45-13.67-31.19-15.99c-6.87-1.36-15.52-0.69-19.88,4.44c-6.63,7.81-15.22,15.14-16.04,26.75
		c-0.1,1.39-1.16,2.73-1.85,4.05c-2.4,4.57-5.31,8.93-7.16,13.71C360.15,265.17,353.06,269.89,347.88,276.36z M448.7,506.29
		c-6.83-0.19-9.6,3.57-7.76,8.73c2.3,6.44,7.08,10.67,12.71,14.14c2.25,1.39,4.63,2.64,6.65,4.32c2.37,1.97,4.77,4.54,7.66,1.8
		c2.9-2.75,4.83-6.07,2.4-10.64c-3.43-6.44-9.19-10.19-14.79-14.19C453.06,508.67,450.31,507.25,448.7,506.29z M158.39,572.21
		c0.97-0.41,3.75-0.71,5.04-2.26c6.35-7.67,12.25-15.73,14.28-25.78c0.26-1.29-0.64-3.25-1.66-4.2c-0.66-0.62-2.9-0.49-3.76,0.17
		c-8.47,6.49-15.79,14.08-20.42,23.85C149.5,568.99,151.74,572.27,158.39,572.21z M379.87,514.89c6.17-3.68,4.28-7.3-0.38-14.21
		c-5.28-7.84-7.97-8.62-14.38-4.85C366.41,504.88,374.7,508.5,379.87,514.89z M471.24,563.64c0.46-0.58,2.63-2.45,2.32-3.08
		c-2.08-4.18-4.15-8.62-7.32-11.92c-2.55-2.65-6.87-0.63-7.3,2.63C458.34,555.74,465.28,563.66,471.24,563.64z"/>
	<path class="st0" d="M307,646c6.36-19.29,12.76-38.57,19.02-57.89c0.88-2.71,2.19-3.76,5.12-4.33c11.1-2.17,22.07-4.95,33.15-7.24
		c1.76-0.36,4.2,0.02,5.63,1.04c5.2,3.72,10.67,4.75,16.5,2.28c5.87-2.48,8.92-7.18,9.53-13.57c0.14-1.46,0.76-3.44,1.83-4.15
		c9.02-5.93,18.2-11.61,26.04-16.55c4.89,0.97,9.25,1,12.78,2.74c5.31,2.62,12.29,2.92,14.65,10.4c1.26,4,4.15,7.55,6.61,11.09
		c2.01,2.91,12.6,4.58,15.82,1.64c3.97-3.63,6.73-1.62,10.04,0.11c0.88,0.46,1.8,0.85,3.36,1.57c-0.42-1.51-0.6-2.52-0.98-3.46
		c-2.28-5.67-4.32-11.46-6.99-16.93c-1.86-3.82-4.6-7.21-7.11-11.04c6.34-5.29,3.94-12.61,4.37-19.17
		c0.58-8.74-8.54-9.66-13.68-15.92c3.92-6.96,8.09-14.56,12.52-22c0.56-0.94,2.41-1.53,3.68-1.56c7.02-0.17,12.32-3.11,15.03-9.62
		c2.68-6.43,1.32-12.3-3.32-17.61c-1.01-1.15-1.36-3.5-1.03-5.09c2.26-10.91,4.73-21.78,7.28-32.62c0.36-1.54,1.29-3.78,2.46-4.18
		c20.19-6.79,40.45-13.33,60.7-19.93c0,84,0,168,0,252C475.67,646,391.33,646,307,646z"/>
	<path class="st0" d="M53,394c19.29,6.29,38.59,12.55,57.83,18.97c1.06,0.35,2.13,1.95,2.4,3.16c2.69,11.66,5.26,23.35,7.69,35.06
		c0.27,1.29-0.2,3.26-1.08,4.19c-5.15,5.43-6.57,11.63-3.62,18.39c2.81,6.44,8.23,9.19,15.24,9.31c1.43,0.02,3.33,1.14,4.16,2.34
		c5.93,8.64,11.75,17.35,17.29,26.24c0.85,1.37,0.75,4.05-0.01,5.59c-8.27,16.89-16.76,33.68-25.18,50.5
		c-0.71,1.41-1.31,2.88-2.54,5.62c6.36-3.13,11.45-5.64,17.01-8.38c0.19,2.38,0.25,4.17,0.49,5.93c0.76,5.6,4.92,8.53,10.42,9.32
		c9.31,1.35,14.59-4.11,19.56-10.33c5.99-7.5,10.22-15.84,10.86-26.58c2.14,1.34,3.69,2.3,5.24,3.27
		c-3.83,6.66-7.53,12.92-11.01,19.3c-1,1.84-1.73,4.02-1.89,6.09c-0.41,5.37,4.51,9.72,9.39,7.59c6.44-2.81,12.47-6.65,18.41-10.47
		c3.11-2,5.65-4.89,9.53-8.34c0,2.94-0.02,4.48,0,6.01c0.11,6.81,3.19,11.82,9.38,14.67c5.93,2.73,12.9,1.54,17.45-3.4
		c2.25-2.45,4.07-2.13,6.89-1.46c11.48,2.72,23.01,5.24,34.61,7.4c3.14,0.59,4.48,1.86,5.41,4.7c6.28,19.13,12.7,38.21,19.07,57.31
		c-84.25,0-168.5,0-253,0C53,562,53,478,53,394z"/>
	<path class="st0" d="M560,393c-19.27-6.38-38.52-12.84-57.85-19.08c-3.45-1.11-4.73-2.78-5.39-6.47
		c-2.01-11.28-4.63-22.47-7.25-33.63c-0.62-2.62-0.92-4.32,1.5-6.43c5.32-4.62,6.6-11.51,4.02-17.76c-2.54-6.15-8.39-10-15.53-9.42
		c-3.28,0.27-4.57-0.96-6.13-3.49c-4.62-7.51-9.42-14.93-14.59-22.06c-1.99-2.75-2.09-4.68-0.61-7.57
		c7.68-14.96,15.15-30.02,22.69-45.05c0.8-1.6,1.53-3.24,1.61-5.73c-10.55,5.28-21.1,10.57-30.3,15.18
		c-6.55-7.67-11.89-15.61-18.85-21.72c-12.33-10.83-27.41-11.38-42.87-8.61c-2.19,0.39-4.56,0.35-6.77,0.03
		c-5.83-0.84-10.77,0.5-15.18,4.57c-1.23,1.13-3.68,1.8-5.33,1.48c-11.75-2.27-23.46-4.73-35.11-7.47
		c-1.78-0.42-3.97-2.32-4.55-4.02C317.84,179.23,312.46,162.6,307,146c84.33,0,168.67,0,253,0C560,228.33,560,310.67,560,393z"/>
	<path class="st0" d="M306,146c-5.5,16.42-10.95,32.85-16.58,49.22c-0.55,1.61-2.02,3.83-3.39,4.1c-13.63,2.72-27.34,5.09-40.8,7.52
		c1.53-8.91-6.25-18.16-16.65-17.75c-9.55,0.37-19.06,2.03-28.58,3.17c-1.81,0.22-3.58,0.8-5.38,0.97
		c-14.45,1.36-22.1,10.66-27.18,23.06c-1.62,3.96-3.51,7.8-5.41,11.99c-11.5-5.76-22.43-11.25-33.37-16.73
		c-0.29,0.24-0.57,0.49-0.86,0.73c4.87,9.71,9.74,19.43,14.97,29.86c-9.89,4.67-16.7,11.48-18.17,22.99
		c-1.42,11.09-1.32,20.84,11.52,25.28c-1.95,3.05-3.29,5.52-5.01,7.68c-0.78,0.98-2.27,1.77-3.53,1.94
		c-6.99,0.96-11.76,4.61-13.72,11.39c-1.95,6.76,0.16,12.35,5.4,17.05c1.1,0.99,1.83,3.3,1.54,4.78
		c-2.41,12.23-5.24,24.38-7.58,36.63c-0.54,2.85-1.85,3.82-4.27,4.61C90.29,380.6,71.65,386.82,53,393c0-82.33,0-164.67,0-247
		C137.33,146,221.67,146,306,146z"/>
	<path class="st0" d="M347.88,276.36c5.17-6.47,12.27-11.19,15.48-19.53c1.84-4.78,4.75-9.14,7.16-13.71
		c0.69-1.32,1.75-2.67,1.85-4.05c0.82-11.61,9.41-18.95,16.04-26.75c4.36-5.13,13.01-5.8,19.88-4.44
		c11.74,2.32,23.58,5.44,31.19,15.99c2.77,3.84,6.33,8.09,6.79,12.44c1.04,9.83,0.85,19.86,0.28,29.76
		c-0.65,11.33-2.06,22.63-3.56,33.89c-0.54,4.03-1.94,8.06-3.64,11.78c-2.01,4.4-5.26,7.74-10.01,7.55
		c-0.46,7.62-0.54,15.02-1.46,22.32c-0.78,6.16-4.23,9.31-9.03,9.83c-3.23,0.35-5.07-0.71-5.25-4.23
		c-0.54-10.39,4.09-19.04,9.23-27.48c0.58-0.96,2.47-1.12,3.85-1.69c-0.98-1.78-2.04-3.72-3.71-6.75c-1.66,2.17-3.04,3.97-4.42,5.77
		c-0.93,1.21-1.87,2.42-2.8,3.63c-0.98-1.15-1.94-2.31-2.95-3.43c-0.41-0.45-0.93-0.79-1.96-1.65c-0.24,2.32-0.07,4.18-0.67,5.75
		c-0.87,2.26-1.82,5.57-3.57,6.23c-7.89,2.98-9.59,10.66-13.82,16.43c-1.58,2.16-4.36,3.42-6.54,5.16
		c-0.84,0.67-1.89,1.35-2.28,2.27c-2.8,6.56-5.39,13.2-8.21,19.75c-0.47,1.1-1.57,2.34-2.65,2.68c-4.49,1.43-3.78,4.22-1.79,6.94
		c12.79,17.47,25.55,35.04,41.54,49.78c7.86,7.24,13.31,16.2,20.01,24.19c-0.99,3.1-2.58,2.86-5.35,2.42
		c-8.79-1.39-11.01-10.39-17.61-14.32c-4.92-2.93-9.04-7.17-13.65-10.65c-0.95-0.72-2.48-0.67-3.75-0.98
		c0.4,1.57,0.33,3.59,1.3,4.61c1.69,1.76,4.19,2.71,6.08,4.32c6.97,5.9,13.91,11.85,20.71,17.94c6.87,6.16,13.74,12.34,20.27,18.86
		c3.91,3.9,7.09,8.52,10.75,12.69c1.74,1.98,3.67,3.85,5.77,5.43c2.45,1.84,2.59,3.56,0.2,6.15c-1.4-1.14-2.69-2.31-4.1-3.32
		c-1.03-0.74-2.28-1.88-3.32-1.77c-4.9,0.52-7.39-2.78-10.51-5.61c-9.67-8.8-19.46-17.49-29.58-25.77c-2.12-1.74-5.86-1.5-8.85-2.17
		c1.57,2.57,2.84,5.4,4.79,7.65c3.6,4.14,7.77,7.79,11.31,11.97c1.05,1.24,0.8,3.58,1.14,5.41c-1.55-0.11-3.1-0.27-4.66-0.34
		c-6.34-0.28-9.95-4.75-13.89-8.83c-2.54-2.63-5.2-5.25-8.2-7.29c-2.61-1.77-5.77-2.71-8.69-4.02c-0.54,0.45-1.08,0.9-1.61,1.35
		c0.65,1.88,0.89,4.05,2.01,5.58c2.75,3.75,5.8,7.3,8.91,10.77c10.87,12.09,21.93,24,32.68,36.19c4.4,4.99,8.19,10.53,12.2,15.74
		c-0.87,4.29-3.45,3.96-5.78,2.08c-6.58-5.3-13.01-10.8-19.37-16.36c-11.2-9.79-22.22-19.8-33.53-29.45
		c-2.92-2.49-6.65-4.03-10-6.01c-0.28-0.16-0.65-0.39-0.71-0.66c-1.88-7.85-8.11-7.02-13.58-6.16c-5.89,0.93-8.67-3.01-12.15-6.09
		c-9.17-8.12-18.31-16.28-27.45-24.44c-2.57-2.3-4.69-1.92-6.64,0.86c-4.23,6.02-8.46,12.05-12.83,17.97
		c-2.02,2.73-4.69,5-6.51,7.84c-2.3,3.57-4.03,7.49-6,11.27c-0.15,0.29-0.16,0.69-0.35,0.93c-5.63,6.85-10.69,14.3-17.08,20.34
		c-6.9,6.52-15.04,11.73-22.66,17.48c-0.9,0.68-1.98,1.13-3.29,1.85c-0.72-1.46-1.34-2.72-1.97-4c-0.3,0-0.78-0.14-0.91,0.02
		c-6.41,7.47-12.55,15.18-19.25,22.37c-5.15,5.53-11.03,10.39-16.55,15.58c-1.8,1.69-3.67,3.36-5.18,5.29
		c-2.95,3.77-6.5,5.46-11.98,4.17c1.22-2.93,1.83-5.99,3.54-8.19c6-7.74,12.46-15.12,18.59-22.75c2.85-3.54,5.16-7.52,8.04-11.03
		c5.87-7.18,11.96-14.19,18.71-22.16c-4.19,0.27-6.75,0.44-10.61,0.69c1-4.38,1.85-8.06,2.69-11.74c-0.26-0.33-0.52-0.66-0.78-0.98
		c-1.37,1.23-2.8,2.41-4.11,3.71c-9.36,9.33-18.61,18.76-28.13,27.91c-1.18,1.13-3.8,0.74-5.74,1.06
		c-1.2-8.36,2.08-14.54,6.24-20.13c4.94-6.64,10.29-13,15.83-19.14c5.44-6.02,10.04-12.47,13.71-19.57
		c-0.4-0.36-0.79-0.72-1.19-1.08c-1.47,1.11-2.82,2.48-4.45,3.28c-2.1,1.04-4.43,1.63-6.66,2.41c-0.77-2.55-2.18-5.11-2.13-7.64
		c0.05-2.5,1.59-4.97,2.57-7.74c-2.86,0-5.56,0-8.67,0c2.01-9.72,5.66-17.59,11.99-24.57c8.27-9.11,15.7-18.98,23.52-28.49
		c4.2-5.11,8.46-10.17,13.26-15.93c-3.88-3.59-7.31-7.5-11.44-10.42c-9.71-6.87-13.98-16.64-16.06-27.77
		c-1.46-7.8-6.82-10.62-14.33-8.17c-1.78,0.58-4.82-0.67-6.46-2.05c-9.67-8.1-19.09-16.5-28.62-24.77c-0.34-0.3-0.9-0.34-1.52-0.56
		c-0.41,0.51-0.92,0.95-1.18,1.51c-1.04,2.21-1.7,6.13-3.05,6.38c-4.38,0.79-9.54,1.53-13.41-0.08
		c-7.58-3.15-11.69-10.18-14.33-17.78c-1.31-3.77,0.63-6.82,3.59-9.13c1.64-1.28,3.45-2.35,6.41-4.34
		c-3.39-2.51-5.95-5.04-9.03-6.53c-4.28-2.08-6.46-5.51-6.79-9.74c-0.63-8.2,1.41-15.88,6.62-22.43c0.97-1.21,2.61-2.65,3.96-2.67
		c5.55-0.06,9.21-3.33,12.96-6.67c5.54-4.93,10.96-9.55,14.54-16.64c3.92-7.75,9.98-14.52,15.69-21.22
		c3.23-3.8,8.07-4.79,13.25-4.38c3.51,0.28,7.13-0.24,10.63-0.81c6.13-1,12.18-2.55,18.33-3.4c3.86-0.53,7.22,0.73,8.73,4.99
		c1.51,4.26-1.2,6.73-3.85,8.91c-3.52,2.89-7.33,5.49-11.22,7.86c-3,1.83-4.34,3.84-3,7.36c1.65,4.35,1.03,8.54-1.63,12.36
		c-3.79,5.43-1.29,10.61,0.94,15.54c0.98,2.17,3.3,2.68,5.09-0.01c1.38-2.07,3-3.98,4.45-6c3.07-4.27,6.54-4.12,10.13-0.41
		c6.35,6.56,13.4,12.46,19.55,19.18c2.33,2.54,2.92,6.65,4.44,9.98c0.59,1.29,1.26,2.85,2.37,3.53c5.16,3.17,6.48,8.34,3.59,13.72
		c-1.13,2.1-2.02,4.59-2.08,6.93c-0.1,3.94,1.73,6.34,6.29,5.27c11.34-2.66,20.55,0.65,28.18,9.51c2.41,2.79,6.1,4.53,9.31,6.56
		c2.83,1.79,5.13,0.59,6.87-1.86c2.89-4.06,5.47-8.37,8.63-12.19c1.2-1.45,3.72-2.69,5.54-2.57c8.28,0.52,12.5-4.01,11.73-11.95
		c-0.28-2.91,2.08-6,2.88-9.11C347.09,282.52,347.38,279.41,347.88,276.36z M231.1,448.26c0.47,0.14,0.94,0.27,1.41,0.41
		c13.36-11.5,22.35-21.51,22.53-25.3c-1.15,0.24-2.58,0.1-3.28,0.75c-6.19,5.67-12.41,11.32-18.22,17.35
		C232.01,443.04,231.87,445.96,231.1,448.26z M371.14,338.43c11.52-4.82,14.94-7.6,14.34-13.9c-0.1-1.06-0.15-2.59-0.79-2.99
		c-0.69-0.43-2.45-0.15-3.05,0.48c-3.61,3.81-7.14,7.72-10.41,11.82C370.57,334.68,371.14,336.5,371.14,338.43z M253.69,488.85
		c6.75-1.64,10.12-6.91,7.05-10.94C257.2,480.73,253.94,483.58,253.69,488.85z"/>
	<path class="st0" d="M448.7,506.29c1.61,0.97,4.37,2.38,6.87,4.17c5.6,4,11.36,7.75,14.79,14.19c2.44,4.57,0.51,7.88-2.4,10.64
		c-2.89,2.74-5.29,0.17-7.66-1.8c-2.02-1.68-4.4-2.93-6.65-4.32c-5.62-3.47-10.41-7.7-12.71-14.14
		C439.1,509.86,441.87,506.1,448.7,506.29z"/>
	<path class="st0" d="M158.39,572.21c-6.65,0.06-8.89-3.23-6.52-8.22c4.63-9.76,11.94-17.35,20.42-23.85
		c0.86-0.66,3.1-0.79,3.76-0.17c1.02,0.95,1.92,2.91,1.66,4.2c-2.03,10.05-7.93,18.11-14.28,25.78
		C162.14,571.5,159.36,571.81,158.39,572.21z"/>
	<path class="st0" d="M379.87,514.89c-5.16-6.39-13.46-10-14.77-19.06c6.42-3.77,9.1-2.99,14.38,4.85
		C384.15,507.59,386.03,511.2,379.87,514.89z"/>
	<path class="st0" d="M471.24,563.64c-5.96,0.02-12.9-7.89-12.3-12.37c0.44-3.26,4.76-5.28,7.3-2.63c3.17,3.3,5.23,7.74,7.32,11.92
		C473.87,561.19,471.7,563.05,471.24,563.64z"/>
	<path d="M231.1,448.26c0.77-2.3,0.91-5.21,2.43-6.79c5.82-6.04,12.04-11.69,18.22-17.35c0.71-0.65,2.14-0.51,3.28-0.75
		c-0.19,3.79-9.18,13.8-22.53,25.3C232.04,448.53,231.57,448.39,231.1,448.26z"/>
	<path d="M371.14,338.43c0-1.93-0.57-3.75,0.1-4.58c3.27-4.11,6.79-8.01,10.41-11.82c0.6-0.63,2.36-0.91,3.05-0.48
		c0.64,0.4,0.69,1.94,0.79,2.99C386.08,330.83,382.66,333.61,371.14,338.43z"/>
	<path d="M253.69,488.85c0.25-5.26,3.51-8.12,7.05-10.94C263.81,481.94,260.45,487.21,253.69,488.85z"/>
</g>
</svg>
