<?xml version="1.0" encoding="utf-8"?>
<!-- Generator: Adobe Illustrator 24.3.0, SVG Export Plug-In . SVG Version: 6.00 Build 0)  -->
<svg version="1.1" id="Layer_1" xmlns="http://www.w3.org/2000/svg" xmlns:xlink="http://www.w3.org/1999/xlink" x="0px" y="0px"
	 viewBox="0 0 612 792" style="enable-background:new 0 0 612 792;" xml:space="preserve">
<style type="text/css">
	.st0{fill:#FFFFFF;}
</style>
<g>
	<path class="st0" d="M400.68,667c-133.55,0-267.09,0-400.68,0c0-181.99,0-363.97,0-546.06c203.11,0,406.26,0,609.58,0
		c0,181.95,0,364.01,0,546.06c-66.82,0-133.76,0-200.7,0c-10.78-3.26-21.55-6.53-32.76-9.92c2.34-3.73,4.26-6.44,8.81-4.76
		c1.22,0.45,3.26,0.27,4.25-0.5c3.4-2.62,6.68-1.95,10.09-0.37c2.01,0.93,3.88,2.3,5.98,2.84c5.12,1.33,10.24,3.68,15.79,1.42
		c-2.82-2.19-5.87-3.57-8.74-5.27c-0.74-0.44-0.86-1.89-1.27-2.88c0.99-0.21,2.11-0.83,2.96-0.57c14.39,4.39,28.7,9.05,43.15,13.21
		c2.85,0.82,6.24-0.23,9.38-0.42c0.06-0.67,0.13-1.35,0.19-2.02c-13.93-3.04-25.42-10.5-37.68-19.53
		c6.67,0.96,11.85,1.84,17.07,2.35c1.15,0.11,2.43-1.13,3.64-1.75c-0.94-0.82-1.74-1.96-2.83-2.41c-5.49-2.24-11.25-3.91-16.54-6.54
		c-3.56-1.77-6.56-4.71-9.69-7.28c-1.92-1.58-3.51-3.55-5.42-5.15c-5.54-4.62-11.16-9.14-16.75-13.71c0.26-0.28,0.52-0.55,0.78-0.83
		c5.69,2.37,11.38,4.74,17.07,7.12c0.45-0.59,0.91-1.18,1.36-1.77c-1.29-0.77-2.76-1.34-3.86-2.33
		c-8.52-7.61-17.42-14.87-25.29-23.11c-5.8-6.08-10.88-13.1-15.02-20.41c-2.63-4.65-2.95-10.6-4.53-16.87
		c7.78,3.57,13.87,6.05,17.84,12.59c4.1,6.77,9.49,12.93,15.13,18.54c4.01,3.99,9.37,6.62,14.13,9.86c0.31-0.41,0.63-0.82,0.94-1.23
		c-1.74-2.12-3.48-4.24-5.33-6.5c1.47-0.64,2.47-1.08,3.92-1.71c-1.31-1.96-2.44-3.61-3.53-5.28c-5.11-7.83-10.36-15.58-15.26-23.54
		c-2.64-4.29-3.91-8.99-1.19-13.93c0.73,0.09,1.23,0.11,1.7,0.21c14.35,3.13,26.5,10.76,37.77,19.59
		c6.95,5.44,13.25,5.78,20.66,1.81c5.04-2.7,10.39-4.42,15.99-1.03c0.61,0.37,1.75,0.42,2.39,0.11c7.02-3.41,13.95-1.53,20.96,0.05
		c14.62,3.28,23.25-1.88,27.58-16.17c0.57-1.89,1.31-3.87,2.49-5.42c2.18-2.86,2.31-5.52,0.26-8.4c-3.47-4.88-3.98-10.39-3.3-16.1
		c0.59-4.9,1.48-9.76,2.05-14.66c0.76-6.47-0.17-12.51-5.4-17.89c-3.77,8.8-7.74,17.05-10.82,25.62c-1.83,5.11-5.07,7.98-9.88,9.35
		c-11.42,3.25-22.12-0.54-32.76-3.96c-1.3-0.42-2.85-2.4-2.96-3.77c-0.52-6.75-0.7-13.53-0.77-20.3c-0.02-2.44,0.6-4.88,0.93-7.32
		c-0.49-0.29-0.97-0.58-1.46-0.86c-1.29,1.23-2.71,2.35-3.84,3.72c-4.98,6.01-9.79,12.16-14.84,18.1c-2.62,3.08-5.65,3.48-8.54,0.1
		c-5.84-6.85-12.54-13.15-17.31-20.67c-6.13-9.66-13.62-17.45-23.58-22.77c-8.4-4.49-17.11-8.4-25.65-12.63
		c-4.13-2.04-5.21-4.95-2.57-8.56c10.65-14.56,21.45-29.02,32.43-43.33c0.96-1.25,3.87-1.93,5.56-1.54
		c6.77,1.58,13.41,3.7,20.1,5.61c5.55,1.59,11.06,3.35,16.67,4.69c5.4,1.28,10.9,2.11,16.28,3.12c1.23,13.28,7.31,25.95-0.66,38.98
		c6.35-3.98,12.22-7.92,16.58-13.12c5.43-6.48,9.72-13.94,14.29-21.12c1.47-2.31,2.94-3.22,5.75-2.8c9.56,1.44,19.1,3.58,28.86,1.18
		c3.86-0.95,5.19,1.22,4.98,4.84c-0.24,4.23-1.48,8.88-0.18,12.62c1.65,4.74-0.05,8.03-1.83,11.74c-0.78,1.61-1.66,3.18-2.5,4.76
		c2.13-0.3,3.88-1.04,5.01-2.33c6.83-7.81,14.93-14.96,19.84-23.85c4.71-8.52,10.9-11.19,19.44-11.81c1.11-0.08,2.58-0.81,3.16-1.7
		c10.22-15.78,17.61-32.87,18.55-51.66c0.4-7.93,2.84-13.91,7.22-19.78c1.02-1.37,2.24-2.61,3.09-4.07
		c5.5-9.43,10.07-19.28,11.14-30.28c0.6-6.11-4.02-10.2-9.52-7.78c-14.19,6.24-29.59,1.82-43.97,5.73
		c-1.02,0.28-2.29-0.46-3.46-0.64c-18.84-2.88-37.65-6.02-56.55-8.48c-8.69-1.13-17.56-0.9-27.08-1.32
		c0.42-3.88,0.64-7.91,1.33-11.85c1.58-9.04-1.05-14.22-9.82-17.23c-9-3.09-18.15-5.75-27.27-8.45
		c-14.74-4.37-29.39-8.99-41.61-18.79c-18.7-14.99-38.48-28.45-54.94-46.43c-18.8-20.53-43.12-34.18-68.28-45.96
		c-2.07-0.97-4.33-1.54-6.6-2.34c0.39,5.28,11.01,4.55,6.4,12.57c-4.77-2.57-9.04-5-13.42-7.19c-4.41-2.21-8.91-4.23-13.41-6.26
		c-4.22-1.9-8.49-3.7-12.74-5.55c16.25,9.79,32.71,18.88,46.6,32.01c-3.19-0.56-6.08-1.85-9.11-2.65c-3.1-0.83-6.33-1.19-9.51-1.75
		c-0.86,0.21-1.72,0.42-2.58,0.64c6.89,3.23,2.25,4.45,0.76,6.81c6.4,4.08,12.58,8.02,19.36,12.35c-2.17,0.44-3.33,0.67-4.95,1
		c1.14,1.61,1.96,2.78,3.09,4.39c-2.9,0-5.28,0-7.65,0c1.56,2.04,3.3,3.33,5.21,4.29c10.21,5.18,10.26,5.16,8.82,16.37
		c-0.21,1.61-1.11,3.12-1.54,4.72c-0.51,1.9-1.39,3.89-1.19,5.75c0.59,5.57-0.29,6.27-6.03,7.07c-7.17,1-14.27,2.68-21.34,4.31
		c-4.13,0.96-8.11,2.53-12.21,3.59c-5,1.29-9.06,0.28-13.62-3.03c-8.18-5.94-16.96-11.45-26.22-15.45
		c-24.95-10.78-50.24-20.77-75.51-30.82c-6.29-2.5-10.46-5.84-10.57-13.16c-0.03-1.84-1.77-3.65-2.72-5.47
		c-0.31,0.2-0.61,0.4-0.92,0.6c-0.44,2.9-0.88,5.8-1.33,8.7c-0.48,0.03-0.96,0.06-1.45,0.09c-1.38-6.09-2.76-12.18-4.13-18.27
		c-0.44,0.13-0.87,0.27-1.31,0.4c-0.68,5.83-1.36,11.66-2.06,17.72c-4.22-2.22-7.74-4.08-11.27-5.94c-0.26,0.42-0.51,0.84-0.77,1.27
		c4.21,5.17,12.56,7.58,11.69,17c-2.94-1.26-5.31-2.28-7.68-3.3c1.4,3.03,3.86,4.94,5.36,7.43c1.57,2.61,3.41,5.91,3.08,8.66
		c-1.7,13.81,0.64,27.2,3.93,40.36c3.33,13.32,7.81,26.36,11.9,39.49c2.16,6.93,4.11,13.99,7.02,20.61
		c1.7,3.87,2.05,6.54-0.49,10.19c-7.95,11.42-15.49,23.14-23.28,34.88c11.33-3.44,18.66-14.33,32.04-16.73
		c-20.96,26.97-48.62,45.17-70.53,69.25c6.46-2.74,12.69-5.7,18.55-9.26c6.13-3.73,11.9-8.04,18.47-12.53
		c-2.09,6.55-8.22,8.73-11.87,13.05c-3.69,4.37-7.46,8.67-11.19,13c2.24,0.39,4.09,0.1,5.44-0.87c6.22-4.43,12.26-9.13,18.47-13.59
		c3.17-2.28,6.35-5.55,9.87-6.08c5.72-0.87,8.54-4.2,11.44-8.35c1.28-1.84,4.04-4.67,5.12-4.28c5.41,1.95,7.74-1.87,10.84-4.57
		c0.72-0.63,1.79-0.85,2.69-1.26c0.27,0.34,0.53,0.68,0.8,1.02c-30.12,36.6-58.01,75.17-96.36,106.25c2.55-0.49,3.73-0.71,4.9-0.93
		c0.17,0.25,0.34,0.51,0.5,0.76c-7.18,6.83-14.36,13.67-21.54,20.5c0.32,0.34,0.64,0.68,0.96,1.02
		c9.86-7.55,19.71-15.09,29.57-22.64c0.53,0.58,1.06,1.16,1.58,1.74c-6.55,10.52-17.79,16.74-25.38,26.48
		c9.66-6.96,19.32-13.92,28.98-20.87c0.35,0.42,0.7,0.85,1.05,1.27c-0.8,2.07-5.05,3.06-2.25,6.36c0.14,0.17-0.95,1.59-1.66,2.23
		c-1.36,1.25-2.86,2.35-4.3,3.51c0.18,0.47,0.37,0.94,0.55,1.42c4.09-1.41,8.17-2.83,12.26-4.24c0.21,0.37,0.43,0.73,0.64,1.1
		c-4.96,4.28-9.93,8.56-14.89,12.84c7.21-3.33,13.41-7.79,19.96-11.66c31.81-18.78,64.09-36.78,95.48-56.24
		c31.26-19.38,61.65-40.16,92.42-60.32c2-1.31,4.04-2.58,6.6-4.2c-0.19,1.36-0.12,1.81-0.3,1.98c-0.86,0.82-1.76,1.61-2.69,2.35
		c-31.28,24.88-59.78,53.18-93.4,75.19c-10.96,7.18-20.88,16.07-32.21,22.54c-19.96,11.4-40.66,21.49-61,32.23
		c-7.59,4.01-15.05,8.28-22.57,12.43c0.14,0.47,0.27,0.93,0.41,1.4c6.61-1.02,13.23-2.04,19.84-3.06c0.1,0.32,0.2,0.64,0.3,0.95
		c-10.78,4.99-21.56,9.99-32.34,14.98c0.14,0.37,0.29,0.74,0.43,1.1c5.73-1.33,11.45-2.66,17.18-3.99c0.13,0.38,0.25,0.77,0.38,1.15
		c-8.37,3.75-16.75,7.49-25.47,11.4c1.34,0.57,2.14,0.92,4.14,1.77c-11.34,4.61-21.57,8.77-31.8,12.94
		c0.29,0.73,0.57,1.46,0.86,2.18c30.18-10.68,60.37-21.37,90.55-32.05c0.21,0.55,0.41,1.09,0.62,1.64
		c-3.94,1.62-7.87,3.24-11.81,4.86c0.15,0.37,0.3,0.74,0.44,1.1c2.31-0.27,4.61-0.55,6.92-0.82c0.11,0.42,0.23,0.85,0.34,1.27
		c-9.52,4.17-19.04,8.35-28.56,12.52c0.17,0.44,0.34,0.87,0.52,1.31c10.73-2.98,21.42-6.06,32.2-8.85c2.62-0.68,5.48-0.4,8.23-0.56
		c0.07,0.58,0.13,1.16,0.2,1.73c-6.5,2.71-13.01,5.43-19.51,8.14c0.11,0.3,0.22,0.61,0.33,0.91c2.41-0.15,4.82-0.29,7.23-0.44
		c0.1,0.37,0.2,0.74,0.3,1.11c-11.03,4.81-22.07,9.62-33.1,14.43c0.17,0.47,0.34,0.94,0.51,1.41c32.68-6.29,63.85-17.65,94.94-29.25
		c31.4-11.72,60.97-27.09,89.13-45.52c-0.34,2.24-1.06,3.92-1.96,5.5c-15.61,27.49-18.72,56.77-12.5,87.35
		c4.64,22.8,19.12,39.28,36.22,53.51c8.13,6.76,17.32,13.01,27.07,16.89c16.21,6.46,33.25,10.87,49.97,16.06
		c5.82,1.81,11.62,3.97,17.59,4.99C374.78,663.65,387.75,665.19,400.68,667z"/>
	<path d="M400.68,667c-12.93-1.81-25.9-3.35-38.76-5.53c-5.97-1.01-11.77-3.18-17.59-4.99c-16.71-5.2-33.75-9.6-49.97-16.06
		c-9.75-3.88-18.94-10.13-27.07-16.89c-17.1-14.23-31.58-30.7-36.22-53.51c-6.22-30.57-3.12-59.86,12.5-87.35
		c0.9-1.58,1.62-3.26,1.96-5.5c-28.15,18.43-57.73,33.8-89.13,45.52c-31.08,11.6-62.26,22.96-94.94,29.25
		c-0.17-0.47-0.34-0.94-0.51-1.41c11.03-4.81,22.07-9.62,33.1-14.43c-0.1-0.37-0.2-0.74-0.3-1.11c-2.41,0.15-4.82,0.29-7.23,0.44
		c-0.11-0.3-0.22-0.61-0.33-0.91c6.5-2.71,13.01-5.43,19.51-8.14c-0.07-0.58-0.13-1.16-0.2-1.73c-2.75,0.16-5.61-0.12-8.23,0.56
		c-10.77,2.79-21.47,5.87-32.2,8.85c-0.17-0.44-0.34-0.87-0.52-1.31c9.52-4.17,19.04-8.35,28.56-12.52
		c-0.11-0.42-0.23-0.85-0.34-1.27c-2.31,0.27-4.61,0.55-6.92,0.82c-0.15-0.37-0.3-0.74-0.44-1.1c3.94-1.62,7.87-3.24,11.81-4.86
		c-0.21-0.55-0.41-1.09-0.62-1.64c-30.18,10.68-60.37,21.37-90.55,32.05c-0.29-0.73-0.57-1.46-0.86-2.18
		c10.23-4.16,20.46-8.32,31.8-12.94c-1.99-0.85-2.8-1.2-4.14-1.77c8.72-3.9,17.1-7.65,25.47-11.4c-0.13-0.38-0.25-0.77-0.38-1.15
		c-5.73,1.33-11.45,2.66-17.18,3.99c-0.14-0.37-0.29-0.74-0.43-1.1c10.78-4.99,21.56-9.99,32.34-14.98c-0.1-0.32-0.2-0.64-0.3-0.95
		c-6.61,1.02-13.23,2.04-19.84,3.06c-0.14-0.47-0.27-0.93-0.41-1.4c7.52-4.15,14.97-8.42,22.57-12.43
		c20.34-10.73,41.04-20.83,61-32.23c11.33-6.47,21.24-15.36,32.21-22.54c33.62-22.01,62.12-50.31,93.4-75.19
		c0.93-0.74,1.83-1.52,2.69-2.35c0.18-0.18,0.11-0.62,0.3-1.98c-2.56,1.63-4.6,2.89-6.6,4.2c-30.77,20.16-61.16,40.94-92.42,60.32
		c-31.38,19.46-63.67,37.46-95.48,56.24c-6.55,3.87-12.75,8.33-19.96,11.66c4.96-4.28,9.93-8.56,14.89-12.84
		c-0.21-0.37-0.43-0.73-0.64-1.1c-4.09,1.41-8.17,2.83-12.26,4.24c-0.18-0.47-0.37-0.94-0.55-1.42c1.44-1.16,2.93-2.27,4.3-3.51
		c0.7-0.64,1.8-2.06,1.66-2.23c-2.8-3.3,1.45-4.29,2.25-6.36c-0.35-0.42-0.7-0.85-1.05-1.27c-9.66,6.96-19.32,13.92-28.98,20.87
		c7.59-9.74,18.83-15.96,25.38-26.48c-0.53-0.58-1.06-1.16-1.58-1.74c-9.86,7.55-19.71,15.09-29.57,22.64
		c-0.32-0.34-0.64-0.68-0.96-1.02c7.18-6.83,14.36-13.67,21.54-20.5c-0.17-0.25-0.34-0.51-0.5-0.76c-1.17,0.22-2.35,0.45-4.9,0.93
		c38.36-31.08,66.25-69.65,96.36-106.25c-0.27-0.34-0.53-0.68-0.8-1.02c-0.91,0.41-1.98,0.63-2.69,1.26
		c-3.09,2.7-5.43,6.52-10.84,4.57c-1.08-0.39-3.84,2.45-5.12,4.28c-2.9,4.15-5.72,7.47-11.44,8.35c-3.52,0.54-6.7,3.81-9.87,6.08
		c-6.21,4.46-12.24,9.15-18.47,13.59c-1.36,0.97-3.2,1.25-5.44,0.87c3.73-4.33,7.5-8.63,11.19-13c3.64-4.32,9.77-6.5,11.87-13.05
		c-6.57,4.5-12.34,8.81-18.47,12.53c-5.86,3.57-12.1,6.52-18.55,9.26c21.91-24.08,49.57-42.28,70.53-69.25
		c-13.38,2.4-20.71,13.29-32.04,16.73c7.79-11.74,15.32-23.46,23.28-34.88c2.54-3.65,2.19-6.32,0.49-10.19
		c-2.91-6.62-4.86-13.68-7.02-20.61c-4.09-13.13-8.57-26.17-11.9-39.49c-3.29-13.16-5.63-26.55-3.93-40.36
		c0.34-2.75-1.5-6.05-3.08-8.66c-1.5-2.49-3.96-4.4-5.36-7.43c2.37,1.02,4.74,2.04,7.68,3.3c0.87-9.42-7.48-11.83-11.69-17
		c0.26-0.42,0.51-0.84,0.77-1.27c3.53,1.86,7.05,3.72,11.27,5.94c0.71-6.06,1.39-11.89,2.06-17.72c0.44-0.13,0.87-0.27,1.31-0.4
		c1.38,6.09,2.76,12.18,4.13,18.27c0.48-0.03,0.96-0.06,1.45-0.09c0.44-2.9,0.88-5.8,1.33-8.7c0.31-0.2,0.61-0.4,0.92-0.6
		c0.95,1.82,2.69,3.64,2.72,5.47c0.1,7.32,4.28,10.66,10.57,13.16c25.26,10.04,50.55,20.04,75.51,30.82
		c9.26,4,18.04,9.51,26.22,15.45c4.56,3.31,8.62,4.32,13.62,3.03c4.11-1.06,8.09-2.64,12.21-3.59c7.07-1.64,14.16-3.31,21.34-4.31
		c5.74-0.8,6.62-1.5,6.03-7.07c-0.2-1.86,0.68-3.85,1.19-5.75c0.43-1.6,1.33-3.11,1.54-4.72c1.44-11.21,1.39-11.19-8.82-16.37
		c-1.9-0.97-3.65-2.25-5.21-4.29c2.37,0,4.75,0,7.65,0c-1.13-1.61-1.96-2.77-3.09-4.39c1.62-0.33,2.78-0.56,4.95-1
		c-6.78-4.32-12.96-8.26-19.36-12.35c1.49-2.36,6.13-3.58-0.76-6.81c0.86-0.21,1.72-0.42,2.58-0.64c3.17,0.56,6.4,0.92,9.51,1.75
		c3.02,0.81,5.92,2.1,9.11,2.65c-13.89-13.13-30.35-22.22-46.6-32.01c4.25,1.85,8.52,3.65,12.74,5.55c4.5,2.03,9,4.05,13.41,6.26
		c4.38,2.2,8.65,4.62,13.42,7.19c4.6-8.02-6.01-7.29-6.4-12.57c2.27,0.79,4.53,1.37,6.6,2.34c25.16,11.78,49.48,25.43,68.28,45.96
		c16.46,17.97,36.24,31.44,54.94,46.43c12.22,9.8,26.87,14.42,41.61,18.79c9.13,2.7,18.27,5.36,27.27,8.45
		c8.77,3.01,11.4,8.19,9.82,17.23c-0.69,3.95-0.91,7.98-1.33,11.85c9.52,0.42,18.39,0.19,27.08,1.32c18.9,2.46,37.71,5.6,56.55,8.48
		c1.17,0.18,2.44,0.91,3.46,0.64c14.38-3.91,29.78,0.51,43.97-5.73c5.5-2.42,10.12,1.67,9.52,7.78
		c-1.08,11.01-5.64,20.85-11.14,30.28c-0.85,1.46-2.07,2.7-3.09,4.07c-4.38,5.88-6.82,11.85-7.22,19.78
		c-0.95,18.79-8.34,35.89-18.55,51.66c-0.58,0.89-2.05,1.62-3.16,1.7c-8.54,0.61-14.73,3.28-19.44,11.81
		c-4.92,8.89-13.01,16.05-19.84,23.85c-1.13,1.29-2.88,2.03-5.01,2.33c0.84-1.59,1.72-3.15,2.5-4.76c1.79-3.7,3.48-7,1.83-11.74
		c-1.3-3.74-0.06-8.38,0.18-12.62c0.21-3.63-1.12-5.79-4.98-4.84c-9.76,2.4-19.3,0.26-28.86-1.18c-2.82-0.42-4.28,0.49-5.75,2.8
		c-4.57,7.17-8.86,14.63-14.29,21.12c-4.36,5.2-10.23,9.14-16.58,13.12c7.97-13.03,1.89-25.7,0.66-38.98
		c-5.38-1.01-10.89-1.84-16.28-3.12c-5.61-1.33-11.12-3.1-16.67-4.69c-6.69-1.91-13.33-4.03-20.1-5.61
		c-1.69-0.39-4.6,0.29-5.56,1.54c-10.98,14.31-21.78,28.77-32.43,43.33c-2.64,3.61-1.56,6.51,2.57,8.56
		c8.54,4.23,17.25,8.14,25.65,12.63c9.96,5.33,17.45,13.12,23.58,22.77c4.77,7.52,11.47,13.82,17.31,20.67
		c2.89,3.38,5.92,2.98,8.54-0.1c5.06-5.94,9.86-12.09,14.84-18.1c1.13-1.36,2.55-2.48,3.84-3.72c0.49,0.29,0.97,0.58,1.46,0.86
		c-0.33,2.44-0.96,4.88-0.93,7.32c0.07,6.77,0.25,13.55,0.77,20.3c0.1,1.36,1.66,3.35,2.96,3.77c10.64,3.42,21.33,7.21,32.76,3.96
		c4.81-1.37,8.04-4.24,9.88-9.35c3.08-8.57,7.05-16.82,10.82-25.62c5.23,5.38,6.16,11.42,5.4,17.89c-0.58,4.9-1.47,9.76-2.05,14.66
		c-0.68,5.7-0.18,11.22,3.3,16.1c2.05,2.87,1.92,5.53-0.26,8.4c-1.18,1.55-1.92,3.53-2.49,5.42c-4.33,14.29-12.97,19.46-27.58,16.17
		c-7.01-1.58-13.94-3.46-20.96-0.05c-0.64,0.31-1.78,0.26-2.39-0.11c-5.6-3.39-10.95-1.68-15.99,1.03
		c-7.41,3.98-13.71,3.64-20.66-1.81c-11.27-8.83-23.42-16.46-37.77-19.59c-0.47-0.1-0.97-0.12-1.7-0.21
		c-2.72,4.94-1.45,9.65,1.19,13.93c4.9,7.96,10.15,15.71,15.26,23.54c1.09,1.67,2.22,3.32,3.53,5.28c-1.45,0.63-2.45,1.07-3.92,1.71
		c1.85,2.25,3.59,4.37,5.33,6.5c-0.31,0.41-0.63,0.82-0.94,1.23c-4.76-3.24-10.12-5.87-14.13-9.86
		c-5.64-5.61-11.03-11.77-15.13-18.54c-3.96-6.54-10.06-9.02-17.84-12.59c1.58,6.27,1.9,12.23,4.53,16.87
		c4.14,7.31,9.22,14.33,15.02,20.41c7.87,8.24,16.77,15.5,25.29,23.11c1.1,0.98,2.56,1.56,3.86,2.33c-0.45,0.59-0.91,1.18-1.36,1.77
		c-5.69-2.37-11.38-4.74-17.07-7.12c-0.26,0.28-0.52,0.55-0.78,0.83c5.59,4.56,11.21,9.08,16.75,13.71c1.91,1.59,3.5,3.57,5.42,5.15
		c3.13,2.57,6.13,5.51,9.69,7.28c5.29,2.63,11.05,4.3,16.54,6.54c1.09,0.44,1.89,1.59,2.83,2.41c-1.22,0.62-2.5,1.86-3.64,1.75
		c-5.22-0.5-10.41-1.39-17.07-2.35c12.26,9.03,23.75,16.49,37.68,19.53c-0.06,0.67-0.13,1.35-0.19,2.02
		c-3.14,0.19-6.53,1.24-9.38,0.42c-14.45-4.15-28.76-8.82-43.15-13.21c-0.85-0.26-1.97,0.36-2.96,0.57
		c0.41,0.99,0.54,2.44,1.27,2.88c2.86,1.7,5.91,3.08,8.74,5.27c-5.55,2.26-10.67-0.09-15.79-1.42c-2.1-0.55-3.97-1.91-5.98-2.84
		c-3.41-1.58-6.69-2.25-10.09,0.37c-0.99,0.76-3.03,0.95-4.25,0.5c-4.55-1.68-6.47,1.03-8.81,4.76c11.2,3.39,21.98,6.65,32.76,9.92
		C406.15,667,403.41,667,400.68,667z M391.42,291.38c-8.58-10.84-18.85-17.84-32.25-16.52c-12.63,1.25-25.07,4.45-37.79,6.83
		c10.06,6.9,19.1,13.1,28.13,19.3c2.18,1.5,4.15,2.25,6.92,0.68C367.06,295.64,378.49,292.05,391.42,291.38z"/>
	<path class="st0" d="M391.42,291.38c-12.93,0.68-24.36,4.26-34.98,10.29c-2.77,1.57-4.74,0.82-6.92-0.68
		c-9.04-6.2-18.08-12.4-28.13-19.3c12.71-2.38,25.15-5.58,37.79-6.83C372.57,273.54,382.84,280.53,391.42,291.38z"/>
</g>
</svg>
