<?xml version="1.0" encoding="utf-8"?>
<!-- Generator: Adobe Illustrator 24.3.0, SVG Export Plug-In . SVG Version: 6.00 Build 0)  -->
<svg version="1.1" id="Layer_1" xmlns="http://www.w3.org/2000/svg" xmlns:xlink="http://www.w3.org/1999/xlink" x="0px" y="0px"
	 viewBox="0 0 612 792" style="enable-background:new 0 0 612 792;" xml:space="preserve">
<style type="text/css">
	.st0{fill:#FFFFFF;}
</style>
<g>
	<path class="st0" d="M53,646c0-166.67,0-333.33,0-500c168.67,0,337.33,0,506,0c0,166.67,0,333.33,0,500
		C390.33,646,221.67,646,53,646z M558.97,393.43c-3.13-1.11-4.98-1.8-6.86-2.42c-17.22-5.71-34.46-11.36-51.65-17.17
		c-1.64-0.55-3.96-1.88-4.24-3.21c-2.89-13.61-5.43-27.29-8.15-41.4c6.59-5.8,8.55-11.52,5.91-18.65
		c-2.41-6.52-7.76-9.51-16.78-9.84c-1.43-0.05-3.29-1.2-4.13-2.41c-5.57-8.07-11-16.25-16.25-24.54c-0.76-1.19-0.94-3.44-0.33-4.7
		c4.39-9.14,9.05-18.15,13.61-27.21c4.08-8.1,8.15-16.22,12.75-25.38c-19.01,9.5-36.93,18.46-54.11,27.05
		c-10.53-6.88-20.47-13.54-30.6-19.89c-2.37-1.49-3.41-2.68-3.25-5.73c0.36-6.79-2.98-11.85-9.08-14.8
		c-5.75-2.78-12.94-1.4-17.45,3.44c-1.83,1.97-3.21,2.38-5.92,1.74c-11.64-2.74-23.37-5.14-35.12-7.44
		c-2.69-0.53-3.78-1.69-4.61-4.26c-5.07-15.67-10.36-31.26-15.61-46.87c-0.31-0.94-0.84-1.8-1.52-3.24
		c-5.65,17-11.12,33.22-16.37,49.52c-0.95,2.94-2.3,3.94-5.41,4.54c-12.89,2.46-25.65,5.54-38.52,8.11
		c-1.62,0.32-4.03-0.53-5.31-1.68c-5.22-4.68-11.4-6.04-17.5-3.33c-6.17,2.73-9.57,8.67-9.48,15.65c0.02,1.51-1.14,3.59-2.4,4.46
		c-7.38,5.12-15.03,9.84-22.41,14.96c-2.21,1.53-3.73,1.74-6.19,0.48c-14.06-7.22-28.25-14.2-42.4-21.27
		c-3.73-1.86-7.46-3.72-12.05-6.01c9.16,18.35,17.76,35.78,26.59,53.08c1.55,3.04,1.48,4.99-0.62,7.84
		c-5.62,7.62-10.91,15.51-15.92,23.55c-2.02,3.24-3.74,4.85-8.03,4.59c-11.08-0.66-19.16,9.91-15.3,19.95
		c1.41,3.67,4.62,6.65,6.68,9.5c-2.6,13.43-5.12,26.96-7.96,40.42c-0.31,1.47-2.16,3.19-3.68,3.74c-7.35,2.66-14.85,4.93-22.27,7.39
		c-10.99,3.65-21.96,7.34-33.85,11.33c2.25,0.84,3.47,1.34,4.72,1.75c17.06,5.66,34.1,11.38,51.21,16.89
		c2.93,0.95,4.1,2.44,4.7,5.43c2.21,11.08,4.85,22.07,7.06,33.15c0.34,1.68-0.21,4.15-1.31,5.4c-4.53,5.13-5.93,10.73-3.45,17.09
		c2.34,6,8.18,9.83,15.05,9.45c2.75-0.15,3.63,0.91,4.9,2.92c5.35,8.42,10.79,16.79,16.56,24.93c1.72,2.43,1.8,4.02,0.51,6.57
		c-8.58,16.9-16.99,33.89-25.45,50.86c-0.62,1.24-1.16,2.53-2.15,4.69c1.98-0.92,3-1.36,3.99-1.86
		c17.24-8.68,34.46-17.41,51.77-25.96c1.43-0.71,3.93-0.85,5.18-0.07c8.32,5.2,16.49,10.65,24.58,16.21c1.08,0.74,2.1,2.55,2.04,3.8
		c-0.39,7.28,2.48,12.69,8.9,15.95c6.26,3.19,12.51,1.58,18.64-3.98c0.96-0.87,2.91-1.33,4.2-1.06c12.19,2.56,24.31,5.52,36.53,7.91
		c3.17,0.62,4.41,1.98,5.31,4.77c4.69,14.57,9.52,29.09,14.32,43.61c1.46,4.41,2.98,8.79,4.81,14.17c0.7-1.71,0.97-2.28,1.17-2.87
		c6.1-18.48,12.11-36.98,18.39-55.4c0.6-1.77,2.65-3.87,4.4-4.3c11.45-2.86,22.98-5.37,34.53-7.79c1.49-0.31,3.61,0.12,4.79,1.03
		c5.09,3.95,10.6,4.9,16.43,2.5c6.11-2.52,8.99-7.48,9.63-14.03c0.14-1.44,1.39-3.19,2.64-4.05c8.5-5.84,17.09-11.55,25.79-17.09
		c1.2-0.77,3.48-0.98,4.72-0.37c18.06,8.92,36.03,18.03,54.03,27.08c1.07,0.54,2.23,0.87,4,1.55c-9.82-19.62-19.23-38.5-28.73-57.33
		c-1.02-2.03-1.59-3.45,0.01-5.74c5.52-7.9,10.57-16.14,16-24.11c0.81-1.18,2.67-2.25,4.09-2.3c6.79-0.28,12.03-3.1,14.82-9.26
		c2.97-6.58,1.49-12.61-3.46-17.93c-0.86-0.92-1.3-2.83-1.03-4.09c2.34-10.88,5.11-21.67,7.25-32.59c0.67-3.44,1.99-4.98,5.26-6.04
		C519.7,406.61,538.77,400.16,558.97,393.43z"/>
	<path d="M558.97,393.43c-20.2,6.73-39.27,13.18-58.42,19.38c-3.27,1.06-4.58,2.6-5.26,6.04c-2.14,10.92-4.91,21.71-7.25,32.59
		c-0.27,1.26,0.17,3.17,1.03,4.09c4.95,5.32,6.43,11.36,3.46,17.93c-2.79,6.16-8.03,8.98-14.82,9.26c-1.42,0.06-3.29,1.12-4.09,2.3
		c-5.43,7.97-10.47,16.2-16,24.11c-1.61,2.3-1.03,3.71-0.01,5.74c9.5,18.84,18.91,37.71,28.73,57.33c-1.77-0.68-2.94-1.02-4-1.55
		c-18-9.04-35.97-18.16-54.03-27.08c-1.24-0.61-3.52-0.4-4.72,0.37c-8.7,5.54-17.29,11.25-25.79,17.09c-1.25,0.86-2.5,2.6-2.64,4.05
		c-0.64,6.55-3.52,11.51-9.63,14.03c-5.83,2.4-11.34,1.45-16.43-2.5c-1.18-0.92-3.3-1.34-4.79-1.03
		c-11.55,2.42-23.08,4.93-34.53,7.79c-1.75,0.44-3.79,2.53-4.4,4.3c-6.28,18.41-12.3,36.92-18.39,55.4
		c-0.2,0.59-0.47,1.16-1.17,2.87c-1.83-5.38-3.35-9.76-4.81-14.17c-4.8-14.53-9.63-29.05-14.32-43.61c-0.9-2.79-2.14-4.15-5.31-4.77
		c-12.23-2.39-24.34-5.34-36.53-7.91c-1.3-0.27-3.24,0.19-4.2,1.06c-6.13,5.57-12.38,7.17-18.64,3.98
		c-6.41-3.27-9.29-8.68-8.9-15.95c0.07-1.25-0.96-3.06-2.04-3.8c-8.09-5.56-16.26-11.01-24.58-16.21c-1.26-0.79-3.75-0.64-5.18,0.07
		c-17.31,8.55-34.53,17.28-51.77,25.96c-0.99,0.5-2.01,0.94-3.99,1.86c0.99-2.17,1.53-3.45,2.15-4.69
		c8.46-16.97,16.86-33.96,25.45-50.86c1.29-2.55,1.22-4.14-0.51-6.57c-5.77-8.13-11.21-16.51-16.56-24.93
		c-1.27-2.01-2.15-3.07-4.9-2.92c-6.87,0.37-12.71-3.46-15.05-9.45c-2.48-6.36-1.08-11.96,3.45-17.09c1.1-1.25,1.65-3.72,1.31-5.4
		c-2.21-11.08-4.85-22.07-7.06-33.15c-0.59-2.98-1.76-4.48-4.7-5.43c-17.11-5.51-34.15-11.23-51.21-16.89
		c-1.25-0.41-2.47-0.91-4.72-1.75c11.89-3.98,22.86-7.68,33.85-11.33c7.42-2.46,14.92-4.73,22.27-7.39
		c1.52-0.55,3.37-2.27,3.68-3.74c2.83-13.46,5.36-26.99,7.96-40.42c-2.06-2.84-5.28-5.82-6.68-9.5
		c-3.85-10.04,4.22-20.61,15.3-19.95c4.29,0.26,6-1.35,8.03-4.59c5.01-8.04,10.3-15.92,15.92-23.55c2.1-2.85,2.17-4.8,0.62-7.84
		c-8.83-17.3-17.43-34.73-26.59-53.08c4.59,2.29,8.32,4.15,12.05,6.01c14.15,7.06,28.33,14.05,42.4,21.27
		c2.46,1.26,3.98,1.06,6.19-0.48c7.38-5.12,15.03-9.84,22.41-14.96c1.27-0.88,2.42-2.96,2.4-4.46c-0.09-6.98,3.31-12.92,9.48-15.65
		c6.11-2.7,12.29-1.35,17.5,3.33c1.28,1.15,3.68,2,5.31,1.68c12.87-2.57,25.63-5.65,38.52-8.11c3.11-0.59,4.46-1.6,5.41-4.54
		c5.25-16.3,10.73-32.53,16.37-49.52c0.68,1.44,1.21,2.3,1.52,3.24c5.24,15.61,10.54,31.2,15.61,46.87
		c0.83,2.57,1.92,3.73,4.61,4.26c11.74,2.29,23.47,4.7,35.12,7.44c2.71,0.64,4.09,0.23,5.92-1.74c4.51-4.84,11.7-6.22,17.45-3.44
		c6.1,2.94,9.45,8.01,9.08,14.8c-0.16,3.05,0.87,4.24,3.25,5.73c10.13,6.36,20.07,13.01,30.6,19.89
		c17.18-8.59,35.1-17.55,54.11-27.05c-4.6,9.17-8.67,17.28-12.75,25.38c-4.56,9.06-9.23,18.07-13.61,27.21
		c-0.6,1.26-0.42,3.51,0.33,4.7c5.25,8.29,10.68,16.46,16.25,24.54c0.84,1.21,2.7,2.36,4.13,2.41c9.02,0.33,14.36,3.33,16.78,9.84
		c2.64,7.12,0.68,12.84-5.91,18.65c2.72,14.11,5.26,27.79,8.15,41.4c0.28,1.33,2.6,2.65,4.24,3.21
		c17.19,5.81,34.43,11.46,51.65,17.17C553.99,391.64,555.85,392.33,558.97,393.43z M444.43,532.5c0.28-0.35,0.57-0.71,0.85-1.06
		c-0.59-1.43-0.95-3.01-1.8-4.26c-11.35-16.61-22.82-33.14-34.06-49.83c-0.77-1.14-0.63-3.85,0.22-4.98
		c13.25-17.6,22.05-37.06,25.68-58.86c0.22-1.34,1.92-3.17,3.24-3.48c18.91-4.47,37.88-8.72,56.83-13.04
		c4.23-0.96,8.45-2.01,12.67-3.01c0.03-0.45,0.07-0.91,0.1-1.36c-1.41-0.53-2.78-1.25-4.24-1.57c-21.4-4.7-42.81-9.41-64.24-13.95
		c-2.65-0.56-3.8-1.36-4.24-4.3c-3.11-20.77-10.99-39.63-23.2-56.72c-0.73-1.03-1.02-3.29-0.39-4.24
		c6.98-10.51,14.2-20.86,21.31-31.29c4.42-6.48,8.76-13.02,13.14-19.53c-0.41-0.52-0.82-1.05-1.23-1.57
		c-18.52,10.46-35.87,22.9-54.15,33.8c-20.27-16.54-43.02-26.7-68.91-29.67c-1.4-0.16-3.36-2.13-3.71-3.59
		c-2.1-8.71-3.98-17.49-5.61-26.3c-1.95-10.52-3.57-21.1-5.33-31.66c-1.48,0.98-2.27,2.25-2.61,3.64
		c-4.22,17.42-8.58,34.8-12.41,52.31c-0.97,4.46-2.72,6.17-7.17,6.86c-20.27,3.14-38.66,11.07-54.97,23.44
		c-3.64,2.76-6.01,2.57-9.43,0.11c-14.05-10.08-28.24-19.97-42.43-29.86c-1.32-0.92-3-1.33-4.51-1.98c-0.4,0.4-0.8,0.81-1.2,1.21
		c3.05,10.15,9.77,18.35,15.46,27.12c5.85,9.02,11.61,18.1,17.38,27.11c-13.89,17.65-22.54,37.25-26.17,58.98
		c-0.54,3.24-2.13,4.17-4.63,4.63c-18.12,3.34-36.27,6.57-54.37,10.02c-1.9,0.36-3.56,1.95-5.33,2.98c1.64,1.03,3.16,2.59,4.95,3.01
		c17.94,4.23,35.9,8.34,53.9,12.3c3.06,0.67,4.34,2.02,4.74,5.11c3.11,23.98,12.33,45.42,27.46,64.67
		c-11.8,16.06-23.67,32.07-35.33,48.23c-2.56,3.55-4.38,7.64-6.54,11.48c0.57,0.5,1.14,1,1.71,1.5c3.87-2.37,7.83-4.6,11.59-7.15
		c15.28-10.35,30.56-20.7,45.68-31.27c2.72-1.9,4.34-1.71,6.89,0.18c16.74,12.39,35.47,20.27,56.01,23.69
		c2.94,0.49,4.22,1.6,4.82,4.55c2.54,12.53,5.32,25,8.06,37.49c2.78,12.69,5.61,25.37,8.41,38.06c0.63,0.03,1.26,0.06,1.89,0.09
		c5.7-26.12,9.28-52.66,14.31-79.34c23.36-3.14,44.62-11.97,63.41-26.28c17.77,12.09,35.06,23.9,52.42,35.61
		C440.81,531.53,442.72,531.86,444.43,532.5z"/>
	<path class="st0" d="M444.43,532.5c-1.71-0.64-3.62-0.97-5.09-1.96c-17.36-11.71-34.65-23.52-52.42-35.61
		c-18.8,14.3-40.05,23.14-63.41,26.28c-5.03,26.68-8.62,53.22-14.31,79.34c-0.63-0.03-1.26-0.06-1.89-0.09
		c-2.81-12.69-5.63-25.37-8.41-38.06c-2.73-12.49-5.51-24.97-8.06-37.49c-0.6-2.95-1.88-4.06-4.82-4.55
		c-20.54-3.41-39.27-11.29-56.01-23.69c-2.55-1.89-4.17-2.08-6.89-0.18c-15.12,10.57-30.4,20.93-45.68,31.27
		c-3.75,2.54-7.72,4.77-11.59,7.15c-0.57-0.5-1.14-1-1.71-1.5c2.16-3.84,3.97-7.93,6.54-11.48c11.66-16.16,23.53-32.17,35.33-48.23
		c-15.13-19.25-24.35-40.69-27.46-64.67c-0.4-3.09-1.68-4.44-4.74-5.11c-18-3.96-35.97-8.07-53.9-12.3
		c-1.79-0.42-3.3-1.98-4.95-3.01c1.77-1.02,3.43-2.61,5.33-2.98c18.1-3.45,36.25-6.68,54.37-10.02c2.5-0.46,4.09-1.39,4.63-4.63
		c3.63-21.72,12.28-41.33,26.17-58.98c-5.77-9.02-11.53-18.09-17.38-27.11c-5.69-8.76-12.41-16.96-15.46-27.12
		c0.4-0.4,0.8-0.81,1.2-1.21c1.51,0.65,3.19,1.06,4.51,1.98c14.19,9.89,28.38,19.78,42.43,29.86c3.42,2.45,5.79,2.65,9.43-0.11
		c16.32-12.38,34.7-20.3,54.97-23.44c4.45-0.69,6.19-2.4,7.17-6.86c3.83-17.5,8.18-34.89,12.41-52.31c0.34-1.39,1.13-2.66,2.61-3.64
		c1.76,10.55,3.39,21.14,5.33,31.66c1.63,8.81,3.5,17.59,5.61,26.3c0.35,1.45,2.31,3.43,3.71,3.59
		c25.89,2.96,48.64,13.13,68.91,29.67c18.28-10.9,35.63-23.35,54.15-33.8c0.41,0.52,0.82,1.05,1.23,1.57
		c-4.38,6.51-8.72,13.05-13.14,19.53c-7.11,10.43-14.33,20.78-21.31,31.29c-0.63,0.95-0.35,3.21,0.39,4.24
		c12.21,17.1,20.09,35.96,23.2,56.72c0.44,2.94,1.59,3.74,4.24,4.3c21.44,4.55,42.84,9.25,64.24,13.95
		c1.46,0.32,2.83,1.04,4.24,1.57c-0.03,0.45-0.07,0.91-0.1,1.36c-4.22,1.01-8.44,2.05-12.67,3.01
		c-18.95,4.32-37.92,8.56-56.83,13.04c-1.32,0.31-3.02,2.14-3.24,3.48c-3.62,21.8-12.42,41.26-25.68,58.86
		c-0.85,1.13-0.99,3.84-0.22,4.98c11.24,16.68,22.71,33.22,34.06,49.83c0.85,1.25,1.21,2.83,1.8,4.26
		C445,531.79,444.71,532.14,444.43,532.5z M356.02,332.43c11.51,3.01,15.38-5.08,18.5-14.25c0.55,0.45,1.11,0.9,1.66,1.35
		c-0.65,3.72-1.31,7.44-1.96,11.16c0.4,0.41,0.81,0.82,1.21,1.23c3.46-4.33,6.92-8.67,10.39-13c0.41,0.32,0.82,0.64,1.23,0.96
		c-0.13,0.91-0.11,1.87-0.42,2.71c-3.38,9.31-10.27,13.28-19.94,13.3c-5.33,0.01-9.76,0.47-14.44,5.18
		c-5.6,5.64-13.75,9.29-21.41,12.16c-4.91,1.84-11.25,1.92-16.36,0.57c-5.68-1.5-11.66-4.18-14.6-10.36
		c-0.31-0.65-1.23-1.23-1.97-1.41c-8.67-2.02-16.92-1-24.08,4.48c-5.22,4-5.42,12.04,0.18,15.19c5.62,3.17,12.16,5.91,18.49,6.41
		c15.33,1.2,27.89,7.26,37.9,18.51c2.69,3.02,4.6,3.42,8,1.93c8.86-3.87,18.26-4.08,27.4-1.88c15.87,3.81,28.73,11.85,34.68,28.82
		c31.48-7.32,62.78-14.59,94.07-21.86c-0.07-0.42-0.13-0.83-0.2-1.25c-41.16-8.98-82.31-17.96-124.32-27.12
		c22.28-32.23,43.83-63.38,65.37-94.53c-0.36-0.37-0.71-0.73-1.07-1.1c-28.27,18.34-56.53,36.68-85.54,55.5
		C352.93,327.38,358.81,326.42,356.02,332.43z M303.95,406.57c-1.31-10.09-13.57-16.72-23.49-18.42
		c-12.73-2.18-24.75-6.06-33.37-16.11c-4.09-4.76-8.38-4.54-13.39-3.66c-21.91,3.85-43.82,7.67-65.71,11.59
		c-14.64,2.62-29.25,5.37-43.88,8.07c-0.02,0.37-0.04,0.74-0.05,1.12c34.7,7.76,69.39,15.52,103.97,23.25
		c5.85-16.01,19.57-24.95,36.05-21.27c6.77,1.51,13.55,3.34,20,5.86C290.9,399.67,297.34,403.33,303.95,406.57z M327.32,318.59
		c-7.14-33.39-14.39-67.3-21.64-101.18c-3.74,7.11-21.89,95-21.06,101.72c8.71,1.28,17.36,2.55,26.01,3.79
		c0.64,0.09,1.35,0.06,1.97-0.12C317.32,321.48,322.03,320.11,327.32,318.59z M333.36,454.75c34.52,23.26,68.08,45.87,101.63,68.48
		c0.24-0.32,0.49-0.65,0.73-0.97c-16.62-24.36-33.23-48.72-49.06-71.92c-7.05,2.85-13.23,6.76-19.83,7.7
		c-11.32,1.6-22.49-0.55-32.75-6.29c-1.19-0.66-3.6-0.42-4.76,0.38c-4.63,3.2-8.87,6.97-13.5,10.17c-2.37,1.64-2.53,3.02-1.15,5.29
		c3.82,6.3,7.51,12.68,11.12,18.79C328.11,476.73,330.63,466.2,333.36,454.75z M239.27,356.1c0.42-0.14,0.84-0.28,1.27-0.42
		c-0.5-7.4-0.55-15.11,4.47-20.75c4.65-5.22,10.83-9.08,16.55-13.71c-26.48-18.54-53.75-37.64-81.01-56.74
		c-0.4,0.35-0.8,0.7-1.2,1.05C199.33,295.72,219.3,325.91,239.27,356.1z M307.55,584.29c0.42,0.02,0.83,0.05,1.25,0.07
		c4.72-27.5,9.44-54.99,14.41-83.9c-8.6,9.78-14.78,7.68-21.45,4.29c-5.82-2.96-7.84-10.75-4.03-15.64
		c0.74-0.95,2.55-1.07,4.81-1.93c-0.56,2.1-0.77,2.56-0.79,3.04c-0.1,2.43-0.87,5.2,0.03,7.19c0.59,1.28,4.22,2.51,5.49,1.85
		c2.01-1.06,3.95-3.5,4.57-5.73c2.07-7.41-3.42-18.1-10.47-21.3c-0.7-0.32-1.62-0.5-2.36-0.34c-4.97,1.05-9.92,2.21-15.44,3.46
		C291.6,511.87,299.58,548.08,307.55,584.29z M172.05,526.08c0.28,0.24,0.56,0.49,0.83,0.73c28.47-19.15,56.95-38.3,86.2-57.97
		c-12.18-5.79-21.31-13.86-28.36-24.78C210.84,471.85,191.44,498.96,172.05,526.08z M354.19,403.14c-3.17,0.67-6.4,1.12-9.46,2.12
		c-1.01,0.33-2.14,2.01-2.24,3.15c-0.38,4.55-0.5,9.14-0.46,13.71c0.01,1.64,0.19,4.1,1.22,4.78c8.52,5.62,17.9,7.76,27.82,4.62
		c5.06-1.6,7.81-8.52,5.95-13.51C373.11,407.52,364.82,403.89,354.19,403.14z M278.19,442.64c8.53-1.68,15.54-1.94,20.75-7.69
		c2.49-2.75,2.11-4.55-0.47-6.48c-9.74-7.32-20.6-8.94-32.06-5.45c-5.92,1.8-7.1,9.62-1.93,12.91
		C269.13,438.88,274.41,440.83,278.19,442.64z"/>
	<path d="M356.02,332.43c2.79-6.02-3.09-5.06-7.22-7.3c29.01-18.82,57.27-37.16,85.54-55.5c0.36,0.37,0.71,0.73,1.07,1.1
		c-21.54,31.15-43.08,62.3-65.37,94.53c42,9.16,83.16,18.14,124.32,27.12c0.07,0.42,0.13,0.83,0.2,1.25
		c-31.29,7.27-62.59,14.55-94.07,21.86c-5.96-16.96-18.81-25.01-34.68-28.82c-9.15-2.2-18.54-1.99-27.4,1.88
		c-3.4,1.48-5.31,1.09-8-1.93c-10.01-11.25-22.58-17.31-37.9-18.51c-6.33-0.49-12.87-3.23-18.49-6.41
		c-5.59-3.16-5.39-11.19-0.18-15.19c7.15-5.49,15.41-6.5,24.08-4.48c0.74,0.17,1.66,0.76,1.97,1.41c2.94,6.18,8.92,8.87,14.6,10.36
		c5.11,1.35,11.45,1.27,16.36-0.57c7.66-2.87,15.81-6.52,21.41-12.16c4.68-4.72,9.11-5.17,14.44-5.18
		c9.68-0.01,16.56-3.99,19.94-13.3c0.31-0.84,0.29-1.81,0.42-2.71c-0.41-0.32-0.82-0.64-1.23-0.96c-3.46,4.33-6.92,8.67-10.39,13
		c-0.4-0.41-0.81-0.82-1.21-1.23c0.65-3.72,1.31-7.44,1.96-11.16c-0.55-0.45-1.11-0.9-1.66-1.35
		C371.4,327.36,367.53,335.44,356.02,332.43z"/>
	<path d="M303.95,406.57c-6.61-3.23-13.06-6.89-19.89-9.56c-6.45-2.52-13.23-4.35-20-5.86c-16.48-3.68-30.19,5.26-36.05,21.27
		c-34.58-7.73-69.27-15.49-103.97-23.25c0.02-0.37,0.04-0.74,0.05-1.12c14.62-2.69,29.24-5.45,43.88-8.07
		c21.9-3.92,43.81-7.74,65.71-11.59c5.02-0.88,9.31-1.1,13.39,3.66c8.63,10.05,20.64,13.93,33.37,16.11
		C290.38,389.85,302.64,396.48,303.95,406.57z"/>
	<path d="M327.32,318.59c-5.29,1.52-10,2.89-14.72,4.21c-0.62,0.17-1.33,0.21-1.97,0.12c-8.65-1.24-17.3-2.52-26.01-3.79
		c-0.83-6.72,17.32-94.61,21.06-101.72C312.93,251.3,320.18,285.2,327.32,318.59z"/>
	<path d="M333.36,454.75c-2.73,11.44-5.25,21.98-7.56,31.64c-3.6-6.11-7.3-12.49-11.12-18.79c-1.38-2.27-1.22-3.65,1.15-5.29
		c4.63-3.2,8.87-6.96,13.5-10.17c1.16-0.8,3.58-1.05,4.76-0.38c10.26,5.74,21.43,7.89,32.75,6.29c6.6-0.93,12.78-4.85,19.83-7.7
		c15.82,23.2,32.44,47.56,49.06,71.92c-0.24,0.32-0.49,0.65-0.73,0.97C401.44,500.62,367.89,478.02,333.36,454.75z"/>
	<path d="M239.27,356.1c-19.97-30.19-39.95-60.38-59.92-90.58c0.4-0.35,0.8-0.7,1.2-1.05c27.27,19.1,54.53,38.19,81.01,56.74
		c-5.72,4.63-11.9,8.49-16.55,13.71c-5.02,5.64-4.97,13.35-4.47,20.75C240.12,355.82,239.7,355.96,239.27,356.1z"/>
	<path d="M307.55,584.29c-7.97-36.21-15.95-72.42-23.99-108.95c5.52-1.25,10.46-2.41,15.44-3.46c0.73-0.16,1.66,0.02,2.36,0.34
		c7.06,3.21,12.54,13.9,10.47,21.3c-0.62,2.23-2.56,4.67-4.57,5.73c-1.26,0.66-4.9-0.56-5.49-1.85c-0.91-1.99-0.14-4.75-0.03-7.19
		c0.02-0.47,0.24-0.94,0.79-3.04c-2.26,0.86-4.07,0.98-4.81,1.93c-3.81,4.89-1.79,12.69,4.03,15.64c6.67,3.39,12.86,5.5,21.45-4.29
		c-4.96,28.9-9.69,56.4-14.41,83.9C308.38,584.33,307.97,584.31,307.55,584.29z"/>
	<path d="M172.05,526.08c19.4-27.12,38.8-54.23,58.68-82.01c7.05,10.92,16.18,18.98,28.36,24.78
		c-29.25,19.67-57.73,38.82-86.2,57.97C172.6,526.56,172.32,526.32,172.05,526.08z"/>
	<path d="M354.19,403.14c10.63,0.75,18.92,4.38,22.83,14.88c1.86,4.99-0.89,11.91-5.95,13.51c-9.92,3.14-19.29,1-27.82-4.62
		c-1.03-0.68-1.21-3.14-1.22-4.78c-0.04-4.57,0.08-9.16,0.46-13.71c0.1-1.14,1.22-2.82,2.24-3.15
		C347.79,404.26,351.02,403.81,354.19,403.14z"/>
	<path d="M278.19,442.64c-3.78-1.81-9.07-3.76-13.71-6.72c-5.17-3.29-3.99-11.11,1.93-12.91c11.47-3.48,22.32-1.86,32.06,5.45
		c2.57,1.93,2.95,3.73,0.47,6.48C293.74,440.7,286.72,440.96,278.19,442.64z"/>
</g>
</svg>
