<?xml version="1.0" encoding="utf-8"?>
<!-- Generator: Adobe Illustrator 24.3.0, SVG Export Plug-In . SVG Version: 6.00 Build 0)  -->
<svg version="1.1" id="Layer_1" xmlns="http://www.w3.org/2000/svg" xmlns:xlink="http://www.w3.org/1999/xlink" x="0px" y="0px"
	 viewBox="0 0 612 792" style="enable-background:new 0 0 612 792;" xml:space="preserve">
<style type="text/css">
	.st0{fill:#FFFFFF;}
</style>
<g>
	<path d="M296,146c2.67,0,5.33,0,8,0c2.89,0.46,5.78,0.93,8.82,1.41c0.14,1.7,0.35,3.17,0.37,4.64c0.05,2.99,0.15,6-0.03,8.98
		c-0.54,9.29,2.38,11.48,11.7,10.57c3.21-0.31,8.6,1.48,9.62,3.8c1.63,3.69,0.44,8.62,0.44,12.89c-4.12,0.48-7.79,0.62-11.32,1.39
		c-4.18,0.91-7.81,3.37-7.71,7.97c0.14,6.4-1.75,13.61,4.87,18.37c0.65,0.47,1.5,0.74,2.3,0.89c17.86,3.35,26.24,11.77,29.22,29.69
		c0.64,3.86,0.72,7.82,1.07,11.87c3.43,0.4,6.56,0.7,9.67,1.13c42.01,5.88,82.75,17.03,123.06,29.91
		c27.18,8.69,49.41,24.58,65.92,47.85c22.99,32.42,29.88,69.14,27.53,108.13c-0.11,1.87,0.02,3.99,0.8,5.64
		c1.62,3.41,3.75,6.58,5.67,9.85c0,1.33,0,2.67,0,4c-2.57,5.48-6.94,9.27-12.67,10.32c-9.02,1.66-14.36,7.75-19.7,14.18
		c-12.54,15.1-20.39,32.66-27.2,50.84c-1.43,3.81-1.1,6.23,1.28,9.77c4.85,7.23,9.28,14.96,12.47,23.03
		c2.53,6.42-1.17,12.18-7.94,13.65c-4.04,0.88-8.51,0.35-12.71-0.17c-7.39-0.91-11.55,1.94-12.57,9.27
		c-0.16,1.15-0.17,2.33-0.37,3.48c-2.19,12.84-2.2,12.84,9.48,18.67c6.87,3.43,10.18,8.64,8.48,14.11
		c-1.99,6.43-5.89,11.77-12.93,12.37c-6.35,0.54-13.03,0.26-19.25-1.08c-15.75-3.41-31.12-9.06-47-11.24
		c-38.1-5.22-76.38-9.2-114.64-13.16c-14.86-1.54-29.89-2.72-44.79-2.26c-43.8,1.34-86.66,9.45-129.22,19.47
		c-13.74,3.24-27.66,5.86-41.61,8.05c-6.92,1.08-14.07,0.23-20.11-4.11c-8.02-5.76-7.84-13.78,0.42-19c1.91-1.21,4.2-1.91,6.4-2.55
		c6.43-1.89,9.17-5.57,8.36-12.19c-0.38-3.11-1.16-6.24-2.24-9.19c-2.86-7.84-7.22-10.54-15.61-10.17
		c-1.83,0.08-3.67,0.03-5.49-0.11c-12.42-0.94-16.9-7.85-11.37-18.96c3.45-6.93,8.68-12.96,12.73-19.62
		c1.2-1.98,2.12-5.05,1.47-7.07c-2.07-6.47-4.47-12.92-7.59-18.95c-8.04-15.57-19.51-28.57-32.12-40.57
		c-2.58-2.46-5.73-4.45-8.9-6.12C35.25,472.64,29.5,469.67,27,463c0-0.67,0-1.33,0-2c8.7-7.4,7.17-17.12,6.59-26.94
		c-3.79-63.84,32.25-121.43,91.14-146.12c31.18-13.07,64.18-18.44,97.37-22.93c10.85-1.47,21.76-2.45,32.87-3.68
		c0.26-1.97,0.56-3.77,0.74-5.58c0.94-9.41,3.31-18.33,8.72-26.24c5.69-8.33,13.75-11.95,23.66-12.83c4.29-0.38,7.88-3.53,7.95-8.36
		c0.09-5.98,1.66-12.62-4.39-17c-1.26-0.91-3.07-1.24-4.68-1.46c-4.09-0.57-9.67,0.52-11.91-1.75c-2.49-2.52-1.95-8.04-2.69-12.26
		c-0.08-0.46,0.06-0.95,0.2-2.54c4.96-0.21,10.02-0.87,15-0.52c6.2,0.44,9.43-1.82,9.17-7.37C296.44,158.95,296.24,152.47,296,146z
		 M379.61,465.23c-0.67-0.37-1.39-0.74-2.09-1.15c-7.25-4.24-7.88-9.28-6.04-17.19c0.85-3.64,3.71-5.54,7.61-4.83
		c3.84,0.69,8.48-1.68,9.61-5.19c2.84-8.85,5.99-11.65,15.27-11.78c4.51-0.06,5.53-2.01,6.02-5.8c2.57-19.75,3.17-39.54,0.83-59.32
		c-2.21-18.69-7.16-35.79-23.05-48.58c-15.57-12.54-32.63-15.16-51.49-12.99c-0.15,1.11-0.32,1.75-0.31,2.39
		c0.62,38.98,1.23,77.97,2.02,116.95c0.03,1.49,1.57,3.38,2.94,4.33c3.46,2.4,6.64,5.13,6.16,9.56c-0.43,4.02,1.27,6.42,3.75,9.1
		c8.78,9.46,7.27,16.54-4.47,22.14c-0.75,0.36-1.69,0.51-2.24,1.06c-0.83,0.82-1.86,1.84-2.02,2.89c-1.46,9.65-2.8,10.71-12.66,9.46
		c-6.2,16.74,2.59,29.4,20.18,29.16c5.3-0.07,10.68,0.72,15.9,0.06c7.33-0.93,14.76-2.19,21.73-4.55c6-2.03,7.11-8.06,6.87-13.77
		c-0.22-5.26-3.83-8.33-8.37-10.22C378.65,473.99,377.82,472.6,379.61,465.23z M277.66,298.79c-32.19-6.65-64.3,13.18-71.5,43.27
		c-6.19,25.82-5.63,51.82-2.33,77.93c0.46,3.65,1.69,4.98,5.58,5.06c9.47,0.19,12.08,2.99,15.89,11.9c1.12,2.63,5.41,5.48,8.23,5.46
		c5.34-0.03,8.08,0.88,9.17,6.13c1.67,8.01-1.36,13.63-8.76,16.69c2,7.12,1.01,9-5.76,11.62c-6.53,2.52-9,7.24-8.39,13.96
		c0.75,8.29,6.49,11.28,13.15,12.98c12.77,3.25,25.81,1.66,38.66,0.77c7.42-0.51,12.54-5.62,13.59-13.26
		c0.68-4.94,0.13-10.04,0.13-15.21c-9.89,1.37-13.16-0.24-13.4-6.82c-0.13-3.65-1.57-5.07-4.63-6.47
		c-11.84-5.42-13.2-12.52-4.51-22.09c0.45-0.49,1.1-0.89,1.34-1.47c0.82-1.98,2.07-4,2.12-6.03c0.11-4.6,1.69-8.4,5.71-10.36
		c3.48-1.7,4-4.03,4.04-7.47c0.47-34.97,1.1-69.94,1.67-104.91C277.71,306.65,277.66,302.84,277.66,298.79z M454.96,496.89
		c-1.03,3.65-2.34,6.93-2.82,10.32c-0.97,6.86,2.29,12.22,9.09,13.28c7.67,1.19,15.58,1.74,23.32,1.29
		c8.21-0.47,13.88-6.33,14.85-13.83c0.23-1.77-0.19-4.17-1.28-5.47c-5.41-6.48-6.93-13.17-1.87-20.56
		c-0.87-0.78-1.47-1.32-2.08-1.85c-6.09-5.3-6.17-10.23,0.4-15.11c3.83-2.84,8.39-4.67,12.53-7.11c1.29-0.76,2.93-1.84,3.3-3.1
		c1.45-4.94,5.07-7.72,9.52-8.64c5.64-1.17,7.61-4.49,8.03-9.61c0.09-1.15,0.46-2.28,0.66-3.43c4.78-26.92,2.27-52.55-14.39-75.27
		c-16.28-22.21-39.17-34.51-65.03-42.05c-1.51-0.44-3.08-0.66-5.28-1.12c0.91,1.8,1.4,2.84,1.95,3.85
		c19.22,35.05,26.15,72.31,20.23,111.91c-0.75,4.99-3.16,10.13,1.97,14.68c1.15,1.01,0.43,4.38,0.2,6.62
		c-0.16,1.53-0.98,2.99-1.52,4.52c7.1,1.45,11,4.99,11.6,10.27c1.06,9.44-2.85,16.51-11.65,21.03
		C465.49,498.6,464.76,499.25,454.96,496.89z M147.13,456.14c-2.07-4.66-3.73-8.87-0.43-13.44c1.25-1.73,2.18-4.45,1.81-6.46
		c-7.48-41.43-1-80.52,19.13-117.43c0.61-1.11,1.08-2.3,1.78-3.78c-1.07,0-1.74-0.14-2.32,0.02c-25.47,6.93-48.28,18.45-65.1,39.45
		c-20.99,26.2-22.49,56.01-14.92,87.19c0.32,1.32,2.33,2.39,3.75,3.25c3.49,2.13,9.04,3.3,10.24,6.27c2.3,5.72,6.94,6.91,11.23,9.34
		c2.74,1.55,5.5,3.2,7.85,5.27c5.35,4.71,5.21,9.07-0.1,13.85c-0.73,0.66-1.5,1.27-2.56,2.16c4.16,6.5,4.32,13.1-0.82,18.89
		c-3.23,3.64-3.04,7.12-1.41,11.02c2.74,6.54,8.09,9.97,14.79,10.2c7.27,0.25,14.66-0.23,21.87-1.27c6.5-0.94,10.34-5.92,9.73-11.93
		c-0.4-4-1.88-7.88-2.87-11.77c-9.58,2.13-10.31,1.51-11.75-7.43c-0.21-1.33-1.86-2.76-3.19-3.51c-5.66-3.2-9.69-12.08-8.62-19.54
		C135.98,461.16,139.79,457.73,147.13,456.14z"/>
	<path class="st0" d="M586,461c-1.92-3.27-4.05-6.44-5.67-9.85c-0.78-1.64-0.92-3.76-0.8-5.64c2.35-38.99-4.53-75.71-27.53-108.13
		c-16.51-23.27-38.73-39.16-65.92-47.85c-40.3-12.89-81.04-24.04-123.06-29.91c-3.11-0.44-6.24-0.73-9.67-1.13
		c-0.35-4.05-0.43-8.01-1.07-11.87c-2.98-17.92-11.36-26.35-29.22-29.69c-0.8-0.15-1.65-0.42-2.3-0.89
		c-6.62-4.75-4.73-11.97-4.87-18.37c-0.1-4.59,3.53-7.06,7.71-7.97c3.53-0.77,7.2-0.91,11.32-1.39c0-4.27,1.2-9.21-0.44-12.89
		c-1.03-2.32-6.42-4.11-9.62-3.8c-9.32,0.91-12.23-1.29-11.7-10.57c0.17-2.99,0.08-5.99,0.03-8.98c-0.03-1.47-0.23-2.95-0.37-4.64
		c-3.04-0.49-5.93-0.95-8.82-1.41c94,0,188,0,282,0C586,251,586,356,586,461z"/>
	<path class="st0" d="M296,146c0.24,6.47,0.44,12.95,0.74,19.42c0.26,5.54-2.98,7.8-9.17,7.37c-4.99-0.35-10.05,0.31-15,0.52
		c-0.13,1.58-0.28,2.08-0.2,2.54c0.74,4.22,0.2,9.74,2.69,12.26c2.24,2.28,7.83,1.19,11.91,1.75c1.61,0.22,3.42,0.55,4.68,1.46
		c6.05,4.39,4.48,11.02,4.39,17c-0.07,4.83-3.66,7.98-7.95,8.36c-9.92,0.89-17.97,4.51-23.66,12.83
		c-5.41,7.91-7.78,16.84-8.72,26.24c-0.18,1.81-0.47,3.6-0.74,5.58c-11.1,1.23-22.02,2.22-32.87,3.68
		c-33.19,4.49-66.19,9.86-97.37,22.93c-58.89,24.69-94.93,82.28-91.14,146.12C34.17,443.88,35.7,453.6,27,461c0-105,0-210,0-315
		C116.67,146,206.33,146,296,146z"/>
	<path class="st0" d="M27,463c2.5,6.67,8.25,9.64,14.06,12.71c3.17,1.68,6.32,3.67,8.9,6.12c12.61,11.99,24.08,25,32.12,40.57
		c3.11,6.03,5.52,12.48,7.59,18.95c0.65,2.03-0.27,5.09-1.47,7.07c-4.05,6.66-9.28,12.69-12.73,19.62
		c-5.53,11.1-1.05,18.01,11.37,18.96c1.82,0.14,3.67,0.19,5.49,0.11c8.39-0.37,12.75,2.33,15.61,10.17
		c1.07,2.95,1.85,6.08,2.24,9.19c0.82,6.62-1.92,10.3-8.36,12.19c-2.2,0.64-4.49,1.34-6.4,2.55c-8.27,5.22-8.44,13.23-0.42,19
		c6.04,4.34,13.2,5.19,20.11,4.11c13.95-2.19,27.87-4.81,41.61-8.05c42.56-10.02,85.42-18.13,129.22-19.47
		c14.9-0.46,29.93,0.72,44.79,2.26c38.26,3.96,76.54,7.94,114.64,13.16c15.88,2.17,31.26,7.83,47,11.24
		c6.22,1.35,12.89,1.62,19.25,1.08c7.05-0.6,10.94-5.94,12.93-12.37c1.7-5.47-1.61-10.69-8.48-14.11
		c-11.68-5.82-11.67-5.82-9.48-18.67c0.2-1.15,0.2-2.32,0.37-3.48c1.02-7.33,5.18-10.18,12.57-9.27c4.2,0.52,8.67,1.05,12.71,0.17
		c6.77-1.47,10.47-7.24,7.94-13.65c-3.19-8.08-7.62-15.8-12.47-23.03c-2.38-3.54-2.71-5.96-1.28-9.77
		c6.81-18.18,14.66-35.75,27.2-50.84c5.35-6.43,10.68-12.52,19.7-14.18c5.72-1.05,10.1-4.84,12.67-10.32c0,60.33,0,120.67,0,181
		c-186.33,0-372.67,0-559,0C27,585,27,524,27,463z"/>
	<path class="st0" d="M379.61,465.23c-1.79,7.37-0.96,8.76,6.15,11.71c4.54,1.89,8.15,4.97,8.37,10.22
		c0.24,5.72-0.87,11.74-6.87,13.77c-6.97,2.36-14.4,3.62-21.73,4.55c-5.21,0.66-10.59-0.13-15.9-0.06
		c-17.58,0.24-26.38-12.42-20.18-29.16c9.86,1.24,11.2,0.19,12.66-9.46c0.16-1.05,1.19-2.07,2.02-2.89c0.56-0.55,1.49-0.7,2.24-1.06
		c11.73-5.59,13.24-12.68,4.47-22.14c-2.49-2.68-4.19-5.08-3.75-9.1c0.48-4.43-2.7-7.16-6.16-9.56c-1.36-0.95-2.91-2.84-2.94-4.33
		c-0.79-38.98-1.4-77.97-2.02-116.95c-0.01-0.64,0.16-1.29,0.31-2.39c18.86-2.17,35.92,0.45,51.49,12.99
		c15.89,12.79,20.84,29.89,23.05,48.58c2.34,19.78,1.74,39.57-0.83,59.32c-0.49,3.79-1.51,5.74-6.02,5.8
		c-9.28,0.12-12.43,2.93-15.27,11.78c-1.13,3.51-5.77,5.88-9.61,5.19c-3.9-0.71-6.76,1.2-7.61,4.83
		c-1.85,7.91-1.22,12.95,6.04,17.19C378.22,464.49,378.94,464.87,379.61,465.23z"/>
	<path class="st0" d="M277.66,298.79c0,4.05,0.05,7.86-0.01,11.67c-0.57,34.97-1.2,69.94-1.67,104.91
		c-0.05,3.45-0.56,5.77-4.04,7.47c-4.02,1.96-5.6,5.76-5.71,10.36c-0.05,2.03-1.3,4.05-2.12,6.03c-0.24,0.58-0.89,0.98-1.34,1.47
		c-8.69,9.57-7.33,16.67,4.51,22.09c3.06,1.4,4.5,2.82,4.63,6.47c0.24,6.58,3.51,8.2,13.4,6.82c0,5.17,0.55,10.27-0.13,15.21
		c-1.06,7.64-6.17,12.75-13.59,13.26c-12.86,0.89-25.9,2.48-38.66-0.77c-6.67-1.7-12.4-4.69-13.15-12.98
		c-0.61-6.72,1.86-11.44,8.39-13.96c6.78-2.61,7.76-4.49,5.76-11.62c7.4-3.06,10.43-8.68,8.76-16.69c-1.09-5.26-3.84-6.17-9.17-6.13
		c-2.82,0.02-7.11-2.83-8.23-5.46c-3.81-8.91-6.42-11.7-15.89-11.9c-3.89-0.08-5.12-1.4-5.58-5.06c-3.3-26.11-3.86-52.11,2.33-77.93
		C213.36,311.97,245.47,292.14,277.66,298.79z"/>
	<path class="st0" d="M454.96,496.89c9.8,2.36,10.53,1.71,11.73-9.37c8.79-4.52,12.71-11.6,11.65-21.03
		c-0.59-5.28-4.5-8.82-11.6-10.27c0.54-1.53,1.36-2.99,1.52-4.52c0.24-2.24,0.95-5.6-0.2-6.62c-5.13-4.54-2.72-9.68-1.97-14.68
		c5.92-39.6-1.01-76.86-20.23-111.91c-0.55-1.01-1.04-2.05-1.95-3.85c2.21,0.46,3.78,0.68,5.28,1.12
		c25.86,7.54,48.75,19.84,65.03,42.05c16.65,22.72,19.17,48.35,14.39,75.27c-0.2,1.15-0.57,2.28-0.66,3.43
		c-0.42,5.11-2.39,8.44-8.03,9.61c-4.45,0.92-8.07,3.71-9.52,8.64c-0.37,1.26-2.01,2.34-3.3,3.1c-4.14,2.44-8.7,4.27-12.53,7.11
		c-6.57,4.88-6.49,9.81-0.4,15.11c0.61,0.53,1.21,1.07,2.08,1.85c-5.06,7.39-3.54,14.08,1.87,20.56c1.09,1.3,1.51,3.7,1.28,5.47
		c-0.97,7.5-6.63,13.35-14.85,13.83c-7.73,0.45-15.65-0.1-23.32-1.29c-6.81-1.06-10.06-6.42-9.09-13.28
		C452.62,503.82,453.93,500.54,454.96,496.89z"/>
	<path class="st0" d="M147.13,456.14c-7.34,1.59-11.15,5.02-11.91,10.33c-1.07,7.46,2.97,16.34,8.62,19.54
		c1.34,0.76,2.98,2.19,3.19,3.51c1.43,8.94,2.17,9.56,11.75,7.43c0.99,3.89,2.47,7.78,2.87,11.77c0.61,6.01-3.23,11-9.73,11.93
		c-7.21,1.04-14.59,1.52-21.87,1.27c-6.7-0.23-12.06-3.66-14.79-10.2c-1.63-3.89-1.82-7.38,1.41-11.02
		c5.14-5.79,4.98-12.39,0.82-18.89c1.06-0.89,1.83-1.51,2.56-2.16c5.31-4.79,5.45-9.14,0.1-13.85c-2.35-2.07-5.11-3.72-7.85-5.27
		c-4.3-2.43-8.94-3.61-11.23-9.34c-1.19-2.97-6.75-4.13-10.24-6.27c-1.42-0.87-3.43-1.93-3.75-3.25
		C79.5,410.51,81.01,380.7,102,354.5c16.82-21,39.63-32.52,65.1-39.45c0.59-0.16,1.26-0.02,2.32-0.02c-0.7,1.49-1.17,2.67-1.78,3.78
		c-20.13,36.9-26.61,76-19.13,117.43c0.36,2.01-0.57,4.74-1.81,6.46C143.4,447.27,145.06,451.49,147.13,456.14z"/>
</g>
</svg>
