<?xml version="1.0" encoding="utf-8"?>
<!-- Generator: Adobe Illustrator 24.3.0, SVG Export Plug-In . SVG Version: 6.00 Build 0)  -->
<svg version="1.1" id="Layer_1" xmlns="http://www.w3.org/2000/svg" xmlns:xlink="http://www.w3.org/1999/xlink" x="0px" y="0px"
	 viewBox="0 0 612 792" style="enable-background:new 0 0 612 792;" xml:space="preserve">
<style type="text/css">
	.st0{fill:#FFFFFF;}
</style>
<g>
	<path class="st0" d="M65,380.07c0-126.18,0-252.35,0-378.53c162,0,324,0,486,0c0,262.48,0,524.97,0,787.45
		c-81.33,0-162.65,0-243.98,0c0.08-2.28,0.28-4.56,0.23-6.84c-0.65-30.01-1.41-60.01-2-90.02c-1.14-57.97-2-115.95-3.46-173.92
		c-0.28-11.25,3.12-22.7-1.52-33.89c-0.91-2.2-0.53-4.47-3.77-4.19c-3.06,0.27-4.89,1.57-4.57,4.98c0.21,2.27,0.71,4.67,0.18,6.79
		c-0.41,1.62-2,3.33-3.52,4.1c-0.62,0.32-3-1.47-3.61-2.75c-1.73-3.67-2.87-7.61-4.44-11.36c-0.75-1.78-1.94-3.38-2.93-5.06
		c-0.65,0.06-1.3,0.11-1.95,0.17c-0.92,5.63-1.73,11.28-2.83,16.88c-0.31,1.57-1.48,2.97-2.25,4.45c-1.51-0.82-3.24-1.41-4.45-2.55
		c-0.83-0.78-1.13-2.3-1.31-3.54c-0.56-3.87-0.48-7.89-1.56-11.6c-0.72-2.47-2.97-4.49-4.54-6.72c-1.67,1.9-3.82,3.57-4.9,5.77
		c-1.49,3.03-1.84,6.6-3.24,9.68c-4.15,9.09-5.87,18.63-5.29,28.5c0.27,4.56,1.67,9.06,2.61,13.87c-1.03,0.06-1.84,0.26-2.59,0.12
		c-12.09-2.25-25.65-15.56-27.02-27.94c-1-8.99-0.31-18.17-0.32-27.27c-0.01-4.87,0.58-9.79,0.06-14.59
		c-1.4-12.76-3.29-25.47-4.92-38.21c-0.39-3.02,0.32-6.5-0.97-9.02c-2.37-4.65-5.49-9.04-8.97-12.95c-2.39-2.68-5.69-4.8-8.95-6.41
		c-8.38-4.12-17.26-4.19-26.27-2.31c-4.05,0.85-7.56-0.48-9.88-3.87c-3.22-4.7-6.56-9.39-9.07-14.47
		c-5.19-10.49-2.55-19.53,7.26-25.84c14.66-9.44,14.08-27.67,7.3-40.37c-3.73-6.99-8.5-13.54-13.57-19.66
		c-9.38-11.33-13.02-25.07-17.09-38.61c-4.7-15.65-3.26-31.65-1.84-47.65c1.38-15.56,5.31-30.21,14.48-43.03
		c8.06-11.27,16.26-22.45,24.84-33.33c5.11-6.49,10.78-12.6,16.72-18.34c4.3-4.16,9.69-7.16,14.18-11.15
		c12.97-11.5,28.86-17.59,44.47-24.04c14.4-5.95,29.94-7.17,45.23-9.23c5.52-0.74,7.47-3.5,5.44-8.63
		c-0.29-0.74-0.87-1.46-0.89-2.19c-0.21-12.67-0.35-25.34-0.53-38.01c-0.02-1.19-0.26-2.38-0.4-3.57c-1.33,0.17-2.9-0.06-3.97,0.57
		c-7.55,4.42-15.35,8.52-22.39,13.67c-16.84,12.31-33.6,24.75-49.8,37.88c-10.72,8.7-21.29,17.91-30.36,28.26
		c-16.75,19.11-34.09,37.89-47.17,59.91c-10.38,17.47-20.67,34.99-30.47,52.79c-4.46,8.1-7.57,16.94-11.4,25.4
		c-15.56,34.32-24.3,70.51-29.26,107.7C67.88,351.56,66.57,365.83,65,380.07z M313.31,352.99c0.21,2.3,0.37,3.42,0.4,4.54
		c0.66,27.37,1.28,54.74,1.98,82.11c0.36,14.21,1.07,28.41,1.29,42.62c0.64,41.31,1.11,82.63,1.64,123.94
		c0.08,5.88,1.08,11.96-0.08,17.59c-1.66,7.99-0.7,15.55-0.32,23.52c1.71,35.4,1.89,70.87,2.78,106.31c0.23,9.39,1,18.76,1.57,29.12
		c3.24-1.06,5.73-1.38,7.67-2.59c29.8-18.7,57.22-40.65,82.72-64.68c16.56-15.61,31.69-33.04,45.64-51.06
		c20.97-27.09,37.68-57.02,52.51-87.91c3.59-7.47,6.36-15.35,9.27-23.13c15.37-41.08,24.54-83.47,26.79-127.33
		c0.63-12.23,2.54-24.51,1.89-36.66c-1.07-19.83-3.04-39.69-5.9-59.34c-6.57-45.13-18.92-88.55-41.36-128.6
		c-8.28-14.77-16.97-29.33-25.74-43.82c-20.35-33.63-46.08-62.69-75.7-88.4c-25.32-21.97-51.54-42.66-81.2-58.63
		c-2.09-1.13-3.62-3.25-5.59-4.66c-1.44-1.02-3.51-2.57-4.69-2.16c-1.25,0.44-2.5,2.93-2.5,4.52c0.01,18.93-0.01,37.88,0.51,56.8
		c0.75,27.21,2.1,54.41,2.89,81.62c1.07,36.58,1.77,73.18,2.8,109.76c0.21,7.4-0.82,12.82-7.32,18.61
		c-13.93,12.4-24.5,27.98-31.92,45.3c-9.3,21.71-9.43,44.81-9.27,67.83c0.04,5.79,1.36,11.69,2.98,17.28c0.69,2.4,3.4,5.25,5.69,5.8
		c1.73,0.42,5.15-2,6.26-4.02c2.71-4.94,4.94-10.26,6.57-15.66c1.59-5.26,1.41-11.13,3.4-16.18
		C293.26,364.53,301.37,357.21,313.31,352.99z M221.95,188.51c-0.08,0.36-0.16,0.72-0.24,1.07c-4.23,0.34-8.46,0.61-12.68,1.01
		c-16.85,1.6-31.82,7.99-45.01,18.42c-5.58,4.41-7.23,11.03-4.52,16.68c7.46,15.57,15.02,31.09,22.91,46.44
		c1.45,2.83,4.26,5.58,7.12,6.94c7.43,3.53,15.48,2.77,22.95,0.28c10.61-3.53,20.97-7.83,31.3-12.14
		c11.15-4.65,21.8-5.36,31.56,2.96c7.07,6.02,8.47,2.68,11.65-2.97c1.06-1.89,1.43-4.35,1.52-6.57c0.38-8.91-2.12-17.27-6.75-24.68
		c-7.84-12.55-16.16-24.81-24.55-37.01c-1.36-1.97-3.91-3.76-6.23-4.32C241.38,192.33,231.65,190.51,221.95,188.51z"/>
	<path d="M65,380.07c1.57-14.24,2.88-28.52,4.77-42.72c4.96-37.19,13.7-73.38,29.26-107.7c3.83-8.46,6.94-17.3,11.4-25.4
		c9.8-17.79,20.1-35.32,30.47-52.79c13.08-22.02,30.43-40.79,47.17-59.91c9.07-10.35,19.63-19.57,30.36-28.26
		c16.19-13.13,32.96-25.57,49.8-37.88c7.04-5.14,14.85-9.24,22.39-13.67c1.07-0.63,2.63-0.4,3.97-0.57c0.14,1.19,0.38,2.38,0.4,3.57
		c0.18,12.67,0.32,25.34,0.53,38.01c0.01,0.74,0.6,1.46,0.89,2.19c2.03,5.13,0.08,7.89-5.44,8.63c-15.28,2.05-30.82,3.28-45.23,9.23
		c-15.62,6.45-31.5,12.54-44.47,24.04c-4.49,3.98-9.88,6.99-14.18,11.15c-5.94,5.74-11.6,11.86-16.72,18.34
		c-8.57,10.88-16.78,22.06-24.84,33.33c-9.16,12.82-13.1,27.47-14.48,43.03c-1.42,15.99-2.86,32,1.84,47.65
		c4.06,13.54,7.7,27.28,17.09,38.61c5.07,6.12,9.84,12.67,13.57,19.66c6.78,12.7,7.36,30.93-7.3,40.37
		c-9.81,6.31-12.44,15.35-7.26,25.84c2.51,5.08,5.86,9.77,9.07,14.47c2.33,3.4,5.83,4.72,9.88,3.87c9.01-1.89,17.88-1.81,26.27,2.31
		c3.27,1.61,6.57,3.72,8.95,6.41c3.48,3.91,6.6,8.3,8.97,12.95c1.28,2.51,0.58,6,0.97,9.02c1.63,12.74,3.52,25.45,4.92,38.21
		c0.53,4.8-0.06,9.72-0.06,14.59c0.01,9.1-0.68,18.28,0.32,27.27c1.37,12.38,14.93,25.69,27.02,27.94c0.75,0.14,1.56-0.07,2.59-0.12
		c-0.94-4.81-2.34-9.31-2.61-13.87c-0.58-9.87,1.14-19.41,5.29-28.5c1.41-3.08,1.76-6.65,3.24-9.68c1.08-2.2,3.23-3.86,4.9-5.77
		c1.57,2.22,3.82,4.25,4.54,6.72c1.07,3.7,1,7.73,1.56,11.6c0.18,1.24,0.49,2.76,1.31,3.54c1.21,1.14,2.94,1.73,4.45,2.55
		c0.77-1.48,1.94-2.88,2.25-4.45c1.1-5.6,1.91-11.25,2.83-16.88c0.65-0.06,1.3-0.11,1.95-0.17c0.99,1.68,2.18,3.28,2.93,5.06
		c1.57,3.75,2.71,7.69,4.44,11.36c0.61,1.29,2.99,3.07,3.61,2.75c1.52-0.78,3.12-2.48,3.52-4.1c0.53-2.12,0.02-4.52-0.18-6.79
		c-0.32-3.42,1.52-4.72,4.57-4.98c3.24-0.28,2.85,2,3.77,4.19c4.64,11.19,1.23,22.64,1.52,33.89c1.46,57.96,2.32,115.94,3.46,173.92
		c0.59,30.01,1.35,60.01,2,90.02c0.05,2.28-0.15,4.56-0.23,6.84c-0.65,0-1.31,0-1.96,0c-0.46-0.44-0.85-0.99-1.38-1.32
		c-14.95-9.27-29.92-18.52-44.88-27.78c-22.31-13.8-41.86-31.17-60.76-49.07c-19.2-18.18-36.4-38.4-50.87-60.68
		c-11.96-18.42-24.44-36.6-34.86-55.88C94,560.35,82.63,523.82,74.96,486.04c-5.92-29.21-9.9-58.55-9.41-88.41
		c0.03-1.6-0.36-3.21-0.55-4.81C65,388.57,65,384.32,65,380.07z"/>
	<path class="st0" d="M65,392.82c0.19,1.61,0.58,3.21,0.55,4.81c-0.49,29.86,3.49,59.2,9.41,88.41
		c7.66,37.78,19.03,74.31,37.35,108.23c10.41,19.28,22.9,37.47,34.86,55.88c14.47,22.28,31.67,42.5,50.87,60.68
		c18.89,17.89,38.45,35.27,60.76,49.07c14.96,9.25,29.93,18.5,44.88,27.78c0.53,0.33,0.93,0.87,1.38,1.32
		c-79.96,0-159.92,0-240.06,0C65,656.94,65,524.88,65,392.82z"/>
	<path d="M313.31,352.99c-11.94,4.22-20.05,11.54-24.36,22.46c-1.99,5.05-1.81,10.92-3.4,16.18c-1.63,5.4-3.86,10.72-6.57,15.66
		c-1.11,2.02-4.53,4.44-6.26,4.02c-2.29-0.55-4.99-3.41-5.69-5.8c-1.62-5.59-2.94-11.49-2.98-17.28
		c-0.16-23.02-0.03-46.13,9.27-67.83c7.42-17.32,17.99-32.9,31.92-45.3c6.5-5.79,7.53-11.21,7.32-18.61
		c-1.03-36.59-1.74-73.18-2.8-109.76c-0.79-27.21-2.15-54.41-2.89-81.62c-0.52-18.92-0.49-37.87-0.51-56.8
		c0-1.59,1.26-4.08,2.5-4.52c1.18-0.41,3.25,1.13,4.69,2.16c1.97,1.41,3.5,3.53,5.59,4.66c29.66,15.96,55.88,36.65,81.2,58.63
		c29.62,25.71,55.35,54.76,75.7,88.4c8.77,14.49,17.46,29.04,25.74,43.82c22.45,40.05,34.8,83.47,41.36,128.6
		c2.86,19.66,4.84,39.51,5.9,59.34c0.65,12.15-1.26,24.43-1.89,36.66c-2.25,43.86-11.42,86.25-26.79,127.33
		c-2.91,7.78-5.68,15.66-9.27,23.13c-14.83,30.89-31.54,60.82-52.51,87.91c-13.95,18.02-29.08,35.45-45.64,51.06
		c-25.5,24.03-52.93,45.98-82.72,64.68c-1.93,1.21-4.43,1.53-7.67,2.59c-0.58-10.36-1.34-19.73-1.57-29.12
		c-0.89-35.44-1.07-70.91-2.78-106.31c-0.38-7.97-1.34-15.53,0.32-23.52c1.17-5.63,0.16-11.71,0.08-17.59
		c-0.53-41.32-1-82.63-1.64-123.94c-0.22-14.21-0.92-28.41-1.29-42.62c-0.7-27.37-1.32-54.74-1.98-82.11
		C313.68,356.41,313.52,355.29,313.31,352.99z M322.81,619.52c2.09-0.59,3.81-0.96,5.45-1.56c15.86-5.82,28.69-16.05,39.72-28.47
		c4.33-4.88,7.78-10.84,10.44-16.84c5.93-13.37,8.71-27.39,8.58-42.25c-0.1-11.75-0.14-23.33-4.58-34.33
		c-5.85-14.52-12.91-28.49-22.41-40.98c-8.92-11.74-20.68-19.75-34.96-23.76c-5.76-1.62-6.24-1.07-5.89,4.77
		c0.2,3.26,0.33,6.52,0.37,9.79c0.3,27.4,0.45,54.8,0.9,82.2c0.48,29.05,1.23,58.09,1.88,87.14
		C322.34,616.48,322.6,617.73,322.81,619.52z M344.33,263.06c5.3-3.35,9.52-6,13.73-8.67c5.94-3.78,11.99-3.89,18.01-0.31
		c4.76,2.83,9.74,5.44,13.99,8.93c5.97,4.91,12.83,7.09,20.16,7.9c9.89,1.1,18.94,0.11,25.62-9.22c3.51-4.91,8.76-8.72,13.69-12.42
		c5.9-4.42,7.05-4.09,12.92,0.25c2.03,1.5,4.12,2.92,6.68,4.72c1.87-6.07,0.39-10.94-2.2-15.39c-8.23-14.15-20.64-22.44-36.79-24.61
		c-10.66-1.43-21.13,0.71-31.12,4.31c-12.16,4.38-23.54,10.25-32.74,19.78c-3.24,3.35-6.99,6.27-10.76,9.03
		C350.28,251.18,346.68,255.96,344.33,263.06z"/>
	<path d="M221.95,188.51c9.69,2,19.43,3.81,29.04,6.13c2.32,0.56,4.87,2.35,6.23,4.32c8.39,12.2,16.7,24.46,24.55,37.01
		c4.64,7.42,7.13,15.77,6.75,24.68c-0.09,2.22-0.46,4.68-1.52,6.57c-3.18,5.66-4.59,9-11.65,2.97c-9.76-8.33-20.42-7.61-31.56-2.96
		c-10.33,4.31-20.69,8.62-31.3,12.14c-7.47,2.48-15.52,3.25-22.95-0.28c-2.86-1.36-5.66-4.12-7.12-6.94
		c-7.89-15.35-15.45-30.88-22.91-46.44c-2.71-5.65-1.06-12.27,4.52-16.68c13.19-10.43,28.16-16.82,45.01-18.42
		c4.22-0.4,8.45-0.68,12.68-1.01C221.8,189.23,221.88,188.87,221.95,188.51z"/>
	<path class="st0" d="M322.81,619.52c-0.21-1.79-0.46-3.04-0.49-4.29c-0.65-29.05-1.41-58.09-1.88-87.14
		c-0.45-27.4-0.59-54.8-0.9-82.2c-0.04-3.26-0.17-6.53-0.37-9.79c-0.35-5.84,0.12-6.38,5.89-4.77
		c14.27,4.01,26.04,12.02,34.96,23.76c9.49,12.49,16.56,26.46,22.41,40.98c4.43,11,4.47,22.58,4.58,34.33
		c0.13,14.86-2.65,28.88-8.58,42.25c-2.66,6-6.11,11.96-10.44,16.84c-11.02,12.42-23.86,22.65-39.72,28.47
		C326.62,618.56,324.9,618.93,322.81,619.52z"/>
	<path class="st0" d="M344.33,263.06c2.35-7.1,5.94-11.88,11.18-15.71c3.77-2.76,7.52-5.67,10.76-9.03
		c9.19-9.52,20.57-15.4,32.74-19.78c9.99-3.6,20.46-5.74,31.12-4.31c16.15,2.17,28.56,10.46,36.79,24.61
		c2.59,4.45,4.06,9.33,2.2,15.39c-2.55-1.8-4.65-3.22-6.68-4.72c-5.87-4.34-7.02-4.67-12.92-0.25c-4.93,3.69-10.18,7.51-13.69,12.42
		c-6.68,9.33-15.73,10.32-25.62,9.22c-7.33-0.81-14.19-2.99-20.16-7.9c-4.24-3.49-9.23-6.1-13.99-8.93
		c-6.01-3.58-12.06-3.47-18.01,0.31C353.85,257.06,349.63,259.71,344.33,263.06z"/>
</g>
</svg>
