<?xml version="1.0" encoding="utf-8"?>
<!-- Generator: Adobe Illustrator 24.3.0, SVG Export Plug-In . SVG Version: 6.00 Build 0)  -->
<svg version="1.1" id="Layer_1" xmlns="http://www.w3.org/2000/svg" xmlns:xlink="http://www.w3.org/1999/xlink" x="0px" y="0px"
	 viewBox="0 0 612 792" style="enable-background:new 0 0 612 792;" xml:space="preserve">
<style type="text/css">
	.st0{fill:#FFFFFF;}
</style>
<g>
	<path class="st0" d="M56,649c0-172.55,0-345.1,0-518c79,0,158,0,237,0c-6.28,0.58-12.55,1.2-18.83,1.74
		c-14.41,1.23-22.41,12.5-18.23,26.25c15.36,50.57,34.44,99.69,57.45,147.28c2.09,4.32,4.3,8.87,4.93,13.53
		c0.74,5.44,1.41,11.82-0.71,16.51c-4.91,10.85-11.68,20.84-17.4,31.34c-2.61,4.78-5.12,9.76-6.63,14.95
		c-1.96,6.74,1.33,11.03,7.38,14.41c8.1,4.52,15.25,10.53,16.19,20.71c2.84,30.83,5.61,61.67,8.05,92.53
		c0.68,8.55,0.1,17.2,0.1,25.82c2.05,0.18,2.7,0.33,3.33,0.28c18.18-1.46,36.31-1.98,54.46-5.57c15.21-3.01,23.58-10.36,28.77-23.88
		c5.23-13.63,10.68-27.21,16.77-40.47c5.63-12.26,17.74-17.4,30.85-14.12c8.91,2.23,16.5,6.85,23.48,12.75
		c5.58,4.72,11.21,9.5,17.36,13.4c12.01,7.63,25.03,12.37,39.3,7.54c5.81-1.97,10.95-5.93,16.39-8.99c0,61,0,122,0,183
		c-166.67,0-333.33,0-500,0c0-3,0-6,0-9c10.42,0.59,20.84,1.18,31.05,1.75c4.62-16.2,8.84-31.95,13.61-47.53
		c4.78-15.59,9.9-31.1,15.29-46.49c5.39-15.4,11.14-30.67,17.02-45.89c5.81-15.02,11.98-29.9,17.99-44.83
		c0.41,0.15,0.83,0.3,1.24,0.46c-17.05,61.21-34.09,122.42-51.49,184.87c27.02-23.9,53.06-46.73,74.87-73.93
		c4.46-5.56,6.03-11.32,6.37-18.23c2.22-44.6,4.36-89.21,7.39-133.75c1.05-15.38,4.5-30.59,6.97-45.86
		c0.56-3.47,2.35-6.08,6.64-6.29c-8.6,63.35-11.04,126.71-9.11,191.17c9.35-4.44,17.67-8.62,26.18-12.34
		c3.49-1.52,4.44-3.49,4.3-7.2c-1.41-35.63-2.91-71.27-3.79-106.92c-0.5-20.14,0.16-40.31,0.16-60.46c0-4.3,2.03-5.56,6.1-4.92
		c0.13,1.07,0.34,2.2,0.38,3.34c0.95,26.48,1.51,52.98,2.91,79.44c1.6,30.11,3.98,60.17,5.96,90.26c0.27,4.05,1.64,6.49,6.04,7.64
		c6.42,1.69,12.58,4.34,18.87,6.53c1.44,0.5,2.95,0.81,4.4,1.19c-4.66-39.44-9.67-78.24-13.7-117.15
		c-2.4-23.18-3.28-46.51-4.73-69.79c-0.1-1.67,0.05-4.19,1.08-4.95c3.13-2.3,6.75-3.94,10.53-6.03c-0.08,1.59-0.13,2.74-0.21,3.88
		c-2.92,45.06-1.87,89.92,6.68,134.42c8.55,44.49,27.03,83.39,62.38,113.16c26.87,22.64,56.87,38.13,92.18,42.18
		c6.8,0.78,10.35-1.38,12.25-7.93c0.6-2.05,0.66-4.26,0.97-6.39c0.44-3.03-0.92-4.13-3.86-5.07c-11.07-3.56-22.37-6.76-32.9-11.59
		c-30.59-14.02-55.13-34.87-69.46-66.03c-2.86-6.21-5.13-13.16-5.62-19.92c-2.69-37.05-4.69-74.16-7.07-111.24
		c-0.3-4.62-2.38-9.29-1.92-13.76c0.37-3.63-1-5.39-3.24-6.94c-4.37-3.02-8.72-6.33-13.56-8.34c-5.34-2.22-7.78-5.99-7.51-11.1
		c0.25-4.73,1.17-9.68,3.02-14.01c3.67-8.54,8.06-16.79,12.42-25.01c2.81-5.29,6.34-10.19,9.11-15.5
		c5.77-11.06,3.18-22.47-5.98-28.96c-7.8,5.32-15.32,10.83-23.21,15.73c-8.05,5-16.24,9.92-24.82,13.91
		c-5.27,2.45-11.31,3.76-17.13,4.38c-11.38,1.2-22.87,1.42-34.29,2.29c-13,0.99-22.65,8.2-30.89,17.58
		c-10.8,12.29-17.81,26.9-24.61,41.56c-36.51,78.66-66.45,159.86-93.24,242.26C57.53,646.16,56.68,647.55,56,649z"/>
	<path d="M556,477c-5.44,3.06-10.58,7.02-16.39,8.99c-14.27,4.83-27.29,0.09-39.3-7.54c-6.15-3.91-11.78-8.68-17.36-13.4
		c-6.98-5.9-14.56-10.52-23.48-12.75c-13.1-3.27-25.22,1.86-30.85,14.12c-6.09,13.26-11.54,26.84-16.77,40.47
		c-5.19,13.53-13.56,20.88-28.77,23.88c-18.15,3.59-36.27,4.11-54.46,5.57c-0.63,0.05-1.28-0.1-3.33-0.28
		c0-8.62,0.57-17.27-0.1-25.82c-2.44-30.86-5.21-61.7-8.05-92.53c-0.94-10.18-8.09-16.19-16.19-20.71
		c-6.06-3.38-9.34-7.67-7.38-14.41c1.51-5.19,4.02-10.17,6.63-14.95c5.73-10.5,12.49-20.49,17.4-31.34
		c2.13-4.69,1.45-11.08,0.71-16.51c-0.63-4.65-2.84-9.21-4.93-13.53c-23.01-47.59-42.09-96.71-57.45-147.28
		c-4.17-13.74,3.82-25.01,18.23-26.25c6.28-0.54,12.55-1.15,18.83-1.74c5,0,10,0,15,0c2.15,0.84,4.37,1.55,6.45,2.56
		c3.46,1.68,5.05,4.57,5.22,8.43c0.15,3.26,0.29,6.59,1.03,9.74c9.81,41.73,16.65,83.93,20.31,126.64
		c0.55,6.42,1.06,12.85,1.59,19.38c6,0.7,9.56-2.59,12.74-6.23c7.2-8.25,10.75-18.33,13.51-28.66c6.72-25.11,8.95-50.84,9.27-76.69
		c0.12-9.52,4.84-14.45,12.7-17.5c17.75-6.9,35.9-4.62,54.94-2.38c-1.53,61.77-31.18,107.95-77.92,146.11
		c7.35,1.32,13.61,2.15,19.71,3.6c14.71,3.5,29.39,7.1,43.98,11.06c5.18,1.41,9.16,4.81,12.44,9.43c5,7.04,10.78,13.55,16.39,20.15
		c1.1,1.3,2.82,2.52,4.44,2.86c13.98,2.91,23.75,11.26,31.24,23.03c18.78,29.51,37.71,58.92,56.62,88.35
		c0.95,1.48,2.22,2.75,3.34,4.12C556,475.67,556,476.33,556,477z M365.69,347.7c19.09,4.33,38.02,9.11,56.5,16.43
		c-2.03,1.56-4.1,2.61-6,2.37c-17.04-2.11-33.59,1.17-50.43,4.39c7.82,5.15,15.48,10.5,23.91,14.04
		c16.25,6.82,28.92,2.47,38.89-12.07c0.26-0.38,0.76-0.58,1.07-0.81c7.71,1.88,14.81,6.3,23.17,4.42
		c-5.02-3.12-10.21-5.68-15.4-8.25c-2.81-1.39-5.7-2.63-8.42-4.18c-5.42-3.1-10.41-7.29-16.18-9.38
		C397.67,349.18,381.69,348.23,365.69,347.7z"/>
	<path d="M56,649c0.68-1.45,1.53-2.84,2.02-4.35c26.8-82.4,56.73-163.6,93.24-242.26c6.81-14.66,13.81-29.27,24.61-41.56
		c8.24-9.38,17.89-16.59,30.89-17.58c11.42-0.87,22.91-1.09,34.29-2.29c5.82-0.61,11.86-1.93,17.13-4.38
		c8.58-3.99,16.77-8.9,24.82-13.91c7.89-4.9,15.41-10.41,23.21-15.73c9.16,6.48,11.76,17.89,5.98,28.96
		c-2.77,5.31-6.31,10.21-9.11,15.5c-4.36,8.23-8.75,16.47-12.42,25.01c-1.86,4.32-2.78,9.28-3.02,14.01
		c-0.27,5.11,2.17,8.88,7.51,11.1c4.84,2.02,9.19,5.32,13.56,8.34c2.24,1.55,3.61,3.31,3.24,6.94c-0.46,4.47,1.62,9.13,1.92,13.76
		c2.38,37.08,4.38,74.18,7.07,111.24c0.49,6.76,2.77,13.71,5.62,19.92c14.33,31.16,38.87,52.01,69.46,66.03
		c10.53,4.83,21.83,8.03,32.9,11.59c2.94,0.94,4.31,2.05,3.86,5.07c-0.31,2.14-0.38,4.34-0.97,6.39c-1.9,6.55-5.46,8.71-12.25,7.93
		c-35.32-4.05-65.31-19.54-92.18-42.18c-35.35-29.78-53.83-68.68-62.38-113.16c-8.55-44.5-9.61-89.36-6.68-134.42
		c0.07-1.14,0.12-2.29,0.21-3.88c-3.78,2.09-7.41,3.72-10.53,6.03c-1.04,0.76-1.19,3.28-1.08,4.95c1.46,23.27,2.34,46.61,4.73,69.79
		c4.02,38.91,9.03,77.71,13.7,117.15c-1.45-0.39-2.96-0.69-4.4-1.19c-6.29-2.19-12.45-4.84-18.87-6.53
		c-4.4-1.16-5.77-3.59-6.04-7.64c-1.98-30.09-4.36-60.15-5.96-90.26c-1.41-26.46-1.96-52.96-2.91-79.44
		c-0.04-1.14-0.25-2.27-0.38-3.34c-4.07-0.63-6.1,0.62-6.1,4.92c0,20.15-0.66,40.32-0.16,60.46c0.88,35.65,2.38,71.28,3.79,106.92
		c0.15,3.71-0.81,5.68-4.3,7.2c-8.51,3.72-16.83,7.9-26.18,12.34c-1.92-64.46,0.51-127.81,9.11-191.17
		c-4.29,0.2-6.08,2.81-6.64,6.29c-2.47,15.27-5.92,30.49-6.97,45.86c-3.03,44.55-5.17,89.16-7.39,133.75
		c-0.34,6.91-1.92,12.67-6.37,18.23c-21.81,27.19-47.84,50.03-74.87,73.93c17.4-62.46,34.44-123.67,51.49-184.87
		c-0.41-0.15-0.83-0.3-1.24-0.46c-6.01,14.94-12.19,29.82-17.99,44.83c-5.88,15.22-11.63,30.49-17.02,45.89
		c-5.39,15.4-10.5,30.9-15.29,46.49c-4.78,15.57-9,31.32-13.61,47.53C76.84,652.18,66.42,651.59,56,651C56,650.33,56,649.67,56,649z
		"/>
	<path class="st0" d="M556,475c-1.12-1.37-2.39-2.64-3.34-4.12c-18.91-29.43-37.84-58.84-56.62-88.35
		c-7.49-11.76-17.27-20.12-31.24-23.03c-1.62-0.34-3.34-1.56-4.44-2.86c-5.61-6.6-11.39-13.1-16.39-20.15
		c-3.28-4.62-7.26-8.02-12.44-9.43c-14.58-3.97-29.27-7.56-43.98-11.06c-6.1-1.45-12.36-2.28-19.71-3.6
		c46.73-38.15,76.38-84.33,77.92-146.11c-19.04-2.24-37.19-4.51-54.94,2.38c-7.86,3.05-12.58,7.98-12.7,17.5
		c-0.31,25.85-2.55,51.58-9.27,76.69c-2.77,10.33-6.31,20.42-13.51,28.66c-3.17,3.63-6.74,6.93-12.74,6.23
		c-0.53-6.53-1.04-12.96-1.59-19.38c-3.66-42.71-10.5-84.91-20.31-126.64c-0.74-3.16-0.88-6.48-1.03-9.74
		c-0.17-3.86-1.77-6.75-5.22-8.43c-2.07-1.01-4.29-1.72-6.45-2.56c82.67,0,165.33,0,248,0C556,245.67,556,360.33,556,475z"/>
	<path class="st0" d="M365.69,347.7c16.01,0.52,31.99,1.48,47.11,6.96c5.77,2.09,10.76,6.28,16.18,9.38
		c2.72,1.55,5.61,2.8,8.42,4.18c5.19,2.56,10.38,5.12,15.4,8.25c-8.36,1.89-15.46-2.54-23.17-4.42c-0.31,0.23-0.81,0.44-1.07,0.81
		c-9.97,14.54-22.64,18.89-38.89,12.07c-8.43-3.54-16.09-8.89-23.91-14.04c16.84-3.22,33.39-6.5,50.43-4.39
		c1.9,0.24,3.97-0.82,6-2.37C403.71,356.81,384.77,352.03,365.69,347.7z M378.98,373.23c6.11,10.24,20.12,14.91,30.14,9.88
		c1.34-0.67,2.71-3.8,2.21-5.07c-0.95-2.47-2.81-5.64-5.02-6.4C397.15,368.49,387.83,367.74,378.98,373.23z"/>
	<path d="M378.98,373.23c8.85-5.49,18.17-4.74,27.33-1.59c2.21,0.76,4.06,3.93,5.02,6.4c0.49,1.28-0.87,4.4-2.21,5.07
		C399.11,388.14,385.09,383.47,378.98,373.23z"/>
</g>
</svg>
