<?xml version="1.0" encoding="utf-8"?>
<!-- Generator: Adobe Illustrator 24.3.0, SVG Export Plug-In . SVG Version: 6.00 Build 0)  -->
<svg version="1.1" id="Layer_1" xmlns="http://www.w3.org/2000/svg" xmlns:xlink="http://www.w3.org/1999/xlink" x="0px" y="0px"
	 viewBox="0 0 612 792" style="enable-background:new 0 0 612 792;" xml:space="preserve">
<style type="text/css">
	.st0{fill:#FFFFFF;}
</style>
<g>
	<path class="st0" d="M610.21,394.5c0,101.5,0,203,0,304.5c-203.4,0-406.81,0-610.21,0c0-101.5,0-203,0-304.5
		c1,0.09,2.06-0.02,2.98,0.29c22.25,7.41,44.51,14.78,66.67,22.46c1.83,0.64,2.9,3.48,4.87,6.01c-3.74,1.09-5.94,1.24-7.56,2.29
		c-7.84,5.04-21.97,3.4-19.7,19.05c-10.37,0.33-4.84,7.91-6.83,13.12c-11.03,4.4-22.75,9.08-34.38,13.72
		C5,481.6,7.23,483.82,16.61,481.12c12.43-3.58,24.64-7.89,37.07-11.47c9.37-2.7,18.94-4.74,29.52-7.35
		c-1.46,5.98-6.4,5.9-9.55,7.77c-3.54,2.11-7.48,3.55-11.97,5.62c2.79,1.81,4.81,3.54,7.14,4.54c4.35,1.87,6.51,4.97,7.93,9.48
		c2.28,7.22,9.29,11.22,17.51,11.6c1.98,0.09,4.64,1.21,5.71,2.75c7.26,10.4,14.26,21,21.12,31.67c0.86,1.34,1.1,3.81,0.46,5.24
		c-2.62,5.89-5.68,11.58-8.6,17.34c-8.43,16.65-16.87,33.3-25.88,51.08c1.82-0.8,2.5-1.06,3.14-1.38
		c21.48-10.8,42.99-21.53,64.39-32.49c2.94-1.5,4.84-1.51,7.59,0.45c8.7,6.21,17.53,12.29,26.62,17.91
		c3.48,2.15,4.97,4.11,4.75,8.39c-0.42,8.13,3.93,14.12,11.26,17.03c6.96,2.76,14.41,2.22,19.64-3.66c3.08-3.46,5.6-3.31,9.35-2.33
		c10.55,2.74,21.14,5.36,31.79,7.65c9.07,1.96,10.45,4.69,5.64,12.98c-0.55-0.94-0.94-1.89-1.56-2.65
		c-4.43-5.39-10.39-4.96-12.31,1.62c-1.99,6.81-2.99,14.14-2.83,21.21c0.06,2.61,4.25,6.36,7.26,7.27c2.12,0.64,5.57-2.44,8.13-4.27
		c0.95-0.68,0.92-2.61,1.61-3.81c0.39-0.68,1.34-1.04,2.04-1.54c0.57,0.81,1.62,1.61,1.63,2.42c0.03,3.16-0.28,6.32-0.46,9.48
		c0.48,0.5,0.96,0.99,1.44,1.49c4.9-2.78,9.81-5.57,14.95-8.49c4.21,12.43,8.75,25.83,13.48,39.8c0.83-1.13,1.3-1.53,1.47-2.04
		c7.56-22.56,15.17-45.11,22.54-67.73c0.95-2.93,2.21-3.98,5.23-4.6c13.45-2.74,26.85-5.79,40.21-8.97
		c3.43-0.81,5.95-0.52,8.77,1.89c5.17,4.42,11.29,5.27,17.62,2.56c6.85-2.94,11.4-8.08,11.63-15.61c0.12-4.03,2.09-5.49,4.9-7.31
		c9.82-6.38,19.42-13.09,29.29-19.38c1.69-1.07,4.74-1.65,6.41-0.86c11.31,5.37,22.42,11.18,33.59,16.83
		c11.81,5.97,23.64,11.92,36.15,18.22c-0.41-1.43-0.48-1.98-0.72-2.45c-11.3-22.31-22.66-44.58-33.81-66.95
		c-0.87-1.75-1.09-4.8-0.14-6.33c6.16-9.94,12.61-19.71,19.27-29.32c1.1-1.58,3.66-2.84,5.65-3.01c8.21-0.7,14.35-4.26,17.54-11.92
		c3.09-7.4,1.55-14.09-3.74-20.2c-1.23-1.43-1.8-4.2-1.43-6.11c2.71-13.84,5.62-27.64,8.81-41.37c0.37-1.59,2.6-3.31,4.34-3.92
		c11.82-4.15,23.71-8.12,35.64-11.97C585.93,401.99,598.09,398.29,610.21,394.5z M267.3,676.97c-0.33-3.63-2.15-6.88-7.16-7.18
		c-4.21-0.25-8.75,4.17-8.69,8.31c0.06,3.98,4.77,8.66,8.67,8.61C264.22,686.66,267.27,682.89,267.3,676.97z"/>
	<path class="st0" d="M0,393.29C0,292.6,0,191.91,0,91.22c185.58,0,371.15,0,556.73,0c-9.5,12.86-19.13,25.63-28.42,38.64
		c-4.09,5.73-7.32,12.07-11.25,17.92c-1.23,1.82-3.48,2.98-5.29,4.39c-3.24,2.51-7.45,4.37-9.57,7.6
		c-6.18,9.44-11.59,19.38-17.17,29.2c-4,7.04-7.86,13.95-16.27,16.94c-4.72,1.68-8.98,4.64-13.62,6.6
		c-1.47,0.62-3.92,0.51-5.22-0.34c-11.65-7.62-23.19-15.39-34.61-23.35c-1.47-1.03-2.92-3.36-2.89-5.06
		c0.17-9.12-3.6-15.64-11.95-19.24c-8.17-3.52-14.85-0.53-21,5.1c-1.24,1.14-3.78,1.72-5.49,1.38c-14.45-2.94-28.88-6.04-43.23-9.43
		c-2.04-0.48-4.6-2.48-5.27-4.36c-4.53-12.72-8.58-25.62-12.86-38.43c-2.32-6.94-4.8-13.83-7.66-22.06
		c-0.78,2.26-1.04,2.99-1.29,3.73c-6.29,18.74-12.51,37.5-18.98,56.18c-0.65,1.87-2.66,4.24-4.41,4.6
		c-17.38,3.58-34.84,6.78-53.04,10.23c-5.08-5.83-12.16-9.79-21.52-6.48c-8.51,3.01-11.99,9.05-12.33,20.09
		c-0.04,1.44-1.05,3.41-2.23,4.16c-6.29,4.01-12.77,7.72-20.62,12.38c-4.6-9.74-9.12-19.28-13.64-28.86
		c-1.51,1.03-2.4,1.63-3.5,2.38c-0.85-1.9-1.33-3.47-2.19-4.81c-4.2-6.55-2.86-16.61-12.54-19.75c-0.51-0.17-0.71-1.4-0.98-2.15
		c-5.15-14.17-10.31-28.34-15.44-42.51c-3.08-8.51-3.08-8.52-13.39-6.42c0.39,5.87-0.03,12.05,1.35,17.8
		c2.53,10.57,6.17,20.87,9.24,31.32c0.55,1.86,1.49,4.94,0.68,5.65c-6.49,5.67-2.72,11.96-1.4,17.96
		c1.44,6.52,3.43,12.91,5.46,20.37c-11.63-5.91-22.14-11.26-33.38-16.97c0.4,1.6,0.43,2.19,0.67,2.66
		c10.15,20.17,20.2,40.39,30.56,60.45c2,3.87,2.21,6.3-0.67,10.13c-7.37,9.83-14.03,20.2-20.63,30.58
		c-1.64,2.57-2.72,3.64-6.01,3.06c-7.34-1.29-13.65,1.14-17.99,7.34c-4.72,6.74-5.41,13.92-0.61,20.92
		c1.98,2.88,4.74,5.24,6.46,7.09c-2.93,13.63-6.66,26.71-8.28,40.04c-1.09,8.99-4.1,13.29-13.13,15.82
		C40.56,379.46,20.36,386.67,0,393.29z"/>
	<path d="M0,393.29c20.36-6.62,40.56-13.83,61.17-19.6c9.03-2.53,12.04-6.83,13.13-15.82c1.62-13.33,5.35-26.41,8.28-40.04
		c-1.72-1.86-4.48-4.21-6.46-7.09c-4.8-7-4.11-14.18,0.61-20.92c4.34-6.2,10.66-8.62,17.99-7.34c3.28,0.58,4.37-0.49,6.01-3.06
		c6.6-10.38,13.26-20.75,20.63-30.58c2.88-3.83,2.67-6.26,0.67-10.13c-10.36-20.06-20.42-40.28-30.56-60.45
		c-0.24-0.48-0.28-1.06-0.67-2.66c11.24,5.71,21.75,11.06,33.38,16.97c-2.03-7.46-4.03-13.86-5.46-20.37
		c-1.32-6-5.09-12.28,1.4-17.96c0.82-0.71-0.13-3.79-0.68-5.65c-3.07-10.45-6.7-20.75-9.24-31.32c-1.38-5.75-0.97-11.94-1.35-17.8
		c10.3-2.1,10.3-2.09,13.39,6.42c5.14,14.17,10.29,28.34,15.44,42.51c0.28,0.76,0.47,1.99,0.98,2.15
		c9.67,3.14,8.34,13.2,12.54,19.75c0.86,1.34,1.34,2.91,2.19,4.81c1.1-0.75,2-1.36,3.5-2.38c4.53,9.58,9.04,19.12,13.64,28.86
		c7.85-4.66,14.33-8.36,20.62-12.38c1.18-0.75,2.19-2.72,2.23-4.16c0.34-11.05,3.82-17.08,12.33-20.09
		c9.36-3.31,16.44,0.66,21.52,6.48c18.19-3.45,35.65-6.65,53.04-10.23c1.75-0.36,3.76-2.73,4.41-4.6
		c6.48-18.68,12.69-37.44,18.98-56.18c0.25-0.73,0.51-1.46,1.29-3.73c2.86,8.22,5.34,15.11,7.66,22.06
		c4.28,12.81,8.33,25.71,12.86,38.43c0.67,1.88,3.24,3.87,5.27,4.36c14.35,3.39,28.78,6.49,43.23,9.43c1.7,0.35,4.24-0.24,5.49-1.38
		c6.14-5.63,12.83-8.61,21-5.1c8.35,3.6,12.12,10.12,11.95,19.24c-0.03,1.7,1.42,4.03,2.89,5.06c11.42,7.96,22.96,15.73,34.61,23.35
		c1.3,0.85,3.76,0.96,5.22,0.34c4.64-1.96,8.9-4.91,13.62-6.6c8.41-3,12.27-9.9,16.27-16.94c5.58-9.82,10.99-19.76,17.17-29.2
		c2.12-3.23,6.34-5.09,9.57-7.6c1.82-1.41,4.07-2.56,5.29-4.39c3.94-5.85,7.16-12.19,11.25-17.92
		c9.29-13.01,18.93-25.77,28.42-38.64c2.03,0,4.05,0,6.08,0c4.83,5.37,6.29,10.28,1.69,17.37c-7.87,12.15-14.34,25.2-21.34,37.9
		c-2.05,3.72-3,7.24-1.62,11.92c0.96,3.26-0.63,7.9-2.42,11.21c-3.71,6.87-8.55,13.13-12.42,19.92c-1.72,3.03-2.22,6.76-3.26,10.18
		c-1.33,4.37-1.88,9.18-4.11,13.03c-7.77,13.44-16.25,26.47-24.12,39.86c-1.19,2.02-1.66,5.64-0.64,7.55
		c3.71,6.91,8.11,13.48,12.5,20c0.77,1.14,2.79,2.14,4.17,2.07c9.75-0.47,16.54,3.15,20.27,11.17c3.37,7.24,1.33,15.18-5.2,22.03
		c-1.17,1.23-1.66,3.65-1.53,5.45c0.19,2.57,1.33,5.05,1.9,7.6c0.99,4.36,2.3,6.93,8.13,6.16c4-0.53,9.51,1.1,12.44,3.82
		c4.18,3.86,0.42,12.33-5.33,13.96c-2.88,0.82-5.74,1.68-8.48,2.49c-0.46,13.34-0.45,13.33,11.69,16.94c1.35,0.4,2.65,0.99,4,1.43
		c20.35,6.67,40.7,13.34,61.06,20.01c0,0.4,0,0.81,0,1.21c-12.13,3.79-24.28,7.49-36.37,11.39c-11.93,3.85-23.82,7.81-35.64,11.97
		c-1.74,0.61-3.97,2.33-4.34,3.92c-3.19,13.73-6.1,27.53-8.81,41.37c-0.37,1.91,0.19,4.69,1.43,6.11c5.3,6.11,6.83,12.79,3.74,20.2
		c-3.19,7.65-9.33,11.22-17.54,11.92c-1.99,0.17-4.55,1.43-5.65,3.01c-6.66,9.61-13.11,19.38-19.27,29.32
		c-0.95,1.53-0.73,4.58,0.14,6.33c11.15,22.38,22.51,44.65,33.81,66.95c0.24,0.47,0.31,1.02,0.72,2.45
		c-12.51-6.31-24.34-12.26-36.15-18.22c-11.18-5.65-22.28-11.46-33.59-16.83c-1.66-0.79-4.72-0.22-6.41,0.86
		c-9.87,6.29-19.47,13-29.29,19.38c-2.81,1.82-4.78,3.28-4.9,7.31c-0.23,7.53-4.79,12.67-11.63,15.61
		c-6.33,2.72-12.45,1.86-17.62-2.56c-2.82-2.41-5.35-2.71-8.77-1.89c-13.36,3.18-26.75,6.23-40.21,8.97
		c-3.03,0.62-4.28,1.67-5.23,4.6c-7.37,22.62-14.98,45.17-22.54,67.73c-0.17,0.51-0.64,0.91-1.47,2.04
		c-4.73-13.97-9.27-27.37-13.48-39.8c-5.14,2.92-10.05,5.7-14.95,8.49c-0.48-0.5-0.96-0.99-1.44-1.49c0.18-3.16,0.49-6.32,0.46-9.48
		c-0.01-0.81-1.06-1.61-1.63-2.42c-0.7,0.5-1.65,0.86-2.04,1.54c-0.69,1.2-0.66,3.13-1.61,3.81c-2.56,1.83-6.01,4.91-8.13,4.27
		c-3.01-0.91-7.2-4.66-7.26-7.27c-0.15-7.07,0.84-14.41,2.83-21.21c1.92-6.58,7.88-7,12.31-1.62c0.62,0.76,1.02,1.71,1.56,2.65
		c4.81-8.3,3.43-11.03-5.64-12.98c-10.65-2.3-21.24-4.91-31.79-7.65c-3.75-0.97-6.27-1.12-9.35,2.33
		c-5.23,5.88-12.68,6.42-19.64,3.66c-7.33-2.9-11.68-8.9-11.26-17.03c0.22-4.27-1.27-6.23-4.75-8.39
		c-9.09-5.62-17.92-11.7-26.62-17.91c-2.75-1.96-4.65-1.95-7.59-0.45c-21.4,10.96-42.91,21.69-64.39,32.49
		c-0.64,0.32-1.31,0.58-3.14,1.38c9.01-17.77,17.44-34.42,25.88-51.08c2.92-5.76,5.98-11.45,8.6-17.34c0.64-1.43,0.4-3.9-0.46-5.24
		c-6.86-10.67-13.86-21.27-21.12-31.67c-1.07-1.53-3.73-2.66-5.71-2.75c-8.23-0.38-15.23-4.37-17.51-11.6
		c-1.42-4.51-3.58-7.61-7.93-9.48c-2.33-1-4.34-2.73-7.14-4.54c4.49-2.07,8.43-3.51,11.97-5.62c3.14-1.87,8.09-1.79,9.55-7.77
		c-10.58,2.61-20.15,4.65-29.52,7.35c-12.43,3.58-24.64,7.89-37.07,11.47c-9.38,2.7-11.61,0.48-10.57-9.68
		c11.63-4.64,23.35-9.32,34.38-13.72c1.99-5.21-3.54-12.8,6.83-13.12c-2.26-15.65,11.86-14.01,19.7-19.05
		c1.62-1.04,3.82-1.19,7.56-2.29c-1.97-2.53-3.04-5.38-4.87-6.01c-22.15-7.69-44.42-15.06-66.67-22.46C2.06,394.48,1,394.59,0,394.5
		C0,394.1,0,393.69,0,393.29z M127.43,292.15c-15.86,22.43-18.43,48.73-24.96,73.93c0.94-1.33,1.88-2.67,3.5-4.99
		c-1.47,12.95-2.98,24.56-3.96,36.21c-0.24,2.87,0.78,6.11,2.04,8.8c3.03,6.46,0.13,14.33-6.71,16.44
		c-8.31,2.56-16.79,4.58-25.02,7.33c-6.44,2.15-12.62,5.05-18.92,7.62c0.31,0.8,0.63,1.6,0.94,2.4c4.99-1.75,9.95-3.57,14.96-5.23
		c3.71-1.23,7.67-3.81,10.39,0.1c-2.39,2.83-3.89,6.22-6.35,7.22c-7.22,2.92-14.85,4.8-22.25,7.3c-1.78,0.6-3.26,2.07-4.88,3.13
		c1.95,0.42,4.01,1.45,5.83,1.14c5.18-0.89,5.14-1.11,7.18,2.62c-16.05,6.47-32.12,12.95-48.19,19.43
		c21.11-4.87,41.85-10.61,62.5-16.69c12.38-3.64,24.58-7.89,36.91-11.68c1.64-0.5,3.64,0.15,5.55,0.27
		c-3.24,10.05-13.48,7.25-18.59,13.45c3.83,0.41,7.58,0.23,10.98-0.94c3.37-1.16,5.24-0.68,6.66,2.61c3.04,7.03,6.21,14,9.43,20.94
		c3.33,7.2,6.78,14.35,10.27,21.72c4.17-2.7,7.43-4.64,9.64,0.88c-1.14,0.14-2.28,0.27-4.43,0.53c2.51,3.19,4.71,5.47,6.29,8.12
		c2.72,4.58,4.31,10.02,7.71,13.97c6.96,8.08,14.64,15.56,22.36,22.95c2.36,2.26,5.73,3.52,8.74,5.03c1.85,0.93,4.18,1.07,5.8,2.24
		c9.29,6.73,18.15,14.1,27.72,20.39c7.06,4.65,14.99,7.99,22.54,11.91c0.07-0.23,0.14-0.46,0.22-0.7
		c-5.52-4.62-11.03-9.24-16.55-13.85c10.03,3.46,19.23,8.08,28.9,11.29c6.96,2.31,14.23,3.03,13.03,13.02
		c-0.08,0.65,0.74,1.4,1.1,2.12c2.7,5.29,3.13,11.38,9.06,15.47c4.53,3.12,3.18,9.36,1.19,14.59c-1.3,3.42-1.79,7.14-2.65,10.73
		c0.8,0.24,1.6,0.48,2.39,0.72c1.53-2.85,3.06-5.71,4.6-8.56c0.5,0.06,1,0.12,1.5,0.19c-0.97,6.74-1.95,13.49-2.92,20.24
		c0.47,0.12,0.94,0.23,1.41,0.35c0.85-2.33,1.69-4.67,2.54-7c2.28-0.47,4.14-1.32,5.04-2.77c1.36-2.19,2.16-4.77,3.01-7.24
		c4.08-11.97,8.1-23.97,12.14-35.96c0.5,0.15,1,0.3,1.49,0.45c-1.71,6.02-3.43,12.04-5.14,18.06c1.76-0.54,2.86-1.39,3.43-2.52
		c3.28-6.5,6.25-13.16,9.75-19.54c0.88-1.6,3.2-2.85,5.1-3.38c14.59-4.04,29.58-6.9,43.78-11.99c19.71-7.07,38.83-15.76,58.49-23.87
		c-4.07-6.19,1.26-8.16,4.33-9.91c10.68-6.09,20.41-12.5,28.04-22.92c7.54-10.3,18.31-18.18,24.01-30.17
		c1.63-3.42,4.55-6.21,6.32-9.58c2.47-4.71,4.42-9.69,6.59-14.56c-0.7-0.36-1.4-0.72-2.1-1.08c-6.47,12.58-13.39,24.83-23.7,34.52
		c3.75-8.02,8.25-15.55,12.04-23.4c3.85-7.97,7.16-16.22,10.45-24.44c3.29-8.23,5.88-16.75,9.46-24.84
		c6.61-14.97,8.29-19.95,6.86-24.71c-3.62,4.95-1.25,13.33-9.4,16.12c1.85-7.8,3.06-14.88,5.24-21.65
		c3.23-10.03,4.5-20.17,3.74-30.62c-0.05-0.75-0.13-1.82-0.61-2.16c-4.52-3.23-1.37-7.16-1.25-10.88c0.23-6.67,5.02-4.98,8.87-5.17
		c0.8-0.04,1.64-0.04,2.4-0.27c8.64-2.61,17.29-5.18,25.87-7.96c1.21-0.39,2.83-1.75,2.91-2.76c0.08-1.07-1.26-2.96-2.33-3.25
		c-2.63-0.73-5.51-1.23-8.19-0.95c-5.22,0.55-10.35,2.01-15.57,2.52c-4.5,0.44-9.09,0.09-13.64,0.09c0-0.49-0.01-0.97-0.01-1.46
		c6.04-1.12,12.08-2.24,18.12-3.36c-0.99-2-2.36-3.31-3.76-3.36c-4.33-0.14-8.87-0.55-12.96,0.53c-6.12,1.62-8.26-1.02-9.9-6.2
		c-2.07-6.51-4.7-12.84-7.3-19.16c-0.64-1.56-2.07-2.81-3.48-4.64c-0.71,3.75-1.22,6.44-1.73,9.13c-0.96,0.06-1.92,0.12-2.88,0.18
		c2.89-10.32-0.3-19.06-4.72-26.17c0.29-2.61,1.19-4.7,0.51-5.63c-3.37-4.64,0.01-7.1,2.34-10.33c8.7,10.76,12.58,14.94,15.16,9.06
		c-2.93-5.84-5.62-10.92-8.01-16.14c-0.53-1.16-0.51-3.1,0.13-4.17c10.36-17.28,20.9-34.45,31.3-51.71
		c1.23-2.04,1.91-4.41,2.84-6.62c-0.34-0.19-0.67-0.37-1.01-0.56c-1.55,1.01-3.09,2.02-4.64,3.03
		c6.78-13.51,14.61-26.09,22.21-38.82c1.33-2.23,1.73-5.02,2.56-7.55c-0.63-0.17-1.26-0.33-1.9-0.5c-2.94,4.19-5.88,8.39-8.82,12.58
		c-0.45-0.28-0.89-0.55-1.34-0.83c2-3.58,4.13-7.1,5.99-10.75c6.49-12.73,12.76-25.57,19.36-38.24c3.26-6.25,7.23-12.13,10.52-18.37
		c0.78-1.49,0.12-3.74,0.12-5.64c-0.67-0.04-1.35-0.08-2.02-0.12c-2.22,3.09-4.4,6.21-6.68,9.26c-6.37,8.53-12.99,16.89-19.12,25.59
		c-5.57,7.9-10.61,16.17-15.98,24.22c-0.7,1.05-2.41,2.62-2.98,2.37c-5.51-2.34-6.92,2.55-8.57,5.31
		c-9.45,15.73-18.37,31.79-27.71,47.59c-8.81,14.91-17.93,29.64-26.9,44.43c-9.35-5.52-19.83-8.2-24.33-18.42
		c6.58,2.07,12.9,4.06,19.21,6.05c0.26-0.53,0.52-1.06,0.79-1.59c-1.09-1-2.06-2.18-3.28-2.99c-10.44-6.92-21.01-13.64-31.36-20.69
		c-10.48-7.14-21.53-13.13-33.41-17.59c-0.58-0.22-1.35,0.11-4.04,0.39c5.48,3.17,9.4,5.43,13.32,7.7
		c-0.16,0.49-0.32,0.98-0.48,1.47c-1.75-0.25-3.61-0.23-5.25-0.81c-9.86-3.51-19.43-8.25-29.56-10.52
		c-20.5-4.61-40.94-11.15-62.49-7.06c-0.79,0.15-1.62,0.18-2.42,0.14c-0.51-0.03-1.02-0.29-1.69-0.49c1.57-0.92,2.94-1.72,5.69-3.33
		c-3.12-0.77-4.79-1.63-6.39-1.51c-6.84,0.53-13.91,0.46-20.41,2.3c-7.5,2.12-15.29,3.41-21.05,10.8
		c-3.23,4.14-11.06,4.72-16.81,6.9c-0.2-0.44-0.41-0.88-0.61-1.32c1.5-1.37,3.01-2.75,4.51-4.12c-0.37-0.58-0.75-1.16-1.12-1.74
		c-16.2,8.39-30.63,19.87-46.38,29.14c-3.2-6.32-6.11-12.04-9.01-17.76c-0.73,0.35-1.47,0.69-2.2,1.04
		c1.56,3.82,3.49,7.54,4.57,11.49c0.91,3.34,5.55,6.94-0.14,11.23c-6.96-17.49-13.68-34.39-20.41-51.29
		c-0.41,0.15-0.81,0.3-1.22,0.44c0.84,4.22,1.68,8.44,2.51,12.65c-0.45,0.09-0.9,0.19-1.36,0.28
		c-5.31-12.95-10.63-25.91-15.94-38.86c-0.5,0.18-1.01,0.35-1.51,0.53c1.54,7.48,3.09,14.96,4.63,22.45
		c-6.65-17.63-13.04-35.29-19.38-52.97c-2.79-7.79-5.49-15.61-8.24-23.42c-0.71,0.21-1.43,0.42-2.14,0.62
		c4.26,28.83,16.32,55.78,20.98,84.65c-3.71-9.72-7.42-19.43-11.14-29.15c-0.48,0.14-0.96,0.28-1.44,0.42
		c0.35,2.1,0.51,4.25,1.07,6.29c3.35,12.25,6.88,24.44,10.15,36.71c2.39,8.96,4.16,18.09,6.75,26.98c2.4,8.24,5.58,16.26,8.3,24.42
		c0.42,1.25,0.78,3.1,0.18,4.01c-3.72,5.61-7.73,11.02-11.64,16.5c-0.23-0.15-0.47-0.29-0.7-0.44c2.36-7.83,4.72-15.65,7.08-23.48
		c-0.6-0.3-1.2-0.59-1.81-0.89c-6.12,10.75-12.13,21.57-18.4,32.23C120.43,287.95,120.42,291,127.43,292.15z M137.99,514.79
		c-1.02,13.37,13.01,31.54,26.88,34.8C155.71,537.73,147.08,526.56,137.99,514.79z M510.18,419.72c8.27-13.06,8.15-27.32,7.56-41.61
		c-0.06-1.45-1.37-2.84-2.1-4.27c-0.75,1.38-2.04,2.71-2.17,4.14C512.27,391.79,511.26,405.61,510.18,419.72z M265.79,633.87
		c-0.94-0.06-1.88-0.12-2.82-0.19c-4.09,5.93-4.54,12.72-3.5,19.69c0.17,1.13,2.08,2.49,3.4,2.78c0.75,0.17,2.76-1.58,2.79-2.51
		C265.9,647.05,265.79,640.46,265.79,633.87z M507.09,425.36c-0.77-0.14-1.55-0.28-2.32-0.42c-1.04,5.08-2.07,10.17-3.11,15.25
		c0.84,0.16,1.68,0.31,2.51,0.47C505.15,435.55,506.12,430.45,507.09,425.36z"/>
	<path class="st0" d="M610.21,393.29c-20.35-6.67-40.71-13.33-61.06-20.01c-1.34-0.44-2.64-1.03-4-1.43
		c-12.14-3.61-12.14-3.6-11.69-16.94c2.74-0.81,5.6-1.67,8.48-2.49c5.75-1.63,9.51-10.1,5.33-13.96c-2.93-2.71-8.44-4.35-12.44-3.82
		c-5.83,0.78-7.14-1.79-8.13-6.16c-0.58-2.55-1.72-5.04-1.9-7.6c-0.13-1.8,0.36-4.22,1.53-5.45c6.52-6.85,8.56-14.79,5.2-22.03
		c-3.73-8.02-10.52-11.64-20.27-11.17c-1.39,0.07-3.4-0.93-4.17-2.07c-4.39-6.53-8.78-13.09-12.5-20c-1.02-1.9-0.55-5.53,0.64-7.55
		c7.87-13.38,16.35-26.42,24.12-39.86c2.23-3.85,2.78-8.66,4.11-13.03c1.04-3.42,1.53-7.15,3.26-10.18
		c3.86-6.8,8.71-13.05,12.42-19.92c1.78-3.31,3.38-7.95,2.42-11.21c-1.38-4.68-0.43-8.2,1.62-11.92c7-12.7,13.47-25.76,21.34-37.9
		c4.59-7.09,3.13-12-1.69-17.37c15.77,0,31.55,0,47.41,0C610.21,191.91,610.21,292.6,610.21,393.29z"/>
	<path d="M267.3,676.97c-0.04,5.92-3.08,9.68-7.18,9.74c-3.89,0.05-8.61-4.63-8.67-8.61c-0.06-4.14,4.47-8.56,8.69-8.31
		C265.15,670.1,266.97,673.35,267.3,676.97z"/>
	<path class="st0" d="M127.43,292.15c-7.02-1.15-7.01-4.2-4.37-8.69c6.27-10.66,12.28-21.48,18.4-32.23c0.6,0.3,1.2,0.59,1.81,0.89
		c-2.36,7.83-4.72,15.65-7.08,23.48c0.23,0.15,0.47,0.29,0.7,0.44c3.91-5.48,7.92-10.9,11.64-16.5c0.61-0.91,0.24-2.76-0.18-4.01
		c-2.72-8.16-5.9-16.17-8.3-24.42c-2.59-8.89-4.37-18.02-6.75-26.98c-3.27-12.27-6.81-24.46-10.15-36.71
		c-0.56-2.04-0.72-4.19-1.07-6.29c0.48-0.14,0.96-0.28,1.44-0.42c3.71,9.72,7.42,19.43,11.14,29.15
		c-4.66-28.87-16.71-55.82-20.98-84.65c0.71-0.21,1.43-0.42,2.14-0.62c2.74,7.81,5.44,15.63,8.24,23.42
		c6.34,17.68,12.72,35.34,19.38,52.97c-1.54-7.48-3.09-14.96-4.63-22.45c0.5-0.18,1.01-0.35,1.51-0.53
		c5.31,12.95,10.63,25.91,15.94,38.86c0.45-0.09,0.9-0.19,1.36-0.28c-0.84-4.22-1.68-8.44-2.51-12.65c0.41-0.15,0.81-0.3,1.22-0.44
		c6.72,16.9,13.45,33.8,20.41,51.29c5.68-4.28,1.05-7.89,0.14-11.23c-1.08-3.95-3.01-7.67-4.57-11.49c0.73-0.35,1.47-0.69,2.2-1.04
		c2.9,5.72,5.8,11.44,9.01,17.76c15.75-9.27,30.18-20.75,46.38-29.14c0.37,0.58,0.75,1.16,1.12,1.74c-1.5,1.37-3.01,2.75-4.51,4.12
		c0.2,0.44,0.41,0.88,0.61,1.32c5.76-2.18,13.58-2.76,16.81-6.9c5.76-7.39,13.55-8.68,21.05-10.8c6.51-1.84,13.57-1.77,20.41-2.3
		c1.6-0.12,3.27,0.73,6.39,1.51c-2.75,1.61-4.12,2.41-5.69,3.33c0.67,0.2,1.17,0.46,1.69,0.49c0.8,0.04,1.63,0.01,2.42-0.14
		c21.55-4.09,41.99,2.45,62.49,7.06c10.13,2.28,19.7,7.02,29.56,10.52c1.64,0.58,3.49,0.55,5.25,0.81c0.16-0.49,0.32-0.98,0.48-1.47
		c-3.92-2.27-7.84-4.53-13.32-7.7c2.69-0.29,3.47-0.61,4.04-0.39c11.87,4.46,22.92,10.45,33.41,17.59
		c10.35,7.05,20.92,13.77,31.36,20.69c1.22,0.81,2.19,1.98,3.28,2.99c-0.26,0.53-0.52,1.06-0.79,1.59
		c-6.31-1.99-12.63-3.98-19.21-6.05c4.5,10.23,14.98,12.91,24.33,18.42c8.97-14.79,18.09-29.52,26.9-44.43
		c9.34-15.8,18.26-31.86,27.71-47.59c1.65-2.75,3.07-7.64,8.57-5.31c0.57,0.24,2.28-1.33,2.98-2.37
		c5.37-8.04,10.41-16.32,15.98-24.22c6.14-8.7,12.75-17.06,19.12-25.59c2.28-3.05,4.45-6.17,6.68-9.26
		c0.67,0.04,1.35,0.08,2.02,0.12c0,1.9,0.67,4.15-0.12,5.64c-3.29,6.24-7.26,12.12-10.52,18.37c-6.6,12.67-12.87,25.51-19.36,38.24
		c-1.86,3.65-3.98,7.17-5.99,10.75c0.45,0.28,0.89,0.55,1.34,0.83c2.94-4.19,5.88-8.39,8.82-12.58c0.63,0.17,1.26,0.33,1.9,0.5
		c-0.83,2.53-1.23,5.32-2.56,7.55c-7.6,12.72-15.43,25.31-22.21,38.82c1.55-1.01,3.09-2.02,4.64-3.03c0.34,0.19,0.67,0.37,1.01,0.56
		c-0.93,2.21-1.61,4.58-2.84,6.62c-10.4,17.25-20.94,34.43-31.3,51.71c-0.64,1.06-0.66,3.01-0.13,4.17
		c2.39,5.22,5.07,10.3,8.01,16.14c-2.58,5.89-6.46,1.71-15.16-9.06c-2.33,3.23-5.71,5.69-2.34,10.33c0.68,0.94-0.22,3.02-0.51,5.63
		c4.42,7.11,7.62,15.85,4.72,26.17c0.96-0.06,1.92-0.12,2.88-0.18c0.51-2.69,1.02-5.37,1.73-9.13c1.41,1.84,2.84,3.08,3.48,4.64
		c2.59,6.32,5.23,12.66,7.3,19.16c1.65,5.18,3.78,7.82,9.9,6.2c4.09-1.08,8.64-0.67,12.96-0.53c1.4,0.05,2.77,1.36,3.76,3.36
		c-6.04,1.12-12.08,2.24-18.12,3.36c0,0.49,0.01,0.97,0.01,1.46c4.55,0,9.13,0.35,13.64-0.09c5.22-0.51,10.35-1.97,15.57-2.52
		c2.68-0.28,5.56,0.22,8.19,0.95c1.07,0.3,2.41,2.19,2.33,3.25c-0.08,1.01-1.7,2.37-2.91,2.76c-8.58,2.78-17.23,5.36-25.87,7.96
		c-0.76,0.23-1.6,0.23-2.4,0.27c-3.85,0.18-8.65-1.51-8.87,5.17c-0.13,3.72-3.28,7.65,1.25,10.88c0.48,0.34,0.56,1.41,0.61,2.16
		c0.76,10.45-0.51,20.59-3.74,30.62c-2.18,6.77-3.39,13.85-5.24,21.65c8.14-2.79,5.77-11.17,9.4-16.12
		c1.43,4.76-0.25,9.74-6.86,24.71c-3.57,8.09-6.17,16.61-9.46,24.84c-3.29,8.23-6.6,16.47-10.45,24.44
		c-3.8,7.86-8.29,15.38-12.04,23.4c10.31-9.69,17.23-21.94,23.7-34.52c0.7,0.36,1.4,0.72,2.1,1.08c-2.17,4.87-4.12,9.85-6.59,14.56
		c-1.77,3.37-4.69,6.16-6.32,9.58c-5.7,11.99-16.47,19.88-24.01,30.17c-7.63,10.42-17.36,16.83-28.04,22.92
		c-3.06,1.75-8.39,3.72-4.33,9.91c-19.66,8.11-38.79,16.81-58.49,23.87c-14.2,5.09-29.19,7.95-43.78,11.99
		c-1.9,0.53-4.22,1.78-5.1,3.38c-3.5,6.37-6.47,13.04-9.75,19.54c-0.57,1.13-1.67,1.98-3.43,2.52c1.71-6.02,3.43-12.04,5.14-18.06
		c-0.5-0.15-1-0.3-1.49-0.45c-4.04,11.99-8.06,23.98-12.14,35.96c-0.84,2.48-1.65,5.05-3.01,7.24c-0.9,1.45-2.76,2.31-5.04,2.77
		c-0.85,2.33-1.69,4.67-2.54,7c-0.47-0.12-0.94-0.23-1.41-0.35c0.97-6.74,1.95-13.49,2.92-20.24c-0.5-0.06-1-0.12-1.5-0.19
		c-1.53,2.85-3.06,5.71-4.6,8.56c-0.8-0.24-1.6-0.48-2.39-0.72c0.85-3.59,1.35-7.31,2.65-10.73c1.98-5.24,3.33-11.47-1.19-14.59
		c-5.93-4.09-6.36-10.18-9.06-15.47c-0.37-0.72-1.18-1.47-1.1-2.12c1.2-9.99-6.07-10.71-13.03-13.02
		c-9.67-3.21-18.87-7.83-28.9-11.29c5.52,4.62,11.03,9.24,16.55,13.85c-0.07,0.23-0.14,0.46-0.22,0.7
		c-7.54-3.92-15.47-7.26-22.54-11.91c-9.57-6.29-18.43-13.66-27.72-20.39c-1.62-1.17-3.95-1.32-5.8-2.24
		c-3.01-1.51-6.38-2.77-8.74-5.03c-7.71-7.39-15.4-14.87-22.36-22.95c-3.39-3.94-4.98-9.39-7.71-13.97
		c-1.58-2.65-3.79-4.94-6.29-8.12c2.15-0.26,3.29-0.39,4.43-0.53c-2.21-5.52-5.47-3.58-9.64-0.88c-3.49-7.37-6.94-14.52-10.27-21.72
		c-3.21-6.95-6.39-13.92-9.43-20.94c-1.42-3.29-3.3-3.77-6.66-2.61c-3.4,1.17-7.15,1.35-10.98,0.94c5.1-6.2,15.34-3.4,18.59-13.45
		c-1.91-0.12-3.91-0.77-5.55-0.27c-12.34,3.78-24.54,8.03-36.91,11.68c-20.64,6.08-41.39,11.82-62.5,16.69
		c16.07-6.48,32.14-12.96,48.19-19.43c-2.04-3.72-2-3.51-7.18-2.62c-1.82,0.31-3.88-0.72-5.83-1.14c1.62-1.07,3.1-2.53,4.88-3.13
		c7.4-2.51,15.03-4.38,22.25-7.3c2.47-1,3.96-4.39,6.35-7.22c-2.71-3.91-6.67-1.33-10.39-0.1c-5.02,1.66-9.98,3.48-14.96,5.23
		c-0.31-0.8-0.63-1.6-0.94-2.4c6.3-2.57,12.48-5.47,18.92-7.62c8.24-2.75,16.72-4.77,25.02-7.33c6.84-2.11,9.74-9.98,6.71-16.44
		c-1.26-2.69-2.28-5.93-2.04-8.8c0.98-11.65,2.49-23.25,3.96-36.21c-1.63,2.32-2.57,3.65-3.5,4.99
		C109,340.88,111.58,314.58,127.43,292.15z M267.54,387.3c24.51-6.02,47.87-11.76,71.23-17.5c-0.13-0.58-0.25-1.16-0.38-1.73
		c-9.21,0.08-17.95,5.8-27.35,3.69c-0.13-0.75-0.26-1.49-0.39-2.24c25.2-5.82,50.4-11.64,74.08-17.11c1.13-3.42,1.85-5.59,2.57-7.75
		c1.85,1.54,3.7,3.09,5.74,4.78c0.98-11.05-6.43-20.2-9.18-30.5c0.5-0.19,1-0.38,1.49-0.57c3.63,6.21,7.27,12.42,11.56,19.76
		c1.61-17.76,3.08-34.04,4.55-50.32c0.39,0.06,0.79,0.13,1.18,0.19c1.54,14.76,3.07,29.53,4.76,45.78
		c5.72-9.82,10.5-18.16,15.45-26.41c0.88-1.46,2.18-3.06,3.68-3.7c5.87-2.52,9.79-12.98,5.67-17.51
		c-11.43-12.57-22.3-25.96-35.35-36.63c-9.77-7.99-22.52-12.41-34.12-18.06c-2.52-1.23-5.78-0.93-8.69-1.34
		c-0.14,0.67-0.27,1.34-0.41,2.02c4.39,1.93,8.69,4.14,13.2,5.75c10.83,3.86,11.97,7.37,4.57,16.24c-2.77-7.61-9.37-8.85-16.1-9.83
		c-4-0.58-8.17-0.6-11.97-1.78c-3.14-0.97-6.05-3.06-8.68-5.13c-0.87-0.68-1.12-3.12-0.58-4.25c0.37-0.76,2.74-1.12,3.99-0.79
		c3.99,1.06,7.87,2.51,11.79,3.82c0.38-0.62,0.76-1.25,1.14-1.87c-1.73-1.55-3.29-3.35-5.22-4.6c-4.56-2.95-11.33,1.23-15.16-4.52
		c-0.14-0.21-1.14,0.26-1.74,0.24c-7.06-0.16-14.22,0.32-21.16-0.67c-10.97-1.58-21.67-2.08-32.36,1.51
		c-2.62,0.88-5.6,1.04-8.39,0.97c-3.92-0.1-8.3-2.05-11.63-0.85c-7.48,2.7-14.76,6.32-21.53,10.52
		c-13.34,8.25-26.26,17.16-39.4,25.75c-0.74,0.49-1.8,0.5-2.76,0.74c-0.57-1.62-1.04-2.93-1.66-4.69c-2.19,1.8-3.84,3.16-5.52,4.55
		c12.11,28.62,23.98,56.95,32.11,86.59c-0.6,0.26-1.21,0.52-1.81,0.79c-2.08-2.7-4.16-5.39-6.24-8.09c-0.2,0.14-0.39,0.28-0.59,0.42
		c3.64,8.97,7.28,17.93,11.35,27.94c3.08-11.92,5.81-22.47,8.54-33.02c0.91,0.14,1.82,0.29,2.73,0.43
		c-1.14,9.99-2.28,19.99-3.41,29.98c0.52,0.3,1.04,0.6,1.56,0.91c1.9-1.8,3.94-3.48,5.66-5.44c1.89-2.16,3.49-4.57,5.53-7.29
		c7.52,7.47-2.18,10.86-2.61,17.13c7.13-5.92,13.47-11.19,19.82-16.45c0.69,0.58,1.38,1.16,2.07,1.74
		c-4.39,6.31-8.78,12.63-13.17,18.94c14.62-0.98,27.46-6.12,42.54-6.46C284.43,381.83,272.1,377.6,267.54,387.3z M238.3,417.03
		c7.24,18.42,14.05,35.75,20.87,53.08c0.29-0.08,0.57-0.16,0.86-0.24c-2.81-14.02-5.61-28.05-8.42-42.07
		c0.71-0.15,1.43-0.31,2.14-0.46c6.97,10.97,9.22,23.5,11.81,36.08c2.62,12.7-2.19,24.05-4.4,36.17c0.9-0.1,2.12-0.23,3.22-0.35
		c7.76,22.04,11.25,45.45,25.78,65.84c12.14-24.41,17.83-51.19,35.46-72.61c-2.34-0.43-3.5-0.65-5.08-0.94
		c15.21-34.34,34.49-65.74,56.5-97.12c-3.57,0.16-5.01,0.02-6.37,0.31c-19.97,4.2-39.91,8.48-59.89,12.65
		c-3.35,0.7-6.8,0.92-10.2,1.36c-0.05-0.58-0.11-1.16-0.16-1.73c4.31-2.29,8.61-4.59,12.92-6.88c-0.07-0.48-0.13-0.97-0.2-1.45
		c-4.65,0.68-9.29,1.35-13.94,2.03c-0.3-0.78-0.6-1.56-0.91-2.34c3.33-2.35,6.66-4.7,9.99-7.05c-0.09-0.2-0.18-0.4-0.26-0.6
		c-9.75,2.99-19.49,5.99-29.24,8.98c0.12,0.55,0.23,1.1,0.35,1.65c1.73,0.56,3.45,1.13,5.18,1.69c0.05,0.53,0.09,1.06,0.14,1.59
		C269.32,408.68,254.17,412.76,238.3,417.03z M340.54,555.72c9.27-4.39,17.23-8.19,25.21-11.95c12.89-6.08,25.89-11.93,38.64-18.28
		c8.68-4.33,14.3-11.49,17.46-21.03c-2.71,1.05-4.77,1.85-6.82,2.65c-0.44-0.57-0.88-1.13-1.32-1.7c4.88-5.73,9.6-11.62,14.68-17.16
		c8.11-8.85,19.1-15.14,23.86-26.93c2.37-5.86,4.61-11.77,6.91-17.66c-0.46-0.18-0.93-0.37-1.39-0.55
		c-3.21,5.35-6.42,10.7-9.63,16.06c-0.61-0.3-1.21-0.6-1.82-0.89c0.41-2.07,0.49-4.26,1.27-6.18c4.29-10.61,8.47-21.28,13.2-31.7
		c5.81-12.77,9.29-25.6,5.19-39.69c-1.42-4.86-1.54-10.1-2.14-14.33c-11.04,2.33-21.03,4.44-32.74,6.92
		c4.11,0.54,6.43,0.85,8.69,1.15c0.11,5.47-3.5,9.27-10.22,11.12c-10.46,2.88-10.46,2.88-11.8,13.32c-0.08,0.6-0.2,1.19-0.29,1.79
		c-0.65,4.74-0.91,9.61-6.99,11.09c-1.53,0.37-3.27,1.59-4.09,2.93c-7.8,12.69-15.41,25.5-23.1,38.26
		c-1.78,2.96-3.64,5.88-5.46,8.82c11.93-14.53,22.82-29.7,33.9-44.72c1.04-1.41,3.33-1.91,5.04-2.83c-0.15,1.76,0.24,3.82-0.55,5.23
		c-8.03,14.38-16.26,28.65-24.87,43.73c0.11,0.59,1.54,3.34,0.7,4.85c-2.66,4.82-6.01,9.31-9.48,13.62
		c-0.7,0.87-3.06,0.39-4.66,0.54c0.06-1.59-0.44-3.51,0.27-4.71c2.48-4.17,5.38-8.1,8.12-12.12c-0.42-0.34-0.83-0.68-1.25-1.02
		c-1.77,1.99-3.82,3.79-5.24,6c-2.32,3.64-2.47,9.31-9.08,8.55c-0.64-0.07-1.82,1.6-2.21,2.67c-2.28,6.28-4.4,12.62-7.12,20.54
		c3.59-3.18,5.86-5.19,8.13-7.2c0.45,0.34,0.89,0.68,1.34,1.01c-1.46,2.44-2.81,4.95-4.41,7.29c-9.58,13.98-19.6,27.67-28.64,41.99
		c-3.34,5.29-4.43,12-7.01,19.41c6.2-2.65,10.77-4.61,15.76-6.74C344.59,557.14,343.17,556.64,340.54,555.72z M246.91,552.4
		c0.62-0.64,1.24-1.28,1.86-1.92c-2.96-7.63-6.04-15.22-8.84-22.91c-4.96-13.6-9.81-27.24-14.6-40.89
		c-1.77-5.05-3.05-10.27-4.89-15.29c-3.81-10.43-7.85-20.77-11.79-31.15c-0.63,0.15-1.27,0.3-1.9,0.46
		c-6.13,11.78-12.25,23.57-18.97,36.48c-2.87-5.55,4.75-11.15-3.39-13.59c4.41-9.33,8.61-18.21,13.22-27.95
		c-17.71,2.21-32.47,13.45-50.62,11.38c1.47,4.08,2.88,7.99,3.63,10.08c2.95,2.13,5.2,2.9,5.93,4.41
		c5.17,10.7,9.71,21.71,15.12,32.27c2.71,5.28,3.96,12.98,12.9,11.96c0.52-0.06,1.21,0.33,1.64,0.72
		c8.88,7.93,17.98,15.64,26.48,23.96c3.05,2.99,4.78,6.83,10.16,5.12c1.08-0.34,2.95,1.46,4.32,2.45
		C233.79,542.75,240.34,547.59,246.91,552.4z M185.71,380.77c4.85-6.68,0.31-13.4-2.73-20.37c-2.34-5.35-4.79-10.72-6.37-16.31
		c-1.03-3.66-0.14-7.81-0.88-11.59c-1.05-5.3-2.84-10.44-4.29-15.66c-2.34-8.4-3.74-17.21-10.44-24.6
		c-4.59,7.59-8.91,14.74-13.22,21.89c0.29,0.2,0.59,0.4,0.88,0.59c1.01-0.68,2.02-1.36,4.49-3.03
		c-1.86,15.69-15.46,25.81-14.08,40.9c2.98-5.98,5.96-11.95,9.56-19.16c0,4.99,0.76,8.94-0.16,12.46
		c-1.86,7.13-6.23,13.92-6.69,21.04c-0.98,15.1-0.12,30.33,0,46.69c10.27-3.27,18.61-5.92,26.95-8.58
		c-8.33-2.41-14.62,5.62-23.03,2.17c3.53-2.25,7.39-3.36,11.17-4.67c2.59-0.89,5.19-1.87,7.62-3.14c3.01-1.57,5.71-3.75,8.78-5.18
		c2.58-1.2,5.49-1.71,6.63-2.05c-1.17-4.86-2.15-8.92-3.12-12.97C179.7,379.72,182.63,380.23,185.71,380.77z M307.07,386.23
		c-0.1-0.75-0.19-1.51-0.29-2.26c-6.4,1.14-13.27,1.17-19.09,3.65c-10.77,4.6-20.68,11.22-32.76,12.39
		c-0.29,0.03-0.51,0.8-1.57,2.59c6.48-1.36,11.86-2.21,17.06-3.68c3-0.85,5.59-3.05,8.57-4.03
		C288.3,391.85,297.71,389.1,307.07,386.23z M456.53,314.35c-0.54,0-1.09,0-1.63,0c-2.83,6.26-5.66,12.52-8.96,19.84
		c6.54-1.35,11.74-2.41,17.71-3.64C461.08,324.71,458.81,319.53,456.53,314.35z"/>
	<path class="st0" d="M137.99,514.79c9.1,11.77,17.73,22.95,26.88,34.8C151,546.33,136.97,528.16,137.99,514.79z"/>
	<path class="st0" d="M510.18,419.72c1.08-14.11,2.09-27.94,3.29-41.74c0.12-1.43,1.42-2.76,2.17-4.14c0.73,1.42,2.04,2.82,2.1,4.27
		C518.32,392.4,518.45,406.66,510.18,419.72z"/>
	<path class="st0" d="M265.79,633.87c0,6.59,0.12,13.19-0.13,19.77c-0.04,0.94-2.04,2.68-2.79,2.51c-1.32-0.3-3.23-1.65-3.4-2.78
		c-1.04-6.97-0.58-13.76,3.5-19.69C263.91,633.74,264.85,633.8,265.79,633.87z"/>
	<path class="st0" d="M507.09,425.36c-0.97,5.1-1.95,10.2-2.92,15.29c-0.84-0.16-1.68-0.31-2.51-0.47
		c1.04-5.08,2.07-10.17,3.11-15.25C505.54,425.07,506.32,425.21,507.09,425.36z"/>
	<path d="M267.54,387.3c4.55-9.7,16.88-5.47,20.99-15.92c-15.08,0.35-27.92,5.48-42.54,6.46c4.39-6.31,8.78-12.63,13.17-18.94
		c-0.69-0.58-1.38-1.16-2.07-1.74c-6.34,5.27-12.69,10.53-19.82,16.45c0.43-6.27,10.14-9.66,2.61-17.13
		c-2.04,2.72-3.64,5.13-5.53,7.29c-1.72,1.96-3.76,3.64-5.66,5.44c-0.52-0.3-1.04-0.6-1.56-0.91c1.14-9.99,2.28-19.99,3.41-29.98
		c-0.91-0.14-1.82-0.29-2.73-0.43c-2.73,10.55-5.46,21.09-8.54,33.02c-4.06-10-7.7-18.97-11.35-27.94c0.2-0.14,0.39-0.28,0.59-0.42
		c2.08,2.7,4.16,5.39,6.24,8.09c0.6-0.26,1.21-0.52,1.81-0.79c-8.13-29.64-20.01-57.97-32.11-86.59c1.68-1.38,3.33-2.75,5.52-4.55
		c0.62,1.75,1.08,3.06,1.66,4.69c0.96-0.24,2.02-0.25,2.76-0.74c13.13-8.59,26.06-17.5,39.4-25.75c6.77-4.19,14.05-7.82,21.53-10.52
		c3.33-1.2,7.72,0.75,11.63,0.85c2.8,0.07,5.77-0.09,8.39-0.97c10.69-3.59,21.39-3.08,32.36-1.51c6.94,1,14.1,0.52,21.16,0.67
		c0.6,0.01,1.6-0.45,1.74-0.24c3.83,5.75,10.61,1.57,15.16,4.52c1.92,1.25,3.49,3.05,5.22,4.6c-0.38,0.62-0.76,1.25-1.14,1.87
		c-3.92-1.3-7.8-2.76-11.79-3.82c-1.25-0.33-3.62,0.03-3.99,0.79c-0.54,1.12-0.28,3.57,0.58,4.25c2.63,2.07,5.54,4.15,8.68,5.13
		c3.81,1.18,7.97,1.2,11.97,1.78c6.73,0.97,13.32,2.21,16.1,9.83c7.4-8.87,6.26-12.38-4.57-16.24c-4.51-1.61-8.81-3.81-13.2-5.75
		c0.14-0.67,0.27-1.34,0.41-2.02c2.92,0.41,6.18,0.11,8.69,1.34c11.6,5.65,24.35,10.07,34.12,18.06
		c13.06,10.67,23.92,24.06,35.35,36.63c4.12,4.53,0.2,14.99-5.67,17.51c-1.49,0.64-2.8,2.24-3.68,3.7
		c-4.94,8.25-9.73,16.59-15.45,26.41c-1.69-16.25-3.23-31.01-4.76-45.78c-0.39-0.06-0.79-0.13-1.18-0.19
		c-1.47,16.28-2.95,32.57-4.55,50.32c-4.29-7.34-7.93-13.55-11.56-19.76c-0.5,0.19-1,0.38-1.49,0.57
		c2.76,10.3,10.17,19.45,9.18,30.5c-2.04-1.7-3.89-3.24-5.74-4.78c-0.72,2.17-1.44,4.33-2.57,7.75
		c-23.68,5.47-48.88,11.29-74.08,17.11c0.13,0.75,0.26,1.49,0.39,2.24c9.4,2.11,18.14-3.6,27.35-3.69c0.13,0.58,0.25,1.16,0.38,1.73
		C315.41,375.54,292.05,381.28,267.54,387.3z M197.29,269.81c-0.83,0.68-1.66,1.35-2.5,2.03c4.16,13.99,8.28,27.98,12.55,41.94
		c0.26,0.86,1.71,1.95,2.52,1.89c0.94-0.07,2.26-1.14,2.58-2.06c0.5-1.46,0.74-3.28,0.34-4.74c-3.28-11.77-6.58-23.55-10.31-35.18
		C201.93,272.01,199.07,271.08,197.29,269.81z"/>
	<path d="M238.3,417.03c15.87-4.27,31.02-8.34,46.16-12.42c-0.05-0.53-0.09-1.06-0.14-1.59c-1.73-0.56-3.45-1.13-5.18-1.69
		c-0.12-0.55-0.23-1.1-0.35-1.65c9.75-2.99,19.49-5.99,29.24-8.98c0.09,0.2,0.18,0.4,0.26,0.6c-3.33,2.35-6.66,4.7-9.99,7.05
		c0.3,0.78,0.6,1.56,0.91,2.34c4.65-0.68,9.29-1.35,13.94-2.03c0.07,0.48,0.13,0.97,0.2,1.45c-4.31,2.29-8.61,4.59-12.92,6.88
		c0.05,0.58,0.11,1.16,0.16,1.73c3.4-0.44,6.85-0.67,10.2-1.36c19.97-4.17,39.92-8.45,59.89-12.65c1.36-0.29,2.8-0.15,6.37-0.31
		c-22.02,31.38-41.29,62.78-56.5,97.12c1.57,0.29,2.74,0.51,5.08,0.94c-17.63,21.42-23.32,48.2-35.46,72.61
		c-14.52-20.38-18.01-43.79-25.78-65.84c-1.1,0.12-2.33,0.25-3.22,0.35c2.21-12.13,7.02-23.47,4.4-36.17
		c-2.59-12.57-4.84-25.11-11.81-36.08c-0.71,0.15-1.43,0.31-2.14,0.46c2.81,14.02,5.61,28.05,8.42,42.07
		c-0.29,0.08-0.57,0.16-0.86,0.24C252.35,452.78,245.54,435.45,238.3,417.03z"/>
	<path d="M340.54,555.72c2.63,0.93,4.05,1.42,6.07,2.14c-4.99,2.14-9.56,4.09-15.76,6.74c2.58-7.4,3.67-14.11,7.01-19.41
		c9.04-14.31,19.06-28.01,28.64-41.99c1.6-2.34,2.95-4.86,4.41-7.29c-0.45-0.34-0.89-0.68-1.34-1.01c-2.27,2.01-4.54,4.02-8.13,7.2
		c2.72-7.93,4.84-14.26,7.12-20.54c0.39-1.06,1.56-2.74,2.21-2.67c6.61,0.76,6.75-4.92,9.08-8.55c1.41-2.21,3.47-4.01,5.24-6
		c0.42,0.34,0.83,0.68,1.25,1.02c-2.74,4.02-5.64,7.95-8.12,12.12c-0.71,1.2-0.22,3.12-0.27,4.71c1.6-0.14,3.96,0.33,4.66-0.54
		c3.46-4.31,6.81-8.79,9.48-13.62c0.83-1.51-0.6-4.26-0.7-4.85c8.61-15.08,16.84-29.35,24.87-43.73c0.79-1.41,0.39-3.47,0.55-5.23
		c-1.71,0.92-3.99,1.42-5.04,2.83c-11.08,15.02-21.97,30.19-33.9,44.72c1.82-2.94,3.67-5.86,5.46-8.82
		c7.69-12.76,15.3-25.57,23.1-38.26c0.82-1.33,2.56-2.55,4.09-2.93c6.08-1.48,6.34-6.35,6.99-11.09c0.08-0.6,0.21-1.19,0.29-1.79
		c1.34-10.43,1.33-10.43,11.8-13.32c6.71-1.85,10.32-5.65,10.22-11.12c-2.26-0.3-4.58-0.6-8.69-1.15
		c11.71-2.47,21.7-4.58,32.74-6.92c0.6,4.23,0.72,9.47,2.14,14.33c4.1,14.09,0.62,26.92-5.19,39.69
		c-4.74,10.42-8.92,21.08-13.2,31.7c-0.77,1.92-0.86,4.11-1.27,6.18c0.61,0.3,1.21,0.6,1.82,0.89c3.21-5.35,6.42-10.7,9.63-16.06
		c0.46,0.18,0.93,0.37,1.39,0.55c-2.3,5.89-4.54,11.8-6.91,17.66c-4.76,11.79-15.75,18.09-23.86,26.93
		c-5.08,5.55-9.8,11.43-14.68,17.16c0.44,0.57,0.88,1.13,1.32,1.7c2.06-0.8,4.11-1.6,6.82-2.65c-3.16,9.55-8.78,16.71-17.46,21.03
		c-12.75,6.36-25.75,12.2-38.64,18.28C357.77,547.53,349.8,551.32,340.54,555.72z"/>
	<path d="M246.91,552.4c-6.57-4.81-13.12-9.65-19.72-14.42c-1.37-0.99-3.25-2.8-4.32-2.45c-5.38,1.71-7.11-2.13-10.16-5.12
		c-8.49-8.33-17.59-16.04-26.48-23.96c-0.43-0.38-1.12-0.78-1.64-0.72c-8.94,1.02-10.19-6.67-12.9-11.96
		c-5.41-10.56-9.95-21.57-15.12-32.27c-0.73-1.51-2.98-2.28-5.93-4.41c-0.75-2.09-2.16-6-3.63-10.08
		c18.14,2.07,32.91-9.17,50.62-11.38c-4.61,9.74-8.81,18.62-13.22,27.95c8.13,2.44,0.51,8.04,3.39,13.59
		c6.71-12.92,12.84-24.7,18.97-36.48c0.63-0.15,1.27-0.3,1.9-0.46c3.94,10.38,7.98,20.73,11.79,31.15
		c1.84,5.02,3.12,10.24,4.89,15.29c4.79,13.66,9.63,27.3,14.6,40.89c2.81,7.69,5.89,15.28,8.84,22.91
		C248.15,551.12,247.53,551.76,246.91,552.4z"/>
	<path d="M185.71,380.77c-3.08-0.54-6.02-1.05-8.95-1.56c0.98,4.06,1.95,8.11,3.12,12.97c-1.14,0.34-4.04,0.85-6.63,2.05
		c-3.06,1.43-5.77,3.6-8.78,5.18c-2.42,1.27-5.02,2.25-7.62,3.14c-3.79,1.3-7.64,2.41-11.17,4.67c8.41,3.45,14.7-4.58,23.03-2.17
		c-8.34,2.65-16.68,5.31-26.95,8.58c-0.12-16.36-0.98-31.58,0-46.69c0.46-7.12,4.83-13.91,6.69-21.04
		c0.92-3.52,0.16-7.47,0.16-12.46c-3.6,7.21-6.58,13.18-9.56,19.16c-1.38-15.09,12.22-25.21,14.08-40.9
		c-2.47,1.67-3.48,2.35-4.49,3.03c-0.29-0.2-0.59-0.4-0.88-0.59c4.32-7.15,8.64-14.29,13.22-21.89c6.7,7.39,8.09,16.2,10.44,24.6
		c1.46,5.22,3.24,10.37,4.29,15.66c0.75,3.78-0.14,7.94,0.88,11.59c1.57,5.59,4.03,10.96,6.37,16.31
		C186.03,367.38,190.57,374.09,185.71,380.77z"/>
	<path d="M307.07,386.23c-9.37,2.87-18.77,5.62-28.07,8.67c-2.98,0.98-5.57,3.18-8.57,4.03c-5.2,1.47-10.58,2.32-17.06,3.68
		c1.06-1.79,1.28-2.56,1.57-2.59c12.07-1.17,21.99-7.8,32.76-12.39c5.82-2.48,12.69-2.52,19.09-3.65
		C306.88,384.72,306.98,385.48,307.07,386.23z"/>
	<path d="M456.53,314.35c2.27,5.18,4.55,10.36,7.11,16.2c-5.97,1.23-11.17,2.3-17.71,3.64c3.3-7.32,6.13-13.58,8.96-19.84
		C455.44,314.35,455.99,314.35,456.53,314.35z"/>
	<path class="st0" d="M197.29,269.81c1.78,1.27,4.64,2.2,5.18,3.88c3.73,11.63,7.03,23.41,10.31,35.18
		c0.41,1.46,0.17,3.28-0.34,4.74c-0.32,0.92-1.64,1.99-2.58,2.06c-0.82,0.06-2.26-1.03-2.52-1.89
		c-4.27-13.95-8.39-27.95-12.55-41.94C195.62,271.16,196.46,270.49,197.29,269.81z"/>
</g>
</svg>
