<?xml version="1.0" encoding="utf-8"?>
<!-- Generator: Adobe Illustrator 24.3.0, SVG Export Plug-In . SVG Version: 6.00 Build 0)  -->
<svg version="1.1" id="Layer_1" xmlns="http://www.w3.org/2000/svg" xmlns:xlink="http://www.w3.org/1999/xlink" x="0px" y="0px"
	 viewBox="0 0 612 792" style="enable-background:new 0 0 612 792;" xml:space="preserve">
<style type="text/css">
	.st0{fill:#FFFFFF;}
</style>
<g>
	<path d="M287,646c-9.67,0-19.33,0-29,0c-4.26-0.6-8.51-1.26-12.77-1.78C153.9,633.08,78.67,564.27,59.84,474.44
		c-2.11-10.05-3.25-20.31-4.84-30.47c0-9.67,0-19.34,0-29c1.53-9.85,2.58-19.81,4.67-29.54
		c32.46-151.39,206.96-221.59,336.55-134.24c1.44,0.97,2.92,1.87,4.38,2.8c0.2-0.26,0.39-0.51,0.59-0.77
		c-33.9-35.09-67.8-70.17-102.71-106.3c87.18,2.7,172.85,5.35,258.52,8c0,86.35,0,172.7,0,259.04c-1.22-1.12-2.5-2.17-3.65-3.36
		c-31.98-33.06-63.95-66.14-95.93-99.21c-1.12-1.16-2.3-2.25-3.45-3.37c0.52,2.15,1.54,3.67,2.51,5.22
		c27.05,43.01,38.39,89.77,32.67,140.32c-10.52,93.11-79.31,168.44-171.12,187.6C307.8,643.3,297.35,644.41,287,646z M145.98,302.66
		c-42.24,40.27-67.37,109.79-45.87,180.08c21.61,70.67,83.96,120.66,157.19,126.79c25.94,2.17,51.23-1.05,75.74-9.83
		c24.51-8.78,46.13-22.17,64.28-41.4c-84.34-1.09-168.68-2.17-253.54-3.27C144.51,470.84,145.24,387.27,145.98,302.66z
		 M399.3,303.24c-28.55-30.32-80.71-57.14-141.97-52.32c-38.57,3.04-96.24,29.05-108.77,50.08
		C231.96,301.75,315.14,302.49,399.3,303.24z M404.11,551.08c0.61,0.1,1.21,0.2,1.82,0.29c36.36-41.96,51.91-90.44,44.92-145.9
		c-4.41-34.99-30.35-88.06-46.74-96.77C404.11,389.34,404.11,470.21,404.11,551.08z"/>
	<path class="st0" d="M557,154.92c-85.67-2.65-171.34-5.3-258.52-8c34.91,36.13,68.81,71.21,102.71,106.3
		c-0.2,0.26-0.39,0.51-0.59,0.77c-1.46-0.93-2.94-1.83-4.38-2.8c-129.59-87.35-304.1-17.15-336.55,134.24
		c-2.09,9.73-3.14,19.69-4.67,29.54c0-89.62,0-179.25,0-268.96c167.33,0,334.67,0,502,0C557,148.92,557,151.92,557,154.92z"/>
	<path class="st0" d="M287,646c10.35-1.59,20.8-2.7,31.04-4.84c91.81-19.16,160.6-94.49,171.12-187.6
		c5.71-50.56-5.63-97.31-32.67-140.32c-0.97-1.55-1.99-3.07-2.51-5.22c1.15,1.12,2.33,2.21,3.45,3.37
		c31.98,33.07,63.94,66.15,95.93,99.21c1.15,1.19,2.43,2.24,3.65,3.36c0,77.27,0,154.54,0,232.04C467,646,377,646,287,646z"/>
	<path class="st0" d="M55,443.97c1.59,10.16,2.74,20.42,4.84,30.47c18.83,89.84,94.06,158.64,185.38,169.78
		c4.27,0.52,8.52,1.18,12.77,1.78c-67.67,0-135.33,0-203,0C55,578.66,55,511.31,55,443.97z"/>
	<path class="st0" d="M145.98,302.66c-0.74,84.61-1.47,168.18-2.2,252.37c84.86,1.09,169.2,2.18,253.54,3.27
		c-18.15,19.24-39.77,32.62-64.28,41.4c-24.51,8.78-49.8,12-75.74,9.83c-73.23-6.12-135.57-56.12-157.19-126.79
		C78.61,412.45,103.73,342.93,145.98,302.66z"/>
	<path class="st0" d="M399.3,303.24c-84.16-0.75-167.34-1.49-250.74-2.24c12.53-21.02,70.2-47.04,108.77-50.08
		C318.59,246.1,370.75,272.92,399.3,303.24z"/>
	<path class="st0" d="M404.11,551.08c0-80.87,0-161.74,0-242.37c16.39,8.71,42.33,61.78,46.74,96.77
		c6.98,55.45-8.57,103.94-44.92,145.9C405.32,551.27,404.72,551.17,404.11,551.08z"/>
</g>
</svg>
