<?xml version="1.0" encoding="utf-8"?>
<!-- Generator: Adobe Illustrator 24.3.0, SVG Export Plug-In . SVG Version: 6.00 Build 0)  -->
<svg version="1.1" id="Layer_1" xmlns="http://www.w3.org/2000/svg" xmlns:xlink="http://www.w3.org/1999/xlink" x="0px" y="0px"
	 viewBox="0 0 612 792" style="enable-background:new 0 0 612 792;" xml:space="preserve">
<style type="text/css">
	.st0{fill:#FFFFFF;}
</style>
<g>
	<path d="M415.2,96c42.4,0,84.8,0,127.2,0c6.93,0.43,13.85,1.04,20.78,1.26c14.18,0.44,28.37,0.69,42.56,0.99
		c2.97,0.06,4.85,0.73,4.84,4.42c-0.03,11.58,0.54,23.17,0.35,34.75c-0.67,41.16-1.71,82.31-2.33,123.47
		c-0.59,39.36-0.79,78.72-1.25,118.09c-0.33,28.37-0.76,56.74-1.2,85.11c-0.52,33.18-1.29,66.35-1.59,99.53
		c-0.27,29.57,0,59.14-0.11,88.71c-0.04,12.38-0.47,24.75-0.67,37.13c-0.06,3.58-1.78,4.63-5.27,4.66
		c-15.19,0.13-30.37,0.83-45.56,0.79c-103.97-0.28-207.94-0.79-311.91-1.02c-40.74-0.09-81.48,0.64-122.22,0.5
		c-29.78-0.1-59.55-1.05-89.32-1.55c-8.15-0.14-16.3-0.02-25.26-0.02c-0.82-7.83-2.15-14.74-2.17-21.66
		c-0.06-31.39,0.39-62.78,0.4-94.18c0.02-55.79-0.08-111.58-0.23-167.36c-0.17-60.58-0.49-121.16-0.69-181.74
		c-0.13-40.58-0.17-81.15-0.24-121.73c-0.01-8.69,0.14-8.84,8.64-8.85c84.37-0.08,168.74-0.14,253.12-0.25
		c48.99-0.06,97.98-0.17,146.97-0.31C411.75,96.74,413.48,96.26,415.2,96z M552.09,346.11c-2.07,1.06-4.15,2.13-6.22,3.19
		c0.05,0.39,0.1,0.77,0.15,1.16c8.3,0,16.6,0,24.91,0c-3.53-1.29-7.13-0.89-10.6-1.41c-2.84-0.42-5.51-1.92-8.26-2.94
		c3.81-0.34,7.7-1.31,11.43-0.9c8.31,0.91,8.41,1.08,9.58-8.03c-0.83,0.28-2.02,0.39-2.09,0.73c-0.93,4.59-4.18,5.01-8.02,4.91
		c-3.97-0.1-7.95,0.16-11.93,0.21c-3.3,0.04-6.6,0.01-9.91,0.01c0.01,0.62,0.01,1.24,0.02,1.87
		C544.8,345.32,548.45,345.71,552.09,346.11z M560.15,670.32c6.83-0.37,13.67-0.75,20.78-1.14c0-28.17-0.09-55.93,0.03-83.68
		c0.08-19.34,0.39-38.67,0.71-58.01c0.73-43.27,1.54-86.54,2.32-129.8c-2.13,43.54-3.25,87.1-3.8,130.67
		c-0.49,38.55-0.31,77.11-0.53,115.66c-0.04,6.37-0.75,12.74-0.9,19.11c-0.1,4.44-2.41,5.68-6.45,5.81
		C568.26,669.07,564.24,669.85,560.15,670.32c-14.96,0-29.92,0-44.89,0C530.22,670.32,545.18,670.32,560.15,670.32z M294.88,469.18
		c-0.86,0.05-1.72,0.1-2.58,0.15c-5.42-8.03-12.2-15.47-16-24.2c-8.99-20.68-9.05-42.36-3.06-63.98
		c14.2-51.3,64.17-69.71,106.78-50.98c27.23,11.98,44.77,34.74,52.74,63.29c9.21,32.96,8.82,66.24-1.53,99.23
		c-11.85,37.78-36.35,64.7-72.1,80.07c-32.44,13.95-66.57,15.07-101.04,6.3c-42.99-10.94-73.56-37.78-94.8-75.31
		c-29.03-51.29-32.6-106.97-21.87-163.47c9.83-51.79,38.98-92.02,81.66-122.56c31.92-22.84,67.22-32.61,106.37-27.1
		c35.56,5,66.5,20.84,95.14,41.52c13.24,9.55,25.85,20.04,38.23,30.7c13.46,11.59,26.72,23.48,39.33,35.99
		c9.11,9.03,19.41,15.17,31.73,18.09c14.42,3.42,25.55-2.31,33.98-13.52c7.65-10.18,4.62-21.07-0.28-31.19
		c-5.28-10.91-15.95-15.34-27.64-12.62c-7.63,1.77-12.02-0.01-15.06-7.11c-3.61-8.42-7.09-16.94-9.8-25.67
		c-7.84-25.3-11.02-51.49-13.88-77.71c-0.83-7.6-1.3-15.25-1.93-22.87c-0.56-0.19-1.12-0.37-1.68-0.56
		c-1.6,2.08-3.08,4.26-4.83,6.21c-4.46,4.99-8.35,10.86-13.7,14.62c-16.7,11.74-36.09,12.57-55.7,12.31
		c-19.03-0.26-36.93-5.65-55-10.68c-31.19-8.68-63.04-12.88-95.39-11.07c-38.65,2.16-75.5,11.6-110.47,28.67
		c-25.04,12.23-47.49,28.06-67.4,47.21c-22.7,21.84-39.73,48.11-51.47,77.18c-11.04,27.33-20.07,55.49-29.47,83.46
		c-2.61,7.77-5.34,16.33-4.66,24.24c2.39,27.94,11.95,53.97,24.21,79.07c19.68,40.29,42.71,77.99,78.77,106.21
		c17.08,13.37,35.32,24.72,55.08,33.48c33.44,14.83,68.51,22.43,105.16,23.04c34.76,0.59,68.41-4.37,100.68-17.77
		c22.69-9.42,43.29-22.15,61.62-38.45c4.13-3.67,6.27-2.49,9.01,1.29c5.42,7.48,12.58,12.94,21.52,15.36
		c22.05,5.97,42.18-2.04,55.36-20.74c19.53-27.71,28.23-58.96,29.8-92.21c1.62-34.28-3.83-67.63-16.57-99.7
		c-11.69-29.43-29.47-54.08-55.1-72.99c-23.82-17.57-50.42-29.09-78.86-36.48c-10.4-2.7-21.11-5.54-31.73-5.75
		c-32.05-0.64-62.4,7.37-91.48,20.71c-22.98,10.54-44.07,24.17-64.63,38.69c-9.45,6.67-18.67,13.68-27.7,20.91
		c-2.2,1.76-4.74,5.2-4.44,7.52c0.51,3.92,2.91,7.7,4.96,11.29c10.38,18.19,21.21,36.12,31.29,54.47
		c14.23,25.9,28.09,51.91,48.89,73.52c9.71,10.08,20.85,16.57,34.43,19.04c27.47,5.01,49.18-4.06,61.9-25.7
		c8.15-13.87,5.35-34.14-5.87-44c-18.18-15.98-48.79-11.24-56.86,13.74C298.09,464.82,296.24,466.92,294.88,469.18z M593.67,114.62
		c0.12,2.25,0.3,3.83,0.27,5.4c-0.75,43.36-1.52,86.72-2.29,130.07c-0.16,8.77-0.03,17.34,2.67,26.01
		c3.58,11.5,4.75,23.36,0.51,35.31c-2.02,5.69-3.16,11.81-3.77,17.84c-0.69,6.92-0.36,13.94-0.46,20.92
		c-0.88,61.35-1.85,122.7-2.58,184.05c-0.34,28.58-0.12,57.16-0.3,85.74c-0.09,14.58-0.79,29.17-0.67,43.74
		c0.1,13.11-0.6,14.23-14.16,14.23c-17.37,0.01-34.74-0.24-52.11-0.18c-50.58,0.16-101.15,0.65-151.73,0.55
		c-48.77-0.1-97.54-1.02-146.31-1.14c-65.76-0.17-131.53,0.08-197.29,0.15c-5.97,0.01-8.29-2.25-8.36-8.15
		c-0.11-8.99-0.17-17.98-0.23-26.96c-0.41-61.97-0.59-123.95-1.46-185.92c-0.12-8.63-3.65-17.21-5.6-25.81
		c-0.82,0.1-1.64,0.2-2.46,0.3c0,15.56-0.03,31.12,0.01,46.67c0.07,33.77,0.41,67.54,0.2,101.31c-0.2,31.97-0.84,63.94-1.56,95.91
		C5.74,684.89,8.6,688.6,18.8,688.64c10.95,0.05,21.91-0.26,32.86-0.22c27.39,0.11,54.77,0.38,82.16,0.48
		c68.38,0.26,136.77,0.61,205.15,0.66c62.99,0.05,125.97-0.22,188.96-0.41c20.99-0.06,41.99-0.28,62.98-0.51
		c7.17-0.08,7.76-0.8,7.78-7.98c0.08-29.98-0.04-59.96,0.27-89.94c0.45-42.76,1.21-85.52,1.85-128.28
		c0.8-53.76,1.48-107.52,2.44-161.28c0.72-40.35,1.98-80.69,2.66-121.05c0.4-23.76,0.08-47.54,0.23-71.3
		c0.03-4.57-1.47-6.19-6.26-6.1c-11.17,0.23-22.35-0.23-33.52-0.31c-55.14-0.42-110.29-1.04-165.43-1.13
		c-53.98-0.09-107.97,0.33-161.96,0.63c-39.17,0.22-78.34,0.69-117.51,0.9C85.47,103,49.48,103,13.48,103.08
		c-2.31,0.01-4.62,0-7.35,0c0,3.24-0.01,5.61,0,7.98c0.23,54.58,0.54,109.17,0.67,163.75c0.06,22.99-0.46,45.98-0.29,68.97
		c0.06,7.89,1.43,15.77,2.2,23.65c0.71,0.05,1.43,0.1,2.14,0.15c1.66-7.7,4.33-15.34,4.77-23.11c0.99-17.54,1.12-35.15,1.18-52.73
		c0.14-41.59,0.03-83.18,0.06-124.77c0.01-14.8,0.09-29.59,0.23-44.39c0.08-8.28,2.58-10.79,10.65-10.68
		c13.39,0.17,26.78,0.71,40.16,0.67c33.95-0.1,67.89-0.54,101.83-0.67c44.77-0.17,89.55-0.37,134.32-0.2
		c87.57,0.33,175.15,0.87,262.72,1.44C575.69,113.19,584.6,114.1,593.67,114.62z M199.74,529.1c-0.42,0.24-0.83,0.49-1.25,0.73
		c-1.02-0.81-2.47-1.4-3.01-2.45c-4.45-8.67-9.89-17.05-12.81-26.23c-5.6-17.6-2.63-35.6,0.12-53.44
		c1.39-8.99,2.48-18.03,3.84-28.07c-2.57,0.75-4.94,0.93-5.07,1.57c-1.42,6.91-6.32,8.4-11.86,7.77c1.61,7.74,3.3,14.89,4.5,22.13
		c0.65,3.9-0.89,7.02-5.63,8.07c-7.67-12.12-8.94-25.62-8.08-39.22c0.85-13.47,3.02-26.86,4.64-40.49c-1.17-0.23-2.61-0.52-4.5-0.89
		c1.07-8.26,1.73-16.23,3.19-24.04c2.2-11.77,11.65-18.12,19.9-25.31c6.65-5.8,14.37-10.8,17.08-21.95
		c-4.71,1.41-8.15,2.72-11.71,3.38c-1.64,0.3-3.51-0.68-5.27-1.08c0.64-1.84,0.75-4.61,2.02-5.35c4.96-2.85,10.1-5.67,15.53-7.31
		c4.74-1.43,9.61-1.09,13.43,3.73c1.57,1.98,5.36,3.24,8.03,3.07c6.04-0.38,12-1.85,18.12-2.9c-1.4-4.4-2.54-8-3.96-12.5
		c16.7,4.73,25.65,1.56,36.25-11.74c-6.24-6-11.46-6.33-21.28-1.73c-1.42,0.67-3.41,0.13-5.14,0.15c0.13-1.81-0.12-3.76,0.5-5.39
		c0.84-2.2,2.35-4.16,4.05-7.03c-9.65,0.78-18.4-2.06-25.8,4.93c-2.7,2.55-7.23,2.27-9.3-1.7c-1.86-3.56,0.22-6.47,3.4-8.53
		c13.69-8.89,28.18-10.13,43.37-4.51c7.87,2.91,8.58,2.33,7.92-6.06c-0.12-1.58,0.64-3.23,0.99-4.85c2.02,0.47,4.29,0.54,5.99,1.55
		c1.39,0.84,2.47,2.68,3.06,4.3c2.17,6,4.97,10.57,12.56,10.63c2.8,0.02,5.63,2.71,8.36,4.32c2.73,1.6,5.36,3.38,8.02,5.07
		c7.62-6.06,4.34-14.47,5.28-22.77c4.76,2.19,8.77,4.23,12.94,5.91c4.88,1.97,8.43-0.73,10.32-4.63c0.67-1.38-1.74-4.38-2.96-6.52
		c-0.72-1.26-1.87-2.28-2.76-3.32c3.44-3.99,10.58-2.24,11.42-7.69c-5.22-2.59-10.34-4.26-14.35-7.36c-4.5-3.47-7.14-2.7-10.44,1.28
		c-3.42,4.12-11.54,4.85-15.81,1.54c-1.52-1.18-3.34-3.69-3.01-5.12c0.45-1.9,2.62-4.25,4.51-4.78c3.98-1.13,8.25-1.61,12.41-1.64
		c23.53-0.17,45.09,8.06,66.47,16.45c14.6,5.73,27.03,14.55,33.99,29.46c0.63,1.35,2.44,2.15,3.71,3.21
		c1.16-1.45,2.67-2.74,3.42-4.38c2.43-5.31,3.89-5.8,8.27-2.24c3.09,2.5,6.16,5.03,9.24,7.54c20.59,16.76,41.09,33.63,61.8,50.24
		c11.03,8.85,22.04,17.83,36.33,21.27c15.71,3.79,35.34-2.81,43.42-14.88c9.17-13.69,9.03-36.59,0.08-49.42
		c-6.22-8.91-14.89-14.69-24.63-18.21c-9.84-3.55-13.1-10.32-12.86-19.58c0.15-5.74,0.58-11.75,2.48-17.07
		c1.22-3.4,5.03-6.26,8.3-8.42c2.3-1.52,5.65-1.44,8.69-2.11c0.98-5.03-0.14-8.47-5.29-11.09c-3.2-1.63-5.43-5.37-7.72-8.45
		c-1.41-1.9-2.11-4.32-3.82-7.99c-4.69,9.31-8.55,16.97-12.68,25.17c-1.15-1.48-1.74-1.89-1.8-2.38
		c-1.89-14.21-4.52-28.38-5.18-42.65c-0.26-5.62,3.25-11.8,6.22-17.06c2.23-3.95,9.21-4.19,13.05-1.75c3.54,2.25,3.17,4.93,1.22,8.3
		c-1.78-0.54-3.43-0.72-4.74-1.49c-3.79-2.24-5.33-0.16-6.73,2.97c-2.6,5.81-1.85,10.79,2.97,14.39c4.36,3.25,9.91,3.12,13.28-0.35
		c4.88-5.02,9.82-9.26,16.61-11.14c0.19-0.05,0.22-0.68,0.18-0.53c-4.32-5.32-8.36-10.48-12.6-15.46
		c-7.51-8.8-24.13-9.24-29.94,0.08c-3.66,5.86-7.13,13.5-6.61,20c1.65,20.45,4.68,40.83,8.27,61.05
		c2.06,11.58,6.49,22.76,14.16,32.03c2.69,3.25,6.37,6.98,10.16,7.75c10.36,2.11,17.74,7.86,23.58,16.01
		c11,15.35,13.04,33.35-2.39,47.47c-11.56,10.58-25.25,11.07-39.36,7.01c-14.74-4.24-26.45-13.93-38.02-23.32
		c-18.4-14.93-35.8-31.09-54.32-45.86c-31.37-25.02-66.08-42.92-106.55-48.51c-28.17-3.89-54.9-0.61-80.35,12.27
		c-22.93,11.61-42,27.91-59.2,46.9c-27.74,30.61-41.35,66.8-44.66,107.43c-3.08,37.69,2.56,74.17,15.73,109.46
		c9.67,25.9,22.36,49.92,45.35,66.94c14.47,10.72,30.37,18.13,47.91,22.07c3.58-10.86,2.1-13.58-10.62-20.16
		c-2.22,9.86-5.01,11.49-14.88,7.52c-4.15-1.67-8.48-3.94-11.54-7.09c-16.49-16.98-27.28-35.96-19.36-60.88
		c0.47-1.49-0.6-4.02-1.8-5.26c-0.62-0.64-3.18,0.24-4.68,0.89c-1.62,0.7-2.89,2.34-4.53,2.79c-1.53,0.41-3.69,0.3-4.9-0.55
		c-0.79-0.55-0.99-3.14-0.4-4.27c2.45-4.7,5.04-9.38,8.07-13.71c4.09-5.84,9.73-10.84,12.72-17.14c4.63-9.73,1.73-13.3-8.68-13.17
		c-2.93,0.04-6.75-0.28-5.2-4.24c3.35-8.61,1.02-16.73-1.49-24.6c-2.48-7.8-6.73-15.01-15.11-18.1c-1.59-0.59-4.21,0.21-5.72,1.27
		c-1.19,0.82-1.4,3.04-2.05,4.63c1.77,0.56,3.52,1.49,5.32,1.6c6.67,0.41,9.87,5.54,13.54,9.85c2.15,2.53,4.16,5.71-0.51,8.17
		c-0.16,0.08,0.05,1.13,0.28,1.65c3.98,9.13,0.55,17.62-2.19,26.2c-1.2,3.77-2.17,7.61-2.93,10.3c2.41-1.87,5.17-4.18,8.13-6.2
		c1.11-0.75,2.68-0.82,4.05-1.2c-0.16,1.59,0.09,3.36-0.54,4.73c-3.02,6.63-7.46,12.87-9.18,19.79
		c-3.27,13.23,0.15,26.13,5.03,38.57C195.66,519.9,197.76,524.47,199.74,529.1z M292.56,541.6c1.58,2.7,3.95,5.08,4.32,7.75
		c0.6,4.24-0.13,8.67-0.29,13.02c-4.34-0.43-10.3,0.73-12.65-1.66c-3.57-3.63-5.8-9.57-6.48-14.8c-0.77-5.85,2.92-12.93,0.81-17.79
		c-2.17-5-9-7.99-13.81-11.83c-0.28-0.22-0.7-0.27-1.06-0.4c-2.01,2.35-4.01,4.68-6.77,7.91c-3.3-8.32-6.18-15.57-9.28-23.39
		c-1.22,2.13-1.91,3.35-2.5,4.38c-2.67-1.88-4.92-3.46-7.16-5.05c-0.47,0.39-0.95,0.77-1.42,1.16c0.49,1.29,0.61,3.23,1.54,3.75
		c5.86,3.32,4.58,7.57,2.08,12.21c-0.85,1.57-2.16,3.33-2.05,4.92c0.53,7.67-3.12,10.16-10.21,9.05c-0.25-0.04-0.58,0.46-0.81,0.65
		c1.6,14.76,9.58,23.31,17.75,18.88c-1.59-2.89-3.18-5.77-5.61-10.18c3.9,0.76,6.31,1.23,8.82,1.72
		c-1.33-6.34-5.82-12.28-1.26-19.64c2.64,6.81,5.28,13.62,8.34,21.5c2.92-4.89,5.07-8.48,7.52-12.58c1.01,1.47,1.6,2.04,1.84,2.73
		c0.52,1.5,1.19,3.06,1.23,4.61c0.41,17.12,9.43,26.81,25.83,30.23c0.39,0.08,0.75,0.26,1.14,0.38c8.97,2.65,17.95,5.3,25.32-4.4
		c0.32,2.72,0.56,4.78,0.84,7.09c1.94-0.3,3.46-0.53,3.85-0.59c1.2-3.39,2.12-5.98,3.04-8.57c0.75,0.1,1.49,0.2,2.24,0.3
		c0.65,3.32,1.29,6.63,1.93,9.92c5.5-2.5,6.32-4.99,2.86-9.27c-1.38-1.7-3.14-3.09-4.55-4.77c-3.78-4.52-3.56-10.8,0.28-13.76
		c2.15,4.57,3.18,10.64,6.76,13.37c3.83,2.91,10.06,2.67,15.17,3.79c-0.38,2.98-0.65,5.2-1.13,8.98c3.59-1.88,5.89-3.07,8.28-4.33
		c-1.51-2.11-2.54-3.56-3.73-5.22c4.82-1.34,4.82-1.34,8.24,3.7c10.74-2.48,15.47-7.55,17.53-18.04c0.37-1.89,2.25-3.49,4.35-6.58
		c0.97,3.99,1.46,6.01,2.04,8.39c1.47-0.96,2.96-1.62,4.05-2.7c12.04-11.86,21.99-25.35,28.88-40.73
		c13.49-30.1,18.06-61.67,12.47-94.25c-3.93-22.92-11.11-44.07-30.76-59.59c-32.96-26.03-73.21-16.4-98.39,8.29
		c-20.65,20.26-23.49,46.71-18.58,74.08c1.44,8.05,4.59,15.83,11.65,21.44c0.18-3.18,0.03-6.3-1.06-9.05
		c-9.31-23.55-10.64-60.04,16.18-82.4c13.87-11.56,29.2-13.92,44.7-4.91c2.82,1.64,6.22,2.81,9.45,3.11
		c4.74,0.44,6.47-2.21,5.13-6.84c-0.8-2.76-1.8-5.46-2.93-8.86c14-1.3,21.92,6.72,30.11,14.72c8.97,8.76,11.05,19.58,10.64,31.47
		c4.24-11.8-2.12-21.86-4.91-32.78c2.73,1.85,5.23,3.85,6.59,6.44c10.67,20.4,4.07,34.91-11.82,47.7c-1.73,1.39-7.46,1.06-7.51,0.78
		c-1.09-5.56-6.01-4.37-9.38-5.67c-6.73-2.6-9.9-10.97-6.55-17.59c3.07-6.08,7.88-7,15.17-2.95c0.62,0.35,1.35,0.52,2.02,0.77
		c3.15-8.2,2.3-9.85-8.13-16.24c-7.56-4.64-11.93-3.69-16.89,3.7c-2.09,3.1-4.12,6.25-6.18,9.39c-5.97-2.75-4.86-5.93-0.73-9.5
		c-8.2-5.58-11.88-17.73-25.44-14.68c4.32,9.48,8.13,17.85,12.11,26.56c-5.38,0-10.13,0-13.54,0c-2.32,2.42-3.8,3.97-5.75,6
		c2.64,1.54,5.17,3.7,8.08,4.53c3.87,1.11,5.76,3.43,7.35,6.86c3.4,7.35,8.72,13.22,16.68,15.32c5.49,1.45,11.41,1.24,17.13,1.9
		c2.85,0.33,5.67,0.94,8.5,1.43c0.03,0.89,0.07,1.79,0.1,2.68c-8.12,2.44-16.23,4.88-24.51,7.38c3.66,6.88,10.77,11.33,16.42,9.83
		c6.29-1.67,7.89,1.72,8.76,6.54c0.42,2.35,0.22,4.85,0.89,7.11c0.59,1.98,2,3.72,3.04,5.56c1.69-1.17,3.88-2,4.99-3.58
		c3.5-4.98,7.1-8.62,13.41-4.11c0.13,0.09,0.61-0.32,0.93-0.5c-0.53-0.16-1.07-0.31-1.6-0.47c2.3-8.32,3.9-16.93,7.1-24.89
		c3.46-8.63,7.3-16.82,4.77-26.46c-0.48-1.82,0.02-4,0.49-5.92c0.33-1.34,1.37-2.5,2.1-3.75c0.82,1.15,2.1,2.21,2.38,3.48
		c1.63,7.38,3.56,14.76,4.37,22.25c1.65,15.21,1.96,30.63-5.21,44.62c-6.64,12.95-7.89,15.92-21.15,11.34
		c-7.9-2.72-12.84,0.34-12.01,8.91c0.58,6-2.54,7.24-6.92,8.28c-3.45,0.82-6.88,1.74-11.41,2.89c4.12,1.21,7.03,1.45,9.22,2.84
		c4.98,3.14,9.77,5.44,15.4,1.07c1.82,4.6-0.84,5.18-3.76,5.7c-2.88,0.52-7.14,0.28-8.32,2.03c-3.29,4.9-6.81,3-10.3,1.47
		c-2.65-1.16-4.93-3.18-7.34-4.79c-6.52,4.65-9.05,14.76-5.02,19.95c1.57-1.75,3.18-3.45,4.68-5.25c6-7.16,9.75-7.83,17.37-3.01
		c6.93,4.38,9.09,3.93,14.76-2.24c2.52-2.74,5.29-5.52,8.49-7.29c3.85-2.14,6.18-0.24,5.68,4.19c-0.19,1.67-1.05,3.41-2.04,4.82
		c-7.32,10.37-17.14,17.31-29.58,19.93c-5.17,1.09-6.33,3.62-5.95,8.4c0.16,1.95-0.96,5.16-2.43,5.88
		c-6.55,3.22-13.21,6.94-20.25,8.27c-14.81,2.81-18.59-1.81-15.11-16.48c0.09-0.39,0.21-0.77,0.32-1.15
		c0.99-3.45-0.06-5.31-3.89-5.55c-5.69-0.35-10.67,0.3-13.82,6.04c-2.54,4.62-5.72,5.18-10.08,1.37
		C304.3,538.18,298.73,537.63,292.56,541.6z M26.08,487.51c0.6-0.13,1.2-0.26,1.79-0.4c1.02,1.4,2.11,2.77,3.06,4.22
		c14.29,21.84,28.09,44.03,42.98,65.46c14.54,20.91,32.29,39.12,52.78,54.28c38.46,28.45,82.13,43.82,129.42,48.76
		c34.22,3.58,68.21,1.22,101.48-8.11c24.28-6.81,47.76-15.38,68.19-30.87c6.16-4.67,13.04-8.48,19.9-12.08
		c1.95-1.02,5.6-0.87,7.45,0.33c13.58,8.75,28.06,11.41,44.08,9.31c9.12-1.2,18.82-2.39,27.4,3.26c6.52,4.29,7.92,8.09,5.01,13.86
		c-2.64,5.25-7.87,6.79-14.44,4.14c-3.67-1.47-7.27-3.12-10.74-4.62c-7.03,7.87-6.76,7.21-15.7,3.02
		c-12.06-5.65-24.65-10.2-37.05-15.12c-9.44-3.74-17.2,0.73-24.39,5.88c-6.15,4.4-7.25,16.97-2.82,24.32
		c2.79,4.62,12.42,6.47,19.1,3.89c4.4-1.7,6.46-5.2,5.91-9.35c-0.36-2.72-3-7.38-4.38-7.3c-3.77,0.23-7.55,2.27-11.06,4.1
		c-1.32,0.69-1.91,2.76-2.89,4.26c-5.41-5.07-4.2-13.92,2.38-15.32c6.21-1.32,13.39-2.1,19.23-0.25
		c8.19,2.59,15.62,7.71,23.24,11.96c7.82,4.36,15.17,9.71,23.3,13.34c12.04,5.38,22.31,2.68,31.21-7.1c2.51-2.76,4.39-1.5,6.74-0.1
		c3.04,1.81,6.08,4.37,9.37,4.83c4.23,0.6,10.35,1.04,12.68-1.35c3.52-3.62,0.46-8.91-2.29-13.04c-3.02-4.54-5.94-9.15-9.45-14.58
		c3.51-0.77,5.78-1.58,8.07-1.71c19.06-1.01,20.34-20.12,13.41-30.99c-3.75-5.88-13.8-5.99-17.56-0.08
		c-1.42,2.24-2.03,5.99-1.16,8.37c0.72,1.96,4.03,3.26,6.45,4.22c1.84,0.73,4.08,0.49,7.11,0.76c-2.63,5.26-5.97,7.76-10.65,7.93
		c-3.76,0.13-7.57-0.3-11.32-0.73c-6.14-0.7-12.28-1.5-18.38-2.46c-1.68-0.26-3.25-1.23-4.87-1.87c1.1-1.46,1.9-3.59,3.36-4.27
		c10.92-5.1,18.47-14.01,25.33-23.25c15.01-20.23,21.99-43.66,25.03-68.36c3.99-32.49,0.43-64.53-5.56-96.5
		c-4.62-24.67-14.33-46.62-30.76-65.72c-17.06-19.83-36.93-36.26-58.56-50.8c-13.17-8.85-26.96-16.08-41.91-21.62
		c-14.16-5.25-27.7-12.24-41.39-18.71c-4.21-1.99-6.16-5.6-5.27-10.36c5.04,3.11,9.37,6.05,13.99,8.43
		c1.08,0.56,3.93-0.32,4.57-1.37c0.82-1.37,1.02-4.39,0.1-5.29c-3.89-3.79-7.92-7.76-12.65-10.23c-2.56-1.33-8.63-0.92-9.59,0.74
		c-1.93,3.35-1.97,8.11-1.75,12.24c0.11,2.01,2.21,4.38,4.04,5.73c5.4,3.99,10.72,8.5,16.8,11.07c12.84,5.42,26.41,9.13,39.21,14.63
		c33.24,14.3,61.06,35.83,83.91,63.99c15.78,19.45,28.46,40.54,35.46,64.62c10.35,35.61,10.19,71.79,3.53,107.94
		c-5.38,29.18-18.17,54.32-40.6,74.83c-20.29,18.55-52.83,17.23-72.33,3.83c-4.07-2.79-6.15-2.38-9.62,0.24
		c-35.12,26.5-74.64,42.78-117.91,50.05c-28.32,4.76-56.86,6.59-85.35,2.51c-49.36-7.08-91.49-29.85-128.31-62.56
		c-30.23-26.85-55.2-58.2-74.5-93.87c-4.87-9-9.35-18.2-14.73-28.72c0,67.61,0,133.63,0,200.41c22.71,0.75,44.62,1.96,66.55,2.09
		c37.99,0.22,75.98-0.23,113.97-0.4c96.15-0.43,192.31-0.86,288.46-1.28c2.17-0.01,4.34,0,6.51,0c-0.8-0.56-1.59-0.56-2.39-0.56
		c-38.35-0.16-76.71-0.31-115.06-0.49c-44.18-0.2-88.36-0.4-132.54-0.66c-3.95-0.02-9.11,2.9-10.76-3.91
		c-0.11-0.46-1.73-0.74-2.66-0.8c-8.14-0.57-16.28-1.07-23.24-1.51c0.94,0.77,2.4,1.95,3.87,3.14c-1.71,0.92-3.4,2.6-5.14,2.65
		c-21.56,0.68-43.13,1.65-64.69,1.52c-32.97-0.2-65.93-1.15-98.89-1.92c-6.74-0.16-13.46-0.97-20.62-1.51
		C22.76,606.6,23.86,547.06,26.08,487.51z M426.88,138.15c-0.61-1.14-1.22-2.28-1.83-3.42c-7.89,1.53-16.07,2.27-23.57,4.92
		c-4.03,1.42-7.35,2.02-11.36,1.17c-38.42-8.1-77.16-12.76-116.53-11.75c-25.91,0.67-51.3,4.52-76.02,12.05
		c-32.49,9.9-60.96,27.43-87.71,47.99c-18.94,14.56-35.8,31.14-49.91,50.47c-1.01,1.39-2.57,2.37-3.88,3.55
		c-0.41-0.28-0.82-0.55-1.23-0.83c12.28-24.73,18.05-49.79,4.83-75.72c-0.64,2.3,0.15,4.63,0,6.89c-0.31,4.88-0.95,9.76-1.8,14.58
		c-0.17,0.97-1.89,1.66-2.89,2.48c-0.81-1.21-2.07-2.33-2.32-3.64c-0.36-1.92,0.08-3.97,0.04-5.97c-0.09-4.63-3.06-6.29-7.1-6.28
		c-4.08,0-6.49,2.13-5.92,6.42c0.55,4.12,1.08,8.32,2.36,12.25c2.84,8.71,6.41,17.19,9.2,25.91c3.01,9.44,1.27,18.36-5.49,25.61
		c-1.63,1.75-5.67,2.16-8.33,1.68c-1.44-0.26-2.3-3.71-4.17-7.07c9.3,2.8,10.46,1.8,9.64-5.89c-0.11-0.99,0.06-2.24-0.47-2.92
		c-1.34-1.72-2.89-4.27-4.59-4.46c-1.7-0.19-5.07,1.86-5.28,3.29c-0.8,5.56-1.87,11.57-0.55,16.84c1.88,7.49,9.23,8.91,15.68,4.13
		c1.29-0.96,2.67-1.81,5.36-3.62c-0.7,2.61-0.81,3.54-1.19,4.33c-6.89,14.33-13.7,28.7-20.82,42.91c-1.79,3.57-4.59,6.62-7.98,11.39
		c0,3.94,0,10.18,0,16.82c5.68-13.27,10.81-26.2,16.66-38.8c17.53-37.73,42.26-69.77,75.28-95.39
		c36.67-28.46,78.3-45.18,123.77-52.41c47.25-7.52,93.94-3.56,140.05,8.86c18.72,5.04,37.64,9.37,57.22,8.99
		c20.11-0.38,37.11-7.42,49.36-24.29c-3.54,0.77-6.94,1.99-9.87,3.93c-3.43,2.28-5.68,1.64-8.09-1.41
		c-5.54-7.03-9.17-7.63-16.47-2.16c-1.57,1.17-1.66,4.32-2.43,6.55c1.89,0.53,3.77,1.45,5.67,1.49c2.06,0.04,4.15-0.74,6.48-1.22
		c-2.46,12.36-32.56,18.81-43.31,10.06C420.52,143.71,423.7,140.93,426.88,138.15z M163.02,658.65c-0.4-1.13-0.83-2.18-1.16-3.27
		c-1.93-6.38-6.14-8.27-11.91-4.89c-3.4,1.99-5.4,5.08-2.56,8.98c2.9,3.99,6.79,5.94,11.93,5.17c5.61-0.83,11.26-1.61,14.24-7.26
		c0.76-1.44,1.07-3.83,0.38-5.17c-2.02-3.95-3.83-8.62-7.15-11.19c-25.46-19.72-68.32-21.72-95.61-4.89
		c-0.92,0.57-1.49,1.7-2.22,2.57c5.61-0.44,10.34-2.64,15.3-3.36c5.35-0.77,10.95-0.55,16.33,0.08c1.54,0.18,3.03,3.17,3.93,5.16
		c0.33,0.74-1.1,2.27-1.73,3.44c-1.7-0.96-3.56-1.71-5.06-2.93c-3.7-3-7.42-1.92-10.32,0.59c-2.44,2.11-3.86,5.41-5.74,8.18
		c2.86,1.77,5.81,5.16,8.55,4.99c6.65-0.4,13.25-2.26,19.77-3.9c12.11-3.04,24.04-6.96,36.28-9.27c6.54-1.23,13.65,0.03,19.06,5.07
		C169.68,650.82,168.83,655.46,163.02,658.65z M36.01,543.73c0.46-0.74,1.53-4.2,2.89-4.32c2.97-0.26,7.21,0.16,8.94,2.09
		c7.46,8.32,6.14,18.03,2.55,27.59c-3.15,8.4-6.99,16.55-9.8,25.06c-2.11,6.38-2.04,13.18,1.89,19.02c1.32,1.96,4.28,3.99,6.39,3.9
		c2.17-0.1,4.98-2.32,6.18-4.39c3.21-5.54,0.8-10.93-0.98-16.57c-2.53,1.69-4.38,2.91-6.49,4.32c-2.11-4.46-0.74-7.22,2.57-8.54
		c3.82-1.51,7.62-0.85,9.94,3.03c4.66,7.8,2.75,15.78,0.32,23.72c-0.72,2.36-1.53,4.69-2.3,7.04c0.82,0.3,1.64,0.59,2.46,0.89
		c2.47-6.6,6.34-13.04,7.11-19.83c1.31-11.6,1.19-23.44,0.72-35.15c-0.67-16.53-10.04-28.58-22.16-38.76
		c-1.24-1.04-3.65-1.96-4.91-1.44c-3.24,1.32-7.25,2.77-8.94,5.45c-3.4,5.38-2.21,15.29,1.85,18.42c1.8,1.38,5.65,1.77,7.7,0.8
		c3.73-1.78,3.47-5.82,1.46-8.8C42.36,545.7,39.59,545.34,36.01,543.73z M71.88,153.1c11.44,9.29,24.98,13.02,39.26,13.42
		c21.37,0.59,39.91-7.36,55.67-21.4c2.84-2.53,5.25-8.07,4.45-11.41c-0.78-3.3-5.69-7.49-9.14-7.83c-5.3-0.52-11.23,1.16-16.22,3.41
		c-2.41,1.09-3.3,5.57-4.87,8.52c3.09,1.32,6.13,3.59,9.28,3.76c6.37,0.34,7.4-3.01,3.39-10.51c3.75-1.14,7.11-1.71,9.29,2.52
		c2.04,3.94,1.24,6.88-2.38,9.8c-8.13,6.55-17.41,6.73-26.74,4.9c-7.99-1.56-15.65-4.75-23.6-6.57c-5.75-1.31-11.76-2.25-17.62-2.05
		c-4.12,0.14-7.32,3.49-7.44,8.1c-0.13,5.06,4.19,4.35,7.37,4.99c0.98,0.2,1.95,0.44,2.92,0.68c3.67,0.92,5.25-0.67,5.27-4.28
		c0.01-1.31,0.24-2.62,0.43-4.54c4.07,1.26,7.7,1.53,7.94,6.91c0.23,5.13-2.95,7.2-6.72,7.55c-5.06,0.47-10.37,0.16-15.36-0.86
		C81.86,157.15,76.92,154.86,71.88,153.1z M40.7,117.33c0,0.29,0,0.57-0.01,0.86c0.35,0.14,0.7,0.4,1.05,0.4
		c71.16,0.3,142.33,0.61,213.49,0.84c30.17,0.1,60.33-0.06,90.5,0.06c44.37,0.18,88.74,0.67,133.1,0.72
		c31.38,0.03,62.76-0.44,94.14-0.72c1.47-0.01,2.94-0.32,4.4-0.49c-0.04-0.55-0.09-1.11-0.13-1.66
		C398.39,117.33,219.54,117.33,40.7,117.33z M31.05,125.71c0,10.49-0.13,20.4,0.13,30.3c0.04,1.58,1.86,3.11,2.86,4.66
		c1.47-1.15,2.98-2.25,4.38-3.48c0.41-0.36,0.41-1.14,0.76-1.6c1.15-1.49,2.38-2.92,3.59-4.38c1.2,1.39,2.24,2.97,3.63,4.12
		c2.08,1.72,4.79,4.76,6.57,4.35c3.96-0.91,8.57-2.77,10.94-5.79c2.81-3.58-1.21-6.81-3.79-9.55c-0.41-0.44-0.85-0.84-1.26-1.27
		c-4.57-4.75-4.26-5.47,1.99-7.8c1.86-0.69,3.21-2.78,4.79-4.23c-1.68-1.78-3.28-5-5.05-5.1C51.13,125.44,41.63,125.71,31.05,125.71
		z M323.92,381.83c-11.33,0.88-18.3,7.43-21.37,17.82c-3.36,11.35,2.97,21.46,2.98,32.35c0,3.88,4.1,2.93,5.76,0.89
		c2.3-2.85,3.89-6.36,5.4-9.75c1.86-4.19,4.11-7.19,9.41-6.25c8.48,1.5,9.96-0.12,8.67-8.35c-5.6-0.68-11.23-0.72-16.46-2.18
		c-5.44-1.53-8.18-8.08-6.91-13.7c1.36-6.07,5.53-6.3,10.45-5.2c0.93,0.21,1.95,0.03,2.75,0.03
		C324.37,385.6,324.16,383.84,323.92,381.83z M52.32,652c2.41-1.6,4.22-2.74,5.96-3.97c4.28-3.03,4.54-6.97,2.72-11.51
		c-2.05-5.13-5.88-4.84-9.82-3.11c-3.56,1.57-6.86,3.74-10.66,5.85c-1.76-4.03-3.38-7.73-5.59-12.79
		c-7.49,12.9-4.15,24.83-4.03,37.22c10.23-1.59,20.64,3.64,30.97-3.5C58.37,657.18,55.63,654.83,52.32,652z M328.48,254.91
		c-0.12,0.74-0.23,1.48-0.35,2.22c3.93,0.75,7.83,1.68,11.79,2.2c8.64,1.14,17.08,0.35,24.94-3.74c7.96-4.14,10.35-11.33,6.01-18.84
		c-1.15,2.29-2.19,4.36-3.22,6.42c-3.45,6.88-7.78,8.01-14.28,3.73c-5.57-3.68-6.96-3.61-9.95,2.47c-2.45,4.99-5.81,6.67-11.03,5.58
		C331.14,254.69,329.79,254.91,328.48,254.91z M231.09,489.66c-12.38,2.39-17.72,8.25-16.94,18.25c0.42,5.39,2.88,10.07,8.45,10.96
		c2.66,0.43,5.77-1.98,8.68-3.11c-1.09-2.47-1.91-5.11-3.36-7.35c-1.36-2.09-3.98-3.46-5.01-5.64c-1.73-3.68,0.82-7.13,4.47-6.96
		c1.6,0.08,3.22-0.14,4.83-0.22C231.83,493.61,231.46,491.63,231.09,489.66z M23.66,271c-0.04,0-0.08,0-0.11,0.01
		c0-9.96-0.1-19.93,0.02-29.89c0.45-37.92,1.09-75.83,1.35-113.75c0.04-5.61,0.75-9.44,7.27-9.71c-2.52,0.19-5.03,0.38-8.52,0.65
		C23.66,169.49,23.66,220.24,23.66,271z M96.67,604.9c0-4.52-3.26-5.63-6.77-5.97c-4.55-0.43-9.13,4.45-8.95,9.24
		c0.17,4.59,2.81,6.89,7.22,7.18C92.81,615.65,96.6,610.9,96.67,604.9z M583.75,255.71c0.5,0.05,1,0.1,1.5,0.15
		c1.08-39.87,2.16-79.74,3.24-119.6c-0.42-0.01-0.83-0.02-1.25-0.03C586.08,176.05,584.92,215.88,583.75,255.71z M78.55,182.39
		c3.56,3.63,5.42,7.19,7.74,7.52c3.89,0.55,7.65-1.97,7.73-6.52c0.07-4.15-3.37-6.03-7.02-5.6
		C84.67,178.06,82.54,180.13,78.55,182.39z M585.16,332.81c-0.43,0.01-0.85,0.02-1.28,0.03c0,15.45,0,30.9,0,46.35
		c0.43,0.01,0.85,0.01,1.28,0.02C585.16,363.74,585.16,348.27,585.16,332.81z M399.1,657.26c-0.01-0.07-0.02-0.15-0.03-0.22
		c-9.72,0-19.45-0.05-29.17,0.05c-1.55,0.02-4.17,0.35-4.45,1.17c-1.64,4.81-5.75,3.22-8.92,3.82c-2.71,0.51-5.52,0.55-8.28,0.79
		c0.01,0.18,0.02,0.37,0.04,0.55c7.42,0,14.84,0,22.77,0c-1.38-1.12-2.23-1.8-3.08-2.48c0.05-0.58,0.1-1.17,0.15-1.75
		C378.44,658.55,388.77,657.9,399.1,657.26z M563.14,179.33c-0.02-0.63-0.03-1.27-0.05-1.9c4.58-0.51,9.16-1.03,13.75-1.54
		c-0.06-0.39-0.12-0.78-0.18-1.17c-6.08,0-12.16,0-18.45,0c2.14,10.02,3.59,10.64,14.15,6.72
		C569.12,180.7,566.13,180.01,563.14,179.33z M267.54,574.67c1.42,0.32,2.76,0.9,4.09,0.86c3.47-0.09,6.94-0.46,10.4-0.71
		c-3-2.51-5.98-5.04-9.01-7.51c-0.17-0.14-0.72,0.19-0.9,0.25C270.57,569.94,269.12,572.2,267.54,574.67z M308.67,578.27
		c0.02-0.58,0.04-1.16,0.06-1.73c-6.08-0.74-12.16-1.55-18.25-2.15c-1.1-0.11-2.28,0.68-3.42,1.05c0.99,0.94,1.95,2.66,2.97,2.7
		C296.23,578.4,302.45,578.27,308.67,578.27z M128.52,131.23c0-0.22,0-0.44,0-0.67c-14.73,0-29.46,0-44.19,0c0,0.22,0,0.44,0,0.67
		C99.06,131.23,113.79,131.23,128.52,131.23z M199.11,124.2c0.02,0.33,0.05,0.66,0.07,0.99c14.63,0,29.25,0,43.88,0
		c0.01-0.33,0.02-0.66,0.03-0.99C228.43,124.2,213.77,124.2,199.11,124.2z M191.13,135.95c-2.76-0.83-5.18-1.56-8.76-2.64
		c2.46-1.68,3.67-2.5,5-3.41c-2.58-0.43-5.05-0.84-7.55-1.26C179.2,137.01,180.88,138.09,191.13,135.95z M452.62,663.34
		c-0.04,0.42-0.09,0.83-0.13,1.25c7.32,0,14.64,0,21.96,0c0-0.42,0-0.83,0-1.25C467.17,663.34,459.89,663.34,452.62,663.34z
		 M119.57,616.32c-0.06-0.5-0.12-1.01-0.18-1.51c-10.35-2.13-13.09-1.84-17.22,2.32C108.34,616.84,113.95,616.58,119.57,616.32z
		 M112.44,125.58c0-0.11,0-0.22,0-0.33c-11.22,0-22.43,0-33.65,0c0,0.11,0.01,0.22,0.01,0.33
		C90.01,125.58,101.22,125.58,112.44,125.58z M490.05,625.34c0.06,0.34,0.13,0.67,0.19,1.01c7.86,0,15.73,0,23.59,0
		c0-0.34,0-0.67-0.01-1.01C505.9,625.34,497.97,625.34,490.05,625.34z M104.12,663.25c0-0.13,0-0.25,0-0.38
		c-10.47,0-20.95,0-31.42,0c0,0.13,0,0.25,0,0.38C83.18,663.25,93.65,663.25,104.12,663.25z M558.23,242.38
		c5.95,5.27,12.12-0.95,18.22,1.77c0.01-0.59,0.03-1.18,0.04-1.77C570.4,242.38,564.32,242.38,558.23,242.38z M552.39,355.68
		c0.01,0.38,0.01,0.76,0.02,1.13c5.64,0,11.28,0,16.92,0c-0.01-0.38-0.01-0.76-0.02-1.13C563.68,355.68,558.03,355.68,552.39,355.68
		z M574.63,217.37c-0.01-0.4-0.01-0.8-0.02-1.2c-4.72,0-9.44,0-14.15,0c0.01,0.4,0.02,0.8,0.02,1.2
		C565.2,217.37,569.92,217.37,574.63,217.37z M85.67,623.3c-0.09-0.86-0.19-1.72-0.28-2.58c-3.74,0.56-7.48,1.12-11.22,1.67
		c0.06,0.3,0.11,0.6,0.17,0.9C78.12,623.3,81.9,623.3,85.67,623.3z M370.59,125.46c0-0.04,0-0.07,0-0.11c-8.14,0-16.27,0-24.41,0
		c0,0.04,0,0.07,0,0.11C354.32,125.46,362.45,125.46,370.59,125.46z"/>
	<path class="st0" d="M415.2,96c-1.72,0.26-3.45,0.74-5.17,0.74c-48.99,0.13-97.98,0.25-146.97,0.31
		c-84.37,0.1-168.74,0.16-253.12,0.25c-8.5,0.01-8.66,0.15-8.64,8.85c0.07,40.58,0.11,81.15,0.24,121.73
		c0.2,60.58,0.52,121.16,0.69,181.74c0.16,55.79,0.26,111.58,0.23,167.36c-0.01,31.39-0.46,62.78-0.4,94.18
		c0.01,6.91,1.34,13.82,2.17,21.66c8.96,0,17.11-0.12,25.26,0.02c29.78,0.5,59.55,1.45,89.32,1.55c40.74,0.14,81.48-0.59,122.22-0.5
		c103.97,0.22,207.94,0.74,311.91,1.02c15.19,0.04,30.37-0.66,45.56-0.79c3.5-0.03,5.21-1.08,5.27-4.66
		c0.2-12.38,0.63-24.75,0.67-37.13c0.11-29.57-0.17-59.14,0.11-88.71c0.31-33.18,1.08-66.36,1.59-99.53
		c0.44-28.37,0.87-56.74,1.2-85.11c0.45-39.36,0.66-78.73,1.25-118.09c0.62-41.16,1.66-82.31,2.33-123.47
		c0.19-11.58-0.38-23.16-0.35-34.75c0.01-3.69-1.87-4.36-4.84-4.42c-14.19-0.29-28.37-0.54-42.56-0.99
		c-6.93-0.22-13.86-0.83-20.78-1.26c23.2,0,46.4,0,69.6,0c0,200,0,400,0,600c-204,0-408,0-612,0C0,496,0,296,0,96
		C138.4,96,276.8,96,415.2,96z"/>
	<path class="st0" d="M294.88,469.18c1.36-2.26,3.21-4.36,4-6.81c8.07-24.98,38.69-29.72,56.86-13.74
		c11.22,9.86,14.02,30.12,5.87,44c-12.72,21.64-34.43,30.71-61.9,25.7c-13.58-2.48-24.72-8.96-34.43-19.04
		c-20.8-21.61-34.66-47.62-48.89-73.52c-10.08-18.35-20.91-36.29-31.29-54.47c-2.05-3.59-4.45-7.37-4.96-11.29
		c-0.3-2.32,2.24-5.75,4.44-7.52c9.03-7.23,18.25-14.24,27.7-20.91c20.56-14.52,41.65-28.15,64.63-38.69
		c29.08-13.33,59.42-21.35,91.48-20.71c10.62,0.21,21.34,3.05,31.73,5.75c28.44,7.39,55.04,18.9,78.86,36.48
		c25.63,18.91,43.41,43.56,55.1,72.99c12.74,32.07,18.19,65.42,16.57,99.7c-1.57,33.25-10.27,64.5-29.8,92.21
		c-13.18,18.7-33.31,26.71-55.36,20.74c-8.94-2.42-16.09-7.87-21.52-15.36c-2.74-3.78-4.88-4.97-9.01-1.29
		c-18.33,16.29-38.93,29.03-61.62,38.45c-32.27,13.39-65.92,18.36-100.68,17.77c-36.66-0.62-71.73-8.21-105.16-23.04
		c-19.76-8.76-38-20.11-55.08-33.48c-36.06-28.22-59.08-65.92-78.77-106.21c-12.26-25.1-21.82-51.12-24.21-79.07
		c-0.68-7.91,2.05-16.47,4.66-24.24c9.4-27.97,18.44-56.12,29.47-83.46c11.74-29.07,28.77-55.34,51.47-77.18
		c19.91-19.16,42.36-34.98,67.4-47.21c34.96-17.07,71.82-26.51,110.47-28.67c32.34-1.81,64.2,2.4,95.39,11.07
		c18.07,5.03,35.97,10.42,55,10.68c19.61,0.27,39-0.57,55.7-12.31c5.35-3.76,9.24-9.63,13.7-14.62c1.74-1.95,3.23-4.13,4.83-6.21
		c0.56,0.19,1.12,0.37,1.68,0.56c0.63,7.63,1.1,15.27,1.93,22.87c2.87,26.21,6.04,52.4,13.88,77.71c2.71,8.73,6.19,17.26,9.8,25.67
		c3.04,7.11,7.43,8.88,15.06,7.11c11.7-2.71,22.36,1.71,27.64,12.62c4.9,10.12,7.94,21,0.28,31.19
		c-8.43,11.21-19.55,16.94-33.98,13.52c-12.32-2.92-22.62-9.06-31.73-18.09c-12.61-12.5-25.87-24.39-39.33-35.99
		c-12.38-10.66-24.99-21.15-38.23-30.7c-28.64-20.67-59.58-36.51-95.14-41.52c-39.15-5.51-74.45,4.26-106.37,27.1
		c-42.68,30.54-71.83,70.77-81.66,122.56c-10.73,56.5-7.16,112.18,21.87,163.47c21.24,37.53,51.81,64.36,94.8,75.31
		c34.47,8.78,68.6,7.65,101.04-6.3c35.76-15.37,60.26-42.29,72.1-80.07c10.34-32.99,10.74-66.27,1.53-99.23
		c-7.98-28.55-25.51-51.31-52.74-63.29c-42.6-18.74-92.57-0.32-106.78,50.98c-5.99,21.62-5.93,43.3,3.06,63.98
		c3.8,8.74,10.58,16.18,16,24.2C293.16,469.28,294.02,469.23,294.88,469.18z M309.84,486.35c-3.84,2.79-8.23,1.06-12.31-1.02
		c-13.75-6.99-24.56-17.17-31.09-31.22c-14.65-31.52-13.84-63.19,0.95-94.33c10.58-22.28,26.65-39.24,51.14-46.33
		c27.94-8.09,54.98-5.73,79.22,10.86c33.85,23.17,49.15,57.44,53.4,97c2.75,25.65-0.49,50.92-7.81,75.81
		c-8.39,28.49-25.11,50.92-47.74,69.38c-29.61,24.15-64.82,31.95-101.61,31c-64.35-1.66-112.07-33.5-143.9-88.04
		c-27.82-47.67-33.98-100.07-25.34-154.18c9.36-58.57,36.48-107.36,83.24-144.19c46.18-36.36,98.13-45.04,154.19-28.11
		c38.22,11.54,68.55,36,97.86,61.82c19.32,17.02,38.11,34.64,57.78,51.23c9.42,7.94,20.86,11.15,33.01,5.35
		c7.39-3.53,9.78-10.64,6.72-18.79c-2.78-7.41-8.76-10.55-16.64-8.45c-3.46,0.92-6.72,2.55-10.15,3.57
		c-1.31,0.39-3.59,0.56-4.18-0.18c-4.96-6.2-11.65-11.95-14.02-19.1c-8.36-25.18-15.3-50.83-22.58-76.36
		c-2-7.02-3.34-14.23-5.09-21.83c-2.34,0.99-3.79,1.57-5.21,2.21c-14.95,6.73-30.65,9.38-47,10.13
		c-18.65,0.86-35.85-5.49-53.54-9.24c-43.23-9.15-86.65-15.06-130.84-9.23c-36.07,4.75-70.22,16.14-101.32,34.85
		c-34.24,20.6-59.29,50.6-79.43,84.74c-22.97,38.93-36.76,81.35-46.6,125.19c-0.54,2.39-0.44,5.23,0.33,7.54
		c5.42,16.26,10.27,32.79,16.84,48.58c19.99,48.05,48.2,90.37,89.24,123.26c21.25,17.03,44.69,30.4,71.07,37.3
		c52.27,13.68,104.69,14.52,156.73-1.62c25.43-7.89,48.89-19.73,69.1-37.28c8.52-7.4,16.4-15.55,24.99-23.75
		c0.72,3.54,1.27,7.2,2.21,10.77c2.4,9.09,5.86,17.85,15.2,21.76c11.74,4.9,23.43,4.02,33.62-4.02
		c10.71-8.45,18.04-19.73,23.4-32.09c13.83-31.91,15.19-65.65,12.2-99.51c-2.3-26.12-11.07-50.64-24.17-73.44
		c-21.73-37.81-51.37-65.93-93.78-80.04c-43.49-14.48-85.73-11.43-127.53,5.41c-30.24,12.18-57.21,29.91-82.51,50.27
		c-13.71,11.03-14.04,6.85-4.89,23.67c15.83,29.07,33.1,57.34,49.63,86.03c7.01,12.16,14.45,24.01,25.91,32.48
		c12.12,8.95,25.25,16.2,40.98,11.95c7.38-1.99,14.35-5.91,21.11-9.66c13.53-7.51,16.45-23.87,6.57-35.59
		c-5.58-6.62-12.86-8.09-21.17-6.46c-7.87,1.54-13.22,5.76-14.65,13.68C310.34,473.86,310.34,479.85,309.84,486.35z"/>
	<path class="st0" d="M593.67,114.62c-9.07-0.52-17.98-1.42-26.9-1.48c-87.57-0.58-175.15-1.11-262.72-1.44
		c-44.77-0.17-89.54,0.03-134.32,0.2c-33.95,0.13-67.89,0.56-101.83,0.67c-13.39,0.04-26.78-0.5-40.16-0.67
		c-8.07-0.1-10.57,2.41-10.65,10.68c-0.15,14.8-0.22,29.59-0.23,44.39c-0.03,41.59,0.09,83.18-0.06,124.77
		c-0.06,17.58-0.18,35.19-1.18,52.73c-0.44,7.77-3.11,15.41-4.77,23.11c-0.71-0.05-1.43-0.1-2.14-0.15
		c-0.77-7.88-2.14-15.76-2.2-23.65C6.34,320.8,6.85,297.8,6.8,274.81c-0.13-54.58-0.44-109.17-0.67-163.75c-0.01-2.37,0-4.73,0-7.98
		c2.74,0,5.05,0,7.35,0c35.99-0.08,71.99-0.08,107.98-0.27c39.17-0.21,78.34-0.68,117.51-0.9c53.99-0.3,107.97-0.72,161.96-0.63
		c55.14,0.09,110.29,0.71,165.43,1.13c11.18,0.08,22.35,0.54,33.52,0.31c4.78-0.1,6.29,1.53,6.26,6.1
		c-0.15,23.77,0.17,47.54-0.23,71.3c-0.68,40.35-1.94,80.69-2.66,121.05c-0.96,53.76-1.64,107.52-2.44,161.28
		c-0.63,42.76-1.4,85.52-1.85,128.28c-0.31,29.98-0.2,59.96-0.27,89.94c-0.02,7.19-0.62,7.91-7.78,7.98
		c-20.99,0.22-41.99,0.44-62.98,0.51c-62.99,0.19-125.97,0.46-188.96,0.41c-68.38-0.05-136.77-0.39-205.15-0.66
		c-27.39-0.1-54.77-0.38-82.16-0.48c-10.95-0.04-21.91,0.26-32.86,0.22c-10.2-0.04-13.06-3.75-12.83-13.99
		c0.73-31.97,1.36-63.94,1.56-95.91c0.21-33.77-0.12-67.54-0.2-101.31c-0.03-15.56-0.01-31.12-0.01-46.67
		c0.82-0.1,1.64-0.2,2.46-0.3c1.95,8.6,5.48,17.18,5.6,25.81c0.87,61.97,1.06,123.95,1.46,185.92c0.06,8.99,0.12,17.98,0.23,26.96
		c0.07,5.9,2.4,8.16,8.36,8.15c65.76-0.06,131.53-0.31,197.29-0.15c48.77,0.12,97.54,1.04,146.31,1.14
		c50.58,0.1,101.15-0.39,151.73-0.55c17.37-0.05,34.74,0.19,52.11,0.18c13.56-0.01,14.26-1.12,14.16-14.23
		c-0.11-14.58,0.58-29.16,0.67-43.74c0.18-28.58-0.04-57.17,0.3-85.74c0.73-61.35,1.7-122.7,2.58-184.05
		c0.1-6.98-0.24-14,0.46-20.92c0.6-6.02,1.75-12.15,3.77-17.84c4.24-11.95,3.07-23.81-0.51-35.31c-2.7-8.66-2.82-17.23-2.67-26.01
		c0.78-43.36,1.54-86.72,2.29-130.07C593.97,118.45,593.79,116.87,593.67,114.62z"/>
	<path class="st0" d="M199.74,529.1c-1.98-4.62-4.09-9.2-5.92-13.88c-4.88-12.44-8.3-25.34-5.03-38.57
		c1.71-6.93,6.16-13.16,9.18-19.79c0.63-1.38,0.38-3.15,0.54-4.73c-1.36,0.38-2.94,0.44-4.05,1.2c-2.96,2.02-5.72,4.33-8.13,6.2
		c0.76-2.69,1.73-6.53,2.93-10.3c2.73-8.58,6.16-17.06,2.19-26.2c-0.23-0.52-0.44-1.56-0.28-1.65c4.67-2.46,2.66-5.64,0.51-8.17
		c-3.67-4.32-6.87-9.45-13.54-9.85c-1.8-0.11-3.55-1.05-5.32-1.6c0.65-1.6,0.87-3.81,2.05-4.63c1.52-1.06,4.13-1.86,5.72-1.27
		c8.38,3.09,12.63,10.3,15.11,18.1c2.5,7.87,4.84,15.99,1.49,24.6c-1.54,3.96,2.27,4.28,5.2,4.24c10.42-0.14,13.31,3.44,8.68,13.17
		c-3,6.3-8.64,11.3-12.72,17.14c-3.03,4.34-5.62,9.01-8.07,13.71c-0.59,1.13-0.39,3.72,0.4,4.27c1.21,0.85,3.37,0.96,4.9,0.55
		c1.64-0.44,2.92-2.09,4.53-2.79c1.49-0.64,4.06-1.53,4.68-0.89c1.19,1.24,2.27,3.77,1.8,5.26c-7.91,24.92,2.88,43.9,19.36,60.88
		c3.06,3.15,7.39,5.42,11.54,7.09c9.87,3.96,12.66,2.34,14.88-7.52c12.73,6.59,14.2,9.3,10.62,20.16
		c-17.54-3.95-33.43-11.36-47.91-22.07c-22.99-17.02-35.68-41.04-45.35-66.94c-13.18-35.29-18.81-71.77-15.73-109.46
		c3.32-40.62,16.93-76.81,44.66-107.43c17.2-18.99,36.27-35.29,59.2-46.9c25.45-12.89,52.17-16.16,80.35-12.27
		c40.47,5.59,75.17,23.49,106.55,48.51c18.52,14.77,35.92,30.94,54.32,45.86c11.58,9.39,23.29,19.08,38.02,23.32
		c14.11,4.06,27.79,3.57,39.36-7.01c15.43-14.12,13.4-32.12,2.39-47.47c-5.84-8.15-13.22-13.9-23.58-16.01
		c-3.79-0.77-7.47-4.5-10.16-7.75c-7.67-9.27-12.1-20.45-14.16-32.03c-3.6-20.21-6.63-40.6-8.27-61.05
		c-0.52-6.51,2.95-14.14,6.61-20c5.81-9.31,22.42-8.88,29.94-0.08c4.25,4.98,8.28,10.14,12.6,15.46c0.04-0.15,0.01,0.48-0.18,0.53
		c-6.79,1.88-11.73,6.12-16.61,11.14c-3.38,3.47-8.93,3.61-13.28,0.35c-4.82-3.6-5.58-8.58-2.97-14.39c1.4-3.13,2.94-5.21,6.73-2.97
		c1.31,0.77,2.96,0.96,4.74,1.49c1.96-3.37,2.33-6.05-1.22-8.3c-3.85-2.45-10.82-2.2-13.05,1.75c-2.97,5.26-6.48,11.44-6.22,17.06
		c0.66,14.27,3.29,28.44,5.18,42.65c0.06,0.48,0.65,0.9,1.8,2.38c4.14-8.21,7.99-15.86,12.68-25.17c1.71,3.67,2.41,6.09,3.82,7.99
		c2.29,3.08,4.53,6.82,7.72,8.45c5.16,2.62,6.27,6.06,5.29,11.09c-3.05,0.67-6.4,0.6-8.69,2.11c-3.27,2.16-7.08,5.02-8.3,8.42
		c-1.9,5.32-2.33,11.33-2.48,17.07c-0.25,9.26,3.02,16.03,12.86,19.58c9.74,3.52,18.41,9.3,24.63,18.21
		c8.95,12.82,9.09,35.72-0.08,49.42c-8.09,12.07-27.71,18.67-43.42,14.88c-14.29-3.44-25.3-12.43-36.33-21.27
		c-20.71-16.61-41.21-33.48-61.8-50.24c-3.08-2.51-6.15-5.03-9.24-7.54c-4.38-3.56-5.84-3.07-8.27,2.24
		c-0.75,1.64-2.26,2.93-3.42,4.38c-1.26-1.06-3.08-1.86-3.71-3.21c-6.96-14.91-19.39-23.73-33.99-29.46
		c-21.38-8.39-42.95-16.63-66.47-16.45c-4.16,0.03-8.43,0.51-12.41,1.64c-1.89,0.53-4.05,2.88-4.51,4.78
		c-0.34,1.42,1.49,3.94,3.01,5.12c4.27,3.31,12.39,2.58,15.81-1.54c3.3-3.98,5.94-4.75,10.44-1.28c4.02,3.1,9.13,4.76,14.35,7.36
		c-0.83,5.45-7.98,3.7-11.42,7.69c0.88,1.04,2.03,2.05,2.76,3.32c1.22,2.14,3.64,5.14,2.96,6.52c-1.89,3.89-5.44,6.6-10.32,4.63
		c-4.16-1.68-8.18-3.72-12.94-5.91c-0.94,8.3,2.35,16.72-5.28,22.77c-2.66-1.69-5.29-3.46-8.02-5.07c-2.74-1.61-5.56-4.3-8.36-4.32
		c-7.58-0.06-10.39-4.63-12.56-10.63c-0.59-1.62-1.66-3.46-3.06-4.3c-1.7-1.02-3.97-1.08-5.99-1.55c-0.35,1.62-1.12,3.27-0.99,4.85
		c0.66,8.39-0.05,8.97-7.92,6.06c-15.19-5.62-29.68-4.37-43.37,4.51c-3.18,2.06-5.26,4.97-3.4,8.53c2.07,3.97,6.6,4.25,9.3,1.7
		c7.4-6.99,16.15-4.15,25.8-4.93c-1.7,2.88-3.21,4.83-4.05,7.03c-0.62,1.62-0.36,3.58-0.5,5.39c1.73-0.02,3.71,0.52,5.14-0.15
		c9.82-4.6,15.04-4.27,21.28,1.73c-10.61,13.3-19.55,16.47-36.25,11.74c1.43,4.49,2.57,8.09,3.96,12.5
		c-6.12,1.05-12.09,2.52-18.12,2.9c-2.67,0.17-6.46-1.1-8.03-3.07c-3.82-4.82-8.69-5.16-13.43-3.73
		c-5.43,1.64-10.58,4.46-15.53,7.31c-1.28,0.73-1.38,3.51-2.02,5.35c1.77,0.4,3.64,1.38,5.27,1.08c3.56-0.66,7-1.97,11.71-3.38
		c-2.71,11.15-10.43,16.15-17.08,21.95c-8.24,7.19-17.7,13.54-19.9,25.31c-1.46,7.82-2.12,15.78-3.19,24.04
		c1.88,0.37,3.32,0.66,4.5,0.89c-1.62,13.62-3.79,27.01-4.64,40.49c-0.86,13.6,0.41,27.1,8.08,39.22c4.74-1.06,6.27-4.18,5.63-8.07
		c-1.2-7.24-2.9-14.39-4.5-22.13c5.55,0.63,10.44-0.86,11.86-7.77c0.13-0.64,2.51-0.82,5.07-1.57c-1.37,10.04-2.46,19.08-3.84,28.07
		c-2.75,17.83-5.72,35.83-0.12,53.44c2.92,9.18,8.36,17.56,12.81,26.23c0.54,1.05,1.98,1.65,3.01,2.45
		C198.91,529.59,199.33,529.34,199.74,529.1z M299.58,232.54c-22.16-4.59-44.08-4.16-65.32,5.23c-1.6,0.71-2.79,2.35-4.17,3.55
		c0.32,0.43,0.63,0.86,0.95,1.29c3.75-1.19,7.42-2.78,11.26-3.49c10.5-1.93,21.04-4.47,31.63-4.8c5.87-0.19,12.75,1.59,16.11,8.75
		c0.81,1.72,5.25,3.23,7.15,2.52c1.69-0.63,2.54-4.4,3.09-6.92C300.66,236.93,299.9,234.94,299.58,232.54z M242.02,280.53
		c0.01-0.68,0.02-1.36,0.03-2.04c-4.28,0-8.66-0.58-12.79,0.19c-3.18,0.59-6.05,2.85-9.06,4.37c1.96,2.46,3.92,4.92,5.89,7.38
		c0.12,0.16,0.26,0.37,0.43,0.41c1.26,0.29,2.88,1.13,3.71,0.64c0.86-0.5,1.65-2.54,1.31-3.49c-2.24-6.24,1.72-6.67,6.1-6.92
		C239.11,280.98,240.56,280.72,242.02,280.53z M191.89,295.36c6.66-2.25,13.35-4.41,19.93-6.87c0.72-0.27,1.32-2.46,0.99-3.43
		c-0.31-0.89-2.09-2.05-2.96-1.86C202.44,284.84,196.21,288.49,191.89,295.36z M170.55,321.44c10.54-2.95,11.01-4.36,5.6-15.54
		C173.97,311.95,172.26,316.69,170.55,321.44z M307.09,234.15c-0.3,0.87-0.6,1.74-0.9,2.6c4.1,1.29,8.19,2.59,12.29,3.88
		c0.25-0.75,0.5-1.49,0.75-2.24C315.18,236.98,311.14,235.56,307.09,234.15z M255.02,568.22c0.65,0.56,1.29,1.13,1.94,1.69
		c1.5-1.19,3.48-2.12,4.34-3.66c0.54-0.98-0.57-2.88-0.95-4.37c-0.6-0.08-1.19-0.15-1.79-0.23
		C257.38,563.84,256.2,566.03,255.02,568.22z"/>
	<path class="st0" d="M292.56,541.6c6.17-3.97,11.74-3.42,16.46,0.69c4.36,3.81,7.54,3.25,10.08-1.37
		c3.15-5.74,8.13-6.39,13.82-6.04c3.83,0.24,4.87,2.1,3.89,5.55c-0.11,0.38-0.23,0.77-0.32,1.15c-3.48,14.67,0.3,19.29,15.11,16.48
		c7.04-1.33,13.7-5.05,20.25-8.27c1.47-0.72,2.59-3.93,2.43-5.88c-0.38-4.78,0.77-7.31,5.95-8.4c12.44-2.62,22.25-9.56,29.58-19.93
		c0.99-1.4,1.85-3.15,2.04-4.82c0.5-4.44-1.82-6.33-5.68-4.19c-3.2,1.78-5.98,4.55-8.49,7.29c-5.66,6.17-7.82,6.62-14.76,2.24
		c-7.62-4.82-11.37-4.15-17.37,3.01c-1.5,1.79-3.11,3.49-4.68,5.25c-4.03-5.2-1.5-15.3,5.02-19.95c2.41,1.61,4.69,3.63,7.34,4.79
		c3.49,1.53,7.01,3.43,10.3-1.47c1.18-1.75,5.44-1.51,8.32-2.03c2.92-0.53,5.58-1.1,3.76-5.7c-5.62,4.37-10.42,2.07-15.4-1.07
		c-2.19-1.38-5.1-1.63-9.22-2.84c4.53-1.15,7.96-2.07,11.41-2.89c4.38-1.04,7.5-2.28,6.92-8.28c-0.83-8.57,4.11-11.63,12.01-8.91
		c13.26,4.57,14.51,1.6,21.15-11.34c7.17-13.99,6.87-29.41,5.21-44.62c-0.81-7.49-2.75-14.87-4.37-22.25
		c-0.28-1.27-1.56-2.33-2.38-3.48c-0.72,1.24-1.77,2.41-2.1,3.75c-0.47,1.91-0.97,4.1-0.49,5.92c2.53,9.64-1.31,17.83-4.77,26.46
		c-3.19,7.96-4.79,16.57-7.1,24.89c0.53,0.16,1.07,0.31,1.6,0.47c-0.32,0.18-0.8,0.59-0.93,0.5c-6.31-4.51-9.91-0.87-13.41,4.11
		c-1.11,1.58-3.29,2.4-4.99,3.58c-1.05-1.84-2.46-3.58-3.04-5.56c-0.67-2.26-0.47-4.76-0.89-7.11c-0.87-4.82-2.47-8.21-8.76-6.54
		c-5.66,1.5-12.76-2.95-16.42-9.83c8.28-2.49,16.4-4.93,24.51-7.38c-0.03-0.89-0.07-1.79-0.1-2.68c-2.83-0.49-5.65-1.1-8.5-1.43
		c-5.72-0.66-11.63-0.45-17.13-1.9c-7.96-2.09-13.28-7.97-16.68-15.32c-1.59-3.43-3.48-5.76-7.35-6.86c-2.91-0.83-5.44-3-8.08-4.53
		c1.95-2.03,3.43-3.58,5.75-6c3.41,0,8.16,0,13.54,0c-3.97-8.72-7.79-17.08-12.11-26.56c13.56-3.05,17.25,9.1,25.44,14.68
		c-4.13,3.57-5.24,6.76,0.73,9.5c2.07-3.14,4.1-6.29,6.18-9.39c4.97-7.39,9.33-8.34,16.89-3.7c10.42,6.39,11.28,8.04,8.13,16.24
		c-0.67-0.25-1.4-0.42-2.02-0.77c-7.29-4.05-12.1-3.13-15.17,2.95c-3.35,6.62-0.18,14.99,6.55,17.59c3.37,1.3,8.3,0.11,9.38,5.67
		c0.05,0.28,5.79,0.61,7.51-0.78c15.89-12.79,22.49-27.29,11.82-47.7c-1.36-2.6-3.86-4.6-6.59-6.44
		c2.79,10.92,9.16,20.98,4.91,32.78c0.41-11.88-1.67-22.7-10.64-31.47c-8.19-8-16.11-16.03-30.11-14.72c1.13,3.4,2.13,6.1,2.93,8.86
		c1.35,4.63-0.38,7.29-5.13,6.84c-3.23-0.3-6.63-1.47-9.45-3.11c-15.5-9-30.83-6.65-44.7,4.91c-26.82,22.36-25.49,58.85-16.18,82.4
		c1.09,2.75,1.24,5.87,1.06,9.05c-7.07-5.61-10.21-13.39-11.65-21.44c-4.91-27.37-2.07-53.82,18.58-74.08
		c25.17-24.7,65.43-34.33,98.39-8.29c19.66,15.52,26.83,36.67,30.76,59.59c5.59,32.59,1.01,64.16-12.47,94.25
		c-6.89,15.38-16.84,28.88-28.88,40.73c-1.09,1.07-2.58,1.74-4.05,2.7c-0.58-2.38-1.07-4.4-2.04-8.39c-2.1,3.08-3.98,4.68-4.35,6.58
		c-2.05,10.49-6.78,15.55-17.53,18.04c-3.42-5.04-3.42-5.04-8.24-3.7c1.18,1.66,2.22,3.11,3.73,5.22c-2.4,1.25-4.69,2.45-8.28,4.33
		c0.48-3.78,0.75-5.99,1.13-8.98c-5.11-1.12-11.34-0.87-15.17-3.79c-3.58-2.72-4.62-8.79-6.76-13.37
		c-3.83,2.96-4.06,9.23-0.28,13.76c1.41,1.68,3.17,3.07,4.55,4.77c3.46,4.28,2.64,6.77-2.86,9.27c-0.64-3.29-1.29-6.61-1.93-9.92
		c-0.75-0.1-1.49-0.2-2.24-0.3c-0.92,2.59-1.84,5.18-3.04,8.57c-0.39,0.06-1.9,0.29-3.85,0.59c-0.27-2.32-0.52-4.37-0.84-7.09
		c-7.37,9.7-16.34,7.05-25.32,4.4c-0.38-0.11-0.75-0.3-1.14-0.38c-16.4-3.43-25.42-13.11-25.83-30.23
		c-0.04-1.55-0.71-3.11-1.23-4.61c-0.24-0.69-0.83-1.26-1.84-2.73c-2.45,4.1-4.6,7.69-7.52,12.58c-3.06-7.88-5.7-14.69-8.34-21.5
		c-4.56,7.36-0.07,13.3,1.26,19.64c-2.51-0.49-4.92-0.96-8.82-1.72c2.43,4.41,4.02,7.29,5.61,10.18
		c-8.17,4.43-16.15-4.12-17.75-18.88c0.22-0.19,0.56-0.69,0.81-0.65c7.08,1.11,10.73-1.38,10.21-9.05c-0.11-1.59,1.2-3.34,2.05-4.92
		c2.5-4.63,3.78-8.89-2.08-12.21c-0.92-0.52-1.05-2.46-1.54-3.75c0.47-0.39,0.95-0.77,1.42-1.16c2.25,1.58,4.49,3.17,7.16,5.05
		c0.59-1.03,1.28-2.25,2.5-4.38c3.1,7.82,5.98,15.07,9.28,23.39c2.76-3.23,4.76-5.56,6.77-7.91c0.37,0.13,0.79,0.18,1.06,0.4
		c4.81,3.85,11.64,6.83,13.81,11.83c2.11,4.86-1.58,11.94-0.81,17.79c0.68,5.23,2.91,11.18,6.48,14.8
		c2.35,2.39,8.31,1.23,12.65,1.66c0.17-4.35,0.89-8.78,0.29-13.02C296.51,546.69,294.14,544.3,292.56,541.6z M354.24,413.17
		c3.74,5.54,24.46,6.28,29.84,0.42c-15.15,3.04-20.28-6.15-22.78-18.59c-0.67,0.34-1.34,0.68-2.01,1.03c0,5.07,0,10.14,0,15.43
		C357.5,412.06,355.92,412.6,354.24,413.17z M363.26,343.41c-1.53-1.63-2.54-2.71-3.56-3.8c-1.34,1.63-3.49,3.14-3.77,4.94
		c-0.23,1.5,1.73,3.34,2.72,5.02C360.06,347.7,361.46,345.82,363.26,343.41z M405.02,433.52c-2.87-2.25-4.72-3.99-6.88-5.15
		c-0.51-0.27-2.09,1.46-3.18,2.27c1.9,2.06,3.72,4.2,5.81,6.04C400.96,436.87,402.79,435.2,405.02,433.52z M409.22,495.42
		c-0.09,1.04-0.18,2.07-0.28,3.11c2.49,0.83,4.98,1.65,7.47,2.48c-0.29-1.96,0.07-4.97-1.02-5.63
		C413.91,494.47,411.33,495.33,409.22,495.42z"/>
	<path class="st0" d="M26.08,487.51c-2.22,59.55-3.32,119.1,0.48,179.09c7.16,0.54,13.88,1.35,20.62,1.51
		c32.96,0.78,65.92,1.72,98.89,1.92c21.56,0.13,43.13-0.84,64.69-1.52c1.74-0.06,3.43-1.73,5.14-2.65
		c-1.46-1.19-2.92-2.38-3.87-3.14c6.96,0.45,15.1,0.95,23.24,1.51c0.94,0.07,2.55,0.34,2.66,0.8c1.65,6.81,6.81,3.89,10.76,3.91
		c44.18,0.26,88.36,0.46,132.54,0.66c38.35,0.17,76.71,0.32,115.06,0.49c0.79,0,1.59,0,2.39,0.56c-2.17,0-4.34-0.01-6.51,0
		c-96.15,0.43-192.31,0.86-288.46,1.28c-37.99,0.17-75.98,0.62-113.97,0.4c-21.92-0.13-43.84-1.34-66.55-2.09
		c0-66.78,0-132.8,0-200.41c5.38,10.51,9.86,19.72,14.73,28.72c19.3,35.67,44.27,67.02,74.5,93.87
		c36.82,32.7,78.95,55.48,128.31,62.56c28.49,4.08,57.04,2.25,85.35-2.51c43.27-7.27,82.8-23.55,117.91-50.05
		c3.48-2.62,5.56-3.04,9.62-0.24c19.5,13.4,52.04,14.71,72.33-3.83c22.43-20.5,35.23-45.64,40.6-74.83
		c6.66-36.15,6.82-72.33-3.53-107.94c-7-24.08-19.68-45.17-35.46-64.62c-22.85-28.16-50.67-49.69-83.91-63.99
		c-12.8-5.51-26.37-9.21-39.21-14.63c-6.08-2.57-11.4-7.09-16.8-11.07c-1.83-1.35-3.93-3.73-4.04-5.73
		c-0.23-4.12-0.18-8.89,1.75-12.24c0.96-1.66,7.03-2.07,9.59-0.74c4.73,2.47,8.76,6.44,12.65,10.23c0.92,0.89,0.71,3.92-0.1,5.29
		c-0.63,1.06-3.48,1.93-4.57,1.37c-4.62-2.38-8.95-5.33-13.99-8.43c-0.88,4.76,1.06,8.36,5.27,10.36
		c13.69,6.48,27.22,13.46,41.39,18.71c14.95,5.54,28.74,12.77,41.91,21.62c21.64,14.54,41.5,30.97,58.56,50.8
		c16.43,19.1,26.14,41.06,30.76,65.72c5.99,31.97,9.55,64.01,5.56,96.5c-3.04,24.7-10.02,48.13-25.03,68.36
		c-6.86,9.24-14.41,18.15-25.33,23.25c-1.47,0.68-2.26,2.81-3.36,4.27c1.62,0.64,3.19,1.61,4.87,1.87
		c6.11,0.96,12.24,1.76,18.38,2.46c3.76,0.43,7.56,0.86,11.32,0.73c4.69-0.17,8.02-2.67,10.65-7.93c-3.03-0.28-5.27-0.03-7.11-0.76
		c-2.42-0.96-5.73-2.26-6.45-4.22c-0.87-2.39-0.26-6.14,1.16-8.37c3.76-5.91,13.8-5.81,17.56,0.08
		c6.93,10.87,5.66,29.98-13.41,30.99c-2.3,0.12-4.56,0.94-8.07,1.71c3.52,5.43,6.43,10.04,9.45,14.58
		c2.75,4.13,5.81,9.42,2.29,13.04c-2.32,2.39-8.45,1.94-12.68,1.35c-3.29-0.46-6.33-3.02-9.37-4.83c-2.35-1.4-4.23-2.66-6.74,0.1
		c-8.9,9.78-19.18,12.48-31.21,7.1c-8.13-3.63-15.48-8.98-23.3-13.34c-7.63-4.26-15.05-9.38-23.24-11.96
		c-5.85-1.85-13.02-1.07-19.23,0.25c-6.58,1.4-7.79,10.25-2.38,15.32c0.97-1.51,1.57-3.58,2.89-4.26c3.51-1.83,7.28-3.88,11.06-4.1
		c1.39-0.08,4.03,4.58,4.38,7.3c0.55,4.15-1.51,7.65-5.91,9.35c-6.67,2.58-16.31,0.73-19.1-3.89c-4.44-7.35-3.33-19.92,2.82-24.32
		c7.19-5.15,14.95-9.62,24.39-5.88c12.4,4.92,24.99,9.47,37.05,15.12c8.94,4.19,8.67,4.85,15.7-3.02c3.48,1.5,7.07,3.15,10.74,4.62
		c6.58,2.64,11.8,1.1,14.44-4.14c2.91-5.77,1.51-9.57-5.01-13.86c-8.58-5.65-18.28-4.46-27.4-3.26c-16.01,2.1-30.5-0.56-44.08-9.31
		c-1.85-1.19-5.5-1.35-7.45-0.33c-6.86,3.61-13.74,7.41-19.9,12.08c-20.43,15.49-43.91,24.07-68.19,30.87
		c-33.28,9.33-67.26,11.68-101.48,8.11c-47.29-4.94-90.96-20.31-129.42-48.76c-20.49-15.16-38.24-33.37-52.78-54.28
		c-14.9-21.42-28.69-43.61-42.98-65.46c-0.95-1.45-2.03-2.82-3.06-4.22C27.27,487.24,26.67,487.37,26.08,487.51z"/>
	<path class="st0" d="M426.88,138.15c-3.18,2.78-6.36,5.56-9.5,8.3c10.75,8.75,40.85,2.3,43.31-10.06
		c-2.34,0.48-4.42,1.26-6.48,1.22c-1.9-0.04-3.78-0.96-5.67-1.49c0.77-2.24,0.86-5.38,2.43-6.55c7.3-5.47,10.93-4.87,16.47,2.16
		c2.41,3.06,4.66,3.69,8.09,1.41c2.92-1.94,6.33-3.17,9.87-3.93c-12.26,16.87-29.25,23.91-49.36,24.29
		c-19.59,0.37-38.5-3.95-57.22-8.99c-46.11-12.42-92.8-16.38-140.05-8.86c-45.47,7.23-87.1,23.95-123.77,52.41
		c-33.02,25.62-57.75,57.66-75.28,95.39c-5.85,12.6-10.99,25.53-16.66,38.8c0-6.65,0-12.89,0-16.82c3.39-4.77,6.19-7.82,7.98-11.39
		c7.12-14.21,13.93-28.59,20.82-42.91c0.38-0.79,0.48-1.72,1.19-4.33c-2.69,1.81-4.06,2.66-5.36,3.62
		c-6.44,4.79-13.8,3.36-15.68-4.13c-1.32-5.27-0.25-11.28,0.55-16.84c0.21-1.42,3.58-3.48,5.28-3.29c1.7,0.19,3.24,2.74,4.59,4.46
		c0.53,0.68,0.37,1.93,0.47,2.92c0.82,7.69-0.34,8.69-9.64,5.89c1.87,3.36,2.73,6.81,4.17,7.07c2.66,0.48,6.7,0.07,8.33-1.68
		c6.75-7.25,8.5-16.17,5.49-25.61c-2.79-8.73-6.36-17.2-9.2-25.91c-1.28-3.92-1.81-8.13-2.36-12.25c-0.57-4.29,1.84-6.42,5.92-6.42
		c4.05,0,7.02,1.66,7.1,6.28c0.04,1.99-0.4,4.05-0.04,5.97c0.25,1.31,1.51,2.44,2.32,3.64c1-0.82,2.72-1.51,2.89-2.48
		c0.85-4.82,1.49-9.7,1.8-14.58c0.14-2.27-0.65-4.59,0-6.89c13.22,25.94,7.44,50.99-4.83,75.72c0.41,0.28,0.82,0.55,1.23,0.83
		c1.31-1.17,2.87-2.16,3.88-3.55c14.11-19.33,30.96-35.91,49.91-50.47c26.75-20.56,55.22-38.09,87.71-47.99
		c24.72-7.53,50.12-11.38,76.02-12.05c39.36-1.01,78.11,3.64,116.53,11.75c4.01,0.85,7.33,0.25,11.36-1.17
		c7.5-2.65,15.68-3.38,23.57-4.92C425.66,135.87,426.27,137.01,426.88,138.15z"/>
	<path class="st0" d="M163.02,658.65c5.82-3.19,6.67-7.83,2.32-11.88c-5.41-5.04-12.52-6.3-19.06-5.07
		c-12.24,2.31-24.17,6.23-36.28,9.27c-6.53,1.64-13.13,3.49-19.77,3.9c-2.74,0.17-5.69-3.22-8.55-4.99
		c1.87-2.77,3.29-6.06,5.74-8.18c2.9-2.51,6.62-3.59,10.32-0.59c1.49,1.21,3.36,1.96,5.06,2.93c0.63-1.17,2.06-2.71,1.73-3.44
		c-0.9-1.98-2.39-4.98-3.93-5.16c-5.39-0.64-10.98-0.86-16.33-0.08c-4.95,0.72-9.69,2.91-15.3,3.36c0.73-0.87,1.3-2.01,2.22-2.57
		c27.3-16.83,70.15-14.83,95.61,4.89c3.31,2.56,5.13,7.24,7.15,11.19c0.69,1.34,0.38,3.74-0.38,5.17
		c-2.98,5.65-8.62,6.42-14.24,7.26c-5.14,0.76-9.03-1.18-11.93-5.17c-2.84-3.9-0.84-6.99,2.56-8.98c5.76-3.38,9.98-1.49,11.91,4.89
		C162.18,656.47,162.61,657.52,163.02,658.65z"/>
	<path class="st0" d="M36.01,543.73c3.57,1.61,6.35,1.97,7.39,3.51c2.01,2.98,2.27,7.02-1.46,8.8c-2.05,0.98-5.9,0.59-7.7-0.8
		c-4.07-3.13-5.26-13.03-1.85-18.42c1.69-2.67,5.7-4.13,8.94-5.45c1.26-0.51,3.67,0.4,4.91,1.44
		c12.12,10.19,21.49,22.23,22.16,38.76c0.48,11.7,0.59,23.54-0.72,35.15c-0.76,6.79-4.63,13.23-7.11,19.83
		c-0.82-0.3-1.64-0.59-2.46-0.89c0.77-2.34,1.58-4.68,2.3-7.04c2.44-7.94,4.34-15.92-0.32-23.72c-2.32-3.88-6.13-4.54-9.94-3.03
		c-3.31,1.31-4.68,4.08-2.57,8.54c2.11-1.4,3.95-2.63,6.49-4.32c1.78,5.64,4.19,11.04,0.98,16.57c-1.2,2.07-4.01,4.29-6.18,4.39
		c-2.11,0.1-5.08-1.94-6.39-3.9c-3.93-5.84-4-12.64-1.89-19.02c2.81-8.5,6.65-16.66,9.8-25.06c3.59-9.57,4.91-19.28-2.55-27.59
		c-1.73-1.93-5.97-2.36-8.94-2.09C37.54,539.53,36.47,542.99,36.01,543.73z"/>
	<path class="st0" d="M71.88,153.1c5.05,1.75,9.98,4.05,15.17,5.11c4.99,1.02,10.29,1.33,15.36,0.86c3.76-0.35,6.95-2.42,6.72-7.55
		c-0.24-5.38-3.87-5.65-7.94-6.91c-0.19,1.92-0.42,3.23-0.43,4.54c-0.02,3.61-1.6,5.21-5.27,4.28c-0.97-0.24-1.94-0.48-2.92-0.68
		c-3.17-0.64-7.5,0.07-7.37-4.99c0.12-4.61,3.32-7.96,7.44-8.1c5.85-0.2,11.87,0.73,17.62,2.05c7.96,1.82,15.61,5.01,23.6,6.57
		c9.33,1.83,18.61,1.65,26.74-4.9c3.62-2.92,4.42-5.86,2.38-9.8c-2.18-4.22-5.54-3.66-9.29-2.52c4.01,7.5,2.98,10.85-3.39,10.51
		c-3.15-0.17-6.19-2.44-9.28-3.76c1.58-2.95,2.46-7.43,4.87-8.52c4.99-2.24,10.92-3.93,16.22-3.41c3.44,0.34,8.35,4.54,9.14,7.83
		c0.8,3.34-1.61,8.89-4.45,11.41c-15.76,14.04-34.3,21.99-55.67,21.4C96.85,166.12,83.31,162.4,71.88,153.1z"/>
	<path class="st0" d="M40.7,117.33c178.85,0,357.7,0,536.54,0c0.04,0.55,0.09,1.11,0.13,1.66c-1.47,0.17-2.93,0.48-4.4,0.49
		c-31.38,0.28-62.76,0.75-94.14,0.72c-44.37-0.05-88.74-0.54-133.1-0.72c-30.17-0.12-60.33,0.04-90.5-0.06
		c-71.16-0.23-142.33-0.54-213.49-0.84c-0.35,0-0.7-0.26-1.05-0.4C40.69,117.9,40.69,117.61,40.7,117.33z"/>
	<path class="st0" d="M31.05,125.71c10.58,0,20.08-0.27,29.53,0.24c1.77,0.1,3.37,3.32,5.05,5.1c-1.58,1.45-2.93,3.54-4.79,4.23
		c-6.25,2.33-6.56,3.05-1.99,7.8c0.41,0.43,0.85,0.84,1.26,1.27c2.58,2.75,6.6,5.97,3.79,9.55c-2.37,3.02-6.98,4.88-10.94,5.79
		c-1.78,0.41-4.49-2.63-6.57-4.35c-1.39-1.15-2.43-2.73-3.63-4.12c-1.2,1.45-2.43,2.89-3.59,4.38c-0.35,0.46-0.35,1.24-0.76,1.6
		c-1.4,1.23-2.91,2.33-4.38,3.48c-1-1.55-2.82-3.08-2.86-4.66C30.92,146.11,31.05,136.2,31.05,125.71z M47.24,139.59
		c-0.58-5.9-1.8-9.62-6.59-9.7c-4.36-0.07-6.13,2.89-6.3,7.09c-0.26,6.04,4.26,6.2,8.07,6.01
		C44.32,142.89,46.12,140.43,47.24,139.59z"/>
	<path class="st0" d="M323.92,381.83c0.24,2.01,0.45,3.77,0.67,5.65c-0.8,0-1.82,0.18-2.75-0.03c-4.92-1.09-9.08-0.86-10.45,5.2
		c-1.26,5.62,1.47,12.17,6.91,13.7c5.23,1.47,10.86,1.5,16.46,2.18c1.29,8.22-0.2,9.84-8.67,8.35c-5.3-0.94-7.55,2.06-9.41,6.25
		c-1.51,3.39-3.09,6.9-5.4,9.75c-1.65,2.04-5.75,2.99-5.76-0.89c-0.01-10.89-6.34-21-2.98-32.35
		C305.62,389.27,312.59,382.71,323.92,381.83z"/>
	<path class="st0" d="M52.32,652c3.31,2.84,6.04,5.18,9.55,8.19c-10.33,7.14-20.74,1.91-30.97,3.5
		c-0.12-12.39-3.46-24.32,4.03-37.22c2.21,5.05,3.83,8.76,5.59,12.79c3.79-2.11,7.09-4.29,10.66-5.85c3.94-1.73,7.77-2.02,9.82,3.11
		c1.82,4.55,1.56,8.49-2.72,11.51C56.54,649.26,54.74,650.39,52.32,652z M33.41,652.13c0.04,5.21,4.08,5.91,7.78,6.18
		c5.13,0.38,6.84-3.13,7-7.63c0.16-4.39-3.87-8.78-7.93-8.75C36.08,641.97,33.55,645.74,33.41,652.13z"/>
	<path class="st0" d="M560.2,670.35c4.04-0.49,8.06-1.27,12.11-1.4c4.04-0.13,6.35-1.37,6.45-5.81c0.15-6.37,0.86-12.74,0.9-19.11
		c0.22-38.55,0.05-77.11,0.53-115.66c0.55-43.57,1.67-87.13,3.8-130.67c-0.78,43.27-1.59,86.54-2.32,129.8
		c-0.33,19.33-0.63,38.67-0.71,58.01c-0.12,27.75-0.03,55.5-0.03,83.68c-7.11,0.39-13.95,0.76-20.78,1.14
		C560.15,670.32,560.2,670.35,560.2,670.35z"/>
	<path class="st0" d="M328.48,254.91c1.31,0,2.66-0.22,3.91,0.04c5.22,1.08,8.58-0.59,11.03-5.58c2.99-6.08,4.38-6.15,9.95-2.47
		c6.5,4.29,10.83,3.15,14.28-3.73c1.03-2.06,2.07-4.12,3.22-6.42c4.34,7.51,1.95,14.7-6.01,18.84c-7.86,4.09-16.29,4.89-24.94,3.74
		c-3.96-0.52-7.86-1.45-11.79-2.2C328.25,256.4,328.36,255.66,328.48,254.91z"/>
	<path class="st0" d="M231.09,489.66c0.37,1.97,0.74,3.95,1.11,5.93c-1.61,0.08-3.23,0.3-4.83,0.22c-3.66-0.17-6.21,3.29-4.47,6.96
		c1.03,2.18,3.65,3.55,5.01,5.64c1.45,2.23,2.27,4.88,3.36,7.35c-2.91,1.12-6.02,3.53-8.68,3.11c-5.57-0.9-8.03-5.57-8.45-10.96
		C213.38,497.9,218.71,492.05,231.09,489.66z"/>
	<path class="st0" d="M23.66,271c0-50.76,0-101.51,0-152.7c3.48-0.26,6-0.46,8.52-0.65c-6.52,0.28-7.23,4.1-7.27,9.71
		c-0.26,37.92-0.89,75.83-1.35,113.75c-0.12,9.96-0.02,19.93-0.02,29.89C23.58,271,23.62,271,23.66,271z"/>
	<path class="st0" d="M96.67,604.9c-0.07,6-3.86,10.75-8.51,10.45c-4.41-0.29-7.05-2.58-7.22-7.18c-0.18-4.79,4.4-9.67,8.95-9.24
		C93.4,599.27,96.67,600.38,96.67,604.9z"/>
	<path class="st0" d="M583.75,255.71c1.16-39.83,2.33-79.66,3.49-119.49c0.42,0.01,0.83,0.02,1.25,0.03
		c-1.08,39.87-2.16,79.74-3.24,119.6C584.75,255.81,584.25,255.76,583.75,255.71z"/>
	<path class="st0" d="M78.55,182.39c3.99-2.27,6.12-4.33,8.45-4.61c3.65-0.43,7.08,1.45,7.02,5.6c-0.08,4.55-3.84,7.07-7.73,6.52
		C83.98,189.58,82.12,186.02,78.55,182.39z"/>
	<path class="st0" d="M585.16,332.81c0,15.46,0,30.93,0,46.39c-0.43-0.01-0.85-0.01-1.28-0.02c0-15.45,0-30.9,0-46.35
		C584.3,332.83,584.73,332.82,585.16,332.81z"/>
	<path class="st0" d="M399.1,657.26c-10.33,0.65-20.65,1.29-30.98,1.94c-0.05,0.58-0.1,1.17-0.15,1.75
		c0.85,0.68,1.69,1.37,3.08,2.48c-7.93,0-15.35,0-22.77,0c-0.01-0.18-0.02-0.37-0.04-0.55c2.76-0.25,5.57-0.28,8.28-0.79
		c3.17-0.6,7.28,0.98,8.92-3.82c0.28-0.82,2.9-1.15,4.45-1.17c9.72-0.1,19.45-0.05,29.17-0.05
		C399.08,657.11,399.09,657.18,399.1,657.26z"/>
	<path class="st0" d="M563.14,179.33c2.99,0.68,5.99,1.37,9.23,2.11c-10.56,3.91-12.01,3.3-14.15-6.72c6.29,0,12.37,0,18.45,0
		c0.06,0.39,0.12,0.78,0.18,1.17c-4.58,0.51-9.16,1.03-13.75,1.54C563.11,178.06,563.12,178.69,563.14,179.33z"/>
	<path class="st0" d="M267.54,574.67c1.58-2.46,3.04-4.72,4.58-7.11c0.19-0.06,0.73-0.38,0.9-0.25c3.03,2.47,6.02,5,9.01,7.51
		c-3.47,0.26-6.93,0.62-10.4,0.71C270.3,575.56,268.95,574.98,267.54,574.67z"/>
	<path class="st0" d="M552.1,346.11c-3.65-0.4-7.3-0.8-10.95-1.2c-0.01-0.62-0.01-1.24-0.02-1.87c3.3,0,6.6,0.03,9.91-0.01
		c3.98-0.05,7.96-0.32,11.93-0.21c3.84,0.1,7.09-0.32,8.02-4.91c0.07-0.34,1.26-0.46,2.09-0.73c-1.16,9.11-1.26,8.93-9.58,8.03
		c-3.73-0.41-7.62,0.56-11.43,0.9L552.1,346.11z"/>
	<path class="st0" d="M308.67,578.27c-6.22,0-12.44,0.13-18.64-0.13c-1.03-0.04-1.98-1.76-2.97-2.7c1.14-0.37,2.33-1.16,3.42-1.05
		c6.1,0.6,12.17,1.41,18.25,2.15C308.71,577.12,308.69,577.69,308.67,578.27z"/>
	<path class="st0" d="M128.52,131.23c-14.73,0-29.46,0-44.2,0c0-0.22,0-0.44,0-0.67c14.73,0,29.46,0,44.19,0
		C128.52,130.78,128.52,131.01,128.52,131.23z"/>
	<path class="st0" d="M199.11,124.2c14.66,0,29.32,0,43.98,0c-0.01,0.33-0.02,0.66-0.03,0.99c-14.63,0-29.25,0-43.88,0
		C199.15,124.85,199.13,124.52,199.11,124.2z"/>
	<path class="st0" d="M552.07,346.11c2.75,1.02,5.43,2.52,8.26,2.94c3.47,0.51,7.07,0.12,10.6,1.41c-8.3,0-16.6,0-24.91,0
		c-0.05-0.39-0.1-0.77-0.15-1.16c2.07-1.06,4.15-2.13,6.22-3.19C552.1,346.11,552.07,346.11,552.07,346.11z"/>
	<path class="st0" d="M560.15,670.32c-14.96,0-29.92,0-44.89,0c14.96,0,29.93,0,44.92,0.01
		C560.2,670.35,560.15,670.32,560.15,670.32z"/>
	<path class="st0" d="M191.13,135.95c-10.25,2.14-11.93,1.06-11.31-7.3c2.5,0.42,4.96,0.83,7.55,1.26c-1.33,0.91-2.54,1.73-5,3.41
		C185.95,134.39,188.37,135.12,191.13,135.95z"/>
	<path class="st0" d="M452.62,663.34c7.28,0,14.55,0,21.83,0c0,0.42,0,0.83,0,1.25c-7.32,0-14.64,0-21.96,0
		C452.53,664.17,452.58,663.76,452.62,663.34z"/>
	<path class="st0" d="M119.57,616.32c-5.61,0.26-11.23,0.52-17.41,0.81c4.14-4.16,6.88-4.45,17.22-2.32
		C119.44,615.31,119.51,615.82,119.57,616.32z"/>
	<path class="st0" d="M112.44,125.58c-11.22,0-22.43,0-33.65,0c0-0.11-0.01-0.22-0.01-0.33c11.22,0,22.43,0,33.65,0
		C112.44,125.36,112.44,125.47,112.44,125.58z"/>
	<path class="st0" d="M490.05,625.34c7.92,0,15.85,0,23.77,0c0,0.34,0,0.67,0.01,1.01c-7.86,0-15.73,0-23.59,0
		C490.17,626.02,490.11,625.68,490.05,625.34z"/>
	<path class="st0" d="M104.12,663.25c-10.47,0-20.94,0-31.42,0c0-0.13,0-0.25,0-0.38c10.47,0,20.95,0,31.42,0
		C104.12,662.99,104.12,663.12,104.12,663.25z"/>
	<path class="st0" d="M558.23,242.38c6.09,0,12.17,0,18.26,0c-0.01,0.59-0.03,1.18-0.04,1.77
		C570.35,241.43,564.19,247.64,558.23,242.38z"/>
	<path class="st0" d="M552.39,355.68c5.64,0,11.28,0,16.92,0c0.01,0.38,0.01,0.76,0.02,1.13c-5.64,0-11.28,0-16.92,0
		C552.41,356.43,552.4,356.06,552.39,355.68z"/>
	<path class="st0" d="M574.63,217.37c-4.72,0-9.43,0-14.15,0c-0.01-0.4-0.02-0.8-0.02-1.2c4.72,0,9.44,0,14.15,0
		C574.62,216.57,574.63,216.97,574.63,217.37z"/>
	<path class="st0" d="M85.67,623.3c-3.77,0-7.55,0-11.32,0c-0.06-0.3-0.11-0.6-0.17-0.9c3.74-0.56,7.48-1.12,11.22-1.67
		C85.49,621.58,85.58,622.44,85.67,623.3z"/>
	<ellipse class="st0" cx="358.39" cy="125.41" rx="17.26" ry="0.08"/>
	<path d="M309.84,486.35c0.51-6.49,0.5-12.48,1.55-18.28c1.43-7.92,6.78-12.14,14.65-13.68c8.31-1.62,15.59-0.16,21.17,6.46
		c9.88,11.72,6.96,28.08-6.57,35.59c-6.76,3.75-13.73,7.67-21.11,9.66c-15.73,4.25-28.87-3-40.98-11.95
		c-11.46-8.47-18.9-20.31-25.91-32.48c-16.53-28.69-33.8-56.96-49.63-86.03c-9.16-16.82-8.82-12.64,4.89-23.67
		c25.3-20.36,52.27-38.09,82.51-50.27c41.8-16.84,84.04-19.89,127.53-5.41c42.4,14.11,72.05,42.23,93.78,80.04
		c13.1,22.8,21.87,47.33,24.17,73.44c2.99,33.86,1.63,67.6-12.2,99.51c-5.36,12.36-12.69,23.64-23.4,32.09
		c-10.19,8.05-21.88,8.92-33.62,4.02c-9.35-3.9-12.81-12.66-15.2-21.76c-0.94-3.56-1.5-7.23-2.21-10.77
		c-8.59,8.2-16.47,16.35-24.99,23.75c-20.21,17.56-43.67,29.4-69.1,37.28c-52.04,16.14-104.46,15.3-156.73,1.62
		c-26.38-6.9-49.82-20.27-71.07-37.3c-41.03-32.89-69.25-75.22-89.24-123.26c-6.57-15.8-11.42-32.32-16.84-48.58
		c-0.77-2.31-0.87-5.16-0.33-7.54c9.84-43.84,23.63-86.26,46.6-125.19c20.14-34.13,45.18-64.14,79.43-84.74
		c31.1-18.71,65.25-30.09,101.32-34.85c44.2-5.83,87.62,0.09,130.84,9.23c17.69,3.74,34.89,10.09,53.54,9.24
		c16.35-0.75,32.05-3.4,47-10.13c1.42-0.64,2.87-1.22,5.21-2.21c1.75,7.6,3.09,14.81,5.09,21.83c7.29,25.53,14.22,51.18,22.58,76.36
		c2.37,7.15,9.06,12.91,14.02,19.1c0.59,0.73,2.87,0.56,4.18,0.18c3.44-1.02,6.7-2.65,10.15-3.57c7.88-2.1,13.85,1.05,16.64,8.45
		c3.06,8.15,0.67,15.27-6.72,18.79c-12.16,5.8-23.6,2.59-33.01-5.35c-19.67-16.59-38.47-34.21-57.78-51.23
		c-29.31-25.82-59.64-50.28-97.86-61.82c-56.06-16.93-108.01-8.25-154.19,28.11c-46.76,36.82-73.89,85.62-83.24,144.19
		c-8.65,54.12-2.48,106.51,25.34,154.18c31.83,54.54,79.55,86.38,143.9,88.04c36.79,0.95,72-6.85,101.61-31
		c22.63-18.46,39.36-40.9,47.74-69.38c7.33-24.88,10.56-50.16,7.81-75.81c-4.24-39.56-19.55-73.83-53.4-97
		c-24.24-16.59-51.28-18.95-79.22-10.86c-24.49,7.09-40.55,24.05-51.14,46.33c-14.79,31.13-15.6,62.8-0.95,94.33
		c6.53,14.06,17.34,24.24,31.09,31.22C301.61,487.4,305.99,489.14,309.84,486.35z M530.55,473.39c-0.98-11.13-1.4-22.34-3.05-33.37
		c-4.89-32.76-18.53-61.77-39.5-87.24c-17.63-21.4-39.67-36.63-65.8-46.31c-26.91-9.97-54.32-13.01-82.49-7.84
		c-46.62,8.55-86.07,31.97-122.84,60.52c-12.04,9.35-11.65,9.82-4.05,22.78c12.2,20.79,24.31,41.65,36.59,62.39
		c7.1,12,13.53,24.56,21.91,35.62c14.74,19.46,33.45,26.36,57.05,17.94c8.74-3.11,15.35-8.52,17.58-18.02
		c1.25-5.33-3.43-13.29-8.96-15.51c-5.05-2.03-11.31,0.46-14.25,5.85c-3.02,5.53-0.88,10.39,2.22,15.09
		c4.55,6.9,2.82,10.63-5.36,11.4c-21.16,2-37.52-6.7-48.83-23.96c-20.38-31.09-28.47-64.29-15.27-100.77
		c12.98-35.89,50.36-69.12,93.2-66.83c47.93,2.56,95.25,37.65,108.39,84.19c6.23,22.08,9.27,44.27,8.05,67.39
		c-1.36,25.89-7.43,50.21-19.96,72.64c-16.51,29.58-41.18,50.57-72.14,64.04c-29.41,12.8-60.29,16.58-92.05,13.43
		c-26.82-2.65-52.25-9.7-74.65-25.37c-38.95-27.25-64.72-64.47-78.8-109.25c-17.61-56.02-16.75-112.21,4.19-167.5
		c17.32-45.71,46.5-82.42,87.87-108.22c43.66-27.23,91.34-32.12,140.7-18.72c38.17,10.37,68.76,34.04,98.17,59.09
		c18.53,15.78,35.72,33.14,54.14,49.06c6.82,5.89,15.13,10.35,23.34,14.23c6.51,3.07,14.02-1.39,15.05-8.13
		c0.33-2.2-1.01-5.47-2.71-6.87c-1.06-0.87-4.86,0.18-6.37,1.55c-6.18,5.6-6.21,5.7-12.87,0.61c-14.83-11.34-24.36-26.48-29.5-44.02
		c-5.77-19.69-10.15-39.78-15.27-59.66c-1.82-7.04-2.53-7.31-9.65-5.31c-23.89,6.73-48.11,7.62-72.39,3.09
		c-13.49-2.52-26.65-6.78-40.1-9.6c-34.98-7.33-70.22-10.19-105.95-6.32c-25.21,2.73-49.43,9.22-72.76,18.66
		c-43.75,17.71-75.28,49.58-99.34,89.24c-23.47,38.68-38.49,80.93-50.56,124.3c-0.5,1.78-0.47,4.01,0.11,5.76
		c6.31,18.89,11.75,38.14,19.42,56.47c15.08,36.06,36.59,68.31,64.1,96.03c23.51,23.69,50.48,42.63,82.81,53.08
		c27.21,8.8,54.97,13.67,83.55,13.16c23.68-0.42,46.85-4.41,69.56-11.26c25.12-7.57,46.8-20.98,66.17-38.34
		c9.07-8.13,17.63-16.81,26.68-24.97c7.26-6.54,14.75-4.03,17.29,5.54c0.61,2.31,0.73,4.75,1.29,7.07
		c1.03,4.25,1.83,8.61,3.42,12.64c2.96,7.52,12.18,10.7,19.37,7.13c16.93-8.41,27.15-22.5,33.4-39.8
		C528.5,518.64,529.2,496.03,530.55,473.39z"/>
	<path d="M299.58,232.54c0.32,2.41,1.08,4.39,0.7,6.12c-0.55,2.53-1.4,6.29-3.09,6.92c-1.9,0.71-6.34-0.79-7.15-2.52
		c-3.35-7.16-10.24-8.94-16.11-8.75c-10.59,0.34-21.13,2.87-31.63,4.8c-3.84,0.71-7.51,2.3-11.26,3.49
		c-0.32-0.43-0.63-0.86-0.95-1.29c1.38-1.21,2.57-2.84,4.17-3.55C255.49,228.37,277.41,227.94,299.58,232.54z"/>
	<path d="M242.02,280.53c-1.46,0.18-2.92,0.45-4.38,0.53c-4.38,0.25-8.34,0.68-6.1,6.92c0.34,0.95-0.44,2.99-1.31,3.49
		c-0.83,0.49-2.45-0.35-3.71-0.64c-0.17-0.04-0.31-0.25-0.43-0.41c-1.96-2.46-3.93-4.92-5.89-7.38c3.01-1.52,5.88-3.79,9.06-4.37
		c4.14-0.76,8.52-0.19,12.79-0.19C242.04,279.18,242.03,279.86,242.02,280.53z"/>
	<path d="M191.89,295.36c4.31-6.86,10.55-10.52,17.97-12.15c0.86-0.19,2.65,0.96,2.96,1.86c0.33,0.96-0.27,3.16-0.99,3.43
		C205.25,290.95,198.55,293.11,191.89,295.36z"/>
	<path d="M170.55,321.44c1.71-4.74,3.42-9.49,5.6-15.54C181.56,317.07,181.09,318.48,170.55,321.44z"/>
	<path d="M307.09,234.15c4.05,1.41,8.09,2.83,12.14,4.24c-0.25,0.75-0.5,1.49-0.75,2.24c-4.1-1.29-8.19-2.59-12.29-3.88
		C306.49,235.88,306.79,235.02,307.09,234.15z"/>
	<path d="M255.02,568.22c1.18-2.19,2.36-4.38,3.54-6.58c0.6,0.08,1.19,0.15,1.79,0.23c0.37,1.49,1.49,3.39,0.95,4.37
		c-0.86,1.55-2.84,2.47-4.34,3.66C256.31,569.35,255.66,568.78,255.02,568.22z"/>
	<path d="M354.24,413.17c1.68-0.57,3.26-1.11,5.06-1.71c0-5.29,0-10.36,0-15.43c0.67-0.34,1.34-0.68,2.01-1.03
		c2.5,12.43,7.63,21.63,22.78,18.59C378.7,419.45,357.98,418.71,354.24,413.17z"/>
	<path d="M363.26,343.41c-1.8,2.41-3.2,4.28-4.61,6.16c-0.99-1.69-2.95-3.53-2.72-5.02c0.28-1.8,2.43-3.3,3.77-4.94
		C360.72,340.7,361.73,341.78,363.26,343.41z"/>
	<path d="M405.02,433.52c-2.23,1.68-4.06,3.35-4.26,3.17c-2.09-1.84-3.91-3.99-5.81-6.04c1.09-0.81,2.67-2.54,3.18-2.27
		C400.3,429.53,402.15,431.28,405.02,433.52z"/>
	<path d="M409.22,495.42c2.11-0.1,4.69-0.96,6.17-0.04c1.08,0.67,0.73,3.67,1.02,5.63c-2.49-0.83-4.98-1.65-7.47-2.48
		C409.04,497.5,409.13,496.46,409.22,495.42z"/>
	<path d="M47.24,139.59c-1.12,0.84-2.91,3.3-4.83,3.4c-3.81,0.19-8.32,0.03-8.07-6.01c0.18-4.21,1.95-7.16,6.3-7.09
		C45.43,129.96,46.66,133.69,47.24,139.59z"/>
	<path d="M33.41,652.13c0.13-6.39,2.66-10.16,6.85-10.2c4.06-0.03,8.08,4.35,7.93,8.75c-0.16,4.5-1.87,8.01-7,7.63
		C37.5,658.04,33.45,657.34,33.41,652.13z"/>
	<path class="st0" d="M530.55,473.39c-1.35,22.64-2.05,45.25-9.85,66.82c-6.25,17.29-16.47,31.39-33.4,39.8
		c-7.19,3.57-16.41,0.39-19.37-7.13c-1.59-4.04-2.39-8.4-3.42-12.64c-0.56-2.33-0.68-4.76-1.29-7.07
		c-2.54-9.57-10.03-12.09-17.29-5.54c-9.04,8.15-17.61,16.84-26.68,24.97c-19.37,17.36-41.05,30.77-66.17,38.34
		c-22.71,6.85-45.87,10.84-69.56,11.26c-28.58,0.5-56.34-4.37-83.55-13.16c-32.33-10.45-59.3-29.39-82.81-53.08
		c-27.51-27.72-49.03-59.97-64.1-96.03c-7.66-18.33-13.11-37.59-19.42-56.47c-0.58-1.75-0.61-3.97-0.11-5.76
		c12.07-43.38,27.09-85.63,50.56-124.3c24.06-39.66,55.59-71.53,99.34-89.24c23.33-9.44,47.55-15.93,72.76-18.66
		c35.73-3.87,70.97-1.01,105.95,6.32c13.45,2.82,26.61,7.08,40.1,9.6c24.28,4.53,48.5,3.64,72.39-3.09c7.11-2,7.83-1.74,9.65,5.31
		c5.12,19.88,9.5,39.98,15.27,59.66c5.14,17.55,14.67,32.68,29.5,44.02c6.65,5.09,6.69,4.99,12.87-0.61
		c1.51-1.37,5.31-2.41,6.37-1.55c1.71,1.4,3.05,4.67,2.71,6.87c-1.03,6.74-8.54,11.21-15.05,8.13c-8.21-3.87-16.53-8.34-23.34-14.23
		c-18.42-15.92-35.61-33.28-54.14-49.06c-29.41-25.04-60-48.72-98.17-59.09c-49.36-13.4-97.04-8.51-140.7,18.72
		c-41.37,25.79-70.55,62.5-87.87,108.22c-20.94,55.29-21.8,111.48-4.19,167.5c14.08,44.78,39.85,82.01,78.8,109.25
		c22.41,15.67,47.83,22.72,74.65,25.37c31.77,3.14,62.64-0.64,92.05-13.43c30.95-13.47,55.62-34.46,72.14-64.04
		c12.53-22.44,18.59-46.76,19.96-72.64c1.22-23.12-1.82-45.31-8.05-67.39c-13.14-46.54-60.46-81.63-108.39-84.19
		c-42.84-2.29-80.21,30.95-93.2,66.83c-13.2,36.47-5.11,69.68,15.27,100.77c11.31,17.26,27.67,25.96,48.83,23.96
		c8.18-0.77,9.91-4.5,5.36-11.4c-3.1-4.7-5.24-9.56-2.22-15.09c2.94-5.39,9.2-7.88,14.25-5.85c5.53,2.22,10.22,10.18,8.96,15.51
		c-2.23,9.5-8.85,14.9-17.58,18.02c-23.6,8.41-42.31,1.51-57.05-17.94c-8.38-11.06-14.81-23.61-21.91-35.62
		c-12.28-20.75-24.39-41.6-36.59-62.39c-7.6-12.96-7.99-13.43,4.05-22.78c36.77-28.55,76.22-51.96,122.84-60.52
		c28.17-5.17,55.58-2.13,82.49,7.84c26.13,9.68,48.18,24.9,65.8,46.31c20.97,25.47,34.61,54.48,39.5,87.24
		C529.16,451.05,529.57,462.26,530.55,473.39z"/>
</g>
</svg>
