<?xml version="1.0" encoding="utf-8"?>
<!-- Generator: Adobe Illustrator 24.3.0, SVG Export Plug-In . SVG Version: 6.00 Build 0)  -->
<svg version="1.1" id="Layer_1" xmlns="http://www.w3.org/2000/svg" xmlns:xlink="http://www.w3.org/1999/xlink" x="0px" y="0px"
	 viewBox="0 0 612 792" style="enable-background:new 0 0 612 792;" xml:space="preserve">
<style type="text/css">
	.st0{fill:#FFFFFF;}
</style>
<g>
	<path class="st0" d="M559,645.93c-168.67,0-337.33,0-506,0c0-166.63,0-333.26,0-499.88c168.67,0,337.33,0,506,0
		C559,312.68,559,479.31,559,645.93z M486.6,572.58c-1.13-2.35-1.66-3.51-2.23-4.65c-8.96-17.83-17.88-35.68-26.94-53.46
		c-1.18-2.33-1.27-3.81,0.39-6.16c5.35-7.61,10.11-15.63,15.37-23.31c0.99-1.44,3.23-2.84,4.89-2.84c7.01-0.02,11.9-3.15,14.62-9.34
		c2.71-6.16,1.21-11.86-3.61-16.39c-1.93-1.81-1.92-3.17-1.32-5.55c2.62-10.47,5.2-20.98,7.15-31.59c0.67-3.67,1.83-5.29,5.39-6.43
		c19.26-6.19,38.42-12.7,58.6-19.43c-2.17-0.85-3.34-1.37-4.54-1.77c-18.01-5.96-36.01-11.98-54.08-17.77
		c-3.15-1.01-4.34-2.6-4.97-5.79c-2.35-11.88-5.17-23.67-7.57-35.54c-0.3-1.47,0.38-3.77,1.46-4.79c5.34-5.09,7.18-11.51,4.57-17.59
		c-2.68-6.24-8.55-9.85-15.69-8.96c-2.8,0.35-4-0.38-5.44-2.68c-5.12-8.17-10.65-16.08-15.78-24.24c-0.82-1.3-1.01-3.74-0.35-5.11
		c4.6-9.59,9.52-19.03,14.3-28.53c3.85-7.65,7.65-15.33,11.99-24.05c-2.21,1.08-3.34,1.62-4.46,2.18
		c-15.76,7.93-31.5,15.9-47.32,23.72c-1.36,0.67-3.73,1.05-4.8,0.33c-10.73-7.2-21.28-14.66-32.07-22.17
		c1.02-7.97-1.51-13.97-7.44-17.03c-6.46-3.33-12.28-1.86-19.24,4.49c-0.9,0.82-2.95,0.94-4.29,0.63
		c-7.94-1.82-15.82-3.94-23.75-5.79c-5.09-1.19-11.65-0.52-15.01-3.52c-3.45-3.09-3.84-9.63-5.52-14.67
		c-4.18-12.52-8.35-25.05-12.91-38.75c-0.66,1.87-0.92,2.57-1.16,3.28c-5.26,15.77-10.44,31.58-15.91,47.28
		c-0.61,1.74-2.68,3.79-4.42,4.19c-13.1,3.04-26.28,5.77-39.47,8.38c-1.51,0.3-3.8-0.25-4.86-1.3c-5.08-4.99-11.41-6.7-17.27-4.2
		c-6.37,2.72-9.3,8.04-9.14,15.62c0.03,1.52-1.1,3.64-2.36,4.51c-7.52,5.19-15.35,9.95-22.84,15.2c-2.29,1.61-3.83,1.65-6.17,0.41
		c-8.1-4.27-16.31-8.32-24.49-12.43c-9.73-4.89-19.47-9.75-30.44-15.24c8.18,16.17,15.25,31.37,23.48,45.91
		c4.63,8.18,6.08,14.88-1.77,21.48c-0.61,0.52-0.98,1.34-1.43,2.04c-4.48,6.94-8.95,13.89-13.37,20.75
		c-9.01-2.02-15.58,0.49-19.06,7.16c-3.65,6.97-1.6,12.97,6.46,20.58c-2.7,13.44-5.51,26.24-7.72,39.14
		c-0.57,3.31-1.56,4.84-4.69,5.85c-17.11,5.52-34.15,11.25-51.21,16.92c-1.35,0.45-2.67,0.98-5,1.85
		c19.37,6.43,37.65,12.57,55.99,18.52c3.2,1.04,4.61,2.47,5.25,6.04c1.96,10.77,4.5,21.45,7.09,32.09c0.64,2.62,1.05,4.31-1.44,6.41
		c-4.43,3.72-5.68,8.87-4.22,14.5c1.47,5.66,5.24,9.24,10.82,10.62c2.52,0.62,5.26,0.38,7.23,0.49c6.77,9.91,13.4,19.46,19.78,29.18
		c0.74,1.12,0.64,3.42,0,4.73c-5.77,11.8-11.76,23.49-17.67,35.23c-3.38,6.73-6.73,13.47-10.61,21.26c2.77-1.31,4.4-2.04,5.99-2.84
		c16.65-8.38,33.33-16.7,49.9-25.22c2.75-1.41,4.51-1.23,7.05,0.61c7.01,5.06,14.24,9.83,21.62,14.34c2.84,1.74,4.27,3.07,3.89,6.86
		c-0.84,8.52,6,15.22,14.64,15.47c6.16,0.17,10.1-3.45,12.79-6.7c14.27,2.81,27.64,5.32,40.93,8.2c1.6,0.34,3.47,2.37,4.04,4.03
		c5,14.45,9.73,29,14.54,43.52c1.58,4.76,3.16,9.51,5.09,15.28c0.69-1.69,0.96-2.24,1.15-2.81c6.15-18.63,12.33-37.25,18.38-55.91
		c0.91-2.8,2.13-4.07,5.33-4.69c11.25-2.19,22.36-5.12,33.58-7.49c1.68-0.36,4.09,0.27,5.47,1.34c4.95,3.84,10.25,4.99,15.9,2.43
		c5.57-2.51,8.59-6.96,8.93-13.32c0.09-1.69,1.53-3.84,2.99-4.85c8.07-5.58,16.45-10.71,24.45-16.38c2.57-1.82,4.28-1.96,7.03-0.56
		C447.76,553.27,466.55,562.57,486.6,572.58z"/>
	<path d="M486.6,572.58c-20.05-10.01-38.84-19.31-57.52-28.81c-2.76-1.4-4.46-1.27-7.03,0.56c-8,5.67-16.39,10.79-24.45,16.38
		c-1.46,1.01-2.9,3.15-2.99,4.85c-0.34,6.37-3.36,10.81-8.93,13.32c-5.65,2.55-10.96,1.41-15.9-2.43c-1.38-1.07-3.78-1.7-5.47-1.34
		c-11.22,2.37-22.33,5.3-33.58,7.49c-3.2,0.62-4.42,1.89-5.33,4.69c-6.05,18.66-12.23,37.28-18.38,55.91
		c-0.19,0.58-0.46,1.13-1.15,2.81c-1.92-5.78-3.51-10.53-5.09-15.28c-4.81-14.52-9.54-29.06-14.54-43.52
		c-0.57-1.65-2.44-3.68-4.04-4.03c-13.29-2.87-26.66-5.39-40.93-8.2c-2.69,3.25-6.63,6.87-12.79,6.7
		c-8.64-0.24-15.48-6.94-14.64-15.47c0.38-3.79-1.05-5.12-3.89-6.86c-7.38-4.5-14.61-9.28-21.62-14.34
		c-2.54-1.83-4.3-2.02-7.05-0.61c-16.58,8.52-33.25,16.84-49.9,25.22c-1.59,0.8-3.22,1.53-5.99,2.84
		c3.88-7.79,7.23-14.53,10.61-21.26c5.9-11.73,11.89-23.43,17.67-35.23c0.64-1.3,0.74-3.6,0-4.73
		c-6.38-9.71-13.01-19.26-19.78-29.18c-1.98-0.11-4.71,0.13-7.23-0.49c-5.58-1.38-9.35-4.95-10.82-10.62
		c-1.46-5.63-0.21-10.78,4.22-14.5c2.49-2.1,2.08-3.79,1.44-6.41c-2.59-10.65-5.13-21.32-7.09-32.09c-0.65-3.56-2.06-5-5.25-6.04
		c-18.34-5.95-36.62-12.09-55.99-18.52c2.33-0.86,3.65-1.4,5-1.85c17.06-5.67,34.1-11.4,51.21-16.92c3.13-1.01,4.13-2.54,4.69-5.85
		c2.21-12.91,5.02-25.71,7.72-39.14c-8.06-7.61-10.11-13.6-6.46-20.58c3.49-6.67,10.05-9.18,19.06-7.16
		c4.43-6.87,8.9-13.81,13.37-20.75c0.45-0.7,0.81-1.52,1.43-2.04c7.85-6.6,6.39-13.3,1.77-21.48c-8.23-14.54-15.3-29.75-23.48-45.91
		c10.96,5.49,20.71,10.35,30.44,15.24c8.18,4.11,16.39,8.16,24.49,12.43c2.34,1.23,3.88,1.19,6.17-0.41
		c7.48-5.25,15.31-10.01,22.84-15.2c1.26-0.87,2.39-2.99,2.36-4.51c-0.16-7.58,2.77-12.9,9.14-15.62c5.86-2.5,12.19-0.79,17.27,4.2
		c1.06,1.04,3.35,1.59,4.86,1.3c13.2-2.61,26.37-5.34,39.47-8.38c1.74-0.4,3.82-2.45,4.42-4.19c5.47-15.7,10.64-31.5,15.91-47.28
		c0.24-0.71,0.5-1.41,1.16-3.28c4.56,13.7,8.72,26.23,12.91,38.75c1.69,5.04,2.07,11.58,5.52,14.67c3.35,3.01,9.91,2.34,15.01,3.52
		c7.94,1.85,15.81,3.97,23.75,5.79c1.34,0.31,3.39,0.19,4.29-0.63c6.97-6.35,12.79-7.83,19.24-4.49c5.94,3.07,8.47,9.06,7.44,17.03
		c10.79,7.51,21.34,14.97,32.07,22.17c1.07,0.72,3.43,0.34,4.8-0.33c15.82-7.82,31.56-15.79,47.32-23.72
		c1.12-0.56,2.25-1.1,4.46-2.18c-4.34,8.72-8.14,16.4-11.99,24.05c-4.78,9.5-9.7,18.94-14.3,28.53c-0.66,1.37-0.47,3.81,0.35,5.11
		c5.12,8.16,10.66,16.07,15.78,24.24c1.44,2.3,2.64,3.03,5.44,2.68c7.14-0.89,13.01,2.72,15.69,8.96
		c2.61,6.08,0.77,12.51-4.57,17.59c-1.08,1.02-1.75,3.32-1.46,4.79c2.4,11.87,5.22,23.66,7.57,35.54c0.63,3.19,1.82,4.78,4.97,5.79
		c18.07,5.79,36.06,11.81,54.08,17.77c1.21,0.4,2.37,0.92,4.54,1.77c-20.18,6.73-39.34,13.24-58.6,19.43
		c-3.56,1.14-4.72,2.76-5.39,6.43c-1.94,10.61-4.52,21.12-7.15,31.59c-0.6,2.38-0.61,3.74,1.32,5.55
		c4.82,4.53,6.33,10.23,3.61,16.39c-2.73,6.19-7.62,9.33-14.62,9.34c-1.67,0-3.91,1.41-4.89,2.84c-5.26,7.68-10.02,15.7-15.37,23.31
		c-1.66,2.36-1.57,3.84-0.39,6.16c9.05,17.78,17.98,35.63,26.94,53.46C484.94,569.07,485.47,570.23,486.6,572.58z M381.64,351.45
		c18.32,18.91,36.64,37.83,55.75,57.56c0-48.82,0-96.16,0-144.03c-47.17,0-94,0-141.81,0c16.24,16.36,31.74,31.98,47.24,47.6
		c-30.45-16.77-62.82-22.28-96.38-13.81c-33.92,8.56-60.11,28.68-77.22,59.56c-30.61,55.25-17.12,124.31,39.53,164.33
		c21.85,15.44,48.21,21.5,75.39,20c27.2-1.51,51.58-10.77,72.57-28.51C402.89,475.11,416.41,407.62,381.64,351.45z"/>
	<path class="st0" d="M381.64,351.45c34.77,56.17,21.25,123.65-24.93,162.68c-20.99,17.74-45.37,27-72.57,28.51
		c-27.18,1.51-53.54-4.56-75.39-20c-56.64-40.01-70.14-109.07-39.53-164.33c17.11-30.88,43.3-51,77.22-59.56
		c33.56-8.47,65.93-2.96,96.38,13.81c-15.5-15.62-31-31.23-47.24-47.6c47.81,0,94.64,0,141.81,0c0,47.88,0,95.22,0,144.03
		C418.28,389.28,399.96,370.37,381.64,351.45z M344.62,347.62c0.18-0.3,0.37-0.59,0.55-0.89c-3.17-2.29-6.25-4.72-9.54-6.83
		c-22.47-14.47-47.3-19-73.52-16.57c-18.41,1.71-35.38,7.6-49.71,19.82c-0.75,0.64-1.28,1.53-2.33,2.82
		C255.47,346.53,300.05,347.08,344.62,347.62z M346.21,492.63c-45.58-0.59-90.26-1.16-136.03-1.75
		C245.4,523.26,314.75,524.02,346.21,492.63z M349.53,486.77c33.06-36.66,32.49-106.52,1.59-135.45
		C350.6,396.26,350.07,440.87,349.53,486.77z M204.7,487.49c0.54-45.54,1.08-90.27,1.63-136.18
		C172.76,390.39,174.43,457.83,204.7,487.49z"/>
	<path d="M344.62,347.62c-44.57-0.55-89.15-1.09-134.54-1.65c1.05-1.29,1.58-2.18,2.33-2.82c14.32-12.22,31.3-18.11,49.71-19.82
		c26.21-2.43,51.04,2.1,73.52,16.57c3.28,2.11,6.36,4.55,9.54,6.83C344.99,347.03,344.8,347.33,344.62,347.62z"/>
	<path d="M346.21,492.63c-31.46,31.38-100.81,30.63-136.03-1.75C255.96,491.47,300.63,492.05,346.21,492.63z"/>
	<path d="M349.53,486.77c0.54-45.9,1.07-90.52,1.59-135.45C382.02,380.25,382.59,450.11,349.53,486.77z"/>
	<path d="M204.7,487.49c-30.27-29.66-31.94-97.1,1.63-136.18C205.78,397.22,205.24,441.95,204.7,487.49z"/>
</g>
</svg>
