<?xml version="1.0" encoding="utf-8"?>
<!-- Generator: Adobe Illustrator 24.3.0, SVG Export Plug-In . SVG Version: 6.00 Build 0)  -->
<svg version="1.1" id="Layer_1" xmlns="http://www.w3.org/2000/svg" xmlns:xlink="http://www.w3.org/1999/xlink" x="0px" y="0px"
	 viewBox="0 0 612 792" style="enable-background:new 0 0 612 792;" xml:space="preserve">
<style type="text/css">
	.st0{fill:#FFFFFF;}
</style>
<g>
	<path class="st0" d="M56,414c0-94.33,0-188.67,0-283c166.67,0,333.33,0,500,0c0,95.33,0,190.67,0,286
		c-0.97-8.58-1.81-17.18-2.95-25.74c-5.45-41.11-18.61-79.44-42.75-113.4c-41.05-57.75-98.16-91.07-165.99-107.7
		c-0.96-0.24-2.03-0.03-3.07-0.03c5.87,7.24,11.88,13.93,17.04,21.23c5.12,7.23,9.38,15.08,14.01,22.65
		c-0.37,0.33-0.73,0.66-1.1,0.98c-5.46-2.39-10.92-4.78-17.29-7.57c4.41,12.41,8.56,23.62,12.32,34.96
		c1.25,3.79,3.27,5.88,6.94,7.58c26.81,12.37,51.49,27.77,71.48,50.04c62.78,69.95,57.14,159.84,23.64,214.87
		c-14.28,23.45-30.79,44.93-53.2,60.97c-58.89,42.13-123.47,47.57-190.23,24.57c-50.26-17.32-87.6-51.49-112.54-98.9
		c-12.12-23.03-18.11-46.81-12.18-72.7c2.33-10.17,4.91-20.28,7.37-30.42c-0.38-0.4-0.77-0.8-1.15-1.2
		c-2.86,3.43-5.55,7.03-8.65,10.23c-1.25,1.29-3.39,1.7-5.12,2.52c-0.57-1.8-1.76-3.66-1.59-5.38c0.58-5.95,1.34-11.92,2.57-17.77
		c8.84-41.81,32.3-74.48,65.96-99.33c49.87-36.82,105.1-47.04,164.6-27.29c36.06,11.97,66.36,32.23,87.56,64.61
		c11.49,17.54,17.92,36.86,20.88,58.37c-5.95-3.47-11.06-8.57-18.01-6.38c5.47,6.08,11.56,11.31,15.59,17.81
		c3.45,5.56,5.83,12.49,6.33,18.99c0.56,7.32-1.2,14.9-2.51,22.26c-12,67.73-75.59,126.62-154.3,115.13
		c-9.56-1.39-18.94-3.98-28.41-6.01c0.11-0.74,0.21-1.48,0.32-2.21c15.79,0.62,31.59,1.25,48.01,1.9
		c-1.55-10.61-2.71-20.72,1.22-30.5c4.42-10.97,13.64-14.54,24.9-15.33c-6.18-4.91-16.22-7.31-25.52-6.4
		c-14.2,1.38-26.81,7.12-39.37,13.51c-8.2,4.18-17.19,6.85-25.91,9.94c-3.25,1.15-6.83,1.32-10.12,2.37
		c-11.27,3.6-22,2.69-32.23-3.38c-10.15-6.03-17.49-14.78-23.69-24.61c-1.84-2.91-3.55-5.89-5.32-8.83
		c0.8,7.25,2.32,14.22,4.54,20.95c8.9,26.98,20.33,52.45,42.38,71.78c26.84,23.52,57.19,37.66,93.6,35.78
		c7.68-0.4,15.3-2.11,22.95-3.22c-8.42-3.17-13.1-5.61-18.21-12.66c-4.27-5.89-7.43-12.56-11.35-18.72
		c-0.83-1.31-2.85-2.72-4.26-2.66c-17.11,0.71-31.1-7.03-44.71-15.95c1.51-0.04,2.92,0.27,4.3,0.66
		c25.64,7.31,51.45,10.23,77.97,4.75c36.46-7.53,67.91-23.09,90.63-53.7c6.24-8.41,14.05-15.18,23.83-19.26
		c3.66-1.53,7.58-2.41,11.39-3.59c-2.08-0.93-4.1-1.05-6.09-0.9c-2.21,0.16-4.41,0.57-6.61,0.86c-0.1-2.38-0.92-5.02-0.17-7.09
		c2.42-6.71,5.6-13.15,8.14-19.82c8.81-23.11,10.04-47.06,7.51-71.37c-0.21-1.98-0.28-4.14-1.15-5.85
		c-4.7-9.21-4.35-19.02-3.76-28.86c0.3-5.08,0.98-10.13,1.64-16.6c-1.6,2.74-2.3,4.43-3.44,5.75c-1.13,1.31-2.76,3.15-4.06,3.07
		c-1.27-0.08-2.8-2.12-3.5-3.63c-1.6-3.46-2.28-7.4-4.18-10.66c-17.28-29.71-38-56.34-67.85-74.63
		c-29.78-18.26-62.49-27.03-97.03-29.5c-10.12-0.72-20.32-0.58-30.48-0.48c-8.14,0.08-10.63,4.93-6.52,11.88
		c1.1,1.86,2.18,3.76,2.93,5.77c1.6,4.32,0.21,6.57-4.2,5.63c-5.63-1.2-11.05-3.43-16.47-5.49c-4.81-1.82-9.37-4.38-14.27-5.87
		c-2.41-0.73-6.35-0.75-7.75,0.69c-1.37,1.42-0.98,5.27-0.29,7.76c0.99,3.6,2.94,6.94,4.71,10.93c-13.44,1.2-22.33-6.24-31.83-14.83
		c-15.27,10.06-31.95,18.72-45.8,30.65c-33.16,28.57-55.56,64.42-64.98,107.6C58.71,391.56,57.67,402.85,56,414z M318.62,158.88
		c-0.34-0.39-0.69-0.77-1.03-1.16c7.02-8.6,8.29-16.85,3.72-24.88c-9.61,14.14-21.47,25.93-35.95,34.92
		c-16.9,10.49-34.88,15.28-54.21,7.69c-7.01-2.75-13.36-7.2-21.44-11.66c3.33,7.37,6.24,13.81,9.14,20.21
		c-10.13,0.23-18.94-4.66-27.25-11.3c2.44,9.73,6.79,18.14,15.43,24.57c-18.22,5.49-35.64,9.82-52.83-1.65
		c0.63,9.25,1.72,11.42,8.76,17.78c-4.6,8.92-12.64,8.4-21.85,7c8.28,8.72,16.44,15.7,27.73,16.36c5.02,0.29,8.04,1.74,10.97,5.67
		c3.97,5.31,8.87,9.82,16.6,10.33c-1.2-3.53-2.87-6.57-3.14-9.74c-0.32-3.75-0.71-8.55,1.24-11.19c2.79-3.77,7.4-0.87,11.01,0.59
		c8.41,3.4,16.73,7.03,25.16,10.6c0.8-4.13,1.28-7.94,2.3-11.6c1.98-7.11,4.35-8.63,11.77-8.37c1.65,0.06,3.33-0.16,4.97-0.38
		c24.09-3.22,47.99-2.03,71.23,5.03c14.24,4.33,27.93,10.43,41.79,15.7c-3.99-14.94-9.96-29.89-20.41-42.89
		c6.3-3.35,11.3,0.34,17.45,2.72c-2.5-3.62-4.45-6.12-6.05-8.83c-5.87-9.93-12.28-18.93-26.22-16.29
		c4.63-11.58,6.22-22.05,4.72-27.08C327.8,153.59,323.21,156.23,318.62,158.88z M212.03,264.73c3.53,8.68,7.3,16.29,14.58,21.68
		c1.2,0.89,1.87,2.95,2.14,4.57c1.44,8.66,5.89,15.62,11.71,22.41c4.02-22.5,11.32-33.27,30.86-45.5c4.22-2.64,8.8-4.68,13.11-7.19
		c0.92-0.53,1.78-1.85,1.87-2.88c0.08-0.84-0.94-2.5-1.62-2.58c-11.57-1.38-23.53-6.73-34.04,3.31c-2.74,2.62-6.86,4.23-8.65,7.3
		c-4.32,7.42-6.8,9.12-14.85,6.15C222.22,270.18,217.62,267.46,212.03,264.73z"/>
	<path d="M56,414c1.67-11.15,2.71-22.44,5.11-33.44c9.42-43.18,31.82-79.03,64.98-107.6c13.85-11.93,30.53-20.59,45.8-30.65
		c9.5,8.59,18.4,16.04,31.83,14.83c-1.78-3.98-3.72-7.32-4.71-10.93c-0.68-2.49-1.08-6.34,0.29-7.76c1.4-1.45,5.34-1.43,7.75-0.69
		c4.9,1.49,9.46,4.05,14.27,5.87c5.41,2.05,10.84,4.28,16.47,5.49c4.41,0.94,5.8-1.31,4.2-5.63c-0.74-2.01-1.83-3.92-2.93-5.77
		c-4.11-6.96-1.62-11.81,6.52-11.88c10.16-0.1,20.36-0.24,30.48,0.48c34.54,2.47,67.25,11.25,97.03,29.5
		c29.85,18.3,50.57,44.93,67.85,74.63c1.89,3.26,2.58,7.2,4.18,10.66c0.7,1.51,2.23,3.55,3.5,3.63c1.3,0.09,2.93-1.76,4.06-3.07
		c1.14-1.32,1.84-3.02,3.44-5.75c-0.65,6.47-1.33,11.53-1.64,16.6c-0.59,9.84-0.94,19.65,3.76,28.86c0.87,1.7,0.95,3.87,1.15,5.85
		c2.52,24.32,1.3,48.27-7.51,71.37c-2.54,6.67-5.73,13.11-8.14,19.82c-0.75,2.07,0.07,4.71,0.17,7.09c2.2-0.3,4.4-0.7,6.61-0.86
		c1.99-0.15,4.01-0.03,6.09,0.9c-3.8,1.18-7.73,2.06-11.39,3.59c-9.78,4.08-17.59,10.85-23.83,19.26
		c-22.72,30.62-54.17,46.18-90.63,53.7c-26.52,5.47-52.33,2.56-77.97-4.75c-1.38-0.39-2.79-0.7-4.3-0.66
		c13.61,8.92,27.6,16.66,44.71,15.95c1.41-0.06,3.43,1.36,4.26,2.66c3.92,6.16,7.08,12.84,11.35,18.72
		c5.11,7.04,9.79,9.49,18.21,12.66c-7.65,1.11-15.26,2.82-22.95,3.22c-36.4,1.87-66.76-12.27-93.6-35.78
		c-22.05-19.32-33.48-44.79-42.38-71.78c-2.22-6.73-3.75-13.7-4.54-20.95c1.77,2.95,3.49,5.93,5.32,8.83
		c6.21,9.82,13.54,18.58,23.69,24.61c10.22,6.07,20.95,6.97,32.23,3.38c3.29-1.05,6.88-1.22,10.12-2.37
		c8.72-3.09,17.71-5.77,25.91-9.94c12.56-6.4,25.17-12.13,39.37-13.51c9.3-0.9,19.34,1.49,25.52,6.4
		c-11.27,0.78-20.49,4.36-24.9,15.33c-3.94,9.78-2.78,19.89-1.22,30.5c-16.42-0.65-32.22-1.27-48.01-1.9
		c-0.11,0.74-0.21,1.48-0.32,2.21c9.47,2.03,18.85,4.62,28.41,6.01c78.71,11.48,142.3-47.41,154.3-115.13
		c1.31-7.37,3.07-14.94,2.51-22.26c-0.5-6.5-2.88-13.43-6.33-18.99c-4.03-6.5-10.13-11.73-15.59-17.81
		c6.95-2.19,12.06,2.92,18.01,6.38c-2.96-21.5-9.4-40.82-20.88-58.37c-21.21-32.38-51.5-52.64-87.56-64.61
		c-59.51-19.75-114.73-9.52-164.6,27.29c-33.66,24.85-57.13,57.52-65.96,99.33c-1.24,5.85-1.99,11.82-2.57,17.77
		c-0.17,1.72,1.02,3.58,1.59,5.38c1.73-0.81,3.88-1.23,5.12-2.52c3.1-3.2,5.8-6.79,8.65-10.23c0.38,0.4,0.77,0.8,1.15,1.2
		c-2.46,10.14-5.04,20.25-7.37,30.42c-5.93,25.89,0.07,49.67,12.18,72.7c24.94,47.41,62.28,81.58,112.54,98.9
		c66.75,23,131.34,17.56,190.23-24.57c22.42-16.04,38.93-37.52,53.2-60.97c33.5-55.03,39.14-144.92-23.64-214.87
		c-19.99-22.27-44.67-37.67-71.48-50.04c-3.68-1.7-5.69-3.79-6.94-7.58c-3.76-11.34-7.91-22.55-12.32-34.96
		c6.37,2.79,11.83,5.18,17.29,7.57c0.37-0.33,0.73-0.66,1.1-0.98c-4.64-7.58-8.89-15.42-14.01-22.65
		c-5.16-7.3-11.18-13.99-17.04-21.23c1.04,0,2.11-0.21,3.07,0.03c67.83,16.63,124.95,49.95,165.99,107.7
		c24.14,33.97,37.3,72.29,42.75,113.4c1.13,8.56,1.97,17.16,2.95,25.74c0,1.67,0,3.33,0,5c-0.26,2.46-0.47,4.93-0.78,7.39
		c-1.6,12.54-2.46,25.23-4.96,37.59c-10.3,50.81-37.35,91.87-75.82,125.6c-38.64,33.88-84.23,53.7-134.4,63.36
		c-11.25,2.17-22.68,3.4-34.03,5.06c-2,0-4,0-6,0c-1.45-0.26-2.9-0.71-4.36-0.75c-19.54-0.5-38.92-2.56-57.85-7.38
		c-96.74-24.64-155.16-86.5-177-183.4c-2.47-10.96-3.24-22.3-4.79-33.47C56,428.67,56,421.33,56,414z"/>
	<path class="st0" d="M306,661c11.35-1.66,22.78-2.9,34.03-5.06c50.17-9.66,95.77-29.48,134.4-63.36
		c38.47-33.73,65.52-74.79,75.82-125.6c2.5-12.36,3.37-25.05,4.96-37.59c0.31-2.46,0.52-4.92,0.78-7.39c0,79.67,0,159.33,0,239
		C472.67,661,389.33,661,306,661z"/>
	<path class="st0" d="M56,436c1.56,11.16,2.32,22.51,4.79,33.47c21.83,96.91,80.25,158.76,177,183.4
		c18.93,4.82,38.31,6.88,57.85,7.38c1.46,0.04,2.91,0.49,4.36,0.75c-81.33,0-162.67,0-244,0C56,586,56,511,56,436z"/>
	<path d="M318.62,158.88c4.59-2.65,9.19-5.29,13.6-7.84c1.5,5.03-0.08,15.49-4.72,27.08c13.95-2.64,20.36,6.36,26.22,16.29
		c1.6,2.71,3.55,5.21,6.05,8.83c-6.15-2.38-11.14-6.07-17.45-2.72c10.45,13,16.42,27.94,20.41,42.89
		c-13.86-5.27-27.55-11.37-41.79-15.7c-23.23-7.06-47.13-8.25-71.23-5.03c-1.65,0.22-3.32,0.44-4.97,0.38
		c-7.41-0.26-9.78,1.25-11.77,8.37c-1.02,3.66-1.5,7.47-2.3,11.6c-8.43-3.57-16.75-7.19-25.16-10.6c-3.61-1.46-8.22-4.36-11.01-0.59
		c-1.95,2.64-1.56,7.44-1.24,11.19c0.27,3.17,1.95,6.21,3.14,9.74c-7.73-0.51-12.64-5.02-16.6-10.33
		c-2.93-3.93-5.95-5.38-10.97-5.67c-11.29-0.66-19.45-7.64-27.73-16.36c9.21,1.41,17.25,1.92,21.85-7
		c-7.05-6.36-8.14-8.53-8.76-17.78c17.19,11.47,34.61,7.14,52.83,1.65c-8.64-6.44-12.99-14.84-15.43-24.57
		c8.31,6.64,17.12,11.53,27.25,11.3c-2.89-6.4-5.81-12.84-9.14-20.21c8.07,4.46,14.42,8.91,21.44,11.66
		c19.33,7.59,37.31,2.8,54.21-7.69c14.48-8.99,26.34-20.78,35.95-34.92c4.57,8.03,3.3,16.27-3.72,24.88
		C317.93,158.11,318.27,158.5,318.62,158.88z M301.26,193.21c-14.19-6.61-38.42-4.3-49.07,4.06c7.82,10.68,18.78,11.59,27.64,1.68
		c3.24-3.62,6.53-5.05,11.11-4.94C294.03,194.09,297.12,193.56,301.26,193.21z"/>
	<path d="M212.03,264.73c5.59,2.73,10.19,5.46,15.12,7.28c8.05,2.97,10.54,1.27,14.85-6.15c1.78-3.07,5.91-4.69,8.65-7.3
		c10.51-10.04,22.48-4.69,34.04-3.31c0.68,0.08,1.69,1.75,1.62,2.58c-0.1,1.03-0.96,2.35-1.87,2.88c-4.31,2.51-8.89,4.55-13.11,7.19
		c-19.54,12.23-26.84,23-30.86,45.5c-5.83-6.8-10.27-13.76-11.71-22.41c-0.27-1.63-0.94-3.68-2.14-4.57
		C219.33,281.02,215.56,273.41,212.03,264.73z"/>
	<path class="st0" d="M301.26,193.21c-4.14,0.35-7.24,0.88-10.32,0.8c-4.59-0.11-7.87,1.32-11.11,4.94
		c-8.86,9.9-19.82,8.99-27.64-1.68C262.84,188.91,287.08,186.6,301.26,193.21z"/>
</g>
</svg>
