<?xml version="1.0" encoding="utf-8"?>
<!-- Generator: Adobe Illustrator 24.3.0, SVG Export Plug-In . SVG Version: 6.00 Build 0)  -->
<svg version="1.1" id="Layer_1" xmlns="http://www.w3.org/2000/svg" xmlns:xlink="http://www.w3.org/1999/xlink" x="0px" y="0px"
	 viewBox="0 0 612 792" style="enable-background:new 0 0 612 792;" xml:space="preserve">
<style type="text/css">
	.st0{fill:#FFFFFF;}
</style>
<g>
	<path class="st0" d="M556,200c0,154.67,0,309.33,0,464c-160.67,0-321.33,0-482,0c7.74-3.62,14.89-7.97,19.43-15.04
		c-9.03-7.62-17.85-15.08-27.66-23.36c-3.24,5.77-6.51,11.59-9.77,17.4c0-171.67,0-343.33,0-515c140.67,0,281.33,0,422,0
		c-0.92,0.28-1.82,0.76-2.75,0.81c-24.92,1.4-48.66,7.6-71.23,18.1c-12.97,6.03-25.58,12.62-36.71,21.97
		c-8.74,7.35-19.05,12.29-30.69,13.49c-9.34,0.97-15.16-3.2-16.74-12.47c-0.8-4.68-0.72-9.63-0.25-14.38
		c0.57-5.73,1.98-11.37,3.28-18.41c-4.54,5.84-8.26,10.7-12.05,15.51c-16.01,20.3-32.47,40.15-52.1,57.19
		c-9.65,8.37-19.01,17.16-27.81,26.43c-12.16,12.81-23.82,26.09-35.39,39.43c-16.27,18.75-32.65,37.45-44.9,59.26
		c-15.14,26.96-16.66,54.42-2.38,82.13c10.14,19.67,25.7,34.59,43.78,48.02c3.6-7.96,7.05-15.59,10.55-23.33
		c-2.19-1.4-3.87-2.46-5.54-3.54c-32.3-20.96-41.98-53.41-24.95-87.02c7.04-13.89,15.19-27.42,24.36-40.01
		c28.87-39.65,63.44-74.13,99.45-107.22c12.46-11.45,12.5-11.42,26.36-1.47c0.27,0.19,0.55,0.38,0.81,0.59
		c8.51,6.78,13.39,6.93,22.45,1.31c14.71-9.13,29.37-18.34,44.35-27c20.16-11.67,40.35-23.12,63.97-27.08
		c16.04-2.69,31.85-5.74,47.97-1.48c21.89,5.78,32.78,18.42,34.66,40.88c1.16,13.87-1.81,27.37-7.21,39.97
		c-7.94,18.5-16.52,36.76-25.61,54.73c-6.52,12.91-14.53,25.05-21.46,37.77c-6.46,11.87-9.04,24.26-1.41,38
		c-6.5-3.18-9.81-7.3-10.88-13.03c-1.64-8.78,0.82-16.74,5.02-24.4c8.16-14.88,16.25-29.81,24.19-44.81
		c1.66-3.14,2.56-6.67,4.16-10.97c-2.73,1.19-4.34,1.99-6.01,2.6c-17.53,6.34-35,12.83-52.63,18.88c-7.46,2.56-8.5,1.4-12.91-5.12
		c-4.45-6.59-9.51-12.78-14.59-18.91c-2.15-2.59-4.41-2.36-6.97,0.54c-13.87,15.76-27.99,31.31-42.03,46.91
		c-0.84,0.94-1.86,1.72-3.32,3.06c-7.37-6.61-14.53-13.03-22.73-20.38c-7.78,5.64-16.05,11.67-24.37,17.64
		c-1.47,1.06-3.03,2.11-4.7,2.75c-5.16,1.97-8.09-0.23-7.84-5.81c0.07-1.48,0.79-2.95,0.74-4.41c-0.12-3.77,0.14-7.73-0.94-11.24
		c-1.38-4.49-6.27-6.39-9.58-3.71c-8.63,6.98-17.06,14.26-25.08,21.93c-2.33,2.22-4.08,6.1-4.23,9.3c-0.24,5.51-2.72,9.5-6.11,13.23
		c-8.89,9.79-19.83,16.67-31.73,22.18c-1.62,0.75-3.43,1.58-4.51,2.9c-4.77,5.78-9.45,11.65-13.86,17.7
		c-1.72,2.36-2.56,5.34-3.96,7.95c-2.05,3.83-3.59,8.24-6.55,11.21c-3.45,3.45-8.32,5.45-12.32,8.41c-1.72,1.27-3.42,3.2-4.07,5.18
		c-2.17,6.61,1.76,10.87,6.69,14.14c14.71,9.77,29.34,19.76,47.59,21.97c4.65,0.56,8.27,3.09,9.5,7.75
		c4.72,17.79,15.66,31.12,30.22,41.58c19.01,13.66,39.33,20.57,62.84,11.65c22.92-8.7,42.35-22.6,59.45-39.63
		c31.53-31.4,62.49-63.38,86.11-101.59c3.17,0.83,4.06,2.6,2.46,5.47c-3.81,6.83-7.23,13.91-11.53,20.42
		c-21.16,32.04-47.58,59.56-74.71,86.47c-2.01,1.99-4.55,3.68-5.94,6.04c-4.43,7.5-11.2,12.33-18.45,16.42
		c-9.41,5.31-19.32,9.75-28.74,15.04c-20.81,11.7-41.52,11.95-61.29-1.49c-10.54-7.17-19.75-16.29-29.57-24.51
		c-1.09-0.91-2.62-2.65-3.4-2.38c-6.34,2.13-13.13,3.68-17.11,9.64c12.99,24.62,32.79,39.58,59.36,45.65
		c4.05,0.93,8.31,1.22,12.17,2.63c10.27,3.74,20.59,3.88,30.95,1.02c30.84-8.53,56.39-26.14,78.95-48.02
		c31.97-31.01,60.51-65.17,88.72-99.6c10.77-13.14,21.91-26.02,33.48-38.45c4.59-4.93,7.72-10.08,9.58-17.04
		c-3.69,2.31-6.59,4.69-9.9,6.09c-7.13,3.03-14.29,6.42-21.79,8.07c-7.05,1.55-11.82-2.58-13.26-9.72c-0.65-3.23-0.8-6.65-0.56-9.94
		c0.93-12.55,3.94-24.49,9.54-35.93C530.47,268.61,550.93,237.44,556,200z M310.57,203.14c-24.59,25.5-48.89,50.68-73.17,75.88
		c-0.57,0.59-1.23,1.25-1.46,2c-0.37,1.18-0.81,2.58-0.46,3.64c0.19,0.57,1.99,0.95,3.01,0.85c11.21-1.05,21.8,1.41,32.31,5.06
		c2.44,0.85,6.08,0.61,8.26-0.67c5.42-3.2,10.4-7.17,15.38-11.06c3-2.34,5.63-2.6,8.35,0.22c3.47,3.59,7.05,7.08,10.42,10.76
		c5.18,5.66,15.61,6.53,20.26,1.57c7.64-8.16,16.88-8.23,24.48-0.16c3.55,3.77,6.35,3.94,10.37,0.62c0.77-0.63,1.4-1.57,2.27-1.92
		c11.13-4.37,17.17-13.81,23.36-23.15c1.74-2.62,3.6-5.24,5.8-7.47c8.1-8.22,16.14-8.19,24.35-0.14
		c6.19,6.07,12.29,12.23,18.64,18.12c1.16,1.08,3.72,1.94,5.01,1.41c17.48-7.26,35.59-12.18,54.25-15.12
		c3.24-0.51,4.12-2.15,4.9-5.04c1.43-5.25,2.66-10.9,5.58-15.34c6.36-9.69,11.18-19.83,14.93-30.84
		c11.34-33.23-11.51-51.66-32.82-56.39c-13.94-3.09-27.66-0.21-40.8,4.25c-13.68,4.64-28.31,8.48-40.04,16.38
		c-18.98,12.78-39.64,21.87-59.94,31.7C339.13,215.4,324,214.83,310.57,203.14z M70.82,604.02c0.45,0.16,0.91,0.32,1.36,0.47
		c-0.03,13.21,12.77,32.07,25.44,35.92c4.59,1.39,10.43,1.41,14.95-0.13c16.55-5.65,34.6-33.81,33.72-51.31
		c-0.03-0.66,0.05-1.41-0.21-1.97c-0.95-2.03-1.59-4.48-3.14-5.92c-6.83-6.33-13.85-12.48-21.05-18.4
		c-1.25-1.03-4.06-1.41-5.53-0.74c-11.47,5.3-22.81,10.89-34.13,16.51c-1.39,0.69-3,1.9-3.51,3.25
		C75.91,589.08,73.42,596.57,70.82,604.02z M229.31,291.06c-2.97,3.19-5.49,6.08-8.19,8.78c-7.86,7.88-16.66,15.01-23.51,23.68
		c-11.52,14.57-20.34,30.88-24.44,49.25c-0.91,4.08-0.76,8.56-0.24,12.75c0.51,4.15,0.78,9.62,5.82,10.6
		c4.93,0.96,7.61-3.78,9.6-7.44c2.57-4.75,6.23-7.67,11.14-9.2c3.63-1.13,5.03-3.42,4.63-7.06c-0.55-5.03,0.59-9.5,4.08-13.35
		c8.97-9.92,19.5-17.57,32.16-22.05c6.28-2.22,12-5.15,15.39-11.14c0.88-1.56,1.64-4.28,0.88-5.5c-3.16-5.13-0.46-9.26,1.49-13.61
		c0.81-1.81,2.04-3.52,2.47-5.41c1.07-4.68-2.61-8.34-7.3-7.39C245.06,295.63,237.07,295.47,229.31,291.06z M183.95,492.66
		c4.15,1.5,8.19,3.96,12.34,4.17c4.18,0.21,6.06,1.89,7.39,5.19c0.68,1.69,0.92,3.63,1.87,5.13c0.89,1.41,2.34,3.14,3.76,3.36
		c1.35,0.2,3.27-1.06,4.42-2.21c5.36-5.4,10.23-11.33,15.88-16.4c5.78-5.2,12.26-9.61,17.39-13.57c-1.12-5.43-2.14-10.02-3.01-14.63
		c-1.84-9.66-4.54-12.58-11.95-13.72c-5.54-0.85-11.26-0.41-16.88-0.89c-3.63-0.31-5.61,1-7.46,4.17
		C200.26,466.03,192.48,478.59,183.95,492.66z M124.42,556.39c6.31,6.7,11.84,12.87,17.71,18.69c3.11,3.09,6.64,2.76,8.28-0.87
		c3.42-7.56,9.83-12.03,16.08-16.64c5.7-4.21,11.75-7.94,17.89-12.06c-6.65-13.28-17.51-20.78-31.94-25.53
		c0.56,12.97-6.96,19.35-16.21,25.07C131.74,547.83,128.4,552.47,124.42,556.39z M204.21,525.86c-0.9-7.02-2.63-13.1-7.91-17.72
		c-11.1-9.7-22.83-10.54-35.1-2.29c-1.68,1.13-4.01,3.63-3.68,4.88c0.5,1.92,2.82,3.68,4.76,4.85c6.51,3.93,13.43,7.24,19.75,11.44
		c4.04,2.68,6.47,6.79,7.12,12.06c0.25,2.03,2.86,4.68,4.9,5.26c1.46,0.41,4.77-1.73,5.51-3.47
		C201.6,536.09,202.72,530.9,204.21,525.86z"/>
	<path d="M556,200c-5.07,37.44-25.53,68.61-41.63,101.52c-5.6,11.44-8.61,23.38-9.54,35.93c-0.24,3.29-0.09,6.71,0.56,9.94
		c1.43,7.14,6.21,11.27,13.26,9.72c7.5-1.65,14.66-5.03,21.79-8.07c3.31-1.41,6.21-3.78,9.9-6.09c-1.87,6.96-4.99,12.11-9.58,17.04
		c-11.58,12.43-22.71,25.3-33.48,38.45c-28.2,34.43-56.75,68.59-88.72,99.6c-22.56,21.88-48.12,39.49-78.95,48.02
		c-10.36,2.86-20.68,2.72-30.95-1.02c-3.86-1.41-8.12-1.7-12.17-2.63c-26.57-6.08-46.37-21.03-59.36-45.65
		c3.98-5.97,10.78-7.52,17.11-9.64c0.78-0.26,2.31,1.47,3.4,2.38c9.83,8.22,19.03,17.35,29.57,24.51
		c19.76,13.44,40.47,13.19,61.29,1.49c9.42-5.3,19.33-9.73,28.74-15.04c7.25-4.09,14.02-8.92,18.45-16.42
		c1.39-2.36,3.93-4.04,5.94-6.04c27.13-26.9,53.55-54.43,74.71-86.47c4.3-6.51,7.72-13.6,11.53-20.42c1.61-2.87,0.71-4.64-2.46-5.47
		c-23.62,38.2-54.57,70.19-86.11,101.59c-17.1,17.02-36.53,30.93-59.45,39.63c-23.5,8.92-43.83,2.01-62.84-11.65
		c-14.56-10.46-25.5-23.79-30.22-41.58c-1.24-4.66-4.85-7.18-9.5-7.75c-18.25-2.2-32.88-12.2-47.59-21.97
		c-4.93-3.27-8.86-7.53-6.69-14.14c0.65-1.98,2.35-3.9,4.07-5.18c4-2.97,8.87-4.96,12.32-8.41c2.96-2.96,4.5-7.38,6.55-11.21
		c1.4-2.61,2.24-5.59,3.96-7.95c4.41-6.05,9.09-11.92,13.86-17.7c1.09-1.32,2.9-2.15,4.51-2.9c11.9-5.51,22.84-12.39,31.73-22.18
		c3.39-3.73,5.86-7.72,6.11-13.23c0.14-3.2,1.9-7.08,4.23-9.3c8.03-7.67,16.45-14.94,25.08-21.93c3.31-2.68,8.21-0.78,9.58,3.71
		c1.08,3.52,0.82,7.48,0.94,11.24c0.05,1.46-0.67,2.93-0.74,4.41c-0.26,5.59,2.67,7.79,7.84,5.81c1.68-0.64,3.23-1.7,4.7-2.75
		c8.31-5.97,16.58-11.99,24.37-17.64c8.2,7.35,15.36,13.77,22.73,20.38c1.46-1.34,2.47-2.12,3.32-3.06
		c14.05-15.6,28.16-31.15,42.03-46.91c2.56-2.91,4.82-3.13,6.97-0.54c5.08,6.12,10.14,12.32,14.59,18.91
		c4.41,6.52,5.45,7.68,12.91,5.12c17.63-6.05,35.1-12.54,52.63-18.88c1.68-0.61,3.28-1.41,6.01-2.6c-1.6,4.3-2.5,7.83-4.16,10.97
		c-7.94,15-16.03,29.93-24.19,44.81c-4.2,7.66-6.66,15.63-5.02,24.4c1.07,5.73,4.38,9.85,10.88,13.03
		c-7.63-13.75-5.05-26.13,1.41-38c6.93-12.71,14.94-24.86,21.46-37.77c9.08-17.97,17.67-36.23,25.61-54.73
		c5.41-12.6,8.37-26.1,7.21-39.97c-1.88-22.46-12.77-35.1-34.66-40.88c-16.12-4.26-31.93-1.21-47.97,1.48
		c-23.62,3.96-43.81,15.41-63.97,27.08c-14.98,8.67-29.64,17.88-44.35,27c-9.06,5.62-13.93,5.47-22.45-1.31
		c-0.26-0.21-0.54-0.39-0.81-0.59c-13.87-9.95-13.9-9.98-26.36,1.47c-36.01,33.09-70.58,67.58-99.45,107.22
		c-9.16,12.59-17.32,26.11-24.36,40.01c-17.03,33.61-7.35,66.06,24.95,87.02c1.66,1.08,3.35,2.14,5.54,3.54
		c-3.5,7.74-6.95,15.37-10.55,23.33c-18.08-13.43-33.64-28.35-43.78-48.02c-14.27-27.71-12.76-55.17,2.38-82.13
		c12.25-21.81,28.63-40.5,44.9-59.26c11.57-13.34,23.24-26.63,35.39-39.43c8.79-9.26,18.15-18.05,27.81-26.43
		c19.64-17.04,36.09-36.89,52.1-57.19c3.79-4.81,7.52-9.67,12.05-15.51c-1.3,7.04-2.71,12.68-3.28,18.41
		c-0.47,4.75-0.55,9.7,0.25,14.38c1.58,9.27,7.41,13.44,16.74,12.47c11.63-1.21,21.94-6.15,30.69-13.49
		c11.13-9.35,23.74-15.94,36.71-21.97c22.57-10.5,46.31-16.7,71.23-18.1c0.93-0.05,1.83-0.53,2.75-0.81c1,0,2,0,3,0
		c8.01,1.36,16.15,2.17,23.99,4.18c24.25,6.22,41.79,19.99,48.46,45.18c1.1,4.15,1.71,8.43,2.55,12.64
		C556,193.33,556,196.67,556,200z"/>
	<path class="st0" d="M556,190c-0.84-4.22-1.45-8.49-2.55-12.64c-6.67-25.19-24.21-38.95-48.46-45.18
		c-7.84-2.01-15.99-2.82-23.99-4.18c25,0,50,0,75,0C556,148.67,556,169.33,556,190z"/>
	<path d="M56,643c3.27-5.82,6.53-11.64,9.77-17.4c9.81,8.28,18.63,15.74,27.66,23.36C88.89,656.03,81.74,660.38,74,664
		c-2.33,0-4.67,0-7,0c-5.88-2.93-8.64-8.31-11-14C56,647.67,56,645.33,56,643z"/>
	<path class="st0" d="M56,650c2.36,5.69,5.12,11.07,11,14c-3.67,0-7.33,0-11,0C56,659.33,56,654.67,56,650z"/>
	<path d="M310.57,203.14c13.43,11.69,28.56,12.25,43.23,5.15c20.31-9.84,40.96-18.92,59.94-31.7c11.72-7.89,26.36-11.74,40.04-16.38
		c13.13-4.45,26.86-7.34,40.8-4.25c21.31,4.73,44.17,23.16,32.82,56.39c-3.76,11.01-8.57,21.15-14.93,30.84
		c-2.91,4.44-4.15,10.09-5.58,15.34c-0.79,2.89-1.66,4.53-4.9,5.04c-18.65,2.94-36.77,7.86-54.25,15.12
		c-1.29,0.54-3.85-0.33-5.01-1.41c-6.35-5.89-12.45-12.05-18.64-18.12c-8.22-8.05-16.26-8.08-24.35,0.14
		c-2.2,2.23-4.06,4.85-5.8,7.47c-6.19,9.35-12.23,18.79-23.36,23.15c-0.87,0.34-1.51,1.28-2.27,1.92
		c-4.02,3.31-6.82,3.14-10.37-0.62c-7.61-8.06-16.84-8-24.48,0.16c-4.65,4.96-15.07,4.09-20.26-1.57
		c-3.37-3.68-6.95-7.17-10.42-10.76c-2.72-2.82-5.34-2.56-8.35-0.22c-4.99,3.88-9.96,7.86-15.38,11.06
		c-2.18,1.28-5.82,1.51-8.26,0.67c-10.51-3.65-21.09-6.11-32.31-5.06c-1.02,0.1-2.82-0.28-3.01-0.85c-0.35-1.06,0.09-2.46,0.46-3.64
		c0.24-0.75,0.89-1.4,1.46-2C261.68,253.83,285.97,228.64,310.57,203.14z"/>
	<path d="M70.82,604.02c2.6-7.45,5.1-14.94,7.9-22.31c0.51-1.35,2.12-2.56,3.51-3.25c11.32-5.62,22.66-11.21,34.13-16.51
		c1.46-0.68,4.28-0.29,5.53,0.74c7.2,5.91,14.21,12.06,21.05,18.4c1.55,1.44,2.19,3.89,3.14,5.92c0.27,0.57,0.18,1.31,0.21,1.97
		c0.88,17.5-17.17,45.66-33.72,51.31c-4.52,1.54-10.35,1.53-14.95,0.13c-12.67-3.85-25.47-22.7-25.44-35.92
		C71.73,604.33,71.27,604.18,70.82,604.02z"/>
	<path d="M229.31,291.06c7.76,4.41,15.75,4.57,23.96,2.91c4.69-0.95,8.37,2.7,7.3,7.39c-0.43,1.89-1.66,3.6-2.47,5.41
		c-1.95,4.35-4.65,8.49-1.49,13.61c0.75,1.22,0,3.93-0.88,5.5c-3.39,6-9.11,8.93-15.39,11.14c-12.66,4.48-23.18,12.13-32.16,22.05
		c-3.48,3.85-4.63,8.32-4.08,13.35c0.4,3.64-1.01,5.93-4.63,7.06c-4.91,1.53-8.57,4.45-11.14,9.2c-1.98,3.67-4.67,8.41-9.6,7.44
		c-5.04-0.98-5.31-6.45-5.82-10.6c-0.51-4.19-0.67-8.67,0.24-12.75c4.09-18.37,12.92-34.68,24.44-49.25
		c6.85-8.67,15.65-15.8,23.51-23.68C223.82,297.13,226.35,294.25,229.31,291.06z"/>
	<path d="M183.95,492.66c8.52-14.07,16.31-26.64,23.74-39.41c1.85-3.17,3.82-4.48,7.46-4.17c5.61,0.47,11.34,0.04,16.88,0.89
		c7.41,1.14,10.12,4.06,11.95,13.72c0.88,4.61,1.89,9.2,3.01,14.63c-5.13,3.95-11.61,8.37-17.39,13.57
		c-5.65,5.07-10.51,11-15.88,16.4c-1.14,1.15-3.07,2.42-4.42,2.21c-1.41-0.21-2.86-1.94-3.76-3.36c-0.95-1.5-1.19-3.44-1.87-5.13
		c-1.33-3.3-3.2-4.98-7.39-5.19C192.15,496.63,188.11,494.16,183.95,492.66z"/>
	<path d="M124.42,556.39c3.98-3.92,7.32-8.56,11.81-11.34c9.25-5.72,16.77-12.1,16.21-25.07c14.44,4.74,25.3,12.25,31.94,25.53
		c-6.15,4.11-12.2,7.85-17.89,12.06c-6.25,4.62-12.66,9.08-16.08,16.64c-1.64,3.63-5.17,3.95-8.28,0.87
		C136.26,569.26,130.73,563.09,124.42,556.39z"/>
	<path d="M204.21,525.86c-1.49,5.04-2.61,10.23-4.65,15.03c-0.74,1.74-4.04,3.88-5.51,3.47c-2.04-0.58-4.65-3.23-4.9-5.26
		c-0.65-5.27-3.09-9.38-7.12-12.06c-6.32-4.2-13.23-7.51-19.75-11.44c-1.94-1.17-4.26-2.93-4.76-4.85c-0.33-1.25,2-3.75,3.68-4.88
		c12.27-8.26,24-7.42,35.1,2.29C201.58,512.77,203.31,518.84,204.21,525.86z"/>
</g>
</svg>
