<?xml version="1.0" encoding="utf-8"?>
<!-- Generator: Adobe Illustrator 24.3.0, SVG Export Plug-In . SVG Version: 6.00 Build 0)  -->
<svg version="1.1" id="Layer_1" xmlns="http://www.w3.org/2000/svg" xmlns:xlink="http://www.w3.org/1999/xlink" x="0px" y="0px"
	 viewBox="0 0 612 792" style="enable-background:new 0 0 612 792;" xml:space="preserve">
<style type="text/css">
	.st0{fill:#FFFFFF;}
</style>
<g>
	<path class="st0" d="M0,402.03C0,316.7,0,231.37,0,146c204,0,408,0,612,0c0,22.62,0,45.26,0,67.9c-13.85-3.04-27.66-6.3-41.58-9.01
		c-6.55-1.27-12.33-3.58-17.16-8.16c-2.08-1.97-4.15-3.94-6.2-5.94c-2.61-2.54-5.65-4-9.35-3.67c-7.8,0.7-14.46-2.01-20.74-6.37
		c-4.3-2.98-8.84-5.61-13.33-8.32c-2.04-1.23-4.56-1.88-6.23-3.46c-2.5-2.36-5.42-1.87-8.26-2.16c-3.67-0.38-5.47,1.92-6.7,5.69
		c-6.08-8.92-15.01-12.01-24.05-14.91c-2.5-0.8-5-1.58-7.5-2.37c-9.18-2.91-14.04-0.29-16.67,8.94c-0.65,2.27-1.42,4.5-2.47,7.81
		c-3.31-11.36-11.41-15.25-20.78-17.35c-10.74-2.4-17.82,2.74-22.83,12.2c-1.29-1.82-2.65-3.04-3.13-4.53
		c-1.86-5.7-6.17-8.47-11.41-10.46c-14.9-5.67-30.39-5.52-45.94-4.76c-4.65,0.23-8.46,2.18-11.3,6.01c-0.73,0.98-1.95,1.8-3.11,2.24
		c-3.1,1.18-4.48,3.46-5.49,6.51c-2.24,6.75-4.81,13.39-7.37,20.03c-1.97,5.1-4.3,10.06-6.14,15.2c-0.8,2.22-0.76,4.74-1.23,7.95
		c-3.04-3.68-5.49-6.73-8.03-9.71c-2.55-2.99-4.95-6.16-7.82-8.82c-7.63-7.05-16.95-10.33-27.02-8.11
		c-6.32,1.39-11.67,0.96-17.21-1.78c-4.23-2.09-8.67-2.67-13.19-1.03c-8.39,3.05-16.84,5.99-25.1,9.37
		c-8.87,3.63-14.39,9.64-12.81,20.13c0.41,2.71-1.47,4-4.08,3.09c-1.56-0.54-2.96-1.52-4.46-2.27c-6.19-3.08-11.07-2.37-15.94,2.56
		c-3.18,3.22-6.06,6.75-9.24,9.97c-1.91,1.93-3.94,3.94-6.3,5.21c-3.54,1.92-5.1,4.84-5.82,8.5c-0.22,1.12-0.38,2.25-0.59,3.46
		c-0.98-0.21-1.58-0.28-2.13-0.48c-2.12-0.76-4.48-2.55-6.27-2.09c-2.01,0.52-3.49,3.05-5.2,4.72c-0.17,0.17-0.3,0.37-0.47,0.54
		c-5.43,5.19-10.87,10.38-16.29,15.58c-2,1.92-4.66,3.52-5.81,5.86c-6.1,12.35-14.06,23.25-24.4,32.35c-3.41,3-5.12,6.41-4.92,10.93
		c0.15,3.45,0.03,6.91,0.03,10.36c-0.48,0.19-0.97,0.38-1.45,0.57c-1.99-2.41-3.99-4.82-6.13-7.4
		c-5.67,7.68-10.55,15.08-16.22,21.81c-10.15,12.05-15.65,25.98-18.55,41.22c-0.52,2.74-0.02,4.5,2.42,5.44
		c2.97,1.15,6.02,2.63,9.11,2.83c6.77,0.45,13.59,0.24,20.39,0.2c1.89-0.01,4.18,0.24,5.59-0.68c4.01-2.64,7.78-3.52,12.21,0.62
		c-0.41-4.57-0.73-8.02-0.97-10.64c9.38,0,18.33,0,27.28,0c0.61-4.67,1.79-6,6.6-7.28c10.26-2.74,20.53-5.44,30.79-8.17
		c1.32-0.35,2.62-0.8,4.06-1.24c-0.95-2.86-1.76-5.28-2.64-7.92c20.08-5.77,39.82-11.43,59.85-17.18
		c-4.7-5.24-11.13-7.85-14.19-14.18c1.95-0.06,3.81,0.1,5.3,0.93c1.96,1.09,3.75,2.57,5.38,4.13c2.58,2.48,5.57,3.5,9.09,3.44
		c4.53-0.07,9.07-0.01,13.61-0.01c4.23,0,5.62-1.62,4.28-5.57c-0.43-1.26-1.87-2.38-3.12-3.14c-6.42-3.91-12.92-7.67-19.38-11.51
		c-0.74-0.44-1.39-1.05-2.25-1.7c3.65-2.24,6.74-1.41,9.76,0.44c4.58,2.8,9.13,5.64,13.75,8.37c3.38,2,6.98,3.22,11.46,2.69
		c-1.4-2.09-2.5-3.76-3.62-5.42c-2.27-3.4-4.71-6.55-8.85-7.97c-4.99-1.72-7.38-6.99-5.77-12.38c8.01,6.79,13.01,17.18,24.21,20.39
		c0.66-2.08,1.22-3.85,1.8-5.66c3.24,0.6,6.1,1.14,9.38,1.75c0-5.01,0-9.59,0-14.21c4.94,0.9,5.63,1.31,8.27,4.77
		c6.84,9,19.83,14.1,28.73,11.01c17.04-5.93,33.85-12.29,45.16-27.97c0.35,1.88,0.64,3.5,1,5.41c2.44,0,4.83-0.23,7.17,0.06
		c2.88,0.35,4.31-0.82,5.34-3.39c1.38-3.44,3.12-6.75,4.7-10.11c0.35,0.09,0.69,0.17,1.04,0.26c0,3.24,0,6.48,0,9.87
		c2.34,0.17,4.22,0.35,6.11,0.43c5.16,0.2,6.56-0.59,8.05-5.64c1.57-5.35,3.14-10.77,3.89-16.28c0.87-6.44,0.86-13,1.23-19.5
		c0.12-0.01,0.23-0.01,0.35-0.02c0,12.55,0,25.1,0,37.97c2.6,0,4.75-0.22,6.85,0.04c8.38,1.01,15.25-1.29,21.03-7.78
		c7.12-7.99,15-15.29,22.16-23.24c3.64-4.04,5.47-9.19,5.47-14.8c0-5.2,0.46-5.49,5.88-3.61c-2.55,11.96-10.46,21.25-16.44,31.62
		c4.49,1.44,7.46,0.48,10.15-2.95c9.79-12.48,19.83-24.76,29.75-37.14c0.56-0.7,0.86-1.59,1.28-2.4c0.34,0.27,0.68,0.54,1.02,0.81
		c0,6.28,0.22,12.56-0.13,18.82c-0.11,1.92-1.4,4.1-2.78,5.58c-6.89,7.43-14,14.67-21.02,21.98c-0.74,0.77-1.41,1.59-2.56,2.9
		c6.84,0,12.8,0.02,18.76-0.03c0.8-0.01,1.78-0.15,2.37-0.62c7.65-6.06,16.9-7.47,26.09-9.04c9.85-1.69,18.34-5.84,25.01-13.45
		c3.14-3.59,6.4-7.07,9.63-10.59c2.28-2.49,4.6-4.94,6.91-7.41c0.26,0.11,0.53,0.22,0.79,0.34c-0.34,4.42-0.69,8.84-1.02,13.21
		c5.05,1.56,8.06,0.52,11.26-3.16c2.62-3.01,5.61-5.7,8.63-8.73c2.46,6.39,1.18,11.71-4.31,15.22c-5.39,3.44-11.34,6.03-17.06,8.97
		c-1.62,0.83-3.28,1.58-5.24,2.53c4.69,3.47,9.03,3.22,13.63,1.22c3.59-1.56,7.25-3.04,11-4.15c5.14-1.53,10.4-2.66,15.6-3.99
		c5.65-1.45,10.78-3.76,14.73-8.29c0.86-0.99,2.35-1.61,3.67-2.01c12.53-3.85,24.31-9.19,34.84-17.09c0.56-0.42,1.27-0.63,1.9-0.94
		c0,96.56,0,193.13,0,289.69c-204,0-408,0-612,0c0-33.38,0-66.76,0-100.14c0.42,1.18,0.84,2.36,1.38,3.87
		c11.76-4.59,23.27-9.07,34.74-13.62c0.63-0.25,1.37-1.08,1.44-1.71c0.54-4.86-0.47-9.22-4.46-12.51c-3.58-2.95-7.34-3.03-11.7-1.63
		C9.68,382.33,5.92,393.12,0,402.03z M409.49,339.21c-0.29,0.18-0.58,0.36-0.87,0.54c-0.9-0.74-1.87-1.4-2.69-2.22
		c-3.46-3.45-6.83-6.99-10.33-10.41c-4.28-4.18-9.27-5.44-15.38-3.27c0.99,2.24,1.91,4.27,2.79,6.32c0.84,1.95,1.65,3.92,2.47,5.88
		c-0.32,0.1-0.65,0.2-0.97,0.3c-6.55-5.65-6.55-5.61-16.02-5.82c-1.5-0.03-2.99-0.59-4.47-0.95c-2.81-0.69-5.58-1.61-8.42-2.07
		c-2.22-0.36-4.53-0.3-6.79-0.21c-11.89,0.51-24.14-2.07-35.37,4.38c-2.06,1.19-4.91,0.93-7.27,1.7c-1.63,0.53-3.45,1.33-4.5,2.59
		c-3.81,4.58-8.72,6.78-14.4,7.97c-1.77,0.37-3.66,1.55-4.88,2.9c-2.91,3.22-5.46,6.77-8.3,10.38c-0.74-0.92-1.16-1.48-1.62-2.02
		c-4.85-5.63-8.8-6.24-14.85-2.05c-4.3,2.98-9.17,4.49-14.18,4.22c-8.65-0.46-16.06,2.55-23.47,6.4c-3.29,1.71-5.31,3.53-5.17,7.48
		c0.09,2.59-0.48,5.21-0.75,7.82c-1.99,19.1-4.56,38.09-10.75,56.39c-0.84,2.49-1.84,4.94-2.95,7.88c-1.33-4.4-2.28-8.22-3.65-11.88
		c-1.42-3.79-1.01-6.91,2.05-9.71c2.99-2.74,4.21-6.23,4.05-10.29c-0.15-3.81,0.25-7.67-0.25-11.43c-0.61-4.55-1.54-9.13-3.05-13.45
		c-1.34-3.84-5.53-4.12-8.04-0.82c-0.98,1.29-1.63,2.91-2.16,4.47c-0.78,2.28-1.33,4.65-2.04,7.23
		c-4.39-6.04-8.48-11.73-12.66-17.35c-2.98-4-6.93-5.74-12.05-5.74c-14.02,0-27.2,3.07-39.6,9.58c-4.16,2.18-8.58,3.31-13.13,1.75
		c-8.79-3.02-16.96-1.44-24.82,2.85c-9.1,4.97-18.74,8.27-28.96,9.99c-6.47,1.09-12.95,2.16-19.36,3.5
		c-7.12,1.49-14.22,3.09-21.22,5.03c-4.92,1.36-8.81,4.37-11.42,9.24c0.95,0.39,1.46,0.65,2,0.81c6.17,1.87,12.34,3.7,17.14,8.44
		c0.96,0.95,2.51,1.74,3.83,1.8c7.34,0.35,14.72,0.96,22.02,0.48c6.38-0.41,10.67-5.4,15.45-9.14c2.42-1.9,5.18-3.38,7.78-5.05
		c0.42,0.52,0.84,1.04,1.26,1.56c-0.83,0.44-1.77,0.74-2.46,1.33c-5.16,4.45-8.15,10.15-9.66,16.73c-0.58,2.54-0.02,4.48,2.45,5.63
		c5.29,2.47,10.51,5.15,15.91,7.36c8.39,3.43,16.78,5.12,25.47,0.29c4.71-2.62,9.5-1.72,13.48,2.2c0.38,0.37,0.9,0.59,1.56,1.01
		c6.37-15.87,16.11-29.01,29.03-39.93c-0.16,1.81-0.49,3.54-1.14,5.14c-1.75,4.3-3.18,8.83-5.57,12.76
		c-5.15,8.49-6.08,17.17-3.55,26.69c1.53,5.76,3.14,7.73,9.16,7.75c8.13,0.03,6.88-0.44,6.8,6.92c-0.05,4.53,1.36,7.66,5.79,9.53
		c18.02,7.58,35.91,15.48,53.99,22.91c3.64,1.5,7.9,1.84,11.9,2.06c5.21,0.29,5.5-0.28,5.15-5.39c-0.75-10.94-1.33-21.89-2.37-32.8
		c-0.35-3.68-1.84-7.26-2.86-10.87c-0.31-1.1-0.79-2.16-1.19-3.24c0.38-0.2,0.77-0.4,1.15-0.61c1.3,2.02,2.77,3.95,3.87,6.07
		c3.08,5.92,6.1,11.87,8.98,17.89c1.93,4.04,4.84,5.79,9.4,5.54c5.47-0.29,10.98-0.23,16.46-0.02c4.93,0.18,10.09,1.47,12.61,5.7
		c3.42,5.76,8.02,7.12,13.99,6.54c0.7-0.07,1.43,0.03,2.14,0.14c4.98,0.77,8.37-0.97,10.64-5.69c4.6-9.56,9.54-18.94,14.37-28.39
		c0.53-1.04,1.2-2.02,1.81-3.03c0.3,0.13,0.59,0.25,0.89,0.38c-0.93,9.74-1.87,19.48-2.83,29.53c11.65,0.46,22.85,1.36,33.83-1.88
		c7.11-2.1,13.32-5.77,18.53-11.09c3.62-3.7,5.34-8.13,5.33-13.23c-0.01-6.55-0.13-13.09-0.1-19.64c0-0.98,0.33-2.2,0.96-2.9
		c2.38-2.61,2.66-5.66,2.59-8.98c-0.13-6.62-0.04-13.24-0.04-19.86c0.29-0.13,0.57-0.25,0.86-0.38c2.12,2.91,4.32,5.77,6.34,8.76
		c3.11,4.59,3.14,5.29-0.82,9.09c-7.08,6.8-4.37,14.43-1.36,21.52c1.61,3.78,6.62,1.58,10,2.48c0.79,0.21,1.69,0.02,2.49,0.21
		c3.19,0.75,5.5-0.59,7.63-2.8c4.92-5.1,7.75-11.34,10.3-17.82c0.61-1.54,2.47-3.69,3.65-3.62c1.56,0.09,3.6,1.78,4.37,3.32
		c1.48,2.94,2.43,6.21,3.2,9.44c0.6,2.5,1.88,3.2,4.28,3.14c4.6-0.12,8.19-2.05,11.34-5.29c1.72-1.77,3.57-3.69,5.76-4.66
		c6.19-2.72,11.25-6.79,15.38-11.97c7.51-9.41,15.01-18.85,22.12-28.57c1.85-2.53,3.04-6.07,3.2-9.21
		c0.57-11.46,0.4-22.83-6.06-33.18c-2.37-3.8-2.16-8.32,0.86-13.5c2.23,3.72,4.21,6.63,5.78,9.75c1.49,2.97,2.4,6.23,3.84,9.23
		c2.74,5.69,10.1,6.14,13.91,0.99c1.41-1.9,2.87-3.84,4.6-5.44c7.52-6.94,10.47-15.43,9.01-25.49c-0.27-1.86-0.63-3.72-0.96-5.68
		c0.6-0.17,1.04-0.41,1.48-0.39c15.31,0.83,28.75-14.07,28.5-30.13c-0.04-2.41,1.37-5.42,3.09-7.19
		c8.75-8.94,17.75-17.65,26.83-26.27c4.3-4.08,5.15-8.79,3.73-15.2c-4.04,1.36-8.08,2.12-11.51,3.99
		c-7.01,3.82-13.64,8.32-20.52,12.39c-5.16,3.06-10.76,4.13-16.83,3.78c-6.49-0.37-13.01-0.08-19.88-0.08
		c1.52,5.18,0.49,10.65,5.79,14.11c-1.26,0.17-1.96,0.31-2.67,0.35c-5.95,0.4-11.91,1.11-17.86,1.1
		c-9.34-0.02-16.48,3.42-21.92,11.15c-5.16,7.33-12.24,12.35-21.63,10.45c-11.64-2.35-20.57,3.33-29.91,8.31
		c-0.57,0.3-1.03,1-1.31,1.62c-1.51,3.24-3.23,6.42-4.28,9.81c-0.48,1.53-0.18,3.93,0.77,5.17c5.81,7.56,11.52,15.26,18.03,22.2
		c6.02,6.42,8.38,13.84,8.91,22.21c0.25,3.92,0.46,7.85,0.63,11.78c0.05,1.09-0.12,2.18-0.2,3.27c-0.36,0.07-0.71,0.14-1.07,0.21
		c-0.51-1.31-1.2-2.57-1.47-3.92c-0.37-1.86-0.42-3.78-0.6-5.68c-1.68-16.95-10.06-30.05-23.47-40.11
		c-5.26-3.94-11.21-4.81-17.86-2.52C406.23,332.26,407.86,335.74,409.49,339.21z"/>
	<path d="M612,214.62c-0.64,0.31-1.35,0.53-1.9,0.94c-10.53,7.9-22.31,13.24-34.84,17.09c-1.32,0.4-2.8,1.02-3.67,2.01
		c-3.95,4.54-9.08,6.85-14.73,8.29c-5.2,1.33-10.46,2.46-15.6,3.99c-3.75,1.11-7.41,2.59-11,4.15c-4.6,2-8.94,2.25-13.63-1.22
		c1.97-0.94,3.63-1.7,5.24-2.53c5.72-2.94,11.66-5.53,17.06-8.97c5.49-3.51,6.78-8.83,4.31-15.22c-3.02,3.03-6.01,5.72-8.63,8.73
		c-3.2,3.67-6.21,4.72-11.26,3.16c0.34-4.36,0.68-8.79,1.02-13.21c-0.26-0.11-0.53-0.22-0.79-0.34c-2.3,2.47-4.62,4.92-6.91,7.41
		c-3.23,3.51-6.49,7-9.63,10.59c-6.67,7.61-15.15,11.76-25.01,13.45c-9.19,1.57-18.44,2.98-26.09,9.04
		c-0.59,0.47-1.57,0.61-2.37,0.62c-5.96,0.05-11.92,0.03-18.76,0.03c1.15-1.3,1.82-2.13,2.56-2.9c7.02-7.31,14.12-14.55,21.02-21.98
		c1.37-1.48,2.67-3.66,2.78-5.58c0.35-6.26,0.13-12.54,0.13-18.82c-0.34-0.27-0.68-0.54-1.02-0.81c-0.42,0.8-0.73,1.7-1.28,2.4
		c-9.92,12.38-19.96,24.66-29.75,37.14c-2.69,3.43-5.66,4.39-10.15,2.95c5.98-10.37,13.89-19.66,16.44-31.62
		c-5.41-1.88-5.88-1.59-5.88,3.61c0,5.61-1.83,10.76-5.47,14.8c-7.16,7.95-15.05,15.26-22.16,23.24
		c-5.78,6.49-12.65,8.79-21.03,7.78c-2.1-0.25-4.26-0.04-6.85-0.04c0-12.87,0-25.42,0-37.97c-0.12,0.01-0.23,0.01-0.35,0.02
		c-0.37,6.51-0.35,13.06-1.23,19.5c-0.75,5.5-2.32,10.92-3.89,16.28c-1.48,5.06-2.89,5.84-8.05,5.64c-1.88-0.07-3.77-0.26-6.11-0.43
		c0-3.39,0-6.63,0-9.87c-0.35-0.09-0.69-0.17-1.04-0.26c-1.58,3.36-3.32,6.67-4.7,10.11c-1.03,2.56-2.46,3.74-5.34,3.39
		c-2.33-0.29-4.73-0.06-7.17-0.06c-0.35-1.91-0.65-3.53-1-5.41c-11.3,15.68-28.12,22.04-45.16,27.97
		c-8.89,3.09-21.89-2.01-28.73-11.01c-2.63-3.46-3.33-3.88-8.27-4.77c0,4.62,0,9.19,0,14.21c-3.28-0.61-6.15-1.15-9.38-1.75
		c-0.58,1.81-1.14,3.57-1.8,5.66c-11.21-3.21-16.2-13.6-24.21-20.39c-1.61,5.38,0.78,10.66,5.77,12.38
		c4.14,1.43,6.58,4.57,8.85,7.97c1.11,1.66,2.22,3.33,3.62,5.42c-4.48,0.54-8.08-0.69-11.46-2.69c-4.62-2.73-9.17-5.57-13.75-8.37
		c-3.02-1.84-6.1-2.68-9.76-0.44c0.86,0.66,1.51,1.26,2.25,1.7c6.46,3.84,12.97,7.6,19.38,11.51c1.24,0.76,2.69,1.87,3.12,3.14
		c1.34,3.95-0.04,5.56-4.28,5.57c-4.54,0-9.07-0.06-13.61,0.01c-3.52,0.06-6.51-0.96-9.09-3.44c-1.62-1.56-3.42-3.04-5.38-4.13
		c-1.49-0.83-3.35-0.99-5.3-0.93c3.06,6.33,9.49,8.94,14.19,14.18c-20.02,5.75-39.76,11.41-59.85,17.18
		c0.88,2.64,1.69,5.06,2.64,7.92c-1.44,0.44-2.74,0.89-4.06,1.24c-10.26,2.73-20.53,5.43-30.79,8.17c-4.81,1.28-5.99,2.61-6.6,7.28
		c-8.95,0-17.9,0-27.28,0c0.24,2.61,0.55,6.07,0.97,10.64c-4.43-4.14-8.2-3.26-12.21-0.62c-1.41,0.93-3.7,0.67-5.59,0.68
		c-6.8,0.04-13.62,0.26-20.39-0.2c-3.09-0.21-6.14-1.68-9.11-2.83c-2.44-0.95-2.94-2.71-2.42-5.44c2.9-15.24,8.39-29.17,18.55-41.22
		c5.67-6.73,10.55-14.13,16.22-21.81c2.14,2.58,4.13,4.99,6.13,7.4c0.48-0.19,0.97-0.38,1.45-0.57c0-3.46,0.12-6.92-0.03-10.36
		c-0.2-4.52,1.51-7.94,4.92-10.93c10.34-9.09,18.29-20,24.4-32.35c1.16-2.34,3.82-3.95,5.81-5.86c5.42-5.2,10.86-10.39,16.29-15.58
		c0.17-0.16,0.3-0.37,0.47-0.54c1.71-1.66,3.19-4.2,5.2-4.72c1.79-0.46,4.15,1.33,6.27,2.09c0.55,0.2,1.15,0.26,2.13,0.48
		c0.21-1.21,0.37-2.34,0.59-3.46c0.72-3.66,2.28-6.58,5.82-8.5c2.35-1.27,4.38-3.28,6.3-5.21c3.18-3.22,6.06-6.75,9.24-9.97
		c4.88-4.93,9.75-5.64,15.94-2.56c1.49,0.74,2.9,1.72,4.46,2.27c2.61,0.91,4.49-0.39,4.08-3.09c-1.57-10.49,3.95-16.5,12.81-20.13
		c8.26-3.38,16.71-6.31,25.1-9.37c4.52-1.64,8.96-1.06,13.19,1.03c5.54,2.74,10.9,3.17,17.21,1.78c10.07-2.22,19.39,1.05,27.02,8.11
		c2.87,2.65,5.27,5.83,7.82,8.82c2.54,2.98,4.99,6.02,8.03,9.71c0.46-3.21,0.43-5.73,1.23-7.95c1.84-5.14,4.17-10.1,6.14-15.2
		c2.56-6.64,5.13-13.28,7.37-20.03c1.01-3.05,2.39-5.33,5.49-6.51c1.16-0.44,2.38-1.26,3.11-2.24c2.84-3.83,6.65-5.78,11.3-6.01
		c15.55-0.76,31.04-0.9,45.94,4.76c5.24,1.99,9.55,4.76,11.41,10.46c0.49,1.5,1.84,2.71,3.13,4.53c5.01-9.47,12.09-14.6,22.83-12.2
		c9.37,2.09,17.47,5.98,20.78,17.35c1.05-3.31,1.82-5.54,2.47-7.81c2.63-9.23,7.49-11.84,16.67-8.94c2.5,0.79,5.01,1.57,7.5,2.37
		c9.04,2.9,17.97,5.99,24.05,14.91c1.24-3.78,3.04-6.07,6.7-5.69c2.84,0.3,5.75-0.2,8.26,2.16c1.67,1.58,4.19,2.23,6.23,3.46
		c4.49,2.7,9.03,5.33,13.33,8.32c6.27,4.36,12.94,7.07,20.74,6.37c3.69-0.33,6.74,1.13,9.35,3.67c2.05,2,4.12,3.97,6.2,5.94
		c4.83,4.58,10.6,6.89,17.16,8.16c13.92,2.7,27.72,5.97,41.58,9.01C612,214.14,612,214.38,612,214.62z"/>
	<path d="M0,402.03c5.92-8.91,9.68-19.7,21.41-23.46c4.35-1.4,8.12-1.32,11.7,1.63c3.98,3.29,5,7.65,4.46,12.51
		c-0.07,0.63-0.81,1.46-1.44,1.71c-11.47,4.55-22.98,9.03-34.74,13.62c-0.54-1.51-0.96-2.69-1.38-3.87C0,403.46,0,402.74,0,402.03z"
		/>
	<path d="M409.49,339.21c-1.63-3.47-3.25-6.95-5.01-10.71c6.65-2.29,12.6-1.42,17.86,2.52c13.41,10.06,21.79,23.16,23.47,40.11
		c0.19,1.9,0.23,3.82,0.6,5.68c0.27,1.35,0.97,2.62,1.47,3.92c0.36-0.07,0.71-0.14,1.07-0.21c0.07-1.09,0.24-2.19,0.2-3.27
		c-0.17-3.93-0.38-7.85-0.63-11.78c-0.53-8.37-2.89-15.78-8.91-22.21c-6.51-6.94-12.22-14.64-18.03-22.2
		c-0.95-1.24-1.24-3.64-0.77-5.17c1.06-3.39,2.77-6.57,4.28-9.81c0.29-0.62,0.74-1.31,1.31-1.62c9.33-4.98,18.27-10.66,29.91-8.31
		c9.38,1.9,16.47-3.12,21.63-10.45c5.44-7.73,12.58-11.17,21.92-11.15c5.95,0.02,11.91-0.7,17.86-1.1c0.71-0.05,1.41-0.18,2.67-0.35
		c-5.3-3.46-4.27-8.93-5.79-14.11c6.87,0,13.4-0.29,19.88,0.08c6.07,0.35,11.66-0.72,16.83-3.78c6.87-4.07,13.51-8.57,20.52-12.39
		c3.43-1.87,7.46-2.63,11.51-3.99c1.42,6.41,0.57,11.12-3.73,15.2c-9.08,8.62-18.08,17.33-26.83,26.27
		c-1.73,1.77-3.13,4.78-3.09,7.19c0.25,16.06-13.19,30.96-28.5,30.13c-0.43-0.02-0.88,0.23-1.48,0.39c0.34,1.97,0.69,3.82,0.96,5.68
		c1.46,10.06-1.49,18.55-9.01,25.49c-1.73,1.6-3.19,3.54-4.6,5.44c-3.82,5.14-11.18,4.7-13.91-0.99c-1.44-3-2.34-6.26-3.84-9.23
		c-1.57-3.12-3.55-6.02-5.78-9.75c-3.01,5.18-3.22,9.71-0.86,13.5c6.45,10.35,6.63,21.72,6.06,33.18c-0.16,3.14-1.35,6.68-3.2,9.21
		c-7.11,9.71-14.61,19.15-22.12,28.57c-4.14,5.18-9.19,9.25-15.38,11.97c-2.19,0.96-4.04,2.89-5.76,4.66
		c-3.14,3.23-6.74,5.17-11.34,5.29c-2.4,0.06-3.68-0.64-4.28-3.14c-0.77-3.23-1.72-6.5-3.2-9.44c-0.77-1.54-2.82-3.23-4.37-3.32
		c-1.18-0.07-3.04,2.08-3.65,3.62c-2.55,6.47-5.38,12.72-10.3,17.82c-2.13,2.21-4.44,3.55-7.63,2.8c-0.8-0.19-1.7,0-2.49-0.21
		c-3.38-0.89-8.4,1.3-10-2.48c-3.01-7.08-5.71-14.71,1.36-21.52c3.96-3.8,3.93-4.5,0.82-9.09c-2.02-2.98-4.22-5.84-6.34-8.76
		c-0.29,0.13-0.57,0.25-0.86,0.38c0,6.62-0.09,13.25,0.04,19.86c0.06,3.32-0.21,6.37-2.59,8.98c-0.63,0.69-0.96,1.91-0.96,2.9
		c-0.03,6.55,0.09,13.09,0.1,19.64c0.01,5.11-1.71,9.54-5.33,13.23c-5.21,5.33-11.42,8.99-18.53,11.09
		c-10.97,3.24-22.18,2.34-33.83,1.88c0.96-10.05,1.9-19.79,2.83-29.53c-0.3-0.13-0.59-0.25-0.89-0.38
		c-0.61,1.01-1.28,1.98-1.81,3.03c-4.82,9.45-9.77,18.83-14.37,28.39c-2.27,4.72-5.66,6.46-10.64,5.69
		c-0.71-0.11-1.44-0.21-2.14-0.14c-5.97,0.58-10.56-0.78-13.99-6.54c-2.51-4.23-7.68-5.52-12.61-5.7
		c-5.48-0.2-10.99-0.27-16.46,0.02c-4.56,0.24-7.47-1.5-9.4-5.54c-2.88-6.02-5.9-11.97-8.98-17.89c-1.1-2.12-2.57-4.05-3.87-6.07
		c-0.38,0.2-0.77,0.4-1.15,0.61c0.4,1.08,0.88,2.14,1.19,3.24c1.02,3.61,2.51,7.19,2.86,10.87c1.04,10.91,1.62,21.86,2.37,32.8
		c0.35,5.11,0.06,5.68-5.15,5.39c-4.01-0.22-8.26-0.56-11.9-2.06c-18.08-7.43-35.97-15.33-53.99-22.91c-4.43-1.86-5.84-5-5.79-9.53
		c0.08-7.36,1.33-6.89-6.8-6.92c-6.02-0.02-7.63-1.99-9.16-7.75c-2.53-9.52-1.6-18.2,3.55-26.69c2.39-3.93,3.82-8.46,5.57-12.76
		c0.65-1.6,0.98-3.33,1.14-5.14c-12.92,10.92-22.65,24.07-29.03,39.93c-0.66-0.42-1.19-0.64-1.56-1.01
		c-3.98-3.92-8.77-4.82-13.48-2.2c-8.69,4.83-17.09,3.14-25.47-0.29c-5.4-2.21-10.61-4.89-15.91-7.36
		c-2.47-1.15-3.03-3.09-2.45-5.63c1.51-6.57,4.51-12.28,9.66-16.73c0.69-0.59,1.63-0.9,2.46-1.33c-0.42-0.52-0.84-1.04-1.26-1.56
		c-2.6,1.67-5.36,3.15-7.78,5.05c-4.78,3.74-9.07,8.73-15.45,9.14c-7.3,0.47-14.69-0.13-22.02-0.48c-1.32-0.06-2.87-0.86-3.83-1.8
		c-4.8-4.74-10.96-6.56-17.14-8.44c-0.54-0.16-1.06-0.43-2-0.81c2.61-4.86,6.5-7.87,11.42-9.24c7-1.94,14.11-3.54,21.22-5.03
		c6.42-1.35,12.9-2.41,19.36-3.5c10.22-1.72,19.87-5.01,28.96-9.99c7.86-4.3,16.03-5.87,24.82-2.85c4.54,1.56,8.97,0.44,13.13-1.75
		c12.4-6.52,25.58-9.58,39.6-9.58c5.12,0,9.07,1.74,12.05,5.74c4.18,5.62,8.26,11.32,12.66,17.35c0.72-2.58,1.26-4.95,2.04-7.23
		c0.53-1.56,1.18-3.18,2.16-4.47c2.51-3.3,6.7-3.02,8.04,0.82c1.51,4.32,2.44,8.9,3.05,13.45c0.51,3.75,0.1,7.62,0.25,11.43
		c0.16,4.06-1.05,7.56-4.05,10.29c-3.06,2.8-3.47,5.92-2.05,9.71c1.37,3.66,2.32,7.48,3.65,11.88c1.11-2.95,2.11-5.39,2.95-7.88
		c6.19-18.3,8.76-37.29,10.75-56.39c0.27-2.61,0.84-5.23,0.75-7.82c-0.14-3.95,1.88-5.76,5.17-7.48c7.41-3.85,14.81-6.86,23.47-6.4
		c5.01,0.27,9.88-1.24,14.18-4.22c6.05-4.19,10.01-3.58,14.85,2.05c0.46,0.53,0.88,1.1,1.62,2.02c2.84-3.61,5.39-7.16,8.3-10.38
		c1.23-1.36,3.11-2.53,4.88-2.9c5.68-1.19,10.59-3.39,14.4-7.97c1.04-1.26,2.87-2.06,4.5-2.59c2.37-0.77,5.21-0.52,7.27-1.7
		c11.23-6.45,23.48-3.87,35.37-4.38c2.26-0.1,4.57-0.15,6.79,0.21c2.84,0.46,5.61,1.38,8.42,2.07c1.48,0.36,2.97,0.92,4.47,0.95
		c9.47,0.21,9.47,0.17,16.02,5.82c0.32-0.1,0.65-0.2,0.97-0.3c-0.82-1.96-1.63-3.93-2.47-5.88c-0.88-2.05-1.8-4.08-2.79-6.32
		c6.11-2.17,11.09-0.91,15.38,3.27c3.5,3.41,6.86,6.96,10.33,10.41c0.82,0.82,1.79,1.48,2.69,2.22
		C408.91,339.57,409.2,339.39,409.49,339.21z"/>
</g>
</svg>
