<?xml version="1.0" encoding="utf-8"?>
<!-- Generator: Adobe Illustrator 24.3.0, SVG Export Plug-In . SVG Version: 6.00 Build 0)  -->
<svg version="1.1" id="Layer_1" xmlns="http://www.w3.org/2000/svg" xmlns:xlink="http://www.w3.org/1999/xlink" x="0px" y="0px"
	 viewBox="0 0 612 792" style="enable-background:new 0 0 612 792;" xml:space="preserve">
<style type="text/css">
	.st0{fill:#FFFFFF;}
</style>
<g>
	<path class="st0" d="M612,375.3c0,81.9,0,163.8,0,245.7c-200.4,0-400.8,0-601.2,0c0.13-0.57,0.14-1.2,0.41-1.69
		c10.2-19.2,22.69-35.62,45.88-40.21c18.93-3.75,37.59-9.17,56.65-11.95c20.57-3,41.52-3.32,62.21-5.66
		c41.31-4.67,78.42-18.06,105.43-52.1c12.14-15.3,24.79-30.26,31.55-48.86c2.48-6.83,5.17-13.29,9.47-19.13
		c0.9-1.22,1.36-3.04,1.37-4.58c0.14-10.94,0.29-21.89,0.04-32.83c-0.09-4.15-1.08-8.31-2.01-12.39c-0.29-1.26-1.73-2.26-2.65-3.38
		c-1.03,0.94-2.29,1.73-3.04,2.85c-9,13.45-17,27.27-23.35,42.37c-6.03,14.37-15.27,27.45-23.6,40.79
		c-13.14,21.02-31.73,36.24-53.49,47.53c-33.91,17.59-70.48,24.85-108.32,26.14c-11.49,0.39-23.07-1.63-34.55-1.2
		c-17.15,0.65-33.15,5.85-48.3,14.18c-13.23,7.27-19.2,19.25-23.09,32.68c-2.33,8.03-0.49,15.76,4.66,22.53
		c1.26,1.65,2.55,3.27,3.83,4.91c-3.3,0-6.6,0-9.9,0c0-149.92,0-299.85,0-450c148.5,0,297,0,445.5,0c-0.26,0.34-0.46,0.79-0.8,1.02
		c-20.49,14.15-34.89,33.47-46.65,55.02c-0.66,1.22-1.16,2.52-1.79,3.91c34.9-17.83,70.44-12.37,106.42-4.62
		c0.67-6.94-2.29-12.23-5.99-17.15c-7.39-9.85-17.02-17.25-27.15-24c-7.31-4.88-14.83-9.46-22.25-14.18c54.9,0,109.8,0,164.7,0
		c0,67.8,0,135.6,0,203.4c-0.25-0.52-0.66-1.02-0.73-1.56c-3.61-30.89-18.07-57.18-37.27-80.45c-14.33-17.37-31.68-32.25-47.7-48.22
		c-0.19-0.19-0.65-0.1,0.26,0.01c3.83,11.11,8.69,22.31,11.51,34c6.64,27.48,8.12,55.17,2.51,83.26
		c-5.96,29.85-20.31,52.82-48.78,65.64c-3.77,1.7-5.07,5-6.14,9.61c6.84-0.39,13.01-0.25,19.01-1.18
		c15.08-2.34,27.81-8.49,37.99-20.8c5.4-6.53,13.35-12.25,21.31-15.05c11.82-4.16,23.26-8.57,33.83-15.28
		c2.26-1.43,4.62-3.08,7.15-3.62C608.4,380.03,610.68,378.45,612,375.3z M409.14,195.66c-0.34-0.47-0.67-0.95-1.01-1.42
		c-1.5,0.52-2.99,1.06-4.5,1.57c-9.85,3.37-19.91,4.63-30.06,1.94c-4.58-1.21-8.77-4.02-13.37-5.07
		c-12.96-2.97-26.03-3.26-39.28-1.27c-11.79,1.77-22.06,9.96-34.83,7.1c-0.88,10.6-2.24,20.45-2.4,30.31
		c-0.26,16.16,0.45,32.33,0.37,48.5c-0.08,16.54,2.6,32.51,8.35,47.99c5.09,13.69,12.08,26.31,21.07,38.28
		c4.55-2.83,3.66-6.87,2.99-10.54c-0.85-4.68-3.05-9.23-3.21-13.89c-1.11-31.32,7.74-59.17,28.52-83.23
		c14.82-17.16,31.75-31.71,49.97-45.02C397.95,206.38,403.37,200.77,409.14,195.66z M408.02,278.31c-0.7-0.29-0.97-0.48-1.24-0.5
		c-0.44-0.03-0.9,0.04-1.34,0.1c-16.31,2.24-28.27,10.95-36.5,24.94c-7.02,11.93-9.45,25.16-10.25,38.75
		c-0.07,1.27,0.75,2.91,1.69,3.86c6.09,6.2,12.06,12.56,18.57,18.31c13.57,12,28.21,22.4,46.06,27.18
		c10.82,2.89,21.53,2.8,32.57-2.15c-3.2-3.48-6.06-6.57-8.77-9.53c9.73-6.01,19.22-11.87,29.72-18.36
		c-5.68,8.18-10.77,15.51-15.86,22.85c6.3-2.13,12.29-4.51,17.83-7.67c10.38-5.95,20.71-12.05,30.61-18.75
		c3.23-2.18,6.87-6.22,7.23-9.73c1.08-10.65-0.23-21.31-6.31-30.66c-2.77-4.27-6.87-6.43-12.41-6.13c0.9,9.75-3.05,18.02-7.19,26.18
		c-2.71,5.34-6.13,10.33-8.68,15.74c-2.11,4.47-5.57,5.4-9.85,5.33c-11.73-0.19-20.55-6.23-26.44-15.52
		c-5.72-9.02-9.77-19.11-14.5-28.76c-0.65-1.33-0.95-2.82-1.41-4.24c-5.86,21.54-8.41,42.51,6.66,62.07
		c-14.63-4.41-23.29-14.81-30.38-26.59C394.47,322.9,396.66,300.48,408.02,278.31z M327.29,403.76c1.01,6.18,1.63,12.44,3.12,18.49
		c3.7,15.11,6.86,30.57,16.02,43.56c6.38,9.04,13.65,17.47,20.82,25.93c1.29,1.52,4.06,2.67,6.06,2.54
		c12.56-0.79,25.11-1.79,37.63-3.12c15.65-1.65,31.19-3.7,45.51-11.21c10.1-5.3,20.68-9.86,28.59-18.32
		c2.93-3.13,4.72-7.45,6.5-11.47c0.97-2.19-0.08-3.99-3.05-4.03c-3.44-0.05-6.88-0.49-10.32-0.65c-25.3-1.21-50.67-1.63-75.88-3.81
		c-25.83-2.23-47.78-13.31-64.02-34.06C335.37,403.93,332.7,402.15,327.29,403.76z M525.66,361.49
		c-13.38,7.12-26.51,14.55-40.04,21.15c-9.8,4.78-20.51,7.77-30.14,12.84c-10.52,5.54-21.25,7.09-32.58,5.01
		c-12.39-2.27-23.72-6.7-32.76-16.24c-7.28-7.69-15.35-14.62-23.85-22.64c0.28,1.97,0.28,2.83,0.54,3.61
		c1.45,4.4,2.64,8.93,4.51,13.15c11.66,26.31,31.91,44.09,57.15,56.74c1.61,0.81,3.86,1.09,5.62,0.72
		c13.59-2.88,27.37-5.18,40.62-9.22c15.65-4.77,29.73-12.83,40.29-25.85C524.49,389.08,527.77,375.7,525.66,361.49z M346.13,262.71
		c-0.59-0.27-1.19-0.54-1.78-0.81c-1.78,2.3-4,4.39-5.25,6.95c-2.36,4.82-4.73,9.76-6.08,14.92c-2.61,9.99-4.09,20.27-6.78,30.23
		c-6.99,25.85-6.14,51.29,3.15,76.39c0.64,1.73,2.29,3.26,3.81,4.46c6.2,4.91,12.52,9.68,18.82,14.46
		c4.95,3.75,9.46,8.6,15.02,10.91c8.65,3.58,18.01,5.44,27.1,7.95c0.76,0.21,1.68-0.14,3.63-0.36c-1.45-2.2-2.3-4.01-3.62-5.36
		c-1.66-1.7-3.79-2.93-5.56-4.55c-21.53-19.71-33.83-44.8-41.05-72.49c-5.01-19.22-5.9-39.09-6.46-58.88
		c-0.09-3.19,0.75-6.45,1.45-9.61C343.6,272.16,344.92,267.45,346.13,262.71z M529.92,343.42c0.12-0.18,0.4-0.52,0.58-0.91
		c0.43-0.96,0.84-1.92,1.2-2.91c6.47-17.64,7.46-35.61,3.59-53.97c-3.74-17.73-13.18-31.32-28.9-40.34
		c-11.03-6.32-22.69-7.12-33.96-3.67c5.85,6.45,12.25,12.38,17.28,19.32c9.83,13.55,14.94,29.23,18.56,45.45
		c0.33,1.48,1.43,3.36,2.7,3.96c6.03,2.87,10.29,7.43,12.65,13.44C526.11,330.15,527.84,336.82,529.92,343.42z M414.7,276.56
		c32.73-3.72,60.97,4.04,84.37,27.2c-3.1-34.18-27.86-52.98-50.82-73.51C432.64,242.52,418.37,255.05,414.7,276.56z M402.96,276.04
		c0.38-1.35,0.7-2.65,1.11-3.93c3.61-11.36,6.27-23.21,17.13-30.62c1.12-0.76,0.9-3.48,1.3-5.29c-1.34-0.16-2.76-0.72-4-0.43
		c-15.08,3.5-29.77,8.2-43.52,15.41c-23.96,12.56-29.63,41.13-21.58,65.73c4.17-0.86,4.72-1.57,4.99-6.43
		c1.11-20.26,16.34-34.62,36.5-34.43C397.43,276.06,399.96,276.04,402.96,276.04z M315.01,536.75c1.08,0.86,1.85,1.5,2.65,2.11
		c7.85,5.9,12.77,13.02,10.06,23.47c-0.24,0.94,0.12,2.07,0.29,3.09c1.08,6.37-1.19,11.51-6.71,14.44
		c-14.07,7.48-34.4,9.62-46.2-8.73c-4.71-7.33-7.75-15.76-11.34-23.79c-1.17-2.61-1.64-5.53-2.56-8.8
		c-7.56,8.42-17.13,10.32-28.04,10.97c6.06,7.71,11.35,14.92,17.15,21.7c14.76,17.23,33.16,25.07,55.99,20.91
		c12.28-2.23,22.14-8.05,24.86-20.81c1.51-7.08,0.98-14.92-0.22-22.16C329.67,541.41,323.39,537.25,315.01,536.75z M452.87,288.61
		c-7.1-4.63-13.45-6.31-21.06-6.3c-4.77,0.01-9.69,0.07-14.27-1.04c-4.1-1-5.23,0.54-6.35,3.81c-6.49,19-4.8,37.14,5.4,54.45
		c0.64,1.08,1.45,2.05,2.65,3.73C416.58,312.65,422.04,303.87,452.87,288.61z M463.1,350.12c1.35-0.2,2.82-0.28,4.21-0.66
		c9.79-2.67,14.76-9.76,16.96-19.09c1.77-7.48,5.23-13.98,10.19-19.76c1.32-1.54,2.68-3.04,4.22-4.77
		c-12.02-5.77-23.33-12.41-36.2-10.15c2.29,4.36,5.47,8.39,6.49,12.92c1.16,5.12,1.13,10.8,0.26,16.01
		C467.8,333.1,465.26,341.4,463.1,350.12z"/>
	<path d="M9.9,621c-1.28-1.63-2.57-3.26-3.83-4.91c-5.15-6.77-6.98-14.5-4.66-22.53c3.89-13.43,9.86-25.42,23.09-32.68
		c15.15-8.32,31.15-13.53,48.3-14.18c11.49-0.43,23.06,1.59,34.55,1.2c37.84-1.29,74.41-8.54,108.32-26.14
		c21.76-11.29,40.35-26.51,53.49-47.53c8.33-13.33,17.57-26.42,23.6-40.79c6.34-15.1,14.35-28.92,23.35-42.37
		c0.75-1.12,2.02-1.91,3.04-2.85c0.92,1.12,2.36,2.12,2.65,3.38c0.93,4.08,1.91,8.24,2.01,12.39c0.25,10.94,0.1,21.89-0.04,32.83
		c-0.02,1.55-0.48,3.37-1.37,4.58c-4.3,5.84-6.99,12.29-9.47,19.13c-6.76,18.6-19.41,33.56-31.55,48.86
		c-27.02,34.04-64.12,47.43-105.43,52.1c-20.69,2.34-41.63,2.66-62.21,5.66c-19.06,2.78-37.72,8.2-56.65,11.95
		c-23.19,4.59-35.67,21.01-45.88,40.21c-0.26,0.5-0.28,1.12-0.41,1.69C10.5,621,10.2,621,9.9,621z"/>
	<path d="M612,375.3c-1.32,3.15-3.6,4.73-7.04,5.46c-2.53,0.54-4.89,2.19-7.15,3.62c-10.57,6.71-22.01,11.12-33.83,15.28
		c-7.96,2.8-15.92,8.52-21.31,15.05c-10.18,12.32-22.91,18.46-37.99,20.8c-6.01,0.93-12.18,0.79-19.01,1.18
		c1.07-4.61,2.38-7.92,6.14-9.61c28.47-12.81,42.82-35.78,48.78-65.64c5.61-28.09,4.12-55.78-2.51-83.26
		c-2.82-11.69-7.68-22.89-11.51-34c-0.91-0.11-0.45-0.2-0.26-0.01c16.02,15.97,33.37,30.85,47.7,48.22
		c19.2,23.26,33.66,49.56,37.27,80.45c0.06,0.54,0.48,1.04,0.73,1.56C612,374.7,612,375,612,375.3z"/>
	<path d="M447.3,171c7.42,4.71,14.94,9.3,22.25,14.18c10.13,6.76,19.76,14.15,27.15,24c3.69,4.93,6.66,10.21,5.99,17.15
		c-35.98-7.75-71.52-13.21-106.42,4.62c0.63-1.39,1.12-2.7,1.79-3.91c11.76-21.55,26.15-40.87,46.65-55.02
		c0.34-0.23,0.54-0.68,0.8-1.02C446.1,171,446.7,171,447.3,171z"/>
	<path d="M409.14,195.66c-5.77,5.11-11.18,10.72-17.38,15.24c-18.22,13.31-35.15,27.86-49.97,45.02
		c-20.78,24.06-29.63,51.92-28.52,83.23c0.17,4.66,2.37,9.22,3.21,13.89c0.67,3.67,1.56,7.71-2.99,10.54
		c-8.98-11.97-15.98-24.59-21.07-38.28c-5.75-15.48-8.43-31.46-8.35-47.99c0.08-16.17-0.64-32.34-0.37-48.5
		c0.16-9.86,1.52-19.71,2.4-30.31c12.77,2.86,23.04-5.33,34.83-7.1c13.25-1.99,26.32-1.7,39.28,1.27c4.6,1.05,8.79,3.86,13.37,5.07
		c10.16,2.68,20.22,1.42,30.06-1.94c1.5-0.51,3-1.05,4.5-1.57C408.46,194.71,408.8,195.19,409.14,195.66z"/>
	<path d="M408.02,278.31c-11.36,22.17-13.54,44.6-0.21,66.73c7.1,11.78,15.76,22.17,30.38,26.59
		c-15.08-19.56-12.53-40.53-6.66-62.07c0.46,1.42,0.76,2.91,1.41,4.24c4.72,9.65,8.78,19.73,14.5,28.76
		c5.89,9.29,14.71,15.33,26.44,15.52c4.28,0.07,7.74-0.86,9.85-5.33c2.55-5.41,5.97-10.4,8.68-15.74
		c4.14-8.16,8.08-16.43,7.19-26.18c5.54-0.3,9.63,1.87,12.41,6.13c6.08,9.35,7.39,20.01,6.31,30.66c-0.35,3.51-4,7.55-7.23,9.73
		c-9.9,6.69-20.23,12.8-30.61,18.75c-5.53,3.17-11.52,5.54-17.83,7.67c5.09-7.34,10.19-14.67,15.86-22.85
		c-10.51,6.49-20,12.35-29.72,18.36c2.72,2.95,5.57,6.05,8.77,9.53c-11.04,4.95-21.75,5.04-32.57,2.15
		c-17.85-4.77-32.49-15.17-46.06-27.18c-6.5-5.75-12.48-12.11-18.57-18.31c-0.93-0.95-1.76-2.59-1.69-3.86
		c0.8-13.59,3.24-26.82,10.25-38.75c8.23-13.99,20.19-22.7,36.5-24.94c0.44-0.06,0.9-0.13,1.34-0.1
		C407.05,277.83,407.32,278.02,408.02,278.31z"/>
	<path d="M327.29,403.76c5.41-1.62,8.08,0.17,10.98,3.86c16.24,20.75,38.19,31.83,64.02,34.06c25.22,2.18,50.58,2.59,75.88,3.81
		c3.44,0.16,6.88,0.6,10.32,0.65c2.97,0.05,4.02,1.84,3.05,4.03c-1.78,4.01-3.57,8.34-6.5,11.47c-7.92,8.46-18.49,13.02-28.59,18.32
		c-14.32,7.51-29.86,9.55-45.51,11.21c-12.52,1.32-25.07,2.32-37.63,3.12c-2,0.13-4.77-1.02-6.06-2.54
		c-7.17-8.45-14.44-16.88-20.82-25.93c-9.17-12.99-12.32-28.46-16.02-43.56C328.92,416.21,328.3,409.95,327.29,403.76z"/>
	<path d="M525.66,361.49c2.12,14.21-1.17,27.59-10.64,39.27c-10.56,13.03-24.64,21.09-40.29,25.85
		c-13.25,4.04-27.03,6.34-40.62,9.22c-1.76,0.37-4.01,0.09-5.62-0.72c-25.24-12.65-45.49-30.43-57.15-56.74
		c-1.87-4.22-3.06-8.75-4.51-13.15c-0.26-0.78-0.26-1.64-0.54-3.61c8.51,8.01,16.58,14.95,23.85,22.64
		c9.03,9.54,20.37,13.97,32.76,16.24c11.33,2.08,22.06,0.53,32.58-5.01c9.63-5.07,20.33-8.06,30.14-12.84
		C499.15,376.04,512.28,368.6,525.66,361.49z"/>
	<path d="M346.13,262.71c-1.21,4.74-2.52,9.45-3.58,14.22c-0.7,3.16-1.54,6.42-1.45,9.61c0.57,19.8,1.45,39.66,6.46,58.88
		c7.22,27.69,19.52,52.78,41.05,72.49c1.76,1.61,3.9,2.84,5.56,4.55c1.32,1.36,2.17,3.16,3.62,5.36c-1.95,0.21-2.87,0.57-3.63,0.36
		c-9.08-2.51-18.45-4.37-27.1-7.95c-5.56-2.3-10.07-7.15-15.02-10.91c-6.3-4.78-12.62-9.55-18.82-14.46
		c-1.52-1.2-3.17-2.73-3.81-4.46c-9.3-25.1-10.15-50.53-3.15-76.39c2.69-9.96,4.17-20.24,6.78-30.23c1.35-5.16,3.72-10.1,6.08-14.92
		c1.25-2.56,3.47-4.65,5.25-6.95C344.94,262.17,345.53,262.44,346.13,262.71z"/>
	<path d="M529.92,343.42c-2.08-6.6-3.81-13.27-6.31-19.64c-2.36-6.01-6.62-10.57-12.65-13.44c-1.26-0.6-2.37-2.48-2.7-3.96
		c-3.61-16.22-8.73-31.9-18.56-45.45c-5.03-6.93-11.43-12.86-17.28-19.32c11.28-3.45,22.94-2.65,33.96,3.67
		c15.72,9.01,25.16,22.61,28.9,40.34c3.87,18.36,2.88,36.33-3.59,53.97c-0.36,0.98-0.77,1.95-1.2,2.91
		C530.32,342.9,530.04,343.24,529.92,343.42z"/>
	<path d="M414.7,276.56c3.66-21.51,17.94-34.04,33.55-46.31c22.96,20.53,47.72,39.34,50.82,73.51
		C475.67,280.6,447.43,272.84,414.7,276.56z"/>
	<path d="M402.96,276.04c-3,0-5.53,0.02-8.06,0c-20.16-0.18-35.39,14.17-36.5,34.43c-0.27,4.86-0.82,5.57-4.99,6.43
		c-8.06-24.6-2.38-53.17,21.58-65.73c13.76-7.21,28.44-11.91,43.52-15.41c1.23-0.29,2.66,0.27,4,0.43c-0.4,1.81-0.19,4.52-1.3,5.29
		c-10.85,7.41-13.52,19.25-17.13,30.62C403.67,273.39,403.34,274.69,402.96,276.04z"/>
	<path d="M315.01,536.75c8.38,0.5,14.66,4.66,15.93,12.4c1.19,7.24,1.73,15.08,0.22,22.16c-2.72,12.77-12.58,18.58-24.86,20.81
		c-22.83,4.16-41.23-3.68-55.99-20.91c-5.8-6.77-11.08-13.99-17.15-21.7c10.91-0.65,20.47-2.55,28.04-10.97
		c0.93,3.27,1.4,6.19,2.56,8.8c3.58,8.03,6.62,16.46,11.34,23.79c11.8,18.35,32.14,16.21,46.2,8.73c5.52-2.94,7.8-8.08,6.71-14.44
		c-0.17-1.02-0.54-2.15-0.29-3.09c2.71-10.45-2.21-17.58-10.06-23.47C316.86,538.25,316.09,537.61,315.01,536.75z"/>
	<path d="M452.87,288.61c-30.83,15.26-36.3,24.04-33.63,54.66c-1.2-1.68-2.01-2.65-2.65-3.73c-10.2-17.31-11.89-35.46-5.4-54.45
		c1.12-3.28,2.25-4.81,6.35-3.81c4.57,1.11,9.5,1.05,14.27,1.04C439.42,282.3,445.77,283.98,452.87,288.61z"/>
	<path d="M463.1,350.12c2.16-8.72,4.7-17.02,6.13-25.51c0.88-5.21,0.9-10.89-0.26-16.01c-1.02-4.52-4.21-8.56-6.49-12.92
		c12.86-2.26,24.17,4.38,36.2,10.15c-1.53,1.73-2.89,3.23-4.22,4.77c-4.97,5.78-8.42,12.28-10.19,19.76
		c-2.21,9.33-7.17,16.43-16.96,19.09C465.91,349.84,464.44,349.92,463.1,350.12z"/>
</g>
</svg>
