<?xml version="1.0" encoding="utf-8"?>
<!-- Generator: Adobe Illustrator 24.3.0, SVG Export Plug-In . SVG Version: 6.00 Build 0)  -->
<svg version="1.1" id="Layer_1" xmlns="http://www.w3.org/2000/svg" xmlns:xlink="http://www.w3.org/1999/xlink" x="0px" y="0px"
	 viewBox="0 0 612 792" style="enable-background:new 0 0 612 792;" xml:space="preserve">
<style type="text/css">
	.st0{fill:#FFFFFF;}
</style>
<g>
	<path class="st0" d="M610.29,544c-203.41,0-406.81,0-610.29,0c0-98.9,0-197.82,0-296.83c203.38,0,406.84,0,610.29,0
		C610.29,346.05,610.29,445.02,610.29,544z M535.44,356.54c-0.19,0.19-0.37,0.38-0.56,0.56c2.43,3.81,4.93,7.58,7.28,11.44
		c8.53,14.02,16.78,28.2,21.91,43.9c1.57,4.79,2.84,9.69,1.85,14.82c-0.62,3.22-2.49,5.33-5.67,6.17c-3.51,0.92-7.04,1.8-10.58,2.61
		c-8.04,1.84-13.58-1.74-14.55-9.96c-0.51-4.36-0.25-8.88,0.22-13.27c0.49-4.56,1.66-9.05,2.53-13.57c-0.77,0.73-1.17,1.6-1.63,2.43
		c-3.75,6.83-7.32,13.77-11.33,20.43c-2.5,4.15-5.84,7.73-10.35,9.96c-1.66,0.82-3.25,1.79-4.94,2.53
		c-1.99,0.87-4.05,1.55-6.08,2.31c0.11-2.13-0.29-4.46,0.44-6.35c1.77-4.59,4.17-8.94,6.13-13.46
		c4.94-11.37,10.86-22.16,18.64-31.88c1.36-1.7,2.78-3.36,4.61-5.56c-0.94,0.38-1.24,0.43-1.44,0.59
		c-10.39,8.2-21.12,16.01-31.07,24.72c-10.23,8.96-19,19.37-24.62,31.95c-2.42,5.41-5.98,9.62-11.03,12.35
		c-4.67,2.52-9.57,4.77-14.61,6.39c-13.33,4.26-27.24,4.28-41.06,5.17c-12.62,0.81-24.91,0.1-36.85-4.04
		c-15.03-5.21-26.69-14.09-31.51-30.04c-1.03-3.4-2.02-6.81-2.96-10.23c-3.82-13.84-3.87-27.69-0.08-41.54
		c5.26-19.18,16.59-34.44,31.59-46.98c12.22-10.21,22.05-22.34,30.74-35.48c5.64-8.53,10.29-17.58,11.83-27.87
		c0.72-4.85,0.46-9.62-1.68-13.98c-1.17,4.52-1.99,9.1-3.56,13.41c-1.62,4.43-3.68,8.75-6.04,12.84
		c-11.81,20.49-27.38,37.96-44.65,53.9c-11.95,11.03-22.1,23.13-27.89,38.49c-5.84,15.5-6.69,31.44-3.35,47.53
		c3.45,16.61,13.67,28.59,27.4,37.93c13.84,9.41,29.34,15.01,45.34,19.33c13.25,3.58,26.7,5.59,40.49,4.17
		c12.7-1.31,22.96-6.43,29.85-17.72c6.33-10.37,13.15-20.43,19.8-30.61c2.53-3.87,5.16-7.67,7.75-11.5c0.2,1.24-0.2,2.21-0.41,3.23
		c-1.31,6.36-3.22,12.67-3.68,19.09c-0.56,7.68,3.74,10.73,11.3,9.27c0.98-0.19,2.21-0.22,3.04,0.22
		c5.56,2.89,10.47,2.49,14.27-2.46c2.83-3.68,4.59-8.19,6.77-12.36c0.4-0.76,0.57-1.65,0.74-2.17c0.96,4.16,1.53,8.5,2.98,12.52
		c1.7,4.69,5.18,6.61,10.11,5.72c3.13-0.56,6.3-1.78,9.06-3.37c2.77-1.6,5.35-2.37,8.6-2.22c5.94,0.28,11.86-0.29,17.47-2.61
		c6.98-2.88,9.81-8.07,8.04-15.41c-0.66-2.75-1.69-5.53-3.13-7.95c-11.27-18.83-23.17-37.26-37.15-54.24
		C541.14,362.51,538.22,359.58,535.44,356.54z M41.26,529.4c0.31,0.27,0.61,0.54,0.92,0.81c0.39-0.53,0.74-1.1,1.17-1.59
		c8.64-9.72,18.38-18.22,28.86-25.9c28.44-20.83,60.46-30.9,95.58-31.59c10.69-0.21,20.74,2.69,30.46,6.81
		c20.7,8.77,38.14,22.3,54.49,37.4c2.21,2.05,4.4,4.12,6.69,6.26c0.94-1.35,1.59-2.46,2.41-3.44c6.21-7.42,12.2-15.04,18.74-22.16
		c6.13-6.67,13.59-11.45,22.27-14.69c11.18-4.17,21.92-9.53,33.02-13.92c4.75-1.88,9.95-2.63,15.02-3.91
		c-0.31-0.44-0.67-1.02-1.11-1.53c-0.95-1.13-1.88-2.3-2.93-3.34c-14.99-14.74-33.05-19.81-53.61-16.81
		c-11.9,1.74-22.84,6.2-33.39,11.8c-0.85,0.45-2.53,0.71-3.05,0.23c-6.81-6.32-12.94-12.31-12.28-23.41
		c1.06-17.71-0.12-35.54,0.17-53.31c0.13-7.73,3.32-14.79,8.25-20.82c2.61-3.19,5.69-3.22,8.34-0.12c3.34,3.92,6.25,8.1,5.58,13.8
		c-0.27,2.32,0.05,4.74,0.39,7.08c0.77,5.31,2.33,10.31,6.79,14.43c0-0.83,0.03-1.2,0-1.55c-1-10.55-1.59-21.08,1.28-31.48
		c0.16-0.58-0.17-1.5-0.58-2.01c-3.04-3.76-6.2-7.43-9.23-11.2c-4.16-5.17-9.97-6.4-15.49-2.65c-2.81,1.91-5.23,4.48-7.54,7.02
		c-2.38,2.62-4.19,5.75-6.61,8.31c-6.05,6.4-10.71,13.21-10.9,22.58c-0.25,12.52-1.08,25.04-1.75,37.55
		c-0.22,4.04-1.18,8.08-1,12.08c0.4,8.66,3.87,15.31,12.99,18.05c6.37,1.92,11.19,6.16,14.86,11.7c0.69,1.04,1.45,2.03,2.28,3.2
		c2.64-1.26,5.04-2.4,7.43-3.56c10.38-5.06,21.07-9.16,32.79-9.48c10.19-0.28,19.49,2.45,27.67,8.76
		c-6.95,2.98-13.87,5.61-20.49,8.85c-14.92,7.3-29.79,14.79-39.47,28.87c-4.71-3.56-9.25-7.39-14.18-10.63
		c-19.53-12.84-41.24-19.38-64.39-21.1c-8.54-0.63-17.31-1.08-25.72,0.13c-14.98,2.16-29.5,6.55-43.64,12.05
		c-21.43,8.33-41.09,19.51-57.21,36.14C50.19,518.25,45.87,523.97,41.26,529.4z M452.8,444.36c7.74-0.1,12.74-3.69,16.43-9.43
		c4.36-6.79,6.15-14.46,7.54-22.28c3.64-20.44,13.75-36.77,31.11-48.42c1.32-0.89,2.79-1.57,4.96-2.76
		c-3.96,11.38-7.6,21.87-11.25,32.36c1.66-2.21,2.81-4.61,4.05-6.96c1.29-2.44,2.6-4.88,4.04-7.25
		c14.65-24.14,34.32-43.49,57.28-59.69c9.33-6.58,18.07-13.8,25.49-22.52c8.19-9.64,14.37-20.3,16.41-32.99
		c0.23-1.42,0.23-2.87,0.33-4.31c-6.1,16.15-19.4,31.34-31.9,40.44c-20.87,15.2-39.61,32.72-58.09,50.59
		c-1.36,1.32-3.09,2.45-4.85,3.13c-15.69,6.02-29.75,14.55-40.31,27.76c-5.27,6.59-9.22,14.21-13.95,21.24
		c-2.63,3.91-5.35,7.83-8.56,11.24c-2.87,3.05-6.78,4.3-11.14,3.53c-1.53-0.27-3.12-0.38-4.67-0.29c-6.63,0.39-9.64-2.37-9.53-8.96
		c0.02-1.37,0.16-2.77,0.44-4.11c2.19-10.73,6.72-20.37,13.46-29.02c8.21-10.53,18.6-18.49,29.82-25.49
		c1.3-0.81,2.58-1.66,3.86-2.49c-0.7-0.38-1.18-0.35-1.6-0.18c-9.92,3.85-19.28,8.71-27.57,15.44
		c-8.97,7.29-15.92,15.96-19.86,27.09c-1.77,5.01-4.75,9.78-8.02,14.02c-1.89,2.46-5.25,4.17-8.29,5.27c-3.46,1.25-7.3,1.51-11,2.08
		c-5.22,0.81-8.76-1.49-9.72-6.7c-0.55-2.97-0.71-6.11-0.46-9.12c2.03-24.52,12.29-44.9,31.32-60.65
		c15.03-12.44,32.62-19.49,51.44-23.85c1.58-0.37,3.15-0.82,4.72-1.24c-6.56,0.57-13.03,1.52-19.35,3.06
		c-23.94,5.82-45.03,16.74-61.07,35.86c-4.52,5.39-9.15,11.34-11.39,17.84c-5.53,16.09-7.58,32.88-5.31,49.93
		c1.68,12.65,5.93,24.33,14.16,34.31c1.27,1.54,2.73,2.91,4.11,4.36c-6.33-15.9-9.51-30.12-7.87-36.8
		c7.56,10.57,18.55,11.28,29.26,1.75c0.28,1.13,0.55,2.16,0.78,3.2c2.39,10.77,15.61,16.54,22.7,12.64
		c6.72-3.7,13.23-7.81,19.78-11.8c1.01-0.62,1.81-1.59,3.07-2.73C463.22,430.79,459.84,438.07,452.8,444.36z M193.98,436.18
		c-2.63-1.1-4.87-2.51-7.29-2.98c-14.52-2.82-29.26-3.24-43.59,0.1c-60.97,14.2-104.86,50.04-132.59,105.89
		c-0.45,0.9-0.8,1.84-1.2,2.76c0.28,0.17,0.57,0.34,0.85,0.51c2.86-3.86,5.92-7.59,8.55-11.61c19.9-30.48,46.47-53.58,78.37-70.8
		c14.87-8.03,30.32-14.56,47.32-16.44c16.74-1.85,32.6,0.19,46.09,11.54c0.48,0.4,1.77,0.49,2.26,0.14
		c5.08-3.58,10.27-7.05,15.04-11.01c4.26-3.54,6.7-8.52,6.94-13.99c0.38-8.85,0.4-17.74-0.04-26.59
		c-0.27-5.46-2.44-10.59-5.89-14.96c-4.38-5.55-9.91-8.91-17.29-8.75c-4.45,0.09-8.9-0.16-13.36-0.25c0.72-1.3,1.51-1.85,2.3-2.4
		c8.66-6.06,17.52-11.87,25.95-18.24c20.45-15.47,38.96-32.95,53.39-54.3c4.99-7.38,9.14-15.32,13.67-23.01
		c-0.29-0.17-0.58-0.34-0.87-0.51c-2.11,3.16-4.04,6.45-6.34,9.46c-23.3,30.4-50.85,55.87-85.1,73.73
		c-20.29,10.58-36.56,26.15-51.75,42.94c-0.12,0.13-0.08,0.39-0.18,0.88c1.57-1.26,2.85-2.35,4.19-3.35
		c10.08-7.57,21.19-11.81,34.02-10.22c3.21,0.4,6.39,1.62,9.57,1.6c9.97-0.05,15.49,4.06,17.75,13.83
		C196.8,418.98,195.45,427.72,193.98,436.18z M248.03,275.21c-0.3-0.13-0.61-0.26-0.91-0.39c-1.43,2.69-2.78,5.43-4.32,8.05
		c-9.77,16.64-21.32,31.63-38.59,41.29c-0.59,0.33-1.05,0.89-1.61,1.29c-6.27,4.6-12.33,9.55-18.89,13.69
		c-5.57,3.52-11.89,5.83-17.6,9.16c-14.77,8.62-28.25,19.06-39.93,31.49c-9.66,10.28-18.32,21.49-27.53,32.18
		c-3.15,3.66-6.58,7.08-10.03,10.46c-0.73,0.72-2.1,0.78-3.17,1.15c-0.32-1.17-1.1-2.42-0.89-3.49c1.96-9.99,4.37-19.82,10.65-28.22
		c10.28-13.73,23.34-24.21,37.75-33.37c6.64-4.22,12.44-9.77,18.62-14.71c-0.2-0.26-0.39-0.52-0.59-0.78
		c-0.85,0.58-1.7,1.17-2.56,1.73c-11.12,7.19-21.89,15-33.46,21.36c-10.88,5.98-19.69,13.7-26.74,23.75
		c-5.22,7.43-10.75,14.65-16.1,21.99c-0.62,0.85-0.98,1.9-1.4,2.88c-2.24,5.26-4.38,10.56-6.75,15.76
		c-0.63,1.39-1.95,2.46-2.96,3.68c-0.4-0.14-0.8-0.27-1.21-0.41c-1.76-10.04-0.1-20.07,1.68-29.9c1.84-10.19,6.76-19.15,15.26-26.5
		C40.38,389.3,7.83,419.02,0.74,459.05c0.71-1.35,1.07-2.13,1.51-2.86c4.87-8.23,9.39-16.7,14.74-24.62
		c5.84-8.64,13.11-16.09,22.38-21.27c1.55-0.87,3.21-1.53,5.34-2.53c-0.3,1.47-0.43,2.13-0.58,2.79
		c-2.55,11.25-3.77,22.59-2.01,34.09c0.95,6.21,3.79,11.4,8.94,15.15c2.78,2.03,4.77,1.72,6.91-0.97c0.79-1,1.43-2.13,2.09-3.23
		c3.57-6.03,7.09-12.1,10.72-18.1c1.07-1.76,2.3-3.47,3.7-4.99c2.36-2.56,4.24-2.27,5.63,0.87c0.79,1.79,1.03,3.82,1.79,5.62
		c0.62,1.46,1.66,2.74,2.51,4.1c1.41-0.93,3.27-1.56,4.13-2.85c2.33-3.53,4.31-7.3,6.3-11.04c1.67-3.13,2.64-6.78,4.83-9.46
		c13.21-16.14,28.07-30.42,45.86-41.69c25.94-16.43,50.66-34.49,71.61-57.24c9.05-9.83,18.32-19.46,24.58-31.41
		C244.11,284.83,245.94,279.95,248.03,275.21z M284.11,394.56c0.4-0.27,0.63-0.34,0.68-0.47c0.21-0.55,0.4-1.12,0.53-1.69
		c4.77-21.32,17.25-37.36,34.57-50.01c5.5-4.01,11.57-7.29,16.8-11.6c12.46-10.28,23.56-21.95,33.22-34.93
		c6.7-8.99,12.53-18.47,15.49-29.43c1.76-6.53,1.7-13.2-0.12-17.44c-0.19,1.19-0.33,2.15-0.48,3.11c-0.15,0.97-0.27,1.96-0.48,2.92
		c-3.39,15.7-11.75,28.76-22.01,40.73c-15.65,18.27-34.67,32.49-54.96,45.19c-4.48,2.8-8.65,6.2-12.54,9.79
		c-6.04,5.58-10.54,12.27-12.53,20.41C280.32,379.13,281.14,386.87,284.11,394.56z M249.48,421.76c0.24,0.2,0.47,0.4,0.71,0.6
		c3.12-1.46,6.19-3.03,9.37-4.34c1.71-0.7,2.74-0.13,2.05,2c-0.33,1.02-0.54,2.09-0.7,3.15c-1,6.61-2.03,13.21-2.91,19.83
		c-0.13,0.95,0.17,2.37,0.82,2.9c0.58,0.48,1.92,0.01,2.93-0.02c4.14-0.09,4.33-2.43,5.19-6.09c1.53-6.44,3.16-12.73,2.71-19.49
		c2.19-0.49,4.25-0.81,6.22-1.41c3.28-1.01,6.71-1.82,9.69-3.43c4.17-2.26,4.92-6.87,2.5-11.61c-1.87-3.65-4.99-4.64-9.6-2.84
		c-3.37,1.32-6.66,2.84-9.93,4.25c-1.24-3.06-2.44-6.03-3.64-9.01c-0.36,0.07-0.72,0.13-1.07,0.2c-0.43,0.94-1.08,1.85-1.26,2.84
		c-0.53,2.91-0.74,5.88-1.36,8.77c-0.28,1.3-1.01,2.66-1.92,3.64C256.09,415.13,252.75,418.42,249.48,421.76z M299.77,397.37
		c-0.17,0.01-0.35,0.01-0.52,0.02c-2.17,5.5-4.44,10.97-6.46,16.52c-0.75,2.06-1.93,3.18-3.91,4c-5.14,2.14-10.2,4.49-15.28,6.76
		c0.06,0.19,0.12,0.38,0.17,0.57c5.3-0.81,10.59-1.62,16.14-2.46c-0.08,1.59-0.21,2.94-0.21,4.29c0,1.38-0.01,2.78,0.23,4.13
		c0.67,3.8,2.63,5.31,6.06,4.85c3.23-0.43,4.1-1.76,3.87-5.93c-0.3-5.56,2.22-7.78,7.85-7.46c2.71,0.15,5.52-0.14,8.17-0.75
		c2.59-0.6,4.18-2.54,4.31-5.36c0.4-8.42-8.55-14.43-16.14-10.82c-1.36,0.65-2.64,1.44-4.29,2.35
		C299.77,404.2,299.77,400.78,299.77,397.37z"/>
	<path d="M535.44,356.54c2.78,3.04,5.71,5.97,8.32,9.15c13.98,16.98,25.88,35.4,37.15,54.24c1.45,2.42,2.47,5.2,3.13,7.95
		c1.77,7.34-1.06,12.53-8.04,15.41c-5.6,2.32-11.53,2.89-17.47,2.61c-3.25-0.15-5.83,0.61-8.6,2.22c-2.76,1.6-5.92,2.81-9.06,3.37
		c-4.94,0.89-8.41-1.03-10.11-5.72c-1.46-4.02-2.03-8.35-2.98-12.52c-0.17,0.52-0.34,1.41-0.74,2.17
		c-2.19,4.17-3.94,8.68-6.77,12.36c-3.8,4.94-8.71,5.35-14.27,2.46c-0.83-0.43-2.07-0.4-3.04-0.22c-7.56,1.46-11.86-1.59-11.3-9.27
		c0.46-6.42,2.37-12.74,3.68-19.09c0.21-1.01,0.61-1.99,0.41-3.23c-2.58,3.83-5.22,7.63-7.75,11.5
		c-6.64,10.17-13.47,20.24-19.8,30.61c-6.89,11.29-17.15,16.42-29.85,17.72c-13.79,1.42-27.25-0.59-40.49-4.17
		c-16-4.32-31.5-9.92-45.34-19.33c-13.73-9.34-23.96-21.32-27.4-37.93c-3.34-16.09-2.49-32.02,3.35-47.53
		c5.79-15.36,15.94-27.45,27.89-38.49c17.26-15.94,32.84-33.41,44.65-53.9c2.36-4.09,4.42-8.41,6.04-12.84
		c1.57-4.31,2.4-8.9,3.56-13.41c2.14,4.36,2.4,9.13,1.68,13.98c-1.53,10.29-6.18,19.34-11.83,27.87
		c-8.69,13.15-18.52,25.27-30.74,35.48c-15,12.54-26.33,27.8-31.59,46.98c-3.79,13.85-3.75,27.7,0.08,41.54
		c0.95,3.42,1.94,6.84,2.96,10.23c4.82,15.95,16.48,24.83,31.51,30.04c11.95,4.14,24.23,4.85,36.85,4.04
		c13.83-0.89,27.73-0.91,41.06-5.17c5.04-1.61,9.95-3.87,14.61-6.39c5.05-2.73,8.62-6.94,11.03-12.35
		c5.62-12.58,14.39-22.99,24.62-31.95c9.94-8.71,20.67-16.52,31.07-24.72c0.2-0.16,0.5-0.21,1.44-0.59
		c-1.83,2.2-3.25,3.86-4.61,5.56c-7.78,9.71-13.69,20.51-18.64,31.88c-1.97,4.52-4.36,8.87-6.13,13.46
		c-0.73,1.89-0.32,4.22-0.44,6.35c2.03-0.76,4.1-1.45,6.08-2.31c1.69-0.74,3.28-1.71,4.94-2.53c4.51-2.22,7.84-5.8,10.35-9.96
		c4.02-6.67,7.58-13.61,11.33-20.43c0.46-0.84,0.86-1.7,1.63-2.43c-0.87,4.52-2.04,9.01-2.53,13.57c-0.47,4.39-0.74,8.91-0.22,13.27
		c0.97,8.22,6.5,11.8,14.55,9.96c3.54-0.81,7.07-1.69,10.58-2.61c3.18-0.83,5.05-2.95,5.67-6.17c0.99-5.14-0.28-10.03-1.85-14.82
		c-5.13-15.7-13.38-29.88-21.91-43.9c-2.35-3.86-4.85-7.63-7.28-11.44C535.06,356.91,535.25,356.72,535.44,356.54z"/>
	<path d="M41.26,529.4c4.61-5.44,8.93-11.16,13.88-16.27c16.12-16.63,35.78-27.81,57.21-36.14c14.14-5.5,28.67-9.89,43.64-12.05
		c8.41-1.21,17.18-0.76,25.72-0.13c23.15,1.72,44.86,8.26,64.39,21.1c4.93,3.24,9.47,7.08,14.18,10.63
		c9.68-14.08,24.54-21.56,39.47-28.87c6.62-3.24,13.54-5.87,20.49-8.85c-8.18-6.32-17.48-9.04-27.67-8.76
		c-11.72,0.32-22.41,4.42-32.79,9.48c-2.39,1.16-4.79,2.3-7.43,3.56c-0.83-1.17-1.59-2.16-2.28-3.2c-3.66-5.54-8.48-9.78-14.86-11.7
		c-9.12-2.74-12.59-9.39-12.99-18.05c-0.19-4,0.78-8.05,1-12.08c0.67-12.51,1.5-25.03,1.75-37.55c0.18-9.36,4.84-16.17,10.9-22.58
		c2.42-2.56,4.24-5.69,6.61-8.31c2.31-2.54,4.73-5.11,7.54-7.02c5.52-3.75,11.32-2.52,15.49,2.65c3.03,3.77,6.2,7.43,9.23,11.2
		c0.41,0.51,0.74,1.43,0.58,2.01c-2.87,10.4-2.27,20.93-1.28,31.48c0.03,0.36,0,0.72,0,1.55c-4.47-4.12-6.02-9.12-6.79-14.43
		c-0.34-2.34-0.66-4.76-0.39-7.08c0.67-5.7-2.24-9.88-5.58-13.8c-2.65-3.11-5.74-3.07-8.34,0.12c-4.93,6.03-8.12,13.09-8.25,20.82
		c-0.29,17.77,0.89,35.6-0.17,53.31c-0.67,11.09,5.46,17.08,12.28,23.41c0.52,0.48,2.2,0.22,3.05-0.23
		c10.55-5.59,21.49-10.06,33.39-11.8c20.56-3.01,38.62,2.07,53.61,16.81c1.05,1.04,1.98,2.21,2.93,3.34
		c0.43,0.52,0.79,1.09,1.11,1.53c-5.06,1.28-10.27,2.03-15.02,3.91c-11.11,4.4-21.84,9.75-33.02,13.92
		c-8.68,3.24-16.14,8.02-22.27,14.69c-6.54,7.12-12.54,14.74-18.74,22.16c-0.82,0.98-1.47,2.09-2.41,3.44
		c-2.28-2.14-4.47-4.21-6.69-6.26c-16.34-15.11-33.79-28.63-54.49-37.4c-9.72-4.12-19.77-7.02-30.46-6.81
		c-35.12,0.69-67.14,10.76-95.58,31.59c-10.48,7.67-20.23,16.17-28.86,25.9c-0.44,0.49-0.78,1.06-1.17,1.59
		C41.88,529.95,41.57,529.68,41.26,529.4z"/>
	<path d="M452.8,444.36c7.03-6.29,10.42-13.58,10.81-22.88c-1.26,1.14-2.06,2.11-3.07,2.73c-6.56,4-13.06,8.1-19.78,11.8
		c-7.08,3.9-20.31-1.87-22.7-12.64c-0.23-1.04-0.51-2.07-0.78-3.2c-10.72,9.54-21.7,8.83-29.26-1.75
		c-1.64,6.68,1.54,20.91,7.87,36.8c-1.37-1.45-2.84-2.82-4.11-4.36c-8.24-9.98-12.48-21.66-14.16-34.31
		c-2.27-17.05-0.22-33.84,5.31-49.93c2.23-6.5,6.87-12.45,11.39-17.84c16.04-19.11,37.12-30.04,61.07-35.86
		c6.32-1.54,12.79-2.48,19.35-3.06c-1.57,0.41-3.14,0.87-4.72,1.24c-18.82,4.35-36.42,11.41-51.44,23.85
		c-19.03,15.75-29.3,36.13-31.32,60.65c-0.25,3.01-0.09,6.15,0.46,9.12c0.96,5.2,4.51,7.51,9.72,6.7c3.69-0.57,7.53-0.83,11-2.08
		c3.04-1.1,6.39-2.81,8.29-5.27c3.26-4.24,6.24-9.01,8.02-14.02c3.94-11.13,10.89-19.79,19.86-27.09
		c8.29-6.74,17.65-11.59,27.57-15.44c0.43-0.17,0.9-0.2,1.6,0.18c-1.29,0.83-2.56,1.68-3.86,2.49c-11.22,7-21.61,14.96-29.82,25.49
		c-6.74,8.65-11.27,18.29-13.46,29.02c-0.27,1.35-0.42,2.74-0.44,4.11c-0.11,6.59,2.9,9.35,9.53,8.96c1.55-0.09,3.14,0.02,4.67,0.29
		c4.36,0.78,8.28-0.48,11.14-3.53c3.21-3.42,5.93-7.34,8.56-11.24c4.73-7.03,8.68-14.65,13.95-21.24
		c10.56-13.21,24.62-21.74,40.31-27.76c1.76-0.68,3.49-1.81,4.85-3.13c18.48-17.88,37.22-35.4,58.09-50.59
		c12.51-9.11,25.81-24.29,31.9-40.44c-0.1,1.44-0.1,2.89-0.33,4.31c-2.04,12.69-8.22,23.35-16.41,32.99
		c-7.41,8.72-16.16,15.94-25.49,22.52c-22.95,16.2-42.63,35.55-57.28,59.69c-1.43,2.36-2.74,4.8-4.04,7.25
		c-1.24,2.35-2.39,4.75-4.05,6.96c3.65-10.49,7.29-20.98,11.25-32.36c-2.16,1.2-3.63,1.87-4.96,2.76
		c-17.36,11.65-27.47,27.98-31.11,48.42c-1.39,7.82-3.17,15.49-7.54,22.28C465.54,440.67,460.54,444.27,452.8,444.36z"/>
	<path d="M193.98,436.18c1.47-8.46,2.82-17.2,0.77-26.06c-2.26-9.76-7.78-13.88-17.75-13.83c-3.19,0.02-6.36-1.2-9.57-1.6
		c-12.83-1.59-23.94,2.65-34.02,10.22c-1.34,1.01-2.62,2.09-4.19,3.35c0.09-0.49,0.06-0.75,0.18-0.88
		c15.19-16.79,31.46-32.35,51.75-42.94c34.25-17.86,61.81-43.33,85.1-73.73c2.3-3.01,4.24-6.3,6.34-9.46
		c0.29,0.17,0.58,0.34,0.87,0.51c-4.53,7.68-8.68,15.63-13.67,23.01c-14.43,21.35-32.94,38.83-53.39,54.3
		c-8.43,6.37-17.28,12.18-25.95,18.24c-0.79,0.55-1.59,1.1-2.3,2.4c4.45,0.1,8.91,0.35,13.36,0.25c7.38-0.16,12.91,3.2,17.29,8.75
		c3.45,4.37,5.62,9.5,5.89,14.96c0.44,8.85,0.41,17.74,0.04,26.59c-0.23,5.47-2.68,10.45-6.94,13.99
		c-4.77,3.96-9.96,7.43-15.04,11.01c-0.5,0.35-1.78,0.27-2.26-0.14c-13.49-11.34-29.35-13.39-46.09-11.54
		c-16.99,1.88-32.44,8.41-47.32,16.44c-31.9,17.22-58.47,40.31-78.37,70.8c-2.62,4.02-5.69,7.75-8.55,11.61
		c-0.28-0.17-0.57-0.34-0.85-0.51c0.4-0.92,0.75-1.86,1.2-2.76c27.73-55.84,71.62-91.69,132.59-105.89
		c14.33-3.34,29.07-2.92,43.59-0.1C189.11,433.67,191.35,435.08,193.98,436.18z"/>
	<path d="M248.03,275.21c-2.09,4.74-3.92,9.62-6.32,14.21c-6.26,11.95-15.53,21.58-24.58,31.41c-20.95,22.75-45.67,40.8-71.61,57.24
		c-17.79,11.27-32.66,25.54-45.86,41.69c-2.19,2.68-3.16,6.33-4.83,9.46c-1.99,3.74-3.97,7.51-6.3,11.04
		c-0.86,1.29-2.72,1.92-4.13,2.85c-0.85-1.36-1.89-2.64-2.51-4.1c-0.77-1.8-1-3.83-1.79-5.62c-1.38-3.14-3.27-3.43-5.63-0.87
		c-1.39,1.52-2.63,3.22-3.7,4.99c-3.63,6-7.14,12.07-10.72,18.1c-0.65,1.1-1.29,2.23-2.09,3.23c-2.14,2.69-4.13,3-6.91,0.97
		c-5.15-3.75-7.99-8.94-8.94-15.15c-1.76-11.5-0.54-22.84,2.01-34.09c0.15-0.66,0.27-1.32,0.58-2.79c-2.13,1-3.79,1.67-5.34,2.53
		c-9.27,5.18-16.54,12.63-22.38,21.27c-5.35,7.91-9.86,16.39-14.74,24.62c-0.44,0.74-0.8,1.52-1.51,2.86
		c7.09-40.02,39.64-69.75,76.02-81.69c-8.49,7.35-13.41,16.31-15.26,26.5c-1.78,9.83-3.44,19.87-1.68,29.9
		c0.4,0.14,0.8,0.27,1.21,0.41c1-1.22,2.32-2.29,2.96-3.68c2.37-5.2,4.51-10.5,6.75-15.76c0.42-0.98,0.78-2.03,1.4-2.88
		c5.35-7.34,10.88-14.56,16.1-21.99c7.06-10.05,15.86-17.77,26.74-23.75c11.57-6.36,22.34-14.18,33.46-21.36
		c0.87-0.56,1.71-1.15,2.56-1.73c0.2,0.26,0.39,0.52,0.59,0.78c-6.18,4.95-11.98,10.49-18.62,14.71
		c-14.41,9.15-27.47,19.63-37.75,33.37c-6.28,8.39-8.69,18.23-10.65,28.22c-0.21,1.06,0.57,2.32,0.89,3.49
		c1.07-0.37,2.44-0.43,3.17-1.15c3.45-3.38,6.88-6.8,10.03-10.46c9.22-10.7,17.88-21.9,27.53-32.18
		c11.68-12.43,25.16-22.87,39.93-31.49c5.71-3.33,12.03-5.64,17.6-9.16c6.56-4.14,12.62-9.09,18.89-13.69
		c0.55-0.41,1.01-0.96,1.61-1.29c17.27-9.66,28.82-24.65,38.59-41.29c1.54-2.62,2.88-5.36,4.32-8.05
		C247.43,274.95,247.73,275.08,248.03,275.21z"/>
	<path d="M284.11,394.56c-2.97-7.7-3.79-15.43-1.83-23.42c1.99-8.14,6.48-14.83,12.53-20.41c3.89-3.59,8.06-6.99,12.54-9.79
		c20.3-12.7,39.31-26.92,54.96-45.19c10.26-11.97,18.62-25.03,22.01-40.73c0.21-0.96,0.32-1.94,0.48-2.92
		c0.15-0.96,0.3-1.92,0.48-3.11c1.82,4.23,1.88,10.91,0.12,17.44c-2.95,10.96-8.79,20.44-15.49,29.43
		c-9.66,12.97-20.75,24.65-33.22,34.93c-5.23,4.31-11.31,7.59-16.8,11.6c-17.32,12.65-29.79,28.69-34.57,50.01
		c-0.13,0.57-0.32,1.14-0.53,1.69C284.74,394.22,284.51,394.29,284.11,394.56z"/>
	<path d="M249.48,421.76c3.27-3.34,6.61-6.62,9.78-10.06c0.91-0.98,1.64-2.34,1.92-3.64c0.62-2.89,0.83-5.86,1.36-8.77
		c0.18-0.99,0.83-1.89,1.26-2.84c0.36-0.07,0.72-0.13,1.07-0.2c1.2,2.98,2.41,5.95,3.64,9.01c3.27-1.41,6.56-2.93,9.93-4.25
		c4.6-1.8,7.73-0.81,9.6,2.84c2.42,4.74,1.67,9.35-2.5,11.61c-2.98,1.61-6.41,2.42-9.69,3.43c-1.97,0.61-4.02,0.93-6.22,1.41
		c0.45,6.76-1.17,13.04-2.71,19.49c-0.87,3.66-1.06,6-5.19,6.09c-1.01,0.02-2.35,0.49-2.93,0.02c-0.65-0.53-0.95-1.95-0.82-2.9
		c0.88-6.62,1.91-13.23,2.91-19.83c0.16-1.06,0.37-2.13,0.7-3.15c0.68-2.13-0.34-2.7-2.05-2c-3.18,1.31-6.25,2.88-9.37,4.34
		C249.95,422.15,249.71,421.95,249.48,421.76z M269.47,414.69c3.32-1.35,6.63-2.69,9.95-4.04
		C274.2,408.93,270.46,410.35,269.47,414.69z"/>
	<path d="M299.77,397.37c0,3.42,0,6.83,0,10.71c1.65-0.91,2.93-1.7,4.29-2.35c7.59-3.62,16.54,2.39,16.14,10.82
		c-0.13,2.83-1.73,4.76-4.31,5.36c-2.64,0.61-5.46,0.91-8.17,0.75c-5.63-0.32-8.15,1.9-7.85,7.46c0.23,4.17-0.64,5.5-3.87,5.93
		c-3.43,0.46-5.39-1.04-6.06-4.85c-0.24-1.35-0.23-2.75-0.23-4.13c0-1.35,0.12-2.7,0.21-4.29c-5.54,0.85-10.84,1.65-16.14,2.46
		c-0.06-0.19-0.12-0.38-0.17-0.57c5.09-2.27,10.14-4.62,15.28-6.76c1.98-0.82,3.16-1.95,3.91-4c2.02-5.56,4.29-11.02,6.46-16.52
		C299.42,397.38,299.59,397.37,299.77,397.37z M310.91,415.64c-2.57-3.29-4.08-3.43-6.98-1
		C306.24,414.97,308.17,415.25,310.91,415.64z"/>
	<path class="st0" d="M269.47,414.69c1-4.34,4.74-5.76,9.95-4.04C276.1,412,272.78,413.34,269.47,414.69z"/>
	<path class="st0" d="M310.91,415.64c-2.74-0.39-4.67-0.67-6.98-1C306.83,412.21,308.34,412.35,310.91,415.64z"/>
</g>
</svg>
