<?xml version="1.0" encoding="utf-8"?>
<!-- Generator: Adobe Illustrator 24.3.0, SVG Export Plug-In . SVG Version: 6.00 Build 0)  -->
<svg version="1.1" id="Layer_1" xmlns="http://www.w3.org/2000/svg" xmlns:xlink="http://www.w3.org/1999/xlink" x="0px" y="0px"
	 viewBox="0 0 612 792" style="enable-background:new 0 0 612 792;" xml:space="preserve">
<style type="text/css">
	.st0{fill:#FFFFFF;}
</style>
<g>
	<path class="st0" d="M0,556.06c0-130.37,0-260.74,0-391.18c204,0,408,0,612,0.01c0,73.49,0,146.98,0,220.46
		c-1.56-2.39-2.92-4.95-4.72-7.15c-3.55-4.32-4.34-9.3-4.21-14.63c0.08-3.05,0.41-6.15-0.04-9.13c-0.26-1.69-1.87-3.17-2.87-4.74
		c-1.14,1.06-2.67,1.92-3.34,3.22c-1.32,2.58-2.12,5.42-3.22,8.12c-1.17,2.87-2.44,5.71-3.66,8.56c-0.42-0.07-0.84-0.13-1.27-0.2
		c-0.53-1.7-1.06-3.4-1.59-5.1c-1.23-3.92-2.1-8.02-3.86-11.69c-0.92-1.92-3.44-3.06-5.24-4.56c-0.76,1.97-1.87,3.89-2.21,5.94
		c-0.69,4.09-0.96,8.25-1.53,13.52c-5.58-5.3-9.99-9.79-14.73-13.91c-8.14-7.08-10.39-16.53-10.5-26.54
		c-0.09-7.95,0.7-15.95,1.56-23.87c0.58-5.29,1.26-10.78,3.17-15.68c3.05-7.82,7.16-15.22,10.78-22.71c1.58,0.52,3.5,1.81,4.52,1.3
		c1.12-0.56,1.42-2.77,2.15-4.42c0.86,1.11,1.61,2.52,2.76,3.41c1.04,0.81,2.52,1.07,3.8,1.58c0.27-1.24,0.95-2.55,0.74-3.7
		c-1.07-6.05-2.56-12.03-3.48-18.09c-0.44-2.92-0.13-6,0.14-8.98c0.41-4.52,1.34-9,1.56-13.52c0.19-3.95-0.07-7.96-0.57-11.88
		c-0.48-3.75-1.05-7.61-2.43-11.09c-2.56-6.47-3.49-13.83-9.4-18.65c-0.29-0.24-0.23-0.87-0.44-1.27c-1.64-3.21-2.9-6.72-5.04-9.56
		c-3.37-4.45-7.12-5.44-11.66-2.38c-5.27,3.55-9.84,8.13-14.67,12.3c-2.97,2.55-5.54,5.75-8.87,7.65
		c-7.69,4.39-14.54,9.63-20.54,16.15c-2.44,2.65-5.69,4.63-8.78,6.58c-4.02,2.54-8.5,4.4-12.34,7.16
		c-8.79,6.34-17.37,12.53-27.54,17.1c-8.27,3.72-15.77,4.76-24.3,4.23c-12.95-0.81-26.18-0.94-38.05,4.79
		c-21.17,10.22-38.12,25.71-51.1,45.28c-3.72,5.61-8.52,8.82-14.72,10.97c-14.54,5.04-28.66,10.9-41.3,20.11
		c-6.22,4.53-13.61,7.5-20.58,10.95c-7.83,3.87-16.18,6.85-23.59,11.38c-10.11,6.18-20.97,9.18-32.48,10.83
		c-25.18,3.62-48.24,11.41-63.7,33.46c-0.84,1.2-0.9,2.93-1.33,4.42c1.42,0.33,2.98,1.21,4.24,0.89
		c14.42-3.67,27.19,0.82,39.83,7.22c9.82,4.97,19.84,9.67,30.11,13.61c6.57,2.53,13.76,3.46,20.79,5.14
		c-0.41,0.18-0.88,0.51-1.4,0.6c-8.33,1.48-16.69,2.84-25,4.43c-3.92,0.75-7.85,1.68-11.57,3.09c-1.7,0.64-2.89,2.64-4.32,4.02
		c1.53,0.79,2.99,1.89,4.61,2.3c2.11,0.54,4.36,0.53,6.54,0.76c-8.5,3.12-17.04,5.38-25.57,7.7c-10.09,2.74-20.21,5.41-30.21,8.43
		c-2,0.61-3.56,2.68-5.32,4.08c2.17,0.75,4.3,1.8,6.53,2.16c2.35,0.38,4.81,0.08,7.22,0.08c-4.86,2.55-9.77,3.78-14.53,5.44
		c-8.7,3.03-17.18,6.74-25.98,9.4c-19.7,5.96-39.62,11.25-58.56,19.45c-1.96,0.85-3.76,2.07-5.63,3.13
		c0.17,0.81,0.35,1.62,0.52,2.43c20.88-0.65,41.67-3.53,62.61-4.2c-13.09,7.38-26.27,14.29-39.45,21.19
		c-19.47,10.19-39.03,20.19-58.36,30.64C13.29,546.75,6.78,551.65,0,556.06z"/>
	<path d="M0,556.06c6.78-4.42,13.29-9.32,20.38-13.15c19.32-10.45,38.89-20.45,58.36-30.64c13.18-6.9,26.36-13.81,39.45-21.19
		c-20.94,0.66-41.73,3.55-62.61,4.2c-0.17-0.81-0.35-1.62-0.52-2.43c1.87-1.05,3.67-2.28,5.63-3.13
		c18.95-8.2,38.86-13.49,58.56-19.45c8.8-2.66,17.28-6.37,25.98-9.4c4.76-1.66,9.67-2.89,14.53-5.44c-2.41,0-4.87,0.29-7.22-0.08
		c-2.23-0.36-4.36-1.41-6.53-2.16c1.76-1.4,3.32-3.47,5.32-4.08c10.01-3.02,20.12-5.69,30.21-8.43c8.53-2.32,17.07-4.58,25.57-7.7
		c-2.19-0.23-4.44-0.22-6.54-0.76c-1.63-0.41-3.08-1.51-4.61-2.3c1.42-1.38,2.61-3.37,4.32-4.02c3.72-1.41,7.65-2.33,11.57-3.09
		c8.31-1.6,16.67-2.95,25-4.43c0.52-0.09,0.99-0.42,1.4-0.6c-7.03-1.68-14.22-2.61-20.79-5.14c-10.27-3.95-20.28-8.64-30.11-13.61
		c-12.64-6.39-25.41-10.89-39.83-7.22c-1.26,0.32-2.82-0.57-4.24-0.89c0.42-1.48,0.49-3.22,1.33-4.42
		c15.46-22.05,38.52-29.84,63.7-33.46c11.51-1.66,22.37-4.66,32.48-10.83c7.41-4.53,15.76-7.5,23.59-11.38
		c6.97-3.45,14.36-6.42,20.58-10.95c12.64-9.21,26.75-15.06,41.3-20.11c6.2-2.15,11-5.36,14.72-10.97
		c12.98-19.57,29.92-35.06,51.1-45.28c11.87-5.73,25.1-5.6,38.05-4.79c8.53,0.53,16.03-0.51,24.3-4.23
		c10.17-4.57,18.75-10.76,27.54-17.1c3.84-2.77,8.32-4.63,12.34-7.16c3.09-1.95,6.34-3.93,8.78-6.58c6-6.52,12.85-11.76,20.54-16.15
		c3.33-1.9,5.9-5.1,8.87-7.65c4.84-4.17,9.41-8.75,14.67-12.3c4.55-3.06,8.3-2.08,11.66,2.38c2.15,2.84,3.41,6.34,5.04,9.56
		c0.2,0.4,0.14,1.03,0.44,1.27c5.91,4.81,6.84,12.18,9.4,18.65c1.38,3.48,1.95,7.34,2.43,11.09c0.5,3.93,0.76,7.94,0.57,11.88
		c-0.22,4.52-1.15,9-1.56,13.52c-0.27,2.98-0.59,6.06-0.14,8.98c0.92,6.07,2.41,12.04,3.48,18.09c0.2,1.16-0.47,2.46-0.74,3.7
		c-1.29-0.5-2.76-0.76-3.8-1.58c-1.15-0.9-1.9-2.31-2.76-3.41c-0.73,1.65-1.02,3.86-2.15,4.42c-1.01,0.51-2.93-0.78-4.52-1.3
		c-3.62,7.49-7.73,14.89-10.78,22.71c-1.91,4.9-2.59,10.39-3.17,15.68c-0.86,7.92-1.65,15.92-1.56,23.87
		c0.11,10.01,2.36,19.46,10.5,26.54c4.74,4.12,9.15,8.61,14.73,13.91c0.57-5.27,0.84-9.43,1.53-13.52c0.35-2.04,1.45-3.96,2.21-5.94
		c1.8,1.5,4.32,2.64,5.24,4.56c1.77,3.67,2.63,7.77,3.86,11.69c0.53,1.7,1.06,3.4,1.59,5.1c0.42,0.07,0.84,0.13,1.27,0.2
		c1.22-2.85,2.49-5.69,3.66-8.56c1.1-2.7,1.9-5.54,3.22-8.12c0.67-1.3,2.2-2.16,3.34-3.22c1,1.57,2.61,3.06,2.87,4.74
		c0.45,2.98,0.11,6.08,0.04,9.13c-0.13,5.32,0.66,10.3,4.21,14.63c1.8,2.2,3.16,4.76,4.72,7.15c0,0.92,0,1.85,0,2.77
		c-4.05,5.89-7.98,11.87-12.19,17.64c-3.6,4.95-8.73,7.92-14.73,8.6c-7.91,0.89-15.93,1.87-23.84,1.49
		c-12.51-0.61-24.34,0.93-35.61,6.95c2.45,0.55,5.01,0.54,6.85,1.69c1.85,1.15,4.28,3.52,4.19,5.24
		c-0.34,6.38-1.18,12.82-2.63,19.05c-2.01,8.63-4.78,17.08-7.16,25.62c-1.4,5.01-2.54,10.1-4.14,15.04
		c-0.37,1.15-2.13,1.84-3.25,2.75c-0.78-1.2-2.02-2.31-2.25-3.61c-0.38-2.08-0.1-4.29-0.1-6.1c-3.19,1.3-5.74,2.34-8.94,3.65
		c-4,11-7.95,22.95-12.67,34.58c-11.27,27.78-22.52,55.57-34.6,83c-3.79,8.6-7.8,17.73-16.26,23.41c-0.62,0-1.23,0-1.85,0
		c0.18-2.49-0.17-5.18,0.63-7.45c3.7-10.4,7.75-20.68,11.62-31.02c2.09-5.59,4.08-11.22,6.12-16.83c-0.29-0.11-0.57-0.22-0.86-0.33
		c-0.35,0.63-0.69,1.25-1.04,1.88c-2.51,4.53-4.92,9.12-7.63,13.52c-0.54,0.88-2.23,1.06-3.38,1.56c-0.25-1.24-0.96-2.59-0.66-3.69
		c0.91-3.4,2.29-6.66,3.31-10.03c4.43-14.62,8.8-29.25,13.19-43.88c-1.07,0.16-1.48,0.57-1.72,1.06
		c-3.81,7.83-7.43,15.76-11.46,23.47c-2.46,4.69-5.05,4.79-7.6,1.39c-4.56,4.73-9.12,9.59-13.86,14.27
		c-0.8,0.79-2.36,0.83-3.57,1.21c-0.24-1.27-0.85-2.61-0.64-3.8c0.33-1.77,1.16-3.47,1.92-5.13c2.17-4.73,4.72-9.32,6.56-14.17
		c5.15-13.61,10.26-27.25,14.91-41.03c3.05-9.04,5.29-18.36,7.9-27.55c-0.51-0.22-1.02-0.44-1.53-0.66
		c-4.14,6.71-8.31,13.4-12.4,20.14c-2.47,4.07-4.6,8.35-7.31,12.24c-0.86,1.23-3.09,1.5-4.69,2.21c-0.53-1.34-1.11-2.67-1.59-4.03
		c-0.26-0.75-0.35-1.56-0.76-3.51c-5.45,6.58-10.25,12.31-14.98,18.1c-2.81,3.44-5.38,7.1-8.36,10.38c-0.92,1.02-2.84,1.15-4.3,1.69
		c-0.06-1.52-0.64-3.25-0.1-4.51c3.22-7.46,6.78-14.78,10.06-22.21c1.18-2.67,1.91-5.53,2.84-8.31c-0.45-0.22-0.9-0.44-1.34-0.66
		c-4.38,6.41-8.73,12.84-13.13,19.23c-8.61,12.5-17.15,25.03-25.94,37.4c-1.65,2.32-3.93,4.81-8.46,3.3
		c2.82-14.15,10.89-25.93,16.49-38.68c5.64-12.82,11.74-25.43,17.74-38.32c-6.04,0.28-10.04,8.75-17.18,2.59
		c-4.87,4.69-9.97,9.51-14.98,14.43c-11.71,11.5-23.27,23.16-35.08,34.55c-10.71,10.33-21.63,20.45-32.62,30.49
		c-1.01,0.92-3.14,0.63-4.75,0.9c0.44-1.62,0.43-3.6,1.4-4.79c4.65-5.7,9.69-11.08,14.36-16.76c9.74-11.84,19.17-23.94,29.02-35.68
		c11.06-13.19,22.53-26.03,33.65-39.16c7.17-8.47,14.06-17.17,21.01-25.82c2.67-3.33,5.17-6.8,7.74-10.2
		c-1.91,0.51-3.15,1.59-4.32,2.73c-6.47,6.33-12.76,12.84-19.42,18.96c-9.38,8.63-18.99,17.01-28.61,25.37
		c-1.16,1.01-2.98,1.26-4.49,1.86c-0.23-0.42-0.45-0.84-0.68-1.26c0.58-1.25,1.16-2.5,1.75-3.75c-5.3,4.17-10.14,8.62-14.49,13.5
		c-8.88,9.95-17.32,20.3-26.28,30.19c-13.59,14.99-27.25,29.93-41.3,44.49c-6.03,6.25-13.02,11.61-19.78,17.13
		c-1.62,1.33-4.05,1.68-6.1,2.49c-0.35-0.51-0.71-1.01-1.06-1.52c12.56-25.43,33.12-45.7,46.83-70.46
		c-5.43,2.16-10.47,4.74-15.63,7.03c-1.36,0.6-3.11,0.3-4.69,0.42c0.1-1.6-0.31-3.47,0.39-4.74c2.07-3.75,4.46-7.33,6.93-10.83
		c4.26-6.05,8.68-11.98,13.71-18.9c-1.69,0.64-2.23,0.83-2.75,1.05c-6.21,2.61-12.33,5.5-18.69,7.69c-2.14,0.74-4.89-0.32-7.37-0.55
		c0.44-2.42,0.44-5.04,1.43-7.21c1.4-3.07,3.52-5.8,6.08-9.86c-14.91,8.19-28.71,15.56-42.28,23.3c-10,5.7-19.65,11.98-29.58,17.8
		c-2.42,1.42-5.32,2.04-8,3.03c-0.38-0.61-0.76-1.23-1.15-1.84c3.58-7.51,12.37-10.39,17.43-18.17c-3.62,1.81-6.29,3.13-8.95,4.47
		c-25.21,12.68-50.24,25.74-75.68,37.93c-16.84,8.07-34.27,14.89-51.44,22.27c-4.09,1.76-7.19-0.32-11.33-2.65
		c11.93-9.79,25.53-15.22,38.18-22.7c-4.43-3.75-12.68,2.11-13.46-6.72c-7.58,2-15,3.49-22.11,5.92
		c-15.24,5.21-30.34,10.85-45.44,16.45c-3.27,1.21-6.21,1.63-9.01-0.84C0,556.68,0,556.37,0,556.06z M445.19,259.71
		c-5.64-1.38-10.61-0.86-15,2.75c-3.29,2.7-6.62,5.36-9.98,7.99c-6.84,5.34-13.53,12.2-13.72,19.93c1.99-1.3,4.26-2.99,6.71-4.34
		c2.51-1.38,5.31-2.25,7.8-3.66c2.26-1.28,4.08-3.84,6.42-4.35c9.8-2.17,15.82-7.74,17.69-17.64
		C445.12,260.23,445.14,260.08,445.19,259.71z"/>
	<path class="st0" d="M0,556.99c2.8,2.47,5.74,2.05,9.01,0.84c15.11-5.6,30.2-11.24,45.44-16.45c7.1-2.43,14.53-3.92,22.11-5.92
		c0.78,8.82,9.03,2.97,13.46,6.72c-12.65,7.47-26.25,12.91-38.18,22.7c4.14,2.33,7.25,4.4,11.33,2.65
		c17.17-7.38,34.6-14.2,51.44-22.27c25.44-12.19,50.47-25.24,75.68-37.93c2.66-1.34,5.33-2.67,8.95-4.47
		c-5.06,7.78-13.85,10.66-17.43,18.17c0.38,0.61,0.76,1.23,1.15,1.84c2.68-0.99,5.57-1.61,8-3.03c9.93-5.82,19.59-12.1,29.58-17.8
		c13.57-7.74,27.37-15.1,42.28-23.3c-2.56,4.06-4.69,6.79-6.08,9.86c-0.99,2.17-0.99,4.79-1.43,7.21c2.47,0.24,5.23,1.29,7.37,0.55
		c6.36-2.19,12.48-5.08,18.69-7.69c0.52-0.22,1.06-0.4,2.75-1.05c-5.03,6.92-9.45,12.85-13.71,18.9c-2.47,3.5-4.86,7.09-6.93,10.83
		c-0.7,1.27-0.29,3.14-0.39,4.74c1.57-0.11,3.33,0.18,4.69-0.42c5.16-2.29,10.2-4.87,15.63-7.03
		c-13.72,24.76-34.28,45.04-46.83,70.46c0.35,0.51,0.71,1.01,1.06,1.52c2.05-0.8,4.48-1.16,6.1-2.49
		c6.76-5.52,13.75-10.87,19.78-17.13c14.05-14.56,27.72-29.49,41.3-44.49c8.96-9.88,17.4-20.23,26.28-30.19
		c4.35-4.88,9.19-9.33,14.49-13.5c-0.58,1.25-1.16,2.5-1.75,3.75c0.23,0.42,0.45,0.84,0.68,1.26c1.51-0.6,3.33-0.85,4.49-1.86
		c9.62-8.36,19.23-16.75,28.61-25.37c6.66-6.12,12.95-12.64,19.42-18.96c1.17-1.15,2.41-2.23,4.32-2.73
		c-2.58,3.4-5.07,6.87-7.74,10.2c-6.95,8.65-13.84,17.35-21.01,25.82c-11.12,13.14-22.59,25.98-33.65,39.16
		c-9.85,11.74-19.28,23.84-29.02,35.68c-4.67,5.68-9.71,11.06-14.36,16.76c-0.97,1.19-0.96,3.17-1.4,4.79
		c1.61-0.27,3.74,0.03,4.75-0.9c10.98-10.04,21.9-20.16,32.62-30.49c11.81-11.39,23.38-23.05,35.08-34.55
		c5.01-4.92,10.11-9.75,14.98-14.43c7.14,6.15,11.14-2.31,17.18-2.59c-5.99,12.9-12.1,25.51-17.74,38.32
		c-5.61,12.75-13.67,24.54-16.49,38.68c4.53,1.51,6.81-0.98,8.46-3.3c8.79-12.37,17.33-24.91,25.94-37.4
		c4.4-6.39,8.76-12.82,13.13-19.23c0.45,0.22,0.9,0.44,1.34,0.66c-0.93,2.78-1.67,5.64-2.84,8.31c-3.28,7.44-6.84,14.75-10.06,22.21
		c-0.54,1.26,0.04,2.99,0.1,4.51c1.46-0.54,3.37-0.66,4.3-1.69c2.98-3.29,5.54-6.94,8.36-10.38c4.73-5.79,9.53-11.52,14.98-18.1
		c0.41,1.95,0.5,2.76,0.76,3.51c0.47,1.36,1.05,2.69,1.59,4.03c1.6-0.71,3.84-0.98,4.69-2.21c2.71-3.89,4.85-8.17,7.31-12.24
		c4.09-6.74,8.26-13.43,12.4-20.14c0.51,0.22,1.02,0.44,1.53,0.66c-2.6,9.19-4.84,18.51-7.9,27.55
		c-4.66,13.78-9.76,27.42-14.91,41.03c-1.84,4.85-4.39,9.44-6.56,14.17c-0.76,1.66-1.59,3.36-1.92,5.13
		c-0.22,1.19,0.39,2.53,0.64,3.8c1.21-0.38,2.76-0.42,3.57-1.21c4.74-4.68,9.3-9.54,13.86-14.27c2.55,3.4,5.14,3.3,7.6-1.39
		c4.04-7.71,7.65-15.64,11.46-23.47c0.24-0.49,0.65-0.9,1.72-1.06c-4.39,14.63-8.76,29.26-13.19,43.88
		c-1.02,3.37-2.41,6.64-3.31,10.03c-0.29,1.09,0.41,2.45,0.66,3.69c1.16-0.5,2.84-0.68,3.38-1.56c2.71-4.41,5.12-9,7.63-13.52
		c0.35-0.63,0.69-1.25,1.04-1.88c0.29,0.11,0.57,0.22,0.86,0.33c-2.04,5.61-4.03,11.24-6.12,16.83
		c-3.87,10.34-7.92,20.62-11.62,31.02c-0.81,2.27-0.45,4.95-0.63,7.45c-147.61,0-295.21,0-442.82,0C0,603.7,0,580.34,0,556.99z"/>
	<path class="st0" d="M444.67,627.12c8.46-5.69,12.47-14.81,16.26-23.41c12.07-27.43,23.33-55.22,34.6-83
		c4.72-11.63,8.66-23.58,12.67-34.58c3.2-1.31,5.75-2.35,8.94-3.65c0,1.81-0.28,4.01,0.1,6.1c0.24,1.3,1.47,2.41,2.25,3.61
		c1.12-0.9,2.88-1.6,3.25-2.75c1.6-4.94,2.74-10.03,4.14-15.04c2.39-8.54,5.15-16.99,7.16-25.62c1.45-6.23,2.29-12.66,2.63-19.05
		c0.09-1.72-2.34-4.08-4.19-5.24c-1.84-1.15-4.4-1.14-6.85-1.69c11.28-6.02,23.1-7.56,35.61-6.95c7.91,0.39,15.93-0.59,23.84-1.49
		c6-0.68,11.12-3.65,14.73-8.6c4.21-5.78,8.14-11.75,12.19-17.64c0,79.67,0,159.33,0,239C556.22,627.12,500.45,627.12,444.67,627.12
		z"/>
	<path class="st0" d="M445.19,259.71c-0.05,0.37-0.06,0.52-0.09,0.67c-1.87,9.9-7.89,15.47-17.69,17.64
		c-2.34,0.52-4.16,3.08-6.42,4.35c-2.49,1.41-5.28,2.28-7.8,3.66c-2.46,1.35-4.72,3.04-6.71,4.34c0.19-7.73,6.89-14.6,13.72-19.93
		c3.36-2.62,6.69-5.28,9.98-7.99C434.58,258.85,439.54,258.32,445.19,259.71z"/>
</g>
</svg>
