<?xml version="1.0" encoding="utf-8"?>
<!-- Generator: Adobe Illustrator 24.3.0, SVG Export Plug-In . SVG Version: 6.00 Build 0)  -->
<svg version="1.1" id="Layer_1" xmlns="http://www.w3.org/2000/svg" xmlns:xlink="http://www.w3.org/1999/xlink" x="0px" y="0px"
	 viewBox="0 0 612 792" style="enable-background:new 0 0 612 792;" xml:space="preserve">
<style type="text/css">
	.st0{fill:#FFFFFF;}
</style>
<g>
	<path class="st0" d="M461.02,125c31.65,0,63.31,0,94.98,0c0,180.24,0,360.48,0,541c-166.32,0-332.66,0-499,0
		c6.28-3.99,12.53-8.02,18.84-11.95c2.87-1.79,4.96-0.43,6.86,1.89c3.38,4.1,8.04,5.51,12.52,3.05c4.82-2.64,8.96-6.54,13.33-9.98
		c4.35-3.43,8.48-7.15,12.98-10.35c1.89-1.34,4.5-1.66,7.19-2.59c-5.21-7.04-7.41-14.25-2.98-21.79c2.14-3.64,5.19-6.9,8.36-9.75
		c4.98-4.48,8.47-9.29,7.48-16.44c-0.16-1.18,0.72-2.81,1.62-3.79c24.21-26.38,48.49-52.71,72.83-79.13
		c7.02,3.71,12.3,3.66,16.61-0.35c6.2-5.78,6.73-5.83,14.16-1.05c2.12-2.42,4.28-4.87,6.69-7.6c-6.8-5.78-4.58-11.85-1.54-18.27
		c1.35-2.85,2.68-6.65,1.86-9.37c-1.09-3.63-0.06-5.35,2.24-7.63c19.47-19.35,39.98-37.79,55.03-61.14
		c1.34-2.09,3.08-3.93,4.75-5.79c14.98-16.67,30.86-31.94,54.73-34.54c-2.91-14.46,4.53-32.22,15.23-36.27
		c2.99,2.19,5.17,7.09,10.29,3.53c-0.24-0.7-0.35-1.18-0.56-1.61c-3.2-6.76-0.48-10.56,7-10.26c2.22,0.09,5.02-0.36,6.62-1.69
		c6.33-5.22,12.46-10.71,18.26-16.51c1.57-1.57,2.16-4.54,2.42-6.95c0.71-6.66,0.56-6.88,7.65-6.57c8.05,0.34,13.85-1.85,18.74-9.27
		c8.61-13.06,22.42-20.47,37.05-23.55c13.94-2.94,28.69-2.02,43.67-2.83c0.48-4.99,3.79-9.74,8.85-13.44
		c0.83-0.61,1.42-1.73,1.81-2.73c2.03-5.29,3.96-10.62,6.03-16.21c-6.34-4.15-6.78-6.08-3.27-18.36c-7.99-2.57-6.4-10.13-7.92-15.73
		c-5.06,1.17-9.83,2.81-14.7,3.19c-2.5,0.2-6.19-1.11-7.55-3.01c-2.06-2.89-1.44-6.67,1.4-9.56c3.28-3.34,5.91-2.81,7.12,1.71
		c0.66,2.45,0.78,5.05,1.28,8.54c2.36-1.95,4.08-3.19,5.58-4.65c2.49-2.44,5.01-4.89,7.2-7.59c1.91-2.35,3.39-5.06,5.06-7.6
		c-2.29-0.96-4.66-1.75-6.84-2.92c-2.23-1.19-5.66-2.49-5.99-4.22c-0.34-1.8,2.06-4.59,3.9-6.21c2.99-2.63,6.51-4.67,8.78-6.24
		c-5.68-4.59-11.21-9.06-16.64-13.45c-0.03,0.07-0.26,0.68-0.49,1.3c-4.13,11.13-7.88,11.89-15.68,2.84
		c-2.3-2.67-4.49-2.96-6.75-0.8c-3.93,3.74-7.54,7.81-10.76,11.2c3.22,3.59,6.04,6.43,8.44,9.59c0.74,0.97,0.68,3.99,0.38,4.08
		c-3.03,0.92-6.19,1.43-9.32,2.05c-0.34-2.73-0.71-5.46-0.98-8.19c-0.06-0.59,0.23-1.22,0.35-1.82c-0.36,0.3-0.73,0.6-1.09,0.89
		c-3.97-3.31-7.77-6.87-11.95-9.89C475.93,134.96,468.42,130.05,461.02,125z"/>
	<path class="st0" d="M56,663c0-179.33,0-358.67,0-538c134.67,0,269.34,0,404.02,0c-3.32,7.53-9.97,7.08-16.54,6.99
		c-1.63-0.02-4.25,0.02-4.75,0.94c-2.48,4.55-6.2,6.61-11.32,6.54c-0.05,10.8-0.99,20.83-12.1,26.16c1.16,1.36,2.13,2.49,3.08,3.64
		c11.53,13.94,13.53,29.17-1.17,42.9c-9.6,8.97-15.39,20.24-16.63,33.75c-0.5,5.46-2.66,10.77-4.12,16.37
		c-10.83-5.7-15.77-4.43-19.96,4.74c-1.58,3.45-2.58,7.2-3.53,10.89c-1.02,3.97-1.67,8.03-2.47,11.96c-1.51,0-2.5,0-3.49,0
		c-5.92-0.01-8.15,2.69-7,8.55c0.22,1.14,0.77,2.21,1,3.34c1.07,5.41-1.02,11.51-5.03,11.64c-6.72,0.23-12.26,3.16-18.27,5.2
		c-2.09,0.71-4.82-0.42-7.25-0.8c-1.65-0.26-3.27-0.7-4.91-1.05c-0.31,0.38-0.62,0.76-0.93,1.13c1.04,1.94,1.78,4.13,3.16,5.78
		c5.24,6.24,4.99,8.73-0.46,15c-2.27,2.62-3.33,6.3-4.87,9.53c-1.1,2.29-1.6,5.06-3.19,6.9c-26.06,30.33-52.22,60.58-78.49,90.73
		c-1.14,1.31-3.53,2.04-5.39,2.15c-6.72,0.37-12.73,2.09-17.59,7.04c-5.79,5.9-11.18,6.03-17.58,0.71
		c-1.39-1.16-3.02-2.03-4.54-3.04c-0.52,0.43-1.04,0.87-1.56,1.3c1.04,1.93,1.81,4.08,3.18,5.74c4.98,6.07,6.61,11.94,2.83,15.18
		c-5.35,4.58-4.14,9.46-2.76,14.96c0.43,1.7,0.06,4.33-1.03,5.57c-21.09,23.84-42.3,47.57-63.64,71.17
		c-1.75,1.93-4.49,3.42-7.04,4.08c-6.69,1.73-11.75,4.74-15.92,10.8c-3.07,4.46-8.56,7.97-13.72,10.1
		c-5.67,2.34-12.18,2.63-18.58,3.86c1.22,9.55-2.17,17.52-9.9,24.2c-6.25,5.4-6.71,13.01-3.61,20.84c1.15,2.9,1.52,8.53-0.06,9.65
		C59.14,653.52,58.18,658.49,56,663z"/>
	<path d="M56,663c2.18-4.51,3.14-9.48,7.9-12.84c1.58-1.12,1.21-6.74,0.06-9.65c-3.1-7.83-2.64-15.43,3.61-20.84
		c7.73-6.68,11.11-14.65,9.9-24.2c6.4-1.23,12.92-1.51,18.58-3.86c5.16-2.13,10.64-5.64,13.72-10.1c4.17-6.06,9.23-9.07,15.92-10.8
		c2.55-0.66,5.29-2.15,7.04-4.08c21.34-23.61,42.55-47.34,63.64-71.17c1.1-1.24,1.46-3.87,1.03-5.57c-1.38-5.5-2.6-10.38,2.76-14.96
		c3.78-3.24,2.15-9.1-2.83-15.18c-1.36-1.66-2.13-3.81-3.18-5.74c0.52-0.43,1.04-0.87,1.56-1.3c1.52,1,3.15,1.88,4.54,3.04
		c6.4,5.32,11.79,5.2,17.58-0.71c4.86-4.96,10.88-6.68,17.59-7.04c1.86-0.1,4.25-0.83,5.39-2.15
		c26.27-30.15,52.43-60.39,78.49-90.73c1.59-1.85,2.09-4.61,3.19-6.9c1.54-3.23,2.6-6.92,4.87-9.53c5.44-6.27,5.7-8.76,0.46-15
		c-1.38-1.65-2.13-3.84-3.16-5.78c0.31-0.38,0.62-0.76,0.93-1.13c1.64,0.36,3.26,0.79,4.91,1.05c2.42,0.39,5.16,1.51,7.25,0.8
		c6.01-2.03,11.56-4.97,18.27-5.2c4.01-0.14,6.1-6.23,5.03-11.64c-0.23-1.14-0.78-2.21-1-3.34c-1.15-5.87,1.08-8.56,7-8.55
		c0.99,0,1.98,0,3.49,0c0.79-3.94,1.45-8,2.47-11.96c0.95-3.69,1.95-7.44,3.53-10.89c4.18-9.17,9.12-10.44,19.96-4.74
		c1.46-5.6,3.62-10.91,4.12-16.37c1.23-13.51,7.02-24.78,16.63-33.75c14.7-13.73,12.7-28.96,1.17-42.9
		c-0.95-1.15-1.93-2.28-3.08-3.64c11.11-5.32,12.06-15.36,12.1-26.16c5.12,0.08,8.84-1.99,11.32-6.54c0.5-0.92,3.11-0.97,4.75-0.94
		c6.57,0.09,13.22,0.54,16.54-6.99c0.33,0,0.67,0,1,0c7.41,5.05,14.92,9.96,22.18,15.2c4.18,3.02,7.98,6.57,11.95,9.89
		c0.36-0.3,0.73-0.6,1.09-0.89c-0.13,0.61-0.41,1.23-0.35,1.82c0.27,2.74,0.65,5.46,0.98,8.19c3.12-0.62,6.28-1.13,9.32-2.05
		c0.3-0.09,0.36-3.11-0.38-4.08c-2.4-3.16-5.22-6-8.44-9.59c3.22-3.38,6.84-7.46,10.76-11.2c2.26-2.15,4.45-1.87,6.75,0.8
		c7.8,9.05,11.55,8.29,15.68-2.84c0.23-0.62,0.46-1.24,0.49-1.3c5.43,4.39,10.96,8.85,16.64,13.45c-2.26,1.57-5.78,3.61-8.78,6.24
		c-1.85,1.62-4.24,4.41-3.9,6.21c0.32,1.73,3.76,3.03,5.99,4.22c2.18,1.17,4.55,1.96,6.84,2.92c-1.67,2.55-3.15,5.25-5.06,7.6
		c-2.19,2.7-4.71,5.15-7.2,7.59c-1.5,1.47-3.22,2.7-5.58,4.65c-0.5-3.49-0.62-6.09-1.28-8.54c-1.22-4.52-3.85-5.05-7.12-1.71
		c-2.84,2.89-3.46,6.68-1.4,9.56c1.36,1.9,5.04,3.21,7.55,3.01c4.87-0.39,9.64-2.02,14.7-3.19c1.51,5.6-0.08,13.17,7.92,15.73
		c-3.51,12.28-3.07,14.21,3.27,18.36c-2.07,5.59-4,10.92-6.03,16.21c-0.39,1-0.98,2.12-1.81,2.73c-5.06,3.69-8.37,8.44-8.85,13.44
		c-14.98,0.81-29.73-0.1-43.67,2.83c-14.63,3.08-28.43,10.49-37.05,23.55c-4.89,7.42-10.69,9.61-18.74,9.27
		c-7.09-0.3-6.93-0.09-7.65,6.57c-0.26,2.41-0.84,5.37-2.42,6.95c-5.8,5.8-11.93,11.29-18.26,16.51c-1.61,1.33-4.41,1.77-6.62,1.69
		c-7.49-0.29-10.2,3.5-7,10.26c0.21,0.44,0.32,0.91,0.56,1.61c-5.12,3.57-7.3-1.33-10.29-3.53c-10.71,4.05-18.14,21.81-15.23,36.27
		c-23.87,2.6-39.75,17.86-54.73,34.54c-1.67,1.86-3.41,3.71-4.75,5.79c-15.05,23.35-35.55,41.78-55.03,61.14
		c-2.29,2.28-3.32,4-2.24,7.63c0.81,2.72-0.51,6.52-1.86,9.37c-3.05,6.43-5.26,12.5,1.54,18.27c-2.41,2.74-4.56,5.19-6.69,7.6
		c-7.43-4.78-7.96-4.73-14.16,1.05c-4.31,4.01-9.59,4.06-16.61,0.35c-24.34,26.42-48.62,52.74-72.83,79.13
		c-0.89,0.97-1.78,2.61-1.62,3.79c0.99,7.15-2.49,11.96-7.48,16.44c-3.17,2.85-6.22,6.11-8.36,9.75
		c-4.44,7.53-2.23,14.74,2.98,21.79c-2.7,0.93-5.31,1.25-7.19,2.59c-4.51,3.2-8.63,6.93-12.98,10.35
		c-4.37,3.44-8.51,7.34-13.33,9.98c-4.48,2.46-9.14,1.05-12.52-3.05c-1.91-2.31-3.99-3.68-6.86-1.89
		C69.53,657.98,63.28,662.01,57,666C56.67,665,56.33,664,56,663z M497.91,230.76c10.38,0.73,26-10.5,28.19-18.37
		c0.48-1.72,0.33-4.12-0.54-5.62c-4.5-7.85-13.06-11.17-22.36-9.07c-10.86,2.46-14.27,6.21-15.34,16.9
		c-0.56,5.61,0.11,6.35,5.62,6.13c4.5-0.18,6.45,2.14,5.4,6.47C498.62,228.26,498.3,229.32,497.91,230.76z M442.8,184.33
		c0.86-0.12,1.4-0.07,1.81-0.27c6.72-3.36,8.26-2.66,9.27,4.69c0.53,3.84,3.26,3.94,5.43,2.77c4.66-2.52,11-4.76,12.93-8.86
		c3.46-7.35,3.67-16.13-2.19-23.13c-2.47-2.95-6.09-5.16-9.58-6.93c-1.5-0.76-4.39-0.16-6,0.86
		C447.07,158.16,440.28,174.43,442.8,184.33z M411.13,286.88c-3.35,3.82-6.53,7.43-9.86,11.23c4.66,2.18,9.07,1.13,11.58-2.51
		C414.96,292.55,414.11,289.74,411.13,286.88z M384.55,283.22c2.68-3.28,5.14-6.3,7.58-9.28c-3.86-3.6-6.24-3.48-9.02,0.01
		C380.02,277.84,380.25,280.11,384.55,283.22z M501.51,172.21c-0.7,0-1.4,0.01-2.1,0.01c-1.24,1.81-3.59,3.74-3.41,5.41
		c0.19,1.8,2.5,4.39,4.29,4.78c2.91,0.63,5.31-1.63,4.78-4.75C504.73,175.7,502.75,174.02,501.51,172.21z"/>
	<path class="st0" d="M497.91,230.76c0.39-1.44,0.71-2.49,0.97-3.56c1.05-4.33-0.89-6.66-5.4-6.47c-5.51,0.23-6.19-0.51-5.62-6.13
		c1.07-10.69,4.48-14.44,15.34-16.9c9.3-2.11,17.86,1.22,22.36,9.07c0.86,1.51,1.02,3.91,0.54,5.62
		C523.91,220.26,508.29,231.49,497.91,230.76z"/>
	<path class="st0" d="M442.8,184.33c-2.52-9.91,4.28-26.17,11.68-30.88c1.6-1.02,4.49-1.63,6-0.86c3.49,1.77,7.11,3.98,9.58,6.93
		c5.86,7,5.64,15.78,2.19,23.13c-1.93,4.1-8.27,6.34-12.93,8.86c-2.17,1.17-4.91,1.07-5.43-2.77c-1-7.35-2.55-8.04-9.27-4.69
		C444.19,184.26,443.65,184.21,442.8,184.33z"/>
	<path class="st0" d="M411.13,286.88c2.98,2.85,3.83,5.67,1.72,8.72c-2.52,3.64-6.93,4.69-11.58,2.51
		C404.6,294.32,407.78,290.7,411.13,286.88z"/>
	<path class="st0" d="M384.55,283.22c-4.3-3.11-4.53-5.37-1.44-9.27c2.78-3.49,5.15-3.61,9.02-0.01
		C389.7,276.92,387.23,279.94,384.55,283.22z"/>
	<path class="st0" d="M501.51,172.21c1.24,1.81,3.22,3.49,3.55,5.45c0.53,3.12-1.87,5.38-4.78,4.75c-1.79-0.39-4.11-2.98-4.29-4.78
		c-0.17-1.67,2.18-3.59,3.41-5.41C500.1,172.22,500.81,172.22,501.51,172.21z"/>
</g>
</svg>
