<?xml version="1.0" encoding="utf-8"?>
<!-- Generator: Adobe Illustrator 24.3.0, SVG Export Plug-In . SVG Version: 6.00 Build 0)  -->
<svg version="1.1" id="Layer_1" xmlns="http://www.w3.org/2000/svg" xmlns:xlink="http://www.w3.org/1999/xlink" x="0px" y="0px"
	 viewBox="0 0 612 792" style="enable-background:new 0 0 612 792;" xml:space="preserve">
<style type="text/css">
	.st0{fill:#FFFFFF;}
</style>
<g>
	<path d="M206,90c1.67,0,3.33,0,5,0c3.56,0.65,7.12,1.36,10.69,1.95c32.88,5.42,61.93,17.51,85.05,43.09
		c23.42,25.92,47.74,51.14,77.88,69.83c11.48,7.12,22.31,15.52,35.63,18.66c9,2.12,18.46,2.17,27.62,3.67
		c27.1,4.46,54.21,8.95,81.21,13.98c5.89,1.1,11.78,3.79,16.93,6.95c8.55,5.25,11.3,13.62,7.81,22.99
		c-1.95,5.23-4.57,10.55-8.15,14.74c-7.23,8.46-14.87,16.68-23.13,24.11c-34.31,30.84-60.51,66.67-72.04,112.18
		c-2.93,11.58-7.4,22.79-11.65,34c-4.76,12.56-12.14,23.14-24.29,29.89c-10.92,6.06-21.75,12.28-32.42,18.76
		c-4.94,3-9.83,6.32-14.03,10.26c-12.61,11.8-23.05,25.5-31.66,40.38c-25.88,44.73-57.03,84.91-99.33,115.36
		c-12.51,9-25.88,16.91-39.35,24.43c-5.59,3.12-12.47,3.92-18.77,5.78c-3.67,0-7.33,0-11,0c-4.93-1.41-9.98-2.51-14.75-4.33
		c-2.65-1.01-5.63-2.71-7.09-4.98c-6.67-10.4-15.72-18.01-26.32-23.98c-14.97-8.44-31.36-11.71-48.21-13.55
		c-8.91-0.98-13.82-6.07-14.68-14.94c-1.01-10.31,0.57-20.27,5.25-29.6c12.22-24.38,18.64-49.77,17.49-77.47
		c-1.8-42.97-1.36-85.99,4.42-128.74c1.87-13.87,3.41-28.22,11.01-40.21c16.22-25.59,33.08-50.8,50.35-75.69
		c8.43-12.15,19.46-22.56,27.44-34.95c20.15-31.3,35.42-64.94,42.45-101.74C219.4,129.64,219.93,108.6,206,90z M190.24,633.79
		c7.61-8.02,14.77-15.18,21.48-22.73c9.2-10.36,18-21.18,22.78-34.36c1.97-5.45,2.78-11.72,2.42-17.51
		c-0.51-8.01-6.38-11.94-14.24-11.39c-2.46,0.17-5.02,0.03-7.44-0.45c-14.95-2.99-25.14-12.92-34.71-23.83
		c-1.58-1.81-4.13-3.39-6.47-3.81c-13.38-2.44-24.79,2.04-32.6,12.73c-5.9,8.08-10.63,17.28-14.41,26.58
		c-6.14,15.12-8.56,31.25-10.62,48.78c2.57-2.77,4.07-4.74,5.9-6.3c6.94-5.93,13.66-12.2,21.11-17.44
		c7.33-5.16,15.83-8.06,25.02-6.61c17.04,2.69,26.58,16.04,24.99,35.08C192.88,619.25,191.45,625.9,190.24,633.79z M258.81,582.62
		c0.64-0.76,1.31-1.5,1.91-2.29c3.13-4.11,6.45-8.09,9.33-12.36c17.2-25.5,28.46-52.72,24.05-84.42c-0.53-3.8-0.15-8.95-4.47-9.38
		c-2.8-0.28-6.14,3.44-8.99,5.7c-3.35,2.65-6.14,6.1-9.7,8.38c-3.49,2.24-6.47,0.62-6.66-3.46c-0.16-3.39,0.29-7.01,1.39-10.21
		c4.48-13.05,9.52-25.91,13.92-38.98c1.74-5.18,2.36-10.74,3.49-16.12c-13.97,19.2-23.42,40.19-26.07,63.57
		c-0.74,6.51-3.23,10.75-7.68,14.75c-9.22,8.28-19.13,14.99-32.08,15.64c-5.88,0.29-9.15-1.86-9.92-6.72
		c-0.54-3.43-1.19-6.84-1.88-10.25c-2.14-10.63-4.11-21.19,7.17-28.43c0.54-0.35,0.9-0.98,1.33-1.48
		c12.72-14.73,22.35-31.46,31.51-48.51c0.28-0.51,0.29-1.16,0.76-3.12c-1.86,2.38-2.83,3.67-3.84,4.93
		c-10.22,12.72-20.33,25.54-30.76,38.08c-2.51,3.02-6.11,5.13-9.91,8.23c-3.6-12.49-0.96-23.54-0.39-35.07
		c-10.44,1.76-19.57,5.56-28.15,10.69c-20.6,12.3-35.5,29.67-46.55,50.91c-13.9,26.72-26.04,53.99-31.05,83.94
		c-0.82,4.88-1.26,9.82-1.88,14.73c7.09-17.81,13.07-35.78,19.5-53.59c7.92-21.93,15.74-44,32.81-61.03
		c10-9.98,20.03-19.94,30.31-29.63c2.33-2.2,5.58-3.65,8.65-4.79c5.34-1.99,7.9-0.06,8.14,5.63c0.06,1.49-0.4,3.04-0.14,4.48
		c1.11,6.32,2.34,12.62,3.65,18.91c0.55,2.67,2.02,5.28,2.01,7.91c-0.08,13.85-0.11,27.67,3.43,41.2
		c2.55,9.74,8.65,11.75,17.22,6.41c16.66-10.37,33.55-20.39,50.4-30.46c3.77-2.25,7.76-4.13,13.12-6.95
		C279.89,522.7,272.16,553.11,258.81,582.62z M353.13,256.07c-0.59-0.13-1.17-0.26-1.76-0.39c-1.07,0.93-2.39,1.68-3.17,2.81
		c-5.47,7.91-13.44,11.68-22.44,13.71c-13.07,2.95-26.02,1.48-38.33-3c-12.26-4.45-24.7-6.56-37.6-6.71
		c-21.17-0.24-41.66,1.17-56.93,19.09c-4.41,5.17-10.33,9.05-15.56,13.52c1.27,0.22,2.09-0.26,2.95-0.61
		c13.85-5.6,27.41-12.17,41.64-16.53c20.04-6.14,40.16-6.15,59.97,2.79c12.96,5.85,26.84,8.87,41.28,8.23
		c15.44-0.69,25.64-8.22,29.81-22.7C353.91,263.13,353.13,259.48,353.13,256.07z M167.74,342.21c0.34,0.51,0.67,1.01,1.01,1.52
		c17.01-0.21,31.57,6.88,45.87,15.02c2.44,1.39,5.98,2.09,8.7,1.55c12.74-2.52,23.53-9.02,32.86-17.89
		c3.84-3.65,7.27-7.73,10.89-11.61c-0.23-0.4-0.47-0.8-0.7-1.2c-10.37,4.82-20.14,2.98-30.47-0.65
		c-17.57-6.17-35.42-5.95-52.37,2.69C177.93,334.48,172.98,338.64,167.74,342.21z M329.9,363.79c-4.87,8.46-8.11,28.26-6.47,40.14
		c0.78,5.67,2.7,10.26,7.36,14.03c13.67,11.06,23.52,24.64,26.35,42.51c0.33,2.07,1.09,4.07,1.71,6.34c4.38-5,6.9-12.18,7.33-19.95
		c0.77-13.94-3.19-26.7-10.01-38.59C347.53,393.16,338.49,378.27,329.9,363.79z M399.11,438.61c0.38,0.26,0.76,0.53,1.15,0.79
		c3.6-5.68,7.76-11.09,10.7-17.1c7.4-15.15,4.68-31.07,1.35-46.46c-3.43-15.86-10.92-30.2-20.33-43.57
		c-4.17-5.92-7.72-12.49-10.32-19.23c-3.55-9.23-2.45-18.34,4.14-26.29c0.83-1.01,1.92-2.18,2.01-3.34c0.13-1.7-0.06-3.85-1.04-5.07
		c-0.68-0.85-3.11-1.02-4.41-0.55c-12.93,4.74-26.83,27.58-12.23,43.85c8.27,9.22,15.31,19.7,21.9,30.24
		c10.43,16.69,14.95,35.07,12.21,54.82C402.73,417.36,400.83,427.97,399.11,438.61z M186.71,258.36
		c24.31-13.21,50.17-20.47,77.53-23.03c11.21-1.05,22.63-1.86,33.44-4.71c16.95-4.46,31.81-12.93,40.52-29.19
		c1.41-2.63,1.92-5.99,1.93-9.01c0-1.33-2.78-4.03-3.49-3.78c-4.05,1.4-9.43,2.49-11.44,5.58c-4.88,7.53-10.84,13.42-18.48,17.77
		c-18.83,10.72-39.64,14.13-60.78,16.05C222.06,230.21,202.84,241.33,186.71,258.36z M126.18,387.44
		c-10.75,9.53-20.34,19.85-25.03,33.68c-2.29,6.77-2.26,13.57,2.19,19.55c3.66,4.92,8.24,9.33,14.95,8.18
		c6.12-1.05,7.62-6.77,9.5-11.79c1.31-3.51,0.97-6.22-1.63-9.45c-6.87-8.53-7.99-18.46-4.72-28.79
		C122.67,394.92,124.58,391.23,126.18,387.44z M436.47,377.73c0.85-2.93,1.43-4.45,1.71-6.02c1.69-9.37,0.19-18.45-1.88-27.65
		c-5.29-23.47-6.71-46.81,4.67-69.2c2.34-4.59,4.82-9.12,7.37-13.6c1.94-3.4,2.28-6.72-0.26-11.64c-4.76,5.33-9.59,9.67-13.09,14.9
		c-6.99,10.46-9.41,22.59-11.15,34.88c-1.14,8.05-0.74,15.76,1.79,23.59c2.14,6.62,3.31,13.57,4.63,20.43
		C432.37,354.34,434.24,365.3,436.47,377.73z M162.22,641.12c3.89-4.6,6.34-9.25,5.84-14.9c-0.42-4.84-2.14-9.32-7.06-11.17
		c-12.47-4.67-29.07,1.79-36.17,14.24c3.9-1.07,7.33-2.15,10.82-2.93C150.54,623.04,157.51,626.8,162.22,641.12z"/>
	<path class="st0" d="M179,701c6.29-1.86,13.18-2.66,18.77-5.78c13.47-7.52,26.84-15.43,39.35-24.43
		c42.3-30.44,73.46-70.62,99.33-115.36c8.61-14.89,19.05-28.58,31.66-40.38c4.2-3.93,9.09-7.26,14.03-10.26
		c10.67-6.47,21.51-12.7,32.42-18.76c12.15-6.74,19.53-17.32,24.29-29.89c4.24-11.2,8.71-22.42,11.65-34
		c11.53-45.51,37.73-81.34,72.04-112.18c8.27-7.43,15.91-15.65,23.13-24.11c3.58-4.2,6.21-9.52,8.15-14.74
		c3.49-9.37,0.74-17.74-7.81-22.99c-5.15-3.16-11.04-5.86-16.93-6.95c-27-5.03-54.11-9.52-81.21-13.98
		c-9.16-1.51-18.62-1.56-27.62-3.67c-13.33-3.13-24.15-11.54-35.63-18.66c-30.14-18.69-54.46-43.91-77.88-69.83
		c-23.12-25.59-52.17-37.67-85.05-43.09c-3.57-0.59-7.13-1.3-10.69-1.95c115,0,230,0,345,0c0,203.67,0,407.33,0,611
		C430.33,701,304.67,701,179,701z"/>
	<path class="st0" d="M206,90c13.93,18.6,13.4,39.64,9.36,60.81c-7.03,36.8-22.3,70.44-42.45,101.74
		c-7.98,12.4-19.01,22.8-27.44,34.95c-17.28,24.89-34.13,50.1-50.35,75.69c-7.6,11.99-9.14,26.34-11.01,40.21
		c-5.78,42.75-6.21,85.77-4.42,128.74c1.16,27.7-5.26,53.09-17.49,77.47c-4.68,9.33-6.26,19.29-5.25,29.6
		c0.87,8.87,5.77,13.96,14.68,14.94c16.85,1.84,33.24,5.12,48.21,13.55c10.61,5.98,19.65,13.58,26.32,23.98
		c1.46,2.27,4.44,3.97,7.09,4.98c4.77,1.82,9.82,2.93,14.75,4.33c-37.33,0-74.67,0-112,0c0-203.67,0-407.33,0-611
		C106,90,156,90,206,90z"/>
	<path class="st0" d="M190.24,633.79c1.22-7.89,2.64-14.54,3.2-21.26c1.59-19.04-7.95-32.39-24.99-35.08
		c-9.19-1.45-17.7,1.45-25.02,6.61c-7.44,5.24-14.16,11.51-21.11,17.44c-1.83,1.56-3.33,3.52-5.9,6.3
		c2.06-17.54,4.47-33.67,10.62-48.78c3.78-9.3,8.51-18.5,14.41-26.58c7.81-10.69,19.22-15.17,32.6-12.73
		c2.33,0.43,4.88,2.01,6.47,3.81c9.58,10.92,19.77,20.84,34.71,23.83c2.42,0.48,4.98,0.62,7.44,0.45
		c7.86-0.55,13.74,3.38,14.24,11.39c0.37,5.79-0.45,12.06-2.42,17.51c-4.77,13.18-13.57,24-22.78,34.36
		C205.01,618.61,197.85,625.77,190.24,633.79z"/>
	<path class="st0" d="M258.81,582.62c13.35-29.51,21.08-59.92,23.95-93.15c-5.36,2.82-9.35,4.7-13.12,6.95
		c-16.85,10.07-33.73,20.09-50.4,30.46c-8.57,5.33-14.66,3.33-17.22-6.41c-3.55-13.54-3.51-27.35-3.43-41.2
		c0.02-2.63-1.45-5.24-2.01-7.91c-1.31-6.28-2.54-12.59-3.65-18.91c-0.25-1.44,0.2-2.99,0.14-4.48c-0.23-5.69-2.8-7.62-8.14-5.63
		c-3.07,1.14-6.32,2.59-8.65,4.79c-10.27,9.7-20.3,19.65-30.31,29.63c-17.07,17.02-24.89,39.09-32.81,61.03
		c-6.43,17.81-12.41,35.78-19.5,53.59c0.62-4.91,1.07-9.85,1.88-14.73c5.02-29.95,17.15-57.22,31.05-83.94
		c11.05-21.24,25.95-38.61,46.55-50.91c8.59-5.13,17.71-8.93,28.15-10.69c-0.57,11.53-3.21,22.58,0.39,35.07
		c3.8-3.1,7.4-5.21,9.91-8.23c10.43-12.54,20.54-25.36,30.76-38.08c1.01-1.26,1.99-2.55,3.84-4.93c-0.46,1.95-0.48,2.6-0.76,3.12
		c-9.15,17.04-18.79,33.78-31.51,48.51c-0.44,0.5-0.79,1.14-1.33,1.48c-11.29,7.25-9.31,17.81-7.17,28.43
		c0.69,3.4,1.34,6.82,1.88,10.25c0.76,4.86,4.04,7.01,9.92,6.72c12.94-0.65,22.85-7.36,32.08-15.64c4.46-4,6.94-8.24,7.68-14.75
		c2.65-23.39,12.1-44.37,26.07-63.57c-1.13,5.38-1.75,10.94-3.49,16.12c-4.4,13.08-9.44,25.93-13.92,38.98
		c-1.1,3.2-1.55,6.82-1.39,10.21c0.19,4.08,3.17,5.7,6.66,3.46c3.56-2.28,6.35-5.73,9.7-8.38c2.84-2.25,6.19-5.97,8.99-5.7
		c4.32,0.43,3.94,5.58,4.47,9.38c4.41,31.7-6.85,58.92-24.05,84.42c-2.88,4.27-6.2,8.25-9.33,12.36
		C260.11,581.12,259.45,581.86,258.81,582.62z"/>
	<path class="st0" d="M353.13,256.07c0,3.42,0.78,7.06-0.13,10.21c-4.18,14.48-14.38,22.01-29.81,22.7
		c-14.44,0.65-28.32-2.38-41.28-8.23c-19.81-8.94-39.93-8.93-59.97-2.79c-14.23,4.36-27.79,10.93-41.64,16.53
		c-0.86,0.35-1.68,0.83-2.95,0.61c5.23-4.47,11.15-8.35,15.56-13.52c15.28-17.91,35.77-19.33,56.93-19.09
		c12.9,0.15,25.34,2.25,37.6,6.71c12.31,4.47,25.26,5.94,38.33,3c9-2.03,16.97-5.8,22.44-13.71c0.78-1.13,2.1-1.88,3.17-2.81
		C351.96,255.81,352.55,255.94,353.13,256.07z"/>
	<path class="st0" d="M167.74,342.21c5.25-3.56,10.19-7.73,15.8-10.58c16.95-8.64,34.8-8.85,52.37-2.69
		c10.33,3.63,20.1,5.47,30.47,0.65c0.23,0.4,0.47,0.8,0.7,1.2c-3.62,3.88-7.05,7.96-10.89,11.61c-9.34,8.87-20.12,15.37-32.86,17.89
		c-2.72,0.54-6.26-0.16-8.7-1.55c-14.3-8.14-28.87-15.23-45.87-15.02C168.41,343.22,168.07,342.71,167.74,342.21z"/>
	<path class="st0" d="M329.9,363.79c8.58,14.49,17.62,29.37,26.28,44.48c6.82,11.89,10.78,24.65,10.01,38.59
		c-0.43,7.77-2.95,14.95-7.33,19.95c-0.62-2.26-1.38-4.27-1.71-6.34c-2.84-17.87-12.69-31.45-26.35-42.51
		c-4.66-3.77-6.58-8.37-7.36-14.03C321.79,392.05,325.03,372.25,329.9,363.79z"/>
	<path class="st0" d="M399.11,438.61c1.71-10.64,3.62-21.25,5.1-31.91c2.75-19.75-1.77-38.12-12.21-54.82
		c-6.59-10.54-13.63-21.02-21.9-30.24c-14.6-16.26-0.69-39.11,12.23-43.85c1.3-0.48,3.73-0.3,4.41,0.55
		c0.98,1.22,1.16,3.37,1.04,5.07c-0.09,1.16-1.17,2.33-2.01,3.34c-6.59,7.96-7.7,17.06-4.14,26.29c2.6,6.75,6.15,13.32,10.32,19.23
		c9.41,13.37,16.9,27.7,20.33,43.57c3.33,15.38,6.06,31.31-1.35,46.46c-2.94,6.01-7.09,11.42-10.7,17.1
		C399.87,439.13,399.49,438.87,399.11,438.61z"/>
	<path class="st0" d="M186.71,258.36c16.14-17.03,35.36-28.15,59.23-30.32c21.15-1.92,41.95-5.33,60.78-16.05
		c7.64-4.35,13.6-10.24,18.48-17.77c2-3.09,7.39-4.17,11.44-5.58c0.71-0.25,3.49,2.45,3.49,3.78c0,3.02-0.52,6.38-1.93,9.01
		c-8.71,16.26-23.58,24.73-40.52,29.19c-10.81,2.85-22.23,3.66-33.44,4.71C236.88,237.89,211.02,245.15,186.71,258.36z"/>
	<path class="st0" d="M126.18,387.44c-1.6,3.79-3.5,7.48-4.74,11.38c-3.27,10.33-2.15,20.25,4.72,28.79
		c2.6,3.24,2.94,5.94,1.63,9.45c-1.88,5.01-3.38,10.74-9.5,11.79c-6.71,1.15-11.29-3.26-14.95-8.18
		c-4.45-5.97-4.48-12.78-2.19-19.55C105.83,407.29,115.43,396.97,126.18,387.44z"/>
	<path class="st0" d="M436.47,377.73c-2.23-12.42-4.1-23.39-6.21-34.31c-1.32-6.86-2.5-13.81-4.63-20.43
		c-2.53-7.83-2.93-15.55-1.79-23.59c1.75-12.29,4.17-24.42,11.15-34.88c3.49-5.23,8.33-9.56,13.09-14.9
		c2.54,4.93,2.19,8.24,0.26,11.64c-2.55,4.48-5.03,9-7.37,13.6c-11.38,22.39-9.97,45.73-4.67,69.2c2.07,9.19,3.58,18.28,1.88,27.65
		C437.9,373.28,437.32,374.8,436.47,377.73z"/>
	<path class="st0" d="M162.22,641.12c-4.71-14.32-11.68-18.07-26.57-14.76c-3.49,0.78-6.92,1.86-10.82,2.93
		c7.1-12.45,23.7-18.91,36.17-14.24c4.91,1.84,6.63,6.33,7.06,11.17C168.56,631.86,166.11,636.52,162.22,641.12z"/>
</g>
</svg>
