<?xml version="1.0" encoding="utf-8"?>
<!-- Generator: Adobe Illustrator 24.3.0, SVG Export Plug-In . SVG Version: 6.00 Build 0)  -->
<svg version="1.1" id="Layer_1" xmlns="http://www.w3.org/2000/svg" xmlns:xlink="http://www.w3.org/1999/xlink" x="0px" y="0px"
	 viewBox="0 0 612 792" style="enable-background:new 0 0 612 792;" xml:space="preserve">
<style type="text/css">
	.st0{fill:#FFFFFF;}
</style>
<g>
	<path class="st0" d="M56,646c0-166.67,0-333.33,0-500c166.67,0,333.33,0,500,0c0,166.67,0,333.33,0,500
		C389.33,646,222.67,646,56,646z M482.65,219.55c-2.04,0.94-2.66,1.19-3.24,1.5c-17.59,9.13-35.15,18.31-52.81,27.29
		c-1.4,0.71-3.92,0.68-5.23-0.12c-9.36-5.74-18.57-11.72-27.72-17.8c-1.07-0.71-2.09-2.46-2.05-3.7c0.22-7.82-2.67-13.18-8.91-15.74
		c-6.07-2.5-11.92-0.76-17.07,4.66c-0.95,1-3.06,1.65-4.42,1.38c-10.61-2.1-21.19-4.35-31.7-6.86c-1.67-0.4-3.76-2.07-4.3-3.63
		c-2.97-8.48-5.52-17.11-8.22-25.68c-3.48-11.03-6.97-22.05-10.86-34.37c-0.99,2.76-1.58,4.23-2.05,5.73
		c-5.67,17.94-11.38,35.86-16.92,53.84c-0.85,2.74-2.09,3.85-5.02,4.4c-10.3,1.92-20.54,4.2-30.73,6.61
		c-2.43,0.57-3.79,0.29-5.47-1.68c-4.33-5.07-10.5-6.47-16.26-4.2c-5.92,2.34-9.02,7.69-9.14,14.7c-0.03,1.65-1.34,3.87-2.75,4.81
		c-8.56,5.76-17.41,11.08-25.93,16.89c-2.55,1.74-4.3,2.06-7.09,0.58c-16.91-8.99-33.93-17.77-50.92-26.6
		c-1.04-0.54-2.17-0.88-4.1-1.65c9.86,18.93,19.19,36.97,28.67,54.93c1.25,2.37,1.19,3.89-0.39,6.2
		c-6.13,8.91-11.81,18.12-17.9,27.06c-0.97,1.42-3.13,2.76-4.81,2.84c-6.8,0.33-11.91,3.33-14.29,9.06
		c-2.36,5.7-0.83,11.43,3.81,16.48c1.11,1.21,1.6,3.7,1.28,5.39c-1.93,10.13-4.3,20.17-6.27,30.3c-0.53,2.75-1.43,4.27-4.32,5.15
		c-16.72,5.09-33.37,10.43-50.04,15.7c-2.59,0.82-5.16,1.72-8.88,2.96c2.72,0.95,4.21,1.51,5.73,1.99
		c17.62,5.57,35.26,11.07,52.84,16.77c1.6,0.52,3.74,2.03,4.04,3.41c1.55,7.3,2.58,14.71,3.84,22.37
		c-5.83,2.47-11.72,2.01-17.7,1.21c-6.07-0.81-7.54,0.6-7.25,6.76c0.51,10.81,1.2,21.62,1.67,32.44c0.17,3.96,2.26,5.36,5.82,4.9
		c2.29-0.3,4.51-1.11,6.79-1.57c5.77-1.17,11.11-0.33,15.71,3.24c-7.81,13.17-15.5,26.01-23.06,38.92c-3.35,5.73-1.23,9.35,5.29,9.3
		c11-0.09,21.99-0.24,32.99-0.33c1.55-0.01,3.09,0.17,5.31,0.3c-6.44,12.4-12.45,23.99-18.99,36.57c1.8-0.73,2.53-0.96,3.19-1.31
		c16.97-8.87,33.94-17.74,50.89-26.66c2.47-1.3,4.34-1.91,7.17,0.07c8.86,6.19,18.15,11.76,27.12,17.8c1.27,0.85,2.4,2.96,2.39,4.48
		c-0.05,6.87,3.09,12.37,8.98,14.8c5.68,2.35,12.11,1.01,16.31-3.98c1.82-2.17,3.24-2.36,5.89-1.73c10.03,2.4,20.12,4.57,30.26,6.41
		c3.28,0.59,4.75,1.85,5.71,5.01c5.44,17.83,11.11,35.6,16.73,53.37c0.41,1.29,0.99,2.52,1.9,4.79
		c6.43-20.34,12.56-39.5,18.47-58.72c0.88-2.87,2.35-3.82,5.12-4.36c10.29-1.98,20.56-4.09,30.75-6.53c2.7-0.65,4.06-0.33,5.84,1.83
		c4.31,5.24,10.82,6.65,16.68,4.14c5.85-2.51,9.41-8.22,8.57-14.91c-0.35-2.79,0.65-3.68,2.71-4.96c8.9-5.53,17.8-11.11,26.39-17.1
		c2.78-1.94,4.64-2.06,7.51-0.54c16.17,8.61,32.45,17.03,48.7,25.49c1.5,0.78,3.09,1.42,5.66,2.59
		c-6.91-13.3-13.24-25.48-19.85-38.21c2.3-0.17,3.9-0.38,5.51-0.39c15.5-0.13,30.99-0.09,46.48-0.42c3.42-0.07,8.1-0.31,9.92-2.42
		c3.06-3.55-1.11-6.93-3.14-9.98c-4.89-7.35-9.94-14.59-14.92-21.89c-3.05-4.47-6.07-8.96-9.11-13.44c0.25-0.51,0.5-1.02,0.75-1.53
		c2.87,0.65,5.9,0.91,8.57,2.04c7.4,3.13,14.83-2.1,14.65-10.03c-0.21-9.3,0.42-18.62,0.39-27.93c-0.01-2.44-0.37-5.95-1.91-7
		c-1.54-1.05-4.97-0.12-7.21,0.81c-8.04,3.32-16.02,5.34-24.39,1.52c1.46-8.51,2.71-16.73,4.4-24.85c0.3-1.44,2.25-3.09,3.79-3.62
		c8.18-2.82,16.48-5.31,24.73-7.92c11.01-3.48,22.01-6.97,34.32-10.86c-2.87-1.01-4.35-1.57-5.87-2.05
		c-17.62-5.57-35.27-11.06-52.84-16.78c-1.7-0.55-3.92-2.27-4.26-3.81c-2.55-11.51-4.68-23.11-7.03-35.13
		c-0.2,0.27-0.05-0.04,0.2-0.24c6.73-5.5,8.75-11.26,6.21-17.81c-2.44-6.3-7.69-9.1-16.11-9.11c-1.3,0-3.01-1.46-3.85-2.71
		c-6.01-8.99-11.73-18.17-17.81-27.12c-1.51-2.22-1.95-3.78-0.55-6.22c3.13-5.49,5.92-11.18,8.84-16.8
		C469,245.81,475.5,233.31,482.65,219.55z"/>
	<path d="M482.65,219.55c-7.15,13.76-13.65,26.26-20.15,38.76c-2.92,5.61-5.71,11.3-8.84,16.8c-1.39,2.44-0.95,3.99,0.55,6.22
		c6.07,8.95,11.8,18.13,17.81,27.12c0.83,1.25,2.54,2.71,3.85,2.71c8.42,0.01,13.67,2.81,16.11,9.11
		c2.54,6.55,0.52,12.31-6.21,17.81c-0.25,0.2-0.4,0.51-0.2,0.24c2.35,12.02,4.48,23.62,7.03,35.13c0.34,1.54,2.56,3.26,4.26,3.81
		c17.57,5.72,35.22,11.21,52.84,16.78c1.51,0.48,3,1.05,5.87,2.05c-12.31,3.9-23.31,7.38-34.32,10.86
		c-8.25,2.61-16.55,5.1-24.73,7.92c-1.54,0.53-3.49,2.18-3.79,3.62c-1.69,8.12-2.94,16.34-4.4,24.85c8.37,3.82,16.35,1.8,24.39-1.52
		c2.24-0.93,5.67-1.85,7.21-0.81c1.54,1.04,1.91,4.56,1.91,7c0.03,9.31-0.61,18.63-0.39,27.93c0.18,7.93-7.25,13.17-14.65,10.03
		c-2.67-1.13-5.7-1.38-8.57-2.04c-0.25,0.51-0.5,1.02-0.75,1.53c3.03,4.48,6.06,8.97,9.11,13.44c4.97,7.3,10.03,14.54,14.92,21.89
		c2.03,3.06,6.21,6.44,3.14,9.98c-1.83,2.12-6.51,2.35-9.92,2.42c-15.49,0.33-30.99,0.29-46.48,0.42c-1.61,0.01-3.21,0.22-5.51,0.39
		c6.61,12.72,12.94,24.91,19.85,38.21c-2.58-1.17-4.16-1.8-5.66-2.59c-16.25-8.46-32.52-16.88-48.7-25.49
		c-2.87-1.53-4.73-1.4-7.51,0.54c-8.59,6-17.49,11.57-26.39,17.1c-2.06,1.28-3.06,2.17-2.71,4.96c0.85,6.7-2.72,12.4-8.57,14.91
		c-5.86,2.52-12.38,1.1-16.68-4.14c-1.77-2.16-3.14-2.47-5.84-1.83c-10.19,2.44-20.46,4.55-30.75,6.53
		c-2.78,0.53-4.24,1.49-5.12,4.36c-5.91,19.23-12.04,38.39-18.47,58.72c-0.91-2.27-1.49-3.5-1.9-4.79
		c-5.62-17.78-11.3-35.54-16.73-53.37c-0.96-3.16-2.43-4.42-5.71-5.01c-10.14-1.84-20.24-4.01-30.26-6.41
		c-2.64-0.63-4.06-0.44-5.89,1.73c-4.2,4.99-10.63,6.33-16.31,3.98c-5.89-2.43-9.02-7.93-8.98-14.8c0.01-1.52-1.12-3.63-2.39-4.48
		c-8.97-6.04-18.26-11.61-27.12-17.8c-2.83-1.98-4.71-1.37-7.17-0.07c-16.95,8.92-33.92,17.79-50.89,26.66
		c-0.67,0.35-1.39,0.58-3.19,1.31c6.53-12.59,12.55-24.17,18.99-36.57c-2.21-0.13-3.76-0.31-5.31-0.3
		c-11,0.09-21.99,0.24-32.99,0.33c-6.52,0.05-8.64-3.56-5.29-9.3c7.56-12.91,15.24-25.75,23.06-38.92
		c-4.6-3.57-9.94-4.41-15.71-3.24c-2.28,0.46-4.5,1.27-6.79,1.57c-3.56,0.46-5.65-0.93-5.82-4.9c-0.47-10.82-1.16-21.62-1.67-32.44
		c-0.29-6.16,1.18-7.57,7.25-6.76c5.97,0.8,11.86,1.26,17.7-1.21c-1.26-7.66-2.29-15.07-3.84-22.37c-0.29-1.39-2.44-2.9-4.04-3.41
		c-17.58-5.69-35.22-11.2-52.84-16.77c-1.52-0.48-3.02-1.04-5.73-1.99c3.72-1.24,6.29-2.14,8.88-2.96
		c16.67-5.27,33.32-10.61,50.04-15.7c2.9-0.88,3.79-2.4,4.32-5.15c1.97-10.12,4.33-20.17,6.27-30.3c0.32-1.69-0.17-4.18-1.28-5.39
		c-4.64-5.05-6.17-10.78-3.81-16.48c2.38-5.73,7.48-8.73,14.29-9.06c1.67-0.08,3.84-1.42,4.81-2.84
		c6.09-8.94,11.77-18.15,17.9-27.06c1.59-2.31,1.64-3.83,0.39-6.2c-9.48-17.96-18.81-36-28.67-54.93c1.92,0.77,3.06,1.11,4.1,1.65
		c16.99,8.83,34.01,17.61,50.92,26.6c2.79,1.48,4.54,1.16,7.09-0.58c8.52-5.81,17.38-11.13,25.93-16.89
		c1.4-0.95,2.72-3.16,2.75-4.81c0.12-7,3.22-12.36,9.14-14.7c5.76-2.27,11.93-0.87,16.26,4.2c1.68,1.97,3.03,2.25,5.47,1.68
		c10.2-2.4,20.44-4.68,30.73-6.61c2.93-0.55,4.17-1.66,5.02-4.4c5.54-17.98,11.25-35.9,16.92-53.84c0.47-1.5,1.06-2.97,2.05-5.73
		c3.89,12.32,7.38,23.34,10.86,34.37c2.7,8.57,5.25,17.2,8.22,25.68c0.55,1.56,2.63,3.23,4.3,3.63c10.51,2.51,21.1,4.76,31.7,6.86
		c1.36,0.27,3.47-0.38,4.42-1.38c5.16-5.42,11-7.16,17.07-4.66c6.23,2.56,9.13,7.92,8.91,15.74c-0.04,1.24,0.99,2.99,2.05,3.7
		c9.15,6.07,18.36,12.05,27.72,17.8c1.31,0.8,3.83,0.83,5.23,0.12c17.66-8.98,35.22-18.16,52.81-27.29
		C479.99,220.75,480.61,220.49,482.65,219.55z M318.85,437.26c3.28,2.28,5.29,3.62,7.24,5.04c9.48,6.91,20.21,7.24,27.59,0.56
		c3.42-3.09,6.2-6.92,9.73-9.87c5.56-4.63,11-9.88,17.42-12.86c6.18-2.87,7.77-4.26,4.01-10.12c-8-12.48-16.03-24.94-24.01-37.44
		c-4.47-7-8.85-14.06-13.35-21.23c-27.69,10.99-54.59,12.47-80.51-5.25c-12.56,22.9-24.95,45.47-36.84,67.14
		c5.33,5.98,9.84,11.71,15.05,16.73c12.9,12.44,21.81,17.47,39.1,8.99c4.07-1.99,6.22-0.73,6.29,4.3
		c0.14,9.48-0.36,18.97-0.38,28.45c0,1.52,0.69,3.99,1.71,4.41c7.58,3.06,15.36,4.3,23.33,1.13c3.49-1.39,5.16-3.43,4.78-7.55
		c-0.71-7.63-0.84-15.3-1.15-22.96C318.76,444.16,318.85,441.59,318.85,437.26z M282.96,447.32c-17.61,7.71-21.45,6.71-34.47-8.01
		c-11.43-12.92-24.99-22.68-42.46-25.39c-27.81-4.31-50.38,7.46-70.89,24.41c-5.25,4.33-10.65,7.44-17.35,7.86
		c-5.07,0.32-10.19,0.06-15.59,0.06c0.66,11.78,1.32,23.53,1.99,35.45c1.31-0.29,2.45-0.48,3.56-0.79
		c10.23-2.79,19.27-1.13,27.39,6.18c4.93,4.43,10.35,8.45,16.03,11.87c28.74,17.33,63.7,13.89,92.5-8.38
		c4.05-3.13,9.2-5.62,14.19-6.53c6.08-1.11,12.53-0.51,18.8-0.13c4.86,0.3,6.38-0.81,6.33-5.57
		C282.9,468.06,282.96,457.76,282.96,447.32z M517.34,444.62c-0.25,0.07-0.75,0.13-1.18,0.34c-18.76,8.73-32.82,5.03-46.73-10.45
		c-14.18-15.78-32.41-23.25-53.76-20.87c-21.67,2.42-37.96,14.79-52.97,29.65c-4.92,4.87-11.44,8.3-17.64,11.6
		c-3.87,2.05-8,0.81-11.51-2.33c-2.07-1.86-4.79-3-8.65-5.34c0,15.59,0,29.47,0,43c8.78-0.97,18.02-2.5,27.29-2.78
		c4.34-0.13,8.96,1.68,13.08,3.48c8.53,3.72,16.49,8.95,25.26,11.84c10.03,3.3,20.73,6.84,31.03,6.52
		c21.84-0.68,41.91-8.06,59.57-21.67c8.17-6.29,17.48-10.47,28.25-5.43c2.77,1.3,7.94-1.59,7.95-4.26
		C517.37,466.82,517.34,455.73,517.34,444.62z M490.51,512.39c-116.48,0-232.34,0-349.12,0c2.11-3.49,3.7-6.13,5.64-9.34
		c-3.93-3.32-7.77-6.72-11.78-9.91c-2.59-2.06-4.56-1.58-6.35,1.54c-6.47,11.26-13.19,22.37-19.78,33.57
		c-0.53,0.9-0.75,1.97-1.26,3.33c138.01-0.76,275.47-1.53,414.13-2.29c-10.54-15.43-20.34-29.76-30.31-44.34
		c-3.42,2.23-6.33,4.15-9.26,6.04c-2.62,1.7-2.84,3.63-1.13,6.26C484.44,502.12,487.33,507.14,490.51,512.39z M389.42,284.56
		c-1.62,0.74-2.64,1.18-3.64,1.66c-10.19,4.92-19.58,3.46-27.28-4.84c-9.67-10.42-21.87-15.58-35.56-17.42
		c-23.28-3.14-43.64,4.75-62.3,17.81c-10.05,7.04-18.75,7.85-29.21,1.74c-0.48-0.28-1.11-0.32-1.98-0.55
		c-0.72,13.51-1.46,26.61-2.07,39.71c-0.17,3.68,1.8,4.34,5.63,2.16c6.66-3.79,13.58-4.59,20.33-0.6c4.12,2.43,7.96,5.44,11.61,8.56
		c11.26,9.63,23.9,16.26,38.7,18.31c22.3,3.07,41.09-5.11,58.44-18.13c2.87-2.15,6.16-4.27,9.57-5.05
		c7.47-1.72,15.13-2.57,23.3-3.86C393.25,311.85,391.37,298.46,389.42,284.56z M253.96,280.14c7.13-1.74,11.95-5.26,16.72-9.22
		c2.69-2.23,6.14-4,9.52-4.78c2.86-0.66,4.67-1.61,6.22-4.08c6.1-9.71,12.4-19.28,18.96-29.44c3.6,5.22,7.18,9.79,10.07,14.77
		c3.44,5.93,7.72,9.54,14.94,10.59c6.58,0.95,12.88,3.84,20.07,6.11c-15.71-22.8-30.96-44.94-46.57-67.61
		C287.13,224.56,270.8,251.92,253.96,280.14z M244.85,327.67c-5.37-0.65-9.64-1.16-13.36,2.6c-1.28,1.3-3.71,1.37-5.41,2.36
		c-1.97,1.14-4.39,2.27-5.47,4.09c-13.55,22.73-26.89,45.57-40.27,68.4c-0.64,1.09-1.13,2.27-2.15,4.33
		c7.63-1.8,14.36-3.48,21.15-4.95c3.91-0.84,6.32-3.08,8.16-6.57c9.41-17.79,19.01-35.49,28.5-53.25
		C238.88,339.28,241.66,333.81,244.85,327.67z M443.68,409.13c-0.61-0.99-1.43-2.39-2.32-3.76c-14.98-23.01-29.98-46.01-44.96-69.01
		c-3.71-5.69-10.27-8.07-16.67-6.03c-4.01,1.28-5.23,4.07-2.93,7.57c14.85,22.69,29.77,45.35,44.77,67.94
		c0.77,1.16,2.5,2.22,3.87,2.34C431.5,408.69,437.59,408.84,443.68,409.13z M456.74,507.29c0.25,0.44,0.51,0.88,0.76,1.32
		c8.33,0,16.67,0,25.49,0c-2.54-4.21-4.75-7.87-6.99-11.59C469.3,500.58,463.02,503.94,456.74,507.29z"/>
	<path class="st0" d="M318.85,437.26c0,4.33-0.09,6.9,0.02,9.47c0.31,7.66,0.45,15.34,1.15,22.96c0.38,4.12-1.29,6.16-4.78,7.55
		c-7.96,3.17-15.75,1.93-23.33-1.13c-1.02-0.41-1.72-2.89-1.71-4.41c0.02-9.48,0.52-18.97,0.38-28.45c-0.07-5.03-2.23-6.3-6.29-4.3
		c-17.29,8.47-26.2,3.44-39.1-8.99c-5.2-5.02-9.71-10.76-15.05-16.73c11.89-21.66,24.28-44.24,36.84-67.14
		c25.92,17.72,52.82,16.24,80.51,5.25c4.5,7.17,8.88,14.23,13.35,21.23c7.98,12.5,16.01,24.96,24.01,37.44
		c3.76,5.86,2.17,7.26-4.01,10.12c-6.42,2.98-11.87,8.22-17.42,12.86c-3.53,2.94-6.31,6.77-9.73,9.87
		c-7.38,6.68-18.12,6.35-27.59-0.56C324.14,440.88,322.13,439.54,318.85,437.26z"/>
	<path class="st0" d="M282.96,447.32c0,10.44-0.07,20.74,0.03,31.03c0.04,4.76-1.47,5.87-6.33,5.57c-6.26-0.38-12.72-0.98-18.8,0.13
		c-4.99,0.91-10.14,3.4-14.19,6.53c-28.79,22.27-63.76,25.71-92.5,8.38c-5.67-3.42-11.1-7.44-16.03-11.87
		c-8.12-7.31-17.16-8.97-27.39-6.18c-1.11,0.3-2.25,0.5-3.56,0.79c-0.67-11.92-1.33-23.66-1.99-35.45c5.41,0,10.52,0.25,15.59-0.06
		c6.7-0.42,12.1-3.53,17.35-7.86c20.5-16.94,43.08-28.71,70.89-24.41c17.46,2.71,31.03,12.47,42.46,25.39
		C261.51,454.03,265.35,455.03,282.96,447.32z M242.86,464.55c-11.73-13.94-24.48-25.6-42.22-29.44
		c-6.59-1.43-14.13-1.38-20.63,0.32c-14.77,3.88-26.43,13.55-38.27,23.29c10.35,17.22,26.47,23.77,44.81,27.14
		C209.63,490.11,225.76,477.14,242.86,464.55z"/>
	<path class="st0" d="M517.34,444.62c0,11.11,0.03,22.2-0.02,33.3c-0.01,2.67-5.18,5.55-7.95,4.26
		c-10.77-5.03-20.08-0.86-28.25,5.43c-17.66,13.61-37.73,20.99-59.57,21.67c-10.3,0.32-21-3.22-31.03-6.52
		c-8.77-2.88-16.73-8.12-25.26-11.84c-4.12-1.8-8.74-3.61-13.08-3.48c-9.27,0.27-18.51,1.81-27.29,2.78c0-13.53,0-27.41,0-43
		c3.87,2.34,6.58,3.48,8.65,5.34c3.51,3.14,7.64,4.38,11.51,2.33c6.21-3.3,12.73-6.73,17.64-11.6
		c15.02-14.86,31.31-27.23,52.97-29.65c21.35-2.39,39.59,5.09,53.76,20.87c13.91,15.48,27.97,19.18,46.73,10.45
		C516.59,444.75,517.09,444.68,517.34,444.62z M421.14,488.27c13.73-1.29,26.53-3.44,38.13-9.77c4.17-2.27,7.79-5.6,11.51-8.61
		c2.6-2.1,2.61-4.36,0.61-7.3c-10.14-14.93-23.73-24.84-41.15-29.71c-6.36-1.78-12.43-1.53-18.6,0.41
		c-12.97,4.07-23.86,11.59-33.99,20.36c-8.89,7.69-9.09,9.6-0.22,17.66C389.97,482.69,405.6,486.34,421.14,488.27z"/>
	<path class="st0" d="M490.51,512.39c-3.18-5.25-6.07-10.28-9.22-15.14c-1.71-2.64-1.49-4.57,1.13-6.26
		c2.93-1.9,5.84-3.81,9.26-6.04c9.97,14.58,19.76,28.92,30.31,44.34c-138.66,0.77-276.12,1.53-414.13,2.29
		c0.5-1.36,0.73-2.44,1.26-3.33c6.59-11.19,13.32-22.3,19.78-33.57c1.79-3.12,3.76-3.6,6.35-1.54c4.01,3.19,7.85,6.59,11.78,9.91
		c-1.94,3.21-3.53,5.84-5.64,9.34C258.17,512.39,374.03,512.39,490.51,512.39z"/>
	<path class="st0" d="M389.42,284.56c1.95,13.9,3.83,27.29,5.55,39.49c-8.17,1.3-15.84,2.15-23.3,3.86c-3.41,0.78-6.7,2.9-9.57,5.05
		c-17.35,13.02-36.14,21.2-58.44,18.13c-14.81-2.04-27.44-8.67-38.7-18.31c-3.65-3.12-7.49-6.13-11.61-8.56
		c-6.75-3.99-13.67-3.18-20.33,0.6c-3.83,2.18-5.8,1.52-5.63-2.16c0.61-13.11,1.36-26.21,2.07-39.71c0.87,0.23,1.5,0.27,1.98,0.55
		c10.46,6.12,19.16,5.3,29.21-1.74c18.66-13.06,39.02-20.95,62.3-17.81c13.69,1.84,25.89,7,35.56,17.42
		c7.7,8.3,17.09,9.75,27.28,4.84C386.78,285.74,387.8,285.3,389.42,284.56z M257.63,303.89c29.77,36.93,86.76,28.45,104.25,3.58
		c-12.55-13.06-27.92-21.17-45.4-25.39c-3.79-0.92-8-1.16-11.85-0.59C286.85,284.14,272.15,293.43,257.63,303.89z"/>
	<path class="st0" d="M253.96,280.14c16.84-28.22,33.17-55.58,49.93-83.66c15.62,22.67,30.86,44.81,46.57,67.61
		c-7.19-2.28-13.49-5.16-20.07-6.11c-7.22-1.04-11.5-4.66-14.94-10.59c-2.89-4.97-6.47-9.54-10.07-14.77
		c-6.57,10.15-12.87,19.73-18.96,29.44c-1.55,2.47-3.36,3.42-6.22,4.08c-3.38,0.79-6.83,2.56-9.52,4.78
		C265.91,274.87,261.09,278.39,253.96,280.14z"/>
	<path class="st0" d="M244.85,327.67c-3.19,6.14-5.97,11.6-8.86,17.01c-9.49,17.75-19.09,35.45-28.5,53.25
		c-1.85,3.49-4.25,5.73-8.16,6.57c-6.78,1.47-13.52,3.15-21.15,4.95c1.02-2.06,1.52-3.24,2.15-4.33
		c13.38-22.82,26.73-45.67,40.27-68.4c1.08-1.82,3.5-2.95,5.47-4.09c1.7-0.98,4.13-1.06,5.41-2.36
		C235.21,326.52,239.48,327.02,244.85,327.67z"/>
	<path class="st0" d="M443.68,409.13c-6.09-0.28-12.19-0.44-18.25-0.95c-1.37-0.12-3.1-1.18-3.87-2.34
		c-15-22.59-29.92-45.25-44.77-67.94c-2.3-3.51-1.07-6.3,2.93-7.57c6.4-2.04,12.96,0.34,16.67,6.03c14.99,23,29.98,46,44.96,69.01
		C442.25,406.73,443.08,408.14,443.68,409.13z"/>
	<path class="st0" d="M456.74,507.29c6.28-3.35,12.56-6.71,19.26-10.28c2.25,3.72,4.45,7.39,6.99,11.59c-8.82,0-17.15,0-25.49,0
		C457.25,508.17,456.99,507.73,456.74,507.29z"/>
	<path d="M242.86,464.55c-17.09,12.59-33.23,25.57-56.31,21.32c-18.34-3.37-34.46-9.92-44.81-27.14
		c11.84-9.74,23.5-19.41,38.27-23.29c6.5-1.71,14.04-1.75,20.63-0.32C218.37,438.95,231.13,450.61,242.86,464.55z M191.16,477.16
		c8.82,0.11,15.92-6.87,15.92-15.67c0-8.61-6.83-15.52-15.43-15.63c-8.71-0.11-15.65,6.51-15.86,15.14
		C175.57,469.93,182.34,477.04,191.16,477.16z"/>
	<path d="M421.14,488.27c-15.54-1.93-31.17-5.58-43.71-16.97c-8.87-8.06-8.67-9.96,0.22-17.66c10.14-8.77,21.03-16.29,33.99-20.36
		c6.17-1.94,12.24-2.18,18.6-0.41c17.42,4.87,31.01,14.78,41.15,29.71c2,2.94,1.99,5.2-0.61,7.3c-3.73,3.02-7.35,6.34-11.51,8.61
		C447.67,484.83,434.88,486.98,421.14,488.27z M423.99,473.8c7.5,0.01,13.59-6.22,13.46-13.76c-0.12-7.39-6.03-13.2-13.44-13.21
		c-7.41-0.01-13.32,5.79-13.45,13.18C410.43,467.57,416.48,473.79,423.99,473.8z"/>
	<path d="M257.63,303.89c14.53-10.45,29.22-19.74,47.01-22.4c3.85-0.57,8.06-0.33,11.85,0.59c17.47,4.22,32.85,12.34,45.4,25.39
		C344.39,332.34,287.4,340.82,257.63,303.89z M308.86,318.06c8.06,0.08,13.99-5.6,14.17-13.54c0.18-8.26-5.64-14.36-13.79-14.44
		c-8.2-0.08-14.21,5.87-14.19,14.06C295.08,312.12,300.88,317.98,308.86,318.06z"/>
	<path class="st0" d="M191.16,477.16c-8.82-0.11-15.59-7.23-15.37-16.15c0.21-8.63,7.15-15.25,15.86-15.14
		c8.61,0.11,15.44,7.03,15.43,15.63C207.09,470.29,199.99,477.27,191.16,477.16z"/>
	<path class="st0" d="M423.99,473.8c-7.51-0.01-13.56-6.22-13.43-13.79c0.13-7.39,6.05-13.19,13.45-13.18
		c7.4,0.01,13.31,5.82,13.44,13.21C437.58,467.58,431.48,473.81,423.99,473.8z"/>
	<path class="st0" d="M308.86,318.06c-7.98-0.08-13.79-5.93-13.81-13.92c-0.02-8.19,5.99-14.15,14.19-14.06
		c8.15,0.08,13.97,6.18,13.79,14.44C322.85,312.46,316.92,318.13,308.86,318.06z"/>
</g>
</svg>
