<?xml version="1.0" encoding="utf-8"?>
<!-- Generator: Adobe Illustrator 24.3.0, SVG Export Plug-In . SVG Version: 6.00 Build 0)  -->
<svg version="1.1" id="Layer_1" xmlns="http://www.w3.org/2000/svg" xmlns:xlink="http://www.w3.org/1999/xlink" x="0px" y="0px"
	 viewBox="0 0 612 792" style="enable-background:new 0 0 612 792;" xml:space="preserve">
<style type="text/css">
	.st0{fill:#FFFFFF;}
</style>
<g>
	<path class="st0" d="M0,0c203.37,0,406.74,0,610.24,0c0,200.9,0,401.85,0,603c-203.33,0-406.78,0-610.24,0C0,402.11,0,201.08,0,0z
		 M87.01,513.51c23.46-11.76,45.51-22.74,67.46-33.91c3.1-1.58,5.13-1.38,8.02,0.65c9.02,6.34,18.43,12.11,27.5,18.38
		c1.55,1.07,3.03,3.52,3.02,5.33c-0.03,8.74,4.21,16.08,11.79,19.3c7.18,3.05,14.99,1.51,20.81-4.87c2.22-2.43,3.91-2.29,6.68-1.65
		c14.4,3.35,28.83,6.6,43.33,9.45c3.25,0.64,4.84,1.66,5.82,4.78c3.24,10.32,6.77,20.55,10.19,30.81
		c4.27,12.81,8.56,25.61,13.26,39.69c0.88-2.34,1.3-3.37,1.66-4.43c7.25-21.88,14.54-43.75,21.69-65.66
		c1.1-3.37,2.65-4.75,6.49-5.48c13.54-2.6,26.9-6.15,40.39-9.05c1.93-0.42,4.71,0.1,6.23,1.29c6.13,4.81,12.73,5.94,19.74,2.97
		c7.07-3,10.64-8.7,11.35-16.41c0.17-1.81,1.43-4.13,2.91-5.12c11.36-7.51,22.9-14.75,34.91-22.41
		c23.25,11.63,47.32,23.67,72.57,36.3c-1.82-3.78-2.97-6.28-4.21-8.73c-10.1-20.05-20.3-40.04-30.22-60.18
		c-1.01-2.04-1.32-5.53-0.25-7.31c6.12-10.11,12.7-19.95,19.29-29.77c0.8-1.2,2.62-2.5,3.92-2.46c8.86,0.3,15.2-3.54,18.81-11.39
		c3.6-7.82,1.36-14.78-4.14-21.08c-1.05-1.2-1.76-3.46-1.43-4.98c2.83-13.3,6.07-26.51,8.86-39.82c0.74-3.53,2.09-5.42,5.67-6.55
		c15.67-4.94,31.25-10.19,46.85-15.36c7.62-2.53,15.22-5.12,24.04-8.09c-2.22-0.88-3.09-1.28-4-1.58
		c-22.07-7.31-44.12-14.67-66.24-21.86c-3.58-1.16-5.17-2.65-5.93-6.81c-2.58-14.16-5.9-28.19-9.32-42.18
		c-0.74-3.03-0.28-4.45,2.02-6.51c5.65-5.04,7.89-11.52,5.69-19.02c-2.24-7.65-7.54-13.71-15.25-13.16
		c-9.22,0.65-11.72-4.91-15-10.86c-1.06-1.93-2.33-3.75-3.54-5.59c-4.34-6.63-11.85-13.09-12.18-19.9
		c-0.34-6.97,6.38-14.26,9.98-21.44c7.13-14.24,14.23-28.48,21.98-44.01c-21.58,10.84-41.79,20.94-61.94,31.18
		c-2.73,1.39-4.56,1.61-7.4-0.41c-10.76-7.68-21.8-14.98-32.9-22.16c-2.62-1.7-3.91-3.16-3.81-6.52
		c0.28-8.99-3.95-15.32-11.79-18.39c-7.8-3.06-14.71-1.2-20.25,4.77c-2.33,2.51-4.16,2.45-7.24,1.73
		c-13.83-3.23-27.74-6.13-41.68-8.86c-3.06-0.6-4.89-1.34-5.94-4.67c-4.45-14.15-9.27-28.18-13.96-42.24
		c-1.97-5.91-3.97-11.82-6.43-19.15c-6.93,20.87-13.46,40.03-19.56,59.32c-1.36,4.3-3.52,5.8-7.77,6.61
		c-15.32,2.95-30.53,6.48-45.84,9.52c-1.83,0.36-4.58-0.35-5.9-1.61c-6.32-5.99-14.05-7.8-21.53-4.48
		c-7.32,3.25-11.43,10.57-11.28,18.97c0.03,1.78-1.44,4.23-2.97,5.27c-7.93,5.44-16.49,10.04-24.06,15.92
		c-5.06,3.93-8.73,3.86-14.24,0.96C131.7,100,111.29,90.04,89.93,79.3c0.94,2.03,1.31,2.9,1.73,3.74
		c10.28,20.42,20.64,40.8,30.72,61.31c0.89,1.82,0.88,5.05-0.17,6.69c-7.03,10.96-14.36,21.74-21.85,32.39
		c-1.06,1.51-3.66,2.97-5.39,2.8c-9.1-0.87-16.7,2.92-20.26,10.73c-3.66,8.02-1.43,16.57,5.48,22.85c1.32,1.21,2.3,3.92,1.96,5.65
		c-2.92,14.71-6.07,29.39-9.48,44c-0.47,2.01-2.45,4.5-4.33,5.21c-9.2,3.46-18.59,6.4-27.92,9.51c-13.03,4.34-26.06,8.66-40.4,13.43
		c3.17,1.13,4.95,1.8,6.75,2.4c20.36,6.74,40.73,13.49,61.11,20.19c2.72,0.89,4.73,1.68,5.42,5.25c2.65,13.74,5.99,27.36,8.71,41.09
		c0.39,1.97-0.57,4.79-1.89,6.41c-5.31,6.53-7.04,13.55-3.42,21.26c3.49,7.44,9.69,10.74,17.91,10.93c1.83,0.04,4.28,1.44,5.33,2.97
		c6.69,9.75,12.78,19.92,19.7,29.5c2.51,3.48,2.78,5.79,0.87,9.51C109.44,468.67,98.65,490.37,87.01,513.51z"/>
	<path d="M87.01,513.51c11.63-23.14,22.43-44.84,33.49-66.4c1.91-3.72,1.64-6.03-0.87-9.51c-6.92-9.58-13.01-19.75-19.7-29.5
		c-1.05-1.53-3.5-2.93-5.33-2.97c-8.22-0.19-14.43-3.49-17.91-10.93c-3.61-7.71-1.89-14.73,3.42-21.26
		c1.32-1.63,2.28-4.44,1.89-6.41c-2.73-13.73-6.06-27.34-8.71-41.09c-0.69-3.58-2.7-4.36-5.42-5.25
		C47.48,313.5,27.12,306.75,6.76,300c-1.8-0.6-3.58-1.27-6.75-2.4c14.34-4.76,27.37-9.09,40.4-13.43
		c9.33-3.11,18.72-6.05,27.92-9.51c1.87-0.71,3.86-3.2,4.33-5.21c3.42-14.61,6.56-29.28,9.48-44c0.34-1.73-0.63-4.44-1.96-5.65
		c-6.9-6.28-9.13-14.84-5.48-22.85c3.56-7.81,11.16-11.6,20.26-10.73c1.73,0.17,4.33-1.29,5.39-2.8
		c7.5-10.65,14.83-21.42,21.85-32.39c1.05-1.64,1.07-4.87,0.17-6.69c-10.08-20.51-20.44-40.89-30.72-61.31
		c-0.42-0.84-0.8-1.71-1.73-3.74c21.36,10.74,41.77,20.71,61.84,31.29c5.51,2.9,9.17,2.97,14.24-0.96
		c7.57-5.88,16.13-10.48,24.06-15.92c1.53-1.05,3-3.5,2.97-5.27c-0.15-8.4,3.96-15.72,11.28-18.97c7.48-3.32,15.21-1.51,21.53,4.48
		c1.33,1.26,4.08,1.97,5.9,1.61c15.31-3.04,30.51-6.57,45.84-9.52c4.25-0.82,6.41-2.31,7.77-6.61
		c6.09-19.29,12.63-38.45,19.56-59.32c2.46,7.34,4.46,13.24,6.43,19.15c4.69,14.07,9.51,28.1,13.96,42.24
		c1.05,3.33,2.88,4.07,5.94,4.67c13.94,2.73,27.85,5.63,41.68,8.86c3.09,0.72,4.92,0.78,7.24-1.73c5.54-5.97,12.45-7.83,20.25-4.77
		c7.83,3.07,12.07,9.4,11.79,18.39c-0.1,3.36,1.18,4.83,3.81,6.52c11.11,7.18,22.14,14.48,32.9,22.16c2.84,2.03,4.66,1.8,7.4,0.41
		c20.14-10.23,40.35-20.33,61.94-31.18c-7.75,15.53-14.85,29.78-21.98,44.01c-3.59,7.17-10.31,14.47-9.98,21.44
		c0.33,6.81,7.84,13.28,12.18,19.9c1.21,1.85,2.48,3.66,3.54,5.59c3.29,5.95,5.78,11.51,15,10.86c7.71-0.55,13.01,5.51,15.25,13.16
		c2.19,7.5-0.04,13.98-5.69,19.02c-2.3,2.06-2.76,3.47-2.02,6.51c3.42,13.99,6.75,28.02,9.32,42.18c0.76,4.16,2.35,5.64,5.93,6.81
		c22.11,7.18,44.17,14.54,66.24,21.86c0.91,0.3,1.78,0.7,4,1.58c-8.82,2.97-16.42,5.57-24.04,8.09
		c-15.6,5.17-31.17,10.42-46.85,15.36c-3.59,1.13-4.93,3.02-5.67,6.55c-2.79,13.31-6.03,26.52-8.86,39.82
		c-0.32,1.52,0.39,3.78,1.43,4.98c5.49,6.3,7.74,13.26,4.14,21.08c-3.61,7.85-9.95,11.69-18.81,11.39c-1.3-0.04-3.12,1.26-3.92,2.46
		c-6.59,9.82-13.17,19.65-19.29,29.77c-1.08,1.78-0.76,5.26,0.25,7.31c9.91,20.14,20.11,40.14,30.22,60.18
		c1.24,2.46,2.39,4.95,4.21,8.73c-25.25-12.63-49.32-24.67-72.57-36.3c-12.01,7.66-23.55,14.9-34.91,22.41
		c-1.49,0.98-2.75,3.31-2.91,5.12c-0.72,7.71-4.28,13.42-11.35,16.41c-7.01,2.97-13.61,1.84-19.74-2.97
		c-1.52-1.19-4.3-1.71-6.23-1.29c-13.49,2.9-26.85,6.45-40.39,9.05c-3.84,0.74-5.39,2.11-6.49,5.48
		c-7.15,21.91-14.44,43.78-21.69,65.66c-0.35,1.06-0.78,2.1-1.66,4.43c-4.7-14.08-8.99-26.89-13.26-39.69
		c-3.43-10.26-6.95-20.49-10.19-30.81c-0.98-3.13-2.57-4.15-5.82-4.78c-14.5-2.85-28.93-6.11-43.33-9.45
		c-2.77-0.64-4.46-0.79-6.68,1.65c-5.82,6.38-13.64,7.92-20.81,4.87c-7.57-3.21-11.82-10.56-11.79-19.3
		c0.01-1.81-1.47-4.26-3.02-5.33c-9.07-6.27-18.48-12.04-27.5-18.38c-2.89-2.03-4.93-2.23-8.02-0.65
		C132.52,490.77,110.47,501.75,87.01,513.51z M103.77,290.19c-1.16-0.66-2.28-1.73-3.49-1.86c-0.94-0.1-2,0.99-3,1.56
		c3.12,5.17-1.86,6.83-3.45,9.38c1.46,3.31,2.04,6.71,2.96,10.01c0.28,0.99,1.44,2.38,2.29,2.45c2.52,0.22,5.09-0.13,6.36-0.19
		c1.21,2.72,1.92,4.3,2.62,5.88c0.62-1.3,1.18-2.63,1.89-3.87c0.36-0.64,0.92-1.22,1.51-1.68c1.5-1.17,3.06-2.26,4.6-3.39
		c1.2-1.95,2.82-3.76,3.51-5.87c1.2-3.68-2.47-7.93,1.11-11.49c-0.96-0.72-2.06-2.18-2.87-2.03c-5.2,0.92-5.12,1.01-7-3.27
		c-0.32-0.74-1.51-1.73-2.06-1.6c-0.92,0.21-2.43,1.74-2.36,1.84C108.65,289.48,103.89,288.39,103.77,290.19z M179.9,438.39
		c2.84,3.28,5.69,6.55,9.15,10.54c-1.58,2.26-3.79,5.42-6,8.59c3.19-1.77,5.07-4.55,7.35-6.96c1.21-1.28,3.1-1.92,4.69-2.85
		c0.73,1.52,1.38,3.08,2.21,4.54c0.79,1.38,1.49,3.16,2.73,3.82c1.36,0.72,3.29,0.37,4.28,0.43c-1.37,6.12-2.63,11.72-3.96,17.66
		c-1.51-0.17-3.11-0.36-5.55-0.64c1.25,6.6,5.37,5.76,7.55,5.64c1.09-5.5,1.45-10.39,3.08-14.82c3.13-8.5,2.81-9.56-6.3-10.87
		c2.41-4.92-0.39-7.75-4.63-7.7c-5.48,0.06-8.29-2.89-11.29-6.49c-0.7-0.85-2.44-0.84-3.7-1.22c-1.09,0.78-2.26,1.47-3.25,2.35
		c-2.76,2.46-5.62,4.86-8.04,7.64c-0.48,0.55,0.54,2.89,1.42,3.93c0.47,0.55,2.68,0.53,3.14-0.02c0.84-1,1.2-2.59,1.28-3.96
		c0.04-0.77-0.88-1.6-0.73-1.36C175.83,443.51,177.86,440.95,179.9,438.39z M494.33,330.8c2.39,1.54,5.51,4.84,7,4.22
		c2.63-1.09,4.43-4.11,8.1-3.3c0.27,0.06,1.66-2.38,1.38-2.73c-2.45-3.03-5.08-5.93-7.89-8.64c-0.37-0.36-2.68,0.33-2.93,0.98
		c-0.63,1.62-0.6,3.51-0.94,6.03c-2.75-3.27-4.97-5.9-7.18-8.53c-0.53,0.3-1.06,0.59-1.6,0.89c1.41,3.76,2.83,7.52,4.25,11.29
		c-5.62,0.29-6.86-2.92-5.93-7.57c-1.83-0.58-3.36-1.06-5.71-1.81c0.18,5.15-5.48,9.26-0.07,14.69c0.48-2.12,0.96-4.24,1.6-7.05
		c1.65,3.9,3.05,7.23,4.61,10.93C493.37,337.81,495.96,335.45,494.33,330.8z M494.73,289.91c-1.17-0.03-2.36,0.08-3.5-0.11
		c-1.28-0.21-2.51-0.68-3.76-1.04c0.24,1.22,0.69,2.45,0.66,3.66c-0.03,1.41-0.01,3.57-0.84,4.08c-4.4,2.7-5.48,4.73-0.32,8.09
		c1.33,0.87,0.64,4.84,0.91,7.72c3.81-1.03,7.6-2.97,9.49,2.23c0.08,0.23,3.21,0.03,4.02-0.82c1.73-1.81,2.51-4.98,5.85-1.87
		c0.51,0.47,2.06-0.17,3.13-0.29c-0.11-0.87,0.07-1.97-0.39-2.58c-2.65-3.51-0.45-5.2,2.35-6.73c0.92-0.5,1.85-0.99,2.86-1.52
		c-2.78-2.42-5.2-4.52-6.91-6.01c0.95-2.63,1.47-4.08,2-5.53c-1.41,0.17-2.96,0.79-4.2,0.4c-1.9-0.6-3.69-1.75-5.34-2.93
		c-0.92-0.66-1.46-1.85-2.35-3.04c-1.57,2.62-2.73,4.56-3.89,6.5L494.73,289.91z M442.51,234.59c-0.61,0.39-1.22,0.78-1.83,1.18
		c-4.35-4.12-9.42-7.73-12.85-12.51c-4.14-5.78-9.51-6.38-15.62-6.61c-8.32-0.31-16.63-0.93-25.53-1.45
		c-1.47-18.08-2.87-35.67-16.39-49.49c0.8-0.42,1.6-0.84,2.4-1.26c3.12,3.29,6.24,6.57,10.43,10.99c-0.34-3.3-0.03-5.55-0.85-7.26
		c-2.94-6.1-6.22-12.05-9.5-17.98c-0.38-0.68-1.52-1.14-2.38-1.31c-4.64-0.91-9.35-1.52-13.96-2.57
		c-6.61-1.51-12.42-0.57-17.48,4.93c7.7-2.95,12.45,1.01,16.81,6.75c-5.82,0.79-11.58,0.58-17.31,0.88
		c-2.76,0.14-5.93,0.56-8.12,2.04c-8.95,6.02-17.6,12.5-26.58,18.97c-2.29-1.91-4.14-3.78-6.28-5.18
		c-11.66-7.64-21.33-19.3-37.29-18.36c-1.69,0.1-3.45-1.06-5.17-1.64c2.51-1.55,4.96-2.18,7.42-2.21c2.65-0.03,5.31,0.5,8.45,0.84
		c-3.16-5.65-3.16-5.65-29.22-9.65c-3.45,10.6-18.89,14.07-17.83,27.31c5.39-3.95,10.59-7.76,15.79-11.56
		c0.73,0.74,1.47,1.48,2.2,2.22c-3.75,4.95-7.48,9.91-11.24,14.85c-1.43,1.88-3.64,3.52-4.23,5.63c-2.56,9.02-4.98,18.1-6.76,27.3
		c-0.88,4.54-2.37,6.2-7.24,6.39c-15.86,0.61-31.81,1.52-43.07,15.28c-0.45,0.55-1.27,0.79-1.91,1.18c-0.4-0.34-0.81-0.68-1.21-1.01
		c3.2-4.15,6.39-8.3,9.87-12.81c-11.57-1.28-15.71,12.59-25.29,11.59c-1.08,8.5-1.87,16.01-3.04,23.47
		c-0.97,6.21,0.62,11.08,3.6,12.77c2.27-6.98,4.64-14.26,7.02-21.54c0.75,0.07,1.5,0.14,2.25,0.22c0.72,4.6,2.75,9.46,1.87,13.73
		c-1.62,7.85,2.18,13.51,5.56,19.45c3.56,6.25,7.86,12.07,11.45,18.3c0.83,1.43,0.82,4.2-0.04,5.6c-3.97,6.49-8.77,12.5-12.49,19.11
		c-2.14,3.81-2.8,8.44-4.13,12.71c-1.89,6.05-3.79,12.1-5.68,18.15c-0.52-0.12-1.04-0.25-1.56-0.37
		c-1.87-5.97-3.74-11.93-5.78-18.46c-9.18,9.07,2.05,20.32-3.63,28.51c3.02,2.78,5.27,4.98,7.66,7.03
		c3.78,3.25,7.45,6.68,11.53,9.52c3.23,2.25,6.85,2.72,8.9-0.03c-4.73-4.67-9.03-8.91-13.32-13.15c0.52-0.67,1.03-1.35,1.55-2.02
		c4.99,2.71,11.08,4.39,14.72,8.34c7.2,7.81,16.52,9.21,25.83,11.21c4.27,0.92,8.65,1.31,13.2,1.98c1.52,9.39,2.55,18.76,4.75,27.85
		c0.94,3.88,3.91,7.53,6.69,10.63c3.47,3.87,7.71,7.06,11.61,10.54c-0.44,0.47-0.89,0.93-1.33,1.4c-6.87-0.52-12.92-2.59-16.95-9.12
		c-0.82,5.62-0.2,10.09,5.03,13.79c4.29,3.04,7.54,7.55,11.29,11.45c5.35,0.59,11.75,1.29,18.16,2.02c8.54,0.97,11,0.16,13.87-5.05
		c-9.59,3.13-13.35-4.88-19.15-9.56c7.78-0.83,15.43-0.69,23.07-0.9c2.75-0.08,6.09-0.16,8.09-1.66
		c8.25-6.17,16.1-12.89,24.43-19.69c0.4,0.29,1.46,1.21,2.64,1.95c10.98,6.91,20.7,16.27,35.32,15.61c4.9-0.22,9.92,2.39,14.88,3.7
		c-0.05,0.67-0.11,1.34-0.16,2.01c-6.66,1.97-13.31,3.93-19.59,5.79c3.63,5.39,11.91,7.61,21.46,5.34
		c3.33-0.79,6.95-0.41,10.38-0.56c2.19-2.21,5.36-4.76,7.69-7.92c3.21-4.35,6.1-9.01,8.46-13.86c0.68-1.4-0.96-3.92-1.99-7.51
		c-3.82,8.56-8.01,13.83-17.11,12.84c4.2-6.2,8.36-12.65,14.03-17.23c3.66-2.96,5.73-5.79,6.34-10.05
		c0.93-6.54,2.09-13.08,2.41-19.66c0.22-4.43,2.19-4.93,5.96-5.28c9.16-0.84,18.29-2.16,27.36-3.71c1.83-0.31,3.49-2.35,4.96-3.86
		c4.9-5.03,9.67-10.18,14.49-15.29c0.88,0.6,1.75,1.2,2.63,1.8c-2.94,6.89-5.87,13.78-8.77,20.58c5.27,0.82,8.7-2.41,11.68-7.54
		c2.79-4.81,6.61-9.01,10.59-14.29c0-4.01-0.34-9.72,0.09-15.37c0.44-5.75-0.71-10.54-4.54-13.66c-1.28,6.07-2.6,12.33-3.92,18.58
		c-1.15-0.05-2.29-0.1-3.44-0.14c-0.82-7.15-2.64-14.37-2.15-21.43c0.43-6.29-2.03-10.12-5.95-14.09
		c-5.29-5.37-10.3-11.01-15.6-16.72c3.09-3.37,5.72-6.37,8.5-9.22c7.39-7.59,14.21-15.31,12.96-27.14c-0.3-2.84,1.05-5.84,1.64-8.77
		c0.75-0.01,1.49-0.03,2.24-0.04c1.16,6.53,2.33,13.07,3.5,19.62c3.66-2.28,6.22-5.51,5.18-11.22c-1.26-6.96-3.91-14.17,2.22-21.01
		c-11.32-3.69-13.41-18.88-25.81-19.14C436.99,224.33,439.75,229.46,442.51,234.59z M426.97,161.79c0.09-0.21,0.18-0.42,0.27-0.62
		c1.67,2.61,3.32,5.24,5.02,7.83c1.38,2.1,2.77,4.18,4.25,6.21c0.76,1.04,1.71,1.93,2.57,2.89c1.53,1.72,3.73,3.19,4.45,5.2
		c1.43,3.99,4.08,4.55,5.93,1.58c2.37-3.79,5.34-4.42,9.17-4.91c1.36-0.18,3.72-3.06,3.41-3.91c-1.43-3.9-4.05-6.3-8.8-4.2
		c-2.45,1.08-5.77,1.73-3.6,5.11c2.78,4.33-0.76,5.27-2.74,7.65c-1.31-2.71-1.99-5.28-3.55-7.11c-2.17-2.56-5-4.57-7.55-6.82
		c10.2-11.25,10.76-14.11,21.81-5.06c-1.51-3.53-2.99-7.26-5.52-10.01c-1.07-1.17-4.37-0.3-6.65-0.35c-0.13,7.12-8,7.94-11.12,13.49
		c-1.8-2.51-2.34-5.1-3.37-7.48c-0.57-1.33-1.76-2.89-3.02-3.31c-1.72-0.57-3.77-0.14-7.72-0.14c3.66-6.87,6.5-12.18,9.68-18.15
		c2.15,1.21,4.76,2.68,7.36,4.15c2.09-6.28-0.73-8.14-11.19-7.24c3.74,7.56-3.57,10.66-5.82,15.29c-3.05-0.46-5.78-0.87-8.52-1.28
		c2.19,2.02,4.49,2.75,6.38,4.07C421.2,156.85,424.03,159.4,426.97,161.79z M122.09,256.16c0.53-0.08,1.06-0.17,1.59-0.25
		c0.07-1.67,0.66-3.53,0.11-4.96c-1.19-3.12,0.47-4.41,2.4-6.44c2.82-2.95,5.54-6.41,6.98-10.16c3.69-9.59,6.77-19.43,9.75-29.27
		c0.44-1.44-0.63-4.59-1.74-5.01c-3.97-1.52-3.9-4.41-4.13-7.74c-0.15-2.19-1.32-4.32-2.04-6.48c-5.91,10.22-3.58,15.79,6.12,18.23
		c-0.74,1.76-1.45,3.45-2.2,5.23c-2.1-1.41-3.7-2.48-5.23-3.5c-5.36,5.21-5.5,7.82-1.31,12.86c0.88,1.05,1.7,2.92,1.36,4.08
		c-1.42,4.89-2.31,10.4-5.26,14.26c-2.95,3.86-8.12,6.03-12.6,9.14C117.55,248.82,119.82,252.49,122.09,256.16z M118.92,338.05
		c-4.84,3.6-9.05,6.72-13.25,9.85c3.11-0.64,5.73-2.41,8.62-3.39c1.95-0.66,4.88-1.04,6.29-0.03c1.81,1.29,3.48,4.13,3.41,6.24
		c-0.05,1.44-3,3.41-4.99,3.99c-2.4,0.71-5.18-0.02-7.74,0.32c-1.36,0.18-2.6,1.3-3.89,1.99c0.87,1.11,1.55,2.52,2.67,3.27
		c2.17,1.47,4.6,2.58,6.92,3.83c-0.11,0.46-0.23,0.93-0.34,1.39c-2.08,0.34-4.16,0.68-6.24,1.02c-0.01,0.48-0.02,0.97-0.03,1.45
		c2.66,0.35,5.31,0.69,8.26,1.08c-2.02,2.08-3.93,4.05-5.83,6.01c2.87,0.2,4.82-0.75,6.82-0.89c3.57-0.24,7.19-0.15,10.77,0.1
		c2.01,0.14,3.97,0.9,7.41,1.73c-5.72,3.85-9.61,6.47-13.5,9.09c0.81,0.79,1.61,1.59,2.42,2.38c4.04-3.39,8.09-6.77,11.97-10.02
		c-3.14-11.51-11.46-1.54-15.06-3.49c-0.5-3.81,0.12-7.57-1.38-8.83c-3.68-3.12-8.33-5.09-13.56-8.08
		c7.01-1.11,15.42,2.31,17.55-6.16c0.74-2.93-3.37-7.07-5.58-11.27c3.56-2.67-1.68-3.65-3.52-5.4c1.03-1.25,1.71-2.08,2.39-2.91
		C114.59,333,113.05,335.18,118.92,338.05z M488.87,350.66c-2.55,3.3-5.93,6.08-7.19,9.62c-3.4,9.57-9.24,17.52-14.93,25.66
		c-1.13,1.62-1.94,4.23-1.49,6.04c0.88,3.55,2.63,6.91,4.26,10.24c0.88,1.78,2.26,3.32,3.62,5.28c4.99-7.64,3.35-11.49-6.57-16.93
		c1.35-2.18,2.69-4.34,4.03-6.5c0.16,0.57,0.32,1.15,0.48,1.72c2.01-0.16,4.82,0.46,5.88-0.63c3.26-3.35,7.75-7.14,1.19-11.47
		c1.94-4.67,3.17-9.25,5.62-13.06c2.36-3.67,5.98-6.54,8.82-9.53c-1.77-2.57-3.99-5.81-6.22-9.05c-0.31,0.16-0.63,0.33-0.94,0.49
		C486.61,345.36,487.8,348.17,488.87,350.66z M170.28,168.82c-2.4,1.53-5.63,2.86-7.78,5.18c-1.79,1.94-2.61,4.99-3.17,7.69
		c-0.14,0.65,2.44,1.87,3.77,2.83c1.24-2.18,2.35-4.45,3.74-6.53c2.2-3.28,3.95-8.06,7.04-9.26c4.68-1.81,8.03-3.38,9.24-8.63
		c0.33-1.42,3.01-2.48,4.79-3.34c2.18-1.06,5.53-1.14,6.53-2.77c0.89-1.47-0.06-4.95-1.36-6.68c-6.51-8.69-6.8-13.03-0.57-19.21
		c-5.81,1.11-13.69,9.9-13.95,15.81c1.99-2.84,3.85-5.5,5.63-8.05c2.94,4.85,5.62,9.16,8.16,13.54c1.65,2.85,0.65,6.24-2.38,5.43
		c-6.71-1.79-7.99,2.34-9.69,6.77c-1.77,4.62-3.61,4.92-7.27,1.62c-1.99-1.8-4.33-3.24-6.5-4.83c-0.64,0.65-1.27,1.3-1.91,1.95
		C166.31,162.89,168.02,165.45,170.28,168.82z M494.52,245.57c1.34,6.57-4.73,6.71-7.09,9.91c-2.09-1.98-3.87-3.67-5.64-5.36
		c4.27,7.54,4.27,7.54,11.33,3.17c3.99-2.47,8.69,0.04,10.66,6.54c-5.73-3.99-10.89-3.86-14.51,1.52
		c-3.11,4.62-2.69,9.48,0.65,12.66c-0.43,3.91-0.75,6.82-1.17,10.57c2.36-1.31,4.13-2.3,6.62-3.69c-1.81-1.22-2.79-1.88-4.39-2.97
		c5.49-1.25,10.34-2.36,16.55-3.78c-6.01-4.87-9.97-3.51-13.67-0.15c-5-2.67-5.21-7.07-3.19-10.93c4.21-8.03,10.24-1.68,15.54-0.82
		C505.97,255.33,500.27,247.02,494.52,245.57z M159.62,195.48c0.3-0.66,0.59-1.31,0.89-1.97c-2.75-2.12-5.5-4.24-8.25-6.35
		c-2.33-1.79-3.49-3.44-1-6.34c2.22-2.59-0.64-11.78-3.79-13.07c-3.34-1.37-5.76-0.24-5.49,3.56c0.14,1.98,1.32,4.14,2.65,5.71
		c2.24,2.64,3.23,4.92,0.5,7.8c-2.73,2.88-1.18,5.65,1.49,6.82C150.73,193.43,155.27,194.24,159.62,195.48z M433.59,427.74
		c3.4-0.19,6.84,0.52,7.67-0.64c1.36-1.88,1.01-4.98,1.4-7.73c0.41,0,1.46,0,2.5,0c-1.02-1.71-2.87-2.99-3.55-2.53
		c-3.08,2.06-7.05,4.05-8.46,7.1c-3.38,7.28-7.98,12.55-15.65,15.27c-1.14,0.4-2.59,3.19-2.18,4.11c2.08,4.71,4.72,9.16,7.16,13.71
		c0.4-0.13,0.8-0.25,1.2-0.38c-2-5.05-4-10.1-6-15.16c4.16-2.38,8.57-4.91,13.93-7.98c2.43,2.98,5.23,6.42,8.03,9.85
		c0.34-0.22,0.69-0.45,1.03-0.67c-2.65-3.92-5.29-7.84-8.25-12.22C432.72,429.78,433.34,428.32,433.59,427.74z M402.45,127.19
		c-0.52-0.33-1.03-0.66-1.55-0.99c-2.06,4.78-4.12,9.57-6.3,14.65c-4.01-2.96-10.56-3.14-10.35-10.48c-1.51-0.1-2.9-0.28-4.29-0.26
		c-11.55,0.24-13.5-1.87-13.17-13.75c0.07-2.53-0.52-5.07-0.81-7.61c-2.65,4.07,1.44,10.54-6.22,11.88
		c-0.91-2.14-1.63-3.84-2.36-5.55c-0.81,0.26-1.61,0.51-2.42,0.77c0.57,1.84,1.04,5.25,1.71,5.29c6.6,0.39,9.05,5.73,12.67,9.73
		c0.89,0.99,2.59,2.27,3.55,2.02c6.64-1.73,9.84,4.05,14.61,6.33c2.64,1.26,5.13,2.83,8.37,4.64
		C398.21,137.93,400.33,132.56,402.45,127.19z M272.12,483.59c0.32-0.65,0.64-1.3,0.95-1.95c-2.12-0.65-4.24-1.32-6.37-1.94
		c-3.72-1.09-7.54-1.89-11.13-3.29c-3.14-1.22-5.91-3.4-9.05-4.58c-5.37-2-10.91-3.55-15.59-5.03c-0.85,7.26-1.54,13.18-2.23,19.1
		c0.41,0.1,0.83,0.2,1.24,0.3c1.15-5.64,2.3-11.29,3.51-17.2c2.45,1.03,5.49,2.3,7.19,3.02c0.64,3.37,1.02,5.42,1.41,7.46
		c2.08-1.31,4.15-2.63,6.98-4.42c4.15,2.25,9.46,5.12,14.75,7.98c-0.96,2.76-2,5.72-3.03,8.67c0.45,0.11,0.9,0.23,1.35,0.34
		c1.73-3.61,3.45-7.22,5.36-11.21C269.36,481.98,270.74,482.79,272.12,483.59z M223.15,126.43c-0.93-0.56-1.86-1.12-2.78-1.68
		c-2.12,2.79-4.09,5.72-6.4,8.34c-1.75,1.99-3.85,3.72-6.04,5.22c-0.26,0.18-2.26-1.68-3.06-2.86c-1.78-2.64-2.46-5.21,0.21-8.03
		c3.21-3.39,5.99-7.18,8.95-10.8c-0.62-0.65-1.24-1.3-1.85-1.95c-4.58,4.02-9.17,8.05-13.72,12.04c1.42,3.2,2.92,6.67,4.49,10.12
		c1.59,3.49,4.07,5.07,7.61,2.73c3.66-2.41,7.29-4.94,10.54-7.86C222.35,130.57,222.5,128.22,223.15,126.43z M150.97,430.06
		c11.08,1.53,3.7,10.96,7.01,15.92c2.84-2.16,5.31-4.04,7.3-5.56c-2.38-2.95-4.43-5.49-6.33-7.84c9.35-13.04,7.73-11.56-3.28-20.73
		c-2.59,1.04-4.67,2.64-6.57,2.44c-2.23-0.23-4.3-2.01-6.57-3.19c3.48,5.78,6.81,6.61,14.79,3.07c1.72,2.91,5.43,6.34,4.93,8.94
		C161.27,428.22,156.93,431.17,150.97,430.06z M241.27,102.4c-3.88,3.07-6.18,4.89-8.48,6.7c0.21,0.49,0.41,0.97,0.62,1.46
		c2.5,0,5,0,7.99,0c-0.45,4.15-0.85,7.87-1.25,11.54c-3.52,1.29-6.7,2.45-9.88,3.61c1.55-5.62-5.85-11.14,0.15-16.27
		c-1.72,0.49-3.95,1.4-4.37,2.83c-0.49,1.69,0.54,3.84,0.97,5.77c2.25,10.21,2.25,10.21,10.82,6.78c2.69,1.06,5.26,2.94,6.26,2.32
		c3.45-2.17,0.42-3.34-1.1-5.19c-0.99-1.2-0.15-3.83-0.32-5.81C242.31,112,241.83,107.85,241.27,102.4z M476.11,199.06
		c-10.09,7.31-10.26,11.62-2.56,20.03c3.94,4.3,6.39,10.02,13.87,7.01c2.21-0.89,4.68-1.16,7.52-1.83
		c-4.41-5.78-6.11-5.57-13.92,0.45c-2.15-2.61-4.09-5.4-6.46-7.78c-6.22-6.25-6.11-8.87,1.13-14.8c1.08,1.2,2.17,2.39,3.25,3.59
		c0.34-0.25,0.68-0.5,1.03-0.76C478.69,203.02,477.41,201.05,476.11,199.06z M467.02,301.37c0.06-1.21,0.13-2.42,0.19-3.64
		c-7.81-1.76-15.56-3.9-23.46-5.13c-4.21-0.66-8.3,1.39-8.48,6.33c-0.19,5.14,4.35,7.04,8.2,6.66
		C451.38,304.82,459.18,302.85,467.02,301.37z M191.74,186.05c-0.54,0.49-1.07,0.97-1.61,1.46c2.34,7.78,5.31,15.32,12.44,20.38
		c3.11,2.2,6.83,2.69,9.62-0.88c2.91-3.71,1.22-7.07-1.94-9.27C204.27,193.58,197.93,189.92,191.74,186.05z M306.5,140.78
		c-0.8-0.01-1.59-0.02-2.39-0.04c-2.04,6.39-4.63,12.68-5.87,19.22c-0.51,2.73,1.31,6.41,3.16,8.84c0.88,1.16,5.51,1.38,6.3,0.36
		c1.89-2.43,3.74-6,3.39-8.83C310.26,153.72,308.12,147.28,306.5,140.78z M114.51,273.22c0.42-0.21,0.85-0.42,1.27-0.63
		c-1.25-3.12-2.26-6.37-3.8-9.34c-2.28-4.41-4.64-4.39-7.09-0.2c-0.56,0.96-0.97,2-1.36,2.82c-2.25-1.27-4.21-2.37-6.18-3.47
		c0.88,3.07,2.33,5.18,3.91,7.19c1.5,1.9,3.15,3.69,5.34,6.23c1.34-3.11,2.19-5.09,3.22-7.49
		C111.68,270.26,113.1,271.74,114.51,273.22z M419.71,187.9c-0.78-0.73-1.56-1.45-2.35-2.18c-6.75,4.08-13.7,7.87-20.16,12.36
		c-3.09,2.15-4.6,6.23-1.6,9.44c2.97,3.17,7.4,3.09,10.13-0.25C410.77,201.12,415.1,194.39,419.71,187.9z M141.06,296.69
		c0.12,0.73,0.25,1.46,0.37,2.19c2.24,1.23,4.34,2.91,6.74,3.59c5.43,1.54,10.96,3.32,16.52,3.59c3.83,0.18,7.33-2.75,6.81-7.42
		c-0.5-4.51-4.07-6.77-8.11-6.25C155.89,293.34,148.5,295.2,141.06,296.69z M187.28,413.71c8.79-3.45,16.66-5.77,22.33-11.86
		c1.58-1.7,2.42-5.93,1.4-7.81c-1.79-3.3-5.65-3.61-8.91-1.25c-2.07,1.5-4.2,3.22-5.59,5.31
		C193.47,402.68,190.87,407.56,187.28,413.71z M388.34,481.11c0.54,0.08,1.09,0.16,1.63,0.24c0.64-4.42,1.48-8.82,1.77-13.25
		c0.07-1.17-1.39-3.14-2.53-3.47c-1.09-0.32-2.92,0.73-3.97,1.69c-2.4,2.18-4.52,4.66-7.86,8.18c0.15-3.45,0.4-5.01,0.23-6.53
		c-0.12-1.05-0.81-2.05-1.24-3.06c-2.13,1.86-4.27,3.73-6.4,5.59c0.25,0.37,0.5,0.75,0.75,1.12c1.34-0.11,2.67-0.22,4.63-0.38
		c-3.99,7.75,3.22,10.52,4.49,15.76c0.61-0.27,1.22-0.54,1.83-0.81c-1.82-3.35-3.64-6.69-5.27-9.67c4.22-3.47,8.22-6.77,13.16-10.83
		C389.1,471.47,388.72,476.29,388.34,481.11z M285.03,118.71c-2.85-19.39-3.34-20.36-8.04-18.05c1.31,5.58,2.5,11,3.9,16.35
		c0.41,1.58,1.22,4,2.26,4.24c1.36,0.31,3.31-0.91,4.68-1.92c3.69-2.71,7.21-5.66,11.43-9.02
		C291.68,109.09,289.34,115.6,285.03,118.71z M302.21,455.26c0.67-0.08,1.33-0.15,2-0.23c1.94-5.8,4.42-11.48,5.68-17.42
		c1.25-5.93-2.1-10.23-6.96-10.51c-4.61-0.27-7.68,3.41-6.51,9.84C297.55,443.19,300.22,449.16,302.21,455.26z M409.56,456.54
		c1.4,1.5,2.95,3.15,4.51,4.81c-0.76-3.37-2.28-5.98-4.34-8.06c-1.05-1.06-3.68-2.11-4.54-1.55c-3.62,2.36-7.04,5.13-10.09,8.19
		c-1.13,1.14-1.36,3.47-1.36,5.26c0,0.55,2.68,1.86,3.18,1.5c1.49-1.06,2.73-2.66,3.64-4.28c1.52-2.69,2.7-5.56,4.03-8.35
		c0.83,0.3,1.67,0.6,2.5,0.9c-0.72,4.92-1.44,9.83-2.16,14.75c0.4,0.11,0.8,0.22,1.21,0.33
		C407.28,465.54,408.42,461.04,409.56,456.54z M417.87,411.17c0.45-0.5,0.89-1,1.34-1.5c-2.81-5.79-5.28-11.78-8.55-17.3
		c-1.93-3.26-5.71-5.01-9.3-2.55c-3.84,2.62-4.09,6.87-0.62,9.69C406.08,403.85,412.12,407.33,417.87,411.17z M333.6,494.5
		c-0.68-6.32-1.38-12.7-2.19-20.26c-3.32,2.18-6.1,4.61-9.32,6c-4.9,2.12-4.12,4.34-0.51,8.15c2.63-3.86,4.95-7.25,7.26-10.63
		C329.58,484.09,327.91,490.6,333.6,494.5z M116.44,236.82c0.78-0.08,1.57-0.16,2.35-0.24c1.05-6.73,2.2-13.44,3.04-20.2
		c0.12-0.96-1.11-2.74-2.02-2.98c-0.93-0.24-3.2,0.91-3.22,1.51C116.36,222.21,116.44,229.52,116.44,236.82z M496.3,233.98
		c-1.24,3.08-2.36,5.87-3.51,8.75c5.31,2.64,7.2-2.29,10.54-5.04c-2.65-3.28-4.93-6.33-7.52-9.08c-0.55-0.59-2.28-0.08-3.46-0.07
		c0.09,1.08-0.21,2.49,0.36,3.17C493.55,232.72,495.01,233.21,496.3,233.98z M276.42,121.59c0.4-0.44,0.8-0.88,1.19-1.32
		c-5.68-5.28-11.32-10.62-17.14-15.75c-0.49-0.44-2.21,0.51-3.36,0.81c0.66,1.03,1.09,2.41,2.03,3.01c2.94,1.91,6.07,3.52,9.12,5.25
		c-0.26,0.43-0.51,0.86-0.77,1.29c-1.66-0.22-3.33-0.44-4.99-0.66c-0.06,0.33-0.13,0.66-0.19,0.99c2.26,0.84,4.52,1.67,8.29,3.07
		c-2.55,1.47-4.12,2.38-5.69,3.29c0.33,0.34,0.66,0.69,1,1.03c2.11-1.34,4.22-2.69,6.25-3.97
		C273.72,119.72,275.07,120.66,276.42,121.59z M487.9,365.56c-0.61,7.48-1.17,14.23-1.78,21.71
		C493.59,383.86,494.09,373.37,487.9,365.56z M336.2,100.93c3.95,2.81,6.94,4.94,9.96,7.09c2.91-12.6,2.54-13.58-4.81-12.76
		c0.48,1.73,0.96,3.45,1.41,5.1C340.54,100.56,338.78,100.71,336.2,100.93z M455.28,421.28c0.94-3.94,1.79-7.51,2.54-10.68
		c1.31-0.11,2.69-0.23,4.08-0.34c0.28-0.54,0.57-1.08,0.85-1.61c-2.29-1.98-4.58-3.96-7.72-6.67c-0.75,11.27-0.33,13.97,2.86,23.61
		c0.23,0.7-0.56,1.73-0.88,2.61c0.36,0.14,0.72,0.28,1.08,0.42c0.75-1.58,1.49-3.15,2.26-4.77
		C458.12,422.71,456.58,421.93,455.28,421.28z M288.76,97.6c1.02,1.93,1.49,3.87,2.72,4.91c3.92,3.32,6.68-0.05,9.23-2.35
		c1.02-0.92,1.02-2.95,1.49-4.47c-2.17,0.96-4.33,1.93-6.51,2.87c-0.35,0.15-0.77,0.16-1.79,0.36c-0.77-1.17-1.74-2.66-2.98-4.56
		c-3.08,2.16-5.34,3.75-7.61,5.34c0.26,0.34,0.51,0.69,0.77,1.03C285.55,99.76,287.01,98.77,288.76,97.6z M342.76,484.08
		c2.44,1.46,4.26,2.56,5.15,3.09c0.83-3.78,1.51-6.88,2.13-9.69c-9.84,3.13-11.4,7.74-4.91,18.63
		C344.37,492.23,343.6,488.36,342.76,484.08z M333.94,118.82c4.28,3.84,7.12,3.83,12.21,0.24c2.79-1.97,4.8-4.17,2.15-8.13
		c-2.32,0.73-4.52,1.42-6.71,2.11c0.09,0.32,0.19,0.65,0.28,0.97c1.47-0.13,2.94-0.26,4.4-0.38c0.08,0.41,0.16,0.83,0.24,1.24
		C342.45,116.15,338.38,117.43,333.94,118.82z M359.02,485.44c0.91-3.29,1.95-6.46,2.59-9.7c0.29-1.48-0.21-3.12-0.35-4.68
		c-1.66,0.69-4.04,0.91-4.84,2.15C353.59,477.6,355.34,483,359.02,485.44z M208.37,469.94c2.41,0.91,5.05,1.91,7.7,2.91
		c0.26-0.44,0.52-0.88,0.79-1.32c-2.19-1.11-4.37-2.23-6.2-3.16c2.44-2.04,4.68-3.92,7.46-6.25c-3.34-1.72-5.64-2.9-8.28-4.26
		C209.38,461.63,208.93,465.33,208.37,469.94z M307.33,122.12c4.78-3.06,7.48-6.27,6.22-10.99c-0.46-1.72-2.73-3.85-4.42-4.09
		c-1.65-0.23-3.61,1.7-6.88,3.46c3.85,1.37,5.82,2.07,8.49,3.02C309.74,116.02,308.78,118.45,307.33,122.12z M121.97,273.42
		c-0.21-4.09,0.49-7.54-0.76-10.01c-1.15-2.29-4.39-3.53-6.71-5.23c-0.7,0.68-1.41,1.36-2.11,2.04
		C115.19,264.06,117.98,267.92,121.97,273.42z M330.51,498.09c-0.59-0.14-1.17-0.28-1.76-0.42c-1.4,0.98-2.76,2.72-4.2,2.8
		c-6.09,0.33-8.64,1.9-10,7.89c2.16-2.54,4.31-5.09,6.5-7.66c3.89,4.55,6.06,5.27,8.45,2.53
		C330.49,502.08,330.21,499.83,330.51,498.09z M499.34,223.92c0.37,0,0.75,0.01,1.12,0.01c-2.72-4.51-5.43-9.01-8.15-13.52
		c-0.73,0.11-1.45,0.23-2.18,0.34c0,1.93-0.81,4.59,0.16,5.65C492.9,219.28,496.27,221.46,499.34,223.92z M114.47,329.03
		c3.21-2.3,5.99-4.29,8.77-6.28c-0.25-0.33-0.5-0.66-0.76-0.99c-2.36,1.48-4.72,2.96-7.08,4.45c-1.37-1.29-2.64-2.48-3.28-3.08
		c-5.74,2.25-10.9,4.26-15.8,6.18c5.59,4.43,9.47-2.06,14.46-4.35C111.84,326.12,112.86,327.25,114.47,329.03z M137.64,398.83
		c1.44-1,2.64-1.83,3.84-2.66c-0.29-0.4-0.57-0.81-0.86-1.21c-1.94,1.19-3.89,2.38-7.33,4.49c2.65,1.23,4.08,1.89,5.5,2.55
		c-0.37,0.62-0.75,1.24-1.12,1.87c-2.83-0.81-5.67-1.61-8.5-2.42c-0.25,0.43-0.49,0.87-0.74,1.3c2.75,2.03,5.5,4.05,8.26,6.08
		c0.25-0.33,0.5-0.65,0.75-0.98c-0.57-0.66-1.14-1.32-1.81-2.1c1.83-1.06,3.56-2.06,6.25-3.62
		C140.13,400.76,139.05,399.93,137.64,398.83z M255.66,125.92c1.39-0.87,3.44-1.78,4.91-3.28c0.56-0.57,0.2-3.23-0.5-3.63
		c-2.59-1.48-5.48-2.41-9.38-4C252.68,119.4,253.85,121.95,255.66,125.92z M290.64,486.36c-3.65-2.37-10.5-2.13-12.82,1.4
		c-0.67,1.03-0.25,2.77-0.33,4.19c1.27-0.15,2.7,0.01,3.78-0.52C284.62,489.8,287.83,487.91,290.64,486.36z M404.05,147.2
		c1.25-3.03,2.3-6.16,3.79-9.07c1.44-2.82,3.32-5.42,5.01-8.12c-0.74-0.38-1.48-0.77-2.22-1.15
		C404.53,133.37,404.46,140.54,404.05,147.2z M474.58,196.3c0.81-1.8,1.84-4.11,2.87-6.42c-3.46-0.95-6.91-1.9-10.37-2.86
		c-0.03,0.45-0.07,0.91-0.1,1.36C469.21,190.71,471.44,193.03,474.58,196.3z M128.02,217.04c-5.66,5.15-5.96,11.02-1.12,14.98
		C127.32,226.4,127.67,221.72,128.02,217.04z M127.45,267.59c-0.74,0-1.47,0.01-2.21,0.01c-1.09,2.66-2.39,5.27-3.16,8.02
		c-0.28,0.98,0.73,2.33,1.16,3.51c1.17-0.48,3.23-0.8,3.34-1.45C127.16,274.36,127.22,270.96,127.45,267.59z M237.39,488.33
		c-0.04,0.62-0.08,1.24-0.12,1.86c6.04-1.37,12.27,3.7,18.22-0.98c-0.04-0.75-0.09-1.5-0.13-2.26
		C249.37,487.41,243.38,487.87,237.39,488.33z M159.62,163.09c0.58,0.16,1.15,0.33,1.73,0.49c1.72-5.43,3.44-10.86,5.15-16.29
		c-0.75-0.21-1.5-0.42-2.25-0.63C160.22,151.45,161.23,157.64,159.62,163.09z M148.91,392.56c0.51-0.1,1.03-0.2,1.54-0.29
		c-1.15-2.23-2.02-4.69-3.6-6.53c-0.47-0.55-3.04,0.43-4.51,1.05c-3.03,1.28-5.96,2.79-8.92,4.2c0.59,0.55,1.99,1.85,3.64,3.38
		c3.04-2.65,5.77-5.04,9.06-7.91C147.19,388.79,148.05,390.68,148.91,392.56z M137.4,175.51c-0.75,0.04-1.5,0.08-2.26,0.13
		c-0.38,1.84-1.63,4.82-0.97,5.33c2.18,1.68,5.06,2.48,7.66,3.61c0.39-0.63,0.78-1.26,1.17-1.89
		C141.15,180.29,139.27,177.9,137.4,175.51z M351.55,494.17c-3.95,2.92-7.13,5.27-10.8,7.98C349,504.5,351.53,502.62,351.55,494.17z
		 M418.01,149.44c0.59-3.28,1.05-5.87,1.86-10.4c-3.95,2.63-6.5,4.33-9.27,6.17c1.1,1.21,1.41,1.81,1.89,2.03
		C414.11,147.97,415.79,148.57,418.01,149.44z M274.14,96.15c-0.25-0.52-0.5-1.03-0.75-1.55c-6-0.45-9.5,2.21-9.7,8.34
		C267.49,100.47,270.81,98.31,274.14,96.15z M450.05,420.28c-5.23,6.78-5.08,7.36,2.82,11.87
		C451.87,427.93,451.1,424.7,450.05,420.28z M187.72,467.63c-0.25-7.54-2.82-8.68-11.36-5.69
		C180.07,463.79,183.57,465.55,187.72,467.63z M373.1,119.62c7.35-1.18,14.53-2.33,21.26-3.42
		C390.84,113.4,381.08,114.7,373.1,119.62z M421.66,139.38c0.35-0.32,0.71-0.63,1.06-0.95c-2.37-1.3-4.67-2.79-7.16-3.8
		c-0.91-0.37-2.46,0.13-3.38,0.74c-0.51,0.33-0.73,2.22-0.36,2.53c0.92,0.77,2.23,1.3,3.43,1.42
		C417.38,139.53,419.53,139.38,421.66,139.38z M286.71,480.25c-6-4.53-7.83-3.53-10.57,4.94
		C279.7,483.52,282.83,482.06,286.71,480.25z M220.78,478.03c3.86-4.22,4.9-12.3,2.04-17.64
		C222.12,466.39,221.43,472.35,220.78,478.03z M306.88,102.7c3.37-1.51,6.06-2.72,9.25-4.15C309.54,94.67,307.06,95.79,306.88,102.7
		z"/>
	<path class="st0" d="M442.51,234.59c-2.76-5.13-5.52-10.26-8.2-15.22c12.41,0.27,14.5,15.45,25.81,19.14
		c-6.12,6.83-3.48,14.05-2.22,21.01c1.04,5.71-1.52,8.94-5.18,11.22c-1.17-6.56-2.33-13.09-3.5-19.62
		c-0.75,0.01-1.49,0.03-2.24,0.04c-0.59,2.93-1.94,5.94-1.64,8.77c1.24,11.83-5.58,19.55-12.96,27.14c-2.78,2.86-5.4,5.86-8.5,9.22
		c5.3,5.7,10.31,11.35,15.6,16.72c3.92,3.98,6.39,7.8,5.95,14.09c-0.49,7.06,1.33,14.28,2.15,21.43c1.15,0.05,2.29,0.1,3.44,0.14
		c1.32-6.25,2.64-12.51,3.92-18.58c3.83,3.12,4.98,7.9,4.54,13.66c-0.43,5.65-0.09,11.36-0.09,15.37
		c-3.98,5.28-7.8,9.48-10.59,14.29c-2.98,5.14-6.41,8.37-11.68,7.54c2.9-6.8,5.84-13.69,8.77-20.58c-0.88-0.6-1.75-1.2-2.63-1.8
		c-4.82,5.11-9.59,10.26-14.49,15.29c-1.47,1.51-3.13,3.55-4.96,3.86c-9.07,1.55-18.2,2.87-27.36,3.71
		c-3.77,0.35-5.74,0.84-5.96,5.28c-0.32,6.58-1.48,13.12-2.41,19.66c-0.6,4.26-2.67,7.1-6.34,10.05
		c-5.67,4.58-9.84,11.03-14.03,17.23c9.1,0.99,13.28-4.28,17.11-12.84c1.03,3.59,2.67,6.11,1.99,7.51
		c-2.36,4.85-5.25,9.51-8.46,13.86c-2.33,3.16-5.5,5.7-7.69,7.92c-3.43,0.15-7.04-0.23-10.38,0.56c-9.55,2.26-17.83,0.04-21.46-5.34
		c6.27-1.85,12.93-3.82,19.59-5.79c0.05-0.67,0.11-1.34,0.16-2.01c-4.96-1.32-9.99-3.92-14.88-3.7
		c-14.62,0.66-24.33-8.7-35.32-15.61c-1.18-0.74-2.24-1.65-2.64-1.95c-8.33,6.79-16.17,13.51-24.43,19.69
		c-2.01,1.5-5.35,1.59-8.09,1.66c-7.64,0.21-15.28,0.07-23.07,0.9c5.81,4.68,9.57,12.68,19.15,9.56c-2.87,5.2-5.33,6.02-13.87,5.05
		c-6.4-0.73-12.81-1.42-18.16-2.02c-3.75-3.9-7-8.41-11.29-11.45c-5.22-3.7-5.85-8.17-5.03-13.79c4.03,6.53,10.09,8.61,16.95,9.12
		c0.44-0.47,0.89-0.93,1.33-1.4c-3.9-3.48-8.14-6.67-11.61-10.54c-2.78-3.1-5.75-6.75-6.69-10.63c-2.2-9.09-3.23-18.46-4.75-27.85
		c-4.55-0.66-8.93-1.06-13.2-1.98c-9.31-2-18.63-3.39-25.83-11.21c-3.64-3.95-9.73-5.63-14.72-8.34c-0.52,0.67-1.03,1.35-1.55,2.02
		c4.29,4.24,8.58,8.48,13.32,13.15c-2.05,2.75-5.67,2.28-8.9,0.03c-4.08-2.84-7.75-6.26-11.53-9.52c-2.38-2.05-4.64-4.25-7.66-7.03
		c5.68-8.19-5.55-19.44,3.63-28.51c2.04,6.53,3.91,12.49,5.78,18.46c0.52,0.12,1.04,0.25,1.56,0.37c1.89-6.05,3.79-12.1,5.68-18.15
		c1.33-4.26,1.99-8.9,4.13-12.71c3.72-6.62,8.51-12.62,12.49-19.11c0.86-1.4,0.87-4.17,0.04-5.6c-3.59-6.23-7.89-12.06-11.45-18.3
		c-3.38-5.94-7.18-11.6-5.56-19.45c0.88-4.27-1.15-9.14-1.87-13.73c-0.75-0.07-1.5-0.14-2.25-0.22c-2.37,7.28-4.74,14.57-7.02,21.54
		c-2.98-1.68-4.58-6.55-3.6-12.77c1.17-7.46,1.96-14.97,3.04-23.47c9.58,1,13.72-12.87,25.29-11.59c-3.48,4.52-6.68,8.66-9.87,12.81
		c0.4,0.34,0.81,0.68,1.21,1.01c0.65-0.39,1.46-0.63,1.91-1.18c11.27-13.76,27.22-14.68,43.07-15.28c4.87-0.19,6.36-1.84,7.24-6.39
		c1.78-9.19,4.21-18.28,6.76-27.3c0.6-2.11,2.8-3.75,4.23-5.63c3.76-4.94,7.49-9.9,11.24-14.85c-0.73-0.74-1.47-1.48-2.2-2.22
		c-5.2,3.81-10.39,7.61-15.79,11.56c-1.06-13.24,14.38-16.7,17.83-27.31c26.07,4.01,26.07,4.01,29.22,9.65
		c-3.14-0.34-5.79-0.87-8.45-0.84c-2.46,0.03-4.92,0.66-7.42,2.21c1.73,0.58,3.49,1.74,5.17,1.64
		c15.96-0.94,25.63,10.72,37.29,18.36c2.15,1.41,3.99,3.27,6.28,5.18c8.98-6.47,17.63-12.94,26.58-18.97
		c2.19-1.47,5.36-1.89,8.12-2.04c5.73-0.3,11.49-0.09,17.31-0.88c-4.36-5.73-9.11-9.7-16.81-6.75c5.05-5.5,10.86-6.45,17.48-4.93
		c4.61,1.05,9.31,1.66,13.96,2.57c0.86,0.17,2.01,0.63,2.38,1.31c3.28,5.93,6.56,11.88,9.5,17.98c0.82,1.71,0.51,3.95,0.85,7.26
		c-4.2-4.42-7.32-7.71-10.43-10.99c-0.8,0.42-1.6,0.84-2.4,1.26c13.52,13.82,14.92,31.41,16.39,49.49
		c8.9,0.52,17.21,1.14,25.53,1.45c6.11,0.22,11.47,0.82,15.62,6.61c3.43,4.78,8.5,8.38,12.85,12.51
		C441.29,235.37,441.9,234.98,442.51,234.59z M454.85,261.52c0-6.91,0-14.67,0-22.44c-3.93-4.28-8.29-9.05-12.65-13.81
		c-0.35,0.26-0.7,0.52-1.04,0.78c1.96,4.82,3.92,9.63,6.15,15.12c-2.07-0.98-4.37-1.56-6.01-2.92c-5.1-4.21-10.61-8.18-14.7-13.26
		c-4.11-5.1-8.94-5.83-14.7-6.07c-8.96-0.37-17.89-1.21-27.49-1.9c-0.25-19.01-4.51-36.22-15.14-51.49c-1.21-1.73-1.63-4-2.85-7.13
		c4.04,2.39,6.76,3.99,10.64,6.28c-2.75-5.2-4.76-9-6.76-12.8c-6.74-1.4-13.56-2.82-20.38-4.25c-0.15,0.62-0.31,1.25-0.46,1.87
		c4.4,2.4,8.81,4.8,13.85,7.55c-7.37,3.77-15.18,5.27-23.04,3.93c-4.35-0.74-7.21,0.25-10.4,2.62c-8.65,6.45-17.42,12.73-25.4,18.54
		c-9.92-6.93-19.14-13.68-28.72-19.85c-2.98-1.92-6.94-2.41-10.51-3.31c-5.96-1.49-11.98-2.78-17.97-4.15
		c0.12-0.64,0.23-1.27,0.35-1.91c5.59-1.07,11.17-2.15,18.12-3.48c-7.76-1.02-14.09-1.88-20.43-2.66c-0.73-0.09-1.78-0.01-2.23,0.45
		c-4.69,4.79-9.29,9.67-13.91,14.53c3-0.37,5.49-1.44,7.89-2.69c2.35-1.22,4.6-2.62,7.06-4.04c0.12,6.22-4.23,14.53-9.19,20.56
		c-3.44,4.19-6.53,9.02-8.35,14.08c-2.48,6.9-4.19,14.21-5.11,21.48c-0.68,5.41-2.69,6.79-7.93,6.95
		c-15.25,0.46-30.53,1.1-42.01,13.76c-2.55,2.81-6.73,4.13-10.15,6.14c-0.26-0.43-0.52-0.86-0.77-1.3c2.7-4.5,5.39-9.01,8.09-13.51
		c-3.06,1.4-5.11,4.29-7.74,5c-7.86,2.09-9.2,7.35-9.21,14.4c-0.01,5-1.42,9.99-2.21,14.99c0.38,0.1,0.75,0.21,1.13,0.31
		c2.56-6.08,5.11-12.17,8.11-19.3c5.28,7.95,6.58,15.91,6.07,24.44c-0.12,2.05,0,4.45,0.96,6.16c5.73,10.27,11.74,20.4,17.94,31.06
		c-1.25,1.64-3.34,3.85-4.83,6.42c-5.64,9.68-13.84,17.74-14.46,30.39c-0.35,7.11-5.29,14-8.16,21c-0.54-0.23-1.09-0.46-1.63-0.69
		c-1.67-5.35-3.33-10.7-5-16.05c-0.54,0.15-1.08,0.3-1.62,0.45c0.61,3.87,2.12,7.85,1.63,11.58c-0.81,6.15,1.04,10.48,5.74,14.19
		c4.54,3.58,8.82,7.49,13.22,11.25c0.18-0.29,0.36-0.58,0.53-0.86c-4.61-5.99-9.23-11.97-13.84-17.96c0.39-0.59,0.77-1.18,1.16-1.77
		c7.46,3.9,15.86,6.69,22.13,12c6.84,5.79,14.25,8.43,22.53,9.94c4.11,0.75,8.31,1.07,12.45,1.65c3.6,0.5,5.99,1.62,6.3,6.21
		c0.5,7.57,2.19,15.05,3.09,22.6c0.58,4.86,2.64,8.35,6.55,11.53c4.95,4.03,9.07,9.06,13.55,13.65c-0.49,0.82-0.98,1.63-1.46,2.45
		c-6.08-1.66-12.15-3.32-18.93-5.18c5.65,5.39,10.95,10.45,16.42,15.67c6.7,0.85,14.08,1.78,22.49,2.85
		c-6.25-4.89-11.31-8.84-16.93-13.23c9.36-3.83,18.2-5.06,27.17-2.99c4.25,0.98,7.3,0.1,10.41-2.6c7.5-6.52,15.13-12.89,23.03-19.59
		c1.89,1.41,4.18,3.35,6.69,4.93c9.38,5.88,17.88,13.22,30.16,13.31c5.74,0.04,11.51,2.88,17.17,4.76c1.59,0.53,2.81,2.15,4.01,3.12
		c-6.66,2.72-12.61,5.16-19.02,7.78c15.39,7.22,39.19-4.41,39.71-18.78c-7.58,7.68-11.69,9.5-18.33,8.09
		c1.29-8.3,7.31-16.88,14.98-22.24c1.9-1.33,3.81-3.7,4.23-5.88c1.51-7.84,2.56-15.78,3.41-23.73c0.37-3.5,1.02-5.2,5.24-5.32
		c6.95-0.18,13.87-1.99,20.82-2.12c7.83-0.14,12.9-3.61,17.17-9.86c3.88-5.66,9.72-9.1,17.01-11.5c-1.03,4.53-1.66,8.21-2.72,11.77
		c-1.05,3.49-2.53,6.85-4.25,11.39c5.03-6.53,10.68-11.57,13.27-17.87c2.58-6.28,2.08-13.82,2.93-20.81
		c-0.44-0.09-0.89-0.18-1.33-0.26c-2.05,4.54-4.1,9.09-6.55,14.52c-6.04-8.68-7.88-17.6-6.77-26.84c0.66-5.56-1.28-9.12-4.84-12.74
		c-5.87-5.96-11.5-12.15-17.33-18.36c5.57-6.22,11.33-11.86,16.07-18.24c2.69-3.63,4.23-8.35,5.38-12.82
		c1.68-6.52,2.54-13.25,3.74-19.89c0.65,0.05,1.31,0.11,1.96,0.16C450.48,251.32,452.89,256.93,454.85,261.52z"/>
	<path class="st0" d="M426.97,161.79c-2.94-2.39-5.77-4.95-8.87-7.12c-1.88-1.32-4.18-2.05-6.38-4.07c2.74,0.41,5.47,0.83,8.52,1.28
		c2.25-4.62,9.56-7.73,5.82-15.29c10.46-0.9,13.28,0.96,11.19,7.24c-2.6-1.47-5.21-2.94-7.36-4.15c-3.18,5.97-6.02,11.28-9.68,18.15
		c3.94,0,5.99-0.43,7.72,0.14c1.26,0.41,2.45,1.98,3.02,3.31c1.03,2.38,1.57,4.97,3.37,7.48c3.11-5.55,10.98-6.37,11.12-13.49
		c2.29,0.06,5.58-0.82,6.65,0.35c2.53,2.75,4.01,6.48,5.52,10.01c-11.05-9.06-11.6-6.19-21.81,5.06c2.56,2.25,5.38,4.26,7.55,6.82
		c1.55,1.83,2.24,4.39,3.55,7.11c1.98-2.38,5.52-3.32,2.74-7.65c-2.17-3.38,1.15-4.03,3.6-5.11c4.76-2.1,7.38,0.29,8.8,4.2
		c0.31,0.84-2.05,3.73-3.41,3.91c-3.83,0.5-6.8,1.12-9.17,4.91c-1.86,2.97-4.5,2.41-5.93-1.58c-0.72-2.01-2.92-3.48-4.45-5.2
		c-0.86-0.96-1.81-1.86-2.57-2.89c-1.48-2.03-2.87-4.11-4.25-6.21c-1.7-2.59-3.35-5.22-5.02-7.83
		C427.16,161.38,427.06,161.59,426.97,161.79z"/>
	<path class="st0" d="M122.09,256.16c-2.27-3.67-4.54-7.34-6.2-10.02c4.48-3.11,9.65-5.28,12.6-9.14c2.95-3.86,3.84-9.37,5.26-14.26
		c0.33-1.15-0.49-3.02-1.36-4.08c-4.19-5.04-4.06-7.66,1.31-12.86c1.53,1.02,3.13,2.09,5.23,3.5c0.75-1.79,1.46-3.48,2.2-5.23
		c-9.69-2.44-12.02-8.01-6.12-18.23c0.71,2.16,1.89,4.28,2.04,6.48c0.23,3.33,0.16,6.22,4.13,7.74c1.11,0.42,2.18,3.57,1.74,5.01
		c-2.97,9.84-6.06,19.68-9.75,29.27c-1.44,3.75-4.16,7.22-6.98,10.16c-1.94,2.03-3.6,3.31-2.4,6.44c0.55,1.43-0.04,3.29-0.11,4.96
		C123.15,255.99,122.62,256.08,122.09,256.16z"/>
	<path class="st0" d="M118.92,338.05c-5.88-2.88-4.34-5.06,0.58-6.72c-0.68,0.83-1.36,1.66-2.39,2.91c1.84,1.75,7.08,2.73,3.52,5.4
		c2.21,4.2,6.32,8.34,5.58,11.27c-2.13,8.47-10.53,5.05-17.55,6.16c5.23,2.99,9.88,4.96,13.56,8.08c1.5,1.27,0.88,5.02,1.38,8.83
		c3.59,1.95,11.91-8.02,15.06,3.49c-3.88,3.25-7.92,6.63-11.97,10.02c-0.81-0.79-1.61-1.59-2.42-2.38c3.89-2.62,7.78-5.24,13.5-9.09
		c-3.44-0.83-5.4-1.59-7.41-1.73c-3.58-0.26-7.2-0.35-10.77-0.1c-2,0.14-3.95,1.09-6.82,0.89c1.9-1.96,3.81-3.92,5.83-6.01
		c-2.95-0.39-5.61-0.73-8.26-1.08c0.01-0.48,0.02-0.97,0.03-1.45c2.08-0.34,4.16-0.68,6.24-1.02c0.11-0.46,0.23-0.93,0.34-1.39
		c-2.32-1.26-4.74-2.36-6.92-3.83c-1.12-0.76-1.79-2.16-2.67-3.27c1.29-0.69,2.53-1.81,3.89-1.99c2.56-0.34,5.34,0.39,7.74-0.32
		c1.99-0.59,4.94-2.55,4.99-3.99c0.07-2.11-1.6-4.95-3.41-6.24c-1.41-1.01-4.34-0.63-6.29,0.03c-2.89,0.98-5.51,2.75-8.62,3.39
		C109.88,344.77,114.08,341.65,118.92,338.05z"/>
	<path class="st0" d="M488.87,350.66c-1.06-2.49-2.26-5.3-3.46-8.11c0.31-0.16,0.63-0.33,0.94-0.49c2.23,3.24,4.45,6.48,6.22,9.05
		c-2.84,2.98-6.45,5.85-8.82,9.53c-2.45,3.8-3.68,8.39-5.62,13.06c6.56,4.33,2.07,8.12-1.19,11.47c-1.06,1.08-3.87,0.47-5.88,0.63
		c-0.16-0.57-0.32-1.15-0.48-1.72c-1.34,2.16-2.68,4.32-4.03,6.5c9.93,5.44,11.56,9.29,6.57,16.93c-1.36-1.95-2.74-3.49-3.62-5.28
		c-1.63-3.32-3.38-6.69-4.26-10.24c-0.45-1.81,0.35-4.42,1.49-6.04c5.7-8.15,11.53-16.1,14.93-25.66
		C482.93,356.74,486.32,353.96,488.87,350.66z"/>
	<path class="st0" d="M170.28,168.82c-2.26-3.37-3.97-5.93-5.68-8.48c0.64-0.65,1.27-1.3,1.91-1.95c2.18,1.6,4.51,3.03,6.5,4.83
		c3.65,3.31,5.49,3,7.27-1.62c1.7-4.42,2.98-8.56,9.69-6.77c3.03,0.81,4.03-2.58,2.38-5.43c-2.54-4.39-5.23-8.69-8.16-13.54
		c-1.78,2.55-3.65,5.21-5.63,8.05c0.26-5.91,8.14-14.7,13.95-15.81c-6.24,6.18-5.95,10.51,0.57,19.21c1.3,1.73,2.25,5.22,1.36,6.68
		c-0.99,1.63-4.35,1.71-6.53,2.77c-1.78,0.87-4.46,1.92-4.79,3.34c-1.21,5.25-4.56,6.82-9.24,8.63c-3.09,1.2-4.84,5.98-7.04,9.26
		c-1.39,2.08-2.51,4.35-3.74,6.53c-1.33-0.96-3.9-2.17-3.77-2.83c0.56-2.7,1.38-5.75,3.17-7.69
		C164.64,171.68,167.88,170.35,170.28,168.82z"/>
	<path class="st0" d="M494.52,245.57c5.75,1.45,11.46,9.75,11.69,16.68c-5.3-0.86-11.32-7.22-15.54,0.82
		c-2.02,3.86-1.81,8.26,3.19,10.93c3.7-3.36,7.66-4.72,13.67,0.15c-6.21,1.42-11.06,2.52-16.55,3.78c1.6,1.08,2.58,1.74,4.39,2.97
		c-2.49,1.39-4.26,2.37-6.62,3.69c0.41-3.76,0.74-6.66,1.17-10.57c-3.34-3.19-3.76-8.05-0.65-12.66c3.62-5.37,8.78-5.5,14.51-1.52
		c-1.97-6.5-6.68-9.01-10.66-6.54c-7.06,4.37-7.06,4.37-11.33-3.17c1.78,1.69,3.55,3.37,5.64,5.36
		C489.79,252.28,495.85,252.14,494.52,245.57z"/>
	<path class="st0" d="M494.51,290.12c1.16-1.94,2.32-3.88,3.89-6.5c0.89,1.2,1.43,2.39,2.35,3.04c1.65,1.18,3.43,2.33,5.34,2.93
		c1.24,0.39,2.79-0.23,4.2-0.4c-0.52,1.45-1.05,2.9-2,5.53c1.72,1.49,4.13,3.59,6.91,6.01c-1.01,0.54-1.94,1.02-2.86,1.52
		c-2.8,1.53-5.01,3.21-2.35,6.73c0.46,0.61,0.27,1.7,0.39,2.58c-1.07,0.12-2.62,0.77-3.13,0.29c-3.35-3.11-4.12,0.07-5.85,1.87
		c-0.82,0.85-3.94,1.05-4.02,0.82c-1.89-5.2-5.68-3.26-9.49-2.23c-0.27-2.89,0.42-6.85-0.91-7.72c-5.15-3.36-4.08-5.39,0.32-8.09
		c0.82-0.51,0.8-2.67,0.84-4.08c0.03-1.21-0.42-2.44-0.66-3.66c1.25,0.36,2.48,0.83,3.76,1.04c1.14,0.19,2.33,0.09,3.5,0.11
		c-1.25,1.18-2.59,2.27-3.72,3.56c-3.7,4.2-3.62,10.49,0.07,14.15c4.12,4.08,10.31,4.12,14.54,0.09c3.9-3.71,4.6-10.44,0.29-13.82
		C502.96,291.57,498.37,291.31,494.51,290.12z"/>
	<path class="st0" d="M159.62,195.48c-4.36-1.23-8.89-2.05-13-3.85c-2.66-1.16-4.22-3.94-1.49-6.82c2.73-2.88,1.73-5.16-0.5-7.8
		c-1.32-1.56-2.5-3.73-2.65-5.71c-0.27-3.8,2.14-4.93,5.49-3.56c3.15,1.29,6.01,10.48,3.79,13.07c-2.49,2.9-1.33,4.54,1,6.34
		c2.75,2.12,5.5,4.24,8.25,6.35C160.21,194.16,159.92,194.82,159.62,195.48z"/>
	<path class="st0" d="M433.59,427.74c-0.24,0.57-0.87,2.03-1.16,2.72c2.96,4.38,5.6,8.3,8.25,12.22c-0.34,0.22-0.69,0.45-1.03,0.67
		c-2.8-3.43-5.6-6.87-8.03-9.85c-5.36,3.07-9.77,5.59-13.93,7.98c2,5.06,4,10.11,6,15.16c-0.4,0.13-0.8,0.25-1.2,0.38
		c-2.44-4.54-5.09-9-7.16-13.71c-0.41-0.93,1.04-3.71,2.18-4.11c7.66-2.72,12.27-7.99,15.65-15.27c1.41-3.05,5.38-5.04,8.46-7.1
		c0.68-0.45,2.52,0.82,3.55,2.53c-1.04,0-2.09,0-2.5,0c-0.39,2.75-0.05,5.86-1.4,7.73C440.42,428.26,436.99,427.55,433.59,427.74z"
		/>
	<path class="st0" d="M402.45,127.19c-2.12,5.37-4.23,10.74-6.56,16.66c-3.24-1.81-5.73-3.38-8.37-4.64
		c-4.76-2.28-7.96-8.06-14.61-6.33c-0.96,0.25-2.66-1.03-3.55-2.02c-3.62-4-6.07-9.34-12.67-9.73c-0.67-0.04-1.15-3.44-1.71-5.29
		c0.81-0.26,1.61-0.51,2.42-0.77c0.73,1.71,1.45,3.41,2.36,5.55c7.66-1.33,3.57-7.81,6.22-11.88c0.29,2.54,0.89,5.08,0.81,7.61
		c-0.34,11.88,1.62,13.98,13.17,13.75c1.39-0.03,2.78,0.16,4.29,0.26c-0.21,7.34,6.34,7.52,10.35,10.48
		c2.19-5.08,4.25-9.86,6.3-14.65C401.42,126.53,401.93,126.86,402.45,127.19z"/>
	<path class="st0" d="M272.12,483.59c-1.38-0.81-2.76-1.61-4.68-2.73c-1.9,3.98-3.63,7.59-5.36,11.21c-0.45-0.11-0.9-0.23-1.35-0.34
		c1.03-2.96,2.07-5.92,3.03-8.67c-5.29-2.87-10.6-5.74-14.75-7.98c-2.82,1.79-4.9,3.1-6.98,4.42c-0.39-2.04-0.77-4.09-1.41-7.46
		c-1.7-0.71-4.75-1.99-7.19-3.02c-1.21,5.92-2.36,11.56-3.51,17.2c-0.41-0.1-0.83-0.2-1.24-0.3c0.69-5.92,1.38-11.84,2.23-19.1
		c4.69,1.49,10.22,3.03,15.59,5.03c3.15,1.17,5.92,3.36,9.05,4.58c3.6,1.39,7.42,2.2,11.13,3.29c2.13,0.62,4.25,1.29,6.37,1.94
		C272.76,482.29,272.44,482.94,272.12,483.59z"/>
	<path class="st0" d="M494.52,331.02c-1.41-3.76-2.83-7.52-4.24-11.29c0.53-0.3,1.06-0.59,1.6-0.89c2.21,2.63,4.43,5.26,7.18,8.53
		c0.33-2.52,0.3-4.4,0.94-6.03c0.25-0.65,2.56-1.34,2.93-0.98c2.8,2.71,5.44,5.61,7.89,8.64c0.28,0.35-1.11,2.79-1.38,2.73
		c-3.68-0.81-5.47,2.21-8.1,3.3c-1.49,0.62-4.61-2.68-7-4.22L494.52,331.02z"/>
	<path class="st0" d="M223.15,126.43c-0.65,1.79-0.8,4.14-2.05,5.27c-3.24,2.92-6.88,5.44-10.54,7.86
		c-3.54,2.34-6.02,0.76-7.61-2.73c-1.56-3.45-3.07-6.92-4.49-10.12c4.55-3.99,9.13-8.02,13.72-12.04c0.62,0.65,1.24,1.3,1.85,1.95
		c-2.96,3.62-5.74,7.41-8.95,10.8c-2.67,2.82-1.99,5.4-0.21,8.03c0.8,1.18,2.8,3.04,3.06,2.86c2.19-1.5,4.29-3.23,6.04-5.22
		c2.31-2.62,4.28-5.55,6.4-8.34C221.3,125.3,222.22,125.86,223.15,126.43z"/>
	<path class="st0" d="M179.52,438.05c1.26,0.38,2.99,0.38,3.7,1.22c2.99,3.6,5.8,6.55,11.29,6.49c4.24-0.05,7.03,2.79,4.63,7.7
		c9.1,1.31,9.43,2.37,6.3,10.87c-1.63,4.43-1.99,9.33-3.08,14.82c-2.19,0.12-6.3,0.96-7.55-5.64c2.44,0.28,4.04,0.47,5.55,0.64
		c1.33-5.93,2.59-11.54,3.96-17.66c-0.98-0.07-2.92,0.29-4.28-0.43c-1.24-0.66-1.95-2.44-2.73-3.82c-0.83-1.46-1.48-3.02-2.21-4.54
		c-1.59,0.93-3.48,1.57-4.69,2.85c-2.27,2.41-4.15,5.19-7.35,6.96c2.21-3.16,4.42-6.33,6-8.59c-3.46-3.98-6.3-7.26-9.15-10.54
		C179.9,438.39,179.52,438.05,179.52,438.05z"/>
	<path class="st0" d="M150.97,430.06c5.95,1.11,10.3-1.83,11.3-6.95c0.51-2.6-3.2-6.03-4.93-8.94c-7.99,3.54-11.31,2.71-14.79-3.07
		c2.27,1.18,4.34,2.96,6.57,3.19c1.9,0.19,3.98-1.4,6.57-2.44c11.01,9.17,12.63,7.69,3.28,20.73c1.9,2.35,3.95,4.89,6.33,7.84
		c-1.99,1.52-4.46,3.39-7.3,5.56C154.68,441.02,162.05,431.59,150.97,430.06z"/>
	<path class="st0" d="M241.27,102.4c0.56,5.45,1.04,9.6,1.39,13.76c0.17,1.98-0.67,4.6,0.32,5.81c1.52,1.84,4.55,3.01,1.1,5.19
		c-0.99,0.63-3.57-1.26-6.26-2.32c-8.57,3.43-8.57,3.43-10.82-6.78c-0.43-1.94-1.46-4.09-0.97-5.77c0.42-1.43,2.64-2.33,4.37-2.83
		c-6.01,5.13,1.4,10.65-0.15,16.27c3.18-1.16,6.36-2.32,9.88-3.61c0.4-3.68,0.8-7.4,1.25-11.54c-2.98,0-5.48,0-7.99,0
		c-0.21-0.49-0.41-0.97-0.62-1.46C235.09,107.29,237.39,105.47,241.27,102.4z"/>
	<path class="st0" d="M476.11,199.06c1.3,1.99,2.58,3.96,3.86,5.92c-0.34,0.25-0.68,0.5-1.03,0.76c-1.08-1.2-2.17-2.39-3.25-3.59
		c-7.24,5.93-7.35,8.55-1.13,14.8c2.36,2.38,4.31,5.17,6.46,7.78c7.81-6.02,9.51-6.23,13.92-0.45c-2.84,0.67-5.31,0.93-7.52,1.83
		c-7.48,3.01-9.93-2.71-13.87-7.01C465.85,210.68,466.03,206.37,476.11,199.06z"/>
	<path class="st0" d="M467.02,301.37c-7.84,1.48-15.64,3.45-23.55,4.23c-3.85,0.38-8.39-1.52-8.2-6.66
		c0.18-4.95,4.27-6.99,8.48-6.33c7.89,1.23,15.65,3.37,23.46,5.13C467.14,298.94,467.08,300.15,467.02,301.37z M462.67,300.38
		c-0.02-0.76-0.04-1.51-0.05-2.27c-6.21-1.13-12.38-2.73-18.63-3.11c-2.02-0.12-4.24,2.95-6.36,4.56c2.18,1.34,4.45,3.93,6.53,3.79
		C450.36,302.93,456.5,301.45,462.67,300.38z"/>
	<path class="st0" d="M191.74,186.05c6.19,3.87,12.53,7.53,18.52,11.7c3.16,2.2,4.85,5.55,1.94,9.27c-2.8,3.57-6.51,3.08-9.62,0.88
		c-7.13-5.06-10.1-12.6-12.44-20.38C190.66,187.03,191.2,186.54,191.74,186.05z M195.25,190.35c-0.7,0.78-1.4,1.56-2.1,2.34
		c3.7,4.48,7.19,9.16,11.25,13.27c0.89,0.9,3.82-0.22,5.81-0.41c-0.29-1.96,0.14-4.81-0.98-5.71
		C204.84,196.35,199.96,193.47,195.25,190.35z"/>
	<path class="st0" d="M306.5,140.78c1.61,6.51,3.75,12.95,4.59,19.55c0.36,2.83-1.5,6.4-3.39,8.83c-0.79,1.02-5.42,0.8-6.3-0.36
		c-1.84-2.43-3.67-6.11-3.16-8.84c1.23-6.54,3.83-12.83,5.87-19.22C304.91,140.75,305.71,140.77,306.5,140.78z M305.89,146.34
		c-0.65,0.03-1.3,0.05-1.96,0.08c-1.16,5.24-2.82,10.45-3.23,15.75c-0.15,1.88,2.72,3.99,4.21,5.99c1.37-1.89,3.99-3.87,3.86-5.65
		C308.38,157.08,306.93,151.72,305.89,146.34z"/>
	<path class="st0" d="M114.51,273.22c-1.42-1.48-2.83-2.96-4.68-4.9c-1.03,2.4-1.89,4.38-3.22,7.49c-2.19-2.54-3.84-4.33-5.34-6.23
		c-1.58-2.01-3.03-4.12-3.91-7.19c1.96,1.1,3.92,2.21,6.18,3.47c0.39-0.82,0.8-1.86,1.36-2.82c2.45-4.19,4.81-4.21,7.09,0.2
		c1.54,2.97,2.55,6.22,3.8,9.34C115.36,272.8,114.94,273.01,114.51,273.22z"/>
	<path class="st0" d="M494.33,330.8c1.64,4.64-0.96,7-5.3,9.42c-1.56-3.69-2.96-7.02-4.61-10.93c-0.64,2.81-1.12,4.93-1.6,7.05
		c-5.42-5.44,0.24-9.54,0.07-14.69c2.35,0.74,3.89,1.23,5.71,1.81c-0.94,4.65,0.31,7.86,5.92,7.57
		C494.52,331.02,494.33,330.8,494.33,330.8z"/>
	<path class="st0" d="M419.71,187.9c-4.62,6.49-8.94,13.22-13.97,19.38c-2.73,3.34-7.17,3.42-10.13,0.25c-3-3.21-1.49-7.29,1.6-9.44
		c6.46-4.5,13.41-8.29,20.16-12.36C418.15,186.45,418.93,187.18,419.71,187.9z M414.86,191.36c-0.44-0.44-0.88-0.88-1.33-1.32
		c-4.78,3.02-9.86,5.68-14.18,9.25c-1.53,1.26-1.22,4.74-1.75,7.2c2.53-0.44,6.04,0.01,7.41-1.49
		C408.76,200.9,411.63,195.97,414.86,191.36z"/>
	<path class="st0" d="M141.06,296.69c7.44-1.49,14.82-3.35,22.33-4.31c4.04-0.52,7.61,1.74,8.11,6.25c0.51,4.67-2.98,7.6-6.81,7.42
		c-5.56-0.26-11.09-2.05-16.52-3.59c-2.39-0.68-4.5-2.36-6.74-3.59C141.31,298.15,141.18,297.42,141.06,296.69z M146.28,297.52
		c-0.08,0.74-0.16,1.48-0.25,2.23c5.22,1.57,10.37,3.67,15.71,4.51c3.26,0.51,7.59-1.05,6.88-5.33c-0.32-1.94-4.46-4.69-6.75-4.58
		C156.64,294.59,151.47,296.37,146.28,297.52z"/>
	<path class="st0" d="M187.28,413.71c3.59-6.14,6.19-11.02,9.24-15.61c1.39-2.09,3.52-3.81,5.59-5.31c3.26-2.36,7.12-2.05,8.91,1.25
		c1.02,1.88,0.18,6.11-1.4,7.81C203.94,407.94,196.07,410.26,187.28,413.71z M193.15,407.32c0.56,0.57,1.11,1.14,1.67,1.71
		c3.99-2.46,8.27-4.58,11.83-7.56c1.47-1.23,1.39-4.3,2.01-6.53c-2.27,0.27-5.39-0.31-6.66,0.96
		C198.63,399.29,196.05,403.47,193.15,407.32z"/>
	<path class="st0" d="M388.34,481.11c0.38-4.82,0.77-9.64,1.23-15.46c-4.94,4.07-8.94,7.36-13.16,10.83
		c1.62,2.98,3.44,6.33,5.27,9.67c-0.61,0.27-1.22,0.54-1.83,0.81c-1.27-5.23-8.49-8-4.49-15.76c-1.96,0.16-3.3,0.27-4.63,0.38
		c-0.25-0.37-0.5-0.75-0.75-1.12c2.13-1.86,4.27-3.73,6.4-5.59c0.43,1.02,1.12,2.01,1.24,3.06c0.17,1.52-0.08,3.08-0.23,6.53
		c3.34-3.52,5.46-6,7.86-8.18c1.05-0.95,2.88-2,3.97-1.69c1.13,0.33,2.6,2.31,2.53,3.47c-0.28,4.44-1.13,8.84-1.77,13.25
		C389.43,481.27,388.88,481.19,388.34,481.11z"/>
	<path class="st0" d="M285.03,118.71c4.3-3.1,6.65-9.62,14.23-8.39c-4.22,3.35-7.74,6.3-11.43,9.02c-1.37,1.01-3.33,2.23-4.68,1.92
		c-1.04-0.24-1.84-2.66-2.26-4.24c-1.4-5.36-2.59-10.77-3.9-16.35C281.69,98.35,282.18,99.32,285.03,118.71z"/>
	<path class="st0" d="M302.21,455.26c-1.99-6.1-4.66-12.07-5.79-18.32c-1.16-6.43,1.91-10.11,6.51-9.84
		c4.85,0.28,8.21,4.58,6.96,10.51c-1.26,5.94-3.74,11.62-5.68,17.42C303.54,455.11,302.87,455.18,302.21,455.26z M302.46,449.19
		c0.5-0.01,1-0.01,1.5-0.02c1.2-3.9,2.95-7.73,3.39-11.71c0.26-2.33-1.28-5.07-2.62-7.25c-0.47-0.76-3.88-0.87-4.04-0.49
		c-1.01,2.47-2.34,5.28-1.97,7.74C299.33,441.46,301.15,445.29,302.46,449.19z"/>
	<path class="st0" d="M409.56,456.54c-1.14,4.5-2.28,9-3.42,13.5c-0.4-0.11-0.8-0.22-1.21-0.33c0.72-4.92,1.44-9.83,2.16-14.75
		c-0.83-0.3-1.67-0.6-2.5-0.9c-1.33,2.79-2.51,5.66-4.03,8.35c-0.92,1.62-2.16,3.22-3.64,4.28c-0.5,0.36-3.18-0.95-3.18-1.5
		c0-1.79,0.22-4.13,1.36-5.26c3.05-3.06,6.48-5.82,10.09-8.19c0.86-0.56,3.49,0.49,4.54,1.55c2.06,2.08,3.58,4.68,4.34,8.06
		C412.52,459.7,410.97,458.04,409.56,456.54z"/>
	<path class="st0" d="M417.87,411.17c-5.74-3.84-11.78-7.32-17.12-11.66c-3.47-2.82-3.22-7.07,0.62-9.69
		c3.6-2.46,7.37-0.72,9.3,2.55c3.27,5.52,5.74,11.51,8.55,17.3C418.76,410.17,418.31,410.67,417.87,411.17z M413.14,406.43
		c0.57-0.51,1.13-1.02,1.7-1.53c-2.37-4.02-4.48-8.24-7.3-11.92c-0.75-0.98-3.68-0.3-5.61-0.38c0.05,1.77-0.62,4.3,0.29,5.17
		C405.58,400.95,409.46,403.58,413.14,406.43z"/>
	<path class="st0" d="M116.07,308.48c-1.54,1.12-3.1,2.21-4.6,3.39c-0.59,0.46-1.14,1.04-1.51,1.68c-0.71,1.25-1.27,2.58-1.89,3.87
		c-0.71-1.58-1.41-3.16-2.62-5.88c-1.26,0.06-3.83,0.41-6.36,0.19c-0.85-0.07-2.01-1.46-2.29-2.45c-0.92-3.3-1.5-6.7-2.96-10.01
		c1.59-2.55,6.56-4.21,3.45-9.38c1.01-0.56,2.06-1.65,3-1.56c1.21,0.12,2.33,1.19,3.49,1.86l-0.09-0.13
		c-1.06,1.11-2.27,2.12-3.15,3.36c-2.71,3.83-4.28,8.5-1.02,12.11c2.34,2.6,6.57,3.87,10.2,4.78c1.7,0.43,3.97-1.4,5.99-2.21
		C115.7,308.09,116.07,308.48,116.07,308.48z"/>
	<path class="st0" d="M333.6,494.5c-5.69-3.9-4.03-10.41-4.77-16.74c-2.31,3.39-4.62,6.77-7.26,10.63c-3.61-3.82-4.4-6.04,0.51-8.15
		c3.23-1.39,6.01-3.82,9.32-6C332.23,481.79,332.92,488.18,333.6,494.5z"/>
	<path class="st0" d="M116.44,236.82c0-7.3-0.08-14.61,0.15-21.9c0.02-0.6,2.3-1.75,3.22-1.51c0.91,0.24,2.13,2.02,2.02,2.98
		c-0.84,6.75-1.99,13.47-3.04,20.2C118,236.66,117.22,236.74,116.44,236.82z"/>
	<path class="st0" d="M496.3,233.98c-1.29-0.77-2.75-1.27-3.6-2.27c-0.57-0.68-0.27-2.09-0.36-3.17c1.19-0.01,2.91-0.52,3.46,0.07
		c2.59,2.75,4.87,5.81,7.52,9.08c-3.34,2.75-5.23,7.68-10.54,5.04C493.94,239.85,495.06,237.07,496.3,233.98z"/>
	<path class="st0" d="M276.42,121.59c-1.35-0.94-2.7-1.88-4.26-2.96c-2.02,1.29-4.13,2.63-6.25,3.97c-0.33-0.34-0.66-0.69-1-1.03
		c1.57-0.91,3.15-1.82,5.69-3.29c-3.77-1.4-6.03-2.23-8.29-3.07c0.06-0.33,0.13-0.66,0.19-0.99c1.66,0.22,3.33,0.44,4.99,0.66
		c0.26-0.43,0.51-0.86,0.77-1.29c-3.05-1.73-6.18-3.34-9.12-5.25c-0.94-0.61-1.37-1.99-2.03-3.01c1.15-0.3,2.86-1.25,3.36-0.81
		c5.82,5.13,11.46,10.47,17.14,15.75C277.22,120.72,276.82,121.16,276.42,121.59z"/>
	<path class="st0" d="M487.9,365.56c6.19,7.81,5.69,18.3-1.78,21.71C486.73,379.79,487.29,373.04,487.9,365.56z"/>
	<path class="st0" d="M336.2,100.93c2.58-0.22,4.34-0.38,6.57-0.57c-0.46-1.64-0.94-3.37-1.41-5.1c7.35-0.82,7.73,0.16,4.81,12.76
		C343.15,105.87,340.15,103.74,336.2,100.93z"/>
	<path class="st0" d="M455.28,421.28c1.31,0.66,2.85,1.43,5.08,2.55c-0.77,1.62-1.52,3.2-2.26,4.77c-0.36-0.14-0.72-0.28-1.08-0.42
		c0.32-0.88,1.11-1.91,0.88-2.61c-3.2-9.64-3.61-12.35-2.86-23.61c3.14,2.72,5.43,4.7,7.72,6.67c-0.28,0.54-0.57,1.08-0.85,1.61
		c-1.39,0.12-2.77,0.23-4.08,0.34C457.06,413.76,456.21,417.34,455.28,421.28z"/>
	<path class="st0" d="M103.77,290.19c0.12-1.8,4.87-0.71,2.63-4.14c-0.07-0.1,1.44-1.63,2.36-1.84c0.56-0.13,1.74,0.86,2.06,1.6
		c1.87,4.28,1.8,4.19,7,3.27c0.81-0.14,1.91,1.32,2.87,2.03c-3.58,3.55,0.09,7.8-1.11,11.49c-0.69,2.11-2.31,3.93-3.51,5.87
		c0,0-0.37-0.38-0.37-0.38c3.62-8.22,3.13-13.12-2.38-15.95c-2.82-1.45-6.39-1.43-9.62-2.08L103.77,290.19z"/>
	<path class="st0" d="M288.76,97.6c-1.75,1.17-3.22,2.16-4.68,3.14c-0.26-0.34-0.51-0.69-0.77-1.03c2.26-1.59,4.53-3.18,7.61-5.34
		c1.24,1.9,2.21,3.39,2.98,4.56c1.03-0.2,1.44-0.21,1.79-0.36c2.18-0.94,4.34-1.91,6.51-2.87c-0.47,1.52-0.47,3.56-1.49,4.47
		c-2.55,2.3-5.31,5.67-9.23,2.35C290.25,101.47,289.79,99.52,288.76,97.6z"/>
	<path class="st0" d="M342.76,484.08c0.84,4.28,1.6,8.16,2.37,12.04c-6.48-10.89-4.93-15.51,4.91-18.63
		c-0.62,2.8-1.3,5.91-2.13,9.69C347.02,486.63,345.2,485.54,342.76,484.08z"/>
	<path class="st0" d="M333.94,118.82c4.43-1.39,8.51-2.67,12.58-3.95c-0.08-0.41-0.16-0.83-0.24-1.24c-1.47,0.13-2.94,0.26-4.4,0.38
		c-0.09-0.32-0.19-0.65-0.28-0.97c2.19-0.69,4.39-1.38,6.71-2.11c2.66,3.96,0.64,6.16-2.15,8.13
		C341.06,122.65,338.22,122.66,333.94,118.82z"/>
	<path class="st0" d="M359.02,485.44c-3.68-2.45-5.43-7.84-2.59-12.24c0.8-1.24,3.18-1.46,4.84-2.15c0.14,1.57,0.64,3.2,0.35,4.68
		C360.97,478.98,359.92,482.15,359.02,485.44z"/>
	<path class="st0" d="M208.37,469.94c0.56-4.61,1.01-8.32,1.46-12.09c2.64,1.36,4.94,2.54,8.28,4.26c-2.78,2.33-5.02,4.21-7.46,6.25
		c1.83,0.93,4.02,2.04,6.2,3.16c-0.26,0.44-0.52,0.88-0.79,1.32C213.42,471.85,210.78,470.85,208.37,469.94z"/>
	<path class="st0" d="M307.33,122.12c1.46-3.67,2.42-6.1,3.41-8.6c-2.67-0.95-4.63-1.65-8.49-3.02c3.26-1.76,5.22-3.69,6.88-3.46
		c1.69,0.24,3.96,2.37,4.42,4.09C314.8,115.85,312.1,119.06,307.33,122.12z"/>
	<path class="st0" d="M179.9,438.39c-2.04,2.56-4.07,5.12-6.55,8.23c-0.15-0.24,0.78,0.59,0.73,1.36c-0.08,1.37-0.44,2.96-1.28,3.96
		c-0.47,0.56-2.67,0.57-3.14,0.02c-0.88-1.04-1.9-3.38-1.42-3.93c2.42-2.77,5.27-5.18,8.04-7.64c0.99-0.89,2.16-1.58,3.25-2.35
		C179.52,438.05,179.9,438.39,179.9,438.39z"/>
	<path class="st0" d="M121.97,273.42c-3.99-5.5-6.79-9.35-9.58-13.21c0.7-0.68,1.41-1.36,2.11-2.04c2.32,1.7,5.56,2.94,6.71,5.23
		C122.46,265.88,121.77,269.33,121.97,273.42z"/>
	<path class="st0" d="M330.51,498.09c-0.3,1.74-0.02,3.99-1.02,5.13c-2.39,2.74-4.56,2.02-8.45-2.53c-2.18,2.58-4.34,5.12-6.5,7.66
		c1.36-5.99,3.91-7.56,10-7.89c1.45-0.08,2.81-1.82,4.2-2.8C329.34,497.81,329.92,497.95,330.51,498.09z"/>
	<path class="st0" d="M499.34,223.92c-3.07-2.46-6.44-4.65-9.05-7.51c-0.96-1.05-0.16-3.72-0.16-5.65c0.73-0.11,1.45-0.23,2.18-0.34
		c2.72,4.51,5.43,9.01,8.15,13.52C500.08,223.93,499.71,223.92,499.34,223.92z"/>
	<path class="st0" d="M114.47,329.03c-1.61-1.78-2.64-2.91-3.69-4.07c-4.99,2.29-8.87,8.78-14.46,4.35
		c4.9-1.92,10.06-3.93,15.8-6.18c0.65,0.61,1.91,1.79,3.28,3.08c2.37-1.49,4.73-2.97,7.08-4.45c0.25,0.33,0.5,0.66,0.76,0.99
		C120.46,324.74,117.68,326.73,114.47,329.03z"/>
	<path class="st0" d="M137.64,398.83c1.41,1.09,2.49,1.93,4.25,3.29c-2.69,1.56-4.42,2.56-6.25,3.62c0.67,0.78,1.24,1.44,1.81,2.1
		c-0.25,0.33-0.5,0.65-0.75,0.98c-2.75-2.03-5.5-4.05-8.26-6.08c0.25-0.43,0.49-0.87,0.74-1.3c2.83,0.81,5.67,1.61,8.5,2.42
		c0.37-0.62,0.75-1.24,1.12-1.87c-1.42-0.66-2.85-1.32-5.5-2.55c3.44-2.11,5.38-3.3,7.33-4.49c0.29,0.4,0.57,0.81,0.86,1.21
		C140.27,397,139.07,397.84,137.64,398.83z"/>
	<path class="st0" d="M255.66,125.92c-1.81-3.96-2.97-6.52-4.97-10.91c3.9,1.59,6.8,2.52,9.38,4c0.7,0.4,1.06,3.06,0.5,3.63
		C259.1,124.13,257.04,125.05,255.66,125.92z"/>
	<path class="st0" d="M290.64,486.36c-2.81,1.54-6.02,3.44-9.37,5.07c-1.09,0.53-2.51,0.36-3.78,0.52c0.08-1.42-0.34-3.16,0.33-4.19
		C280.14,484.23,286.99,483.99,290.64,486.36z"/>
	<path class="st0" d="M404.05,147.2c0.41-6.65,0.48-13.82,6.58-18.33c0.74,0.38,1.48,0.77,2.22,1.15c-1.69,2.7-3.57,5.3-5.01,8.12
		C406.36,141.04,405.3,144.16,404.05,147.2z"/>
	<path class="st0" d="M474.58,196.3c-3.14-3.27-5.37-5.59-7.6-7.91c0.03-0.45,0.07-0.91,0.1-1.36c3.46,0.95,6.91,1.9,10.37,2.86
		C476.42,192.19,475.39,194.5,474.58,196.3z"/>
	<path class="st0" d="M128.02,217.04c-0.35,4.68-0.7,9.36-1.12,14.98C122.06,228.07,122.36,222.19,128.02,217.04z"/>
	<path class="st0" d="M127.45,267.59c-0.24,3.37-0.3,6.77-0.87,10.09c-0.11,0.65-2.18,0.98-3.34,1.45
		c-0.42-1.18-1.43-2.52-1.16-3.51c0.77-2.75,2.07-5.36,3.16-8.02C125.98,267.6,126.72,267.6,127.45,267.59z"/>
	<path class="st0" d="M237.39,488.33c5.99-0.46,11.98-0.92,17.97-1.38c0.04,0.75,0.09,1.5,0.13,2.26
		c-5.94,4.68-12.17-0.39-18.22,0.98C237.31,489.57,237.35,488.95,237.39,488.33z"/>
	<path class="st0" d="M159.62,163.09c1.62-5.46,0.6-11.65,4.63-16.43c0.75,0.21,1.5,0.42,2.25,0.63
		c-1.72,5.43-3.44,10.86-5.15,16.29C160.77,163.42,160.19,163.26,159.62,163.09z"/>
	<path class="st0" d="M148.91,392.56c-0.86-1.88-1.72-3.76-2.79-6.1c-3.29,2.88-6.03,5.26-9.06,7.91c-1.65-1.53-3.05-2.84-3.64-3.38
		c2.97-1.41,5.9-2.92,8.92-4.2c1.46-0.62,4.03-1.6,4.51-1.05c1.59,1.85,2.46,4.31,3.6,6.53
		C149.94,392.36,149.43,392.46,148.91,392.56z"/>
	<path class="st0" d="M137.4,175.51c1.87,2.39,3.74,4.78,5.61,7.17c-0.39,0.63-0.78,1.26-1.17,1.89c-2.61-1.14-5.48-1.93-7.66-3.61
		c-0.66-0.51,0.59-3.48,0.97-5.33C135.9,175.59,136.65,175.55,137.4,175.51z"/>
	<path class="st0" d="M351.55,494.17c-0.03,8.44-2.55,10.32-10.8,7.98C344.43,499.44,347.61,497.09,351.55,494.17z"/>
	<path class="st0" d="M418.01,149.44c-2.23-0.87-3.9-1.47-5.51-2.2c-0.48-0.22-0.79-0.83-1.89-2.03c2.77-1.84,5.32-3.54,9.27-6.17
		C419.06,143.57,418.6,146.16,418.01,149.44z"/>
	<path class="st0" d="M274.14,96.15c-3.32,2.16-6.65,4.32-10.45,6.79c0.2-6.13,3.7-8.79,9.7-8.34
		C273.64,95.12,273.89,95.64,274.14,96.15z"/>
	<path class="st0" d="M450.05,420.28c1.05,4.41,1.82,7.65,2.82,11.87C444.98,427.65,444.82,427.06,450.05,420.28z"/>
	<path class="st0" d="M187.72,467.63c-4.15-2.08-7.65-3.84-11.36-5.69C184.91,458.95,187.48,460.09,187.72,467.63z"/>
	<path class="st0" d="M373.1,119.62c7.98-4.92,17.74-6.22,21.26-3.42C387.63,117.28,380.45,118.44,373.1,119.62z"/>
	<path class="st0" d="M421.66,139.38c-2.13,0-4.28,0.16-6.4-0.06c-1.21-0.12-2.52-0.66-3.43-1.42c-0.38-0.31-0.15-2.2,0.36-2.53
		c0.92-0.61,2.47-1.11,3.38-0.74c2.49,1.01,4.79,2.5,7.16,3.8C422.37,138.74,422.02,139.06,421.66,139.38z"/>
	<path class="st0" d="M286.71,480.25c-3.88,1.81-7.01,3.27-10.57,4.94C278.88,476.72,280.71,475.72,286.71,480.25z"/>
	<path class="st0" d="M220.78,478.03c0.66-5.69,1.34-11.64,2.04-17.64C225.68,465.73,224.64,473.82,220.78,478.03z"/>
	<path class="st0" d="M306.88,102.7c0.19-6.91,2.66-8.03,9.25-4.15C312.93,99.98,310.24,101.19,306.88,102.7z"/>
	<path d="M454.85,261.52c-1.96-4.59-4.37-10.2-6.77-15.81c-0.65-0.05-1.31-0.11-1.96-0.16c-1.21,6.64-2.07,13.37-3.74,19.89
		c-1.15,4.46-2.69,9.19-5.38,12.82c-4.74,6.39-10.5,12.03-16.07,18.24c5.83,6.21,11.46,12.4,17.33,18.36
		c3.56,3.62,5.51,7.18,4.84,12.74c-1.11,9.24,0.73,18.16,6.77,26.84c2.45-5.43,4.5-9.97,6.55-14.52c0.44,0.09,0.89,0.18,1.33,0.26
		c-0.85,6.99-0.35,14.52-2.93,20.81c-2.58,6.29-8.23,11.33-13.27,17.87c1.72-4.54,3.2-7.9,4.25-11.39c1.06-3.55,1.7-7.24,2.72-11.77
		c-7.3,2.4-13.14,5.84-17.01,11.5c-4.27,6.24-9.34,9.71-17.17,9.86c-6.95,0.13-13.86,1.94-20.82,2.12
		c-4.23,0.11-4.87,1.81-5.24,5.32c-0.85,7.94-1.9,15.89-3.41,23.73c-0.42,2.18-2.33,4.55-4.23,5.88
		c-7.68,5.36-13.7,13.95-14.98,22.24c6.63,1.41,10.74-0.41,18.33-8.09c-0.51,14.37-24.32,26-39.71,18.78
		c6.4-2.62,12.35-5.05,19.02-7.78c-1.2-0.97-2.42-2.6-4.01-3.12c-5.66-1.88-11.43-4.72-17.17-4.76
		c-12.28-0.09-20.78-7.43-30.16-13.31c-2.52-1.58-4.8-3.53-6.69-4.93c-7.9,6.71-15.53,13.07-23.03,19.59
		c-3.11,2.7-6.15,3.58-10.41,2.6c-8.97-2.07-17.8-0.84-27.17,2.99c5.61,4.39,10.68,8.35,16.93,13.23c-8.41-1.06-15.8-2-22.49-2.85
		c-5.47-5.22-10.77-10.28-16.42-15.67c6.78,1.85,12.85,3.52,18.93,5.18c0.49-0.82,0.98-1.63,1.46-2.45
		c-4.48-4.6-8.61-9.63-13.55-13.65c-3.9-3.18-5.96-6.67-6.55-11.53c-0.9-7.55-2.59-15.03-3.09-22.6c-0.3-4.59-2.69-5.71-6.3-6.21
		c-4.15-0.58-8.34-0.91-12.45-1.65c-8.28-1.5-15.69-4.15-22.53-9.94c-6.27-5.3-14.67-8.1-22.13-12c-0.39,0.59-0.77,1.18-1.16,1.77
		c4.61,5.99,9.23,11.97,13.84,17.96c-0.18,0.29-0.36,0.58-0.53,0.86c-4.4-3.76-8.68-7.67-13.22-11.25
		c-4.7-3.71-6.55-8.04-5.74-14.19c0.49-3.72-1.02-7.71-1.63-11.58c0.54-0.15,1.08-0.3,1.62-0.45c1.67,5.35,3.33,10.7,5,16.05
		c0.54,0.23,1.09,0.46,1.63,0.69c2.87-6.99,7.81-13.88,8.16-21c0.62-12.65,8.81-20.71,14.46-30.39c1.49-2.56,3.58-4.78,4.83-6.42
		c-6.2-10.67-12.21-20.79-17.94-31.06c-0.96-1.71-1.08-4.11-0.96-6.16c0.51-8.53-0.79-16.49-6.07-24.44
		c-3,7.14-5.56,13.22-8.11,19.3c-0.38-0.1-0.75-0.21-1.13-0.31c0.79-5,2.19-9.99,2.21-14.99c0.02-7.05,1.36-12.31,9.21-14.4
		c2.64-0.7,4.68-3.6,7.74-5c-2.7,4.5-5.39,9.01-8.09,13.51c0.26,0.43,0.52,0.86,0.77,1.3c3.43-2.01,7.61-3.34,10.15-6.14
		c11.48-12.65,26.76-13.29,42.01-13.76c5.24-0.16,7.25-1.53,7.93-6.95c0.92-7.28,2.63-14.59,5.11-21.48
		c1.82-5.06,4.91-9.89,8.35-14.08c4.96-6.03,9.31-14.34,9.19-20.56c-2.46,1.42-4.72,2.82-7.06,4.04c-2.4,1.25-4.89,2.32-7.89,2.69
		c4.62-4.86,9.22-9.74,13.91-14.53c0.44-0.45,1.5-0.53,2.23-0.45c6.34,0.78,12.67,1.64,20.43,2.66c-6.95,1.33-12.54,2.41-18.12,3.48
		c-0.12,0.64-0.23,1.27-0.35,1.91c5.99,1.37,12.01,2.66,17.97,4.15c3.57,0.89,7.53,1.39,10.51,3.31
		c9.58,6.17,18.79,12.92,28.72,19.85c7.98-5.81,16.75-12.09,25.4-18.54c3.18-2.37,6.05-3.36,10.4-2.62
		c7.86,1.33,15.67-0.17,23.04-3.93c-5.04-2.75-9.44-5.15-13.85-7.55c0.15-0.62,0.31-1.25,0.46-1.87c6.82,1.42,13.64,2.84,20.38,4.25
		c2.01,3.8,4.02,7.6,6.76,12.8c-3.88-2.29-6.6-3.9-10.64-6.28c1.22,3.13,1.64,5.4,2.85,7.13c10.64,15.27,14.9,32.49,15.14,51.49
		c9.6,0.69,18.54,1.54,27.49,1.9c5.76,0.23,10.6,0.97,14.7,6.07c4.09,5.08,9.61,9.05,14.7,13.26c1.65,1.36,3.94,1.95,6.01,2.92
		c-2.23-5.49-4.19-10.31-6.15-15.12c0.35-0.26,0.7-0.52,1.04-0.78c4.36,4.76,8.73,9.53,12.65,13.81
		C454.85,246.85,454.85,254.61,454.85,261.52z M380.52,328.98c-4.22-8.37-7.56-15.66-11.54-22.59c-1.72-2.98-1.67-4.74-0.11-7.92
		c4.54-9.2,8.21-18.83,12.5-28.94c-9.81-4.9-18.05-9.38-26.6-13.14c-3.85-1.7-5.67-3.94-7.15-7.84
		c-3.34-8.83-7.56-17.32-11.67-26.49c-9.38,4.92-17.22,8.89-24.9,13.14c-3.32,1.84-5.77,1.82-9.26-0.26
		c-7.34-4.37-15.2-7.85-22.86-11.67c-2.82-1.4-4.92-0.83-6.29,2.2c-3.86,8.55-7.73,17.1-11.77,25.57c-0.75,1.57-2.01,3.39-3.5,4.03
		c-8.41,3.64-16.88,7.18-25.49,10.3c-4.54,1.65-4.69,4.2-2.98,7.84c3.4,7.23,6.52,14.62,10.35,21.63c1.66,3.04,1.72,4.91,0.03,7.98
		c-4.76,8.69-8.89,17.72-13.77,27.62c10.86,4.57,20.63,8.51,30.23,12.86c1.99,0.9,3.92,3.05,4.78,5.08
		c3.26,7.72,5.92,15.7,9.23,23.4c0.49,1.15,3.63,2.31,4.87,1.81c8.88-3.57,17.72-7.33,26.31-11.55c3.62-1.78,6.29-1.86,9.98-0.03
		c8.7,4.3,17.76,7.89,27.07,11.94c3.33-9.2,6.61-17.35,9.15-25.72c1.13-3.74,3.12-5.5,6.5-6.95
		C362.4,337.53,371,333.37,380.52,328.98z M213.22,227.88c-6.64,0.35-14.14,0.69-21.63,1.18c-1.13,0.07-2.4,0.58-3.31,1.28
		c-6.22,4.76-12.36,9.63-17.58,13.72c1.14,6.18,2.33,12.85,3.62,19.5c0.22,1.13,0.67,2.29,1.28,3.26
		c4.96,7.88,9.99,15.73,15.15,23.83c10.52-8.9,20.84-17.62,30.57-25.85C218.67,252.74,216.08,240.92,213.22,227.88z M229.09,389.36
		c0,3.67,0.05,8.43-0.01,13.2c-0.08,6.46,1.47,11.8,7.33,15.87c3.97,2.76,6.84,7.11,9.72,10.25c7.63-0.4,15.14-0.69,22.64-1.22
		c2.41-0.17,5.37-0.23,7.05-1.6c5.58-4.53,10.87-9.46,15.83-14.65c0.98-1.03,0.82-4.56-0.2-5.84c-6.33-7.97-12.98-15.7-19.73-23.33
		c-1.04-1.17-3.34-2.23-4.73-1.92C254.79,382.9,242.65,386.01,229.09,389.36z M358.43,428.21c6.12-6.73,11.55-12.68,16.93-18.67
		c0.62-0.69,1.24-1.56,1.4-2.43c1.52-8.19,2.94-16.4,4.38-24.57c-2.12-0.79-3.2-1.49-4.32-1.56c-11.8-0.71-23.6-1.4-35.41-1.84
		c-1.19-0.04-2.76,1.37-3.63,2.51c-6.84,8.93-13.54,17.95-20.81,27.65c4.49,3.81,9.92,8.52,15.49,13.06
		c0.97,0.79,2.61,1.46,3.76,1.24C344.74,422.02,352.45,423.91,358.43,428.21z M375.92,212.74c0-3.14-0.42-6.18,0.07-9.06
		c2.71-16-7.62-26.33-15.24-37.17c-4.03,0.78-7.4,2.26-10.56,1.88c-9.26-1.09-16.2,3.04-22.78,8.59c-3.03,2.56-6.14,5.02-8.68,7.1
		c6.12,9.4,12.12,18.8,18.39,28.01c0.88,1.29,3.15,2.39,4.74,2.33C353.08,214.04,364.29,213.35,375.92,212.74z M393.79,224.76
		c-2.22,13.16-4.23,24.72-6.03,36.32c-0.19,1.2,0.5,3.12,1.44,3.82c9.61,7.12,19.35,14.06,29.2,21.15
		c11.51-11.07,19.96-24.12,17.89-39.79c-5.34-6.02-9.8-11.18-14.43-16.19c-1.26-1.36-2.93-3.03-4.58-3.23
		C409.19,225.87,401.05,225.36,393.79,224.76z M438.46,350.3c-4.02-5-3-11.95-2.37-18.95c0.19-2.11-0.18-5.02-1.5-6.4
		c-4.95-5.15-10.41-9.81-15.81-14.77c-1.74,1.42-2.9,2.49-4.18,3.38c-7.48,5.24-14.57,11.27-22.66,15.32
		c-4.59,2.3-5.19,4.65-4.6,8.59c0.94,6.32,2.13,12.6,2.96,18.92c1.73,13.06,1.66,13.42,14.64,13.61c5.11,0.07,11.14-0.45,15.17-3.1
		C426.71,362.57,432.03,356.29,438.46,350.3z M218.91,331.79c-9.1-6.22-18.78-12.83-29.35-20.05c-4,5.12-8.32,10.56-12.52,16.09
		c-1.01,1.33-2.05,2.87-2.39,4.46c-1.45,6.81-2.64,13.67-3.96,20.7c2.54,1.52,6.96,3.22,10.1,6.24c10.1,9.74,23.15,9.21,34.9,11.91
		C216.8,357.66,217.83,344.99,218.91,331.79z M290.01,185.59c-8.87-14.16-23.78-17.71-37.55-21.11
		c-12.38,13.12-21.05,28.08-19.5,46.5c13.53,1.61,26.54,3.15,39.62,4.7C278.11,206.13,284,195.96,290.01,185.59z M261.11,224.68
		c-12.99-1.98-24.41-3.72-37.88-5.77c2.31,13.51,4.22,24.69,5.88,34.34c16.28-1.12,24.67-9.97,28.49-23.75
		C257.88,228.46,258.93,227.61,261.11,224.68z M306.07,373.1c-7.44,3.29-14.01,6.2-21.75,9.62c6.12,7.29,12.6,15.01,19.76,23.55
		c7.88-8.91,14.8-16.75,21.97-24.87C318.16,378.13,311.44,375.34,306.07,373.1z M378.99,254.81c0.83-10.1,1.76-19.98,2.28-29.88
		c0.05-0.97-2.39-2.91-3.74-2.97c-5.59-0.23-11.22-0.21-16.79,0.31c-4.12,0.38-8.15,1.67-11.58,2.42c2.92,7.01,5.2,12.89,7.83,18.6
		c0.81,1.76,2.27,3.74,3.94,4.5C366.33,250.23,371.97,252.14,378.99,254.81z M229.48,345.13c0.03-0.02-0.78,0.29-0.84,0.72
		c-1.29,8.66-2.75,17.3-3.55,26.01c-0.18,1.98,2.01,5.99,3.05,5.97c9.88-0.18,19.68-1.35,28.4-5.61c-2.15-5.92-3.92-11-5.86-16.03
		c-0.46-1.2-1.22-2.72-2.26-3.18C242.29,350.29,236.04,347.83,229.48,345.13z M388.68,279.15c-2.6,6.21-4.82,11.48-7,16.77
		c-0.59,1.42-1.84,3.19-1.42,4.3c2.26,6.03,4.94,11.9,8.01,19.07c7.76-5.82,15.09-11.2,22.24-16.81c0.94-0.74,1.78-3.3,1.28-3.93
		C405.33,290.43,398.17,283.08,388.68,279.15z M218.43,319.4c3.73-8,6.69-14.08,9.35-20.28c0.53-1.25,0.31-3.14-0.22-4.46
		c-2.08-5.11-4.42-10.11-7.16-16.25c-7.92,6.22-15.79,12.26-23.4,18.61c-0.89,0.75-1.11,4.09-0.35,4.74
		C203.56,307.67,210.75,313.25,218.43,319.4z M285.84,214.1c6.57,3.59,11.57,6.5,16.75,9.06c1.32,0.65,3.42,0.78,4.75,0.2
		c5.27-2.29,10.37-4.96,16.08-7.76c-5.7-9.28-11.46-18.66-17.22-28.04c-0.83,0.03-1.66,0.05-2.48,0.08
		C297.85,196.3,291.99,204.98,285.84,214.1z M351.73,370.49c10.23,0.77,19.92,1.51,30.85,2.33c-1.69-11.54-3.11-21.25-4.59-31.39
		c-6.84,3.12-12.48,5.55-17.96,8.28c-1.26,0.63-2.45,2.13-2.92,3.48C355.31,358.42,353.79,363.76,351.73,370.49z"/>
	<path d="M494.51,290.12c3.86,1.18,8.44,1.45,11.41,3.77c4.31,3.38,3.61,10.1-0.29,13.82c-4.24,4.03-10.42,3.99-14.54-0.09
		c-3.7-3.67-3.77-9.95-0.07-14.15c1.13-1.28,2.47-2.37,3.72-3.56C494.73,289.91,494.51,290.12,494.51,290.12z M499.15,293.75
		c-2.45,2.83-5.23,4.8-4.92,5.97c0.49,1.91,3,3.31,4.66,4.92c1.37-1.63,3.46-3.1,3.86-4.94C503.03,298.42,501,296.63,499.15,293.75z
		"/>
	<path d="M462.67,300.38c-6.17,1.07-12.31,2.55-18.52,2.96c-2.08,0.14-4.35-2.45-6.53-3.79c2.13-1.61,4.34-4.68,6.36-4.56
		c6.25,0.38,12.43,1.98,18.63,3.11C462.63,298.87,462.65,299.63,462.67,300.38z"/>
	<path d="M195.25,190.35c4.7,3.11,9.59,6,13.98,9.5c1.13,0.9,0.7,3.75,0.98,5.71c-1.99,0.19-4.93,1.31-5.81,0.41
		c-4.06-4.12-7.56-8.8-11.25-13.27C193.85,191.92,194.55,191.13,195.25,190.35z"/>
	<path d="M305.89,146.34c1.04,5.38,2.49,10.74,2.88,16.17c0.13,1.78-2.5,3.76-3.86,5.65c-1.49-2-4.35-4.12-4.21-5.99
		c0.42-5.3,2.07-10.51,3.23-15.75C304.59,146.39,305.24,146.36,305.89,146.34z"/>
	<path d="M414.86,191.36c-3.22,4.61-6.09,9.53-9.86,13.65c-1.37,1.5-4.87,1.05-7.41,1.49c0.53-2.47,0.22-5.94,1.75-7.2
		c4.33-3.57,9.4-6.23,14.18-9.25C413.97,190.48,414.41,190.92,414.86,191.36z"/>
	<path d="M146.28,297.52c5.19-1.16,10.35-2.93,15.59-3.18c2.29-0.11,6.43,2.64,6.75,4.58c0.71,4.28-3.62,5.85-6.88,5.33
		c-5.34-0.84-10.48-2.94-15.71-4.51C146.12,299,146.2,298.26,146.28,297.52z"/>
	<path d="M193.15,407.32c2.9-3.86,5.48-8.03,8.86-11.41c1.27-1.27,4.38-0.69,6.66-0.96c-0.63,2.23-0.55,5.3-2.01,6.53
		c-3.56,2.98-7.84,5.09-11.83,7.56C194.26,408.47,193.71,407.9,193.15,407.32z"/>
	<path d="M302.46,449.19c-1.31-3.9-3.13-7.73-3.73-11.74c-0.37-2.46,0.96-5.27,1.97-7.74c0.15-0.38,3.57-0.27,4.04,0.49
		c1.34,2.18,2.87,4.92,2.62,7.25c-0.44,3.98-2.19,7.82-3.39,11.71C303.46,449.18,302.96,449.19,302.46,449.19z"/>
	<path d="M413.14,406.43c-3.68-2.84-7.57-5.48-10.92-8.66c-0.91-0.87-0.24-3.4-0.29-5.17c1.93,0.08,4.86-0.6,5.61,0.38
		c2.82,3.68,4.93,7.9,7.3,11.92C414.28,405.41,413.71,405.92,413.14,406.43z"/>
	<path d="M103.69,290.06c3.23,0.65,6.8,0.63,9.62,2.08c5.52,2.83,6,7.73,2.38,15.95c-2.01,0.81-4.28,2.64-5.99,2.21
		c-3.63-0.91-7.85-2.18-10.2-4.78c-3.25-3.61-1.69-8.27,1.02-12.11C101.41,292.18,102.63,291.18,103.69,290.06z M114.37,300.21
		c-2.95-1.9-4.77-3.98-6.15-3.72c-1.52,0.29-3.64,2.76-3.6,4.23c0.03,1.35,2.52,3.54,4.07,3.67
		C110.08,304.5,111.66,302.32,114.37,300.21z"/>
	<path class="st0" d="M380.52,328.98c-9.51,4.39-18.11,8.55-26.89,12.31c-3.38,1.45-5.37,3.21-6.5,6.95
		c-2.54,8.37-5.82,16.51-9.15,25.72c-9.32-4.05-18.37-7.64-27.07-11.94c-3.69-1.83-6.36-1.75-9.98,0.03
		c-8.59,4.22-17.42,7.98-26.31,11.55c-1.24,0.5-4.38-0.66-4.87-1.81c-3.3-7.7-5.96-15.68-9.23-23.4c-0.86-2.04-2.8-4.18-4.78-5.08
		c-9.59-4.35-19.37-8.29-30.23-12.86c4.87-9.9,9.01-18.93,13.77-27.62c1.68-3.08,1.63-4.94-0.03-7.98
		c-3.83-7-6.95-14.39-10.35-21.63c-1.71-3.63-1.56-6.19,2.98-7.84c8.61-3.12,17.08-6.66,25.49-10.3c1.49-0.64,2.75-2.46,3.5-4.03
		c4.04-8.47,7.9-17.02,11.77-25.57c1.37-3.03,3.47-3.6,6.29-2.2c7.66,3.82,15.53,7.3,22.86,11.67c3.49,2.08,5.94,2.1,9.26,0.26
		c7.68-4.25,15.52-8.22,24.9-13.14c4.11,9.17,8.33,17.66,11.67,26.49c1.47,3.9,3.29,6.15,7.15,7.84c8.55,3.76,16.79,8.24,26.6,13.14
		c-4.29,10.11-7.96,19.74-12.5,28.94c-1.57,3.17-1.61,4.93,0.11,7.92C372.95,313.32,376.29,320.61,380.52,328.98z M296.19,234.05
		l0.02,0.05c-5.25-2.73-10.54-5.38-15.74-8.21c-3.73-2.03-6.2-0.66-7.7,2.74c-3.47,7.86-6.6,15.87-10.18,23.68
		c-0.87,1.89-2.64,3.91-4.5,4.72c-7.66,3.35-15.47,6.39-23.32,9.27c-4.58,1.67-5.04,4.27-3.04,8.26c4.1,8.18,8.02,16.44,11.79,24.21
		c-4.85,9.98-9.78,20.11-15.07,30.99c10.54,4.3,19.99,8.03,29.31,12.08c1.78,0.77,3.74,2.51,4.4,4.25
		c3.28,8.66,6.15,17.47,9.55,27.36c10.8-5.03,20.26-9.24,29.51-13.86c3.16-1.58,5.5-1.71,8.8-0.07c8.49,4.21,17.3,7.77,26.61,11.87
		c3.45-9.73,6.38-18.41,9.67-26.95c0.63-1.63,2.43-3.19,4.08-3.97c7.93-3.77,16.05-7.14,23.93-11.02c1.06-0.52,1.98-3.51,1.45-4.67
		c-2.89-6.36-5.94-12.69-9.59-18.64c-1.78-2.9-1.35-4.49,0.07-7.36c3.79-7.65,6.81-15.68,10.06-23.58c1.36-3.31,0.43-5.72-2.94-7.33
		c-7.39-3.52-14.79-7.03-22-10.91c-1.96-1.06-3.75-3.17-4.71-5.22c-3.55-7.58-6.72-15.34-10.01-23.04c-1.18-2.74-2.84-3.8-5.49-1.68
		c0,0,0.14-0.09,0.14-0.09c-4.47,2.18-9.12,4.04-13.35,6.6c-7.05,4.27-13.85,8.18-21.17,0.67
		C296.65,234.07,296.39,234.09,296.19,234.05z"/>
	<path class="st0" d="M213.22,227.88c2.86,13.04,5.45,24.86,8.09,36.91c-9.73,8.23-20.04,16.95-30.57,25.85
		c-5.16-8.1-10.18-15.94-15.15-23.83c-0.61-0.98-1.07-2.13-1.28-3.26c-1.29-6.65-2.48-13.32-3.62-19.5
		c5.22-4.09,11.36-8.96,17.58-13.72c0.91-0.7,2.17-1.21,3.31-1.28C199.08,228.57,206.58,228.22,213.22,227.88z M191.07,287.01
		c9.9-8.35,19.17-16.19,27.43-23.15c-2.09-10.26-3.95-19.64-5.97-28.98c-0.33-1.55-1.4-4.25-2.03-4.22
		c-6.88,0.31-14.34-0.41-20.43,2.1c-6.49,2.67-11.68,8.49-16.99,12.6c1.04,4.03,2.29,8.38,3.23,12.8c0.45,2.09-0.44,4.74,0.54,6.4
		C181.27,272.07,186.14,279.32,191.07,287.01z"/>
	<path class="st0" d="M229.09,389.36c13.55-3.35,25.7-6.46,37.92-9.24c1.39-0.32,3.69,0.75,4.73,1.92
		c6.75,7.63,13.4,15.35,19.73,23.33c1.02,1.28,1.18,4.81,0.2,5.84c-4.96,5.19-10.25,10.12-15.83,14.65
		c-1.69,1.37-4.64,1.43-7.05,1.6c-7.5,0.53-15.01,0.83-22.64,1.22c-2.89-3.13-5.75-7.49-9.72-10.25c-5.86-4.07-7.41-9.41-7.33-15.87
		C229.14,397.79,229.09,393.03,229.09,389.36z M291.45,409.42c-7.53-9-13.99-16.89-20.7-24.56c-1.03-1.18-3.34-2.17-4.81-1.89
		c-10.39,1.97-20.72,4.26-31.04,6.57c-1.19,0.27-2.78,1.11-3.19,2.09c-2.71,6.48,0.98,20.64,6.57,25.14
		c3.61,2.91,7.52,5.45,11.3,8.15c4.7,1.08,11.46,0.68,18.2,0.09c2.61-0.23,5.81-0.1,7.66-1.52
		C281.09,419.14,286.21,414.11,291.45,409.42z"/>
	<path class="st0" d="M358.43,428.21c-5.98-4.3-13.69-6.19-22.22-4.62c-1.16,0.21-2.79-0.45-3.76-1.24
		c-5.56-4.54-11-9.25-15.49-13.06c7.27-9.69,13.98-18.72,20.81-27.65c0.87-1.14,2.44-2.55,3.63-2.51
		c11.81,0.44,23.61,1.13,35.41,1.84c1.12,0.07,2.2,0.77,4.32,1.56c-1.44,8.17-2.86,16.38-4.38,24.57c-0.16,0.87-0.78,1.75-1.4,2.43
		C369.98,415.53,364.55,421.48,358.43,428.21z M378.21,383.42c-12.44-0.77-23.82-1.56-35.21-2.04c-1.3-0.05-3.03,1.41-3.96,2.63
		c-6.21,8.2-12.26,16.52-18.69,25.26c1.68,1.55,3.97,4.1,6.69,6.05c3.18,2.29,6.52,5,10.18,5.85c7.18,1.66,14.62,2.14,22.35,3.16
		c2.34-3.09,4.78-8.1,8.72-11.19C378.38,405.23,376.8,394.23,378.21,383.42z"/>
	<path class="st0" d="M375.92,212.74c-11.62,0.61-22.83,1.3-34.05,1.67c-1.59,0.05-3.86-1.04-4.74-2.33
		c-6.27-9.21-12.27-18.61-18.39-28.01c2.54-2.07,5.64-4.54,8.68-7.1c6.58-5.55,13.52-9.68,22.78-8.59
		c3.16,0.37,6.53-1.11,10.56-1.88c7.62,10.84,17.95,21.17,15.24,37.17C375.5,206.56,375.92,209.6,375.92,212.74z M321.64,184.33
		c5.73,8.61,11.06,16.8,16.63,24.82c0.94,1.35,2.94,2.85,4.4,2.81c9.97-0.27,19.93-0.93,29.82-1.46
		c2.81-17.43,1.48-21.71-12.37-40.99c-5.87,0.44-11.4,0.71-16.88,1.35c-2.29,0.27-4.8,0.9-6.66,2.17
		C331.37,176.65,326.43,180.67,321.64,184.33z"/>
	<path class="st0" d="M393.79,224.76c7.26,0.6,15.4,1.11,23.5,2.08c1.64,0.2,3.32,1.87,4.58,3.23c4.63,5,9.09,10.16,14.43,16.19
		c2.07,15.67-6.37,28.72-17.89,39.79c-9.85-7.09-19.59-14.03-29.2-21.15c-0.94-0.7-1.62-2.62-1.44-3.82
		C389.56,249.48,391.57,237.92,393.79,224.76z M395.64,227.98c-1.75,10.85-3.58,21.61-5.12,32.4c-0.19,1.32,0.81,3.38,1.92,4.2
		c8.5,6.26,17.17,12.3,25.96,18.53c7.9-9.36,16.17-18.99,15.61-33.14c-0.12-3.02-0.03-4.82-2.81-6.79
		c-3.51-2.49-6.08-6.27-9.38-9.11c-2.71-2.32-5.7-5.3-8.92-5.83C407.12,227.3,401.07,227.98,395.64,227.98z"/>
	<path class="st0" d="M438.46,350.3c-6.43,5.99-11.75,12.27-18.35,16.6c-4.04,2.65-10.06,3.17-15.17,3.1
		c-12.98-0.19-12.91-0.55-14.64-13.61c-0.84-6.33-2.03-12.61-2.96-18.92c-0.58-3.94,0.01-6.29,4.6-8.59
		c8.08-4.05,15.17-10.08,22.66-15.32c1.28-0.9,2.44-1.96,4.18-3.38c5.4,4.96,10.86,9.63,15.81,14.77c1.33,1.38,1.69,4.28,1.5,6.4
		C435.45,338.36,434.43,345.31,438.46,350.3z M434.11,351.05c0-6.76,0.08-13.42-0.06-20.08c-0.04-1.64-0.31-3.74-1.33-4.82
		c-4.37-4.61-9.05-8.91-12.74-12.47c-9.35,6.09-17.63,12.01-26.46,16.94c-3.3,1.84-4.39,3.45-3.9,6.78
		c1.45,9.86,2.88,19.73,4.37,29.96c6.51,0,13.05,0.12,19.59-0.08c1.62-0.05,3.55-0.72,4.75-1.78
		C423.97,360.55,429.42,355.38,434.11,351.05z"/>
	<path class="st0" d="M218.91,331.79c-1.08,13.2-2.12,25.87-3.22,39.36c-11.75-2.7-24.8-2.17-34.9-11.91
		c-3.14-3.03-7.57-4.72-10.1-6.24c1.32-7.03,2.51-13.89,3.96-20.7c0.34-1.59,1.37-3.13,2.39-4.46c4.2-5.53,8.52-10.97,12.52-16.09
		C200.13,318.96,209.81,325.57,218.91,331.79z M190.21,315.41c-12.09,8.77-14.58,22.36-16.34,35.32
		c10.84,11.73,24.59,16.86,39.27,17.86c1.33-11.67,2.69-22.91,3.76-34.18c0.1-1.06-1.38-2.64-2.52-3.39
		C206.55,325.84,198.62,320.82,190.21,315.41z"/>
	<path class="st0" d="M290.01,185.59c-6.01,10.37-11.9,20.54-17.44,30.09c-13.08-1.55-26.09-3.1-39.62-4.7
		c-1.54-18.42,7.13-33.38,19.5-46.5C266.23,167.88,281.14,171.43,290.01,185.59z M253.46,166.8c-11.42,12.17-19.53,25.5-17.97,42.31
		c11.05,1.39,21.88,2.86,32.75,4.01c1.49,0.16,3.87-0.8,4.61-1.99c4.51-7.29,8.84-14.7,12.79-22.31c0.78-1.51,0.4-4.78-0.76-5.95
		c-6.48-6.56-13.25-12.74-23.35-13.34C258.67,169.36,255.89,167.66,253.46,166.8z"/>
	<path class="st0" d="M261.11,224.68c-2.18,2.93-3.23,3.77-3.52,4.83c-3.82,13.78-12.21,22.63-28.49,23.75
		c-1.65-9.65-3.56-20.83-5.88-34.34C236.7,220.97,248.12,222.7,261.11,224.68z M255.86,225.85c-9.57-1.38-19.02-2.75-30-4.34
		c1.95,11.28,3.54,20.51,5.15,29.81c5.41-1.9,9.65-3.14,13.66-4.9c1.81-0.8,3.81-2.33,4.61-4.05
		C251.62,237.36,253.42,232.09,255.86,225.85z"/>
	<path class="st0" d="M306.07,373.1c5.38,2.23,12.1,5.03,19.98,8.3c-7.18,8.12-14.1,15.96-21.97,24.87
		c-7.16-8.54-13.64-16.26-19.76-23.55C292.06,379.3,298.62,376.4,306.07,373.1z M322.54,382.4c-5.6-2.5-9.89-4.63-14.34-6.29
		c-1.46-0.55-3.61-0.41-5.02,0.28c-4.77,2.34-9.35,5.07-14.73,8.05c4.98,5.77,10.23,11.86,16,18.55
		C310.83,395.73,316.48,389.3,322.54,382.4z"/>
	<path class="st0" d="M378.99,254.81c-7.03-2.67-12.66-4.58-18.06-7.01c-1.67-0.75-3.13-2.74-3.94-4.5
		c-2.63-5.72-4.92-11.59-7.83-18.6c3.43-0.75,7.46-2.03,11.58-2.42c5.56-0.52,11.2-0.54,16.79-0.31c1.34,0.06,3.79,2,3.74,2.97
		C380.75,234.84,379.83,244.71,378.99,254.81z M352.57,225.2c3.57,12.99,8.64,23.23,22.31,25.61c0.37,0.07,0.75,0.15,2.16,0.43
		c0.77-8.96,1.53-17.8,2.38-27.64C369.78,224.17,361.17,224.69,352.57,225.2z"/>
	<path class="st0" d="M229.48,345.13c6.56,2.69,12.81,5.16,18.94,7.89c1.03,0.46,1.79,1.98,2.26,3.18
		c1.94,5.02,3.71,10.1,5.86,16.03c-8.72,4.26-18.52,5.43-28.4,5.61c-1.04,0.02-3.23-4-3.05-5.97c0.8-8.71,2.25-17.35,3.55-26.01
		C228.7,345.43,229.51,345.11,229.48,345.13z M254.33,372.14c-2.08-5.22-3.55-9.11-5.19-12.92c-0.67-1.56-1.38-3.67-2.68-4.3
		c-5.1-2.48-10.45-4.47-16.23-6.86c-1.62,9.3-3.8,18.22-2.04,28.46C237.13,375.02,245.28,373.65,254.33,372.14z"/>
	<path class="st0" d="M388.68,279.15c9.49,3.93,16.65,11.28,23.11,19.4c0.5,0.62-0.34,3.19-1.28,3.93
		c-7.15,5.61-14.48,10.99-22.24,16.81c-3.07-7.18-5.76-13.05-8.01-19.07c-0.41-1.1,0.84-2.88,1.42-4.3
		C383.86,290.63,386.08,285.36,388.68,279.15z M390.5,281.04c-2.63,6.07-4.84,10.92-6.8,15.88c-0.51,1.3-0.7,3.08-0.23,4.34
		c1.73,4.58,3.81,9.04,6.13,14.4c6.98-5.09,13.9-10.13,22.03-16.06C403.86,292.77,397.26,286.97,390.5,281.04z"/>
	<path class="st0" d="M218.43,319.4c-7.68-6.14-14.87-11.73-21.78-17.64c-0.76-0.65-0.54-3.99,0.35-4.74
		c7.61-6.35,15.48-12.38,23.4-18.61c2.73,6.14,5.08,11.14,7.16,16.25c0.54,1.32,0.76,3.21,0.22,4.46
		C225.13,305.32,222.16,311.4,218.43,319.4z M217.04,315.96c7.21-11.17,11.85-21.66,1.48-33.22c-6.79,5.23-13.87,10.67-22,16.93
		C203.99,305.6,210.48,310.75,217.04,315.96z"/>
	<path class="st0" d="M285.84,214.1c6.16-9.12,12.01-17.79,17.87-26.47c0.83-0.03,1.66-0.05,2.48-0.08
		c5.76,9.38,11.52,18.76,17.22,28.04c-5.71,2.8-10.81,5.46-16.08,7.76c-1.33,0.58-3.43,0.45-4.75-0.2
		C297.41,220.59,292.4,217.69,285.84,214.1z M319.67,213.79c-4.33-7.22-9.06-15.11-14.72-24.56c-6.12,9.02-11.06,16.32-15.74,23.23
		C299.61,222.41,309.36,223.79,319.67,213.79z"/>
	<path class="st0" d="M351.73,370.49c2.06-6.72,3.57-12.06,5.39-17.29c0.47-1.36,1.66-2.85,2.92-3.48
		c5.48-2.73,11.12-5.16,17.96-8.28c1.48,10.14,2.9,19.84,4.59,31.39C371.65,371.99,361.96,371.26,351.73,370.49z M376.68,344.37
		c-5.35,2.39-9.54,4.2-13.68,6.14c-1.22,0.57-2.94,1.27-3.28,2.29c-1.65,4.98-2.9,10.08-4.46,15.75c8,0.79,15.63,1.55,24.53,2.43
		C378.68,361.51,377.72,353.27,376.68,344.37z"/>
	<path class="st0" d="M499.15,293.75c1.85,2.88,3.88,4.67,3.6,5.95c-0.4,1.84-2.49,3.31-3.86,4.94c-1.66-1.61-4.17-3.01-4.66-4.92
		C493.93,298.54,496.7,296.57,499.15,293.75z"/>
	<path class="st0" d="M114.37,300.21c-2.7,2.11-4.29,4.29-5.68,4.18c-1.54-0.12-4.03-2.32-4.07-3.67c-0.04-1.47,2.09-3.93,3.6-4.23
		C109.59,296.23,111.42,298.31,114.37,300.21z"/>
	<path d="M331.15,227.01c2.65-2.12,4.31-1.06,5.49,1.68c3.3,7.7,6.47,15.46,10.01,23.04c0.96,2.05,2.75,4.16,4.71,5.22
		c7.2,3.88,14.61,7.39,22,10.91c3.37,1.6,4.3,4.02,2.94,7.33c-3.25,7.91-6.27,15.93-10.06,23.58c-1.42,2.87-1.85,4.46-0.07,7.36
		c3.64,5.95,6.7,12.28,9.59,18.64c0.53,1.16-0.4,4.15-1.45,4.67c-7.88,3.88-16,7.25-23.93,11.02c-1.65,0.78-3.45,2.34-4.08,3.97
		c-3.29,8.54-6.22,17.22-9.67,26.95c-9.31-4.1-18.12-7.66-26.61-11.87c-3.3-1.63-5.63-1.51-8.8,0.07
		c-9.25,4.61-18.7,8.82-29.51,13.86c-3.4-9.89-6.28-18.71-9.55-27.36c-0.66-1.75-2.62-3.48-4.4-4.25
		c-9.31-4.04-18.76-7.77-29.31-12.08c5.29-10.88,10.22-21.01,15.07-30.99c-3.77-7.77-7.7-16.03-11.79-24.21
		c-2-3.99-1.54-6.59,3.04-8.26c7.86-2.87,15.66-5.92,23.32-9.27c1.86-0.81,3.63-2.83,4.5-4.72c3.58-7.81,6.71-15.82,10.18-23.68
		c1.5-3.4,3.98-4.78,7.7-2.74c5.19,2.83,10.49,5.48,15.74,8.22c-1.45,26.64-18.41,44.89-34.89,63.62
		c1.34-7.92,5.99-13.94,10.94-19.64c6.42-7.38,10.04-15.81,10.88-25.47c0.15-1.76-0.23-3.58-0.29-4.28
		c-8.76,14.49-17.68,29.26-27.34,45.24c0.61-2.73,0.9-4.06,1.56-7.05c-9.04,10.2-14.52,20.13-15.28,32.43
		c1.45-2.25,2.9-4.51,5.14-8.01c-0.01,8.51,2.17,11.82,6.05,11.48c2.04-0.18,4.25,0.81,6.2,0.4c2.86-0.6,6.08-1.37,8.16-3.2
		c1.71-1.51,2.5-4.59,2.78-7.08c1.2-10.7,5.91-19.76,12.07-28.34c3.38-4.71,6.63-9.6,9.23-14.76c5.61-11.18,10.48-22.63,4.76-35.41
		c0.2,0.04,0.46,0.02,0.58,0.14c7.32,7.51,14.12,3.6,21.17-0.67c4.23-2.57,8.89-4.43,13.33-6.59c-0.41,1.12-1.21,2.25-1.11,3.3
		c1.41,15.82-3.63,29.86-11.19,43.44c-3.17,5.7-5.41,12.02-7.32,18.29c-2,6.55,2.16,10.11,8.65,8.29c0-5.01-1.26-10.36,0.23-14.78
		c4.85-14.38,10.7-28.43,16.82-44.3c-0.73,4.19-0.86,6.78-1.65,9.15c-2.91,8.69-5.99,17.32-9.09,25.95
		c-5.36,14.95-6.33,29.22,6.17,41.52c-3.04-0.49-6.09-0.98-9.24-1.49c-0.71,3.29-1.24,5.75-1.94,8.99c1.74-0.78,2.72-1.5,3.75-1.61
		c1.34-0.15,2.74,0.31,4.11,0.29c4.72-0.05,5.52-1.76,3.09-6.4c5.04,1.58,10.09,3.16,15.33,4.8c0.54,6.76,5.8,10.48,10.64,6.69
		c2.2-1.72,3.61-1.88,6.17-1.24c4.5,1.12,8.22-2.82,6.52-7.21c-2.09-5.4-5.26-10.38-7.97-15.55c-0.45,0.2-0.91,0.39-1.36,0.59
		c0.36,2.72,0.73,5.45,1.21,9.06c-2.27-3.58-4-6.3-5.73-9.01c-0.52,5.47,3.72,10.89-1.59,15.23c-0.56-4.97-1.13-9.96-1.67-14.68
		c-2.76,2.2-4.36,4.53-6.28,4.83c-10.64,1.63-22.07-10.85-19.36-21.29c2.2-8.47,4.33-17.15,8.07-24.99
		C343.27,250.66,339.45,238.68,331.15,227.01z M305.22,317.66c-1.99,4.66-3.99,9.33-5.98,13.99c4.11-4,8.26-5.33,13.54-3.79
		c1.41,0.41,3.5,0.2,4.64-0.61c1.45-1.03,3.34-3.21,3.06-4.46c-0.35-1.56-2.53-3.45-4.23-3.83c-3.64-0.83-7.49-0.78-11.25-1.09
		c2.49-2.9,4.98-5.8,7.47-8.7c0.58,0.48,1.16,0.96,1.74,1.43c-0.79,1.56-1.58,3.12-2.37,4.68c3.08-0.54,5.79-1.59,7.5-3.53
		c1.3-1.48,2.16-4.32,1.63-6.09c-0.34-1.15-3.56-2.16-5.4-2.03c-3.54,0.26-7.06,1.21-10.5,2.2c-1.38,0.4-2.71,1.49-3.72,2.59
		c-4.42,4.83-8.3,10.22-13.12,14.58c-8.71,7.88-8.69,7.52-3.64,18.14c2.38,5.01,4.85,5.49,9.87,3.6c7.21-2.72,14.79-4.87,22.4-5.96
		c4.73-0.68,9.8,1.05,14.72,1.7c0.04,0.86,0.08,1.72,0.12,2.57c-2.44,0.8-4.84,2.06-7.33,2.3c-3.57,0.34-7.21-0.07-10.82-0.15
		c-11.83-0.24-23.28,1.24-32.81,8.95c-3.63,2.93-6.41,6.91-9.57,10.41c0.49,0.45,0.98,0.89,1.47,1.34c1.19-0.93,2.42-1.81,3.55-2.8
		c14.51-12.75,30.48-15.52,48.26-7.38c4.66,2.13,7.6-0.46,10.36-4.38c3.03-4.31,6.67-8.37,10.71-11.74c4.32-3.61,4.75-4.9,0.11-8.45
		c-6.27-4.81-13.37-5.21-20.57-2.96c-7.82,2.43-15.39,5.68-23.24,7.96c-3,0.87-6.49,0.03-9.76-0.03c-0.14-0.7-0.27-1.4-0.41-2.1
		C296.17,328.58,300.7,323.12,305.22,317.66z M272.97,317.38c1.82-4.9,2.49-8.8,4.53-11.77c3.99-5.85,8.44-11.48,13.38-16.54
		c1.25-1.29,5.29-0.71,7.54,0.23c0.85,0.36,1.11,4.62,0.17,6.27c-2.33,4.12-5.13,8.13-8.4,11.55c-9.46,9.88-18.63,19.83-22.67,33.37
		c-2.28,7.64-1.89,13.99,1.8,18.65c-0.21-2.48-0.92-4.68-0.48-6.62c2.85-12.43,7.4-23.87,17.48-32.66
		c9.62-8.4,19.32-17.12,23.59-29.68c1.23-3.61,1.11-8.4-0.26-11.92c-0.94-2.4-5.13-3.52-8.01-5.3c8.54-8.7,16.82-18.22,12.02-33.72
		c-2.26,4.43-3.64,8-5.72,11.09c-8.47,12.62-17.26,25.03-25.73,37.64C276.57,296.36,271.41,305.01,272.97,317.38z M357.63,289.92
		c0.64,3.05,1.4,6.62,2.48,11.74c8.43-16.27,6.55-34.7-2.77-38.45c4.27,7.6,4.71,15,1.2,20.89c-0.23-2.77-0.47-5.5-0.82-9.67
		c-2.48,5.71-4.27,9.82-6.06,13.93c2.99-19.04,2.92-24.32-1.42-28.43c-2.89,21.94-3.06,22.51-9.03,28.25
		c-2.46-12.13,9.06-23.08,1.58-34.73c-1.44,5.35-2.57,10.32-4.14,15.14c-1.67,5.12-4.15,10-5.52,15.18
		c-1.11,4.19-1.79,8.73-1.41,13.01c0.63,7.04,4.24,9.82,10.87,9.75c-1.87-3.84-3.76-7.7-5.65-11.57c0.54-0.43,1.08-0.86,1.62-1.28
		c3.07,1.79,6.14,3.58,9.67,5.64c0,1.95,0,4.13,0,6.31c0.6,0.17,1.19,0.33,1.79,0.5C352.64,300.54,355.27,294.95,357.63,289.92z
		 M258.52,275.87c0.62,0.21,1.24,0.41,1.87,0.62c1.61-4.13,3.75-8.15,4.66-12.43c0.76-3.57-1.04-5.87-5.32-4.09
		c-5.99,2.5-12.26,4.46-17.9,7.59c-2.47,1.37-5.54,5.49-5.06,7.6c1.18,5.15,4.29,9.87,6.54,14.58c4.7-3.83,9.02-7.34,14.42-11.74
		c-4.53-0.26-7.52-0.43-10.51-0.6c-0.2-0.55-0.41-1.1-0.61-1.65c4.08-2.79,8.16-5.58,13.29-9.09
		C259.32,270.58,258.92,273.23,258.52,275.87z"/>
	<path d="M191.07,287.01c-4.93-7.68-9.8-14.94-14.22-22.46c-0.98-1.66-0.09-4.31-0.54-6.4c-0.94-4.42-2.2-8.77-3.23-12.8
		c5.31-4.11,10.5-9.93,16.99-12.6c6.09-2.5,13.55-1.78,20.43-2.1c0.63-0.03,1.7,2.67,2.03,4.22c2.01,9.34,3.87,18.72,5.97,28.98
		C210.24,270.82,200.96,278.65,191.07,287.01z"/>
	<path d="M291.45,409.42c-5.24,4.69-10.36,9.72-16.01,14.07c-1.85,1.43-5.05,1.29-7.66,1.52c-6.74,0.6-13.5,1-18.2-0.09
		c-3.78-2.71-7.69-5.25-11.3-8.15c-5.58-4.5-9.27-18.66-6.57-25.14c0.41-0.99,2-1.83,3.19-2.09c10.32-2.32,20.65-4.6,31.04-6.57
		c1.46-0.28,3.78,0.71,4.81,1.89C277.46,392.53,283.92,400.41,291.45,409.42z"/>
	<path d="M378.21,383.42c-1.42,10.82,0.16,21.82-9.92,29.73c-3.94,3.09-6.38,8.1-8.72,11.19c-7.73-1.02-15.17-1.51-22.35-3.16
		c-3.66-0.84-7-3.56-10.18-5.85c-2.72-1.95-5.01-4.5-6.69-6.05c6.43-8.73,12.48-17.06,18.69-25.26c0.92-1.22,2.66-2.69,3.96-2.63
		C354.4,381.86,365.78,382.65,378.21,383.42z"/>
	<path d="M321.64,184.33c4.79-3.66,9.73-7.69,14.96-11.29c1.85-1.28,4.37-1.9,6.66-2.17c5.48-0.65,11.01-0.91,16.88-1.35
		c13.85,19.28,15.18,23.56,12.37,40.99c-9.89,0.53-19.85,1.19-29.82,1.46c-1.47,0.04-3.47-1.46-4.4-2.81
		C332.7,201.13,327.37,192.95,321.64,184.33z"/>
	<path d="M395.64,227.98c5.43,0,11.48-0.68,17.26,0.27c3.22,0.53,6.21,3.51,8.92,5.83c3.31,2.84,5.87,6.61,9.38,9.11
		c2.78,1.97,2.69,3.78,2.81,6.79c0.56,14.15-7.72,23.78-15.61,33.14c-8.78-6.23-17.45-12.26-25.96-18.53
		c-1.11-0.82-2.11-2.89-1.92-4.2C392.06,249.58,393.89,238.82,395.64,227.98z"/>
	<path d="M434.11,351.05c-4.69,4.33-10.14,9.5-15.78,14.44c-1.2,1.05-3.13,1.73-4.75,1.78c-6.54,0.2-13.08,0.08-19.59,0.08
		c-1.49-10.23-2.91-20.1-4.37-29.96c-0.49-3.33,0.6-4.94,3.9-6.78c8.83-4.92,17.1-10.85,26.46-16.94
		c3.69,3.56,8.37,7.86,12.74,12.47c1.02,1.08,1.3,3.18,1.33,4.82C434.19,337.62,434.11,344.29,434.11,351.05z"/>
	<path d="M190.21,315.41c8.41,5.41,16.34,10.44,24.17,15.62c1.14,0.75,2.62,2.33,2.52,3.39c-1.07,11.27-2.43,22.51-3.76,34.18
		c-14.68-1.01-28.43-6.13-39.27-17.86C175.64,337.77,178.12,324.18,190.21,315.41z"/>
	<path d="M253.46,166.8c2.44,0.86,5.21,2.56,8.07,2.73c10.09,0.6,16.87,6.78,23.35,13.34c1.16,1.17,1.54,4.44,0.76,5.95
		c-3.94,7.6-8.28,15.02-12.79,22.31c-0.74,1.2-3.12,2.15-4.61,1.99c-10.87-1.15-21.7-2.62-32.75-4.01
		C233.92,192.3,242.04,178.98,253.46,166.8z"/>
	<path d="M255.86,225.85c-2.43,6.24-4.23,11.51-6.59,16.52c-0.81,1.72-2.8,3.25-4.61,4.05c-4.01,1.76-8.25,3-13.66,4.9
		c-1.61-9.3-3.2-18.53-5.15-29.81C236.84,223.1,246.28,224.46,255.86,225.85z"/>
	<path d="M322.54,382.4c-6.06,6.89-11.72,13.33-18.09,20.59c-5.77-6.69-11.02-12.78-16-18.55c5.38-2.98,9.96-5.71,14.73-8.05
		c1.41-0.69,3.56-0.83,5.02-0.28C312.65,377.78,316.94,379.9,322.54,382.4z"/>
	<path d="M352.57,225.2c8.6-0.51,17.21-1.03,26.85-1.6c-0.85,9.83-1.61,18.67-2.38,27.64c-1.41-0.28-1.79-0.37-2.16-0.43
		C361.21,248.43,356.14,238.19,352.57,225.2z"/>
	<path d="M254.33,372.14c-9.04,1.51-17.2,2.88-26.14,4.37c-1.76-10.23,0.42-19.16,2.04-28.46c5.78,2.39,11.13,4.38,16.23,6.86
		c1.29,0.63,2,2.74,2.68,4.3C250.78,363.02,252.25,366.91,254.33,372.14z"/>
	<path d="M390.5,281.04c6.76,5.93,13.36,11.73,21.13,18.56c-8.13,5.92-15.05,10.97-22.03,16.06c-2.32-5.36-4.4-9.82-6.13-14.4
		c-0.47-1.25-0.28-3.04,0.23-4.34C385.66,291.96,387.88,287.1,390.5,281.04z"/>
	<path d="M217.04,315.96c-6.56-5.21-13.05-10.36-20.52-16.29c8.13-6.26,15.21-11.7,22-16.93
		C228.89,294.3,224.25,304.79,217.04,315.96z"/>
	<path d="M319.67,213.79c-10.31,9.99-20.06,8.62-30.46-1.33c4.68-6.91,9.63-14.21,15.74-23.23
		C310.61,198.68,315.34,206.57,319.67,213.79z"/>
	<path d="M376.68,344.37c1.04,8.9,2.01,17.14,3.11,26.6c-8.9-0.88-16.53-1.64-24.53-2.43c1.56-5.67,2.82-10.77,4.46-15.75
		c0.34-1.02,2.06-1.72,3.28-2.29C367.14,348.57,371.33,346.75,376.68,344.37z"/>
	<path class="st0" d="M331.15,227.01c8.29,11.67,12.12,23.65,5.38,37.8c-3.73,7.84-5.86,16.52-8.07,24.99
		c-2.71,10.43,8.72,22.92,19.36,21.29c1.92-0.29,3.52-2.63,6.28-4.83c0.54,4.71,1.1,9.71,1.67,14.68c5.3-4.34,1.06-9.76,1.59-15.23
		c1.73,2.72,3.46,5.44,5.73,9.01c-0.48-3.61-0.85-6.33-1.21-9.06c0.45-0.2,0.91-0.39,1.36-0.59c2.7,5.16,5.88,10.15,7.97,15.55
		c1.7,4.39-2.03,8.33-6.52,7.21c-2.56-0.64-3.97-0.48-6.17,1.24c-4.84,3.78-10.09,0.06-10.64-6.69c-5.25-1.64-10.29-3.22-15.33-4.8
		l0.22,0.21c-12.49-12.29-11.52-26.57-6.16-41.51c3.09-8.63,6.18-17.26,9.09-25.95c0.79-2.37,0.92-4.96,1.65-9.15
		c-6.12,15.87-11.97,29.91-16.82,44.3c-1.49,4.42-0.23,9.77-0.23,14.78c-6.49,1.82-10.65-1.73-8.65-8.29
		c1.91-6.27,4.15-12.59,7.32-18.29c7.56-13.58,12.6-27.62,11.19-43.44c-0.09-1.05,0.7-2.19,1.11-3.3
		C331.29,226.92,331.15,227.01,331.15,227.01z M360.75,316.5c-0.8,1.79-1.05,3.38-1.98,4.17c-1.37,1.16-3.22,1.76-4.86,2.59
		c-0.19-1.57-0.48-3.13-0.55-4.7c-0.1-2.14-0.02-4.29-0.02-6.92c-6.83,3.53-12.45,0.55-17.22-2.79c-4.52-3.17-7.93-7.92-10.92-11.04
		c0.63,13.73,8.8,21.13,23.93,21.25c1.32,3.26,1.65,7.18,3.68,8.48c5.03,3.24,6.08-2.63,8.31-3.62c2.32,0.57,4.63,1.14,6.95,1.71
		c0.32-2.63,0.65-5.26,0.97-7.9c-0.5-0.06-1-0.12-1.5-0.18c-0.57,1.34-1.14,2.68-1.95,4.58
		C363.78,320.06,362.51,318.57,360.75,316.5z M321.94,271.61c-0.07-0.22-0.14-0.44-0.2-0.67c-2.66,6.76-5.57,13.44-7.88,20.32
		c-1.19,3.54-0.92,7.22,2.77,7.75C318.41,289.79,320.17,280.7,321.94,271.61z"/>
	<path class="st0" d="M296.19,234.05c5.72,12.77,0.85,24.22-4.76,35.41c-2.59,5.17-5.85,10.05-9.23,14.76
		c-6.16,8.58-10.87,17.65-12.07,28.34c-0.28,2.49-1.07,5.57-2.78,7.08c-2.07,1.83-5.3,2.6-8.16,3.2c-1.95,0.41-4.15-0.58-6.2-0.4
		c-3.89,0.33-6.06-2.98-6.05-11.48c-2.25,3.5-3.69,5.75-5.14,8.01c0.76-12.3,6.24-22.23,15.28-32.43c-0.66,3-0.96,4.32-1.56,7.05
		c9.66-15.98,18.58-30.75,27.34-45.24c0.05,0.71,0.44,2.52,0.29,4.28c-0.84,9.65-4.46,18.09-10.88,25.47
		c-4.95,5.7-9.61,11.72-10.94,19.64c16.48-18.73,33.44-36.98,34.89-63.62C296.22,234.1,296.19,234.05,296.19,234.05z M296.59,253.95
		c-0.53-0.28-1.07-0.56-1.6-0.84c-3.23,6.32-5.98,12.95-9.79,18.9c-7.87,12.27-20.83,20.94-25.04,37.55
		c-3.42-14.23,3.04-23.25,9.85-32.29c3.73-4.95,6.92-10.3,10.35-15.48c-0.89-0.53-1.78-1.06-2.67-1.59
		c-8.36,14.88-16.73,29.76-24.83,44.17c-0.24-1.74-0.65-4.68-1.2-8.66c-2.54,5.04-4.63,9.2-7.47,14.84c3.02-2.18,4.48-3.24,5.4-3.9
		c0.49,4.61,0.95,8.9,1.4,13.19c2.37-0.91,4.74-1.82,6.97-2.68c0.98,1.16,2.26,2.68,3.54,4.19c1.84-1.63,3.78-3.16,5.45-4.94
		c0.6-0.64,0.72-1.86,0.81-2.84c1.26-12.83,7.83-23.22,14.68-33.7C287.82,271.66,291.93,262.62,296.59,253.95z"/>
	<path class="st0" d="M305.22,317.65c-4.52,5.46-9.05,10.92-13.57,16.39c0.14,0.7,0.27,1.4,0.41,2.1c3.27,0.06,6.76,0.9,9.76,0.03
		c7.86-2.28,15.43-5.53,23.24-7.96c7.2-2.24,14.3-1.84,20.57,2.96c4.64,3.56,4.21,4.85-0.11,8.45c-4.04,3.37-7.68,7.43-10.71,11.74
		c-2.76,3.92-5.7,6.51-10.36,4.38c-17.78-8.14-33.75-5.37-48.26,7.38c-1.13,0.99-2.37,1.87-3.55,2.8c-0.49-0.45-0.98-0.89-1.47-1.34
		c3.17-3.5,5.94-7.48,9.57-10.41c9.53-7.7,20.99-9.19,32.81-8.95c3.61,0.07,7.25,0.49,10.82,0.15c2.49-0.24,4.89-1.5,7.33-2.3
		c-0.04-0.86-0.08-1.72-0.12-2.57c-4.92-0.65-9.99-2.38-14.72-1.7c-7.61,1.09-15.19,3.24-22.4,5.96c-5.02,1.89-7.5,1.41-9.87-3.6
		c-5.05-10.63-5.07-10.26,3.64-18.14c4.82-4.36,8.71-9.75,13.12-14.58c1-1.1,2.33-2.19,3.72-2.59c3.43-1,6.96-1.95,10.5-2.2
		c1.84-0.13,5.06,0.87,5.4,2.03c0.52,1.77-0.33,4.61-1.63,6.09c-1.71,1.93-4.43,2.98-7.5,3.53c0.79-1.56,1.58-3.12,2.37-4.68
		c-0.58-0.48-1.16-0.96-1.74-1.43c-2.49,2.9-4.98,5.8-7.47,8.7L305.22,317.65z M288.1,352.3c12.81-4.3,25.13-4.81,37.43,1.36
		c1.47,0.74,4.9-0.21,6.1-1.55c4.92-5.51,9.34-11.47,14.41-17.86c-4.63-5.46-11.71-6.57-19.21-4.47
		c-7.47,2.09-14.59,5.43-22.04,7.57c-3.65,1.05-7.83,1.25-11.58,0.65c-3.16-0.5-4.56-3.3-2.19-6.41
		c5.09-6.69,10.08-13.47,15.5-19.89c3.19-3.77,7.36-5.25,13.58-0.54c-1.11-2.83-1.86-5.26-2.08-5.22
		c-4.93,1.05-10.76,1.11-14.47,3.92c-6.57,4.98-11.65,11.88-17.76,17.53c-3.25,3.01-4.25,5.55-1.44,9.2
		c1.09,1.41,2.04,2.98,2.79,4.6c1.41,3.04,3.17,3.24,6.25,2.01c5.71-2.28,11.58-4.52,17.59-5.64c7.96-1.48,16.12-1.85,23.91,3.07
		c-3,5.53-6.87,6.98-12.2,6.6C310.76,346.39,298.84,346.16,288.1,352.3z"/>
	<path class="st0" d="M272.97,317.38c-1.56-12.37,3.6-21.02,9.23-29.41c8.48-12.62,17.26-25.02,25.73-37.64
		c2.08-3.1,3.46-6.66,5.72-11.09c4.8,15.5-3.48,25.01-12.02,33.72c2.87,1.78,7.07,2.9,8.01,5.3c1.38,3.52,1.49,8.31,0.26,11.92
		c-4.27,12.56-13.96,21.28-23.59,29.68c-10.08,8.8-14.62,20.23-17.48,32.66c-0.44,1.94,0.27,4.14,0.48,6.62
		c-3.69-4.66-4.08-11.01-1.8-18.65c4.04-13.54,13.21-23.49,22.67-33.37c3.27-3.42,6.07-7.42,8.4-11.55
		c0.94-1.66,0.68-5.92-0.17-6.27c-2.25-0.94-6.29-1.52-7.54-0.23c-4.94,5.06-9.39,10.69-13.38,16.54
		C275.47,308.58,274.79,312.48,272.97,317.38z M313.12,246.77c-10.9,15.99-21.46,31.5-32.02,47.01c3.26-2.08,5.66-5.27,8.82-6.49
		c2.96-1.14,7.25-1.18,9.92,0.24c1.45,0.77,1.9,6.19,0.74,8.46c-2.4,4.7-5.99,8.85-9.44,12.93c-4.43,5.24-9.21,10.18-13.83,15.26
		c5.44-3.47,10.46-7.29,14.37-12.01c5.93-7.16,11.54-14.68,16.37-22.61c2.36-3.88,2.63-9.9-2.01-12.27
		c-2.24-1.15-6.77,2.15-10.27,3.42c-0.32,0.12-0.66,0.17-2.11,0.54C299.63,269.1,313.65,262.31,313.12,246.77z"/>
	<path class="st0" d="M357.63,289.92c-2.36,5.03-4.99,10.62-7.61,16.21c-0.6-0.17-1.19-0.33-1.79-0.5c0-2.18,0-4.36,0-6.31
		c-3.53-2.06-6.6-3.85-9.67-5.64c-0.54,0.43-1.08,0.86-1.62,1.28c1.89,3.87,3.78,7.73,5.65,11.57c-6.63,0.07-10.25-2.71-10.87-9.75
		c-0.38-4.28,0.31-8.82,1.41-13.01c1.37-5.18,3.86-10.06,5.52-15.18c1.57-4.82,2.7-9.79,4.14-15.14c7.49,11.65-4.03,22.6-1.58,34.73
		c5.97-5.73,6.14-6.31,9.03-28.25c4.34,4.11,4.4,9.39,1.42,28.43c1.79-4.11,3.58-8.22,6.06-13.93c0.35,4.17,0.58,6.9,0.82,9.67
		c3.51-5.89,3.08-13.29-1.2-20.89c9.32,3.75,11.21,22.18,2.77,38.45C359.03,296.54,358.28,292.98,357.63,289.92z M351.44,275.09
		c-0.27-0.03-0.53-0.05-0.8-0.08c-1.5,3.85-2.7,7.86-4.65,11.47c-0.71,1.31-3.46,2.59-4.79,2.2c-1.45-0.43-3.15-2.73-3.27-4.33
		c-0.17-2.24,0.95-4.6,1.64-6.88c1.09-3.64,2.27-7.26,3.42-10.89c-0.52-0.12-1.04-0.23-1.57-0.35
		c-2.07,12.16-12.99,23.16-4.22,36.76c-0.74-3.73-1.49-7.46-2.23-11.17c4.12,0.2,7.37,0.35,10.74,0.52
		c0.08,1.02,0.18,2.35,0.31,3.99c2.04-0.92,3.51-1.58,5.88-2.65c-0.83,2.74-1.36,4.49-1.89,6.24c0.49,0.16,0.98,0.32,1.47,0.48
		c1.55-4.6,3.09-9.21,4.57-13.6c-2.41,1.2-4.47,2.24-6.53,3.27c0.05-2.33-0.1-4.69,0.21-6.99
		C350.1,280.39,350.86,277.75,351.44,275.09z"/>
	<path class="st0" d="M258.52,275.87c0.4-2.65,0.8-5.3,1.39-9.19c-5.13,3.51-9.21,6.3-13.29,9.09c0.2,0.55,0.41,1.1,0.61,1.65
		c2.99,0.17,5.98,0.34,10.51,0.6c-5.4,4.39-9.72,7.91-14.42,11.74c-2.25-4.72-5.36-9.43-6.54-14.58c-0.49-2.12,2.58-6.23,5.06-7.6
		c5.63-3.13,11.91-5.09,17.9-7.59c4.27-1.78,6.08,0.52,5.32,4.09c-0.91,4.28-3.05,8.3-4.66,12.43
		C259.76,276.29,259.14,276.08,258.52,275.87z M262.57,262c-6.81,2.36-13.39,4.31-19.68,6.94c-3.62,1.51-5.78,4.24-2.77,8.57
		c1.74,2.5,2.76,5.49,4.19,8.42c2.5-1.89,4.79-3.63,6.81-5.16c-2.41-1.29-4.41-2.37-6.42-3.44c1.4-2.06,2.36-4.78,4.28-6.04
		c4.11-2.68,8.76-4.52,13.07-6.91C262.61,264.07,262.48,262.52,262.57,262z"/>
	<path class="st0" d="M305.01,317.86c3.76,0.31,7.6,0.27,11.25,1.09c1.7,0.39,3.88,2.27,4.23,3.83c0.28,1.25-1.61,3.43-3.06,4.46
		c-1.14,0.81-3.23,1.02-4.64,0.61c-5.28-1.54-9.43-0.21-13.54,3.79c1.99-4.66,3.99-9.33,5.98-13.99
		C305.22,317.65,305.01,317.86,305.01,317.86z M304.27,322.78c0.22,0.61,0.45,1.22,0.67,1.82c2.47,0.51,4.91,1.17,7.4,1.51
		c5.27,0.74,7.01-1.67,3.96-5.82c-0.25,5.18-2.76,5.18-6.26,2.91c0.77-0.84,1.55-1.68,3.32-3.58
		C309.31,321.03,306.79,321.9,304.27,322.78z"/>
	<path class="st0" d="M332.54,317.57c2.44,4.63,1.63,6.34-3.09,6.4c-1.37,0.02-2.77-0.44-4.11-0.29c-1.04,0.11-2.01,0.83-3.75,1.61
		c0.7-3.23,1.23-5.69,1.94-8.99c3.16,0.51,6.2,1,9.24,1.49C332.76,317.79,332.54,317.57,332.54,317.57z"/>
	<path d="M360.75,316.5c1.76,2.07,3.04,3.56,4.82,5.65c0.81-1.9,1.38-3.24,1.95-4.58c0.5,0.06,1,0.12,1.5,0.18
		c-0.32,2.63-0.65,5.26-0.97,7.9c-2.32-0.57-4.63-1.14-6.95-1.71c-2.22,0.98-3.28,6.86-8.31,3.62c-2.03-1.31-2.36-5.23-3.68-8.48
		c-15.13-0.12-23.3-7.52-23.93-21.25c2.99,3.11,6.4,7.87,10.92,11.04c4.77,3.34,10.4,6.32,17.22,2.79c0,2.63-0.07,4.78,0.02,6.92
		c0.07,1.57,0.36,3.13,0.55,4.7c1.64-0.84,3.5-1.43,4.86-2.59C359.7,319.88,359.94,318.29,360.75,316.5z"/>
	<path d="M321.94,271.61c-1.76,9.09-3.53,18.17-5.32,27.41c-3.68-0.53-3.96-4.21-2.77-7.75c2.31-6.88,5.22-13.56,7.88-20.32
		C321.8,271.17,321.87,271.39,321.94,271.61z"/>
	<path d="M296.59,253.95c-4.67,8.67-8.77,17.71-14.14,25.92c-6.85,10.49-13.42,20.87-14.68,33.7c-0.1,0.98-0.21,2.2-0.81,2.84
		c-1.68,1.78-3.62,3.31-5.45,4.94c-1.28-1.52-2.56-3.03-3.54-4.19c-2.23,0.86-4.6,1.77-6.97,2.68c-0.46-4.29-0.91-8.58-1.4-13.19
		c-0.92,0.66-2.38,1.72-5.4,3.9c2.84-5.65,4.93-9.8,7.47-14.84c0.55,3.98,0.96,6.93,1.2,8.66c8.1-14.41,16.46-29.29,24.83-44.17
		c0.89,0.53,1.78,1.06,2.67,1.59c-3.43,5.17-6.62,10.53-10.35,15.48c-6.81,9.04-13.27,18.06-9.85,32.29
		c4.21-16.61,17.17-25.29,25.04-37.55c3.81-5.95,6.56-12.58,9.79-18.9C295.53,253.39,296.06,253.67,296.59,253.95z"/>
	<path d="M288.1,352.3c10.74-6.13,22.67-5.91,34.59-5.07c5.33,0.38,9.2-1.08,12.2-6.6c-7.79-4.92-15.95-4.55-23.91-3.07
		c-6.01,1.12-11.88,3.36-17.59,5.64c-3.08,1.23-4.84,1.03-6.25-2.01c-0.75-1.62-1.7-3.19-2.79-4.6c-2.81-3.64-1.81-6.19,1.44-9.2
		c6.11-5.66,11.19-12.55,17.76-17.53c3.71-2.81,9.54-2.87,14.47-3.92c0.22-0.05,0.97,2.39,2.08,5.22
		c-6.22-4.71-10.39-3.23-13.58,0.54c-5.42,6.42-10.41,13.2-15.5,19.89c-2.37,3.11-0.96,5.91,2.19,6.41
		c3.75,0.6,7.93,0.39,11.58-0.65c7.46-2.14,14.57-5.48,22.04-7.57c7.51-2.1,14.58-0.98,19.21,4.47
		c-5.07,6.39-9.49,12.35-14.41,17.86c-1.2,1.34-4.63,2.29-6.1,1.55C313.23,347.49,300.91,348,288.1,352.3z"/>
	<path d="M313.12,246.77c0.53,15.54-13.49,22.33-19.47,34.47c1.44-0.37,1.79-0.42,2.11-0.54c3.5-1.27,8.02-4.57,10.27-3.42
		c4.63,2.37,4.37,8.4,2.01,12.27c-4.83,7.93-10.44,15.45-16.37,22.61c-3.91,4.73-8.93,8.54-14.37,12.01
		c4.63-5.07,9.4-10.02,13.83-15.26c3.45-4.08,7.04-8.24,9.44-12.93c1.16-2.27,0.71-7.69-0.74-8.46c-2.67-1.42-6.96-1.38-9.92-0.24
		c-3.16,1.22-5.56,4.41-8.82,6.49C291.66,278.27,302.22,262.77,313.12,246.77z"/>
	<path d="M351.44,275.09c-0.59,2.66-1.35,5.3-1.71,7.98c-0.31,2.3-0.16,4.65-0.21,6.99c2.06-1.03,4.12-2.06,6.53-3.27
		c-1.48,4.4-3.02,9-4.57,13.6c-0.49-0.16-0.98-0.32-1.47-0.48c0.53-1.75,1.06-3.5,1.89-6.24c-2.37,1.07-3.85,1.73-5.88,2.65
		c-0.13-1.63-0.23-2.96-0.31-3.99c-3.37-0.16-6.62-0.32-10.74-0.52c0.74,3.71,1.48,7.44,2.23,11.17c-8.77-13.6,2.15-24.6,4.22-36.76
		c0.52,0.12,1.04,0.23,1.57,0.35c-1.14,3.63-2.33,7.25-3.42,10.89c-0.68,2.28-1.81,4.64-1.64,6.88c0.12,1.6,1.81,3.91,3.27,4.33
		c1.32,0.39,4.08-0.89,4.79-2.2c1.95-3.61,3.15-7.62,4.65-11.47C350.91,275.04,351.18,275.07,351.44,275.09z"/>
	<path d="M262.57,262c-0.1,0.52,0.04,2.07-0.52,2.38c-4.31,2.39-8.96,4.23-13.07,6.91c-1.92,1.25-2.88,3.98-4.28,6.04
		c2.01,1.08,4.01,2.15,6.42,3.44c-2.02,1.53-4.31,3.27-6.81,5.16c-1.42-2.93-2.45-5.92-4.19-8.42c-3.01-4.32-0.85-7.05,2.77-8.57
		C249.19,266.31,255.76,264.36,262.57,262z"/>
	<path d="M304.27,322.78c2.52-0.88,5.05-1.75,9.1-3.16c-1.77,1.91-2.55,2.75-3.32,3.58c3.5,2.27,6.01,2.27,6.26-2.91
		c3.04,4.15,1.31,6.56-3.96,5.82c-2.49-0.35-4.94-1-7.4-1.51C304.71,324,304.49,323.39,304.27,322.78z"/>
</g>
</svg>
