<?xml version="1.0" encoding="utf-8"?>
<!-- Generator: Adobe Illustrator 24.3.0, SVG Export Plug-In . SVG Version: 6.00 Build 0)  -->
<svg version="1.1" id="Layer_1" xmlns="http://www.w3.org/2000/svg" xmlns:xlink="http://www.w3.org/1999/xlink" x="0px" y="0px"
	 viewBox="0 0 612 792" style="enable-background:new 0 0 612 792;" xml:space="preserve">
<style type="text/css">
	.st0{fill:#FFFFFF;}
</style>
<g>
	<path class="st0" d="M276.91,610c-92.29,0-184.58,0-276.91,0C0,406.72,0,203.43,0,0c203.3,0,406.65,0,610,0
		c0,93.69,0,187.43,0,281.18c-0.92-9.44-1.09-19.02-2.89-28.28C588.56,157.7,537.44,85.45,452.85,37.52
		c-43.82-24.83-91.2-37.08-141.82-35.57c-18.46,0.55-37.35-1.02-55.3,2.32C131.75,27.3,50.96,100.15,11.05,218.95
		c-8.9,26.49-10.49,54.04-10.14,81.69c0.24,18.43,0.13,36.99,2.31,55.24c4.39,36.74,17.48,70.87,36.31,102.54
		c46.92,78.91,115.41,128.28,205.55,147.17C255.54,607.77,266.3,608.56,276.91,610z"/>
	<path d="M276.91,610c-10.62-1.44-21.37-2.23-31.83-4.42C154.94,586.7,86.45,537.32,39.53,458.42
		C20.7,426.75,7.62,392.61,3.23,355.87c-2.18-18.25-2.08-36.81-2.31-55.24c-0.35-27.65,1.24-55.2,10.14-81.69
		C50.96,100.15,131.75,27.3,255.72,4.27c17.96-3.34,36.84-1.77,55.3-2.32c50.63-1.51,98,10.74,141.82,35.57
		c84.59,47.93,135.71,120.18,154.26,215.37c1.81,9.26,1.97,18.85,2.89,28.28c0,17.86,0,35.72,0,53.59
		c-1.39,10.01-2.34,20.1-4.25,30.01c-12.12,62.87-41.46,116.75-87.72,160.79c-51.92,49.43-113.11,79.6-185.82,83.61
		c-0.96,0.05-1.89,0.54-2.83,0.83C311.89,610,294.4,610,276.91,610z M304.62,593.78C464.7,593.37,593.7,465.2,593.57,305.83
		C593.43,142.35,461.21,20.94,311.53,17.78C151.14,14.39,17.16,143.57,16.59,305.33C16.03,463.33,145.97,593.6,304.62,593.78z"/>
	<path class="st0" d="M329.38,610c0.94-0.28,1.87-0.77,2.83-0.83c72.72-4.02,133.9-34.18,185.82-83.61
		c46.26-44.05,75.6-97.92,87.72-160.79c1.91-9.91,2.86-20,4.25-30.01c0,91.75,0,183.49,0,275.24C516.46,610,422.92,610,329.38,610z"
		/>
	<path class="st0" d="M304.62,593.78C145.97,593.6,16.03,463.33,16.59,305.33C17.16,143.57,151.14,14.39,311.53,17.78
		c149.68,3.16,281.9,124.57,282.04,288.05C593.7,465.2,464.7,593.37,304.62,593.78z M305.01,587.18
		c154.75,0,281.02-125.21,282.42-277.48c1.44-156.64-124.26-284.48-279.96-285.62C149.53,22.92,23.63,150.19,23.13,303.26
		C22.61,461.24,148.07,587.18,305.01,587.18z"/>
	<path d="M305.01,587.18c-156.94,0-282.4-125.94-281.88-283.92c0.51-153.07,126.4-280.34,284.34-279.18
		c155.7,1.14,281.4,128.98,279.96,285.62C586.02,461.97,459.76,587.18,305.01,587.18z M556.06,305.7
		C556.02,167.78,443.67,55.56,305.32,55.27C167.25,54.98,54.81,166.97,54.26,305.34c-0.55,137.73,112.62,250.83,250.97,250.82
		C443.18,556.14,556.09,443.4,556.06,305.7z"/>
	<path class="st0" d="M556.06,305.7c0.03,137.7-112.87,250.44-250.83,250.45C166.88,556.17,53.71,443.06,54.26,305.34
		C54.81,166.97,167.25,54.98,305.32,55.27C443.67,55.56,556.02,167.78,556.06,305.7z M297.69,125.99c0.32,1.67,0.58,2.43,0.59,3.19
		c0.12,34.7,0.16,69.41,0.4,104.11c0.04,5.17-2.81,6.5-7.02,7.31c-49.89,9.57-69.15,71.79-36.87,108.01
		c3.93,4.41,3.42,7.56,0.39,12.12c-15.05,22.66-29.77,45.53-44.62,68.32c-3.14,4.82-6.35,9.6-9.94,15.01
		c-3.11-6.77-5.78-12.59-8.46-18.42c-0.52,0.18-1.05,0.36-1.57,0.55c-5.23,23.76-10.45,47.51-15.68,71.27c0.5,0.27,1,0.54,1.49,0.81
		c19.63-14.47,39.26-28.95,58.89-43.42c-0.15-0.58-0.3-1.16-0.45-1.73c-6.43,0-12.85,0-20.36,0c19.81-30.46,38.8-59.66,57.59-88.56
		c6.48,2.28,12.07,5.04,17.96,6.1c5.41,0.97,6.87,3.14,6.84,8.37c-0.21,33.08-0.1,66.17-0.12,99.25c0,1.89-0.25,3.79-0.42,6.36
		c-6.05-3.78-11.37-7.1-16.69-10.42c-0.39,0.4-0.77,0.81-1.16,1.21c8.62,22.91,17.24,45.83,25.86,68.74
		c0.48-0.08,0.96-0.15,1.44-0.23c8.63-23.04,17.27-46.08,25.9-69.12c-0.37-0.32-0.74-0.64-1.12-0.96
		c-5.45,3.51-10.9,7.02-16.6,10.68c-0.39-1.27-0.7-1.81-0.7-2.36c-0.04-35.11,0-70.22-0.13-105.34c-0.02-4.24,2.68-4.42,5.64-5.6
		c9.73-3.85,20.44-6.62,28.64-12.69c30.34-22.44,34.6-66.36,9.87-95.61c-4.25-5.03-4.46-8.38-0.73-13.52
		c6.07-8.37,11.42-17.26,17.08-25.93c12.19-18.68,24.37-37.36,37.12-56.9c3.14,6.93,5.91,13.03,9.41,20.75
		c5.78-26.14,11.14-50.38,16.88-76.38c-21.15,15.59-40.92,30.17-60.7,44.75c0.16,0.5,0.32,1,0.48,1.5c6.33,0,12.67,0,19.98,0
		c-1.46,2.5-2.28,4.04-3.22,5.49c-17.13,26.39-34.38,52.71-51.31,79.22c-2.71,4.24-5.04,4.72-9.29,2.57
		c-3.57-1.81-7.56-3.27-11.5-3.76c-5.74-0.71-7.22-3.46-7.18-8.9c0.26-33.89,0.23-67.79,0.31-101.68c0-1.11,0.2-2.22,0.38-4.12
		c6.1,3.77,11.54,7.13,16.97,10.49c0.34-0.39,0.68-0.77,1.02-1.16c-8.62-22.86-17.23-45.72-25.85-68.58c-0.54,0.1-1.08,0.2-1.62,0.3
		c-8.58,22.89-17.15,45.79-25.73,68.68c0.49,0.29,0.97,0.58,1.46,0.88C286.45,133.27,291.68,129.88,297.69,125.99z"/>
	<path d="M297.69,125.99c-6.01,3.89-11.23,7.28-16.46,10.66c-0.49-0.29-0.97-0.58-1.46-0.88c8.58-22.89,17.15-45.79,25.73-68.68
		c0.54-0.1,1.08-0.2,1.62-0.3c8.62,22.86,17.23,45.72,25.85,68.58c-0.34,0.39-0.68,0.77-1.02,1.16
		c-5.44-3.36-10.88-6.72-16.97-10.49c-0.18,1.9-0.38,3.01-0.38,4.12c-0.08,33.89-0.05,67.79-0.31,101.68
		c-0.04,5.44,1.44,8.19,7.18,8.9c3.94,0.49,7.93,1.95,11.5,3.76c4.25,2.15,6.58,1.66,9.29-2.57c16.94-26.51,34.18-52.83,51.31-79.22
		c0.94-1.45,1.76-2.99,3.22-5.49c-7.31,0-13.65,0-19.98,0c-0.16-0.5-0.32-1-0.48-1.5c19.77-14.58,39.55-29.16,60.7-44.75
		c-5.75,26-11.11,50.24-16.88,76.38c-3.5-7.71-6.26-13.82-9.41-20.75c-12.75,19.54-24.93,38.22-37.12,56.9
		c-5.66,8.67-11.01,17.56-17.08,25.93c-3.73,5.14-3.52,8.49,0.73,13.52c24.73,29.25,20.47,73.17-9.87,95.61
		c-8.2,6.06-18.91,8.83-28.64,12.69c-2.96,1.17-5.66,1.35-5.64,5.6c0.13,35.11,0.09,70.22,0.13,105.34c0,0.55,0.31,1.09,0.7,2.36
		c5.7-3.67,11.15-7.18,16.6-10.68c0.37,0.32,0.74,0.64,1.12,0.96c-8.63,23.04-17.27,46.08-25.9,69.12
		c-0.48,0.08-0.96,0.15-1.44,0.23c-8.62-22.91-17.24-45.83-25.86-68.74c0.39-0.4,0.77-0.81,1.16-1.21
		c5.32,3.32,10.64,6.64,16.69,10.42c0.18-2.57,0.42-4.47,0.42-6.36c0.02-33.08-0.08-66.17,0.12-99.25c0.03-5.24-1.43-7.4-6.84-8.37
		c-5.89-1.06-11.48-3.82-17.96-6.1c-18.79,28.9-37.78,58.09-57.59,88.56c7.51,0,13.93,0,20.36,0c0.15,0.58,0.3,1.16,0.45,1.73
		c-19.63,14.47-39.26,28.95-58.89,43.42c-0.5-0.27-1-0.54-1.49-0.81c5.23-23.76,10.45-47.51,15.68-71.27
		c0.52-0.18,1.05-0.36,1.57-0.55c2.68,5.83,5.35,11.66,8.46,18.42c3.59-5.41,6.8-10.19,9.94-15.01
		c14.85-22.79,29.57-45.67,44.62-68.32c3.03-4.57,3.54-7.71-0.39-12.12c-32.29-36.23-13.02-98.44,36.87-108.01
		c4.21-0.81,7.05-2.14,7.02-7.31c-0.24-34.7-0.28-69.4-0.4-104.11C298.27,128.42,298.01,127.66,297.69,125.99z M313.92,340.57
		c14.29-4.09,23.42-12.7,26.84-26.69c2.61-10.68,0.56-20.54-6.45-29.49c-4.91,5.18-5.37,7.13-3.57,13.51
		c3.66,12.99-1.01,24.88-12.86,30.71C312.32,331.34,311.84,334.84,313.92,340.57z M297.79,271.03
		c-12.97,4.04-21.82,11.58-25.61,24.19c-3.29,10.93-2.36,21.35,5.09,30.78c4.59-3.98,5.39-8.25,4.02-13.54
		c-3.3-12.79,0.76-22.19,12.45-29.21C298.27,280.52,299.73,277.03,297.79,271.03z M297.34,340.21c-0.35-4.2-0.61-7.27-0.86-10.34
		c-0.6-0.1-1.21-0.21-1.81-0.31c-1.58,2.49-3.15,4.98-5.1,8.06C292.41,338.56,294.35,339.21,297.34,340.21z M321.59,274.06
		c-2.32-1.1-4.13-1.97-6.6-3.15c0,4.06,0,7.16,0,10.26c0.46,0.18,0.93,0.35,1.39,0.53C317.87,279.52,319.35,277.34,321.59,274.06z"
		/>
	<path class="st0" d="M313.92,340.57c-2.08-5.72-1.6-9.23,3.96-11.96c11.85-5.82,16.52-17.71,12.86-30.71
		c-1.79-6.37-1.33-8.33,3.57-13.51c7.01,8.95,9.06,18.81,6.45,29.49C337.34,327.86,328.21,336.48,313.92,340.57z"/>
	<path class="st0" d="M297.79,271.03c1.95,6,0.48,9.49-4.05,12.22c-11.69,7.03-15.75,16.42-12.45,29.21
		c1.36,5.29,0.57,9.55-4.02,13.54c-7.44-9.43-8.38-19.85-5.09-30.78C275.97,282.61,284.81,275.07,297.79,271.03z"/>
	<path class="st0" d="M297.34,340.21c-2.99-1-4.93-1.64-7.78-2.59c1.95-3.08,3.53-5.57,5.1-8.06c0.6,0.1,1.21,0.21,1.81,0.31
		C296.74,332.93,296.99,336,297.34,340.21z"/>
	<path class="st0" d="M321.59,274.06c-2.24,3.28-3.72,5.46-5.21,7.64c-0.46-0.18-0.93-0.35-1.39-0.53c0-3.1,0-6.2,0-10.26
		C317.46,272.09,319.28,272.96,321.59,274.06z"/>
</g>
</svg>
