<?xml version="1.0" encoding="utf-8"?>
<!-- Generator: Adobe Illustrator 24.3.0, SVG Export Plug-In . SVG Version: 6.00 Build 0)  -->
<svg version="1.1" id="Layer_1" xmlns="http://www.w3.org/2000/svg" xmlns:xlink="http://www.w3.org/1999/xlink" x="0px" y="0px"
	 viewBox="0 0 612 792" style="enable-background:new 0 0 612 792;" xml:space="preserve">
<style type="text/css">
	.st0{fill:#FFFFFF;}
</style>
<g>
	<path class="st0" d="M53.11,146.04c168.48,0,337.15,0,505.89,0c0,166.53,0,333.07,0,499.75c-168.52,0-337.11,0-505.89,0
		C53.11,479.3,53.11,312.68,53.11,146.04z M558.95,393.46c-2.6-0.97-4.11-1.6-5.66-2.11c-17.54-5.82-35.09-11.61-52.63-17.42
		c-5.76-1.91-6.84-6.36-2.42-10.69c3.47-3.4,6.67-6.75,7.63-11.88c0.99-5.29-1.08-9.01-6.47-9.2c-2.58-0.09-5.2,1.14-8.01,1.83
		c-1.28-4.34-2.72-9.21-4.12-13.98c11.23-9.95,10.53-19.81-1.62-28.57c5-12,10.27-23.84,14.87-35.93
		c4.3-11.33,8.67-22.77,8.34-35.21c-0.74-28.69-22.54-53.31-51.04-57.27c-24.83-3.45-48.49,2.44-71.18,11.51
		c-10.98,4.39-20.72,11.89-30.9,18.18c-2.71,1.67-5.05,2.41-8.31,1.56c-5.46-1.42-11.09-2.3-16.69-3.11
		c-8.49-1.22-10.46-3.87-7.34-11.7c1.62-4.07,1.47-7.44-2.41-9.23c-5.33-2.46-6.1-7.32-7.69-11.89c-0.93-2.67-1.73-5.38-2.63-8.06
		c-1.51-4.45-3.06-8.88-4.92-14.29c-5.84,17.59-11.31,33.99-16.69,50.41c-0.79,2.41-1.8,3.57-4.65,4.12
		c-13.21,2.53-26.32,5.6-39.51,8.27c-1.39,0.28-3.48-0.34-4.54-1.31c-5.67-5.2-11.5-6.6-17.83-3.88c-6.33,2.73-9.66,8.5-9.45,16.09
		c0.03,1.12-0.34,2.8-1.12,3.31c-9.01,5.89-18.14,11.61-27.38,17.47c-18.62-9.31-37.41-18.7-57.11-28.56
		c9.23,18.49,17.85,36.07,26.81,53.47c1.59,3.09,1.08,4.81-0.79,7.39c-5.46,7.53-10.79,15.2-15.65,23.12
		c-2.2,3.58-4.08,5.54-8.76,5.09c-6.8-0.66-12.54,3.58-14.79,9.63c-2.31,6.2-0.65,12.69,4.44,17.23c1.08,0.96,2.21,1.87,2.44,2.07
		c-2.72,13.33-5.61,25.79-7.65,38.4c-0.68,4.2-2.29,5.84-6.03,6.99c-11.13,3.44-22.16,7.2-33.22,10.87
		c-6.76,2.24-13.5,4.55-21.25,7.17c3.21,1.12,5.37,1.91,7.55,2.63c16.12,5.34,32.21,10.76,48.39,15.9c3.24,1.03,4.24,2.77,4.86,5.87
		c2.17,10.91,4.8,21.74,6.99,32.65c0.34,1.7-0.12,4.17-1.2,5.43c-4.67,5.45-6.18,11.67-3.38,17.51c3.04,6.35,8.3,9.22,15.29,9.29
		c1.24,0.01,3.03,0.51,3.62,1.41c6.46,9.86,12.72,19.84,19.11,29.9c-1.34,6.39-5.84,10.16-12.29,12.43
		c-3.88,1.37-7.4,3.78-11.04,5.78c-11.31,6.22-17.44,15.61-15.61,28.64c1.11,7.91-0.72,13.58-6.71,19.04
		c-5.18,4.73-8.1,11.55-4.91,18.61c2.36,5.21,6,9.93,9.63,14.43c1.21,1.5,4.6,2.8,6.2,2.17c8.96-3.51,18.18-6.88,22.93-16.45
		c0.64-1.29,2.32-2.6,3.72-2.89c13.23-2.69,23.74-9.22,30.1-21.36c2.46-4.69,3.72-10.02,6.24-14.66c2.67-4.91,4.59-9.72,3.08-15.25
		c8.74,5.55,17.32,10.93,25.78,16.48c0.96,0.63,1.76,2.31,1.75,3.5c-0.02,7.99,3.01,13.55,9.18,16.27
		c6.27,2.76,12.41,1.28,18.25-4.09c0.97-0.89,2.89-1.47,4.16-1.2c12.52,2.63,25.02,5.39,37.46,8.36c1.53,0.36,3.4,1.91,3.93,3.35
		c2.55,6.85,4.66,13.87,6.98,20.81c4.1,12.33,8.24,24.64,12.73,38.07c0.72-1.88,1.02-2.6,1.26-3.33
		c6.06-18.31,12.03-36.65,18.27-54.9c0.62-1.8,2.58-3.99,4.32-4.42c11.45-2.86,22.99-5.35,34.54-7.76c1.51-0.31,3.66-0.01,4.81,0.9
		c5.23,4.13,10.92,5.04,16.88,2.46c5.83-2.53,8.67-7.4,9.3-13.75c0.14-1.46,1.28-3.27,2.51-4.12c8.5-5.84,17.11-11.53,25.8-17.07
		c1.22-0.78,3.48-1.13,4.7-0.54c15.24,7.49,30.38,15.2,45.55,22.83c3.92,1.97,7.87,3.89,12.91,6.38c-1.19-2.5-1.79-3.81-2.43-5.09
		c-8.89-17.68-17.85-35.32-26.57-53.08c-0.72-1.46-0.46-4.09,0.42-5.52c4.88-7.93,9.99-15.72,15.28-23.38
		c0.98-1.42,3.08-2.76,4.75-2.88c6.77-0.49,11.95-3.34,14.63-9.56c2.77-6.43,1.29-12.3-3.43-17.52c-0.93-1.03-1.39-3.13-1.09-4.52
		c2.28-10.72,5.02-21.35,7.13-32.1c0.7-3.59,2.09-5.22,5.57-6.34C519.91,406.57,538.83,400.16,558.95,393.46z"/>
	<path d="M558.95,393.46c-20.12,6.7-39.04,13.11-58.05,19.22c-3.48,1.12-4.87,2.75-5.57,6.34c-2.11,10.75-4.85,21.38-7.13,32.1
		c-0.3,1.4,0.16,3.49,1.09,4.52c4.72,5.23,6.2,11.1,3.43,17.52c-2.68,6.22-7.86,9.07-14.63,9.56c-1.67,0.12-3.77,1.46-4.75,2.88
		c-5.29,7.66-10.4,15.45-15.28,23.38c-0.88,1.43-1.13,4.06-0.42,5.52c8.72,17.76,17.68,35.4,26.57,53.08
		c0.65,1.28,1.24,2.59,2.43,5.09c-5.05-2.49-8.99-4.4-12.91-6.38c-15.17-7.63-30.31-15.34-45.55-22.83c-1.22-0.6-3.48-0.24-4.7,0.54
		c-8.7,5.54-17.3,11.23-25.8,17.07c-1.23,0.84-2.36,2.65-2.51,4.12c-0.63,6.35-3.46,11.22-9.3,13.75
		c-5.95,2.58-11.64,1.67-16.88-2.46c-1.15-0.91-3.31-1.21-4.81-0.9c-11.55,2.41-23.09,4.91-34.54,7.76
		c-1.73,0.43-3.7,2.62-4.32,4.42c-6.24,18.25-12.21,36.59-18.27,54.9c-0.24,0.73-0.55,1.45-1.26,3.33
		c-4.49-13.43-8.63-25.75-12.73-38.07c-2.31-6.94-4.43-13.95-6.98-20.81c-0.53-1.44-2.41-2.98-3.93-3.35
		c-12.44-2.97-24.94-5.73-37.46-8.36c-1.27-0.27-3.19,0.31-4.16,1.2c-5.84,5.36-11.98,6.85-18.25,4.09
		c-6.16-2.72-9.2-8.28-9.18-16.27c0-1.19-0.79-2.87-1.75-3.5c-8.46-5.56-17.04-10.93-25.78-16.48c1.51,5.52-0.41,10.34-3.08,15.25
		c-2.52,4.65-3.78,9.97-6.24,14.66c-6.36,12.14-16.87,18.67-30.1,21.36c-1.41,0.29-3.08,1.6-3.72,2.89
		c-4.75,9.57-13.97,12.94-22.93,16.45c-1.6,0.63-4.99-0.67-6.2-2.17c-3.62-4.49-7.27-9.22-9.63-14.43
		c-3.19-7.06-0.27-13.88,4.91-18.61c5.98-5.45,7.81-11.12,6.71-19.04c-1.83-13.03,4.3-22.42,15.61-28.64
		c3.65-2,7.16-4.41,11.04-5.78c6.45-2.28,10.95-6.05,12.29-12.43c-6.39-10.06-12.66-20.04-19.11-29.9c-0.59-0.9-2.38-1.39-3.62-1.41
		c-6.99-0.07-12.25-2.93-15.29-9.29c-2.79-5.84-1.29-12.06,3.38-17.51c1.08-1.26,1.54-3.73,1.2-5.43
		c-2.19-10.91-4.81-21.73-6.99-32.65c-0.62-3.1-1.62-4.84-4.86-5.87c-16.18-5.14-32.27-10.56-48.39-15.9
		c-2.18-0.72-4.33-1.5-7.55-2.63c7.75-2.62,14.49-4.93,21.25-7.17c11.06-3.67,22.09-7.43,33.22-10.87c3.74-1.16,5.35-2.8,6.03-6.99
		c2.04-12.6,4.93-25.07,7.65-38.4c-0.23-0.2-1.36-1.1-2.44-2.07c-5.09-4.54-6.75-11.03-4.44-17.23c2.25-6.05,7.99-10.29,14.79-9.63
		c4.68,0.45,6.56-1.51,8.76-5.09c4.86-7.93,10.19-15.59,15.65-23.12c1.87-2.58,2.38-4.31,0.79-7.39
		c-8.96-17.4-17.58-34.98-26.81-53.47c19.7,9.85,38.48,19.24,57.11,28.56c9.24-5.85,18.37-11.57,27.38-17.47
		c0.78-0.51,1.15-2.19,1.12-3.31c-0.2-7.59,3.12-13.36,9.45-16.09c6.32-2.73,12.15-1.33,17.83,3.88c1.06,0.97,3.14,1.6,4.54,1.31
		c13.19-2.67,26.3-5.75,39.51-8.27c2.85-0.54,3.87-1.71,4.65-4.12c5.38-16.43,10.86-32.83,16.69-50.41
		c1.87,5.41,3.41,9.84,4.92,14.29c0.91,2.68,1.71,5.39,2.63,8.06c1.59,4.57,2.36,9.44,7.69,11.89c3.88,1.79,4.03,5.16,2.41,9.23
		c-3.12,7.83-1.15,10.48,7.34,11.7c5.6,0.8,11.22,1.69,16.69,3.11c3.26,0.85,5.6,0.11,8.31-1.56c10.18-6.29,19.93-13.79,30.9-18.18
		c22.68-9.07,46.34-14.97,71.18-11.51c28.51,3.97,50.3,28.59,51.04,57.27c0.32,12.44-4.04,23.88-8.34,35.21
		c-4.59,12.09-9.87,23.93-14.87,35.93c12.15,8.76,12.85,18.62,1.62,28.57c1.4,4.77,2.84,9.64,4.12,13.98
		c2.81-0.69,5.44-1.92,8.01-1.83c5.39,0.19,7.46,3.91,6.47,9.2c-0.96,5.14-4.16,8.48-7.63,11.88c-4.42,4.33-3.34,8.79,2.42,10.69
		c17.54,5.81,35.09,11.6,52.63,17.42C554.84,391.86,556.35,392.48,558.95,393.46z M318.88,184.9c-0.37-0.17-0.74-0.35-1.11-0.52
		c-0.89,0.64-1.95,1.13-2.63,1.94c-5.22,6.25-10.37,12.55-15.54,18.84c-7.27,8.85-14.39,17.83-21.88,26.49
		c-3.89,4.5-8.6,8.28-12.67,12.63c-9.11,9.72-17.96,19.67-27.07,29.38c-20.53,21.88-40.5,44.19-56.39,69.82
		c-4.75,7.66-7.66,15.87-8.65,24.74c-3.28,29.43,10.64,51.88,29.56,72.26c0.56,0.6,1.26,1.1,1.96,1.54
		c12.6,8.03,12.68,6.43,18.07-5.01c0.63-1.34,1.42-2.84,1.35-4.23c-0.09-1.83-0.38-4.32-1.58-5.29c-3.61-2.89-7.85-4.98-11.57-7.74
		c-15-11.12-18.54-36.33-14.5-52.2c2.88-11.31,8.63-22.54,15.52-32.06c20.52-28.36,44.31-54.06,68.61-79.23
		c8.78-9.09,17.84-17.89,26.92-26.98c1.92,1.72,3.58,3.11,5.12,4.6c8.68,8.43,16.27,9.06,26.71,2.35
		c8.68-5.58,17.36-11.18,26.19-16.54c20.78-12.61,42.48-22.76,66.92-26.28c14.61-2.11,28.1,0.23,40.9,7.35
		c5.18,2.88,8.6,7.13,10.51,12.78c4.94,14.6,4.08,29.17-2.08,42.88c-8.63,19.24-18.5,37.93-27.75,56.9
		c-3.13,6.42-6.27,12.85-8.88,19.48c-3.51,8.92-5.2,18.23-3.56,28.45c-6.62-6.41-8.35-10.29-5.36-17.65
		c4.23-10.43,9.63-20.38,14.47-30.56c3.72-7.83,7.35-15.71,11.02-23.57c-0.35-0.48-0.69-0.95-1.03-1.43
		c-1.72,0.33-3.56,0.38-5.15,1.03c-11.09,4.53-21.96,9.65-33.22,13.68c-12.92,4.62-10.26,6.87-20.37-6.51
		c-3.56-4.71-7.48-9.16-11.56-14.12c-13.05,15.36-25.32,29.8-38.43,45.23c-4.21-4.57-8.47-8.49-11.81-13.08
		c-2.28-3.12-4.46-3.86-7.37-1.98c-6.27,4.05-12.29,8.49-18.57,12.51c-1.81,1.16-4.17,1.44-6.29,2.13
		c-0.57-2.09-1.35-4.16-1.68-6.29c-0.56-3.65-0.06-7.67-1.46-10.92c-1.22-2.82-4.55-5.64-8.13-2.89
		c-6.06,4.66-11.92,9.63-17.45,14.9c-2.16,2.06-4.21,5.17-4.55,8.02c-0.71,5.94-3.32,10.52-7.76,14
		c-8.36,6.56-16.86,12.96-25.53,19.1c-6.63,4.7-11.7,10.66-14.04,18.26c-1.89,6.13-5.47,10.43-10.19,14.32
		c-3.06,2.52-5.94,5.32-8.51,8.33c-2.22,2.59-2.21,5.47,0.73,7.84c4,3.23,7.54,7.48,12.07,9.53c10.25,4.65,21.01,8.17,31.51,12.29
		c1.67,0.66,3.51,1.76,4.45,3.19c1.57,2.39,2.16,5.42,3.73,7.81c5.17,7.87,10.44,15.7,15.98,23.31c6.41,8.8,17.04,10.6,26.15,14.77
		c3.49,1.59,7.91,2.75,11.54,2.08c9.24-1.68,18.62-3.64,27.32-7.06c15.63-6.15,27.6-18.1,39.53-29.24
		c13.16-12.29,25.2-25.92,35.89-40.65c9.47-13.04,19.87-25.4,29.88-38.05c0.14-0.17,0.6-0.09,1.98-0.26
		c-0.29,2.01-0.05,4.04-0.87,5.44c-2.91,4.98-5.9,9.97-9.38,14.55c-17.71,23.35-35.22,46.86-56.16,67.56
		c-15.17,15-32.59,26.32-52.41,33.97c-8.68,3.35-18.37,6.15-26.76,2.08c-10.93-5.31-21.31-12.37-30.65-20.19
		c-9.14-7.66-8.35-8.37-18.62-1.21c-3.1,2.16-3.34,4.23-1.5,7.05c16.25,24.95,40.08,35.24,68.98,34.5
		c16.89-0.43,31.59-7.91,45.32-17.29c23.47-16.03,42.77-36.44,61.06-57.93c23.3-27.38,46.71-54.66,69.93-82.11
		c1.73-2.05,2.31-5.07,3.43-7.64c-0.49-0.45-0.97-0.91-1.46-1.36c-1.91,0.9-4.01,1.54-5.69,2.76c-7.18,5.17-14.75,9.37-23.93,8.32
		c-2.21-0.25-5.67-2.21-6.04-3.92c-1.69-7.94-3.76-15.87,0.29-24.09c10.14-20.56,20.41-41.1,29.32-62.2
		c4.66-11.03,8.61-23.12,9.27-34.93c1.78-31.84-26.24-57.59-59.53-55.6c-28.31,1.68-55.04,8.54-78.77,25.38
		c-9.94,7.05-21.4,12-32.28,17.7c-3.86,2.02-7.81,1.12-11.38-1.22c-6.71-4.4-9.34-10.79-7.28-18.53c1.02-3.84,2.65-7.52,3.92-11.3
		C318.38,187.77,318.57,186.32,318.88,184.9z M352.12,311.78c3.13-2.6,6.77-5.05,9.68-8.17c6.01-6.44,11.46-13.41,17.47-19.85
		c8.19-8.79,13.42-8.56,21.37,0.53c3.28,3.75,6.21,7.85,9.77,11.31c1.36,1.32,4.3,2.2,6.08,1.71c8.49-2.32,16.77-5.39,25.24-7.78
		c5.52-1.56,11.18-2.9,16.87-3.43c3.5-0.33,4.86-1.64,5.94-4.66c1.61-4.5,3.64-8.87,5.65-13.22c3.06-6.63,6.58-13.07,9.3-19.83
		c3.81-9.5,5.11-19.33,1.08-29.17c-5.49-13.43-22.9-22.3-39.8-21.04c-19.84,1.48-37.09,9.67-54.1,19.13
		c-14.95,8.31-30.23,16.03-45.52,23.71c-10.61,5.33-20.87,4.75-30.16-3.34c-0.59-0.51-1.41-0.76-2.41-1.28
		c-7.58,8.12-15.07,16.13-22.54,24.15c-11.8,12.66-23.61,25.3-35.31,38.05c-0.96,1.05-1.15,2.81-1.69,4.24
		c1.33,0.42,2.64,1.05,4,1.21c4.29,0.48,8.66,0.47,12.89,1.23c5.65,1.02,11.57,4.45,16.68,3.42c5.22-1.05,9.49-6.41,14.42-9.49
		c1.23-0.77,3.84-0.7,5.03,0.12c3.13,2.16,5.79,4.99,8.71,7.46c7.01,5.95,12.76,5.77,18.2-0.54c3.72-4.32,8.08-4.73,13.06-1.8
		C345.44,306.44,348.46,309.09,352.12,311.78z M160.86,525.51c-0.68,0-2.95-0.67-4.48,0.11c-9.75,4.97-19.49,10-28.88,15.6
		c-2.58,1.54-4.81,4.83-5.72,7.77c-4.96,16.05,1.41,31.23,15.71,39.05c3.34,1.83,8.48,2.81,11.88,1.61
		c9.61-3.38,18.54-8.35,22.81-18.59c1.92-4.6,3.53-9.35,5.72-13.81c4.63-9.42,4.2-11.9-3.65-18.92c-3.22-2.88-6.19-6.04-9.27-9.07
		c0.4-0.41,0.81-0.82,1.21-1.23c2.68,2.59,5.25,5.31,8.06,7.75c4.13,3.59,6.84,2.85,10.47-0.99c4.64-4.91,9.75-9.45,15.03-13.66
		c3.41-2.72,7.51-4.59,11.51-6.96c-6.26-8.93-12.49-17.04-22.61-21.11c-2.75-1.11-4.56-0.63-5.4,2.17
		c-2.37,7.85-7.77,13.26-13.71,18.56C166.2,516.77,164.04,521.1,160.86,525.51z M269.03,311.86c-7.8-1.2-14.55-1.73-20.99-3.47
		c-2.87-0.77-4.58-0.78-6.49,1.19c-16.26,16.81-31.09,34.61-39.1,57.05c-2.38,6.67-3.75,13.53-1.4,20.5
		c0.69,2.06,2.15,5.36,3.37,5.41c2.04,0.08,4.37-1.74,6.2-3.22c2.28-1.84,3.86-5.3,6.33-6.01c5.36-1.53,8.23-4.98,8.55-9.82
		c0.82-12.61,9.25-18.27,19.24-23.11c5.66-2.74,11.25-5.82,16.32-9.51c2.57-1.86,5.79-5.68,5.43-8.13
		c-0.81-5.51,1.35-9.97,2.46-14.86C269.47,315.6,269.03,313.09,269.03,311.86z M260.96,460.9c-1.24-4.4-2.3-8.15-3.36-11.9
		c-0.9-3.17-1.43-6.52-2.85-9.43c-0.65-1.33-2.96-2.23-4.67-2.59c-3.31-0.7-6.91-0.32-10.06-1.38c-8.65-2.89-10.19-2.34-14.55,5.8
		c-4.31,8.04-8.85,15.96-13.44,23.85c-3.03,5.21-2.68,6.6,3.28,8.29c4.65,1.32,8.52,3,10.43,8.09c1.83,4.88,4.23,4.72,8.09,0.95
		c5.08-4.95,10.43-9.65,15.94-14.12C253.37,465.56,257.45,463.25,260.96,460.9z M224.88,498.4c-1.19-4.6-1.37-9.07-3.39-12.44
		c-6.36-10.57-21.55-12.82-31.02-5.14c-3.38,2.75-2.94,6.18,1.12,8.03c10.04,4.58,18.48,10.86,23.45,21.13
		c1.44,2.98,4.05,3.4,5.59,0.22C222.47,506.41,223.53,502.25,224.88,498.4z M117.65,576.82c-3.03,4.02-6.47,7.53-8.63,11.7
		c-3.69,7.14,2.37,18.03,10.29,19.42c5.75,1.01,17.51-6.65,18.53-12.26c0.18-1.01-0.48-2.6-1.29-3.29
		C130.61,587.35,124.53,582.46,117.65,576.82z"/>
	<path class="st0" d="M318.88,184.9c-0.31,1.41-0.5,2.87-0.96,4.23c-1.27,3.78-2.9,7.46-3.92,11.3c-2.06,7.75,0.57,14.14,7.28,18.53
		c3.57,2.34,7.52,3.24,11.38,1.22c10.88-5.7,22.33-10.65,32.28-17.7c23.74-16.84,50.47-23.69,78.77-25.38
		c33.3-1.98,61.32,23.76,59.53,55.6c-0.66,11.81-4.62,23.9-9.27,34.93c-8.91,21.1-19.18,41.64-29.32,62.2
		c-4.05,8.22-1.98,16.14-0.29,24.09c0.36,1.71,3.82,3.66,6.04,3.92c9.18,1.05,16.75-3.14,23.93-8.32c1.68-1.21,3.78-1.85,5.69-2.76
		c0.49,0.45,0.97,0.91,1.46,1.36c-1.12,2.57-1.69,5.59-3.43,7.64c-23.22,27.45-46.63,54.73-69.93,82.11
		c-18.29,21.49-37.59,41.9-61.06,57.93c-13.73,9.38-28.43,16.85-45.32,17.29c-28.9,0.74-52.72-9.56-68.98-34.5
		c-1.84-2.82-1.6-4.89,1.5-7.05c10.27-7.16,9.48-6.45,18.62,1.21c9.34,7.83,19.72,14.88,30.65,20.19
		c8.38,4.07,18.08,1.27,26.76-2.08c19.82-7.65,37.24-18.97,52.41-33.97c20.94-20.7,38.45-44.21,56.16-67.56
		c3.48-4.59,6.46-9.58,9.38-14.55c0.82-1.4,0.59-3.43,0.87-5.44c-1.38,0.17-1.84,0.09-1.98,0.26
		c-10.01,12.64-20.41,25.01-29.88,38.05c-10.69,14.73-22.73,28.35-35.89,40.65c-11.92,11.14-23.9,23.09-39.53,29.24
		c-8.7,3.42-18.08,5.38-27.32,7.06c-3.63,0.66-8.06-0.49-11.54-2.08c-9.11-4.17-19.74-5.96-26.15-14.77
		c-5.54-7.61-10.81-15.44-15.98-23.31c-1.57-2.39-2.16-5.42-3.73-7.81c-0.94-1.43-2.78-2.53-4.45-3.19
		c-10.5-4.12-21.26-7.64-31.51-12.29c-4.53-2.06-8.07-6.3-12.07-9.53c-2.94-2.38-2.95-5.25-0.73-7.84c2.57-3.01,5.45-5.81,8.51-8.33
		c4.72-3.89,8.3-8.18,10.19-14.32c2.34-7.6,7.41-13.56,14.04-18.26c8.67-6.14,17.17-12.55,25.53-19.1c4.44-3.48,7.05-8.07,7.76-14
		c0.34-2.84,2.39-5.96,4.55-8.02c5.53-5.27,11.39-10.24,17.45-14.9c3.58-2.75,6.91,0.07,8.13,2.89c1.4,3.24,0.9,7.27,1.46,10.92
		c0.33,2.13,1.1,4.19,1.68,6.29c2.11-0.69,4.48-0.97,6.29-2.13c6.28-4.02,12.3-8.46,18.57-12.51c2.91-1.88,5.1-1.15,7.37,1.98
		c3.34,4.59,7.6,8.51,11.81,13.08c13.11-15.43,25.37-29.86,38.43-45.23c4.08,4.97,7.99,9.41,11.56,14.12
		c10.11,13.38,7.45,11.13,20.37,6.51c11.26-4.03,22.13-9.15,33.22-13.68c1.59-0.65,3.43-0.7,5.15-1.03
		c0.34,0.48,0.69,0.95,1.03,1.43c-3.67,7.86-7.3,15.74-11.02,23.57c-4.84,10.18-10.24,20.13-14.47,30.56
		c-2.99,7.36-1.26,11.24,5.36,17.65c-1.64-10.22,0.05-19.53,3.56-28.45c2.61-6.63,5.75-13.07,8.88-19.48
		c9.25-18.97,19.12-37.66,27.75-56.9c6.15-13.72,7.02-28.29,2.08-42.88c-1.91-5.65-5.33-9.89-10.51-12.78
		c-12.79-7.12-26.28-9.45-40.9-7.35c-24.44,3.52-46.14,13.68-66.92,26.28c-8.83,5.35-17.51,10.95-26.19,16.54
		c-10.44,6.71-18.02,6.08-26.71-2.35c-1.54-1.5-3.2-2.88-5.12-4.6c-9.08,9.08-18.15,17.89-26.92,26.98
		c-24.31,25.17-48.09,50.87-68.61,79.23c-6.89,9.52-12.64,20.75-15.52,32.06c-4.04,15.87-0.51,41.09,14.5,52.2
		c3.73,2.76,7.97,4.84,11.57,7.74c1.2,0.96,1.49,3.46,1.58,5.29c0.06,1.39-0.72,2.89-1.35,4.23c-5.39,11.44-5.47,13.04-18.07,5.01
		c-0.7-0.45-1.4-0.94-1.96-1.54c-18.92-20.38-32.84-42.83-29.56-72.26c0.99-8.87,3.9-17.08,8.65-24.74
		c15.89-25.63,35.86-47.94,56.39-69.82c9.11-9.71,17.97-19.66,27.07-29.38c4.08-4.35,8.78-8.13,12.67-12.63
		c7.49-8.66,14.61-17.64,21.88-26.49c5.17-6.29,10.32-12.6,15.54-18.84c0.68-0.81,1.75-1.3,2.63-1.94
		C318.14,184.56,318.51,184.73,318.88,184.9z"/>
	<path class="st0" d="M352.12,311.78c-3.66-2.7-6.68-5.34-10.08-7.33c-4.99-2.93-9.34-2.51-13.06,1.8
		c-5.45,6.31-11.19,6.49-18.2,0.54c-2.92-2.48-5.58-5.31-8.71-7.46c-1.19-0.82-3.8-0.89-5.03-0.12c-4.93,3.09-9.21,8.45-14.42,9.49
		c-5.12,1.03-11.03-2.4-16.68-3.42c-4.23-0.77-8.6-0.75-12.89-1.23c-1.36-0.15-2.67-0.79-4-1.21c0.55-1.43,0.73-3.19,1.69-4.24
		c11.7-12.74,23.52-25.39,35.31-38.05c7.47-8.02,14.96-16.03,22.54-24.15c1,0.52,1.82,0.76,2.41,1.28
		c9.29,8.09,19.54,8.67,30.16,3.34c15.29-7.68,30.57-15.4,45.52-23.71c17.01-9.46,34.26-17.65,54.1-19.13
		c16.89-1.26,34.3,7.61,39.8,21.04c4.02,9.84,2.73,19.67-1.08,29.17c-2.72,6.77-6.24,13.2-9.3,19.83
		c-2.01,4.35-4.04,8.71-5.65,13.22c-1.08,3.02-2.44,4.33-5.94,4.66c-5.68,0.53-11.35,1.87-16.87,3.43
		c-8.47,2.4-16.75,5.46-25.24,7.78c-1.79,0.49-4.72-0.39-6.08-1.71c-3.56-3.46-6.49-7.56-9.77-11.31
		c-7.95-9.09-13.18-9.32-21.37-0.53c-6.01,6.45-11.45,13.41-17.47,19.85C358.88,306.74,355.24,309.18,352.12,311.78z"/>
	<path class="st0" d="M160.86,525.51c3.18-4.4,5.34-8.74,8.69-11.73c5.94-5.3,11.34-10.72,13.71-18.56c0.84-2.79,2.65-3.27,5.4-2.17
		c10.12,4.07,16.34,12.19,22.61,21.11c-4,2.37-8.1,4.24-11.51,6.96c-5.29,4.22-10.39,8.75-15.03,13.66
		c-3.63,3.84-6.34,4.59-10.47,0.99c-2.81-2.44-5.38-5.16-8.06-7.75c-0.4,0.41-0.81,0.82-1.21,1.23c3.08,3.03,6.05,6.19,9.27,9.07
		c7.85,7.02,8.28,9.5,3.65,18.92c-2.19,4.46-3.8,9.21-5.72,13.81c-4.28,10.24-13.21,15.21-22.81,18.59
		c-3.41,1.2-8.54,0.22-11.88-1.61c-14.3-7.83-20.67-23-15.71-39.05c0.91-2.94,3.15-6.23,5.72-7.77c9.39-5.6,19.13-10.63,28.88-15.6
		C157.91,524.84,160.17,525.51,160.86,525.51z"/>
	<path class="st0" d="M269.03,311.86c0,1.22,0.43,3.74-0.09,6.04c-1.11,4.89-3.27,9.35-2.46,14.86c0.36,2.45-2.87,6.27-5.43,8.13
		c-5.07,3.68-10.66,6.76-16.32,9.51c-9.99,4.84-18.42,10.5-19.24,23.11c-0.31,4.84-3.18,8.29-8.55,9.82
		c-2.47,0.7-4.04,4.17-6.33,6.01c-1.84,1.48-4.16,3.3-6.2,3.22c-1.22-0.05-2.67-3.35-3.37-5.41c-2.35-6.97-0.98-13.83,1.4-20.5
		c8.01-22.44,22.85-40.24,39.1-57.05c1.9-1.97,3.62-1.97,6.49-1.19C254.48,310.13,261.24,310.66,269.03,311.86z"/>
	<path class="st0" d="M260.96,460.9c-3.51,2.34-7.59,4.66-11.19,7.57c-5.51,4.47-10.87,9.16-15.94,14.12
		c-3.86,3.77-6.26,3.93-8.09-0.95c-1.91-5.09-5.78-6.77-10.43-8.09c-5.97-1.69-6.31-3.08-3.28-8.29
		c4.59-7.89,9.13-15.81,13.44-23.85c4.36-8.14,5.9-8.7,14.55-5.8c3.15,1.05,6.75,0.68,10.06,1.38c1.71,0.36,4.02,1.26,4.67,2.59
		c1.42,2.91,1.96,6.26,2.85,9.43C258.66,452.75,259.72,456.5,260.96,460.9z"/>
	<path class="st0" d="M224.88,498.4c-1.34,3.84-2.41,8.01-4.25,11.8c-1.54,3.17-4.14,2.75-5.59-0.22
		c-4.97-10.26-13.41-16.54-23.45-21.13c-4.06-1.85-4.5-5.28-1.12-8.03c9.46-7.68,24.65-5.43,31.02,5.14
		C223.51,489.33,223.69,493.8,224.88,498.4z"/>
	<path class="st0" d="M117.65,576.82c6.88,5.63,12.96,10.52,18.9,15.58c0.81,0.69,1.47,2.28,1.29,3.29
		c-1.02,5.61-12.79,13.27-18.53,12.26c-7.92-1.4-13.98-12.28-10.29-19.42C111.17,584.35,114.62,580.84,117.65,576.82z"/>
</g>
</svg>
