<?xml version="1.0" encoding="utf-8"?>
<!-- Generator: Adobe Illustrator 24.3.0, SVG Export Plug-In . SVG Version: 6.00 Build 0)  -->
<svg version="1.1" id="Layer_1" xmlns="http://www.w3.org/2000/svg" xmlns:xlink="http://www.w3.org/1999/xlink" x="0px" y="0px"
	 viewBox="0 0 612 792" style="enable-background:new 0 0 612 792;" xml:space="preserve">
<style type="text/css">
	.st0{fill:#FFFFFF;}
</style>
<g>
	<path d="M556,344.03c0,100.63,0,201.26,0,301.97c-166.53,0-333.06,0-500,0c0-56.93,0-113.94,0-170.95
		c12.91,1.35,25.88,2.3,38.71,4.15c21.27,3.06,42.39,7.16,61.79,16.94c5.05,2.55,9.83,6.3,13.66,10.48
		c6.11,6.67,11.19,8.11,19.34,3.72c5.56-2.99,9.14-1.95,12.4,3.61c4.17,7.13,7.48,8.25,15.14,5.1c10.77-4.42,19.01-1.09,24.77,8.82
		c3.37,5.79,7.53,11.47,12.48,15.93c14.59,13.16,32.78,18.96,51.26,23.76c0.38-0.62,0.63-0.88,0.71-1.18
		c0.31-1.12,0.58-2.25,0.83-3.38c15.29-68.1,50.17-123.45,107.55-163.79C457.17,369.29,504.62,351.5,556,344.03z"/>
	<path class="st0" d="M556,344.03c-51.38,7.47-98.83,25.26-141.37,55.17c-57.38,40.35-92.26,95.69-107.55,163.79
		c-0.25,1.13-0.52,2.26-0.83,3.38c-0.08,0.3-0.33,0.56-0.71,1.18c-18.48-4.8-36.67-10.6-51.26-23.76
		c-4.95-4.46-9.11-10.14-12.48-15.93c-5.76-9.9-14-13.24-24.77-8.82c-7.66,3.15-10.96,2.03-15.14-5.1c-3.25-5.56-6.84-6.6-12.4-3.61
		c-8.15,4.39-13.23,2.94-19.34-3.72c-3.83-4.18-8.61-7.93-13.66-10.48c-19.4-9.78-40.51-13.88-61.79-16.94
		c-12.84-1.85-25.8-2.79-38.71-4.15c0-50.67,0-101.35,0-152.02c6.81,2.65,13.74,5.04,20.4,8.02c16.87,7.55,32.53,16.97,44.14,31.78
		c3.36,4.29,5.73,9.35,8.76,13.91c7.08,10.67,15.89,18.19,29.53,19.79c12.97,1.52,21.14,9.77,24.3,22.59
		c0.72,2.91,1.18,5.87,1.86,8.79c3.06,12.99,9.96,18.81,23.01,21.47c4.38,0.89,9.3,3.73,12.02,7.21c4.21,5.38,7.04,11.93,9.88,18.24
		c2.24,4.98,3.28,10.49,5.44,15.52c9.22,21.46,24.97,37.51,43.26,51.38c2.18,1.65,4.46,3.18,7.2,5.13
		c0.54-12.18,0.07-22.47-11.17-29.72c-8.01-5.16-8.47-12.73-3.58-21.1c0.67-1.15,1.37-2.29,2.17-3.35c6.8-9.01,4.5-34.56-4.79-42.46
		c-11.57-9.84-12.76-21.53-6.13-35.22c1.94-4.01,3.66-8.24,4.69-12.55c3.17-13.27,1.89-26.49-1.66-39.5
		c-4.85-17.79-6.21-35.76-2.64-53.89c9.41-47.79,23.69-94.17,40.84-139.7c2.92-7.75,5.64-15.57,8.46-23.35c44.33,0,88.67,0,133,0
		c-40.9,44.89-74.56,94.7-100.51,149.59c-29.11,61.56-46.08,125.89-42.44,194.62c0.56,10.47,1.9,20.89,2.88,31.34
		c0.42,0,0.84,0,1.26-0.01c0.59-3.73,1.15-7.47,1.78-11.2c0.64-3.77,1.25-7.56,2.06-11.3c10.7-49.71,31.11-94.73,64.59-133.41
		c18.32-21.17,40.24-38.39,61.9-55.86c23.89-19.27,48.62-37.37,76.64-50.37c13.61-6.31,27.6-11.61,42.85-12.39
		C556,279.35,556,311.69,556,344.03z"/>
	<path d="M312,146c-2.81,7.79-5.54,15.61-8.46,23.35c-17.16,45.53-31.43,91.91-40.84,139.7c-3.57,18.13-2.21,36.1,2.64,53.89
		c3.55,13.01,4.83,26.23,1.66,39.5c-1.03,4.32-2.75,8.55-4.69,12.55c-6.63,13.69-5.44,25.39,6.13,35.22
		c9.29,7.9,11.6,33.45,4.79,42.46c-0.8,1.06-1.5,2.21-2.17,3.35c-4.9,8.37-4.43,15.94,3.58,21.1c11.24,7.24,11.71,17.54,11.17,29.72
		c-2.74-1.95-5.01-3.48-7.2-5.13c-18.29-13.87-34.04-29.92-43.26-51.38c-2.16-5.02-3.2-10.54-5.44-15.52
		c-2.84-6.31-5.67-12.86-9.88-18.24c-2.72-3.48-7.63-6.31-12.02-7.21c-13.05-2.66-19.95-8.48-23.01-21.47
		c-0.69-2.91-1.15-5.88-1.86-8.79c-3.17-12.83-11.33-21.08-24.3-22.59c-13.65-1.6-22.46-9.12-29.53-19.79
		c-3.03-4.57-5.4-9.62-8.76-13.91c-11.61-14.81-27.27-24.23-44.14-31.78c-6.66-2.98-13.59-5.36-20.4-8.02c0-58.94,0-117.88,0-177.03
		C141.33,146,226.67,146,312,146z"/>
	<path d="M556,247.02c-15.25,0.79-29.24,6.08-42.85,12.39c-28.02,12.99-52.75,31.1-76.64,50.37c-21.65,17.47-43.57,34.69-61.9,55.86
		c-33.47,38.68-53.89,83.7-64.59,133.41c-0.81,3.74-1.42,7.53-2.06,11.3c-0.63,3.73-1.19,7.47-1.78,11.2c-0.42,0-0.84,0-1.26,0.01
		c-0.98-10.45-2.32-20.87-2.88-31.34c-3.65-68.73,13.33-133.06,42.44-194.62C370.44,240.7,404.1,190.89,445,146c37,0,74,0,111,0
		C556,179.67,556,213.34,556,247.02z"/>
</g>
</svg>
