<?xml version="1.0" encoding="utf-8"?>
<!-- Generator: Adobe Illustrator 24.3.0, SVG Export Plug-In . SVG Version: 6.00 Build 0)  -->
<svg version="1.1" id="Layer_1" xmlns="http://www.w3.org/2000/svg" xmlns:xlink="http://www.w3.org/1999/xlink" x="0px" y="0px"
	 viewBox="0 0 612 792" style="enable-background:new 0 0 612 792;" xml:space="preserve">
<style type="text/css">
	.st0{fill:#FFFFFF;}
</style>
<g>
	<path d="M556,646c-166.67,0-333.33,0-500,0c0-166.67,0-333.33,0-500c166.67,0,333.33,0,500,0C556,312.67,556,479.33,556,646z
		 M471.97,315.81c0,2.17-0.06,2.67,0.01,3.15c0.15,0.98,0.37,1.96,0.58,2.94c4.28,20.16,5.51,40.2,1.13,60.71
		c-7.16,33.55-26.89,58.54-52.17,80.02c-13.83,11.75-29.83,19.29-47.48,23.52c-15.28,3.67-30.8,2.91-46.27,2.82
		c-24.76-0.15-47.55-7.2-67.02-22.46c-10.94-8.58-20.87-18.65-30.21-29c-12.26-13.59-20.51-29.84-23.47-47.9
		c-2.25-13.71-2.61-27.79-2.98-41.73c-0.79-29.73,9-55.76,27.9-78.76c4.2-5.11,5.98-12.19,9.12-18.88c-1.76,0-2.13-0.11-2.38,0.02
		c-2.07,1.06-4.17,2.09-6.18,3.27c-57.96,34.01-103.25,80.36-135.81,139.17c-1.57,2.84-1.12,4.72,0.49,7.15
		c18.77,28.27,40.18,54.39,64.09,78.43c26.46,26.61,55.23,50.19,89.56,66.14c27.29,12.68,55.68,18.82,85.9,13.89
		c31.35-5.11,58.7-19.13,83.92-37.65c45.18-33.17,80.73-75.25,111.5-121.69c1.84-2.78,1.01-4.49-0.54-6.58
		c-14.3-19.24-28.45-38.59-42.97-57.66C483.92,328.4,478.22,322.8,471.97,315.81z M338.64,240
		c-63.23-0.05-114.59,51.18-114.64,114.36c-0.05,63.23,51.18,114.59,114.36,114.64c63.23,0.05,114.59-51.18,114.64-114.36
		C453.05,291.41,401.82,240.05,338.64,240z"/>
	<path class="st0" d="M471.97,315.81c6.25,7,11.96,12.59,16.75,18.89c14.51,19.08,28.67,38.42,42.97,57.66
		c1.55,2.09,2.38,3.81,0.54,6.58c-30.77,46.44-66.32,88.51-111.5,121.69c-25.22,18.52-52.57,32.54-83.92,37.65
		c-30.22,4.93-58.61-1.2-85.9-13.89c-34.32-15.95-63.1-39.53-89.56-66.14c-23.91-24.05-45.32-50.16-64.09-78.43
		c-1.62-2.43-2.07-4.31-0.49-7.15c32.56-58.82,77.85-105.17,135.81-139.17c2.01-1.18,4.1-2.21,6.18-3.27
		c0.25-0.13,0.62-0.02,2.38-0.02c-3.14,6.69-4.92,13.77-9.12,18.88c-18.89,23-28.69,49.03-27.9,78.76
		c0.37,13.94,0.73,28.02,2.98,41.73c2.96,18.06,11.21,34.31,23.47,47.9c9.34,10.35,19.27,20.42,30.21,29
		c19.47,15.27,42.26,22.32,67.02,22.46c15.47,0.09,30.99,0.85,46.27-2.82c17.65-4.24,33.65-11.77,47.48-23.52
		c25.27-21.48,45.01-46.46,52.17-80.02c4.37-20.5,3.15-40.54-1.13-60.71c-0.21-0.98-0.43-1.95-0.58-2.94
		C471.9,318.48,471.97,317.98,471.97,315.81z"/>
	<path class="st0" d="M338.64,240c63.18,0.05,114.41,51.41,114.36,114.64c-0.05,63.18-51.41,114.41-114.64,114.36
		c-63.18-0.05-114.41-51.41-114.36-114.64C224.05,291.18,275.41,239.95,338.64,240z M265.08,363.62
		c7.05,36.31,43.8,67.19,88.24,60.44c40.33-6.12,70.23-45.25,65.31-85.35c-5.87-47.79-47.14-69.64-73.13-68.97
		c13.09,11.47,20.83,25.49,22.26,42.52c1.45,17.27-3.78,32.53-14.98,45.78C336.44,377.37,299.53,390.84,265.08,363.62z"/>
	<path d="M265.08,363.62c34.45,27.22,71.36,13.75,87.71-5.59c11.2-13.25,16.42-28.51,14.98-45.78
		c-1.43-17.03-9.17-31.05-22.26-42.52c25.98-0.67,67.26,21.18,73.13,68.97c4.92,40.1-24.98,79.23-65.31,85.35
		C308.88,430.81,272.12,399.93,265.08,363.62z"/>
</g>
</svg>
