<?xml version="1.0" encoding="utf-8"?>
<!-- Generator: Adobe Illustrator 24.3.0, SVG Export Plug-In . SVG Version: 6.00 Build 0)  -->
<svg version="1.1" id="Layer_1" xmlns="http://www.w3.org/2000/svg" xmlns:xlink="http://www.w3.org/1999/xlink" x="0px" y="0px"
	 viewBox="0 0 612 792" style="enable-background:new 0 0 612 792;" xml:space="preserve">
<style type="text/css">
	.st0{fill:#FFFFFF;}
</style>
<g>
	<path d="M556,646c-166.67,0-333.33,0-500,0c0-166.67,0-333.33,0-500c166.67,0,333.33,0,500,0C556,312.67,556,479.33,556,646z
		 M294.81,178.2c-16.97,2.01-33.46,3.08-49.61,6.03c-49.99,9.11-83.04,37.35-96.55,87.23c-10.34,38.2-12.62,77.11-10.94,116.38
		c0.38,8.91,1.37,17.98,3.63,26.57c2.94,11.14,7.43,21.86,11.71,34.08c3.79-8.87,6.91-16.15,9.66-22.6
		c8.59,2.02,16.44,3.85,24.28,5.72c0.79,0.19,1.54,0.61,2.28,0.98c4.28,2.09,8.39,4.7,12.87,6.16c6.18,2.01,11.28,5.2,15.98,9.67
		c11.1,10.56,22.54,20.77,33.84,31.13c2.17,1.99,4.33,4.01,6.9,6.4c-7.15,4.8-13.82,9.27-21.07,14.14
		c9.31,5.33,17.99,7.09,27.26,2.5c4.6-2.28,8.72-1.32,10.8,2.46c2,3.63,0.87,7.51-3.28,10.24c-1.92,1.26-4.08,2.32-6.28,2.93
		c-3.97,1.1-6.25,3.53-7.22,7.44c-2.91,11.69-1.23,22.1,8.19,30.51c4.2,3.75,4.82,7.95,1.92,11.36c-2.88,3.39-7.71,3.89-11.42-0.14
		c-4.53-4.93-8.97-10.37-11.73-16.38c-4.58-9.97-4.36-20.69-1.21-30.29c-6.6-3.9-12.61-7.64-18.84-10.97
		c-1.12-0.6-3.12,0.45-5.24,0.84c4.47,6.75,8.21,12.4,12.19,18.4c-8.1,5.2-15.9,10.21-24.07,15.46
		c24.2,28.18,49.33,54.43,85.93,66.92C294.81,466.79,294.81,323.21,294.81,178.2z M319.26,611.13c3.65-1.28,6.99-2.25,10.16-3.6
		c18.18-7.76,33.63-19.57,47.8-33.09c36.35-34.69,63.17-75.77,81.78-122.37c8.77-21.96,17.68-43.62,17.82-68.03
		c0.19-33.24-0.48-66.39-8.19-98.83c-3.47-14.61-9.61-28.59-14.73-42.79c-0.5-1.38-2.67-3.43-3.55-3.2
		c-7.82,2.03-15.53,4.5-23.3,6.85c0.71,2.58,1.27,4.49,1.75,6.43c2.25,9.03,3,19.01,14.26,22.28c0.29,0.08,0.52,0.41,0.76,0.64
		c3.72,3.68,3.03,9.22-1.5,11.84c-1.09,0.63-2.28,1.11-3.63,1.76c1.75,6.66,3.43,13.05,5.23,19.91c-6.74,1.73-13.28,3.41-21.27,5.46
		c3.92,1.54,6.42,3.06,9.1,3.49c11.15,1.78,18.49,8.76,24.29,17.63c5.71,8.73,4.03,26.07-2.85,33.9c-3.61,4.12-7.93,4.99-11.38,2.31
		c-3.53-2.75-3.68-6.93-0.43-11.51c4.89-6.87,3.67-16.15-2.26-22.17c-4.44-4.51-10.24-5.21-15.7-7.04
		c-4.53-1.52-5.83-0.81-6.47,4.06c-0.47,3.63-0.59,7.31-0.98,10.95c-0.98,8.97-5.87,14.7-14.63,16.87
		c-5.17,1.28-10.4,2.33-15.66,3.16c-11.25,1.78-19.96-2.02-25.5-12.25c-3.41-6.29-6.64-12.67-10.23-18.86
		c-4.1-7.07-7.08-7.54-13.59-2.66c-0.27,0.2-0.54,0.4-0.82,0.58c-4.87,3.11-9.95,2.74-12.58-0.93c-2.76-3.85-1.46-7.81,3.81-11.58
		c0.41-0.29,0.85-0.55,1.21-0.88c12.08-11.24,25.53-5.93,33.5,5.68c3.56,5.18,6.3,10.96,9.06,16.64c4.51,9.27,7.28,10.77,17.25,8.68
		c2.93-0.62,6.12-0.62,8.76-1.84c1.9-0.88,4.21-3.17,4.42-5.04c0.97-8.85,1.11-17.82,6.94-25.6c-9.62,2.33-19.23,4.66-29.04,7.03
		c-3.58-6.68-7.41-12.78-10.19-19.33c-3.05-7.18-8.78-9.59-15.61-10.6c-2.6-0.39-5.31-0.14-7.97-0.05
		c-5.28,0.16-8.64-2.16-9.13-6.42c-0.51-4.4,2.5-7.92,7.86-8.46c3.88-0.39,7.82-0.08,12.23-0.08c-0.98-2.46-1.75-4.28-2.44-6.12
		c-4.43-12.01-8.8-24.04-13.29-36.02c-1.2-3.2-0.92-5.81,1.09-8.76c4.02-5.9,7.55-12.14,11.24-18.17c-6.49-6.92-5.68-12.42,2-15.04
		c0.95-0.32,1.89-0.73,2.87-0.85c6.45-0.79,8.62-5.64,11.21-11.74c-16.83-1.61-32.98-3.16-49.48-4.74
		C319.26,323.06,319.26,466.64,319.26,611.13z"/>
	<path class="st0" d="M294.81,178.2c0,145.01,0,288.59,0,433.17c-36.61-12.49-61.73-38.74-85.93-66.92
		c8.17-5.25,15.98-10.26,24.07-15.46c-3.98-6.01-7.72-11.66-12.19-18.4c2.12-0.39,4.12-1.44,5.24-0.84
		c6.23,3.34,12.24,7.07,18.84,10.97c-3.15,9.6-3.37,20.32,1.21,30.29c2.76,6.01,7.21,11.45,11.73,16.38
		c3.71,4.03,8.54,3.53,11.42,0.14c2.89-3.41,2.28-7.61-1.92-11.36c-9.42-8.4-11.1-18.81-8.19-30.51c0.97-3.91,3.25-6.34,7.22-7.44
		c2.2-0.61,4.36-1.67,6.28-2.93c4.15-2.72,5.28-6.61,3.28-10.24c-2.08-3.78-6.2-4.74-10.8-2.46c-9.27,4.59-17.95,2.83-27.26-2.5
		c7.26-4.87,13.92-9.34,21.07-14.14c-2.57-2.39-4.72-4.41-6.9-6.4c-11.3-10.36-22.74-20.57-33.84-31.13
		c-4.7-4.47-9.8-7.67-15.98-9.67c-4.48-1.45-8.59-4.07-12.87-6.16c-0.74-0.36-1.49-0.79-2.28-0.98c-7.84-1.88-15.69-3.71-24.28-5.72
		c-2.76,6.45-5.87,13.73-9.66,22.6c-4.29-12.22-8.78-22.95-11.71-34.08c-2.26-8.59-3.25-17.66-3.63-26.57
		c-1.68-39.27,0.6-78.18,10.94-116.38c13.51-49.89,46.56-78.13,96.55-87.23C261.35,181.28,277.84,180.2,294.81,178.2z
		 M234.98,288.16c0,0.64,0.01,1.27,0.01,1.91c-1.08,0.76-2.28,1.4-3.23,2.31c-5.66,5.4-11.65,10.55-14.25,18.34
		c-1.65,4.96-0.34,8.84,3.66,10.56c3.98,1.72,7.54-0.19,10.12-4.68c7.88-13.71,18.58-22.92,35.66-21.66
		c5.24,0.39,8.62-2.16,9.09-6.43c0.47-4.24-2.39-8.05-7.42-8.28c-5.58-0.26-11.22,0.64-16.84,0.95c-1.52,0.08-3.46,0.41-4.51-0.35
		c-6.83-4.94-13.53-10.07-20.12-15.34c-1.36-1.09-2.88-3.02-2.9-4.57c-0.15-11.85,11.36-22.93,23.23-22.72
		c6.35,0.11,9.93-2.42,10.04-7.11c0.11-4.62-3.39-7.54-9.65-7.87c-10.9-0.59-19.81,3.78-27.18,11.45c-2.99,3.12-4.92,2.05-6.51-0.98
		c-4.43-8.44-3.49-14.64,5.14-20.66c8.59-5.98,17.98-8.58,28.34-4.44c2.15,0.86,4.46,1.4,6.74,1.86c4.34,0.88,7.94-1.14,8.99-5.08
		c1.13-4.22-0.67-7.24-4.5-8.87c-17.86-7.6-34.9-6.39-50.31,5.84c-17.61,13.96-14.63,34.88-0.79,45.91
		c4.34,3.46,1.62,6.32,1.66,9.56c0.05,3.38-2.57,3.06-4.72,3.8c-11.31,3.85-22.62,7.71-33.8,11.95c-3.9,1.48-6,4.82-4.84,9.28
		c1.28,4.91,6.22,6.19,11.85,3.95c9.1-3.61,18.37-6.81,27.61-10.06c3.64-1.28,6.8-1.15,9.85,2.21c1.82,2,5.2,2.57,7.86,3.8
		C227.19,284.53,231.09,286.35,234.98,288.16z M152.88,350.98c-0.5,6.41,0.98,13.38,6.51,19.07c3.52,3.63,7.86,4.21,11.08,1.42
		c3.14-2.71,3.32-6.67,0.55-10.77c-8.3-12.28-0.73-24.44,10.66-27.79c1.91-0.56,3.88-0.95,5.78-1.56c6.06-1.96,7.19-1.25,7.74,5
		c1.98,22.32,3.75,24.29,25.98,28.76c17.88,3.6,26.32-0.69,33.88-17.22c0.35-0.76,0.61-1.56,1.01-2.28
		c2.26-4.07,4.37-8.24,6.88-12.14c3.55-5.51,6.89-5.73,12.13-1.79c2.05,1.54,4.83,3.19,7.13,3.01c2.56-0.2,6.11-1.88,7.12-3.94
		c1.01-2.06,0.36-6.27-1.23-7.99c-2.97-3.2-6.9-5.8-10.88-7.71c-5.47-2.62-10.86-2.25-16.63,0.84c-9.16,4.9-13.2,13.48-17.31,21.91
		c-7.11,14.59-6.82,14.73-22.6,11.98c-9.7-1.69-9.93-1.78-10.32-11.75c-0.26-6.52-1.75-12.52-5.78-17.72
		c-4.8-6.2-11.51-7.71-18.67-4.5c-2.25,1.01-4.65,1.85-7.06,2.34C163.98,321.19,153.02,334.47,152.88,350.98z M247.22,397.81
		c-4.27,1.12-8.71,1.91-12.86,3.46c-4.34,1.62-8.32,4.16-12.62,5.92c-4.12,1.7-8.36,3.39-12.71,4.19c-3.42,0.63-7.66,0.02-8.54-4.21
		c-1.44-6.91-2.49-13.98-2.85-21.02c-0.27-5.36-2.12-9.08-6.51-9.66c-4.34-0.57-7.48,2.37-8.46,7.86c-2,11.13,1.88,21.35,5.24,31.53
		c0.84,2.54,3.61,4.81,6.02,6.39c6.75,4.39,14.31,5.77,21.98,3.18c6.11-2.06,12.2-4.56,17.75-7.82c8.41-4.94,19.62-5.23,26.09,4.6
		c2.82,4.28,5.34,8.78,7.7,13.34c2.55,4.93,6.19,7,10.29,5.33c4.13-1.67,5.99-6.07,3.53-10.91c-3.29-6.47-7.07-12.77-11.28-18.69
		c-5.25-7.38-8.57-14.75-5.88-24.13c1.83-6.37,6.67-9.17,11.62-12.29c4.11-2.58,5.23-6.65,3.22-10.26
		c-2.02-3.62-6.12-4.82-10.42-2.68c-9.32,4.62-16.67,11.02-18.71,21.9C248.94,388.55,248.07,393.25,247.22,397.81z"/>
	<path class="st0" d="M319.26,611.13c0-144.49,0-288.07,0-432.54c16.49,1.58,32.65,3.13,49.48,4.74
		c-2.58,6.1-4.76,10.95-11.21,11.74c-0.98,0.12-1.92,0.53-2.87,0.85c-7.68,2.62-8.49,8.12-2,15.04
		c-3.69,6.03-7.23,12.26-11.24,18.17c-2.01,2.95-2.29,5.56-1.09,8.76c4.49,11.98,8.86,24.02,13.29,36.02
		c0.68,1.84,1.45,3.66,2.44,6.12c-4.41,0-8.36-0.31-12.23,0.08c-5.36,0.54-8.37,4.06-7.86,8.46c0.49,4.26,3.85,6.58,9.13,6.42
		c2.66-0.08,5.37-0.33,7.97,0.05c6.83,1.01,12.56,3.42,15.61,10.6c2.78,6.55,6.62,12.65,10.19,19.33c9.8-2.37,19.42-4.7,29.04-7.03
		c-5.83,7.78-5.97,16.75-6.94,25.6c-0.21,1.87-2.52,4.16-4.42,5.04c-2.64,1.22-5.83,1.22-8.76,1.84c-9.97,2.1-12.74,0.59-17.25-8.68
		c-2.76-5.68-5.5-11.46-9.06-16.64c-7.97-11.61-21.42-16.92-33.5-5.68c-0.36,0.34-0.8,0.59-1.21,0.88
		c-5.27,3.77-6.57,7.73-3.81,11.58c2.63,3.67,7.71,4.05,12.58,0.93c0.28-0.18,0.55-0.38,0.82-0.58c6.51-4.88,9.5-4.41,13.59,2.66
		c3.59,6.18,6.82,12.57,10.23,18.86c5.54,10.23,14.24,14.03,25.5,12.25c5.26-0.83,10.49-1.88,15.66-3.16
		c8.76-2.16,13.65-7.89,14.63-16.87c0.4-3.64,0.51-7.32,0.98-10.95c0.64-4.87,1.94-5.59,6.47-4.06c5.46,1.83,11.26,2.53,15.7,7.04
		c5.93,6.02,7.14,15.3,2.26,22.17c-3.26,4.58-3.1,8.76,0.43,11.51c3.45,2.69,7.77,1.81,11.38-2.31c6.87-7.83,8.56-25.17,2.85-33.9
		c-5.8-8.87-13.14-15.84-24.29-17.63c-2.68-0.43-5.19-1.95-9.1-3.49c7.98-2.05,14.52-3.73,21.27-5.46
		c-1.8-6.86-3.48-13.25-5.23-19.91c1.35-0.65,2.54-1.12,3.63-1.76c4.53-2.63,5.22-8.17,1.5-11.84c-0.24-0.23-0.47-0.56-0.76-0.64
		c-11.26-3.27-12.01-13.25-14.26-22.28c-0.48-1.93-1.05-3.85-1.75-6.43c7.78-2.35,15.48-4.82,23.3-6.85
		c0.88-0.23,3.05,1.82,3.55,3.2c5.12,14.2,11.26,28.18,14.73,42.79c7.71,32.43,8.37,65.58,8.19,98.83
		c-0.14,24.42-9.05,46.07-17.82,68.03c-18.61,46.6-45.43,87.67-81.78,122.37c-14.17,13.53-29.62,25.33-47.8,33.09
		C326.24,608.88,322.9,609.85,319.26,611.13z M366.73,519.33c14.68-3.36,24.18-12.56,30.91-25.18c0.53-1,2.64-1.49,4.07-1.61
		c7.12-0.63,14.37-0.42,21.35-1.72c8.25-1.54,16.04-4.98,17.57-14.6c1.01-6.35,1.29-12.92,0.95-19.34
		c-0.45-8.77-2.57-17.18-9.65-23.35c-3.19-2.78-6.67-3.14-9.93-0.33c-3.25,2.8-3.93,6.73-1.1,9.79c7.2,7.81,5.98,17.28,5.8,26.48
		c-0.04,1.95-2.09,5.2-3.72,5.56c-6.83,1.48-13.84,2.09-21.47,3.11c0.49-6.7,1.01-11.81,1.19-16.93c0.18-5.35-2.81-8.89-7.22-9.03
		c-4.2-0.13-7.19,2.99-7.68,8.14c-0.54,5.63-1.23,11.26-1.48,16.91c-0.92,20.93-23.97,34.92-40.84,24.71
		c-3.45-2.08-6.93-0.58-9.08,2.77c-2.2,3.42-1.61,6.92,1.52,9.37c2.3,1.8,5.08,3.2,7.86,4.12c3.68,1.21,6.04,3.29,7.02,7.02
		c3.14,11.85,1.47,22.4-8.1,30.95c-4.18,3.73-4.79,7.96-1.87,11.36c2.89,3.37,7.71,3.86,11.42-0.18
		c4.52-4.92,8.95-10.37,11.72-16.38C370.55,541.03,370.3,530.32,366.73,519.33z M364.24,396.41c-0.01-0.08-0.06-1.57-0.19-3.06
		c-1.25-14.04-6.83-25.26-20.36-31.36c-3.53-1.59-7.27-1.97-9.45,1.37c-1.38,2.12-1.73,5.69-0.99,8.15
		c0.59,1.97,3.32,3.55,5.41,4.78c4.83,2.83,8.03,6.49,9.5,12.14c2.36,9.11-1.38,16.05-6.33,23.08c-4.09,5.81-7.8,11.94-11.02,18.27
		c-2.5,4.93-0.81,9.25,3.24,11.04c4.07,1.8,7.73-0.28,10.42-5.03c3.33-5.9,7.12-11.54,10.83-17.21c0.67-1.03,1.82-1.92,2.95-2.43
		c7.65-3.44,14.47-1.42,21.62,2.36c6.53,3.44,13.68,6.39,20.9,7.71c13.61,2.5,24.16-5.98,26.19-19.6c0.34-2.29,1.43-4.5,1.55-6.77
		c0.31-5.9,0.74-11.85,0.21-17.7c-0.35-3.86-3.61-6.02-7.64-5.6c-4.24,0.44-7.23,3.38-6.55,7.38c1.21,7.1-1.34,13.45-2.39,20.11
		c-0.92,5.85-3.69,8.45-9.47,7.33c-4.66-0.9-9.12-2.95-13.58-4.73C381.16,403.48,373.29,400.14,364.24,396.41z"/>
	<path d="M234.98,288.16c-3.9-1.81-7.79-3.63-11.7-5.44c-2.67-1.23-6.04-1.8-7.86-3.8c-3.05-3.35-6.21-3.49-9.85-2.21
		c-9.24,3.25-18.51,6.45-27.61,10.06c-5.64,2.24-10.57,0.96-11.85-3.95c-1.16-4.46,0.94-7.8,4.84-9.28
		c11.17-4.23,22.49-8.09,33.8-11.95c2.15-0.73,4.77-0.42,4.72-3.8c-0.05-3.24,2.68-6.1-1.66-9.56
		c-13.85-11.03-16.82-31.95,0.79-45.91c15.41-12.22,32.46-13.44,50.31-5.84c3.84,1.63,5.63,4.65,4.5,8.87
		c-1.06,3.94-4.65,5.96-8.99,5.08c-2.28-0.46-4.58-1-6.74-1.86c-10.35-4.13-19.75-1.54-28.34,4.44c-8.64,6.02-9.57,12.21-5.14,20.66
		c1.59,3.03,3.52,4.1,6.51,0.98c7.36-7.67,16.28-12.04,27.18-11.45c6.26,0.34,9.76,3.25,9.65,7.87c-0.11,4.69-3.69,7.22-10.04,7.11
		c-11.87-0.21-23.38,10.87-23.23,22.72c0.02,1.56,1.54,3.48,2.9,4.57c6.58,5.27,13.29,10.4,20.12,15.34
		c1.05,0.76,2.99,0.43,4.51,0.35c5.62-0.31,11.25-1.2,16.84-0.95c5.02,0.23,7.88,4.04,7.42,8.28c-0.47,4.27-3.85,6.81-9.09,6.43
		c-17.07-1.26-27.77,7.95-35.66,21.66c-2.58,4.49-6.14,6.4-10.12,4.68c-4-1.73-5.31-5.6-3.66-10.56c2.6-7.79,8.59-12.94,14.25-18.34
		c0.95-0.9,2.15-1.55,3.23-2.31C234.99,289.43,234.99,288.8,234.98,288.16z"/>
	<path d="M152.88,350.98c0.14-16.51,11.1-29.79,25.97-32.84c2.42-0.5,4.81-1.33,7.06-2.34c7.15-3.21,13.86-1.7,18.67,4.5
		c4.03,5.2,5.52,11.2,5.78,17.72c0.4,9.97,0.62,10.06,10.32,11.75c15.78,2.75,15.49,2.61,22.6-11.98c4.11-8.43,8.14-17,17.31-21.91
		c5.78-3.09,11.17-3.46,16.63-0.84c3.98,1.91,7.91,4.51,10.88,7.71c1.59,1.72,2.24,5.93,1.23,7.99c-1.01,2.07-4.56,3.74-7.12,3.94
		c-2.3,0.18-5.08-1.47-7.13-3.01c-5.24-3.94-8.59-3.72-12.13,1.79c-2.51,3.91-4.62,8.08-6.88,12.14c-0.4,0.72-0.67,1.52-1.01,2.28
		c-7.56,16.53-16,20.82-33.88,17.22c-22.23-4.47-24-6.44-25.98-28.76c-0.55-6.25-1.68-6.95-7.74-5c-1.9,0.61-3.86,1-5.78,1.56
		c-11.38,3.35-18.96,15.51-10.66,27.79c2.77,4.1,2.59,8.05-0.55,10.77c-3.22,2.79-7.56,2.2-11.08-1.42
		C153.86,364.36,152.38,357.39,152.88,350.98z"/>
	<path d="M247.22,397.81c0.85-4.56,1.72-9.26,2.6-13.96c2.04-10.88,9.39-17.28,18.71-21.9c4.3-2.13,8.41-0.94,10.42,2.68
		c2.01,3.62,0.89,7.68-3.22,10.26c-4.95,3.12-9.79,5.92-11.62,12.29c-2.69,9.38,0.63,16.75,5.88,24.13
		c4.21,5.92,7.99,12.21,11.28,18.69c2.46,4.84,0.6,9.24-3.53,10.91c-4.1,1.66-7.74-0.4-10.29-5.33c-2.35-4.56-4.88-9.05-7.7-13.34
		c-6.47-9.83-17.68-9.54-26.09-4.6c-5.54,3.26-11.64,5.75-17.75,7.82c-7.67,2.59-15.24,1.21-21.98-3.18
		c-2.42-1.57-5.19-3.85-6.02-6.39c-3.36-10.19-7.24-20.41-5.24-31.53c0.99-5.49,4.13-8.44,8.46-7.86c4.39,0.58,6.24,4.3,6.51,9.66
		c0.36,7.04,1.41,14.11,2.85,21.02c0.88,4.23,5.12,4.84,8.54,4.21c4.35-0.8,8.58-2.5,12.71-4.19c4.29-1.77,8.28-4.31,12.62-5.92
		C238.52,399.72,242.95,398.92,247.22,397.81z"/>
	<path d="M366.73,519.33c3.57,10.98,3.82,21.7-0.77,31.67c-2.76,6.01-7.19,11.45-11.72,16.38c-3.71,4.04-8.53,3.55-11.42,0.18
		c-2.91-3.4-2.3-7.63,1.87-11.36c9.57-8.55,11.24-19.1,8.1-30.95c-0.99-3.73-3.34-5.82-7.02-7.02c-2.78-0.91-5.56-2.32-7.86-4.12
		c-3.13-2.45-3.71-5.95-1.52-9.37c2.15-3.34,5.64-4.85,9.08-2.77c16.88,10.2,39.92-3.78,40.84-24.71
		c0.25-5.65,0.94-11.28,1.48-16.91c0.5-5.15,3.48-8.28,7.68-8.14c4.41,0.14,7.4,3.68,7.22,9.03c-0.17,5.12-0.7,10.23-1.19,16.93
		c7.63-1.02,14.64-1.63,21.47-3.11c1.63-0.35,3.68-3.6,3.72-5.56c0.17-9.2,1.4-18.67-5.8-26.48c-2.83-3.06-2.14-6.99,1.1-9.79
		c3.26-2.81,6.74-2.45,9.93,0.33c7.08,6.17,9.19,14.58,9.65,23.35c0.33,6.42,0.06,13-0.95,19.34c-1.53,9.62-9.32,13.06-17.57,14.6
		c-6.98,1.3-14.24,1.09-21.35,1.72c-1.43,0.13-3.54,0.62-4.07,1.61C390.91,506.77,381.41,515.97,366.73,519.33z"/>
	<path d="M364.24,396.41c9.05,3.73,16.92,7.07,24.86,10.22c4.46,1.77,8.92,3.82,13.58,4.73c5.78,1.12,8.55-1.48,9.47-7.33
		c1.05-6.66,3.6-13.02,2.39-20.11c-0.68-4,2.3-6.94,6.55-7.38c4.03-0.42,7.28,1.74,7.64,5.6c0.53,5.85,0.1,11.81-0.21,17.7
		c-0.12,2.28-1.21,4.49-1.55,6.77c-2.03,13.62-12.58,22.1-26.19,19.6c-7.22-1.33-14.36-4.27-20.9-7.71
		c-7.16-3.77-13.97-5.8-21.62-2.36c-1.13,0.51-2.28,1.41-2.95,2.43c-3.71,5.67-7.5,11.32-10.83,17.21
		c-2.69,4.75-6.35,6.83-10.42,5.03c-4.05-1.79-5.74-6.11-3.24-11.04c3.21-6.33,6.93-12.47,11.02-18.27
		c4.95-7.03,8.7-13.97,6.33-23.08c-1.47-5.66-4.67-9.32-9.5-12.14c-2.09-1.22-4.82-2.8-5.41-4.78c-0.73-2.46-0.38-6.03,0.99-8.15
		c2.18-3.35,5.92-2.97,9.45-1.37c13.53,6.1,19.1,17.32,20.36,31.36C364.19,394.84,364.24,396.33,364.24,396.41z"/>
</g>
</svg>
