<?xml version="1.0" encoding="utf-8"?>
<!-- Generator: Adobe Illustrator 24.3.0, SVG Export Plug-In . SVG Version: 6.00 Build 0)  -->
<svg version="1.1" id="Layer_1" xmlns="http://www.w3.org/2000/svg" xmlns:xlink="http://www.w3.org/1999/xlink" x="0px" y="0px"
	 viewBox="0 0 612 792" style="enable-background:new 0 0 612 792;" xml:space="preserve">
<style type="text/css">
	.st0{fill:#FFFFFF;}
</style>
<g>
	<path d="M556,646c-166.67,0-333.33,0-500,0c0-166.67,0-333.33,0-500c166.67,0,333.33,0,500,0C556,312.67,556,479.33,556,646z
		 M281.43,416.98c3.85,0,7.88,0.49,11.75-0.09c13.91-2.06,27.65-15.03,17-32.08c-0.97-1.55-1.77-3.27-3.01-4.58
		c-1.17-1.24-2.77-2.83-4.25-2.91c-10.92-0.64-21.88-1.64-32.77-1.18c-17.23,0.72-34.8,20.45-32.15,37.85
		c1.69,11.15,3.33,22.39,6.24,33.25c4.51,16.88,15.88,28.04,32.48,33.15c7.51,2.31,15.87,4.89,23.33,3.8
		c21.26-3.1,41.24-10.57,58.55-23.85c12.28-9.42,21.15-21.7,21.74-37.26c0.55-14.64-0.06-29.83-3.48-43.97
		c-3.06-12.66-9.97-24.61-16.52-36.11c-3.48-6.12-9.14-11.59-15.01-15.61c-8.03-5.51-16.96-9.91-25.93-13.82
		c-12.24-5.33-25.31-7.19-38.63-5.97c-38.95,3.55-69.5,22.26-93.35,52.58c-6.63,8.43-11.62,17.83-13.52,28.62
		c-5.42,30.75,1.18,60.35,11.78,88.55c9.05,24.08,26.49,43.05,48.47,56.96c6.04,3.82,13.2,5.94,19.98,8.48
		c3.55,1.33,7.45,1.69,11.08,2.84c14.11,4.45,28.58,8.21,43.21,4.97c27.68-6.11,54.8-14.32,79.2-29.37
		c26.31-16.22,45.64-38.17,53.95-68.55c5.57-20.36,6.01-41.13,3.45-61.98c-4.29-34.98-16.89-66.7-38.43-94.59
		c-18.7-24.21-44.62-38.06-72.81-47.99c-19.78-6.97-40.05-9.9-60.85-4.4c-2.87,0.76-5.93,1.17-8.9,1.19
		c-19.74,0.09-38.03,5.57-55.63,14.15c-26.63,12.97-51.37,28.33-69,52.97c-27,37.75-39.2,79.38-32.32,125.79
		c1.73,11.67,4.3,23.21,6.62,34.78c0.88,4.39,1.63,8.9,3.3,13.01c10.06,24.83,22.93,48.12,40.23,68.67
		c21.11,25.08,45.66,45.19,78.79,52.33c5.03,1.08,9.95,2.71,14.94,3.99c29.11,7.45,58.09,9.15,87.92,2.56
		c33.43-7.39,64.13-20.02,91.44-40.5c56.18-42.12,86.87-97.15,83.45-168.69c-0.67-14.06-4.16-27.96-5.48-42.02
		c-1.71-18.21-7.52-35.04-15.28-51.36c-17.27-36.29-40.06-68.42-72.11-93.16c-23.13-17.86-50.06-28.03-77.67-36.73
		c-16.59-5.23-33.25-8.21-50.64-5.71c-13.92,2-21.56,10.3-19.34,22.6c0.96,5.31,3.9,10.63,7.19,15c1.53,2.04,5.99,2.12,9.19,2.61
		c11.02,1.71,22.04,3.48,33.12,4.74c34.1,3.88,63.03,18.18,87.1,42.5c26.21,26.49,43.18,58.48,55.14,93.36
		c1.65,4.81,2.37,9.98,3.09,15.05c0.91,6.43,0.9,13,2.11,19.36c7.56,39.89-1.08,76.72-24.5,108.94
		c-30.01,41.3-71.85,64.91-122.11,73.58c-3.77,0.65-7.67,0.75-11.34,1.72c-14.45,3.82-28.71,2.61-42.97-0.96
		c-26.16-6.53-48.58-20.57-70.6-35.34c-2.16-1.45-4.01-3.54-5.6-5.64c-14.8-19.46-26.96-40.43-35.51-63.38
		c-9.63-25.87-13.79-52.37-9.1-79.92c5.5-32.38,24.25-56.53,49.31-75.59c31.62-24.07,68.48-32.82,107.79-29.97
		c38.65,2.8,64.67,26.07,82.11,57.93c10.3,18.82,16.38,40.47,17.19,62.62c1.09,29.74-7.14,56.23-30.59,75.94
		c-18.55,15.6-40.43,24.46-64.59,26.66c-26.96,2.46-51.38-3.84-70.87-23.82c-13.85-14.2-20.84-31.99-24.48-51.07
		c-6.42-33.69,8.49-60.35,40.34-73.03c14.59-5.81,29.85-8.51,45.45-7.83c9.47,0.41,18.13,4.26,23.5,12.66
		c7.6,11.89,12.82,24.88,15.08,38.84c1.17,7.25,1.39,14.53-3.74,20.96c-9.7,12.17-22.63,17.5-37.7,18.42
		c-1.71,0.11-3.61-0.63-5.22-1.4C284.28,436.86,280.21,428.01,281.43,416.98z"/>
	<path class="st0" d="M281.43,416.98c-1.22,11.03,2.86,19.87,10.57,23.54c1.61,0.77,3.51,1.51,5.22,1.4
		c15.08-0.93,28.01-6.25,37.7-18.42c5.12-6.43,4.91-13.71,3.74-20.96c-2.26-13.96-7.48-26.95-15.08-38.84
		c-5.37-8.39-14.03-12.25-23.5-12.66c-15.6-0.68-30.86,2.02-45.45,7.83c-31.84,12.68-46.76,39.34-40.34,73.03
		c3.64,19.08,10.63,36.86,24.48,51.07c19.48,19.98,43.91,26.28,70.87,23.82c24.16-2.2,46.04-11.07,64.59-26.66
		c23.45-19.71,31.67-46.2,30.59-75.94c-0.81-22.14-6.89-43.8-17.19-62.62c-17.44-31.86-43.46-55.13-82.11-57.93
		c-39.32-2.85-76.17,5.9-107.79,29.97c-25.06,19.07-43.8,43.22-49.31,75.59c-4.68,27.56-0.53,54.05,9.1,79.92
		c8.55,22.95,20.71,43.92,35.51,63.38c1.6,2.1,3.44,4.19,5.6,5.64c22.03,14.77,44.44,28.81,70.6,35.34
		c14.26,3.56,28.52,4.78,42.97,0.96c3.68-0.97,7.57-1.07,11.34-1.72c50.26-8.67,92.11-32.28,122.11-73.58
		c23.41-32.22,32.06-69.05,24.5-108.94c-1.2-6.36-1.2-12.93-2.11-19.36c-0.72-5.07-1.44-10.24-3.09-15.05
		c-11.96-34.89-28.93-66.87-55.14-93.36c-24.07-24.33-53.01-38.63-87.1-42.5c-11.08-1.26-22.1-3.03-33.12-4.74
		c-3.2-0.5-7.66-0.58-9.19-2.61c-3.29-4.38-6.24-9.69-7.19-15c-2.22-12.3,5.42-20.6,19.34-22.6c17.39-2.5,34.05,0.49,50.64,5.71
		c27.61,8.7,54.53,18.87,77.67,36.73c32.06,24.74,54.85,56.87,72.11,93.16c7.76,16.32,13.57,33.15,15.28,51.36
		c1.32,14.06,4.81,27.96,5.48,42.02c3.42,71.54-27.27,126.57-83.45,168.69c-27.32,20.48-58.01,33.11-91.44,40.5
		c-29.82,6.59-58.81,4.89-87.92-2.56c-4.99-1.28-9.91-2.9-14.94-3.99c-33.13-7.14-57.68-27.25-78.79-52.33
		c-17.3-20.56-30.17-43.84-40.23-68.67c-1.66-4.11-2.42-8.62-3.3-13.01c-2.32-11.57-4.89-23.12-6.62-34.78
		c-6.88-46.41,5.32-88.04,32.32-125.79c17.63-24.64,42.37-40,69-52.97c17.6-8.58,35.9-14.05,55.63-14.15
		c2.97-0.01,6.02-0.43,8.9-1.19c20.81-5.5,41.07-2.57,60.85,4.4c28.19,9.93,54.11,23.78,72.81,47.99
		c21.54,27.89,34.15,59.61,38.43,94.59c2.56,20.85,2.12,41.61-3.45,61.98c-8.31,30.38-27.64,52.33-53.95,68.55
		c-24.41,15.05-51.52,23.25-79.2,29.37c-14.63,3.23-29.11-0.52-43.21-4.97c-3.63-1.15-7.53-1.51-11.08-2.84
		c-6.78-2.54-13.94-4.66-19.98-8.48c-21.99-13.91-39.42-32.88-48.47-56.96c-10.6-28.2-17.2-57.79-11.78-88.55
		c1.9-10.79,6.89-20.19,13.52-28.62c23.85-30.32,54.41-49.03,93.35-52.58c13.32-1.21,26.39,0.65,38.63,5.97
		c8.97,3.9,17.9,8.31,25.93,13.82c5.87,4.03,11.52,9.5,15.01,15.61c6.55,11.5,13.46,23.45,16.52,36.11
		c3.42,14.14,4.04,29.33,3.48,43.97c-0.59,15.56-9.46,27.84-21.74,37.26c-17.31,13.28-37.29,20.75-58.55,23.85
		c-7.46,1.09-15.82-1.49-23.33-3.8c-16.59-5.11-27.97-16.28-32.48-33.15c-2.91-10.87-4.54-22.1-6.24-33.25
		c-2.64-17.4,14.92-37.13,32.15-37.85c10.89-0.46,21.86,0.54,32.77,1.18c1.49,0.09,3.08,1.67,4.25,2.91
		c1.24,1.31,2.04,3.03,3.01,4.58c10.66,17.05-3.09,30.03-17,32.08C289.31,417.47,285.28,416.98,281.43,416.98z"/>
</g>
</svg>
