<?xml version="1.0" encoding="utf-8"?>
<!-- Generator: Adobe Illustrator 24.3.0, SVG Export Plug-In . SVG Version: 6.00 Build 0)  -->
<svg version="1.1" id="Layer_1" xmlns="http://www.w3.org/2000/svg" xmlns:xlink="http://www.w3.org/1999/xlink" x="0px" y="0px"
	 viewBox="0 0 612 792" style="enable-background:new 0 0 612 792;" xml:space="preserve">
<style type="text/css">
	.st0{fill:#FFFFFF;}
</style>
<g>
	<path d="M77,646c-7,0-13.99,0-20.99,0c0-166.63,0-333.26,0-500c166.66,0,333.33,0,500,0c0,57.95,0,115.94,0,173.93
		c-0.95-1.49-2-2.93-2.82-4.49c-29.23-55.47-74.67-83.85-137.87-82.27c-8.31,0.21-16.59,1.47-26.17,2.37
		c105.93,69.9,102.86,166.95,80.31,223.05c-0.65-2.21-1.22-3.85-1.61-5.53c-3.3-14.44-6.79-28.84-9.8-43.34
		c-5.29-25.47-16.2-47.4-37.72-63.21c-14.85-10.91-30.97-18.53-50.23-21.51c1.86,2.98,3.29,5.19,4.65,7.43
		c17.03,28.13,30.85,57.55,34.77,90.66c2.17,18.36,0.42,36.27-8.58,52.91c-0.62,1.15-1.45,2.18-2.5,3.72
		c-5.74-46.25-20.36-88.26-46.66-125.93c-15.17-21.74-33.67-39.44-58.86-49.29c-19.48-7.62-39.7-11.2-60.5-11.41
		c-9.57-0.1-19.15,0.71-29.32,1.13c0.82,1.28,0.92,1.64,1.16,1.79c1.12,0.72,2.29,1.35,3.42,2.06
		c52.5,33.31,88.79,77.06,91.89,142.32c0.95,20.03-0.89,39.6-8.59,58.31c-1.41,3.43-3.33,6.64-4.73,9.4
		c-3.41-14.75-6.06-29.68-10.35-44.11c-10.16-34.11-31.2-59.41-63.25-75.43c-17.93-8.96-35.25-6.97-52.69,1.55
		c66.42,47.76,64.9,121.73,44.06,172.26c0-3.58,0.05-6.17-0.01-8.75c-0.34-14.53-3.35-28.46-10.07-41.38
		c-11.02-21.2-26.77-36.87-51.09-41.79c-8.44-1.71-16.99-2.06-26.02,0.64c13.49,10.24,19.34,24.11,22.49,39.49
		c2.84,13.84,2.93,27.8,1.66,41.8c-2.02,22.33-8.66,43-22.27,61.12C107.72,628.09,93.43,638.42,77,646z"/>
	<path class="st0" d="M77,646c16.44-7.58,30.72-17.91,41.69-32.51c13.61-18.12,20.25-38.79,22.27-61.12
		c1.27-14,1.18-27.96-1.66-41.8c-3.15-15.37-9-29.24-22.49-39.49c9.03-2.7,17.58-2.35,26.02-0.64
		c24.32,4.92,40.07,20.59,51.09,41.79c6.71,12.92,9.73,26.86,10.07,41.38c0.06,2.58,0.01,5.17,0.01,8.75
		c20.84-50.53,22.36-124.5-44.06-172.26c17.44-8.52,34.76-10.51,52.69-1.55c32.05,16.02,53.1,41.32,63.25,75.43
		c4.3,14.44,6.95,29.36,10.35,44.11c1.4-2.76,3.32-5.98,4.73-9.4c7.7-18.71,9.54-38.28,8.59-58.31c-3.1-65.26-39.4-109-91.89-142.32
		c-1.12-0.71-2.3-1.35-3.42-2.06c-0.24-0.15-0.35-0.52-1.16-1.79c10.18-0.42,19.75-1.23,29.32-1.13c20.81,0.21,41.02,3.8,60.5,11.41
		c25.19,9.85,43.68,27.56,58.86,49.29c26.3,37.67,40.92,79.68,46.66,125.93c1.05-1.55,1.88-2.58,2.5-3.72
		c9.01-16.63,10.76-34.55,8.58-52.91c-3.92-33.11-17.73-62.53-34.77-90.66c-1.36-2.25-2.78-4.45-4.65-7.43
		c19.25,2.98,35.38,10.6,50.23,21.51c21.52,15.81,32.44,37.73,37.72,63.21c3.01,14.5,6.5,28.9,9.8,43.34
		c0.38,1.68,0.96,3.31,1.61,5.53c22.55-56.1,25.62-153.15-80.31-223.05c9.58-0.9,17.86-2.16,26.17-2.37
		c63.2-1.58,108.64,26.8,137.87,82.27c0.82,1.56,1.88,3,2.82,4.49c0,108.69,0,217.38,0,326.07C396.33,646,236.66,646,77,646z"/>
</g>
</svg>
