<?xml version="1.0" encoding="utf-8"?>
<!-- Generator: Adobe Illustrator 24.3.0, SVG Export Plug-In . SVG Version: 6.00 Build 0)  -->
<svg version="1.1" id="Layer_1" xmlns="http://www.w3.org/2000/svg" xmlns:xlink="http://www.w3.org/1999/xlink" x="0px" y="0px"
	 viewBox="0 0 612 792" style="enable-background:new 0 0 612 792;" xml:space="preserve">
<style type="text/css">
	.st0{fill:#FFFFFF;}
</style>
<g>
	<path d="M556,646c-166.67,0-333.33,0-500,0c0-166.67,0-333.33,0-500c166.67,0,333.33,0,500,0C556,312.67,556,479.33,556,646z
		 M305.91,173.03c-11.05,1.54-21.39,3.45-31.82,4.31c-14.02,1.15-26.39,5.35-37.37,14.55c-20.68,17.32-35.23,38.89-45.77,63.39
		c-16.12,37.46-21.76,77.03-22.87,117.42c-0.9,32.73,1.9,65.27,6.18,97.66c3.91,29.59,9.84,58.77,20.75,86.7
		c7.88,20.19,17.82,39.18,34.34,53.8c16.95,15,36.36,20.93,58.79,14.94c1.89-0.5,4.23-0.01,6.19,0.59
		c14.55,4.46,29.28,7.97,44.62,7.4c9.62-0.36,18.9-1.9,25.5-10.29c1.56-1.99,4.13-3.57,6.56-4.42c6.17-2.16,10.51-6.45,14.05-11.52
		c4.56-6.54,9.11-13.17,12.83-20.2c11.74-22.18,19.41-45.93,26.12-70c3.3-11.85,5.21-24.2,9.68-35.57
		c7.55-19.18,16.64-37.74,25.03-56.58c0.5-1.13,0.97-2.54,0.76-3.69c-1.99-10.93-11.42-16.93-21.96-13.5
		c-11.72,3.82-21.45,10.96-28.36,21.09c-10.69,15.68-20.71,31.82-31.03,47.75c-0.74,1.15-1.62,2.2-2.63,3.56
		c0-6.87-0.29-13.18,0.05-19.47c2.04-37.6,3.97-75.2,6.44-112.77c2.99-45.55,6.49-91.06,9.73-136.59c0.13-1.79,0.58-4.19-0.34-5.31
		c-5.76-7.02-11.28-14.41-18.04-20.38c-5.4-4.76-11.44-2.78-14.95,3.69c-1.95,3.61-3.38,7.62-4.34,11.63
		c-9.77,40.88-15.12,82.49-20.01,124.16c-1.84,15.7-3.45,31.42-5.19,47.43c-2.92-1.06-5.52-2.21-8.22-2.94
		c-3.57-0.97-4.7-2.96-4.88-6.73c-2.53-52.26-5.25-104.5-7.94-156.75C307.22,195.43,306.55,184.48,305.91,173.03z"/>
	<path class="st0" d="M305.91,173.03c0.65,11.45,1.31,22.4,1.88,33.36c2.7,52.25,5.42,104.49,7.94,156.75
		c0.18,3.77,1.32,5.76,4.88,6.73c2.71,0.73,5.3,1.88,8.22,2.94c1.75-16,3.35-31.73,5.19-47.43c4.89-41.67,10.24-83.28,20.01-124.16
		c0.96-4,2.39-8.02,4.34-11.63c3.51-6.48,9.55-8.46,14.95-3.69c6.75,5.96,12.28,13.36,18.04,20.38c0.92,1.12,0.46,3.52,0.34,5.31
		c-3.24,45.53-6.73,91.04-9.73,136.59c-2.47,37.57-4.4,75.18-6.44,112.77c-0.34,6.28-0.05,12.6-0.05,19.47
		c1-1.35,1.89-2.41,2.63-3.56c10.32-15.93,20.33-32.07,31.03-47.75c6.91-10.13,16.64-17.27,28.36-21.09
		c10.53-3.43,19.97,2.57,21.96,13.5c0.21,1.15-0.25,2.56-0.76,3.69c-8.39,18.84-17.49,37.41-25.03,56.58
		c-4.47,11.37-6.38,23.73-9.68,35.57c-6.71,24.07-14.38,47.83-26.12,70c-3.72,7.03-8.27,13.66-12.83,20.2
		c-3.54,5.07-7.88,9.36-14.05,11.52c-2.43,0.85-4.99,2.43-6.56,4.42c-6.6,8.39-15.88,9.92-25.5,10.29
		c-15.34,0.58-30.07-2.94-44.62-7.4c-1.96-0.6-4.3-1.09-6.19-0.59c-22.43,6-41.84,0.06-58.79-14.94
		c-16.52-14.62-26.45-33.62-34.34-53.8c-10.91-27.93-16.83-57.11-20.75-86.7c-4.28-32.4-7.08-64.94-6.18-97.66
		c1.11-40.39,6.75-79.95,22.87-117.42c10.54-24.5,25.09-46.07,45.77-63.39c10.98-9.2,23.35-13.4,37.37-14.55
		C284.51,176.48,294.86,174.57,305.91,173.03z M304.58,418.09c-3.91-0.07-5.19,3.2-5.53,7.11c-0.47,5.31-0.53,10.65-1.08,15.95
		c-1.88,18.24-6.84,35.55-19.28,49.43c-11.06,12.33-17.59,26.61-21.23,42.34c-1.82,7.86-3.74,16.26-2.82,24.09
		c2.17,18.57,23.36,36.32,42.1,36.88c0.65,0.02,1.32-0.12,1.97-0.27c10.79-2.61,21.09-6.45,29.58-13.82
		c11.19-9.71,17.54-21.5,14.98-37c-3.06-18.5-10.86-35.11-19.04-51.75c-5.02-10.21-9.15-21.06-12.01-32.06
		C308.75,445.72,307.08,431.98,304.58,418.09z"/>
	<path d="M304.58,418.09c2.5,13.89,4.17,27.62,7.62,40.89c2.86,11,6.99,21.85,12.01,32.06c8.18,16.64,15.98,33.25,19.04,51.75
		c2.57,15.5-3.78,27.28-14.98,37c-8.49,7.36-18.78,11.21-29.58,13.82c-0.64,0.15-1.31,0.29-1.97,0.27
		c-18.74-0.56-39.93-18.31-42.1-36.88c-0.91-7.83,1-16.23,2.82-24.09c3.64-15.72,10.17-30.01,21.23-42.34
		c12.44-13.87,17.4-31.19,19.28-49.43c0.55-5.3,0.61-10.64,1.08-15.95C299.39,421.3,300.67,418.02,304.58,418.09z"/>
</g>
</svg>
