<?xml version="1.0" encoding="utf-8"?>
<!-- Generator: Adobe Illustrator 24.3.0, SVG Export Plug-In . SVG Version: 6.00 Build 0)  -->
<svg version="1.1" id="Layer_1" xmlns="http://www.w3.org/2000/svg" xmlns:xlink="http://www.w3.org/1999/xlink" x="0px" y="0px"
	 viewBox="0 0 612 792" style="enable-background:new 0 0 612 792;" xml:space="preserve">
<style type="text/css">
	.st0{fill:#FFFFFF;}
</style>
<g>
	<path d="M556,646c-166.67,0-333.33,0-500,0c0-166.67,0-333.33,0-500c166.67,0,333.33,0,500,0C556,312.67,556,479.33,556,646z
		 M164.41,293.58c-1.14,0.96-1.68,1.35-2.14,1.81c-24.59,24.19-49.22,48.33-73.67,72.67c-1.6,1.59-2.49,4.62-2.5,6.99
		C85.98,453.53,86,532.01,86,610.49c0,1.75,0,3.51,0,5.11c147.09,0,293.45,0,440,0c0-2.39,0-4.38,0-6.37
		c0-43.99-0.71-88,0.38-131.96c0.4-16-3.21-28.69-14.79-39.59c-7.1-6.69-13.4-14.22-20.3-21.63
		c-54,50.64-107.37,100.69-161.07,151.04C274.78,475.65,219.72,384.82,164.41,293.58z M338.45,515.3c1.1-0.97,1.74-1.47,2.32-2.04
		c32.02-31.37,64-62.78,96.13-94.04c2.76-2.68,2.05-4.48,0.49-7.21c-46.2-81.02-92.33-162.08-138.48-243.13
		c-0.77-1.35-1.68-2.62-2.81-4.37c-0.82,1.39-1.36,2.19-1.8,3.05c-24.48,47.71-48.92,95.44-73.51,143.09
		c-1.53,2.97-0.63,4.84,0.78,7.22c27.44,46.27,54.84,92.57,82.24,138.87C315.25,476.07,326.69,495.42,338.45,515.3z"/>
	<path class="st0" d="M164.41,293.58c55.31,91.24,110.37,182.07,165.81,273.52c53.7-50.35,107.07-100.41,161.07-151.04
		c6.9,7.41,13.2,14.94,20.3,21.63c11.57,10.9,15.18,23.59,14.79,39.59c-1.09,43.96-0.38,87.97-0.38,131.96c0,1.99,0,3.98,0,6.37
		c-146.55,0-292.91,0-440,0c0-1.6,0-3.36,0-5.11c0-78.48-0.02-156.97,0.11-235.45c0-2.36,0.9-5.39,2.5-6.99
		c24.44-24.33,49.07-48.48,73.67-72.67C162.73,294.93,163.26,294.54,164.41,293.58z"/>
	<path class="st0" d="M338.45,515.3c-11.76-19.89-23.2-39.23-34.65-58.57c-27.4-46.3-54.8-92.6-82.24-138.87
		c-1.41-2.38-2.31-4.25-0.78-7.22c24.59-47.65,49.03-95.38,73.51-143.09c0.44-0.86,0.98-1.66,1.8-3.05
		c1.13,1.74,2.04,3.01,2.81,4.37c46.15,81.05,92.28,162.11,138.48,243.13c1.56,2.73,2.27,4.53-0.49,7.21
		c-32.13,31.26-64.11,62.67-96.13,94.04C340.19,513.83,339.55,514.34,338.45,515.3z"/>
</g>
</svg>
