<?xml version="1.0" encoding="utf-8"?>
<!-- Generator: Adobe Illustrator 24.3.0, SVG Export Plug-In . SVG Version: 6.00 Build 0)  -->
<svg version="1.1" id="Layer_1" xmlns="http://www.w3.org/2000/svg" xmlns:xlink="http://www.w3.org/1999/xlink" x="0px" y="0px"
	 viewBox="0 0 612 792" style="enable-background:new 0 0 612 792;" xml:space="preserve">
<style type="text/css">
	.st0{fill:#FFFFFF;}
</style>
<g>
	<path d="M556,646c-166.67,0-333.33,0-500,0c0-166.67,0-333.33,0-500c166.67,0,333.33,0,500,0C556,312.67,556,479.33,556,646z
		 M305.94,444.33c-1.94,2.93-3.11,4.72-4.31,6.5c-33.93,50.04-67.86,100.08-101.84,150.09c-1.85,2.72-3.15,4.89-1.25,8.45
		c1.93,3.63,4.74,2.49,7.3,2.5c16,0.1,32-0.1,48,0.15c4.37,0.07,7.31-1.2,10.18-4.57c60.86-71.39,121.83-142.69,182.77-214.02
		c1.53-1.79,3.68-3.24,1.89-6.38c-1.65-2.89-2.86-4.98-6.94-4.92c-20.16,0.27-40.33,0.13-60.49,0.11c-1.69,0-3.38-0.14-5.8-0.25
		c1.34-1.69,2.01-2.62,2.76-3.47c31.02-35.08,61.99-70.2,93.16-105.14c2.69-3.02,2.77-5.7,0.86-8.31c-1.04-1.41-3.68-2.3-5.6-2.31
		c-28.83-0.14-57.66-0.1-86.49-0.1c-1.74,0-3.47,0-6.45,0c2.24-2.47,3.54-3.93,4.88-5.36c20.59-22.04,41.18-44.09,61.78-66.12
		c1.81-1.94,3.64-3.41,2.26-6.81c-1.45-3.57-3.97-2.93-6.53-2.93c-47.83-0.02-95.66,0.23-143.49-0.23
		c-8.78-0.09-13.46,3.6-17.26,10.49c-23.1,41.82-46.28,83.6-69.43,125.39c-3.65,6.58-1.23,10.78,6.26,10.78
		c31.16,0.01,62.33,0,93.49,0c1.68,0,3.36,0,5.93,0c-1.97,2.47-3.1,3.91-4.25,5.33c-27.14,33.33-54.27,66.68-81.47,99.97
		c-1.8,2.2-2.89,3.87-1.3,6.96c1.59,3.09,3.26,4.3,6.79,4.28c22.66-0.16,45.33-0.08,68-0.08
		C301.11,444.33,302.89,444.33,305.94,444.33z"/>
	<path class="st0" d="M305.94,444.33c-3.05,0-4.83,0-6.61,0c-22.67,0-45.33-0.08-68,0.08c-3.53,0.03-5.2-1.19-6.79-4.28
		c-1.59-3.09-0.5-4.76,1.3-6.96c27.19-33.29,54.32-66.64,81.47-99.97c1.16-1.42,2.28-2.86,4.25-5.33c-2.57,0-4.25,0-5.93,0
		c-31.16,0-62.33,0.01-93.49,0c-7.48,0-9.9-4.2-6.26-10.78c23.15-41.79,46.33-83.57,69.43-125.39c3.8-6.88,8.48-10.57,17.26-10.49
		c47.83,0.46,95.66,0.22,143.49,0.23c2.55,0,5.08-0.63,6.53,2.93c1.38,3.39-0.45,4.87-2.26,6.81
		c-20.61,22.03-41.2,44.07-61.78,66.12c-1.34,1.43-2.64,2.9-4.88,5.36c2.98,0,4.72,0,6.45,0c28.83,0,57.66-0.04,86.49,0.1
		c1.92,0.01,4.56,0.9,5.6,2.31c1.92,2.61,1.83,5.29-0.86,8.31c-31.17,34.94-62.15,70.06-93.16,105.14
		c-0.75,0.85-1.42,1.78-2.76,3.47c2.41,0.11,4.1,0.25,5.8,0.25c20.17,0.02,40.33,0.16,60.49-0.11c4.08-0.05,5.29,2.04,6.94,4.92
		c1.79,3.14-0.36,4.59-1.89,6.38c-60.93,71.33-121.91,142.62-182.77,214.02c-2.87,3.37-5.81,4.64-10.18,4.57
		c-16-0.25-32-0.05-48-0.15c-2.57-0.02-5.37,1.13-7.3-2.5c-1.9-3.56-0.59-5.74,1.25-8.45c33.98-50.01,67.9-100.05,101.84-150.09
		C302.83,449.06,304,447.26,305.94,444.33z"/>
</g>
</svg>
