<?xml version="1.0" encoding="utf-8"?>
<!-- Generator: Adobe Illustrator 24.3.0, SVG Export Plug-In . SVG Version: 6.00 Build 0)  -->
<svg version="1.1" id="Layer_1" xmlns="http://www.w3.org/2000/svg" xmlns:xlink="http://www.w3.org/1999/xlink" x="0px" y="0px"
	 viewBox="0 0 612 792" style="enable-background:new 0 0 612 792;" xml:space="preserve">
<style type="text/css">
	.st0{fill:#FFFFFF;}
</style>
<g>
	<path d="M556,646c-166.67,0-333.33,0-500,0c0-166.67,0-333.33,0-500c166.67,0,333.33,0,500,0C556,312.67,556,479.33,556,646z
		 M106.99,209.18c1.34,14.42,2.58,28.34,4.02,42.25c0.15,1.48,1.26,3.02,2.28,4.24c25.23,29.93,50.5,59.83,75.78,89.72
		c1.09,1.29,2.31,2.46,3.79,4.04c10.16-59.54,60.71-94.84,108.15-96.36c24.91-0.8,47.9,5.28,68.53,19.32
		c27.24,18.55,43.39,44.44,49.35,77.41c1.57-1.7,2.71-2.85,3.75-4.07c22.16-26.2,44.03-52.65,66.61-78.49
		c7.95-9.1,13.72-18.13,13.45-30.77c-0.19-9.01,1.42-18.05,2.24-27.28C372.1,209.18,239.86,209.18,106.99,209.18z M356.97,469.23
		c-34.49,15.53-67.55,15.5-101.08,0.43c0,2.25,0.01,3.86,0,5.47c-0.29,31.15-0.63,62.3-0.77,93.45c-0.02,3.36-1.04,4.95-4.1,6.28
		c-23.82,10.29-47.56,20.76-71.31,31.19c-1.56,0.68-3.06,1.5-5.13,2.53c87.92,0,175,0,263.5,0c-25.7-11.27-50-22.11-74.48-32.52
		c-4.98-2.12-6.84-4.49-6.78-10.11C357.14,534.15,356.97,502.34,356.97,469.23z M324.66,359.26c9.24,3.48,19.5,6.86,29.32,11.24
		c4.86,2.17,8.96,1.99,12.4-1.24c3.94-3.7,7.67-7.92,10.41-12.56c5.95-10.08,8.14-21.41,8.66-32.99c0.34-7.67,0.07-15.36,0.07-23.69
		c-2.46,0.71-3.41,0.93-4.32,1.26c-18.82,6.84-35.66,17.1-51,29.84c-3.43,2.85-6.37,6.31-9.3,9.7c-0.83,0.96-1.39,2.82-1.06,3.98
		C321.18,349.56,322.92,354.2,324.66,359.26z M288.61,357.1c0.38-2.12,0.16-5.83,1.74-8.45c2.06-3.42,1.04-5.56-1.01-7.94
		c-1.63-1.89-3.26-3.81-5.12-5.46c-13.4-11.96-28.41-21.48-44.74-28.91c-4.02-1.83-8.22-3.26-13.19-5.2
		c-2.06,23.44-1.41,45.23,12.99,64.21c2.05,2.7,5.04,4.82,7.94,6.68c1.25,0.8,3.59,0.8,5.05,0.21
		C264.22,367.41,276.09,362.35,288.61,357.1z M288.32,363.77c-10.86,4.47-21.41,7.79-30.93,12.99
		c-11.32,6.18-12.49,14.22-5.47,25.03c0.45,0.7,0.89,1.41,1.4,2.07c10.93,13.98,10.83,26.71-0.9,40.66
		c-1.91,2.27-3.76,4.77-4.85,7.48c-1.75,4.37,1.04,7.82,5.7,7.13c2.18-0.32,4.42-1.44,6.26-2.73c7.64-5.31,13.26-12.35,18.17-20.29
		c12.56-20.32,14.12-42.64,12.94-65.56C290.57,368.85,289.53,367.2,288.32,363.77z M321.98,364.61c-0.44,4.48-0.58,7.11-0.98,9.69
		c-3.8,24.71,1.71,47.42,15.69,67.84c4.22,6.17,10.47,11.03,16.16,16.06c2.69,2.37,6.54,3.37,9.49,0.23
		c2.79-2.97,1.25-6.22-0.74-9.1c-1.23-1.78-2.85-3.32-3.89-5.19c-2.72-4.89-6.11-9.65-7.6-14.92c-2.83-9.98,2.66-17.9,8.08-25.68
		c8.2-11.77,6.55-20.49-6.18-27.01C342.8,371.82,332.72,368.8,321.98,364.61z M327.56,440.47c-2.89-6.53-6.19-12.92-8.54-19.64
		c-2.29-6.56-3.6-13.46-5.4-20.45c-2.6,3.24-4.41,8.42-9.24,5.68c-3.1-1.76-4.92-5.77-7.64-9.19c-0.86,15.87-6.61,29.97-14.25,43.37
		C293.89,445.52,316.48,445.51,327.56,440.47z M309.04,259.29c0,9.71,0,17.61,0,25.24c6.82,1.39,13.28,3.42,19.81,3.74
		c3.33,0.17,8.03-1.83,9.96-4.43c3.27-4.4,4.83-10.07,7.74-16.63C333.91,264.53,321.85,261.99,309.04,259.29z M388.66,369.24
		c-1.71,9.27-3.29,17.89-4.95,26.9c6.97,2.95,14.23,6.03,21.72,9.2c4.48-12.07,7.07-23.74,6.88-36.11
		C404,369.24,396.22,369.24,388.66,369.24z M266.85,266.64c3.37,7.93,5.87,14.25,8.81,20.36c0.53,1.11,2.96,2.13,4.29,1.9
		c7.5-1.29,14.92-2.98,22.67-4.59c0-7.57,0-15.46,0-24.86C290.64,261.87,279.22,264.16,266.85,266.64z M302.55,473.41
		c0-7.98,0-15.36,0-22.34c-7.55-1.52-14.68-2.98-21.82-4.34c-0.84-0.16-2.25-0.13-2.61,0.38c-4.27,5.97-11.43,9.96-12.51,18.49
		C277.22,470.49,289.41,473.14,302.55,473.41z M231.47,289.43c0.03,0.82,0.05,1.64,0.08,2.45c5.77,4.04,11.47,8.17,17.36,12.04
		c0.9,0.59,2.88,0.44,3.89-0.16c5.4-3.24,10.72-6.63,15.88-10.25c0.92-0.64,1.63-2.86,1.23-3.89c-2.5-6.49-5.34-12.85-8.62-20.55
		C251.02,276.08,241.25,282.76,231.47,289.43z M206.84,409.27c6.99,10.66,13.54,20.65,20.03,30.56
		c6.21-6.21,11.45-11.45,16.38-16.38c-4.72-7.3-9.65-14.91-14.81-22.89C221.99,403.16,215.26,405.88,206.84,409.27z M309.06,474.62
		c12.3-2.51,24.01-4.9,35.71-7.28c0.29-0.76,0.58-1.52,0.87-2.28c-4.54-6.33-9.08-12.66-13.33-18.58
		c-8.28,1.56-15.72,2.96-23.26,4.37C309.06,458.28,309.06,465.69,309.06,474.62z M199.46,369.21c0.3,12.01,2.12,23.1,6.42,34.01
		c7.29-2.96,14.02-5.7,20.47-8.32c-1.52-8.81-2.98-17.21-4.45-25.7C214.64,369.21,207.38,369.21,199.46,369.21z M369.42,420.3
		c5.46,6.26,10.53,12.09,16.32,18.73c6.19-9.5,12.01-18.42,18.14-27.84c-8.44-3.56-15.67-6.62-22.54-9.52
		C376.75,408.85,372.57,415.39,369.42,420.3z M413.38,362.79c-2.36-11.57-4.6-22.58-6.95-34.09c-5.51,2.19-9.68,3.78-13.78,5.54
		c-0.96,0.41-2.24,1.32-2.4,2.18c-1.6,8.64-6.19,17.08-1.67,26.37C396.05,362.79,403.95,362.79,413.38,362.79z M352,269.96
		c-3.22,7.19-5.98,13.21-8.61,19.3c-1.2,2.78-0.76,4.91,2.31,6.56c3.64,1.96,6.89,4.66,10.45,6.78c1.23,0.73,3.11,1.36,4.34,0.95
		c7.7-2.58,12.69-8.54,18.59-15.23C369.87,282.07,361.16,276.17,352,269.96z M221.92,362.9c4.23-10.01,0.08-19.02-1.54-28.18
		c-0.16-0.89-1.33-1.88-2.26-2.31c-3.56-1.64-7.22-3.07-11.2-4.73c-4.5,11.59-7.18,23.01-7.27,35.22
		C207.46,362.9,214.74,362.9,221.92,362.9z M285.75,293.78c13.62,8.88,18.23,21.09,17.28,35.71c2.67,0,4.71,0,7.13,0
		c-0.66-13.92,1.24-26.76,14.34-35.76C311.07,290.38,299.25,290.43,285.75,293.78z M254.73,425.3c1.05-6.95-2.05-11.55-5.26-15.91
		c-7.08-9.61-11.66-19.45-5.98-28.25c-5.79-5.94-10.8-11.08-14.73-15.11C227.71,387.69,236.39,407.89,254.73,425.3z M355.87,424.59
		c18.32-14.7,28.48-43.29,25.37-60.89c-5.2,4.82-10.64,9.87-16.26,15.07c3.97,4.46,5.53,10.51,3.78,16.66
		c-1.37,4.82-4.21,9.29-6.79,13.68C359.24,413.78,355.64,418.02,355.87,424.59z M307.73,399.51c2.78-9.71,5.55-19.43,8.34-29.19
		c-6.92,0-12.45,0-17.93,0C297.39,377.59,301.53,392.27,307.73,399.51z M306.42,348.94c-1.47,0.1-3.62,0.3-5.78,0.37
		c-4.49,0.14-6.11,2.43-5.69,6.8c0.65,6.71,2.57,8.91,9.91,8.58c3.66-0.17,8.73-1.04,10.55-3.51c5.08-6.9,1.71-12.27-6.79-12.23
		C308.11,348.95,307.61,348.94,306.42,348.94z M379.51,444.14c-5.38-6.16-10.45-11.98-15.66-17.95c-2.59,2.32-4.64,4.17-6.87,6.17
		c4.64,6.67,9.03,12.98,13.62,19.57C373.84,449.1,377.15,446.2,379.51,444.14z M249.3,428.65c-5.54,5.35-10.87,10.51-16.49,15.93
		c2.48,2.13,5.06,4.35,7.52,6.46c4.46-6.4,8.69-12.46,13.05-18.71C251.64,430.75,250.18,429.44,249.3,428.65z M392.77,304.61
		c-0.34,0.15-0.69,0.3-1.03,0.46c0,7.52,0,15.04,0,23.05c4-1.61,7.6-3.07,11.87-4.8C399.8,316.75,396.28,310.68,392.77,304.61z
		 M269.8,299.65c-4.45,2.96-8.35,5.55-12.75,8.48c5.3,3.29,9.77,6.06,14.64,9.08C271.05,311.26,270.47,305.9,269.8,299.65z
		 M219.4,326.42c0-7.37,0-13.91,0-20.45c-0.26-0.15-0.51-0.3-0.77-0.45c-3.11,5.39-6.21,10.79-9.51,16.51
		C212.86,323.62,215.71,324.84,219.4,326.42z M343.1,301.13c-0.57,4.72-1.05,8.67-1.65,13.57c4.18-2.62,7.45-4.67,11.23-7.03
		C349.29,305.35,346.47,303.43,343.1,301.13z M312.37,342.83c-0.24-3.96-1.85-6.66-5.49-6.89c-4.4-0.28-5.58,3.23-6.66,6.89
		C304.4,342.83,308.27,342.83,312.37,342.83z M278.09,314.86c1.04,6.16,2.51,7,9.97,6.04C287.08,315.42,283.01,314.84,278.09,314.86
		z M282.41,323.38c-0.25,0.41-0.51,0.81-0.76,1.22c3.86,2.62,7.72,5.25,11.58,7.87C290.82,324.16,290.82,324.16,282.41,323.38z
		 M334.76,312.21c-4.6,0.56-9.11,0.65-9.46,6.58C333.85,318.86,334.45,318.45,334.76,312.21z M318.95,330.94
		c4.81-3.41,8.62-6.11,12.43-8.81C322.85,321.11,321.75,321.92,318.95,330.94z M291.14,319.98c1.86-3.95,6.01-7.32,0.56-11.88
		C289.67,311.92,286.02,315.2,291.14,319.98z M321.4,305.72c-5.37,4.66-1.25,7.97,0.67,11.71
		C327.02,313.2,323.83,309.71,321.4,305.72z M315.81,327.55c5.8-6.96,5.82-7.52,1.1-12.59
		C316.53,319.37,316.17,323.46,315.81,327.55z M297.25,329.64c-0.36-3.96-0.71-7.93-1.13-12.53
		C290.9,322.29,293.27,326.05,297.25,329.64z M285.82,302.26c0,3.45,0,6.16,0,8.86C288.62,308.33,292.13,305.5,285.82,302.26z
		 M278.24,307.09c-0.42,0.55-0.85,1.1-1.27,1.65c-0.19,5.09,3.98,3.49,6.72,4.09c0.3-0.44,0.61-0.88,0.91-1.32
		C282.48,310.04,280.36,308.56,278.24,307.09z M328.53,309.24c7.7,0.8,7.87,0.66,6.64-4.82
		C332.75,306.18,330.64,307.71,328.53,309.24z M322.74,302.98c1.34,2.41,2.34,4.23,3.35,6.04c0.41-0.07,0.82-0.14,1.23-0.22
		c0-2.83,0-5.65,0-9.78C324.93,301.09,323.83,302.04,322.74,302.98z"/>
	<path class="st0" d="M106.99,209.18c132.87,0,265.11,0,397.95,0c-0.82,9.22-2.44,18.27-2.24,27.28
		c0.27,12.64-5.5,21.67-13.45,30.77c-22.57,25.84-44.45,52.29-66.61,78.49c-1.04,1.23-2.17,2.37-3.75,4.07
		c-5.96-32.97-22.1-58.86-49.35-77.41c-20.63-14.04-43.62-20.12-68.53-19.32c-47.44,1.52-97.99,36.82-108.15,96.36
		c-1.48-1.57-2.7-2.75-3.79-4.04c-25.28-29.89-50.55-59.78-75.78-89.72c-1.02-1.21-2.13-2.75-2.28-4.24
		C109.57,237.52,108.33,223.6,106.99,209.18z"/>
	<path class="st0" d="M356.97,469.23c0,33.11,0.17,64.92-0.16,96.72c-0.06,5.62,1.8,8,6.78,10.11
		c24.48,10.41,48.78,21.25,74.48,32.52c-88.49,0-175.58,0-263.5,0c2.07-1.03,3.57-1.84,5.13-2.53c23.76-10.43,47.5-20.9,71.31-31.19
		c3.06-1.32,4.09-2.92,4.1-6.28c0.14-31.15,0.49-62.3,0.77-93.45c0.01-1.61,0-3.22,0-5.47
		C289.42,484.74,322.47,484.76,356.97,469.23z"/>
	<path class="st0" d="M324.66,359.26c-1.73-5.06-3.48-9.7-4.83-14.45c-0.33-1.16,0.23-3.03,1.06-3.98c2.93-3.39,5.87-6.85,9.3-9.7
		c15.34-12.74,32.19-23,51-29.84c0.91-0.33,1.87-0.55,4.32-1.26c0,8.33,0.28,16.02-0.07,23.69c-0.52,11.58-2.71,22.9-8.66,32.99
		c-2.73,4.64-6.46,8.86-10.41,12.56c-3.44,3.23-7.54,3.4-12.4,1.24C344.16,366.12,333.89,362.74,324.66,359.26z M337.49,341.72
		c0.1,5.29,3.99,9.23,9.06,9.17c4.91-0.05,8.95-4.3,8.96-9.39c0-5.35-4.29-9.63-9.43-9.42
		C340.98,332.29,337.38,336.34,337.49,341.72z"/>
	<path class="st0" d="M288.61,357.1c-12.52,5.25-24.39,10.31-36.35,15.14c-1.46,0.59-3.8,0.59-5.05-0.21
		c-2.9-1.86-5.89-3.98-7.94-6.68c-14.4-18.98-15.04-40.77-12.99-64.21c4.98,1.95,9.17,3.38,13.19,5.2
		c16.33,7.42,31.33,16.95,44.74,28.91c1.86,1.66,3.49,3.57,5.12,5.46c2.05,2.38,3.07,4.52,1.01,7.94
		C288.77,351.28,288.99,354.99,288.61,357.1z M262.99,350.89c5.05-0.13,8.93-4.31,8.84-9.56c-0.08-5.24-4.17-9.36-9.17-9.25
		c-5.04,0.11-8.91,4.31-8.83,9.58C253.92,346.92,257.97,351.01,262.99,350.89z"/>
	<path class="st0" d="M288.32,363.77c1.21,3.42,2.24,5.08,2.33,6.78c1.18,22.92-0.38,45.24-12.94,65.56
		c-4.91,7.94-10.53,14.98-18.17,20.29c-1.85,1.28-4.08,2.41-6.26,2.73c-4.66,0.68-7.45-2.76-5.7-7.13c1.08-2.71,2.94-5.22,4.85-7.48
		c11.73-13.95,11.83-26.68,0.9-40.66c-0.51-0.65-0.95-1.37-1.4-2.07c-7.02-10.81-5.85-18.85,5.47-25.03
		C266.92,371.56,277.47,368.24,288.32,363.77z M260.98,388.48c0.1,5.36,3.99,9.17,9.22,9.04c5.13-0.13,8.9-4.24,8.76-9.56
		c-0.14-5.31-4.1-9.16-9.27-9.03C264.52,379.05,260.88,383.05,260.98,388.48z"/>
	<path class="st0" d="M321.98,364.61c10.73,4.18,20.82,7.21,30.04,11.93c12.74,6.52,14.39,15.24,6.18,27.01
		c-5.43,7.79-10.92,15.7-8.08,25.68c1.5,5.27,4.88,10.03,7.6,14.92c1.04,1.87,2.66,3.41,3.89,5.19c1.99,2.87,3.54,6.12,0.74,9.1
		c-2.95,3.14-6.8,2.14-9.49-0.23c-5.7-5.03-11.94-9.9-16.16-16.06c-13.98-20.42-19.49-43.13-15.69-67.84
		C321.4,371.72,321.54,369.09,321.98,364.61z M340.84,397.51c5.13,0.01,8.98-3.99,8.97-9.29c-0.01-5.33-3.86-9.31-8.98-9.29
		c-5.15,0.03-9,4.01-8.99,9.29C331.85,393.53,335.69,397.5,340.84,397.51z"/>
	<path class="st0" d="M327.56,440.47c-11.08,5.04-33.68,5.06-45.08-0.23c7.65-13.4,13.39-27.49,14.25-43.37
		c2.73,3.42,4.55,7.44,7.64,9.19c4.83,2.74,6.65-2.44,9.24-5.68c1.8,6.99,3.11,13.89,5.4,20.45
		C321.37,427.55,324.68,433.93,327.56,440.47z"/>
	<path class="st0" d="M309.04,259.29c12.82,2.7,24.87,5.25,37.51,7.92c-2.91,6.56-4.47,12.23-7.74,16.63
		c-1.93,2.61-6.63,4.6-9.96,4.43c-6.54-0.32-12.99-2.35-19.81-3.74C309.04,276.9,309.04,269,309.04,259.29z"/>
	<path class="st0" d="M388.66,369.24c7.56,0,15.33,0,23.66,0c0.19,12.36-2.41,24.03-6.88,36.11c-7.5-3.17-14.75-6.25-21.72-9.2
		C385.37,387.12,386.96,378.51,388.66,369.24z"/>
	<path class="st0" d="M266.85,266.64c12.37-2.48,23.79-4.78,35.76-7.18c0,9.4,0,17.29,0,24.86c-7.74,1.61-15.17,3.3-22.67,4.59
		c-1.33,0.23-3.76-0.79-4.29-1.9C272.72,280.9,270.22,274.58,266.85,266.64z"/>
	<path class="st0" d="M302.55,473.41c-13.14-0.26-25.33-2.91-36.95-7.81c1.08-8.53,8.24-12.53,12.51-18.49
		c0.36-0.5,1.77-0.54,2.61-0.38c7.15,1.37,14.28,2.83,21.82,4.34C302.55,458.04,302.55,465.43,302.55,473.41z"/>
	<path class="st0" d="M231.47,289.43c9.77-6.67,19.55-13.34,29.81-20.35c3.28,7.7,6.12,14.06,8.62,20.55
		c0.4,1.03-0.31,3.25-1.23,3.89c-5.15,3.61-10.48,7-15.88,10.25c-1,0.6-2.98,0.75-3.89,0.16c-5.88-3.87-11.59-8-17.36-12.04
		C231.52,291.06,231.5,290.25,231.47,289.43z"/>
	<path class="st0" d="M206.84,409.27c8.42-3.39,15.15-6.11,21.6-8.71c5.16,7.97,10.09,15.59,14.81,22.89
		c-4.94,4.93-10.17,10.17-16.38,16.38C220.38,429.93,213.83,419.93,206.84,409.27z"/>
	<path class="st0" d="M309.06,474.62c0-8.93,0-16.34,0-23.77c7.53-1.42,14.98-2.82,23.26-4.37c4.25,5.92,8.79,12.25,13.33,18.58
		c-0.29,0.76-0.58,1.52-0.87,2.28C333.06,469.73,321.36,472.11,309.06,474.62z"/>
	<path class="st0" d="M199.46,369.21c7.92,0,15.18,0,22.43,0c1.47,8.49,2.92,16.89,4.45,25.7c-6.45,2.62-13.17,5.35-20.47,8.32
		C201.58,392.32,199.76,381.22,199.46,369.21z"/>
	<path class="st0" d="M369.42,420.3c3.15-4.91,7.33-11.45,11.92-18.63c6.87,2.9,14.1,5.96,22.54,9.52
		c-6.13,9.41-11.95,18.33-18.14,27.84C379.96,432.39,374.88,426.56,369.42,420.3z"/>
	<path class="st0" d="M413.38,362.79c-9.43,0-17.33,0-24.8,0c-4.52-9.29,0.07-17.72,1.67-26.37c0.16-0.86,1.43-1.77,2.4-2.18
		c4.1-1.76,8.27-3.35,13.78-5.54C408.77,340.21,411.02,351.22,413.38,362.79z"/>
	<path class="st0" d="M352,269.96c9.17,6.21,17.88,12.12,27.09,18.36c-5.9,6.69-10.9,12.65-18.59,15.23
		c-1.22,0.41-3.11-0.22-4.34-0.95c-3.57-2.13-6.81-4.82-10.45-6.78c-3.07-1.65-3.51-3.78-2.31-6.56
		C346.02,283.17,348.78,277.14,352,269.96z"/>
	<path class="st0" d="M221.92,362.9c-7.18,0-14.46,0-22.28,0c0.08-12.22,2.77-23.63,7.27-35.22c3.98,1.66,7.64,3.09,11.2,4.73
		c0.94,0.43,2.11,1.42,2.26,2.31C222,343.88,226.16,352.89,221.92,362.9z"/>
	<path class="st0" d="M285.75,293.78c13.5-3.35,25.32-3.4,38.75-0.05c-13.1,9-15,21.83-14.34,35.76c-2.42,0-4.46,0-7.13,0
		C303.98,314.87,299.38,302.66,285.75,293.78z"/>
	<path class="st0" d="M254.73,425.3c-18.34-17.41-27.02-37.61-25.96-59.26c3.93,4.03,8.93,9.16,14.73,15.11
		c-5.68,8.79-1.1,18.64,5.98,28.25C252.68,413.75,255.77,418.35,254.73,425.3z"/>
	<path class="st0" d="M355.87,424.59c-0.23-6.57,3.37-10.81,6.11-15.49c2.57-4.4,5.41-8.86,6.79-13.68
		c1.75-6.14,0.19-12.19-3.78-16.66c5.61-5.2,11.06-10.25,16.26-15.07C384.35,381.3,374.19,409.89,355.87,424.59z"/>
	<path class="st0" d="M307.73,399.51c-6.2-7.23-10.34-21.92-9.59-29.19c5.49,0,11.01,0,17.93,0
		C313.28,380.08,310.51,389.79,307.73,399.51z"/>
	<path class="st0" d="M306.42,348.94c1.2,0,1.69,0,2.19,0c8.5-0.04,11.87,5.34,6.79,12.23c-1.82,2.47-6.9,3.35-10.55,3.51
		c-7.34,0.34-9.26-1.87-9.91-8.58c-0.42-4.38,1.21-6.66,5.69-6.8C302.8,349.25,304.95,349.04,306.42,348.94z"/>
	<path class="st0" d="M379.51,444.14c-2.36,2.07-5.67,4.96-8.91,7.79c-4.59-6.6-8.98-12.9-13.62-19.57c2.23-2,4.28-3.84,6.87-6.17
		C369.05,432.15,374.13,437.97,379.51,444.14z"/>
	<path class="st0" d="M249.3,428.65c0.88,0.79,2.33,2.1,4.08,3.68c-4.36,6.25-8.58,12.31-13.05,18.71
		c-2.46-2.11-5.05-4.33-7.52-6.46C238.43,439.16,243.77,434,249.3,428.65z"/>
	<path class="st0" d="M392.77,304.61c3.52,6.07,7.03,12.14,10.84,18.71c-4.27,1.73-7.87,3.18-11.87,4.8c0-8,0-15.53,0-23.05
		C392.08,304.91,392.42,304.76,392.77,304.61z"/>
	<path class="st0" d="M269.8,299.65c0.67,6.25,1.25,11.61,1.89,17.55c-4.87-3.02-9.34-5.79-14.64-9.08
		C261.45,305.2,265.35,302.61,269.8,299.65z"/>
	<path class="st0" d="M219.4,326.42c-3.69-1.58-6.54-2.8-10.28-4.39c3.29-5.72,6.4-11.11,9.51-16.51c0.26,0.15,0.51,0.3,0.77,0.45
		C219.4,312.51,219.4,319.05,219.4,326.42z"/>
	<path class="st0" d="M343.1,301.13c3.37,2.3,6.18,4.22,9.58,6.54c-3.77,2.36-7.05,4.42-11.23,7.03
		C342.05,309.79,342.53,305.85,343.1,301.13z"/>
	<path class="st0" d="M312.37,342.83c-4.1,0-7.97,0-12.14,0c1.07-3.67,2.26-7.17,6.66-6.89
		C310.52,336.17,312.13,338.87,312.37,342.83z"/>
	<path class="st0" d="M278.09,314.86c4.92-0.02,8.99,0.56,9.97,6.04C280.6,321.86,279.13,321.02,278.09,314.86z"/>
	<path class="st0" d="M282.41,323.38c8.41,0.78,8.41,0.78,10.82,9.09c-3.86-2.62-7.72-5.25-11.58-7.87
		C281.91,324.2,282.16,323.79,282.41,323.38z"/>
	<path class="st0" d="M334.76,312.21c-0.3,6.24-0.91,6.64-9.46,6.58C325.65,312.86,330.16,312.77,334.76,312.21z"/>
	<path class="st0" d="M318.95,330.94c2.8-9.02,3.91-9.83,12.43-8.81C327.57,324.83,323.76,327.53,318.95,330.94z"/>
	<path class="st0" d="M291.14,319.98c-5.12-4.77-1.47-8.05,0.56-11.88C297.15,312.65,293,316.02,291.14,319.98z"/>
	<path class="st0" d="M321.4,305.72c2.44,3.99,5.62,7.48,0.67,11.71C320.15,313.69,316.02,310.38,321.4,305.72z"/>
	<path class="st0" d="M315.81,327.55c0.36-4.09,0.72-8.18,1.1-12.59C321.63,320.03,321.6,320.58,315.81,327.55z"/>
	<path class="st0" d="M297.25,329.64c-3.98-3.59-6.35-7.35-1.13-12.53C296.54,321.71,296.89,325.68,297.25,329.64z"/>
	<path class="st0" d="M285.82,302.26c6.3,3.24,2.79,6.07,0,8.86C285.82,308.42,285.82,305.71,285.82,302.26z"/>
	<path class="st0" d="M278.24,307.09c2.12,1.47,4.24,2.95,6.35,4.42c-0.3,0.44-0.61,0.88-0.91,1.32c-2.74-0.6-6.91,1-6.72-4.09
		C277.39,308.19,277.81,307.64,278.24,307.09z"/>
	<path class="st0" d="M328.53,309.24c2.11-1.53,4.21-3.06,6.64-4.82C336.41,309.9,336.23,310.04,328.53,309.24z"/>
	<path class="st0" d="M322.74,302.98c1.09-0.94,2.19-1.89,4.58-3.95c0,4.12,0,6.95,0,9.78c-0.41,0.07-0.82,0.14-1.23,0.22
		C325.08,307.21,324.07,305.39,322.74,302.98z"/>
	<path d="M337.49,341.72c-0.11-5.38,3.49-9.43,8.58-9.64c5.14-0.21,9.43,4.07,9.43,9.42c0,5.1-4.04,9.34-8.96,9.39
		C341.48,350.95,337.59,347.02,337.49,341.72z M351,345.93c2.29-2.45,2.75-5.5,0.57-8.19c-1.32-1.63-3.8-2.32-5.76-3.44
		c-0.42,0.56-0.85,1.11-1.27,1.67C346.66,339.24,348.77,342.49,351,345.93z M341.45,337.32c-2.26,3.75-1.83,7,1.5,9.57
		c0.93,0.72,2.62,0.47,3.97,0.66c-0.1-1.36,0.25-2.99-0.39-4.01C345.17,341.37,343.3,339.53,341.45,337.32z"/>
	<path d="M262.99,350.89c-5.02,0.12-9.07-3.96-9.15-9.23c-0.08-5.26,3.79-9.46,8.83-9.58c5-0.11,9.08,4,9.17,9.25
		C271.92,346.57,268.04,350.76,262.99,350.89z M262.65,334.08c-0.61,0.64-1.22,1.29-1.83,1.93c2.19,3.21,4.37,6.41,6.56,9.62
		c0.44,0,0.88,0.01,1.32,0.01c-0.11-2.52,0.48-5.38-0.54-7.45C267.25,336.37,264.56,335.42,262.65,334.08z M258.14,337.46
		c-2.23,4.1-1.89,7.6,1.24,9.49c1.05,0.63,2.65,0.35,4,0.49c-0.14-1.36,0.14-2.97-0.49-4.02
		C261.62,341.34,259.85,339.56,258.14,337.46z"/>
	<path d="M260.98,388.48c-0.1-5.43,3.54-9.42,8.7-9.55c5.17-0.13,9.13,3.73,9.27,9.03c0.14,5.32-3.63,9.43-8.76,9.56
		C264.97,397.65,261.08,393.83,260.98,388.48z M274.79,392.45c2.28-4.76,1.67-8.5-1.97-10.22c-1.11-0.53-2.67-0.1-4.02-0.11
		c0.24,1.22,0.16,2.64,0.79,3.6C271.09,388.01,272.92,390.08,274.79,392.45z M265.21,384.13c-2.11,3.87-2.02,7.06,0.7,9.11
		c1.13,0.85,2.89,0.88,4.36,1.29c-0.18-1.6,0.08-3.45-0.63-4.75C268.5,387.7,266.71,385.99,265.21,384.13z"/>
	<path d="M340.84,397.51c-5.15-0.01-9-3.98-9-9.29c-0.01-5.29,3.85-9.27,8.99-9.29c5.12-0.03,8.97,3.95,8.98,9.29
		C349.83,393.52,345.97,397.52,340.84,397.51z M345.59,392.56c2.42-4.6,1.91-8.36-1.67-10.23c-1.13-0.59-2.7-0.31-4.08-0.43
		c0.22,1.34,0.07,2.9,0.72,3.96C341.98,388.17,343.8,390.23,345.59,392.56z M336.25,384.23c-2.57,3.62-2.16,7.74,1.46,9.74
		c0.98,0.54,2.39,0.3,3.6,0.41c-0.06-1.37,0.36-3.02-0.26-4.05C339.71,388.1,337.84,386.19,336.25,384.23z"/>
	<path class="st0" d="M351,345.93c-2.23-3.44-4.34-6.7-6.46-9.96c0.42-0.56,0.85-1.11,1.27-1.67c1.96,1.12,4.43,1.81,5.76,3.44
		C353.75,340.44,353.29,343.49,351,345.93z"/>
	<path class="st0" d="M341.45,337.32c1.85,2.21,3.72,4.05,5.07,6.22c0.64,1.02,0.29,2.65,0.39,4.01c-1.34-0.19-3.03,0.06-3.97-0.66
		C339.62,344.32,339.19,341.07,341.45,337.32z"/>
	<path class="st0" d="M262.65,334.08c1.9,1.34,4.6,2.29,5.5,4.12c1.02,2.07,0.43,4.93,0.54,7.45c-0.44,0-0.88-0.01-1.32-0.01
		c-2.19-3.21-4.37-6.41-6.56-9.62C261.43,335.37,262.04,334.73,262.65,334.08z"/>
	<path class="st0" d="M258.14,337.46c1.72,2.1,3.48,3.88,4.75,5.96c0.64,1.05,0.36,2.66,0.49,4.02c-1.35-0.14-2.95,0.14-4-0.49
		C256.24,345.06,255.9,341.57,258.14,337.46z"/>
	<path class="st0" d="M274.79,392.45c-1.87-2.38-3.7-4.44-5.2-6.73c-0.63-0.96-0.55-2.39-0.79-3.6c1.35,0.01,2.92-0.42,4.02,0.11
		C276.46,383.96,277.07,387.7,274.79,392.45z"/>
	<path class="st0" d="M265.21,384.13c1.5,1.85,3.29,3.57,4.43,5.65c0.72,1.31,0.45,3.15,0.63,4.75c-1.47-0.4-3.23-0.44-4.36-1.29
		C263.18,391.2,263.1,388.01,265.21,384.13z"/>
	<path class="st0" d="M345.59,392.56c-1.79-2.33-3.62-4.39-5.03-6.69c-0.65-1.07-0.51-2.63-0.72-3.96c1.37,0.12,2.95-0.16,4.08,0.43
		C347.5,384.2,348.01,387.96,345.59,392.56z"/>
	<path class="st0" d="M336.25,384.23c1.59,1.96,3.46,3.87,4.8,6.1c0.62,1.03,0.21,2.68,0.26,4.05c-1.21-0.12-2.62,0.13-3.6-0.41
		C334.1,391.97,333.68,387.85,336.25,384.23z"/>
</g>
</svg>
