<?xml version="1.0" encoding="utf-8"?>
<!-- Generator: Adobe Illustrator 24.3.0, SVG Export Plug-In . SVG Version: 6.00 Build 0)  -->
<svg version="1.1" id="Layer_1" xmlns="http://www.w3.org/2000/svg" xmlns:xlink="http://www.w3.org/1999/xlink" x="0px" y="0px"
	 viewBox="0 0 612 792" style="enable-background:new 0 0 612 792;" xml:space="preserve">
<style type="text/css">
	.st0{fill:#FFFFFF;}
</style>
<g>
	<path d="M556,646c-166.67,0-333.33,0-500,0c0-166.67,0-333.33,0-500c166.67,0,333.33,0,500,0C556,312.67,556,479.33,556,646z
		 M322,625.75c0-15.33,0-30.3,0-45.26c0-56.33,0-112.65-0.01-168.98c0-2.66-0.17-4.87,3.09-6.45
		c43.71-21.21,87.29-42.7,131.04-63.84c3.78-1.82,4.98-3.62,4.96-7.64c-0.15-37.33-0.09-74.66-0.09-111.99c0-1.76,0-3.51,0-5.87
		c8.23,3.28,15.8,6.3,23.37,9.33c0.14-0.25,0.27-0.51,0.41-0.76c-13.19-15.54-26.39-31.09-39.8-46.88
		c-13.61,16.06-26.7,31.51-39.79,46.95c0.16,0.23,0.31,0.47,0.47,0.7c7.29-2.9,14.58-5.81,21.95-8.74c0.21,0.94,0.35,1.26,0.35,1.58
		c0.02,32.66-0.03,65.33,0.13,97.99c0.02,3.3-1.8,4.16-4.12,5.29c-32.44,15.85-64.86,31.75-97.29,47.62
		c-1.38,0.67-2.8,1.24-4.38,1.94c0-47.97,0-95.2,0-142.91c7.95,3.17,15.49,6.18,23.04,9.19c0.14-0.26,0.28-0.53,0.42-0.79
		c-13.19-15.53-26.37-31.06-39.77-46.84c-13.63,16.08-26.7,31.51-39.77,46.94c0.17,0.24,0.34,0.48,0.51,0.73
		c7.61-3.06,15.22-6.12,23.03-9.27c0,48.06,0,95.47,0,143.25c-0.93-0.3-1.55-0.41-2.11-0.68c-33.94-16.58-67.85-33.22-101.84-49.69
		c-3.05-1.48-2.81-3.64-2.81-6.12c0.01-31.33,0-62.66,0.02-93.99c0-1.42,0.14-2.84,0.25-4.74c7.98,3.19,15.53,6.2,23.09,9.22
		c0.14-0.26,0.28-0.52,0.41-0.78c-13.19-15.53-26.38-31.07-39.78-46.85c-13.62,16.07-26.7,31.51-39.78,46.94
		c0.16,0.23,0.32,0.46,0.49,0.7c7.28-2.9,14.57-5.8,22.32-8.89c0,2.62,0,4.44,0,6.27c0,36.33,0.12,72.66-0.13,108.99
		c-0.04,5.48,1.4,8.17,6.62,10.68c43.2,20.75,86.16,41.98,129.27,62.91c3.4,1.65,4.33,3.55,4.32,7.18
		c-0.12,69.16-0.09,138.32-0.09,207.48c0,1.95,0,3.91,0,6.1C300.75,625.75,311.01,625.75,322,625.75z"/>
	<path class="st0" d="M322,625.75c-10.99,0-21.25,0-32,0c0-2.19,0-4.15,0-6.1c0-69.16-0.03-138.32,0.09-207.48
		c0.01-3.63-0.93-5.53-4.32-7.18c-43.11-20.92-86.07-42.16-129.27-62.91c-5.22-2.51-6.66-5.2-6.62-10.68
		c0.25-36.33,0.13-72.66,0.13-108.99c0-1.82,0-3.65,0-6.27c-7.75,3.09-15.03,5.99-22.32,8.89c-0.16-0.23-0.32-0.46-0.49-0.7
		c13.08-15.44,26.16-30.87,39.78-46.94c13.4,15.79,26.59,31.32,39.78,46.85c-0.14,0.26-0.28,0.52-0.41,0.78
		c-7.55-3.02-15.1-6.03-23.09-9.22c-0.1,1.9-0.25,3.32-0.25,4.74c-0.01,31.33-0.01,62.66-0.02,93.99c0,2.49-0.24,4.65,2.81,6.12
		c33.99,16.47,67.9,33.11,101.84,49.69c0.55,0.27,1.18,0.39,2.11,0.68c0-47.78,0-95.19,0-143.25c-7.81,3.14-15.42,6.21-23.03,9.27
		c-0.17-0.24-0.34-0.48-0.51-0.73c13.07-15.43,26.15-30.86,39.77-46.94c13.4,15.78,26.58,31.31,39.77,46.84
		c-0.14,0.26-0.28,0.53-0.42,0.79c-7.54-3.01-15.09-6.02-23.04-9.19c0,47.71,0,94.94,0,142.91c1.58-0.7,3.01-1.27,4.38-1.94
		c32.43-15.88,64.85-31.78,97.29-47.62c2.32-1.13,4.13-2,4.12-5.29c-0.15-32.66-0.11-65.33-0.13-97.99c0-0.32-0.14-0.64-0.35-1.58
		c-7.37,2.93-14.66,5.84-21.95,8.74c-0.16-0.23-0.31-0.47-0.47-0.7c13.09-15.45,26.18-30.89,39.79-46.95
		c13.41,15.79,26.6,31.34,39.8,46.88c-0.14,0.25-0.27,0.51-0.41,0.76c-7.57-3.02-15.14-6.04-23.37-9.33c0,2.36,0,4.12,0,5.87
		c0,37.33-0.06,74.66,0.09,111.99c0.02,4.02-1.19,5.82-4.96,7.64c-43.75,21.14-87.33,42.62-131.04,63.84
		c-3.26,1.58-3.09,3.79-3.09,6.45C322,467.84,322,524.16,322,580.49C322,595.46,322,610.42,322,625.75z"/>
</g>
</svg>
