<?xml version="1.0" encoding="utf-8"?>
<!-- Generator: Adobe Illustrator 24.3.0, SVG Export Plug-In . SVG Version: 6.00 Build 0)  -->
<svg version="1.1" id="Layer_1" xmlns="http://www.w3.org/2000/svg" xmlns:xlink="http://www.w3.org/1999/xlink" x="0px" y="0px"
	 viewBox="0 0 612 792" style="enable-background:new 0 0 612 792;" xml:space="preserve">
<style type="text/css">
	.st0{fill:#FFFFFF;}
</style>
<g>
	<path d="M556,646c-166.67,0-333.33,0-500,0c0-166.67,0-333.33,0-500c166.67,0,333.33,0,500,0C556,312.67,556,479.33,556,646z
		 M310.22,383.35c-9.36-14.98-17.43-22.21-31.68-27.99c-23.44-9.51-47.11-9.79-70.61-0.5c-22.27,8.81-36.48,25.04-42.11,48.45
		c-0.55,2.29-0.41,4.97,0.19,7.27c16.9,65.22,33.93,130.42,50.81,195.65c0.82,3.17,2.05,4.31,5.35,4.28
		c16.16-0.15,32.33-0.2,48.49,0.03c3.83,0.06,4.7-1.63,5.3-4.8c10.59-55.58,21.26-111.15,31.93-166.72c0.22-1.17,0.64-2.3,1.32-4.67
		c0.84,2.91,1.32,4.49,1.74,6.09c14.58,55,29.2,109.98,43.64,165.02c0.97,3.71,2.27,5.14,6.26,5.08c15.5-0.23,31-0.2,46.49-0.02
		c3.46,0.04,4.93-0.92,5.65-4.44c13.7-67.01,27.53-133.99,41.26-200.99c0.42-2.03,0.42-4.31-0.02-6.34
		c-3.34-15.42-11.81-27.58-24.98-35.97c-24.47-15.59-50.9-17.49-78.18-9.07C334.41,358.86,321.12,369.25,310.22,383.35z M300,267.28
		c0.11-35.31-28.38-64.11-63.59-64.28c-35.34-0.16-64.19,28.27-64.4,63.47c-0.22,35.55,28.39,64.46,63.84,64.53
		C271.14,331.06,299.89,302.5,300,267.28z M310,266.67c-0.13,35.32,28.34,64.14,63.54,64.32c35.35,0.18,64.22-28.23,64.45-63.42
		c0.24-35.56-28.35-64.49-63.79-64.57C338.9,202.92,310.13,231.45,310,266.67z"/>
	<path class="st0" d="M310.22,383.35c10.9-14.11,24.18-24.49,40.88-29.64c27.28-8.42,53.7-6.53,78.18,9.07
		c13.17,8.39,21.64,20.55,24.98,35.97c0.44,2.03,0.43,4.3,0.02,6.34c-13.73,67-27.57,133.98-41.26,200.99
		c-0.72,3.52-2.18,4.48-5.65,4.44c-15.5-0.18-31-0.22-46.49,0.02c-3.99,0.06-5.29-1.37-6.26-5.08
		c-14.44-55.03-29.06-110.02-43.64-165.02c-0.42-1.59-0.91-3.17-1.74-6.09c-0.67,2.37-1.09,3.5-1.32,4.67
		c-10.67,55.57-21.34,111.14-31.93,166.72c-0.6,3.17-1.48,4.86-5.3,4.8c-16.16-0.24-32.33-0.18-48.49-0.03
		c-3.29,0.03-4.53-1.11-5.35-4.28c-16.88-65.23-33.91-130.42-50.81-195.65c-0.6-2.3-0.74-4.98-0.19-7.27
		c5.62-23.41,19.83-39.64,42.11-48.45c23.5-9.29,47.17-9.01,70.61,0.5C292.8,361.14,300.87,368.37,310.22,383.35z"/>
	<path class="st0" d="M300,267.28c-0.11,35.23-28.86,63.78-64.15,63.72c-35.45-0.06-64.06-28.98-63.84-64.53
		c0.21-35.2,29.06-63.63,64.4-63.47C271.61,203.16,300.11,231.96,300,267.28z"/>
	<path class="st0" d="M310,266.67c0.13-35.22,28.9-63.75,64.2-63.67c35.44,0.08,64.03,29.02,63.79,64.57
		c-0.23,35.19-29.1,63.6-64.45,63.42C338.34,330.82,309.87,302,310,266.67z"/>
</g>
</svg>
