<?xml version="1.0" encoding="utf-8"?>
<!-- Generator: Adobe Illustrator 24.3.0, SVG Export Plug-In . SVG Version: 6.00 Build 0)  -->
<svg version="1.1" id="Layer_1" xmlns="http://www.w3.org/2000/svg" xmlns:xlink="http://www.w3.org/1999/xlink" x="0px" y="0px"
	 viewBox="0 0 612 792" style="enable-background:new 0 0 612 792;" xml:space="preserve">
<style type="text/css">
	.st0{fill:#FFFFFF;}
</style>
<g>
	<path d="M56,146c166.64,0,333.28,0,500,0c0,166.6,0,333.23,0,500c-166.61,0-333.31,0-500,0C56,479.38,56,312.7,56,146z
		 M473.99,562.93c0.27-0.28,0.53-0.56,0.8-0.84c-33.54-46.23-67.07-92.45-101.25-139.56c57.7-9.14,113.65-17.99,169.6-26.85
		c0.01-0.41,0.01-0.81,0.02-1.22c-56.01-8.89-112.03-17.79-169.16-26.86c1.76-3.07,2.9-5.57,4.48-7.76
		c31.2-43,62.45-85.96,93.68-128.94c0.67-0.93,1.14-2,1.71-3.01c-11.29,7.22-21.91,14.94-32.54,22.65
		c-34.35,24.91-68.69,49.83-103.07,74.7c-1.3,0.94-2.94,1.41-4.91,2.32c-9-56.85-17.85-112.76-26.7-168.67
		c-0.41,0.01-0.81,0.03-1.22,0.04c-8.88,55.96-17.76,111.93-26.78,168.79c-2.39-1.12-4.59-1.77-6.35-3.04
		c-36.91-26.8-73.76-53.67-110.63-80.51c-7.43-5.41-14.91-10.74-22.36-16.11c0.15,1.89,0.91,3.1,1.75,4.25
		c31.13,42.88,62.28,85.74,93.33,128.67c1.51,2.09,2.21,4.77,3.6,7.87c-56.85,9-112.44,17.8-168.04,26.61c0,0.4-0.01,0.81-0.01,1.21
		c55.7,8.85,111.39,17.7,168.09,26.71c-1.27,3.2-1.76,5.88-3.21,7.88c-31.25,43.17-62.6,86.27-93.92,129.39
		c-0.56,0.78-0.92,1.7-1.52,2.84c0.8-0.06,1.01-0.01,1.12-0.1c44.02-31.98,88.03-63.98,132.1-95.89c1.94-1.4,4.47-1.99,7.27-3.19
		c8.99,56.8,17.79,112.36,26.58,167.92c0.4-0.02,0.81-0.04,1.21-0.06c8.83-55.64,17.67-111.28,26.64-167.81
		c2.86,0.91,5.5,1.1,7.33,2.42c33.31,24.1,66.51,48.35,99.75,72.54C452.23,547.23,463.12,555.07,473.99,562.93z"/>
	<path class="st0" d="M473.99,562.93c-10.87-7.86-21.76-15.7-32.61-23.6c-33.24-24.19-66.44-48.44-99.75-72.54
		c-1.83-1.32-4.47-1.52-7.33-2.42c-8.97,56.53-17.81,112.17-26.64,167.81c-0.4,0.02-0.81,0.04-1.21,0.06
		c-8.8-55.56-17.59-111.13-26.58-167.92c-2.79,1.2-5.33,1.78-7.27,3.19c-44.07,31.91-88.08,63.92-132.1,95.89
		c-0.11,0.08-0.33,0.03-1.12,0.1c0.6-1.14,0.96-2.07,1.52-2.84c31.32-43.12,62.67-86.22,93.92-129.39c1.44-2,1.94-4.68,3.21-7.88
		c-56.69-9.01-112.39-17.86-168.09-26.71c0-0.4,0.01-0.81,0.01-1.21c55.6-8.8,111.2-17.61,168.04-26.61
		c-1.39-3.1-2.09-5.78-3.6-7.87c-31.06-42.93-62.21-85.79-93.33-128.67c-0.84-1.15-1.6-2.36-1.75-4.25
		c7.46,5.37,14.94,10.7,22.36,16.11c36.87,26.84,73.73,53.71,110.63,80.51c1.75,1.27,3.96,1.92,6.35,3.04
		c9.02-56.86,17.9-112.82,26.78-168.79c0.41-0.01,0.81-0.03,1.22-0.04c8.85,55.91,17.7,111.82,26.7,168.67
		c1.97-0.91,3.61-1.38,4.91-2.32c34.38-24.87,68.73-49.79,103.07-74.7c10.63-7.71,21.24-15.43,32.54-22.65
		c-0.57,1.01-1.04,2.08-1.71,3.01c-31.22,42.98-62.48,85.94-93.68,128.94c-1.58,2.18-2.73,4.69-4.48,7.76
		c57.13,9.07,113.14,17.97,169.16,26.86c-0.01,0.41-0.01,0.81-0.02,1.22c-55.95,8.86-111.9,17.72-169.6,26.85
		c34.18,47.11,67.71,93.34,101.25,139.56C474.52,562.37,474.25,562.65,473.99,562.93z"/>
</g>
</svg>
