<?xml version="1.0" encoding="utf-8"?>
<!-- Generator: Adobe Illustrator 24.3.0, SVG Export Plug-In . SVG Version: 6.00 Build 0)  -->
<svg version="1.1" id="Layer_1" xmlns="http://www.w3.org/2000/svg" xmlns:xlink="http://www.w3.org/1999/xlink" x="0px" y="0px"
	 viewBox="0 0 612 792" style="enable-background:new 0 0 612 792;" xml:space="preserve">
<style type="text/css">
	.st0{fill:#FFFFFF;}
</style>
<g>
	<path d="M556,646c-166.67,0-333.33,0-500,0c0-166.67,0-333.33,0-500c166.67,0,333.33,0,500,0C556,312.67,556,479.33,556,646z
		 M289.99,341.14c-0.45-3.7-1.2-9.8-1.91-15.92c-0.95-8.17-4.22-14.71-10.33-20.75c-43.85-43.34-87.33-87.06-130.93-130.65
		c-4.12-4.12-8.22-8.27-12.38-12.36c-4.42-4.35-9.49-4.39-13.82-0.13c-17.7,17.41-35.39,34.83-53.09,52.24
		c-5.26,5.18-5.27,9.68,0.12,15.04c49.99,49.69,99.92,99.45,150.15,148.9c4.32,4.25,10.33,7.46,16.14,9.38
		c14.68,4.86,28.63,0.82,41.86-5.88c2.76-1.4,5.38-3.96,6.98-6.64C288.4,364.95,289.67,354.36,289.99,341.14z M363.22,408.05
		c-10.55,0.15-19.82,3.1-28.89,7.12c-4.21,1.87-7.03,4.72-9,8.81c-7.03,14.6-6.83,29.85-4.93,45.47
		c1.25,10.26,5.65,17.98,13.06,25.3c46.72,46.13,93,92.7,139.42,139.12c0.94,0.94,1.83,1.96,2.84,2.81
		c3.44,2.88,8.87,2.7,12.04-0.41c18.54-18.22,37.11-36.41,55.5-54.78c1.29-1.29,2.09-4.11,1.65-5.86c-0.68-2.73-2.1-5.65-4.08-7.63
		c-49.44-49.3-99.02-98.46-148.48-147.74C384.06,412,374.11,408.42,363.22,408.05z M459.86,439.68c4-2.58,8.66-5.18,12.85-8.38
		c5.81-4.44,11.67-8.95,16.75-14.17c4.72-4.84,8.9-10.36,12.51-16.1c8.12-12.88,7.93-32.53-6.69-46.67
		c-50.64-49-100.39-98.93-150.41-148.58c-4.46-4.43-9.61-6.96-15.7-8c-8.64-1.47-16.59,0.66-23.97,4.89
		c-18.01,10.34-28.86,27.01-38.81,43.54C331.1,310.92,395.29,375.1,459.86,439.68z M158.29,358.44
		c-10.7,5.89-21.1,13.08-29.77,22.38c-4.73,5.07-9.01,10.7-12.7,16.57c-7.88,12.52-7.65,32.17,6.88,46.23
		c50.64,49,100.39,98.93,150.41,148.58c4.46,4.42,9.6,6.97,15.69,8.01c8.83,1.5,16.91-0.73,24.41-5.12
		c17.75-10.39,28.53-26.9,38.4-43.33C286.93,487.07,222.74,422.89,158.29,358.44z"/>
	<path class="st0" d="M289.99,341.14c-0.32,13.22-1.59,23.81-7.22,33.23c-1.6,2.67-4.21,5.24-6.98,6.64
		c-13.23,6.7-27.18,10.74-41.86,5.88c-5.81-1.92-11.82-5.13-16.14-9.38c-50.23-49.45-100.16-99.21-150.15-148.9
		c-5.39-5.36-5.38-9.87-0.12-15.04c17.7-17.41,35.39-34.83,53.09-52.24c4.33-4.26,9.4-4.22,13.82,0.13
		c4.16,4.09,8.26,8.24,12.38,12.36c43.6,43.6,87.07,87.31,130.93,130.65c6.11,6.04,9.39,12.58,10.33,20.75
		C288.79,331.34,289.54,337.45,289.99,341.14z"/>
	<path class="st0" d="M363.22,408.05c10.89,0.36,20.84,3.95,29.14,12.22c49.46,49.28,99.04,98.44,148.48,147.74
		c1.98,1.97,3.4,4.9,4.08,7.63c0.43,1.75-0.36,4.57-1.65,5.86c-18.39,18.37-36.96,36.56-55.5,54.78c-3.17,3.11-8.59,3.29-12.04,0.41
		c-1.02-0.85-1.9-1.87-2.84-2.81c-46.42-46.42-92.7-92.99-139.42-139.12c-7.41-7.32-11.82-15.04-13.06-25.3
		c-1.9-15.63-2.1-30.87,4.93-45.47c1.97-4.09,4.79-6.94,9-8.81C343.4,411.16,352.67,408.21,363.22,408.05z"/>
	<path class="st0" d="M459.86,439.68C395.29,375.1,331.1,310.92,266.4,246.22c9.95-16.53,20.8-33.19,38.81-43.54
		c7.38-4.24,15.32-6.36,23.97-4.89c6.09,1.04,11.24,3.57,15.7,8c50.02,49.65,99.77,99.58,150.41,148.58
		c14.62,14.14,14.8,33.79,6.69,46.67c-3.61,5.73-7.79,11.25-12.51,16.1c-5.08,5.22-10.94,9.72-16.75,14.17
		C468.52,434.5,463.86,437.1,459.86,439.68z"/>
	<path class="st0" d="M158.29,358.44c64.45,64.45,128.63,128.63,193.32,193.32c-9.87,16.43-20.65,32.94-38.4,43.33
		c-7.5,4.39-15.58,6.62-24.41,5.12c-6.09-1.04-11.23-3.58-15.69-8.01c-50.02-49.65-99.77-99.58-150.41-148.58
		c-14.53-14.06-14.76-33.71-6.88-46.23c3.7-5.87,7.97-11.5,12.7-16.57C137.2,371.52,147.59,364.33,158.29,358.44z"/>
</g>
</svg>
