<?xml version="1.0" encoding="utf-8"?>
<!-- Generator: Adobe Illustrator 24.3.0, SVG Export Plug-In . SVG Version: 6.00 Build 0)  -->
<svg version="1.1" id="Layer_1" xmlns="http://www.w3.org/2000/svg" xmlns:xlink="http://www.w3.org/1999/xlink" x="0px" y="0px"
	 viewBox="0 0 612 792" style="enable-background:new 0 0 612 792;" xml:space="preserve">
<style type="text/css">
	.st0{fill:#FFFFFF;}
</style>
<g>
	<path d="M556,646c-166.67,0-333.33,0-500,0c0-166.67,0-333.33,0-500c166.67,0,333.33,0,500,0C556,312.67,556,479.33,556,646z
		 M240.33,250.68c-5.02-8.53-9.72-16.88-14.78-25.01c-5.15-8.26-13.11-11.48-22.57-11.28c-3.32,0.07-6.69,0.3-9.93,0.98
		c-33.02,6.95-62.58,22.13-91.42,38.88c-5.95,3.46-7.19,9.47-3.04,15.02c3.44,4.6,7.65,8.86,12.26,12.3
		c20.45,15.26,43.04,26.46,67.4,34.04c7.41,2.31,14.93,3.19,22.65,1.37c11.64-2.74,22.73-6.8,31.81-14.77
		c2.41-2.12,4.85-6.21,4.47-9.02c-0.49-3.72,0.63-5.51,3.22-6.8c4.6-2.3,9.26-4.62,14.13-6.2c37.21-12.03,75.26-16.92,114.3-12.92
		c17.59,1.8,35.03,4.32,51.67,10.67c10.22,3.9,19.8,8.85,26.74,17.68c9.72,12.37,9.16,27.43-2.08,38.36
		c-4.83,4.7-10.39,9.25-16.48,11.9c-13.82,6.03-27.88,11.94-42.38,15.88c-19.87,5.4-40.38,8.43-60.39,13.36
		c-27.72,6.83-54.56,16.21-78.74,31.9c-12.15,7.89-22.93,17.22-29.45,30.56c-8.53,17.46-6.38,30.83,7.13,44.59
		c1.98,2.02,3.94,4.16,6.27,5.71c12.33,8.17,24.47,16.68,37.25,24.08c13.95,8.09,28.68,14.83,42.75,22.72
		c4.66,2.61,8.91,6.49,12.33,10.64c6.16,7.48,4.99,14.4-1.9,21.13c-11.98,11.7-25.86,20.31-41.32,26.56
		c-2.33,0.94-4.56,2.12-6.83,3.19c0.15,0.51,0.31,1.02,0.46,1.53c13.46-2.92,27.02-5.44,40.34-8.89c10.01-2.59,19.5-6.78,27.42-13.8
		c7.33-6.49,11.1-14.73,8.22-24.13c-2.34-7.63-5.94-15.22-10.5-21.76c-8.75-12.54-20.73-21.97-33-30.99
		c-13.52-9.94-28-18.67-39.52-31.21c-6.6-7.19-6.45-13.67,1.91-18.45c9.94-5.69,20.16-11.12,31.84-12.51
		c42.32-5.03,84.61-10.39,126.99-14.85c22.6-2.38,44.41-6.63,64.34-18.05c19.8-11.35,35.01-26.76,41.06-49.32
		c7.29-27.15,2.91-53.33-9.6-78.01c-20.66-40.78-71.65-66.79-119.79-62.5c-33.95,3.03-67.24,9.32-99.98,18.56
		C282.17,237.87,260.9,244.52,240.33,250.68z"/>
	<path class="st0" d="M240.33,250.68c20.57-6.15,41.84-12.81,63.27-18.86c32.74-9.24,66.03-15.53,99.98-18.56
		c48.14-4.29,99.13,21.73,119.79,62.5c12.51,24.68,16.88,50.85,9.6,78.01c-6.05,22.56-21.27,37.98-41.06,49.32
		c-19.93,11.42-41.74,15.67-64.34,18.05c-42.38,4.46-84.67,9.81-126.99,14.85c-11.68,1.39-21.9,6.82-31.84,12.51
		c-8.35,4.78-8.51,11.26-1.91,18.45c11.52,12.54,26,21.26,39.52,31.21c12.27,9.02,24.25,18.45,33,30.99
		c4.56,6.54,8.16,14.13,10.5,21.76c2.88,9.4-0.89,17.64-8.22,24.13c-7.92,7.01-17.42,11.2-27.42,13.8
		c-13.32,3.45-26.88,5.97-40.34,8.89c-0.15-0.51-0.31-1.02-0.46-1.53c2.27-1.07,4.5-2.25,6.83-3.19
		c15.45-6.25,29.34-14.86,41.32-26.56c6.89-6.73,8.07-13.65,1.9-21.13c-3.42-4.15-7.67-8.03-12.33-10.64
		c-14.07-7.89-28.8-14.64-42.75-22.72c-12.78-7.4-24.92-15.91-37.25-24.08c-2.33-1.54-4.29-3.69-6.27-5.71
		c-13.51-13.76-15.66-27.13-7.13-44.59c6.52-13.34,17.3-22.67,29.45-30.56c24.18-15.69,51.02-25.07,78.74-31.9
		c20.02-4.93,40.52-7.97,60.39-13.36c14.51-3.94,28.56-9.85,42.38-15.88c6.09-2.65,11.65-7.21,16.48-11.9
		c11.23-10.93,11.8-26,2.08-38.36c-6.94-8.83-16.53-13.78-26.74-17.68c-16.64-6.34-34.08-8.87-51.67-10.67
		c-39.04-4-77.09,0.89-114.3,12.92c-4.87,1.58-9.54,3.89-14.13,6.2c-2.59,1.3-3.72,3.09-3.22,6.8c0.37,2.81-2.06,6.9-4.47,9.02
		c-9.08,7.96-20.17,12.02-31.81,14.77c-7.72,1.82-15.24,0.94-22.65-1.37c-24.36-7.58-46.95-18.78-67.4-34.04
		c-4.6-3.43-8.82-7.7-12.26-12.3c-4.15-5.55-2.91-11.56,3.04-15.02c28.84-16.75,58.4-31.94,91.42-38.88
		c3.24-0.68,6.61-0.91,9.93-0.98c9.46-0.2,17.41,3.02,22.57,11.28C230.61,233.8,235.31,242.15,240.33,250.68z"/>
</g>
</svg>
