<?xml version="1.0" encoding="utf-8"?>
<!-- Generator: Adobe Illustrator 24.3.0, SVG Export Plug-In . SVG Version: 6.00 Build 0)  -->
<svg version="1.1" id="Layer_1" xmlns="http://www.w3.org/2000/svg" xmlns:xlink="http://www.w3.org/1999/xlink" x="0px" y="0px"
	 viewBox="0 0 612 792" style="enable-background:new 0 0 612 792;" xml:space="preserve">
<style type="text/css">
	.st0{fill:#FFFFFF;}
</style>
<g>
	<path d="M556,646c-166.67,0-333.33,0-500,0c0-166.67,0-333.33,0-500c166.67,0,333.33,0,500,0C556,312.67,556,479.33,556,646z
		 M288.87,157.24c-103.23,4.49-213.52,89.74-222.26,223.89c-8.49,130.3,89.85,246.52,226,254.37
		c130.88,7.55,245.34-91.52,252.89-226.6c3.61-64.63-16.71-121.83-59.01-170.89c-23.67-27.45-52.44-48.1-87.34-63.08
		c0,9.65,0.26,17.82-0.04,25.96c-1.66,44.31-4.03,88.56-13.06,132.13c-6.75,32.59-17.54,63.54-38.02,90.41
		c-17.54,23.02-37.62,43.65-59,63.07c-0.42,0.38-1.04,0.54-2.07,1.06C287.59,377.08,288.23,267.17,288.87,157.24z"/>
	<path class="st0" d="M288.87,157.24c-0.64,109.93-1.28,219.84-1.93,330.31c1.04-0.52,1.65-0.68,2.07-1.06
		c21.38-19.42,41.46-40.05,59-63.07c20.48-26.87,31.27-57.82,38.02-90.41c9.03-43.56,11.41-87.82,13.06-132.13
		c0.3-8.14,0.04-16.3,0.04-25.96c34.9,14.98,63.66,35.62,87.34,63.08c42.3,49.06,62.62,106.26,59.01,170.89
		c-7.55,135.08-122,234.15-252.89,226.6c-136.15-7.86-234.49-124.07-226-254.37C75.35,246.98,185.65,161.73,288.87,157.24z"/>
</g>
</svg>
