<?xml version="1.0" encoding="utf-8"?>
<!-- Generator: Adobe Illustrator 24.3.0, SVG Export Plug-In . SVG Version: 6.00 Build 0)  -->
<svg version="1.1" id="Layer_1" xmlns="http://www.w3.org/2000/svg" xmlns:xlink="http://www.w3.org/1999/xlink" x="0px" y="0px"
	 viewBox="0 0 612 792" style="enable-background:new 0 0 612 792;" xml:space="preserve">
<style type="text/css">
	.st0{fill:#FFFFFF;}
</style>
<g>
	<path d="M556,646c-166.67,0-333.33,0-500,0c0-166.67,0-333.33,0-500c166.67,0,333.33,0,500,0C556,312.67,556,479.33,556,646z
		 M530.28,426.01c4.64-0.31,5.88-2.64,5.81-6.92c-0.24-15.5,0.02-31-0.2-46.49c-0.04-2.82-0.84-5.98-2.29-8.39
		c-49.76-82.71-116.51-148.11-200.31-196.04c-2.31-1.32-5.29-2.03-7.97-2.07c-15-0.19-30.01,0.26-44.99-0.27
		c-5.99-0.21-7.29,2.74-8.2,7.24C388.55,226.7,474.52,311.03,530.28,426.01z M406.86,484.57c9.16-4.31,17.81-8.38,26.83-12.62
		c-44.68-91.91-112.81-158.69-205.38-201.3c-4.17,9.43-8.04,18.17-11.98,27.09C302.22,337.36,365.49,399.39,406.86,484.57z
		 M164.08,415.24c27.88,12.64,52.57,29.32,74.17,50.48c21.73,21.28,39,45.78,52.2,73.49c8.3-3.91,16.19-7.64,24.44-11.52
		c-30.51-62.65-76.8-108.07-139.83-137.09C171.3,399.01,167.86,406.74,164.08,415.24z M110.14,536.72
		c27.03,12.6,46.88,32.19,60.01,58.95c8.82-4.15,17.2-8.08,25.93-12.18c-16.16-33.32-40.67-57.4-74.31-72.96
		C117.8,519.46,114.05,527.91,110.14,536.72z"/>
	<path class="st0" d="M530.28,426.01C474.52,311.03,388.55,226.7,272.13,173.06c0.91-4.5,2.21-7.45,8.2-7.24
		c14.98,0.53,29.99,0.07,44.99,0.27c2.68,0.03,5.66,0.74,7.97,2.07c83.8,47.93,150.56,113.33,200.31,196.04
		c1.45,2.41,2.25,5.57,2.29,8.39c0.22,15.5-0.04,31,0.2,46.49C536.16,423.37,534.92,425.7,530.28,426.01z"/>
	<path class="st0" d="M406.86,484.57c-41.36-85.19-104.64-147.22-190.53-186.83c3.94-8.91,7.81-17.66,11.98-27.09
		c92.57,42.62,160.7,109.39,205.38,201.3C424.67,476.2,416.01,480.27,406.86,484.57z"/>
	<path class="st0" d="M164.08,415.24c3.79-8.5,7.23-16.23,10.98-24.65c63.03,29.03,109.32,74.44,139.83,137.09
		c-8.24,3.89-16.14,7.61-24.44,11.52c-13.2-27.72-30.47-52.21-52.2-73.49C216.65,444.56,191.96,427.88,164.08,415.24z"/>
	<path class="st0" d="M110.14,536.72c3.91-8.81,7.66-17.25,11.63-26.2c33.64,15.56,58.14,39.64,74.31,72.96
		c-8.74,4.1-17.11,8.04-25.93,12.18C157.02,568.91,137.17,549.32,110.14,536.72z"/>
</g>
</svg>
