<?xml version="1.0" encoding="utf-8"?>
<!-- Generator: Adobe Illustrator 24.3.0, SVG Export Plug-In . SVG Version: 6.00 Build 0)  -->
<svg version="1.1" id="Layer_1" xmlns="http://www.w3.org/2000/svg" xmlns:xlink="http://www.w3.org/1999/xlink" x="0px" y="0px"
	 viewBox="0 0 612 792" style="enable-background:new 0 0 612 792;" xml:space="preserve">
<style type="text/css">
	.st0{fill:#FFFFFF;}
</style>
<g>
	<path class="st0" d="M0,578.86c0-121.91,0-243.82,0-365.73c204,0,408,0,612,0c0,121.91,0,243.82,0,365.73
		C408,578.86,204,578.86,0,578.86z M240.95,576.8c-0.46-9.86-0.87-18.92-1.31-27.98c-1.31-27-0.11-53.95,1.68-80.87
		c1.07-16.01,1.71-32.16,4.44-47.92c5.43-31.35,20.11-56.61,51.19-69.63c0-23,0-46.13,0-69.52c-2.38,0-4.57-0.03-6.75,0
		c-18.2,0.28-36.36,0.01-54.42-2.6c-25.89-3.75-50.9-10.93-75.03-20.76c-42.84-17.45-86.51-31.93-132.26-39.6
		c-8.99-1.51-18.02-2.75-27.03-4.12c0.69,1.48,1.64,2.19,2.55,2.95c9.05,7.54,18.4,14.75,27.06,22.71
		c11.97,11,22.73,23.09,29.49,38.18c5.23,11.68,4.62,23.08-1.35,34.29c-5.78,10.85-14.36,19.18-24.14,26.4
		c-1.12,0.83-2.26,1.65-3.82,2.8c2.44,0.9,4.26,1.56,6.07,2.23c15.35,5.7,30.34,12.13,43.26,22.45
		c13.6,10.86,16.32,20.92,10.32,37.31c-4.26,11.64-11.04,21.84-18.47,31.64c-2.32,3.05-4.74,6.03-7.58,9.63
		c6.21-2.06,11.61-3.98,17.09-5.64c12.97-3.92,26.1-6.97,39.81-6.32c13.41,0.64,21.11,6.77,23.51,19.94
		c1.06,5.79,1.07,12.02,0.24,17.86c-2.26,15.8-9.38,29.8-17.6,43.27c-0.65,1.06-1.28,2.12-1.93,3.18c3.99-1.76,7.36-3.98,10.83-6.02
		c12.83-7.55,25.95-14.4,40.68-17.62c11.58-2.53,21.14,0.27,28.26,10.06c2.02,2.78,4.38,5.39,5.93,8.4
		c6.27,12.18,12.63,24.34,18.3,36.81C234.07,557.32,237.13,566.78,240.95,576.8z M371.43,576.29c0.6-1.64,1.06-3.14,1.67-4.58
		c7.16-16.9,13.8-34.04,21.74-50.57c3.86-8.04,9.82-15.18,15.45-22.24c4.42-5.55,10.99-7.19,17.95-6.6
		c3.41,0.29,6.84,0.87,10.14,1.74c15.98,4.23,30.13,12.33,43.95,21.08c1.06,0.67,2.16,1.3,3.69,2.21
		c-3.79-7.03-7.46-13.36-10.67-19.92c-5.3-10.86-9.38-22.18-9.65-34.42c-0.35-16,5.24-28.57,21.91-30.3
		c2.32-0.24,4.66-0.34,6.99-0.31c16.83,0.26,32.64,5.13,48.31,10.64c1.17,0.41,2.35,0.82,4.47,1.56c-1.47-1.81-2.24-2.75-3.01-3.69
		c-8.45-10.41-16.26-21.24-21.63-33.61c-8.68-19.97-5.53-31.45,12.13-44.11c12.17-8.72,25.78-14.62,39.74-19.78
		c1.89-0.7,3.78-1.38,6.13-2.24c-1.73-1.26-2.92-2.11-4.09-2.98c-9.63-7.2-18.12-15.43-23.85-26.17c-5.97-11.2-6.86-22.72-1.3-34.24
		c2.75-5.71,5.93-11.32,9.68-16.42c12.86-17.46,29.22-31.38,46.45-44.33c1.08-0.81,2.16-1.64,3.23-2.47
		c-25.53,2.35-50.27,7.41-74.77,13.73c-28.46,7.34-55.8,17.85-83.07,28.64c-23.19,9.18-46.98,16.48-71.67,20.58
		c-19.85,3.3-39.84,3.74-59.88,3.39c-2.16-0.04-4.31,0-6.55,0c0,23.53,0,46.57,0,69.59c2.86,1.31,5.71,2.45,8.41,3.88
		c17.03,9.04,28.26,23.22,35.73,40.63c6.52,15.18,9.09,31.22,9.92,47.6c1.3,25.47,3.15,50.92,3.72,76.41
		C373.15,537.95,371.93,556.96,371.43,576.29z"/>
	<path d="M240.95,576.8c-3.82-10.03-6.88-19.48-10.97-28.48c-5.67-12.46-12.03-24.63-18.3-36.81c-1.55-3.02-3.91-5.63-5.93-8.4
		c-7.12-9.79-16.69-12.59-28.26-10.06c-14.73,3.22-27.85,10.07-40.68,17.62c-3.47,2.04-6.84,4.26-10.83,6.02
		c0.64-1.06,1.28-2.12,1.93-3.18c8.22-13.47,15.34-27.47,17.6-43.27c0.84-5.84,0.82-12.07-0.24-17.86
		c-2.4-13.17-10.1-19.29-23.51-19.94c-13.7-0.66-26.84,2.39-39.81,6.32c-5.48,1.66-10.89,3.58-17.09,5.64
		c2.84-3.6,5.26-6.57,7.58-9.63c7.43-9.8,14.21-20,18.47-31.64c6-16.4,3.28-26.46-10.32-37.31c-12.92-10.32-27.91-16.74-43.26-22.45
		c-1.81-0.67-3.63-1.34-6.07-2.23c1.57-1.15,2.7-1.97,3.82-2.8c9.78-7.22,18.35-15.54,24.14-26.4c5.97-11.21,6.58-22.61,1.35-34.29
		c-6.76-15.1-17.52-27.18-29.49-38.18c-8.66-7.96-18.01-15.17-27.06-22.71c-0.91-0.76-1.86-1.47-2.55-2.95
		c9.01,1.37,18.04,2.61,27.03,4.12c45.74,7.68,89.42,22.15,132.26,39.6c24.13,9.83,49.14,17.01,75.03,20.76
		c18.06,2.62,36.23,2.89,54.42,2.6c2.19-0.03,4.37,0,6.75,0c0,23.39,0,46.52,0,69.52c-31.08,13.01-45.76,38.28-51.19,69.63
		c-2.73,15.76-3.37,31.91-4.44,47.92c-1.79,26.92-3,53.88-1.68,80.87C240.08,557.88,240.49,566.94,240.95,576.8z"/>
	<path d="M371.43,576.29c0.49-19.33,1.71-38.34,1.28-57.31c-0.57-25.48-2.42-50.94-3.72-76.41c-0.83-16.38-3.41-32.41-9.92-47.6
		c-7.47-17.4-18.7-31.58-35.73-40.63c-2.7-1.43-5.55-2.57-8.41-3.88c0-23.02,0-46.06,0-69.59c2.23,0,4.39-0.03,6.55,0
		c20.05,0.34,40.04-0.1,59.88-3.39c24.69-4.1,48.48-11.4,71.67-20.58c27.27-10.79,54.61-21.29,83.07-28.64
		c24.5-6.32,49.24-11.38,74.77-13.73c-1.08,0.82-2.15,1.65-3.23,2.47c-17.23,12.96-33.59,26.87-46.45,44.33
		c-3.75,5.09-6.93,10.71-9.68,16.42c-5.56,11.52-4.68,23.04,1.3,34.24c5.73,10.74,14.22,18.98,23.85,26.17
		c1.17,0.88,2.36,1.72,4.09,2.98c-2.35,0.86-4.24,1.55-6.13,2.24c-13.97,5.16-27.57,11.06-39.74,19.78
		c-17.66,12.66-20.81,24.14-12.13,44.11c5.38,12.37,13.19,23.2,21.63,33.61c0.77,0.94,1.54,1.89,3.01,3.69
		c-2.12-0.74-3.3-1.14-4.47-1.56c-15.67-5.51-31.48-10.38-48.31-10.64c-2.33-0.04-4.67,0.07-6.99,0.31
		c-16.67,1.73-22.26,14.3-21.91,30.3c0.27,12.24,4.34,23.56,9.65,34.42c3.2,6.56,6.88,12.89,10.67,19.92
		c-1.53-0.92-2.63-1.54-3.69-2.21c-13.82-8.76-27.96-16.86-43.95-21.08c-3.31-0.87-6.73-1.45-10.14-1.74
		c-6.96-0.6-13.53,1.04-17.95,6.6c-5.62,7.06-11.58,14.2-15.45,22.24c-7.94,16.53-14.58,33.67-21.74,50.57
		C372.5,573.15,372.03,574.65,371.43,576.29z"/>
</g>
</svg>
