<?xml version="1.0" encoding="utf-8"?>
<!-- Generator: Adobe Illustrator 24.3.0, SVG Export Plug-In . SVG Version: 6.00 Build 0)  -->
<svg version="1.1" id="Layer_1" xmlns="http://www.w3.org/2000/svg" xmlns:xlink="http://www.w3.org/1999/xlink" x="0px" y="0px"
	 viewBox="0 0 612 792" style="enable-background:new 0 0 612 792;" xml:space="preserve">
<style type="text/css">
	.st0{fill:#FFFFFF;}
</style>
<g>
	<path d="M556,646c-166.67,0-333.33,0-500,0c0-166.67,0-333.33,0-500c166.67,0,333.33,0,500,0C556,312.67,556,479.33,556,646z
		 M249.1,480.2c1.96-1.83,3.52-3.31,5.11-4.76c81.57-74.51,163.1-149.05,244.78-223.43c5.25-4.78,8.67-9.94,10.59-16.8
		c5.43-19.33,11.45-38.49,17.41-58.27c-1.79,0.27-3.07,0.37-4.31,0.66c-19.78,4.56-39.52,9.27-59.35,13.62
		c-5.14,1.13-8.9,3.53-12.43,7.41c-66.32,73.02-132.76,145.93-199.17,218.86c-10.41,11.44-20.85,22.85-31.54,34.56
		c-10.95-8.85-21.55-17.69-32.45-26.15c-21.88-16.98-43.49-34.18-58.39-58.14c-0.5-0.8-0.7-1.79-1.04-2.7c-0.5,0.37-1,0.74-1.5,1.11
		c-1.99,21.88-3.87,43.77-6.06,65.63c-0.36,3.55,0.59,5.34,3.59,7.1c21.53,12.65,42.96,25.47,64.42,38.24
		c1.53,0.91,3.03,1.9,5.16,3.23c-27.99,27.95-55.55,55.46-83.38,83.24c7.99,7.97,15.77,15.72,23.55,23.47
		c4.84,4.83,4.84,4.83,9.51,0.17c25.57-25.57,51.14-51.14,76.72-76.7c1.25-1.25,2.56-2.43,4.02-3.8c0.79,1.35,1.31,2.2,1.78,3.07
		c12.19,22.36,24.33,44.74,36.67,67.02c0.9,1.63,3.31,3.65,4.86,3.53c20.58-1.68,41.13-3.7,61.69-5.67
		c1.17-0.11,2.31-0.59,4.07-1.07c-2.56-2.26-4.54-4.01-6.51-5.77c-7.1-6.31-15.02-11.91-21.13-19.06
		C286.6,526.4,268.15,503.39,249.1,480.2z"/>
	<path class="st0" d="M249.1,480.2c19.06,23.19,37.51,46.2,56.64,68.62c6.11,7.15,14.03,12.75,21.13,19.06
		c1.97,1.76,3.95,3.5,6.51,5.77c-1.77,0.48-2.9,0.96-4.07,1.07c-20.56,1.98-41.11,4-61.69,5.67c-1.55,0.13-3.96-1.89-4.86-3.53
		c-12.34-22.28-24.47-44.66-36.67-67.02c-0.48-0.87-1-1.72-1.78-3.07c-1.45,1.37-2.77,2.55-4.02,3.8
		c-25.58,25.56-51.14,51.13-76.72,76.7c-4.67,4.67-4.67,4.66-9.51-0.17c-7.77-7.75-15.55-15.51-23.55-23.47
		c27.83-27.79,55.39-55.3,83.38-83.24c-2.13-1.34-3.62-2.32-5.16-3.23c-21.46-12.77-42.88-25.6-64.42-38.24
		c-3-1.76-3.95-3.55-3.59-7.1c2.19-21.86,4.08-43.75,6.06-65.63c0.5-0.37,1-0.74,1.5-1.11c0.34,0.9,0.54,1.89,1.04,2.7
		c14.9,23.96,36.51,41.17,58.39,58.14c10.9,8.46,21.5,17.3,32.45,26.15c10.69-11.71,21.13-23.13,31.54-34.56
		c66.42-72.93,132.85-145.84,199.17-218.86c3.53-3.88,7.28-6.28,12.43-7.41c19.82-4.36,39.57-9.07,59.35-13.62
		c1.24-0.29,2.52-0.39,4.31-0.66c-5.96,19.78-11.98,38.94-17.41,58.27c-1.93,6.86-5.34,12.02-10.59,16.8
		C417.3,326.39,335.77,400.93,254.2,475.44C252.62,476.89,251.06,478.37,249.1,480.2z"/>
</g>
</svg>
