<?xml version="1.0" encoding="utf-8"?>
<!-- Generator: Adobe Illustrator 24.3.0, SVG Export Plug-In . SVG Version: 6.00 Build 0)  -->
<svg version="1.1" id="Layer_1" xmlns="http://www.w3.org/2000/svg" xmlns:xlink="http://www.w3.org/1999/xlink" x="0px" y="0px"
	 viewBox="0 0 612 792" style="enable-background:new 0 0 612 792;" xml:space="preserve">
<style type="text/css">
	.st0{fill:#FFFFFF;}
</style>
<g>
	<path d="M556,646c-166.67,0-333.33,0-500,0c0-166.67,0-333.33,0-500c166.67,0,333.33,0,500,0C556,312.67,556,479.33,556,646z
		 M180.94,248.99c0.44-0.17,0.1-0.11-0.15,0.07c-0.54,0.38-1.06,0.8-1.55,1.25c-52.11,48.58-77.59,106.92-65.06,178.92
		c7.43,42.67,24.41,81.09,55.01,112.19c48.57,49.37,108.47,66.44,175.96,56.83c57.6-8.21,102.6-37.98,134.28-86.61
		c31.73-48.71,44.23-101.91,29.94-159.23c-24.28-97.35-113.57-158.38-213.92-151.74c-9.42,0.62-18.57-0.3-27.25-4.52
		c-6-2.92-12.16-3.02-18.34-0.17c-1.77,0.82-4.01,1.83-5.69,1.4c-6.99-1.79-12.26,1.55-16.7,5.79
		c-10.6,10.11-20.76,20.67-30.98,31.17c-0.9,0.92-1.59,2.81-1.31,4c1.19,4.97,2.37,10.02,4.37,14.69c1.78,4.17,5.24,6.56,10.32,6.34
		c9.65-0.43,19.32-0.33,28.96-0.76c18.62-0.84,35.35-5.92,47.7-21.19c3.84-4.75,9.55-6.4,15.7-6.39
		c20.73,0.03,40.7,4.35,60.14,11.08c42.13,14.59,75.69,39.73,95.33,80.72c18.17,37.92,21.18,77.56,11.73,118.41
		c-8.49,36.68-24.82,68.9-55.6,91.51c-47.87,35.15-100.61,44.15-157.55,25.7c-36.82-11.93-68.23-31.5-90.34-64.07
		c-17.3-25.48-24.75-54.11-27.43-84.5c-3.64-41.31,7.15-78.24,32.32-110.88c8.48-10.99,18.35-20.91,26.94-30.58
		C192.47,262.3,186.8,255.75,180.94,248.99z"/>
	<path class="st0" d="M180.94,248.99c5.85,6.76,11.53,13.31,16.84,19.43c-8.59,9.68-18.46,19.59-26.94,30.58
		c-25.17,32.64-35.96,69.57-32.32,110.88c2.68,30.39,10.12,59.02,27.43,84.5c22.12,32.57,53.53,52.15,90.34,64.07
		c56.93,18.44,109.68,9.45,157.55-25.7c30.79-22.61,47.11-54.83,55.6-91.51c9.45-40.85,6.44-80.49-11.73-118.41
		c-19.64-40.99-53.2-66.13-95.33-80.72c-19.43-6.73-39.41-11.05-60.14-11.08c-6.15-0.01-11.85,1.64-15.7,6.39
		c-12.35,15.28-29.08,20.36-47.7,21.19c-9.65,0.43-19.32,0.33-28.96,0.76c-5.07,0.23-8.53-2.16-10.32-6.34
		c-2-4.67-3.18-9.72-4.37-14.69c-0.28-1.18,0.41-3.07,1.31-4c10.22-10.49,20.38-21.06,30.98-31.17c4.44-4.24,9.72-7.58,16.7-5.79
		c1.68,0.43,3.92-0.59,5.69-1.4c6.18-2.85,12.34-2.75,18.34,0.17c8.67,4.23,17.82,5.15,27.25,4.52
		c100.35-6.64,189.64,54.39,213.92,151.74c14.3,57.32,1.79,110.51-29.94,159.23c-31.67,48.62-76.67,78.4-134.28,86.61
		c-67.49,9.61-127.39-7.46-175.96-56.83c-30.6-31.1-47.58-69.52-55.01-112.19c-12.53-72,12.95-130.34,65.06-178.92
		c0.49-0.45,1.01-0.87,1.55-1.25C181.04,248.89,181.38,248.83,180.94,248.99z"/>
</g>
</svg>
