<?xml version="1.0" encoding="utf-8"?>
<!-- Generator: Adobe Illustrator 24.3.0, SVG Export Plug-In . SVG Version: 6.00 Build 0)  -->
<svg version="1.1" id="Layer_1" xmlns="http://www.w3.org/2000/svg" xmlns:xlink="http://www.w3.org/1999/xlink" x="0px" y="0px"
	 viewBox="0 0 612 792" style="enable-background:new 0 0 612 792;" xml:space="preserve">
<style type="text/css">
	.st0{fill:#FFFFFF;}
</style>
<g>
	<path d="M556,646c-166.67,0-333.33,0-500,0c0-166.67,0-333.33,0-500c166.67,0,333.33,0,500,0C556,312.67,556,479.33,556,646z
		 M210.8,259.03c-2.43-5.74-4.2-11.15-6.9-16.06c-5.36-9.72-13.55-15.07-25.04-13.69c-5.44,0.65-10.86,1.72-16.18,3.06
		c-8.95,2.26-16.17,7.35-20.65,15.43c-4.27,7.69-7.83,15.77-11.55,23.75c-0.51,1.09-0.28,2.62-0.11,3.9
		c5.91,45.07,11.86,90.14,17.79,135.22c3.3,25.09,6.63,50.18,9.83,75.29c0.37,2.92,1.49,3.91,4.42,3.94
		c7.16,0.08,14.32,0.62,21.48,0.75c7.93,0.14,15.86,0.03,24.16,0.03c0-1.25,0.03-2.72,0-4.2c-0.47-18.66-0.96-37.31-1.44-55.97
		c-0.71-27.65-1.38-55.3-2.21-82.95c-0.09-3.09,0.76-4.81,3.81-5.16c2.96-0.35,5.93-0.81,8.89-0.77c3.15,0.04,5.24,1.43,5.33,5.15
		c0.07,3.31,0.75,6.61,1.17,9.91c4.5,35.35,8.99,70.71,13.52,106.06c1.22,9.52,2.58,19.03,3.86,28.46c16.21,0,31.81,0,47.67,0
		c0.39-6.77,0.78-13.23,1.12-19.69c2.09-40.27,4.15-80.54,6.33-120.8c0.07-1.39,1.1-3.79,1.91-3.89c5.17-0.64,10.42-1.14,15.62-0.91
		c2.85,0.13,4.09,2.48,4.17,5.75c1.06,44.64,2.28,89.28,3.47,133.92c0.05,1.79,0.2,3.57,0.31,5.5c18.9,0,37.43,0,56.02,0
		c0.11-1.43,0.2-2.42,0.26-3.41c2.38-44.76,4.76-89.51,7.15-134.27c0.25-4.74,5.15-10.36,10.16-11.6c5.35-1.31,8.7,1.66,10.96,5.83
		c1.28,2.36,2.2,5.27,2.18,7.92c-0.39,42.99-0.97,85.97-1.49,128.96c-0.02,1.91,0,3.82,0,6.33c21.88,0,42.95,0,64.21,0
		c0.12-1.28,0.3-2.58,0.36-3.9c1.02-22.8,1.99-45.61,3.05-68.41c2.47-53.09,4.99-106.18,7.46-159.27c0.07-1.48,0.41-3.28-0.26-4.42
		c-5.29-8.99-10.17-18.32-16.41-26.61c-5.61-7.46-14.17-9.22-23.44-7.93c-11.33,1.58-18.82,8.84-25.61,16.95
		c-4.93,5.89-9.63,10.57-18.3,7.15c-2.3-0.91-4.03-1.23-4.99-3.74c-1.84-4.82-3.95-9.53-6.05-14.25
		c-9.11-20.49-12.93-22.89-35.37-22.37c-12.24,0.28-19.13,5.48-22.46,17.38c-1.88,6.72-3.21,13.6-5.07,20.33
		c-0.38,1.38-1.95,3.31-3.16,3.46c-7.06,0.88-14.17,1.3-21.39,1.89c-0.54-3.21-0.88-6-1.48-8.72
		c-3.55-16.13-14.51-24.75-30.96-23.34c-7.38,0.63-14.74,2.5-21.88,4.61c-7.44,2.19-11.87,7.66-13.38,15.39
		c-1.18,6.04-2.34,12.1-3.88,18.06c-0.36,1.38-2.03,3.06-3.4,3.42C219.89,257.64,215.25,258.24,210.8,259.03z M460.02,508.62
		c-1.3-0.17-1.94-0.32-2.58-0.32c-46.47-0.03-92.94-0.07-139.4-0.01c-1.7,0-3.68,0.56-5.05,1.53
		c-19.25,13.63-24.8,41.78-11.93,61.29c3.37,5.11,7.46,9.8,11.56,14.37c1.24,1.38,3.65,2.4,5.53,2.4
		c44.64,0.13,89.27,0.11,133.91,0.09c4.84,0,7.88-3.15,7.97-8.03c0.03-1.5,0-3,0-4.5C460.02,553.3,460.02,531.15,460.02,508.62z"/>
	<path class="st0" d="M210.8,259.03c4.46-0.79,9.09-1.39,13.58-2.53c1.37-0.35,3.05-2.04,3.4-3.42c1.54-5.96,2.7-12.02,3.88-18.06
		c1.51-7.73,5.94-13.2,13.38-15.39c7.14-2.1,14.5-3.98,21.88-4.61c16.44-1.4,27.41,7.21,30.96,23.34c0.6,2.73,0.94,5.51,1.48,8.72
		c7.22-0.59,14.33-1.01,21.39-1.89c1.21-0.15,2.77-2.07,3.16-3.46c1.87-6.73,3.19-13.6,5.07-20.33c3.34-11.9,10.23-17.1,22.46-17.38
		c22.45-0.52,26.27,1.88,35.37,22.37c2.1,4.71,4.21,9.43,6.05,14.25c0.96,2.51,2.69,2.83,4.99,3.74c8.67,3.42,13.36-1.27,18.3-7.15
		c6.8-8.11,14.28-15.37,25.61-16.95c9.28-1.29,17.83,0.47,23.44,7.93c6.24,8.29,11.12,17.63,16.41,26.61
		c0.67,1.13,0.33,2.93,0.26,4.42c-2.48,53.09-4.99,106.18-7.46,159.27c-1.06,22.8-2.03,45.61-3.05,68.41
		c-0.06,1.31-0.24,2.62-0.36,3.9c-21.26,0-42.33,0-64.21,0c0-2.51-0.02-4.42,0-6.33c0.53-42.99,1.1-85.97,1.49-128.96
		c0.02-2.65-0.9-5.56-2.18-7.92c-2.26-4.17-5.61-7.14-10.96-5.83c-5.01,1.23-9.91,6.86-10.16,11.6
		c-2.38,44.76-4.76,89.51-7.15,134.27c-0.05,0.99-0.15,1.98-0.26,3.41c-18.6,0-37.12,0-56.02,0c-0.11-1.93-0.26-3.72-0.31-5.5
		c-1.19-44.64-2.41-89.28-3.47-133.92c-0.08-3.26-1.32-5.62-4.17-5.75c-5.19-0.23-10.44,0.27-15.62,0.91
		c-0.81,0.1-1.83,2.51-1.91,3.89c-2.17,40.26-4.24,80.53-6.33,120.8c-0.34,6.46-0.73,12.92-1.12,19.69c-15.86,0-31.46,0-47.67,0
		c-1.28-9.43-2.64-18.94-3.86-28.46c-4.53-35.35-9.02-70.71-13.52-106.06c-0.42-3.3-1.09-6.6-1.17-9.91
		c-0.08-3.72-2.18-5.11-5.33-5.15c-2.96-0.04-5.94,0.43-8.89,0.77c-3.05,0.36-3.91,2.07-3.81,5.16c0.83,27.65,1.5,55.3,2.21,82.95
		c0.48,18.66,0.96,37.31,1.44,55.97c0.04,1.47,0,2.94,0,4.2c-8.3,0-16.23,0.11-24.16-0.03c-7.16-0.13-14.32-0.67-21.48-0.75
		c-2.93-0.03-4.05-1.02-4.42-3.94c-3.2-25.11-6.53-50.2-9.83-75.29c-5.93-45.07-11.88-90.14-17.79-135.22
		c-0.17-1.29-0.39-2.82,0.11-3.9c3.72-7.98,7.29-16.06,11.55-23.75c4.48-8.08,11.7-13.17,20.65-15.43
		c5.31-1.34,10.74-2.41,16.18-3.06c11.48-1.38,19.68,3.98,25.04,13.69C206.6,247.88,208.37,253.29,210.8,259.03z"/>
	<path class="st0" d="M460.02,508.62c0,22.54,0,44.68,0,66.82c0,1.5,0.02,3,0,4.5c-0.09,4.88-3.12,8.03-7.97,8.03
		c-44.64,0.02-89.27,0.04-133.91-0.09c-1.88-0.01-4.29-1.03-5.53-2.4c-4.11-4.57-8.19-9.26-11.56-14.37
		c-12.87-19.51-7.32-47.66,11.93-61.29c1.37-0.97,3.35-1.53,5.05-1.53c46.47-0.06,92.94-0.02,139.4,0.01
		C458.08,508.29,458.72,508.45,460.02,508.62z"/>
</g>
</svg>
