<?xml version="1.0" encoding="utf-8"?>
<!-- Generator: Adobe Illustrator 24.3.0, SVG Export Plug-In . SVG Version: 6.00 Build 0)  -->
<svg version="1.1" id="Layer_1" xmlns="http://www.w3.org/2000/svg" xmlns:xlink="http://www.w3.org/1999/xlink" x="0px" y="0px"
	 viewBox="0 0 612 792" style="enable-background:new 0 0 612 792;" xml:space="preserve">
<style type="text/css">
	.st0{fill:#FFFFFF;}
</style>
<g>
	<path d="M556,646c-166.67,0-333.33,0-500,0c0-166.67,0-333.33,0-500c166.67,0,333.33,0,500,0C556,312.67,556,479.33,556,646z
		 M305.82,637C438.81,637.05,546.89,529.25,547,396.43C547.11,263.15,439.28,155.05,306.18,155
		C173.19,154.95,65.11,262.75,65,395.57C64.89,528.85,172.72,636.95,305.82,637z"/>
	<path class="st0" d="M305.82,637C172.72,636.95,64.89,528.85,65,395.57C65.11,262.75,173.19,154.95,306.18,155
		c133.1,0.05,240.93,108.15,240.82,241.43C546.89,529.25,438.81,637.05,305.82,637z M297.33,478.2c2.7-2.5,7.17-2.26,10.64-0.38
		c6.93,3.76,13.81,7.93,19.85,12.97c14.5,12.09,18.52,27.56,13.6,45.79c-1.98,7.33-2.78,15-3.82,22.55
		c-1.87,13.7,8.68,31.21,25.56,28.99c3.28-0.43,6.73,0.34,9.97-0.22c7.94-1.36,16.19-1.94,22.98-7.07
		c14.79-11.19,25.36-25.23,29.97-43.52c4.3-17.1,3.47-34.24,1.72-51.54c-2.12-20.97-13.2-34.5-32.73-41.73
		c-6.23-2.31-12.29-5.11-18.32-7.9c-8.66-4.01-16.32-8.78-21.44-17.72c-8.52-14.87-21.43-24.85-38.4-28.9
		c-9.11-2.18-17.42-2.29-25.84,3.99c-9.8,7.33-20.83,13.08-31.55,19.12c-13.5,7.61-27.47,14.41-40.81,22.28
		c-18.05,10.65-33.43,24.58-47.48,40.14c-12.12,13.42-15.83,28.76-9.64,45.21c4.99,13.27,12.58,25.57,19.1,38.25
		c0.49,0.96,1.54,1.85,2.54,2.29c10,4.32,19.78,9.45,30.17,12.48c7.87,2.29,16.62,4.69,24.81,0.35c7.34-3.89,15.09-7.45,21.45-12.63
		c14.18-11.54,27.47-24.16,41.39-36.02c8.55-7.29,9.96-16.63,7.03-26.24C305.94,491.71,301.23,485.44,297.33,478.2z M324.16,313.02
		c0.61,7.87,1.24,16.34,1.95,24.8c0.18,2.15,0.84,4.26,0.96,6.4c0.64,11.19,4.34,20.53,13.47,27.97
		c7.29,5.94,13.32,13.43,19.95,20.18c9.1,9.26,32.46,8.27,40.26-4.15c2.2-3.51,4.82-6.9,6.3-10.71c9.44-24.28,8.45-49.08,1.08-73.4
		c-7.29-24.04-22.22-44.14-36.69-64.33c-2.27-3.17-3.28-7.35-4.43-11.19c-1.04-3.47-1.13-7.24-2.24-10.68
		c-2.25-6.98-9.64-8.24-14.45-2.59c-3.58,4.2-4.69,9.12-3.55,14.47c0.67,3.14-0.01,5.52-2.07,8.18c-3.53,4.59-6.77,9.53-9.35,14.7
		C325.96,271.49,324,291.77,324.16,313.02z M228.13,404c12.08-2.36,25.86-9.58,36.91-20.44c12.28-12.07,13.84-28.75,13.56-45.02
		c-0.18-10.73-2.24-21.44-3.63-32.13c-1.87-14.38-4.83-28.4-11.78-41.41c-3.95-7.4-6.81-15.37-10.37-22.99
		c-1.52-3.25-3.12-6.68-5.51-9.25c-2.92-3.12-5.48-2.17-7.96,1.33c-5.97,8.42-10.68,17.5-18.01,25.28
		c-12.51,13.27-18.46,30.15-19.33,48.56c-0.61,12.79-1.23,25.58-1.77,38.38c-0.56,13.39-2.09,26.78,1.61,40.07
		C205.12,398.15,212.24,403.99,228.13,404z M408.95,423.28c-0.1,6.94,0.53,14.23,8.33,19.03c3.09,1.9,5.24,5.53,7.46,8.62
		c5.74,7.96,10.71,16.53,17.05,23.97c8.26,9.7,19.48,11.3,31.3,6.51c8.06-3.27,11.44-9.52,14.34-17.25
		c4.63-12.31,8.19-24.75,7.43-37.86c-0.97-16.75-2.76-33.46-4.51-50.15c-1.74-16.56-3.99-33.08-0.69-49.68
		c0.83-4.21-1.98-6.62-4.85-7.68c-2.04-0.75-5.95,0.12-7.33,1.73c-2.97,3.47-5.33,7.68-7.06,11.95c-2.23,5.53-5.59,7.85-11.67,8.82
		c-10.6,1.7-19.35,6.51-22.11,18.5c-1.14,4.93-3.52,9.71-6.02,14.17c-4.24,7.54-9.09,14.74-13.58,22.14
		C412.14,404.17,408.5,412.67,408.95,423.28z M187.17,406.57c0.51-23.68-5.58-44.33-15.6-64.06c-2.53-4.98-5.94-8.46-10.92-11.05
		c-6.79-3.54-13.25-7.68-16.77-15.09c-2.02-4.25-5.69-1.69-8.39-1.09c-1.46,0.32-3.48,2.91-3.43,4.41
		c0.32,8.64-2.37,16.44-6.14,23.91c-5.87,11.62-9.19,23.39-8.23,36.84c1.01,14.21-0.91,28.61-0.47,42.89
		c0.24,8.01,1.83,16.23,4.3,23.88c3.48,10.82,7.66,14.34,21.9,14.68c10.55,0.25,20.11-4.04,29.39-8.5c2.42-1.16,4.79-3.63,5.92-6.09
		C184.83,433.98,187.79,419.92,187.17,406.57z"/>
	<path d="M297.33,478.2c3.9,7.24,8.61,13.5,10.76,20.55c2.92,9.61,1.52,18.95-7.03,26.24c-13.92,11.87-27.21,24.48-41.39,36.02
		c-6.37,5.18-14.11,8.74-21.45,12.63c-8.19,4.34-16.94,1.95-24.81-0.35c-10.39-3.03-20.17-8.16-30.17-12.48
		c-1-0.43-2.05-1.33-2.54-2.29c-6.52-12.68-14.11-24.98-19.1-38.25c-6.19-16.45-2.48-31.79,9.64-45.21
		c14.06-15.56,29.43-29.49,47.48-40.14c13.34-7.87,27.31-14.68,40.81-22.28c10.72-6.04,21.74-11.79,31.55-19.12
		c8.41-6.29,16.73-6.17,25.84-3.99c16.97,4.05,29.88,14.03,38.4,28.9c5.12,8.94,12.77,13.7,21.44,17.72
		c6.04,2.79,12.09,5.59,18.32,7.9c19.53,7.23,30.6,20.76,32.73,41.73c1.75,17.3,2.58,34.44-1.72,51.54
		c-4.6,18.29-15.17,32.33-29.97,43.52c-6.79,5.13-15.04,5.71-22.98,7.07c-3.24,0.55-6.7-0.21-9.97,0.22
		c-16.89,2.22-27.43-15.28-25.56-28.99c1.03-7.56,1.84-15.22,3.82-22.55c4.92-18.24,0.9-33.7-13.6-45.79
		c-6.04-5.04-12.91-9.21-19.85-12.97C304.5,475.94,300.02,475.7,297.33,478.2z"/>
	<path d="M324.16,313.02c-0.16-21.25,1.8-41.53,11.19-60.33c2.59-5.18,5.82-10.11,9.35-14.7c2.05-2.67,2.73-5.05,2.07-8.18
		c-1.14-5.36-0.03-10.27,3.55-14.47c4.81-5.64,12.2-4.39,14.45,2.59c1.11,3.44,1.2,7.21,2.24,10.68c1.15,3.84,2.16,8.02,4.43,11.19
		c14.48,20.19,29.41,40.28,36.69,64.33c7.37,24.32,8.36,49.11-1.08,73.4c-1.48,3.81-4.09,7.2-6.3,10.71
		c-7.8,12.42-31.16,13.4-40.26,4.15c-6.64-6.75-12.66-14.24-19.95-20.18c-9.14-7.44-12.83-16.78-13.47-27.97
		c-0.12-2.14-0.78-4.25-0.96-6.4C325.4,329.35,324.77,320.89,324.16,313.02z"/>
	<path d="M228.13,404c-15.89-0.01-23.02-5.86-26.29-17.63c-3.69-13.29-2.17-26.67-1.61-40.07c0.54-12.79,1.16-25.59,1.77-38.38
		c0.88-18.41,6.82-35.29,19.33-48.56c7.33-7.77,12.03-16.86,18.01-25.28c2.48-3.5,5.04-4.45,7.96-1.33c2.4,2.57,3.99,6,5.51,9.25
		c3.56,7.62,6.42,15.59,10.37,22.99c6.95,13.01,9.92,27.04,11.78,41.41c1.39,10.7,3.45,21.4,3.63,32.13
		c0.27,16.27-1.28,32.95-13.56,45.02C254,394.43,240.22,401.64,228.13,404z"/>
	<path d="M408.95,423.28c-0.45-10.6,3.19-19.1,8.09-27.18c4.49-7.41,9.34-14.6,13.58-22.14c2.51-4.46,4.89-9.24,6.02-14.17
		c2.76-11.99,11.52-16.8,22.11-18.5c6.08-0.97,9.43-3.29,11.67-8.82c1.72-4.27,4.08-8.48,7.06-11.95c1.38-1.61,5.29-2.48,7.33-1.73
		c2.87,1.06,5.68,3.47,4.85,7.68c-3.29,16.6-1.05,33.13,0.69,49.68c1.75,16.69,3.54,33.4,4.51,50.15c0.76,13.1-2.8,25.55-7.43,37.86
		c-2.91,7.73-6.29,13.98-14.34,17.25c-11.82,4.79-23.04,3.19-31.3-6.51c-6.33-7.44-11.31-16.01-17.05-23.97
		c-2.23-3.09-4.37-6.71-7.46-8.62C409.48,437.5,408.85,430.22,408.95,423.28z"/>
	<path d="M187.17,406.57c0.61,13.35-2.34,27.41-8.45,40.74c-1.12,2.45-3.5,4.92-5.92,6.09c-9.28,4.47-18.84,8.75-29.39,8.5
		c-14.23-0.34-18.41-3.86-21.9-14.68c-2.46-7.65-4.05-15.86-4.3-23.88c-0.43-14.28,1.49-28.68,0.47-42.89
		c-0.96-13.45,2.36-25.22,8.23-36.84c3.77-7.46,6.46-15.26,6.14-23.91c-0.06-1.5,1.97-4.09,3.43-4.41c2.7-0.6,6.37-3.16,8.39,1.09
		c3.52,7.4,9.98,11.55,16.77,15.09c4.98,2.59,8.39,6.07,10.92,11.05C181.59,362.25,187.68,382.89,187.17,406.57z"/>
</g>
</svg>
