<?xml version="1.0" encoding="utf-8"?>
<!-- Generator: Adobe Illustrator 24.3.0, SVG Export Plug-In . SVG Version: 6.00 Build 0)  -->
<svg version="1.1" id="Layer_1" xmlns="http://www.w3.org/2000/svg" xmlns:xlink="http://www.w3.org/1999/xlink" x="0px" y="0px"
	 viewBox="0 0 612 792" style="enable-background:new 0 0 612 792;" xml:space="preserve">
<style type="text/css">
	.st0{fill:#FFFFFF;}
</style>
<g>
	<path class="st0" d="M9,96.56c197.33,0,394.67,0,592,0c0,199.39,0,398.79,0,598.18c-197.33,0-394.67,0-592,0
		C9,495.34,9,295.95,9,96.56z M196.01,505.53c29.97,42.27,100.94,71.66,169.14,43.99c64.76-26.29,103.74-92.17,92.02-162.62
		c-12.11-72.77-69.93-120.69-137.84-125.11c-74.73-4.86-132.69,44.64-149.05,97.49c42.42-75.11,128.38-82.24,181.78-43.51
		c53.29,38.65,68.88,116.15,25.42,173.85C343.06,535.3,263.75,562.57,196.01,505.53z"/>
	<path d="M196.01,505.53c67.74,57.03,147.05,29.77,181.46-15.91c43.47-57.7,27.87-135.2-25.42-173.85
		c-53.39-38.73-139.35-31.6-181.78,43.51c16.37-52.85,74.32-102.35,149.05-97.49c67.91,4.41,125.73,52.34,137.84,125.11
		c11.73,70.45-27.25,136.34-92.02,162.62C296.96,577.2,225.99,547.8,196.01,505.53z"/>
</g>
</svg>
