<?xml version="1.0" encoding="utf-8"?>
<!-- Generator: Adobe Illustrator 24.3.0, SVG Export Plug-In . SVG Version: 6.00 Build 0)  -->
<svg version="1.1" id="Layer_1" xmlns="http://www.w3.org/2000/svg" xmlns:xlink="http://www.w3.org/1999/xlink" x="0px" y="0px"
	 viewBox="0 0 612 792" style="enable-background:new 0 0 612 792;" xml:space="preserve">
<style type="text/css">
	.st0{fill:#FFFFFF;}
</style>
<g>
	<path class="st0" d="M0,138.2c203.23,0,406.46,0,609.7,0c0,171.6,0,343.2,0,514.8c-203.23,0-406.46,0-609.7,0
		C0,481.4,0,309.8,0,138.2z M497.06,476.25c-54.03,96.85-176.8,116.98-258.17,58.16c-77.93-56.33-96.75-162.93-41.58-243.37
		c30.83-44.95,74.46-69.93,128.79-74.86c53.96-4.9,100.47,12.92,140.3,49.36c-43.77-63.22-145.16-105.63-243.12-68.38
		C127.87,233.45,70.85,332.92,88.27,433.75c17.7,102.5,107.09,178.01,211.03,178.27C386.13,612.24,484.18,544.92,497.06,476.25z"/>
	<path d="M497.06,476.25c-12.87,68.67-110.93,135.98-197.75,135.76c-103.94-0.26-193.33-75.77-211.03-178.27
		c-17.42-100.83,39.6-200.3,135.01-236.58c97.96-37.25,199.35,5.16,243.12,68.38c-39.83-36.44-86.34-54.26-140.3-49.36
		c-54.33,4.93-97.96,29.91-128.79,74.86c-55.17,80.44-36.35,187.04,41.58,243.37C320.25,593.23,443.03,573.11,497.06,476.25z"/>
</g>
</svg>
