<?xml version="1.0" encoding="utf-8"?>
<!-- Generator: Adobe Illustrator 24.3.0, SVG Export Plug-In . SVG Version: 6.00 Build 0)  -->
<svg version="1.1" id="Layer_1" xmlns="http://www.w3.org/2000/svg" xmlns:xlink="http://www.w3.org/1999/xlink" x="0px" y="0px"
	 viewBox="0 0 612 792" style="enable-background:new 0 0 612 792;" xml:space="preserve">
<style type="text/css">
	.st0{fill:#FDFDFD;}
	.st1{fill:#050505;}
	.st2{fill:#F5F5F5;}
	.st3{fill:#F6F6F6;}
	.st4{fill:#F3F3F3;}
	.st5{fill:#131313;}
	.st6{fill:#191919;}
	.st7{fill:#121212;}
	.st8{fill:#111111;}
	.st9{fill:#171717;}
	.st10{fill:#151515;}
	.st11{fill:#1C1C1C;}
	.st12{fill:#373737;}
	.st13{fill:#292929;}
	.st14{fill:#202020;}
	.st15{fill:#1E1E1E;}
	.st16{fill:#141414;}
	.st17{fill:#F4F4F4;}
	.st18{fill:#F1F1F1;}
	.st19{fill:#EAEAEA;}
</style>
<g>
	<path class="st0" d="M7,673.58C7,488.25,7,302.92,7,117.6c199,0,398,0,597,0c0,185.33,0,370.66,0,555.98
		C405,673.58,206,673.58,7,673.58z M248.49,183.72c1.01,1.18,2.01,2.36,3.02,3.53c0.45-0.93,0.91-1.86,1.36-2.78
		c-1.43-0.29-2.86-0.57-4.29-0.86c-2.55-7.36-7.21-12.25-15.48-11.11c-2.16,0.3-3.93,3.41-4.15,3.61
		C235.68,178.73,242.08,181.23,248.49,183.72z M212.78,193.28c-0.88,0.72-2.13,1.25-2.58,2.17c-6.77,13.67-8.13,31.69-28.13,34.64
		c-0.28,0.04-0.56,0.52-0.71,0.86c-5.34,11.96-13.21,9.21-21.84,4.03c-4.53-2.72-9.47-4.75-14.26-7.02
		c-9.27-4.39-18.57-8.72-30.66-14.4c7.99,15.77,13.52,28.74,20.88,40.57c6.47,10.4,7.31,18.72-1.76,27.88
		c-4.45,4.49-6.79,11-10.95,15.85c-2.51,2.92-6.44,5.5-10.15,6.33c-10.7,2.4-17.38,13.83-11.02,22.2c4.74,6.24,4.14,11.27,1.99,17.6
		c-1.58,4.64-3.2,9.62-3.08,14.41c0.4,16.87-8.05,24.4-24.06,27.56c-13.24,2.61-25.92,8.11-38.84,12.33
		c12.64,7.1,24.79,12.29,37.41,15.67c15.82,4.24,27.61,10.69,26.58,29.8c-0.23,4.32,2.84,8.74,3.12,13.19
		c0.25,3.93-0.31,8.52-2.2,11.86c-5.16,9.13-1.75,21.37,8.37,22.43c8.48,0.89,11.2,5.88,14.79,11.54
		c3.44,5.44,6.86,11.04,11.19,15.74c4.47,4.84,3.83,8.67,0.93,14c-8.78,16.12-16.96,32.57-25.37,48.89
		c13.45-3.6,25.83-8.26,36.82-15.14c15.14-9.48,28.4-11.2,41.93,2.54c4.48,4.55,10.67,6.17,11.35,14.86
		c0.77,9.8,13.47,15.42,20.96,9.47c6.45-5.13,11.43-3.5,17.6-1.61c5.42,1.66,11.1,3.99,16.55,3.73c15.56-0.74,20.11,8.47,23.45,21.4
		c3.9,15.12,9.8,29.72,14.84,44.54c8.69-18.46,14.51-36.83,21.38-54.8c1.51-3.94,6.3-7.96,10.42-9.28
		c10.05-3.21,20.55-5.1,30.97-6.97c3.23-0.58,7.42-0.45,10.08,1.15c12.08,7.27,22.34,3.03,25.53-10.56c0.81-3.42,3.4-6.88,6.09-9.29
		c3.92-3.51,9.34-5.44,12.92-9.19c6.88-7.18,13.2-5.78,21.03-1.61c15.14,8.07,30.76,15.24,46.18,22.78
		c-3.23-11.66-7.11-22.03-13.31-30.75c-12.65-17.8-14.53-33.82,2.16-50.37c4.67-4.63,7.17-9.89,15.05-11.37
		c8.23-1.54,13.93-10.71,9.18-17.47c-6.85-9.74-1.2-17.58-1.03-26.38c0.42-21.86,12.86-31.08,32.45-35.39
		c10.96-2.41,21.35-7.35,32-11.14c-17.46-7.89-34.35-13.52-51.39-18.64c-5.8-1.74-8.54-4.23-9.12-10.81
		c-0.85-9.75-3.11-19.44-5.54-28.96c-1.45-5.67-2.2-10.02,1.73-15.57c5.81-8.22,1.02-20.68-8.56-21.28
		c-8.4-0.52-10.63-5.6-14.08-10.77c-3.58-5.36-6.64-11.23-11.01-15.86c-6.24-6.6-6.28-12.38-1.86-20.15
		c7.68-13.52,14.22-27.68,21.24-41.57c-12.48,3.21-23.67,7.1-33.19,13.48c-14.75,9.88-27.37,10.81-40.63-2.38
		c-4.61-4.58-10.51-6.41-11.29-14.96c-0.88-9.67-13.45-15.04-21.04-9.31c-5.95,4.49-10.58,3.46-16.4,1.56
		c-5.01-1.64-10.2-3.08-15.42-3.61c-8.58-0.87-13.27-5.15-16.23-13.25c-6.72-18.34-14.25-36.38-22.13-56.25
		c-6.36,11.51-11.64,21.54-17.36,31.3c-8.68,14.81-15.94,30.07-28.57,42.9c-9.57,9.72-15.18,16.98-26.58,14.64
		c-13.08-2.69-14.79-5.2-16.14-23.66c0.89-0.9,1.77-1.8,2.66-2.7C214.99,194.22,213.89,193.75,212.78,193.28z M223.28,184.4
		c-0.8-1.11-1.6-2.23-2.4-3.34c-1.88,1.7-3.77,3.4-5.58,5.18c-0.04,0.04,0.82,1,1.97,2.38C219.24,187.24,221.26,185.82,223.28,184.4
		z M254.7,193.66c0.05,0.24,0.02,0.59,0.17,0.7c0.21,0.16,0.56,0.13,0.84,0.19c-0.08-0.4-0.15-0.8-0.23-1.2
		C255.22,193.45,254.96,193.55,254.7,193.66z"/>
	<path class="st1" d="M213.44,197.39c1.35,18.46,3.06,20.97,16.14,23.66c11.4,2.35,17.01-4.92,26.58-14.64
		c12.63-12.83,19.89-28.09,28.57-42.9c5.72-9.76,11-19.79,17.36-31.3c7.88,19.88,15.41,37.92,22.13,56.25
		c2.97,8.1,7.65,12.38,16.23,13.25c5.21,0.53,10.41,1.97,15.42,3.61c5.82,1.91,10.44,2.94,16.4-1.56
		c7.59-5.73,20.17-0.36,21.04,9.31c0.78,8.55,6.68,10.38,11.29,14.96c13.26,13.19,25.89,12.26,40.63,2.38
		c9.52-6.38,20.71-10.27,33.19-13.48c-7.02,13.89-13.56,28.06-21.24,41.57c-4.42,7.77-4.38,13.55,1.86,20.15
		c4.37,4.63,7.43,10.5,11.01,15.86c3.45,5.17,5.68,10.25,14.08,10.77c9.58,0.6,14.37,13.06,8.56,21.28
		c-3.93,5.56-3.18,9.9-1.73,15.57c2.43,9.52,4.69,19.21,5.54,28.96c0.58,6.59,3.32,9.07,9.12,10.81
		c17.04,5.13,33.93,10.75,51.39,18.64c-10.65,3.8-21.05,8.73-32,11.14c-19.59,4.31-32.03,13.53-32.45,35.39
		c-0.17,8.8-5.83,16.63,1.03,26.38c4.75,6.75-0.95,15.93-9.18,17.47c-7.88,1.47-10.38,6.73-15.05,11.37
		c-16.69,16.56-14.81,32.58-2.16,50.37c6.2,8.72,10.08,19.09,13.31,30.75c-15.42-7.54-31.04-14.71-46.18-22.78
		c-7.83-4.17-14.15-5.58-21.03,1.61c-3.59,3.75-9.01,5.68-12.92,9.19c-2.69,2.41-5.29,5.87-6.09,9.29
		c-3.2,13.59-13.46,17.82-25.53,10.56c-2.67-1.6-6.85-1.73-10.08-1.15c-10.42,1.87-20.92,3.76-30.97,6.97
		c-4.13,1.32-8.92,5.34-10.42,9.28c-6.88,17.97-12.7,36.34-21.38,54.8c-5.03-14.82-10.94-29.42-14.84-44.54
		c-3.34-12.93-7.89-22.14-23.45-21.4c-5.46,0.26-11.13-2.07-16.55-3.73c-6.18-1.89-11.15-3.52-17.6,1.61
		c-7.48,5.95-20.19,0.33-20.96-9.47c-0.68-8.69-6.87-10.31-11.35-14.86c-13.53-13.74-26.79-12.02-41.93-2.54
		c-10.99,6.88-23.37,11.53-36.82,15.14c8.41-16.32,16.59-32.77,25.37-48.89c2.91-5.33,3.54-9.16-0.93-14
		c-4.33-4.7-7.75-10.3-11.19-15.74c-3.59-5.67-6.31-10.65-14.79-11.54c-10.11-1.06-13.52-13.3-8.37-22.43
		c1.89-3.34,2.45-7.93,2.2-11.86c-0.28-4.45-3.35-8.87-3.12-13.19c1.03-19.1-10.76-25.56-26.58-29.8
		c-12.63-3.38-24.77-8.57-37.41-15.67c12.93-4.22,25.6-9.72,38.84-12.33c16.01-3.16,24.46-10.69,24.06-27.56
		c-0.11-4.79,1.51-9.77,3.08-14.41c2.15-6.33,2.75-11.36-1.99-17.6c-6.36-8.37,0.32-19.8,11.02-22.2c3.72-0.84,7.65-3.41,10.15-6.33
		c4.16-4.85,6.51-11.36,10.95-15.85c9.08-9.16,8.24-17.48,1.76-27.88c-7.36-11.83-12.89-24.8-20.88-40.57
		c12.09,5.67,21.39,10.01,30.66,14.4c4.79,2.27,9.73,4.3,14.26,7.02c8.63,5.18,16.5,7.93,21.84-4.03c0.15-0.33,0.44-0.82,0.71-0.86
		c20-2.95,21.37-20.96,28.13-34.64c0.46-0.92,1.7-1.46,2.58-2.17C213,194.65,213.22,196.02,213.44,197.39z M289.41,563.25
		c19.32-3.07,36.6-3.99,52.68-8.86c17.91-5.42,36.17-12.27,51.61-22.51c14.87-9.86,27.53-23.9,38.86-37.95
		c6.98-8.67,11.48-20.42,13.81-31.48c3.14-14.87,2.86-30.43,4.5-45.65c1.99-18.48,2.87-36.51-3.23-54.83
		c-5.97-17.92-16.59-32.03-29.27-45.2c-6.51-6.76-10.28-13.55-8.48-24.23c2.58-15.28-2-29.3-15.74-38.87
		c-8.08-5.63-16.74-10.73-23.77-17.5c-9.61-9.25-20.75-10.44-32.69-8.9c-13.6,1.76-20.93,9.41-22.88,23.63
		c-1.18,8.61-9.24,11.68-17.5,11.03c-7.15-0.56-13.82-1.52-15.16-11.62c-0.62-4.67-5.63-10.21-10.12-12.67
		c-20.96-11.47-55.38,8.36-56.92,32.23c-0.74,11.4-5.8,16.7-17.09,16.92c-5.25,0.1-10.63-0.47-15.77-1.58
		c-10.39-2.24-20.25,0.26-25.03,8.93c-9.23,16.72-17.45,34.24-23.68,52.26c-2.42,7.01-1.32,19.51,3.4,23.85
		c10.29,9.49,9.23,17.54,3.55,27.72c-2.21,3.95-4.07,8.11-5.81,12.29c-6.16,14.78-3.53,24.61,8.69,35.12
		c3.87,3.33,9.74,7.3,10.03,11.31c1.28,17.74,12.09,30.34,20.28,44.78c11.95,21.06,28.35,34.41,51.81,39.57
		c3.63,0.8,7.87,1.44,10.49,3.7C252.17,558.71,272.05,560.35,289.41,563.25z M196.25,230.95c-9.41-0.03-19.61,10.41-17.79,19.52
		c0.99,4.96,7.55,10.9,12.75,12.42c7.58,2.21,16.45-9.16,16.35-19.32C207.49,235.34,202.51,231.55,196.25,230.95z"/>
	<path class="st2" d="M248.49,183.72c-6.41-2.5-12.81-4.99-19.54-7.61c0.22-0.2,1.99-3.31,4.15-3.61
		c8.27-1.13,12.93,3.75,15.48,11.11L248.49,183.72z"/>
	<path class="st2" d="M223.28,184.4c-2.02,1.42-4.05,2.83-6.01,4.21c-1.15-1.38-2.01-2.34-1.97-2.38c1.81-1.78,3.7-3.47,5.58-5.18
		C221.69,182.17,222.49,183.29,223.28,184.4z"/>
	<path class="st2" d="M248.58,183.62c1.43,0.29,2.86,0.57,4.29,0.86c-0.45,0.93-0.91,1.86-1.36,2.78c-1.01-1.18-2.01-2.36-3.02-3.53
		C248.49,183.72,248.58,183.62,248.58,183.62z"/>
	<path class="st2" d="M213.44,197.39c-0.22-1.37-0.43-2.74-0.65-4.12c1.1,0.47,2.21,0.95,3.31,1.42
		C215.21,195.59,214.32,196.49,213.44,197.39z"/>
	<path class="st2" d="M254.7,193.66c0.26-0.1,0.52-0.21,0.78-0.31c0.08,0.4,0.15,0.8,0.23,1.2c-0.29-0.05-0.63-0.03-0.84-0.19
		C254.72,194.25,254.75,193.9,254.7,193.66z"/>
	<path class="st3" d="M289.41,563.25c-17.36-2.89-37.24-4.54-53.43-18.51c-2.62-2.26-6.87-2.91-10.49-3.7
		c-23.45-5.16-39.85-18.51-51.81-39.57c-8.19-14.43-19-27.03-20.28-44.78c-0.29-4.01-6.16-7.98-10.03-11.31
		c-12.22-10.51-14.86-20.34-8.69-35.12c1.74-4.18,3.61-8.34,5.81-12.29c5.69-10.18,6.74-18.22-3.55-27.72
		c-4.71-4.35-5.82-16.84-3.4-23.85c6.23-18.02,14.45-35.54,23.68-52.26c4.78-8.67,14.65-11.17,25.03-8.93
		c5.14,1.11,10.52,1.68,15.77,1.58c11.28-0.22,16.35-5.51,17.09-16.92c1.54-23.87,35.96-43.7,56.92-32.23
		c4.49,2.46,9.51,8,10.12,12.67c1.34,10.1,8.02,11.06,15.16,11.62c8.26,0.65,16.32-2.41,17.5-11.03
		c1.95-14.22,9.27-21.88,22.88-23.63c11.93-1.54,23.07-0.36,32.69,8.9c7.03,6.76,15.69,11.87,23.77,17.5
		c13.75,9.57,18.32,23.58,15.74,38.87c-1.8,10.69,1.97,17.47,8.48,24.23c12.68,13.17,23.3,27.29,29.27,45.2
		c6.1,18.32,5.22,36.34,3.23,54.83c-1.64,15.22-1.37,30.78-4.5,45.65c-2.33,11.06-6.83,22.82-13.81,31.48
		c-11.33,14.06-23.99,28.09-38.86,37.95c-15.44,10.24-33.7,17.09-51.61,22.51C326.01,559.26,308.73,560.18,289.41,563.25z
		 M314.18,466.19c5.74-8.85-4.84-1.03-4.47-4.38c1.57-0.93,4.21-2.95,4.56-2.61c4.77,4.63,6.44,1.91,7.48-2.83l0.52,0.04
		c2.83-1.6,5.65-3.21,8.48-4.81l0.64-0.82c-0.48-8.83,5.4-12.7,11.96-16.92c8.35-5.36,7.69-9.43-2.12-15.79
		c8.74-5.55,6.71-12.12,2.25-19.3c-4.67-7.52-10.92-6.98-17.84-4.53c-6.4,2.27-12.76,4.62-19.14,6.93
		c-0.54-0.56-1.08-1.12-1.63-1.68c0.23-1.27,0.45-2.53,0.68-3.8c0,0,0.08-0.08,0.08-0.08c7.04-3.48,14-7.15,21.14-10.4
		c11.02-5.02,13-12.54,4.84-20.77c-13-13.11-26.02-26.22-39.62-38.7c-2.33-2.14-8.54-2.8-11.31-1.23
		c-14.73,8.33-14.49,20.01,0.03,33.88c13.39,12.78,16.35,26.38,9.87,43.26c-1.12,2.91-0.82,6.36-1.21,9.94
		c-8.7,5.45-18.14,11.05-27.24,17.16c-6.52,4.39-5.98,10.83-1.38,15.7c6.5,6.87,21.83,7.41,30.57,2.26
		c8.82-5.2,17.64-10.41,26.45-15.62c0.58,0.84,1.17,1.69,1.75,2.53c-6.02,7.07-12.04,14.15-18.05,21.22
		c-0.86,1.52-1.72,3.05-2.59,4.57c0.69,0.69,1.38,1.37,2.06,2.06c1.53,0.02,3.05,0.03,4.58,0.05c1.48,0.03,2.95,0.07,4.44,0.09
		c0.29,1.53,0.58,3.05,0.87,4.58c-0.45,0.67-0.56,1.38-0.34,2.15c-1.73,2.17-3.45,4.33-5.18,6.5c1.23,0.71,2.46,1.41,3.68,2.12
		c1.12-2.77,2.24-5.55,3.36-8.32C312.95,467.81,313.56,467,314.18,466.19z M312.59,484.55c1.3,2.62,2.59,5.24,3.89,7.87
		c7.08,13.65,15.1,15.1,25.03,2.87c-9.02,4.46-16,2.52-21.18-5.04c-1.9-2-3.81-4.01-5.71-6.01c-1.37-1.3-2.75-2.6-4.12-3.9
		c-0.56,0.79-1.11,1.59-1.66,2.38C310.08,483.33,311.33,483.94,312.59,484.55z M341.68,315.71c-10.38,0-20.76,0-33.94,0
		c13.77,7.07,24.81,11.42,36.53,2.47c5.82-3.32,7.65-9.83,2.76-12.76c-5.53-3.32-13.48-2.59-20.38-3.62
		c-0.09,1.32-0.19,2.65-0.28,3.97c4.36,0.63,9.01,0.59,12.95,2.23C340.9,308.67,340.94,313.04,341.68,315.71z M354.27,465.6
		c0.71-3.96,5.47-10.35-4.68-7.76c-1.46-5.17-2.92-10.34-4.39-15.51c-4.82,1.84-9.65,3.67-14.47,5.51c0.4,1.12,0.81,2.24,1.21,3.37
		c3.8,0,7.59,0,12.51,0c0,14.84,0,29.14,0,45.47C353.69,487.29,351.6,475.58,354.27,465.6z M184.73,457.11
		c2.28,4.65,3.82,9.87,6.96,13.83c10.27,12.97,20.38,26.22,32.05,37.86c5.98,5.96,14.75,10.03,23,12.54
		c6.92,2.1,15.02,0.21,16.54-9.2c0.91-5.58-10.15-15.08-16.75-14.75c-11.73,0.59-20.29-5.08-27.61-13.27
		c-5.06-5.67-3.41-15.31,3.72-16.14c8.03-0.94,18.82-0.98,24.35,3.55c19.53,16.01,37.33,34.14,54.34,50.11
		c0.52,6.79,0.94,12.24,1.36,17.69c1.16-0.06,2.32-0.12,3.47-0.18c0-2.75-1.13-7.01,0.18-7.99c8.99-6.72,2.64-12.26-1.53-16.78
		c-12.03-13.05-24.55-25.67-37.23-38.1c-6.94-6.8-14.13-13.53-22.04-19.1c-14.88-10.47-31.7-1.8-39.63,22.22
		c-6.37-8.34-11.7-15.31-17.03-22.29c3-2.04,5.96-5.75,9.02-5.85c14.9-0.48,26.64-7.79,38.17-15.93
		c20.51-14.48,28.26-35.02,19.33-58.32c-3.57-9.31-12.18-16.7-20.11-27.07c18.61-16.62,39.01-34.85,59.71-53.34
		c1.87,5.46,3.43,10,4.99,14.55c1.7-5.25,1.45-9.67,1.11-14.08c-0.73-9.32-4.3-11.43-12.44-6.56c-3.76,2.25-6.58,6.03-9.91,9.03
		c-11.68,10.55-23.34,21.11-35.11,31.55c-3.09,2.75-6.9,4.74-9.77,7.68c-8.99,9.25-8.66,14.55,0.74,23.43
		c2.73,2.58,5.18,5.45,8.11,8.57c-1.89,2.06-3.49,3.79-6.09,6.62c4.03,3.76,8.81,6.73,11.45,11.02c4.36,7.09-2.93,33.05-10.2,39.19
		c-12.7,10.73-26.87,17.8-43.95,18.29C187.24,446.11,182.12,448.71,184.73,457.11z M314.73,538.18c1,1.48,2,2.96,2.99,4.43
		c16.51-10.81,34.3-20.16,48.98-33.05c7.15-6.28,10.53-18.87,12.03-29.13c2.78-18.98,2.8-38.35,4.23-57.54
		c0.82-11.03,2.12-22.02,3.21-33.03c-1.84-0.18-3.67-0.36-5.51-0.54c-3.17,29.87-6.14,59.76-9.66,89.58
		c-0.76,6.4-1.6,14.68-5.73,18.44c-12.76,11.6-27.18,21.37-40.84,32C320.98,532.01,317.95,535.22,314.73,538.18z M438.33,392.75
		c0-5.89,1.81-12.55-0.31-17.54c-10.45-24.58-20.68-49.69-40.23-68.72c-16.15-15.72-33.67-30.09-55.31-27.12
		c9.23,5.36,22.41,10.18,31.83,19.01C402.43,324.72,423.35,356.42,438.33,392.75z M289.26,278.31
		c-41-8.21-107.47,32.38-110.31,67.53C206.76,308.33,243.98,289.38,289.26,278.31z M352.95,375.25
		c24.03-21.08,34.25-45.81,25.79-62.05c-6.49-12.48-15.25-18.27-24.84-16.43c22.94,15,26.53,33.19,9.9,49.91
		c-3.99,4.01-7.45,8.6-11.73,12.24C344.79,365.09,346.71,370.09,352.95,375.25z M240.61,534.43c-4.54-3.9-8.86-8.11-13.66-11.66
		c-26.53-19.63-48.9-42.15-56.15-76.13c-0.82-3.85-5.09-6.96-9.34-12.48C166.29,475.12,201.35,519.75,240.61,534.43z M439.22,434.05
		c-1.41-0.35-2.83-0.7-4.24-1.06c-2.82,11.59-5.63,23.18-8.45,34.77c1.11,0.3,2.23,0.59,3.34,0.89
		C432.99,457.12,436.1,445.59,439.22,434.05z"/>
	<path class="st4" d="M196.25,230.95c6.25,0.6,11.23,4.38,11.31,12.61c0.1,10.16-8.76,21.53-16.35,19.32
		c-5.21-1.52-11.76-7.46-12.75-12.42C176.64,241.37,186.85,230.92,196.25,230.95z"/>
	<path class="st5" d="M330.73,451.6c-2.83,1.6-5.65,3.21-8.48,4.8c0.67-2.25,1.35-4.48,2.03-6.72c-0.71-0.1-1.42-0.19-2.14-0.29
		c-0.13,2.33-0.27,4.65-0.4,6.98c-1.04,4.74-2.7,7.46-7.48,2.83c-0.35-0.34-2.98,1.69-4.55,2.61c0.01,0,0.22-0.19,0.22-0.19
		c-1.48-0.03-2.95-0.07-4.43-0.1c-1.35-2.23-2.7-4.45-4.06-6.68c6.02-7.07,12.04-14.15,18.05-21.22c-0.58-0.84-1.17-1.69-1.75-2.53
		c-8.82,5.21-17.63,10.42-26.45,15.62c-8.74,5.15-24.06,4.61-30.57-2.26c-4.6-4.86-5.15-11.31,1.38-15.7
		c9.1-6.12,18.54-11.72,27.24-17.16c0.4-3.58,0.1-7.03,1.21-9.94c6.48-16.88,3.52-30.47-9.87-43.26
		c-14.51-13.86-14.76-25.54-0.03-33.88c2.77-1.57,8.98-0.91,11.31,1.23c13.6,12.47,26.62,25.59,39.62,38.7
		c8.17,8.23,6.18,15.76-4.84,20.77c-7.14,3.25-14.1,6.92-21.14,10.4c0.96-2.6,1.15-6.34,3.02-7.61c6.76-4.58,14.08-8.33,21.59-12.62
		c-15.01-15.03-29.73-29.76-45.39-45.43c-3.51,3.23-6.44,5.93-9.9,9.12c14.56,16.17,28.47,30.97,22.13,52.72
		c3.08,1.42,5.78,2.66,8.47,3.91c-0.23,1.27-0.45,2.53-0.68,3.8c-0.59,0.74-1.18,1.48-1.78,2.22c1.13-0.18,2.27-0.36,3.4-0.55
		c6.38-2.31,12.75-4.66,19.14-6.93c6.92-2.45,13.17-2.99,17.84,4.53c4.46,7.18,6.49,13.74-2.25,19.3
		c9.81,6.37,10.47,10.43,2.12,15.79c-6.56,4.21-12.44,8.09-11.94,16.88c-0.31-0.44-0.65-0.83-0.99-1.23
		C330.51,450.21,330.62,450.9,330.73,451.6z M265.73,439.12c0.3,1.17,0.59,2.34,0.89,3.52c5.51,1.03,12.41,4.7,16.28,2.65
		c18.3-9.67,35.86-20.77,53.42-31.78c1.74-1.09,3.11-5.98,2.14-7.45c-1.55-2.36-5.2-4.56-7.97-4.56c-3.07,0-6.27,2.32-9.18,4.02
		c-15.98,9.33-31.9,18.76-47.8,28.23C270.81,435.36,268.32,437.32,265.73,439.12z M334.35,421.79c-0.65,1.11-1.35,1.8-1.21,2.18
		c0.19,0.51,1.03,0.77,1.59,1.14C334.62,424.18,334.51,423.26,334.35,421.79z M297.97,404.14c-0.29,0-0.58,0-0.86,0
		c0,1.13,0,2.27,0,3.4c0.29,0,0.58,0,0.86,0C297.97,406.41,297.97,405.28,297.97,404.14z"/>
	<path class="st5" d="M188.89,457.13c5.33,6.97,10.66,13.95,17.03,22.29c7.93-24.02,24.74-32.69,39.63-22.22
		c7.92,5.57,15.11,12.3,22.04,19.1c12.68,12.42,25.2,25.04,37.23,38.1c4.16,4.52,10.51,10.06,1.53,16.78
		c-1.32,0.99-0.18,5.25-0.18,7.99c-1.16,0.06-2.32,0.12-3.47,0.18c-0.42-5.45-0.84-10.89-1.36-17.69
		c-17.01-15.98-34.81-34.1-54.34-50.11c-5.53-4.53-16.32-4.5-24.35-3.55c-7.13,0.84-8.78,10.47-3.72,16.14
		c7.31,8.19,15.88,13.86,27.61,13.27c6.61-0.33,17.66,9.17,16.75,14.75c-1.53,9.41-9.63,11.3-16.54,9.2
		c-8.24-2.51-17.02-6.58-23-12.54c-11.67-11.64-21.78-24.89-32.05-37.86c-3.14-3.96-4.69-9.19-6.96-13.83
		C186.11,457.12,187.5,457.12,188.89,457.13z M229.52,502.4c12.24,12.92,14.24,13.61,26.67,10.02
		C252.04,495.86,237.97,506.37,229.52,502.4z"/>
	<path class="st6" d="M188.89,457.13c-1.39,0-2.77-0.01-4.16-0.01c-2.6-8.4,2.51-11.01,9.23-11.2c17.07-0.49,31.24-7.57,43.95-18.29
		c7.27-6.14,14.57-32.1,10.2-39.19c-2.64-4.29-7.42-7.26-11.45-11.02c2.6-2.82,4.2-4.56,6.09-6.62c-2.94-3.12-5.39-5.99-8.11-8.57
		c-9.4-8.89-9.73-14.19-0.74-23.43c2.86-2.94,6.67-4.94,9.77-7.68c11.77-10.44,23.43-21,35.11-31.55c3.32-3,6.15-6.79,9.91-9.03
		c8.14-4.86,11.71-2.75,12.44,6.56c0.34,4.41,0.59,8.82-1.11,14.08c-1.56-4.54-3.12-9.09-4.99-14.55
		c-20.7,18.49-41.1,36.72-59.71,53.34c7.93,10.37,16.54,17.76,20.11,27.07c8.93,23.3,1.18,43.84-19.33,58.32
		c-11.53,8.14-23.27,15.45-38.17,15.93C194.84,451.37,191.89,455.08,188.89,457.13z"/>
	<path class="st7" d="M314.73,538.18c3.22-2.96,6.25-6.17,9.69-8.84c13.66-10.62,28.08-20.39,40.84-32
		c4.13-3.76,4.98-12.04,5.73-18.44c3.53-29.82,6.49-59.72,9.66-89.58c1.84,0.18,3.67,0.36,5.51,0.54c-1.09,11.01-2.39,22-3.21,33.03
		c-1.42,19.19-1.44,38.56-4.23,57.54c-1.5,10.26-4.88,22.85-12.03,29.13c-14.68,12.89-32.47,22.24-48.98,33.05
		C316.73,541.13,315.73,539.66,314.73,538.18z"/>
	<path class="st8" d="M438.33,392.75c-14.99-36.33-35.9-68.03-64.02-94.38c-9.42-8.83-22.6-13.65-31.83-19.01
		c21.63-2.97,39.16,11.4,55.31,27.12c19.55,19.04,29.78,44.15,40.23,68.72C440.15,380.2,438.33,386.86,438.33,392.75z"/>
	<path class="st9" d="M289.26,278.31c-45.28,11.07-82.51,30.02-110.31,67.53C181.79,310.69,248.26,270.1,289.26,278.31z"/>
	<path class="st10" d="M352.95,375.25c-6.24-5.16-8.16-10.16-0.88-16.34c4.29-3.64,7.75-8.23,11.73-12.24
		c16.63-16.72,13.04-34.91-9.9-49.91c9.59-1.84,18.35,3.95,24.84,16.43C387.19,329.44,376.98,354.17,352.95,375.25z"/>
	<path class="st11" d="M240.61,534.43c-39.26-14.68-74.32-59.32-79.16-100.27c4.26,5.51,8.52,8.63,9.34,12.48
		c7.25,33.98,29.62,56.5,56.15,76.13C231.75,526.32,236.07,530.53,240.61,534.43z"/>
	<path class="st5" d="M354.27,465.6c-2.67,9.98-0.58,21.69-9.82,31.07c0-16.33,0-30.63,0-45.47c-4.92,0-8.71,0-12.51,0
		c-0.4-1.12-0.81-2.24-1.21-3.37c4.82-1.84,9.65-3.67,14.47-5.51c1.46,5.17,2.92,10.34,4.39,15.51
		C351.15,460.42,352.71,463.01,354.27,465.6z"/>
	<path class="st12" d="M439.22,434.05c-3.11,11.53-6.23,23.07-9.34,34.6c-1.11-0.3-2.23-0.59-3.34-0.89
		c2.82-11.59,5.63-23.18,8.45-34.77C436.39,433.35,437.81,433.7,439.22,434.05z"/>
	<path class="st13" d="M341.68,315.71c-0.74-2.68-0.78-7.05-2.36-7.71c-3.94-1.64-8.59-1.6-12.95-2.23
		c0.09-1.32,0.19-2.65,0.28-3.97c6.9,1.03,14.85,0.3,20.38,3.62c4.88,2.93,3.06,9.44-2.76,12.76
		C343.41,317.36,342.54,316.54,341.68,315.71z"/>
	<path class="st14" d="M341.68,315.71c0.86,0.82,1.72,1.65,2.58,2.47c-11.72,8.95-22.76,4.6-36.53-2.47
		C320.92,315.71,331.3,315.71,341.68,315.71z"/>
	<path class="st5" d="M320.33,490.25c5.19,7.56,12.17,9.5,21.18,5.04c-9.93,12.22-17.95,10.78-25.03-2.87
		C317.76,491.69,319.04,490.97,320.33,490.25z"/>
	<path class="st2" d="M312.34,468.63c-1.12,2.77-2.24,5.55-3.36,8.32c-1.23-0.71-2.46-1.41-3.68-2.12c1.73-2.17,3.45-4.33,5.18-6.5
		l0.96-0.04L312.34,468.63z"/>
	<path class="st15" d="M354.27,465.6c-1.56-2.59-3.12-5.18-4.68-7.76C359.74,455.25,354.98,461.64,354.27,465.6z"/>
	<path class="st16" d="M301.45,454.83c1.35,2.23,2.7,4.45,4.06,6.68c-1.53-0.02-3.05-0.03-4.58-0.05c-0.69-0.69-1.38-1.37-2.06-2.06
		C299.72,457.88,300.58,456.36,301.45,454.83z"/>
	<path class="st5" d="M314.61,484.23c1.9,2,3.81,4.01,5.71,6.01c-1.28,0.72-2.56,1.45-3.85,2.17c-1.3-2.62-2.59-5.24-3.89-7.87
		l1.05,0.06L314.61,484.23z"/>
	<path class="st2" d="M314.61,484.23l-0.98,0.38l-1.05-0.06c-1.25-0.61-2.51-1.22-3.76-1.83c0.55-0.79,1.11-1.59,1.66-2.38
		C311.86,481.64,313.24,482.93,314.61,484.23z"/>
	<path class="st15" d="M321.73,456.37c0.13-2.33,0.27-4.65,0.4-6.98c0.71,0.1,1.42,0.19,2.14,0.29c-0.68,2.24-1.36,4.48-2.03,6.72
		C322.25,456.41,321.73,456.37,321.73,456.37z"/>
	<path class="st5" d="M310.82,466.18c-0.29-1.53-0.58-3.05-0.88-4.57c-0.01,0.01-0.22,0.19-0.23,0.19
		c-0.37,3.36,10.21-4.46,4.47,4.39C313.06,466.19,311.94,466.19,310.82,466.18z"/>
	<path class="st15" d="M310.82,466.18c1.12,0,2.24,0.01,3.36,0.01c-0.61,0.81-1.22,1.62-1.84,2.43c0,0-0.9-0.33-0.9-0.33l-0.96,0.04
		C310.26,467.57,310.37,466.85,310.82,466.18z"/>
	<path class="st15" d="M330.73,451.6c-0.11-0.7-0.22-1.39-0.32-2.09c0.34,0.4,0.67,0.79,0.99,1.23
		C331.37,450.78,330.73,451.6,330.73,451.6z"/>
	<path class="st5" d="M298.86,459.4c0.69,0.69,1.38,1.37,2.06,2.06C300.23,460.78,299.55,460.09,298.86,459.4z"/>
	<path class="st17" d="M305.53,395.7c-2.7-1.24-5.39-2.49-8.47-3.91c6.34-21.75-7.56-36.55-22.13-52.72
		c3.46-3.19,6.39-5.89,9.9-9.12c15.66,15.67,30.38,30.4,45.39,45.43c-7.51,4.29-14.83,8.04-21.59,12.62c-1.87,1.27-2.06,5-3.02,7.61
		C305.61,395.62,305.53,395.7,305.53,395.7z"/>
	<path class="st18" d="M265.73,439.12c2.59-1.8,5.08-3.76,7.78-5.37c15.9-9.47,31.82-18.89,47.8-28.23c2.91-1.7,6.12-4.02,9.18-4.02
		c2.76,0,6.42,2.2,7.97,4.56c0.97,1.48-0.4,6.36-2.14,7.45c-17.56,11.01-35.12,22.11-53.42,31.78c-3.88,2.05-10.78-1.62-16.28-2.65
		C266.32,441.47,266.02,440.3,265.73,439.12z"/>
	<path class="st16" d="M334.35,421.79c0.17,1.47,0.27,2.4,0.38,3.33c-0.56-0.37-1.4-0.64-1.59-1.14
		C332.99,423.59,333.69,422.9,334.35,421.79z"/>
	<ellipse class="st9" cx="297.53" cy="405.84" rx="0.61" ry="2.4"/>
	<path class="st3" d="M306.48,401.17c-1.13,0.18-2.27,0.36-3.4,0.55c0.59-0.74,1.18-1.48,1.78-2.22
		C305.39,400.06,305.93,400.62,306.48,401.17z"/>
	<path class="st19" d="M229.52,502.4c8.45,3.98,22.52-6.53,26.67,10.02C243.77,516,241.76,515.32,229.52,502.4z"/>
</g>
</svg>
