<?xml version="1.0" encoding="utf-8"?>
<!-- Generator: Adobe Illustrator 24.3.0, SVG Export Plug-In . SVG Version: 6.00 Build 0)  -->
<svg version="1.1" id="Layer_1" xmlns="http://www.w3.org/2000/svg" xmlns:xlink="http://www.w3.org/1999/xlink" x="0px" y="0px"
	 viewBox="0 0 612 792" style="enable-background:new 0 0 612 792;" xml:space="preserve">
<style type="text/css">
	.st0{fill:#FFFFFF;}
</style>
<g>
	<path class="st0" d="M606,697.47c-200.31,0-400.61,0-601,0C5,496.43,5,295.38,5,94.18c200.28,0,400.64,0,601,0
		C606,295.26,606,496.36,606,697.47z M553.26,246.81c-1.91,1.33-2.29,1.49-2.51,1.77c-0.33,0.44-0.75,0.95-0.78,1.45
		c-1.19,16.67-9.53,29.13-22.02,39.74c-3.38,2.87-5.04,8.27-6.45,12.83c-1.56,5.02-1.93,10.4-2.82,15.63
		c-3.8-16.34-4.82-32.73-0.8-49.01c1.34-5.41,3.2-12.74,7.18-14.96c5.55-3.11,3.32-6.17,2.42-9.01
		c-4.75-14.98-11.1-29.55-14.64-44.78c-3.38-14.55-3.39-29.88,5.95-42.89c4.27-5.95,10.35-10.6,16.03-16.27
		c-1.73-0.35-3.66-1.2-5.5-1.05c-27.03,2.2-44.6,20.23-62.99,38.3c1.6-11.01,8.58-18.35,13.65-26.67c0.79-1.3,1.03-2.93,1.53-4.41
		c-1.4-0.06-2.87-0.43-4.19-0.12c-12.15,2.85-22.01,9.53-29.78,19.07c-7.67,9.42-14.8,19.27-22.49,29.34
		c-10.07-6.19-20.76-1.88-31.9,0.79c1.11-2.45,1.79-3.94,2.67-5.9c-6.05-2.51-10.9-0.3-15.94,2.04c-3.28,1.53-6.97,3.07-10.48,3.08
		c-77.85,0.17-155.69,0.13-233.54,0.13c-2.2,0-4.4,0-6.9,0c-0.53,9.53-1.35,18.22-1.43,26.93c-0.25,28.61-0.21,57.23-0.35,85.84
		c-0.02,3.74-0.56,7.48-0.67,11.23c-0.08,2.87,1.45,6.08-2.75,7.66c-0.66,0.25-1.16,3.69-0.47,4.37c6.23,6.17,2.32,13.44,3.35,20.29
		c-2.07,0.24-3.49,0.14-4.69,0.59c-5.81,2.17-11.69,4.21-17.22,6.95c-1.31,0.65-1.35,3.83-1.98,5.85c2.18,0.35,4.72,1.6,6.48,0.89
		c7.58-3.06,17.95,3.29,17.97,11.42c0.01,5.34,0.36,10.75-0.34,16c-0.46,3.51-2.01,7.13-3.93,10.15c-2.53,3.99-6.27,7.23-8.76,11.24
		c-1.08,1.73-0.33,4.59-0.42,6.94c1.95-0.28,4.08-0.16,5.83-0.92c4.84-2.1,6.3-1.18,6.62,4.21c0.7,11.6,1.27,23.23,2.45,34.79
		c0.89,8.76,2.63,17.43,4,26.15c-0.57,0.2-1.14,0.4-1.71,0.6c-3.02-8.27-6.63-16.38-8.93-24.84c-3.61-13.29-7.4-26.43-15.39-37.86
		c-3.17-4.53-6.94-8.64-10.44-12.95c1.15,0.11,1.83,0.84,2.65,1.09c1.8,0.55,3.67,0.87,5.51,1.29c-0.24-1.85,0.03-3.98-0.81-5.5
		c-2.11-3.82-5.11-7.18-7.04-11.08c-3.21-6.46-8.22-10.1-15.03-12.05c-11.97-3.42-20.59-11.08-26.6-21.88
		c-0.71-1.27-2.08-2.18-4.11-4.22c-3.35,26.34,7.98,46.21,22.13,65.88c-15.1-0.37-26.73-5.63-36.02-16.17
		c-1.28-1.46-3.01-2.52-4.54-3.77c0.5,17.15,6.73,31.32,17.15,43.6c8.13,9.59,18.83,17.24,21.59,30.75
		c0.75,0.02,1.49,0.03,2.24,0.05c1.49-5.13,2.98-10.26,4.45-15.31c6.06,2.91,11.03,7.28,13.64,14c1.85,4.78,3.53,9.64,5.65,14.31
		c5.34,11.74,10.12,23.83,16.56,34.94c6.09,10.49,15.56,18.79,28.19,19.08c11.36,0.27,17.65,4.84,22.53,14.57
		c4.71,9.39,13.42,16.8,13.51,28.45c0.01,1.25,0.54,3.36,1.28,3.59c4.18,1.26,2.68,4.81,3.5,7.46c1.31,4.23,1.74,9.24,8.51,10.45
		c-1.33,1.67-2.1,3.44-3.44,4.2c-4.74,2.69-5.3,6.72-3.95,11.3c1.22,4.13,3.71,6.57,8.5,5.03c0.55-0.18,1.35,0.41,2.02,0.67
		c6.45,2.52,12.18,1.3,16.08-2.71c3.7-0.48,6.34-1.06,8.99-1.11c2.8-0.05,7.41-0.53,8.1,0.8c2.61,5.03,5.94,6.38,11.19,5.29
		c1.38-0.29,3.17,0.89,4.65,1.62c18.73,9.36,37.41,18.83,56.21,28.05c1.76,0.86,4.59,0.98,6.35,0.17
		c38.06-17.4,73.56-38.69,102.6-69.39c3.37-3.56,6.76-4.14,11.08-3.86c3.89,0.25,7.8,0.05,12.13,0.05c5.2,7.06,7.68,7.39,11.03,0.96
		c4.99,1.92,4.88,1.73,14.38-3.56c3.96-2.21,6.18-4.15,4.81-9.28c-1.26-4.72,2.76-8.88,7.39-10.23c5.3-1.55,10.41-3.8,15.49-6.02
		c0.99-0.43,1.72-2.05,2.06-3.27c1.83-6.38-2.82-14.47-9.47-15.24c-3.91-0.45-8.04,1.05-13.05,1.82c1.42-6,2.64-12.67,4.61-19.11
		c2.72-8.85,4.46-17.53,1.63-26.75c-3.24-10.55-2.35-20.84,1.92-31.18c2.46-5.96,6.01-7.91,12.1-8.05
		c8.33-0.2,16.73-0.72,24.92-2.14c19.65-3.41,36.53-20.01,39.43-40.55c2.46-17.49-2.12-34.01-5.49-50.7
		c-2.69-13.35-7.01-26.53,1.58-39.28c4.11,4.53,6.93,11.08,13.08,11.97c0-8.12-1.05-15.57,0.21-22.6
		c2.92-16.19,5.94-32.33,2.4-48.68C559.07,261.8,555.93,254.71,553.26,246.81z"/>
	<path d="M553.26,246.81c2.67,7.9,5.81,14.99,7.41,22.42c3.54,16.35,0.52,32.49-2.4,48.68c-1.27,7.03-0.21,14.48-0.21,22.6
		c-6.16-0.89-8.97-7.44-13.08-11.97c-8.59,12.75-4.28,25.93-1.58,39.28c3.37,16.69,7.95,33.21,5.49,50.7
		c-2.9,20.54-19.78,37.15-39.43,40.55c-8.19,1.42-16.6,1.94-24.92,2.14c-6.09,0.14-9.64,2.1-12.1,8.05
		c-4.27,10.35-5.16,20.64-1.92,31.18c2.83,9.23,1.09,17.9-1.63,26.75c-1.98,6.44-3.19,13.11-4.61,19.11
		c5.02-0.77,9.15-2.27,13.05-1.82c6.65,0.77,11.3,8.86,9.47,15.24c-0.35,1.21-1.07,2.83-2.06,3.27c-5.07,2.22-10.19,4.47-15.49,6.02
		c-4.63,1.35-8.66,5.51-7.39,10.23c1.37,5.14-0.84,7.08-4.81,9.28c-9.5,5.29-9.39,5.48-14.38,3.56c-3.35,6.43-5.84,6.09-11.03-0.96
		c-4.33,0-8.24,0.2-12.13-0.05c-4.32-0.28-7.71,0.3-11.08,3.86c-29.04,30.7-64.54,51.99-102.6,69.39c-1.76,0.8-4.59,0.69-6.35-0.17
		c-18.8-9.22-37.48-18.69-56.21-28.05c-1.48-0.74-3.26-1.91-4.65-1.62c-5.25,1.09-8.58-0.26-11.19-5.29c-0.69-1.33-5.3-0.85-8.1-0.8
		c-2.65,0.05-5.29,0.63-8.99,1.11c-3.9,4.01-9.63,5.24-16.08,2.71c-0.67-0.26-1.47-0.85-2.02-0.67c-4.79,1.54-7.28-0.9-8.5-5.03
		c-1.35-4.58-0.79-8.61,3.95-11.3c1.34-0.76,2.11-2.53,3.44-4.2c-6.77-1.21-7.2-6.22-8.51-10.45c-0.82-2.65,0.68-6.2-3.5-7.46
		c-0.74-0.22-1.27-2.34-1.28-3.59c-0.09-11.64-8.81-19.05-13.51-28.45c-4.88-9.73-11.17-14.3-22.53-14.57
		c-12.63-0.3-22.1-8.59-28.19-19.08c-6.45-11.11-11.23-23.2-16.56-34.94c-2.12-4.66-3.8-9.52-5.65-14.31
		c-2.6-6.72-7.58-11.1-13.64-14c-1.47,5.05-2.96,10.18-4.45,15.31c-0.75-0.02-1.49-0.03-2.24-0.05
		c-2.76-13.52-13.46-21.17-21.59-30.75c-10.42-12.28-16.65-26.45-17.15-43.6c1.52,1.25,3.25,2.31,4.54,3.77
		c9.29,10.54,20.92,15.8,36.02,16.17c-14.15-19.67-25.48-39.54-22.13-65.88c2.03,2.05,3.4,2.95,4.11,4.22
		c6.01,10.8,14.64,18.46,26.6,21.88c6.81,1.95,11.82,5.58,15.03,12.05c1.93,3.9,4.93,7.25,7.04,11.08c0.84,1.52,0.57,3.65,0.81,5.5
		c-1.84-0.41-3.71-0.73-5.51-1.29c-0.82-0.25-1.5-0.98-2.65-1.09c3.5,4.3,7.27,8.41,10.44,12.95c7.99,11.42,11.77,24.57,15.39,37.86
		c2.3,8.47,5.91,16.58,8.93,24.84c0.57-0.2,1.14-0.4,1.71-0.6c-1.36-8.71-3.1-17.39-4-26.15c-1.18-11.56-1.75-23.18-2.45-34.79
		c-0.32-5.39-1.78-6.3-6.62-4.21c-1.75,0.76-3.87,0.64-5.83,0.92c0.08-2.35-0.66-5.21,0.42-6.94c2.49-4.01,6.22-7.25,8.76-11.24
		c1.92-3.02,3.46-6.64,3.93-10.15c0.69-5.26,0.34-10.66,0.34-16c-0.01-8.13-10.39-14.48-17.97-11.42c-1.75,0.71-4.3-0.54-6.48-0.89
		c0.63-2.02,0.67-5.21,1.98-5.85c5.53-2.74,11.42-4.78,17.22-6.95c1.21-0.45,2.62-0.35,4.69-0.59c-1.02-6.85,2.88-14.13-3.35-20.29
		c-0.69-0.69-0.2-4.12,0.47-4.37c4.2-1.58,2.68-4.79,2.75-7.66c0.1-3.75,0.65-7.48,0.67-11.23c0.14-28.61,0.1-57.23,0.35-85.84
		c0.08-8.7,0.9-17.4,1.43-26.93c2.5,0,4.7,0,6.9,0c77.85,0,155.69,0.04,233.54-0.13c3.51-0.01,7.2-1.56,10.48-3.08
		c5.04-2.35,9.89-4.56,15.94-2.04c-0.89,1.95-1.56,3.44-2.67,5.9c11.14-2.68,21.83-6.98,31.9-0.79
		c7.68-10.07,14.82-19.93,22.49-29.34c7.77-9.54,17.63-16.23,29.78-19.07c1.31-0.31,2.79,0.06,4.19,0.12
		c-0.5,1.48-0.74,3.11-1.53,4.41c-5.07,8.33-12.06,15.66-13.65,26.67c18.39-18.07,35.96-36.1,62.99-38.3
		c1.84-0.15,3.77,0.7,5.5,1.05c-5.69,5.67-11.76,10.32-16.03,16.27c-9.35,13.01-9.33,28.34-5.95,42.89
		c3.54,15.23,9.89,29.8,14.64,44.78c0.9,2.84,3.13,5.9-2.42,9.01c-3.98,2.23-5.84,9.55-7.18,14.96c-4.02,16.28-3,32.67,0.8,49.01
		c0.89-5.22,1.26-10.61,2.82-15.63c1.42-4.56,3.07-9.95,6.45-12.83c12.48-10.61,20.82-23.07,22.02-39.74
		c0.04-0.5,0.45-1.01,0.78-1.45C550.97,248.3,551.35,248.14,553.26,246.81z M228.42,324.1c-7.25,0.51-14.49,1.02-21.74,1.53
		c-0.16-0.18-0.31-0.37-0.47-0.55c1.06-2.37,1.88-4.29-2.32-3.8c-2.41,0.28-5.56,0.26-7.32-1.04c-4.23-3.12-7.83-7.09-11.74-10.77
		c-3.11,2.76-4.85,2.12-6.27-2.89c0.74,1.02,1.48,2.04,2.48,3.4c1.2-2.06,1.94-3.32,3.18-5.44c2.28,2.81,4.09,5.04,6.01,7.41
		c1.9-1.71,3.98-3.58,6.57-5.92c-3.22,0-5.8,0-9.17,0c3.83-1.62,6.56-3.78,9.24-3.72c7.63,0.18,15.23,1.26,23.42,2.04
		c-1.41,1.66-2.17,2.57-2.93,3.47c2.27-0.27,4.31-1.31,4.71-2.8c0.3-1.11-1.2-3.49-2.46-4.06c-2.35-1.06-5.1-1.36-7.71-1.73
		c-4.16-0.59-8.35-0.99-12.52-1.46c1.35-0.41,3.65-0.51,3.91-1.28c2.02-6.04,6.09-2.65,9.6-2.54c4.39,0.14,8.81-0.14,13.19-0.57
		c0.75-0.07,1.34-1.81,2-2.77c-0.99-0.21-2-0.36-2.96-0.65c-2.55-0.79-5.71-0.96-7.48-2.61c-3.68-3.41-6.62-7.62-9.95-11.6
		c-2.79,3.39-4.41,0.99-6-1.92c-1.36-2.49-2.84-4.91-4.73-8.16c-0.64,4.03-1.08,6.77-1.45,9.04c-4.1-1.87-7.49-3.41-12.22-5.56
		c1.43,2.82,2,3.95,2.59,5.13c-9.24,1.94-16.37,10.96-27.26,7.15c6.11,3.08,12.3,4.84,18.43,6.77c0.62,0.2,0.91,1.43,1.36,2.18
		c-9.9,0-19.81,0-29.71,0c-0.16,0.59-0.31,1.17-0.47,1.76c6.72,1.97,13.45,3.95,20.15,5.92c-4.13,0.86-8.62,1.8-14.75,3.08
		c5.74,0.9,10.04,1.57,14.1,2.21c-0.23,0.28-0.9,1.11-1.77,2.18c1.71,0.49,3.12,0.89,5.12,1.46c-0.61-2.77-1.99-5.3-1.25-6.42
		c2.44-3.67,5.66-6.83,8.58-10.19c1.8-0.6,3.59-1.21,6.74-2.27c-3.37,2.43-5.36,3.86-7.34,5.29c0,0.37,0,0.75,0,1.12
		c-1.33,1.25-2.66,2.51-4,3.76c1.54,0.7,3.03,1.71,4.65,2.01c1.87,0.35,3.85,0.08,5.78,0.08c0.01,0.16,0.02,0.32,0.03,0.48
		c-2.42,0.53-4.84,1.06-7.14,1.56c0.64,1.76,1.11,3.04,1.58,4.32c-1.92-1.76-3.84-3.52-5.6-5.14c-0.29,3.13-0.53,5.79-0.73,8.03
		c-4.18-1.27-7.5-2.27-11.59-3.51c1.76,3.5,2.98,5.92,4.19,8.34c-0.54,0.17-1.08,0.34-1.62,0.5c-0.29-1.14-0.58-2.28-1.1-4.37
		c-8.43,3.5-14.95,12.3-25.71,8.69c0.03,0.62,0.07,1.23,0.1,1.85c6.52,1.83,13.04,3.66,19.55,5.49c-8.88,1.72-17.75,3.43-26.63,5.15
		c-0.13,0.25-0.26,0.51-0.4,0.76c5.46,1.3,10.91,2.6,17.79,4.24c-4.53,1.27-7.96,2.23-11.38,3.18c1.91,1.01,3.87,1.26,5.85,1.34
		c2.14,0.09,4.28,0.02,7.55,0.02c-9.75,3.9-10.42,5.21-7.71,13.54c2.5-0.15,6.1-1.45,7.42-0.25c5.99,5.47,12.96,7.62,22.76,8.6
		c-3.07-5.72-5.5-10.23-7.99-14.87c2.08,0.83,4.22,1.69,6.03,2.41c2.67-3.52,5.04-6.63,7.54-9.92c-3.05,0.1-6.51,4.29-8.76-1.12
		c3.07,0.26,7.09,2.27,6.73-2.82c8.08,0,16.26,0,25.26,0c-1.41,1.91-1.96,2.66-2.5,3.4c0.44,0.34,0.89,0.69,1.33,1.03
		c1.2-1.58,3.52-3.31,3.32-4.69c-0.22-1.6-2.65-2.9-4.12-4.33c6.08-0.05,12.16-0.1,18.24-0.15c2.59,6.29,1.44,7.78-7.19,8.07
		c0.83,8.66,1.65,17.27,2.46,25.75c9.66,1.74,18.38,3.32,27.09,4.89c0.31-0.4,0.62-0.8,0.93-1.2c-4.66-4.03-9.32-8.06-13.98-12.09
		c0.21-0.24,0.42-0.48,0.63-0.72c3.54,1.45,7.07,2.91,10.62,4.37c2.13-6.43-1.92-10.7-4.59-15.59c1.91,1.81,3.82,3.63,5.38,5.1
		c3.15-3.64,6.17-7.13,9.08-10.5c-2.18,0.2-4.51,0.42-7.69,0.72c3.09-2.12,5.14-3.53,7.77-5.33c6.89,0.9,15.02,1.95,23.48,3.05
		c-1.19,1.73-1.79,2.59-2.38,3.46c0.58,0.33,1.16,0.65,1.74,0.98c1.07-1.97,2.14-3.95,3.22-5.92c-2.32-1.19-4.53-2.98-6.98-3.43
		c-4.92-0.91-9.97-1.09-14.97-1.57c-0.25-0.72-0.51-1.44-0.76-2.16c4.02-3.62,8.27-3.35,13.38-2.13c4.26,1.02,9.06-0.11,13.6-0.55
		c0.65-0.06,1.16-1.59,1.73-2.44c-1.07-0.31-2.13-0.7-3.22-0.9c-1.03-0.19-2.36,0.18-3.1-0.34c-3.91-2.74-7.69-5.69-11.51-8.57
		c-0.72-2.03-1.45-4.06-2.24-6.26c-3.62,4.44-5.09,1.65-6.63-1.04c-1.47-2.56-2.98-5.09-4.96-8.46c-0.37,3.58-0.17,7.33-0.87,7.51
		c-4.44,1.13-2.52,4.6-3.24,7.07c-0.23,0.78-0.96,1.42-1.46,2.12c-0.42-0.05-0.84-0.1-1.25-0.15c-0.56-1.81-1.12-3.61-1.67-5.42
		c-0.29,0.05-0.58,0.11-0.86,0.16c0,0.8,0,1.6,0,1.99c-3.33-0.39-7.12-2.08-9.31-0.87c-6.59,3.64-13.13,4.76-20.46,3
		c6.78,2.24,12.07,9.8,20.65,6.15c0,0.26,0,1.56,0,2.87C228.78,323.88,228.6,324,228.42,324.1z M349.71,251.06
		c4.85,2.17,7.78,0.61,10.74-3.88c1.77-2.69,5.9-3.84,9.01-5.62c1-0.57,2.13-0.92,3.69-1.57c-4.1-4.53-7.73-3.99-11.1-0.54
		c-2.83,2.9-5.27,6.17-7.88,9.28c-0.9-5.82,3.79-8.57,6.84-12.12c3.42-3.99,7.88-3.77,11.91-1.3c1.57,0.96,2.72,3.61,2.8,5.54
		c0.04,0.93-2.82,2.69-4.46,2.81c-3.98,0.3-7.38,1.14-9.41,4.91c-2.29,4.25-5.42,6.95-10.87,5.19c0.76,2.07,1.32,3.6,2.1,5.73
		c-2.64,0-4.69,0-6.73,0c0.28,0.52,0.55,1.03,0.83,1.55c-4.24,2.24-8.48,4.48-12.63,6.67c1.73,2.52,2.98,8.5,8,2.22
		c7.58-9.47,18-11.24,29.16-10.92c1.08,0.03,2.12,1.45,3.18,2.23c-0.98,1.1-1.77,2.6-3,3.21c-1.62,0.8-3.59,0.9-5.42,1.3
		c0.05,0.23,0.11,0.47,0.16,0.7c3.38,0,6.77,0,10.15,0c3.42,0,6.83,0,10.25,0c0.01,0.8,0.02,1.6,0.04,2.39
		c-4.01,0.21-8.06,0.87-12.03,0.54c-7.61-0.63-20.17,5.87-23.49,12.12c3.98,0.59,8.2,1.54,12.45,1.76c3.87,0.2,7.9,0.09,11.65-0.77
		c2.99-0.68,5.68-2.69,9.08-4.4c-6.75,8.46-15.67,11.01-25.25,7.08c-4.4-1.8-8.5-1.78-10.24,2.56c-2.03,5.04-2.46,10.73-3.83,17.28
		c3.51-2.64,5.49-4.95,7.98-5.83c5.47-1.93,11.19-3.14,15.96-4.42c-2.48,4.34-5.55,6.44-10.73,6.68
		c-9.29,0.42-10.06,1.37-8.65,10.65c0.24,1.6,0.61,3.19,0.86,4.48c4.05-3.05,7.93-5.98,11.81-8.9c0.11,0.22,0.22,0.45,0.33,0.67
		c-2.94,3.06-5.88,6.13-8.81,9.19c0.41,0.47,0.83,0.95,1.24,1.42c1.75-0.95,3.65-1.7,5.23-2.87c4.26-3.17,8.35-6.56,12.57-9.78
		c2.87-2.19,5.9-3.38,9.75-1.26c-4.05,1.91-7.66,3.15-10.74,5.18c-5.21,3.42-10.11,7.32-15.08,11.09c-1.01,0.77-2.27,1.73-2.57,2.83
		c-2.2,8.23-4.18,16.51-6.36,25.28c2.76-2.33,5.22-4.42,7.69-6.51c0.46,0.52,0.93,1.05,1.39,1.57
		c-6.07,5.39-12.15,10.77-18.22,16.16c0.29,0.41,0.58,0.83,0.87,1.24c4.91-2.05,9.81-4.1,14.72-6.15c0.29,0.62,0.59,1.23,0.88,1.85
		c-8.87,4.59-17.75,9.18-26.62,13.77c0.23,0.43,0.46,0.86,0.68,1.29c4.2-0.97,8.4-1.95,12.6-2.92c0.21,0.75,0.42,1.5,0.63,2.25
		c-2.65,0.84-5.31,1.67-7.96,2.52c-5.43,1.72-12.35,0.85-14.78,8.64c4.52-1.37,8.68-2.63,12.84-3.89
		c-6.55,6.67-15.01,8.78-23.58,10.04c-5.6,0.82-11.06-0.18-13.99-6.31c-1.67-3.49-4.66-2.62-7.42-1.53
		c-3.15,1.25-5.45,3.12-4.33,8.05c1.37-4.73,4.24-5.94,7.24-3.98c3.1,2.03,0.99,4.4-0.81,6.57c-0.67,0.81-0.89,2.72-0.38,3.57
		c0.5,0.85,2.2,1.44,3.33,1.38c5.01-0.27,10-0.82,15-1.27c-3.13,4.7-12.64,8.46-18.2,6.74c-4.42-1.36-5.95,0.74-5.52,4.38
		c0.31,2.64,1.96,5.12,3.02,7.67c0.68-0.07,1.36-0.13,2.04-0.2c-2.33-4.15-2.09-6.95,2.95-7.88c0.53,2.35,0.93,4.12,1.32,5.83
		c5.92-0.49,11.29-4.08,13.94-8.6c0.87-1.49,2.54-2.6,4.06-3.55c0.28-0.18,2.36,1.42,2.25,1.9c-0.41,1.86-1.33,3.62-2.14,5.39
		c-0.13,0.28-0.62,0.42-0.97,0.58c-3.15,1.48-3.89,3.81-2.72,7.03c1.38,3.81,4.09,3.81,6.99,3.14c-1.05-1.84-2.01-3.54-2.97-5.23
		c1.6-0.63,3.42-0.96,4.75-1.95c1.52-1.14,3.48-2.74,3.72-4.36c0.87-5.9,2.7-7.14,8.33-6.76c3.41,0.23,6.94-1.34,11.64-2.38
		c2.47,2.01,2.51,1.95,6.19-1.59c0.79-0.76,2.14-0.94,3.23-1.39c0.41,1.14,0.97,2.25,1.18,3.43c0.16,0.93-0.12,1.93-0.23,3.27
		c4.32-2.67,5.54-4.73,3.9-7.98c-0.96-1.91-3.83-4.74-4.92-4.38c-5.3,1.75-12.16-2.11-16.16,4.33c-0.35,0.56-1.61,0.56-2.51,0.84
		c-1.65-11.44,19.59-29.55,40.5-34.95c2.46-14.57,10.47-22.7,18.6-18.22c-3.24,2.34-6.31,4.56-9.98,7.21
		c5.76,2.94,11.04,5.63,17.03,8.69c-0.53-5.01-0.93-8.79-1.33-12.56c0.63-0.31,1.27-0.63,1.9-0.94c0.56,9.27,2.18,17.63,14.25,17.61
		c-0.44-5.8-0.88-11.64-1.38-18.31c1.18,1.73,2.78,3.1,3.07,4.71c0.67,3.7,0.55,7.54,1.07,11.28c0.27,1.92,0.68,4.4,1.97,5.48
		c2.81,2.33,6.24,3.93,9.46,5.85c1.77-4.08,3.5-8.1,5.24-12.12c0.5,0.13,1,0.25,1.5,0.38c-1.71,9.47-7.33,19.16,1.07,28.22
		c2.49-5.94,4.95-11.8,7.41-17.67c0.38,0.11,0.77,0.22,1.15,0.34c-2.59,10.65-5.19,21.29-7.78,31.94c0.56,0.24,1.13,0.48,1.69,0.72
		c4.08-5.03,8.17-10.05,12.25-15.08c0.41,0.26,0.82,0.51,1.23,0.77c-5.07,7.9-10.14,15.81-15.21,23.71
		c6.31-3.4,10.83-9.25,20.08-7.84c-11.28,8.28-22.91,14.76-23.54,29.23c5.39-3.54,10.96-7.19,16.52-10.85
		c0.34,0.49,0.68,0.99,1.01,1.48c-4.64,3.88-9.37,7.66-13.91,11.66c-4.83,4.26-6.97,9.46-4.71,16.4
		c5.41-5.82,10.51-11.33,15.62-16.83c0.38,0.28,0.76,0.55,1.14,0.83c-3.39,4.65-6.17,9.95-10.28,13.82
		c-8.51,8-8.54,17.43-6.58,28.19c2.31-3.36,4.32-6.26,6.29-9.18c2.12-3.13,4.21-6.28,6.31-9.42c-0.18,2.93-1.04,5.57-2.37,7.95
		c-9.61,17.23-11,13.59,2.9,31.56c0.23,0.3,0.49,0.59,0.75,0.86c6.73,7.11,10.15,15.35,9.58,25.33
		c-0.66,11.66-3.05,22.59-11.22,31.49c-6.22,6.77-12.99,7.1-19.96,1.09c-1.58-1.37-3.06-2.9-4.78-4.06
		c-3.18-2.15-6.21-1.51-8.67,1.26c-2.36,2.65-4.61,5.46-2.17,8.84c1.53-1.81,2.74-3.75,4.43-5.06c1.13-0.88,3.35-1.6,4.37-1.05
		c1.15,0.61,2.06,2.7,2.12,4.18c0.25,5.34,1.54,6.2,6.73,3.91c4.29-1.89,7.47-0.62,8.7,3.98c1.02,3.8,0.72,7.63-4.4,8
		c-4,0.28-8.48,0.84-11.99-0.58c-5.03-2.04-8.48-1.11-11.6,2.69c-2.69,3.27-2.31,6.49,1.02,10.98c0-0.63-0.22-1.33,0.04-1.67
		c1.78-2.41,3.5-4.92,5.69-6.9c0.29-0.26,3.41,2.15,4.79,3.69c2.85,3.19,11.54,3.49,12.45-0.03c1.65-6.42,7.81-7.84,11.76-11.66
		c0.99-0.96,3.29-1.05,4.86-0.78c1.5,0.25,2.84,1.49,4.25,2.3c-0.83,1.33-1.37,3.04-2.54,3.91c-2.58,1.92-5.6,3.25-8.22,5.12
		c-3.33,2.38-5.55,5.2-1.64,9.32c2.05-8.31,6.22-10.09,12.54-4.59c2.13-2.28,5.98-4.47,6.15-6.91c0.9-13.01,3.67-16.58,15.79-18.01
		c1.24-0.15,2.42-0.89,3.63-1.36c-0.6-0.06-1.2-0.12-1.8-0.17c-0.31-3.58-0.61-7.16-0.92-10.74c2.59-0.22,5.19-0.44,7.27-0.62
		c-3.54-4.75-8.44-4.39-11.45,1.43c-1.88,3.64-3.86,7.42-6.65,10.32c-1.93,2.01-5.27,3.35-8.08,3.54c-1.55,0.11-4.14-2.53-4.69-4.39
		c-0.39-1.33,1.6-3.68,3.04-5.03c0.44-0.42,2.56,0.93,3.9,1.48c-0.14,0.48-0.28,0.97-0.43,1.45c-1.51,0.28-3.02,0.56-4.53,0.84
		c-0.13,0.53-0.26,1.07-0.39,1.6c1.54,0.45,3.35,1.62,4.58,1.18c2.56-0.91,6.26-0.93,5.65-5.64c-1.71-13.19,0.42-26.01,3.94-38.74
		c0.93-3.37,0.91-7.56-0.23-10.83c-3.66-10.54-4.19-21.19-2.81-31.59c-3.91-2.56-7.53-4.93-11.16-7.3c0.29-0.6,0.58-1.2,0.87-1.81
		c1.81,0.54,3.61,1.08,5.42,1.62c0.2,0.19,0.41,0.36,0.63,0.52c1.68,1.29,3.37,2.58,4.8,3.67c4.68-8.71,8.99-16.72,13.31-24.74
		c0.58,0.25,1.16,0.49,1.75,0.74c-0.31,2.25-0.62,4.5-1.15,8.37c10.09-0.66,19.58-0.52,28.78-2.05
		c17.86-2.96,31.24-17.11,35.51-34.54c4.32-17.61,0.45-34.74-3.29-51.41c-4.25-18.92-3.28-36.42,5.09-53.66
		c0.59-1.22,1.83-2.12,2.77-3.17c0.83,1.32,1.99,2.53,2.43,3.97c0.99,3.22,1.63,6.56,2.42,9.84c0.53-0.11,1.07-0.23,1.6-0.34
		c-1.78-19.08,7.44-38.03,0.21-57.79c-3.35,10.21-10.51,17.08-17.77,23.68c-5.99,5.45-9.16,11.86-9.57,19.51
		c10.46-4.18,16.44-13.01,21.92-24.11c0.3,4.84,0.46,7.5,0.63,10.17c-0.23,0.2-0.46,0.41-0.68,0.61c-0.21-1.02-0.42-2.03-0.71-3.47
		c-2.24,4.59-3.67,7.72-5.28,10.76c-8.82,16.68-16.17,33.75-13.78,53.29c1.23,10,2.96,19.95,4.08,29.96
		c1.21,10.88,1.49,21.69-4.83,31.52c-2.31,3.59-4.06,7.54-6.03,11.25c-8.45-2.58-12.82,7.27-21.65,8.4
		c1.71-2.59,2.72-4.12,4.72-7.15c-6.74,0-12.11,0-17.48,0c2.29-1.85,4.81-2.45,7.13-3.49c1.36-0.61,2.39-1.92,3.58-2.92
		c-1.25-0.7-2.49-1.41-3.76-2.08c-1.02-0.54-2.07-1.03-3.11-1.54c0.86-0.85,1.63-2.27,2.61-2.43c2.69-0.44,5.47-0.35,8.21-0.47
		c0.17-0.55,0.33-1.11,0.5-1.66c-6.04-1.96-12.07-3.91-18.11-5.87c0.11-0.28,0.23-0.56,0.34-0.83c1.13-0.1,2.26-0.2,3.52-0.31
		c-3.86-2.3-7.43-4.42-10.99-6.55c0.25-0.42,0.49-0.85,0.74-1.27c4.69,1.81,9.37,3.62,14.84,5.73
		c-5.47-8.99-16.79-10.27-21.53-18.81c5.56,6.32,13.11,2.59,19.97,4.59c-4.64-4.89-8.77-9.25-13.18-13.9
		c2.67-1.62,4.81-2.92,7.33-4.45c-5.25-4.6-6.94-9.85-6.59-16.51c0.21-3.86-2.43-7.88-3.79-11.83c-0.6,0.07-1.19,0.15-1.79,0.22
		c-1.41,4.89-2.78,9.79-4.27,14.65c-0.5,1.63-1.31,3.15-1.98,4.73c-1.26-1.27-2.85-2.36-3.7-3.86c-1.4-2.47-2.07-5.35-3.5-7.8
		c-1.89-3.26-3.7-6.88-6.49-9.2c-2.37-1.97-6.06-2.94-9.21-3.06c-1.28-0.05-2.7,3.32-3.93,4.98c-1.03-5.47,2.32-10.67,7.67-10.4
		c2.98,0.15,6.35,1.44,8.7,3.29c6.74,5.32,8.48,13.27,9.45,22c2.25-7.05,3.74-13.58,6.42-19.58c3.23-7.26,6.55-14.82,11.5-20.89
		c7.43-9.12,17.67-11.77,29.49-7.27c-4.71-24.11-6.28-47.26,9.93-66.4c-5-15.34-10.88-30.04-14.49-45.27
		c-4.43-18.72-4.49-37.52,8.05-54.07c0.11-0.14-0.21-0.61-0.46-1.28c-2.22,1.01-4.45,1.94-6.62,3.01
		c-14.1,6.91-25.26,17.32-35.6,28.97c-14.49,16.33-25.69,34.44-32.6,55.16c-3.14,9.42-6.12,18.89-9.17,28.32
		c1.74,0,5.04-0.86,7.59,0.17c6.6,2.65,8.65,8.86,9.26,15.27c0.54,5.68-3.86,8.82-8.23,10.51c-4.07,1.58-8.81,1.93-13.25,1.94
		c-4.9,0.01-9.85-1.08-10.03,6.79c-0.67-0.36-1.35-0.73-2.02-1.09c0.58-2.74,1.16-5.49,2.13-10.06c-3.14,2.69-5.25,4.49-6.1,5.22
		c-3.13,1.49-5.57,1.89-6.51,3.29c-1.34,1.99-2.79,5.23-2.03,7.02c1.35,3.16,4.39,5.57,6.58,8.41c0.87,1.13,1.33,2.56,1.98,3.85
		c-0.33,0.19-0.65,0.38-0.98,0.57c-2.79-3.09-5.58-6.18-8.46-9.36c-1.04,3.47-1.13,7.88,2.66,9.98c4.94,2.73,10.67,4,16.07,5.9
		c0.55-1.98,1.79-4.1,1.43-5.9c-0.32-1.6-2.42-2.85-3.73-4.26c-0.64,1.54-1.27,3.09-2.58,6.27c-1.01-2.56-2.55-4.9-2.04-5.49
		c1.25-1.47,3.46-3.01,5.24-2.96c3.94,0.11,6.8,5.45,6.01,10.13c-0.82,4.89-5.21,5.9-8.22,4.85c-4.79-1.68-8.79-0.27-13.12,0.63
		c-1.26,0.26-2.62,0.04-5.08,0.04c3.58-1.28,5.96-2.12,8.63-3.08c-10.36-10.99-11-16.78-3.75-29.39c-6.44-7.5-6.15-12.33-0.16-19.57
		c3.13-3.78,6.33-8.37,7.17-13.01c2.49-13.93-1.34-26.48-10.27-37.26c-0.29,0.65-0.58,1.3-0.87,1.94c-3.82-0.2-7.64-0.4-11.46-0.6
		c0.02-0.59,0.05-1.17,0.07-1.76c2.93,0.25,5.87,0.5,8.79,0.75c-0.72-7.91,3.8-11.29,14.14-11.32c-0.64-4.21-1.3-8.51-1.8-11.86
		c2.96-1.41,5.68-2.71,9.58-4.57c-10.02-1.17-17.68,1.08-24.72,5.77c-6.48-2.66-6.48-2.66-3.07-10.09
		c-4.36,1.91-9.66,3.61-11.96,7.23c-2.19,3.44-1.27,8.88-1.69,13.1c5.57-3.4,11.15-6.81,16.73-10.22
		c-6.48,5.97-12.95,11.94-18.17,16.75c-6.79-2.07-11.85-3.61-17.09-5.2c0.39,1.2,0.99,3.01,1.22,3.72
		c-1.61,1.97-3.51,3.29-3.81,4.91c-0.39,2.06,0.51,4.36,0.79,6.19c-1.74,0-3.57,0-4.69,0c0,3.17,0,5.92,0,8.67
		c-0.32-0.06-0.63-0.12-0.95-0.19c-0.8-2.63-1.61-5.25-2.5-8.18c1.61-0.87,3.27-1.76,4.94-2.66c-10.45-2.33-7.1,5.74-7.73,10.6
		c-2.78,0-5.02,0-6.08,0c1.02-1.33,2.33-3.03,3.63-4.72c-4.29-0.03-7.44,0.25-10.2,1.45c-2.72,1.19-5.04,3.32-8.76,5.87
		c6.25-0.18,12.02-1.39,9.92,5.68c4,1.55,7.36,2.85,11.1,4.3c2.2-4.86,6.19-1.81,9.89-0.93c-1.51,0.89-3.02,1.78-4.54,2.65
		c-6.53,4.17-13.06,8.33-19.6,12.5c0.17,0.25,0.34,0.5,0.51,0.75c5.75-3.01,11.51-6.02,17.57-9.18
		C348.51,254.63,349.11,252.85,349.71,251.06z M197.51,431.01c-1.34-2.95-2.69-5.9-3.84-8.42c-2.07,0.69-4.21,1.4-6.35,2.11
		c-0.23-0.7-0.47-1.4-0.7-2.1c1.63-0.8,3.37-1.42,4.85-2.44c1.61-1.11,3.23-2.39,4.37-3.94c1.78-2.41,2.99-5.24,4.74-7.68
		c3.98-5.53,5.82-11.6,4.14-18.23c-1.73-6.84-4.07-13.53-6.15-20.29c0.93,0.63,2.22,1.04,2.72,1.91
		c4.76,8.35,8.51,17.39,18.57,23.34c-3.7,0.83-5.49,1.2-7.26,1.63c-6.07,1.47-6.16,2.27-2.28,7.08c1.24,1.54,1.11,4.19,1.61,6.33
		c-0.43,0.11-0.87,0.22-1.3,0.34c1.37,1.71,2.74,3.43,4.44,5.55c-2.33,1.03-3.98,1.76-5.31,2.34c0.35,1.49,1.27,3.95,0.93,4.14
		c-2.3,1.28-4.86,2.08-7.02,2.91c1.11,1.03,2.56,2.38,4.02,3.73c-3.52,3.3,1.19,5.23,1.34,7.93c0.09,1.68,0.83,3.43,0.54,5.02
		c-1.34,7.4-0.11,9.97,6.75,13.62c2.45,1.31,4.76,2.88,7.58,4.6c-5.71,3.42-13.1,4.03-13.94,11.31c-0.68,5.89,0.02,11.94,0.1,17.41
		c-3.21-1.73-7.6-4.09-10.98-5.91c-5.34,5.06-9.61,9.6-14.38,13.54c-9.06,7.49-19.96,8.1-30.94,6.84
		c-14.62-1.68-26.63-7.96-32.9-22.06c-2.61-5.87-4.51-12.14-5.98-18.4c-2.83-12.06-4.85-24.55-12.41-34.64
		c-5.99-8-13.51-14.85-20.29-22.27c-1.32-1.44-2.34-3.15-4.1-5.57c6.9,1.61,12.21,2.85,19.28,4.5c-4.15-4.43-6.7-8.89-10.54-10.92
		C75.68,388.43,62.4,386,55.3,373.5c1.3,6.03,2.75,11.76,5.24,17c6.36,13.41,13.18,26.6,20.07,40.36c-0.3-6.1-0.59-12.18-0.92-19
		c10.69,10.61,21.2,20.33,22.92,35.7c2.43,21.75,13.08,40.25,23.49,58.79c4.6,8.2,16.62,12.24,24.18,8.81
		c0.26-0.12,0.65,0.03,1.13,0.06c-0.55,0.77-1.04,1.46-2.34,3.27c4.77-0.77,8.6-1.38,12.54-2.02c-7.14,10.41-27.17,11.7-35.72-0.7
		c-6.2-9-10.5-19.3-15.94-28.84c-4.41-7.73-8.16-16.27-14.2-22.53c-7.27-7.54-16.66-13.04-25.09-19.47
		c-1.52-1.16-2.85-2.56-4.85-4.38c6.85,0,12.16,0,17.46,0c0.3-0.43,0.59-0.87,0.89-1.3c-4.59-2.57-8.93-5.88-13.83-7.54
		c-10.71-3.64-23.39-2.71-30.71-14.17c0.25,7.5,3.15,13.8,7.65,19.19c7.89,9.42,16.17,18.51,24.29,27.74
		c-1.18-4.04-2.46-8.43-3.73-12.81c13.61,7.04,24.99,15.22,30.8,29.51c5.5,13.52,12,26.64,18.13,39.9c1.3,2.81,3.42,4.5,6.82,3.58
		c0.17-0.05,0.46,0.34,0.73,0.56c-0.89,0.68-1.72,1.33-2.53,1.95c3.88,6.14,8.55,8.78,15.73,5.61c3.29-1.45,7.18-1.55,10.8-2.26
		c0.09,0.38,0.19,0.76,0.28,1.14c-5.4,1.5-10.81,3-16.47,4.57c10.91,7.78,17.42,7.19,27.43-0.82c4.77-3.81,10.61-6.29,15.96-9.37
		c0.42,0.72,0.84,1.43,1.26,2.15c-7.71,4.66-15.42,9.32-23.13,13.98c0.13,0.56,0.26,1.12,0.39,1.68c6.11-4.86,12.73,3.48,19-2.06
		c4.82-4.26,10.1-8,15.18-11.97c0.29,0.33,0.57,0.67,0.86,1c-3.33,4.34-6.66,8.68-10.09,13.15c3.53,0.78,6.6,1.46,9.6,2.12
		c1.5-2.17,2.89-4.19,4.28-6.2c0.54,0.35,1.07,0.7,1.61,1.05c-5.89,9.62-11.77,19.24-17.66,28.86c0.12,0.37,0.25,0.75,0.37,1.12
		c4.72-2.47,9.44-4.95,13.72-7.19c-2.1,7.27-13.16,11.38-9.58,22.65c6.44-8.84,6.44-8.84,9.8-7.23c-2.85,8-7.62,15.82-2.43,25.16
		c2.73-4.47,5.22-8.54,7.72-12.61c0.41,0.17,0.82,0.33,1.23,0.5c-1.18,5.48-2.35,10.96-3.09,14.4c2.2,4.02,4.79,6.59,4.69,9.04
		c-0.2,4.86-4.59,2.36-7.23,2.66c-4.36,0.5-5.3,1.79-4.27,6.71c6.44-3.6,8.55-2.68,10.12,4.46c2.19-0.37,4.39-0.73,6.55-1.09
		c2.71-8.08,6.22-8.85,12.51-2.32c1.85-2.65,3.7-6.72,7.52-2.2c0.23,0.27,1.16,0.23,1.61,0.01c3.61-1.76,4.59,0.1,5.37,3.31
		c0.43,1.76,2.48,4.7,3.17,4.53c2.14-0.53,4.46-1.92,5.81-3.66c1.49-1.92,2-4.61,3.16-7.55c-2.64-0.29-5.23-0.57-7.83-0.86
		c-3.19-0.36-4.81-1.91-4.31-5.34c0.51-3.53,2.15-4.39,5.56-3.24c1.62,0.54,3.76,0.25,5.46-0.29c4.03-1.28,7.81-2.93,11.86,0.3
		c0.81,0.64,4.08-0.17,4.56-1.13c0.73-1.48,0.24-3.71-0.12-5.54c-0.3-1.51-1.18-2.91-1.8-4.36c2.04-0.59,4.05-1.5,6.12-1.66
		c1.19-0.09,2.47,1.01,3.71,1.58c0.21-0.52,0.41-1.05,0.62-1.57c-3.25-1.19-6.44-2.64-9.79-3.43c-1.21-0.28-2.97,0.8-4.16,1.68
		c-1.6,1.19-2.67,3.57-4.37,4.05c-3.2,0.91-8.97,2.11-9.62,0.94c-2.27-4.08,1.7-6.5,4.68-8.93c1.58-1.29,2.67-3.18,4.36-5.27
		c-3.47-1.02-5.5-1.62-8.75-2.58c2.63-2.09,4.26-3.38,6.06-4.81c-7.86-0.6-8.85,0.65-8.01,8.1c0.23,2.01-0.49,4.69-1.78,6.21
		c-3.36,3.95-11.96,3.34-14.04-1.41c-2.48-5.64-4.13-11.82-5.02-17.93c-2.23-15.35,0.85-30.27,4.8-45.05
		c0.53-2.01-0.16-4.44,0.66-6.25c1.4-3.06,3.55-5.77,6.15-9.82c1.05,8.35-4.31,14.94-3.95,22.55c4.74-4.27,10.4-8.32,12.44-13.73
		c0.97-2.58-4.93-7.75-7.71-11.74c-0.76-1.09-1.4-2.3-2.31-3.26c-1.2-1.27-2.6-2.36-3.9-3.51c0-1.99,0-4.33,0-5.82
		c1.76-0.52,3.27-0.97,3.35-1c1.25,3.06,1.89,6.37,3.74,8.75c3.7,4.77,8.06,9.04,13.14,14.6c3.24-5.88,8.43-11.81,9.37-18.35
		c0.53-3.72-5.89-8.44-9.2-12.69c-0.46-0.6-1.17-1.01-1.59-1.63c-2.02-2.96-3.98-5.97-5.68-8.55c6.43,5.69,13.03,11.53,19.88,17.58
		c2.05-4.5,4.68-9.19,6.24-14.21c0.67-2.15-0.29-5.37-1.57-7.44c-3.82-6.19-8.17-12.06-12.31-18.06c0.41-0.28,0.82-0.57,1.24-0.85
		c4.55,6.02,9.1,12.04,14.03,18.58c2.25-6.71,4.22-12.25,5.97-17.85c2.82-9.04,0.93-14.37-6.64-18.46c-3.1-1.67-6.4-2.97-9.69-4.26
		c-0.36-0.14-1.2,0.95-2.88,2.37c2.87-3.84-5.98-5.56-0.65-8.91c7.22,4.74,14.05,9.23,22.43,14.74c-1.06-7.52-2.59-13.77-2.64-20.04
		c-0.05-5.94-3.16-8.63-7.89-10.21c-3.56-1.19-7.33-1.77-11.05-2.44c-2.55-0.46-5.16-0.59-7.74-0.86
		c10.36-3.45,19.27-0.58,27.62,6.06c-1.14-3.78-2.69-7.15-4.38-10.45c-2.06-4.01-5.18-7.75-6.17-11.99
		c-2.06-8.83-11.74-16.34-20.3-13.52c-2.13,0.7-4.16,1.69-6.29,2.37c-0.96,0.3-2.06,0.17-3.1,0.23c-0.03-0.32-0.07-0.65-0.1-0.97
		c3.04-1.43,6.07-2.87,9.58-4.52c-1.66-0.57-2.69-1.02-3.77-1.27c-6.77-1.53-13.81-5.27-19.43,2.57c-0.61,0.86-2.27,0.96-4.74,1.92
		c3.05-2.78,5.05-4.61,7.52-6.87c-7.06-3.65-13.78-3.67-20.67-2.56c-1.47-0.75-2.93-1.49-4.44-2.26c2.38-0.16,4.76-0.32,7.14-0.48
		c0.22-0.61,0.45-1.23,0.67-1.84c-5.77-2.74-11.5-5.58-17.34-8.17c-3.01-1.33-6.04-2.37-6.7-6.7c3.28,1.03,5.78,1.83,8.29,2.6
		c2.39,0.74,4.8,1.44,7.58,2.28c-2.11-3.91-4.19-7.06-5.58-10.49c-1.61-3.97-4.85-5.35-8-2.58c-2.27,1.99-4.42,4.25-6.14,6.73
		c-3.61,5.19-2.79,13.06,1.01,17.92c4.19,5.37,10.95,4.14,16.4,6.65c-2.2-2.68-4.4-5.35-6.6-8.03c0.29-0.5,0.59-0.99,0.88-1.49
		c2.87,1.25,5.75,2.5,8.62,3.75c-1.86-0.33-3.72-0.67-5.93-1.06c3.73,5.13,9.21,9.36,7.34,17.59c-7.97-4.63-15.47-8.64-22.61-13.21
		c-13.35-8.55-27.92-13.17-43.66-13.31c-6.82-0.06-13.65,1.73-20.48,2.67c0.09,0.47,0.17,0.94,0.26,1.41c2.21,0,4.56-0.5,6.59,0.09
		c9.25,2.67,16.82,8.16,20.01,17.24c2.93,8.33,1.73,16.71-5.35,23.4c-4.43,4.19-8.49,8.76-12.65,13.23
		c-0.86,0.92-1.41,2.12-2.1,3.19c4-4.16,8.38-4.59,12.8-1.91c6.21,3.78,11.24,8.85,11.2,16.75c-0.03,5.84-0.82,11.68-1.4,17.51
		c-0.33,3.35-0.92,6.67-1.4,10.01c5.41-3.61,9.96-7.91,15.81-5.47c7.35,3.07,14.23,7.5,16.84,15.83c1.68,5.35,2.84,10.86,4.46,17.22
		c9.18-10.16,18.92-16.22,32.01-6.76c-0.67-9.93,1.8-17.52,7.72-21.23c-3.02-3.17-6.22-6.53-10.01-10.51
		c-1.59,3.22-3.77,7.64-5.7,11.55c-2.09-3.74-1.43-7.56,3.01-10.91c3.89-2.93,6.34-7.05,4.88-11.94c-0.68-2.26-3.13-4.97-5.27-5.51
		c-1.75-0.44-4.36,1.87-6.33,3.32c-0.78,0.57-0.87,2.09-1.48,3.72c-1.66-5.21,1.07-7.79,4.19-10.19c2.11-0.4,4.21-0.8,6.95-1.31
		c-2.33-1.74-3.97-2.95-6.77-5.04c4.39-0.97,7.27-1.6,10.92-2.41c-3.31-1.77-5.69-3.04-8.06-4.31c0.28-0.61,0.56-1.23,0.84-1.84
		c2.55,0,5.1,0,8.06,0c-2.1-2.25-3.78-4.04-5.45-5.84C197.19,416.46,196.52,418.69,197.51,431.01z M306.17,506.01
		c-1.26-7.71-0.65-8.54,6.93-9.32c3.02-0.31,6.11-0.25,9.07-0.86c5.98-1.23,9.13-8.51,6.46-13.73c-0.66,2.08-1.4,4.41-2.24,7.05
		c-5.83-4.76-8.84-2.87-10.55,1.27c-1.71-0.67-3.38-1.33-3.46-1.36c-1.69-3.3-3.09-5.3-3.75-7.52c-0.68-2.3-1.31-4.99-0.71-7.17
		c0.49-1.78,2.39-3.62,5.2-1.36c0.69,0.55,3.52-1.57,5.41-2.48c0.37,0.93,1.03,2.6,1.69,4.26c0.61-0.15,1.22-0.3,1.84-0.44
		c-0.83-3.43-0.68-8.85-2.71-9.85c-3.34-1.65-8.1-0.45-12.86-0.45c-1.63-4.77,4.42-14.68-8.94-16.19c2.47-2.61,4.04-4.26,5.78-6.1
		c-6.25,0.92-8.71,5.26-6.12,10.37c1.29,2.54,3.29,4.88,3.91,7.56c0.62,2.67,0.2,5.71-0.37,8.46c-0.19,0.89-2.32,1.36-3.57,2.03
		c-0.36-1.12-0.7-2.25-1.08-3.37c-1.37-4.08-0.56-9.36-6.1-11.16c-1.69-0.55-3.38-1.1-5.07-1.66c0.68-1.95,1.35-3.9,2.03-5.85
		c-2.52,0.5-5.47,1.67-5.97,3.51c-0.55,2.02,0.75,4.89,2,6.93c1.03,1.68,3.22,2.61,4.79,4c8.75,7.78,7.25,17.3-3.75,20.81
		c-4.72,1.5-10.06,1.03-15.74,1.51c-3.65,11.09-14.38,19.88-14.63,32.67c2.74,1.09,4.9,2.37,6.65,4.07
		c2.23,2.16,4.14,4.66,6.95,7.89c-0.74-7.26-0.1-12.96,5.8-18.39c0,6.56,0,11.84,0,18.63c4.32-8.97,12.68-14.04,10.48-24.29
		c0.78,0.11,1.55,0.23,2.33,0.34c1.32,6.4,2.65,12.79,4.02,19.45c4.99-7.82,5.46-16.21,4.31-25.65c3.57,5.11,6.52,9.34,9.34,13.38
		c0.81-2.09,1.8-4.63,2.79-7.17c-0.4,3.53-0.8,7.06-1.24,11.04c-7.52-3.75-8.1-3.51-10.67,3.67c-1.21,3.38-2.25,6.84-7.28,7.35
		c-0.41-2.54-0.79-4.82-1.5-9.18c-4.64,5.25-8.3,9.41-12.2,13.83c-1.31-2.31-2.26-3.98-4-7.05c-0.41,3.78-0.65,5.96-0.9,8.23
		c-9.14-2.59-9.14-2.58-19.19,1.7c-5.25,2.23-10.53,4.41-15.8,6.58c-1.94,0.8-3.9,1.54-6.99,2.76c1.34-2.56,1.96-3.74,2.58-4.92
		c-0.46-0.26-0.92-0.53-1.38-0.79c-1.85,3.15-4.91,6.14-5.35,9.48c-1.86,13.9-3.63,28.01,2.82,41.29c0.79,1.64,4.14,2.04,6.31,3.01
		c0.56-1.87,1.84-3.87,1.55-5.59c-1.24-7.14,4.02-12.71,10.96-10.62c2.86,0.86,6.16,2.91,7.52,5.38c1.28,2.31,0.27,5.89,0.27,8.95
		c6.17-2.67,11.09-0.99,15.52,2.93c3.68,3.25,5.13,7.19,3.6,12.64c-2.31-0.94-4.22-1.72-6.7-2.73c3.28,7.7-2.15,9.63-7.1,12.55
		c9.63,3.37,19.17,6.63,28.96,8.68c6.78,1.42,14.09,2.36,20.85,1.35c7.98-1.2,15.92-4.06,23.32-7.43c7-3.19,15.07-3.98,21.17-9.47
		c1.38-1.24,4.51-0.53,6.57-0.69c1.12-1.79,2.55-4.1,4.22-6.77c2.61,2.99,4.21,4.82,5.82,6.65c0.46-0.3,0.93-0.61,1.39-0.91
		c-0.82-2.55-1.63-5.1-2.45-7.66c0.38-0.22,0.76-0.44,1.14-0.66c2.3,2.59,4.59,5.17,6.89,7.76c0.4-0.36,0.8-0.71,1.2-1.07
		c-1.71-3.03-3.42-6.05-5.12-9.08c0.74-0.61,1.48-1.21,2.22-1.82c1.37,2.66,2.74,5.31,4.22,8.18c3.97-5.07-5.11-8.13,1.04-11.68
		c1.39,1.83,2.73,3.6,4.07,5.36c1.11-1.45,1.47-2.59,1.05-3.17c-2.98-4.17-0.76-6.54,2.38-9.37c5.09-4.58,9.89-9.54,14.36-14.72
		c1.44-1.66,2.21-4.6,2.01-6.84c-0.59-6.69,5.73-15.32,12.34-16.58c1.84-0.35,4.27-1.5,5.04-3c6.02-11.66,11.67-23.52,17.53-35.27
		c1.46-2.93,0.87-4.97-1.11-7.64c-6.1-8.23-12.09-16.61-11.55-27.74c0.28-5.8,0.05-11.63,0.05-17.45c-0.65-0.23-1.31-0.46-1.96-0.69
		c0.8,8.13-4.77,9.93-10.27,12.17c-13.74,5.6-27.31,11.6-41.06,17.2c-2.81,1.14-6.07,1.19-9.85,1.88c-0.49,0.52-1.81,3.03-3.13,3.03
		c-1.63,0-3.26-2.08-5.96-4.03c0.57,3.23,0.84,4.81,1.12,6.39c-0.75,0.59-1.5,1.18-2.25,1.77c-1.11-2.52-2.22-5.03-3.33-7.55
		c-0.59,0.54-1.18,1.08-1.77,1.61c0.94,1.94,1.88,3.88,3.04,6.26c-13.51,5.67-26.89,11.3-39.2,16.47
		C308.29,508.05,307.24,507.02,306.17,506.01z M266.98,307.09c0.71-5.47,1.18-9.14,1.55-11.94c-0.33-3.83-1.51-7.25-0.66-10.05
		c1.38-4.56-0.59-6.15-4.15-7.6c-3.41-1.4-6.7-3.11-9.27-4.32c-2.22,0.23-5.04,1.29-5.84,0.44c-1.44-1.53-2.93-4.89-2.17-6.27
		c2.67-4.84,6.28-9.16,9.46-13.58c-0.42-2.9-0.91-6.26-1.41-9.7c-3.95,0.43-4.56-1.92-3.47-5.62c1.46-4.99,4.95-7.65,9.81-6.4
		c4.19,1.07,7.98,3.71,12.14,5.75c0.08-0.17,0.6-1.3,1.23-2.65c-2.09-0.71-3.82-1.3-5.65-1.93c0.51-4.17,1.91-7.2,6.33-7.83
		c4.23-0.6,8.36,0.49,9.32,4.67c1.9,8.27,4.84,17.12,3.51,25.09c-1.74,10.35,0.43,17.86,7.67,24.6c4.32,4.02,8.36,8.51,13.2,11.8
		c9.34,6.34,19.15,11.98,30.2,18.79c1.65-5.58,3.25-9.19,3.73-12.94c1.33-10.38,4.36-19.59,13.72-25.71
		c2.39-1.56,4.08-4.18,7.03-7.3c-7.51,0.27-12.85,2.07-16.45,6.83c-2.44,3.23-4.51,6.66-9.03,4.7c-2.98-1.29-5.5-3.66-9.07-6.13
		c-1.56,0.69-4.44,2.18-7.46,3.27c-3.21,1.15-6.52,2.09-9.85,2.82c-9.28,2.06-18.61-1.99-20.1-9.44c-0.59-2.95,0.65-7.31,2.69-9.5
		c2.58-2.77,6.55-2.09,9.72,0.74c0.94,0.84,2.62,1.52,3.79,1.32c5.89-1.01,9.94,1.42,12.88,6.43c4.19-2.68,8.26-5.29,12.4-7.93
		c-5.34-0.25-10.52-4.24-15.64,0.09c-0.33,0.28-1.76-0.49-2.51-1.02c-2.26-1.58-4.54-3.16-6.58-5c-0.88-0.8-1.6-2.21-1.67-3.4
		c-0.35-5.35,4.69-13.07,9.8-12.76c7.46,0.45,12.45-3.72,18.23-6.69c-0.2-7.91,0.17-8.15,9.08-4.34c0.42-3.98,0.8-7.48,1.2-11.32
		c-2.57,0-4.66,0-6.75,0c-26.52,0-53.04-0.04-79.55,0.05c-3.77,0.01-6.38-0.5-4.93-6.1c39.02,0,78.2,0,117.45,0
		c0.21-2.49,0.42-4.97,0.66-7.78c-80.24,0.22-160.23-0.24-240.71,0.27c0,5.38,0.03,9.18,0,12.98c-0.3,32.01-0.57,64.01-0.95,96.02
		c-0.08,7.13,1.22,8.27,9.49,6.71c0-17.09,0-34.31,0-51.81c7.5,3.23,6.28,9.24,6.23,14.81c-0.09,9.03,0.29,9.42,9.57,9.47
		c1.52,0.01,3.05-0.22,5.26-0.38c-3.91-2.31-7.19-3.88-9.98-6.07c-1.21-0.95-1.42-3.17-2.09-4.81c1.54-0.4,3.08-1.11,4.61-1.1
		c1.46,0.01,2.91,0.84,4.38,1.22c8.05,2.05,16.48,1.56,21.59-4.84c4.38-5.48,7.95-5.03,12.26-2.93c1.31-2.09,2.74-5.52,3.5-5.38
		c2.28,0.43,4.4,2.13,6.39,3.59c1.32,0.97,2.56,3.56,3.42,3.39c5.83-1.17,6.93,3.04,8.92,6.77c1.47,2.76,3.53,5.27,5.65,7.61
		c0.89,0.98,2.61,1.74,3.94,1.72c8.03-0.16,8.72,0.52,7.99,7.58c4.32,2.61,8.18,4.93,11.5,6.94c0.88-1.05,2.16-3.77,3.39-3.76
		c1.88,0.03,3.91,1.74,5.53,3.14c1.41,1.21,2.8,4.46,3.41,4.27c6.93-2.14,7.53,3.72,9.48,6.97
		C265.45,309.69,266.63,307.68,266.98,307.09z M359.37,439.44c-0.44-1.23-0.62-1.57-0.68-1.92c-0.23-1.44-0.43-2.89-0.64-4.34
		c-0.68,0.11-1.35,0.22-2.03,0.34c0.32,1.55,0.41,3.21,1.04,4.62c0.52,1.16,1.85,1.94,2.53,3.06c0.51,0.85,0.87,2.01,0.75,2.96
		c-0.32,2.51-1.43,5.01-1.33,7.47c0.15,3.61,0.35,7.53,1.85,10.7c2.79,5.88,8.03,4.31,14.21,2.14c-0.8,3.5-1.38,6.04-1.97,8.6
		c4.45-0.08,5.36-3.47,5.29-6.99c-0.08-3.85-0.85-7.78-5.51-8.91c-7.05-1.7-8.48-4.15-6.38-11.91c11.76,3.94,23.51,7.88,35.9,12.03
		c-0.94-17.18,1.25-32.51,16.78-40.14c3.04,2.1,5.85,4.05,9.59,6.64c1.52-11.33,3.77-21.04,0.88-30.9c-2.3-7.84-3.7-8.81-12.6-8.87
		c3.76,4.45,7.28,8.61,10.8,12.77c-0.39,0.49-0.79,0.98-1.18,1.47c-3.62-2.72-7.56-5.11-10.78-8.24
		c-5.03-4.89-11.72-7.16-18.88-4.15c4.22,3.53,7.57,7.04,11.56,9.46c3.72,2.26,8.14,3.36,12.82,5.19c-2.77,0.23-5.5,0.93-8.07,0.57
		c-7.24-1.03-12.07-6.02-16.89-10.98c-4.88-5.01-9.33-4.86-13.6-0.31c3.84,1.12,8.02,2.33,12.19,3.54
		c-0.14,0.46-0.28,0.93-0.42,1.39c-5.47-0.33-12.05-3.91-15.69,2.21c-1.66,2.79,0.24,7.7,0.58,12.35c3.23-2.19,5.26-3.57,7.29-4.95
		c0.38,0.38,0.77,0.77,1.15,1.15c-2.07,2.82-4.15,5.65-6.26,8.53c0.87,1.82,1.73,3.61,2.71,5.64c1.32-1.59,2.34-2.82,3.95-4.76
		c0.09,2.04,0.58,3.37,0.12,4.15c-3.21,5.55-0.84,10.49,1.35,15.51c0.45,1.04,0.79,2.15,0.99,3.27c0.73,3.9-0.92,5.71-4.7,4.31
		c-5.83-2.16-12.02-3.97-17.14-7.33c-9.69-6.35-19.05-13.11-29.74-17.8c-4.58-2.01-9.73-1.33-13.44,2.9
		c-3.18,3.64-5.75,7.63-2.33,12.54c1.21-2.74,2.37-5.36,3.17-7.16c3.29,1.28,5.81,3.22,7.12,2.6c6.06-2.88,10.46-0.41,15.2,3.87
		c-2.39,2.07-4.86,3.86-7.59,4.44c-6.7,1.44-13.67,2.28-18.7,7.43c-1.59,1.63-2.57,4.63-2.44,6.92c0.1,1.73,2.42,3.34,3.26,4.38
		c0.95-3.29,1.69-5.87,2.28-7.93c3.04,0.59,5.05,1.62,6.57,1.13c2.89-0.93,5.51-2.73,8.97-4.56c0.24,6.51-3.35,9.23-6.84,12.12
		c-4.82,3.99-4.9,6.28-0.82,10.85c2.97,3.33,6.45,3.98,9.81,2.68c-1.96-2.28-3.98-4.62-5.99-6.97c5.84-0.3,8.5-2.81,8.6-6.83
		c0.17-6.97,2.3-11.6,10.47-11.23c-4.24-6.12-4.67-11.44-0.92-12.93c1.7-0.68,5.12,0.63,6.57,2.16
		C365.15,436.6,361.77,437.71,359.37,439.44z M501.75,427.78c9.29,1.63,20.46-7.72,20.87-17.71c0.42-10.21,0.53-20.58-0.75-30.68
		c-2.48-19.54-2.98-38.68,4.91-57.23c0.58-1.36,0.94-2.8,1.41-4.21c-2.21,1.54-3.27,3.56-4.67,5.3c-0.73,0.9-2.11,1.87-3.15,1.82
		c-4.16-0.21-8.29-0.88-12.45-1.24c-15.86-1.38-23.07,2.7-30.25,17.09c-0.74,1.48-2.09,3.66-1.55,4.59
		c4.01,6.98,5.21,14.51,5.6,22.37c0.07,1.39,1.97,2.68,2.98,4.05c1.45,1.96,4.05,4.01,3.94,5.9c-0.1,1.82-3.01,3.49-4.87,5.41
		c2.89,2.49,6.13,4.84,8.83,7.71c3.76,4,3.09,6.66-2.37,9.97c4.36,4.69,9,9.03,12.72,14.06c1.38,1.87,0.85,5.37,0.69,8.1
		C503.54,424.66,502.43,426.17,501.75,427.78z M274.15,313.78c7.2,0.38,8.84-2.22,5.39-9.09c-0.75-1.5-1.85-3.12-1.8-4.64
		c0.04-1.2,1.61-3.34,2.51-3.35c3.12-0.01,6.59,0.01,9.28,1.34c4.71,2.31,9.22,5.25,13.31,8.54c14.2,11.44,27.83,23.49,37.13,39.64
		c1.55-1.01,2.92-2,4.38-2.83c4.07-2.32,8.51-16.8,6.63-20.97c-1.5-3.33-2.54-6.86-3.82-10.29c-0.84-2.24-1.76-4.44-2.44-6.16
		c-2.52,2.4-4.6,6.04-7.02,6.28c-3.03,0.3-6.34-2.19-10.3-3.78c0.48,3.19,0.84,5.41,1.15,7.64c0.32,2.23,0.61,4.46,0.91,6.69
		c-5.38-8.08-4.05-20.08-16.75-22.63c1.28,3.13,2.58,6.33,3.89,9.54c-7.76-5.23-7.01-16.96-17.42-20.65
		c2.14,4.59,4.08,8.73,6.01,12.88c-0.5,0.23-1,0.46-1.49,0.69c-3.7-7.37-7.39-14.73-11.09-22.1c-0.4,0.19-0.8,0.38-1.2,0.57
		c1.05,3.96,2.09,7.92,3.14,11.88c-4.21-7.58-8.25-15.34-10.09-23.6c-1.71-7.66-1.1-15.84-1.47-23.8c-0.17-3.6,0.24-7.3-0.5-10.77
		c-0.5-2.34-2.23-5.77-3.98-6.17c-2.56-0.58-5.63,1.14-8.34,1.83c2.97,1.32,5.93,1.82,7.33,3.57c0.81,1.02-0.99,4.01-1.41,6.16
		c-0.38,1.94-1.31,5.2-0.55,5.69c5.55,3.66,1.35,6.67-0.31,11.23c-1.74-2.42-3.18-3.86-3.92-5.59c-1.47-3.48-2.95-7.04-3.7-10.72
		c-0.91-4.5-4.1-6.41-7.66-5.86c-2.95,0.46-5.54,3.23-8.3,4.98c0.34,0.52,0.68,1.04,1.02,1.56c1.2-0.65,2.34-1.63,3.62-1.89
		c2.93-0.59,5.66,2.64,4.61,5.22c-3.16,7.77-2.41,9.02,4.57,9.5c2.34,4.15,4.34,7.7,6.39,11.33c-4.81,3.55-4.73,3.48-9.31-1.8
		c-1.7-1.96-2.89-5.23-6.81-3.26c-4.31,2.17-6.47,5.1-6.14,8.34c2.18-0.83,4.55-1.73,6.94-2.63c2.87,7.97,3.29,8.18,7.86,5.96
		c2.91,2.33,5.37,4.29,8.28,6.61c0.51,4.73-3.54,10.55,1.2,15.73c0.33,0.36-0.96,2.52-1.82,3.57c-2.12,2.56-2.54,4.21,1.2,5.86
		c1.85,0.81,3.7,3.12,4.14,5.06C277.7,310.33,275.37,312.14,274.15,313.78z M471.85,153.88c-0.95,0.43-1.97,0.74-2.84,1.3
		c-2.41,1.53-4.92,2.96-7.09,4.79c-23.86,20.23-37.79,46.36-44.44,76.53c-0.83,3.77,0.15,8.65,2.01,12.1
		c2.07,3.85,6.09,6.66,9.45,10.13c0.81-1.92,2.06-4.27,2.81-6.76c2.12-7.08,3.16-14.63,6.22-21.26c5.73-12.4,12.6-24.27,18.97-36.36
		c0.87-1.66,2.33-3.38,2.33-5.06C459.23,176.01,462.98,164.22,471.85,153.88z M281.53,328.81c7.37,4.88,13.96,1.27,20.63-1.69
		c1.39-0.62,2.89-1.02,4.18-1.8c3.84-2.3,6.69-1.06,9.35,2.08c2.55,3,5.35,5.79,9.01,9.71c-5.19-11.65-33.35-34.95-40.83-34.66
		c3.32,9.75,1.27,18.68-14.58,14.96c1.3,1.45,2.93,3.14,4.52,3.1C281.85,320.3,282.71,321.14,281.53,328.81z M425.23,268.62
		c1.82-10.02-2.99-15.18-10.5-19.33c0.45,5.83-0.94,10.78,4.49,15.77c7.21,6.62,5.79,15.79,1.48,24.24c7.47,0.35,7.9-0.03,7.54-6.97
		c-0.17-3.2-0.52-6.4-0.8-9.59c0.5-0.08,0.99-0.17,1.49-0.25c0.94,5.27,1.87,10.53,3.11,17.5c3.8-2.32,9.37-3.88,9.91-6.48
		c0.89-4.27-0.46-9.83-2.76-13.72C436.46,265.18,431.12,265.79,425.23,268.62z M128.74,422.93c0.26,22.49,2.58,43.39,7.29,64.09
		c1.49,6.55,5.71,7.95,11.22,9.3c-1.73-9.58-3.36-18.58-5.11-28.32c3,1.32,5.65,2.47,8.3,3.63c-2.3-2.32-4.99-3.69-7.67-5.07
		c-0.68-0.35-1.29-0.95-2-1.09c-6.46-1.3-8.42-4.07-7.3-10.5c0.75-4.31,1.77-8.59,2.21-12.93
		C136.38,435.22,135.23,428.84,128.74,422.93z M100.96,462.01c-1.2-15.45-3.71-30.19-17.79-40.37c-0.19,2.23,0.14,4.18-0.57,5.59
		c-2.51,4.94-0.33,8.03,3.3,11.21c2.83,2.48,5.07,5.63,7.57,8.48c-0.27,0.31-0.55,0.61-0.82,0.92c-4.96-1.71-9.92-3.42-14.88-5.13
		c-0.11,0.35-0.23,0.7-0.34,1.05C85.14,449.73,92.85,455.72,100.96,462.01z M415.82,264.34c-0.67,0.22-1.33,0.45-2,0.67
		c-2.84,4.2-5.43,8.61-8.59,12.56c-5.56,6.95-5.52,8.05,1.98,13.15c2-1.01,4.02-2.87,6.01-2.84c4.45,0.06,6.2-2.89,5.95-5.94
		C418.68,276.02,417.01,270.2,415.82,264.34z M331.34,252.13c-0.33-1.45-2.09-4.55-1.21-6.33c2.07-4.16,0.7-5.08-3.08-5.33
		c-1.49-0.1-2.97-0.4-4.43-0.71c-6.5-1.41-9.61,0.43-11.89,7.06c2.15,1.82,4.3,3.65,6.44,5.47c0.02-0.47,0.04-0.94,0.05-1.41
		C321.77,251.29,326.3,251.69,331.34,252.13z M195.04,346.49c1.47,8.02,6.81,15.32,12.41,17.3c-0.4-8.1-0.81-16.21-1.29-25.94
		c-2.32,3.82-3.88,6.39-5.7,9.38C199.14,347.05,197.33,346.8,195.04,346.49z M173.18,569.52c1.93-3.85,4.57-6.58,4.19-8.79
		c-1.35-7.8-8.35-12.35-17.24-11.65C164.25,555.53,168.17,561.68,173.18,569.52z M145.75,294.29c0,7.43,0,14.27,0,22.16
		c2.82-2.06,4.81-3.69,6.97-5.05c4.33-2.72,4.86-5.14,0.25-8.33c-1.41-0.98-1.7-3.58-2.51-5.43c0.43-0.33,0.86-0.65,1.29-0.98
		C149.88,295.92,148.02,295.18,145.75,294.29z M264.18,342.53c-7.73-5.27-13.55-1.72-19.08,3.97c-6.21,6.4-1.94,13.92-2.67,20.87
		c0.61-2.58,0.63-5.21,0.61-7.83c-0.06-5.67,1.74-9.76,7.87-11.51C255.59,346.69,259.97,344.31,264.18,342.53z M302.89,271.06
		c0.77-8.45,6.97-7.04,11.49-9.29c-5.66-1.27-9.26,0.2-12.46,3.89c-1.03,1.19-3.57,1.08-5.42,1.56c0.09-2.25-0.09-4.56,0.42-6.71
		c0.21-0.88,1.94-1.39,3.23-2.24c-5.69,0.14-8.83,4.98-5.54,8.9c2.36,2.81,6.39,5.91,9.68,5.91c6.56,0.01,13.12-2.03,19.68-3.22
		c-0.14-0.64-0.28-1.28-0.42-1.92c-3.35,1.04-6.64,2.48-10.07,3.01C310.14,271.47,306.67,271.06,302.89,271.06z M216.09,311.84
		c-4.87-6.79-12.41-7.17-18.42-2.34c-2.98,2.4-3,4.95-0.84,7.09c1.3,1.29,4.02,1.14,5.94,1.6c-1.53-3.18-2.57-5.36-3.62-7.53
		c2.37-0.16,4.75-0.6,7.09-0.42C209.22,310.45,212.17,311.17,216.09,311.84z M409.1,227.79c1.98-3.34,3.47-5.84,4.94-8.31
		c-4.35-5.43-8.61-3.39-13.42-0.77C403.4,221.68,405.89,224.35,409.1,227.79z M137.53,345.4c-2.5-1.52-4.67-2.83-7.05-4.28
		c-1.66,11.07-1.34,11.63,5.99,11.23C136.79,350.19,137.13,347.99,137.53,345.4z M423.47,199.46c-4.98,0.94-9.6,1.85-11.47,7.45
		C420.17,208.3,420.19,208.3,423.47,199.46z M270.94,332.89c4.56,0.51,9.48-0.08,13.09,1.82c3.21,1.7,4.95,6.16,8.21,10.59
		C290.64,333.12,283.4,330.84,270.94,332.89z M129.64,395.52c4.42-6.97,4.32-12.82,0-17.58
		C129.64,383.67,129.64,389.09,129.64,395.52z M417.1,225.27c-3.11,4.33-8.14,8.2-3.44,15.22
		C414.92,234.92,416.01,230.1,417.1,225.27z M207.64,387.59c0.48,3.82,0.79,6.28,1.15,9.1c2.47-0.96,4.28-1.66,6.83-2.64
		C212.85,391.81,210.72,390.08,207.64,387.59z"/>
	<path class="st0" d="M354.37,248.53c-3.7-0.88-7.69-3.94-9.89,0.93c-3.74-1.45-7.1-2.75-11.1-4.3c2.1-7.07-3.67-5.86-9.92-5.68
		c3.72-2.56,6.04-4.68,8.76-5.87c2.75-1.21,5.91-1.49,10.2-1.45c-1.31,1.7-2.61,3.39-3.63,4.72c1.06,0,3.31,0,6.08,0
		c0.63-4.86-2.73-12.93,7.73-10.6c-1.67,0.9-3.33,1.79-4.94,2.66c0.9,2.93,1.7,5.56,2.5,8.18c0.32,0.06,0.63,0.12,0.95,0.19
		c0-2.75,0-5.5,0-8.67c1.12,0,2.95,0,4.69,0c-0.28-1.83-1.18-4.14-0.79-6.19c0.31-1.62,2.2-2.94,3.81-4.91
		c-0.23-0.71-0.82-2.52-1.22-3.72c5.25,1.6,10.31,3.14,17.09,5.2c5.22-4.81,11.69-10.78,18.17-16.75c0,0-0.01-0.01-0.01-0.01
		c7.03-4.69,14.69-6.94,24.71-5.77c-3.9,1.86-6.62,3.16-9.58,4.57c0.51,3.35,1.16,7.64,1.8,11.86
		c-10.34,0.03-14.87,3.41-14.14,11.32c-2.93-0.25-5.86-0.5-8.79-0.75c-0.02,0.59-0.05,1.17-0.07,1.76c3.82,0.2,7.64,0.4,11.46,0.6
		c0.29-0.65,0.58-1.3,0.87-1.94c8.94,10.78,12.77,23.33,10.27,37.26c-0.83,4.64-4.04,9.24-7.17,13.01
		c-5.99,7.23-6.28,12.07,0.16,19.57c-7.25,12.61-6.61,18.4,3.75,29.39c-2.68,0.95-5.05,1.8-8.63,3.08c2.47,0,3.82,0.22,5.08-0.04
		c4.33-0.91,8.32-2.31,13.12-0.63c3,1.05,7.4,0.05,8.22-4.85c0.78-4.68-2.08-10.02-6.01-10.13c-1.78-0.05-3.99,1.49-5.24,2.96
		c-0.5,0.59,1.03,2.92,2.04,5.49c1.31-3.18,1.95-4.72,2.58-6.27c1.31,1.41,3.41,2.66,3.73,4.26c0.36,1.8-0.89,3.92-1.43,5.9
		c-5.39-1.9-11.13-3.17-16.07-5.9c-3.79-2.09-3.7-6.51-2.66-9.98c2.88,3.18,5.67,6.27,8.46,9.36c0.33-0.19,0.65-0.38,0.98-0.57
		c-0.65-1.29-1.12-2.72-1.98-3.85c-2.19-2.84-5.23-5.25-6.58-8.41c-0.76-1.78,0.69-5.03,2.03-7.02c0.95-1.4,3.38-1.8,6.51-3.29
		c0.85-0.73,2.96-2.53,6.1-5.22c-0.97,4.57-1.55,7.31-2.13,10.06c0.67,0.36,1.35,0.73,2.02,1.09c0.18-7.87,5.13-6.78,10.03-6.79
		c4.44-0.01,9.18-0.36,13.25-1.94c4.37-1.69,8.78-4.83,8.23-10.51c-0.61-6.41-2.66-12.61-9.26-15.27c-2.55-1.02-5.85-0.17-7.59-0.17
		c3.05-9.43,6.03-18.9,9.17-28.32c6.9-20.72,18.11-38.83,32.6-55.16c10.34-11.66,21.5-22.06,35.6-28.97c2.17-1.06,4.4-2,6.62-3.01
		c0.25,0.67,0.57,1.14,0.46,1.28c-12.54,16.55-12.47,35.34-8.05,54.07c3.6,15.24,9.48,29.93,14.49,45.27
		c-16.22,19.14-14.64,42.29-9.93,66.4c-11.83-4.5-22.07-1.85-29.49,7.27c-4.95,6.07-8.26,13.64-11.5,20.89
		c-2.67,6-4.16,12.53-6.42,19.58c-0.97-8.73-2.7-16.68-9.45-22c-2.35-1.85-5.72-3.14-8.7-3.29c-5.35-0.27-8.7,4.92-7.67,10.4
		c1.23-1.65,2.65-5.03,3.93-4.98c3.15,0.12,6.85,1.09,9.21,3.06c2.79,2.32,4.6,5.94,6.49,9.2c1.42,2.45,2.1,5.33,3.5,7.8
		c0.85,1.5,2.44,2.59,3.7,3.86c0.67-1.57,1.49-3.1,1.98-4.73c1.49-4.86,2.85-9.76,4.27-14.65c0.6-0.07,1.19-0.15,1.79-0.22
		c1.36,3.95,3.99,7.96,3.79,11.83c-0.35,6.66,1.33,11.9,6.59,16.51c-2.52,1.53-4.65,2.83-7.33,4.45c4.41,4.65,8.54,9,13.18,13.9
		c-6.86-2-14.41,1.73-19.97-4.59c4.74,8.55,16.06,9.83,21.53,18.81c-5.47-2.11-10.15-3.92-14.84-5.73
		c-0.25,0.42-0.49,0.85-0.74,1.27c3.56,2.12,7.13,4.25,10.99,6.55c-1.26,0.11-2.39,0.21-3.52,0.31c-0.11,0.28-0.23,0.56-0.34,0.83
		c6.04,1.96,12.07,3.91,18.11,5.87c-0.17,0.55-0.33,1.11-0.5,1.66c-2.74,0.12-5.52,0.03-8.21,0.47c-0.98,0.16-1.75,1.58-2.61,2.43
		c1.04,0.51,2.09,1,3.11,1.54c1.27,0.67,2.51,1.39,3.76,2.08c-1.18,1-2.22,2.31-3.58,2.92c-2.32,1.04-4.84,1.64-7.13,3.49
		c5.37,0,10.74,0,17.48,0c-2,3.02-3.01,4.56-4.72,7.15c8.83-1.13,13.19-10.98,21.65-8.4c1.97-3.71,3.72-7.66,6.03-11.25
		c6.32-9.84,6.04-20.64,4.83-31.52c-1.12-10.01-2.86-19.96-4.08-29.96c-2.39-19.54,4.96-36.61,13.78-53.29
		c1.61-3.04,3.03-6.17,5.28-10.76c0.29,1.44,0.5,2.45,0.71,3.47c0.23-0.2,0.46-0.41,0.68-0.61c-0.16-2.67-0.33-5.33-0.63-10.17
		c-5.48,11.11-11.46,19.94-21.92,24.11c0.41-7.65,3.57-14.06,9.57-19.51c7.26-6.6,14.42-13.47,17.77-23.68
		c7.22,19.76-1.99,38.71-0.21,57.79c-0.53,0.11-1.07,0.23-1.6,0.34c-0.78-3.29-1.42-6.62-2.42-9.84c-0.44-1.44-1.6-2.65-2.43-3.97
		c-0.94,1.05-2.18,1.95-2.77,3.17c-8.37,17.25-9.34,34.74-5.09,53.66c3.74,16.67,7.6,33.8,3.29,51.41
		c-4.27,17.43-17.65,31.58-35.51,34.54c-9.21,1.53-18.69,1.39-28.78,2.05c0.53-3.87,0.84-6.12,1.15-8.37
		c-0.58-0.25-1.16-0.49-1.75-0.74c-4.31,8.01-8.62,16.03-13.31,24.74c-1.43-1.09-3.11-2.38-4.8-3.67c1.54,0.4,3.08,0.8,4.93,1.28
		c-3.23-7.33-5.13-8.96-8.97-8.01c1.13,2.07,2.27,4.14,3.41,6.2c-1.81-0.54-3.61-1.08-5.42-1.62c-0.29,0.6-0.58,1.2-0.87,1.81
		c3.62,2.37,7.24,4.74,11.16,7.3c-1.38,10.4-0.85,21.06,2.81,31.59c1.14,3.27,1.16,7.47,0.23,10.83
		c-3.52,12.74-5.65,25.55-3.94,38.74c0.61,4.71-3.09,4.73-5.65,5.64c-1.23,0.44-3.03-0.74-4.58-1.18c0.13-0.53,0.26-1.07,0.39-1.6
		c1.51-0.28,3.02-0.56,4.53-0.84c0.14-0.48,0.28-0.97,0.43-1.45c-1.35-0.54-3.46-1.89-3.9-1.48c-1.44,1.35-3.43,3.7-3.04,5.03
		c0.55,1.86,3.14,4.49,4.69,4.39c2.81-0.19,6.15-1.54,8.08-3.54c2.79-2.9,4.77-6.68,6.65-10.32c3.01-5.83,7.91-6.18,11.45-1.43
		c-2.09,0.18-4.68,0.4-7.27,0.62c0.31,3.58,0.61,7.16,0.92,10.74c0.6,0.06,1.2,0.12,1.8,0.17c-1.21,0.47-2.38,1.21-3.63,1.36
		c-12.13,1.43-14.89,5-15.79,18.01c-0.17,2.44-4.02,4.63-6.15,6.91c-6.32-5.5-10.49-3.73-12.54,4.59c-3.91-4.12-1.69-6.95,1.64-9.32
		c2.62-1.87,5.64-3.2,8.22-5.12c1.17-0.87,1.71-2.58,2.54-3.91c-1.41-0.81-2.75-2.04-4.25-2.3c-1.57-0.27-3.87-0.17-4.86,0.78
		c-3.95,3.81-10.1,5.24-11.76,11.66c-0.91,3.52-9.6,3.23-12.45,0.03c-1.39-1.55-4.51-3.95-4.79-3.69c-2.19,1.97-3.91,4.49-5.69,6.9
		c-0.25,0.34-0.04,1.04-0.04,1.67c-3.33-4.5-3.72-7.71-1.02-10.98c3.12-3.79,6.56-4.72,11.6-2.69c3.51,1.42,7.99,0.86,11.99,0.58
		c5.12-0.36,5.42-4.19,4.4-8c-1.23-4.59-4.41-5.87-8.7-3.98c-5.18,2.29-6.48,1.43-6.73-3.91c-0.07-1.49-0.97-3.57-2.12-4.18
		c-1.02-0.54-3.24,0.17-4.37,1.05c-1.69,1.31-2.9,3.25-4.43,5.06c-2.44-3.37-0.19-6.19,2.17-8.84c2.47-2.77,5.49-3.41,8.67-1.26
		c1.72,1.16,3.19,2.69,4.78,4.06c6.98,6.01,13.75,5.69,19.96-1.09c8.17-8.9,10.55-19.83,11.22-31.49
		c0.57-9.99-2.85-18.23-9.58-25.33c-0.26-0.28-0.52-0.56-0.75-0.86c-13.9-17.97-12.51-14.32-2.9-31.56c1.33-2.38,2.2-5.02,2.37-7.95
		c-2.1,3.14-4.19,6.29-6.31,9.42c-1.98,2.92-3.99,5.82-6.29,9.18c-1.96-10.76-1.93-20.19,6.58-28.19c4.12-3.87,6.9-9.17,10.28-13.82
		c-0.38-0.28-0.76-0.55-1.14-0.83c-5.11,5.5-10.21,11-15.62,16.83c-2.26-6.94-0.12-12.14,4.71-16.4c4.54-4,9.27-7.79,13.91-11.66
		c-0.34-0.49-0.68-0.99-1.01-1.48c-5.56,3.65-11.13,7.31-16.52,10.85c0.63-14.47,12.26-20.95,23.54-29.23
		c-9.25-1.41-13.77,4.44-20.08,7.84c5.07-7.9,10.14-15.81,15.21-23.71c-0.41-0.26-0.82-0.51-1.23-0.77
		c-4.08,5.03-8.17,10.05-12.25,15.08c-0.56-0.24-1.13-0.48-1.69-0.72c2.59-10.65,5.19-21.29,7.78-31.94
		c-0.38-0.11-0.77-0.22-1.15-0.34c-2.46,5.86-4.92,11.73-7.41,17.67c-8.39-9.06-2.77-18.75-1.07-28.22c-0.5-0.13-1-0.25-1.5-0.38
		c-1.74,4.02-3.47,8.03-5.24,12.12c-3.22-1.92-6.64-3.52-9.46-5.85c-1.3-1.08-1.71-3.56-1.97-5.48c-0.52-3.74-0.39-7.58-1.07-11.28
		c-0.29-1.61-1.9-2.98-3.07-4.71c0.5,6.67,0.94,12.5,1.38,18.31c-12.08,0.02-13.7-8.34-14.25-17.61c-0.63,0.31-1.27,0.63-1.9,0.94
		c0.4,3.78,0.8,7.55,1.33,12.56c-5.99-3.06-11.27-5.75-17.03-8.69c3.66-2.65,6.73-4.86,9.98-7.21c-8.13-4.49-16.15,3.65-18.6,18.22
		c-20.91,5.4-42.16,23.51-40.5,34.95c0.9-0.28,2.16-0.28,2.51-0.84c4-6.44,10.86-2.58,16.16-4.33c1.09-0.36,3.95,2.47,4.92,4.38
		c1.64,3.25,0.43,5.31-3.9,7.98c0.11-1.33,0.39-2.34,0.23-3.27c-0.21-1.18-0.77-2.29-1.18-3.43c-1.09,0.45-2.44,0.63-3.23,1.39
		c-3.68,3.54-3.72,3.6-6.19,1.59c-4.71,1.03-8.24,2.61-11.64,2.38c-5.63-0.39-7.46,0.86-8.33,6.76c-0.24,1.62-2.2,3.22-3.72,4.36
		c-1.33,0.99-3.15,1.33-4.75,1.95c0.96,1.69,1.92,3.38,2.97,5.23c-2.89,0.67-5.61,0.67-6.99-3.14c-1.17-3.22-0.43-5.55,2.72-7.03
		c0.34-0.16,0.84-0.3,0.97-0.58c0.81-1.76,1.73-3.52,2.14-5.39c0.1-0.48-1.97-2.07-2.25-1.9c-1.52,0.95-3.19,2.06-4.06,3.55
		c-2.65,4.53-8.02,8.11-13.94,8.6c-0.39-1.72-0.79-3.48-1.32-5.83c-5.04,0.94-5.28,3.74-2.95,7.88c-0.68,0.07-1.36,0.13-2.04,0.2
		c-1.05-2.55-2.7-5.03-3.02-7.67c-0.43-3.64,1.1-5.74,5.52-4.38c5.56,1.72,15.07-2.04,18.2-6.74c-5,0.45-9.99,0.99-15,1.27
		c-1.13,0.06-2.83-0.53-3.33-1.38c-0.51-0.85-0.29-2.76,0.38-3.57c1.8-2.16,3.91-4.53,0.81-6.57c-3-1.97-5.87-0.76-7.24,3.98
		c-1.12-4.93,1.18-6.81,4.33-8.05c2.76-1.09,5.75-1.95,7.42,1.53c2.93,6.13,8.39,7.13,13.99,6.31c8.57-1.25,17.03-3.36,23.58-10.04
		c-4.16,1.26-8.32,2.52-12.84,3.89c2.42-7.79,9.35-6.91,14.78-8.64c2.65-0.84,5.31-1.68,7.96-2.52c-0.21-0.75-0.42-1.5-0.63-2.25
		c-4.2,0.97-8.4,1.95-12.6,2.92c-0.23-0.43-0.46-0.86-0.68-1.29c8.87-4.59,17.75-9.18,26.62-13.77c-0.29-0.62-0.59-1.23-0.88-1.85
		c-4.91,2.05-9.81,4.1-14.72,6.15c-0.29-0.41-0.58-0.83-0.87-1.24c6.07-5.39,12.15-10.77,18.22-16.16
		c-0.46-0.52-0.93-1.05-1.39-1.57c-2.47,2.09-4.93,4.17-7.69,6.51c2.18-8.77,4.16-17.05,6.36-25.28c0.29-1.1,1.55-2.07,2.57-2.83
		c4.97-3.77,9.87-7.67,15.08-11.09c3.08-2.03,6.69-3.26,10.74-5.18c-3.85-2.12-6.89-0.93-9.75,1.26c-4.22,3.22-8.31,6.61-12.57,9.78
		c-1.58,1.18-3.48,1.93-5.23,2.87c-0.41-0.47-0.83-0.95-1.24-1.42c2.94-3.06,5.88-6.13,8.81-9.19c-0.11-0.22-0.22-0.45-0.33-0.67
		c-3.88,2.93-7.76,5.85-11.81,8.9c-0.25-1.29-0.62-2.88-0.86-4.48c-1.41-9.28-0.64-10.22,8.65-10.65c5.18-0.24,8.25-2.34,10.73-6.68
		c-4.76,1.28-10.49,2.49-15.96,4.42c-2.49,0.88-4.47,3.19-7.98,5.83c1.37-6.55,1.8-12.24,3.83-17.28c1.74-4.34,5.84-4.37,10.24-2.56
		c9.58,3.93,18.5,1.38,25.25-7.08c-3.4,1.71-6.09,3.72-9.08,4.4c-3.76,0.86-7.78,0.97-11.65,0.77c-4.26-0.22-8.48-1.17-12.45-1.76
		c3.32-6.25,15.88-12.75,23.49-12.12c3.97,0.33,8.02-0.33,12.03-0.54c-0.01-0.8-0.02-1.6-0.04-2.39c-3.42,0-6.83,0-10.25,0
		c-3.38,0-6.77,0-10.15,0c-0.05-0.23-0.11-0.47-0.16-0.7c1.82-0.4,3.79-0.5,5.42-1.3c1.23-0.61,2.02-2.11,3-3.21
		c-1.06-0.78-2.1-2.2-3.18-2.23c-11.16-0.32-21.58,1.45-29.16,10.92c-5.03,6.28-6.27,0.3-8-2.22c4.15-2.19,8.39-4.43,12.63-6.67
		c-0.28-0.52-0.55-1.03-0.83-1.55c2.05,0,4.1,0,6.73,0c-0.78-2.14-1.34-3.66-2.1-5.73c5.45,1.76,8.58-0.94,10.87-5.19
		c2.04-3.78,5.43-4.61,9.41-4.91c1.64-0.12,4.5-1.89,4.46-2.81c-0.08-1.93-1.23-4.58-2.8-5.54c-4.03-2.47-8.49-2.69-11.91,1.3
		c-3.05,3.55-7.75,6.3-6.84,12.12C354.16,248.74,354.37,248.53,354.37,248.53z M434.21,315.07c0.5,4.58,1,9.15,1.55,14.22
		c3.93-4.97,2.75-12.29-1.72-14.06c0.94-3.21,1.88-6.42,2.82-9.63c0.49,0.13,0.98,0.25,1.48,0.38c0.61,6.67,1.22,13.34,1.87,20.42
		c1.28-0.72,2.79-1.21,2.77-1.63c-0.32-6.14-0.84-12.28-1.32-18.41c0.42-0.26,0.84-0.52,1.26-0.77
		c6.04,10.13,12.09,20.26,18.13,30.39c0.16-0.06,0.32-0.12,0.48-0.17c-2.62-10.37-5.24-20.74-7.86-31.12
		c0.27-0.09,0.53-0.18,0.8-0.27c1.77,4.24,3.54,8.49,5.31,12.73c0.28-0.08,0.56-0.16,0.84-0.24c-1.21-5.27-2.42-10.53-3.63-15.8
		c0.31-0.07,0.62-0.13,0.94-0.2c1.98,2.98,3.96,5.95,5.95,8.93c0.64-0.38,1.29-0.77,1.93-1.15c-2.63-4.61-5.42-9.14-7.81-13.87
		c-0.87-1.71-0.79-3.9-1.15-5.88c2.08-0.09,4.5-0.9,6.19-0.13c4.17,1.9,8.01,4.52,11.98,6.86c-2.24-3.64-4.93-6.59-8.05-8.97
		c-7.03-5.35-12.93-3.09-14.4,5.49c-0.82,4.78-1.1,9.65-1.7,15.08c-1.82-2.46-3.22-4.65-4.92-6.57c-3.08-3.46-7.21-3.41-10.3-0.06
		c-4.73,5.13-7.03,22.1-3.49,29C432.88,324.41,433.54,319.74,434.21,315.07z M487.57,208.13c-14.6,4.94-24.57,14.93-30.76,29.05
		c-0.7-0.41-1.41-0.81-2.11-1.22c3.38-9.99,6.76-19.99,10.4-30.78c-13.25,9.98-16.14,33.14-6.9,49.97c-3.3,2.75-5.1,6.27-2.33,10.19
		c6.46,9.16,12.92,18.34,20,27.01c3.37,4.13,8.17,7.1,12.32,10.6c0.13-0.23,0.25-0.46,0.38-0.69c-5.37-5.93-10.73-11.85-16.1-17.78
		c0.42-0.41,0.83-0.82,1.25-1.24c1.16,0.93,2.33,1.85,3.49,2.78c0.41-0.39,0.83-0.77,1.24-1.16c-6.54-7.4-13.09-14.79-19.63-22.19
		c0.28-0.44,0.55-0.87,0.83-1.31c6.74,3.68,13.48,7.37,20.22,11.05c0.25-0.38,0.5-0.75,0.74-1.13c-5.93-4.49-11.86-8.99-18.55-14.05
		c9.17-1.17,17.78-2.28,26.4-3.38c-0.1-0.76-0.2-1.51-0.31-2.27c-7.35,0.46-14.69,1.13-22.05,1.26c-2.09,0.04-4.81-0.97-6.07-2.47
		c-0.69-0.82,0.52-4.28,1.83-5.54c6.41-6.15,13.15-11.96,19.77-17.89c-0.14-0.29-0.27-0.58-0.41-0.87
		c-6.81,4.22-13.61,8.44-21.09,13.09C467.04,226.09,475.94,215.94,487.57,208.13z M378.73,238.05
		c-0.99,10.39-1.03,10.19-11.16,12.04c-2.12,0.39-3.87,2.81-6.04,4.49c4.3,1.12,7.43,2.7,10.47,2.53c3.5-0.2,7.47-1.21,10.15-3.28
		c1.86-1.43,1.9-5.23,2.75-7.97c-0.53-0.14-1.06-0.29-1.59-0.43c-5.59,10.3-5.65,10.34-11.99,7.19
		C380.63,249.89,382.58,246.48,378.73,238.05z M356.33,232.11c4.81-1.61,8.8-2.94,13.09-4.38c-1.21-0.84-1.99-1.38-3.34-2.31
		c6.53,1.4,12.32,2.65,18.11,3.89c-1.7-2.39-3.72-3.82-5.98-4.48c-2.3-0.67-4.91-0.25-7.21-0.91
		C360.86,221.02,360.48,221.14,356.33,232.11z M459.35,376.71c-1.01-0.36-2.02-0.73-3.02-1.09c2.1,1.27,4.2,2.56,6.32,3.82
		c1.61,0.96,3.26,1.86,4.89,2.79c0.91-1.62,1.83-3.23,3.33-5.89c-8.83,3.58-6.88-4.3-6.95-3.72
		C462.39,373.98,460.87,375.35,459.35,376.71z M389.67,210.16c1.19-1.12,2.38-2.24,3.58-3.36c-2.2,2.14-4.78,4.02-6.46,6.5
		c-1.15,1.69-1.3,4.23-1.34,6.4c-0.01,0.65,1.87,1.33,2.88,2c-3.19-3.68-2.4-6.62,1.2-8.32c2.65-1.26,5.95-1.14,8.96-1.64
		c-0.95,0.72-1.91,1.44-2.86,2.16C393.63,212.65,391.65,211.4,389.67,210.16z M436.24,344.45c-2.44-8.6-6.13-11.21-11.87-8.32
		C428.34,338.91,432.43,341.78,436.24,344.45z M403.78,337.4c0.51-0.18,1.03-0.36,1.54-0.55c-0.28-1.91,0.14-4.66-0.96-5.56
		c-2.93-2.41-6.47-4.1-9.9-5.83c-0.4-0.2-1.58,1.11-3.26,2.38C397.56,329.48,404.42,328.82,403.78,337.4z M462.64,449.63
		c-0.16,0.45-0.31,0.9-0.47,1.35c2.59-0.12,5.32,0.17,7.68-0.63c0.62-0.21,0.09-3.8,0.09-5.44
		C467.16,446.71,464.9,448.17,462.64,449.63z M459.35,387.86c-0.61,0.54-1.21,1.07-1.82,1.61c1.69,1.71,3.37,3.42,5.06,5.13
		c1.58-1.87,3.15-3.73,4.73-5.6c-0.64-0.57-1.28-1.15-1.92-1.72c-0.64,1.52-1.28,3.03-1.91,4.51
		C461.42,389.83,460.38,388.84,459.35,387.86z M417.81,342.49c-1.2-6.02-4.64-7.97-9.92-5.55
		C411.01,338.69,414.56,340.68,417.81,342.49z M463.77,463.35c0.36-0.47,0.72-0.95,1.09-1.42c-1.24-3.33-2.39-6.8-6.7-5.87
		c-0.43,0.58-0.85,1.15-1.28,1.73C459.17,459.64,461.47,461.5,463.77,463.35z"/>
	<path class="st0" d="M306.19,505.99c1.05,1.03,2.11,2.06,3.92,3.83c12.31-5.17,25.7-10.8,39.2-16.47c-1.16-2.38-2.1-4.32-3.04-6.26
		c0.59-0.54,1.18-1.08,1.77-1.61c1.11,2.52,2.22,5.03,3.33,7.55c0.75-0.59,1.5-1.18,2.25-1.77c-0.28-1.58-0.55-3.16-1.12-6.39
		c2.7,1.95,4.33,4.03,5.96,4.03c1.32,0,2.64-2.51,3.13-3.03c3.78-0.69,7.04-0.74,9.85-1.88c13.74-5.59,27.32-11.59,41.06-17.2
		c5.5-2.24,11.07-4.04,10.27-12.17c0.65,0.23,1.31,0.46,1.96,0.69c0,5.82,0.23,11.64-0.05,17.45c-0.54,11.13,5.45,19.51,11.55,27.74
		c1.98,2.67,2.57,4.71,1.11,7.64c-5.86,11.75-11.5,23.61-17.53,35.27c-0.77,1.5-3.2,2.65-5.04,3c-6.61,1.26-12.93,9.89-12.34,16.58
		c0.2,2.24-0.58,5.18-2.01,6.84c-4.48,5.18-9.27,10.14-14.36,14.72c-3.14,2.83-5.36,5.2-2.38,9.37c0.42,0.58,0.06,1.72-1.05,3.17
		c-1.34-1.77-2.68-3.54-4.07-5.36c-6.15,3.55,2.93,6.62-1.04,11.68c-1.48-2.87-2.85-5.52-4.22-8.18c-0.74,0.61-1.48,1.21-2.22,1.82
		c1.71,3.03,3.42,6.05,5.12,9.08c-0.4,0.36-0.8,0.71-1.2,1.07c-2.3-2.59-4.59-5.17-6.89-7.76c-0.38,0.22-0.76,0.44-1.14,0.66
		c0.82,2.55,1.63,5.1,2.45,7.66c-0.46,0.3-0.93,0.61-1.39,0.91c-1.6-1.83-3.2-3.67-5.82-6.65c-1.66,2.67-3.1,4.97-4.22,6.77
		c-2.06,0.16-5.19-0.55-6.57,0.69c-6.1,5.49-14.16,6.28-21.17,9.47c-7.4,3.37-15.33,6.24-23.32,7.43
		c-6.75,1.01-14.06,0.07-20.85-1.35c-9.79-2.05-19.33-5.31-28.96-8.68c4.95-2.92,10.39-4.85,7.1-12.55c2.49,1.01,4.39,1.79,6.7,2.73
		c1.54-5.46,0.08-9.39-3.6-12.64c-4.43-3.92-9.35-5.6-15.52-2.93c0-3.06,1.01-6.64-0.27-8.95c-1.37-2.47-4.66-4.52-7.52-5.38
		c-6.94-2.09-12.2,3.48-10.96,10.62c0.3,1.72-0.99,3.72-1.55,5.59c-2.17-0.97-5.51-1.37-6.31-3.01c-6.44-13.29-4.67-27.4-2.82-41.29
		c0.45-3.34,3.5-6.33,5.35-9.48c0.46,0.26,0.92,0.53,1.38,0.79c-0.62,1.18-1.24,2.36-2.58,4.92c3.09-1.22,5.05-1.96,6.99-2.76
		c5.27-2.18,10.55-4.35,15.8-6.58c10.05-4.27,10.05-4.29,19.19-1.7c0.25-2.27,0.49-4.45,0.9-8.23c1.74,3.07,2.69,4.74,4,7.05
		c3.9-4.42,7.56-8.57,12.2-13.83c0.71,4.36,1.09,6.65,1.5,9.18c5.03-0.51,6.07-3.97,7.28-7.35c2.57-7.18,3.15-7.42,10.67-3.67
		c0.45-3.98,0.85-7.51,1.24-11.04L306.19,505.99z"/>
	<path class="st0" d="M198.77,370.19c6.88-1.12,13.6-1.1,20.66,2.55c-2.48,2.26-4.47,4.08-7.52,6.87c2.47-0.96,4.12-1.07,4.74-1.92
		c5.62-7.84,12.66-4.1,19.43-2.57c1.08,0.24,2.11,0.7,3.77,1.27c-3.51,1.66-6.54,3.09-9.58,4.52c0.03,0.32,0.07,0.65,0.1,0.97
		c1.04-0.06,2.14,0.08,3.1-0.23c2.13-0.68,4.16-1.67,6.29-2.37c8.56-2.82,18.24,4.69,20.3,13.52c0.99,4.25,4.11,7.98,6.17,11.99
		c1.69,3.3,3.24,6.67,4.38,10.45c-8.35-6.63-17.25-9.51-27.62-6.06c2.58,0.28,5.19,0.41,7.74,0.86c3.71,0.66,7.49,1.25,11.05,2.44
		c4.73,1.58,7.84,4.27,7.89,10.21c0.05,6.26,1.58,12.51,2.64,20.04c-8.38-5.51-15.22-10-22.43-14.74c-5.33,3.36,3.52,5.08,0.65,8.91
		c1.68-1.42,2.52-2.51,2.88-2.37c3.28,1.28,6.59,2.59,9.69,4.26c7.57,4.08,9.46,9.41,6.64,18.46c-1.75,5.6-3.71,11.14-5.97,17.85
		c-4.93-6.53-9.48-12.56-14.03-18.58c-0.41,0.28-0.82,0.57-1.24,0.85c4.14,5.99,8.49,11.86,12.31,18.06
		c1.28,2.08,2.24,5.3,1.57,7.44c-1.56,5.02-4.19,9.71-6.24,14.21c-6.84-6.05-13.45-11.89-19.88-17.58c1.71,2.58,3.67,5.58,5.68,8.55
		c0.42,0.62,1.13,1.03,1.59,1.63c3.31,4.25,9.73,8.97,9.2,12.69c-0.94,6.54-6.13,12.47-9.37,18.35c-5.08-5.56-9.44-9.83-13.14-14.6
		c-1.84-2.38-2.48-5.69-3.74-8.75c-0.08,0.02-1.59,0.48-3.35,1c0,1.49,0,3.83,0,5.82c1.3,1.15,2.7,2.24,3.9,3.51
		c0.9,0.96,1.54,2.17,2.31,3.26c2.78,4,8.68,9.17,7.71,11.74c-2.05,5.41-7.7,9.47-12.44,13.73c-0.36-7.6,5-14.19,3.95-22.55
		c-2.6,4.05-4.76,6.76-6.15,9.82c-0.82,1.8-0.13,4.24-0.66,6.25c-3.94,14.78-7.03,29.7-4.8,45.05c0.89,6.11,2.55,12.3,5.02,17.93
		c2.09,4.75,10.68,5.36,14.04,1.41c1.29-1.52,2.01-4.19,1.78-6.21c-0.84-7.45,0.15-8.7,8.01-8.1c-1.8,1.43-3.43,2.72-6.06,4.81
		c3.25,0.96,5.29,1.56,8.75,2.58c-1.69,2.09-2.78,3.98-4.36,5.27c-2.97,2.43-6.95,4.85-4.68,8.93c0.65,1.17,6.43-0.03,9.62-0.94
		c1.69-0.48,2.77-2.86,4.37-4.05c1.19-0.88,2.95-1.96,4.16-1.68c3.35,0.79,6.54,2.24,9.79,3.43c-0.21,0.52-0.41,1.05-0.62,1.57
		c-1.24-0.57-2.53-1.67-3.71-1.58c-2.07,0.16-4.09,1.07-6.12,1.66c0.62,1.45,1.5,2.85,1.8,4.36c0.37,1.83,0.86,4.07,0.12,5.54
		c-0.48,0.96-3.75,1.77-4.56,1.13c-4.06-3.23-7.83-1.58-11.86-0.3c-1.7,0.54-3.84,0.83-5.46,0.29c-3.41-1.15-5.05-0.29-5.56,3.24
		c-0.5,3.43,1.12,4.98,4.31,5.34c2.59,0.29,5.19,0.57,7.83,0.86c-1.17,2.94-1.67,5.63-3.16,7.55c-1.36,1.75-3.67,3.13-5.81,3.66
		c-0.68,0.17-2.74-2.77-3.17-4.53c-0.78-3.21-1.76-5.06-5.37-3.31c-0.45,0.22-1.38,0.27-1.61-0.01c-3.82-4.52-5.66-0.45-7.52,2.2
		c-6.3-6.53-9.81-5.75-12.51,2.32c-2.16,0.36-4.36,0.73-6.55,1.09c-1.56-7.15-3.68-8.07-10.12-4.46c-1.03-4.92-0.1-6.21,4.27-6.71
		c2.64-0.3,7.03,2.19,7.23-2.66c0.1-2.46-2.49-5.02-4.69-9.04c0.74-3.44,1.92-8.92,3.09-14.4c-0.41-0.17-0.82-0.33-1.23-0.5
		c-2.49,4.07-4.98,8.15-7.72,12.61c-5.19-9.34-0.42-17.16,2.43-25.16c-3.35-1.61-3.35-1.61-9.8,7.23
		c-3.58-11.27,7.48-15.38,9.58-22.65c-4.28,2.24-9,4.71-13.72,7.19c-0.12-0.37-0.25-0.75-0.37-1.12
		c5.89-9.62,11.77-19.24,17.66-28.86c-0.54-0.35-1.07-0.7-1.61-1.05c-1.39,2.01-2.78,4.02-4.28,6.2c-3-0.66-6.08-1.34-9.6-2.12
		c3.43-4.47,6.76-8.81,10.09-13.15c-0.29-0.33-0.57-0.67-0.86-1c-5.08,3.97-10.35,7.71-15.18,11.97c-6.28,5.53-12.89-2.81-19,2.06
		c-0.13-0.56-0.26-1.12-0.39-1.68c7.71-4.66,15.42-9.32,23.13-13.98c-0.42-0.72-0.84-1.43-1.26-2.15
		c-5.35,3.08-11.19,5.56-15.96,9.37c-10.01,8.01-16.52,8.6-27.43,0.82c5.66-1.57,11.07-3.07,16.47-4.57
		c-0.09-0.38-0.19-0.76-0.28-1.14c-3.62,0.71-7.5,0.81-10.8,2.26c-7.18,3.17-11.85,0.54-15.73-5.61c0.81-0.63,1.65-1.27,2.53-1.95
		c-0.27-0.22-0.56-0.6-0.73-0.56c-3.4,0.92-5.52-0.77-6.82-3.58c-6.13-13.26-12.63-26.38-18.13-39.9
		c-5.81-14.29-17.19-22.48-30.8-29.51c1.28,4.38,2.56,8.77,3.73,12.81c-8.12-9.23-16.4-18.32-24.29-27.74
		c-4.51-5.38-7.4-11.69-7.65-19.19c7.33,11.46,20,10.53,30.71,14.17c4.9,1.67,9.24,4.98,13.83,7.54c-0.3,0.43-0.59,0.87-0.89,1.3
		c-5.31,0-10.61,0-17.46,0c2,1.82,3.33,3.22,4.85,4.38c8.43,6.43,17.82,11.93,25.09,19.47c6.03,6.26,9.79,14.8,14.2,22.53
		c5.44,9.55,9.74,19.84,15.94,28.84c8.55,12.41,28.58,11.12,35.72,0.7c-3.94,0.63-7.77,1.25-12.54,2.02
		c1.29-1.81,1.79-2.51,2.34-3.27c-0.48-0.03-0.87-0.18-1.13-0.06c-7.56,3.44-19.58-0.61-24.18-8.81
		c-10.41-18.54-21.06-37.03-23.49-58.79c-1.72-15.38-12.22-25.09-22.92-35.7c0.33,6.81,0.63,12.9,0.92,19
		c-6.88-13.77-13.7-26.95-20.07-40.36c-2.49-5.24-3.94-10.97-5.24-17c7.11,12.51,20.38,14.93,31.53,20.84
		c3.84,2.03,6.39,6.49,10.54,10.92c-7.08-1.65-12.39-2.89-19.28-4.5c1.76,2.41,2.78,4.12,4.1,5.57c6.78,7.42,14.3,14.27,20.29,22.27
		c7.55,10.09,9.58,22.58,12.41,34.64c1.47,6.26,3.37,12.54,5.98,18.4c6.27,14.1,18.28,20.38,32.9,22.06
		c10.98,1.26,21.88,0.65,30.94-6.84c4.77-3.94,9.05-8.48,14.38-13.54c3.38,1.82,7.77,4.19,10.98,5.91
		c-0.08-5.47-0.78-11.52-0.1-17.41c0.84-7.28,8.22-7.89,13.94-11.31c-2.81-1.72-5.12-3.29-7.58-4.6c-6.86-3.65-8.09-6.23-6.75-13.62
		c0.29-1.59-0.44-3.34-0.54-5.02c-0.15-2.7-4.86-4.63-1.34-7.93c-1.45-1.35-2.91-2.7-4.02-3.73c2.16-0.83,4.72-1.63,7.02-2.91
		c0.34-0.19-0.57-2.65-0.93-4.14c1.33-0.58,2.98-1.31,5.31-2.34c-1.69-2.12-3.06-3.84-4.44-5.55c0.43-0.11,0.87-0.22,1.3-0.34
		c-0.5-2.14-0.36-4.79-1.61-6.33c-3.89-4.81-3.8-5.61,2.28-7.08c1.77-0.43,3.56-0.8,7.26-1.63c-10.06-5.94-13.8-14.99-18.57-23.34
		c-0.5-0.87-1.79-1.28-2.73-1.91C198.56,370.02,198.77,370.19,198.77,370.19z M226.84,427.53c0.95,2.17,1.78,4.04,2.6,5.91
		c-0.45,0.24-0.9,0.49-1.35,0.73c-1.15-0.99-2.3-1.99-3.45-2.98c-0.52,0.43-1.05,0.85-1.57,1.28c1.34,1.72,2.63,4.78,4.04,4.83
		c1.79,0.06,4.92-2.05,5.25-3.67C233.1,429.87,230.39,427.96,226.84,427.53z M233.33,438.03c-0.46,0.37-0.92,0.74-1.39,1.11
		c1.08,1.46,1.88,3.47,3.33,4.18c1.03,0.51,3.77-0.33,4.24-1.3c0.88-1.82,0.66-4.17,0.9-6.3c-0.44-0.04-0.88-0.08-1.32-0.12
		c-0.8,1.88-1.6,3.77-2.64,6.22C234.95,440,234.14,439.02,233.33,438.03z"/>
	<path class="st0" d="M266.98,307.09c-0.35,0.6-1.53,2.6-2.64,4.47c-1.95-3.25-2.54-9.11-9.48-6.97c-0.62,0.19-2.01-3.06-3.41-4.27
		c-1.62-1.4-3.65-3.11-5.53-3.14c-1.23-0.02-2.5,2.7-3.39,3.76c-3.32-2-7.18-4.33-11.5-6.94c0.73-7.06,0.04-7.74-7.99-7.58
		c-1.33,0.03-3.05-0.73-3.94-1.72c-2.12-2.33-4.18-4.84-5.65-7.61c-1.98-3.73-3.09-7.94-8.92-6.77c-0.86,0.17-2.1-2.42-3.42-3.39
		c-1.99-1.46-4.11-3.16-6.39-3.59c-0.76-0.14-2.2,3.29-3.5,5.38c-4.31-2.09-7.88-2.55-12.26,2.93c-5.11,6.39-13.54,6.89-21.59,4.84
		c-1.48-0.38-2.92-1.2-4.38-1.22c-1.53-0.01-3.07,0.7-4.61,1.1c0.67,1.64,0.88,3.86,2.09,4.81c2.8,2.19,6.08,3.76,9.98,6.07
		c-2.21,0.17-3.74,0.39-5.26,0.38c-9.28-0.05-9.66-0.44-9.57-9.47c0.05-5.57,1.27-11.58-6.23-14.81c0,17.5,0,34.72,0,51.81
		c-8.27,1.56-9.57,0.43-9.49-6.71c0.37-32,0.65-64.01,0.95-96.02c0.04-3.8,0-7.6,0-12.98c80.47-0.51,160.46-0.05,240.71-0.27
		c-0.24,2.81-0.45,5.29-0.66,7.78c-39.25,0-78.43,0-117.45,0c-1.45,5.6,1.16,6.11,4.93,6.1c26.52-0.09,53.04-0.05,79.55-0.05
		c2.09,0,4.18,0,6.75,0c-0.41,3.84-0.78,7.34-1.2,11.32c-8.91-3.81-9.28-3.57-9.08,4.34c-5.77,2.98-10.77,7.15-18.23,6.69
		c-5.11-0.31-10.15,7.41-9.8,12.76c0.08,1.18,0.79,2.6,1.67,3.4c2.04,1.84,4.32,3.42,6.58,5c0.75,0.53,2.18,1.3,2.51,1.02
		c5.12-4.32,10.3-0.34,15.64-0.09c-4.14,2.65-8.21,5.25-12.4,7.93c-2.94-5.01-6.99-7.45-12.88-6.43c-1.17,0.2-2.85-0.48-3.79-1.32
		c-3.17-2.84-7.14-3.51-9.72-0.74c-2.04,2.19-3.29,6.55-2.69,9.5c1.49,7.45,10.82,11.5,20.1,9.44c3.33-0.74,6.64-1.67,9.85-2.82
		c3.02-1.09,5.9-2.57,7.46-3.27c3.57,2.47,6.09,4.84,9.07,6.13c4.53,1.96,6.59-1.47,9.03-4.7c3.61-4.76,8.94-6.56,16.45-6.83
		c-2.95,3.12-4.64,5.74-7.03,7.3c-9.36,6.12-12.39,15.33-13.72,25.71c-0.48,3.75-2.08,7.36-3.73,12.94
		c-11.05-6.81-20.86-12.45-30.2-18.79c-4.84-3.29-8.87-7.77-13.2-11.8c-7.23-6.73-9.4-14.24-7.67-24.6
		c1.34-7.97-1.61-16.83-3.51-25.09c-0.96-4.18-5.1-5.27-9.32-4.67c-4.42,0.63-5.82,3.66-6.33,7.83c1.83,0.63,3.56,1.21,5.65,1.93
		c-0.62,1.34-1.15,2.47-1.23,2.65c-4.16-2.04-7.95-4.68-12.14-5.75c-4.86-1.24-8.35,1.41-9.81,6.4c-1.08,3.7-0.47,6.04,3.47,5.62
		c0.5,3.44,0.99,6.8,1.41,9.7c-3.18,4.42-6.79,8.74-9.46,13.58c-0.76,1.37,0.73,4.74,2.17,6.27c0.8,0.85,3.63-0.21,5.84-0.44
		c2.58,1.21,5.86,2.93,9.27,4.32c3.56,1.45,5.53,3.04,4.15,7.6c-0.85,2.8,0.33,6.22,0.66,10.05
		C268.16,297.94,267.69,301.62,266.98,307.09z M140.28,208.43c-0.16,2.78-0.33,4.64-0.36,6.5c-0.19,13.15-0.16,26.31-0.62,39.45
		c-0.17,4.89,2.21,7.45,6.63,10.42c0-17.83,0-34.66,0-52.08c17.39,0,34.19,0,50.99,0c0.22-0.73,0.44-1.45,0.65-2.18
		c-2.32-0.99-4.65-2.81-6.97-2.82c-10.44-0.04-20.89,0.49-31.33,0.69C153.04,208.53,146.81,208.43,140.28,208.43z M235.24,208.15
		c0.86,5.36,5.11,6.5,15.25,4.06C249.14,206.89,246.75,206.26,235.24,208.15z M232.72,213.39c-1.46-6.44-3.35-7.06-13.53-5.07
		C221.49,216.8,228.07,211.41,232.72,213.39z M209.43,207.69c-0.5,0.39-0.99,0.78-1.49,1.18c1.34,1.38,2.46,3.25,4.1,4.01
		c1.46,0.68,3.49,0.14,5.67,0.14c-0.71-2.32-1.18-3.86-1.62-5.33C213.57,207.69,211.5,207.69,209.43,207.69z M206.38,212.61
		c-1.59-5.77-1.63-5.79-7.89-4.14C198.89,213.74,202.3,213.44,206.38,212.61z"/>
	<path class="st0" d="M194.36,367.95c1.47,0.75,2.93,1.49,4.41,2.24c0.01,0-0.2-0.16-0.2-0.16c2.08,6.76,4.42,13.45,6.15,20.29
		c1.67,6.62-0.17,12.7-4.14,18.23c-1.75,2.44-2.96,5.26-4.74,7.68c-1.14,1.55-2.76,2.83-4.37,3.94c-1.47,1.02-3.22,1.64-4.85,2.44
		c0.23,0.7,0.47,1.4,0.7,2.1c2.14-0.71,4.28-1.42,6.35-2.11c1.15,2.52,2.49,5.47,3.84,8.42l-0.18-0.2c-3.13,2.4-5.86,4.97-4.2,10.18
		c0.61-1.63,0.7-3.15,1.48-3.72c1.97-1.44,4.58-3.76,6.33-3.32c2.14,0.54,4.59,3.25,5.27,5.51c1.46,4.88-0.99,9-4.88,11.94
		c-4.44,3.35-5.1,7.17-3.01,10.91c1.93-3.91,4.11-8.33,5.7-11.55c3.79,3.98,6.99,7.34,10.01,10.51c-5.92,3.71-8.39,11.29-7.72,21.23
		c-13.08-9.46-22.83-3.4-32.01,6.76c-1.63-6.35-2.79-11.86-4.46-17.22c-2.61-8.34-9.5-12.77-16.84-15.83
		c-5.84-2.44-10.39,1.86-15.81,5.47c0.47-3.34,1.06-6.66,1.4-10.01c0.58-5.83,1.37-11.67,1.4-17.51c0.04-7.9-4.99-12.97-11.2-16.75
		c-4.42-2.69-8.8-2.25-12.8,1.91c0.69-1.07,1.24-2.27,2.1-3.19c4.16-4.46,8.22-9.04,12.65-13.23c7.07-6.69,8.28-15.08,5.35-23.4
		c-3.19-9.08-10.76-14.57-20.01-17.24c-2.04-0.59-4.39-0.09-6.59-0.09c-0.09-0.47-0.17-0.94-0.26-1.41
		c6.83-0.95,13.66-2.73,20.48-2.67c15.74,0.13,30.31,4.76,43.66,13.31c7.14,4.57,14.64,8.58,22.61,13.21
		c1.87-8.23-3.61-12.47-7.34-17.59c2.21,0.4,4.07,0.73,5.93,1.06C194.54,368.07,194.36,367.95,194.36,367.95z M183.55,458.1
		c-0.34,1.72-0.69,3.45-1.22,6.11c8.94-11.59,9.25-11.67,14.06-4.45c-0.99-2.65-2.23-6.21-4.29-6.77c-2.06-0.56-4.94,1.86-7.46,2.98
		c0.16-12.54-1.11-14.48-12.67-19.5c-1.95,2.37-3.87,4.71-5.8,7.05c1.4,0.22,2.21-0.16,3.02-0.55c6.73-3.24,11-1.57,12.81,5.63
		c0.68,2.72-0.12,5.8-0.1,8.71C181.9,457.57,182.97,457.83,183.55,458.1z M182.37,405.43c3.87,5.83,8.47,6.35,11.1,1.25
		c2-3.88,0.39-11.43-4.33-15.8c1.23,4.22,2.53,7.09,2.81,10.06c0.31,3.3,0.12,6.94-4.66,7.81c-1.73-2.46-3.4-4.84-5.08-7.23
		c-0.22,0.15-0.44,0.3-0.66,0.46c0.12,0.54,0.25,1.08,0.37,1.62c-1.08-1.26-2.16-2.51-3.68-4.28c1.1,6.12,2.7,11.09,2.72,16.06
		c0.03,7.84-5.11,10.78-11.77,7.49c-0.78-0.38-1.69-0.57-2.35-1.1c-1.87-1.51-3.65-3.14-5.46-4.72c0.42-0.38,0.84-0.77,1.26-1.15
		c-1.05,2.38-2.09,4.76-3.47,7.89c5.26,3.06,11.88,6.91,18.49,10.76c0.19-0.18,0.37-0.37,0.56-0.55c-2.57-2.3-5.14-4.61-9-8.07
		c7.26,2.45,11.3-0.86,12.57-4.98C183.27,416.18,182.28,410.64,182.37,405.43z"/>
	<path class="st0" d="M359.37,439.44c2.41-1.73,5.78-2.83,2.78-5.99c-1.46-1.53-4.87-2.83-6.57-2.16
		c-3.75,1.49-3.32,6.82,0.92,12.93c-8.17-0.37-10.3,4.26-10.47,11.23c-0.1,4.02-2.76,6.53-8.6,6.83c2.01,2.34,4.03,4.68,5.99,6.97
		c-3.36,1.31-6.84,0.65-9.81-2.68c-4.08-4.56-4-6.86,0.82-10.85c3.5-2.89,7.08-5.61,6.84-12.12c-3.46,1.82-6.07,3.62-8.97,4.56
		c-1.52,0.49-3.53-0.54-6.57-1.13c-0.59,2.05-1.34,4.64-2.28,7.93c-0.84-1.04-3.16-2.65-3.26-4.38c-0.14-2.29,0.84-5.29,2.44-6.92
		c5.03-5.15,12-5.99,18.7-7.43c2.73-0.58,5.19-2.37,7.59-4.44c-4.73-4.28-9.14-6.75-15.2-3.87c-1.3,0.62-3.83-1.32-7.12-2.6
		c-0.79,1.8-1.96,4.42-3.17,7.16c-3.42-4.91-0.85-8.9,2.33-12.54c3.71-4.24,8.86-4.91,13.44-2.9c10.69,4.68,20.05,11.45,29.74,17.8
		c5.12,3.36,11.31,5.17,17.14,7.33c3.77,1.4,5.42-0.41,4.7-4.31c-0.21-1.11-0.54-2.23-0.99-3.27c-2.19-5.02-4.56-9.96-1.35-15.51
		c0.45-0.78-0.03-2.11-0.12-4.15c-1.61,1.94-2.63,3.17-3.95,4.76c-0.98-2.04-1.83-3.83-2.71-5.64c2.12-2.88,4.19-5.7,6.26-8.53
		c-0.38-0.38-0.77-0.77-1.15-1.15c-2.03,1.38-4.06,2.76-7.29,4.95c-0.34-4.66-2.24-9.57-0.58-12.35c3.65-6.12,10.22-2.54,15.69-2.21
		c0.14-0.46,0.28-0.93,0.42-1.39c-4.17-1.21-8.34-2.42-12.19-3.54c4.27-4.55,8.72-4.7,13.6,0.31c4.83,4.96,9.66,9.95,16.89,10.98
		c2.58,0.37,5.31-0.34,8.07-0.57c-4.68-1.84-9.1-2.94-12.82-5.19c-4-2.42-7.34-5.93-11.56-9.46c7.16-3.01,13.85-0.75,18.88,4.15
		c3.22,3.13,7.16,5.52,10.78,8.24c0.39-0.49,0.79-0.98,1.18-1.47c-3.52-4.16-7.03-8.32-10.8-12.77c8.9,0.06,10.31,1.03,12.6,8.87
		c2.89,9.86,0.64,19.56-0.88,30.9c-3.74-2.59-6.55-4.53-9.59-6.64c-15.53,7.63-17.72,22.96-16.78,40.14
		c-12.4-4.15-24.14-8.09-35.9-12.03c-2.1,7.77-0.67,10.21,6.38,11.91c4.66,1.13,5.43,5.06,5.51,8.91c0.07,3.52-0.83,6.91-5.29,6.99
		c0.59-2.56,1.17-5.1,1.97-8.6c-6.18,2.17-11.42,3.74-14.21-2.14c-1.5-3.16-1.7-7.09-1.85-10.7c-0.1-2.46,1.01-4.96,1.33-7.47
		c0.12-0.95-0.24-2.12-0.75-2.96c-0.68-1.12-2.01-1.9-2.53-3.06c-0.63-1.41-0.72-3.07-1.04-4.62c0.68-0.11,1.35-0.22,2.03-0.34
		c0.21,1.45,0.41,2.89,0.64,4.34C358.74,437.87,358.92,438.2,359.37,439.44z"/>
	<path class="st0" d="M501.75,427.78c0.68-1.61,1.79-3.12,1.88-4.7c0.16-2.73,0.7-6.22-0.69-8.1c-3.72-5.03-8.37-9.37-12.72-14.06
		c5.46-3.31,6.13-5.97,2.37-9.97c-2.7-2.87-5.94-5.23-8.83-7.71c1.86-1.93,4.77-3.59,4.87-5.41c0.11-1.89-2.49-3.94-3.94-5.9
		c-1.01-1.37-2.91-2.66-2.98-4.05c-0.38-7.86-1.58-15.39-5.6-22.37c-0.54-0.93,0.82-3.12,1.55-4.59
		c7.18-14.39,14.39-18.47,30.25-17.09c4.16,0.36,8.29,1.03,12.45,1.24c1.04,0.05,2.42-0.92,3.15-1.82c1.41-1.73,2.47-3.75,4.67-5.3
		c-0.46,1.4-0.83,2.85-1.41,4.21c-7.89,18.55-7.39,37.7-4.91,57.23c1.28,10.1,1.17,20.47,0.75,30.68
		C522.22,420.06,511.04,429.42,501.75,427.78z"/>
	<path class="st0" d="M274.15,313.78c1.22-1.63,3.55-3.45,3.27-4.67c-0.44-1.95-2.29-4.25-4.14-5.06c-3.74-1.65-3.32-3.3-1.2-5.86
		c0.87-1.05,2.15-3.21,1.82-3.57c-4.74-5.18-0.69-11-1.2-15.73c-2.91-2.32-5.37-4.29-8.28-6.61c-4.57,2.22-4.99,2.01-7.86-5.96
		c-2.39,0.91-4.76,1.81-6.94,2.63c-0.34-3.24,1.83-6.18,6.14-8.34c3.92-1.97,5.11,1.3,6.81,3.26c4.58,5.28,4.5,5.35,9.31,1.8
		c-2.05-3.63-4.05-7.19-6.39-11.33c-6.98-0.48-7.73-1.73-4.57-9.5c1.05-2.58-1.68-5.81-4.61-5.22c-1.28,0.26-2.42,1.24-3.62,1.89
		c-0.34-0.52-0.68-1.04-1.02-1.56c2.75-1.75,5.34-4.53,8.3-4.98c3.56-0.55,6.75,1.36,7.66,5.86c0.74,3.68,2.22,7.24,3.7,10.72
		c0.73,1.74,2.18,3.17,3.92,5.59c1.65-4.56,5.86-7.57,0.31-11.23c-0.75-0.49,0.18-3.76,0.55-5.69c0.42-2.15,2.22-5.15,1.41-6.16
		c-1.4-1.75-4.36-2.25-7.33-3.57c2.71-0.7,5.78-2.41,8.34-1.83c1.75,0.4,3.48,3.83,3.98,6.17c0.74,3.47,0.33,7.17,0.5,10.77
		c0.37,7.96-0.24,16.14,1.47,23.8c1.84,8.25,5.88,16.02,10.09,23.6c-1.05-3.96-2.09-7.92-3.14-11.88c0.4-0.19,0.8-0.38,1.2-0.57
		c3.7,7.37,7.39,14.73,11.09,22.1c0.5-0.23,1-0.46,1.49-0.69c-1.93-4.14-3.87-8.29-6.01-12.88c10.41,3.69,9.67,15.41,17.42,20.65
		c-1.31-3.2-2.62-6.41-3.89-9.54c12.7,2.55,11.37,14.55,16.75,22.63c-0.3-2.23-0.59-4.46-0.91-6.69c-0.32-2.22-0.67-4.44-1.15-7.64
		c3.96,1.6,7.27,4.08,10.3,3.78c2.42-0.24,4.5-3.87,7.02-6.28c0.68,1.71,1.6,3.92,2.44,6.16c1.29,3.43,2.32,6.96,3.82,10.29
		c1.88,4.17-2.56,18.65-6.63,20.97c-1.46,0.83-2.83,1.82-4.38,2.83c-9.3-16.15-22.93-28.19-37.13-39.64
		c-4.09-3.3-8.61-6.23-13.31-8.54c-2.69-1.32-6.16-1.35-9.28-1.34c-0.9,0-2.47,2.14-2.51,3.35c-0.06,1.53,1.04,3.14,1.8,4.64
		C282.99,311.56,281.35,314.16,274.15,313.78z"/>
	<path class="st0" d="M306.33,505.82c-0.99,2.54-1.98,5.08-2.79,7.17c-2.82-4.04-5.77-8.27-9.34-13.38
		c1.16,9.44,0.69,17.83-4.31,25.65c-1.38-6.66-2.7-13.05-4.02-19.45c-0.78-0.11-1.55-0.23-2.33-0.34
		c2.2,10.25-6.16,15.31-10.48,24.29c0-6.79,0-12.07,0-18.63c-5.9,5.43-6.55,11.13-5.8,18.39c-2.81-3.23-4.71-5.73-6.95-7.89
		c-1.76-1.7-3.92-2.98-6.65-4.07c0.25-12.79,10.97-21.59,14.63-32.67c5.68-0.48,11.03,0,15.74-1.51
		c11.01-3.5,12.51-13.03,3.75-20.81c-1.56-1.39-3.76-2.32-4.79-4c-1.25-2.04-2.55-4.91-2-6.93c0.5-1.83,3.44-3,5.97-3.51
		c-0.68,1.95-1.35,3.9-2.03,5.85c1.69,0.55,3.38,1.11,5.07,1.66c5.54,1.8,4.73,7.08,6.1,11.16c0.38,1.12,0.72,2.25,1.08,3.37
		c1.24-0.66,3.38-1.14,3.57-2.03c0.58-2.75,0.99-5.79,0.37-8.46c-0.62-2.68-2.62-5.02-3.91-7.56c-2.59-5.12-0.13-9.45,6.12-10.37
		c-1.74,1.84-3.3,3.49-5.78,6.1c13.36,1.51,7.31,11.42,8.94,16.19c4.76,0,9.52-1.2,12.86,0.45c2.03,1,1.88,6.42,2.71,9.85
		c-0.61,0.15-1.22,0.3-1.84,0.44c-0.66-1.66-1.32-3.33-1.69-4.26c-1.88,0.91-4.72,3.04-5.41,2.48c-2.81-2.26-4.71-0.42-5.2,1.36
		c-0.6,2.18,0.03,4.88,0.71,7.17c0.66,2.22,2.06,4.22,3.75,7.52c0.08,0.03,1.75,0.69,3.46,1.36c1.71-4.14,4.72-6.03,10.55-1.27
		c0.84-2.64,1.58-4.97,2.24-7.05c2.66,5.22-0.48,12.49-6.46,13.73c-2.96,0.61-6.05,0.55-9.07,0.86c-7.58,0.77-8.19,1.61-6.92,9.31
		C306.19,505.99,306.33,505.82,306.33,505.82z"/>
	<path class="st0" d="M471.85,153.88c-8.86,10.34-12.62,22.13-12.58,35.4c0.01,1.69-1.45,3.41-2.33,5.06
		c-6.37,12.1-13.24,23.97-18.97,36.36c-3.06,6.63-4.1,14.17-6.22,21.26c-0.75,2.49-2,4.84-2.81,6.76
		c-3.37-3.47-7.39-6.27-9.45-10.13c-1.85-3.45-2.84-8.33-2.01-12.1c6.65-30.17,20.57-56.29,44.44-76.53
		c2.16-1.83,4.68-3.26,7.09-4.79C469.87,154.62,470.89,154.3,471.85,153.88z"/>
	<path class="st0" d="M251.12,332.18c5,0.48,10.05,0.66,14.97,1.57c2.46,0.45,4.66,2.25,6.98,3.43c-1.07,1.97-2.14,3.95-3.22,5.92
		c-0.58-0.33-1.16-0.65-1.74-0.98c0.6-0.86,1.19-1.73,2.38-3.46c-8.46-1.1-16.59-2.16-23.48-3.05c-2.63,1.8-4.68,3.21-7.77,5.33
		c3.19-0.3,5.51-0.52,7.69-0.72c-2.91,3.36-5.94,6.86-9.08,10.5c-1.55-1.47-3.46-3.28-5.38-5.1c2.68,4.89,6.72,9.16,4.59,15.59
		c-3.55-1.46-7.09-2.92-10.62-4.37c-0.21,0.24-0.42,0.48-0.63,0.72c4.66,4.03,9.32,8.06,13.98,12.09c-0.31,0.4-0.62,0.8-0.93,1.2
		c-8.71-1.57-17.43-3.15-27.09-4.89c-0.81-8.48-1.63-17.08-2.46-25.75c8.63-0.3,9.79-1.79,7.19-8.07c2.19,2.24,4.38,4.47,6.58,6.71
		c-0.33,0.32-0.66,0.63-0.99,0.95c-1.14-0.21-2.28-0.43-3.42-0.64c0.38,0.41,0.75,0.83,1.13,1.24c-0.77,1.12-1.55,2.24-3.05,4.41
		c1.49,0.34,3.36,0.77,5.23,1.2c0.62-2.99,3.96-5.49,1.24-9.11c-1.33-1.76-1.98-4.03-2.94-6.08c0.7-0.3,1.39-0.61,2.09-0.91
		c1.41,6.66,1.41,6.66,12.62,4.65c-2.07-0.34-4.14,0.03-6.16-0.16c-1.41-0.13-2.74-1.03-4.11-1.58c0.8-1.4,1.59-2.79,2.39-4.19
		c0,1.53,0,3.06,0,3.77c3.9-0.53,7.21-1.37,10.51-1.34C242.12,331.08,246.62,331.77,251.12,332.18z"/>
	<path class="st0" d="M198.27,332.27c1.47,1.43,3.89,2.72,4.12,4.33c0.19,1.38-2.12,3.11-3.32,4.69c-0.44-0.34-0.89-0.69-1.33-1.03
		c0.55-0.75,1.1-1.49,2.5-3.4c-9.01,0-17.18,0-25.26,0c0.36,5.09-3.65,3.09-6.73,2.82c2.25,5.4,5.71,1.22,8.76,1.12
		c-2.5,3.29-4.87,6.41-7.54,9.92c-1.81-0.72-3.96-1.58-6.03-2.41c2.49,4.64,4.91,9.15,7.99,14.87c-9.8-0.98-16.78-3.13-22.76-8.6
		c-1.31-1.2-4.91,0.1-7.42,0.25c-2.71-8.33-2.04-9.64,7.71-13.54c-3.27,0-5.41,0.07-7.55-0.02c-1.97-0.08-3.94-0.33-5.85-1.34
		c3.42-0.96,6.85-1.92,11.38-3.18c-6.87-1.64-12.33-2.94-17.79-4.24c0.13-0.25,0.26-0.51,0.4-0.76c8.88-1.72,17.75-3.43,26.63-5.15
		l-0.22-0.18c-1.01,1.63-2.35,3.16-2.95,4.93c-0.59,1.74-1.16,4.17-0.38,5.5c0.75,1.29,3.24,2.16,4.95,2.15
		c2.11-0.02,4.21-1.14,6.32-1.78c-0.13-0.41-0.25-0.81-0.38-1.22c-1.96,0.58-3.92,1.16-5.88,1.73c2-1.52,3.8-3.85,6.03-4.39
		c5.34-1.29,10.89-1.73,16.36-2.52c0.6,0.84,1.22,2.42,1.8,2.41C187.31,333.06,192.79,332.63,198.27,332.27z"/>
	<path class="st0" d="M178.38,290.36c-0.45-0.75-0.74-1.99-1.36-2.18c-6.13-1.93-12.31-3.69-18.43-6.77
		c10.9,3.81,18.02-5.21,27.26-7.15c-0.6-1.18-1.17-2.31-2.59-5.13c4.73,2.15,8.12,3.7,12.22,5.56c0.36-2.27,0.8-5.01,1.45-9.04
		c1.89,3.25,3.37,5.67,4.73,8.16c1.59,2.91,3.22,5.31,6,1.92c3.33,3.98,6.27,8.19,9.95,11.6c1.78,1.65,4.94,1.82,7.48,2.61
		c0.96,0.3,1.97,0.44,2.96,0.65c-0.66,0.97-1.25,2.7-2,2.77c-4.38,0.43-8.8,0.71-13.19,0.57c-3.52-0.11-7.59-3.5-9.6,2.54
		c-0.26,0.78-2.55,0.87-3.91,1.28c0,0,0.28,0.18,0.28,0.18c-1.5-2.41-2.99-6.86-4.49-6.86c-5.79,0-11.59,1.41-17.38,2.3
		c1.99-1.43,3.98-2.86,7.34-5.29c-3.15,1.06-4.94,1.66-6.74,2.27C178.38,290.35,178.38,290.36,178.38,290.36z M207.27,285.04
		c0.25-0.47,0.51-0.95,0.76-1.42c-2.96-2.1-5.91-4.2-8.87-6.3c-0.36,0.52-0.73,1.04-1.09,1.57c1.27,0.72,2.55,1.43,4.81,2.71
		c-6.54,0.85-11.84,1.53-17.13,2.22c-0.01,0.41-0.03,0.82-0.04,1.22C192.89,285.04,200.08,285.04,207.27,285.04z"/>
	<path class="st0" d="M156.17,326.59c-6.52-1.83-13.04-3.66-19.55-5.49c-0.03-0.62-0.07-1.23-0.1-1.85
		c10.76,3.61,17.28-5.19,25.71-8.69c0.53,2.09,0.82,3.23,1.1,4.37c0.54-0.17,1.08-0.34,1.62-0.5c-1.22-2.42-2.43-4.84-4.19-8.34
		c4.09,1.24,7.41,2.24,11.59,3.51c0.2-2.24,0.45-4.9,0.73-8.03c1.76,1.62,3.68,3.38,5.6,5.14l-0.14-0.14
		c1.44,5.03,3.18,5.67,6.29,2.91c3.91,3.68,7.52,7.64,11.74,10.77c1.77,1.31,4.91,1.33,7.32,1.04c4.2-0.49,3.38,1.42,2.32,3.8
		c-4.59,0.83-9.57,3.18-13.67,2.12c-5.27-1.36-9.34-0.8-13.62,1.84c-1.64-1.22-3.51-3.69-4.88-3.44c-5.72,1.04-11.29,2.9-16.91,4.45
		c1.87-1.55,3.74-3.1,5.98-4.95c-2.5,0.46-4.83,0.88-7.17,1.31C155.95,326.4,156.17,326.59,156.17,326.59z M189.16,319.2
		c-4.89-2.83-8.68-5.03-12.48-7.23c-0.3,0.51-0.6,1.02-0.91,1.53c1.24,0.66,2.49,1.32,3.54,1.88c-2.7,1.09-5.3,2.14-7.89,3.2
		c0.14,0.65,0.29,1.31,0.43,1.96C177.17,320.13,182.49,319.72,189.16,319.2z"/>
	<path class="st0" d="M281.53,328.81c1.18-7.67,0.31-8.5-7.72-8.3c-1.59,0.04-3.22-1.65-4.52-3.1c15.85,3.72,17.9-5.21,14.58-14.96
		c7.47-0.29,35.64,23.01,40.83,34.66c-3.66-3.92-6.46-6.7-9.01-9.71c-2.67-3.15-5.52-4.38-9.35-2.08c-1.29,0.77-2.79,1.18-4.18,1.8
		C295.5,330.08,288.9,333.69,281.53,328.81z"/>
	<path class="st0" d="M228.95,323.75c0-1.3,0-2.61,0-2.87c-8.58,3.64-13.87-3.91-20.65-6.15c7.33,1.76,13.87,0.64,20.46-3
		c2.19-1.21,5.98,0.48,9.31,0.87c0-0.39,0-1.19,0-1.99c0.29-0.05,0.58-0.11,0.86-0.16c0.56,1.81,1.12,3.61,1.67,5.42
		c-1.26,0.87-2.51,1.73-4.39,3.03c5.72,0.6,9.97,1.91,13.84,1.2c3.35-0.62,8.45,2.04,10.08-3.65c0.37-0.46,0.74-0.91,1.12-1.37
		c3.82,2.88,7.59,5.82,11.51,8.57c0.74,0.52,2.07,0.15,3.1,0.34c1.09,0.21,2.15,0.59,3.22,0.9c-0.57,0.85-1.08,2.38-1.73,2.44
		c-4.54,0.44-9.34,1.57-13.6,0.55c-5.11-1.23-9.36-1.49-13.4,2.11c-1.94-1.52-3.79-4.18-5.8-4.29c-5.06-0.3-10.19,0.55-15.29,0.93
		c1.69-1.12,3.38-2.25,5.82-3.87C232.5,323.18,230.72,323.47,228.95,323.75z"/>
	<path class="st0" d="M425.23,268.62c5.89-2.84,11.23-3.44,13.96,1.17c2.3,3.89,3.65,9.45,2.76,13.72c-0.54,2.6-6.12,4.16-9.91,6.48
		c-1.24-6.96-2.17-12.23-3.11-17.5c-0.5,0.08-0.99,0.17-1.49,0.25c0.27,3.2,0.62,6.39,0.8,9.59c0.37,6.93-0.07,7.32-7.54,6.97
		c4.31-8.45,5.73-17.62-1.48-24.24c-5.43-4.99-4.04-9.94-4.49-15.77C422.24,253.45,427.05,258.61,425.23,268.62z"/>
	<path class="st0" d="M128.74,422.93c6.49,5.92,7.63,12.29,6.94,19.13c-0.44,4.34-1.46,8.62-2.21,12.93
		c-1.12,6.43,0.84,9.2,7.3,10.5c0.71,0.14,1.32,0.74,2,1.09c2.68,1.38,5.37,2.75,7.67,5.07c-2.65-1.16-5.29-2.32-8.3-3.63
		c1.76,9.74,3.38,18.74,5.11,28.32c-5.51-1.35-9.73-2.75-11.22-9.3C131.32,466.32,129.01,445.41,128.74,422.93z"/>
	<path class="st0" d="M194.54,368.07c-2.87-1.25-5.75-2.5-8.62-3.75c-0.29,0.5-0.59,0.99-0.88,1.49c2.2,2.68,4.4,5.35,6.6,8.03
		c-5.45-2.51-12.21-1.28-16.4-6.65c-3.8-4.87-4.62-12.73-1.01-17.92c1.72-2.48,3.87-4.73,6.14-6.73c3.16-2.76,6.39-1.39,8,2.58
		c1.39,3.43,3.47,6.58,5.58,10.49c-2.79-0.84-5.19-1.54-7.58-2.28c-2.51-0.77-5-1.57-8.29-2.6c0.66,4.33,3.7,5.37,6.7,6.7
		c5.84,2.59,11.57,5.43,17.34,8.17c-0.22,0.61-0.45,1.23-0.67,1.84c-2.38,0.16-4.76,0.32-7.13,0.49
		C194.36,367.95,194.54,368.07,194.54,368.07z"/>
	<path class="st0" d="M100.96,462.01c-8.11-6.29-15.82-12.27-23.53-18.26c0.11-0.35,0.23-0.7,0.34-1.05
		c4.96,1.71,9.92,3.42,14.88,5.13c0.27-0.31,0.55-0.61,0.82-0.92c-2.5-2.85-4.75-6-7.57-8.48c-3.62-3.18-5.81-6.27-3.3-11.21
		c0.72-1.41,0.38-3.35,0.57-5.59C97.24,431.81,99.75,446.56,100.96,462.01z"/>
	<path class="st0" d="M178.68,306.7c-0.47-1.28-0.94-2.57-1.58-4.32c2.29-0.5,4.72-1.03,7.14-1.56c-0.01-0.16-0.02-0.32-0.03-0.48
		c-1.93,0-3.91,0.27-5.78-0.08c-1.62-0.3-3.1-1.31-4.65-2.01c1.33-1.25,2.66-2.51,4-3.76c0.43,0.83,0.82,2.36,1.31,2.39
		c6.85,0.47,13.71,0.73,20.57,1.05c0,0-0.28-0.18-0.28-0.18c4.18,0.48,8.36,0.87,12.52,1.46c2.62,0.37,5.36,0.67,7.71,1.73
		c1.26,0.57,2.76,2.96,2.46,4.06c-0.41,1.49-2.44,2.53-4.71,2.8c0.76-0.9,1.52-1.8,2.93-3.47c-8.19-0.78-15.79-1.86-23.42-2.04
		c-2.68-0.06-5.41,2.1-9.24,3.72c3.38,0,5.96,0,9.17,0c-2.59,2.34-4.67,4.21-6.57,5.92c-1.92-2.37-3.73-4.59-6.01-7.41
		c-1.24,2.12-1.98,3.38-3.18,5.44c-1-1.37-1.74-2.39-2.48-3.41C178.54,306.56,178.68,306.7,178.68,306.7z"/>
	<path class="st0" d="M415.82,264.34c1.18,5.86,2.86,11.68,3.35,17.6c0.25,3.04-1.49,6-5.95,5.94c-1.99-0.03-4,1.84-6.01,2.84
		c-7.5-5.1-7.53-6.2-1.98-13.15c3.16-3.95,5.74-8.36,8.59-12.56C414.49,264.78,415.16,264.56,415.82,264.34z"/>
	<path d="M178.93,329.04c4.28-2.64,8.35-3.2,13.62-1.84c4.1,1.06,9.08-1.29,13.67-2.12c0.16,0.18,0.31,0.37,0.47,0.55
		c-0.51,0.67-1.03,1.34-1.08,1.41c4.87,1.25,9.77,2.51,14.68,3.76c0.96,2.04,1.61,4.31,2.94,6.08c2.72,3.61-0.62,6.12-1.24,9.11
		c-1.87-0.43-3.74-0.86-5.23-1.2c1.51-2.18,2.28-3.29,3.05-4.41c-0.38-0.41-0.75-0.83-1.13-1.24c1.14,0.21,2.28,0.43,3.42,0.64
		c0.33-0.32,0.66-0.63,0.99-0.95c-2.19-2.24-4.38-4.47-6.58-6.71c-6.08,0.05-12.16,0.1-18.24,0.15c-5.48,0.35-10.96,0.79-16.44,0.95
		c-0.57,0.02-1.2-1.57-1.8-2.4C179.66,330.23,179.3,329.63,178.93,329.04z"/>
	<path class="st0" d="M331.34,252.13c-5.04-0.44-9.57-0.84-14.1-1.24c-0.02,0.47-0.04,0.94-0.05,1.41c-2.15-1.82-4.3-3.65-6.44-5.47
		c2.28-6.64,5.39-8.47,11.89-7.06c1.46,0.32,2.94,0.62,4.43,0.71c3.78,0.25,5.14,1.16,3.08,5.33
		C329.25,247.59,331.02,250.68,331.34,252.13z"/>
	<path class="st0" d="M178.38,290.35c-2.92,3.36-6.13,6.52-8.58,10.19c-0.74,1.11,0.65,3.64,1.25,6.42c-2-0.57-3.41-0.97-5.12-1.46
		c0.87-1.07,1.54-1.9,1.77-2.18c-4.06-0.64-8.35-1.31-14.1-2.21c6.13-1.28,10.61-2.22,14.75-3.08c-6.71-1.97-13.43-3.94-20.15-5.92
		c0.16-0.59,0.31-1.17,0.47-1.76c9.9,0,19.81,0,29.71,0C178.38,290.36,178.38,290.35,178.38,290.35z"/>
	<path class="st0" d="M195.04,346.49c2.29,0.32,4.1,0.57,5.42,0.75c1.82-2.99,3.38-5.57,5.7-9.38c0.49,9.73,0.89,17.84,1.29,25.94
		C201.86,361.81,196.51,354.5,195.04,346.49z"/>
	<path class="st0" d="M173.18,569.52c-5.01-7.84-8.93-13.98-13.05-20.44c8.9-0.71,15.89,3.84,17.24,11.65
		C177.75,562.94,175.11,565.67,173.18,569.52z"/>
	<path class="st0" d="M392.87,202.26c-5.58,3.41-11.16,6.82-16.73,10.22c0.41-4.22-0.51-9.66,1.69-13.1
		c2.3-3.61,7.59-5.32,11.96-7.23c-3.42,7.43-3.42,7.43,3.07,10.09C392.86,202.25,392.87,202.26,392.87,202.26z"/>
	<path class="st0" d="M261.25,315.08c-0.37,0.46-0.74,0.91-1.12,1.37c-1.06,0.02-2.4,0.47-3.14-0.01c-2.43-1.55-4.66-3.44-6.96-5.19
		c-0.36,0.51-0.71,1.03-1.07,1.54c1.36,0.89,2.72,1.79,4.95,3.26c-4.83,0.67-8.67,1.21-12.62,1.76c0.22-0.72,0.38-1.25,0.55-1.78
		c0.5-0.7,1.23-1.34,1.46-2.12c0.72-2.47-1.2-5.94,3.24-7.07c0.7-0.18,0.5-3.92,0.87-7.51c1.98,3.36,3.49,5.9,4.96,8.46
		c1.54,2.69,3.02,5.49,6.63,1.04C259.81,311.03,260.53,313.06,261.25,315.08z"/>
	<path class="st0" d="M145.75,294.29c2.27,0.89,4.14,1.63,6.01,2.36c-0.43,0.33-0.86,0.65-1.29,0.98c0.8,1.86,1.1,4.46,2.51,5.43
		c4.61,3.19,4.08,5.61-0.25,8.33c-2.16,1.36-4.15,2.99-6.97,5.05C145.75,308.56,145.75,301.72,145.75,294.29z"/>
	<path class="st0" d="M264.18,342.53c-4.2,1.78-8.59,4.16-13.27,5.5c-6.13,1.75-7.93,5.83-7.87,11.51c0.03,2.63,0,5.25-0.61,7.83
		c0.73-6.95-3.54-14.47,2.67-20.87C250.63,340.81,256.45,337.26,264.18,342.53z"/>
	<path d="M229.25,326.64c5.1-0.39,10.23-1.23,15.29-0.93c2,0.12,3.85,2.77,5.8,4.29c0.27,0.74,0.53,1.46,0.78,2.18
		c-4.5-0.41-9-1.1-13.51-1.14c-3.3-0.03-6.61,0.81-10.51,1.34c0-0.7,0-2.23,0-3.77C227.82,327.96,228.54,327.3,229.25,326.64z"/>
	<path class="st0" d="M302.89,271.06c3.77,0,7.25,0.41,10.58-0.11c3.43-0.53,6.72-1.97,10.07-3.01c0.14,0.64,0.28,1.28,0.42,1.92
		c-6.56,1.19-13.12,3.23-19.68,3.22c-3.29,0-7.31-3.1-9.68-5.91c-3.29-3.92-0.15-8.76,5.54-8.9c-1.29,0.84-3.02,1.36-3.23,2.24
		c-0.51,2.15-0.33,4.46-0.42,6.71c1.85-0.48,4.39-0.37,5.42-1.56c3.2-3.69,6.8-5.16,12.46-3.89
		C309.86,264.02,303.67,262.62,302.89,271.06z"/>
	<path d="M199.64,297.93c-6.86-0.32-13.72-0.58-20.57-1.05c-0.49-0.03-0.87-1.56-1.31-2.39c0-0.37,0-0.75,0-1.12
		c5.79-0.89,11.59-2.3,17.38-2.3C196.65,291.08,198.15,295.53,199.64,297.93z"/>
	<path class="st0" d="M197.51,431.01c-0.98-12.32-0.32-14.55,6.29-20.95c1.68,1.79,3.35,3.59,5.45,5.84c-2.96,0-5.51,0-8.06,0
		c-0.28,0.61-0.56,1.23-0.84,1.84c2.38,1.27,4.75,2.54,8.06,4.31c-3.65,0.81-6.53,1.44-10.92,2.41c2.81,2.09,4.44,3.3,6.77,5.04
		c-2.74,0.52-4.84,0.92-6.94,1.32C197.32,430.81,197.51,431.01,197.51,431.01z"/>
	<path class="st0" d="M349.83,251.19c1.51-0.89,3.02-1.78,4.53-2.67c0,0-0.2,0.21-0.2,0.21c2.61-3.11,5.05-6.38,7.88-9.28
		c3.37-3.45,7-3.99,11.1,0.54c-1.55,0.65-2.68,1-3.69,1.57c-3.11,1.77-7.24,2.93-9.01,5.62c-2.95,4.48-5.89,6.05-10.74,3.88
		L349.83,251.19z"/>
	<path class="st0" d="M216.09,311.84c-3.92-0.67-6.86-1.39-9.85-1.61c-2.34-0.18-4.73,0.26-7.09,0.42c1.05,2.18,2.09,4.35,3.62,7.53
		c-1.91-0.46-4.64-0.31-5.94-1.6c-2.16-2.14-2.14-4.69,0.84-7.09C203.67,304.66,211.21,305.05,216.09,311.84z"/>
	<path d="M241.85,316.02c-0.16,0.53-0.33,1.06-0.55,1.78c3.94-0.55,7.78-1.09,12.62-1.76c-2.24-1.47-3.6-2.36-4.95-3.26
		c0.36-0.51,0.71-1.03,1.07-1.54c2.3,1.76,4.52,3.64,6.96,5.19c0.75,0.48,2.08,0.03,3.14,0.01c-1.64,5.69-6.73,3.03-10.08,3.65
		c-3.87,0.71-8.12-0.59-13.84-1.2c1.88-1.3,3.13-2.17,4.39-3.03C241.02,315.92,241.44,315.97,241.85,316.02z"/>
	<path class="st0" d="M409.1,227.79c-3.21-3.44-5.7-6.11-8.47-9.08c4.81-2.62,9.07-4.66,13.42,0.77
		C412.57,221.95,411.08,224.45,409.1,227.79z"/>
	<path class="st0" d="M220.28,330.8c-4.9-1.26-9.81-2.51-14.68-3.76c0.05-0.07,0.57-0.74,1.08-1.41c7.25-0.51,14.49-1.02,21.74-1.53
		c-2.02,1.93-4.03,3.86-6.05,5.79C221.67,330.2,220.97,330.5,220.28,330.8z"/>
	<path class="st0" d="M137.53,345.4c-0.4,2.59-0.73,4.78-1.07,6.95c-7.33,0.4-7.64-0.16-5.99-11.23
		C132.86,342.57,135.02,343.88,137.53,345.4z"/>
	<path class="st0" d="M423.47,199.46c-3.28,8.83-3.29,8.84-11.47,7.45C413.86,201.31,418.49,200.4,423.47,199.46z"/>
	<path d="M222.37,329.89c2.02-1.93,4.03-3.86,6.05-5.79c0.18-0.1,0.36-0.22,0.53-0.35c1.77-0.28,3.55-0.57,6.13-0.98
		c-2.45,1.63-4.14,2.75-5.82,3.87c-0.72,0.66-1.43,1.32-2.15,1.98c-0.8,1.4-1.59,2.79-2.39,4.19c1.37,0.55,2.7,1.45,4.11,1.58
		c2.02,0.19,4.1-0.18,6.16,0.16C223.78,336.55,223.78,336.55,222.37,329.89z"/>
	<path class="st0" d="M349.71,251.06c-0.6,1.78-1.2,3.56-1.41,4.18c-6.06,3.17-11.82,6.18-17.57,9.18c-0.17-0.25-0.34-0.5-0.51-0.75
		c6.53-4.17,13.06-8.33,19.6-12.49C349.83,251.19,349.71,251.06,349.71,251.06z"/>
	<path class="st0" d="M270.94,332.89c12.46-2.05,19.71,0.23,21.3,12.41c-3.26-4.43-5.01-8.89-8.21-10.59
		C280.42,332.81,275.49,333.4,270.94,332.89z"/>
	<path class="st0" d="M129.64,395.52c0-6.43,0-11.85,0-17.58C133.96,382.7,134.06,388.55,129.64,395.52z"/>
	<path class="st0" d="M417.1,225.27c-1.09,4.82-2.18,9.65-3.44,15.22C408.96,233.47,414,229.6,417.1,225.27z"/>
	<path d="M457.38,468.97c-1.14-2.07-2.28-4.13-3.41-6.2c3.85-0.95,5.75,0.68,8.97,8.01c-1.85-0.48-3.39-0.88-4.93-1.28
		C457.79,469.34,457.58,469.16,457.38,468.97z"/>
	<path class="st0" d="M207.64,387.59c3.08,2.49,5.21,4.21,7.98,6.45c-2.55,0.99-4.36,1.69-6.83,2.64
		C208.43,393.87,208.12,391.41,207.64,387.59z"/>
	<path d="M487.57,208.13c-11.63,7.81-20.52,17.96-27.43,31.04c7.48-4.64,14.29-8.86,21.09-13.09c0.14,0.29,0.27,0.58,0.41,0.87
		c-6.62,5.93-13.36,11.74-19.77,17.89c-1.32,1.26-2.52,4.72-1.83,5.54c1.27,1.51,3.98,2.51,6.07,2.47c7.35-0.13,14.7-0.8,22.05-1.26
		c0.1,0.76,0.21,1.51,0.31,2.27c-8.62,1.1-17.23,2.21-26.4,3.38c6.69,5.07,12.62,9.56,18.55,14.05c-0.25,0.38-0.5,0.75-0.74,1.13
		c-6.74-3.68-13.48-7.37-20.22-11.05c-0.28,0.44-0.55,0.87-0.83,1.31c6.54,7.4,13.09,14.79,19.63,22.19
		c-0.41,0.39-0.83,0.77-1.24,1.16c-1.16-0.93-2.33-1.85-3.49-2.78c-0.42,0.41-0.83,0.82-1.25,1.24c5.37,5.93,10.73,11.85,16.1,17.78
		c-0.13,0.23-0.25,0.46-0.38,0.69c-4.15-3.5-8.94-6.47-12.32-10.6c-7.08-8.67-13.55-17.85-20-27.01c-2.76-3.92-0.97-7.43,2.33-10.19
		c-9.24-16.84-6.35-40,6.9-49.97c-3.65,10.79-7.02,20.78-10.4,30.78c0.7,0.41,1.41,0.81,2.11,1.22
		C463,223.06,472.97,213.08,487.57,208.13z"/>
	<path d="M434.2,315.08c-0.66,4.66-1.32,9.33-2.06,14.58c-3.54-6.91-1.25-23.88,3.49-29c3.09-3.35,7.22-3.41,10.3,0.06
		c1.71,1.92,3.1,4.11,4.92,6.57c0.59-5.44,0.88-10.31,1.7-15.08c1.47-8.58,7.37-10.85,14.4-5.49c3.13,2.38,5.82,5.34,8.05,8.97
		c-3.97-2.33-7.81-4.96-11.98-6.86c-1.69-0.77-4.1,0.04-6.19,0.13c0.35,1.97,0.28,4.16,1.15,5.88c2.39,4.73,5.18,9.26,7.81,13.87
		c-0.64,0.38-1.29,0.77-1.93,1.15c-1.98-2.98-3.96-5.95-5.95-8.93c-0.31,0.07-0.62,0.13-0.94,0.2c1.21,5.27,2.42,10.53,3.63,15.8
		c-0.28,0.08-0.56,0.16-0.84,0.24c-1.77-4.24-3.54-8.49-5.31-12.73c-0.27,0.09-0.53,0.18-0.8,0.27c2.62,10.37,5.24,20.74,7.86,31.12
		c-0.16,0.06-0.32,0.12-0.48,0.17c-6.04-10.13-12.09-20.26-18.13-30.39c-0.42,0.26-0.84,0.52-1.26,0.77
		c0.47,6.14,1,12.27,1.32,18.41c0.02,0.41-1.49,0.9-2.77,1.63c-0.65-7.08-1.26-13.75-1.87-20.42c-0.49-0.13-0.98-0.25-1.48-0.38
		c-0.94,3.21-1.88,6.42-2.82,9.63C434.04,315.24,434.2,315.08,434.2,315.08z"/>
	<path d="M378.73,238.05c3.86,8.43,1.9,11.83-7.4,14.57c6.34,3.15,6.4,3.11,11.99-7.19c0.53,0.14,1.06,0.29,1.59,0.43
		c-0.85,2.74-0.89,6.54-2.75,7.97c-2.69,2.06-6.66,3.08-10.15,3.28c-3.03,0.17-6.17-1.41-10.47-2.53c2.17-1.68,3.92-4.1,6.04-4.49
		C377.7,248.25,377.74,248.44,378.73,238.05z"/>
	<path d="M356.33,232.11c4.15-10.96,4.53-11.09,14.67-8.19c2.3,0.66,4.92,0.23,7.21,0.91c2.25,0.66,4.28,2.09,5.98,4.48
		c-5.79-1.24-11.58-2.49-18.11-3.89c1.35,0.93,2.13,1.48,3.34,2.31C365.13,229.16,361.13,230.5,356.33,232.11z"/>
	<path d="M459.35,376.71c1.52-1.36,3.04-2.73,4.56-4.09c0.07-0.58-1.88,7.3,6.95,3.72c-1.5,2.66-2.42,4.28-3.33,5.89
		c-1.63-0.93-3.27-1.84-4.89-2.79c-2.12-1.25-4.21-2.54-6.32-3.82C457.33,375.98,458.34,376.35,459.35,376.71z"/>
	<path d="M389.67,210.16c1.98,1.24,3.96,2.49,5.95,3.73c0.95-0.72,1.91-1.44,2.86-2.16c-3.01,0.5-6.31,0.39-8.96,1.64
		c-3.6,1.7-4.38,4.64-1.2,8.32c-1.01-0.67-2.89-1.35-2.88-2c0.04-2.17,0.19-4.71,1.34-6.4c1.68-2.49,4.26-4.36,6.46-6.5
		C392.05,207.91,390.86,209.04,389.67,210.16z"/>
	<path d="M436.24,344.45c-3.81-2.67-7.9-5.54-11.87-8.32C430.12,333.25,433.8,335.85,436.24,344.45z"/>
	<path d="M434.04,315.24c4.47,1.77,5.65,9.08,1.72,14.06c-0.55-5.07-1.05-9.65-1.56-14.22C434.2,315.08,434.04,315.24,434.04,315.24
		z"/>
	<path d="M403.78,337.4c0.64-8.57-6.21-7.92-12.58-9.56c1.69-1.27,2.86-2.58,3.26-2.38c3.42,1.73,6.97,3.43,9.9,5.83
		c1.1,0.9,0.69,3.65,0.96,5.56C404.81,337.03,404.29,337.22,403.78,337.4z"/>
	<path d="M462.64,449.63c2.26-1.46,4.52-2.92,7.3-4.72c0,1.64,0.53,5.23-0.09,5.44c-2.35,0.81-5.09,0.51-7.68,0.63
		C462.33,450.54,462.49,450.08,462.64,449.63z"/>
	<path d="M459.35,387.86c1.04,0.98,2.08,1.97,4.14,3.92c0.62-1.48,1.27-2.99,1.91-4.51c0.64,0.57,1.28,1.15,1.92,1.72
		c-1.58,1.87-3.15,3.73-4.73,5.6c-1.69-1.71-3.37-3.42-5.06-5.13C458.13,388.93,458.74,388.4,459.35,387.86z"/>
	<path d="M417.81,342.49c-3.25-1.82-6.8-3.8-9.92-5.55C413.17,334.52,416.61,336.47,417.81,342.49z"/>
	<path d="M463.77,463.35c-2.3-1.86-4.59-3.71-6.89-5.57c0.43-0.58,0.85-1.15,1.28-1.73c4.31-0.93,5.46,2.54,6.7,5.87
		C464.49,462.41,464.13,462.88,463.77,463.35z"/>
	<path d="M226.84,427.53c3.56,0.43,6.26,2.34,5.51,6.1c-0.32,1.62-3.46,3.73-5.25,3.67c-1.4-0.05-2.69-3.11-4.04-4.83
		c0.52-0.43,1.05-0.85,1.57-1.28c1.15,0.99,2.3,1.99,3.45,2.98c0.45-0.24,0.9-0.49,1.35-0.73
		C228.61,431.57,227.79,429.7,226.84,427.53z"/>
	<path d="M233.33,438.03c0.81,0.99,1.62,1.97,3.11,3.79c1.04-2.45,1.84-4.33,2.64-6.22c0.44,0.04,0.88,0.08,1.32,0.12
		c-0.24,2.13-0.02,4.48-0.9,6.3c-0.46,0.97-3.21,1.8-4.24,1.3c-1.44-0.71-2.25-2.72-3.33-4.18
		C232.4,438.77,232.87,438.4,233.33,438.03z"/>
	<path d="M140.28,208.43c6.53,0,12.77,0.1,18.99-0.02c10.45-0.2,20.89-0.73,31.33-0.69c2.33,0.01,4.65,1.83,6.97,2.82
		c-0.22,0.73-0.44,1.45-0.65,2.18c-16.8,0-33.6,0-50.99,0c0,17.42,0,34.25,0,52.08c-4.42-2.97-6.8-5.53-6.63-10.42
		c0.45-13.14,0.43-26.3,0.62-39.45C139.95,213.08,140.12,211.22,140.28,208.43z"/>
	<path d="M235.24,208.15c11.51-1.9,13.9-1.26,15.25,4.06C240.35,214.65,236.1,213.52,235.24,208.15z"/>
	<path d="M232.72,213.39c-4.65-1.97-11.24,3.41-13.53-5.07C229.37,206.33,231.27,206.95,232.72,213.39z"/>
	<path d="M209.43,207.69c2.07,0,4.14,0,6.65,0c0.45,1.47,0.92,3.01,1.62,5.33c-2.18,0-4.21,0.54-5.67-0.14
		c-1.63-0.76-2.75-2.63-4.1-4.01C208.44,208.48,208.93,208.08,209.43,207.69z"/>
	<path d="M206.38,212.61c-4.07,0.83-7.49,1.13-7.89-4.14C204.75,206.82,204.79,206.84,206.38,212.61z"/>
	<path d="M182.37,405.43c-0.08,5.21,0.9,10.75-0.57,15.53c-1.27,4.13-5.31,7.43-12.57,4.98c3.86,3.46,6.43,5.77,9,8.07
		c-0.19,0.18-0.37,0.37-0.56,0.55c-6.62-3.85-13.24-7.7-18.49-10.76c1.38-3.13,2.42-5.51,3.47-7.89c-0.42,0.38-0.84,0.77-1.26,1.15
		c1.81,1.58,3.59,3.22,5.46,4.72c0.65,0.53,1.57,0.72,2.35,1.1c6.66,3.28,11.8,0.34,11.77-7.49c-0.02-4.97-1.62-9.94-2.72-16.06
		c1.52,1.76,2.6,3.02,3.68,4.28C182.07,404.21,182.22,404.82,182.37,405.43z"/>
	<path d="M183.55,458.1c-0.58-0.27-1.65-0.53-1.65-0.8c-0.02-2.91,0.79-5.99,0.1-8.71c-1.81-7.2-6.08-8.87-12.81-5.63
		c-0.81,0.39-1.63,0.77-3.02,0.55c1.92-2.34,3.85-4.68,5.8-7.05c11.57,5.03,12.83,6.96,12.67,19.5
		C184.27,456.67,183.91,457.39,183.55,458.1z"/>
	<path d="M182.37,405.43c-0.15-0.61-0.29-1.21-0.44-1.82c-0.12-0.54-0.25-1.08-0.37-1.62c0.22-0.15,0.44-0.3,0.66-0.46
		c1.68,2.39,3.35,4.77,5.08,7.23c4.78-0.87,4.97-4.52,4.66-7.81c-0.28-2.97-1.58-5.84-2.81-10.06c4.72,4.37,6.33,11.92,4.33,15.8
		C190.83,411.77,186.23,411.26,182.37,405.43z"/>
	<path d="M183.55,458.1c0.36-0.71,0.72-1.43,1.08-2.14c2.52-1.12,5.4-3.54,7.46-2.98c2.06,0.56,3.3,4.12,4.29,6.77
		c-4.81-7.22-5.12-7.14-14.06,4.45C182.86,461.55,183.21,459.83,183.55,458.1z"/>
	<path d="M178.93,329.04c0.37,0.6,0.73,1.19,1.1,1.78c-5.47,0.78-11.01,1.22-16.36,2.51c-2.23,0.54-4.04,2.87-6.03,4.39
		c-5.13-2.24-2.44-4.98-0.5-7.67c5.62-1.56,11.19-3.41,16.91-4.45C175.42,325.34,177.29,327.82,178.93,329.04z"/>
	<path d="M157.14,330.04c-1.94,2.69-4.63,5.44,0.5,7.67c1.96-0.58,3.92-1.16,5.88-1.73c0.13,0.41,0.25,0.81,0.38,1.22
		c-2.11,0.64-4.21,1.77-6.32,1.78c-1.72,0.01-4.2-0.86-4.95-2.15c-0.78-1.33-0.21-3.76,0.38-5.5c0.6-1.77,1.93-3.3,2.95-4.93
		c2.34-0.43,4.67-0.86,7.17-1.31C160.88,326.95,159.01,328.5,157.14,330.04z"/>
	<path d="M207.27,285.04c-7.19,0-14.37,0-21.56,0c0.01-0.41,0.03-0.82,0.04-1.22c5.29-0.68,10.58-1.37,17.13-2.22
		c-2.27-1.28-3.54-1.99-4.81-2.71c0.36-0.52,0.73-1.04,1.09-1.57c2.96,2.1,5.91,4.2,8.87,6.3
		C207.78,284.1,207.52,284.57,207.27,285.04z"/>
	<path d="M189.16,319.2c-6.67,0.52-11.99,0.93-17.31,1.34c-0.14-0.65-0.29-1.31-0.43-1.96c2.6-1.05,5.19-2.1,7.89-3.2
		c-1.05-0.56-2.3-1.22-3.54-1.88c0.3-0.51,0.6-1.02,0.91-1.53C180.48,314.17,184.27,316.37,189.16,319.2z"/>
</g>
</svg>
