<?xml version="1.0" encoding="utf-8"?>
<!-- Generator: Adobe Illustrator 24.3.0, SVG Export Plug-In . SVG Version: 6.00 Build 0)  -->
<svg version="1.1" id="Layer_1" xmlns="http://www.w3.org/2000/svg" xmlns:xlink="http://www.w3.org/1999/xlink" x="0px" y="0px"
	 viewBox="0 0 612 792" style="enable-background:new 0 0 612 792;" xml:space="preserve">
<style type="text/css">
	.st0{fill:#FFFFFF;}
</style>
<g>
	<path class="st0" d="M61.91,0c162.91,0,325.82,0,488.73,0c0,264,0,528,0,792c-162.91,0-325.82,0-488.73,0
		C61.91,528,61.91,264,61.91,0z M454.65,597c-8.68-2.98-14.44-5.06-20.26-6.93c-16.93-5.43-25.07-20.18-20.08-37.53
		c1.98-6.88,0.5-10.76-6.32-13.7c-13.01-5.61-18.67-21.79-12.58-33.95c3.16-6.31,6.24-12.66,10.71-21.72
		c-10.21,4.81-17.46,7.29-23.66,11.37c-8.02,5.28-15.23,4.82-20.92-2.06c-8.47-10.25-16.41-20.16-31.95-15.15
		c-0.92,0.3-2.47-1.34-3.15-1.74c3.46-15.4,13.17-18.28,26.42-16.17c8.2,1.31,16.65,1.53,24.99,1.47
		c38.29-0.31,73.16,7.14,96.31,42.76c13.35-48.45-1.37-89.33-43.09-121.78c3.16,13.16,6.5,26.01,9.29,38.99
		c2.13,9.89-1.92,15.71-12.49,14.77c-14.94-1.34-29.99-2.43-44.69-5.21c-29.57-5.59-31.41-9.56-19.25-37.6
		c3.36-7.74,4.13-14.49-0.1-22.36c-6.48-12.06-13.37-24.27-17.31-37.26c-12.37-40.8-15.83-83.92-31.95-123.91
		c-2.3-5.71,0.14-14.98,3.48-20.85c3.49-6.14,4.26-9.55-0.37-15.16c-9.36-11.35-4.39-23.74,9.85-26.05
		c20.49-3.32,40.99-6.63,61.48-9.94c-0.02-0.85-0.03-1.69-0.05-2.54c-16.4-5.39-32.8-10.78-52.07-17.1
		c15.08-5.86,27.19-10.57,42.7-16.59c-19.05-4.22-34.34-8.58-49.93-10.76c-12.56-1.76-18.67-7.42-21.39-19.72
		c-3.13-14.18-8.25-27.93-12.51-41.86c-6.93,14.99-11.54,29.27-15.5,43.72c-2.29,8.35-4.05,16.25-15.21,16.52
		c-1.97,0.05-5.17,3.26-5.58,5.43c-3.18,16.61-5.81,33.32-8.72,50.62c7.94,1.45,15.62,2.86,26.94,4.93
		c-2.85,9.16-5.63,17.47-7.94,25.91c-0.8,2.93-1.85,7.64-0.39,9.04c12.53,12,5.44,19.32-5.44,26.19
		c-5.63,3.56-10.78,8.1-16.77,10.81c-4.22,1.91-9.49,1.49-14.48,2.13c5.42-21.85,10.21-41.16,15-60.47
		c-4.45,3.35-6.36,7.43-7.72,11.68c-3.94,12.31-7.87,24.63-11.37,37.06c-1.43,5.08-4.27,12.67-2.02,15.27
		c5.05,5.85,13.11,6.85,20.38,1.83c7.43-5.13,14.75-10.43,23.28-16.48c-14.37,36.82-25.06,72.17,3.86,105.62
		c-10.36-5.74-20.72-11.48-27.94-15.49c-3.17-18.04-5.67-34.26-9-50.29c-1.6-7.71-5.54-11.04-14.46-6.59
		c-10.21,5.09-21.49,8.03-32.31,11.9c49.58-72.89,62.36-152.93,57.88-237.11c-3.17,17-4.7,34.29-5.85,51.6
		c-1.39,20.96-1.26,20.94-21.48,25.75c-2.73,0.65-5.36,1.73-10.53,3.43c7.57,2.81,13.28,4.22,18.19,7.01
		c2.95,1.68,6.54,5.6,6.43,8.37c-0.11,2.89-3.81,6.91-6.86,8.16c-9.44,3.86-19.32,6.64-29.03,9.85c0.13,0.67,0.25,1.35,0.38,2.02
		c10.82,1.91,21.64,3.83,34.13,6.04c-2.56,8.49-3.86,16.37-7.21,23.26c-14.53,30-29.76,59.65-44.43,89.59
		c-1.63,3.33-1.29,7.63-1.87,11.49c3.76,0.32,7.84,1.75,11.22,0.76c12.61-3.68,25-8.16,40.45-13.33
		c1.78,21.54,3.47,41.97,5.18,62.65c1.93,0.38,3.7,0.35,5.09,1.07c9.08,4.66,18.56,8.81,26.74,14.74c1.94,1.41-1.09,8.98-0.83,13.66
		c0.14,2.56,2.38,5,3.68,7.5c1.26,2.43,3.38,4.78,3.65,7.32c1.93,18.18-3.07,34.12-17.49,45.88c-3.64,2.96-10.26,5.6-13.97,4.23
		c-3.86-1.44-6.2-7.72-8.55-12.23c-1.61-3.09-1.1-7.75-3.29-10c-12.81-13.13-26.14-25.75-40.74-39.94
		c-9.61,27.93,7.42,53.53,11.9,82.03c-14.85,1.33-28.87,3.24-42.93,3.66c-11.84,0.35-14.92-3.86-12.42-15.72
		c2.64-12.55,6.19-24.91,9.34-37.36c-11.69,11.57-21.19,24.66-32.14,36.39c-11.97,12.83-16.55,27.95-16.43,44.6
		c0.1,13.02,2.02,26.03,2.94,36.72c14.15-10.2,27.81-20.66,42.25-29.92c2.69-1.73,10.26-0.16,12.51,2.49
		c10.51,12.4,20.12,25.59,29.61,38.81c1.52,2.12,2.23,7.03,0.89,8.63c-5.82,6.96-12.73,13-18.83,19.75
		c-2.31,2.56-5.72,7.71-4.81,9.02c6.43,9.23-0.34,17.65-0.42,26.34c-0.07,7.97-4.19,10.71-11.02,12.49
		c-8.68,2.27-17.12,5.44-28.73,9.22c10.98,3.96,18.67,6.77,26.38,9.51c11.65,4.13,20.76,21.13,15.83,32.26
		c-3.79,8.56-0.94,11.96,6.42,15.28c12.34,5.57,16.86,20.19,10.69,32.31c-3.62,7.12-7.04,14.35-11.75,24
		c9.79-4.66,16.55-7.86,23.3-11.1c15.47-7.43,23.66-4.14,32.77,11.16c1.91,3.21,8.97,5.9,12.74,5.01
		c16.19-3.86,30.9,3.32,36.17,19.04c2.46,7.34,5.07,14.63,8.56,24.68c3.77-10.81,6.65-18.98,9.45-27.17
		c4.01-11.73,22.7-21.76,34.42-17.03c9.07,3.66,12.45,1.29,15.66-7.32c4.05-10.86,17.87-14.97,28.49-9.82
		c7.84,3.81,15.7,7.57,26.36,12.71c-4.69-9.32-6.95-15.81-10.83-21.13c-7.98-10.93-6.5-20.5,2.55-29.54
		c2.46-2.46,6.12-3.8,8.31-6.42c2.66-3.18,6.53-7.44,6.12-10.76c-3.23-25.81-0.62-30.78,22.78-39.13
		C442.11,601.79,446.76,599.97,454.65,597z"/>
	<path d="M454.65,597c-7.89,2.96-12.54,4.79-17.23,6.46c-23.4,8.36-26,13.33-22.78,39.13c0.42,3.32-3.46,7.59-6.12,10.76
		c-2.19,2.62-5.85,3.96-8.31,6.42c-9.05,9.04-10.53,18.6-2.55,29.54c3.88,5.31,6.14,11.8,10.83,21.13
		c-10.66-5.14-18.52-8.9-26.36-12.71c-10.61-5.15-24.43-1.04-28.49,9.82c-3.21,8.61-6.6,10.98-15.66,7.32
		c-11.72-4.73-30.41,5.31-34.42,17.03c-2.8,8.19-5.68,16.35-9.45,27.17c-3.49-10.05-6.1-17.34-8.56-24.68
		c-5.27-15.71-19.98-22.89-36.17-19.04c-3.77,0.9-10.83-1.8-12.74-5.01c-9.11-15.3-17.29-18.59-32.77-11.16
		c-6.74,3.24-13.5,6.44-23.3,11.1c4.71-9.65,8.13-16.88,11.75-24c6.17-12.13,1.65-26.74-10.69-32.31
		c-7.35-3.32-10.21-6.71-6.42-15.28c4.93-11.12-4.18-28.12-15.83-32.26c-7.71-2.74-15.4-5.55-26.38-9.51
		c11.61-3.78,20.05-6.95,28.73-9.22c6.83-1.78,10.95-4.52,11.02-12.49c0.08-8.7,6.85-17.11,0.42-26.34
		c-0.91-1.31,2.5-6.46,4.81-9.02c6.09-6.75,13.01-12.79,18.83-19.75c1.34-1.6,0.63-6.51-0.89-8.63
		c-9.49-13.22-19.09-26.42-29.61-38.81c-2.25-2.65-9.82-4.22-12.51-2.49c-14.43,9.26-28.1,19.72-42.25,29.92
		c-0.91-10.68-2.84-23.69-2.94-36.72c-0.12-16.66,4.46-31.78,16.43-44.6c10.95-11.73,20.45-24.81,32.14-36.39
		c-3.15,12.44-6.7,24.8-9.34,37.36c-2.5,11.87,0.58,16.08,12.42,15.72c14.06-0.42,28.08-2.32,42.93-3.66
		c-4.48-28.5-21.5-54.09-11.9-82.03c14.6,14.2,27.93,26.82,40.74,39.94c2.19,2.25,1.67,6.91,3.29,10
		c2.35,4.51,4.69,10.79,8.55,12.23c3.7,1.38,10.33-1.26,13.97-4.23c14.42-11.75,19.42-27.7,17.49-45.88
		c-0.27-2.54-2.39-4.88-3.65-7.32c-1.29-2.5-3.53-4.94-3.68-7.5c-0.26-4.68,2.77-12.25,0.83-13.66
		c-8.18-5.93-17.66-10.08-26.74-14.74c-1.39-0.71-3.16-0.69-5.09-1.07c-1.71-20.68-3.4-41.11-5.18-62.65
		c-15.45,5.18-27.83,9.65-40.45,13.33c-3.38,0.99-7.46-0.44-11.22-0.76c0.57-3.85,0.23-8.15,1.87-11.49
		c14.67-29.93,29.89-59.59,44.43-89.59c3.34-6.89,4.64-14.77,7.21-23.26c-12.49-2.21-23.31-4.13-34.13-6.04
		c-0.13-0.67-0.25-1.35-0.38-2.02c9.71-3.2,19.59-5.98,29.03-9.85c3.06-1.25,6.75-5.27,6.86-8.16c0.11-2.78-3.48-6.69-6.43-8.37
		c-4.91-2.79-10.62-4.2-18.19-7.01c5.17-1.7,7.8-2.78,10.53-3.43c20.21-4.8,20.08-4.79,21.48-25.75c1.15-17.31,2.67-34.6,5.85-51.6
		c4.48,84.18-8.3,164.21-57.88,237.11c10.82-3.87,22.1-6.81,32.31-11.9c8.92-4.45,12.86-1.12,14.46,6.59
		c3.33,16.04,5.83,32.25,9,50.29c7.22,4.01,17.58,9.75,27.94,15.49c-28.92-33.45-18.23-68.81-3.86-105.62
		c-8.53,6.05-15.85,11.35-23.28,16.48c-7.27,5.02-15.32,4.01-20.38-1.83c-2.25-2.6,0.59-10.19,2.02-15.27
		c3.5-12.44,7.43-24.76,11.37-37.06c1.36-4.25,3.27-8.34,7.72-11.68c-4.79,19.31-9.58,38.62-15,60.47
		c4.99-0.64,10.27-0.22,14.48-2.13c5.99-2.71,11.14-7.25,16.77-10.81c10.88-6.88,17.97-14.19,5.44-26.19
		c-1.46-1.4-0.42-6.12,0.39-9.04c2.31-8.44,5.09-16.75,7.94-25.91c-11.32-2.07-19-3.48-26.94-4.93c2.91-17.3,5.54-34.01,8.72-50.62
		c0.42-2.17,3.61-5.39,5.58-5.43c11.17-0.27,12.92-8.17,15.21-16.52c3.97-14.45,8.57-28.73,15.5-43.72
		c4.26,13.93,9.38,27.68,12.51,41.86c2.71,12.3,8.83,17.97,21.39,19.72c15.59,2.18,30.88,6.54,49.93,10.76
		c-15.51,6.03-27.62,10.73-42.7,16.59c19.27,6.33,35.67,11.72,52.07,17.1c0.02,0.85,0.03,1.69,0.05,2.54
		c-20.49,3.31-40.99,6.61-61.48,9.94c-14.24,2.31-19.21,14.7-9.85,26.05c4.63,5.61,3.86,9.02,0.37,15.16
		c-3.34,5.87-5.78,15.14-3.48,20.85c16.12,39.99,19.58,83.11,31.95,123.91c3.94,12.99,10.83,25.2,17.31,37.26
		c4.22,7.87,3.45,14.62,0.1,22.36c-12.17,28.03-10.32,32,19.25,37.6c14.7,2.78,29.75,3.87,44.69,5.21
		c10.57,0.95,14.62-4.87,12.49-14.77c-2.79-12.97-6.13-25.83-9.29-38.99c41.71,32.45,56.44,73.33,43.09,121.78
		c-23.15-35.62-58.02-43.07-96.31-42.76c-8.33,0.07-16.78-0.16-24.99-1.47c-13.25-2.11-22.97,0.77-26.42,16.17
		c0.68,0.4,2.23,2.04,3.15,1.74c15.53-5.01,23.48,4.9,31.95,15.15c5.69,6.89,12.9,7.34,20.92,2.06c6.2-4.08,13.45-6.56,23.66-11.37
		c-4.46,9.06-7.55,15.41-10.71,21.72c-6.09,12.16-0.43,28.34,12.58,33.95c6.82,2.94,8.3,6.82,6.32,13.7
		c-4.99,17.35,3.16,32.1,20.08,37.53C440.21,591.94,445.97,594.02,454.65,597z M179.43,470.48c11.05,8.02,22,16.17,33.22,23.95
		c2.26,1.57,5.5,1.73,8.29,2.54c0.7-3.15,2.54-6.56,1.88-9.4c-1.59-6.83-4.09-13.5-6.76-20.01c-0.99-2.42-3.66-6.12-5.29-5.98
		c-12.1,0.99-24.13,2.81-36.18,4.36c-7.1-5.02-14.2-10.04-21.3-15.06c-1.39,1.54-2.77,3.08-4.16,4.63
		c17.42,16.13,35.1,31.99,52.17,48.49c9.17,8.86,17.49,18.63,25.81,28.33c11.07,12.9,22.06,25.89,32.51,39.29
		c11,14.11,21.61,28.54,31.71,43.3c2.09,3.06,1.17,8.17,1.64,12.34c-4.59-0.66-10.31,0.19-13.56-2.26
		c-10.25-7.7-19.41-16.83-29.29-25.03c-9.26-7.69-18.91-14.9-28.38-22.33c-0.75,0.98-1.51,1.96-2.26,2.93
		c9.06,7.42,18.11,14.84,27.17,22.26c-0.43,0.62-0.87,1.24-1.3,1.86c-4.61-2.73-9.21-5.47-13.82-8.2c-0.55,0.71-1.1,1.42-1.65,2.13
		c17.89,16.75,35.78,33.49,53.66,50.24c-0.58,0.69-1.16,1.38-1.74,2.07c-5.7-1.59-11.4-3.19-17.1-4.78
		c6.71,6.48,13.96,11.8,22.07,14.29c17.08,5.24,37,8.74,52.6-12.74c13.47-18.54,26.78-37.21,39.88-56.01
		c5.76-8.27,10.82-17.02,16.19-25.56c-26.88,21.2-36.29,57.35-69.27,74.9c4.19-43.25,23.52-82.65,22.05-126.98
		c-12.09,39.54-23.63,77.3-35.91,117.47c-3.65-4.54-6.21-7.09-8.04-10.08c-15.65-25.59-31.21-51.23-46.68-76.92
		c-3.43-5.7-7.39-11.37-9.33-17.6c-5.66-18.18-10.25-36.69-15.64-54.96c-1.25-4.24-4.05-8.03-6.14-12.02
		c-1.35,0.68-2.71,1.36-4.06,2.04c6.75,22.73,13.5,45.45,20.26,68.18c-0.81,0.91-1.63,1.81-2.44,2.72
		c-3.99-2.6-8.54-4.64-11.86-7.92c-6.21-6.14-11.67-13.04-17.51-19.55C200.4,493.72,189.9,482.11,179.43,470.48z M197.81,363.22
		c-0.96,0.22-1.93,0.44-2.89,0.66c0,5.1-1.35,10.68,0.24,15.23c6.13,17.58,11.74,35.59,20.37,51.96
		c6.87,13.04,17.95,23.83,26.96,35.78c15.52,20.6,30.88,41.33,46.07,61.68c22.35-44.12,43.66-85.54,64.2-127.33
		c3.7-7.53,7.85-17.81,5.57-24.79c-8.07-24.82-19.14-48.65-28.44-73.09c-4.03-10.6-6.51-21.8-10.51-35.51
		c-8.26,10.61-9.15,22.27-4.23,27.67c9.01,9.89,4.93,15.68-1.58,22.08c11.02,11.8,13.16,24.95,9.91,39.31
		c-8.72,38.5-23.86,74.36-45.4,107.41c-2.82,4.33-7.75,7.28-11.71,10.87c-3.62-4.69-9.36-8.93-10.43-14.14
		c-2.65-12.91-3.16-26.26-4.31-37.29c-7.59-5.09-15.85-8.32-20.69-14.32C219.07,394.68,208.76,378.69,197.81,363.22z"/>
	<path class="st0" d="M197.81,363.22c10.95,15.48,21.26,31.46,33.15,46.18c4.84,5.99,13.1,9.23,20.69,14.32
		c1.15,11.03,1.66,24.38,4.31,37.29c1.07,5.21,6.81,9.46,10.43,14.14c3.95-3.59,8.89-6.54,11.71-10.87
		c21.54-33.05,36.68-68.91,45.4-107.41c3.25-14.36,1.11-27.51-9.91-39.31c6.5-6.4,10.58-12.19,1.58-22.08
		c-4.92-5.4-4.03-17.06,4.23-27.67c4,13.71,6.48,24.91,10.51,35.51c9.3,24.45,20.36,48.27,28.44,73.09
		c2.27,6.99-1.87,17.26-5.57,24.79c-20.54,41.79-41.85,83.21-64.2,127.33c-15.19-20.35-30.55-41.08-46.07-61.68
		c-9-11.95-20.09-22.74-26.96-35.78c-8.62-16.37-14.24-34.38-20.37-51.96c-1.59-4.55-0.24-10.13-0.24-15.23
		C195.88,363.66,196.84,363.44,197.81,363.22z"/>
	<path class="st0" d="M179.43,470.48c10.48,11.63,20.97,23.24,31.42,34.9c5.84,6.52,11.3,13.41,17.51,19.55
		c3.32,3.28,7.87,5.32,11.86,7.92c0.81-0.91,1.63-1.81,2.44-2.72c-6.75-22.73-13.5-45.45-20.26-68.18c1.35-0.68,2.71-1.36,4.06-2.04
		c2.09,3.99,4.88,7.78,6.14,12.02c5.4,18.27,9.99,36.78,15.64,54.96c1.94,6.24,5.91,11.91,9.33,17.6
		c15.46,25.7,31.03,51.34,46.68,76.92c1.83,2.99,4.38,5.54,8.04,10.08c12.28-40.17,23.83-77.94,35.91-117.47
		c1.46,44.33-17.86,83.72-22.05,126.98c32.98-17.54,42.38-53.69,69.27-74.9c-5.38,8.53-10.43,17.29-16.19,25.56
		c-13.1,18.81-26.41,37.47-39.88,56.01c-15.6,21.48-35.51,17.98-52.6,12.74c-8.11-2.49-15.36-7.82-22.07-14.29
		c5.7,1.59,11.4,3.19,17.1,4.78c0.58-0.69,1.16-1.38,1.74-2.07c-17.89-16.75-35.78-33.49-53.66-50.24c0.55-0.71,1.1-1.42,1.65-2.13
		c4.61,2.73,9.21,5.47,13.82,8.2c0.43-0.62,0.87-1.24,1.3-1.86c-9.06-7.42-18.11-14.84-27.17-22.26c0.75-0.98,1.51-1.96,2.26-2.93
		c9.48,7.42,19.13,14.64,28.38,22.33c9.89,8.21,19.04,17.33,29.29,25.03c3.25,2.44,8.97,1.6,13.56,2.26
		c-0.47-4.17,0.45-9.28-1.64-12.34c-10.1-14.76-20.71-29.2-31.71-43.3c-10.45-13.4-21.45-26.39-32.51-39.29
		c-8.31-9.7-16.64-19.47-25.81-28.33c-17.06-16.5-34.74-32.36-52.17-48.49c1.39-1.54,2.77-3.08,4.16-4.63
		c7.1,5.02,14.2,10.04,21.3,15.06C176.2,467.45,177.81,468.96,179.43,470.48z"/>
	<path class="st0" d="M179.43,470.48c-1.62-1.52-3.23-3.03-4.85-4.55c12.05-1.56,24.08-3.37,36.18-4.36
		c1.63-0.13,4.3,3.57,5.29,5.98c2.67,6.51,5.17,13.18,6.76,20.01c0.66,2.83-1.18,6.25-1.88,9.4c-2.79-0.81-6.03-0.97-8.29-2.54
		C201.43,486.65,190.48,478.5,179.43,470.48z"/>
</g>
</svg>
