<?xml version="1.0" encoding="utf-8"?>
<!-- Generator: Adobe Illustrator 24.3.0, SVG Export Plug-In . SVG Version: 6.00 Build 0)  -->
<svg version="1.1" id="Layer_1" xmlns="http://www.w3.org/2000/svg" xmlns:xlink="http://www.w3.org/1999/xlink" x="0px" y="0px"
	 viewBox="0 0 612 792" style="enable-background:new 0 0 612 792;" xml:space="preserve">
<style type="text/css">
	.st0{fill:#FFFFFF;}
</style>
<g>
	<path class="st0" d="M106.68,6C238.42,6,370.16,6,501.9,6c0,258.67,0,517.33,0,776c-131.74,0-263.48,0-395.22,0
		C106.68,523.33,106.68,264.67,106.68,6z M383.69,713.87c0.51-0.51,1.02-1.03,1.53-1.54c-3.66-7.18-7.5-14.29-10.87-21.6
		c-0.99-2.14-1.82-5.8-0.72-7.19c4.29-5.4,9.84-9.82,13.96-15.31c2.04-2.72,3.45-7.36,2.66-10.51c-2.49-9.97,3.75-23.66,13.3-27.02
		c6.18-2.18,12.33-4.42,20.89-7.49c-8.31-2.7-13.78-4.3-19.12-6.27c-5.51-2.03-12.96-1.58-12.84-10.87
		c0.08-6.09-2.4-12.42-1.37-18.23c1.08-6.14,0.73-9.43-5.55-11.78c-9.48-3.55-14.4-17.84-9.88-26.89
		c2.59-5.19,5.06-10.43,8.74-18.02c-8.69,4.17-14.99,6.82-20.91,10.14c-4.75,2.66-8.89,3.35-12.8-1.01
		c-3.23-3.59-6.06-7.61-9.63-10.8c-2.17-1.94-5.35-3.57-8.19-3.78c-7.32-0.52-14.71-0.18-22.15-0.18c0-6.24,0-9.97,0-12.37
		c17.67,0,34.73,0.07,51.8-0.01c30.75-0.15,58.66,6.16,77.89,34.12c1.55-10.14,2.81-19.89,2.56-29.61
		c-0.22-8.61,0.38-18.73-3.79-25.45c-9.62-15.51-21.91-29.37-33.12-43.9c1.17,11.09,3.88,21.2,5.97,31.44
		c2.1,10.28-0.38,13.44-10.97,13.09c-20.84-0.69-41.37-3.69-60.55-12.36c-6.21-2.81-12.3-6.55-17.38-11.06
		c-14.04-12.45-16.32-27.84-8.11-44.79c1.02-2.11,0.33-6.06-1.06-8.16c-5.3-8.01-5.19-15.54,0.12-24.11
		c1.37-2.21,1.49-6.61,0.17-8.8c-5.52-9.17-5.51-16.31-0.23-24.92c1.42-2.32,1.21-7.12-0.3-9.47c-4.96-7.76-4.93-16,0.29-24.2
		c1.4-2.2,1.71-6.83,0.32-8.76c-6.39-8.87-6.47-16.95,0.19-25.7c1.33-1.75,1.32-6.73-0.08-8c-7.28-6.6-3.64-14.14-3.72-21.51
		c20.73-3.33,40.59-6.51,60.46-9.7c0.01-0.55,0.01-1.1,0.02-1.65c-5.49-2.02-10.99-4.04-16.48-6.06c0.19-1.03,0.38-2.06,0.57-3.09
		c7.61,1.13,15.21,2.31,22.84,3.34c2.3,0.31,4.77,0.71,6.98,0.25c26.04-5.5,52.05-11.16,77.38-16.62c0.72,0.96,0.46,0.22,0.03,0.11
		c-1.73-0.45-3.5-0.71-5.26-1.03c-20.64-3.77-41.31-7.37-61.9-11.4c-8.11-1.58-16.04-5.72-23.72,1.26c-1.05,0.95-3.48,0.68-5.23,0.5
		c-16.74-1.74-33.47-3.61-50.21-5.4c-4.78-0.51-8.15-2.36-7.41-7.9c1.08-8.16,2.53-16.27,3.4-24.45c0.73-6.92,2-14.07,1.06-20.84
		c-4.48-32.41-9.69-64.72-14.47-97.09c-0.86-5.83-0.9-11.78-1.32-17.7c-7.15,41.4-14.29,82.49-21.25,123.61
		c-0.42,2.51-0.24,5.68,0.96,7.81c5.07,8.96,4.53,18.23,3.46,27.98c-0.67,6.16-3.4,8.23-8.9,8.76c-11.97,1.16-23.9,2.64-35.87,3.77
		c-9.36,0.89-18.95,4.33-27.69-2.97c-1.4-1.17-5.1,0.2-7.68,0.69c-23.25,4.48-46.49,9.01-69.72,13.59
		c-1.45,0.29-2.78,1.14-2.35,0.96c23.12,5.13,47.38,10.61,71.7,15.79c3.29,0.7,7.25,0.81,10.28-0.38c8.42-3.29,14.5-3.54,23.51,0.64
		c-5.94,2.05-11.56,3.98-17.18,5.91c0.15,0.56,0.31,1.11,0.46,1.67c20.37,3.21,40.73,6.43,63.85,10.07
		c-2.52,7.76-4.97,14.29-6.65,21.01c-0.69,2.78-0.77,6.66,0.67,8.87c5.17,7.9,5.12,16.33,0.08,24.18c-1.5,2.34-1.67,7.18-0.22,9.46
		c5.44,8.55,5.44,15.45-0.25,24.79c-1.33,2.18-1.21,6.63,0.17,8.82c5.62,8.95,5.61,15.94-0.02,24.86c-1.37,2.17-0.83,6-0.2,8.86
		c1.01,4.64,4.92,9.66,3.89,13.53c-2.75,10.32-2.81,19.35-0.36,30.27c4.02,17.95-6.65,31.61-22.29,40.51
		c-20.68,11.76-43.64,14.87-66.84,16.25c-13.15,0.78-15.77-2.66-12.89-15.39c2.12-9.38,4.73-18.65,7.12-27.97
		c-10.99,11.34-20.9,22.98-29.98,35.24c-3.62,4.89-7.24,11.01-7.65,16.79c-1.07,15.01-0.36,30.15-0.36,45.23
		c0.88,0.28,1.76,0.56,2.64,0.84c13.9-20.95,33.87-31.32,58.07-33.29c18.27-1.48,36.63-1.84,54.96-2.56
		c5.83-0.23,11.68-0.04,17.51-0.04c0,4.47,0,7.99,0,12.78c-6.91,0.73-13.74,2.75-20.09,1.75c-6.17-0.97-9.38-0.59-11.8,5.6
		c-3.58,9.15-14.24,12.81-23.07,8.65c-5.84-2.76-11.7-5.5-19.94-9.38c4.54,8.96,7.98,15.49,11.14,22.14
		c0.97,2.04,2.35,5.65,1.51,6.48c-5.5,5.41-5.83,15.4-15.65,17.27c-1.91,0.36-4.94,6.34-4.12,7.63c5.25,8.32-0.36,15.76-1.22,23.43
		c-0.27,2.4-3.16,5.49-5.58,6.47c-7.6,3.08-15.55,5.3-23.37,7.85c6.37,4.17,12.73,6.45,19.1,8.72c9.46,3.36,16.31,16.99,12.46,26.23
		c-2.82,6.77-0.7,9.71,5.65,12.18c8.85,3.43,13.16,16.37,8.91,24.7c-3.16,6.19-6.28,12.4-9.41,18.6c8.89-2.41,16.32-6.2,23.94-9.54
		c2.17-0.95,5.85-1.77,7.21-0.65c4.82,3.96,8.81,8.92,13.39,13.21c2.03,1.9,5.93,4.93,6.93,4.28c7.24-4.67,13.8,0.23,20.61,0.44
		c6.79,0.21,9.17,3.79,10.75,9.67c2.01,7.49,4.91,14.75,7.42,22.11c4.22-7.22,6.42-14.33,9.03-21.3c1.21-3.24,2.62-8.19,4.97-8.89
		c7.22-2.14,15.32-4.56,22.34-3.16c6.72,1.34,9.94,1.39,12.36-5.24c3.29-9.01,14.27-13.28,22.63-9.21
		C370.9,707.61,377.29,710.75,383.69,713.87z"/>
	<path d="M383.69,713.87c-6.4-3.13-12.79-6.26-19.2-9.38c-8.35-4.07-19.34,0.21-22.63,9.21c-2.43,6.64-5.65,6.59-12.36,5.24
		c-7.02-1.4-15.13,1.01-22.34,3.16c-2.35,0.7-3.76,5.65-4.97,8.89c-2.61,6.97-4.81,14.08-9.03,21.3
		c-2.51-7.36-5.41-14.62-7.42-22.11c-1.58-5.88-3.96-9.47-10.75-9.67c-6.81-0.21-13.38-5.11-20.61-0.44c-1,0.65-4.9-2.39-6.93-4.28
		c-4.58-4.28-8.57-9.25-13.39-13.21c-1.36-1.11-5.04-0.3-7.21,0.65c-7.62,3.35-15.05,7.14-23.94,9.54c3.14-6.2,6.25-12.41,9.41-18.6
		c4.25-8.32-0.06-21.26-8.91-24.7c-6.35-2.47-8.48-5.41-5.65-12.18c3.86-9.24-2.99-22.87-12.46-26.23
		c-6.36-2.26-12.72-4.54-19.1-8.72c7.82-2.55,15.77-4.78,23.37-7.85c2.42-0.98,5.31-4.07,5.58-6.47c0.86-7.68,6.47-15.12,1.22-23.43
		c-0.81-1.29,2.21-7.27,4.12-7.63c9.83-1.88,10.15-11.86,15.65-17.27c0.84-0.83-0.54-4.44-1.51-6.48
		c-3.16-6.66-6.6-13.18-11.14-22.14c8.25,3.88,14.1,6.62,19.94,9.38c8.83,4.17,19.49,0.51,23.07-8.65c2.42-6.19,5.64-6.56,11.8-5.6
		c6.35,0.99,13.17-1.02,20.09-1.75c0-4.79,0-8.31,0-12.78c-5.83,0-11.68-0.19-17.51,0.04c-18.33,0.72-36.69,1.08-54.96,2.56
		c-24.2,1.97-44.17,12.33-58.07,33.29c-0.88-0.28-1.76-0.56-2.64-0.84c0-15.09-0.71-30.22,0.36-45.23
		c0.41-5.79,4.03-11.9,7.65-16.79c9.08-12.26,18.99-23.91,29.98-35.24c-2.39,9.32-5,18.59-7.12,27.97
		c-2.88,12.73-0.27,16.17,12.89,15.39c23.21-1.38,46.16-4.49,66.84-16.25c15.65-8.9,26.31-22.55,22.29-40.51
		c-2.45-10.93-2.39-19.96,0.36-30.27c1.03-3.87-2.88-8.89-3.89-13.53c-0.63-2.86-1.17-6.69,0.2-8.86
		c5.63-8.93,5.64-15.92,0.02-24.86c-1.38-2.2-1.5-6.64-0.17-8.82c5.69-9.34,5.69-16.24,0.25-24.79c-1.45-2.28-1.28-7.12,0.22-9.46
		c5.04-7.85,5.09-16.28-0.08-24.18c-1.44-2.2-1.36-6.09-0.67-8.87c1.68-6.72,4.13-13.25,6.65-21.01
		c-23.11-3.65-43.48-6.86-63.85-10.07c-0.15-0.56-0.31-1.11-0.46-1.67c5.62-1.93,11.24-3.87,17.18-5.91
		c-9.01-4.18-15.09-3.93-23.51-0.64c-3.04,1.19-6.99,1.08-10.28,0.38c-24.32-5.18-48.58-10.66-71.7-15.79
		c-0.43,0.18,0.91-0.67,2.35-0.96c23.23-4.58,46.47-9.11,69.72-13.59c2.58-0.5,6.28-1.86,7.68-0.69c8.74,7.3,18.32,3.86,27.69,2.97
		c11.97-1.13,23.9-2.61,35.87-3.77c5.49-0.53,8.22-2.6,8.9-8.76c1.07-9.75,1.6-19.03-3.46-27.98c-1.2-2.13-1.39-5.3-0.96-7.81
		c6.96-41.12,14.1-82.21,21.25-123.61c0.42,5.93,0.46,11.88,1.32,17.7c4.78,32.37,9.99,64.68,14.47,97.09
		c0.94,6.77-0.33,13.92-1.06,20.84c-0.87,8.18-2.32,16.29-3.4,24.45c-0.73,5.54,2.63,7.39,7.41,7.9c16.74,1.79,33.47,3.66,50.21,5.4
		c1.74,0.18,4.18,0.45,5.23-0.5c7.69-6.98,15.62-2.84,23.72-1.26c20.59,4.02,41.26,7.63,61.9,11.4c1.76,0.32,3.54,0.58,5.26,1.03
		c0.43,0.11,0.7,0.86-0.03-0.11c-25.33,5.47-51.34,11.12-77.38,16.62c-2.21,0.47-4.68,0.07-6.98-0.25
		c-7.62-1.04-15.23-2.22-22.84-3.34c-0.19,1.03-0.38,2.06-0.57,3.09c5.49,2.02,10.99,4.04,16.48,6.06c-0.01,0.55-0.01,1.1-0.02,1.65
		c-19.86,3.19-39.73,6.38-60.46,9.7c0.08,7.37-3.56,14.91,3.72,21.51c1.4,1.27,1.41,6.25,0.08,8c-6.66,8.75-6.58,16.83-0.19,25.7
		c1.39,1.93,1.08,6.56-0.32,8.76c-5.22,8.2-5.25,16.44-0.29,24.2c1.51,2.36,1.72,7.16,0.3,9.47c-5.28,8.62-5.29,15.75,0.23,24.92
		c1.32,2.19,1.19,6.6-0.17,8.8c-5.31,8.56-5.41,16.1-0.12,24.11c1.39,2.11,2.08,6.05,1.06,8.16c-8.21,16.95-5.93,32.34,8.11,44.79
		c5.08,4.51,11.17,8.25,17.38,11.06c19.18,8.67,39.71,11.67,60.55,12.36c10.59,0.35,13.07-2.81,10.97-13.09
		c-2.09-10.24-4.81-20.36-5.97-31.44c11.21,14.53,23.5,28.39,33.12,43.9c4.17,6.72,3.57,16.84,3.79,25.45
		c0.25,9.71-1.01,19.47-2.56,29.61c-19.23-27.95-47.14-34.27-77.89-34.12c-17.07,0.08-34.13,0.01-51.8,0.01c0,2.4,0,6.13,0,12.37
		c7.43,0,14.82-0.35,22.15,0.18c2.84,0.2,6.02,1.84,8.19,3.78c3.57,3.19,6.4,7.21,9.63,10.8c3.92,4.36,8.05,3.67,12.8,1.01
		c5.93-3.32,12.23-5.98,20.91-10.14c-3.67,7.59-6.15,12.84-8.74,18.02c-4.52,9.05,0.4,23.34,9.88,26.89
		c6.28,2.35,6.63,5.65,5.55,11.78c-1.03,5.81,1.45,12.14,1.37,18.23c-0.12,9.29,7.33,8.84,12.84,10.87
		c5.33,1.97,10.8,3.56,19.12,6.27c-8.55,3.07-14.71,5.31-20.89,7.49c-9.55,3.36-15.79,17.05-13.3,27.02
		c0.79,3.15-0.62,7.79-2.66,10.51c-4.13,5.5-9.68,9.91-13.96,15.31c-1.1,1.38-0.27,5.05,0.72,7.19c3.37,7.32,7.21,14.42,10.87,21.6
		C384.71,712.85,384.2,713.36,383.69,713.87z M324.93,622.98c12.65-4.34,22.81-7.83,34.75-11.93c-3.69-9.19-7.12-17.73-10.66-26.56
		c-11.38,5.44-20.94,10.01-32.98,15.78c5.89-12.26,10.6-22.05,15.78-32.81c-7.81-3.31-14.47-6.13-21.92-9.29
		c-5.28,22.54-10.18,43.47-15.08,64.4c-0.61-0.13-1.21-0.25-1.82-0.38c-4.72-20.91-9.45-41.81-14.51-64.22
		c-8.02,3.99-14.48,7.2-21.03,10.45c5.24,10.86,9.77,20.25,15.36,31.84c-12.17-5.78-21.61-10.27-32.39-15.39
		c-3.55,9.05-6.85,17.48-10.39,26.5c11.54,3.99,21.5,7.44,33.61,11.62c-11.88,4.45-21.57,8.07-32.9,12.32
		c3.88,8.55,7.45,16.41,11.12,24.5c9.87-4.79,18.09-8.78,28.4-13.78c-4.54,10.77-8.22,19.48-12.47,29.55
		c8.43,3.49,16.5,6.82,25.2,10.42c3.86-10.79,7.13-19.92,11.3-31.55c3.95,11.72,7.05,20.91,10.73,31.84
		c8.99-3.5,17.36-6.77,25.98-10.13c-4.24-10.55-7.82-19.46-12.03-29.9c10.51,5.07,19.08,9.22,28.88,13.95
		c3.76-8.43,7.21-16.17,10.97-24.62C347.36,631.32,337.37,627.6,324.93,622.98z"/>
	<path class="st0" d="M324.93,622.98c12.44,4.62,22.43,8.34,33.91,12.61c-3.76,8.44-7.21,16.18-10.97,24.62
		c-9.8-4.74-18.38-8.88-28.88-13.95c4.2,10.45,7.79,19.36,12.03,29.9c-8.63,3.36-17,6.63-25.98,10.13
		c-3.68-10.93-6.78-20.12-10.73-31.84c-4.16,11.63-7.43,20.76-11.3,31.55c-8.7-3.6-16.77-6.94-25.2-10.42
		c4.25-10.07,7.93-18.79,12.47-29.55c-10.31,5-18.53,8.99-28.4,13.78c-3.67-8.09-7.24-15.95-11.12-24.5
		c11.34-4.24,21.02-7.87,32.9-12.32c-12.1-4.19-22.07-7.63-33.61-11.62c3.54-9.03,6.84-17.45,10.39-26.5
		c10.79,5.12,20.22,9.61,32.39,15.39c-5.59-11.59-10.12-20.98-15.36-31.84c6.55-3.25,13-6.46,21.03-10.45
		c5.06,22.41,9.78,43.31,14.51,64.22c0.61,0.13,1.21,0.25,1.82,0.38c4.9-20.93,9.8-41.86,15.08-64.4c7.44,3.15,14.1,5.98,21.92,9.29
		c-5.17,10.76-9.88,20.55-15.78,32.81c12.05-5.76,21.6-10.33,32.98-15.78c3.54,8.83,6.97,17.38,10.66,26.56
		C347.74,615.15,337.58,618.63,324.93,622.98z"/>
</g>
</svg>
