<?xml version="1.0" encoding="utf-8"?>
<!-- Generator: Adobe Illustrator 24.3.0, SVG Export Plug-In . SVG Version: 6.00 Build 0)  -->
<svg version="1.1" id="Layer_1" xmlns="http://www.w3.org/2000/svg" xmlns:xlink="http://www.w3.org/1999/xlink" x="0px" y="0px"
	 viewBox="0 0 612 792" style="enable-background:new 0 0 612 792;" xml:space="preserve">
<style type="text/css">
	.st0{fill:#FFFFFF;}
</style>
<g>
	<path class="st0" d="M604,694c-198.33,0-396.67,0-595,0C9,495.67,9,297.33,9,99c198.33,0,396.67,0,595,0
		C604,297.33,604,495.67,604,694z M337.23,529.66c0.45,0.25,0.9,0.51,1.35,0.76c2.01-2.77,4.93-5.26,5.87-8.36
		c2.89-9.48,5.23-19.14,7.38-28.82c1.33-6.02-2.94-8.14-7.77-9.73c-1.7-0.56-3.11-1.97-4.66-2.99c0.43-0.51,0.85-1.01,1.28-1.52
		c10.05,3.96,12.38,2.58,16.8-7.45c2.48-5.63,6.42-10.62,9.5-15.57c-2.42-0.5-4.9-0.86-7.23-1.64c-0.37-0.12-0.22-3.14-0.11-3.16
		c2.27-0.28,4.58-0.36,6.88-0.39c1.21-0.01,2.54,0.52,3.61,0.16c2.39-0.8,6.69-2.12,6.64-3.02c-0.44-7.54,4.53-5.18,8.14-4.58
		c3.68-9.36,2.81-13.93-0.75-22.03c-2.54-5.78-3.23-12.39-4.63-18.65c-1.13-5.06-2.08-10.17-3.16-15.53
		c7.08-5.42,7.2-5.72,5.1-16.12c-0.63-3.1-1.08-6.29-2.15-9.24c-1.14-3.17-2.38-8.25-4.49-8.77c-7.81-1.92-9.42-6.23-6.65-13.66
		c-0.64-0.38-1.28-0.75-1.92-1.13c-5,3.36-9.99,6.72-14.99,10.07c0.56-4.87,2.83-8.52,4.31-12.46c0.78-2.07,1.17-5.81,0.01-6.83
		c-5.05-4.45-9.38-10.99-18.17-7.59c-2.2,0.85-6.05-0.36-8.17-1.93c-4.67-3.47-8.73-7.78-13.22-11.92
		c-3.55,0.31-7.8,0.05-11.66,1.15c-9.96,2.83-19.8,6.12-29.59,9.52c-3.3,1.14-5.45,2.87-4.31,7.66c1.25,5.25-2.56,7.41-7.65,5.18
		c-7.07-3.09-13.76,1.17-12.48,8.72c0.77,4.53,4.04,8.65,6.29,12.89c0.86,1.62,3.17,4.04,2.82,4.47c-1.42,1.73-3.47,3.61-5.55,3.98
		c-2.76,0.49-5.76-0.57-8.67-0.63c-4.03-0.08-8.23-0.15-9.86,5.32c1.13,0.54,1.93,1.01,2.78,1.3c2.27,0.76,4.58,1.43,6.87,2.14
		c-1.79,1.83-3.77,3.5-5.3,5.52c-1.29,1.71-2.84,3.8-2.93,5.77c-0.45,10.67-0.02,21.36-6.73,30.75c-1.91,2.68-2.71,6.26-3.59,9.55
		c-1.62,6.03-1.18,12.18,4.07,16.03c5.38,3.94,13.84,4.13,13.52,15.39c3.85-4.58,5.63-7.7,8.29-9.54c2.27-1.56,5.56-1.64,8.4-2.37
		c0.26,2.33,1.33,4.93,0.66,6.96c-4.14,12.64-6.46,24.68,5.32,35.02c1.91,1.68,2.54,5.28,2.97,8.11c0.87,5.75,1.2,11.59,1.76,17.39
		c0.83,8.52,3.41,16.12,10.66,22.27c0-6.21-0.72-11.42,0.31-16.26c0.51-2.39,4.34-5.87,6.52-5.76c6.9,0.34,8.34-4.2,10.01-8.95
		c0.51-1.46,0.62-3.07,0.92-4.61c0.63-0.1,1.26-0.19,1.9-0.29c1.01,4.63,2.02,9.26,3.03,13.89c1.17,0.85,2.33,1.69,3.5,2.54
		c1.37-3.2,2.74-6.41,5.08-11.85c3.36,17.17,9.24,7.98,13.78,4.58c1.63,2.8,2.56,6.54,4.23,6.9c5.33,1.16,5.5,4.96,5.8,8.81
		C337.44,522.61,337.23,526.14,337.23,529.66z M266.44,198.72c0.01,0.97,0.02,1.93,0.03,2.9c-6.41-1.31-10.89,0.09-16.31,4.07
		c-5.56,4.09-5.32,7.98-4.38,11.89c2.47,10.31,6.14,20.34,9.22,30.11c-6.26,5.24-6.2,23.09,0.39,26.51
		c5.08,2.63,5.9,5.81,5.52,11.84c4.55-3.11,7.94-5.42,12.43-8.48c-0.88,2.84-1.16,4.49-1.86,5.92c-3.79,7.71-3.05,10.45,4.54,13.95
		c1.82,0.84,4.25,0.25,6.32,0.71c2.97,0.66,6.87,0.79,8.59,2.73c5.54,6.22,12.41,7.33,19.66,5.88c6.14-1.23,12.15-3.57,17.87-6.19
		c2.03-0.93,3.62-3.94,4.36-6.32c1.02-3.33,2.31-6.06,5.87-3.73c4.42,2.89,7.71,0.36,9.15-2.46c1.2-2.38,0.22-6.43-0.94-9.28
		c-1.12-2.74-3.7-4.89-6.97-8.96c7.42-1.03,13.46-1.86,19.5-2.7c-0.06-0.7-0.13-1.41-0.19-2.11c-2.34-0.83-4.68-1.67-5.92-2.11
		c2.07-5.19,4.25-9.78,5.71-14.59c1.58-5.2,2.17-10.71,3.78-15.9c2.01-6.49,6.16-13.16,2.03-19.58c-3.24-5.03-8.56-8.73-13.05-13.12
		c-1.02,1.19-1.57,1.67-1.91,2.27c-2.07,3.62-4.07,8.28-9.06,5.98c-1.28-0.59-0.33-6.22-0.22-9.53c0.03-0.9,1.2-1.81,1.11-2.64
		c-0.45-4.22,0.36-9.91-2.04-12.34c-7.13-7.21-7.38-15.91-8.58-24.85c-0.73-5.47-3.2-10.71-4.88-16.05
		c-0.73,0.25-1.46,0.5-2.19,0.75c0,2.66,0.4,5.41-0.12,7.96c-0.45,2.2-2.07,6.01-2.99,5.96c-7.64-0.45-9.59,5.07-11.54,11.75
		c-1.34-4.64-2.28-7.9-3.47-12.04c-2.46,2.22-3.98,3.59-6.03,5.45c-2.35-7.9-6.09-5.36-9.1-1.86c-6.34-4.71-12.05-9.5-9.03-18.73
		c-7.99,8.88-7.65,19.71-9.88,29.65c-0.26,1.14,2.48,3.17,4.1,4.44c1.28,1,2.97,1.48,3.82,1.89c-3.93,1.49-8.76,1.88-10.93,4.48
		c-3.54,4.24-5.35,9.92-7.81,14.85C262.8,197.63,264.62,198.17,266.44,198.72z M443.54,549.79c3.1,2.23,5.95,4.97,9.34,6.57
		c4,1.88,9.29,4.95,12.58,3.7c9.7-3.68,18.06-0.35,27,1.92c5.06,1.28,10.54,0.91,15.83,1.28c0.07-0.74,0.14-1.47,0.21-2.21
		c-0.89-0.28-1.88-0.38-2.64-0.86c-4.59-2.87-13.1-3.19-7.92-12.58c0.59-1.07-1.87-4.07-3.26-5.92c-0.92-1.22-2.46-1.96-3.73-2.92
		c0.23-0.32,0.46-0.65,0.69-0.97c3.16,0.55,6.33,1.11,10.34,1.81c-0.68-3.14-1.15-5.3-1.75-8.08c9.32,1.68,5.58-4.2,4.82-7.22
		c3.9-1.94,6.98-4.62,10.16-4.73c3.43-0.13,6.96,2.14,10.44,3.36c0.48-0.72,0.96-1.45,1.44-2.17c-5.61-4.32-11.59-8.23-16.72-13.05
		c-6.05-5.7-11.37-6.68-17.09,0.02c-0.11,0.13-0.84-0.27-0.25-0.07c0.55-3.95,2.66-8.5,1.24-11.14c-2.65-4.93-7.36-8.76-11.1-12.92
		c-1.26,1.17-2.64,2.46-4.02,3.75c-0.56-0.23-1.13-0.46-1.69-0.69c1.82-5.47,7.21-11.06,0.54-16.3c-0.07-0.05,0.72-0.93,0.6-1.22
		c-0.75-1.93-1.17-4.9-2.56-5.49c-3.44-1.45-7.32-1.91-11.06-2.56c-8.44-1.47-16.91-2.8-25.35-4.28c-0.51-0.09-0.98-0.88-1.31-1.43
		c-3.52-5.99-17.13-10.79-22.99-8.23c-3.72,1.63-7.58,2.95-11.38,4.41c-0.54-0.57-1.07-1.14-1.61-1.71c0.7,4.04,1.4,8.07,2.37,13.67
		c-2.39-2.27-4.03-3.19-4.7-4.57c-3.41-7.04-8.03-5.96-12.81-1.91c-1.88,1.6-3.04,4.05-4.52,6.12c-1.76,2.45-3.1,6.48-5.35,7.08
		c-9.01,2.4-11.95,9.26-13.62,16.93c-1.18,5.42-1.41,11.09-1.55,16.66c-0.08,3.2-0.28,6.6,4.49,7.91c3.43,0.94,3.27,3.67,1.05,6.94
		c-1.55,2.29-2.37,6.59-1.21,8.74c1.06,1.95,5.24,3.02,8.04,3.02c3.4-0.01,6.79-1.55,11.77-2.83c-1.82,7.06-3.29,12.76-4.75,18.46
		c0.72,0.21,1.44,0.42,2.15,0.63c1.42-1.76,2.85-3.51,5.87-7.23c0.66,1.91,1.56,3.16,1.4,4.25c-0.87,5.78,3.61,6.93,7.22,9.23
		c5.18,3.29,10.06,7.08,14.96,10.8c2.51,1.91,4.47,5.09,7.22,5.97c3.64,1.16,8.17,1.69,11.69,0.55c4.06-1.31,7.43-4.72,11.53-7.51
		C442.45,559.47,437.52,555.22,443.54,549.79z M147.93,557.15c3.68,3.04,6.31,6.88,9.58,7.54c5.05,1.01,10.54-0.17,14.84-0.38
		c0.48-2.15,0.93-4.17,1.71-7.62c4.16,5.77,3.13,14.04,11.96,11.34c0.33-0.1,0.9,1.1,1.49,1.3c2.03,0.71,4.52,2.24,6.1,1.61
		c2.75-1.1,5.11-3.41,7.37-5.5c6.61-6.1,13.06-12.36,19.66-18.47c0.53-0.49,1.73-0.52,2.56-0.41c6.78,0.91,18.67-7.47,20.27-13.89
		c0.94-3.79,2.78-7.36,4.55-11.87c-2.05-1.09-5.5-2.93-10.44-5.57c3.49-0.6,5.45-1.52,7.09-1.12c6.87,1.69,8.96-2.05,8.9-7.75
		c-0.03-2.72-1.22-5.44-1.99-8.13c-0.71-2.51-2.81-5.44-2.11-7.4c2.68-7.55,1.99-14.48-3.09-20.37c-4.72-5.48-9.6-12.78-15.75-14.53
		c-6.58-1.87-11.43-2.49-15.45-9.18c-2.67-4.44-9.19-0.78-12.12,6.27c-0.92,2.2-2.49,4.14-3.76,6.19c-1.81-2.09-3.73-4.09-5.41-6.28
		c-1.91-2.5-3.61-5.16-5.41-7.76c-0.63,0.42-1.26,0.84-1.88,1.25c0.51,2.34,1.02,4.68,1.89,8.7c-3.9-1.65-6.36-2.7-8.83-3.74
		c0.16,0.57,0.33,1.14,0.49,1.71c-9.5,2.24-18.98,4.57-28.5,6.68c-5.57,1.24-11.26,2.1-12.55,9.12c-0.9,4.91-1.79,9.81-2.72,14.96
		c0.08,0.03,0.82,0.17,1.43,0.54c3.03,1.85,6.02,3.75,9.02,5.64c-2.99,1.51-5.96,3.05-8.99,4.48c-0.62,0.29-1.63-0.14-2.15,0.22
		c-3.67,2.54-9.32,4.51-10.49,7.96c-3.04,8.99-9.89,13.41-16.76,18.5c-4.58,3.4-8.38,7.87-12.52,11.86
		c0.49,0.62,0.99,1.24,1.48,1.86c6.28-3.17,12.65-8.87,18.12,1.08c0.54,0.98,4.03,0.43,6.15,0.43c1.38,0,2.77-0.28,5.27-0.56
		c-3.54,3.1-5.99,5.23-8.94,7.81c1.84,1.03,2.8,1.69,3.85,2.12c0.97,0.4,2.04,0.56,3.21,0.86c-3.23,6.04-3.23,6.04,3.19,9.65
		c-1.44,7.06-2.39,14.56-11.65,16.97c7.32,0.14,13.71-1.21,20.09-2.57c7.34-1.56,14.83-3.01,11.31-13.63
		C147.98,556.94,148.69,556.54,147.93,557.15z M114.79,355.48c-0.85-3.48-1.45-8.63-2.24-8.66c-3.96-0.16-7.97,1.03-12.57,1.86
		c-0.27-2.7-0.6-6.07-0.93-9.44c-0.52-0.3-1.05-0.59-1.57-0.89c-0.56,1.58-1.12,3.17-1.04,2.93c-5.08-1.5-8.69-2.56-12.3-3.65
		c-2.27-0.68-4.65-1.17-6.79-2.16c-10.58-4.89-10.54-4.92-18.71,3.27c-0.73,0.74-1.91,1.03-2.8,1.48c1.34,2.87,2.46,5.26,4.01,8.56
		c-6.24-0.6-11.13-2.07-15.63-1.29c-8.2,1.42-16.19,4.14-24.23,6.42c-1.16,0.33-2.16,1.24-1.81,1.03c3.75,4.32,7.28,8.39,9.46,10.91
		c-1.15,3-1.89,4.71-2.48,6.48c-1.96,5.94-0.58,14.6-12.1,12.77c7.77,5.87,17.23,7.87,20.92,6.2c5.6,3.49,10.25,6.38,16.23,10.1
		c0.74,8.56,5.6,11.3,15.8,7.6c5.9-2.14,11.88-3.02,18.68-0.24c3.99,1.63,10.01-1.21,14.96-2.61c2.23-0.63,4.05-2.67,6.47-4.36
		c-0.46-1.35-1.05-3.06-1.85-5.4c6,2.05,10.41,1.55,12.33-4.89c0.84-2.82,1.75-5.82,3.44-8.15
		C126.06,375.06,122.88,359.64,114.79,355.48z M125.63,464.37c9.39-0.64,10.85-2.87,8.56-11.02c-0.57-2.02-0.89-4.33-0.52-6.36
		c2.07-11.27-4.5-21.06-15.84-23.55c-1.1-0.24-1.94-1.74-2.86-2.7c-1.51-1.57-3.06-4.52-4.47-4.45c-1.92,0.1-3.89,2.32-5.53,3.95
		c-1.11,1.1-1.67,2.75-3.07,5.19c-2.42-3.92-4.32-7-6.77-10.97c-0.73,2.79-1.16,4.41-1.14,4.35c-4.5,0.55-7.81,0.87-11.09,1.39
		c-2.58,0.41-5.1,1.31-7.69,1.55c-7.45,0.68-15.86-0.26-15.62,11.23c0.02,1.06-1.44,2.16-1.98,2.9c2.51,2.14,4.62,3.95,7.91,6.76
		c-4.24,1-6.74,1.19-8.85,2.19c-2.89,1.37-5.72,3.09-8.17,5.14c-3.82,3.2-7.17,6.95-10.96,10.2c-2.83,2.43-6.03,4.44-8.2,6.01
		c5.79,1.95,11.14,3.76,15.06,5.08c0.18,2.66,0.22,4.79,0.5,6.89c0.82,6.23,4.87,13.14-5.39,17.16c13.52,1.21,19.82-1.23,21.91-7.71
		c4.15,5.61,14.04,7.05,17.38,2.52c5.99,10.27,11.13,10.88,19.31,2.47c1.65-1.7,3.65-3.35,5.81-4.23
		c5.13-2.09,11.14-2.74,15.52-5.79c4.58-3.18,7.68-8.49,11.68-13.17C129.36,467.78,127.84,466.38,125.63,464.37z M522.24,392.54
		c4.2,1.02,7.22,1.84,10.28,2.47c2.81,0.58,5.83,0.49,8.46,1.5c10.92,4.17,10.86,4.26,18.41-4.42c0.72-0.83,1.87-1.3,2.64-1.82
		c-1.57-2.68-2.92-4.99-5.37-9.18c4.44,0.92,6.71,1.82,8.95,1.75c3.28-0.09,6.65-0.51,9.79-1.44c4.97-1.49,9.74-3.65,14.68-5.27
		c3.31-1.08,6.76-1.71,9.19-2.3c-4.62-4.11-8.87-7.88-11.66-10.36c0.85-3.06,1.6-5.3,2.08-7.59c1.3-6.18,0.68-13.75,11.42-12.73
		c-0.28-0.84-0.56-1.69-0.84-2.53c-7.43-1.14-14.86-2.27-22.29-3.41c-4.84-1.94-8.62-7.5-15.89-4.91
		c-0.88-10.97-6.19-14.09-15.64-9.42c-2.11,1.04-4.61,1.82-6.93,1.81c-4.64-0.03-9.54-1.83-13.84-0.81
		c-6.6,1.56-12.79,4.88-19.27,7.5c1.47,3.39,2.27,5.22,3.33,7.66c-8.51-3.46-11.36-1.61-11.94,6.44c-0.15,2.04-0.82,4.28-1.92,5.99
		c-6.52,10.15-2.91,23.95,6.94,28.79c0.94,3.21,1.99,8.03,2.4,7.98c4.02-0.54,7.93-1.88,12.5-3.17c0.47,2.95,1.05,6.57,1.86,11.6
		C521.19,394.15,522.01,392.89,522.24,392.54z M495.19,455.33c-1.25,3.95-2.3,7.28-3.81,12.07c2.73-1.7,4.11-2.55,4.26-2.64
		c3.34,2.98,5.83,5.28,8.41,7.46c2.18,1.84,4.61,3.39,6.69,5.33c5.17,4.82,9.88,11.13,17.57,3.44c0.68-0.68,2.51-0.21,3.6-0.27
		c0-3.37,0-6.12,0-8.39c5.82,2.27,10.74,4.81,15.97,6.06c5.48,1.31,11.26,1.32,16.9,2.01c3.13,0.38,6.24,0.97,7.93,1.24
		c-2.12-5.39-4.08-10.39-6.1-15.52c9.43-0.07,7.3-18.75,21.27-12.34c-5.45-4.84-11.06-8.31-16.55-11.95
		c-1.1-0.73-1.64-2.26-2.67-3.14c-3.62-3.11-3.15-10.69-10.46-9.87c4.23-10.34,0.57-15.6-10.9-16.03c-6.24-0.23-12.18-1.3-16.69-6.8
		c-3.86-4.71-19.4-5.01-22.87-1.04c0.09,1.88,0.18,3.8,0.32,6.84c-2.44-2.74-4.02-4.5-6.02-6.74c-2.58,1.78-5.11,3.19-7.21,5.08
		c-2.22,1.99-3.63,5.09-6.08,6.55c-9.17,5.48-11.92,20.81-4.81,28.8C479.43,454.67,480.53,455.74,495.19,455.33z M488.69,177.1
		c-1.81-2.63-2.74-4.58-4.19-6c-7.02-6.87-7.79-10.05-2.96-18.59c-3.77,2.36-6.74,3.57-8.82,5.66c-3.25,3.27-6.39,10.48-8.7,10.14
		c-7.98-1.19-12.3,8.09-20.75,5.31c-5.47-1.8-10.69,1.04-11.31,8.5c-0.23,2.71-1.73,5.63-3.44,7.84
		c-3.25,4.19-8.13,7.42-10.39,12.01c-2.56,5.2-3,11.45-4.45,17.6c2.43,0.63,4.43,1.14,6.5,1.67c-6.19,4.18-6.78,7.97-2.66,12.68
		c2.07,2.36,3.83,5.29,4.81,8.26c3,9.1,18.03,15.31,25.3,10.72c2.88,1.39,5.45,2.62,8.01,3.85c1.76-3.92,3.52-7.84,5.56-12.38
		c2.54,1.52,5.62,3.36,9.71,5.81c-0.77-2.73-1.19-4.21-1.05-3.73c4.43-4.14,7.35-8.58,11.43-10.36c9.99-4.35,16-9.96,11.74-21.63
		c-0.08-0.21-0.26-0.38-0.39-0.58c-2.67-0.44-5.34-0.89-9.01-1.5c4.01-4.72,7.93-8.08,10.16-12.31c2.18-4.13,2.18-9.35,3.97-13.76
		c1.75-4.29,4.55-8.14,6.32-11.21C498,175.9,492.68,176.59,488.69,177.1z M476.26,276.04c-8.57,1.62-10,4.61-7.06,11.8
		c0.75,1.84,0.99,4.16,0.66,6.12c-1.88,10.93,8.45,22.82,17.34,22.34c3.99,2.79,7.65,6.64,8.9,5.98c3.02-1.61,4.91-5.33,7.72-8.78
		c2.23,3.19,4.31,6.17,7.44,10.65c0-3.44,0-4.95,0-4.49c6.08-1.94,10.94-4.62,15.92-4.85c9.57-0.44,17.94-1.22,18.31-13.56
		c0.02-0.66,0.1-1.32,0.1-1.37c-2.44-1.91-4.46-3.51-6.24-4.9c5.46-3.35,10.32-5.77,14.5-9.06c3.88-3.06,6.93-7.16,10.55-10.59
		c2.36-2.24,5.08-4.09,7.04-5.64c-5.7-2.03-10.84-3.85-14.7-5.22c-0.36-2.56-0.59-4.47-0.9-6.36c-0.98-6.1-6.31-12.83,3-18.15
		c-6.91,0.78-12.98,2.46-19.06,4.09c-1.6,0.43-3.29,0.56-4.85,1.09c-4.55,1.54-10.32-4.25-13.99,2.35
		c-6-9.99-11.39-10.04-19.07-1.25c-3.38,3.86-8.34,8.62-12.73,8.77c-6.61,0.23-9.6,4.06-12.88,7.81c-2.25,2.58-3.02,6.44-4.55,9.96
		C472.8,273.56,474.14,274.52,476.26,276.04z M131.4,278.24c1.03-2.8,2.2-6,3.71-10.12c-2.4,1.02-3.79,1.61-3.93,1.67
		c-3.06-3-5.38-5.4-7.84-7.65c-2.09-1.9-4.76-3.3-6.47-5.48c-6.72-8.55-7.16-8.75-17.5-4.85c-1.17,0.44-2.64,0.06-3.51,0.06
		c-0.19,3.54-0.35,6.45-0.53,9.85c-5.54-3.32-9.98-8.25-13.74-7.78c-8.91,1.12-16.18-2.3-23.96-4.85c-1.3-0.43-2.91,0.08-2.35,0.05
		c1.24,5.16,3.7,10.07,3.08,14.55c-0.49,3.57-4.19,7.5-7.51,9.64c-3.39,2.19-8.06,2.41-11.93,3.42
		c4.43,7.64,11.97,12.73,17.77,11.33c-0.74,6.36,3.98,12.95,9.81,13.71c-5.23,10.61-2.05,15.75,10,16.5
		c2.35,0.15,4.83,0.79,6.92,1.86c5.8,2.95,11.14,7.15,17.23,9.09c4.23,1.34,9.39-0.25,14.72-0.57c0-2.08,0-4.18,0-6.88
		c6.31,7.33,8.91,7.11,14.16-0.11c1.22-1.67,2.97-3.19,4.8-4.13c10.11-5.21,13.55-19.25,7.5-27.59c0.63-3.42,2.14-7.98,1.44-8.35
		C140.12,279.96,136.34,279.49,131.4,278.24z M369.14,132.14c-9.63-2.94-13.86,0.71-13.89,12.19c-0.02,5.35-0.59,12.35-3.88,15.65
		c-5.32,5.34-4.8,10.52-3.82,16.41c0.44,2.65,1.64,5.17,2.6,8.06c1.64,0,3.38,0,5.45,0c-5.57,6.52-4.73,9.46,2.63,13.44
		c2.15,1.16,3.88,3.44,5.31,5.55c5.5,8.1,20.82,9.66,25.9,3.95c4.51-0.62,9.57-0.1,10.35-1.69c1.34-2.73,0.01-6.77-0.27-11.26
		c4.07,1.12,7.55,2.07,12.27,3.37c-1.47-2.52-2.24-3.83-3.19-5.45c1.84-0.7,3.95-0.82,4.71-1.9c4.43-6.25,8.72-12.63,12.65-19.2
		c1.01-1.69,1.22-4.45,0.65-6.37c-0.89-2.99-2.75-5.69-4.14-8.39c-2.73,0.41-5.41,0.82-8.86,1.35c2.49-5.94,5.32-10.59,6.34-15.6
		c1.4-6.94,1.48-14.15,2.05-21.25c0.16-1.99,0.02-4,0.02-4.69c-5.26,2.08-10.25,4.04-15.22,6c-0.42-9.28-18.91-6.25-12.96-20.16
		c-4.17,4.33-9.41,8.17-10.21,12.79c-1.12,6.46-6.63,7.37-9.53,11.24C372.67,128.08,371.06,129.85,369.14,132.14z M111.79,218.89
		c-7.44,7.51-6.04,12.75,3.98,18.29c4.97,2.75,8.05,8.76,12.44,12.81c3.62,3.34,7.73,6.27,12,8.73c2.15,1.24,5.14,1.04,8.22,1.56
		c0.58-1.6,1.32-3.65,2.21-6.13c4.21,9.55,5.22,9.75,14.06,3.87c1.14-0.76,2.68-1.1,4.07-1.26c11.36-1.33,18.55-10.55,17.61-22.34
		c-0.1-1.21,1.2-2.81,2.27-3.78c4.17-3.81,3.12-6.68-1.49-8.79c-2.06-0.94-4.36-1.35-7.4-2.24c2.76-3.29,4.94-5.88,7.71-9.17
		c-2.5,0-3.83,0-5.2,0c-0.25-2.14,0.04-4.48-0.83-6.25c-3.09-6.23-6.23-12.49-10.09-18.24c-1.44-2.15-4.78-3.46-7.51-4.18
		c-2.21-0.58-4.81,0.3-7.21,0.53c-0.78,2.32-1.61,4.81-2.71,8.08c-4.08-4.82-6.75-9.3-10.6-12.21c-5.83-4.41-12.45-7.78-18.79-11.47
		c-1.71-1-3.66-1.59-4.17-1.81c0,5.84,0,11.46,0,17.44c-1.94-1.06-3.55-1.93-4.11-2.24c-3.78,2.66-6.57,5.91-9.86,6.57
		c-3.31,0.66-7.13-1.27-11.37-2.21c2.41,4.87,3.85,11.24,7.81,14.87c4.66,4.28,3.73,9.51,5.67,14.15
		C109.16,215.09,110.31,216.5,111.79,218.89z M275.38,601.75c-1.24,3.65-2.34,6.32-3.03,9.09c-0.7,2.8-0.42,5.98-1.59,8.52
		c-3.38,7.3-7.22,14.33,3.19,19.29c0.79,0.38,1.09,1.77,1.37,2.26c2.89-1.31,5.19-2.35,7.48-3.39c0.01,2.63-0.1,5.26,0.05,7.88
		c0.18,3.08,0.24,6.24,0.97,9.21c1.3,5.3,3.12,10.48,4.62,15.74c0.68,2.37,1.14,4.8,1.76,7.5c4.73-4.34,8.66-7.95,12.75-11.71
		c0.39,1.53,0.84,3.27,1.2,4.66c4.26,0.39,8.17,0.7,12.07,1.13c2.98,0.33,5.94,0.82,8.9,1.24c0.6-4.48,1.2-8.97,1.96-14.63
		c3.25-1.25,7.29-8.63,5.98-14.17c11.66-0.09,15.08-5.38,10.42-15.76c-0.96-2.15-1.64-4.69-1.5-7c0.31-5.34,2.4-10.85,1.52-15.9
		c-0.98-5.67-4.44-10.92-6.97-16.71c-2.41,1-4.39,1.82-7.24,3c1.48-3.01,2.42-4.93,4.33-8.83c-9.7-3.22-18.7-7.55-28.12-8.89
		c-6.79-0.97-14.56,1.35-16.79,8.99c-3.26,0.68-7.8,1.28-7.78,1.68c0.16,3.97,1.09,7.91,1.95,12.72c-2.77,0.29-6.38,0.66-10.95,1.13
		C273.81,600.41,274.85,601.3,275.38,601.75z M199.5,207.59c5.2,3.72,23.52,6.64,28.64,4.2c6.17-2.94,13.63-4.93,14.12-13.53
		c2.83-1.52,7.03-4.16,6.66-5.78c-0.73-3.27-3.94-5.99-6.4-9.3c3.58-1.4,6.76-2.64,11.43-4.47c-3.14-0.95-4.57-1.38-5.71-1.72
		c0.83-2.8,2.06-5.17,2.16-7.59c0.23-5.98-0.16-11.99-0.09-17.98c0.05-4.8-0.89-8.65-6.38-9.94c-1.93-0.46-3.66-1.74-5.37-2.58
		c-1.94,1.82-3.86,3.63-4.82,4.54c-6.63-13.1-12.91-25.51-18.96-37.46c-3.09,5.54-5.77,10.34-7.39,13.22
		c-3.28,0-5.47,0.13-7.64-0.03c-5.79-0.41-13.07,2.24-14.94-7.56c-1,4.84-1.61,9.16-1.33,13.42c0.42,6.42,1.61,12.73-1.37,18.98
		c-0.85,1.77-0.13,4.29-0.13,6.97c-9.6,3.28-10.58,8.52-4.19,18.29c3.03,4.63,3,11.15,4.98,16.59c1.75,4.81,4.05,9.52,6.76,13.86
		c1.26,2.03,4.06,3.11,6.44,4.83c1.19-1.01,2.68-2.28,5.16-4.38C200.39,203.58,199.93,205.64,199.5,207.59z M395.92,569.33
		c-0.31-10.03-3.06-11.68-11.53-8.55c-1.52,0.56-3.3,1-4.86,0.78c-12.38-1.77-20.94,4.2-23.53,16.29c-0.26,1.21-2.11,2.3-3.45,3.01
		c-4.52,2.39-4.93,5.51-0.83,8.63c1.64,1.25,3.58,2.09,6.58,3.8c-4.1,2.6-7.28,4.61-12.28,7.78c3.82,0,5.32,0,6.22,0
		c0.18,3.63,0.11,6.82,0.56,9.94c0.55,3.75,1.73,7.41,2.31,11.16c0.96,6.17,0.22,13.5,10.27,12.04c1.11-0.16,2.5,1.66,3.77,2.56
		c-0.71-0.97-1.42-1.94-2.13-2.92c2.51-1.26,5.03-2.52,7.54-3.78c1.06,2.46,2,4.98,3.22,7.37c1.29,2.53,2.53,5.19,4.34,7.33
		c3.96,4.68,8.3,9.04,12.42,13.58c1.68,1.84,3.21,3.81,4.2,4.99c1.97-5.65,3.79-10.88,5.04-14.47c2.68-0.34,4.88-0.67,7.09-0.88
		c4.75-0.45,9.51-0.85,14.94-1.32c2.49-10.32,1.49-13.48-5.78-15.01c5.71-4.15,6.68-12.87,1.87-16.91
		c10.93-6.29,11.46-11.18,2.26-19.43c-1.59-1.43-3.21-3.16-4-5.08c-1.95-4.75-2.49-10.37-5.35-14.39
		c-3.51-4.94-8.79-8.63-13.71-13.24C399.14,565.11,397.89,566.74,395.92,569.33z M209.98,663.74c11.67-7.52,14.58-12.64,11.99-19.38
		c6.53,2.11,14.38-2.4,15.22-8.75c9.96,5.1,15.74,1.73,16.29-9.3c0.13-2.58,0.7-5.32,1.81-7.64c2.88-6.01,6.96-11.57,9.02-17.82
		c1.31-4-0.12-8.9-0.33-13.39c-1.93-0.29-3.7-0.55-5.82-0.87c6.22-5.75,5.57-9.22-1.7-13.01c-1.3-0.68-2.46-2.16-3.09-3.54
		c-5.38-11.87-18.61-15.9-27.88-9.44c-3.54-0.57-8.1-1.93-8.43-1.25c-1.62,3.35-2.12,7.25-3.25,11.92
		c-2.54-0.89-5.95-2.08-10.29-3.6c1.2,2.36,1.91,3.76,2.64,5.19c-2.12,1.02-4.49,1.48-5.79,2.9c-4.72,5.15-9.57,10.3-13.34,16.12
		c-1.52,2.35-0.61,6.45-0.32,9.72c0.17,1.91,1.31,3.74,1.74,4.89c2.95,0.25,5.47,0.47,7.82,0.67c-2.65,5.97-5.36,10.77-6.88,15.91
		c-1.54,5.21-1.8,10.79-2.78,16.18c-0.51,2.78-1.39,5.49-1.86,7.29c5.45-1.6,10.66-3.13,15.79-4.63
		C200.04,650.89,217.94,650.25,209.98,663.74z"/>
	<path d="M337.23,529.66c0-3.52,0.21-7.05-0.06-10.55c-0.3-3.85-0.47-7.65-5.8-8.81c-1.67-0.36-2.61-4.1-4.23-6.9
		c-4.55,3.4-10.42,12.59-13.78-4.58c-2.33,5.45-3.71,8.65-5.08,11.85c-1.17-0.85-2.33-1.69-3.5-2.54
		c-1.01-4.63-2.02-9.26-3.03-13.89c-0.63,0.1-1.26,0.19-1.9,0.29c-0.29,1.54-0.4,3.14-0.92,4.61c-1.67,4.75-3.1,9.29-10.01,8.95
		c-2.18-0.11-6.01,3.37-6.52,5.76c-1.03,4.84-0.31,10.05-0.31,16.26c-7.24-6.15-9.83-13.75-10.66-22.27
		c-0.56-5.8-0.89-11.64-1.76-17.39c-0.43-2.83-1.05-6.43-2.97-8.11c-11.78-10.34-9.46-22.38-5.32-35.02
		c0.66-2.03-0.4-4.62-0.66-6.96c-2.84,0.73-6.13,0.81-8.4,2.37c-2.66,1.84-4.44,4.96-8.29,9.54c0.32-11.26-8.14-11.44-13.52-15.39
		c-5.25-3.85-5.68-10-4.07-16.03c0.88-3.28,1.68-6.87,3.59-9.55c6.71-9.39,6.28-20.09,6.73-30.75c0.08-1.98,1.63-4.06,2.93-5.77
		c1.53-2.02,3.51-3.7,5.3-5.52c-2.29-0.71-4.59-1.38-6.87-2.14c-0.85-0.28-1.64-0.76-2.78-1.3c1.64-5.47,5.84-5.4,9.86-5.32
		c2.9,0.06,5.9,1.12,8.67,0.63c2.08-0.37,4.13-2.25,5.55-3.98c0.35-0.43-1.96-2.85-2.82-4.47c-2.25-4.25-5.52-8.37-6.29-12.89
		c-1.29-7.56,5.41-11.81,12.48-8.72c5.09,2.23,8.9,0.07,7.65-5.18c-1.14-4.79,1.01-6.51,4.31-7.66c9.79-3.4,19.63-6.69,29.59-9.52
		c3.87-1.1,8.12-0.84,11.66-1.15c4.5,4.14,8.55,8.45,13.22,11.92c2.12,1.57,5.96,2.78,8.17,1.93c8.78-3.39,13.12,3.14,18.17,7.59
		c1.16,1.02,0.77,4.76-0.01,6.83c-1.48,3.94-3.75,7.59-4.31,12.46c5-3.36,9.99-6.72,14.99-10.07c0.64,0.38,1.28,0.75,1.92,1.13
		c-2.77,7.43-1.17,11.74,6.65,13.66c2.11,0.52,3.35,5.6,4.49,8.77c1.06,2.96,1.52,6.14,2.15,9.24c2.1,10.4,1.98,10.7-5.1,16.12
		c1.08,5.36,2.03,10.46,3.16,15.53c1.4,6.27,2.09,12.87,4.63,18.65c3.56,8.1,4.43,12.67,0.75,22.03c-3.6-0.6-8.58-2.96-8.14,4.58
		c0.05,0.9-4.25,2.22-6.64,3.02c-1.06,0.36-2.4-0.18-3.61-0.16c-2.3,0.03-4.6,0.11-6.88,0.39c-0.11,0.01-0.26,3.03,0.11,3.16
		c2.33,0.78,4.8,1.14,7.23,1.64c-3.08,4.96-7.02,9.94-9.5,15.57c-4.41,10.03-6.75,11.41-16.8,7.45c-0.43,0.51-0.85,1.01-1.28,1.52
		c1.54,1.02,2.96,2.43,4.66,2.99c4.82,1.59,9.1,3.71,7.77,9.73c-2.14,9.68-4.49,19.35-7.38,28.82c-0.94,3.09-3.86,5.59-5.87,8.36
		C338.13,530.17,337.68,529.92,337.23,529.66z M345.55,391.16c-4.06,2.9-9.77,6.79-15.25,10.97c-2.69,2.05-5.27,4.42-7.37,7.06
		c-5.12,6.44-4.53,12.68,1.81,17.85c1.59,1.3,4.26,1.44,6.48,1.75c4.77,0.65,9.88,0.2,14.32,1.74c11.46,3.97,13.88,3.01,16.74-8.63
		c2.3-0.72,5.54-0.76,6.59-2.29c1.4-2.05,2.13-7.3,1.39-7.67c-7.99-4-4.49-9.96-3.5-15.73c0.54-3.16,0.1-6.5,0.1-9.76
		c-0.71-0.19-1.42-0.38-2.13-0.58c-2.77,2.5-5.18,6.07-8.42,7.16C353.55,393.96,349.83,392.03,345.55,391.16z M251.73,430.77
		c5.11,0.33,9.85,1.13,14.52,0.79c5.03-0.37,10.06-2.9,14.94-2.53c8.17,0.61,11.98-2.24,12.37-10.34c0.13-2.71,2.32-5.94,1.41-7.97
		c-4.62-10.31-17.72-16.1-28.78-13.63c-1.65,0.37-3.75,0.11-5.29-0.61c-5.12-2.4-6.49-0.81-6.95,4.61
		c-0.66,7.74-2.5,15.38-3.96,23.78C250.39,426.19,251.11,428.63,251.73,430.77z M304.05,436.44c-4.11,13.03-7.65,24.23-11.19,35.43
		c0.77,0.42,1.54,0.84,2.31,1.26c1.52-2.17,3.04-4.33,4.33-6.16c2.46,1.01,4.25,1.74,5.68,2.33c1.81-4.65,3.31-8.51,5.11-13.13
		c6.78,6.99,5.17,17.77,15.46,20.49c-2.55-7.27-5.96-13.92-7.07-20.93C317.33,447.17,311.71,442.92,304.05,436.44z"/>
	<path d="M266.44,198.72c-1.82-0.55-3.64-1.09-5.42-1.63c2.46-4.92,4.27-10.61,7.81-14.85c2.18-2.6,7.01-2.99,10.93-4.48
		c-0.85-0.4-2.54-0.88-3.82-1.89c-1.62-1.27-4.36-3.3-4.1-4.44c2.23-9.94,1.89-20.77,9.88-29.65c-3.02,9.23,2.7,14.02,9.03,18.73
		c3.01-3.5,6.75-6.04,9.1,1.86c2.05-1.85,3.57-3.23,6.03-5.45c1.2,4.14,2.13,7.4,3.47,12.04c1.95-6.68,3.9-12.2,11.54-11.75
		c0.92,0.05,2.54-3.76,2.99-5.96c0.53-2.55,0.12-5.3,0.12-7.96c0.73-0.25,1.46-0.5,2.19-0.75c1.69,5.34,4.15,10.58,4.88,16.05
		c1.2,8.94,1.44,17.65,8.58,24.85c2.4,2.43,1.59,8.12,2.04,12.34c0.09,0.83-1.08,1.75-1.11,2.64c-0.12,3.31-1.07,8.94,0.22,9.53
		c4.99,2.3,6.99-2.36,9.06-5.98c0.34-0.6,0.9-1.08,1.91-2.27c4.5,4.39,9.81,8.08,13.05,13.12c4.13,6.42-0.02,13.09-2.03,19.58
		c-1.61,5.19-2.2,10.7-3.78,15.9c-1.46,4.81-3.64,9.39-5.71,14.59c1.24,0.44,3.58,1.27,5.92,2.11c0.06,0.7,0.13,1.41,0.19,2.11
		c-6.04,0.84-12.08,1.67-19.5,2.7c3.27,4.07,5.85,6.22,6.97,8.96c1.16,2.85,2.15,6.9,0.94,9.28c-1.43,2.83-4.72,5.36-9.15,2.46
		c-3.56-2.33-4.85,0.4-5.87,3.73c-0.73,2.38-2.32,5.39-4.36,6.32c-5.72,2.62-11.73,4.97-17.87,6.19
		c-7.25,1.45-14.12,0.34-19.66-5.88c-1.72-1.94-5.63-2.06-8.59-2.73c-2.06-0.46-4.49,0.13-6.32-0.71c-7.59-3.5-8.33-6.24-4.54-13.95
		c0.71-1.44,0.99-3.08,1.86-5.92c-4.5,3.07-7.88,5.38-12.43,8.48c0.38-6.03-0.44-9.2-5.52-11.84c-6.59-3.42-6.64-21.27-0.39-26.51
		c-3.08-9.77-6.75-19.79-9.22-30.11c-0.94-3.92-1.17-7.8,4.38-11.89c5.42-3.98,9.9-5.38,16.31-4.07
		C266.46,200.65,266.45,199.69,266.44,198.72z M296.16,220.47c-3.71-0.85-8-1.82-12.29-2.83c-3.28-0.77-6.52-2.01-9.84-2.26
		c-2.63-0.2-6.65-0.12-7.74,1.44c-2.13,3.06-2.97,6.74-7.45,7.77c-0.73,0.17-1.52,5-0.88,5.39c5.37,3.32,3.07,7.96,2.82,12.36
		c-0.12,2.07,0.45,4.18,0.8,7.08c5.47-3.04,9.06-10.11,14.89-2.61C282.54,237.99,296.19,236.44,296.16,220.47z M348.29,214.74
		c-11.74,1.09-21.51,1.99-31.03,2.87c-4.37,12.88-4.28,17.12,3.97,20.8c6.6,2.94,14.63,2.69,22.05,3.69
		c0.61,0.08,1.92-1.12,2.02-1.84C346.35,232.17,347.23,224.06,348.29,214.74z M307.34,210.1c2.61-7.73,5.1-15.08,7.77-22.97
		c-4.07,0.54-6.84,0.91-9.19,1.22c-1.06,2.76-2,5.21-3.71,9.63c-2.12-4.62-3.07-7.32-4.55-9.71c-1.42-2.3-3.38-4.26-5.11-6.37
		c-0.5,0.44-1,0.87-1.5,1.31C296.96,191.44,293.86,204.77,307.34,210.1z"/>
	<path d="M443.54,549.79c-6.02,5.43-1.09,9.68,0.04,12.97c-4.09,2.79-7.47,6.2-11.53,7.51c-3.52,1.13-8.05,0.61-11.69-0.55
		c-2.76-0.88-4.72-4.06-7.22-5.97c-4.9-3.72-9.77-7.51-14.96-10.8c-3.62-2.3-8.09-3.45-7.22-9.23c0.16-1.09-0.74-2.34-1.4-4.25
		c-3.02,3.72-4.44,5.48-5.87,7.23c-0.72-0.21-1.44-0.42-2.15-0.63c1.47-5.7,2.93-11.39,4.75-18.46c-4.98,1.29-8.38,2.83-11.77,2.83
		c-2.8,0-6.98-1.07-8.04-3.02c-1.16-2.15-0.34-6.45,1.21-8.74c2.21-3.27,2.37-6-1.05-6.94c-4.78-1.31-4.57-4.71-4.49-7.91
		c0.14-5.57,0.38-11.24,1.55-16.66c1.67-7.67,4.6-14.53,13.62-16.93c2.25-0.6,3.59-4.63,5.35-7.08c1.48-2.07,2.64-4.52,4.52-6.12
		c4.78-4.05,9.39-5.13,12.81,1.91c0.67,1.38,2.31,2.3,4.7,4.57c-0.97-5.6-1.67-9.64-2.37-13.67c0.54,0.57,1.07,1.14,1.61,1.71
		c3.8-1.46,7.66-2.79,11.38-4.41c5.86-2.56,19.47,2.23,22.99,8.23c0.33,0.56,0.8,1.34,1.31,1.43c8.44,1.47,16.91,2.8,25.35,4.28
		c3.74,0.65,7.62,1.11,11.06,2.56c1.39,0.59,1.82,3.56,2.56,5.49c0.11,0.3-0.67,1.17-0.6,1.22c6.67,5.24,1.29,10.83-0.54,16.3
		c0.56,0.23,1.13,0.46,1.69,0.69c1.38-1.29,2.76-2.57,4.02-3.75c3.74,4.16,8.44,7.99,11.1,12.92c1.42,2.64-0.69,7.19-1.24,11.14
		c-0.58-0.2,0.14,0.2,0.25,0.07c5.72-6.7,11.04-5.72,17.09-0.02c5.13,4.83,11.11,8.74,16.72,13.05c-0.48,0.72-0.96,1.45-1.44,2.17
		c-3.48-1.22-7.01-3.49-10.44-3.36c-3.18,0.12-6.26,2.8-10.16,4.73c0.76,3.02,4.5,8.9-4.82,7.22c0.6,2.78,1.07,4.93,1.75,8.08
		c-4.02-0.7-7.18-1.26-10.34-1.81c-0.23,0.32-0.46,0.65-0.69,0.97c1.26,0.96,2.81,1.7,3.73,2.92c1.39,1.84,3.85,4.84,3.26,5.92
		c-5.18,9.39,3.33,9.71,7.92,12.58c0.76,0.48,1.75,0.58,2.64,0.86c-0.07,0.74-0.14,1.47-0.21,2.21c-5.29-0.37-10.77,0-15.83-1.28
		c-8.94-2.27-17.3-5.59-27-1.92c-3.29,1.25-8.58-1.82-12.58-3.7C449.49,554.76,446.64,552.02,443.54,549.79z M432.47,478.02
		c1.98,7.1,3.06,13.66,5.73,19.49c1.44,3.16,5.63,7.04,8.52,6.99c2.85-0.05,5.84-4.45,8.36-7.3c1.88-2.13,2.54-5.65,4.72-7.15
		c9.23-6.35-0.78-11.58-0.71-17.32c0.02-1.49-0.84-3.35-1.93-4.36c-0.77-0.72-2.61-0.22-3.96-0.38c-3.27-0.37-6.61-0.48-9.76-1.32
		c-2.5-0.67-4.76-2.25-7.68-3.69C434.31,468.93,441.64,475.53,432.47,478.02z M433.47,556.13c2.81-9.66,5.17-17.19,7.1-24.83
		c0.55-2.17,0.64-6.21-0.38-6.72c-3.75-1.87-5.45-7.73-11.68-5.29c-7.47,2.92-17.22,13.66-17.98,21.59
		c-0.08,0.83,0.3,2.18,0.92,2.54C418.36,547.52,425.35,551.48,433.47,556.13z M484.69,518.21c-0.2-0.77-0.41-1.53-0.61-2.3
		c-9.88,1.73-20.78-5.49-31.04,4.53c6.31,5.45,12.28,10.6,18.26,15.77c1.08-3.81,1.78-6.3,2.48-8.78c-1.86-1.7-3.83-3.5-6.98-6.39
		C473.94,519.92,479.31,519.06,484.69,518.21z"/>
	<path d="M147.93,557.15c0.76-0.61,0.05-0.21,0.1-0.06c3.53,10.62-3.97,12.06-11.31,13.63c-6.38,1.36-12.77,2.71-20.09,2.57
		c9.26-2.41,10.21-9.91,11.65-16.97c-6.42-3.6-6.42-3.6-3.19-9.65c-1.17-0.3-2.24-0.46-3.21-0.86c-1.05-0.43-2.01-1.09-3.85-2.12
		c2.95-2.58,5.4-4.72,8.94-7.81c-2.51,0.28-3.89,0.56-5.27,0.56c-2.12,0-5.61,0.55-6.15-0.43c-5.46-9.95-11.84-4.24-18.12-1.08
		c-0.49-0.62-0.99-1.24-1.48-1.86c4.15-3.99,7.94-8.46,12.52-11.86c6.86-5.09,13.72-9.51,16.76-18.5c1.17-3.45,6.81-5.42,10.49-7.96
		c0.52-0.36,1.53,0.07,2.15-0.22c3.03-1.43,6-2.98,8.99-4.48c-3-1.89-5.99-3.79-9.02-5.64c-0.6-0.37-1.35-0.51-1.43-0.54
		c0.94-5.14,1.82-10.05,2.72-14.96c1.29-7.02,6.98-7.88,12.55-9.12c9.53-2.12,19-4.44,28.5-6.68c-0.16-0.57-0.33-1.14-0.49-1.71
		c2.47,1.04,4.93,2.09,8.83,3.74c-0.88-4.03-1.38-6.36-1.89-8.7c0.63-0.42,1.26-0.84,1.88-1.25c1.79,2.59,3.49,5.26,5.41,7.76
		c1.68,2.19,3.6,4.19,5.41,6.28c1.27-2.06,2.84-3.99,3.76-6.19c2.93-7.05,9.45-10.7,12.12-6.27c4.03,6.69,8.87,7.31,15.45,9.18
		c6.16,1.75,11.03,9.05,15.75,14.53c5.08,5.89,5.76,12.82,3.09,20.37c-0.7,1.97,1.4,4.89,2.11,7.4c0.76,2.69,1.95,5.41,1.99,8.13
		c0.06,5.7-2.02,9.43-8.9,7.75c-1.64-0.4-3.6,0.52-7.09,1.12c4.95,2.64,8.39,4.48,10.44,5.57c-1.77,4.52-3.6,8.08-4.55,11.87
		c-1.59,6.42-13.49,14.8-20.27,13.89c-0.84-0.11-2.03-0.09-2.56,0.41c-6.6,6.11-13.05,12.37-19.66,18.47
		c-2.26,2.09-4.61,4.4-7.37,5.5c-1.58,0.63-4.07-0.91-6.1-1.61c-0.59-0.21-1.17-1.4-1.49-1.3c-8.84,2.71-7.8-5.57-11.96-11.34
		c-0.77,3.45-1.23,5.47-1.71,7.62c-4.3,0.2-9.79,1.38-14.84,0.38C154.24,564.03,151.61,560.19,147.93,557.15z M179.72,521.32
		c-2.46,4.83-2.57,9.64,1.37,14.41c1.29,1.56,1.83,4.03,2.02,6.15c0.39,4.35,0.66,8.23,6.39,8.94c3.99,0.49,7.85,2.03,11.83,2.77
		c0.7,0.13,2.47-1.4,2.44-2.13c-0.2-6.07,4.75-6.49,8.57-8.27c2.16-1.01,4.15-2.38,7.32-4.23c-6.24-2.98-13.96-2.86-10.83-11.14
		C198.91,524.82,190.94,516.02,179.72,521.32z M149.23,480.07c1.74,2.56,2.86,4.12,3.89,5.75c3.7,5.87,7.26,11.83,11.16,17.56
		c0.7,1.03,2.83,1.72,4.19,1.57c11.03-1.27,15.88-9.36,12.06-20.08c-1.57-4.39-3.46-8.68-5.47-12.89c-0.36-0.76-2.28-1.53-3.07-1.23
		C164.5,473.67,157.1,476.81,149.23,480.07z M145.52,543.02c0.78,0.47,1.56,0.93,2.34,1.4c4.86-8.73,16.89-12.7,16-26.88
		c-8.32,1.62-16.33,3.18-23.86,4.65c2.24,3.06,3.82,5.22,5.12,7.01c2.86-0.35,5.54-0.68,9.36-1.15
		C151,533.88,148.26,538.45,145.52,543.02z"/>
	<path d="M114.79,355.48c8.09,4.16,11.27,19.58,5.25,27.88c-1.69,2.33-2.6,5.33-3.44,8.15c-1.91,6.43-6.33,6.93-12.33,4.89
		c0.8,2.33,1.39,4.05,1.85,5.4c-2.42,1.69-4.25,3.73-6.47,4.36c-4.94,1.4-10.96,4.24-14.96,2.61c-6.8-2.78-12.78-1.9-18.68,0.24
		c-10.2,3.7-15.06,0.96-15.8-7.6c-5.98-3.72-10.63-6.62-16.23-10.1c-3.68,1.67-13.15-0.34-20.92-6.2
		c11.53,1.83,10.14-6.83,12.1-12.77c0.58-1.77,1.32-3.48,2.48-6.48c-2.19-2.52-5.72-6.59-9.46-10.91c-0.35,0.21,0.64-0.7,1.81-1.03
		c8.05-2.28,16.03-5,24.23-6.42c4.5-0.78,9.4,0.69,15.63,1.29c-1.55-3.31-2.66-5.69-4.01-8.56c0.89-0.46,2.07-0.75,2.8-1.48
		c8.17-8.2,8.13-8.17,18.71-3.27c2.14,0.99,4.51,1.47,6.79,2.16c3.6,1.08,7.22,2.14,12.3,3.65c-0.09,0.24,0.48-1.34,1.04-2.93
		c0.52,0.3,1.05,0.59,1.57,0.89c0.33,3.37,0.66,6.74,0.93,9.44c4.6-0.82,8.61-2.01,12.57-1.86
		C113.34,346.85,113.94,352,114.79,355.48z M81.95,401.27c-0.84-2.58-2.22-4.8-2.16-6.98c0.18-6.69-3.73-11.04-8.5-14.3
		c-1.52-1.04-6.68,0.23-7.61,1.89c-4.77,8.47-3.01,14.95,3.75,20.83C72.79,402.17,77.14,401.74,81.95,401.27z M65.47,343.38
		c-4.26,13.85-0.9,22.72,5.17,23.19c6.06,0.47,9.5-5.65,10.35-19.82C75.98,345.66,70.92,344.56,65.47,343.38z M39.58,378.56
		c15.22-1.84,16.05-2.28,17.43-8.96c-3.9-1.44-7.86-2.9-11.83-4.36c-0.49,0.53-0.97,1.06-1.46,1.59c1.53,2.33,3.06,4.66,4.67,7.11
		C45.89,375.25,43.49,376.51,39.58,378.56z"/>
	<path d="M125.63,464.37c2.21,2.02,3.74,3.41,5.49,5.02c-4,4.68-7.1,9.99-11.68,13.17c-4.39,3.05-10.39,3.7-15.52,5.79
		c-2.16,0.88-4.15,2.53-5.81,4.23c-8.18,8.41-13.32,7.8-19.31-2.47c-3.35,4.52-13.23,3.09-17.38-2.52
		c-2.09,6.48-8.39,8.91-21.91,7.71c10.26-4.02,6.21-10.92,5.39-17.16c-0.27-2.1-0.31-4.23-0.5-6.89c-3.92-1.32-9.27-3.13-15.06-5.08
		c2.18-1.57,5.37-3.58,8.2-6.01c3.78-3.25,7.14-7,10.96-10.2c2.45-2.05,5.28-3.77,8.17-5.14c2.11-1,4.61-1.19,8.85-2.19
		c-3.29-2.81-5.4-4.61-7.91-6.76c0.53-0.74,2-1.83,1.98-2.9c-0.24-11.48,8.17-10.55,15.62-11.23c2.59-0.24,5.11-1.14,7.69-1.55
		c3.28-0.52,6.59-0.84,11.09-1.39c-0.02,0.07,0.41-1.55,1.14-4.35c2.45,3.98,4.35,7.05,6.77,10.97c1.4-2.44,1.96-4.08,3.07-5.19
		c1.63-1.63,3.6-3.85,5.53-3.95c1.41-0.07,2.96,2.87,4.47,4.45c0.92,0.96,1.76,2.46,2.86,2.7c11.34,2.49,17.91,12.27,15.84,23.55
		c-0.37,2.03-0.05,4.34,0.52,6.36C136.48,461.5,135.01,463.73,125.63,464.37z M96.09,486.87c4.73-3.01,8.59-5.45,12.69-8.06
		c-1.81-1.52-4.62-2.69-5.09-4.49c-1.95-7.39-8.37-8.52-13.95-10.09c-4.83-1.36-7.45,2.35-6.29,7.37
		C85.18,479.08,86.82,486.56,96.09,486.87z M83.45,430.48c-16.28,3.98-16.28,3.98-14.6,9.55c3.02,10,8.41,14.84,14.17,12.7
		C88.63,450.65,88.8,444.25,83.45,430.48z M59.7,462.72c-0.3,0.71-0.6,1.43-0.91,2.14c2.35,1.48,4.7,2.96,7.09,4.46
		c-1.46,2.16-3.03,4.47-4.59,6.78c0.56,0.38,1.12,0.76,1.67,1.15c3.89-4.39,7.79-8.78,11.68-13.16c-0.51-0.68-1.02-1.36-1.54-2.04
		C68.64,462.27,64.17,462.5,59.7,462.72z"/>
	<path d="M522.24,392.54c-0.23,0.35-1.05,1.61-2.66,4.09c-0.81-5.04-1.39-8.65-1.86-11.6c-4.56,1.29-8.48,2.63-12.5,3.17
		c-0.4,0.05-1.45-4.77-2.4-7.98c-9.85-4.84-13.46-18.64-6.94-28.79c1.1-1.71,1.77-3.95,1.92-5.99c0.57-8.05,3.43-9.9,11.94-6.44
		c-1.06-2.44-1.86-4.27-3.33-7.66c6.47-2.62,12.66-5.94,19.27-7.5c4.3-1.02,9.21,0.79,13.84,0.81c2.32,0.01,4.82-0.76,6.93-1.81
		c9.45-4.67,14.76-1.55,15.64,9.42c7.27-2.59,11.05,2.97,15.89,4.91c7.43,1.14,14.86,2.27,22.29,3.41c0.28,0.84,0.56,1.69,0.84,2.53
		c-10.73-1.02-10.11,6.55-11.42,12.73c-0.48,2.29-1.23,4.53-2.08,7.59c2.79,2.48,7.04,6.26,11.66,10.36
		c-2.42,0.59-5.88,1.22-9.19,2.3c-4.94,1.62-9.71,3.78-14.68,5.27c-3.14,0.94-6.51,1.35-9.79,1.44c-2.24,0.06-4.51-0.83-8.95-1.75
		c2.45,4.19,3.8,6.5,5.37,9.18c-0.77,0.52-1.92,0.99-2.64,1.82c-7.55,8.68-7.49,8.59-18.41,4.42c-2.63-1-5.65-0.92-8.46-1.5
		C529.46,394.38,526.44,393.56,522.24,392.54z M546.47,354.72c0.95-0.5,1.9-0.99,2.85-1.49c1.08-5.29,3.38-10.71,2.82-15.81
		c-0.38-3.46-4.79-6.48-6.68-8.82c-5.42,1.17-9.86,2.13-14.53,3.14c1.65,4.29,2.65,9.16,5.23,12.96
		C538.79,348.6,542.97,351.43,546.47,354.72z M553.24,387.82c-0.44-5.62-0.97-10.08-1.09-14.56c-0.14-5.12-3.41-8.36-7.54-7.35
		c-3.16,0.77-6.48,4.74-7.83,8.06c-1.34,3.28-0.29,7.53-0.29,11.91C541.7,386.49,546.83,387.08,553.24,387.82z M556.72,357.69
		c0.19,1.09,0.38,2.18,0.57,3.27c4.2,1.33,8.4,2.66,12.6,4c0.51-0.65,1.03-1.31,1.54-1.96c-1.66-1.91-3.31-3.82-5.21-6.01
		c2.2-1.47,4.59-3.07,6.98-4.67c-0.3-0.52-0.59-1.04-0.89-1.57C567.11,353.06,561.92,355.38,556.72,357.69z"/>
	<path d="M495.19,455.33c-14.66,0.41-15.76-0.66-11.26-9.88c-7.11-7.99-4.36-23.32,4.81-28.8c2.45-1.47,3.87-4.56,6.08-6.55
		c2.1-1.88,4.63-3.29,7.21-5.08c2.01,2.25,3.58,4.01,6.02,6.74c-0.14-3.04-0.23-4.95-0.32-6.84c3.47-3.96,19.01-3.66,22.87,1.04
		c4.51,5.5,10.45,6.57,16.69,6.8c11.47,0.43,15.13,5.69,10.9,16.03c7.31-0.82,6.83,6.76,10.46,9.87c1.03,0.89,1.57,2.41,2.67,3.14
		c5.49,3.64,11.1,7.11,16.55,11.95c-13.97-6.41-11.84,12.27-21.27,12.34c2.02,5.13,3.98,10.14,6.1,15.52
		c-1.69-0.27-4.8-0.86-7.93-1.24c-5.64-0.68-11.42-0.7-16.9-2.01c-5.23-1.25-10.15-3.79-15.97-6.06c0,2.26,0,5.02,0,8.39
		c-1.08,0.06-2.92-0.41-3.6,0.27c-7.69,7.69-12.4,1.38-17.57-3.44c-2.08-1.94-4.51-3.49-6.69-5.33c-2.59-2.18-5.07-4.49-8.41-7.46
		c-0.15,0.09-1.52,0.95-4.26,2.64C492.89,462.61,493.94,459.28,495.19,455.33z M530.61,414.81c-0.81,2.74-2.63,5.62-2.22,8.15
		c0.89,5.46,2.68,10.83,4.69,16c0.35,0.91,4.62,1.62,5.32,0.85c3.35-3.72,7.32-7.64,8.61-12.19c0.82-2.88-1.75-8.23-4.45-10.2
		C539.53,415.21,534.64,415.56,530.61,414.81z M525.69,474.74c2.23-6.48,4.24-11.14,5.31-16.01c0.45-2.03-0.46-5.2-1.93-6.58
		c-1.51-1.41-5.57-2.5-6.63-1.58c-4.57,4-8.46,8.8-13.17,13.93C515.5,468.39,519.86,471.11,525.69,474.74z M558.94,451.51
		c-9.61-4.77-14.09-4.43-17.85,1.21c3.19,2.95,6.42,5.95,9.65,8.95c0.66-0.37,1.31-0.74,1.97-1.11c-0.7-2.6-1.4-5.19-2.19-8.11
		C552.93,452.17,555.57,451.88,558.94,451.51z"/>
	<path d="M488.69,177.1c3.98-0.51,9.31-1.2,15.39-1.99c-1.77,3.07-4.58,6.92-6.32,11.21c-1.79,4.4-1.8,9.62-3.97,13.76
		c-2.23,4.24-6.14,7.59-10.16,12.31c3.67,0.61,6.34,1.05,9.01,1.5c0.13,0.19,0.31,0.36,0.39,0.57c4.26,11.67-1.75,17.28-11.74,21.63
		c-4.08,1.78-7.01,6.22-11.43,10.36c-0.14-0.48,0.28,1,1.05,3.73c-4.09-2.44-7.17-4.29-9.71-5.81c-2.04,4.54-3.8,8.46-5.56,12.38
		c-2.56-1.23-5.13-2.47-8.01-3.85c-7.28,4.58-22.3-1.62-25.3-10.72c-0.98-2.97-2.74-5.9-4.81-8.26c-4.12-4.71-3.53-8.5,2.66-12.68
		c-2.07-0.53-4.06-1.05-6.5-1.67c1.45-6.16,1.89-12.4,4.45-17.6c2.26-4.58,7.14-7.81,10.39-12.01c1.71-2.21,3.22-5.13,3.44-7.84
		c0.62-7.46,5.84-10.3,11.31-8.5c8.45,2.77,12.77-6.51,20.75-5.31c2.31,0.35,5.45-6.87,8.7-10.14c2.08-2.09,5.05-3.31,8.82-5.66
		c-4.83,8.54-4.06,11.73,2.96,18.59C485.95,172.52,486.88,174.47,488.69,177.1z M428.93,200.48c2.59,0.57,4.61,1.06,6.65,1.46
		c4.94,0.95,9.94,2.76,14.83,2.53c5.09-0.25,7.42-5.69,4.34-8.83c-5.39-5.49-10.33-12.98-18.66-7.98
		C433.42,192.42,431.31,196.21,428.93,200.48z M487.12,219.78c-5.99-4.27-9.6-6.65-12.98-9.32c-3.8-3-8.12-3.8-10.28,0.68
		c-1.47,3.04-1.2,8.08,0.39,11.13c1.84,3.5,5.99,5.78,9.21,8.66C477.96,227.25,481.96,223.99,487.12,219.78z M471.28,180.55
		c-2.36,5.81-8.93,11.04-3.55,18.47c3.94-2.7,7.66-5.25,11.38-7.81c-0.07-0.61-0.15-1.23-0.22-1.84c-2.69-0.19-5.37-0.38-8.39-0.6
		C470.73,186.35,471.01,183.45,471.28,180.55z"/>
	<path d="M476.26,276.04c-2.13-1.52-3.46-2.48-4.56-3.26c1.53-3.51,2.3-7.38,4.55-9.96c3.28-3.75,6.28-7.58,12.88-7.81
		c4.39-0.15,9.35-4.91,12.73-8.77c7.68-8.79,13.08-8.74,19.07,1.25c3.67-6.6,9.44-0.8,13.99-2.35c1.56-0.53,3.25-0.66,4.85-1.09
		c6.08-1.63,12.15-3.31,19.06-4.09c-9.31,5.32-3.98,12.04-3,18.15c0.31,1.9,0.54,3.8,0.9,6.36c3.85,1.37,9,3.2,14.7,5.22
		c-1.96,1.55-4.68,3.41-7.04,5.64c-3.62,3.43-6.66,7.53-10.55,10.59c-4.18,3.29-9.04,5.71-14.5,9.06c1.78,1.4,3.81,2.99,6.24,4.9
		c0,0.05-0.08,0.71-0.1,1.37c-0.37,12.34-8.74,13.12-18.31,13.56c-4.98,0.23-9.85,2.91-15.92,4.85c0-0.47,0,1.05,0,4.49
		c-3.13-4.48-5.21-7.45-7.44-10.65c-2.81,3.45-4.7,7.17-7.72,8.78c-1.25,0.67-4.91-3.19-8.9-5.98c-8.9,0.48-19.22-11.41-17.34-22.34
		c0.34-1.96,0.09-4.28-0.66-6.12C466.26,280.65,467.69,277.66,476.26,276.04z M492.82,261.27c1.62,1.2,4.21,2.11,4.82,3.76
		c2.26,6.12,7.97,7.11,12.81,9c3.76,1.48,8.11-0.12,7.8-4.59c-0.34-4.86-1.82-10.33-4.7-14.07c-1.9-2.46-7.69-3.96-10.77-2.95
		C499.03,253.64,496.31,257.97,492.82,261.27z M520.78,307.13c5.21-1.88,10.57-3.82,16.81-6.08c-3.19-4.86-6-8.23-7.78-12.09
		c-2.63-5.69-7.65-6.18-10.99-3.25c-2.45,2.15-2.75,7.69-2.53,11.63C516.48,300.41,518.95,303.35,520.78,307.13z M539.64,260.75
		c-0.48-0.4-0.96-0.8-1.45-1.2c-3.78,4.6-7.56,9.19-11.34,13.79c0.55,0.76,1.11,1.51,1.66,2.27c4.66-0.56,9.32-1.12,13.98-1.67
		c0.17-0.69,0.33-1.39,0.5-2.08c-2.53-1.31-5.06-2.61-7.8-4.03C536.68,265.46,538.16,263.11,539.64,260.75z"/>
	<path d="M131.4,278.24c4.94,1.25,8.72,1.72,11.87,3.39c0.71,0.37-0.8,4.93-1.44,8.35c6.05,8.34,2.61,22.38-7.5,27.59
		c-1.83,0.95-3.58,2.46-4.8,4.13c-5.25,7.21-7.86,7.44-14.16,0.11c0,2.69,0,4.8,0,6.88c-5.33,0.32-10.49,1.91-14.72,0.57
		c-6.09-1.93-11.43-6.14-17.23-9.09c-2.09-1.06-4.57-1.71-6.92-1.86c-12.05-0.75-15.23-5.89-10-16.5
		c-5.83-0.76-10.55-7.35-9.81-13.71c-5.79,1.4-13.34-3.69-17.77-11.33c3.87-1.02,8.54-1.23,11.93-3.42
		c3.32-2.15,7.02-6.07,7.51-9.64c0.62-4.48-1.84-9.4-3.08-14.55c-0.56,0.03,1.05-0.48,2.35-0.05c7.78,2.56,15.05,5.97,23.96,4.85
		c3.76-0.47,8.19,4.46,13.74,7.78c0.18-3.4,0.34-6.31,0.53-9.85c0.87,0,2.35,0.38,3.51-0.06c10.34-3.9,10.78-3.7,17.5,4.85
		c1.71,2.17,4.37,3.57,6.47,5.48c2.46,2.24,4.78,4.65,7.84,7.65c0.14-0.06,1.53-0.65,3.93-1.67
		C133.59,272.24,132.42,275.44,131.4,278.24z M93.54,317.82c0.31-2.73,0.01-5.29,0.92-7.28c2.72-5.91,1.55-11.54-1.44-16.56
		c-2.41-4.05-6.12-4.17-9.36-0.13c-4.87,6.06-9.88,12.04-4.27,19.37C84.29,314.81,88.69,316.24,93.54,317.82z M101.73,258.34
		c-2.4,5.13-3.96,9.14-6.07,12.83c-2.73,4.75-1.73,9.25,2.85,10.63c3.12,0.94,8.04-0.83,10.87-3.03c2.97-2.3,4.41-6.57,6.58-10.1
		C111.4,265.37,107.18,262.3,101.73,258.34z M85.28,280.16c-3.64-3.87-6.88-7.3-10.11-10.74c-0.6,0.29-1.19,0.58-1.79,0.87
		c0.36,2.9,0.72,5.8,1.1,8.92c-1.47,0-2.91-0.07-4.34,0.02c-1.18,0.07-2.34,0.34-4.72,0.71C78.52,284.21,78.52,284.21,85.28,280.16z
		"/>
	<path d="M369.14,132.14c1.92-2.29,3.53-4.06,4.96-5.96c2.9-3.87,8.41-4.77,9.53-11.24c0.8-4.62,6.04-8.46,10.21-12.79
		c-5.95,13.9,12.54,10.88,12.96,20.16c4.97-1.96,9.96-3.93,15.22-6c0,0.68,0.13,2.7-0.02,4.69c-0.56,7.1-0.64,14.31-2.05,21.25
		c-1.01,5.01-3.84,9.66-6.34,15.6c3.45-0.52,6.13-0.93,8.86-1.35c1.38,2.69,3.25,5.39,4.14,8.39c0.57,1.93,0.36,4.68-0.65,6.37
		c-3.93,6.58-8.22,12.95-12.65,19.2c-0.76,1.08-2.87,1.2-4.71,1.9c0.95,1.62,1.72,2.93,3.19,5.45c-4.72-1.3-8.2-2.25-12.27-3.37
		c0.27,4.5,1.6,8.53,0.27,11.26c-0.78,1.59-5.84,1.07-10.35,1.69c-5.09,5.7-20.4,4.15-25.9-3.95c-1.43-2.1-3.16-4.38-5.31-5.55
		c-7.36-3.98-8.2-6.92-2.63-13.44c-2.07,0-3.81,0-5.45,0c-0.95-2.88-2.15-5.41-2.6-8.06c-0.98-5.89-1.5-11.07,3.82-16.41
		c3.29-3.3,3.86-10.31,3.88-15.65C355.28,132.86,359.51,129.2,369.14,132.14z M357.61,160.98c3.29,0.86,6.34,2.68,8.85,2.1
		c5.43-1.24,10.71-3.43,15.7-5.93c0.83-0.42,0.82-5.28-0.4-6.57c-6.9-7.29-12.92-7.69-21-3.02
		C359.53,152.81,358.54,157.01,357.61,160.98z M417.71,163.18c-6.23-1.88-10.96-3.62-15.84-4.62c-1.88-0.39-5.03,0.22-5.95,1.53
		c-1.39,2-2.69,6.18-1.66,7.37c3.87,4.44,8.7,8.04,13.84,12.54C411.74,173.64,414.31,169.13,417.71,163.18z M394.33,138.19
		c-0.48-2.31-1.12-5.33-1.75-8.34c-0.46,6.37-5.26,13.17,1.81,19.26c3.19-3.68,6.11-7.05,9.03-10.43c-0.23-0.6-0.45-1.2-0.68-1.8
		C400.06,137.29,397.39,137.71,394.33,138.19z"/>
	<path d="M111.79,218.89c-1.48-2.39-2.64-3.8-3.31-5.41c-1.93-4.63-1.01-9.86-5.67-14.15c-3.95-3.63-5.4-10-7.81-14.87
		c4.24,0.94,8.06,2.87,11.37,2.21c3.3-0.66,6.08-3.91,9.86-6.57c0.56,0.3,2.16,1.18,4.11,2.24c0-5.98,0-11.6,0-17.44
		c0.51,0.22,2.46,0.81,4.17,1.81c6.35,3.7,12.97,7.07,18.79,11.47c3.85,2.91,6.51,7.38,10.6,12.21c1.1-3.27,1.93-5.77,2.71-8.08
		c2.4-0.23,5-1.11,7.21-0.53c2.73,0.72,6.07,2.03,7.51,4.18c3.86,5.75,7,12.01,10.09,18.24c0.87,1.76,0.58,4.1,0.83,6.25
		c1.37,0,2.7,0,5.2,0c-2.77,3.29-4.94,5.88-7.71,9.17c3.03,0.9,5.34,1.3,7.4,2.24c4.61,2.12,5.66,4.98,1.49,8.79
		c-1.06,0.97-2.36,2.57-2.27,3.78c0.94,11.78-6.25,21.01-17.61,22.34c-1.4,0.16-2.93,0.5-4.07,1.26c-8.84,5.88-9.85,5.68-14.06-3.87
		c-0.89,2.47-1.64,4.53-2.21,6.13c-3.08-0.53-6.07-0.32-8.22-1.56c-4.27-2.46-8.37-5.4-12-8.73c-4.39-4.04-7.46-10.06-12.44-12.81
		C105.75,231.65,104.35,226.4,111.79,218.89z M132.33,242.72c1.33-2.66,1.94-5.11,3.46-6.69c4.69-4.88,5.49-10.66,4.22-16.8
		c-0.92-4.42-4.38-5.32-7.71-2.96c-6.22,4.41-14.91,7.61-11.26,17.39C125.02,236.85,128.6,239.72,132.33,242.72z M169.99,203.93
		c-2.93-4.53-5.86-9.06-10.48-16.19c-3.73,4.75-6.19,8.67-9.42,11.79c-3.97,3.83-4.49,8.44-0.58,11.05
		c2.83,1.89,8.14,1.37,11.83,0.24C164.48,209.87,166.89,206.52,169.99,203.93z M120.09,197.03c5.2,3.45,9.2,10.31,17.59,6.68
		c-1.86-4.43-3.6-8.57-5.34-12.72c-0.56-0.02-1.13-0.04-1.69-0.06c-0.72,2.83-1.44,5.67-2.21,8.71
		C125.65,198.77,122.87,197.9,120.09,197.03z"/>
	<path d="M275.38,601.75c-0.52-0.45-1.57-1.34-3.43-2.95c4.56-0.47,8.17-0.84,10.95-1.13c-0.86-4.81-1.79-8.75-1.95-12.72
		c-0.02-0.41,4.52-1,7.78-1.68c2.23-7.64,9.99-9.96,16.79-8.99c9.42,1.34,18.42,5.67,28.12,8.89c-1.91,3.9-2.85,5.82-4.33,8.83
		c2.85-1.18,4.83-2,7.24-3c2.54,5.79,5.99,11.03,6.97,16.71c0.88,5.05-1.22,10.57-1.52,15.9c-0.13,2.31,0.54,4.86,1.5,7
		c4.66,10.39,1.23,15.68-10.42,15.76c1.31,5.54-2.73,12.92-5.98,14.17c-0.76,5.66-1.36,10.14-1.96,14.63
		c-2.97-0.42-5.93-0.91-8.9-1.24c-3.9-0.43-7.81-0.74-12.07-1.13c-0.36-1.39-0.8-3.13-1.2-4.66c-4.1,3.76-8.03,7.37-12.75,11.71
		c-0.63-2.7-1.08-5.13-1.76-7.5c-1.51-5.26-3.32-10.43-4.62-15.74c-0.73-2.97-0.79-6.12-0.97-9.21c-0.15-2.62-0.05-5.25-0.05-7.88
		c-2.3,1.04-4.59,2.08-7.48,3.39c-0.28-0.49-0.58-1.88-1.37-2.26c-10.41-4.97-6.57-11.99-3.19-19.29c1.17-2.54,0.89-5.71,1.59-8.52
		C273.04,608.07,274.14,605.4,275.38,601.75z M335.15,613.22c-2.17,0.92-4.46,2.87-6.31,2.51c-6.91-1.33-10.51,3.62-14.06,7.45
		c-4.36,4.7-2.06,8.62,4.56,9.48c2.6,0.34,5.11,1.48,7.71,1.76c1.69,0.18,3.89-0.01,5.12-0.97c2.32-1.82,4.11-4.33,5.59-5.96
		C336.86,622.55,336.04,618.05,335.15,613.22z M278.14,632.28c5.99,0,11.02,0.38,15.95-0.18c2.05-0.23,5.16-2.21,5.51-3.87
		c0.54-2.58,0.01-7.24-1.6-8.09c-4.99-2.6-10.71-3.82-16.73-5.76C280.07,621.26,279.17,626.4,278.14,632.28z M312.56,654.41
		c0.65-0.36,1.3-0.72,1.94-1.09c-2.34-5.4-4.67-10.79-7.69-17.75c-2.07,3.14-2.92,4.03-3.32,5.09c-1.24,3.35-2.3,6.76-3.44,10.15
		c0.41,0.48,0.83,0.97,1.24,1.45c2.36-1.5,4.73-2.99,7.32-4.63C309.8,649.64,311.18,652.02,312.56,654.41z"/>
	<path d="M199.5,207.59c0.43-1.94,0.88-4,1.64-7.41c-2.47,2.1-3.97,3.37-5.16,4.38c-2.38-1.71-5.18-2.8-6.44-4.83
		c-2.71-4.35-5-9.05-6.76-13.86c-1.98-5.44-1.96-11.96-4.98-16.59c-6.39-9.77-5.41-15.01,4.19-18.29c0-2.67-0.72-5.19,0.13-6.97
		c2.98-6.25,1.79-12.56,1.37-18.98c-0.28-4.26,0.33-8.58,1.33-13.42c1.87,9.79,9.15,7.14,14.94,7.56c2.17,0.15,4.36,0.03,7.64,0.03
		c1.61-2.89,4.29-7.68,7.39-13.22c6.05,11.95,12.33,24.36,18.96,37.46c0.97-0.91,2.89-2.71,4.82-4.54c1.71,0.85,3.44,2.13,5.37,2.58
		c5.48,1.3,6.43,5.14,6.38,9.94c-0.07,5.99,0.33,12,0.09,17.98c-0.09,2.42-1.32,4.79-2.16,7.59c1.15,0.35,2.58,0.78,5.71,1.72
		c-4.67,1.83-7.85,3.07-11.43,4.47c2.46,3.31,5.66,6.03,6.4,9.3c0.36,1.62-3.83,4.26-6.66,5.78c-0.5,8.6-7.95,10.6-14.12,13.53
		C223.02,214.23,204.71,211.31,199.5,207.59z M189.8,181.53c1.71-1.3,3.37-3.37,5.47-3.99c6.34-1.89,9.11-6.95,11.22-12.3
		c0.6-1.52-1.31-5.81-2.24-5.86c-5.36-0.31-11.13-0.76-16,0.98c-2.4,0.86-4.6,6.46-4.29,9.66
		C184.35,173.81,187.53,177.33,189.8,181.53z M238.59,148.22c-16.45,2.41-21.54,5.85-19.9,12.76c1.41,5.9,7.91,6.97,21.29,3.37
		C239.54,159.21,239.09,154.02,238.59,148.22z M208.77,150.76c0.96-0.42,1.91-0.83,2.87-1.25c0.43-4.71,0.86-9.41,1.29-14.12
		c-0.55-0.32-1.09-0.63-1.64-0.95c-1.93,2.19-3.86,4.37-5.75,6.51c-2.09-1.95-4.37-4.07-6.64-6.19c-0.43,0.42-0.87,0.84-1.3,1.26
		C201.31,140.93,205.04,145.85,208.77,150.76z"/>
	<path d="M395.92,569.33c1.98-2.58,3.22-4.21,5.14-6.71c4.92,4.61,10.2,8.29,13.71,13.24c2.86,4.03,3.39,9.64,5.35,14.39
		c0.79,1.93,2.41,3.66,4,5.08c9.2,8.25,8.68,13.13-2.26,19.43c4.81,4.04,3.84,12.76-1.87,16.91c7.27,1.53,8.28,4.69,5.78,15.01
		c-5.43,0.48-10.19,0.87-14.94,1.32c-2.21,0.21-4.42,0.55-7.09,0.88c-1.25,3.59-3.07,8.81-5.04,14.47c-0.99-1.18-2.52-3.15-4.2-4.99
		c-4.13-4.54-8.46-8.9-12.42-13.58c-1.81-2.14-3.05-4.8-4.34-7.33c-1.21-2.38-2.16-4.91-3.22-7.37c-2.51,1.26-5.03,2.52-7.54,3.78
		c0.71,0.97,1.42,1.94,2.13,2.92c-1.26-0.9-2.66-2.72-3.77-2.56c-10.05,1.45-9.31-5.87-10.27-12.04c-0.58-3.75-1.76-7.41-2.31-11.16
		c-0.45-3.11-0.38-6.3-0.56-9.94c-0.9,0-2.4,0-6.22,0c5-3.17,8.18-5.18,12.28-7.78c-3-1.71-4.94-2.55-6.58-3.8
		c-4.1-3.13-3.69-6.24,0.83-8.63c1.34-0.71,3.2-1.8,3.45-3.01c2.59-12.09,11.15-18.07,23.53-16.29c1.56,0.22,3.34-0.22,4.86-0.78
		C392.85,557.65,395.6,559.3,395.92,569.33z M410.14,585.72c-1.11,1.38-2.2,4.1-3.73,4.37c-6.76,1.2-7.21,7.34-9.58,11.73
		c-1.03,1.91-0.83,5.83,0.5,7.26c1.26,1.34,4.77,0.96,7.23,0.7c2.84-0.3,6.69-0.41,8.16-2.2c2.79-3.41,5.96-8.09,5.64-11.97
		C418.07,592.21,413.23,589.19,410.14,585.72z M368.04,628.16c5.23-2.95,9.06-5.55,13.24-7.35c4.76-2.04,5.82-6.06,3.52-9.28
		c-1.85-2.6-6.36-4.67-9.61-4.56c-4,0.13-7.92,2.77-12.26,4.47C364.65,617.08,366.18,622.09,368.04,628.16z M408.75,632.68
		c-4.2-4.66-5.35-12.97-14.69-12.07c0.3,4.75,0.59,9.41,0.88,14.07c0.75,0.2,1.5,0.41,2.25,0.61c1.43-2.28,2.85-4.57,4.47-7.16
		C403.83,629.53,406.29,631.11,408.75,632.68z"/>
	<path d="M209.98,663.74c7.96-13.49-9.95-12.85-9.46-21.82c-5.12,1.5-10.34,3.03-15.79,4.63c0.47-1.8,1.35-4.51,1.86-7.29
		c0.99-5.39,1.25-10.96,2.78-16.18c1.52-5.15,4.23-9.94,6.88-15.91c-2.35-0.2-4.87-0.42-7.82-0.67c-0.43-1.15-1.57-2.98-1.74-4.89
		c-0.29-3.26-1.2-7.37,0.32-9.72c3.76-5.82,8.62-10.97,13.34-16.12c1.31-1.43,3.67-1.88,5.79-2.9c-0.73-1.43-1.44-2.83-2.64-5.19
		c4.35,1.52,7.75,2.71,10.29,3.6c1.13-4.67,1.62-8.56,3.25-11.92c0.33-0.69,4.89,0.68,8.43,1.25c9.28-6.46,22.51-2.43,27.88,9.44
		c0.63,1.38,1.78,2.86,3.09,3.54c7.26,3.79,7.91,7.26,1.7,13.01c2.11,0.32,3.88,0.58,5.82,0.87c0.2,4.49,1.64,9.4,0.33,13.39
		c-2.05,6.25-6.14,11.81-9.02,17.82c-1.11,2.31-1.68,5.05-1.81,7.64c-0.55,11.03-6.33,14.4-16.29,9.3
		c-0.84,6.35-8.69,10.86-15.22,8.75C224.56,651.11,221.65,656.23,209.98,663.74z M253.11,608.81c-2.67-0.37-5.44-0.13-7.56-1.19
		c-4.59-2.29-15.61-1.07-17.94,3.21c-0.99,1.82-0.47,6.26,0.95,7.29c6.01,4.3,11.9,11.23,19.56,4.84
		C249.89,617.93,251.45,613.53,253.11,608.81z M205.19,586.34c-13.27,14.68-13.07,15.42,2.47,21.04c3.74,1.35,6.87,1.69,8.55-2
		c1.12-2.47,1.97-6.67,0.68-8.32C213.66,592.94,209.15,589.83,205.19,586.34z M214.68,635.8c1.78-6.06,6.84-12.05-0.27-19.67
		c-3.29,3.8-6.26,7.22-9.23,10.65c0.22,0.64,0.44,1.28,0.66,1.92c2.73-0.39,5.46-0.77,8.24-1.17
		C214.29,630.31,214.48,633.05,214.68,635.8z"/>
	<path class="st0" d="M345.55,391.16c4.27,0.86,7.99,2.79,10.75,1.87c3.24-1.09,5.65-4.66,8.42-7.16c0.71,0.19,1.42,0.38,2.13,0.58
		c0,3.26,0.45,6.59-0.1,9.76c-0.99,5.77-4.49,11.73,3.5,15.73c0.74,0.37,0.02,5.61-1.39,7.67c-1.05,1.54-4.29,1.58-6.59,2.29
		c-2.86,11.64-5.28,12.6-16.74,8.63c-4.44-1.54-9.54-1.09-14.32-1.74c-2.22-0.3-4.89-0.45-6.48-1.75
		c-6.34-5.17-6.92-11.41-1.81-17.85c2.1-2.64,4.68-5.01,7.37-7.06C335.78,397.95,341.49,394.06,345.55,391.16z"/>
	<path class="st0" d="M251.73,430.77c-0.63-2.14-1.34-4.58-1.73-5.92c1.46-8.4,3.3-16.04,3.96-23.78c0.46-5.42,1.83-7.01,6.95-4.61
		c1.54,0.72,3.64,0.98,5.29,0.61c11.07-2.47,24.17,3.33,28.78,13.63c0.91,2.03-1.28,5.26-1.41,7.97c-0.39,8.1-4.2,10.95-12.37,10.34
		c-4.88-0.36-9.91,2.17-14.94,2.53C261.59,431.9,256.84,431.1,251.73,430.77z"/>
	<path class="st0" d="M304.05,436.44c7.65,6.48,13.28,10.74,14.63,19.29c1.11,7.01,4.52,13.66,7.07,20.93
		c-10.29-2.73-8.68-13.5-15.46-20.49c-1.8,4.62-3.3,8.48-5.11,13.13c-1.43-0.59-3.22-1.32-5.68-2.33c-1.29,1.83-2.81,3.99-4.33,6.16
		c-0.77-0.42-1.54-0.84-2.31-1.26C296.41,460.67,299.94,449.46,304.05,436.44z"/>
	<path class="st0" d="M296.16,220.47c0.03,15.97-13.62,17.52-19.68,26.35c-5.83-7.51-9.42-0.43-14.89,2.61
		c-0.36-2.91-0.92-5.01-0.8-7.08c0.25-4.4,2.55-9.04-2.82-12.36c-0.64-0.4,0.15-5.23,0.88-5.39c4.48-1.02,5.32-4.71,7.45-7.77
		c1.09-1.57,5.12-1.64,7.74-1.44c3.32,0.25,6.55,1.49,9.84,2.26C288.16,218.65,292.45,219.62,296.16,220.47z"/>
	<path class="st0" d="M348.29,214.74c-1.06,9.32-1.94,17.43-2.99,25.51c-0.09,0.72-1.41,1.92-2.02,1.84
		c-7.42-0.99-15.46-0.75-22.05-3.69c-8.25-3.68-8.34-7.92-3.97-20.8C326.78,216.72,336.55,215.82,348.29,214.74z"/>
	<path class="st0" d="M307.34,210.1c-13.48-5.33-10.38-18.66-16.29-26.89c0.5-0.44,1-0.87,1.5-1.31c1.73,2.11,3.69,4.07,5.11,6.37
		c1.47,2.38,2.42,5.09,4.55,9.71c1.7-4.43,2.64-6.87,3.71-9.63c2.35-0.31,5.12-0.68,9.19-1.22
		C312.44,195.02,309.96,202.37,307.34,210.1z"/>
	<path class="st0" d="M432.47,478.02c9.17-2.49,1.84-9.09,3.29-15.04c2.92,1.45,5.18,3.03,7.68,3.69c3.15,0.84,6.49,0.95,9.76,1.32
		c1.35,0.15,3.19-0.34,3.96,0.38c1.09,1.01,1.95,2.87,1.93,4.36c-0.07,5.74,9.94,10.97,0.71,17.32c-2.17,1.49-2.84,5.02-4.72,7.15
		c-2.52,2.85-5.51,7.25-8.36,7.3c-2.89,0.05-7.08-3.83-8.52-6.99C435.53,491.68,434.45,485.12,432.47,478.02z"/>
	<path class="st0" d="M433.47,556.13c-8.12-4.65-15.11-8.6-22.01-12.7c-0.61-0.36-0.99-1.71-0.92-2.54
		c0.76-7.93,10.51-18.67,17.98-21.59c6.23-2.44,7.92,3.42,11.68,5.29c1.03,0.51,0.93,4.55,0.38,6.72
		C438.63,538.93,436.27,546.46,433.47,556.13z"/>
	<path class="st0" d="M484.69,518.21c-5.38,0.85-10.75,1.71-17.89,2.84c3.15,2.88,5.12,4.69,6.98,6.39
		c-0.7,2.48-1.41,4.97-2.48,8.78c-5.98-5.16-11.95-10.32-18.26-15.77c10.26-10.02,21.16-2.8,31.04-4.53
		C484.28,516.68,484.49,517.44,484.69,518.21z"/>
	<path class="st0" d="M179.72,521.32c11.22-5.31,19.19,3.5,29.12,6.5c-3.13,8.27,4.59,8.16,10.83,11.14
		c-3.18,1.86-5.16,3.23-7.32,4.23c-3.82,1.78-8.77,2.2-8.57,8.27c0.02,0.72-1.74,2.26-2.44,2.13c-3.98-0.74-7.84-2.27-11.83-2.77
		c-5.73-0.71-6-4.59-6.39-8.94c-0.19-2.12-0.73-4.59-2.02-6.15C177.16,530.97,177.26,526.16,179.72,521.32z"/>
	<path class="st0" d="M149.23,480.07c7.87-3.26,15.27-6.4,22.76-9.32c0.78-0.31,2.7,0.46,3.07,1.23c2.01,4.21,3.91,8.5,5.47,12.89
		c3.82,10.72-1.03,18.8-12.06,20.08c-1.35,0.16-3.49-0.54-4.19-1.57c-3.9-5.73-7.46-11.7-11.16-17.56
		C152.09,484.19,150.97,482.63,149.23,480.07z"/>
	<path class="st0" d="M145.52,543.02c2.74-4.57,5.47-9.14,8.96-14.97c-3.82,0.47-6.5,0.8-9.36,1.15c-1.31-1.79-2.89-3.95-5.12-7.01
		c7.53-1.47,15.54-3.03,23.86-4.65c0.89,14.18-11.13,18.15-16,26.88C147.08,543.95,146.3,543.49,145.52,543.02z"/>
	<path class="st0" d="M81.95,401.27c-4.81,0.48-9.16,0.91-14.53,1.44c-6.76-5.88-8.52-12.36-3.75-20.83
		c0.93-1.66,6.1-2.92,7.61-1.89c4.77,3.26,8.68,7.6,8.5,14.3C79.73,396.47,81.11,398.68,81.95,401.27z"/>
	<path class="st0" d="M65.47,343.38c5.45,1.19,10.5,2.29,15.52,3.38c-0.85,14.17-4.29,20.29-10.35,19.82
		C64.57,366.1,61.21,357.23,65.47,343.38z"/>
	<path class="st0" d="M39.58,378.56c3.91-2.05,6.31-3.31,8.82-4.62c-1.61-2.45-3.14-4.78-4.67-7.11c0.49-0.53,0.97-1.06,1.46-1.59
		c3.96,1.46,7.92,2.92,11.83,4.36C55.63,376.28,54.8,376.72,39.58,378.56z"/>
	<path class="st0" d="M96.09,486.87c-9.27-0.3-10.92-7.79-12.65-15.27c-1.16-5.02,1.46-8.72,6.29-7.37c5.58,1.57,12,2.7,13.95,10.09
		c0.47,1.79,3.28,2.96,5.09,4.49C104.68,481.41,100.82,483.86,96.09,486.87z"/>
	<path class="st0" d="M83.45,430.48c5.36,13.77,5.18,20.17-0.43,22.25c-5.76,2.13-11.15-2.7-14.17-12.7
		C67.16,434.45,67.16,434.45,83.45,430.48z"/>
	<path class="st0" d="M59.7,462.72c4.47-0.23,8.94-0.45,13.41-0.68c0.51,0.68,1.02,1.36,1.54,2.04c-3.89,4.39-7.79,8.78-11.68,13.16
		c-0.56-0.38-1.12-0.76-1.67-1.15c1.56-2.31,3.13-4.62,4.59-6.78c-2.39-1.5-4.74-2.98-7.09-4.46
		C59.09,464.15,59.39,463.44,59.7,462.72z"/>
	<path class="st0" d="M546.47,354.72c-3.5-3.29-7.68-6.13-10.31-10.01c-2.58-3.8-3.58-8.68-5.23-12.96
		c4.68-1.01,9.11-1.97,14.53-3.14c1.89,2.34,6.3,5.35,6.68,8.82c0.56,5.11-1.74,10.53-2.82,15.81
		C548.37,353.73,547.42,354.23,546.47,354.72z"/>
	<path class="st0" d="M553.24,387.82c-6.41-0.74-11.54-1.33-16.75-1.93c0-4.38-1.04-8.63,0.29-11.91c1.35-3.32,4.67-7.29,7.83-8.06
		c4.13-1.01,7.4,2.23,7.54,7.35C552.27,377.73,552.8,382.2,553.24,387.82z"/>
	<path class="st0" d="M556.72,357.69c5.2-2.31,10.39-4.63,15.59-6.94c0.3,0.52,0.59,1.04,0.89,1.57c-2.39,1.6-4.78,3.2-6.98,4.67
		c1.9,2.19,3.56,4.1,5.21,6.01c-0.51,0.65-1.03,1.31-1.54,1.96c-4.2-1.33-8.4-2.66-12.6-4C557.1,359.87,556.91,358.78,556.72,357.69
		z"/>
	<path class="st0" d="M530.61,414.81c4.03,0.75,8.93,0.4,11.96,2.61c2.7,1.97,5.27,7.32,4.45,10.2c-1.3,4.55-5.26,8.47-8.61,12.19
		c-0.7,0.78-4.97,0.06-5.32-0.85c-2.01-5.18-3.81-10.54-4.69-16C527.97,420.43,529.79,417.55,530.61,414.81z"/>
	<path class="st0" d="M525.69,474.74c-5.82-3.63-10.19-6.35-16.42-10.24c4.71-5.13,8.59-9.92,13.17-13.93
		c1.06-0.92,5.11,0.17,6.63,1.58c1.48,1.38,2.38,4.55,1.93,6.58C529.92,463.6,527.91,468.27,525.69,474.74z"/>
	<path class="st0" d="M558.94,451.51c-3.37,0.37-6.01,0.67-8.42,0.93c0.79,2.92,1.49,5.51,2.19,8.11c-0.66,0.37-1.31,0.74-1.97,1.11
		c-3.23-3-6.46-5.99-9.65-8.95C544.85,447.08,549.33,446.74,558.94,451.51z"/>
	<path class="st0" d="M428.93,200.48c2.38-4.27,4.49-8.06,7.15-12.83c8.33-5,13.27,2.49,18.66,7.98c3.08,3.14,0.75,8.58-4.34,8.83
		c-4.89,0.24-9.89-1.57-14.83-2.53C433.54,201.54,431.52,201.05,428.93,200.48z"/>
	<path class="st0" d="M487.12,219.78c-5.16,4.21-9.16,7.48-13.65,11.14c-3.22-2.87-7.37-5.15-9.21-8.66
		c-1.6-3.04-1.86-8.09-0.39-11.13c2.16-4.47,6.48-3.68,10.28-0.68C477.51,213.13,481.13,215.5,487.12,219.78z"/>
	<path class="st0" d="M471.28,180.55c-0.28,2.9-0.55,5.79-0.78,8.23c3.02,0.22,5.7,0.41,8.39,0.6c0.07,0.61,0.15,1.23,0.22,1.84
		c-3.72,2.55-7.44,5.1-11.38,7.81C462.35,191.6,468.93,186.37,471.28,180.55z"/>
	<path class="st0" d="M492.82,261.27c3.49-3.3,6.21-7.63,9.95-8.85c3.08-1.01,8.88,0.48,10.77,2.95c2.88,3.74,4.36,9.21,4.7,14.07
		c0.31,4.47-4.04,6.07-7.8,4.59c-4.84-1.9-10.55-2.88-12.81-9C497.03,263.38,494.44,262.47,492.82,261.27z"/>
	<path class="st0" d="M520.78,307.13c-1.83-3.78-4.3-6.72-4.48-9.78c-0.23-3.94,0.08-9.48,2.53-11.63
		c3.34-2.94,8.36-2.45,10.99,3.25c1.78,3.85,4.59,7.22,7.78,12.09C531.35,303.31,525.99,305.24,520.78,307.13z"/>
	<path class="st0" d="M539.64,260.75c-1.48,2.35-2.96,4.71-4.45,7.07c2.74,1.42,5.27,2.72,7.8,4.03c-0.17,0.69-0.33,1.39-0.5,2.08
		c-4.66,0.56-9.32,1.12-13.98,1.67c-0.55-0.76-1.11-1.51-1.66-2.27c3.78-4.6,7.56-9.19,11.34-13.79
		C538.67,259.96,539.16,260.35,539.64,260.75z"/>
	<path class="st0" d="M93.54,317.82c-4.85-1.58-9.25-3.01-14.15-4.6c-5.61-7.33-0.6-13.31,4.27-19.37c3.25-4.04,6.95-3.92,9.36,0.13
		c2.99,5.02,4.16,10.65,1.44,16.56C93.55,312.53,93.85,315.09,93.54,317.82z"/>
	<path class="st0" d="M101.73,258.34c5.45,3.96,9.67,7.03,14.23,10.34c-2.18,3.52-3.62,7.79-6.58,10.1
		c-2.84,2.2-7.75,3.98-10.87,3.03c-4.58-1.39-5.58-5.89-2.85-10.63C97.77,267.48,99.33,263.47,101.73,258.34z"/>
	<path class="st0" d="M85.28,280.16c-6.76,4.05-6.76,4.05-19.86-0.22c2.38-0.37,3.55-0.63,4.72-0.71c1.43-0.09,2.87-0.02,4.34-0.02
		c-0.39-3.13-0.75-6.03-1.1-8.92c0.6-0.29,1.19-0.58,1.79-0.87C78.4,272.86,81.63,276.29,85.28,280.16z"/>
	<path class="st0" d="M357.61,160.98c0.93-3.96,1.92-8.17,3.15-13.42c8.07-4.67,14.09-4.27,21,3.02c1.22,1.29,1.24,6.15,0.4,6.57
		c-4.99,2.51-10.27,4.69-15.7,5.93C363.96,163.65,360.91,161.84,357.61,160.98z"/>
	<path class="st0" d="M417.71,163.18c-3.39,5.95-5.97,10.46-9.6,16.82c-5.14-4.5-9.97-8.1-13.84-12.54
		c-1.03-1.19,0.26-5.37,1.66-7.37c0.91-1.31,4.07-1.92,5.95-1.53C406.75,159.57,411.47,161.3,417.71,163.18z"/>
	<path class="st0" d="M394.33,138.19c3.06-0.48,5.73-0.9,8.41-1.32c0.23,0.6,0.45,1.2,0.68,1.8c-2.92,3.37-5.84,6.75-9.03,10.43
		c-7.07-6.09-2.27-12.89-1.81-19.26C393.21,132.87,393.85,135.88,394.33,138.19z"/>
	<path class="st0" d="M132.33,242.72c-3.74-3-7.31-5.87-11.28-9.06c-3.65-9.78,5.04-12.99,11.26-17.39
		c3.33-2.36,6.79-1.46,7.71,2.96c1.27,6.14,0.47,11.92-4.22,16.8C134.28,237.61,133.66,240.06,132.33,242.72z"/>
	<path class="st0" d="M169.99,203.93c-3.09,2.59-5.51,5.94-8.65,6.9c-3.69,1.12-9,1.64-11.83-0.24c-3.91-2.61-3.39-7.22,0.58-11.05
		c3.23-3.12,5.69-7.04,9.42-11.79C164.13,194.87,167.05,199.4,169.99,203.93z"/>
	<path class="st0" d="M120.09,197.03c2.78,0.87,5.56,1.74,8.34,2.61c0.77-3.04,1.49-5.88,2.21-8.71c0.56,0.02,1.13,0.04,1.69,0.06
		c1.74,4.15,3.48,8.29,5.34,12.72C129.29,207.34,125.29,200.48,120.09,197.03z"/>
	<path class="st0" d="M335.15,613.22c0.88,4.83,1.71,9.33,2.61,14.28c-1.48,1.63-3.27,4.14-5.59,5.96
		c-1.23,0.97-3.43,1.15-5.12,0.97c-2.6-0.28-5.11-1.42-7.71-1.76c-6.63-0.86-8.92-4.78-4.56-9.48c3.55-3.83,7.14-8.79,14.06-7.45
		C330.69,616.09,332.99,614.14,335.15,613.22z"/>
	<path class="st0" d="M278.14,632.28c1.03-5.88,1.92-11.01,3.13-17.9c6.02,1.94,11.74,3.16,16.73,5.76c1.61,0.84,2.15,5.5,1.6,8.09
		c-0.35,1.66-3.46,3.63-5.51,3.87C289.17,632.66,284.14,632.28,278.14,632.28z"/>
	<path class="st0" d="M312.56,654.41c-1.38-2.38-2.77-4.77-3.93-6.78c-2.6,1.64-4.96,3.14-7.32,4.63c-0.41-0.48-0.83-0.97-1.24-1.45
		c1.13-3.39,2.2-6.8,3.44-10.15c0.39-1.06,1.25-1.96,3.32-5.09c3.01,6.96,5.35,12.36,7.69,17.75
		C313.86,653.68,313.21,654.05,312.56,654.41z"/>
	<path class="st0" d="M189.8,181.53c-2.27-4.2-5.45-7.72-5.83-11.51c-0.32-3.2,1.88-8.8,4.29-9.66c4.87-1.74,10.64-1.29,16-0.98
		c0.93,0.05,2.84,4.34,2.24,5.86c-2.11,5.35-4.88,10.41-11.22,12.3C193.18,178.17,191.52,180.23,189.8,181.53z"/>
	<path class="st0" d="M238.59,148.22c0.5,5.79,0.95,10.98,1.39,16.13c-13.38,3.6-19.88,2.54-21.29-3.37
		C217.05,154.07,222.14,150.63,238.59,148.22z"/>
	<path class="st0" d="M208.77,150.76c-3.73-4.91-7.45-9.82-11.18-14.73c0.43-0.42,0.87-0.84,1.3-1.26c2.28,2.12,4.56,4.24,6.64,6.19
		c1.89-2.14,3.82-4.32,5.75-6.51c0.55,0.32,1.09,0.63,1.64,0.95c-0.43,4.71-0.86,9.41-1.29,14.12
		C210.68,149.92,209.72,150.34,208.77,150.76z"/>
	<path class="st0" d="M410.14,585.72c3.08,3.47,7.93,6.49,8.22,9.89c0.32,3.88-2.85,8.56-5.64,11.97c-1.46,1.79-5.32,1.9-8.16,2.2
		c-2.45,0.26-5.97,0.65-7.23-0.7c-1.33-1.43-1.53-5.35-0.5-7.26c2.37-4.39,2.82-10.53,9.58-11.73
		C407.94,589.81,409.03,587.1,410.14,585.72z"/>
	<path class="st0" d="M368.04,628.16c-1.85-6.07-3.39-11.07-5.11-16.72c4.34-1.7,8.26-4.34,12.26-4.47
		c3.25-0.11,7.76,1.96,9.61,4.56c2.3,3.22,1.24,7.24-3.52,9.28C377.1,622.6,373.27,625.21,368.04,628.16z"/>
	<path class="st0" d="M408.75,632.68c-2.46-1.58-4.92-3.15-7.1-4.55c-1.62,2.59-3.04,4.87-4.47,7.16c-0.75-0.2-1.5-0.41-2.25-0.61
		c-0.29-4.66-0.58-9.32-0.88-14.07C403.39,619.71,404.55,628.02,408.75,632.68z"/>
	<path class="st0" d="M253.11,608.81c-1.67,4.73-3.22,9.13-4.99,14.15c-7.66,6.39-13.55-0.54-19.56-4.84
		c-1.43-1.02-1.95-5.47-0.95-7.29c2.33-4.28,13.35-5.51,17.94-3.21C247.67,608.68,250.44,608.43,253.11,608.81z"/>
	<path class="st0" d="M205.19,586.34c3.96,3.49,8.48,6.6,11.7,10.72c1.29,1.65,0.44,5.85-0.68,8.32c-1.67,3.69-4.81,3.35-8.55,2
		C192.11,601.76,191.91,601.01,205.19,586.34z"/>
	<path class="st0" d="M214.68,635.8c-0.2-2.75-0.39-5.5-0.59-8.27c-2.78,0.39-5.51,0.78-8.24,1.17c-0.22-0.64-0.44-1.28-0.66-1.92
		c2.97-3.43,5.94-6.85,9.23-10.65C221.52,623.75,216.46,629.74,214.68,635.8z"/>
</g>
</svg>
