<?xml version="1.0" encoding="utf-8"?>
<!-- Generator: Adobe Illustrator 24.3.0, SVG Export Plug-In . SVG Version: 6.00 Build 0)  -->
<svg version="1.1" id="Layer_1" xmlns="http://www.w3.org/2000/svg" xmlns:xlink="http://www.w3.org/1999/xlink" x="0px" y="0px"
	 viewBox="0 0 612 792" style="enable-background:new 0 0 612 792;" xml:space="preserve">
<style type="text/css">
	.st0{fill:#FFFFFF;}
</style>
<g>
	<path class="st0" d="M4.8,92c200.07,0,400.13,0,600.2,0c0,201.63,0,403.26,0,604.89c-200.07,0-400.13,0-600.2,0
		C4.8,495.26,4.8,293.63,4.8,92z M583.32,392.44c-3.99-1.63-5.97-2.89-8.1-3.22c-11.28-1.76-14.8-7.93-14.28-19.36
		c0.88-19.44,0.79-39.01-0.48-58.43c-1.47-22.52-3.73-45.07-7.35-67.33c-3.51-21.6-16.99-31.92-39-32.73
		c-4.58-0.17-9.17-0.02-13.7-0.02c-0.36-2.73-0.66-4.96-0.99-7.47c-9.36,3.55-17.49,8.62-26.01,9.42
		c-15.48,1.45-31.19,0.51-46.81,0.26c-6.78-0.11-11.12-2.25-12.18-10.73c-1.55-12.42-12.69-16.63-23.83-11.14
		c-3.62,1.78-8.47,2.07-12.59,1.58c-5.77-0.68-11.31-3.64-17.05-3.99c-10.68-0.64-15.41-6.48-18.81-15.92
		c-6.49-18-14.09-35.61-21.44-53.93c-1.83,1.69-2.58,2.12-2.93,2.75c-7.24,12.95-15.62,25.42-21.34,39.01
		c-7.62,18.14-18.16,30.92-39.33,31.11c-5.38,0.05-11.52,1.59-16.01-0.44c-11.54-5.22-22.06-1.9-24.18,10.6
		c-1.67,9.82-7.4,11.91-15.35,12.22c-23.2,0.91-46.77,4.01-67.67-10.38c-0.95-0.65-2.63-0.25-4.18-0.35
		c0.81,3.89,1.46,6.98,2.27,10.83c-3.91-0.25-6.59-0.48-9.28-0.59c-30.79-1.26-45.24,7.09-50.61,38.45
		c-6.22,36.34-7.1,72.79-4.74,109.46c0.87,13.46,1.04,26.82-17.44,28.74c-0.45,0.05-0.79,1.22-1.47,2.35
		c1.23,0.77,2.36,1.95,3.68,2.22c10.25,2.07,14.05,7.45,14.18,18.59c0.34,28.81,1.86,57.65,4.05,86.39
		c2.14,28.02,9.55,53.5,40.87,62.8c6.14,1.82,12.62,2.54,19.41,3.86c-1.78,4.74-3.42,9.14-5.88,15.7
		c10.79-5.1,19.09-9.35,27.67-12.91c3.37-1.4,8.06-2.86,10.97-1.6c13.37,5.81,26.73,2.68,40.17,1.44
		c7.25-0.67,12.32,0.36,13.37,9.87c1.47,13.39,13.46,17.73,25.32,10.8c2.79-1.63,6.95-1.83,10.29-1.36
		c4.97,0.69,9.82,3.85,14.65,3.72c21.58-0.61,29.99,11.6,33.94,30.86c2.66,12.96,8.32,25.31,12.63,37.93
		c8.21-16.48,14.38-32.48,19.03-48.91c3.06-10.84,7.26-17.59,19.97-17.97c8.77-0.27,17.37-4.21,26.17-5.82
		c3.23-0.59,7.42-0.18,10.13,1.48c11.67,7.16,23.4,2.96,25.38-10.69c1.58-10.92,7.95-11.89,16.46-11.14
		c6.98,0.61,14.99,3.64,20.77,1.27c18.84-7.73,32.68,3.18,47.8,10.13c1.28,0.59,2.63,1.02,5.95,2.29
		c-2.7-7.15-4.74-12.56-6.95-18.44c4.94-0.39,8.84-0.56,12.7-1.03c18.8-2.27,45.44-22.86,46.57-38.02
		c2.43-32.64,4.49-65.38,4.73-98.09C562.63,402.95,561.22,402.94,583.32,392.44z"/>
	<path d="M583.32,392.44c-22.11,10.5-20.69,10.51-20.87,34.1c-0.25,32.71-2.3,65.45-4.73,98.09c-1.13,15.16-27.77,35.74-46.57,38.02
		c-3.86,0.47-7.75,0.64-12.7,1.03c2.21,5.87,4.26,11.28,6.95,18.44c-3.32-1.27-4.67-1.7-5.95-2.29
		c-15.12-6.94-28.95-17.86-47.8-10.13c-5.78,2.37-13.79-0.65-20.77-1.27c-8.51-0.75-14.88,0.22-16.46,11.14
		c-1.98,13.65-13.7,17.84-25.38,10.69c-2.71-1.66-6.91-2.07-10.13-1.48c-8.8,1.61-17.4,5.55-26.17,5.82
		c-12.71,0.38-16.91,7.13-19.97,17.97c-4.64,16.43-10.82,32.43-19.03,48.91c-4.32-12.62-9.97-24.97-12.63-37.93
		c-3.95-19.26-12.35-31.46-33.94-30.86c-4.84,0.14-9.68-3.02-14.65-3.72c-3.34-0.47-7.5-0.27-10.29,1.36
		c-11.87,6.93-23.85,2.58-25.32-10.8c-1.05-9.51-6.12-10.54-13.37-9.87c-13.44,1.25-26.8,4.37-40.17-1.44
		c-2.91-1.27-7.6,0.2-10.97,1.6c-8.58,3.57-16.87,7.81-27.67,12.91c2.46-6.56,4.1-10.96,5.88-15.7c-6.79-1.32-13.26-2.03-19.41-3.86
		c-31.32-9.29-38.73-34.78-40.87-62.8c-2.2-28.74-3.71-57.58-4.05-86.39c-0.13-11.14-3.93-16.52-14.18-18.59
		c-1.31-0.27-2.44-1.45-3.68-2.22c0.68-1.13,1.02-2.31,1.47-2.35c18.48-1.91,18.31-15.27,17.44-28.74
		c-2.36-36.67-1.48-73.12,4.74-109.46c5.37-31.36,19.82-39.71,50.61-38.45c2.69,0.11,5.37,0.34,9.28,0.59
		c-0.81-3.86-1.45-6.94-2.27-10.83c1.56,0.1,3.24-0.31,4.18,0.35c20.9,14.39,44.46,11.29,67.67,10.38
		c7.95-0.31,13.68-2.4,15.35-12.22c2.12-12.5,12.64-15.82,24.18-10.6c4.48,2.03,10.62,0.49,16.01,0.44
		c21.17-0.19,31.71-12.98,39.33-31.11c5.71-13.59,14.1-26.06,21.34-39.01c0.36-0.64,1.1-1.06,2.93-2.75
		c7.36,18.32,14.95,35.93,21.44,53.93c3.41,9.44,8.14,15.28,18.81,15.92c5.74,0.34,11.29,3.31,17.05,3.99
		c4.12,0.49,8.97,0.2,12.59-1.58c11.14-5.48,22.28-1.27,23.83,11.14c1.06,8.48,5.4,10.62,12.18,10.73
		c15.61,0.25,31.33,1.19,46.81-0.26c8.52-0.8,16.65-5.87,26.01-9.42c0.33,2.5,0.63,4.74,0.99,7.47c4.53,0,9.12-0.15,13.7,0.02
		c22.02,0.82,35.5,11.13,39,32.73c3.62,22.26,5.88,44.82,7.35,67.33c1.27,19.41,1.37,38.99,0.48,58.43
		c-0.52,11.43,3,17.6,14.28,19.36C577.35,389.55,579.33,390.81,583.32,392.44z M401.65,440.87c8.1,17,23.33,21.44,40.61,24.37
		c-6.6,1.05-13.21,2.11-20.96,3.34c1.53,8.81-1.9,19.33,9.81,21.15c3.48-5.28,6.14-9.31,8.81-13.35c2.76,2.99,5.53,5.99,9.13,9.89
		c4.3-1.87,10.39-2.48,10.19-11.99c-0.18-8.58,6.07-11.77,14.59-9.17c2.34,0.72,4.81,1.03,9.03,1.9c-0.87-6.39-1.52-11.12-2.17-15.9
		c-6.75,3.48-12.74,6.58-17.04,8.8c4.76-8.65,10.69-17.39,14.58-26.96c5.68-13.98,9.07-28.91,14.97-42.79
		c5.77-13.56,18.4-17.36,34.3-10.2c-19.29,7.3-32.96,17.95-33.15,40.77c27.57-28.47,32.54-27.73,57.06,8.58
		c-0.87-7.92-1.89-13.86-2.13-19.84c-1.75-43.68-3.55-87.35-4.86-131.04c-0.36-12.17-2.85-22.02-16.69-24.15
		c-4.74-0.73-10.32-1.63-14.41,0.13c-11.16,4.78-21.73,10.94-32.52,16.55c-3.02-6.57,1.15-25.35,10.1-32.14
		c16.3-12.37,32.96-11.83,48.31,5.03c-0.3-15.39-2.33-19.29-14.4-20.2c-15.05-1.14-30.26,0.07-45.4,0.11
		c-67.68,0.18-135.36,0.3-203.04,0.45c-51.87,0.12-103.73,0.17-155.59,0.46c-6.97,0.04-13.99,0.99-20.9,2.07
		c-10.39,1.62-14.18,8.24-13.15,18.54c22.74-13.58,39.71-14.61,49.47-3.22c10.54,12.31,13.61,24.99,8.04,32.07
		c-18.05-13.58-36.01-26.86-61.11-8.76c-1.53,54.46-3.11,110.85-4.59,163.77c6.84-7.04,13.98-19.25,24.49-24.01
		c13.83-6.27,22.25,7.36,30.54,17.17c-0.04-22.1-12.21-33.85-34.48-37.71c11.97-7.75,27.11-6.42,32.37,2.41
		c4.9,8.22,8.35,17.43,11.48,26.53c6.01,17.44,9.47,36.1,24.88,49.34c-6.32-3.11-12.63-6.23-19.21-9.47c0,5.65,0,10.43,0,16.3
		c3.39-1.11,5.49-1.82,7.61-2.48c8.38-2.6,14.7,0.59,14.68,9.04c-0.02,9.5,5.26,10.71,10.35,11.4c3.56-3.68,6.33-6.55,9.1-9.42
		c2.52,4.1,5.04,8.2,7.68,12.49c9.83-3,11.78-7.23,8.99-20.9c-6.61-0.99-13.22-1.98-23.14-3.46c17.08-5.19,35.13-1.26,39.41-20.98
		c10.51-0.11,14.13,6.22,17.12,14.01c3.5,9.12,7.85,17.92,11.98,27.19c4.76-4.4,8.1-7.48,11.1-10.25
		c17.43,6.84,16.49,21.98,16.04,34.94c-0.6,17.22,3.34,31.49,16.65,42.57c2.45,2.04,6.49,4.56,8.76,3.79
		c2.27-0.77,4.3-5.29,4.57-8.33c1.29-14.34,1.87-28.75,2.85-43.12c0.27-3.9,1.05-7.77,1.6-11.66c4.08,18.13,5.54,36.09,7.55,53.98
		c0.38,3.39,2.94,6.54,4.5,9.8c3.23-1.7,6.93-2.86,9.62-5.18c12.82-11.07,15.68-25.11,15.31-41.86c-0.28-12.67-3.01-29.27,16-35.05
		c3.18,2.91,6.54,5.98,10.12,9.25c2.6-4.83,5.44-9.38,7.57-14.24c2.15-4.93,2.95-10.54,5.55-15.17c2.37-4.23,6.43-7.51,9.6-11.32
		c0.9-1.08,1.3-2.58,1.93-3.88L401.65,440.87z M160.85,474.54c-1.8,0.22-3.66,0.72-5.49,0.62c-13.8-0.8-27.87-16.16-24.96-27.15
		c3.88-14.66-9.87-33.89-25.06-34.13c-4.24-0.07-9.69,1.53-12.55,4.4c-8.29,8.31-12.15,18.61-5.64,29.73
		c9.33,15.92,8.68,31.85,1.84,48.19c-3.69,8.81-1.43,11.56,8.24,9.35c8.68-1.98,17.14-2.21,23.1,7.31
		c5.41,8.66,12.41,16.31,18.55,24.52c10.29,13.75,36.03,15.02,47.75,2.07c11.34-12.52,16.13-27.95,19.46-42.7
		c-6.5-1.99-12.17-3.73-20.45-6.26C172.55,499.5,165.25,495.71,160.85,474.54z M425.09,495.06c0.73,13.98,11.12,36.33,21.52,45.1
		c9.37,7.9,35.91,7.9,42.27-0.1c4.1-5.15,8.92-10.01,11.76-15.81c5.12-10.45,17.92-18.43,11.42-33.16
		c-0.66-1.51,2.23-4.58,3.47-6.93c0.7,0.46,1.41,0.93,2.11,1.39c-0.67,5.15-1.34,10.3-2.08,16.02c7.22,0.38,13.08,0.21,18.77,1.1
		c8.13,1.27,10.46-1.71,7.21-8.89c-7.71-17.04-7.92-33.42,1.14-50.4c5.63-10.55,2.52-23.24-7.51-28.9
		c-5.25-2.97-15.01-3.21-20.12-0.22c-17.65,10.34-20.05,16.62-16.97,29.19c1.04,4.24,2.02,11.27-0.18,13.03
		c-8.68,6.96-13.98,20.71-28.73,15.76c-6.67,22.26-11.92,24.89-25.39,16.91C436.03,491.6,430.71,493.29,425.09,495.06z
		 M223.99,451.73c-1.55,4.36-3.9,9.02-4.83,13.95c-3.2,17.05-4.25,34.68-9.23,51.16c-5.64,18.64-16.66,34.21-37.79,38.98
		c-1.99,0.45-3.66,2.35-5.81,3.79c5.39,9.3,13.15,5.68,19.99,5.13c24.32-1.96,36.85-21.24,52.13-36.22
		c3.93-3.85,6.88-9.4,8.56-14.71c7.91-25.11-7.08-43.13-20.02-61.67C226.86,451.95,226.33,452.03,223.99,451.73z M407.68,450.75
		c-1.9-0.18-3.79-0.36-5.69-0.54c-5.97,10.42-13.79,20.22-17.54,31.39c-9.55,28.45,12.91,66.37,44.66,77.09
		c7.65,2.58,15.84,4,23.89,4.79c3.79,0.37,7.86-2,11.8-3.13c-0.06-1.17-0.12-2.33-0.19-3.5c-2.64-1.18-5.47-2.08-7.89-3.6
		c-8.05-5.05-17.46-8.98-23.63-15.79c-14.04-15.5-18.46-35.47-21.24-55.69C410.43,471.43,409.07,461.09,407.68,450.75z
		 M115.86,526.36c-3.86,2.75-6.54,4.21-8.6,6.27c-1.62,1.62-2.5,3.99-3.71,6.03c2.37,0.92,5.78,3.3,6.93,2.49
		c3.52-2.5,7.88-5.79,8.84-9.56c2.53-9.9-6.1-15.38-12.72-16.43c-6.42-1.02-16.22,2.3-19.96,7.2c-2.69,3.53-0.07,14.88,3.98,19.11
		c14.14,14.81,33.06,17.8,52.78,16.51c6.09-0.4,12.15-1.22,18.22-1.85c0.29-1.24,0.58-2.48,0.87-3.72
		c-16.71,0.74-31.19-1.96-34.36-24.54c-3.33,12.93-14.08,19.82-21.91,16.17c-2.73-1.27-5.29-7.41-4.58-10.57
		C102.77,528.5,104.12,520.08,115.86,526.36z M468.16,551.55c10.85,5.6,37.31,6.34,50.84-0.31c9.61-4.73,18.38-12.22,25.73-20.13
		c5.17-5.56,2.25-12.86-4.42-16.79c-8.03-4.74-16.97-5.77-23.09,2.25c-3.44,4.5-4.23,11.37-4.92,17.32
		c-0.12,1.05,6.08,3.35,9.57,4.06c1.62,0.33,3.72-1.77,5.61-2.77c-2.15-2.15-4.39-4.22-6.43-6.47c-1.65-1.81-3.09-3.83-5.07-6.33
		c11.34-4.94,12.29,4.11,13.62,9.37c0.68,2.69-3.11,8.54-6.14,9.71c-7.3,2.83-17.39-4.04-19.91-12.1
		c-3.99,5.93-6.77,13.77-12.3,17.27C485.39,550.34,476.92,549.91,468.16,551.55z M377.78,526.54c-2.42-11.39-4.52-22.93-7.49-34.23
		c-0.8-3.06-4.21-5.44-6.43-8.13c-2.45,2.73-6.85,5.33-7.02,8.2c-0.77,12.81-0.33,25.68-0.33,39.24
		C364.79,529.64,370.62,528.25,377.78,526.54z M262.23,483.66c-3,15.59-5.9,30.64-8.97,46.57c7.58,0.59,13.2,1.02,18.71,1.45
		C279.06,510.88,275.57,489.57,262.23,483.66z M78.67,520.92c11.09-19.14,9.76-56.04,0-62.08
		C78.67,479.65,78.67,500.29,78.67,520.92z M551.42,452.47c-9.87,12.46-9.31,51.91,0,66.11
		C551.42,496.55,551.42,475.45,551.42,452.47z M384.5,530.86c-4.91,3.77-9.61,7.39-14.27,10.97c5.45,12.3,16.11,15.27,30.83,8.23
		C395.44,543.55,389.93,537.16,384.5,530.86z M229.9,551.39c17.47,6.33,26.76,3.18,30.61-9.62c-4.93-3.45-9.76-6.82-14.42-10.07
		C240.64,538.33,235.35,544.77,229.9,551.39z M279.9,554.92c0.6-1.02,1.21-2.05,1.81-3.07c-4.17-3-8.03-6.93-12.68-8.49
		c-1.71-0.57-5.3,4.46-10.32,9C268.12,553.49,274.01,554.2,279.9,554.92z M373.12,551.18c-5.72-4.13-9.54-8.77-11.78-8.1
		c-4.29,1.28-7.68,5.58-11.44,8.62c0.58,0.98,1.16,1.96,1.74,2.94C357.57,553.68,363.51,552.73,373.12,551.18z"/>
	<path class="st0" d="M401.67,440.86c-0.63,1.3-1.03,2.8-1.93,3.88c-3.17,3.81-7.23,7.09-9.6,11.32c-2.6,4.63-3.4,10.24-5.55,15.17
		c-2.12,4.86-4.96,9.41-7.57,14.24c-3.57-3.27-6.94-6.34-10.12-9.25c-19.01,5.78-16.28,22.38-16,35.05
		c0.37,16.75-2.48,30.79-15.31,41.86c-2.69,2.32-6.39,3.49-9.62,5.18c-1.55-3.26-4.12-6.41-4.5-9.8
		c-2.01-17.89-3.47-35.85-7.55-53.98c-0.55,3.88-1.33,7.75-1.6,11.66c-0.98,14.37-1.56,28.78-2.85,43.12
		c-0.27,3.04-2.31,7.56-4.57,8.33c-2.26,0.77-6.3-1.74-8.76-3.79c-13.3-11.08-17.24-25.35-16.65-42.57
		c0.45-12.96,1.38-28.1-16.04-34.94c-3,2.77-6.33,5.85-11.1,10.25c-4.13-9.27-8.48-18.07-11.98-27.19
		c-2.99-7.79-6.62-14.12-17.12-14.01c-4.28,19.72-22.33,15.79-39.41,20.98c9.92,1.48,16.53,2.47,23.13,3.45
		c2.79,13.67,0.85,17.91-8.99,20.91c-2.64-4.29-5.16-8.39-7.68-12.49c-2.77,2.87-5.54,5.74-9.1,9.42
		c-5.09-0.69-10.37-1.9-10.35-11.4c0.02-8.45-6.3-11.63-14.68-9.04c-2.12,0.66-4.22,1.37-7.61,2.48c0-5.87,0-10.65,0-16.3
		c6.58,3.24,12.9,6.36,19.21,9.47c-15.41-13.24-18.87-31.9-24.88-49.34c-3.14-9.1-6.59-18.32-11.48-26.53
		c-5.26-8.83-20.4-10.15-32.37-2.41c22.28,3.86,34.44,15.61,34.48,37.71c-8.3-9.82-16.71-23.45-30.54-17.17
		c-10.51,4.77-17.65,16.97-24.49,24.01c1.48-52.92,3.07-109.31,4.59-163.77c25.1-18.1,43.06-4.82,61.11,8.76
		c5.58-7.08,2.5-19.76-8.04-32.07c-9.75-11.4-26.73-10.36-49.47,3.22c-1.03-10.29,2.76-16.92,13.15-18.54
		c6.91-1.08,13.92-2.03,20.9-2.07c51.86-0.29,103.73-0.34,155.59-0.46c67.68-0.15,135.36-0.27,203.04-0.45
		c15.14-0.04,30.36-1.25,45.4-0.11c12.08,0.91,14.1,4.82,14.4,20.2c-15.35-16.87-32-17.4-48.31-5.03
		c-8.96,6.8-13.13,25.58-10.1,32.14c10.79-5.61,21.36-11.76,32.52-16.55c4.09-1.75,9.67-0.85,14.41-0.13
		c13.84,2.13,16.33,11.98,16.69,24.15c1.3,43.69,3.11,87.37,4.86,131.04c0.24,5.97,1.25,11.92,2.13,19.84
		c-24.53-36.31-29.49-37.05-57.06-8.58c0.19-22.82,13.86-33.47,33.15-40.77c-15.91-7.15-28.53-3.36-34.3,10.2
		c-5.9,13.87-9.29,28.8-14.97,42.79c-3.89,9.57-9.82,18.31-14.58,26.96c4.3-2.22,10.3-5.32,17.04-8.8c0.65,4.78,1.3,9.51,2.17,15.9
		c-4.22-0.87-6.69-1.19-9.03-1.9c-8.51-2.6-14.76,0.59-14.59,9.17c0.19,9.52-5.89,10.13-10.19,11.99c-3.6-3.9-6.36-6.89-9.13-9.89
		c-2.66,4.04-5.33,8.07-8.81,13.35c-11.71-1.82-8.28-12.34-9.81-21.15c7.76-1.24,14.36-2.29,20.96-3.34
		c-17.28-2.94-32.5-7.37-40.6-24.37c5.41-8.36,6.16-16.88-0.14-24.96c-3-3.86-7.04-6.91-10.61-10.33
		c-3.65,4.71-10.09,9.22-10.42,14.15c-0.99,14.5,0.44,29.16,0.93,43.76c7.41-16.25-4.53-35.37,11.79-52.73
		C396.5,422.51,399.09,431.68,401.67,440.86z M255.81,379.68c1.03,0.86,2.06,1.72,3.09,2.59c5.58-7.33,11.42-14.48,16.65-22.05
		c3.03-4.39,4.53-9.87,7.71-14.13c7.07-9.49,7.31-18.16-0.78-28.79c0.31,5.26,0.58,9.69,1.01,16.89
		c-10.72-24.54-17.62-26.66-38.8-15.35c-9.33,4.98-18.89,10.76-29.01,12.65c-8.82,1.65-18.54-1.8-27.89-2.72
		c-9.61-0.95-18.4-14.44-28.96-1.65c-13.92,16.85-5.07,53.99,15.14,62.78c24.66,10.73,58.97,2.56,79.78-19.89
		c-14.64,5.49-27.64,12.2-41.43,14.95c-10.43,2.08-22.51,1.11-32.7-2.13c-11.33-3.61-7.36-16.24-6.79-24.38
		c0.58-8.34,9.51-7.01,16.25-6.1c17.91,2.42,34.7,1.2,48.92-12.3c7.63-7.24,16.99-5.63,24.66,0.29c6.6,5.08,11.75,11.54,5.04,20.69
		C263.34,366.95,259.75,373.44,255.81,379.68z M372.31,379.53c0.98-1.07,1.96-2.14,2.94-3.21c-3.52-2.42-7.53-4.35-10.48-7.34
		c-8.4-8.52-9.1-20.17-2.18-27.41c7.69-8.05,19.83-7.94,29.5-0.76c5.17,3.84,11.22,7.9,17.32,8.8c10.19,1.51,20.76,0.98,31.13,0.52
		c7.08-0.31,13.97-0.85,15.54,7.99c3.19,17.93-3.57,26.71-22.15,27.28c-8.73,0.27-17.81-1.54-26.27-3.99
		c-10.99-3.19-21.51-7.97-32.23-12.06c-0.52,1.19-1.04,2.39-1.57,3.58c12.68,5.84,24.99,12.74,38.12,17.31
		c29.77,10.36,54.12-1.6,62.02-31.79c2.47-9.44-0.83-21.19-4.05-31.05c-2.54-7.79-9.58-9.68-18.31-5.55
		c-10.68,5.04-20.9,13.54-34.1,9.36c-4.73-1.5-8.93-4.62-13.65-6.15c-5.61-1.82-11.68-2.25-17.26-4.13
		c-7.96-2.68-15.97-9.13-23.39-8.38c-6.69,0.68-12.62,8.88-18.3,13.3c-0.13-1.71-0.39-5-0.73-9.52
		C333.65,336.53,349.17,369.92,372.31,379.53z M332.19,390.71c-15.73,29.49-28.73,4.47-40.12,1.62c-2.02,7.44-3.78,13.46-5.26,19.54
		c-1.99,8.2-5.24,16.46-5.25,24.7c-0.01,11.76,15.13,18.78,25.23,12.61c2.54-1.55,4.67-3.8,7.23-5.94
		c8.03,8.57,16.59,10.82,26.65,5.2c10.43-5.82,8.5-15.8,6.29-23.89C344.06,413.92,338.21,404.09,332.19,390.71z M154.36,268.01
		c-1.29,16.81,0.36,34.15-17.75,43.09c-15.58,7.69-31.1,4.42-47.56-4.85c6.32,14.45,16.43,19.06,34.45,18.02
		c19.82-1.14,35.2-11.42,39.18-27.46C165.33,286.17,164.59,275.66,154.36,268.01z M536.06,304.62
		c-15.47,9.75-31.25,11.18-47.02,3.12c-17.17-8.78-14.61-26.73-16-43.47c-10.61,9.78-12.67,23.1-6.88,35.18
		c7.73,16.11,25.88,25.04,46.17,21.8C522.52,319.62,534.03,318.76,536.06,304.62z M245.85,461.55c1.18,0.19,2.36,0.38,3.54,0.56
		c0-13.05,0.76-26.16-0.37-39.11c-0.45-5.16-4.6-10.33-8.05-14.72c-1.16-1.47-6.14-1.72-8.06-0.48
		c-7.93,5.11-11.11,22.23-6.03,30.95c3.1-8.4,6.09-16.5,9.73-26.34C251.9,428.24,241.37,446.27,245.85,461.55z M262.47,438.22
		c17.46,9.84,11.21,28.91,19.11,43.72c3.81-7.05,6.84-12.64,9.86-18.23c-0.67-0.38-1.33-0.76-2-1.14c-2.37,3.21-4.74,6.42-7.37,9.98
		C275.1,434.5,275.1,434.5,262.47,438.22z M119.18,371.76c0.67-13.82-8.18-16.46-16.56-16.56c-4.51-0.06-9.09,5.18-13.64,8.02
		c0.56,1.36,1.11,2.72,1.67,4.08C101.39,358.05,109.71,364.51,119.18,371.76z M537.93,363.22c-2.32-9.99-7.89-13.22-17.13-10.45
		c-9.8,2.94-11.51,5.04-10.41,15.1C518.59,361.37,526.81,355.07,537.93,363.22z M236.05,247.76c-34.51-7.76-34.51-7.76-40.86-2.83
		C209.4,245.92,222.73,246.84,236.05,247.76z M175.82,432.53c10.93,10,22.37,4.54,32.89,6.04c0.14-1.03,0.28-2.06,0.42-3.1
		C198.75,434.56,188.37,433.64,175.82,432.53z M345.51,498.25c0.96-1.35,1.92-2.7,2.88-4.05c-5.39-4.03-10.39-8.96-16.38-11.66
		c-2.39-1.08-7,2.76-10.59,4.36c0.22,1.01,0.44,2.02,0.66,3.02C332.96,484.42,340.51,487.91,345.51,498.25z M421.02,433.97
		c0.16,1.01,0.32,2.02,0.48,3.04c10.5-1.79,22.25,3.97,32.02-6.54C442.15,431.7,431.59,432.83,421.02,433.97z M302.04,550.95
		c1.47-0.66,2.93-1.32,4.4-1.98c-4.8-7.07-9.6-14.15-14.4-21.22c-1.36,0.89-2.72,1.77-4.09,2.66
		C292.66,537.25,297.35,544.1,302.04,550.95z M342.76,530.3c-1.31-0.66-2.62-1.32-3.93-1.98c-3.84,7.3-14.96,11.02-10.81,24.45
		C333.66,544.17,338.21,537.24,342.76,530.3z"/>
	<path class="st0" d="M160.85,474.54c4.4,21.17,11.7,24.96,24.8,15.95c8.27,2.53,13.94,4.27,20.45,6.26
		c-3.33,14.75-8.12,30.18-19.46,42.7c-11.72,12.94-37.45,11.68-47.75-2.07c-6.15-8.21-13.14-15.86-18.55-24.52
		c-5.96-9.53-14.42-9.3-23.1-7.31c-9.67,2.21-11.93-0.54-8.24-9.35c6.85-16.35,7.49-32.27-1.84-48.19
		c-6.52-11.12-2.65-21.42,5.64-29.73c2.86-2.87,8.32-4.47,12.55-4.4c15.19,0.24,28.94,19.46,25.06,34.13
		c-2.91,10.99,11.16,26.35,24.96,27.15C157.19,475.26,159.05,474.76,160.85,474.54z M96.16,443.36c0.19,8.05,5.28,12.63,12.99,12.04
		c7.99-0.61,13.72-6.18,13.66-14.66c-0.02-3.04-3.31-7.22-6.21-8.67c-1.85-0.92-5.72,2.21-7.82,3.14c2.77,4.53,5.09,7.16,5.87,10.19
		c0.32,1.23-3.28,5.02-4.08,4.74C105.93,448.53,101.59,446.04,96.16,443.36z M176.18,534.8c-11-7.81-29.13,3.42-36.7-13.53
		C145.07,535.19,147.47,536.09,176.18,534.8z"/>
	<path class="st0" d="M425.09,495.06c5.61-1.78,10.93-3.46,18.69-5.92c13.47,7.98,18.72,5.35,25.39-16.91
		c14.75,4.95,20.05-8.8,28.73-15.76c2.2-1.76,1.21-8.79,0.18-13.03c-3.07-12.57-0.68-18.85,16.97-29.19
		c5.11-2.99,14.87-2.74,20.12,0.22c10.03,5.66,13.14,18.35,7.51,28.9c-9.06,16.98-8.85,33.36-1.14,50.4
		c3.25,7.18,0.92,10.16-7.21,8.89c-5.69-0.89-11.55-0.72-18.77-1.1c0.74-5.72,1.41-10.87,2.08-16.02c-0.7-0.46-1.41-0.93-2.11-1.39
		c-1.24,2.35-4.14,5.42-3.47,6.93c6.49,14.73-6.31,22.71-11.42,33.16c-2.84,5.8-7.66,10.66-11.76,15.81c-6.36,8-32.9,8-42.27,0.1
		C436.22,531.4,425.82,509.05,425.09,495.06z M518.98,434.14c0.6-1.08,1.2-2.17,1.8-3.25c-3.34-0.38-8.92-2.09-9.61-0.91
		c-2.25,3.83-5.08,10.99-3.4,12.72c4.24,4.37,10.77,8.76,16.47,8.87c5.86,0.11,10.79-5.37,8.07-12.54
		c-4.11,3.09-7.79,6.35-12.02,8.6c-0.83,0.44-5.47-3.21-5.35-4.74C515.17,439.89,517.51,437.05,518.98,434.14z M452.75,533.63
		c27.93,1.43,34.88-1.39,37.88-15.46C484.2,536.64,465.15,524,452.75,533.63z"/>
	<path class="st0" d="M223.99,451.73c2.33,0.31,2.87,0.22,3.01,0.42c12.95,18.54,27.94,36.56,20.02,61.67
		c-1.67,5.31-4.63,10.86-8.56,14.71c-15.28,14.97-27.82,34.26-52.13,36.22c-6.84,0.55-14.6,4.17-19.99-5.13
		c2.15-1.45,3.82-3.35,5.81-3.79c21.13-4.77,32.15-20.34,37.79-38.98c4.98-16.47,6.03-34.11,9.23-51.16
		C220.09,460.75,222.44,456.09,223.99,451.73z"/>
	<path class="st0" d="M407.68,450.75c1.39,10.34,2.75,20.68,4.17,31.02c2.79,20.22,7.2,40.19,21.24,55.69
		c6.17,6.81,15.58,10.74,23.63,15.79c2.43,1.52,5.25,2.42,7.89,3.6c0.06,1.17,0.12,2.33,0.19,3.5c-3.94,1.13-8.01,3.51-11.8,3.13
		c-8.06-0.79-16.24-2.2-23.89-4.79c-31.76-10.72-54.21-48.64-44.66-77.09c3.75-11.17,11.57-20.97,17.54-31.39
		C403.89,450.39,405.78,450.57,407.68,450.75z"/>
	<path class="st0" d="M115.86,526.36c-11.74-6.28-13.09,2.15-14.22,7.13c-0.72,3.15,1.84,9.3,4.58,10.57
		c7.83,3.64,18.58-3.24,21.91-16.17c3.18,22.58,17.66,25.28,34.36,24.54c-0.29,1.24-0.58,2.48-0.87,3.72
		c-6.07,0.63-12.13,1.45-18.22,1.85c-19.72,1.29-38.64-1.71-52.78-16.51c-4.05-4.24-6.67-15.59-3.98-19.11
		c3.74-4.9,13.55-8.22,19.96-7.2c6.62,1.05,15.25,6.53,12.72,16.43c-0.96,3.77-5.32,7.05-8.84,9.56c-1.14,0.81-4.55-1.57-6.93-2.49
		c1.21-2.04,2.09-4.41,3.71-6.03C109.32,530.56,111.99,529.11,115.86,526.36z"/>
	<path class="st0" d="M468.16,551.55c8.76-1.64,17.23-1.22,23.08-4.92c5.53-3.5,8.31-11.34,12.3-17.27
		c2.52,8.07,12.61,14.93,19.92,12.11c3.03-1.17,6.82-7.03,6.14-9.71c-1.33-5.26-2.28-14.31-13.62-9.37c1.99,2.5,3.42,4.52,5.07,6.33
		c2.05,2.24,4.28,4.32,6.43,6.47c-1.89,1-3.99,3.1-5.61,2.77c-3.49-0.71-9.69-3.01-9.57-4.06c0.68-5.95,1.48-12.82,4.92-17.32
		c6.12-8.02,15.06-6.99,23.09-2.25c6.68,3.94,9.59,11.23,4.42,16.79c-7.35,7.92-16.12,15.41-25.73,20.13
		C505.47,557.89,479.01,557.15,468.16,551.55z"/>
	<path class="st0" d="M377.78,526.54c-7.16,1.71-13,3.1-21.27,5.07c0-13.56-0.43-26.43,0.33-39.24c0.17-2.86,4.57-5.47,7.02-8.2
		c2.21,2.69,5.62,5.07,6.43,8.13C373.26,503.62,375.36,515.15,377.78,526.54z"/>
	<path class="st0" d="M262.23,483.66c13.34,5.91,16.83,27.21,9.74,48.02c-5.5-0.43-11.13-0.86-18.71-1.45
		C256.33,514.3,259.23,499.25,262.23,483.66z"/>
	<path class="st0" d="M78.67,520.92c0-20.64,0-41.28,0-62.08C88.43,464.89,89.76,501.79,78.67,520.92z"/>
	<path class="st0" d="M551.42,452.47c0,22.98,0,44.09,0,66.11C542.12,504.38,541.55,464.93,551.42,452.47z"/>
	<path class="st0" d="M384.5,530.86c5.43,6.3,10.94,12.69,16.56,19.21c-14.72,7.04-25.38,4.07-30.83-8.23
		C374.89,538.25,379.59,534.64,384.5,530.86z"/>
	<path class="st0" d="M229.9,551.39c5.44-6.62,10.74-13.07,16.19-19.7c4.66,3.25,9.48,6.63,14.42,10.07
		C256.66,554.57,247.37,557.72,229.9,551.39z"/>
	<path class="st0" d="M279.9,554.92c-5.89-0.71-11.78-1.43-21.19-2.57c5.01-4.54,8.61-9.57,10.32-9c4.65,1.56,8.51,5.5,12.68,8.49
		C281.11,552.87,280.5,553.89,279.9,554.92z"/>
	<path class="st0" d="M373.12,551.18c-9.61,1.54-15.55,2.5-21.49,3.45c-0.58-0.98-1.16-1.96-1.74-2.94
		c3.76-3.04,7.15-7.34,11.44-8.62C363.57,542.41,367.4,547.05,373.12,551.18z"/>
	<path d="M255.81,379.68c3.93-6.24,7.53-12.73,11.88-18.66c6.71-9.15,1.56-15.61-5.04-20.69c-7.68-5.91-17.04-7.53-24.66-0.29
		c-14.22,13.5-31.01,14.72-48.92,12.3c-6.74-0.91-15.67-2.24-16.25,6.1c-0.56,8.14-4.54,20.77,6.79,24.38
		c10.19,3.25,22.27,4.22,32.7,2.13c13.79-2.75,26.8-9.46,41.43-14.95c-20.81,22.45-55.12,30.62-79.78,19.89
		c-20.21-8.8-29.06-45.93-15.14-62.78c10.56-12.79,19.35,0.7,28.96,1.65c9.35,0.92,19.08,4.37,27.89,2.72
		c10.12-1.89,19.68-7.67,29.01-12.65c21.18-11.31,28.08-9.19,38.8,15.35c-0.43-7.2-0.69-11.63-1.01-16.89
		c8.08,10.63,7.84,19.31,0.78,28.79c-3.17,4.26-4.67,9.74-7.71,14.13c-5.23,7.57-11.07,14.72-16.65,22.05
		C257.87,381.4,256.84,380.54,255.81,379.68z"/>
	<path d="M372.31,379.53c-23.14-9.61-38.66-43-28.1-63.19c0.35,4.52,0.6,7.81,0.73,9.52c5.68-4.42,11.6-12.62,18.3-13.3
		c7.42-0.75,15.43,5.69,23.39,8.38c5.58,1.88,11.65,2.31,17.26,4.13c4.72,1.53,8.93,4.66,13.65,6.15c13.2,4.18,23.42-4.31,34.1-9.36
		c8.73-4.12,15.76-2.23,18.31,5.55c3.22,9.86,6.52,21.61,4.05,31.05c-7.9,30.19-32.24,42.15-62.02,31.79
		c-13.12-4.57-25.44-11.47-38.12-17.31c0.52-1.19,1.04-2.39,1.57-3.58c10.72,4.09,21.25,8.87,32.23,12.06
		c8.46,2.46,17.54,4.26,26.27,3.99c18.59-0.57,25.34-9.35,22.15-27.28c-1.57-8.84-8.46-8.3-15.54-7.99
		c-10.37,0.46-20.94,0.99-31.13-0.52c-6.1-0.91-12.15-4.96-17.32-8.8c-9.67-7.18-21.81-7.29-29.5,0.76
		c-6.92,7.24-6.22,18.89,2.18,27.41c2.94,2.99,6.95,4.92,10.48,7.34C374.28,377.39,373.3,378.46,372.31,379.53z"/>
	<path d="M332.19,390.71c6.02,13.37,11.87,23.21,14.78,33.85c2.21,8.08,4.15,18.06-6.29,23.89c-10.06,5.62-18.63,3.37-26.65-5.2
		c-2.57,2.14-4.69,4.38-7.23,5.94c-10.1,6.17-25.24-0.86-25.23-12.61c0-8.24,3.26-16.49,5.25-24.7c1.47-6.09,3.24-12.1,5.26-19.54
		C303.45,395.18,316.46,420.21,332.19,390.71z M311.21,416.3c-3.21-4.49-6.5-9.09-11.32-15.82c-2.38,6.19-3.2,9.13-4.58,11.77
		c-4.21,8.09-11.64,16.17-3.51,25.31c9,10.11,17.44,0.97,25.8-2.09c0.79-8.91,1.56-17.68,2.63-29.85
		C316.14,410.47,313.84,413.19,311.21,416.3z M325.92,442.08c1.82,0.57,3.64,1.13,5.45,1.7c2.77-4.36,7.62-8.61,7.88-13.11
		c0.52-9-3.48-16.93-13.34-22.4C325.92,420.44,325.92,431.26,325.92,442.08z"/>
	<path d="M154.36,268.01c10.23,7.65,10.97,18.17,8.33,28.81c-3.98,16.05-19.36,26.32-39.18,27.46
		c-18.02,1.04-28.13-3.57-34.45-18.02c16.47,9.27,31.99,12.54,47.56,4.85C154.71,302.16,153.07,284.82,154.36,268.01z"/>
	<path d="M536.06,304.62c-2.02,14.14-13.54,15-23.73,16.63c-20.3,3.24-38.44-5.69-46.17-21.8c-5.79-12.08-3.73-25.4,6.88-35.18
		c1.39,16.74-1.17,34.69,16,43.47C504.81,315.8,520.59,314.36,536.06,304.62z"/>
	<path d="M245.85,461.55c-4.49-15.29,6.04-33.31-9.24-49.14c-3.63,9.84-6.63,17.94-9.73,26.34c-5.08-8.73-1.9-25.84,6.03-30.95
		c1.92-1.24,6.9-0.98,8.06,0.48c3.45,4.39,7.6,9.56,8.05,14.72c1.13,12.95,0.37,26.07,0.37,39.11
		C248.21,461.93,247.03,461.74,245.85,461.55z"/>
	<path d="M401.67,440.86c-2.59-9.18-5.17-18.36-8.48-30.11c-16.32,17.36-4.38,36.48-11.79,52.73c-0.48-14.6-1.92-29.26-0.93-43.76
		c0.34-4.93,6.77-9.45,10.42-14.15c3.57,3.42,7.61,6.47,10.61,10.33c6.29,8.09,5.54,16.61,0.14,24.96
		C401.65,440.87,401.67,440.86,401.67,440.86z"/>
	<path d="M262.47,438.22c12.63-3.72,12.63-3.72,19.6,34.33c2.63-3.55,5-6.77,7.37-9.98c0.67,0.38,1.33,0.76,2,1.14
		c-3.02,5.59-6.04,11.17-9.86,18.23C273.68,467.14,279.93,448.06,262.47,438.22z"/>
	<path d="M119.18,371.76c-9.47-7.26-17.79-13.72-28.54-4.46c-0.56-1.36-1.11-2.72-1.67-4.08c4.55-2.85,9.13-8.08,13.64-8.02
		C111,355.31,119.85,357.95,119.18,371.76z"/>
	<path d="M537.93,363.22c-11.12-8.15-19.33-1.85-27.54,4.66c-1.1-10.07,0.62-12.16,10.41-15.1
		C530.03,350,535.61,353.23,537.93,363.22z"/>
	<path d="M236.05,247.76c-13.33-0.92-26.65-1.84-40.86-2.83C201.54,240,201.54,240,236.05,247.76z"/>
	<path d="M175.82,432.53c12.55,1.11,22.93,2.03,33.31,2.94c-0.14,1.03-0.28,2.06-0.42,3.1
		C198.19,437.07,186.75,442.53,175.82,432.53z"/>
	<path d="M345.51,498.25c-5-10.34-12.55-13.83-23.44-8.32c-0.22-1.01-0.44-2.02-0.66-3.02c3.6-1.6,8.2-5.44,10.59-4.36
		c5.99,2.7,10.99,7.62,16.38,11.66C347.43,495.55,346.47,496.9,345.51,498.25z"/>
	<path d="M421.02,433.97c10.56-1.14,21.13-2.28,32.5-3.5c-9.77,10.51-21.52,4.75-32.02,6.54C421.34,436,421.18,434.98,421.02,433.97
		z"/>
	<path d="M302.04,550.95c-4.69-6.85-9.39-13.7-14.08-20.55c1.36-0.89,2.72-1.77,4.09-2.66c4.8,7.07,9.6,14.15,14.4,21.22
		C304.98,549.63,303.51,550.29,302.04,550.95z"/>
	<path d="M342.76,530.3c-4.55,6.93-9.1,13.87-14.74,22.47c-4.15-13.43,6.98-17.15,10.81-24.45
		C340.14,528.98,341.45,529.64,342.76,530.3z"/>
	<path d="M96.16,443.36c5.44,2.68,9.77,5.17,14.41,6.78c0.8,0.28,4.4-3.52,4.08-4.74c-0.79-3.03-3.11-5.66-5.87-10.19
		c2.1-0.93,5.97-4.06,7.82-3.14c2.9,1.45,6.19,5.62,6.21,8.67c0.06,8.49-5.67,14.06-13.66,14.66
		C101.43,455.99,96.35,451.41,96.16,443.36z"/>
	<path d="M176.18,534.8c-28.71,1.29-31.11,0.39-36.7-13.53C147.05,538.21,165.18,526.99,176.18,534.8z"/>
	<path d="M518.98,434.14c-1.47,2.91-3.81,5.75-4.04,8.76c-0.12,1.53,4.52,5.18,5.35,4.74c4.23-2.25,7.91-5.51,12.02-8.6
		c2.72,7.17-2.22,12.66-8.07,12.54c-5.7-0.11-12.23-4.5-16.47-8.87c-1.68-1.73,1.15-8.9,3.4-12.72c0.69-1.17,6.27,0.53,9.61,0.91
		C520.18,431.97,519.58,433.05,518.98,434.14z"/>
	<path d="M452.75,533.63c12.4-9.63,31.45,3.01,37.88-15.46C487.63,532.24,480.69,535.06,452.75,533.63z"/>
	<path class="st0" d="M311.21,416.3c2.63-3.11,4.93-5.83,9.03-10.69c-1.07,12.17-1.85,20.95-2.63,29.85
		c-8.36,3.07-16.81,12.21-25.8,2.09c-8.13-9.14-0.71-17.22,3.51-25.31c1.38-2.64,2.2-5.58,4.58-11.77
		C304.71,407.21,308,411.81,311.21,416.3z"/>
	<path class="st0" d="M325.92,442.08c0-10.82,0-21.64,0-33.82c9.86,5.48,13.85,13.4,13.34,22.4c-0.26,4.51-5.11,8.75-7.88,13.11
		C329.55,443.21,327.73,442.64,325.92,442.08z"/>
</g>
</svg>
