<?xml version="1.0" encoding="utf-8"?>
<!-- Generator: Adobe Illustrator 24.3.0, SVG Export Plug-In . SVG Version: 6.00 Build 0)  -->
<svg version="1.1" id="Layer_1" xmlns="http://www.w3.org/2000/svg" xmlns:xlink="http://www.w3.org/1999/xlink" x="0px" y="0px"
	 viewBox="0 0 612 792" style="enable-background:new 0 0 612 792;" xml:space="preserve">
<style type="text/css">
	.st0{fill:#FFFFFF;}
</style>
<g>
	<path class="st0" d="M521,790.3c-143.65,0-287.3,0-430.96,0c0-263.43,0-526.87,0-790.3C233.7,0,377.35,0,521,0
		C521,263.43,521,526.87,521,790.3z M315.15,310.7c-0.88-0.93-1.98-1.73-2.6-2.81c-7.7-13.19-14.92-26.68-23.06-39.59
		c-15.65-24.81-38.13-37.66-67.85-36.36c-11.39,0.5-21.94,3.83-28.96,13.55c-3.69,5.11-8.71,7.54-14.26,7.6
		c-13.19,0.15-23.36-6.42-20.71-19.67c1.71-8.55,13.59-17.85,23.3-15.31c2.96,0.77,6.14,0.71,9.22,1.04
		c0.27-0.61,0.53-1.22,0.8-1.84c-2.89-2.3-5.77-4.6-8.66-6.9c-0.28,0.36-0.57,0.71-0.85,1.07c1.74,1.43,3.48,2.86,5.22,4.28
		c-12.4-2.89-21.97,0.8-28.91,11c-5.14,7.56-4.46,16.25,0.66,22.57c6.33,7.82,16,9.55,26.31,6.36c-0.87,1.38-1.61,2.23-2,3.22
		c-1.16,3.01-2.07,6.13-3.34,9.09c-0.49,1.13-1.52,2.5-2.6,2.84c-22.97,7.32-45.27,9.42-65.79-7.25
		c-7.45-6.05-8.71-12.65-2.14-19.59c2.7,12.64,19.17,17.66,30.54,17.47c9.63-0.17,13.51-6.89,8.81-15.33
		c-3.63-6.52-4.55-12.99-1.89-19.88c0.95-2.47,2.49-4.71,3.87-7.25c-1.03-0.14-1.57-0.38-1.78-0.21c-0.81,0.66-1.67,1.35-2.24,2.21
		c-5.49,8.19-5.27,16.55-0.88,25.16c2.75,5.41,0.88,9.51-4.83,10.26c-9.21,1.21-17.89-1.11-24.9-6.99
		c-2.88-2.42-3.78-7.19-5.58-10.92c-12.35,10.07-9.52,18.41-2.99,24.86c12.57,12.41,27.95,19.48,46.27,17.25
		c8.48-1.03,16.89-2.67,25.29-4.03c5.76,21.75,18.97,32.06,36.36,27.91c12.17-2.9,25.42-16.17,19.47-35.8
		c11.07-1.31,29.58,10.46,33.22,20.49c-5.83-0.42-12-1.41-18.12-1.19c-12.12,0.43-17.08,9.04-17.29,18.67
		c-0.11,4.81,2.56,9.01,8.5,8.4c3.87-0.4,7.67-1.53,11.34-2.3c4.23,6.51,0.91,10.9-4.2,14.71c-2.6,1.94-5.38,3.65-7.98,5.6
		c-5.17,3.9-10.66,7.48-15.29,11.96c-4.83,4.67-9.54,10.44-7.88,17.63c1.68,7.26-0.06,13.52-2.16,20.15
		c-2.82,8.92-4.49,17.99-2.16,27.45c2.52,10.2,11.13,14.35,20.32,9.51c3.12-1.64,5.34-3.15,3.77-7.51c-1.52-4.2-4.12-3.33-7.22-3.1
		c-2.07,0.15-4.21-0.72-6.32-1.14c0.48-2.42,0.39-5.19,1.58-7.19c1.75-2.92,4.42-5.28,6.7-7.88l0.38-0.24
		c7.85-6.74,17.88-3.86,26.78-5.99c0.69-0.17,1.88,0.23,2.32,0.78c5.75,7.09,13.47,13.06,13.63,23.4
		c0.22,14.23-5.6,24.8-18.15,32.05c-4.72,2.73-8.67,7.06-12.3,11.24c-1.3,1.5-1.66,5.65-0.54,6.93c1.25,1.43,4.67,1.34,7.12,1.22
		c1.59-0.08,3.09-1.49,4.7-2.12c7.47-2.91,14.97-5.75,23.95-9.19c-2.02,3.72-2.84,6.03-4.32,7.82
		c-8.11,9.84-16.41,19.53-24.55,29.34c-1.62,1.95-2.86,4.22-4.27,6.35c0.53,0.55,1.05,1.1,1.58,1.64
		c15.94-2.61,29.68-9.73,41.04-21.67c0.61,0.3,1.22,0.6,1.83,0.91c-5.54,16.22-11.08,32.43-16.62,48.65
		c16.24-8.75,23.85-25.51,37.01-36.69c0.67,0.23,1.35,0.46,2.02,0.68c-1.37,12.82-2.75,25.64-4.12,38.45
		c0.89,0.27,1.77,0.53,2.66,0.8c3.31-5.63,6.97-11.09,9.84-16.93c2.92-5.95,5.06-12.28,7.55-18.44c0.51,0.14,1.02,0.29,1.53,0.43
		c-1.2,6.08-1.9,12.32-3.71,18.21c-3.2,10.4-4.01,20.86-1.43,31.31c0.96,3.89-0.19,5.96-2.97,7.44c-4.93,2.62-10.1,4.78-15.15,7.16
		c-12.86,6.06-25.94,8.11-39.39,1.98c-8.07-3.68-15.29-8.09-16.18-18.27c-0.45-5.15-4.01-5.18-6.64-2.35
		c-2.05,2.21-3.64,6.02-3.42,8.97c0.95,12.69,7.25,23.09,16.49,31.36c22.55,20.21,62.39,23.27,88.84,7.36
		c1.74-1.05,4.58-2.71,5.64-2.04c5.55,3.49,9.24,1.06,12.96-4.01c0.53,2.08,1.02,3.23,1.09,4.41c0.5,7.63,4.93,12.05,10.94,16.45
		c6.51,4.76,12.08,11.07,17.25,17.36c9.2,11.2,17.58,23.07,26.71,34.32c6.88,8.47,14.35,7.96,20.29-1.03
		c1.73-2.61,3.11-5.74,3.62-8.8c1.34-8.08,2.86-16.25,2.97-24.4c0.3-20.55-2.21-40.62-13.57-58.57
		c-5.54-8.76-11.29-17.43-16.15-26.57c-1.56-2.93-1.17-7.31-0.63-10.87c0.95-6.17,2.81-12.19,4.11-18.31c0.6-2.8,0.78-5.69,1.3-9.64
		c1.96,1.79,2.94,2.57,3.78,3.48c7.33,7.94,13.68,17.16,22.17,23.55c12.44,9.36,18.76,21.5,22.3,35.91
		c4.11,16.75,2.84,33.48,0.28,50.28c-1.68,11.06-6.44,20.57-13.68,28.92c-2.83,3.27-6.03,6.24-8.83,9.54
		c-2.86,3.36-2.19,6.71,2.27,6.86c4.74,0.16,9.88-0.59,14.22-2.42c7.24-3.06,11.7-9.47,16.98-15.24
		c13.43-14.69,24.08-30.37,28.51-50.05c3.5-15.52,7.4-31.39,2.85-46.81c-7.27-24.64-18.14-48.06-34.72-67.91
		c-11.58-13.86-25.1-26.09-37.75-39.04l0.22,0.2c-2.53-5.84-5.06-11.69-7.6-17.55c7.01-3.85,8.92-8.72,8.13-15.93
		c-0.67-6.15-3.85-10.05-7.91-13.52c-3.26-2.78-2.95-5.86-1.26-8.47c7.01-10.79,12.69-22.61,24.36-29.78
		c6.66-4.09,12.62-9.33,18.89-14.05c-0.15-0.68-0.3-1.37-0.46-2.05c-9.2,1.39-18.69,1.84-27.53,4.45
		c-8.84,2.61-17.03,7.38-24.81,10.88c-3.66-4.84-7.65-10.12-12.07-15.97c0.61-1,1.49-3.03,2.88-4.62
		c5.68-6.53,8.84-14.1,10.57-22.53c3.15-15.34-5.02-30.96-19.91-35.73c-5.87-1.88-7.14-5.19-8.14-10.68
		c-1.84-10.09-4.79-20-7.75-29.84c-1.47-4.89-5.61-7.23-10.66-6.77c-6.87,0.63-13.77,1.41-20.53,2.78
		c-10,2.03-17.64,6.89-18.3,18.57c-7.24-5.83-7.14-5.85-8.22-11.98c-0.91-5.17-1.77-10.05,3.16-14.13c0.89-0.73,0.32-5.39-0.87-6.12
		c-8.4-5.13-4.74-13.31-6.65-20.34c19.08-5.44,37.34-10.64,55.6-15.84c0.02-0.56,0.04-1.11,0.07-1.67
		c-12.64-2.98-25.28-5.97-39.22-9.26c9.42-4.85,17.73-9.13,26.66-13.74c-2.75-0.51-4.85-1.01-6.97-1.28
		c-12.64-1.64-25.26-3.43-37.93-4.72c-4.4-0.45-6.08-2.55-7.58-6.38c-4.99-12.7-10.43-25.22-16.07-38.7
		c-2.2,14.57-4.43,27.94-6.15,41.37c-0.74,5.76-2.9,9.3-8.86,10.75c-5.66,1.38-11.1,3.67-16.64,5.56
		c-7.49,2.55-14.99,5.09-22.48,7.64c-0.06,0.8-0.12,1.6-0.18,2.4c9.34,1.77,18.68,3.54,28.02,5.31c0.09,0.5,0.18,1,0.27,1.5
		c-12.52,5.57-25.05,11.13-37.57,16.7c3.35,1.63,6.15,1.85,8.95,1.95c15.6,0.59,31.2,1.11,46.8,1.76c1.83,0.08,4.22,0.28,5.31,1.42
		c2.53,2.63,1.62,14.46-0.84,17.41c-2.83,3.39-2.73,6.72,0.48,9.75c4.83,4.57,6.51,16.48,3.04,21.83c-2.5,3.85-2.46,7.13,1.92,9.86
		c4.8,2.99,6.12,16.03,2.27,20.42c-3.52,4.02-2.54,7.18,1.32,10.46c1.86,1.58,3.6,4.05,4.08,6.38c1.49,7.3,2.35,14.73,3.46,22.11
		L315.15,310.7z M125.66,268.74c8.57,5.57,18.29,6.28,27.4,4.36C144.53,271.74,135.1,270.24,125.66,268.74z M178.78,268.15
		c-0.24-0.83-0.47-1.65-0.71-2.48c-5.2,1.45-10.41,2.9-15.61,4.35c0.17,0.65,0.35,1.29,0.52,1.94
		C168.25,270.69,173.52,269.42,178.78,268.15z"/>
	<path d="M231.26,392.95c-2.28,2.6-4.95,4.96-6.7,7.88c-1.2,2-1.1,4.77-1.58,7.19c2.11,0.41,4.26,1.29,6.32,1.14
		c3.1-0.23,5.71-1.1,7.22,3.1c1.58,4.36-0.65,5.87-3.77,7.51c-9.19,4.84-17.8,0.69-20.32-9.51c-2.34-9.46-0.66-18.53,2.16-27.45
		c2.1-6.64,3.84-12.89,2.16-20.15c-1.66-7.19,3.05-12.96,7.88-17.63c4.62-4.48,10.12-8.06,15.29-11.96c2.59-1.95,5.37-3.66,7.98-5.6
		c5.1-3.8,8.43-8.2,4.2-14.71c-3.68,0.77-7.47,1.9-11.34,2.3c-5.94,0.61-8.6-3.59-8.5-8.4c0.21-9.63,5.16-18.24,17.29-18.67
		c6.12-0.22,12.29,0.77,18.12,1.19c-3.64-10.03-22.15-21.8-33.22-20.49c5.95,19.63-7.3,32.9-19.47,35.8
		c-17.39,4.15-30.6-6.16-36.36-27.91c-8.4,1.36-16.81,3-25.29,4.03c-18.32,2.23-33.7-4.84-46.27-17.25
		c-6.53-6.45-9.36-14.79,2.99-24.86c1.81,3.72,2.71,8.5,5.58,10.92c7.01,5.89,15.68,8.2,24.9,6.99c5.71-0.75,7.58-4.85,4.83-10.26
		c-4.39-8.62-4.61-16.97,0.88-25.16c0.57-0.86,1.43-1.55,2.24-2.21c0.21-0.17,0.75,0.07,1.78,0.21c-1.38,2.54-2.92,4.78-3.87,7.25
		c-2.66,6.89-1.74,13.36,1.89,19.88c4.7,8.44,0.82,15.17-8.81,15.33c-11.37,0.2-27.84-4.82-30.54-17.47
		c-6.57,6.93-5.31,13.54,2.14,19.59c20.52,16.67,42.82,14.58,65.79,7.25c1.08-0.34,2.11-1.71,2.6-2.84
		c1.27-2.96,2.17-6.08,3.34-9.09c0.38-0.99,1.12-1.84,2-3.22c-10.31,3.19-19.98,1.46-26.31-6.36c-5.12-6.31-5.8-15.01-0.66-22.57
		c6.94-10.2,16.51-13.89,28.91-11c-1.74-1.43-3.48-2.86-5.22-4.28c0.28-0.36,0.57-0.71,0.85-1.07c2.89,2.3,5.77,4.6,8.66,6.9
		c-0.27,0.61-0.53,1.22-0.8,1.84c-3.08-0.32-6.26-0.26-9.22-1.04c-9.71-2.54-21.58,6.75-23.3,15.31
		c-2.65,13.25,7.52,19.82,20.71,19.67c5.55-0.06,10.57-2.49,14.26-7.6c7.02-9.72,17.57-13.05,28.96-13.55
		c29.72-1.29,52.2,11.55,67.85,36.36c8.14,12.91,15.36,26.4,23.06,39.59c0.63,1.08,1.73,1.88,2.59,2.82
		c-2.56,1.12-5.15,2.15-7.64,3.37c-7.9,3.85-9.29,8.12-5.42,16.34c5.1-4.79,10.28-9.48,15.26-14.39c3.53-3.48,0.58-4.48-2.35-5.29
		c-1.11-7.38-1.97-14.81-3.46-22.11c-0.48-2.33-2.22-4.8-4.08-6.38c-3.86-3.28-4.84-6.45-1.32-10.46c3.85-4.4,2.53-17.43-2.27-20.42
		c-4.38-2.73-4.41-6-1.92-9.86c3.47-5.35,1.79-17.26-3.04-21.83c-3.2-3.03-3.31-6.37-0.48-9.75c2.47-2.95,3.38-14.78,0.84-17.41
		c-1.1-1.14-3.49-1.35-5.31-1.42c-15.6-0.66-31.2-1.18-46.8-1.76c-2.8-0.11-5.6-0.32-8.95-1.95c12.52-5.57,25.05-11.13,37.57-16.7
		c-0.09-0.5-0.18-1-0.27-1.5c-9.34-1.77-18.68-3.54-28.02-5.31c0.06-0.8,0.12-1.6,0.18-2.4c7.49-2.55,14.99-5.09,22.48-7.64
		c5.54-1.89,10.98-4.18,16.64-5.56c5.95-1.45,8.12-4.99,8.86-10.75c1.72-13.43,3.95-26.8,6.15-41.37c5.64,13.47,11.08,26,16.07,38.7
		c1.5,3.83,3.18,5.93,7.58,6.38c12.67,1.29,25.29,3.08,37.93,4.72c2.13,0.28,4.22,0.77,6.97,1.28c-8.93,4.6-17.24,8.88-26.66,13.74
		c13.94,3.29,26.58,6.28,39.22,9.26c-0.02,0.56-0.04,1.11-0.07,1.67c-18.26,5.2-36.52,10.41-55.6,15.84
		c1.9,7.02-1.75,15.21,6.65,20.34c1.19,0.73,1.75,5.38,0.87,6.12c-4.93,4.07-4.07,8.95-3.16,14.13c1.08,6.13,0.98,6.15,8.22,11.98
		c0.66-11.67,8.3-16.54,18.3-18.57c6.76-1.37,13.65-2.15,20.53-2.78c5.04-0.46,9.19,1.89,10.66,6.77
		c2.96,9.84,5.91,19.75,7.75,29.84c1,5.49,2.27,8.8,8.14,10.68c14.89,4.77,23.07,20.39,19.91,35.73c-1.73,8.43-4.89,16-10.57,22.53
		c-1.38,1.59-2.27,3.61-2.88,4.62c4.42,5.85,8.41,11.13,12.07,15.97c7.78-3.51,15.97-8.28,24.81-10.88
		c8.85-2.61,18.33-3.06,27.53-4.45c0.15,0.68,0.3,1.37,0.46,2.05c-6.27,4.72-12.23,9.95-18.89,14.05
		c-11.67,7.17-17.34,18.99-24.36,29.78c-1.7,2.61-2,5.69,1.26,8.47c4.06,3.46,7.23,7.37,7.91,13.52c0.79,7.21-1.12,12.08-8.13,15.93
		c2.54,5.86,5.07,11.71,7.6,17.55c-4.24-4.83-8.47-9.66-12.71-14.5c-1.8,1.19-4.41,2.91-6.48,4.28c3.99,7.82,5.44,16.07,4.21,24.44
		c-1.09,7.42-3.61,14.62-5.34,21.95c-0.37,1.58-0.05,3.32-0.05,5.6c2.38-2,3.94-3.3,6.46-5.42c2.41,5.05,4.4,9.2,6.57,13.74
		c-1.45,1.13-3.08,2.4-5.65,4.41c6.09,6.73,11.98,13.25,17.49,19.35c4.17-1.13,5.29-7.93,11.38-3.19c-2.93,1.83-5.32,3.32-7.32,4.57
		c5.07,4.85,10.36,9.41,15.07,14.5c11.98,12.94,15.27,28.54,13.89,45.73c-0.81,9.99-1.5,20.13-0.65,30.07
		c1.73,20.32-4.89,36.39-21.48,48.32c-1.08,0.78-2,1.8-2.99,2.7c0.31,0.61,0.63,1.23,0.94,1.84c2.44-1.07,5.42-1.56,7.22-3.29
		c8.7-8.39,17.23-16.97,25.43-25.85c1.26-1.37,0.99-4.67,0.6-6.94c-0.85-4.89-2.23-9.68-3.4-14.52c0.78-0.22,1.55-0.44,2.33-0.65
		c1.89,5.46,3.78,10.92,5.68,16.4c4.79-3.16,7.24-11.09,4.72-16.38c-3.97-8.33-8.37-16.45-12.48-24.72
		c-0.95-1.92-1.45-4.08-2.15-6.13c0.84-0.39,1.68-0.78,2.53-1.18c5.41,9.79,10.81,19.58,16.09,29.14c4.48-5.57,6.4-17.27,3.49-21.68
		c-6.53-9.89-12.91-19.88-19.36-29.82c0.65-0.54,1.3-1.08,1.96-1.62c6.76,6.89,13.52,13.77,21.27,21.66
		c0.16-11.41,1.64-22.09-5.67-30.18c-6.72-7.43-15.11-13.34-22.42-19.63c7.29-0.65,13.67,3.45,20.18,9.02
		c1.25-10.83-5.63-16.9-10.41-24.12c-5.17-7.82-12.7-10.42-21.13-12.87c-9.06-2.64-16.51,2.82-26.34,4.79
		c13.05-11.84,25.8-13.42,40.07-6.18c-0.89-2.75-1.9-4.28-3.09-5.66c-4.22-4.93-9.19-9.38-12.63-14.8
		c-7.99-12.57-17.56-9.32-26.09-4.61c-1.89,1.04-3.87,1.9-6.88,3.36c2.87-6.06,6.78-7.91,25.36-12.55c-2.78-1.9-4.87-2.79-6.19-4.33
		c-4.22-4.95-8.16-10.14-12.21-15.23c12.65,12.96,26.18,25.18,37.75,39.04c16.58,19.85,27.45,43.27,34.72,67.91
		c4.55,15.42,0.64,31.28-2.85,46.81c-4.43,19.69-15.09,35.36-28.51,50.05c-5.28,5.78-9.74,12.18-16.98,15.24
		c-4.34,1.84-9.49,2.59-14.22,2.42c-4.47-0.16-5.13-3.5-2.27-6.86c2.8-3.3,6-6.26,8.83-9.54c7.23-8.36,11.99-17.86,13.68-28.92
		c2.55-16.8,3.83-33.52-0.28-50.28c-3.54-14.41-9.86-26.55-22.3-35.91c-8.49-6.39-14.84-15.61-22.17-23.55
		c-0.84-0.91-1.82-1.69-3.78-3.48c-0.52,3.95-0.7,6.84-1.3,9.64c-1.3,6.12-3.16,12.14-4.11,18.31c-0.55,3.56-0.94,7.93,0.63,10.87
		c4.86,9.13,10.61,17.8,16.15,26.57c11.35,17.95,13.87,38.01,13.57,58.57c-0.12,8.15-1.63,16.32-2.97,24.4
		c-0.51,3.06-1.9,6.19-3.62,8.8c-5.94,8.99-13.42,9.5-20.29,1.03c-9.14-11.25-17.51-23.12-26.71-34.32
		c-5.17-6.29-10.74-12.6-17.25-17.36c-6.01-4.39-10.44-8.82-10.94-16.45c-0.08-1.18-0.56-2.33-1.09-4.41
		c-3.72,5.07-7.41,7.5-12.96,4.01c-1.05-0.66-3.9,1-5.64,2.04c-26.45,15.9-66.29,12.85-88.84-7.36
		c-9.23-8.27-15.54-18.67-16.49-31.36c-0.22-2.95,1.37-6.76,3.42-8.97c2.63-2.83,6.19-2.8,6.64,2.35
		c0.89,10.18,8.11,14.6,16.18,18.27c13.45,6.13,26.53,4.09,39.39-1.98c5.05-2.38,10.22-4.54,15.15-7.16
		c2.79-1.48,3.94-3.55,2.97-7.44c-2.58-10.45-1.77-20.91,1.43-31.31c1.81-5.89,2.51-12.13,3.71-18.21
		c-0.51-0.14-1.02-0.29-1.53-0.43c-2.48,6.16-4.63,12.5-7.55,18.44c-2.87,5.85-6.53,11.3-9.84,16.93c-0.89-0.27-1.77-0.53-2.66-0.8
		c1.37-12.82,2.75-25.64,4.12-38.45c-0.67-0.23-1.35-0.46-2.02-0.68c-13.16,11.18-20.77,27.95-37.01,36.69
		c5.54-16.22,11.08-32.43,16.62-48.65c-0.61-0.3-1.22-0.6-1.83-0.91c-11.36,11.94-25.09,19.06-41.04,21.67
		c-0.53-0.55-1.05-1.1-1.58-1.64c1.41-2.12,2.65-4.39,4.27-6.35c8.15-9.81,16.45-19.5,24.55-29.34c1.47-1.79,2.3-4.1,4.32-7.82
		c-8.98,3.44-16.48,6.28-23.95,9.19c-1.61,0.63-3.1,2.04-4.7,2.12c-2.44,0.12-5.87,0.21-7.12-1.22c-1.12-1.28-0.76-5.42,0.54-6.93
		c3.63-4.19,7.58-8.52,12.3-11.24c12.55-7.25,18.37-17.82,18.15-32.05c-0.16-10.35-7.88-16.31-13.63-23.4
		c-0.45-0.55-1.63-0.95-2.32-0.78c-8.89,2.14-18.92-0.75-26.78,5.99c1.69-7.11,7.47-8.18,13.37-8.93c3.67-0.47,7.36-0.69,11.04-1.02
		c-0.04-0.37-0.08-0.75-0.13-1.12c-0.86-0.32-1.71-0.65-3.45-1.3c10.96-2.21,3.37-13.5,10.05-18.07
		c-8.44,2.95-17.58,5.25-23.58,10.88c-5.97,5.6-8.79,14.55-13.06,22.16C227.81,394.46,229.53,393.7,231.26,392.95z M357.17,304.95
		c4.24,4.47,8.48,8.93,12.71,13.39c14.29-14.68,14.64-26.3,0.7-32.42c6.19-2.85,11.18-1.59,13.07,4.64c1.21,4,1.41,9.48-0.42,12.99
		c-4.46,8.54-10.37,16.31-15.71,24.41c-1.41-2.04-2.83-4.08-4.57-6.58c-0.15-1.39,0.29-4.24-0.9-5.95c-0.92-1.32-3.9-1.2-5.84-1.69
		c1.64,7.07,3.37,12.86,4.12,18.77c0.24,1.92-2.11,4.17-3.27,6.27c-1.83-1.2-3.8-2.25-5.46-3.65c-1.19-1-1.97-2.48-3.42-4.4
		c-1.3,6.2-2.39,11.4-3.48,16.6c3.22,0,5.66,0,9.26,0c-3.27,2.86-5.34,4.68-7.41,6.5c0.42,0.35,0.84,0.7,1.26,1.05
		c2.46-0.46,4.93-0.93,7.39-1.39c0.1,0.53,0.2,1.06,0.3,1.58c-1.69,1.29-3.38,2.57-4.07,3.09c4.27,6.48,8.14,12.34,12.01,18.21
		c0.63-0.32,1.25-0.63,1.88-0.95c-1.46-3.16-2.92-6.31-4.39-9.46c-5.04-10.84-2.75-17.87,8.41-23.55
		c-2.39-4.82-4.78-9.66-7.27-14.68c2.43,0,4.06,0,5.69,0c2.12,3.7,4.45,7.29,6.32,11.11c3.09,6.33,0.7,10.28-6.14,9.95
		c-5.18-0.25-7.26,1.78-6.49,6.85c0.36,2.35-0.02,5.23,1.21,6.95c6.85,9.52,3.67,21.2,7.24,31.36c0.59,1.68,1.7,3.18,3,5.53
		c-1.3,1.17-3.64,3.27-5.98,5.37c0.41,0.56,0.82,1.12,1.23,1.68c2.64-0.78,5.29-1.56,8.07-2.38c-0.78,11.72-4.29,16.36-14.09,19.12
		c0.81-2.26,1.62-4.52,2.95-8.21c-1.19-0.6-3.51-1.75-5.83-2.91c-0.36,0.49-0.72,0.97-1.09,1.46c1.95,2.93-3.94,8.92,4.2,9.43
		c-6.17,1.49-12.35,2.98-18.52,4.47c0.06-0.97,0.12-1.95,0.18-2.92c-2.5-1.38-5-2.75-5.94-3.27c-9.14-9.2,4.62-14.5,2.32-22.98
		c-3.57,1.03-6.54,1.88-9.5,2.74c2.54-4.56,14.26-3.23,6.7-13.1c-5.78,1.02-11.67,2.06-17.56,3.1c-0.17-0.8-0.34-1.61-0.51-2.41
		c5.83-1.72,11.66-3.45,17.45-5.16c-1.08-4.41-3.2-6.45-8.23-4.94c-5.24,1.58-10.75,2.25-16.14,3.32c-0.16-0.51-0.32-1.01-0.48-1.52
		c5.8-2.17,11.59-4.34,17.39-6.51c0.15-0.42,0.31-0.83,0.46-1.25c-5.78-1.16-11.55-2.32-17.14-3.44c1.4-3.58-0.61-6.38-5.05-5.89
		c-4.79,0.52-9.6,1.05-14.41,1.13c-9.83,0.16-19.52-11.41-13.47-21.31c4.79-7.84,5.28-16.41-2.07-24.98
		c-6.29-7.33-14.35-10.29-23.6-15.73c4.03,11.96,12.82,22.08,2.84,33.27c4.25-1.21,8.01-2.28,11.77-3.34
		c0.57,0.59,1.13,1.18,1.7,1.77c-4.13,8.77-8.25,17.54-12.03,25.56c3.32-0.3,7.21-0.65,11.1-1c0.62,0.73,1.24,1.45,1.86,2.18
		c-9.21,4.09-7.5,11.76-7.74,16.3c6.43,9.41,14.23,16.7,16.59,25.46c2.37,8.8-0.67,19.05-1.29,27.89c3.68-0.29,8.33-0.66,14.51-1.15
		c-2.36,5.18-3.85,8.45-5.67,12.43c11.93-6.63,14.29-6.27,17.89,2.08c2.09-0.88,4.18-1.76,6.42-2.7
		c5.93,10.53,1.99,21.02,1.49,31.39c2.57-4.22,3.94-8.77,6.41-12.61c1.21-1.88,4.6-3.52,6.75-3.25c1.51,0.19,3.12,3.62,3.77,5.88
		c1.02,3.52,1.26,7.27,1.84,10.92c0.48-0.03,0.96-0.05,1.45-0.08c0.9-12.75,1.79-25.51,2.69-38.26c-0.62-0.14-1.24-0.29-1.86-0.43
		c-1.74,1.33-3.47,2.67-5.21,4c-0.32-0.27-0.63-0.54-0.95-0.81c2.44-3.4,4.88-6.81,8.42-11.76c1.78,4.69,3.08,7.32,3.77,10.11
		c0.68,2.76,0.76,5.67,1.16,9.06c6.94-6.33,14.93-7.54,23.33-6.32c2.1,0.3,5.02,1.65,5.78,3.32c2.61,5.76,4.94,5.86,10.17,2.35
		c2.66-1.79,7.98-0.22,11.87,0.74c1.57,0.39,2.53,3.24,3.76,4.97c-0.49,0.31-0.97,0.63-1.46,0.94c-1.23-1.15-2.28-2.83-3.74-3.34
		c-3.08-1.07-6.84-2.78-9.43-1.82c-1.82,0.68-2.95,5.32-2.97,8.2c-0.03,3.28,0.71,7.12,2.51,9.76c5.81,8.49,6.19,16.49,0.61,25.3
		c-3.01,4.75-4.37,10.26,0.11,15.44c5.08,5.88,9.31,12.7,15.12,17.71c11.23,9.69,16.04,23.07,23.2,35.12
		c-0.44,0.34-0.89,0.68-1.33,1.02c-5.87-7.04-11.74-14.07-18.23-21.85c-0.85,2.2-1.12,2.73-1.27,3.3c-0.16,0.63-0.14,1.31-0.34,1.92
		c-3.13,9.31-7.32,17.72-17.8,20.69c-5.81,1.65-11.25,0.71-14.02-4.88c-2.7-5.45-4.06-11.56-6.02-17.39
		c3.38,4.59,5.45,9.64,7.45,14.72c2.48,6.33,6.41,7.74,12.17,4.37c9.5-5.56,10.64-15.74,13.63-24.85c0.26-0.78-0.8-2.22-1.56-3.07
		c-3.3-3.71-6.96-7.13-10.03-11.02c-2.74-3.46-5.18-3.79-9.29-2.02c-4.42,1.91-9.44,2.53-14.27,3.32c-1.13,0.18-3.26-0.92-3.65-1.92
		c-1.6-4.08-2.7-8.36-3.98-12.57c4.48,4.04,4.58,12.54,12.97,10.58c3.6-0.84,9.34-4.49,9.26-6.69c-0.17-4.96-3.37-9.81-5.39-14.85
		c0.95-1.66,2.55-4.44,4.63-8.05c-3.6,0.16-5.38,0.24-9.12,0.4c4.24-3.22,6.96-5.29,10.86-8.26c-4.32,0-7.32,0-10.32,0
		c-0.12-0.43-0.23-0.86-0.35-1.3c2.79-1.7,5.58-3.39,8.37-5.09c-0.22-0.52-0.45-1.04-0.67-1.56c-2.74,0.38-5.47,0.75-9.27,1.28
		c3.71-2.99,6.53-5.27,9.36-7.55c-0.43-0.57-0.86-1.14-1.3-1.7c-5.95,2.74-12,5.29-17.79,8.33c-1.45,0.76-2.46,2.97-3.01,4.72
		c-5.25,16.65-10.36,33.34-15.51,50.02c-1.6-2.89-2.81-6.3-2.03-9.17c1.86-6.84,4.75-13.4,7.02-20.14c0.95-2.81,2.24-5.91,1.87-8.68
		c-2.08-15.53,7.21-26.57,20.45-32.18c2.57-1.09,5.32-4.41,5.75-7.07c0.36-2.22-1.96-6.05-4.15-7.26
		c-6.6-3.66-19.02,2.62-20.96,10.14c-2.58,10.01-5.04,20.04-7.44,30.09c-0.44,1.86-1.2,4.51-0.32,5.65
		c3.33,4.34,0.42,8.05-0.48,11.97c-1.49,6.49-3.19,12.94-4.6,19.45c-2.7,12.44-0.78,24.06,6.04,34.87
		c4.14-5.37,8.02-10.4,11.9-15.44c1.08,0.36,2.15,0.73,3.23,1.09c0.22,5.8,0.36,11.61,0.69,17.41c0.47,8.19-3.49,17.48,5.75,23.76
		c0.73-0.58,1.36-1.17,2.07-1.63c2.6-1.71,5.23-3.37,7.86-5.06c1.29,3.03,3.14,5.95,3.74,9.11c1.06,5.57,3.26,9.64,8.13,13.22
		c7.25,5.35,14.16,11.51,20,18.35c8.34,9.77,15.01,20.97,23.44,30.65c8.4,9.65,15.08,7.62,18.8-4.64c0.31-1.03,0.56-2.09,0.77-3.16
		c4.75-24.74,2.65-48.65-8.88-71.35c-2.94-5.79-6.18-11.42-9.29-17.13c-0.51,0.22-1.01,0.45-1.52,0.67
		c1.16,3.39,2.4,6.75,3.46,10.17c1.32,4.3,3.31,8.6,3.56,12.98c0.62,11.07-5.75,15.46-16.43,11.99
		c12.21-1.19,17.21-9.77,12.39-21.11c-1.35-3.17-3.46-6.49-3.4-9.7c0.23-12.8-7.24-22.51-13.32-32.34
		c-5.72-9.23-7.87-17.87-4.57-28.14c3.88-12.04,1.86-23.46-4.58-34.17c-0.85-1.42-2.02-3.21-3.41-3.65
		c-4.73-1.47-9.62-2.41-14.45-3.55c0.15-0.8,0.3-1.6,0.46-2.41c6.9,1.47,13.8,2.94,21.15,4.5c1.54-3.43,3.16-7.65,5.33-11.58
		c0.78-1.42,2.81-2.8,4.36-2.92c1.05-0.08,2.84,1.89,3.29,3.28c1.05,3.24,1.49,6.68,2.19,10.04c2.48-9.87,4.37-19.67-4.31-29.69
		c-1,5.39-1.78,9.57-2.56,13.76c-4.93-6.57,0.19-18.29,8.02-21.94c6.05-2.82,11.23-7.75,16.31-12.29c1.35-1.21,1.61-4.61,1.11-6.71
		c-0.77-3.27-2.17-6.6-4.1-9.35c-5.81-8.28-11.85-16.42-18.15-24.34c-1.8-2.27-4.75-3.63-7.17-5.41c-0.35,0.46-0.71,0.93-1.06,1.39
		c0.77,0.88,1.48,1.84,2.33,2.64c12.09,11.33,14.78,28.49,4.42,41.06c-5.08,6.16-8.14,12.19-9.67,19.65
		c-0.36,1.74-2.34,3.15-3.58,4.71c-1.75-1.45-4.49-2.6-5.05-4.42c-1.03-3.41-1.39-7.27-0.97-10.82c0.82-6.9-0.64-12.18-5.71-17.57
		c-3.64-3.88-5.99-10.19-6.33-15.58c-0.32-5.01,2.47-10.36,4.5-15.31c1.56-3.81,1.58-6.83-2.14-8.91
		c-5.76-3.22-6.52-8.04-5.05-14.76c2.92,0.68,5.53,1.3,6.35,1.49c4.6-3.82,8.15-8.92,12.65-9.95c5.03-1.16,7.44-3.74,9.74-7.33
		c2.32-3.62,4.44-7.38,6.54-11.13c8.15-14.61,7.42-39.76-14.84-44.93c-4.9-1.14-7.47-5.5-8.44-11.66
		c-1.61-10.3-5.42-20.27-8.66-30.27c-0.56-1.72-2.71-3.98-4.32-4.15c-11.29-1.21-22.15,0.49-31.02,8.12
		c-2.78,2.39-4.09,6.5-6.07,9.83c0.7,0.59,1.39,1.19,2.09,1.78c6.36-4.6,12.74-9.15,19.06-13.8c3.95-2.91,8.02-3.37,11.94-0.33
		c2.53,1.96,3.9,12.41,2.3,14.89c-0.82-2.01-1.95-3.95-2.38-6.02c-1.26-6-4.88-6.55-9.65-4.41c-1.93,0.87-3.63,2.26-5.48,3.33
		c-3.04,1.76-5.94,3.91-9.2,5.09c-8.31,3.02-9.91,4.87-10.32,13.93c-0.15,3.25-0.14,6.5-0.26,9.75c-0.14,3.79,1.59,5.84,4.84,8.11
		c9.51,6.66,18.63,13.91,27.47,21.46c2.14,1.83,2.99,5.58,3.56,8.6c0.2,1.05-2.51,3.87-3.43,3.68c-2.52-0.53-4.8-2.21-7.14-3.5
		c-0.17-0.1-0.1-0.63-0.19-1.29c1.86,0.28,3.59,0.54,5.31,0.81c0.38-0.45,0.77-0.89,1.15-1.34c-2.57-3.63-5.13-7.27-7.7-10.9
		c-0.06,5.64,0.98,10.67-6.08,12.16c-0.19,0.04-0.08,1.54-0.12,2.34c-6.34-5.22-13.15-9.42-22.77-10.55
		c7.21,6.07,13.53,11.38,20.84,17.54C356.16,309.09,356.67,307.02,357.17,304.95z M295.28,287.95c-1.65-2.46-3.54-4.59-4.67-7.08
		c-12.07-26.47-32.71-41.44-61.4-44.58c-25.15-2.75-47.91,19.79-45.48,41.94c1.4,12.68,10.85,22.21,23.83,22.95
		c10.74,0.61,20.46-7.34,22.3-19.29c0.52-3.36-0.68-9.05-2.95-10.29c-3.46-1.9-8.92-2-12.76-0.65c-2.19,0.77-3.29,5.84-3.92,9.16
		c-0.18,0.97,2.96,2.56,4.57,3.87c0.41-0.48,0.83-0.96,1.24-1.44c-0.56-1.39-1.12-2.78-1.67-4.17c0.33-0.42,0.65-0.84,0.98-1.26
		c1.57,0.8,4.4,1.54,4.45,2.42c0.1,2.03-0.67,5.46-1.95,5.93c-2.66,0.96-6.72,1.57-8.71,0.18c-4.87-3.41-3.78-12.85,0.56-16.97
		c4.92-4.66,10.65-4.92,16.83-5.11c15.7-0.48,29.48,3.13,39.73,16.14c4.62,5.87,9.9,11.22,14.49,16.38
		c-0.06-1.14-0.15-3.08-0.25-5.02c0.48-0.09,0.97-0.17,1.45-0.26c1.33,1.8,2.66,3.6,4.01,5.43
		C289.13,293.4,292.03,290.83,295.28,287.95z M309.53,589.97c2.34-0.3,5.47-1.21,8.52-0.99c7.28,0.51,8.99-3.92,10.19-9.76
		c1.03-5.04,3.1-9.85,4.32-14.86c0.49-2,0.58-4.67-0.41-6.24c-0.57-0.91-3.84-0.78-5.58-0.18c-12.8,4.36-25,9.89-39.17,10.1
		c-20.96,0.3-35.19-8.66-41.29-28.18c-0.79,1.91-1.73,4.17-1.1,5.85c2.32,6.21,5.14,12.24,7.8,18.33c2.43,5.57,5.61,9.77,13.81,5.53
		c-1.05,3.37-1.66,5.34-2.29,7.38c1.38,0.96,2.79,1.96,4.22,2.93c5.24,3.53,10.29,6.49,15.23-0.73c1.39-2.04,4.07-3.2,6.16-4.77
		c0.37,0.33,0.74,0.67,1.12,1c-1.79,3.73-3.58,7.47-5.43,11.32c3.64,1.02,6.92,2.12,10.29,2.83c3.78,0.8,6.23,0.25,8.64-4.07
		c4.27-7.66,10.24-14.37,15.51-21.48c0.48,0.29,0.95,0.58,1.43,0.88C317.61,572.96,313.74,581.1,309.53,589.97z M262.73,337.49
		c-3.24,1.43-4.89,1.92-6.3,2.81c-7.49,4.74-15.55,8.28-20.09,17.18c-3.1,6.07-10.67,9.87-13.74,15.95
		c-3.8,7.52-5.4,16.26-7.22,24.63c-1.34,6.18,0.43,12.07,5.01,16.71c4.12,4.18,7.13,4.12,12.46-0.29c-1.84-0.15-3.27-0.5-4.63-0.34
		c-5.91,0.69-7.62-3.07-7.99-7.76c-0.2-2.52,0.3-5.19,0.99-7.65c4.39-15.64,12.82-29.02,26.32-37.82
		C256.08,355.35,258.68,347.47,262.73,337.49z M278.77,519.38c18.86-21.53,36.41-42.03,29.76-72.69c-3.26,3.6-5.91,7.58-7.69,11.9
		c-7.76,18.83-8.64,40.26-21.62,57.14C278.89,516.15,279.04,516.94,278.77,519.38z M297.94,441.86c-0.62-0.47-1.25-0.94-1.87-1.4
		c-3.58,4.03-7.55,7.78-10.64,12.16c-4.07,5.77-6.79,12.6-11.29,17.95c-6.1,7.25-13.36,13.54-19.83,19.95
		C267.69,494.65,299.63,459.86,297.94,441.86z M460.64,338.23c-0.16-0.85-0.33-1.71-0.49-2.56c-2.08,0.31-4.4,0.14-6.21,1.01
		c-8.49,4.1-17.23,7.87-25.15,12.92c-12.43,7.92-12.4,14.79-0.09,27.52c1.28-3.72,2.49-7.25,3.81-11.1
		c-3.66,0.16-6.86,0.3-10.06,0.44c-0.1-0.64-0.2-1.28-0.3-1.93c3.18-0.85,6.53-1.31,9.48-2.65c2.81-1.27,5.2-3.46,9.08-6.15
		c-6.41,0.96-10.87,1.63-15.34,2.29c-0.17-0.69-0.34-1.38-0.52-2.07c4.16-1.18,8.4-2.15,12.47-3.6c4.19-1.5,8.21-3.46,12.3-5.22
		c-0.16-0.43-0.32-0.86-0.48-1.29c-2.97,0.21-5.93,0.41-8.9,0.62c-0.02-0.3-0.04-0.59-0.06-0.89
		C447,343.12,453.82,340.68,460.64,338.23z M403.31,349.24c-0.65,0.21-1.3,0.42-1.95,0.63c1.83,2.23,3.26,5.32,5.62,6.42
		c2.09,0.98,6.44,0.72,7.59-0.73c1.7-2.14,2.39-6.02,1.83-8.82c-1.48-7.35-5.35-9.88-12.79-9.67c-7.19,0.2-12.75,4.89-12.9,10.87
		c-0.12,4.87,4.11,8.24,11.56,9.19c-4.5-5.36-5.25-9.36-2-12.33c0.9-0.82,3.2-1.43,3.83-0.91c1.1,0.91,1.39,2.79,2.02,4.26
		C405.2,348.51,404.25,348.88,403.31,349.24z M392.95,359.49c-10.84,19.21-13.04,23.83,5.05,40.87
		C408.96,387.26,406.66,368.59,392.95,359.49z M347.52,547.92c-0.55-0.12-1.09-0.24-1.64-0.37c-1.04,3.75-1.92,7.56-3.19,11.24
		c-0.62,1.8-1.81,4.67-2.97,4.79c-5.29,0.53-5.68,4.9-6.55,8.21c-1.16,4.38-1.12,9.08-1.72,14.71c5.93-2.14,11.42-4.12,16.07-5.8
		C347.52,568.95,347.52,558.43,347.52,547.92z M244.85,459.83c27.86-7.72,37.52-14.06,41.36-28.07
		c-13.29,7.45-25.35,14.06-37.2,21.04C247.34,453.79,246.72,456.56,244.85,459.83z M312.3,518.56c0.89,0.25,1.78,0.5,2.67,0.75
		c2.28-7.23,4.75-14.41,6.78-21.71c1.32-4.74,1.45-9.86,3.1-14.46c3.36-9.33,3.64-9.23-2.63-18.93
		C318.75,483.21,315.53,500.89,312.3,518.56z M321.43,275.35c12,8.13,23.17,15.7,34.35,23.28c0.46-0.61,0.93-1.21,1.39-1.82
		c-1.68-10.56-10.71-14.64-18.78-18.99C333.42,275.14,327.79,270.88,321.43,275.35z M293.64,322.75c-0.77-0.05-1.55-0.09-2.32-0.14
		c-0.93,3.01-3.28,6.48-2.49,8.92c1.82,5.59-0.46,9.15-3.62,12.96c-3.1,3.73-3.69,7.73-1.41,11.73c3.62-3.32,6.42-7.3,10.23-9
		c4.94-2.19,5.34-6.18,4.75-9.67C297.94,332.48,295.44,327.67,293.64,322.75z M220.96,369.89c9.4-12.05,18.71-23.97,28.8-36.9
		C229.45,346.36,216.2,356.8,220.96,369.89z M346.23,407.66c-2.83,1.62-6.05,3.54-0.61,5.79c-2.38,1.43-4.56,2.73-6.74,4.03
		c0.17,0.44,0.35,0.87,0.52,1.31c2.41,0,4.82,0,7.12,0c-0.14,1.38-0.28,2.84-0.53,5.32c2.41-1.41,3.81-2.23,5.08-2.97
		c0.9,1.21,1.79,2.4,2.68,3.59c0.48-0.12,0.97-0.24,1.45-0.36c0.2-3.67,0.4-7.34,0.6-11.09c-2.62,0.15-4.71,0.27-6.8,0.4
		c4.79-3.39,5.76-8.82,2.67-17.02c-2.97,2.81-5.86,5.54-9.08,8.58C343.72,405.98,344.73,406.65,346.23,407.66z M355.53,334.57
		c2.43-9.35-2.02-20.04-8.73-23.49c-6.1-3.13-8.58-3.11-10.4-0.84C342.66,318.21,348.75,325.96,355.53,334.57z M415.7,481.71
		c-1.4-11.77-2.69-22.64-4.16-35.02C404.02,460.36,404.65,471.33,415.7,481.71z M258.32,291.32c-6.5-2.28-8.66-2.19-11.94,2.15
		c-1.71,2.26-2.77,5.81-2.38,8.53c0.22,1.52,3.98,2.54,6.39,3.92C253.31,300.54,255.69,296.17,258.32,291.32z M289.77,311.33
		c4.58-7.33,8.34-13.34,12.15-19.43c-5.7-0.67-15.29,4.78-16.08,10.16C285.43,304.8,288.25,308.01,289.77,311.33z M300.95,299.88
		c-6.38,3.01-8.52,8.77-5.16,12.87c0.82,1,1.94,1.75,3.43,3.07c1.51-1.2,4.21-3.37,7.04-5.62
		C304.4,306.59,302.67,303.22,300.95,299.88z M238.89,297.1c-0.45,0.8-1.99,2.89-2.89,5.22c-2.35,6.06,1.48,10.88,7.94,9.95
		c1.45-0.21,2.99-1.51,3.9-2.74c0.28-0.39-1.32-2.24-2.15-3.35C243.55,303.26,241.35,300.37,238.89,297.1z M296.82,362.4
		c2.15-4.74,3.69-8.13,5.42-11.94c-5.18-2.08-8.78,0.47-11.94,3.59c-1.17,1.15-1.42,3.23-2.09,4.89
		C291.01,360.06,293.81,361.19,296.82,362.4z M340.2,377.96c1.42-7.23-4.87-8.99-8.72-12.23c-3.08-2.59-5.72-2.3-7.41,1.54
		C329.22,370.68,334.15,373.95,340.2,377.96z M414.53,502.99c1.71-6.76,2.47-13.04-3.63-18.13
		C407.23,497.04,407.39,497.87,414.53,502.99z M314.16,352.95c-0.08-0.48-0.15-0.96-0.23-1.44c-2.84,0.56-6.47,0.24-8.34,1.9
		c-2.49,2.22-5.56,5.57-2.54,10.04C306.95,359.77,310.55,356.36,314.16,352.95z M271.19,298.21c-4.57-1.09-7.85-1.97-11.18-2.51
		c-0.31-0.05-1.64,2.89-1.36,3.13c2.28,1.99,4.84,3.67,7.35,5.48C267.69,302.32,268.78,301.05,271.19,298.21z M405.93,506.5
		c1.86,5.56,3.44,10.26,5.01,14.95c0.56-0.2,1.12-0.39,1.68-0.59C413.12,515.41,414.82,509.52,405.93,506.5z M279.2,309.58
		c0.17-0.9,0.35-1.81,0.52-2.71c-2.61-1.67-5.22-3.33-9.3-5.95c0,3.25-0.5,6.06,0.09,6.31C273.24,308.41,276.28,308.87,279.2,309.58
		z M335.55,269.2c0.75-0.02,1.49-0.04,2.24-0.06c-0.54-6.53-1.08-13.05-1.62-19.58c-0.21,0.05-0.41,0.1-0.62,0.15
		C335.55,256.21,335.55,262.71,335.55,269.2z M349.4,387.18c-1.69-3.26-3.39-6.52-5.6-10.77
		C339.08,384.26,345.09,385.28,349.4,387.18z"/>
	<path class="st0" d="M231.26,392.95c-1.72,0.76-3.45,1.51-5.37,2.35c4.27-7.6,7.09-16.56,13.06-22.16
		c6.01-5.63,15.14-7.93,23.58-10.88c-6.68,4.57,0.91,15.86-10.05,18.07c1.74,0.66,2.6,0.98,3.45,1.3c0.04,0.37,0.08,0.75,0.13,1.12
		c-3.68,0.33-7.38,0.55-11.04,1.02c-5.9,0.75-11.68,1.82-13.37,8.93C231.64,392.71,231.26,392.95,231.26,392.95z"/>
	<path d="M125.66,268.74c9.43,1.5,18.87,3,27.4,4.36C143.95,275.02,134.23,274.31,125.66,268.74z"/>
	<path d="M178.78,268.15c-5.27,1.27-10.53,2.54-15.8,3.81c-0.17-0.65-0.35-1.29-0.52-1.94c5.2-1.45,10.41-2.9,15.61-4.35
		C178.31,266.5,178.55,267.33,178.78,268.15z"/>
	<path class="st0" d="M367.54,327.96c5.33-8.08,11.24-15.86,15.69-24.4c1.84-3.51,1.63-8.99,0.42-12.99
		c-1.89-6.23-6.88-7.49-13.07-4.64c13.94,6.12,13.59,17.74-0.7,32.42c-4.24-4.46-8.47-8.93-12.71-13.39l0.2,0.2
		c0.03-0.82-0.09-2.32,0.1-2.36c7.06-1.49,6.02-6.52,6.08-12.16c2.57,3.63,5.13,7.27,7.7,10.9c-0.38,0.45-0.77,0.89-1.15,1.34
		c-1.72-0.26-3.44-0.52-5.31-0.81c0.09,0.65,0.02,1.19,0.19,1.29c2.34,1.28,4.63,2.97,7.14,3.5c0.92,0.19,3.63-2.63,3.43-3.68
		c-0.57-3.03-1.42-6.78-3.56-8.6c-8.83-7.54-17.96-14.8-27.47-21.46c-3.25-2.28-4.98-4.32-4.84-8.11c0.12-3.25,0.12-6.5,0.26-9.75
		c0.41-9.06,2.01-10.91,10.32-13.93c3.25-1.18,6.16-3.33,9.2-5.09c1.85-1.07,3.55-2.46,5.48-3.33c4.77-2.14,8.39-1.59,9.65,4.41
		c0.43,2.08,1.56,4.01,2.38,6.02c1.6-2.48,0.23-12.92-2.3-14.89c-3.92-3.04-7.99-2.58-11.94,0.33c-6.32,4.65-12.7,9.21-19.06,13.8
		c-0.7-0.59-1.39-1.19-2.09-1.78c1.98-3.32,3.28-7.43,6.07-9.83c8.87-7.63,19.73-9.32,31.02-8.12c1.61,0.17,3.76,2.42,4.32,4.15
		c3.23,10,7.04,19.97,8.66,30.27c0.97,6.16,3.54,10.52,8.44,11.66c22.26,5.18,22.99,30.32,14.84,44.93
		c-2.1,3.76-4.22,7.51-6.54,11.13c-2.3,3.6-4.71,6.18-9.74,7.33c-4.49,1.03-8.05,6.13-12.65,9.95c-0.82-0.19-3.44-0.81-6.35-1.49
		c-1.47,6.73-0.71,11.54,5.05,14.76c3.72,2.08,3.7,5.1,2.14,8.91c-2.03,4.95-4.82,10.3-4.5,15.31c0.34,5.39,2.69,11.71,6.33,15.58
		c5.07,5.4,6.53,10.67,5.71,17.57c-0.42,3.55-0.07,7.41,0.97,10.82c0.55,1.82,3.29,2.97,5.05,4.42c1.24-1.56,3.22-2.97,3.58-4.71
		c1.53-7.46,4.59-13.48,9.67-19.65c10.36-12.57,7.67-29.72-4.42-41.06c-0.85-0.8-1.56-1.76-2.33-2.64c0.35-0.46,0.71-0.93,1.06-1.39
		c2.42,1.78,5.37,3.14,7.17,5.41c6.29,7.93,12.33,16.06,18.15,24.34c1.93,2.75,3.32,6.08,4.1,9.35c0.5,2.1,0.24,5.5-1.11,6.71
		c-5.07,4.54-10.25,9.47-16.31,12.29c-7.83,3.66-12.95,15.37-8.02,21.94c0.78-4.19,1.56-8.37,2.56-13.76
		c8.68,10.01,6.79,19.81,4.3,29.69c-0.69-3.36-1.13-6.8-2.18-10.04c-0.45-1.38-2.24-3.36-3.29-3.28c-1.56,0.12-3.58,1.5-4.36,2.92
		c-2.17,3.93-3.8,8.15-5.33,11.58c-7.35-1.57-14.25-3.04-21.15-4.5c-0.15,0.8-0.3,1.6-0.46,2.41c4.83,1.14,9.72,2.08,14.45,3.55
		c1.39,0.43,2.56,2.23,3.41,3.65c6.44,10.71,8.46,22.13,4.58,34.17c-3.31,10.27-1.15,18.91,4.57,28.14
		c6.08,9.83,13.55,19.53,13.32,32.34c-0.06,3.22,2.05,6.53,3.4,9.7c4.82,11.35-0.17,19.93-12.39,21.11
		c10.68,3.46,17.05-0.93,16.43-11.99c-0.25-4.38-2.24-8.68-3.56-12.98c-1.05-3.42-2.3-6.78-3.46-10.17
		c0.51-0.22,1.01-0.45,1.52-0.67c3.1,5.71,6.35,11.34,9.29,17.13c11.53,22.7,13.63,46.61,8.88,71.35c-0.2,1.06-0.45,2.12-0.77,3.16
		c-3.73,12.26-10.41,14.28-18.8,4.64c-8.43-9.68-15.1-20.88-23.44-30.65c-5.84-6.85-12.74-13-20-18.35
		c-4.86-3.59-7.06-7.65-8.13-13.22c-0.6-3.16-2.45-6.08-3.74-9.11c-2.62,1.68-5.25,3.35-7.86,5.06c-0.71,0.46-1.34,1.05-2.07,1.63
		c-9.24-6.28-5.28-15.57-5.75-23.76c-0.33-5.8-0.47-11.61-0.69-17.41c-1.08-0.36-2.15-0.73-3.23-1.09
		c-3.88,5.04-7.76,10.07-11.9,15.44c-6.83-10.8-8.75-22.43-6.04-34.87c1.42-6.51,3.11-12.96,4.6-19.45
		c0.9-3.91,3.81-7.62,0.48-11.97c-0.88-1.14-0.12-3.8,0.32-5.65c2.4-10.05,4.86-20.09,7.44-30.09c1.94-7.52,14.36-13.8,20.96-10.14
		c2.19,1.21,4.5,5.05,4.15,7.26c-0.43,2.65-3.18,5.98-5.75,7.07c-13.24,5.6-22.53,16.65-20.45,32.18c0.37,2.77-0.93,5.87-1.87,8.68
		c-2.27,6.74-5.17,13.29-7.02,20.14c-0.78,2.87,0.43,6.27,2.03,9.17c5.15-16.68,10.26-33.37,15.51-50.02
		c0.55-1.75,1.56-3.96,3.01-4.72c5.79-3.04,11.84-5.6,17.79-8.33c0.43,0.57,0.86,1.14,1.3,1.7c-2.83,2.28-5.65,4.56-9.36,7.55
		c3.8-0.52,6.53-0.9,9.27-1.28c0.22,0.52,0.45,1.04,0.67,1.56c-2.79,1.7-5.58,3.39-8.37,5.09c0.12,0.43,0.23,0.86,0.35,1.3
		c3,0,6,0,10.32,0c-3.9,2.97-6.63,5.04-10.86,8.26c3.75-0.17,5.52-0.24,9.12-0.4c-2.08,3.61-3.67,6.39-4.63,8.05
		c2.02,5.04,5.21,9.89,5.39,14.85c0.08,2.2-5.66,5.85-9.26,6.69c-8.38,1.96-8.48-6.55-12.97-10.58c1.28,4.21,2.38,8.48,3.98,12.57
		c0.39,1.01,2.52,2.11,3.65,1.92c4.82-0.79,9.85-1.4,14.27-3.32c4.1-1.78,6.55-1.45,9.29,2.02c3.07,3.89,6.73,7.31,10.03,11.02
		c0.76,0.85,1.81,2.29,1.56,3.07c-2.98,9.12-4.12,19.3-13.63,24.85c-5.76,3.37-9.68,1.95-12.17-4.37c-2-5.08-4.07-10.13-7.45-14.72
		c1.95,5.82,3.32,11.93,6.02,17.39c2.77,5.59,8.21,6.53,14.02,4.88c10.48-2.98,14.67-11.39,17.8-20.69c0.2-0.61,0.18-1.29,0.34-1.92
		c0.15-0.57,0.41-1.1,1.27-3.3c6.49,7.78,12.36,14.81,18.23,21.85c0.44-0.34,0.89-0.68,1.33-1.02
		c-7.17-12.05-11.97-25.43-23.2-35.12c-5.81-5.01-10.04-11.83-15.12-17.71c-4.48-5.19-3.12-10.69-0.11-15.44
		c5.58-8.81,5.2-16.81-0.61-25.3c-1.81-2.64-2.54-6.48-2.51-9.76c0.03-2.88,1.15-7.52,2.97-8.2c2.58-0.96,6.34,0.75,9.43,1.82
		c1.46,0.51,2.51,2.19,3.74,3.34c0.49-0.31,0.97-0.63,1.46-0.94c-1.24-1.73-2.19-4.58-3.76-4.97c-3.89-0.97-9.21-2.53-11.87-0.74
		c-5.23,3.52-7.56,3.41-10.17-2.35c-0.76-1.67-3.68-3.02-5.78-3.32c-8.41-1.21-16.39-0.01-23.33,6.32c-0.41-3.4-0.48-6.3-1.16-9.06
		c-0.69-2.79-1.99-5.43-3.77-10.11c-3.54,4.95-5.98,8.35-8.42,11.76c0.32,0.27,0.63,0.54,0.95,0.81c1.74-1.33,3.47-2.67,5.21-4
		c0.62,0.14,1.24,0.29,1.86,0.43c-0.9,12.75-1.79,25.51-2.69,38.26c-0.48,0.03-0.96,0.05-1.45,0.08c-0.57-3.65-0.82-7.39-1.84-10.92
		c-0.65-2.25-2.25-5.69-3.77-5.88c-2.16-0.27-5.54,1.37-6.75,3.25c-2.47,3.84-3.84,8.39-6.41,12.61
		c0.49-10.37,4.43-20.86-1.49-31.39c-2.24,0.94-4.33,1.82-6.42,2.7c-3.61-8.34-5.97-8.7-17.9-2.08c1.81-3.98,3.3-7.25,5.67-12.43
		c-6.17,0.49-10.82,0.85-14.51,1.15c0.62-8.83,3.66-19.09,1.29-27.89c-2.36-8.75-10.16-16.04-16.59-25.46
		c0.23-4.54-1.47-12.21,7.74-16.3c-0.62-0.73-1.24-1.45-1.86-2.18c-3.89,0.35-7.78,0.7-11.1,1c3.78-8.03,7.91-16.8,12.03-25.56
		c-0.57-0.59-1.14-1.18-1.7-1.77c-3.76,1.07-7.51,2.13-11.77,3.34c9.97-11.19,1.19-21.31-2.84-33.27c9.25,5.44,17.31,8.4,23.6,15.73
		c7.36,8.57,6.87,17.14,2.07,24.98c-6.05,9.9,3.64,21.47,13.47,21.31c4.81-0.08,9.62-0.61,14.41-1.13c4.44-0.48,6.45,2.32,5.05,5.89
		c5.59,1.12,11.37,2.28,17.14,3.44c-0.15,0.42-0.31,0.83-0.46,1.25c-5.8,2.17-11.59,4.34-17.39,6.51c0.16,0.51,0.32,1.01,0.48,1.52
		c5.39-1.07,10.9-1.74,16.14-3.32c5.03-1.51,7.15,0.52,8.23,4.94c-5.79,1.71-11.62,3.44-17.45,5.16c0.17,0.8,0.34,1.61,0.51,2.41
		c5.89-1.04,11.78-2.08,17.56-3.1c7.56,9.86-4.16,8.54-6.7,13.1c2.96-0.85,5.92-1.71,9.5-2.74c2.3,8.47-11.45,13.78-2.32,22.98
		c0.94,0.52,3.44,1.89,5.94,3.27c-0.06,0.97-0.12,1.95-0.18,2.92c6.17-1.49,12.35-2.98,18.52-4.47l-0.23,0.23
		c9.79-2.75,13.31-7.4,14.08-19.12c-2.78,0.82-5.42,1.6-8.07,2.38c-0.41-0.56-0.82-1.12-1.23-1.68c2.34-2.1,4.68-4.2,5.98-5.37
		c-1.3-2.35-2.41-3.85-3-5.53c-3.57-10.15-0.39-21.84-7.24-31.36c-1.24-1.72-0.85-4.6-1.21-6.95c-0.77-5.07,1.31-7.09,6.49-6.85
		c6.84,0.32,9.23-3.62,6.14-9.95c-1.87-3.82-4.2-7.41-6.32-11.11L367.54,327.96z M382.11,327.28c0.4,0.47,0.79,0.94,1.19,1.4
		c3.92-1.49,8.2-2.42,11.69-4.6c4.95-3.11,10.4-6.37,13.72-10.94c8.26-11.38,2.58-29.22-9.83-34.55c-5.24-2.25-8.53-5.87-8.77-12.34
		c-0.13-3.61-2.87-7.08-4.22-10.69c-1.73-4.61-3.25-9.3-5.03-14.45c-0.43,2.81-1.58,5.89-1.16,8.74c0.62,4.2,2.21,8.28,3.65,12.32
		c2.9,8.15,1.56,10-6.96,10.01c-5.37,0.01-10.74,0.53-16.11,0.82c0.03,1.03,0.07,2.05,0.1,3.08c6.71,0,13.56,0.82,20.1-0.26
		c5.1-0.85,8.9-0.95,12.59,3.1c3.27,3.58,8.36,5.94,10.55,9.97c6.67,12.3,2.69,23.55-9.53,30.59
		C389.95,321.83,386.09,324.66,382.11,327.28z M364.65,245.76c5.75,4.26,7.92,9.37,6.06,14.53c-0.83,2.29-1.92,6.35-0.99,7.04
		c2.22,1.65,5.58,1.78,8.47,2.52c0.54-0.59,1.09-1.18,1.63-1.77c-5.89-7.61-1.39-18.77-10.86-25.48c-5.88-4.16-7.61-4.04-11.23,2.14
		c-2.12,3.62-6.1,6.15-9.26,9.15c-1.01,0.95-2.07,1.84-3.11,2.76c1.56,0.2,3.63,1.13,4.58,0.46
		C354.79,253.75,359.33,249.96,364.65,245.76z M379.07,363.86c-0.66-0.15-1.32-0.3-1.98-0.44c-4.6,6.74-9.6,13.18-5.37,22.38
		c5.22,11.35,9.88,22.95,14.32,33.36c-0.06,0.49,0.5-0.91,0.19-2.07c-2.56-9.52-4.72-19.22-8.16-28.42
		c-2.34-6.24-3.13-11.86-0.51-18.01C378.45,368.56,378.59,366.14,379.07,363.86z M324.21,410.67c-0.69-0.45-1.38-0.89-2.07-1.34
		c-2.02,2.3-4.05,4.6-6.07,6.9c0.53,0.49,1.07,0.99,1.6,1.48c1.02-1.49,2.04-2.98,3.05-4.47c0.68,0.26,1.35,0.53,2.03,0.79
		c-1.96,13.64-3.91,27.29-5.87,40.93C323,440.75,326.42,426.14,324.21,410.67z M302.41,431.03c5.71-5.7,6.58-15.25,1.65-23.22
		c-2.38,4.06-4.48,7.64-6.58,11.22c0.28,0.15,0.55,0.31,0.83,0.46c1.62-1.12,3.25-2.24,5.68-3.93
		C303.44,420.95,302.97,425.57,302.41,431.03z M286.43,383.31c-3.64-5.99-8.76-6.18-13.95-6.96
		C273.69,383.13,276.47,384.6,286.43,383.31z M290.77,391.29c-3.2-5.96-8.06-5.33-12.67-5.8
		C278.18,391.59,279.64,392.28,290.77,391.29z M387.24,299.07c0.73,0.39,1.46,0.78,2.2,1.17c7.45-4.46,8.47-6.38,5.12-12.35
		C391.86,292.02,389.55,295.55,387.24,299.07z M382.55,310.69c10.25-1.8,13.45-4.94,11.55-10.11
		C390.06,304.12,386.31,307.4,382.55,310.69z M390.78,414.78c-0.72-0.05-1.44-0.1-2.16-0.14c-0.48,6.22-0.96,12.45-1.44,18.67
		c0.56,0.05,1.11,0.09,1.67,0.14C389.49,427.22,390.14,421,390.78,414.78z M283.59,392.45c-0.76,1.08-1.51,2.17-2.27,3.25
		c1.95,1.3,3.78,2.93,5.92,3.7c0.73,0.26,2.24-1.67,3.39-2.6C288.28,395.35,285.94,393.9,283.59,392.45z"/>
	<path class="st0" d="M441.69,430.9c4.05,5.1,7.99,10.29,12.21,15.23c1.32,1.55,3.41,2.43,6.19,4.33
		c-18.58,4.64-22.49,6.49-25.36,12.55c3.01-1.46,5-2.32,6.88-3.36c8.53-4.71,18.1-7.96,26.09,4.61c3.44,5.42,8.41,9.87,12.63,14.8
		c1.18,1.38,2.2,2.91,3.09,5.66c-14.27-7.24-27.01-5.66-40.07,6.18c9.83-1.97,17.28-7.42,26.34-4.79
		c8.43,2.45,15.96,5.05,21.13,12.87c4.77,7.22,11.66,13.29,10.41,24.12c-6.51-5.57-12.89-9.66-20.18-9.02
		c7.31,6.29,15.7,12.2,22.42,19.63c7.31,8.09,5.84,18.77,5.67,30.18c-7.75-7.89-14.51-14.78-21.27-21.66
		c-0.65,0.54-1.3,1.08-1.96,1.62c6.44,9.95,12.83,19.93,19.36,29.82c2.92,4.42,0.99,16.12-3.49,21.68
		c-5.28-9.55-10.68-19.34-16.09-29.14c-0.84,0.39-1.68,0.78-2.53,1.18c0.7,2.05,1.2,4.2,2.15,6.13c4.1,8.27,8.5,16.39,12.48,24.72
		c2.52,5.29,0.07,13.21-4.72,16.38c-1.9-5.48-3.79-10.94-5.68-16.4c-0.78,0.22-1.55,0.44-2.33,0.65c1.17,4.83,2.55,9.63,3.4,14.52
		c0.39,2.27,0.66,5.57-0.6,6.94c-8.2,8.87-16.73,17.46-25.43,25.85c-1.8,1.73-4.78,2.23-7.22,3.29c-0.31-0.61-0.63-1.23-0.94-1.84
		c0.99-0.91,1.9-1.92,2.99-2.7c16.59-11.92,23.21-27.99,21.48-48.32c-0.85-9.94-0.16-20.09,0.65-30.07
		c1.39-17.18-1.91-32.79-13.89-45.73c-4.72-5.09-10-9.65-15.07-14.5c2-1.24,4.39-2.74,7.32-4.57c-6.08-4.74-7.21,2.06-11.38,3.19
		c-5.51-6.1-11.4-12.61-17.49-19.35c2.57-2.01,4.21-3.28,5.65-4.41c-2.17-4.54-4.15-8.69-6.57-13.74c-2.52,2.12-4.08,3.43-6.46,5.42
		c0-2.28-0.32-4.02,0.05-5.6c1.73-7.33,4.24-14.53,5.34-21.95c1.23-8.37-0.22-16.62-4.21-24.44c2.06-1.36,4.68-3.09,6.48-4.28
		c4.25,4.84,8.48,9.67,12.71,14.5C441.91,431.11,441.69,430.9,441.69,430.9z"/>
	<path class="st0" d="M295.28,287.95c-3.25,2.88-6.15,5.45-9.33,8.27c-1.35-1.82-2.68-3.62-4.01-5.43
		c-0.48,0.09-0.97,0.17-1.45,0.26c0.1,1.94,0.2,3.88,0.25,5.02c-4.59-5.15-9.87-10.51-14.49-16.38
		c-10.25-13.01-24.02-16.62-39.73-16.14c-6.18,0.19-11.91,0.44-16.83,5.11c-4.34,4.11-5.42,13.56-0.56,16.97
		c1.99,1.39,6.05,0.79,8.71-0.18c1.29-0.47,2.06-3.89,1.95-5.93c-0.04-0.88-2.88-1.62-4.45-2.42c-0.33,0.42-0.65,0.84-0.98,1.26
		c0.56,1.39,1.12,2.78,1.67,4.17c-0.41,0.48-0.83,0.96-1.24,1.44c-1.62-1.31-4.76-2.9-4.57-3.87c0.63-3.32,1.72-8.38,3.92-9.16
		c3.84-1.35,9.3-1.25,12.76,0.65c2.27,1.25,3.46,6.93,2.95,10.29c-1.84,11.96-11.55,19.9-22.3,19.29
		c-12.98-0.74-22.44-10.27-23.83-22.95c-2.44-22.15,20.32-44.69,45.48-41.94c28.69,3.14,49.33,18.11,61.4,44.58
		C291.74,283.35,293.64,285.49,295.28,287.95z M199.19,272.39c7.79-7.27,13.17-15.72,25.13-14.58
		C215.32,252.79,204.05,259.42,199.19,272.39z M250.13,263.48c-1.99-6.14-15.82-9.33-20.59-5.24
		C236.23,259.95,243.15,261.71,250.13,263.48z"/>
	<path class="st0" d="M309.53,589.97c4.22-8.87,8.08-17.01,11.95-25.15c-0.48-0.29-0.95-0.58-1.43-0.88
		c-5.26,7.11-11.23,13.82-15.51,21.48c-2.41,4.32-4.86,4.87-8.64,4.07c-3.36-0.71-6.65-1.81-10.29-2.83
		c1.85-3.85,3.64-7.58,5.43-11.32c-0.37-0.33-0.74-0.67-1.12-1c-2.09,1.57-4.77,2.73-6.16,4.77c-4.93,7.22-9.99,4.26-15.23,0.73
		c-1.43-0.96-2.83-1.97-4.22-2.93c0.63-2.03,1.25-4.01,2.29-7.38c-8.2,4.25-11.38,0.04-13.81-5.53c-2.66-6.09-5.48-12.11-7.8-18.33
		c-0.63-1.68,0.31-3.95,1.1-5.85c6.1,19.53,20.32,28.48,41.29,28.18c14.17-0.2,26.37-5.74,39.17-10.1c1.74-0.59,5.01-0.72,5.58,0.18
		c0.99,1.57,0.9,4.24,0.41,6.24c-1.22,5.01-3.29,9.82-4.32,14.86c-1.19,5.84-2.91,10.27-10.19,9.76
		C314.99,588.76,311.86,589.67,309.53,589.97z"/>
	<path class="st0" d="M262.73,337.49c-4.05,9.98-6.65,17.86-15.2,23.43c-13.49,8.8-21.92,22.18-26.32,37.82
		c-0.69,2.46-1.18,5.14-0.99,7.65c0.37,4.68,2.08,8.45,7.99,7.76c1.36-0.16,2.79,0.19,4.63,0.34c-5.33,4.41-8.33,4.48-12.46,0.29
		c-4.58-4.64-6.35-10.54-5.01-16.71c1.82-8.37,3.41-17.11,7.22-24.63c3.07-6.08,10.64-9.88,13.74-15.95
		c4.54-8.9,12.6-12.44,20.09-17.18C257.83,339.42,259.49,338.92,262.73,337.49z"/>
	<path class="st0" d="M278.77,519.38c0.28-2.44,0.12-3.23,0.45-3.65c12.98-16.88,13.86-38.31,21.62-57.14
		c1.78-4.33,4.43-8.3,7.69-11.9C315.17,477.35,297.62,497.85,278.77,519.38z"/>
	<path class="st0" d="M367.75,327.74c-1.63,0-3.26,0-5.69,0c2.48,5.02,4.88,9.86,7.27,14.68c-11.17,5.69-13.46,12.71-8.41,23.55
		c1.47,3.15,2.93,6.31,4.39,9.46c-0.63,0.32-1.25,0.63-1.88,0.95c-3.87-5.86-7.73-11.73-12.01-18.21c0.69-0.52,2.38-1.81,4.07-3.09
		c-0.1-0.53-0.2-1.06-0.3-1.58c-2.46,0.46-4.93,0.93-7.39,1.39c-0.42-0.35-0.84-0.7-1.26-1.05c2.07-1.82,4.14-3.63,7.41-6.5
		c-3.59,0-6.04,0-9.26,0c1.09-5.2,2.18-10.4,3.48-16.6c1.46,1.92,2.24,3.4,3.42,4.4c1.66,1.4,3.63,2.45,5.46,3.65
		c1.16-2.1,3.51-4.35,3.27-6.27c-0.75-5.92-2.48-11.71-4.12-18.77c1.95,0.49,4.92,0.37,5.84,1.69c1.19,1.71,0.75,4.56,0.9,5.95
		c1.74,2.51,3.15,4.55,4.58,6.58C367.54,327.96,367.75,327.74,367.75,327.74z"/>
	<path class="st0" d="M297.94,441.86c1.69,18-30.26,52.79-43.64,48.66c6.48-6.42,13.73-12.7,19.83-19.95
		c4.51-5.35,7.22-12.18,11.29-17.95c3.09-4.38,7.06-8.13,10.64-12.16C296.7,440.93,297.32,441.4,297.94,441.86z"/>
	<path class="st0" d="M460.64,338.23c-6.82,2.45-13.63,4.9-20.45,7.34c0.02,0.3,0.04,0.59,0.06,0.89c2.97-0.21,5.93-0.41,8.9-0.62
		c0.16,0.43,0.32,0.86,0.48,1.29c-4.09,1.76-8.11,3.73-12.3,5.22c-4.07,1.45-8.3,2.42-12.47,3.6c0.17,0.69,0.34,1.38,0.52,2.07
		c4.47-0.67,8.94-1.34,15.34-2.29c-3.88,2.69-6.28,4.88-9.08,6.15c-2.95,1.34-6.3,1.8-9.48,2.65c0.1,0.64,0.2,1.28,0.3,1.93
		c3.2-0.14,6.39-0.28,10.06-0.44c-1.32,3.85-2.54,7.38-3.81,11.1c-12.31-12.73-12.34-19.6,0.09-27.52
		c7.92-5.05,16.66-8.82,25.15-12.92c1.81-0.87,4.13-0.7,6.21-1.01C460.31,336.52,460.47,337.37,460.64,338.23z"/>
	<path class="st0" d="M403.31,349.24c0.94-0.37,1.89-0.73,2.83-1.1c-0.63-1.47-0.93-3.35-2.02-4.26c-0.63-0.53-2.94,0.09-3.83,0.91
		c-3.25,2.97-2.5,6.96,2,12.33c-7.45-0.95-11.69-4.32-11.56-9.19c0.15-5.98,5.72-10.67,12.9-10.87c7.44-0.21,11.31,2.32,12.79,9.67
		c0.56,2.8-0.13,6.68-1.83,8.82c-1.15,1.45-5.5,1.71-7.59,0.73c-2.36-1.11-3.79-4.2-5.62-6.42
		C402.01,349.66,402.66,349.45,403.31,349.24z"/>
	<path class="st0" d="M392.95,359.49c13.7,9.09,16.01,27.77,5.05,40.87C379.92,383.32,382.12,378.71,392.95,359.49z M402.65,381.66
		c0.39-0.19,0.79-0.39,1.18-0.58c-1.8-3.74-3.32-7.67-5.61-11.09c-0.51-0.76-5.43,0.32-5.43,0.48c0.16,6.08,0.44,12.18,1.32,18.19
		c0.15,1,3.12,2.29,4.68,2.17c1.24-0.1,2.81-1.97,3.34-3.39C402.79,385.7,402.52,383.6,402.65,381.66z"/>
	<path class="st0" d="M347.52,547.92c0,10.52,0,21.03,0,32.79c-4.65,1.68-10.14,3.66-16.07,5.8c0.59-5.64,0.55-10.33,1.72-14.71
		c0.88-3.31,1.26-7.68,6.55-8.21c1.16-0.12,2.35-2.99,2.97-4.79c1.26-3.68,2.15-7.49,3.19-11.24
		C346.42,547.67,346.97,547.79,347.52,547.92z"/>
	<path class="st0" d="M244.85,459.83c1.87-3.27,2.49-6.04,4.16-7.03c11.85-6.98,23.92-13.59,37.2-21.04
		C282.37,445.76,272.71,452.1,244.85,459.83z"/>
	<path class="st0" d="M312.3,518.56c3.23-17.67,6.45-35.35,9.92-54.35c6.27,9.71,5.99,9.61,2.63,18.93
		c-1.65,4.59-1.78,9.72-3.1,14.46c-2.03,7.3-4.5,14.48-6.78,21.71C314.08,519.06,313.19,518.81,312.3,518.56z"/>
	<path class="st0" d="M321.43,275.35c6.36-4.48,11.99-0.21,16.97,2.47c8.07,4.35,17.09,8.43,18.78,18.99
		c-0.46,0.61-0.93,1.21-1.39,1.82C344.6,291.06,333.42,283.48,321.43,275.35z"/>
	<path class="st0" d="M293.64,322.75c1.8,4.92,4.29,9.73,5.15,14.81c0.59,3.49,0.18,7.47-4.75,9.67c-3.81,1.69-6.6,5.68-10.23,9
		c-2.28-4-1.69-8,1.41-11.73c3.16-3.81,5.44-7.37,3.62-12.96c-0.8-2.45,1.56-5.92,2.49-8.92
		C292.1,322.66,292.87,322.7,293.64,322.75z"/>
	<path class="st0" d="M220.96,369.89c-4.77-13.09,8.49-23.53,28.8-36.9C239.67,345.92,230.37,357.84,220.96,369.89z"/>
	<path class="st0" d="M346.23,407.66c-1.51-1.01-2.52-1.68-3.63-2.43c3.22-3.05,6.11-5.77,9.08-8.58
		c3.09,8.21,2.12,13.63-2.67,17.02c2.09-0.12,4.18-0.24,6.8-0.4c-0.2,3.75-0.4,7.42-0.6,11.09c-0.48,0.12-0.97,0.24-1.45,0.36
		c-0.89-1.19-1.77-2.38-2.68-3.59c-1.27,0.74-2.67,1.56-5.08,2.97c0.25-2.49,0.39-3.95,0.53-5.32c-2.3,0-4.71,0-7.12,0
		c-0.17-0.44-0.35-0.87-0.52-1.31c2.18-1.3,4.36-2.61,6.74-4.03C340.18,411.2,343.4,409.28,346.23,407.66z"/>
	<path class="st0" d="M355.53,334.57c-6.77-8.62-12.86-16.36-19.13-24.33c1.82-2.27,4.3-2.29,10.4,0.84
		C353.51,314.53,357.96,325.22,355.53,334.57z"/>
	<path class="st0" d="M415.7,481.71c-11.04-10.39-11.68-21.35-4.16-35.02C413.01,459.08,414.3,469.95,415.7,481.71z"/>
	<path class="st0" d="M314.98,310.74c2.93,0.82,5.88,1.81,2.35,5.29c-4.98,4.91-10.16,9.6-15.26,14.39
		c-3.88-8.22-2.49-12.5,5.42-16.34c2.5-1.22,5.08-2.25,7.64-3.37C315.15,310.7,314.98,310.74,314.98,310.74z"/>
	<path class="st0" d="M258.32,291.32c-2.64,4.85-5.01,9.22-7.94,14.6c-2.4-1.38-6.17-2.4-6.39-3.92c-0.39-2.72,0.67-6.27,2.38-8.53
		C249.67,289.13,251.82,289.03,258.32,291.32z"/>
	<path class="st0" d="M289.77,311.33c-1.51-3.32-4.33-6.53-3.93-9.26c0.79-5.38,10.38-10.83,16.08-10.16
		C298.11,297.99,294.35,304,289.77,311.33z"/>
	<path class="st0" d="M357.17,304.95c-0.5,2.07-1.01,4.14-1.74,7.17c-7.31-6.15-13.63-11.47-20.84-17.54
		c9.61,1.13,16.43,5.33,22.77,10.56C357.37,305.15,357.17,304.95,357.17,304.95z"/>
	<path class="st0" d="M300.95,299.88c1.72,3.34,3.45,6.7,5.32,10.32c-2.83,2.26-5.53,4.42-7.04,5.62c-1.49-1.31-2.61-2.07-3.43-3.07
		C292.43,308.65,294.57,302.89,300.95,299.88z"/>
	<path class="st0" d="M238.89,297.1c2.46,3.27,4.66,6.16,6.81,9.08c0.82,1.12,2.43,2.97,2.15,3.35c-0.91,1.23-2.45,2.54-3.9,2.74
		c-6.46,0.93-10.29-3.9-7.94-9.95C236.91,299.99,238.44,297.9,238.89,297.1z"/>
	<path class="st0" d="M296.82,362.4c-3.01-1.21-5.81-2.34-8.61-3.47c0.67-1.66,0.92-3.74,2.09-4.89c3.16-3.11,6.76-5.66,11.94-3.59
		C300.51,354.27,298.97,357.66,296.82,362.4z"/>
	<path class="st0" d="M340.2,377.96c-6.05-4.01-10.98-7.28-16.12-10.69c1.69-3.84,4.32-4.14,7.41-1.54
		C335.33,368.96,341.62,370.73,340.2,377.96z"/>
	<path class="st0" d="M414.53,502.99c-7.14-5.12-7.29-5.95-3.63-18.13C417,489.95,416.24,496.23,414.53,502.99z"/>
	<path class="st0" d="M314.16,352.95c-3.61,3.41-7.21,6.82-11.11,10.5c-3.02-4.47,0.05-7.82,2.54-10.04
		c1.86-1.66,5.49-1.34,8.34-1.9C314.01,351.99,314.08,352.47,314.16,352.95z"/>
	<path class="st0" d="M271.19,298.21c-2.41,2.83-3.5,4.11-5.19,6.1c-2.51-1.81-5.07-3.49-7.35-5.48c-0.28-0.24,1.06-3.18,1.36-3.13
		C263.34,296.24,266.62,297.12,271.19,298.21z"/>
	<path class="st0" d="M362.36,423.05c-8.15-0.52-2.25-6.5-4.2-9.43c0.36-0.49,0.72-0.97,1.09-1.46c2.32,1.16,4.64,2.31,5.83,2.91
		c-1.32,3.69-2.14,5.95-2.95,8.21C362.13,423.28,362.36,423.05,362.36,423.05z"/>
	<path class="st0" d="M405.93,506.5c8.89,3.01,7.19,8.91,6.69,14.36c-0.56,0.2-1.12,0.39-1.68,0.59
		C409.37,516.76,407.79,512.07,405.93,506.5z"/>
	<path class="st0" d="M279.2,309.58c-2.93-0.71-5.96-1.17-8.69-2.34c-0.59-0.25-0.09-3.06-0.09-6.31c4.08,2.61,6.69,4.28,9.3,5.95
		C279.55,307.78,279.38,308.68,279.2,309.58z"/>
	<path class="st0" d="M335.55,269.2c0-6.5,0-12.99,0-19.49c0.21-0.05,0.41-0.1,0.62-0.15c0.54,6.53,1.08,13.05,1.62,19.58
		C337.04,269.17,336.29,269.19,335.55,269.2z"/>
	<path class="st0" d="M349.4,387.18c-4.31-1.9-10.32-2.93-5.6-10.77C346.01,380.67,347.7,383.93,349.4,387.18z"/>
	<path d="M382.11,327.28c3.98-2.62,7.84-5.45,11.96-7.83c12.22-7.04,16.2-18.28,9.53-30.59c-2.19-4.04-7.28-6.39-10.55-9.97
		c-3.69-4.04-7.48-3.94-12.59-3.1c-6.53,1.09-13.38,0.26-20.1,0.26c-0.03-1.03-0.07-2.05-0.1-3.08c5.37-0.29,10.74-0.81,16.11-0.82
		c8.52-0.01,9.86-1.86,6.96-10.01c-1.44-4.04-3.03-8.13-3.65-12.32c-0.42-2.85,0.73-5.92,1.16-8.74c1.78,5.15,3.3,9.84,5.03,14.45
		c1.35,3.61,4.09,7.08,4.22,10.69c0.24,6.48,3.53,10.1,8.77,12.34c12.42,5.33,18.09,23.17,9.83,34.55
		c-3.32,4.58-8.77,7.84-13.72,10.94c-3.48,2.19-7.76,3.11-11.69,4.6C382.91,328.22,382.51,327.75,382.11,327.28z"/>
	<path d="M364.65,245.76c-5.33,4.19-9.87,7.99-14.7,11.37c-0.95,0.67-3.02-0.27-4.58-0.46c1.04-0.92,2.11-1.81,3.11-2.76
		c3.16-3,7.14-5.53,9.26-9.15c3.62-6.19,5.35-6.31,11.23-2.14c9.46,6.7,4.97,17.87,10.86,25.48c-0.54,0.59-1.09,1.18-1.63,1.77
		c-2.9-0.74-6.25-0.87-8.47-2.52c-0.93-0.7,0.16-4.75,0.99-7.04C372.58,255.13,370.4,250.02,364.65,245.76z"/>
	<path d="M379.07,363.86c-0.48,2.27-0.62,4.69-1.52,6.79c-2.62,6.16-1.83,11.77,0.51,18.01c3.44,9.21,5.6,18.9,8.16,28.42
		c0.31,1.16-0.24,2.56-0.19,2.07c-4.44-10.41-9.1-22.01-14.32-33.36c-4.23-9.2,0.76-15.63,5.37-22.38
		C377.75,363.57,378.41,363.71,379.07,363.86z"/>
	<path d="M324.21,410.67c2.21,15.48-1.21,30.08-7.34,44.29c1.96-13.64,3.91-27.29,5.87-40.93c-0.68-0.26-1.35-0.53-2.03-0.79
		c-1.02,1.49-2.04,2.98-3.05,4.47c-0.53-0.49-1.07-0.99-1.6-1.48c2.02-2.3,4.05-4.6,6.07-6.9
		C322.83,409.78,323.52,410.22,324.21,410.67z"/>
	<path d="M302.41,431.03c0.56-5.46,1.03-10.08,1.57-15.47c-2.43,1.68-4.05,2.8-5.68,3.93c-0.28-0.15-0.55-0.31-0.83-0.46
		c2.1-3.58,4.2-7.16,6.58-11.22C308.99,415.78,308.12,425.33,302.41,431.03z"/>
	<path d="M286.43,383.31c-9.97,1.29-12.74-0.18-13.95-6.96C277.67,377.13,282.8,377.33,286.43,383.31z"/>
	<path d="M290.77,391.29c-11.13,0.99-12.59,0.29-12.67-5.8C282.7,385.97,287.56,385.34,290.77,391.29z"/>
	<path d="M387.24,299.07c2.31-3.52,4.61-7.05,7.32-11.18c3.35,5.97,2.33,7.88-5.12,12.35C388.71,299.85,387.97,299.46,387.24,299.07
		z"/>
	<path d="M382.55,310.69c3.76-3.29,7.51-6.58,11.55-10.11C396,305.75,392.8,308.89,382.55,310.69z"/>
	<path d="M390.78,414.78c-0.64,6.22-1.28,12.44-1.93,18.66c-0.56-0.05-1.11-0.09-1.67-0.14c0.48-6.22,0.96-12.45,1.44-18.67
		C389.34,414.69,390.06,414.74,390.78,414.78z"/>
	<path d="M283.59,392.45c2.35,1.45,4.7,2.9,7.04,4.35c-1.15,0.93-2.67,2.86-3.39,2.6c-2.14-0.77-3.97-2.41-5.92-3.7
		C282.07,394.61,282.83,393.53,283.59,392.45z"/>
	<path d="M199.19,272.39c4.86-12.96,16.12-19.6,25.13-14.58C212.36,256.67,206.99,265.11,199.19,272.39z"/>
	<path d="M250.13,263.48c-6.98-1.78-13.91-3.54-20.59-5.24C234.32,254.16,248.14,257.35,250.13,263.48z"/>
	<path d="M402.65,381.66c-0.13,1.94,0.15,4.04-0.51,5.78c-0.53,1.42-2.11,3.29-3.34,3.39c-1.57,0.12-4.54-1.16-4.68-2.17
		c-0.87-6.01-1.16-12.11-1.32-18.19c0-0.16,4.92-1.25,5.43-0.48c2.29,3.41,3.81,7.34,5.61,11.09
		C403.44,381.27,403.04,381.47,402.65,381.66z"/>
</g>
</svg>
