<?xml version="1.0" encoding="utf-8"?>
<!-- Generator: Adobe Illustrator 24.3.0, SVG Export Plug-In . SVG Version: 6.00 Build 0)  -->
<svg version="1.1" id="Layer_1" xmlns="http://www.w3.org/2000/svg" xmlns:xlink="http://www.w3.org/1999/xlink" x="0px" y="0px"
	 viewBox="0 0 612 792" style="enable-background:new 0 0 612 792;" xml:space="preserve">
<style type="text/css">
	.st0{fill:#FFFFFF;}
</style>
<g>
	<path class="st0" d="M305.68,6.16c93.89,0,187.79,0,281.68,0c0,259.95,0,519.89,0,779.84c-187.79,0-375.58,0-563.36,0
		c0-259.95,0-519.89,0-779.84c93.02,0,186.05,0,279.07,0c-7.51,14.56-14.94,29.17-22.57,43.68c-5.3,10.06-26.97,17.79-37.44,13.22
		c-9.85-4.3-15.33-1.25-18.59,8.83c-4.14,12.82-24.05,20.6-36.19,14.8c-10.12-4.84-20.27-9.6-33.93-16.07
		c7.43,14.67,13.08,25.36,18.23,36.29c1.55,3.28,3.59,9.15,2.17,10.55c-8.83,8.7-9.54,24.56-25.15,27.69
		c-3.25,0.65-8.37,9.99-7.24,11.67c8.6,12.66-0.46,24.27-0.59,36.23c-0.1,9.38-5.01,12.44-13.01,14.62
		c-12.31,3.35-24.33,7.79-39.75,12.83c17.47,6.39,31.41,11.49,42.02,15.37c-1.91,14.09-4.2,25.71-4.89,37.42
		c-0.75,12.78-12.62,25.58-25.26,25.55c-12.21-0.03-24.83,10.45-27.07,23.78c-3.37,20.03-3.23,39.75,7.23,58.28
		c4.15,7.36,10.41,15.7,9.71,23.01c-0.65,6.76-9.32,12.74-14.46,19.07c-0.55,0.67-1.12,1.35-1.54,2.1
		c-8.27,14.75-16.52,29.51-25.07,44.8c8.21-5.57,16.24-11.02,24.26-16.46c0.94,0.82,1.87,1.63,2.81,2.45
		c-1.58,2.63-3.07,5.31-4.74,7.87c-8.13,12.48-20.35,23.98-23.53,37.6c-4.78,20.45-4.13,42.74,16.66,57.19
		c7.53,5.23,5.2,9.67-0.03,14.58c-8.94,8.4-12.26,16.95-2.91,27.85c4.03,4.69,5.22,11.73,8.32,17.35c1.53,2.77,4.4,6.69,6.8,6.78
		c15.56,0.61,20.38,12.68,26.89,23.37c2.74,4.5,6.63,8.3,10.63,13.19c-3.05,7.84-6.34,16.79-10,25.59
		c-6.77,16.25-6.32,17.97,9.93,28.62c7.14-12.39,14.46-24.59,21.3-37.05c8.72-15.87,6.21-29.48-7.91-43.2
		c-2.25,2.04-4.51,4.09-9.03,8.19c3.81-12.17,6.9-21.57,9.69-31.06c2.71-9.21-0.66-15.15-10.2-17.01
		c-7.61-1.48-15.3-2.57-22.95-3.84c3.79-3.35,7.8-4.25,11.78-5.24c14.39-3.59,19.58-15.3,11.08-27.46
		c-3.75-5.36-9.67-11.08-15.64-12.63c-12.5-3.23-19.09-11.12-20.18-22.47c-1.1-11.55,2.68-22.58,13.84-28.93
		c10.63-6.05,22.65-10.52,32.67-1.04c15.77,14.92,34.95,22.95,54.11,31.65c8.72,3.96,16.56,9.75,22.21-3.91
		c16.96,26.8,17.39,26.93,31.24,10.6c-6.62-10.8-13.7-21.15-19.54-32.16c-8.32-15.69-11.56-16.72-25.16-5.31
		c-6.91-3.91-14.97-6.75-20.72-12.08c-11.71-10.87-22.17-23.08-34.88-36.57c3.86-9.17,1.72-21.17-8.94-31.42
		c26.75-19.12,52.73-37.29,78.21-56.14c7.04-5.21,12.54-1.67,15.76,2.53c4.91,6.41,9.64,14.32,10.64,22.08
		c1.53,11.89,6.03,14.09,14.27,9.75c3.88,4.24,6.48,9.62,10.25,10.63c6.17,1.65,11.44,2.95,9.85,10.34
		c-1.58,7.37-3.89,14.84-7.63,21.23c-0.67,1.15-9.85-2.67-18.27-5.12c-1.25,4.76-5.98,12.63-3.79,17.17
		c2.4,4.98,11.33,9.76,17.16,9.47c10.36-0.52,20.53-4.92,31.07-7.78c7.65,62.15,15.66,127.12,23.66,192.08
		c0.71-0.03,1.42-0.06,2.13-0.09c6.17-61.72,12.35-123.43,18.48-184.72c7.61,0.43,14.33,0.85,21.05,1.17
		c8.53,0.4,16.94-1.68,17.83-11.05c0.56-5.89-3.85-12.25-5.58-17.12c-7.07,3.28-12.2,7.68-15.14,6.52
		c-3.75-1.47-6.5-7.12-8.35-11.52c-7.18-17.06,9.23-23.04,15.62-33.77c11.38,6.02,16.42,4.6,17.6-4.65
		c2.06-16.12,9.83-27.9,25.81-34.61c28.04,20,56.23,40.1,85.55,61.02c-18.17,8.59-19.37,22.78-14.85,37.09
		c-10.3,7.83-19.94,14.38-28.64,22.01c-9.25,8.1-17.61,17.23-26.28,25.82c-14.23-13.62-16.93-13.57-24.65-0.99
		c-7.41,12.07-14.4,24.39-21.58,36.6c17.78,17.98,20.64,14.19,25.96-2.91c0.82-2.63,2.78-4.9,2.63-4.64
		c6.9,1.71,13.88,5.81,17.01,3.83c17.36-10.99,40.11-11.93,54.04-29.21c2.92-3.62,7.05-6.34,10.9-9.1
		c9.62-6.9,20.02-6.04,29.41-0.45c12.33,7.33,14.08,20.78,13.94,33.21c-0.12,10.29-6.22,18.53-17.09,22.24
		c-5.18,1.77-11.88,3.78-14.31,7.83c-3.92,6.53-7.25,15.17-6.23,22.27c0.63,4.37,9.61,7.81,15.18,11.09
		c2.89,1.7,6.5,2.17,13.32,4.29c-10.9,1.8-17.64,2.77-24.32,4.04c-12.32,2.34-16.19,8.13-11.7,20.1
		c4.38,11.69,10.32,22.8,15.57,34.16l0.02-0.03c0.66,2.17,1.33,4.33,2.56,8.34c2.57-4.12,3.77-5.9,4.83-7.77
		c6.56-11.62,11.61-24.67,28.34-25.34c2.27-0.09,4.88-4.35,6.42-7.17c2.66-4.88,3.61-10.96,7.02-15.1
		c9.33-11.29,7.76-20.5-2.31-30.38c-2.28-2.24-2.68-10.34-0.59-12.48c20.23-20.71,26.17-47.09,13.18-71.83
		c-5.64-10.74-14.77-19.66-23.49-30.91c0.72-1.46,2.53-5.12,4.64-9.39c7.06,4.68,13.21,8.75,19.36,12.83
		c-9.83-17.33-20.75-32.92-32.63-47.76c-6.75-8.44-7.52-15.34-0.89-24.31c14.31-19.38,16.73-41.5,12.26-64.6
		c-2.74-14.18-14.1-24.77-26.16-24.99c-15.3-0.29-26.93-12.63-26.03-28.21c0.71-12.31-0.26-23.85-12.39-32.68
		c15.68-5.73,29.72-10.87,47.59-17.4c-16.27-5.28-28.89-9.25-41.4-13.52c-3.15-1.07-8.27-2.81-8.55-4.79
		c-1.88-13.7-2.48-27.57-4.01-41.32c-0.56-5.06-1.78-13.87-3.95-14.28c-12.3-2.32-14.78-13.45-21.57-20.68
		c-7.27-7.74-6.75-14.58-1.51-23.16c5.58-9.15,9.73-19.17,14.51-28.8c-12.33,3.29-22.09,8.03-31.85,12.75
		c-12.56,6.08-31.51-1.57-35.9-14.91c-3.29-9.98-8.85-12.98-18.72-8.6c-11.87,5.27-33.34-3.99-38.3-16.06
		C316.91,33.43,311.29,19.79,305.68,6.16z M112.35,736.49c-19.66,5.69-19.79,6.8-4.85,38.59c7.15-2.88,14.32-5.77,22.2-8.95
		C122.88,754.47,117.55,745.38,112.35,736.49z"/>
	<path d="M492.05,649.63c-5.25-11.36-11.18-22.47-15.57-34.16c-4.49-11.97-0.63-17.76,11.7-20.1c6.68-1.27,13.42-2.24,24.32-4.04
		c-6.81-2.12-10.43-2.59-13.32-4.29c-5.57-3.29-14.56-6.72-15.18-11.09c-1.02-7.09,2.31-15.74,6.23-22.27
		c2.43-4.05,9.13-6.06,14.31-7.83c10.87-3.71,16.97-11.95,17.09-22.24c0.14-12.43-1.61-25.88-13.94-33.21
		c-9.39-5.59-19.78-6.45-29.41,0.45c-3.85,2.76-7.98,5.48-10.9,9.1c-13.93,17.27-36.68,18.22-54.04,29.21
		c-3.13,1.98-10.12-2.12-17.01-3.83c0.15-0.25-1.81,2.02-2.63,4.64c-5.32,17.11-8.18,20.89-25.96,2.91
		c7.18-12.21,14.17-24.54,21.58-36.6c7.72-12.57,10.43-12.62,24.65,0.99c8.66-8.59,17.02-17.72,26.28-25.82
		c8.7-7.62,18.35-14.17,28.64-22.01c-4.52-14.31-3.33-28.5,14.85-37.09c-29.32-20.91-57.51-41.02-85.55-61.02
		c-15.97,6.71-23.74,18.49-25.81,34.61c-1.18,9.25-6.22,10.67-17.6,4.65c-6.39,10.74-22.81,16.71-15.62,33.77
		c1.85,4.4,4.6,10.05,8.35,11.52c2.94,1.16,8.07-3.24,15.14-6.52c1.73,4.87,6.14,11.23,5.58,17.12c-0.89,9.37-9.3,11.45-17.83,11.05
		c-6.73-0.32-13.45-0.74-21.05-1.17c-6.13,61.29-12.31,123-18.48,184.72c-0.71,0.03-1.42,0.06-2.13,0.09
		c-8-64.97-16-129.93-23.66-192.08c-10.54,2.86-20.71,7.26-31.07,7.78c-5.83,0.29-14.75-4.49-17.16-9.47
		c-2.19-4.53,2.54-12.41,3.79-17.17c8.42,2.45,17.6,6.27,18.27,5.12c3.74-6.4,6.05-13.87,7.63-21.23c1.59-7.4-3.68-8.69-9.85-10.34
		c-3.77-1.01-6.37-6.38-10.25-10.63c-8.24,4.34-12.75,2.14-14.27-9.75c-1-7.76-5.72-15.66-10.64-22.08
		c-3.22-4.2-8.71-7.74-15.76-2.53c-25.48,18.85-51.46,37.02-78.21,56.14c10.66,10.26,12.8,22.25,8.94,31.42
		c12.71,13.5,23.17,25.71,34.88,36.57c5.75,5.33,13.81,8.17,20.72,12.08c13.6-11.41,16.84-10.38,25.16,5.31
		c5.83,11.01,12.92,21.36,19.54,32.16c-13.85,16.32-14.28,16.2-31.24-10.6c-5.65,13.66-13.49,7.87-22.21,3.91
		c-19.16-8.71-38.34-16.73-54.11-31.65c-10.01-9.48-22.04-5.01-32.67,1.04c-11.16,6.35-14.94,17.38-13.84,28.93
		c1.09,11.35,7.68,19.24,20.18,22.47c5.97,1.54,11.89,7.26,15.64,12.63c8.5,12.16,3.32,23.88-11.08,27.46
		c-3.98,0.99-7.99,1.89-11.78,5.24c7.65,1.26,15.34,2.35,22.95,3.84c9.53,1.86,12.91,7.8,10.2,17.01
		c-2.79,9.49-5.88,18.89-9.69,31.06c4.52-4.1,6.78-6.15,9.03-8.19c14.11,13.72,16.62,27.33,7.91,43.2
		c-6.84,12.46-14.16,24.66-21.3,37.05c-16.25-10.65-16.71-12.37-9.93-28.62c3.66-8.79,6.95-17.74,10-25.59
		c-4-4.9-7.89-8.69-10.63-13.19c-6.51-10.7-11.33-22.77-26.89-23.37c-2.39-0.09-5.27-4.01-6.8-6.78c-3.1-5.63-4.29-12.66-8.32-17.35
		c-9.35-10.9-6.03-19.45,2.91-27.85c5.23-4.91,7.56-9.35,0.03-14.58c-20.78-14.45-21.44-36.75-16.66-57.19
		c3.18-13.62,15.4-25.12,23.53-37.6c1.67-2.56,3.16-5.25,4.74-7.87c-0.94-0.82-1.87-1.63-2.81-2.45
		c-8.03,5.45-16.05,10.89-24.26,16.46c8.55-15.29,16.8-30.05,25.07-44.8c0.42-0.75,0.99-1.42,1.54-2.1
		c5.13-6.33,13.81-12.32,14.46-19.07c0.7-7.32-5.55-15.65-9.71-23.01c-10.45-18.53-10.6-38.26-7.23-58.28
		c2.24-13.33,14.86-23.81,27.07-23.78c12.64,0.03,24.51-12.77,25.26-25.55c0.69-11.71,2.98-23.33,4.89-37.42
		c-10.61-3.88-24.55-8.98-42.02-15.37c15.42-5.05,27.44-9.49,39.75-12.83c8-2.18,12.91-5.24,13.01-14.62
		c0.13-11.96,9.18-23.57,0.59-36.23c-1.14-1.67,3.98-11.02,7.24-11.67c15.62-3.12,16.32-18.99,25.15-27.69
		c1.42-1.4-0.62-7.27-2.17-10.55c-5.15-10.93-10.8-21.62-18.23-36.29c13.66,6.46,23.81,11.23,33.93,16.07
		c12.14,5.8,32.04-1.98,36.19-14.8c3.26-10.09,8.74-13.13,18.59-8.83c10.46,4.57,32.14-3.15,37.44-13.22
		c7.63-14.5,15.05-29.11,22.57-43.68c0.87,0,1.74,0,2.61,0c5.61,13.64,11.23,27.27,16.83,40.91c4.96,12.07,26.42,21.32,38.3,16.06
		c9.87-4.38,15.43-1.37,18.72,8.6c4.39,13.34,23.34,20.99,35.9,14.91c9.76-4.72,19.51-9.46,31.85-12.75
		c-4.77,9.64-8.93,19.66-14.51,28.8c-5.23,8.58-5.75,15.42,1.51,23.16c6.79,7.23,9.27,18.36,21.57,20.68
		c2.18,0.41,3.39,9.23,3.95,14.28c1.53,13.76,2.13,27.62,4.01,41.32c0.27,1.97,5.4,3.71,8.55,4.79c12.51,4.27,25.12,8.24,41.4,13.52
		c-17.87,6.53-31.9,11.67-47.59,17.4c12.13,8.83,13.1,20.37,12.39,32.68c-0.9,15.57,10.73,27.92,26.03,28.21
		c12.06,0.23,23.42,10.81,26.16,24.99c4.47,23.11,2.05,45.23-12.26,64.6c-6.62,8.97-5.86,15.87,0.89,24.31
		c11.88,14.84,22.8,30.44,32.63,47.76c-6.15-4.07-12.3-8.15-19.36-12.83c-2.11,4.27-3.92,7.93-4.64,9.39
		c8.72,11.26,17.84,20.17,23.49,30.91c12.99,24.74,7.05,51.12-13.18,71.83c-2.08,2.13-1.69,10.24,0.59,12.48
		c10.07,9.88,11.64,19.09,2.31,30.38c-3.41,4.14-4.37,10.22-7.02,15.1c-1.54,2.83-4.15,7.08-6.42,7.17
		c-16.73,0.67-21.78,13.72-28.34,25.34c-1.06,1.87-2.26,3.65-4.83,7.77c-1.23-4.01-1.89-6.18-2.56-8.34
		c5.02-14.36,12.94-25.93,28.35-30.93c2.5-0.81,5.13-3.48,6.21-5.94c3.92-8.96,7.21-18.2,9.66-24.53
		c-5.77-10.41-10.69-18.93-15.27-27.64c-4.54-8.64-18.39-9.28-23.77-0.67c-2.43,3.9-3.88,8.41-5.96,13.08
		c6.86,2.44,13.44,4.18,19.38,7.17c2.54,1.28,5.86,5.86,5.23,7.76c-4.05,12.28-9.09,24.23-13.81,36.29
		c-0.98-0.35-1.96-0.71-2.94-1.06c-1.26-6.83-2.52-13.67-3.87-21c-4.56,0.96-8.18,1.73-11.72,2.48
		C486.5,620.21,489.28,634.92,492.05,649.63z M276.35,114.56c-12.4,5.9-23.11,11.01-34.38,16.38c8.38,17.54,15.87,33.21,24.99,52.29
		c-19.36-9.32-35.11-16.9-52.86-25.44c-5.91,15.29-11.11,28.75-16.57,42.89c18.82,7.61,35.27,14.41,54.41,11.1
		c18.57-3.21,25.7,4.03,25.69,23.15c0,10.39,0.67,20.78,1.27,31.16c0.14,2.48,0.56,5.39,1.97,7.25c4.39,5.79,9.32,11.18,13.97,16.65
		c1.68-3.99,4.04-9.58,7.25-17.22c3.4,8.82,5.96,15.44,8.74,22.66c2.38-6.88,2.79-15.91,6.7-17.83c9.46-4.64,8.63-11.85,8.82-19.42
		c0.21-8.67,1.38-17.58-0.11-25.98c-2.95-16.61,9.06-21.47,21.27-22.78c7.7-0.83,15.73,1.08,23.39,0.08
		c12.11-1.57,24.04-4.55,38.54-7.43c-6.93-16.78-12.55-30.39-18.44-44.68c-18.51,8.88-34.28,16.44-53.59,25.71
		c9.32-19.4,16.9-35.19,25.44-52.99c-11.89-5.33-22.96-10.29-35.38-15.86c-8.6,36.76-16.64,71.14-24.68,105.51
		c-0.89,0.01-1.79,0.03-2.68,0.04C292.34,185.37,284.56,150.93,276.35,114.56z M183.39,512.71c0.74-10.66-4.59-17.12-15.96-19.92
		c-2.77-0.68-4.82-5.62-6.57-8.93c-7.4-14.02-17.68-24-34.62-22.94c-11.19,0.7-22.45,2.22-33.37,4.73
		c-6.87,1.58-14.63,4.17-19.45,8.9c-18.46,18.09-24.22,67.12,0.78,82.51c2.93-4.64,5.84-9.26,8.75-13.88
		c-14.12-20.69-14.35-26.09-1.91-45.74c14.28-22.57,35.33-26.66,57.42-11.2C152.88,496.33,161.75,515.55,183.39,512.71z
		 M530.78,557.65c2.65-3.13,5.25-6,7.64-9.04c20.56-26.13,3.25-76.53-28.84-83.47c-7.98-1.73-16.24-2.32-24.39-3.13
		c-22.64-2.25-31.11,2.51-41.83,22.4c-1.92,3.57-4.88,8.43-8.1,9.1c-11.98,2.5-14.2,10.1-13.08,21.44
		c9.72-4.32,19.65-7.49,28.14-12.91c6.39-4.09,10.39-11.74,16.42-16.62c10.37-8.38,23.91-12.37,35.08-6.14
		c12.2,6.81,21.6,18.64,32.15,28.37c0.23,0.21-0.6,1.46-0.81,2.26c-3.08,11.49-6.14,22.99-9.72,36.44
		C524.85,548.54,527.85,553.15,530.78,557.65z M67.78,588.11c3.59,8.25,5.4,21.72,13.09,27.91c10.92,8.8,25.48,13.05,29.55,32.4
		c4.5-17.55,7.79-30.34,11.28-43.97c-5.26-0.76-8.85-1.27-13.27-1.91c-1.01,7.49-1.88,14.01-2.94,21.85
		c-2.33-1.81-4.7-2.73-5.39-4.36c-4.09-9.58-8.51-19.14-11.18-29.14c-0.8-3.01,2.72-8.82,5.87-10.87c5.4-3.5,12.06-5.05,18.23-7.42
		c-2.38-5.2-3.72-9.4-6.04-12.97c-5.28-8.11-18.46-7.84-23.07,0.22C78.74,568.87,73.6,577.9,67.78,588.11z M361.15,290.19
		c0-23.93-0.01-44.9,0.02-65.86c0-0.84,0.77-2.19,0.47-2.45c-2.93-2.45-5.83-6.33-9.1-6.72c-9.02-1.06-18.81,8.31-18.95,17.54
		c-0.21,14.25-0.2,28.52,0.33,42.76c0.22,5.93,1.59,11.93,3.38,17.61c0.42,1.34,4.61,1.49,7.07,2.19c-0.56-2.11-1.12-4.22-1.49-5.61
		c4.17,1.87,8.65,3.88,13.13,5.88c0.35-0.55,0.7-1.1,1.05-1.65c-3.01-3.32-6.02-6.64-9.03-9.97c0.4-0.33,0.8-0.65,1.2-0.98
		C351.96,284.61,354.7,286.27,361.15,290.19z M269.99,294.44c0-18.75-0.6-36.01,0.15-53.2c1-22.84-3.9-26.9-27.27-19.73
		c1.25,24.24,2.51,48.71,3.7,71.62C255.39,293.62,261.97,293.99,269.99,294.44z M393.84,294.18c0.87-20.5,2.39-40.99,2.37-61.49
		c-0.02-13.37-12.37-11.25-20.54-12.12c-1.8-0.19-5.96,8.58-6.6,13.54c-1.09,8.54,0.74,17.46-0.46,25.97
		C366.07,278.16,378.29,285.91,393.84,294.18z M408.5,228.41c-13.29,35.15-7.31,57.98,19.68,72.89c3.14-21.96,6.2-43.31,9.14-63.88
		C426.41,234.01,417.84,231.33,408.5,228.41z M158.8,241.65c-25.65,4.82-28.17,2.65-23.41,30.44c1.96,11.47,2.43,23.18,3.81,34.76
		c0.46,3.86,1.62,7.63,2.46,11.44c1.55,0.53,3.09,1.05,4.64,1.58c6.46-10.07,17.17-19.67,18.37-30.33
		C166.39,274.26,161.17,258.2,158.8,241.65z M176.4,302.1c28.08-18.63,31.43-30.71,19.99-69.27c-9.31,1.58-18.79,3.2-29.33,4.99
		C170.26,259.83,173.2,280.08,176.4,302.1z M446.29,240.26c-2,12.33-4.01,24.53-5.97,36.73c-3.15,19.71,3.51,31.98,22.92,40.9
		c1.55-15.81,2.21-31.41,4.78-46.69C472.08,247.14,472.44,246.95,446.29,240.26z M212.45,296.08
		c24.19-17.16,30.52-42.38,20.01-71.38c-6.22,1.16-12.58,1.95-18.68,3.67c-2.38,0.67-6.05,3.53-5.96,5.21
		C208.95,253.66,210.69,273.7,212.45,296.08z M282.13,378.5c-2.02,0.21-4.05,0.41-6.07,0.62c-1.3,16.06-2.19,32.16-4.03,48.16
		c-1.85,15.99-15.49,21.81-30.08,14.34c2.36,4.36,5.7,9.17,9.69,9.79c14.27,2.23,28.43-6.85,30.37-22.08
		C284.14,412.65,282.26,395.46,282.13,378.5z M328.16,378.8c-1.89,0.01-3.78,0.02-5.67,0.03c-0.38,16.2-2.28,32.55-0.71,48.56
		c1.58,16.04,16.73,26.23,31.61,24.33c7.55-0.96,8.8-2.98,7.18-11.61c-12.36,9.22-26.73,2.77-28.51-13.3
		C330.29,410.87,329.42,394.81,328.16,378.8z M101.47,431.41c10.16-6.05,14.04-43.75,8.06-67.68c-10.7,0.5-14.23,7.18-13.41,16.58
		C97.56,396.97,99.57,413.58,101.47,431.41z M494.38,364.01c-4.87,32.72-1.6,61.57,8.47,67.2c1.92-18.25,4.27-36.05,5.46-53.94
		C508.9,368.53,503.41,363.87,494.38,364.01z M487.66,419.77c-10.74,7.26-13.4,15.33-12.3,24.88c1.23,10.66,10.16,6.87,16.21,8.01
		c9.22,1.74,18.54,2.91,27.58,4.28c9.39-19.8,7.21-27.69-9.71-33.09c0.65,3.31,1.74,6.07,1.61,8.78
		c-0.28,5.67-0.07,11.87-2.43,16.69c-0.89,1.81-9.98,2.21-12.46,0.01c-3.71-3.29-5.4-9.29-6.97-14.43
		C487.98,430.94,488.27,426.53,487.66,419.77z M85.32,456.84c14.32-1.95,27.93-3.81,41.67-5.68c4.64-12.12,2.22-21.78-11.2-32.56
		c0,8.72,0.99,14.23-0.29,19.16c-1.15,4.41-3.98,9.35-7.6,11.83c-2.81,1.93-9.94,2.08-11.64,0.07c-2.84-3.37-3.59-9.06-3.87-13.85
		c-0.22-3.76,1.59-7.64,2.81-12.77C78.17,430.38,76.27,437.81,85.32,456.84z M195.11,327.84c0.43,1.65,0.87,3.31,1.3,4.96
		c11.06-1.85,22.1-3.81,33.18-5.53c14.04-2.18,15.77-4.92,12.08-19.88C221.41,303.96,209.42,318.4,195.11,327.84z M360.5,307.81
		c0.74,4.57,0.4,12.75,2.42,13.38c14.18,4.43,28.83,7.39,43.4,10.54c1.33,0.29,3.1-1.44,5.81-2.82
		C394.7,319.1,383.01,303.3,360.5,307.81z M339.88,320.96c-12.2,40.21-9.75,70.79,4.39,78.25
		C342.79,372.8,341.33,346.88,339.88,320.96z M264.67,320.98c-1.51,25.74-3.02,51.49-4.56,77.6
		C274.28,392.33,276.62,364.22,264.67,320.98z M117.88,380.12c14.95-12.17,14.72-41.11-0.18-58.75
		C108.88,341.99,123.36,361.15,117.88,380.12z M105.3,309.25c-13.97-0.95-20.42,3.45-21.66,14.4c-0.92,8.14-2.5,16.38-2,24.47
		c0.59,9.61,3.1,19.09,4.78,28.63c1.22-0.08,2.43-0.16,3.65-0.24C94.66,354.35,82.21,328.84,105.3,309.25z M486.79,380.42
		c-5.51-18.73,7.31-37.12,1.2-58.08C471.42,340.04,470.9,368.09,486.79,380.42z M499.54,309.96c23.12,19.08,9.67,45.26,15.8,68.83
		c11.73-19.78,6.95-39.53,5.11-58.46C519.73,312.87,511.95,306.71,499.54,309.96z M381.75,536.12
		c14.65-26.53,14.65-26.53,28.14-16.13c6.13-11.27,6.13-11.27-8.85-22.27C382.3,512.42,374.35,527.35,381.75,536.12z M194.67,520.1
		c14.28-11.53,15.36-11.14,23.29,7.37c1.27,2.97,3.2,5.67,5.15,9.06c6.32-10.36-0.85-23.66-19.59-38.79
		C187.93,508.88,187.93,508.88,194.67,520.1z M278.5,341.02c1.23,0.1,2.45,0.19,3.68,0.29c0-19.36,0-38.72,0-58.09
		c-1.23-0.02-2.45-0.04-3.68-0.05C278.5,302.45,278.5,321.73,278.5,341.02z M477.26,289.75c-1.34,16.03,18.15,39.78,32.21,40.42
		C498.69,316.63,489.03,304.52,477.26,289.75z M93.89,332.58c13.83-0.07,36.06-29.26,31.55-39.86c-5.52,6.3-11.14,12.24-16.19,18.62
		C104.04,317.92,99.38,324.94,93.89,332.58z M108.17,700.15c2.29,0.66,4.57,1.32,6.86,1.98c4.93-12.24,9.85-24.47,14.78-36.71
		c-2.1-0.85-4.19-1.71-6.29-2.56C118.4,675.28,113.29,687.72,108.17,700.15z M247.12,348.94c12.84-3.08,14.66-25.71,4.74-41.34
		C250.33,320.91,248.8,334.29,247.12,348.94z M137.26,348.77c5.44-7.82,9.62-13.84,13.72-19.72c-7.97-2.76-14.28-4.95-22.65-7.85
		C131.22,330.14,133.86,338.27,137.26,348.77z M357.24,348.13c-1.6-13.75-3.17-27.31-4.75-40.88
		C344.12,345.28,344.33,346.88,357.24,348.13z M326.16,342.88c0-19.08,0-36.39,0-54.12C318.89,299.53,318.32,331.14,326.16,342.88z
		 M110.96,357.5c-0.97-6.63-1.69-11.53-2.4-16.38c-4.98,0.65-8.56,1.12-12.77,1.68c0.8,5.52,1.51,10.4,2.26,15.51
		C102.71,358.02,106.05,357.81,110.96,357.5z M496.1,341.03c-1.01,5.47-1.93,10.43-3.02,16.36c5.26,0,9.28,0,13.7,0
		c0.71-5.36,1.32-9.97,1.94-14.66C504.36,342.14,501,341.69,496.1,341.03z M467.73,342.87c4.36-8.79,7.88-15.87,11.4-22.94
		c-0.94-0.38-1.88-0.76-2.82-1.15c-5.96,3.35-11.93,6.69-18.53,10.4C460.66,333.13,463.64,337.24,467.73,342.87z M255.58,365.08
		c-6.42,7.09-11.42,12.61-16.43,18.13c0.98,0.89,1.96,1.78,2.95,2.67C250.14,383.1,259.97,381.95,255.58,365.08z M349,364.76
		c-4.99,17.43,5.08,18.42,13.41,21.02c0.95-0.84,1.91-1.67,2.86-2.51C360.4,377.73,355.53,372.19,349,364.76z"/>
	<path d="M112.35,736.49c5.2,8.89,10.53,17.98,17.35,29.64c-7.89,3.18-15.05,6.07-22.2,8.95
		C92.56,743.29,92.69,742.18,112.35,736.49z M112.55,769.76c5.05-13.48,1.98-19.76-11.07-22.74
		C105.32,754.92,108.28,760.99,112.55,769.76z"/>
	<path class="st0" d="M276.35,114.56c8.22,36.37,15.99,70.81,23.77,105.25c0.89-0.01,1.79-0.03,2.68-0.04
		c8.04-34.38,16.08-68.75,24.68-105.51c12.43,5.57,23.49,10.53,35.38,15.86c-8.55,17.8-16.13,33.59-25.44,52.99
		c19.31-9.27,35.07-16.83,53.59-25.71c5.9,14.28,11.52,27.9,18.44,44.68c-14.51,2.88-26.43,5.86-38.54,7.43
		c-7.66,0.99-15.68-0.91-23.39-0.08c-12.21,1.32-24.22,6.17-21.27,22.78c1.49,8.41,0.32,17.31,0.11,25.98
		c-0.19,7.57,0.64,14.78-8.82,19.42c-3.91,1.91-4.32,10.95-6.7,17.83c-2.79-7.22-5.34-13.85-8.74-22.66
		c-3.22,7.64-5.57,13.23-7.25,17.22c-4.65-5.47-9.58-10.85-13.97-16.65c-1.41-1.86-1.83-4.78-1.97-7.25
		c-0.6-10.38-1.28-20.77-1.27-31.16c0.01-19.11-7.12-26.36-25.69-23.15c-19.14,3.31-35.59-3.49-54.41-11.1
		c5.46-14.14,10.67-27.6,16.57-42.89c17.75,8.54,33.5,16.13,52.86,25.44c-9.12-19.09-16.61-34.75-24.99-52.29
		C253.24,125.57,263.95,120.46,276.35,114.56z"/>
	<path class="st0" d="M183.39,512.71c-21.64,2.85-30.51-16.38-44.93-26.47c-22.09-15.45-43.14-11.37-57.42,11.2
		c-12.43,19.65-12.21,25.06,1.92,45.74c-2.91,4.62-5.83,9.24-8.75,13.88c-25-15.4-19.24-64.42-0.78-82.51
		c4.82-4.73,12.58-7.32,19.45-8.9c10.92-2.51,22.18-4.03,33.37-4.73c16.95-1.06,27.22,8.92,34.62,22.94
		c1.75,3.31,3.79,8.25,6.57,8.93C178.8,495.59,184.14,502.05,183.39,512.71z"/>
	<path class="st0" d="M530.78,557.65c-2.93-4.5-5.93-9.11-7.36-11.3c3.58-13.44,6.64-24.94,9.72-36.44c0.21-0.8,1.04-2.05,0.81-2.26
		c-10.54-9.73-19.95-21.56-32.15-28.37c-11.16-6.23-24.71-2.25-35.08,6.14c-6.03,4.88-10.02,12.53-16.42,16.62
		c-8.49,5.43-18.42,8.59-28.14,12.91c-1.12-11.34,1.1-18.94,13.08-21.44c3.23-0.67,6.18-5.54,8.1-9.1
		c10.72-19.89,19.19-24.65,41.83-22.4c8.16,0.81,16.41,1.4,24.39,3.13c32.09,6.94,49.4,57.34,28.84,83.47
		C536.03,551.65,533.43,554.52,530.78,557.65z"/>
	<path class="st0" d="M67.78,588.11c5.82-10.21,10.96-19.24,16.12-28.25c4.61-8.06,17.79-8.33,23.07-0.22
		c2.32,3.57,3.67,7.77,6.04,12.97c-6.16,2.38-12.83,3.92-18.23,7.42c-3.15,2.05-6.67,7.86-5.87,10.87
		c2.67,10,7.09,19.56,11.18,29.14c0.7,1.63,3.07,2.54,5.39,4.36c1.05-7.85,1.93-14.36,2.94-21.85c4.43,0.64,8.01,1.15,13.27,1.91
		c-3.5,13.63-6.78,26.41-11.28,43.97c-4.07-19.35-18.63-23.6-29.55-32.4C73.18,609.83,71.36,596.37,67.78,588.11z"/>
	<path class="st0" d="M361.15,290.19c-6.45-3.92-9.19-5.58-11.93-7.24c-0.4,0.33-0.8,0.65-1.2,0.98c3.01,3.32,6.02,6.64,9.03,9.97
		c-0.35,0.55-0.7,1.1-1.05,1.65c-4.48-2.01-8.96-4.01-13.13-5.88c0.37,1.39,0.93,3.5,1.49,5.61c-2.46-0.7-6.65-0.85-7.07-2.19
		c-1.78-5.67-3.16-11.68-3.38-17.61c-0.53-14.24-0.54-28.51-0.33-42.76c0.14-9.23,9.93-18.6,18.95-17.54
		c3.27,0.39,6.17,4.27,9.1,6.72c0.3,0.25-0.47,1.61-0.47,2.45C361.14,245.29,361.15,266.26,361.15,290.19z"/>
	<path class="st0" d="M269.99,294.44c-8.02-0.45-14.6-0.82-23.43-1.31c-1.18-22.91-2.45-47.37-3.7-71.62
		c23.37-7.17,28.27-3.12,27.27,19.73C269.39,258.44,269.99,275.69,269.99,294.44z"/>
	<path class="st0" d="M393.84,294.18c-15.56-8.27-27.77-16.02-25.23-34.1c1.2-8.51-0.63-17.43,0.46-25.97
		c0.63-4.96,4.8-13.73,6.6-13.54c8.17,0.87,20.52-1.25,20.54,12.12C396.24,253.19,394.71,273.68,393.84,294.18z"/>
	<path class="st0" d="M408.5,228.41c9.34,2.92,17.92,5.6,28.82,9.01c-2.94,20.57-6,41.92-9.14,63.88
		C401.18,286.39,395.2,263.56,408.5,228.41z"/>
	<path class="st0" d="M158.8,241.65c2.37,16.55,7.59,32.61,5.87,47.89c-1.2,10.67-11.91,20.26-18.37,30.33
		c-1.55-0.53-3.09-1.05-4.64-1.58c-0.84-3.81-2-7.59-2.46-11.44c-1.38-11.58-1.85-23.29-3.81-34.76
		C130.63,244.3,133.14,246.47,158.8,241.65z"/>
	<path class="st0" d="M176.4,302.1c-3.2-22.02-6.14-42.27-9.33-64.28c10.53-1.79,20.01-3.41,29.33-4.99
		C207.83,271.38,204.48,283.47,176.4,302.1z"/>
	<path class="st0" d="M446.29,240.26c26.15,6.69,25.79,6.88,21.74,30.94c-2.57,15.28-3.23,30.88-4.78,46.69
		c-19.41-8.92-26.07-21.19-22.92-40.9C442.27,264.78,444.29,252.59,446.29,240.26z"/>
	<path class="st0" d="M492.05,649.63c-2.77-14.71-5.54-29.42-8.48-45.02c3.54-0.75,7.16-1.51,11.72-2.48
		c1.35,7.33,2.61,14.17,3.87,21c0.98,0.35,1.96,0.71,2.94,1.06c4.72-12.06,9.76-24.01,13.81-36.29c0.63-1.9-2.7-6.48-5.23-7.76
		c-5.95-2.99-12.53-4.73-19.38-7.17c2.09-4.67,3.53-9.18,5.96-13.08c5.37-8.62,19.22-7.98,23.77,0.67
		c4.58,8.71,9.5,17.23,15.27,27.64c-2.45,6.33-5.74,15.57-9.66,24.53c-1.08,2.46-3.72,5.14-6.21,5.94
		c-15.41,5-23.33,16.57-28.35,30.93C492.07,649.6,492.05,649.63,492.05,649.63z M522.82,568.22c-6.24-3.97-9.83-7.47-13.98-8.37
		c-1.96-0.42-7.48,5.65-7.14,6.2c2.5,4.12,5.6,8.37,9.59,10.81C512.47,577.59,517.12,572.62,522.82,568.22z"/>
	<path class="st0" d="M212.45,296.08c-1.76-22.38-3.5-42.42-4.63-62.5c-0.1-1.68,3.57-4.54,5.96-5.21
		c6.1-1.72,12.47-2.51,18.68-3.67C242.97,253.7,236.64,278.92,212.45,296.08z"/>
	<path class="st0" d="M282.13,378.5c0.13,16.96,2.01,34.15-0.12,50.83c-1.95,15.23-16.1,24.31-30.37,22.08
		c-3.99-0.62-7.33-5.43-9.69-9.79c14.59,7.47,28.23,1.65,30.08-14.34c1.85-15.99,2.73-32.1,4.03-48.16
		C278.08,378.91,280.1,378.71,282.13,378.5z"/>
	<path class="st0" d="M328.16,378.8c1.26,16.01,2.13,32.06,3.89,48.02c1.78,16.07,16.15,22.52,28.51,13.3
		c1.61,8.63,0.37,10.65-7.18,11.61c-14.88,1.9-30.03-8.29-31.61-24.33c-1.57-16.01,0.33-32.36,0.71-48.56
		C324.38,378.82,326.27,378.81,328.16,378.8z"/>
	<path class="st0" d="M101.47,431.41c-1.9-17.83-3.91-34.44-5.35-51.09c-0.82-9.4,2.72-16.09,13.41-16.58
		C115.51,387.66,111.63,425.36,101.47,431.41z"/>
	<path class="st0" d="M494.38,364.01c9.03-0.14,14.51,4.52,13.93,13.26c-1.19,17.88-3.54,35.69-5.46,53.94
		C492.78,425.58,489.51,396.73,494.38,364.01z"/>
	<path class="st0" d="M487.66,419.77c0.6,6.76,0.31,11.17,1.52,15.12c1.57,5.14,3.26,11.14,6.97,14.43
		c2.48,2.2,11.57,1.8,12.46-0.01c2.37-4.82,2.16-11.01,2.43-16.69c0.13-2.7-0.96-5.47-1.61-8.78c16.92,5.4,19.11,13.29,9.71,33.09
		c-9.04-1.37-18.36-2.55-27.58-4.28c-6.05-1.14-14.99,2.65-16.21-8.01C474.27,435.1,476.92,427.04,487.66,419.77z"/>
	<path class="st0" d="M85.32,456.84c-9.05-19.04-7.15-26.47,9.88-33.8c-1.22,5.13-3.03,9.01-2.81,12.77
		c0.28,4.79,1.03,10.48,3.87,13.85c1.7,2.02,8.83,1.86,11.64-0.07c3.62-2.48,6.45-7.42,7.6-11.83c1.28-4.93,0.29-10.44,0.29-19.16
		c13.41,10.78,15.83,20.44,11.2,32.56C113.25,453.03,99.64,454.89,85.32,456.84z"/>
	<path class="st0" d="M195.11,327.84c14.31-9.44,26.3-23.87,46.56-20.45c3.69,14.96,1.96,17.7-12.08,19.88
		c-11.08,1.72-22.12,3.68-33.18,5.53C195.98,331.14,195.54,329.49,195.11,327.84z"/>
	<path class="st0" d="M360.5,307.81c22.51-4.51,34.21,11.29,51.62,21.1c-2.71,1.37-4.47,3.11-5.81,2.82
		c-14.56-3.14-29.22-6.1-43.4-10.54C360.9,320.56,361.23,312.38,360.5,307.81z"/>
	<path class="st0" d="M339.88,320.96c1.46,25.92,2.91,51.84,4.39,78.25C330.12,391.75,327.67,361.17,339.88,320.96z"/>
	<path class="st0" d="M264.67,320.98c11.95,43.24,9.6,71.35-4.56,77.6C261.65,372.47,263.16,346.72,264.67,320.98z"/>
	<path class="st0" d="M117.88,380.12c5.47-18.97-9.01-38.13-0.18-58.75C132.61,339.01,132.83,367.95,117.88,380.12z"/>
	<path class="st0" d="M105.3,309.25c-23.08,19.58-10.64,45.1-15.23,67.27c-1.22,0.08-2.43,0.16-3.65,0.24
		c-1.68-9.54-4.19-19.03-4.78-28.63c-0.5-8.09,1.08-16.33,2-24.47C84.88,312.7,91.33,308.3,105.3,309.25z"/>
	<path class="st0" d="M486.79,380.42c-15.89-12.33-15.37-40.38,1.2-58.08C494.1,343.29,481.28,361.69,486.79,380.42z"/>
	<path class="st0" d="M499.54,309.96c12.41-3.25,20.19,2.91,20.91,10.37c1.84,18.93,6.62,38.68-5.11,58.46
		C509.22,355.22,522.66,329.04,499.54,309.96z"/>
	<path class="st0" d="M381.75,536.12c-7.39-8.77,0.56-23.7,19.29-38.4c14.98,11,14.98,11,8.85,22.27
		C396.4,509.59,396.4,509.59,381.75,536.12z"/>
	<path class="st0" d="M194.67,520.1c-6.73-11.22-6.73-11.22,8.85-22.36c18.74,15.14,25.91,28.43,19.59,38.79
		c-1.95-3.39-3.88-6.08-5.15-9.06C210.03,508.96,208.94,508.57,194.67,520.1z"/>
	<path class="st0" d="M278.5,341.02c0-19.28,0-38.57,0-57.85c1.23,0.02,2.45,0.04,3.68,0.05c0,19.36,0,38.72,0,58.09
		C280.95,341.21,279.72,341.11,278.5,341.02z"/>
	<path class="st0" d="M477.26,289.75c11.77,14.77,21.42,26.88,32.21,40.42C495.41,329.53,475.92,305.78,477.26,289.75z"/>
	<path class="st0" d="M93.89,332.58c5.49-7.64,10.15-14.66,15.36-21.24c5.05-6.38,10.67-12.31,16.19-18.62
		C129.95,303.32,107.72,332.51,93.89,332.58z"/>
	<path class="st0" d="M108.17,700.15c5.12-12.43,10.23-24.86,15.35-37.29c2.1,0.85,4.19,1.71,6.29,2.56
		c-4.93,12.24-9.85,24.47-14.78,36.71C112.74,701.47,110.46,700.81,108.17,700.15z"/>
	<path class="st0" d="M247.12,348.94c1.68-14.65,3.21-28.03,4.74-41.34C261.78,323.23,259.96,345.86,247.12,348.94z"/>
	<path class="st0" d="M137.26,348.77c-3.4-10.5-6.04-18.63-8.94-27.58c8.38,2.9,14.68,5.09,22.65,7.85
		C146.88,334.94,142.7,340.95,137.26,348.77z"/>
	<path class="st0" d="M357.24,348.13c-12.91-1.25-13.12-2.85-4.75-40.88C354.07,320.81,355.64,334.38,357.24,348.13z"/>
	<path class="st0" d="M326.16,342.88c-7.84-11.74-7.27-43.35,0-54.12C326.16,306.49,326.16,323.8,326.16,342.88z"/>
	<path class="st0" d="M110.96,357.5c-4.9,0.31-8.24,0.51-12.91,0.81c-0.74-5.11-1.45-9.99-2.26-15.51
		c4.21-0.55,7.79-1.02,12.77-1.68C109.27,345.98,109.98,350.87,110.96,357.5z"/>
	<path class="st0" d="M496.1,341.03c4.9,0.66,8.26,1.11,12.62,1.7c-0.62,4.68-1.23,9.3-1.94,14.66c-4.42,0-8.44,0-13.7,0
		C494.18,351.46,495.1,346.5,496.1,341.03z"/>
	<path class="st0" d="M467.73,342.87c-4.09-5.63-7.08-9.74-9.95-13.69c6.6-3.7,12.56-7.05,18.53-10.4c0.94,0.38,1.88,0.76,2.82,1.15
		C475.61,327,472.1,334.08,467.73,342.87z"/>
	<path class="st0" d="M255.58,365.08c4.39,16.87-5.44,18.02-13.48,20.8c-0.98-0.89-1.96-1.78-2.95-2.67
		C244.16,377.7,249.16,372.17,255.58,365.08z"/>
	<path class="st0" d="M349,364.76c6.53,7.43,11.4,12.97,16.28,18.51c-0.95,0.84-1.91,1.67-2.86,2.51
		C354.08,383.18,344,382.19,349,364.76z"/>
	<path class="st0" d="M112.55,769.76c-4.27-8.77-7.23-14.84-11.07-22.74C114.53,750,117.6,756.28,112.55,769.76z"/>
	<path d="M522.82,568.22c-5.69,4.4-10.34,9.37-11.52,8.65c-3.99-2.43-7.09-6.68-9.59-10.81c-0.34-0.56,5.18-6.63,7.14-6.2
		C512.99,560.76,516.58,564.25,522.82,568.22z"/>
</g>
</svg>
