<?xml version="1.0" encoding="utf-8"?>
<!-- Generator: Adobe Illustrator 24.3.0, SVG Export Plug-In . SVG Version: 6.00 Build 0)  -->
<svg version="1.1" id="Layer_1" xmlns="http://www.w3.org/2000/svg" xmlns:xlink="http://www.w3.org/1999/xlink" x="0px" y="0px"
	 viewBox="0 0 612 792" style="enable-background:new 0 0 612 792;" xml:space="preserve">
<style type="text/css">
	.st0{fill:#FFFFFF;}
</style>
<g>
	<path class="st0" d="M597,684.28c-194,0-388,0-582,0c0-192.03,0-384.07,0-576.1c194,0,388,0,582,0
		C597,300.21,597,492.25,597,684.28z M273.51,370.76c1.75,7.16,1.82,14.65,5.26,19.94c5.78,8.88,12.61,17.81,20.95,24.13
		c17.26,13.07,35.81,24.43,54.13,36.7c-1.43,0.19-3.21,0.66-4.98,0.64c-16.97-0.25-30.59,4.91-36.89,22.31
		c-0.66,1.83-1.75,3.52-2.69,5.23c-4.59,8.33-3.55,10.91,5.35,14.42c7.13,2.81,14.14,5.94,21.83,9.19
		c-2.27,4.07-3.81,6.54-5.08,9.14c-2.15,4.41-4.14,8.9-6.19,13.35c5.02,0.48,10.03,1.16,15.07,1.38c5.57,0.24,11.16,0.06,16.74,0.06
		c-0.06,1.17-0.11,2.34-0.17,3.51c-14.46,0.68-28.92,1.35-44.96,2.11c6.49-10.7,11.97-19.72,17.95-29.58
		c-12.25-4.77-24.53-9.55-36.88-14.35c3.07-5.35,6.09-10.69,9.19-15.99c3.24-5.53,6.55-11.01,10.84-18.2
		c-4.78-0.28-8.19-1.08-11.36-0.54c-9.03,1.54-17.91,3.96-26.94,5.44c-21.29,3.5-29.81,12.32-33.53,35.91
		c-1.14,7.22-1.77,14.52-2.63,21.78c-1.1-0.06-2.21-0.11-3.31-0.17c0.53-8.43,0.38-16.98,1.76-25.27c1.91-11.44,1.86-12.72-10-12.16
		c-17.62,0.83-35.2,2.76-52.78,4.32c-4.43,0.39-8.83,1.18-13.29,1.8c2.04,10.68,2.04,10.68-2.03,20.66
		c-2.75,6.74,1.42,15.86,9.02,16.53c6.47,0.57,8.86,4.15,11.67,8.59c3.14,4.97,6.17,10.15,10.09,14.47
		c4.06,4.48,3.63,8.12,0.94,13.04c-7.45,13.66-14.41,27.58-21.56,41.41c0.51,0.63,1.02,1.27,1.53,1.9
		c8.95-4.28,18.47-7.68,26.72-13.04c14.67-9.54,27.93-12.08,41.6,1.76c3.41,3.45,6.73,5.39,7.44,11.12
		c1.04,8.46,11.34,13.51,18.02,8.74c5.84-4.17,10.54-3.11,16.33-1.44c6.58,1.89,13.35,3.42,20.14,4.15
		c6.04,0.65,9.16,3.13,10.93,9.01c4.14,13.77,8.9,27.35,13.48,40.98c0.63,1.88,1.69,3.61,3.54,7.45
		c5.16-15.14,10.27-27.9,13.77-41.09c2.83-10.67,7.26-17.2,19.47-17.23c6.36-0.02,12.69-2.96,19.09-4.27
		c2.46-0.51,5.37-0.91,7.61-0.09c15.85,5.75,15.81,5.22,24.55-8.2c4.42-6.78,11.53-11.86,17.63-17.48
		c9.55-8.79,16.1,1.65,23.54,4.36c9.18,3.34,17.71,8.42,26.58,12.63c1.77,0.84,3.81,1.12,7.6,2.19c-6-11.68-10.29-22.04-16.32-31.28
		c-8.06-12.36-9.52-22.9,2.01-34.22c5.32-5.22,7.54-12.57,16.79-14.47c6.75-1.39,10.5-9.31,6.15-15.84
		c-3.93-5.9-3.07-10.57-1.3-16.3c1.53-4.98,3.11-10.2,3.18-15.34c0.13-9.59,5.2-13.34,13.73-15.86c13.25-3.91,26.13-9.1,39.17-13.74
		c-10.8-5.72-21.25-9.38-31.88-12.44c-11.09-3.19-22.62-5.53-21.09-21.17c0.04-0.44-0.77-0.97-1.6-1.94
		c-29.14,8.74-59.83,14.89-84.87,33.57c-14.26,10.63-28.58,6.72-44.26,7.8c3.27-4.25,6.08-6.98,7.79-10.28
		c5.57-10.74,10.4-21.87,16.15-32.5c6.76-12.48,12.34-26.33,21.77-36.48c15.07-16.22,32.75-30.05,49.6-44.57
		c9.67-8.33,19.87-16.04,27.63-22.27c-29.46,39.06-60.4,80.11-91.35,121.15c0.85,1.04,1.7,2.08,2.55,3.13
		c32.54-4.2,62.63-17.88,95.18-25.11c-1.28-5.42-3.33-9.85-3.08-14.16c0.26-4.47,3.45-8.7,4.1-13.22
		c1.08-7.56-2.86-12.16-10.16-14.55c-3.31-1.08-7.16-2.92-9.01-5.62c-9.31-13.53-9.12-13.67,0.58-27.12
		c1.15-1.59,2.49-3.04,3.62-4.63c8.44-11.87,16.86-23.75,25.29-35.63c-0.49-0.36-0.97-0.73-1.46-1.09
		c-11.24,8.12-22.48,16.25-33.72,24.37c-0.5-0.38-1-0.75-1.49-1.13c4.1-8.19,8.2-16.38,12.3-24.57c-0.57-0.55-1.15-1.1-1.72-1.64
		c-12.67,6.03-25.33,12.06-40.51,19.29c7.05-14.51,12.62-26.55,18.71-38.33c8.84-17.08,18.22-33.89,26.92-51.04
		c1.21-2.38,0.69-6.69-0.78-8.97c-0.86-1.34-5.46-1.22-7.93-0.42c-37.95,12.41-76.8,15.42-116.32,11.33
		c-8.89-0.92-15.44,1.41-18.84,10.24c-0.66,1.72-2,3.18-3.54,5.54c-2.82-6.31-5.24-11.72-8.32-18.63
		c-7.15,12.87-13.48,24.27-19.81,35.67c-4.69,8.46-13.75,11.67-22.39,7.29c-53.4-27.09-106.73-54.3-160.03-81.59
		c-2.05-1.05-4.86-3.26-4.94-5.04c-0.37-7.85-5.99-9.43-11.76-11.02c-12.24-3.38-23.11-8.79-31.42-18.89
		c-6.23-7.57-10.54-7.4-15.97,0.8c-8.85,13.35-13.41,28.25-13.9,44.32c-0.54,17.46,1.51,20.21,18.4,25.68
		c16.47,5.34,32.91,10.79,49.34,16.26c6.92,2.3,13.49,3.68,16.95-5.13c38.14,17.61,75.45,34.84,112.92,52.14
		c-1.68,4.21-2.66,6.9-3.81,9.5c-1.23,2.78-1.9,6.44-4.06,8.09c-20.52,15.7-20.6,15.6-44.23,4.1c-3.24-1.58-6.45-3.21-9.72-4.7
		c-4.78-2.18-9.61-4.25-16.87-7.45c7.5,14.67,13.88,26.45,19.53,38.57c2.1,4.51,2.48,9.82,3.65,14.76
		C214.32,362.4,246.35,361.99,273.51,370.76z M104.52,442.72c-0.01,0.76-0.02,1.53-0.02,2.29c11.85,4.25,23.54,9.07,35.6,12.59
		c10.79,3.15,19.26,7.4,18.87,20.44c-0.01,0.46,0.79,0.94,2.94,3.34c32.99-7.85,67.15-15.99,103.3-24.6
		c-3.09-2.79-3.93-3.7-4.92-4.42c-18.22-13.3-40.3-16.51-61.04-23.21c-27.57-8.91-55.21-17.61-82.8-26.47
		c-1.21-0.39-2.21-1.45-3.54-2.35c56.21-2.04,110.22,8.36,164.73,22.66c-5.26-12.84-83.69-81.14-97.04-85.7
		c5.57,9-0.57,22.69-11.01,24.56c-10.59,1.9-14.89,11.32-9.32,20.4c5.34,8.7,3.66,11.73-6.64,12.17c-19.8,0.85-39.6,1.75-59.4,2.62
		c-0.09,0.52-0.18,1.04-0.27,1.56c20.84,8.04,41.67,16.07,62.51,24.11c-0.18,1.06-0.37,2.13-0.55,3.19
		C138.78,431.5,121.65,437.11,104.52,442.72z"/>
	<path d="M273.51,370.76c-27.16-8.77-59.19-8.36-79.35-33.54c-1.17-4.94-1.55-10.25-3.65-14.76c-5.65-12.12-12.03-23.9-19.53-38.57
		c7.26,3.2,12.09,5.27,16.87,7.45c3.27,1.49,6.49,3.12,9.72,4.7c23.63,11.5,23.71,11.6,44.23-4.1c2.16-1.65,2.83-5.31,4.06-8.09
		c1.15-2.61,2.13-5.29,3.81-9.5c-37.47-17.3-74.78-34.53-112.92-52.14c-3.46,8.81-10.03,7.44-16.95,5.13
		c-16.43-5.47-32.86-10.92-49.34-16.26c-16.88-5.47-18.94-8.22-18.4-25.68c0.5-16.07,5.05-30.96,13.9-44.32
		c5.44-8.2,9.75-8.37,15.97-0.8c8.31,10.1,19.18,15.51,31.42,18.89c5.77,1.59,11.39,3.17,11.76,11.02c0.08,1.78,2.89,3.99,4.94,5.04
		c53.29,27.29,106.63,54.5,160.03,81.59c8.64,4.38,17.69,1.17,22.39-7.29c6.33-11.4,12.66-22.8,19.81-35.67
		c3.09,6.9,5.5,12.31,8.32,18.63c1.54-2.36,2.88-3.82,3.54-5.54c3.4-8.83,9.95-11.16,18.84-10.24
		c39.52,4.09,78.37,1.07,116.32-11.33c2.48-0.81,7.07-0.92,7.93,0.42c1.47,2.28,1.98,6.59,0.78,8.97
		c-8.69,17.16-18.08,33.96-26.92,51.04c-6.09,11.77-11.65,23.82-18.71,38.33c15.17-7.23,27.84-13.26,40.51-19.29
		c0.57,0.55,1.15,1.1,1.72,1.64c-4.1,8.19-8.2,16.38-12.3,24.57c0.5,0.38,1,0.75,1.49,1.13c11.24-8.12,22.48-16.25,33.72-24.37
		c0.49,0.36,0.97,0.73,1.46,1.09c-8.42,11.88-16.84,23.77-25.29,35.63c-1.14,1.6-2.48,3.04-3.62,4.63
		c-9.7,13.45-9.89,13.59-0.58,27.12c1.86,2.7,5.7,4.54,9.01,5.62c7.3,2.38,11.24,6.98,10.16,14.55c-0.64,4.52-3.84,8.75-4.1,13.22
		c-0.25,4.3,1.8,8.74,3.08,14.16c-32.54,7.24-62.63,20.91-95.18,25.11c-0.85-1.04-1.7-2.08-2.55-3.13
		c30.95-41.04,61.9-82.09,91.35-121.15c-7.76,6.22-17.96,13.93-27.63,22.27c-16.85,14.52-34.54,28.35-49.6,44.57
		c-9.43,10.15-15.01,24-21.77,36.48c-5.76,10.63-10.58,21.76-16.15,32.5c-1.71,3.3-4.52,6.03-7.79,10.28
		c15.68-1.08,30,2.84,44.26-7.8c25.04-18.68,55.74-24.83,84.87-33.57c0.82,0.97,1.64,1.5,1.6,1.94c-1.53,15.64,10,17.97,21.09,21.17
		c10.63,3.06,21.08,6.72,31.88,12.44c-13.04,4.64-25.92,9.83-39.17,13.74c-8.53,2.52-13.6,6.28-13.73,15.86
		c-0.07,5.13-1.65,10.35-3.18,15.34c-1.76,5.73-2.63,10.4,1.3,16.3c4.35,6.52,0.59,14.45-6.15,15.84
		c-9.25,1.91-11.48,9.26-16.79,14.47c-11.53,11.32-10.07,21.86-2.01,34.22c6.02,9.24,10.32,19.6,16.32,31.28
		c-3.79-1.07-5.82-1.35-7.6-2.19c-8.87-4.21-17.41-9.3-26.58-12.63c-7.44-2.7-13.99-13.15-23.54-4.36
		c-6.1,5.62-13.22,10.7-17.63,17.48c-8.74,13.42-8.7,13.95-24.55,8.2c-2.25-0.81-5.15-0.41-7.61,0.09
		c-6.4,1.32-12.73,4.25-19.09,4.27c-12.21,0.03-16.64,6.56-19.47,17.23c-3.5,13.19-8.61,25.95-13.77,41.09
		c-1.84-3.84-2.91-5.57-3.54-7.45c-4.58-13.63-9.34-27.21-13.48-40.98c-1.77-5.88-4.9-8.36-10.93-9.01
		c-6.79-0.73-13.56-2.26-20.14-4.15c-5.8-1.66-10.49-2.73-16.33,1.44c-6.68,4.77-16.98-0.29-18.02-8.74
		c-0.71-5.73-4.03-7.67-7.44-11.12c-13.67-13.84-26.93-11.3-41.6-1.76c-8.25,5.36-17.77,8.76-26.72,13.04
		c-0.51-0.63-1.02-1.27-1.53-1.9c7.15-13.82,14.1-27.75,21.56-41.41c2.69-4.92,3.11-8.56-0.94-13.04
		c-3.92-4.33-6.94-9.5-10.09-14.47c-2.81-4.44-5.2-8.02-11.67-8.59c-7.6-0.67-11.77-9.79-9.02-16.53c4.07-9.98,4.07-9.98,2.03-20.66
		c4.46-0.61,8.86-1.4,13.29-1.8c17.59-1.56,35.16-3.49,52.78-4.32c11.87-0.56,11.92,0.72,10,12.16c-1.39,8.29-1.23,16.84-1.76,25.27
		c1.1,0.06,2.21,0.11,3.31,0.17c0.86-7.26,1.49-14.56,2.63-21.78c3.73-23.59,12.25-32.41,33.53-35.91
		c9.04-1.49,17.92-3.9,26.94-5.44c3.17-0.54,6.58,0.27,11.36,0.54c-4.29,7.19-7.61,12.67-10.84,18.2c-3.1,5.3-6.13,10.65-9.19,15.99
		c12.36,4.81,24.63,9.59,36.88,14.35c-5.99,9.86-11.46,18.88-17.95,29.58c16.04-0.75,30.5-1.43,44.96-2.11
		c0.06-1.17,0.11-2.34,0.17-3.51c-5.58,0-11.17,0.19-16.74-0.06c-5.03-0.22-10.04-0.9-15.07-1.38c2.06-4.45,4.04-8.94,6.19-13.35
		c1.27-2.6,2.8-5.08,5.08-9.14c-7.69-3.25-14.69-6.38-21.83-9.19c-8.89-3.51-9.93-6.09-5.35-14.42c0.95-1.72,2.03-3.4,2.69-5.23
		c6.3-17.4,19.93-22.56,36.89-22.31c1.77,0.03,3.54-0.44,4.98-0.64c-18.33-12.27-36.88-23.63-54.13-36.7
		c-8.35-6.32-15.18-15.25-20.95-24.13C275.33,385.41,275.26,377.92,273.51,370.76z M361.66,442.71c0.54,0.57,1.08,1.13,1.62,1.7
		c3.56-3.09,8.54-5.48,10.46-9.37c35.16-71.23,69.96-142.64,104.73-214.06c1.02-2.09,0.83-4.75,1.21-7.15
		c-2.67,0.29-5.52,0.06-7.97,0.96c-7.94,2.92-15.53,6.98-23.63,9.27c-24.66,6.97-49.93,5-75.04,3.66
		c-15.58-0.83-16.33-0.91-23.08,13.21c-20.46,42.75-40.83,85.55-61.37,128.26c-4.38,9.11-4.33,17.64,1.85,25.79
		c17.18,22.65,41.03,35.95,66.39,47.07C358.27,442.66,360.05,442.5,361.66,442.71z M361.47,547.89c-1.17-1.38-3.06-2.67-3.57-4.37
		c-2.4-7.95-7.26-8.41-14.9-7.6c-12.12,1.3-24.48,0.35-38.77,0.35c6.3-11.43,11.34-20.59,17.01-30.88
		c-13.47-4.83-25.34-9.09-39.1-14.02c6.99-11.06,13.74-21.75,21.19-33.54c-9.92,2.43-18.97,5.03-28.17,6.83
		c-22.11,4.34-26.51,21.4-27.07,40.62c-0.38,13.03-0.95,26.07-0.6,39.09c0.14,5.07,1.43,10.85,4.2,14.95
		c5.45,8.06,11.48,16.13,18.77,22.45c11.95,10.36,23.61,21.92,41.87,20.38c27.36-2.31,54.79-3.83,82.18-5.82
		c12.44-0.9,15.04-4.93,15.73-17.53c0.75-13.59,1.76-27.47,5.23-40.54c3.76-14.18,1.95-26.21-5.66-38.3
		c-3.2-5.08-5.07-11.06-7.13-16.78c-1.87-5.19-3.46-10.51-4.66-15.89c-1.55-6.95-5.97-8.39-12.35-8.03
		c-17.62,1-35.26,1.54-52.88,2.53c-2.67,0.15-6.46,0.93-7.67,2.77c-4.22,6.42-7.53,13.44-11.74,21.28
		c10.12,5.53,19.97,10.91,30.65,16.75c-3.2,5.82-6.42,11.69-10.2,18.57c7.01,0,13.42,0.53,19.69-0.14c7.03-0.76,8.51,2.26,8.06,8.44
		C361.13,535.41,361.47,541.42,361.47,547.89z M72.15,142.62c-7.75,11.65-13.53,25.6-15.08,41.66
		c-0.99,10.27,2.42,16.38,11.67,19.63c16.89,5.92,33.85,11.64,50.76,17.5c7.1,2.46,9.02-0.38,7.65-7.07
		c-3.01-14.68-5.7-29.43-9.16-44c-0.65-2.74-3.87-5.51-6.59-7.01C99,156.46,86.35,150.05,72.15,142.62z M405.62,452.61
		c5.63,19.28,10.36,35.44,15.08,51.61c1.03,0.25,2.05,0.49,3.08,0.74c5.58-13.05,11.15-26.11,17.09-40
		C428.38,460.58,418.37,457.08,405.62,452.61z M302.98,306.86c1.51,0.32,3.01,0.65,4.52,0.97c5.42-12.14,10.85-24.27,16.57-37.08
		c-6.24-3.22-11.55-6.32-17.18-8.65c-1.95-0.81-5.05-0.29-6.93,0.81c-0.82,0.47,0.07,3.95,0.26,6.05
		c0.91,10.07,1.88,20.13,2.73,30.2C303.16,301.71,302.98,304.29,302.98,306.86z M292.99,334.73c-4.66,1.71-6.84,2.33-8.86,3.29
		c-3.81,1.81-7.64,3.64-11.27,5.78c-8.68,5.12-8.43,12.86,0.6,17.96c2.11,1.19,4.62,1.69,7.29,2.63
		C284.75,354.69,288.42,345.81,292.99,334.73z M128.5,177.3c-1.34,0.6-2.68,1.21-4.02,1.81c2.72,9.16,4.83,18.57,8.45,27.36
		c1.54,3.75,6.25,6.2,9.51,9.23c-0.03-3.9,1.12-8.31-0.31-11.61C138.17,194.91,133.12,186.2,128.5,177.3z M431.84,392.15
		c-7.18,10.53-12.99,19.05-19.6,28.73c9.47-2.45,17.58-4.54,26.81-6.93C436.77,407.05,434.69,400.77,431.84,392.15z M302.01,290.01
		c-4.51-11.01-5.35-21.53-16.81-28.51C291.03,284.47,291.03,284.47,302.01,290.01z M182.21,205.9c-8-1.75-13.23-2.89-18.45-4.04
		c1.36,4.86,2.73,9.71,4.43,15.78C173.09,213.54,176.28,210.87,182.21,205.9z M141.72,186.77c3.62,8.29,6.1,13.98,9.03,20.7
		c3.56-3.57,6.44-6.45,10.05-10.07C154.7,194.01,149.45,191.08,141.72,186.77z M177.2,213.95c-2.45,4.29-5.74,7.94-5,9.16
		c2.4,4,6.28,7.11,9.58,10.56c0.95-0.81,1.9-1.61,2.86-2.42C182.53,226.36,180.43,221.46,177.2,213.95z M276.96,262.77
		c-2.74,5.16-6.15,10.1-5.53,10.68c3.09,2.87,7.25,4.59,11.04,6.72c0.43-0.65,0.85-1.3,1.28-1.95
		C281.93,274.08,280.11,269.94,276.96,262.77z M190.18,224.68c3.49-2.7,6.26-4.84,9.99-7.73c-5.79-2.59-10.69-4.78-15.6-6.98
		c-0.4,0.85-0.79,1.71-1.19,2.56C185.49,216.29,187.59,220.05,190.18,224.68z M254.34,258.51c3.57-2.74,6.66-5.11,9.75-7.47
		c-0.19-0.8-0.38-1.6-0.57-2.4c-4.61,0-9.22,0-15.88,0C250.98,253.55,252.52,255.83,254.34,258.51z M156.64,208.45
		c-3.4,4.08-5.6,6.72-8.46,10.16c5.85,2.22,10.07,3.82,16.64,6.32C161.55,218.34,159.58,214.38,156.64,208.45z M215.79,226.13
		c-0.12-1.05-0.24-2.1-0.36-3.15c-4.08-0.34-8.15-0.68-12.23-1.02c0.34,3.26,0.68,6.51,1.2,11.47
		C209.55,230.13,212.67,228.13,215.79,226.13z M232.88,232.9c-6.34-0.93-10.31-1.51-14.28-2.1c0.95,3.59,1.89,7.19,3.12,11.84
		C225.69,239.18,228.06,237.11,232.88,232.9z"/>
	<path d="M104.52,442.72c17.13-5.61,34.26-11.21,51.39-16.82c0.18-1.06,0.37-2.13,0.55-3.19c-20.84-8.04-41.67-16.07-62.51-24.11
		c0.09-0.52,0.18-1.04,0.27-1.56c19.8-0.88,39.6-1.78,59.4-2.62c10.3-0.44,11.98-3.47,6.64-12.17c-5.57-9.08-1.27-18.5,9.32-20.4
		c10.44-1.87,16.58-15.56,11.01-24.56c13.34,4.56,91.78,72.86,97.04,85.7c-54.51-14.3-108.51-24.7-164.73-22.66
		c1.33,0.9,2.33,1.96,3.54,2.35c27.59,8.86,55.23,17.56,82.8,26.47c20.73,6.7,42.82,9.91,61.04,23.21c0.98,0.72,1.83,1.63,4.92,4.42
		c-36.15,8.61-70.31,16.74-103.3,24.6c-2.15-2.4-2.95-2.88-2.94-3.34c0.38-13.03-8.08-17.29-18.87-20.44
		c-12.06-3.52-23.75-8.33-35.6-12.59C104.5,444.24,104.51,443.48,104.52,442.72z M259.23,413.2c0.17-0.41,0.34-0.81,0.51-1.22
		c-9.63-7.7-19.27-15.4-29.8-23.81c-2.31,5.9-4.04,10.29-6.16,15.7C236.32,407.17,247.78,410.18,259.23,413.2z"/>
	<path class="st0" d="M361.66,442.71c-1.62-0.21-3.39-0.04-4.82-0.67c-25.36-11.12-49.21-24.42-66.39-47.07
		c-6.18-8.14-6.23-16.67-1.85-25.79c20.54-42.71,40.91-85.51,61.37-128.26c6.76-14.12,7.5-14.04,23.08-13.21
		c25.11,1.34,50.38,3.31,75.04-3.66c8.1-2.29,15.68-6.36,23.63-9.27c2.44-0.9,5.3-0.67,7.97-0.96c-0.38,2.4-0.19,5.07-1.21,7.15
		c-34.77,71.42-69.58,142.83-104.73,214.06c-1.92,3.9-6.9,6.28-10.46,9.37C362.74,443.84,362.2,443.27,361.66,442.71z
		 M380.96,236.06c-3.41,8.78-6.81,17.56-10.55,27.21C381.24,258.87,386.22,247.46,380.96,236.06z"/>
	<path class="st0" d="M361.47,547.89c0-6.47-0.34-12.48,0.09-18.43c0.45-6.17-1.03-9.2-8.06-8.44c-6.28,0.68-12.68,0.14-19.69,0.14
		c3.78-6.89,7.01-12.75,10.2-18.57c-10.69-5.84-20.53-11.22-30.65-16.75c4.22-7.84,7.53-14.86,11.74-21.28
		c1.21-1.84,5-2.62,7.67-2.77c17.62-0.99,35.26-1.53,52.88-2.53c6.38-0.36,10.8,1.08,12.35,8.03c1.2,5.38,2.79,10.71,4.66,15.89
		c2.06,5.72,3.93,11.7,7.13,16.78c7.61,12.09,9.42,24.12,5.66,38.3c-3.47,13.07-4.48,26.94-5.23,40.54
		c-0.69,12.6-3.29,16.63-15.73,17.53c-27.39,1.99-54.82,3.51-82.18,5.82c-18.25,1.54-29.92-10.02-41.87-20.38
		c-7.3-6.32-13.32-14.39-18.77-22.45c-2.77-4.1-4.06-9.88-4.2-14.95c-0.35-13.01,0.22-26.06,0.6-39.09
		c0.56-19.21,4.96-36.28,27.07-40.62c9.2-1.81,18.25-4.4,28.17-6.83c-7.45,11.79-14.2,22.48-21.19,33.54
		c13.76,4.93,25.64,9.19,39.1,14.02c-5.67,10.29-10.71,19.45-17.01,30.88c14.29,0,26.65,0.95,38.77-0.35
		c7.64-0.82,12.5-0.35,14.9,7.6C358.41,545.23,360.3,546.52,361.47,547.89z M291.67,585.59c0.16-2.89,0.32-5.68,0.47-8.46
		c-3.17,1.25-6.34,2.5-10.6,4.18c-1.7-0.65-4.87-1.85-8.05-3.06c-0.32,0.66-0.64,1.32-0.96,1.97c10.48,6.09,20.95,12.17,31.6,18.36
		C307.72,590.62,307.72,590.62,291.67,585.59z M258.7,503.75c0,8.02,0,14.42,0,21.26C267.97,517.31,268.43,510.69,258.7,503.75z
		 M254.65,559.12c8.1-7.08,8.35-15.36,1.37-25.14C255.49,543.6,255.07,551.36,254.65,559.12z M385.63,477.2
		c0.71,7.08,1.34,13.39,2.2,22.01C395.7,487.58,394.86,480.76,385.63,477.2z M261.49,566.39c1.08,0.76,2.16,1.52,3.24,2.28
		c1.86-3.54,4.36-6.92,5.3-10.69c0.44-1.77-2.13-4.28-3.65-7.01c-1.81,2.15-2.48,2.58-2.59,3.13
		C262.96,558.18,262.24,562.29,261.49,566.39z"/>
	<path class="st0" d="M72.15,142.62c14.2,7.43,26.85,13.85,39.26,20.71c2.72,1.51,5.94,4.27,6.59,7.01
		c3.46,14.57,6.14,29.33,9.16,44c1.37,6.69-0.55,9.53-7.65,7.07c-16.91-5.86-33.87-11.58-50.76-17.5
		c-9.26-3.25-12.67-9.36-11.67-19.63C58.62,168.21,64.4,154.27,72.15,142.62z M90.46,199.97c-1.74-10.29-14.92-18.15-25.5-15.24
		C73.46,189.81,81.96,194.89,90.46,199.97z"/>
	<path class="st0" d="M405.62,452.61c12.75,4.47,22.76,7.97,35.25,12.35c-5.93,13.89-11.51,26.95-17.09,40
		c-1.03-0.25-2.05-0.49-3.08-0.74C415.98,488.05,411.26,471.89,405.62,452.61z"/>
	<path class="st0" d="M302.98,306.86c0-2.56,0.18-5.14-0.03-7.69c-0.85-10.07-1.82-20.13-2.73-30.2c-0.19-2.1-1.07-5.58-0.26-6.05
		c1.88-1.1,4.97-1.62,6.93-0.81c5.63,2.33,10.93,5.43,17.18,8.65c-5.72,12.8-11.15,24.94-16.57,37.08
		C305.99,307.51,304.49,307.18,302.98,306.86z"/>
	<path class="st0" d="M292.99,334.73c-4.57,11.08-8.24,19.95-12.24,29.66c-2.67-0.94-5.18-1.43-7.29-2.63
		c-9.03-5.09-9.28-12.84-0.6-17.96c3.63-2.14,7.46-3.97,11.27-5.78C286.15,337.07,288.33,336.45,292.99,334.73z"/>
	<path class="st0" d="M128.5,177.3c4.62,8.9,9.66,17.61,13.64,26.79c1.43,3.3,0.28,7.71,0.31,11.61c-3.27-3.04-7.97-5.49-9.51-9.23
		c-3.62-8.79-5.73-18.2-8.45-27.36C125.82,178.51,127.16,177.9,128.5,177.3z"/>
	<path class="st0" d="M431.84,392.15c2.85,8.62,4.93,14.91,7.22,21.81c-9.23,2.39-17.34,4.48-26.81,6.93
		C418.85,411.19,424.66,402.67,431.84,392.15z"/>
	<path class="st0" d="M302.01,290.01c-10.98-5.54-10.98-5.54-16.81-28.51C296.66,268.48,297.51,279,302.01,290.01z"/>
	<path class="st0" d="M182.21,205.9c-5.93,4.96-9.12,7.64-14.02,11.74c-1.7-6.06-3.07-10.92-4.43-15.78
		C168.98,203.01,174.21,204.15,182.21,205.9z"/>
	<path class="st0" d="M141.72,186.77c7.72,4.3,12.98,7.23,19.07,10.63c-3.61,3.62-6.48,6.5-10.05,10.07
		C147.82,200.75,145.34,195.07,141.72,186.77z"/>
	<path class="st0" d="M177.2,213.95c3.23,7.51,5.33,12.4,7.44,17.3c-0.95,0.81-1.9,1.61-2.86,2.42c-3.31-3.45-7.18-6.56-9.58-10.56
		C171.46,221.89,174.75,218.24,177.2,213.95z"/>
	<path class="st0" d="M276.96,262.77c3.15,7.17,4.97,11.31,6.79,15.45c-0.43,0.65-0.85,1.3-1.28,1.95
		c-3.78-2.13-7.95-3.84-11.04-6.72C270.8,272.87,274.22,267.94,276.96,262.77z"/>
	<path class="st0" d="M190.18,224.68c-2.59-4.63-4.69-8.38-6.79-12.14c0.4-0.85,0.79-1.71,1.19-2.56c4.91,2.19,9.81,4.39,15.6,6.98
		C196.45,219.84,193.68,221.98,190.18,224.68z"/>
	<path class="st0" d="M254.34,258.51c-1.82-2.68-3.37-4.96-6.69-9.87c6.66,0,11.27,0,15.88,0c0.19,0.8,0.38,1.6,0.57,2.4
		C261,253.41,257.91,255.78,254.34,258.51z"/>
	<path class="st0" d="M156.64,208.45c2.94,5.92,4.91,9.89,8.18,16.48c-6.57-2.5-10.79-4.1-16.64-6.32
		C151.04,215.18,153.25,212.53,156.64,208.45z"/>
	<path class="st0" d="M215.79,226.13c-3.12,2-6.24,4-11.38,7.3c-0.52-4.95-0.86-8.21-1.2-11.47c4.08,0.34,8.15,0.68,12.23,1.02
		C215.55,224.03,215.67,225.08,215.79,226.13z"/>
	<path class="st0" d="M232.88,232.9c-4.82,4.21-7.19,6.28-11.17,9.74c-1.22-4.65-2.17-8.24-3.12-11.84
		C222.57,231.39,226.54,231.97,232.88,232.9z"/>
	<path class="st0" d="M259.23,413.2c-11.46-3.01-22.92-6.03-35.44-9.32c2.12-5.41,3.84-9.8,6.16-15.7
		c10.53,8.41,20.16,16.11,29.8,23.81C259.57,412.38,259.4,412.79,259.23,413.2z"/>
	<path d="M380.96,236.06c5.26,11.4,0.29,22.81-10.55,27.21C374.15,253.62,377.55,244.84,380.96,236.06z"/>
	<path d="M291.67,585.59c16.05,5.03,16.05,5.03,12.47,12.99c-10.65-6.19-21.13-12.27-31.6-18.36c0.32-0.66,0.64-1.32,0.96-1.97
		c3.17,1.21,6.35,2.41,8.05,3.06c4.26-1.68,7.43-2.93,10.6-4.18C291.98,579.92,291.83,582.71,291.67,585.59z"/>
	<path d="M258.7,503.75c9.73,6.93,9.27,13.56,0,21.26C258.7,518.17,258.7,511.77,258.7,503.75z"/>
	<path d="M254.65,559.12c0.42-7.76,0.85-15.52,1.37-25.14C263,543.76,262.75,552.04,254.65,559.12z"/>
	<path d="M385.63,477.2c9.23,3.56,10.07,10.39,2.2,22.01C386.96,490.58,386.33,484.28,385.63,477.2z"/>
	<path d="M261.49,566.39c0.75-4.1,1.47-8.21,2.3-12.29c0.11-0.55,0.78-0.98,2.59-3.13c1.52,2.73,4.09,5.25,3.65,7.01
		c-0.94,3.77-3.44,7.15-5.3,10.69C263.65,567.91,262.57,567.15,261.49,566.39z"/>
	<path d="M90.46,199.97c-8.5-5.08-17-10.16-25.5-15.24C75.53,181.82,88.71,189.68,90.46,199.97z"/>
</g>
</svg>
