<?xml version="1.0" encoding="utf-8"?>
<!-- Generator: Adobe Illustrator 24.3.0, SVG Export Plug-In . SVG Version: 6.00 Build 0)  -->
<svg version="1.1" id="Layer_1" xmlns="http://www.w3.org/2000/svg" xmlns:xlink="http://www.w3.org/1999/xlink" x="0px" y="0px"
	 viewBox="0 0 612 792" style="enable-background:new 0 0 612 792;" xml:space="preserve">
<style type="text/css">
	.st0{fill:#FFFFFF;}
</style>
<g>
	<path class="st0" d="M26.3,683.95c0-190.32,0-380.63,0-570.95c188.23,0,376.47,0,564.7,0c0,190.32,0,380.63,0,570.95
		C402.77,683.95,214.53,683.95,26.3,683.95z M449.33,586.99c-5.34-0.59-10.22-2.71-12.94-1.13c-8.47,4.93-14.17,0.24-17.3-5.53
		c-3.73-6.89-6.1-15.19-6.53-23.03c-0.7-12.8-2.18-24.59-11.48-34.54c-2.01-2.15-2.55-8.54-0.86-10.72
		c4.35-5.61,11.49-9.16,15.41-14.97c8.02-11.89,17.46-23.94,21.16-37.35c4.78-17.29,4.82-35.95,6.32-54.07
		c1.78-21.53,18.49-29.7,37.54-20.21c9.69,4.83,21.84,5.9,32.96,6.28c8.6,0.3,17.14-10.98,16.48-19.59
		c-0.26-3.38-2.58-7.24-5.17-9.49c-1.08-0.94-5.88,1.09-8.02,2.9c-12.38,10.46-19.34,11.07-33.51,4.1
		c-5.34-2.62-11.76-4.14-17.7-4.2c-9.45-0.1-18.91,1.45-28.35,2.3c0.85-15.83-7.79-27.77-16.43-38.56
		c-15.91-19.88-37-35.37-49.09-58.69c-2.88-5.55-3.3-8.89,1.8-11.92c3.41-2.03,7.31-3.34,11.11-4.58
		c16.14-5.26,30.45-12.59,35.3-30.72c4.44-16.55-0.16-21.65-18.33-20.03c0,3.33,0.11,6.72-0.02,10.09
		c-0.57,14.99-9.84,25.81-23.85,28.7c-24.14,4.98-26.2,12.46-26.61,30.15c-34.11-13.51-68.14-11.39-102.5-0.88
		c-8.54,2.61-18.09,1.94-26.78,2.74c-1.02-3.06-1.6-4.01-1.62-4.98c-0.24-10.39-0.55-20.78-0.52-31.16
		c0.03-11.82-7.3-23.83-17.43-27.67c-7.06-2.67-14.21-5.1-21.31-7.69c-12.05-4.4-23.25-1.21-29.71,10.52
		c6.01,0,10.76-0.17,15.49,0.05c4.59,0.21,10.58-0.88,13.48,1.56c11.26,9.47,19,23.18,18.21,36.9c-0.79,13.65-0.32,25.57,7.89,36.39
		c-39.45,23.96-57.47,66.16-57.25,110.47c0.01,2.91-2.88,7.3-5.5,8.38c-3.17,1.31-8.08,0.95-11.2-0.69
		c-7.93-4.16-14.83-10.55-23.02-13.87c-5.87-2.38-15.04-4.03-19.44-1.08c-9.93,6.66-18,16.19-26.41,24.96
		c-1.79,1.87-3.01,7.56-2.4,7.92c4.89,2.88,10.14,5.45,15.61,6.78c1.41,0.34,4.85-3.71,5.87-6.32c4.38-11.32,15.9-15.47,26.63-10.21
		c8.49,4.16,17.56,7.33,26.63,10.08c6.04,1.83,12.53,2.15,17.81,2.99c11.13,50.03,35.69,88.14,82.81,111.84
		c1.43,7.58-1.4,13.49-11.43,17.87c-10.22,4.46-19.64,11.5-28.22,18.8c-9.63,8.19-10.41,23.77-5.03,33.38
		c2.94,5.24,13.3,6.33,20.91,9.54c0-8.19-1.03-13.79,0.19-18.84c4.17-17.27,15.24-28.26,32.75-31.95
		c7.99-1.68,12.11-5.93,12.75-13.98c0.24-3,1.02-5.95,1.51-8.69c39.72,4.93,77.5,0.97,113.91-14.59c3.12-1.33,8-0.75,11.22,0.76
		c10.02,4.69,8.78,14.51,7.8,22.81c-2.22,18.82,6.31,31.11,21.57,40.18C426.43,601.61,441.64,599.22,449.33,586.99z M330.42,201.69
		c-2.28-5.11-5.47-12.52-8.88-19.83c-2.31-4.95-6.69-9.64-7.04-14.66c-0.87-12.55-11.22-14.3-19.22-16.96
		c-2.79-0.93-8.69,6.52-12.7,10.6c-3.12,3.17-5.49,7.08-8.25,10.63c-15,19.3-12.6,44.04,5.61,58.91c2.87,2.34,5.69,4.95,7.83,7.94
		c6.8,9.48,10.22,9.75,18.22,1.02c1.86-2.03,4.24-3.59,6.03-5.67C319.36,225.15,328.1,217.42,330.42,201.69z M167.42,499.99
		c-12.54-2.6-24.44-5.97-36.57-7.35c-13.66-1.55-21.94,5.2-27.7,17.13c-5.27,10.91-12.47,20.87-18.27,31.54
		c-1.26,2.31-1.26,7.88-0.01,8.55c6.47,3.49,13.42,7.78,20.42,8.2c10.35,0.62,21.16-0.7,31.26-3.25
		c7.72-1.95,15.95-5.77,21.48-11.26c4.2-4.17,5.09-12.15,6.41-18.64C165.94,517.58,166.28,510.03,167.42,499.99z M538.85,494.84
		c-7.91-9.32-14.93-18.31-22.78-26.51c-3.63-3.79-8.86-8.55-13.36-8.55c-19.38-0.01-37.73,5.92-55.13,14.05
		c-7.42,3.47-6.89,11.62-0.21,16.6c2.64,1.97,5.7,4.24,6.96,7.09c7.57,17.14,20.99,23.41,39.19,18.02
		c9.88-2.93,19.75-6.2,29.86-7.96C532.07,506.06,537.05,501.86,538.85,494.84z M312.23,665.26c14.57-15.96,17.93-34.3,17.9-52.96
		c-0.02-16.04-1.72-32.59-18.77-40.92c-19.17,9.7-20.64,26.92-21.06,45.02C289.85,636.07,298.6,651.07,312.23,665.26z M71.97,280.3
		c-2.06,0.25-4.15,0.36-6.18,0.79c-12.65,2.71-13.52,4.67-6.5,15.26c19.83,29.92,50.4,36.04,83.1,36.98
		c1.24,0.04,4.25-5.29,3.63-6.18c-4.43-6.4-8.86-13.11-14.64-18.19C114.35,293.99,96.54,280.02,71.97,280.3z M417.76,298.95
		c0.79,1.33,1.59,2.66,2.38,4c13.16-4.36,26.45-8.37,39.46-13.15c17.5-6.43,29.26-19.68,38.75-35.03c2.08-3.36,3.95-8.82,2.59-11.77
		c-1.27-2.76-7.46-5.51-10.62-4.74c-10.59,2.57-21.58,5.32-30.99,10.55C439.12,260.04,425.23,277.15,417.76,298.95z"/>
	<path d="M449.33,586.99c-7.69,12.23-22.89,14.61-34.85,7.5c-15.26-9.07-23.79-21.36-21.57-40.18c0.98-8.3,2.23-18.12-7.8-22.81
		c-3.22-1.51-8.1-2.09-11.22-0.76c-36.41,15.55-74.19,19.52-113.91,14.59c-0.49,2.74-1.28,5.69-1.51,8.69
		c-0.64,8.05-4.76,12.3-12.75,13.98c-17.51,3.69-28.57,14.68-32.75,31.95c-1.22,5.05-0.19,10.65-0.19,18.84
		c-7.61-3.21-17.97-4.3-20.91-9.54c-5.38-9.61-4.6-25.19,5.03-33.38c8.59-7.3,18-14.34,28.22-18.8
		c10.04-4.38,12.86-10.29,11.43-17.87c-47.12-23.7-71.68-61.81-82.81-111.84c-5.28-0.84-11.77-1.16-17.81-2.99
		c-9.07-2.75-18.14-5.91-26.63-10.08c-10.72-5.26-22.24-1.1-26.63,10.21c-1.01,2.61-4.45,6.66-5.87,6.32
		c-5.47-1.33-10.73-3.91-15.61-6.78c-0.62-0.36,0.61-6.06,2.4-7.92c8.4-8.77,16.47-18.31,26.41-24.96
		c4.4-2.95,13.57-1.29,19.44,1.08c8.19,3.32,15.09,9.71,23.02,13.87c3.11,1.63,8.03,1.99,11.2,0.69c2.62-1.08,5.51-5.47,5.5-8.38
		c-0.23-44.31,17.8-86.51,57.25-110.47c-8.21-10.82-8.68-22.75-7.89-36.39c0.79-13.73-6.95-27.43-18.21-36.9
		c-2.89-2.43-8.89-1.35-13.48-1.56c-4.73-0.22-9.48-0.05-15.49-0.05c6.47-11.73,17.66-14.92,29.71-10.52
		c7.09,2.59,14.25,5.01,21.31,7.69c10.13,3.84,17.46,15.85,17.43,27.67c-0.03,10.39,0.28,20.78,0.52,31.16
		c0.02,0.97,0.6,1.93,1.62,4.98c8.7-0.8,18.24-0.13,26.78-2.74c34.36-10.5,68.39-12.63,102.5,0.88
		c0.42-17.69,2.48-25.17,26.61-30.15c14.01-2.89,23.28-13.71,23.85-28.7c0.13-3.37,0.02-6.76,0.02-10.09
		c18.17-1.61,22.77,3.48,18.33,20.03c-4.86,18.13-19.16,25.46-35.3,30.72c-3.81,1.24-7.7,2.55-11.11,4.58
		c-5.11,3.04-4.68,6.37-1.8,11.92c12.09,23.32,33.18,38.82,49.09,58.69c8.64,10.79,17.28,22.74,16.43,38.56
		c9.44-0.85,18.91-2.4,28.35-2.3c5.95,0.06,12.36,1.58,17.7,4.2c14.16,6.96,21.13,6.35,33.51-4.1c2.15-1.81,6.94-3.84,8.02-2.9
		c2.59,2.25,4.91,6.11,5.17,9.49c0.67,8.62-7.88,19.89-16.48,19.59c-11.12-0.39-23.27-1.46-32.96-6.28
		c-19.05-9.49-35.76-1.32-37.54,20.21c-1.5,18.12-1.55,36.78-6.32,54.07c-3.7,13.41-13.14,25.46-21.16,37.35
		c-3.91,5.8-11.06,9.36-15.41,14.97c-1.69,2.18-1.15,8.57,0.86,10.72c9.3,9.95,10.78,21.74,11.48,34.54
		c0.43,7.83,2.8,16.14,6.53,23.03c3.13,5.77,8.82,10.47,17.3,5.53C439.1,584.28,443.98,586.41,449.33,586.99z M360.03,335.09
		c-0.37-2.04-0.75-4.07-1.12-6.11c12.38-4.03,24.76-8.05,37.07-12.06c-14.33-17.95-32.88-29.06-55.82-34.23
		c-22.82-5.15-42.47-2.38-57.94,16.51c-3.48,4.24-6.45,8.91-10.02,13.07c-1.63,1.89-4.45,4.46-6.22,4.11
		c-2.61-0.52-6.54-3.19-6.74-5.25c-0.42-4.36,0.38-9.31,2.22-13.3c2.27-4.89,6.12-9.05,10.96-15.89
		c-9.73,3.31-16.38,6.54-23.38,7.76c-18.68,3.26-33.04,12.05-43.98,27.9c-11.78,17.07-13.8,31.32-4.2,47.92
		c2.17,3.75,4.5,7.4,7.69,12.62c-20.53,3.51-26.26-11.23-34.59-23.57c-2.69,14.93-12.88,27.72-6.27,43.71
		c2.01,4.87-0.26,11.35,0.88,16.78c2.36,11.21,4.73,22.61,9.02,33.15c2.42,5.93,9.15,9.96,13.11,15.44
		c6.67,9.21,14.45,12.14,25.13,8.3c4.78-1.72,9.5-3.6,14.23-5.4c3.83,10.35-2.71,21.85-15.87,28.54
		c10.91,17.46,23.07,33.25,44.82,38.4c16.28,3.85,31.64,5.88,43.21-9.83c6.9-9.37,13.51-18.95,20.6-28.16
		c4.51-5.86,11.94-4.57,13.42,2.61c0.99,4.78,0.97,10.77-1.13,14.95c-3.63,7.22-9.23,13.45-14.18,20.33c1.03,0,2.66,0.23,4.21-0.03
		c25.64-4.33,47.17-17.61,68.31-31.66c1.37-0.91,3.05-2.42,3.27-3.86c3.45-22.06,6.16-44.07-8.38-63.79
		c-0.58-0.78-0.78-1.84-0.97-2.29c1.92-1.1,3.65-2.1,5.76-3.3c-2.84-1.77-4.95-3.09-8.98-5.6c4.94-2.02,9.92-5.42,11.19-4.36
		c9.3,7.77,17.85,16.42,25.67,23.88c2.04-9.85,6.98-22.1,6.51-34.15c-0.68-17.51-2.61-35.88-8.8-52.05
		c-9.47-24.72-19.49-30.81-42.91-22.04C371.11,335.88,365.33,334.84,360.03,335.09z"/>
	<path d="M330.42,201.69c-2.32,15.72-11.06,23.46-18.4,31.98c-1.79,2.08-4.17,3.64-6.03,5.67c-8,8.72-11.41,8.46-18.22-1.02
		c-2.14-2.99-4.96-5.6-7.83-7.94c-18.21-14.87-20.62-39.61-5.61-58.91c2.75-3.54,5.13-7.45,8.25-10.63
		c4.01-4.08,9.92-11.53,12.7-10.6c7.99,2.65,18.35,4.4,19.22,16.96c0.35,5.02,4.74,9.71,7.04,14.66
		C324.95,189.17,328.14,196.58,330.42,201.69z"/>
	<path d="M167.42,499.99c-1.14,10.04-1.48,17.59-2.98,24.91c-1.33,6.49-2.21,14.47-6.41,18.64c-5.53,5.49-13.76,9.31-21.48,11.26
		c-10.09,2.55-20.9,3.87-31.26,3.25c-7-0.42-13.95-4.71-20.42-8.2c-1.25-0.67-1.24-6.24,0.01-8.55c5.8-10.67,13-20.63,18.27-31.54
		c5.76-11.93,14.04-18.67,27.7-17.13C142.98,494.01,154.88,497.39,167.42,499.99z"/>
	<path d="M538.85,494.84c-1.8,7.02-6.78,11.22-15.47,12.73c-10.11,1.76-19.98,5.04-29.86,7.96c-18.2,5.39-31.62-0.88-39.19-18.02
		c-1.26-2.85-4.31-5.12-6.96-7.09c-6.68-4.98-7.21-13.13,0.21-16.6c17.41-8.13,35.75-14.06,55.13-14.05c4.51,0,9.74,4.76,13.36,8.55
		C523.92,476.53,530.94,485.52,538.85,494.84z"/>
	<path d="M312.23,665.26c-13.63-14.19-22.38-29.19-21.92-48.85c0.42-18.11,1.89-35.33,21.06-45.02
		c17.05,8.33,18.74,24.89,18.77,40.92C330.16,630.96,326.79,649.3,312.23,665.26z"/>
	<path d="M71.97,280.3c24.57-0.28,42.38,13.69,59.42,28.66c5.78,5.08,10.21,11.79,14.64,18.19c0.62,0.89-2.4,6.22-3.63,6.18
		c-32.7-0.94-63.27-7.06-83.1-36.98c-7.02-10.59-6.15-12.55,6.5-15.26C67.82,280.66,69.91,280.56,71.97,280.3z"/>
	<path d="M417.76,298.95c7.47-21.79,21.36-38.9,41.57-50.14c9.41-5.24,20.4-7.98,30.99-10.55c3.17-0.77,9.35,1.98,10.62,4.74
		c1.36,2.96-0.51,8.41-2.59,11.77c-9.48,15.35-21.24,28.6-38.75,35.03c-13.01,4.78-26.3,8.8-39.46,13.15
		C419.35,301.61,418.55,300.28,417.76,298.95z"/>
	<path class="st0" d="M360.03,335.09c5.3-0.26,11.08,0.79,15.81-0.98c23.42-8.77,33.44-2.69,42.91,22.04
		c6.19,16.17,8.12,34.54,8.8,52.05c0.47,12.05-4.47,24.3-6.51,34.15c-7.82-7.46-16.38-16.11-25.67-23.88
		c-1.26-1.05-6.24,2.34-11.19,4.36c4.03,2.52,6.15,3.83,8.98,5.6c-2.11,1.21-3.84,2.2-5.76,3.3c0.18,0.45,0.39,1.51,0.97,2.29
		c14.54,19.72,11.83,41.74,8.38,63.79c-0.22,1.44-1.9,2.94-3.27,3.86c-21.14,14.05-42.67,27.33-68.31,31.66
		c-1.55,0.26-3.18,0.03-4.21,0.03c4.94-6.88,10.55-13.11,14.18-20.33c2.1-4.18,2.11-10.17,1.13-14.95
		c-1.48-7.17-8.91-8.47-13.42-2.61c-7.09,9.21-13.7,18.8-20.6,28.16c-11.56,15.71-26.93,13.69-43.21,9.83
		c-21.75-5.15-33.91-20.93-44.82-38.4c13.16-6.69,19.7-18.19,15.87-28.54c-4.73,1.8-9.45,3.69-14.23,5.4
		c-10.68,3.84-18.46,0.91-25.13-8.3c-3.97-5.48-10.69-9.51-13.11-15.44c-4.3-10.54-6.66-21.94-9.02-33.15
		c-1.15-5.43,1.13-11.91-0.88-16.78c-6.61-16,3.58-28.78,6.27-43.71c8.32,12.33,14.05,27.08,34.59,23.57
		c-3.19-5.22-5.52-8.87-7.69-12.62c-9.59-16.6-7.57-30.85,4.2-47.92c10.93-15.85,25.3-24.64,43.98-27.9
		c7-1.22,13.65-4.45,23.38-7.76c-4.85,6.85-8.7,11-10.96,15.89c-1.85,3.99-2.64,8.94-2.22,13.3c0.2,2.06,4.13,4.73,6.74,5.25
		c1.76,0.35,4.59-2.22,6.22-4.11c3.58-4.15,6.54-8.82,10.02-13.07c15.48-18.9,35.12-21.66,57.94-16.51
		c22.94,5.17,41.49,16.28,55.82,34.23c-12.32,4.01-24.69,8.03-37.07,12.06C359.28,331.02,359.66,333.06,360.03,335.09z
		 M297.59,475.71c22.41-0.01,46.23-7.66,59.11-22.96c18.12-21.52,22.89-47.23,20.59-75.39c-2.15-26.31-43.86-60.51-76.76-59.46
		c-54.33,1.72-83.49,28.33-81.52,77.9C221.01,446.22,242.18,475.09,297.59,475.71z"/>
	<path d="M297.59,475.71c-55.4-0.62-76.58-29.49-78.59-79.91c-1.97-49.56,27.19-76.18,81.52-77.9c32.9-1.04,74.62,33.15,76.76,59.46
		c2.3,28.17-2.47,53.87-20.59,75.39C343.81,468.05,320,475.7,297.59,475.71z M260.84,333.42c-5.04,2.91-9.82,4.61-13.21,7.79
		c-23.06,21.66-24.33,48.05-16.42,76.61c14.16,51.08,66.4,60.84,104.02,43.12c8.66-4.08,16.38-10.88,17.95-19.8
		c-23.03,0-45.43,0-68.89,0c0.54-3.59,1.06-7.08,1.59-10.59c-3.81-1.82-7.36-4.42-11.29-5.22c-9.01-1.82-11.01-7.63-11.83-15.74
		c-0.52-5.21-3.62-10.16-6.29-17.11c2.85-7.03-1.55-18.91-11.24-23.24C250.17,357.94,255.1,346.62,260.84,333.42z"/>
	<path class="st0" d="M260.84,333.42c-5.74,13.2-10.67,24.51-15.59,35.83c9.69,4.32,14.1,16.2,11.24,23.24
		c2.66,6.95,5.76,11.9,6.29,17.11c0.81,8.12,2.82,13.92,11.83,15.74c3.92,0.79,7.48,3.39,11.29,5.22c-0.53,3.51-1.05,7-1.59,10.59
		c23.46,0,45.86,0,68.89,0c-1.57,8.92-9.29,15.72-17.95,19.8c-37.62,17.72-89.87,7.96-104.02-43.12
		c-7.92-28.56-6.64-54.95,16.42-76.61C251.02,338.03,255.8,336.33,260.84,333.42z"/>
</g>
</svg>
