<?xml version="1.0" encoding="utf-8"?>
<!-- Generator: Adobe Illustrator 24.3.0, SVG Export Plug-In . SVG Version: 6.00 Build 0)  -->
<svg version="1.1" id="Layer_1" xmlns="http://www.w3.org/2000/svg" xmlns:xlink="http://www.w3.org/1999/xlink" x="0px" y="0px"
	 viewBox="0 0 612 792" style="enable-background:new 0 0 612 792;" xml:space="preserve">
<style type="text/css">
	.st0{fill:#FFFFFF;}
</style>
<g>
	<path class="st0" d="M532.01,786c-150.67,0-301.34,0-452.01,0c0-260.43,0-520.87,0-781.3c150.67,0,301.34,0,452.01,0
		C532.01,265.13,532.01,525.57,532.01,786z M357.4,202.43c0.51-0.02,1.03-0.04,1.54-0.06c-0.1,0.32-0.13,0.7-0.32,0.97
		c-5.51,7.65-11.04,15.29-17.4,24.09c3.56-1.63,6.01-2.75,10.17-4.66c-1.73,7.12-3.04,12.52-4.37,18.01
		c1.97,0.25,3.41,0.43,2.82,0.35c-1.4,5.66-2.75,11.15-4.1,16.64c7.34,1.15,2.71,5.2,1.79,8.04c-2.72,8.34-8.74,7.23-16.86,3.07
		c11.2,11.37,9.97,20.86-2.56,32.03c-0.36-6.63-0.7-12.87-1.04-19.1c-0.6,0.09-1.19,0.17-1.79,0.26c-0.55,5.45-1.1,10.89-1.66,16.34
		c-1.06-0.05-2.12-0.1-3.17-0.15c0-9.04,0-18.08,0-27.91c2.13,0.83,3.59,1.4,7.59,2.96c-1.72-6.45-2.17-11.82-4.54-16.14
		c-3.5-6.4-8.36-12.05-13.03-18.55c6.25-2.08,11.53-3.84,16.81-5.6c-12.02-31.57-6.37-27.53-33.54-27.72
		c-8.82-0.06-10.61-4.53-9.64-13.71c7.17,7.18,11.99,6.3,16.94-1.41c3.96-6.17,18-3.59,23.51,5.07
		c0.72-11.03-6.88-12.14-11.97-11.77c-8.65,0.62-17.1,3.83-25.71,5.55c-2.45,0.49-5.17-0.43-7.77-0.7c1.73-2.28,3.06-5.89,5.28-6.57
		c5.79-1.77,11.95-2.89,18.01-3.13c11.45-0.46,22.93-0.13,32.61-0.13c-4.4-3.09-11.4-5.46-13.38-10
		c-2.87-6.61-2.87-14.84-2.34-22.26c0.13-1.79,7.01-3.82,10.99-4.5c21.45-3.68,42.97-6.97,64.46-10.4c0-0.61,0-1.22,0-1.83
		c-17.21-5.67-34.42-11.34-54.33-17.9c15.45-5.93,28.21-10.82,44.01-16.88c-20.49-4.56-37.89-8.81-55.45-12.18
		c-7.89-1.52-12.19-4.67-14.34-12.93c-4.18-16.07-9.78-31.76-15.69-50.43c-5.97,19.57-11.42,35.98-15.85,52.66
		c-1.69,6.36-4.98,8.9-10.88,10.07c-14.02,2.8-27.98,5.89-41.95,8.95c-4.61,1.01-9.16,2.28-16.25,4.07
		c15.71,6.03,28.55,10.95,43.61,16.73c-20,6.55-37.44,12.27-54.89,17.98c0.13,0.59,0.27,1.17,0.4,1.76c25.5,4,51,7.99,77.94,12.22
		c-0.83,8.59,0.89,18.2-3.05,23.88c-4.12,5.94-7.21,10-4.89,13.98c-6.91,8.81-14.11,15.51-18.07,23.77
		c-3.58,7.48,2.23,19.92,9.09,25.7c1.93-3.47,3.85-6.91,4.79-8.61c3.77,2.96,7.36,5.78,11.6,9.11
		c-10.89,13.7-24.87,19.59-41.99,16.55c-1.02,6.54-1.91,12.29-3.07,19.77c-6.6,5.5-15.08,3.46-19.64-3.96
		c-6.6-10.74-12.45-22.64-15.34-34.82c-5.73-24.15-19.49-34.8-43.76-30.79c-4.03,0.67-8.14,0.85-12.16,1.54
		c-19.23,3.33-28.05,13.82-29.85,32.84c-2.58,27.2-3.44,54.82-16.85,81.75c7.86-4.92,14.12-8.84,23-14.4
		c-3.87,20.87-7.21,38.85-10.54,56.83c0,0,0.27-0.33,0.27-0.33c-2.62,4.96-5.24,9.91-8.21,15.51c10.09-8.69,19.24-16.58,28.34-24.43
		c0,4.3-0.15,9.68,0.02,15.06c0.84,26.15-0.93,51.67-16.4,74.26c-1.86,2.71-2.62,6.24-3.58,9.49c-2.66,9.07-5.17,18.19-7.67,27.31
		c-0.22,0.8,0.09,1.75,0.16,2.8c1.56-0.98,2.83-1.78,4.66-2.93c1.11,11.99,2.13,22.91,3.14,33.8c9.56-9.12,18.52-17.67,27.49-26.22
		c0.85,0.72,1.7,1.43,2.56,2.15c-2.09,7.68-4.17,15.37-6.26,23.05c0.92,0.52,1.85,1.04,2.77,1.56c6.51-9.68,13.74-18.97,19.29-29.17
		c3.56-6.55,7.44-9.63,14.95-8.82c-2.49,8.78-4.79,16.89-7.09,25.01c0.91,0.32,1.82,0.65,2.73,0.97c2.18-4.45,4.99-8.71,6.42-13.4
		c3.64-11.97,10.68-18.06,23.78-17.11c8.11,0.59,16.64-1.76,24.41-0.09c5.04,1.08,10.36,6.25,13.11,11
		c2.58,4.46,1.93,10.79,2.86,17.44c-2.05,1.4-5.57,3.02-8.02,5.63c-7.57,8.06-15.09,6.44-23.5,1.39
		c-6.06-3.64-12.78-6.21-21.88-10.53c5.74,11.27,10.01,19.38,13.99,27.63c1.11,2.31,2.71,6.5,1.81,7.32
		c-7.47,6.8-7.81,19.72-20.22,22.5c-5.7,1.28-7.1,6.26-4.97,12.31c1.32,3.74,1.39,8.13,1.12,12.17c-0.32,4.72-2.19,9.36-2.35,14.06
		c-0.21,6.21-3.11,8.87-8.88,10.44c-9.57,2.61-18.91,6.07-30.47,9.87c12.38,4.45,22.31,7.96,32.18,11.63
		c2.16,0.8,5.83,2.14,5.87,3.33c0.32,10.16,8.49,19.35,3.25,30.38c-1.26,2.65,0.74,10.02,2.15,10.27c10.8,1.96,12.8,12.1,18.82,18.4
		c3.84,4.02,3.39,7.2,0.85,11.64c-5.08,8.89-9.53,18.14-14.24,27.24c7.9-1.63,14.57-3.7,19.93-7.58c11.2-8.11,21.15-7.11,30.25,2.57
		c3.89,4.14,5.69,11.59,10.15,13.47c4.93,2.08,11.85-1.14,17.85-0.86c5.01,0.23,9.92,3.07,14.91,3.16
		c7.36,0.13,9.83,4.15,11.61,10.26c2.79,9.57,6.15,18.97,10.2,31.26c2.89-8.42,5.51-13.96,6.64-19.79
		c2.82-14.45,9.44-24.05,25.78-23.68c4.45,0.1,9.64-2.48,13.23-0.92c8.35,3.63,12.46,2.43,14.75-6.78
		c2.31-9.29,19.83-16.29,28.42-12.06c8.34,4.1,16.67,8.22,25,12.33c-3.21-10.58-7.95-19.49-12.29-28.6
		c-1.18-2.48-2.56-6.98-1.42-8.12c6.67-6.66,7.34-18.72,19.18-21c2.11-0.41,5.47-6.5,4.7-7.72c-6.33-9.99-0.07-19.15,1.43-28.41
		c0.55-3.37,4.16-7.46,7.41-8.93c9.19-4.18,18.92-7.17,30.85-11.5c-11.44-3.8-20.72-6.75-29.89-10.03
		c-2.72-0.97-7.31-2.93-7.28-4.36c0.23-11.25-8.85-21.58-2.94-33.53c1.14-2.3-1.09-9.14-2.58-9.41
		c-11.29-2.04-13.78-12.31-18.98-19.65c-2.1-2.96-2.27-8.79-0.91-12.4c3.15-8.37,7.78-16.2,11.8-24.24
		c-1.34-0.61-1.7-0.92-1.88-0.84c-8.31,3.89-16.56,7.93-24.94,11.67c-2.34,1.05-5.34,2.25-7.57,1.65
		c-11.74-3.21-19.54-13.66-20.66-26.74c-0.84-9.75,2.9-14.07,12.6-13.99c9.88,0.09,19.8,1.21,29.62,0.62
		c10.11-0.62,14.82,4.58,18.05,12.93c2.04,5.27,4.57,10.34,6.87,15.5c0.56-0.2,1.13-0.41,1.69-0.61c-1.95-8.29-3.9-16.57-5.85-24.86
		c1.23-0.79,2.46-1.57,3.69-2.36c4.04,4.16,8.55,7.97,12.03,12.56c6.66,8.79,12.73,18.03,19.05,27.08c0.72-0.41,1.45-0.82,2.17-1.24
		c-2.14-8.3-4.28-16.59-6.43-24.89c1.01-0.72,2.03-1.44,3.04-2.17c10.73,9.76,21.46,19.53,34.74,31.62
		c-0.47-21.99-0.48-41.74-1.61-61.42c-0.29-5.02-3.03-10.99-6.61-14.54c-11.65-11.53-16.35-26.06-17.75-41.31
		c-1.45-15.79-0.32-31.81-0.32-45.36c6.87,6.18,14.39,12.95,23.1,20.78c-4.97-24.52-9.56-47.15-14.53-71.66
		c5.2,2.87,8.09,4.47,10.98,6.06c1.16,0.98,2.32,1.95,3.48,2.93c3.09,2.89,6.18,5.78,9.27,8.68c-1.58-7.43-5.98-13.09-7.35-19.41
		c-3.58-16.52-5.87-33.33-8.61-50.03c-1.94-11.83,0.89-24.8-8.44-34.83c-9.81-10.54-43.9-17.88-57.27-12.23
		c-13.44,5.68-17.35,17.53-21.12,30.4c-3.46,11.8-8.38,23.56-14.88,33.95c-5.46,8.73-13.03,8.55-21.61,2.74
		c1.98-7.88-3.1-16.74,3.28-24.2c0.32-0.37-2.72-3.62-5.61-7.36c3.52-10.39,7.75-22.88,11.98-35.36c-0.78-0.4-1.56-0.8-2.34-1.21
		c-1.43,2.38-2.85,4.75-4.31,7.07c-1.64-0.83-3.28-1.66-4.89-2.48c4.55-6.39,8.87-12.46,14.86-20.86
		c-9.77,3.22-16.6,5.46-23.42,7.71c-0.13-0.39-0.27-0.78-0.4-1.18c5.45-3.56,10.89-7.11,16.34-10.67c-0.38-0.95-0.76-1.9-1.14-2.85
		c-5.35,1.06-10.71,2.12-16.06,3.17c0.09,0.74,0.17,1.48,0.26,2.22c2.02-0.14,4.04-0.29,6.36-0.45
		c-3.05,7.36-16.66,4.81-14.95,17.33c8.15-2.68,15.05-4.96,22.43-7.38c-5.56,6.92-10.59,13.18-15.62,19.44
		c0.78,0.82,1.56,1.64,2.34,2.45C348.12,206.79,352.76,204.61,357.4,202.43z"/>
	<path d="M480.93,301.37c-2.89-1.59-5.77-3.19-10.98-6.06c4.97,24.5,9.56,47.14,14.53,71.66c-8.71-7.84-16.23-14.6-23.1-20.78
		c0,13.54-1.13,29.57,0.32,45.36c1.4,15.25,6.1,29.78,17.75,41.31c3.58,3.55,6.32,9.51,6.61,14.54c1.14,19.68,1.14,39.43,1.61,61.42
		c-13.28-12.09-24.01-21.85-34.74-31.62c-1.01,0.72-2.03,1.44-3.04,2.17c2.14,8.3,4.28,16.59,6.43,24.89
		c-0.72,0.41-1.45,0.82-2.17,1.24c-6.32-9.05-12.39-18.29-19.05-27.08c-3.48-4.59-7.99-8.4-12.03-12.56
		c-1.23,0.79-2.46,1.57-3.69,2.36c1.95,8.29,3.9,16.57,5.85,24.86c-0.56,0.2-1.13,0.41-1.69,0.61c-2.31-5.16-4.84-10.24-6.87-15.5
		c-3.23-8.34-7.94-13.54-18.05-12.93c-9.82,0.6-19.74-0.53-29.62-0.62c-9.7-0.08-13.44,4.24-12.6,13.99
		c1.12,13.09,8.92,23.53,20.66,26.74c2.22,0.61,5.23-0.6,7.57-1.65c8.38-3.74,16.62-7.78,24.94-11.67c0.18-0.08,0.54,0.23,1.88,0.84
		c-4.03,8.05-8.65,15.87-11.8,24.24c-1.36,3.62-1.19,9.44,0.91,12.4c5.2,7.33,7.69,17.61,18.98,19.65c1.49,0.27,3.72,7.11,2.58,9.41
		c-5.91,11.94,3.16,22.28,2.94,33.53c-0.03,1.43,4.56,3.38,7.28,4.36c9.17,3.28,18.45,6.22,29.89,10.03
		c-11.92,4.33-21.65,7.33-30.85,11.5c-3.25,1.48-6.87,5.57-7.41,8.93c-1.5,9.26-7.76,18.43-1.43,28.41c0.77,1.22-2.59,7.32-4.7,7.72
		c-11.84,2.28-12.51,14.34-19.18,21c-1.14,1.14,0.24,5.64,1.42,8.12c4.34,9.1,9.08,18.01,12.29,28.6c-8.33-4.11-16.67-8.22-25-12.33
		c-8.59-4.23-26.11,2.76-28.42,12.06c-2.29,9.22-6.4,10.41-14.75,6.78c-3.59-1.56-8.78,1.02-13.23,0.92
		c-16.34-0.37-22.96,9.22-25.78,23.68c-1.14,5.83-3.76,11.37-6.64,19.79c-4.05-12.29-7.41-21.69-10.2-31.26
		c-1.78-6.11-4.25-10.13-11.61-10.26c-4.98-0.09-9.9-2.93-14.91-3.16c-6-0.28-12.92,2.94-17.85,0.86
		c-4.46-1.88-6.26-9.33-10.15-13.47c-9.09-9.68-19.04-10.68-30.25-2.57c-5.36,3.88-12.03,5.94-19.93,7.58
		c4.71-9.1,9.16-18.35,14.24-27.24c2.54-4.44,2.99-7.62-0.85-11.64c-6.02-6.3-8.03-16.43-18.82-18.4c-1.4-0.26-3.41-7.62-2.15-10.27
		c5.24-11.03-2.93-20.22-3.25-30.38c-0.04-1.18-3.71-2.52-5.87-3.33c-9.87-3.67-19.8-7.17-32.18-11.63
		c11.56-3.8,20.89-7.26,30.47-9.87c5.77-1.57,8.67-4.23,8.88-10.44c0.16-4.71,2.04-9.34,2.35-14.06c0.27-4.04,0.19-8.43-1.12-12.17
		c-2.13-6.05-0.74-11.04,4.97-12.31c12.41-2.78,12.74-15.7,20.22-22.5c0.9-0.82-0.7-5.02-1.81-7.32
		c-3.98-8.25-8.25-16.36-13.99-27.63c9.11,4.32,15.82,6.88,21.88,10.53c8.4,5.05,15.93,6.67,23.5-1.39
		c2.45-2.61,5.97-4.23,8.02-5.63c-0.93-6.65-0.28-12.98-2.86-17.44c-2.74-4.75-8.07-9.92-13.11-11c-7.76-1.67-16.29,0.68-24.41,0.09
		c-13.09-0.95-20.14,5.14-23.78,17.11c-1.42,4.68-4.24,8.94-6.42,13.4c-0.91-0.32-1.82-0.65-2.73-0.97
		c2.3-8.12,4.6-16.23,7.09-25.01c-7.51-0.82-11.39,2.26-14.95,8.82c-5.55,10.2-12.77,19.49-19.29,29.17
		c-0.92-0.52-1.85-1.04-2.77-1.56c2.09-7.68,4.17-15.37,6.26-23.05c-0.85-0.72-1.7-1.43-2.56-2.15
		c-8.96,8.55-17.93,17.1-27.49,26.22c-1.01-10.9-2.02-21.81-3.14-33.8c-1.83,1.15-3.1,1.95-4.66,2.93c-0.08-1.04-0.38-1.99-0.16-2.8
		c2.5-9.12,5.01-18.24,7.67-27.31c0.95-3.25,1.72-6.78,3.58-9.49c15.47-22.59,17.24-48.11,16.4-74.26
		c-0.17-5.37-0.02-10.75-0.02-15.06c-9.1,7.84-18.25,15.73-28.34,24.43c2.96-5.6,5.59-10.56,8.21-15.52
		c0.68,0.89,1.35,1.79,2.02,2.69c5.47-8.11,15.24-16.12,15.44-24.36c0.31-13.07,5.04-23.8,9.05-35.27c0.26-0.74-0.27-1.75-0.42-2.58
		c-2.62,1.22-5.01,2.33-10.48,4.88c7.49-14.64,6.38-26.05,0.93-37.94c-2.54-5.54-1.66-12.64-2.33-19.04
		c0.88,0.01,1.76,0.01,2.64,0.02c0.85,5.65,1.71,11.29,2.56,16.94c0.87-0.11,1.73-0.21,2.6-0.32c0-2.86,0-5.71,0-8.57
		c0-2.62,0-5.25,0-7.87c0.9,0.02,1.8,0.05,2.7,0.07c0,6.41,0,12.83,0,19.24c0.71,0.11,1.42,0.21,2.13,0.32
		c2.7-8.06,5.41-16.12,8.11-24.18c0.91,0.09,1.81,0.17,2.72,0.26c0.63,4.88,1.26,9.76,1.99,15.43c8.06-7.1,15.35-13.54,24.19-21.33
		c-2.01,11.66-4.22,20.94-4.98,30.33c-0.42,5.16,0.25,11.35,2.84,15.61c4.85,7.99,11.45,14.92,17.82,22.92
		c1.73-5.92,3.33-11.42,5.35-18.36c3.92,12.02-7.45,24.61,5.77,33.76c1.8-6.61,3.5-12.81,5.88-21.55c5,16.85-5.66,32.36,5.52,46.24
		c2.77-8.93,5.41-17.42,8.05-25.92c0.85,0.26,1.7,0.52,2.55,0.78c-0.64,4.83-1.28,9.65-1.85,13.91c7.03-4.88,13.81-9.89,20.9-14.44
		c7.05-4.52,12.47-10.42,10.41-18.94c-2.32-9.58-6.59-18.7-10.35-28.95c-11.38,9.35-19.93,6-27.49-1.03
		c-11.97-11.13-17.34-25.74-20.44-41.4c-3.76-18.99-13-26.72-32.1-24.98c-31.07,2.82-43.89,11.48-41.6,44.52
		c0.89,12.89-2.36,26.25-5.07,39.12c-1.2,5.69-5.74,10.68-10.15,18.42c7.59-6.54,12.89-11.12,17.91-15.45
		c0,8.21-0.09,15.96,0.02,23.7c0.23,15.94-3.1,30.79-13.12,43.63c3.34-17.98,6.67-35.96,10.54-56.83c-8.88,5.56-15.14,9.47-23,14.4
		c13.4-26.93,14.27-54.56,16.85-81.75c1.8-19.02,10.62-29.51,29.85-32.84c4.02-0.7,8.13-0.88,12.16-1.54
		c24.27-4.01,38.03,6.64,43.76,30.79c2.89,12.18,8.74,24.08,15.34,34.82c4.56,7.42,13.04,9.46,19.64,3.96
		c1.16-7.48,2.06-13.23,3.07-19.77c17.12,3.04,31.09-2.85,41.99-16.55c-4.25-3.33-7.84-6.15-11.6-9.11
		c-0.95,1.7-2.87,5.15-4.79,8.61c-6.86-5.78-12.67-18.23-9.09-25.7c3.96-8.26,11.16-14.96,18.07-23.77
		c-2.31-3.98,0.77-8.04,4.89-13.98c3.94-5.68,2.22-15.3,3.05-23.88c-26.93-4.22-52.44-8.22-77.94-12.22
		c-0.13-0.59-0.27-1.17-0.4-1.76c17.44-5.72,34.89-11.43,54.89-17.98c-15.06-5.78-27.9-10.7-43.61-16.73
		c7.09-1.79,11.64-3.06,16.25-4.07c13.97-3.06,27.93-6.16,41.95-8.95c5.9-1.18,9.19-3.72,10.88-10.07
		c4.43-16.68,9.88-33.09,15.85-52.66c5.9,18.67,11.5,34.37,15.69,50.43c2.15,8.26,6.44,11.41,14.34,12.93
		c17.57,3.37,34.97,7.62,55.45,12.18c-15.79,6.06-28.56,10.96-44.01,16.88c19.91,6.56,37.12,12.23,54.33,17.9c0,0.61,0,1.22,0,1.83
		c-21.49,3.43-43.01,6.72-64.46,10.4c-3.99,0.68-10.86,2.71-10.99,4.5c-0.53,7.42-0.53,15.65,2.34,22.26
		c1.97,4.55,8.98,6.91,13.38,10c-9.68,0-21.16-0.33-32.61,0.13c-6.06,0.25-12.22,1.36-18.01,3.13c-2.22,0.68-3.55,4.29-5.28,6.57
		c2.6,0.27,5.32,1.19,7.77,0.7c8.61-1.72,17.06-4.93,25.71-5.55c5.09-0.37,12.68,0.75,11.97,11.77
		c-5.51-8.66-19.56-11.24-23.51-5.07c-4.95,7.71-9.77,8.59-16.94,1.41c-0.97,9.18,0.82,13.65,9.64,13.71
		c27.17,0.19,21.51-3.85,33.54,27.72c-5.28,1.76-10.56,3.52-16.81,5.6c4.67,6.5,9.53,12.15,13.03,18.55
		c2.37,4.32,2.82,9.69,4.54,16.14c-3.99-1.56-5.46-2.13-7.59-2.96c0,9.83,0,18.87,0,27.91c1.06,0.05,2.12,0.1,3.17,0.15
		c0.55-5.45,1.1-10.89,1.66-16.34c0.6-0.09,1.19-0.17,1.79-0.26c0.34,6.23,0.68,12.47,1.04,19.1c12.53-11.17,13.76-20.66,2.56-32.03
		c8.13,4.16,14.14,5.27,16.86-3.07c0.92-2.83,5.55-6.89-1.79-8.04c1.35-5.49,2.71-10.98,4.1-16.64c0.58,0.07-0.85-0.11-2.82-0.35
		c1.33-5.49,2.64-10.89,4.37-18.01c-4.16,1.91-6.61,3.03-10.17,4.66c6.36-8.8,11.89-16.44,17.4-24.09c0.19-0.26,0.22-0.64,0.32-0.97
		c-0.51,0.02-1.03,0.04-1.54,0.06l0.03,0.14c1.43-2.38,2.85-4.75,4.28-7.13c0.78,0.4,1.56,0.8,2.34,1.21
		c-4.23,12.49-8.46,24.97-11.98,35.36c2.89,3.74,5.93,6.99,5.61,7.36c-6.38,7.46-1.3,16.32-3.28,24.2
		c8.57,5.81,16.14,5.99,21.61-2.74c6.5-10.39,11.42-22.15,14.88-33.95c3.77-12.86,7.69-24.72,21.12-30.4
		c13.37-5.65,47.46,1.69,57.27,12.23c9.33,10.03,6.51,23,8.44,34.83c2.73,16.7,5.03,33.51,8.61,50.03
		c1.37,6.32,5.76,11.98,7.35,19.41c-3.09-2.89-6.18-5.78-9.27-8.68c0.04-1.56,0.7-3.48,0.03-4.62
		c-10.57-17.98-15.94-37.17-14.2-58.15c0.28-3.39,0.3-6.82,0.12-10.22c-0.64-12.27-5.7-21.77-17.86-25.94
		c-6.06-2.07-12.42-3.5-18.75-4.51c-22.16-3.55-31.63,3.99-37.55,25.44c-3.55,12.84-9.15,25.7-16.54,36.72
		c-7.99,11.91-16.92,12.54-30.34,6.42c-1.97,2.94-4.43,5.75-5.9,9.02c-1.6,3.56-1.93,7.67-3.42,11.29
		c-4.2,10.23-1.42,19.14,7.95,25.38c7.55,5.03,14.92,10.34,22.26,15.45c-0.73-4.58-1.54-9.66-2.34-14.75
		c0.97-0.22,1.94-0.43,2.92-0.65c2.56,8.45,5.12,16.91,7.9,26.06c10.96-13.86,0.44-29.38,5.96-46.04c2.2,8.93,3.69,14.99,5.27,21.38
		c13.4-8.81,1.73-21.61,6.11-33.19c1.85,6.62,3.35,11.96,5.15,18.37c4.87-6.66,8.36-12.97,13.28-17.82
		c7.82-7.72,8.25-16.25,6.45-26.26c-1.56-8.69-1.46-17.67-2.26-28.77c8.76,8.22,15.4,14.46,23.24,21.82
		c-2.26-10.15-4.16-18.7-6.07-27.25c1.23-0.38,2.46-0.76,3.7-1.13c4.93,13.2,9.85,26.41,14.78,39.61c0.76-0.18,1.52-0.35,2.28-0.53
		c-0.57-9.41-1.14-18.82-1.71-28.23c3.36,6.11,5.26,12.58,5.24,19.04c-0.02,5.07,7.36,7.78,2.97,14.32
		c-2.63,3.9-2.56,9.82-3.05,14.9c-0.47,4.89-0.1,9.86-0.1,14.92c-2.61-0.64-4.06-0.99-6.4-1.56c3.43,9.44,9.3,17.83,8.7,25.73
		c-1.04,13.75,6.08,21.91,14.92,30.5c-12.06-19.92-9.14-41.93-9.2-65.6C472.75,291.35,476.84,296.36,480.93,301.37z M442.35,272.03
		c4.54,3.67,9.07,7.34,15.83,12.81c-4.21-9.54-7.44-16.86-10.39-23.53c-1.96,3.83-3.71,7.26-5.47,10.69
		c3.38-15.71-10.63-19.31-19.24-29.08c0.93,10.67,3.76,19.74,1.87,27.69c-2.18,9.14-1.27,17.68-1.22,26.58
		c0.04,7.87,12.78,12.98,4.38,23.64c-1.61-3.32-2.73-5.63-3.85-7.94c-0.84,0.06-1.67,0.11-2.51,0.17c-1.73,9-3.45,18.01-5.29,27.62
		c1.61-1.07,3.17-2.12,3.67-2.46c-2.07,17.58-4.18,35.56-6.55,55.68c3.58-5.36,5.98-8.95,8.38-12.53
		c-4.82,12.4-10.98,24.23-1.85,37.13c1.06-1.13,2.11-2.27,4.76-5.1c-1.42,5.92-2.23,9.28-3.47,14.42c2.58-2.85,3.85-4.27,7.31-8.1
		c0,8.25,0,13.9,0,20.39c2.18,0.1,5.02,0.24,8.69,0.41c0-13.26-0.62-25.78,0.13-38.2c1.5-25.04,5.79-49.99-1.28-74.98
		c-1.37-4.84-0.36-11.08,1.49-15.92c3.05-7.96,1.18-13.56-5.33-18.74c-0.6,3.42-1.14,6.52-1.68,9.61c-0.59-0.05-1.19-0.09-1.78-0.14
		c0-7.63,0-15.26,0-22.9c0.65-0.25,1.3-0.5,1.95-0.75c4.7,7.73,9.41,15.47,15.36,25.24C444.73,291.45,443.54,281.74,442.35,272.03z
		 M312.22,687.98c12.22-4.87,23.05-9.19,34.67-13.83c-5.36-12.91-9.96-23.99-15.57-37.49c13.28,6.51,24.08,11.8,36.41,17.83
		c5.05-11.44,9.59-21.74,14.47-32.79c-14.5-5.34-27.02-9.96-42.35-15.61c15.89-5.41,28.86-9.83,43.68-14.87
		c-5.02-12.4-9.49-23.46-14.29-35.3c-14.18,6.83-26.28,12.67-41.17,19.85c7.2-14.97,13.11-27.24,19.61-40.76
		c-10.15-4.46-18.97-8.33-29.13-12.79c-6.65,28.12-12.85,54.33-19.05,80.53c-5.56-15.92-8.57-31.83-12.84-47.41
		c-2.82-10.32-7.44-20.14-11.77-31.55c-9.62,5.06-16.39,8.63-23.67,12.45c6.34,13.05,12.16,25.01,19.19,39.47
		c-14.64-6.97-26.51-12.61-40.37-19.2c-3.94,10.09-7.57,19.43-11.22,28.75c-2.14,5.46,0.16,7.89,5.46,9.48
		c10.53,3.17,20.88,6.95,33.89,11.35c-15.02,5.58-27.26,10.13-41.21,15.31c5.25,11.47,9.94,21.72,14.87,32.5
		c12.22-6.01,22.64-11.13,35.58-17.5c-5.89,13.78-10.52,24.59-15.86,37.08c11.49,4.69,22.19,9.06,33.53,13.7
		c4.81-13.42,8.87-24.74,13.91-38.81C303.78,662.7,307.59,674.11,312.22,687.98z M171.11,304.88c-0.75-0.08-1.51-0.15-2.26-0.23
		c0.82,3.74,0.91,7.87,2.6,11.17c5.89,11.43,9.65,22.8,7.36,36.16c-1.25,7.26,0.5,15.12,1.4,22.65c1.36,11.4,3.68,22.71,4.59,34.14
		c0.78,9.81,0.16,19.74,0.16,31.18c18.93-10.7,4.84-28.55,13.25-40.55c1.71,2.58,3.29,4.98,4.88,7.38c0.43-0.23,0.87-0.46,1.3-0.69
		c-1.83-5.77-3.65-11.53-5.48-17.3c0.5-0.18,1-0.37,1.51-0.55c1.63,2.73,3.27,5.45,4.9,8.18c0.64-0.32,1.28-0.64,1.92-0.97
		c-2.32-4.97-4.65-9.95-7.89-16.9c4.2,2.97,6.39,4.53,10.32,7.32c-1.17-8.76-2-15.44-2.97-22.11c-0.79-5.45-1.75-10.88-2.63-16.32
		c1.49-0.26,2.99-0.52,4.48-0.78c6.24,20.58,12.47,41.17,19.17,63.28c2.79-18.61,5.43-36.24,8.07-53.88
		c0.53-0.02,1.05-0.05,1.58-0.07c3.61,11.03,7.22,22.06,10.46,31.95c4.25-13.24,8.16-28.21,0.92-44.88
		c-2.35,3.98-4.16,7.03-6.56,11.1c-1.25-4.21-2.15-7.27-3.13-10.56c-3.54,5.24-6.73,9.98-9.92,14.71c-0.78-0.35-1.56-0.7-2.34-1.05
		c0.4-6.67,0.79-13.33,1.25-21.03c-5.35,6.42-9.99,12.01-14.68,17.64c-9.01-17.54-17.07-33.25-25.13-48.96
		c-0.73,0.33-1.47,0.66-2.2,0.99c0,8.14,0,16.29,0,24.43c-0.75,0.21-1.51,0.42-2.26,0.63C179.56,322.27,175.33,313.58,171.11,304.88
		z M406.04,437.3c0-4.24,0.13-8.48-0.02-12.71c-0.67-18.05-0.49-35.91,5.06-53.49c2.03-6.44,2.77-14.05,1.49-20.62
		c-2.65-13.68,1-25.44,7.14-37.19c1.66-3.18,1.65-7.23,2.4-10.89c-0.62-0.08-1.23-0.16-1.85-0.23c-4.43,8.88-8.85,17.77-13.28,26.65
		c-0.91-0.36-1.83-0.73-2.74-1.09c0.35-7.91,0.69-15.82,1.04-23.73c-4.66,4.22-7.5,8.98-10.42,13.69c-5.97,9.64-13,18.7-8.48,31.53
		c1.33,3.79,1.31,8.39-1.7,13.4c-3.03,5.04-1.6,12.77-2.24,20.82c3.66-3.06,5.6-4.68,9.88-8.26c-3.5,7.74-5.76,12.73-8.01,17.72
		c0.61,0.29,1.23,0.58,1.84,0.87c1.61-2.51,3.22-5.03,4.83-7.54c0.43,0.23,0.86,0.45,1.29,0.68c-1.75,5.64-3.51,11.28-5.26,16.92
		c0.6,0.19,1.2,0.38,1.8,0.57c1.35-2.37,2.7-4.75,4.05-7.12c2.15,5.48,3.6,10.84,2.58,15.68
		C393.29,423.14,397.24,430.57,406.04,437.3z M171.02,421.2c9.75-13.39,2-25.16-1.7-37.51c2.24,3.45,4.48,6.9,6.72,10.35
		c-0.13-10.47-1.89-20.34-3.29-30.25c-0.42-2.96,0.25-6.05,0.27-9.09c0.05-7.41,0.02-14.82,0.02-22.23
		c-0.64-2.08,0.45-4.12-0.05-5.64c-1.29-3.97-3.27-7.71-5.26-12.18c-2.04,3.39-3.36,5.58-4.68,7.77c-0.68-0.22-1.36-0.44-2.04-0.66
		c-0.52-8.7-1.05-17.4-1.63-27.12c-7.56,6.5-7.88,12.45-5.61,20.19c1.8,6.16,0.81,13.27,0.4,19.92
		c-0.64,10.44-2.65,20.86-2.54,31.28c0.08,7.93,3.6,15.81,3.74,23.75c0.24,14.13-0.8,28.29-1.55,42.42
		c-0.37,6.98,1.41,10.48,7.47,7.87c0.82-5.96,1.5-10.91,2.29-16.71c2.33,2.96,3.47,4.41,4.61,5.86c0.45-0.47,0.9-0.94,1.36-1.41
		c-0.97-3.27-1.93-6.54-2.9-9.82c0.62-0.25,1.24-0.5,1.87-0.75C169.29,418.49,170.07,419.72,171.02,421.2z M243.84,416.17
		c0.4,0.99,0.8,1.98,1.19,2.96c4.63-1.68,10.06-2.33,13.74-5.22c16.37-12.88,23.69-30.02,21.53-50.91c-0.19-1.88-0.61-4.52-1.89-5.4
		c-11.29-7.73-5.51-13.78,4.13-21.05c-8.51-10.75-16.65-21.04-25.01-31.59C252.6,342.85,266.35,381.57,243.84,416.17z M239.46,261.5
		c3.19,5.06,6.04,9.59,9.03,14.33c3.85-1.35,7.15-2.5,11.41-3.99c-10.4,11.31-9.23,20.79,3.4,31.51c0.34-6.6,0.66-12.79,0.98-18.98
		c0.93,0.02,1.86,0.03,2.79,0.05c0,7.37-1.52,15.18,0.43,21.99c1.96,6.86,7.36,12.73,11.25,19.04c1.07-0.68,2.15-1.36,3.22-2.03
		c-2.19-3.58-5.16-6.92-6.35-10.8c-1.33-4.31-3.14-11.3-1.05-13.31c6.28-6.07,8.88-22.73,2.26-28.72
		c-5.89-5.33-5.94-9.61-0.34-15.32c2.53-2.58,3.03-7.16,5.12-12.57c-14.34,4.83-25.63,8.63-37.03,12.47
		c0.68,1.35,1.42,2.81,2.25,4.46C244.52,260.22,242.37,260.76,239.46,261.5z M346.47,416.57c-21.7-36.71-7.82-76.03-12.43-112.25
		c-3.07,2.53-6.65,5.65-10.4,8.55c-5.86,4.53-8.01,23.29-2.24,27.77c7.83,6.08,6.17,10.76-0.18,16.22
		c-1.34,1.15-2.31,3.34-2.48,5.15c-1.81,18.86,1.79,36.01,16.96,48.9C338.7,413.48,342.85,414.72,346.47,416.57z M131.03,413.49
		c9.61-10,10.82-13.79,10.67-31.46c1.53,0.85,3.02,1.67,2.91,1.6c2.23-24.22,4.48-48.6,6.73-72.98c-3.06,0.49-3.57,1.39-4.33,1.95
		c-0.85,0.61-1.93,0.91-4.09,1.87c0-9.47,0-17.68,0-25.89c-4.03,11.76-7.04,23.54-9.56,35.43c-0.98,4.61-2.04,9.73-1.01,14.15
		C138.09,362.85,136.9,387.34,131.03,413.49z M351.85,340.27c-1.02,4.3-1.69,7.11-2.7,11.38c-2.55-4.21-4.37-7.22-6.61-10.92
		c-7.79,16.04-2.46,30.48,0.26,44.35c3.81-10.52,7.67-21.16,11.52-31.8c3.59,12.22,1.38,24.77,7.63,37.3
		c0.46,4.05,1.14,10.04,1.82,16.03c6.11-20.39,11.95-39.9,17.32-57.83c-11.97,6.25-9.18-13.26-17.69-13.64c0,6.7,0,13.43,0,20.17
		c-0.62,0.16-1.25,0.33-1.87,0.49C358.57,351.06,355.62,346.32,351.85,340.27z M454.76,403.25c0.61-0.27,1.23-0.55,1.84-0.82
		c0-18.83-3.01-38.3,0.77-56.33c4.56-21.76-6.81-39.75-9.29-59.9c0,8.4,0,16.81,0,26.75c-3.33-2.64-4.94-3.92-8.48-6.73
		c2.54,26.56,4.88,50.95,7.18,75c-0.16,0.08,1.34-0.68,1.36-0.69C450.37,388.18,452.57,395.71,454.76,403.25z M341.47,394.62
		c14.36,28.08,29.98,40.48,46.1,38.5c-4.32-17.05-8.68-34.25-13.35-52.68c-1.19,13.49-2.31,26.24-3.64,41.39
		c-13.65-14-19.84-28.16-20.74-45.29c-0.86,6.45-1.73,12.89-2.6,19.37C345.4,395.51,343.96,395.18,341.47,394.62z M217.17,383.29
		c-4.62,18.11-8.94,35.02-14.14,55.38c8.32-4.7,15-8.29,21.49-12.21c3.26-1.97,6.14-4.55,9.22-6.81c1.82-1.33,4.29-2.19,5.45-3.94
		c3.72-5.62,6.96-11.55,10.93-18.29c-2.82,0.48-4.55,0.77-6.28,1.06c-0.82-6.42-1.6-12.5-2.37-18.58
		c-1.85,19.85-8.96,33.92-21.21,39C219.24,407.14,218.24,395.58,217.17,383.29z M167.32,247.95c-24.15,10.7-18.84,31.94-20.36,54
		c5.83-8.65,9.97-14.78,14.11-20.92c0.67,0.26,1.34,0.52,2.02,0.79c0.39,6.4,0.79,12.79,1.18,19.19c1.02-0.02,2.03-0.03,3.05-0.05
		C167.32,283.3,167.32,265.63,167.32,247.95z M282.06,214.95c5.75,3.56,10.16,6.04,14.29,8.92c4.09,2.85,7.89,6.09,13.37,10.38
		c2.08-0.62,7.08-2.1,11.98-3.55C317.01,204.92,314.6,203.94,282.06,214.95z M265.2,194.86c-9.5,5.4-10.77,14.14-3.41,27.93
		c8.82-5.1,17.59-10.17,23.99-13.87C280.13,205.07,273.53,200.56,265.2,194.86z M274.15,463.8c-15.62-2.16-20.44,1.58-20.94,16.45
		c-0.06,1.71,1.73,4.74,3.1,5.02c6.15,1.27,15.05-6.02,16.18-12.61C272.99,469.71,273.59,466.77,274.15,463.8z M319.37,463.35
		c-0.77,17.76,0.44,18.96,19.83,20.19C335.3,462.07,335.3,462.07,319.37,463.35z M253.08,316.87
		c-10.74,7.83-24.92,11.48-21.11,30.32c3.14-6.94,5.58-12.37,9.17-20.31c1.65,5.43,2.38,7.87,3.29,10.87
		c1.65-2.5,2.72-4.13,4.06-6.17c1.33,2.22,2.39,3.99,4.59,7.66C253.08,330.77,253.08,324.5,253.08,316.87z M342.61,328.89
		c1.72,2.6,2.94,4.44,4.33,6.53c0.97-3.13,1.74-5.63,3.26-10.51c3.64,7.73,6.12,13.01,9.34,19.88c0.33-16.85,0.33-16.85-21.4-29.8
		c0,6.73,0,13.36,0,22.09C340.14,333.42,341.17,331.53,342.61,328.89z M445,438.21c1.01-0.01,2.02-0.02,3.03-0.02
		c6.8-13.3-1.09-25.32-5.73-37.64C443.2,413.1,444.1,425.65,445,438.21z M179.89,315.97c1.81-10.74,5.3-22.01-9.57-29.57
		C173.91,297.5,176.9,306.73,179.89,315.97z M420.44,285.29c-12.26,8.55-12.42,9.1-8.81,27.21
		C414.56,303.43,417.5,294.36,420.44,285.29z M339.69,464.46c1.54,4.88,2.81,9.73,4.69,14.32c0.58,1.41,2.77,2.45,4.44,2.97
		c0.69,0.22,2.45-1.16,2.86-2.16C354.35,473.07,347.54,464.12,339.69,464.46z"/>
	<path class="st0" d="M480.93,301.37c-4.09-5.01-8.18-10.02-13-15.93c0.06,23.67-2.86,45.69,9.2,65.6
		c-8.84-8.59-15.96-16.75-14.92-30.5c0.6-7.9-5.28-16.28-8.7-25.73c2.35,0.57,3.8,0.93,6.4,1.56c0-5.06-0.37-10.03,0.1-14.92
		c0.49-5.08,0.42-11,3.05-14.9c4.39-6.53-2.98-9.25-2.97-14.32c0.02-6.46-1.88-12.93-5.24-19.04c0.57,9.41,1.14,18.82,1.71,28.23
		c-0.76,0.18-1.52,0.35-2.28,0.53c-4.93-13.2-9.85-26.41-14.78-39.61c-1.23,0.38-2.46,0.76-3.7,1.13c1.9,8.55,3.81,17.1,6.07,27.25
		c-7.84-7.36-14.49-13.6-23.24-21.82c0.8,11.1,0.7,20.08,2.26,28.77c1.8,10.01,1.36,18.54-6.45,26.26
		c-4.92,4.86-8.41,11.16-13.28,17.82c-1.8-6.41-3.29-11.75-5.15-18.37c-4.38,11.59,7.29,24.38-6.11,33.19
		c-1.58-6.4-3.07-12.45-5.27-21.38c-5.52,16.66,5,32.18-5.96,46.04c-2.77-9.16-5.33-17.61-7.9-26.06c-0.97,0.22-1.94,0.43-2.92,0.65
		c0.81,5.08,1.62,10.17,2.34,14.75c-7.34-5.11-14.7-10.42-22.26-15.45c-9.37-6.24-12.15-15.15-7.95-25.38
		c1.49-3.62,1.82-7.73,3.42-11.29c1.47-3.26,3.93-6.08,5.9-9.02c13.42,6.11,22.35,5.48,30.34-6.42c7.4-11.02,13-23.89,16.54-36.72
		c5.92-21.45,15.4-28.99,37.55-25.44c6.34,1.02,12.69,2.44,18.75,4.51c12.16,4.16,17.22,13.66,17.86,25.94
		c0.18,3.4,0.16,6.83-0.12,10.22c-1.74,20.98,3.63,40.17,14.2,58.15c0.67,1.14,0.01,3.06-0.03,4.62
		C483.25,303.33,482.09,302.35,480.93,301.37z"/>
	<path d="M357.4,202.43c-4.64,2.18-9.28,4.37-13.92,6.55c-0.78-0.82-1.56-1.64-2.34-2.45c5.03-6.26,10.06-12.52,15.62-19.44
		c-7.37,2.43-14.27,4.7-22.43,7.38c-1.71-12.52,11.9-9.98,14.95-17.33c-2.32,0.16-4.34,0.31-6.36,0.45
		c-0.09-0.74-0.17-1.48-0.26-2.22c5.35-1.06,10.71-2.12,16.06-3.17c0.38,0.95,0.76,1.9,1.14,2.85c-5.45,3.56-10.89,7.11-16.34,10.67
		c0.13,0.39,0.27,0.78,0.4,1.18c6.83-2.25,13.65-4.49,23.42-7.71c-5.99,8.4-10.31,14.47-14.86,20.86c1.61,0.82,3.25,1.65,4.91,2.51
		C357.43,202.57,357.4,202.43,357.4,202.43z"/>
	<path class="st0" d="M312.22,687.98c-4.63-13.87-8.45-25.28-13.23-39.59c-5.04,14.07-9.1,25.39-13.91,38.81
		c-11.34-4.63-22.04-9-33.53-13.7c5.34-12.48,9.96-23.3,15.86-37.08c-12.94,6.36-23.37,11.49-35.58,17.5
		c-4.93-10.78-9.62-21.03-14.87-32.5c13.95-5.18,26.19-9.73,41.21-15.31c-13.01-4.4-23.36-8.18-33.89-11.35
		c-5.3-1.59-7.6-4.02-5.46-9.48c3.65-9.33,7.28-18.66,11.22-28.75c13.86,6.59,25.73,12.24,40.37,19.2
		c-7.03-14.45-12.84-26.42-19.19-39.47c7.28-3.83,14.05-7.39,23.67-12.45c4.33,11.41,8.95,21.23,11.77,31.55
		c4.26,15.57,7.27,31.49,12.84,47.41c6.2-26.21,12.4-52.41,19.05-80.53c10.16,4.46,18.98,8.33,29.13,12.79
		c-6.5,13.51-12.41,25.79-19.61,40.76c14.9-7.18,26.99-13.01,41.17-19.85c4.79,11.84,9.27,22.9,14.29,35.3
		c-14.82,5.05-27.8,9.46-43.68,14.87c15.34,5.65,27.85,10.27,42.35,15.61c-4.87,11.05-9.42,21.35-14.47,32.79
		c-12.33-6.04-23.13-11.33-36.41-17.83c5.61,13.5,10.21,24.58,15.57,37.49C335.27,678.79,324.44,683.11,312.22,687.98z"/>
	<path class="st0" d="M110.36,356.79c10.02-12.85,13.35-27.69,13.12-43.63c-0.11-7.75-0.02-15.49-0.02-23.7
		c-5.02,4.33-10.33,8.91-17.91,15.45c4.41-7.74,8.96-12.73,10.15-18.42c2.71-12.86,5.96-26.23,5.07-39.12
		c-2.29-33.04,10.53-41.7,41.6-44.52c19.1-1.73,28.34,5.99,32.1,24.98c3.1,15.66,8.47,30.27,20.44,41.4
		c7.57,7.03,16.12,10.38,27.49,1.03c3.77,10.26,8.04,19.37,10.35,28.95c2.06,8.52-3.37,14.42-10.41,18.94
		c-7.09,4.54-13.87,9.56-20.9,14.44c0.57-4.26,1.21-9.09,1.85-13.91c-0.85-0.26-1.7-0.52-2.55-0.78c-2.64,8.5-5.28,16.99-8.05,25.92
		c-11.18-13.88-0.52-29.4-5.52-46.24c-2.38,8.74-4.07,14.94-5.88,21.55c-13.22-9.15-1.85-21.74-5.77-33.76
		c-2.02,6.93-3.62,12.43-5.35,18.36c-6.37-8-12.97-14.93-17.82-22.92c-2.59-4.26-3.26-10.45-2.84-15.61
		c0.76-9.39,2.97-18.67,4.98-30.33c-8.84,7.79-16.14,14.23-24.19,21.33c-0.73-5.67-1.36-10.55-1.99-15.43
		c-0.91-0.09-1.81-0.17-2.72-0.26c-2.7,8.06-5.41,16.12-8.11,24.18c-0.71-0.11-1.42-0.21-2.13-0.32c0-6.41,0-12.83,0-19.24
		c-0.9-0.02-1.8-0.05-2.7-0.07c0,2.62,0,5.25,0,7.87c0,2.86,0,5.71,0,8.57c-0.87,0.11-1.73,0.21-2.6,0.32
		c-0.85-5.65-1.71-11.29-2.56-16.94c-0.88-0.01-1.76-0.01-2.64-0.02c0.67,6.39-0.21,13.5,2.33,19.04
		c5.44,11.88,6.55,23.3-0.93,37.94c5.47-2.55,7.86-3.66,10.48-4.88c0.15,0.83,0.68,1.84,0.42,2.58c-4.01,11.47-8.74,22.2-9.05,35.27
		c-0.2,8.24-9.97,16.25-15.44,24.36c-0.67-0.9-1.34-1.8-2.02-2.69C110.63,356.46,110.36,356.79,110.36,356.79z"/>
	<path class="st0" d="M171.11,304.88c4.22,8.69,8.45,17.38,12.67,26.08c0.75-0.21,1.51-0.42,2.26-0.63c0-8.14,0-16.29,0-24.43
		c0.73-0.33,1.47-0.66,2.2-0.99c8.06,15.71,16.13,31.41,25.13,48.96c4.69-5.63,9.34-11.22,14.68-17.64
		c-0.46,7.69-0.85,14.36-1.25,21.03c0.78,0.35,1.56,0.7,2.34,1.05c3.19-4.73,6.38-9.47,9.92-14.71c0.98,3.29,1.88,6.35,3.13,10.56
		c2.41-4.07,4.21-7.12,6.56-11.1c7.24,16.68,3.33,31.64-0.92,44.88c-3.24-9.88-6.85-20.92-10.46-31.95
		c-0.53,0.02-1.05,0.05-1.58,0.07c-2.64,17.63-5.28,35.27-8.07,53.88c-6.7-22.11-12.93-42.69-19.17-63.28
		c-1.49,0.26-2.99,0.52-4.48,0.78c0.88,5.44,1.84,10.86,2.63,16.32c0.97,6.67,1.8,13.35,2.97,22.11c-3.93-2.79-6.12-4.34-10.32-7.32
		c3.25,6.96,5.57,11.93,7.89,16.9c-0.64,0.32-1.28,0.64-1.92,0.97c-1.63-2.73-3.27-5.45-4.9-8.18c-0.5,0.18-1,0.37-1.51,0.55
		c1.83,5.77,3.65,11.53,5.48,17.3c-0.43,0.23-0.87,0.46-1.3,0.69c-1.59-2.4-3.17-4.8-4.88-7.38c-8.41,12.01,5.68,29.85-13.25,40.55
		c0-11.44,0.62-21.37-0.16-31.18c-0.91-11.43-3.23-22.74-4.59-34.14c-0.89-7.53-2.64-15.39-1.4-22.65
		c2.29-13.36-1.47-24.73-7.36-36.16c-1.7-3.29-1.78-7.42-2.6-11.17C169.6,304.73,170.36,304.81,171.11,304.88z"/>
	<path class="st0" d="M442.34,272.03c1.19,9.71,2.39,19.43,3.9,31.74c-5.95-9.78-10.65-17.51-15.36-25.24
		c-0.65,0.25-1.3,0.5-1.95,0.75c0,7.63,0,15.26,0,22.9c0.59,0.05,1.19,0.09,1.78,0.14c0.54-3.09,1.08-6.19,1.68-9.61
		c6.51,5.18,8.37,10.77,5.33,18.74c-1.86,4.85-2.86,11.09-1.49,15.92c7.07,24.99,2.78,49.95,1.28,74.98
		c-0.75,12.43-0.13,24.94-0.13,38.2c-3.66-0.17-6.5-0.31-8.69-0.41c0-6.49,0-12.14,0-20.39c-3.46,3.83-4.74,5.24-7.31,8.1
		c1.24-5.14,2.05-8.5,3.47-14.42c-2.64,2.83-3.7,3.97-4.76,5.1c-9.13-12.9-2.97-24.73,1.85-37.13c-2.4,3.59-4.8,7.18-8.38,12.53
		c2.37-20.12,4.48-38.1,6.55-55.68c-0.51,0.34-2.07,1.38-3.67,2.46c1.84-9.62,3.57-18.62,5.29-27.62c0.84-0.06,1.67-0.11,2.51-0.17
		c1.12,2.31,2.24,4.61,3.85,7.94c8.41-10.66-4.34-15.77-4.38-23.64c-0.04-8.9-0.96-17.44,1.22-26.58c1.9-7.94-0.94-17.02-1.87-27.69
		c8.61,9.77,22.62,13.37,19.24,29.08L442.34,272.03z"/>
	<path class="st0" d="M406.04,437.3c-8.79-6.72-12.74-14.16-10.59-24.34c1.02-4.84-0.43-10.2-2.58-15.68
		c-1.35,2.37-2.7,4.75-4.05,7.12c-0.6-0.19-1.2-0.38-1.8-0.57c1.75-5.64,3.51-11.28,5.26-16.92c-0.43-0.23-0.86-0.45-1.29-0.68
		c-1.61,2.51-3.22,5.03-4.83,7.54c-0.61-0.29-1.23-0.58-1.84-0.87c2.26-4.99,4.51-9.97,8.01-17.72c-4.28,3.58-6.22,5.2-9.88,8.26
		c0.64-8.06-0.79-15.78,2.24-20.82c3.01-5,3.03-9.6,1.7-13.4c-4.52-12.83,2.51-21.89,8.48-31.53c2.92-4.71,5.75-9.47,10.42-13.69
		c-0.35,7.91-0.69,15.82-1.04,23.73c0.91,0.36,1.83,0.73,2.74,1.09c4.43-8.88,8.85-17.77,13.28-26.65c0.62,0.08,1.23,0.16,1.85,0.23
		c-0.75,3.65-0.74,7.71-2.4,10.89c-6.14,11.75-9.79,23.51-7.14,37.19c1.27,6.57,0.54,14.18-1.49,20.62
		c-5.55,17.58-5.73,35.44-5.06,53.49C406.17,428.82,406.04,433.06,406.04,437.3z"/>
	<path class="st0" d="M171.02,421.2c-0.94-1.48-1.73-2.71-2.52-3.94c-0.62,0.25-1.24,0.5-1.87,0.75c0.97,3.27,1.93,6.54,2.9,9.82
		c-0.45,0.47-0.9,0.94-1.36,1.41c-1.14-1.45-2.28-2.9-4.61-5.86c-0.8,5.8-1.48,10.75-2.29,16.71c-6.06,2.61-7.84-0.89-7.47-7.87
		c0.76-14.13,1.79-28.29,1.55-42.42c-0.14-7.94-3.65-15.82-3.74-23.75c-0.11-10.41,1.9-20.83,2.54-31.28
		c0.41-6.65,1.4-13.75-0.4-19.92c-2.27-7.75-1.94-13.69,5.61-20.19c0.58,9.72,1.11,18.42,1.63,27.12c0.68,0.22,1.36,0.44,2.04,0.66
		c1.32-2.19,2.64-4.38,4.68-7.77c1.99,4.47,3.97,8.21,5.26,12.18c0.5,1.53-0.59,3.56,0.05,5.64c0,7.41,0.03,14.82-0.02,22.23
		c-0.02,3.03-0.69,6.13-0.27,9.09c1.4,9.91,3.17,19.77,3.29,30.25c-2.24-3.45-4.48-6.9-6.72-10.35
		C173.01,396.04,180.77,407.8,171.02,421.2z"/>
	<path class="st0" d="M243.84,416.17c22.51-34.61,8.76-73.33,13.7-111.21c8.35,10.56,16.5,20.84,25.01,31.59
		c-9.65,7.27-15.42,13.32-4.13,21.05c1.28,0.88,1.7,3.51,1.89,5.4c2.16,20.89-5.16,38.02-21.53,50.91
		c-3.67,2.89-9.11,3.54-13.74,5.22C244.64,418.15,244.24,417.16,243.84,416.17z"/>
	<path class="st0" d="M239.46,261.5c2.91-0.74,5.06-1.28,7.35-1.86c-0.83-1.65-1.57-3.11-2.25-4.46c11.4-3.84,22.7-7.64,37.03-12.47
		c-2.09,5.41-2.59,9.99-5.12,12.57c-5.59,5.71-5.55,9.99,0.34,15.32c6.62,5.99,4.02,22.65-2.26,28.72c-2.08,2.01-0.27,9,1.05,13.31
		c1.2,3.88,4.17,7.22,6.35,10.8c-1.07,0.68-2.15,1.36-3.22,2.03c-3.89-6.31-9.29-12.18-11.25-19.04
		c-1.94-6.82-0.43-14.62-0.43-21.99c-0.93-0.02-1.86-0.03-2.79-0.05c-0.32,6.19-0.64,12.38-0.98,18.98
		c-12.63-10.72-13.8-20.2-3.4-31.51c-4.26,1.49-7.55,2.64-11.41,3.99C245.51,271.09,242.65,266.56,239.46,261.5z"/>
	<path class="st0" d="M346.47,416.57c-3.62-1.85-7.76-3.1-10.78-5.66c-15.16-12.89-18.77-30.04-16.96-48.9
		c0.17-1.8,1.14-3.99,2.48-5.15c6.35-5.46,8.01-10.14,0.18-16.22c-5.77-4.48-3.62-23.24,2.24-27.77c3.75-2.9,7.33-6.02,10.4-8.55
		C338.65,340.54,324.77,379.86,346.47,416.57z"/>
	<path class="st0" d="M131.03,413.49c5.87-26.15,7.06-50.64,1.31-75.33c-1.03-4.41,0.04-9.54,1.01-14.15
		c2.52-11.89,5.52-23.67,9.56-35.43c0,8.21,0,16.42,0,25.89c2.16-0.96,3.24-1.25,4.09-1.87c0.76-0.55,1.27-1.46,4.33-1.95
		c-2.25,24.38-4.5,48.76-6.73,72.98c0.11,0.06-1.37-0.76-2.91-1.6C141.85,399.7,140.64,403.49,131.03,413.49z"/>
	<path class="st0" d="M351.85,340.27c3.77,6.05,6.72,10.79,9.68,15.53c0.62-0.16,1.25-0.33,1.87-0.49c0-6.74,0-13.47,0-20.17
		c8.51,0.38,5.72,19.9,17.69,13.64c-5.37,17.93-11.21,37.44-17.32,57.83c-0.68-5.99-1.36-11.99-1.82-16.03
		c-6.25-12.54-4.04-25.09-7.63-37.3c-3.86,10.64-7.71,21.28-11.52,31.8c-2.72-13.87-8.05-28.31-0.26-44.35
		c2.24,3.7,4.06,6.71,6.61,10.92C350.16,347.38,350.83,344.57,351.85,340.27z"/>
	<path class="st0" d="M454.76,403.25c-2.19-7.54-4.39-15.08-6.62-22.73c-0.02,0.01-1.52,0.77-1.36,0.69
		c-2.3-24.05-4.64-48.44-7.18-75c3.55,2.81,5.16,4.09,8.48,6.73c0-9.94,0-18.34,0-26.75c2.48,20.15,13.85,38.14,9.29,59.9
		c-3.78,18.04-0.77,37.5-0.77,56.33C455.99,402.71,455.38,402.98,454.76,403.25z"/>
	<path class="st0" d="M341.47,394.62c2.49,0.56,3.94,0.89,5.77,1.3c0.87-6.48,1.73-12.93,2.6-19.37
		c0.9,17.13,7.09,31.29,20.74,45.29c1.33-15.15,2.45-27.9,3.64-41.39c4.67,18.44,9.03,35.63,13.35,52.68
		C371.45,435.1,355.83,422.7,341.47,394.62z"/>
	<path class="st0" d="M217.17,383.29c1.06,12.29,2.07,23.86,3.08,35.61c12.25-5.07,19.35-19.15,21.21-39
		c0.78,6.08,1.55,12.16,2.37,18.58c1.72-0.29,3.46-0.58,6.28-1.06c-3.97,6.74-7.21,12.67-10.93,18.29
		c-1.16,1.75-3.63,2.61-5.45,3.94c-3.08,2.26-5.97,4.84-9.22,6.81c-6.49,3.92-13.17,7.51-21.49,12.21
		C208.23,418.31,212.55,401.4,217.17,383.29z"/>
	<path class="st0" d="M167.32,247.95c0,17.68,0,35.35,0,53.02c-1.02,0.02-2.03,0.03-3.05,0.05c-0.39-6.4-0.79-12.79-1.18-19.19
		c-0.67-0.26-1.34-0.52-2.02-0.79c-4.14,6.13-8.27,12.27-14.11,20.92C148.47,279.89,143.17,258.65,167.32,247.95z"/>
	<path class="st0" d="M282.06,214.95c32.54-11.01,34.96-10.02,39.64,15.74c-4.9,1.45-9.89,2.94-11.98,3.55
		c-5.48-4.28-9.28-7.53-13.37-10.38C292.21,220.99,287.8,218.5,282.06,214.95z"/>
	<path class="st0" d="M265.2,194.86c8.33,5.69,14.93,10.2,20.58,14.06c-6.4,3.7-15.17,8.77-23.99,13.87
		C254.42,209.01,255.69,200.26,265.2,194.86z"/>
	<path class="st0" d="M274.15,463.8c-0.56,2.96-1.16,5.9-1.67,8.86c-1.13,6.59-10.03,13.88-16.18,12.61
		c-1.37-0.28-3.16-3.31-3.1-5.02C253.71,465.39,258.53,461.64,274.15,463.8z"/>
	<path class="st0" d="M319.37,463.35c15.92-1.28,15.92-1.28,19.83,20.19C319.81,482.31,318.6,481.11,319.37,463.35z"/>
	<path class="st0" d="M253.08,316.87c0,7.63,0,13.89,0,22.36c-2.2-3.67-3.26-5.44-4.59-7.66c-1.34,2.04-2.41,3.67-4.06,6.17
		c-0.91-3-1.65-5.43-3.29-10.87c-3.59,7.94-6.04,13.36-9.17,20.31C228.16,328.35,242.34,324.71,253.08,316.87z"/>
	<path class="st0" d="M342.61,328.89c-1.44,2.64-2.47,4.53-4.47,8.2c0-8.73,0-15.36,0-22.09c21.73,12.95,21.73,12.95,21.4,29.8
		c-3.23-6.87-5.71-12.14-9.34-19.88c-1.51,4.89-2.29,7.38-3.26,10.51C345.55,333.33,344.33,331.48,342.61,328.89z"/>
	<path class="st0" d="M445,438.21c-0.9-12.55-1.8-25.11-2.7-37.66c4.64,12.32,12.53,24.34,5.73,37.64
		C447.02,438.19,446.01,438.2,445,438.21z"/>
	<path class="st0" d="M179.89,315.97c-2.99-9.23-5.98-18.47-9.57-29.57C185.19,293.96,181.69,305.22,179.89,315.97z"/>
	<path class="st0" d="M420.44,285.29c-2.94,9.07-5.88,18.14-8.81,27.21C408.02,294.39,408.18,293.83,420.44,285.29z"/>
	<path class="st0" d="M339.69,464.46c7.85-0.34,14.65,8.61,12,15.13c-0.41,1-2.17,2.38-2.86,2.16c-1.67-0.52-3.86-1.57-4.44-2.97
		C342.5,474.19,341.24,469.34,339.69,464.46z"/>
	<path class="st0" d="M442.32,272.01c1.76-3.43,3.51-6.87,5.47-10.69c2.94,6.67,6.17,13.99,10.39,23.53
		c-6.76-5.47-11.29-9.14-15.83-12.81C442.34,272.03,442.32,272.01,442.32,272.01z"/>
</g>
</svg>
