<?xml version="1.0" encoding="utf-8"?>
<!-- Generator: Adobe Illustrator 24.3.0, SVG Export Plug-In . SVG Version: 6.00 Build 0)  -->
<svg version="1.1" id="Layer_1" xmlns="http://www.w3.org/2000/svg" xmlns:xlink="http://www.w3.org/1999/xlink" x="0px" y="0px"
	 viewBox="0 0 612 792" style="enable-background:new 0 0 612 792;" xml:space="preserve">
<style type="text/css">
	.st0{fill:#FFFFFF;}
</style>
<g>
	<path class="st0" d="M609.66,625c-201.52,0-403.03,0-604.66,0c0-152.26,0-304.55,0-457.01c201.48,0,403.07,0,604.66,0
		C609.66,320.24,609.66,472.61,609.66,625z M276.45,444.08c-6.73,3.68-13.46,7.36-20.19,11.04c0.17,0.84,0.35,1.68,0.52,2.51
		c2.54,0.16,5.58,1.3,7.53,0.31c5.77-2.93,10.94-6.84,12.06-13.97c6.02,3.19,12.03,2.32,18.35,0.67c3.99-1.04,4.67-2.6,2.76-7.13
		C290.42,439.72,283.43,441.9,276.45,444.08z M343.35,443.86c-2.22-0.65-4.41-1.47-6.67-1.92c-5.26-1.04-10.55-1.91-15.83-2.84
		c0.41-1.67,0.82-3.35,1.43-5.85c25.85,2.96,52.29-1.57,77.05,7.99c0.81-3.41,1.62-6.82,2.43-10.23c1.99,14.48,1.99,14.48,7.7,16.53
		c0.17-2.15,0.34-4.39,0.55-7c4.9,11.54,9.49,22.34,14.07,33.14c0.56-0.11,1.12-0.22,1.67-0.33c0.62-2.81,1.72-5.61,1.77-8.43
		c0.25-15.07-8.17-27-15.51-39.3c0.52-0.33,1.04-0.65,1.56-0.98c2.75,3.47,5.51,6.95,9.23,11.64c-0.67-6.64-1.21-11.98-1.75-17.31
		c3.28,6.75,9.93,7.07,15.52,7.86c17.3,2.43,33.37,7.51,47.16,18.61c1.65,1.33,3.32,2.62,4.98,3.93c-0.22,0.29-0.44,0.57-0.66,0.86
		c-11.59-5.43-23.17-10.87-34.76-16.3c-0.29,0.51-0.59,1.02-0.88,1.53c8.67,12.51,26.69,15.35,32.52,30.34
		c-13.24,2.23-18.35-12.4-31.26-15.66c5.21,8.68,14.2,13.24,12.24,24.06c-5.96-7.58-11.92-15.16-17.88-22.75
		c-0.48,0.35-0.97,0.71-1.45,1.06c0.83,1.92,1.69,3.83,2.48,5.77c3.82,9.36,9.01,18.44,11.13,28.17
		c3.55,16.3,11.95,28.28,25.95,36.73c0.41-1.71,0.84-3.45,1.61-6.66c0.73,2.09,1.21,2.76,1.15,3.37
		c-0.64,6.02,1.31,11.06,4.03,16.51c3.37,6.74,9.21,11.84,11.28,19.51c1.43,5.27,5.24,9.9,8.06,14.77c0.6,1.04,1.52,1.89,2.29,2.82
		c0.64-0.32,1.29-0.63,1.93-0.95c-3.21-31.88-21.73-57.76-36.18-85.97c5.98,7.43,11.39,14.17,16.82,20.9
		c5.53,6.86,12.46,11.75,21.12,15.37c0-4.81,0-8.89,0-12.97c0.57-0.14,1.15-0.28,1.72-0.42c0.12,8.91,1.57,17.1,10.64,20.98
		c0.56-1.01,1.19-2.17,1.69-3.07c4.95,11.79,16.09,17.54,23.85,26.29c7.83,8.84,15.51,17.81,23.26,26.72
		c-2.55-14.4-7.93-27.65-17.14-38.11c-14.26-16.2-29.99-31.14-45.45-46.24c-6.31-6.16-13.57-11.35-20.22-16.83
		c9.98,3.19,20.18,6.45,30.67,9.81c-0.36-3.16-0.65-5.61-0.84-7.28c3.3,3.63,6.06,9.09,10.26,10.66c5.09,1.9,7.04,6.99,11.76,8.47
		c1.53,0.48,3.34,0.08,5.03,0.08c-0.41,0.36-0.82,0.72-1.23,1.08c8.12,7.74,16.13,15.59,24.38,23.18
		c8.25,7.6,11.63,19.75,24.15,25.93c-1.06-4.18-1.16-7.03-2.43-9.19c-12.84-21.99-28.95-41.4-49.56-56.28
		c-13.99-10.1-29.59-17.99-44.41-26.96c-1.63-0.99-3.41-2.33-4.22-3.95c-1.48-2.96-1.59-6.77-3.48-9.33
		c-13.23-17.8-32.15-26.43-52.74-32.56c-10.01-2.98-19.98-6.49-29.4-10.96c-7.36-3.5-13.83-8.85-19.67-12.7
		c1.5,6.58,3.52,14.7,5.14,22.9c0.89,4.48-0.66,7.9-5.95,7.9c-20.57-0.04-40.54-2.85-58.28-14.27
		c-7.13-4.59-12.43-11.04-13.58-19.65c-0.79-5.97-3.38-12.55,2.89-17.82c0.95-0.79,0.3-4.99-0.93-6.6
		c-3.65-4.76-3.54-12.94-0.04-17.67c1.26-1.7,1.41-5.8,0.21-7.47c-3.91-5.45-3.9-12.79,0.16-18.65c1.13-1.63,1.03-5.48-0.16-7.12
		c-3.78-5.22-3.79-13.06-0.14-18.18c1.23-1.72,1.22-5.79,0-7.5c-3.62-5.04-3.67-13.2,0.02-18.13c1.24-1.66,1.57-6.26,0.53-7
		c-4.79-3.4-3.06-8.01-3.19-12.21c-0.26-8.11,6.93-3.82,10.3-5.93c0.45-0.28,1.15-0.15,1.73-0.24c11.3-1.8,22.6-3.6,33.9-5.41
		c0.03-0.39,0.05-0.78,0.08-1.18c-10.29-3.41-20.58-6.82-32.5-10.78c9.3-3.51,16.88-6.37,24.47-9.23
		c-11.44-3.74-22.45-6.32-33.53-8.55c-3.53-0.71-5.2-2.3-6.19-5.79c-2.89-10.16-6.2-20.2-9.35-30.28
		c-4.06,9.48-7.18,18.88-9.72,28.43c-1.24,4.68-3.23,7.11-8.34,8c-10.84,1.88-21.52,4.62-34.08,7.41
		c9.48,3.63,17.29,6.62,26.34,10.09c-11.9,3.88-22.28,7.27-32.65,10.66c13.21,3.28,26.29,5.25,39.33,7.45
		c2.46,0.41,6.78,1.73,6.79,2.66c0.04,4.52,2.78,9.64-1.9,13.59c-3.39,2.87-3.21,5.87-0.04,8.94c3.47,3.35,3.54,13.49,0.14,16.66
		c-3.45,3.22-3.53,6.08,0.18,9.26c3.26,2.79,3.1,13.32-0.1,16.26c-3.46,3.19-3.57,6.06,0.03,9.3c3.43,3.08,3.13,13.48-0.33,16.68
		c-3.3,3.06-3.21,5.84,0.1,8.87c3.58,3.27,3.49,13.17-0.1,16.56c-3.02,2.85-2.88,5.47-0.38,8.67c1.38,1.77,2.62,4.12,2.77,6.3
		c1.08,15.55-6.68,26.1-19.92,32.87c-16.16,8.27-33.71,10.9-51.64,11.12c-7.27,0.09-9.09-2.28-7.67-9.5
		c1.51-7.68,3.6-15.25,5.59-23.46c-1.04,0.78-1.65,1.02-1.93,1.47c-10.11,15.74-26.01,22.47-43.05,26.8
		c-18.2,4.63-35.57,10.9-49.66,23.62c-5.35,4.83-10.66,10.91-12.94,17.48c-1.33,3.84-2.64,5.66-5.69,7.04
		c-38.77,17.6-69.62,44.21-91.65,80.77c-1.69,2.8-2.21,6.3-3.27,9.47c0.81,0.43,1.62,0.87,2.43,1.3c3.36-3.64,6.77-7.23,10.08-10.92
		c7.26-8.09,14.37-16.31,21.73-24.3c4.44-4.82,9.22-9.31,14.31-14.41c0.73-0.15,3.05,0.01,4.46-1.05c4.45-3.34,8.7-6.78,13.69-9.52
		c3.17-1.75,4.74-6.42,7.99-11.21c-0.71,4.04-1.14,6.54-1.69,9.63c10.59-3.36,20.68-6.57,30.77-9.77c-2.26,2.4-5.13,3.79-7.36,5.86
		c-17.28,16.05-34.91,31.76-51.49,48.51c-12.62,12.75-19.98,28.91-24.43,46.47c2.83-2.03,5.08-4.51,7.32-6.99
		c7.01-7.79,14.51-15.2,20.88-23.48c6.07-7.88,17.53-11.2,19-24.51c1.09,2.86,1.57,4.11,1.97,5.14
		c9.59-3.52,10.23-12.14,11.06-20.65c0.52,0.14,1.03,0.29,1.55,0.43c0,4.05,0,8.1,0,12.87c17.02-7.41,26.61-21.17,36.66-34.54
		c-1.01,2.82-2.34,5.37-3.8,7.83c-11.97,20.13-22.76,40.83-29.35,63.42c-1.26,4.32-1.01,9.08-1.45,13.63
		c0.62,0.09,1.25,0.19,1.87,0.28c0.58-0.71,1.27-1.37,1.72-2.15c2.98-5.22,6.5-10.25,8.68-15.79c2.01-5.1,5.19-9.26,7.85-13.85
		c3.77-6.5,9.09-12.93,7.03-21.54c-0.15-0.62,0.68-1.47,1.59-3.31c0.5,2.98,0.8,4.74,1.12,6.65c10.88-7.68,20.06-16.02,23.94-28.92
		c2.73-9.1,5.92-18.06,9.19-26.98c1.91-5.22,4.39-10.23,6.61-15.33c-9.04,4.86-11.35,16-20.78,21.45
		c-0.24-10.64,8.53-15.12,12.14-22.76c-2.08,0.16-3.99,0.53-5.35,1.59c-7.72,6-14.21,14.1-25.06,13.89
		c5.86-15.21,24.11-18.4,33.07-31.02c-0.35-0.52-0.71-1.04-1.06-1.56c-11.49,5.43-22.99,10.86-34.48,16.29
		c-0.23-0.43-0.45-0.87-0.68-1.3c6.39-4.24,12.62-8.73,19.2-12.65c11.28-6.72,24.42-7.25,36.76-10.45c4.38-1.14,8.68-2.62,13.21-4
		c-0.52,5.09-0.99,9.64-1.46,14.19c0.55,0.15,1.1,0.3,1.65,0.44c3.85-4.76,7.71-9.52,11.56-14.28
		c-2.55,11.85-14.97,17.33-17.71,29.26c1.66-0.09,2.69-0.14,5.45-0.28c-8.07,6.93-8.98,14.04-4.47,23.52
		c1.87-4.56,3.81-7.75,4.45-11.19c1.32-7.14,5.49-12.19,10.22-17.28c3.22-3.46,5.45-7.86,7.98-11.93c0.85-1.38,1.25-3.04,1.85-4.57
		c0.37,0.1,0.74,0.19,1.12,0.29c-0.27,2.8-0.55,5.59-0.7,7.11c10.05-2,20.03-4.9,30.19-5.81c15.15-1.36,30.42-1.44,45.65-1.76
		c2.22-0.05,4.47,1.55,6.7,2.39c-0.09,0.2-0.18,0.39-0.27,0.59c7.08,0.71,14.17,1.42,21.28,2.11c0.24,3.34,1.57,4.84,5.23,6.04
		c6.15,2.02,11.54,1.31,17.11-1.11c0.57,1.19,1.15,2.39,1.71,3.58c3.97,8.45,8.22,10.82,17.21,9.92c1.11-0.11,2.47,0.77,3.47,1.52
		c1.75,1.32,3.32,2.9,5.33,4.7c2.32-4.69,4.25-8.59,6.97-14.09c-5,2.42-8.36,4.24-11.89,5.65c-1.35,0.54-3.42,0.72-4.57,0.05
		C355.4,451.59,349.41,447.67,343.35,443.86z M394.27,514.51c0.04,3.44,0.09,6.87,0.13,10.31c-3.15,1.14-8.31,1.54-9.07,3.57
		c-1.95,5.2-2.89,11.22-2.37,16.74c0.35,3.67,1.18,6.53-2.55,8.24c-10.64,4.88-13.24,13.82-6.07,23.15
		c12.61-15.14,18.91-32.46,19.92-51.9c4.01-1.78,8.02-3.56,12.97-5.76c-5.03-1.6-9.08-2.88-13.13-4.17
		c-2.45-19.07-9.25-36.12-23.6-51.08c-0.82,3.01-2.55,6.27-1.78,7.04c4.23,4.25,4.61,11.82,11.92,13.56
		c1.45,0.35,3.6,4.39,3.06,5.25c-3.08,4.91,0.12,9.42,0.02,14.04C383.56,511.12,387.98,513.5,394.27,514.51z M225.54,515.01
		c3.67-2.67,10.64-1.65,9.82-9.32c-0.53-4.94,4.39-9.6,0.59-15.09c-0.71-1.03,1.83-6.31,3.28-6.5c5.84-0.76,5.63-6.52,8.87-9.21
		c4.52-3.75,2.48-7.8-0.19-12.61c2.21-2.1,4.38-4.17,6.75-6.41c-3.83-1.83-7.72-3.7-13.17-6.31c1.9,3.89,2.71,6.31,4.13,8.3
		c2.57,3.61,1.87,6.11-0.83,9.63c-4.83,6.29-9.84,12.9-12.63,20.2c-3.33,8.7-4.4,18.27-6.47,27.45c-4.25,1.08-8.5,2.16-12.74,3.24
		c0.06,0.47,0.11,0.93,0.17,1.4c3.51,1.23,7.01,2.46,10.63,3.74C224.44,520.18,224.99,517.59,225.54,515.01z M319.08,566.34
		c0,6.6,0,13.2,0,19.8c24.97-0.7,53.61-27.67,54.28-54.88c-5.25,0-10.5,0-15.74,0c1.82-2.75,0.12-3.66-2.2-4.49
		c-6.65-2.38-13.26-4.88-21.05-7.77c5.78-2.17,10.19-3.82,14.61-5.47c-0.1-0.4-0.19-0.8-0.29-1.2c-9.68,0-19.36,0-29.81,0
		c0-9.35,0-18.23,0-27.11c-0.36-0.01-0.73-0.03-1.09-0.04c-2.51,10.58-5.03,21.17-7.54,31.75c-0.46-0.06-0.92-0.11-1.38-0.17
		c-2.59-11.49-5.19-22.97-7.78-34.46c-0.4,0.04-0.8,0.07-1.2,0.11c0,9.81,0,19.61,0,30.18c-10.15,0-19.64,0-29.13,0
		c-0.01,0.33-0.03,0.66-0.04,0.98c4.53,1.67,9.06,3.33,14,5.15c-7.88,5.44-18.43,4.04-24.76,13.36c-4.18,0-9.52,0-14.85,0
		c1.34,26.05,32.33,56.39,55.11,53.65c-3.38-14.98,5.32-27.03,9.61-40.35c2.5,5.65,4.15,11.26,6.12,16.74
		C316.5,563.72,318.01,564.96,319.08,566.34z M177.09,475.16c-0.77-0.25-1.53-0.51-2.3-0.76c-0.62,0.85-1.37,1.64-1.84,2.57
		c-7.16,14.38-11.78,29.59-15.06,45.29c-4.15,19.84-0.99,38.77,6.72,57.14c1.05,2.51,3.25,4.53,4.98,6.86
		c7.84-7.52,6.59-26.3-2.42-41.04c2.14,1.22,3.62,2.07,4.98,2.84c2.19-5.76,4.2-11.04,6.21-16.33c1.7,3.38,1.9,6.49,2.46,9.53
		c1.81,9.77,3.31,19.77,10.23,27.52c2,2.24,5.41,3.22,8.18,4.77c0.58-3.05,1.66-6.1,1.63-9.14c-0.04-4.99-0.88-9.96-1.2-14.96
		c-0.21-3.22,0.18-6.5-0.23-9.68c-0.36-2.8-1.46-5.5-2.23-8.24c0.36-0.17,0.72-0.33,1.08-0.5c1.37,2.15,2.73,4.3,4.1,6.45
		c0.65-0.12,1.29-0.24,1.94-0.35c-0.45-3.77-0.21-7.81-1.55-11.24c-1.47-3.79-4.39-7.01-6.68-10.49c0.49-0.46,0.98-0.91,1.46-1.37
		c2.58,2.79,5.17,5.58,7.71,8.33c2.25-14.01,0.72-27.09-11.69-37.36c-0.72,7.01-1.41,13.81-2.1,20.6
		c-4.23-7.35,0.77-16.68-6.3-23.79c-1.5,2.78-2.66,4.94-3.83,7.12c-0.91-0.78-1.68-1.45-2.59-2.23c-2.85,9.21-5.53,17.88-8.21,26.55
		c-0.46-0.13-0.93-0.25-1.39-0.38C171.82,500.3,174.45,487.73,177.09,475.16z M447.71,582.56c10.28-15.58,14.22-32.32,13.14-49.79
		c-1.37-22.15-7.51-43.2-18.28-62.64c-0.84,0.21-1.69,0.42-2.53,0.63c2.61,12.6,5.22,25.19,7.83,37.79
		c-0.45,0.12-0.9,0.25-1.34,0.37c-2.69-8.66-5.37-17.31-8.17-26.3c-0.94,0.69-1.76,1.28-2.68,1.95c-1.21-2.23-2.35-4.34-3.8-7.01
		c-6.86,7.26-2.14,16.38-6.32,23.68c-0.63-6.91-1.27-13.82-1.98-21.6c-12.37,16.48-14.56,24.22-11.4,38.58
		c2.8-2.72,5.63-5.49,8.47-8.25c-9.55,15.43-10.07,17.18-5.72,22.88c1.3-2,2.59-4,3.19-4.93c0,6.51-0.29,13.71,0.08,20.87
		c0.37,6.95-5.69,13.98-0.05,21.41c17.4-9.4,16.02-27.15,20.92-42.34c1.93,5.23,3.85,10.47,5.83,15.82
		c1.41-0.63,2.97-1.33,5.42-2.43C441.04,553.19,439.52,573.48,447.71,582.56z M245.28,512.24c5.79,0,11.58,0,16.68,0
		c-0.51-8.36,2.91-15.27,7.6-22.31c7.56,3.58,14.75,6.99,23.34,11.06c-4.22-8.74-7.67-15.89-11.09-22.97
		c7.09-6.18,14.45-8.61,17.59-6.38c0-4.46,0-9.22,0-14.01C266.14,461.65,245.4,492.61,245.28,512.24z M373.65,512.24
		c-0.94-25.54-31.05-55.36-54.53-54.09c0,5.61,0,11.24,0,18.42c1.2-3.06,1.88-4.77,2.93-7.44c5.74,2.67,11.04,5.13,16.6,7.71
		c-4,8.3-7.48,15.53-11.67,24.22c8.94-4.26,16.26-7.75,24.06-11.47c3.87,7.44,9.57,13.75,6.5,22.66
		C362.81,512.24,368.23,512.24,373.65,512.24z M305.88,606.65c-1.92-5.07-2.44-11.17-4.97-12.17c-5.72-2.26-12.45-1.91-18.75-2.82
		c-2.57-0.37-7.12-1-7.25-1.98c-0.88-6.55-7.03-7.26-10.71-10.54c-0.84-0.75-2.95-0.74-4.15-0.26c-3.01,1.18-5.83,2.83-9.26,4.56
		C266.35,597.74,283.95,605.51,305.88,606.65z M313.66,606.53c21.52-0.98,38.92-9.12,54.12-22.95c-10.42-7.68-16.92-5.9-22.5,5.72
		c-1.67,3.49-4.45,3.8-7.84,2.32c-1.43-0.62-3.21-0.99-4.72-0.76c-4.02,0.62-8.02,1.5-11.95,2.56c-1.29,0.35-2.89,1.32-3.4,2.44
		C315.97,599.01,315.06,602.37,313.66,606.53z M224.64,523.95c0.66,20.84,7.51,38,20.34,53.33c7.42-10.95,5.07-18.43-6.18-24.2
		c-1.66-0.85-3.21-5.61-2.33-7.03c3.11-5.04-1.09-8.97-0.99-13.43C235.64,525.69,229.72,526.09,224.64,523.95z M309.04,616.26
		c0.41,0.01,0.82,0.02,1.24,0.03c0.94-2.97,1.89-5.95,3.02-9.49c-3.04,0.17-5.01,0.29-7.42,0.43
		C307.1,610.72,308.07,613.49,309.04,616.26z M245.51,577.75c-1.82,3.52-3.28,6.37-5.56,10.77c4.48-2.2,7.22-3.55,10.38-5.1
		C248.85,581.69,247.63,580.25,245.51,577.75z M377.84,587.67c0.25-0.37,0.49-0.74,0.74-1.11c-1.48-2.86-2.96-5.72-4.73-9.15
		c-2,2.15-3.47,3.74-5.3,5.7C372.16,584.88,375,586.27,377.84,587.67z"/>
	<path d="M321,438.95c-7.08-0.71-14.17-1.42-21.25-2.13c0.09-0.2,0.18-0.39,0.27-0.59c-2.24-0.84-4.49-2.43-6.7-2.39
		c-15.23,0.33-30.5,0.4-45.65,1.76c-10.16,0.91-20.14,3.81-30.19,5.81c0.15-1.52,0.42-4.32,0.7-7.11c-0.37-0.1-0.74-0.19-1.12-0.29
		c-0.6,1.53-1,3.19-1.85,4.57c-2.52,4.07-4.76,8.47-7.98,11.93c-4.73,5.09-8.9,10.14-10.22,17.28c-0.63,3.44-2.58,6.63-4.45,11.19
		c-4.51-9.48-3.6-16.59,4.47-23.52c-2.77,0.14-3.8,0.2-5.45,0.28c2.75-11.93,15.16-17.4,17.71-29.26
		c-3.85,4.76-7.71,9.52-11.56,14.28c-0.55-0.15-1.1-0.3-1.65-0.44c0.47-4.55,0.93-9.1,1.46-14.19c-4.53,1.38-8.83,2.86-13.21,4
		c-12.34,3.21-25.48,3.73-36.76,10.45c-6.58,3.92-12.81,8.42-19.2,12.65c0.23,0.43,0.45,0.87,0.68,1.3
		c11.49-5.43,22.99-10.86,34.48-16.29c0.35,0.52,0.71,1.04,1.06,1.56c-8.96,12.61-27.21,15.81-33.07,31.02
		c10.85,0.21,17.34-7.89,25.06-13.89c1.37-1.06,3.27-1.43,5.35-1.59c-3.6,7.64-12.38,12.12-12.14,22.76
		c9.44-5.44,11.75-16.58,20.78-21.45c-2.22,5.1-4.69,10.11-6.61,15.33c-3.27,8.92-6.46,17.89-9.19,26.98
		c-3.87,12.9-13.05,21.24-23.94,28.92c-0.32-1.91-0.62-3.67-1.12-6.65c-0.92,1.84-1.74,2.69-1.59,3.31
		c2.06,8.61-3.26,15.04-7.03,21.54c-2.66,4.59-5.84,8.75-7.85,13.85c-2.19,5.54-5.7,10.57-8.68,15.79
		c-0.45,0.79-1.14,1.44-1.72,2.15c-0.62-0.09-1.25-0.19-1.87-0.28c0.45-4.55,0.19-9.31,1.45-13.63
		c6.59-22.59,17.37-43.29,29.35-63.42c1.47-2.47,2.79-5.02,3.8-7.83c-10.05,13.37-19.64,27.12-36.66,34.54c0-4.77,0-8.82,0-12.87
		c-0.52-0.14-1.03-0.29-1.55-0.43c-0.84,8.51-1.48,17.13-11.06,20.65c-0.39-1.03-0.87-2.28-1.97-5.14
		c-1.47,13.31-12.93,16.62-19,24.51c-6.37,8.28-13.87,15.69-20.88,23.48c-2.24,2.49-4.49,4.97-7.32,6.99
		c4.45-17.56,11.81-33.72,24.43-46.47c16.58-16.75,34.21-32.47,51.49-48.51c2.23-2.07,5.1-3.46,7.36-5.86
		c-10.09,3.2-20.18,6.41-30.77,9.77c0.54-3.09,0.98-5.59,1.69-9.63c-3.25,4.79-4.81,9.46-7.99,11.21
		c-4.98,2.74-9.23,6.18-13.69,9.52c-1.41,1.06-3.73,0.9-4.46,1.05c-5.08,5.1-9.87,9.59-14.31,14.41
		c-7.36,7.99-14.47,16.21-21.73,24.3c-3.31,3.69-6.72,7.28-10.08,10.92c-0.81-0.43-1.62-0.87-2.43-1.3
		c1.06-3.17,1.59-6.67,3.27-9.47c22.03-36.56,52.88-63.17,91.65-80.77c3.05-1.38,4.36-3.21,5.69-7.04
		c2.28-6.57,7.59-12.65,12.94-17.48c14.1-12.72,31.47-18.98,49.66-23.62c17.03-4.34,32.94-11.06,43.05-26.8
		c0.29-0.45,0.89-0.69,1.93-1.47c-1.98,8.21-4.08,15.78-5.59,23.46c-1.42,7.22,0.4,9.59,7.67,9.5c17.93-0.21,35.47-2.85,51.64-11.12
		c13.24-6.77,21-17.32,19.92-32.87c-0.15-2.17-1.39-4.53-2.77-6.3c-2.49-3.19-2.63-5.82,0.38-8.67c3.59-3.39,3.68-13.28,0.1-16.56
		c-3.31-3.03-3.4-5.82-0.1-8.87c3.46-3.2,3.76-13.6,0.33-16.68c-3.6-3.24-3.5-6.11-0.03-9.3c3.2-2.94,3.36-13.48,0.1-16.26
		c-3.72-3.18-3.64-6.04-0.18-9.26c3.4-3.17,3.33-13.31-0.14-16.66c-3.18-3.07-3.36-6.08,0.04-8.94c4.67-3.95,1.93-9.07,1.9-13.59
		c-0.01-0.93-4.33-2.24-6.79-2.66c-13.04-2.2-26.12-4.16-39.33-7.45c10.38-3.39,20.76-6.77,32.65-10.66
		c-9.06-3.47-16.87-6.46-26.34-10.09c12.56-2.79,23.24-5.53,34.08-7.41c5.11-0.89,7.1-3.32,8.34-8c2.54-9.55,5.66-18.95,9.72-28.43
		c3.15,10.09,6.46,20.13,9.35,30.28c0.99,3.48,2.66,5.07,6.19,5.79c11.08,2.23,22.09,4.8,33.53,8.55
		c-7.58,2.86-15.17,5.72-24.47,9.23c11.92,3.95,22.21,7.36,32.5,10.78c-0.03,0.39-0.05,0.78-0.08,1.18
		c-11.3,1.8-22.6,3.61-33.9,5.41c-0.58,0.09-1.28-0.04-1.73,0.24c-3.37,2.12-10.56-2.17-10.3,5.93c0.14,4.2-1.6,8.82,3.19,12.21
		c1.04,0.74,0.72,5.34-0.53,7c-3.69,4.93-3.64,13.09-0.02,18.13c1.23,1.71,1.23,5.78,0,7.5c-3.65,5.12-3.64,12.96,0.14,18.18
		c1.19,1.64,1.29,5.49,0.16,7.12c-4.06,5.85-4.07,13.2-0.16,18.65c1.2,1.67,1.05,5.77-0.21,7.47c-3.51,4.73-3.61,12.91,0.04,17.67
		c1.23,1.61,1.88,5.8,0.93,6.6c-6.27,5.27-3.69,11.85-2.89,17.82c1.15,8.61,6.45,15.06,13.58,19.65
		c17.74,11.42,37.71,14.23,58.28,14.27c5.29,0.01,6.83-3.41,5.95-7.9c-1.62-8.2-3.64-16.32-5.14-22.9
		c5.84,3.85,12.32,9.21,19.67,12.7c9.42,4.47,19.38,7.98,29.4,10.96c20.59,6.13,39.52,14.76,52.74,32.56c1.9,2.55,2,6.37,3.48,9.33
		c0.81,1.63,2.59,2.96,4.22,3.95c14.82,8.97,30.41,16.85,44.41,26.96c20.61,14.88,36.72,34.29,49.56,56.28
		c1.27,2.17,1.37,5.01,2.43,9.19c-12.53-6.17-15.9-18.32-24.15-25.93c-8.25-7.6-16.26-15.45-24.38-23.18
		c0.41-0.36,0.82-0.72,1.23-1.08c-1.68,0-3.49,0.4-5.03-0.08c-4.72-1.48-6.67-6.57-11.76-8.47c-4.2-1.57-6.96-7.02-10.26-10.66
		c0.19,1.67,0.48,4.12,0.84,7.28c-10.5-3.36-20.69-6.61-30.67-9.81c6.65,5.48,13.91,10.67,20.22,16.83
		c15.47,15.1,31.2,30.04,45.45,46.24c9.21,10.46,14.58,23.71,17.14,38.11c-7.75-8.91-15.43-17.89-23.26-26.72
		c-7.76-8.75-18.9-14.5-23.85-26.29c-0.49,0.9-1.13,2.06-1.69,3.07c-9.06-3.88-10.52-12.06-10.64-20.98
		c-0.57,0.14-1.15,0.28-1.72,0.42c0,4.08,0,8.16,0,12.97c-8.67-3.61-15.59-8.51-21.12-15.37c-5.43-6.73-10.84-13.47-16.82-20.9
		c14.45,28.21,32.97,54.1,36.18,85.97c-0.64,0.32-1.29,0.63-1.93,0.95c-0.77-0.94-1.69-1.79-2.29-2.82
		c-2.82-4.87-6.64-9.5-8.06-14.77c-2.07-7.67-7.92-12.76-11.28-19.51c-2.72-5.46-4.67-10.49-4.03-16.51
		c0.07-0.61-0.41-1.29-1.15-3.37c-0.78,3.2-1.2,4.95-1.61,6.66c-14-8.46-22.4-20.43-25.95-36.73c-2.12-9.74-7.31-18.81-11.13-28.17
		c-0.79-1.94-1.65-3.85-2.48-5.77c0.48-0.35,0.97-0.71,1.45-1.06c5.96,7.58,11.92,15.16,17.88,22.75
		c1.95-10.82-7.04-15.38-12.24-24.06c12.91,3.26,18.02,17.89,31.26,15.66c-5.83-14.99-23.85-17.83-32.52-30.34
		c0.29-0.51,0.59-1.02,0.88-1.53c11.59,5.43,23.17,10.87,34.76,16.3c0.22-0.29,0.44-0.57,0.66-0.86c-1.66-1.31-3.33-2.61-4.98-3.93
		c-13.79-11.1-29.86-16.18-47.16-18.61c-5.6-0.78-12.24-1.1-15.52-7.86c0.54,5.34,1.08,10.68,1.75,17.31
		c-3.72-4.69-6.47-8.17-9.23-11.64c-0.52,0.33-1.04,0.65-1.56,0.98c7.34,12.29,15.75,24.22,15.51,39.3
		c-0.05,2.82-1.15,5.62-1.77,8.43c-0.56,0.11-1.12,0.22-1.67,0.33c-4.59-10.8-9.17-21.6-14.07-33.14c-0.2,2.62-0.38,4.86-0.55,7
		c-5.72-2.05-5.72-2.05-7.7-16.53c-0.81,3.41-1.62,6.82-2.43,10.23c-24.75-9.56-51.19-5.03-77.05-7.99
		c-0.61,2.5-1.02,4.17-1.43,5.85L321,438.95z M506.88,505.44c-8.73-10.74-17.45-21.48-26.18-32.22c-0.62,0.51-1.24,1.03-1.86,1.54
		C488.16,485.04,493.31,498.77,506.88,505.44z M138.32,479.01c-0.64-0.53-1.29-1.06-1.93-1.59c-8.69,10.78-17.38,21.56-26.08,32.34
		C123.93,503.06,128.93,489.22,138.32,479.01z M491.09,457.77c6.69,9.22,15.31,15.51,26.28,18.27c0.31-0.47,0.61-0.95,0.92-1.42
		C509.22,469.01,500.15,463.39,491.09,457.77z M98.79,478.92c10.17-0.25,23.27-8.74,27.55-17.02
		C116.66,467.87,107.72,473.4,98.79,478.92z M480.97,504.32c0.49-0.38,0.98-0.75,1.47-1.13c-3.58-11.14-11.84-22.95-18.97-26.81
		C469.43,485.9,475.2,495.11,480.97,504.32z M133.49,506.9c0.87,0.57,1.74,1.14,2.61,1.71c5.81-9.27,11.62-18.54,17.43-27.82
		c-0.64-0.43-1.28-0.85-1.92-1.28C145.57,488.64,139.53,497.77,133.49,506.9z M457.2,426.22c0.3-0.98,0.6-1.96,0.9-2.93
		c-8.45-2.61-16.9-5.21-25.35-7.82c-0.27,0.84-0.54,1.68-0.8,2.52C440.37,420.73,448.79,423.48,457.2,426.22z M159.19,427.57
		c0.32,0.97,0.65,1.95,0.97,2.92c8.53-2.88,17.06-5.75,25.59-8.63c-0.26-0.78-0.53-1.56-0.79-2.34
		C176.38,422.2,167.78,424.88,159.19,427.57z"/>
	<path d="M319.08,566.34c-1.08-1.39-2.59-2.62-3.15-4.19c-1.97-5.49-3.62-11.09-6.12-16.74c-4.3,13.33-12.99,25.37-9.61,40.35
		c-22.78,2.74-53.76-27.61-55.11-53.65c5.33,0,10.66,0,14.85,0c6.33-9.33,16.88-7.93,24.76-13.36c-4.94-1.82-9.47-3.48-14-5.15
		c0.01-0.33,0.03-0.65,0.04-0.98c9.49,0,18.99,0,29.13,0c0-10.57,0-20.38,0-30.18c0.4-0.04,0.8-0.07,1.2-0.11
		c2.59,11.49,5.19,22.97,7.78,34.46c0.46,0.06,0.92,0.11,1.38,0.17c2.51-10.58,5.03-21.17,7.54-31.75c0.36,0.01,0.73,0.03,1.09,0.04
		c0,8.88,0,17.77,0,27.11c10.45,0,20.13,0,29.81,0c0.1,0.4,0.19,0.8,0.29,1.2c-4.41,1.65-8.83,3.31-14.61,5.47
		c7.8,2.89,14.4,5.39,21.05,7.77c2.32,0.83,4.02,1.73,2.2,4.49l0.11-0.09c-12.72,0-25.43,0-38.8,0c0,12.55,0,23.93,0,35.32
		L319.08,566.34z M299.8,566.01c0-11.01,0.06-21.46-0.12-31.91c-0.01-0.82-1.66-2.3-2.57-2.31c-11.2-0.16-22.4-0.1-35.13-0.1
		c3.15,5.98,5.6,10.61,8.16,15.46c4.07-1.99,7.19-3.53,10.33-5.05c3.04-1.47,6.1-2.92,10.41-4.97c-1.71,4.12-2.78,6.79-3.91,9.43
		c-5.77,13.41-5.2,14.56,9.28,18.66C297.14,565.46,298.05,565.62,299.8,566.01z"/>
	<path d="M177.09,475.16c-2.63,12.57-5.27,25.14-7.9,37.71c0.46,0.13,0.93,0.25,1.39,0.38c2.68-8.67,5.36-17.34,8.21-26.55
		c0.9,0.78,1.68,1.45,2.59,2.23c1.17-2.17,2.33-4.33,3.83-7.12c7.07,7.11,2.07,16.44,6.3,23.79c0.69-6.8,1.39-13.59,2.1-20.6
		c12.41,10.27,13.93,23.35,11.69,37.36c-2.54-2.74-5.12-5.54-7.71-8.33c-0.49,0.46-0.98,0.91-1.46,1.37
		c2.29,3.47,5.2,6.7,6.68,10.49c1.33,3.43,1.09,7.47,1.55,11.24c-0.65,0.12-1.29,0.24-1.94,0.35c-1.37-2.15-2.73-4.3-4.1-6.45
		c-0.36,0.17-0.72,0.33-1.08,0.5c0.77,2.74,1.87,5.45,2.23,8.24c0.41,3.18,0.02,6.46,0.23,9.68c0.33,4.99,1.16,9.97,1.2,14.96
		c0.02,3.04-1.05,6.09-1.63,9.14c-2.76-1.56-6.18-2.53-8.18-4.77c-6.92-7.74-8.42-17.75-10.23-27.52c-0.56-3.04-0.76-6.15-2.46-9.53
		c-2.01,5.29-4.02,10.58-6.21,16.33c-1.36-0.77-2.84-1.62-4.98-2.84c9.02,14.75,10.26,33.52,2.42,41.04
		c-1.73-2.33-3.93-4.35-4.98-6.86c-7.71-18.37-10.87-37.3-6.72-57.14c3.28-15.69,7.89-30.91,15.06-45.29
		c0.46-0.93,1.22-1.71,1.84-2.57C175.55,474.65,176.32,474.9,177.09,475.16z"/>
	<path d="M447.71,582.56c-8.19-9.08-6.68-29.38,2.6-41.33c-2.45,1.1-4.01,1.8-5.42,2.43c-1.97-5.36-3.9-10.59-5.83-15.82
		c-4.89,15.19-3.52,32.94-20.92,42.34c-5.64-7.42,0.41-14.45,0.05-21.41c-0.38-7.16-0.08-14.36-0.08-20.87
		c-0.6,0.93-1.9,2.93-3.19,4.92c-4.34-5.7-3.82-7.45,5.73-22.88c-2.84,2.76-5.67,5.52-8.47,8.25c-3.16-14.37-0.97-22.1,11.4-38.58
		c0.72,7.79,1.35,14.7,1.98,21.6c4.18-7.3-0.54-16.42,6.32-23.68c1.45,2.67,2.59,4.78,3.8,7.01c0.92-0.67,1.73-1.26,2.68-1.95
		c2.79,8.99,5.48,17.65,8.17,26.3c0.45-0.12,0.9-0.25,1.34-0.37c-2.61-12.6-5.22-25.19-7.83-37.79c0.84-0.21,1.69-0.42,2.53-0.63
		c10.77,19.43,16.91,40.49,18.28,62.64C461.93,550.25,458,566.98,447.71,582.56z"/>
	<path d="M357.62,531.27c5.24,0,10.49,0,15.74,0c-0.67,27.21-29.31,54.18-54.28,54.88c0-6.6,0-13.2,0-19.8c0,0-0.16,0.15-0.16,0.15
		c6.33-2.22,12.65-4.43,19.43-6.8c-3.27-7.94-6.01-14.58-9.35-22.68c3.97,1.96,6.38,3.15,8.8,4.34c13.93,6.84,15.72,5.97,19.83-9.6
		c0.05-0.19,0.06-0.38,0.09-0.58L357.62,531.27z"/>
	<path d="M245.28,512.24c0.12-19.63,20.86-50.59,54.13-54.6c0,4.78,0,9.55,0,14.01c-3.14-2.23-10.5,0.2-17.59,6.38
		c3.42,7.08,6.87,14.23,11.09,22.97c-8.59-4.07-15.78-7.48-23.34-11.06c-4.69,7.04-8.11,13.95-7.6,22.31
		C256.86,512.24,251.07,512.24,245.28,512.24z"/>
	<path d="M373.65,512.24c-5.42,0-10.84,0-16.11,0c3.08-8.9-2.63-15.22-6.5-22.66c-7.8,3.72-15.12,7.21-24.06,11.47
		c4.18-8.68,7.67-15.92,11.67-24.22c-5.57-2.58-10.86-5.04-16.6-7.71c-1.05,2.67-1.72,4.38-2.93,7.44c0-7.18,0-12.81,0-18.42
		C342.59,456.88,372.71,486.7,373.65,512.24z"/>
	<path d="M305.88,606.65c-21.93-1.15-39.53-8.91-55.08-23.21c3.43-1.73,6.25-3.38,9.26-4.56c1.2-0.47,3.31-0.48,4.15,0.26
		c3.68,3.28,9.83,3.99,10.71,10.54c0.13,0.98,4.68,1.61,7.25,1.98c6.29,0.91,13.02,0.56,18.75,2.82
		C303.45,595.48,303.96,601.58,305.88,606.65z"/>
	<path d="M313.66,606.53c1.4-4.15,2.31-7.52,3.72-10.66c0.5-1.12,2.11-2.09,3.4-2.44c3.93-1.06,7.93-1.94,11.95-2.56
		c1.51-0.23,3.29,0.14,4.72,0.76c3.39,1.48,6.16,1.17,7.84-2.32c5.58-11.62,12.08-13.41,22.5-5.72
		C352.58,597.41,335.18,605.55,313.66,606.53z"/>
	<path d="M224.64,523.95c5.08,2.14,11,1.74,10.84,8.68c-0.1,4.46,4.1,8.39,0.99,13.43c-0.88,1.42,0.67,6.18,2.33,7.03
		c11.24,5.76,13.6,13.25,6.18,24.2C232.15,561.95,225.29,544.8,224.64,523.95z"/>
	<path d="M394.3,524.65c-1.05,19.4-7.34,36.72-19.96,51.86c-7.17-9.33-4.57-18.27,6.07-23.15c3.73-1.71,2.89-4.56,2.55-8.24
		c-0.52-5.52,0.42-11.54,2.37-16.74c0.76-2.04,5.92-2.43,9.07-3.57L394.3,524.65z"/>
	<path d="M225.7,515.14c2.05-9.19,3.12-18.76,6.45-27.46c2.79-7.3,7.79-13.91,12.63-20.2c2.7-3.52,3.4-6.02,0.83-9.63
		c-1.42-1.99-2.23-4.41-4.13-8.3c5.46,2.61,9.35,4.48,13.17,6.31c-2.37,2.25-4.54,4.32-6.75,6.41c2.67,4.81,4.71,8.86,0.19,12.61
		c-3.24,2.69-3.03,8.45-8.87,9.21c-1.45,0.19-3.99,5.47-3.28,6.5c3.8,5.48-1.12,10.15-0.59,15.09c0.83,7.67-6.15,6.65-9.82,9.32
		C225.54,515.01,225.7,515.14,225.7,515.14z"/>
	<path d="M394.28,514.49c-6.29-0.99-10.72-3.37-10.55-11c0.1-4.62-3.1-9.13-0.02-14.04c0.54-0.86-1.62-4.91-3.06-5.25
		c-7.31-1.75-7.69-9.31-11.92-13.56c-0.77-0.77,0.96-4.03,1.78-7.04c14.35,14.96,21.15,32.02,23.59,51.09
		C394.09,514.69,394.28,514.49,394.28,514.49z"/>
	<path d="M343.35,443.86c6.06,3.81,12.05,7.73,18.23,11.33c1.15,0.67,3.22,0.49,4.57-0.05c3.53-1.41,6.89-3.23,11.89-5.65
		c-2.72,5.5-4.65,9.4-6.97,14.09c-2.01-1.8-3.57-3.38-5.33-4.7c-1-0.75-2.36-1.63-3.47-1.52c-8.99,0.9-13.23-1.46-17.21-9.92
		c-0.56-1.2-1.14-2.39-1.71-3.58C343.36,443.86,343.35,443.86,343.35,443.86z"/>
	<path d="M276.33,443.93c-1.08,7.17-6.26,11.08-12.02,14.01c-1.95,0.99-4.99-0.15-7.53-0.31c-0.17-0.84-0.35-1.68-0.52-2.51
		c6.73-3.68,13.46-7.36,20.19-11.04L276.33,443.93z"/>
	<path d="M276.45,444.08c6.98-2.18,13.97-4.36,21.02-6.56c1.91,4.52,1.23,6.08-2.76,7.13c-6.31,1.65-12.33,2.53-18.36-0.69
		C276.33,443.93,276.45,444.08,276.45,444.08z"/>
	<path d="M320.85,439.1c5.28,0.94,10.57,1.8,15.83,2.84c2.26,0.45,4.45,1.27,6.67,1.92c0,0,0.01,0,0.01,0
		c-5.57,2.42-10.95,3.13-17.11,1.11c-3.65-1.2-4.99-2.7-5.24-6.03C321,438.95,320.85,439.1,320.85,439.1z"/>
	<path d="M394.4,524.81c-0.04-3.44-0.09-6.87-0.13-10.31c0.01-0.01-0.18,0.19-0.17,0.19c4.06,1.28,8.11,2.57,13.14,4.16
		c-4.95,2.2-8.96,3.98-12.96,5.78C394.3,524.65,394.4,524.81,394.4,524.81z"/>
	<path d="M225.54,515.01c-0.55,2.59-1.09,5.17-1.79,8.49c-3.62-1.27-7.13-2.51-10.63-3.74c-0.06-0.47-0.11-0.93-0.17-1.4
		c4.25-1.08,8.5-2.16,12.75-3.23C225.7,515.14,225.54,515.01,225.54,515.01z"/>
	<path d="M309.04,616.26c-0.97-2.77-1.94-5.54-3.17-9.04c2.41-0.14,4.38-0.25,7.42-0.43c-1.13,3.55-2.07,6.52-3.02,9.49
		C309.87,616.28,309.45,616.27,309.04,616.26z"/>
	<path d="M245.51,577.75c2.13,2.5,3.34,3.93,4.82,5.67c-3.16,1.55-5.9,2.9-10.38,5.1C242.22,584.12,243.69,581.27,245.51,577.75z"/>
	<path d="M377.84,587.67c-2.84-1.4-5.69-2.79-9.29-4.56c1.83-1.96,3.3-3.55,5.3-5.7c1.77,3.42,3.25,6.29,4.73,9.15
		C378.34,586.93,378.09,587.3,377.84,587.67z"/>
	<path class="st0" d="M506.88,505.44c-13.57-6.67-18.71-20.4-28.04-30.68c0.62-0.51,1.24-1.03,1.86-1.54
		C489.43,483.96,498.15,494.7,506.88,505.44z"/>
	<path class="st0" d="M138.32,479.01c-9.39,10.21-14.38,24.05-28.01,30.75c8.69-10.78,17.38-21.56,26.08-32.34
		C137.03,477.95,137.67,478.48,138.32,479.01z"/>
	<path class="st0" d="M491.09,457.77c9.07,5.62,18.13,11.23,27.2,16.85c-0.31,0.47-0.61,0.95-0.92,1.42
		C506.4,473.29,497.77,466.99,491.09,457.77z"/>
	<path class="st0" d="M98.79,478.92c8.94-5.52,17.88-11.04,27.55-17.02C122.05,470.18,108.95,478.67,98.79,478.92z"/>
	<path class="st0" d="M480.97,504.32c-5.77-9.21-11.54-18.42-17.51-27.94c7.13,3.86,15.4,15.67,18.97,26.81
		C481.95,503.56,481.46,503.94,480.97,504.32z"/>
	<path class="st0" d="M133.49,506.9c6.04-9.13,12.08-18.26,18.12-27.39c0.64,0.43,1.28,0.85,1.92,1.28
		c-5.81,9.27-11.62,18.54-17.43,27.82C135.23,508.04,134.36,507.47,133.49,506.9z"/>
	<path class="st0" d="M457.2,426.22c-8.42-2.74-16.83-5.49-25.25-8.23c0.27-0.84,0.54-1.68,0.8-2.52c8.45,2.61,16.9,5.21,25.35,7.82
		C457.8,424.27,457.5,425.24,457.2,426.22z"/>
	<path class="st0" d="M159.19,427.57c8.59-2.68,17.18-5.36,25.78-8.05c0.26,0.78,0.53,1.56,0.79,2.34
		c-8.53,2.88-17.06,5.75-25.59,8.63C159.84,429.51,159.52,428.54,159.19,427.57z"/>
	<path class="st0" d="M357.73,531.17c-0.03,0.19-0.05,0.39-0.09,0.58c-4.11,15.57-5.9,16.43-19.83,9.6
		c-2.41-1.18-4.82-2.38-8.8-4.34c3.34,8.1,6.08,14.74,9.35,22.68c-6.78,2.37-13.11,4.59-19.43,6.8c0-11.39,0-22.77,0-35.32
		C332.3,531.17,345.01,531.17,357.73,531.17z"/>
	<path class="st0" d="M299.8,566.01c-1.74-0.39-2.65-0.55-3.54-0.8c-14.48-4.1-15.05-5.25-9.28-18.66c1.14-2.64,2.2-5.31,3.91-9.43
		c-4.31,2.06-7.37,3.5-10.41,4.97c-3.14,1.52-6.26,3.06-10.33,5.05c-2.56-4.84-5-9.48-8.16-15.46c12.73,0,23.93-0.06,35.13,0.1
		c0.9,0.01,2.55,1.49,2.57,2.31C299.86,544.55,299.8,555,299.8,566.01z"/>
</g>
</svg>
