<?xml version="1.0" encoding="utf-8"?>
<!-- Generator: Adobe Illustrator 24.3.0, SVG Export Plug-In . SVG Version: 6.00 Build 0)  -->
<svg version="1.1" id="Layer_1" xmlns="http://www.w3.org/2000/svg" xmlns:xlink="http://www.w3.org/1999/xlink" x="0px" y="0px"
	 viewBox="0 0 612 792" style="enable-background:new 0 0 612 792;" xml:space="preserve">
<style type="text/css">
	.st0{fill:#FFFFFF;}
</style>
<g>
	<path class="st0" d="M527,789.27c-147.53,0-295.06,0-442.59,0c0-263.09,0-526.18,0-789.27C231.94,0,379.47,0,527,0
		C527,263.09,527,526.18,527,789.27z M392.77,660.5c0.45-0.39,0.89-0.78,1.34-1.17c-3.39-6.68-6.98-13.28-10.05-20.11
		c-1.01-2.24-1.85-6.01-0.71-7.49c3.92-5.06,8.91-9.27,13.15-14.11c1.69-1.92,4.15-5.72,3.45-6.78c-4.62-6.9-0.04-13.06,1.13-19.28
		c0.52-2.79,3.44-6.07,6.12-7.32c6.65-3.13,13.79-5.22,20.73-7.72c-6.86-3.96-13.69-6.05-20.44-8.37c-2.03-0.7-5.28-1.83-5.49-3.15
		c-1.2-7.73-1.53-15.59-2.44-23.37c-0.35-3-1.02-8.22-2.33-8.49c-7.98-1.6-9.58-8.89-13.34-13.98c-1.5-2.02-1.61-6.2-0.62-8.71
		c2.57-6.53,6.1-12.68,10.31-21.11c-9,4.33-15.45,7.66-22.1,10.49c-1.98,0.84-5.38,1.3-6.71,0.21c-4.3-3.52-7.74-8.05-11.9-11.76
		c-2.06-1.84-4.89-3.68-7.49-3.88c-7.06-0.53-14.19-0.18-21.14-0.18c0-5.88,0-9.34,0-13.67c23.89,1.2,47.17,1.53,70.27,3.76
		c20.36,1.97,37.39,11.28,48.98,28.95c0.37,0.57,1.31,0.77-0.01,0.04c4.23-6.65,7.81-13.13,12.21-19.01
		c11.14-14.89,13.95-31.05,7.49-48.39c-6.08-16.33-17.94-25.82-35.49-28.38c-2.75-0.4-6.11-3.48-7.37-6.17
		c-11.25-24.12-22.08-48.43-33.07-72.67c-1.13-2.5-2.43-4.92-3.65-7.37c-0.39,0.18-0.79,0.37-1.18,0.55
		c8.77,29.71,17.54,59.42,25.84,87.55c-7.14,7.55-13.27,14.04-19.39,20.52c0.38,0.17,0.76,0.33,1.14,0.5
		c6.88-3.17,13.76-6.34,21.44-9.88c2.93,9.62,5.79,17.25,7.3,25.13c0.42,2.19-3.01,7.26-4.96,7.41
		c-18.78,1.46-36.86-2.25-55.45-8.11c44.32-36.81,19.98-91.67-12.15-101.69c3.23,2.71,5.49,4.52,7.66,6.44
		c27.65,24.38,22.52,67.16-9.75,80.82c-2.43,1.03-5.74,2.14-7.88,1.29c-10.98-4.38-16.29-30.07-9.17-40.09
		c1.55-2.18,1.57-7.17,0.1-9.44c-4.78-7.41-4.78-14.53,0.21-22.3c1.38-2.14,1.37-6.69-0.01-8.81c-4.96-7.57-5.01-15.34-0.34-22.43
		c1.48-2.25,1.51-7.11,0.03-9.36c-4.73-7.2-4.68-14.77,0.32-22.38c1.39-2.11,1.39-6.68,0-8.79c-5.11-7.8-5.06-14.56,0.19-22.95
		c1.35-2.15,0.61-6.12-0.18-8.96c-1.04-3.7-3.09-7.11-5.36-12.07c6.57,0,10.46,0.12,14.34-0.02c25.82-0.9,50.3-7.97,68.07-26.57
		c13.28-13.9,28.78-18.98,45.85-23.12c7.89-1.91,15.73-4.02,23.57-6.14c1.48-0.4,2.83-1.25,4.71-2.11c-16.31,0-31.89,0-46.55,0
		c2.96-14.29,5.98-28.91,9.01-43.53c-0.91-0.2-1.82-0.4-2.73-0.61c-0.86,14.66-5.05,28.25-14.32,39.61
		c-2.57,3.15-7.49,5.76-11.53,6.07c-15.64,1.19-31.36,1.54-47.05,1.84c-13.91,0.27-27.82,0.06-42.46,0.06
		c-3.75-53.66-7.5-107.24-11.25-160.81c-2.38,2.99-2.89,6.13-3.11,9.29c-3.35,47.82-6.74,95.64-9.87,143.47
		c-0.37,5.71-1.46,8.51-8.17,8.18c-27.72-1.36-55.47-2.03-83.19-3.41c-3.32-0.16-7.45-2.32-9.58-4.9
		c-9.53-11.53-14.12-25.19-14.79-40.22c-0.99,0.23-1.98,0.46-2.96,0.69c3.07,14.51,6.14,29.02,9.17,43.37c-13.87,0-28.6,0-43.32,0
		c16.29,5.64,32.91,10.13,49.35,15.21c4,1.24,8.06,3.79,10.94,6.83c11.98,12.65,25.54,23.27,42.23,28.12
		c15.39,4.48,31.45,6.63,48.96,10.15c-0.68,1.83-2.33,5.24-3.19,8.84c-0.74,3.11-1.93,7.25-0.57,9.52
		c4.84,8.08,4.9,14.74-0.28,23.32c-1.23,2.04-1.17,6.17,0.1,8.19c5.16,8.18,5.13,14.67-0.1,23.18c-1.25,2.03-1.19,6.17,0.07,8.22
		c5.2,8.44,5.09,14.95,0.11,23.31c-1.31,2.2-0.48,6.82,1.03,9.32c3.14,5.19,4.25,15.97,0.27,20.08c-4.27,4.42-4.33,8.01,0.12,12.11
		c1.1,1.01,2.01,2.76,2.12,4.23c0.86,11.17-0.46,21.73-8.07,30.85c-3.46,4.14-6.59,4.85-11.58,2.76
		c-23.88-9.98-35.69-38.11-23.92-61.62c5.25-10.49,14.34-19.07,20.53-27.03c-15.71,7.1-28.44,19.97-33.54,39.31
		c-6.7,25.43,1.57,46.19,22.37,63.26c-18.37,6.09-36.09,9.24-54.38,8.76c-5.19-0.13-7.77-3.07-6.27-8.42
		c2.18-7.74,4.55-15.42,7.35-24.87c8.12,3.92,15.14,7.32,22.16,10.71c0.34-0.3,0.68-0.61,1.03-0.91
		c-6.51-6.65-13.03-13.29-20.06-20.47c8.24-27.94,16.77-56.84,25.29-85.74c-2.84,2.07-4.16,4.72-5.38,7.41
		c-10.64,23.47-21.17,47-32.04,70.37c-1.19,2.56-4.29,5.96-6.58,6.03c-32.77,0.94-52.45,44.83-29.54,75.52
		c4.73,6.34,8.69,13.27,12.99,19.91c8.11-12.84,21.12-23.89,37.9-26.29c26.75-3.83,53.89-4.88,80.68-7.09
		c2.03,12.29-6.82,19.6-17.21,15.68c-6.18-2.33-9.17-1.19-11.36,5.06c-2.73,7.78-13.5,11.6-20.9,8.07
		c-5.59-2.67-11.21-5.27-18.93-8.89c4.15,8.34,7.28,14.25,10.02,20.34c0.95,2.11,2.11,5.75,1.13,6.83
		c-4.68,5.15-5.49,13.69-14.02,15.71c-1.77,0.42-4.43,5.16-3.79,6.37c4.1,7.72,0.03,14.77-1.31,21.87
		c-0.52,2.75-3.47,6.04-6.13,7.19c-6.75,2.92-13.97,4.77-22.91,7.68c7.93,2.87,13.7,4.98,19.48,7.05
		c9.08,3.25,15.49,16.12,11.89,25.14c-2.38,5.97-0.27,8.69,5.05,10.94c8.56,3.62,12.64,15.49,8.49,23.64
		c-2.94,5.77-5.88,11.53-9.91,19.44c9.33-4.57,15.92-8.38,22.96-10.98c2.96-1.09,7.63-0.73,10.17,0.98
		c3.81,2.56,6.19,7.17,9.67,10.37c2.01,1.85,6.16,4.42,7.34,3.63c6.64-4.41,12.37,0.57,18.46,0.8c5.22,0.19,6.78,3.05,7.42,7.99
		c2.7,21.08,5.85,42.11,8.83,63.16c1.68-2.53,2.32-5.15,2.66-7.82c2.33-18.35,4.52-36.72,6.98-55.05c0.29-2.16,1.87-5.92,2.9-5.93
		c7.19-0.12,13.66-6.78,21.63-2.05c1.52,0.9,7.1-1.85,8.36-4.21c6.12-11.49,12.83-14.2,24.1-8.64
		C382.23,655.41,387.51,657.94,392.77,660.5z"/>
	<path d="M392.77,660.5c-5.26-2.56-10.54-5.09-15.79-7.68c-11.28-5.56-17.98-2.85-24.1,8.64c-1.26,2.37-6.84,5.12-8.36,4.21
		c-7.97-4.74-14.44,1.92-21.63,2.05c-1.03,0.02-2.61,3.77-2.9,5.93c-2.45,18.33-4.65,36.7-6.98,55.05
		c-0.34,2.67-0.98,5.29-2.66,7.82c-2.98-21.05-6.13-42.07-8.83-63.16c-0.63-4.94-2.19-7.79-7.42-7.99
		c-6.09-0.23-11.82-5.21-18.46-0.8c-1.18,0.78-5.33-1.78-7.34-3.63c-3.48-3.2-5.85-7.8-9.67-10.37c-2.54-1.71-7.21-2.07-10.17-0.98
		c-7.04,2.59-13.63,6.4-22.96,10.98c4.03-7.91,6.98-13.67,9.91-19.44c4.15-8.16,0.07-20.03-8.49-23.64
		c-5.32-2.25-7.43-4.96-5.05-10.94c3.59-9.02-2.81-21.89-11.89-25.14c-5.78-2.07-11.55-4.18-19.48-7.05
		c8.95-2.9,16.16-4.76,22.91-7.68c2.66-1.15,5.61-4.44,6.13-7.19c1.34-7.1,5.41-14.15,1.31-21.87c-0.64-1.21,2.02-5.95,3.79-6.37
		c8.53-2.02,9.34-10.56,14.02-15.71c0.98-1.08-0.18-4.72-1.13-6.83c-2.74-6.09-5.87-12.01-10.02-20.34
		c7.72,3.62,13.34,6.22,18.93,8.89c7.39,3.54,18.17-0.28,20.9-8.07c2.19-6.25,5.18-7.39,11.36-5.06
		c10.39,3.92,19.24-3.39,17.21-15.68c-26.79,2.21-53.94,3.26-80.68,7.09c-16.77,2.4-29.79,13.45-37.9,26.29
		c-4.3-6.64-8.25-13.57-12.99-19.91c-22.91-30.68-3.22-74.58,29.54-75.52c2.3-0.07,5.39-3.47,6.58-6.03
		c10.87-23.37,21.4-46.89,32.04-70.37c1.22-2.69,2.54-5.34,5.38-7.41c-8.53,28.9-17.05,57.8-25.29,85.74
		c7.04,7.18,13.55,13.82,20.06,20.47c-0.34,0.3-0.68,0.61-1.03,0.91c-7.02-3.39-14.04-6.79-22.16-10.71
		c-2.81,9.46-5.18,17.14-7.35,24.87c-1.51,5.35,1.08,8.29,6.27,8.42c18.29,0.48,36.01-2.68,54.38-8.76
		c-20.8-17.06-29.07-37.83-22.37-63.26c5.1-19.35,17.83-32.22,33.54-39.31c-6.19,7.96-15.28,16.54-20.53,27.03
		c-11.77,23.51,0.04,51.64,23.92,61.62c4.99,2.09,8.12,1.38,11.58-2.76c7.61-9.12,8.93-19.67,8.07-30.85
		c-0.11-1.48-1.02-3.22-2.12-4.23c-4.45-4.1-4.39-7.69-0.12-12.11c3.98-4.11,2.87-14.89-0.27-20.08c-1.51-2.5-2.34-7.12-1.03-9.32
		c4.98-8.35,5.09-14.87-0.11-23.31c-1.26-2.05-1.32-6.19-0.07-8.22c5.23-8.51,5.26-15,0.1-23.18c-1.28-2.02-1.34-6.15-0.1-8.19
		c5.18-8.58,5.12-15.24,0.28-23.32c-1.36-2.27-0.17-6.41,0.57-9.52c0.86-3.6,2.51-7.01,3.19-8.84
		c-17.51-3.53-33.57-5.68-48.96-10.15c-16.69-4.85-30.25-15.47-42.23-28.12c-2.88-3.04-6.95-5.59-10.94-6.83
		c-16.44-5.08-33.06-9.57-49.35-15.21c14.72,0,29.45,0,43.32,0c-3.03-14.34-6.1-28.86-9.17-43.37c0.99-0.23,1.98-0.46,2.96-0.69
		c0.67,15.04,5.25,28.69,14.79,40.22c2.13,2.58,6.26,4.74,9.58,4.9c27.72,1.38,55.47,2.04,83.19,3.41c6.71,0.33,7.79-2.47,8.17-8.18
		c3.14-47.83,6.53-95.65,9.87-143.47c0.22-3.16,0.73-6.29,3.11-9.29c3.75,53.58,7.5,107.15,11.25,160.81
		c14.63,0,28.55,0.21,42.46-0.06c15.7-0.3,31.41-0.65,47.05-1.84c4.04-0.31,8.96-2.92,11.53-6.07
		c9.28-11.36,13.46-24.95,14.32-39.61c0.91,0.2,1.82,0.4,2.73,0.61c-3.03,14.62-6.05,29.24-9.01,43.53c14.65,0,30.23,0,46.55,0
		c-1.88,0.86-3.24,1.71-4.71,2.11c-7.84,2.12-15.68,4.22-23.57,6.14c-17.07,4.14-32.57,9.21-45.85,23.12
		c-17.77,18.61-42.25,25.68-68.07,26.57c-3.88,0.13-7.77,0.02-14.34,0.02c2.27,4.96,4.33,8.37,5.36,12.07
		c0.8,2.85,1.53,6.81,0.18,8.96c-5.25,8.39-5.3,15.15-0.19,22.95c1.39,2.12,1.39,6.68,0,8.79c-5,7.61-5.05,15.18-0.32,22.38
		c1.47,2.25,1.45,7.11-0.03,9.36c-4.67,7.09-4.62,14.85,0.34,22.43c1.39,2.12,1.39,6.67,0.01,8.81c-5,7.77-4.99,14.9-0.21,22.3
		c1.47,2.28,1.45,7.26-0.1,9.44c-7.12,10.02-1.8,35.72,9.17,40.09c2.14,0.85,5.45-0.26,7.88-1.29c32.27-13.66,37.4-56.44,9.75-80.82
		c-2.17-1.91-4.43-3.73-7.66-6.44c32.13,10.02,56.47,64.88,12.15,101.69c18.59,5.87,36.67,9.57,55.45,8.11
		c1.94-0.15,5.38-5.23,4.96-7.41c-1.51-7.88-4.37-15.51-7.3-25.13c-7.68,3.54-14.56,6.71-21.44,9.88c-0.38-0.17-0.76-0.33-1.14-0.5
		c6.13-6.48,12.25-12.96,19.39-20.52c-8.3-28.13-17.07-57.84-25.84-87.55c0.39-0.18,0.79-0.37,1.18-0.55
		c1.22,2.46,2.52,4.88,3.65,7.37c10.98,24.24,21.82,48.55,33.07,72.67c1.26,2.69,4.62,5.77,7.37,6.17
		c17.55,2.56,29.41,12.05,35.49,28.38c6.46,17.34,3.65,33.5-7.49,48.39c-4.39,5.88-7.97,12.36-12.21,19.01
		c1.31,0.73,0.38,0.53,0.01-0.04c-11.6-17.67-28.62-26.99-48.98-28.95c-23.1-2.23-46.38-2.57-70.27-3.76c0,4.32,0,7.79,0,13.67
		c6.94,0,14.07-0.35,21.14,0.18c2.6,0.2,5.43,2.04,7.49,3.88c4.16,3.71,7.61,8.24,11.9,11.76c1.33,1.09,4.73,0.63,6.71-0.21
		c6.66-2.83,13.1-6.16,22.1-10.49c-4.21,8.43-7.74,14.58-10.31,21.11c-0.99,2.51-0.88,6.69,0.62,8.71
		c3.77,5.09,5.36,12.38,13.34,13.98c1.31,0.26,1.98,5.48,2.33,8.49c0.92,7.78,1.24,15.64,2.44,23.37c0.2,1.32,3.46,2.45,5.49,3.15
		c6.75,2.33,13.58,4.41,20.44,8.37c-6.94,2.51-14.08,4.6-20.73,7.72c-2.68,1.26-5.59,4.54-6.12,7.32
		c-1.17,6.22-5.74,12.38-1.13,19.28c0.71,1.06-1.76,4.86-3.45,6.78c-4.24,4.83-9.23,9.04-13.15,14.11c-1.14,1.48-0.3,5.25,0.71,7.49
		c3.07,6.83,6.66,13.42,10.05,20.11C393.66,659.72,393.22,660.11,392.77,660.5z M291.32,630.4c19.35-39.04,12.23-76.24-1.16-114.53
		c-4.87,2.65-8.66,4.72-12.88,7.01c4.62,9.83,8.91,18.97,14.07,29.94c-11.07-5.31-20.09-9.64-30.55-14.65
		c-3.31,8.41-6.46,16.41-9.75,24.77c11.24,3.98,20.68,7.32,31.97,11.32c-11.56,4.33-20.89,7.83-31.42,11.77
		c3.67,7.98,6.96,15.12,10.52,22.85c9.21-4.49,17.11-8.33,27.06-13.18c-4.31,10.33-7.78,18.65-11.44,27.43
		C282.21,625.53,286.1,627.6,291.32,630.4z M330.64,517.06c-13.06,38.81-20.47,76.1-1.18,113.95c14.26-5.58,14.24-5.57,9.08-17.88
		c-2-4.77-3.89-9.58-6.54-16.11c9.85,4.82,17.78,8.69,26.96,13.18c3.52-7.87,6.73-15.07,10.27-22.99
		c-10.69-4.03-20.03-7.56-31.39-11.85c11.97-4.16,21.42-7.44,32.24-11.2c-3.42-8.52-6.57-16.35-9.92-24.71
		c-10.54,5.02-19.68,9.37-30.82,14.67c5.45-11.32,9.87-20.48,14.49-30.06C339.34,521.7,335.71,519.76,330.64,517.06z M391.17,208.83
		c-18.52,2.63-37.76,2.68-54.62,12.71C355.92,222.62,374.04,218.15,391.17,208.83z M284.28,220.07
		c-16.64-9.43-35.18-9.96-53.37-12.13C247.62,217.06,265.32,221.51,284.28,220.07z M175.99,447.29c0.73,0.37,1.46,0.75,2.19,1.12
		c3.12-6.36,6.23-12.73,9.35-19.09C180.89,433.88,174.93,438.78,175.99,447.29z M443.46,451.51c2.02-10.09-1.34-16.39-10.26-21.3
		C436.6,437.26,439.62,443.53,443.46,451.51z"/>
	<path class="st0" d="M291.32,630.4c-5.22-2.8-9.11-4.88-13.59-7.28c3.66-8.78,7.13-17.09,11.44-27.43
		c-9.95,4.85-17.85,8.69-27.06,13.18c-3.56-7.73-6.85-14.88-10.52-22.85c10.53-3.95,19.87-7.44,31.42-11.77
		c-11.28-3.99-20.73-7.34-31.97-11.32c3.29-8.36,6.44-16.35,9.75-24.77c10.46,5.02,19.47,9.34,30.55,14.65
		c-5.15-10.97-9.45-20.11-14.07-29.94c4.22-2.3,8.01-4.36,12.88-7.01C303.55,554.17,310.67,591.37,291.32,630.4z"/>
	<path class="st0" d="M330.64,517.06c5.07,2.7,8.71,4.63,13.18,7.01c-4.62,9.58-9.03,18.74-14.49,30.06
		c11.14-5.31,20.28-9.66,30.82-14.67c3.35,8.36,6.5,16.19,9.92,24.71c-10.82,3.76-20.27,7.04-32.24,11.2
		c11.36,4.29,20.7,7.81,31.39,11.85c-3.54,7.92-6.75,15.12-10.27,22.99c-9.17-4.48-17.11-8.36-26.96-13.18
		c2.65,6.53,4.54,11.34,6.54,16.11c5.16,12.31,5.18,12.3-9.08,17.88C310.16,593.16,317.58,555.87,330.64,517.06z"/>
	<path class="st0" d="M391.17,208.83c-17.13,9.32-35.25,13.79-54.62,12.71C353.4,211.51,372.64,211.46,391.17,208.83z"/>
	<path class="st0" d="M284.28,220.07c-18.96,1.44-36.67-3.01-53.37-12.13C249.1,210.1,267.64,210.64,284.28,220.07z"/>
	<path class="st0" d="M175.99,447.29c-1.06-8.51,4.9-13.41,11.54-17.97c-3.12,6.36-6.23,12.73-9.35,19.09
		C177.45,448.04,176.72,447.66,175.99,447.29z"/>
	<path class="st0" d="M443.46,451.51c-3.85-7.98-6.87-14.25-10.26-21.3C442.13,435.12,445.49,441.42,443.46,451.51z"/>
</g>
</svg>
