<?xml version="1.0" encoding="utf-8"?>
<!-- Generator: Adobe Illustrator 24.3.0, SVG Export Plug-In . SVG Version: 6.00 Build 0)  -->
<svg version="1.1" id="Layer_1" xmlns="http://www.w3.org/2000/svg" xmlns:xlink="http://www.w3.org/1999/xlink" x="0px" y="0px"
	 viewBox="0 0 612 792" style="enable-background:new 0 0 612 792;" xml:space="preserve">
<style type="text/css">
	.st0{fill:#FFFFFF;}
</style>
<g>
	<path class="st0" d="M500.98,786c-130.43,0-260.86,0-391.29,0c0-260.33,0-520.67,0-781c130.43,0,260.86,0,391.29,0
		C500.98,265.33,500.98,525.67,500.98,786z M449.93,662.31c0.83-0.21,1.66-0.43,2.48-0.64c-5.15-21.55-10.3-43.11-15.56-65.09
		c10.18-3.61,21.41-7.59,32.63-11.57c-7.02-3.7-13.34-6.53-19.95-7.7c-12.37-2.19-20.53-7.42-19.71-21.49
		c0.1-1.73-0.79-3.56-1.38-5.29c-1.51-4.41-2.53-8.33-0.23-13.31c2.15-4.65-0.43-9.21-5.85-11.06c-7.44-2.54-10.55-8.84-10.37-15.57
		c0.37-13.4-0.68-27.35,7.84-39.23c0.16-0.22-0.25-0.85-0.47-1.48c-2.86,1.11-5.72,2.22-8.42,3.28c-2.27-6.32-4.4-12.38-6.62-18.41
		c-1.83-4.97-4.86-7.19-10.19-4.51c-9.93,4.99-19.91,9.88-30.56,15.15c-3.52-3.27-8.37-5.71-14.14-0.87
		c-0.79,0.66-2.51,0.65-3.66,0.37c-7.02-1.69-13.99-3.55-20.32-5.18c0-6.13,0-11.47,0-17.86c31.44,0.96,62.04,1.75,92.64,2.87
		c19.5,0.71,37.7,6.22,53.38,17.99c8.17,6.13,15.15,13.86,22.84,21.02c2.8-17.09,5.91-34.55,1.83-52.27
		c-2.66-11.56-7.15-21.88-15.65-30.94c-11.5-12.25-21.41-26-32.9-40.21c4.28,14.73,8.25,27.9,11.9,41.16
		c1.97,7.17-0.82,11.99-7.36,12.89c-9.29,1.28-18.62,2.52-27.97,3.12c-31.31,2.01-57.99-9.88-83.19-27.26
		c-8.7-6-12.69-13.6-14.19-23.11c-1.23-7.74-1.97-15.62-2.01-23.45c-0.01-2.92,1.99-6.46,4.16-8.64c4.15-4.17,6.35-9.78,1.84-12.9
		c-7.43-5.15-5.89-11.72-6.04-18.43c-0.11-4.69-0.3-8.74,4.93-11.88c5.09-3.05,4.23-10.03-0.61-14.12c-6.2-5.23-6.28-21.97-0.1-27.1
		c4.6-3.82,6.24-9.88,1.77-12.83c-8.77-5.8-5.52-13.71-5.84-20.98c-0.1-2.23,1.63-5.18,3.44-6.75c6.2-5.37,6.12-10.82-0.21-16.31
		c-1.81-1.57-3.05-4.46-3.38-6.91c-0.56-4.13-0.22-8.38-0.19-12.58c0.03-4.07-0.47-7.69,4.57-10.38c5.12-2.73,5.95-9.75,1.33-12.6
		c-8.38-5.17-5.27-12.48-6.15-19.22c-0.62-4.78,1.75-6.55,6.04-7.13c11.91-1.59,23.8-3.28,35.69-5c11.59-1.68,23.16-3.44,34.74-5.17
		c0.01-0.53,0.02-1.06,0.03-1.6c-17.3-5.93-34.6-11.87-53.71-18.43c15.63-5.44,29.26-10.19,42.88-14.93
		c-19.05-6.03-37.72-10.74-56.51-14.94c-6.4-1.43-10.24-3.89-12.25-10.81c-4.35-14.97-9.92-29.59-15.61-46.17
		c-5.38,17.23-9.95,32.62-15.14,47.8c-0.96,2.8-4.07,5.87-6.86,6.83c-7.12,2.45-14.63,3.74-21.98,5.55
		c-12.94,3.17-25.87,6.38-40.81,10.07c15.85,5.8,29.6,10.83,45.37,16.6c-20.62,6.39-39.16,12.13-57.69,17.87
		c23.54,4.76,47,8.31,70.41,12.22c3.12,0.52,8.63,3.23,8.48,4.19c-1.05,6.54,4.85,14.44-3.73,19.76c-2.54,1.57-5.37,5.32-5.22,7.9
		c0.17,3.01,3.3,5.97,5.5,8.67c1.02,1.25,3.55,1.48,4.23,2.78c2.71,5.17-0.78,21.34-5.12,25.34c-7,6.44-6.6,11.47,1.05,17.18
		c1.39,1.04,2.72,2.95,2.95,4.61c0.78,5.68,1.05,11.43,1.53,17.36c-2.1,0.95-4.36,1.62-6.22,2.88c-4.77,3.22-6.23,10.89-1.57,13.32
		c9.77,5.1,6.45,13.48,6.89,20.9c0.12,2.09-1.48,4.94-3.19,6.36c-8.21,6.82-8.88,12.46-0.41,19c4.07,3.15,4.72,6.34,4.48,10.62
		c-0.22,3.91-0.38,7.82-0.57,11.73c-0.6-0.35-1.2-0.7-1.8-1.04c-2.7,3.41-7.26,6.68-7.54,10.28c-0.23,3.04,4.58,6.41,7.02,9.72
		c1.14,1.54,2.86,3.35,2.78,4.97c-0.47,9.63,0.68,20.01-2.58,28.69c-6.94,18.48-21.89,29.86-40.21,36.44
		c-22.13,7.95-45.28,10.07-68.58,11.12c-4.66,0.21-9.32,1.35-13.96,1.25c-8.7-0.17-13.04-7.77-10.41-18.79
		c2.95-12.35,6.53-24.56,9.83-36.83c-14.85,16.74-28.56,34.2-42.07,51.83c-1.86,2.42-3.13,5.52-3.9,8.51
		c-5.05,19.66-0.65,39.21,0.03,61.31c4.84-5.28,7.81-8.94,11.21-12.14c18.44-17.34,40.45-26.75,65.59-28.25
		c16.71-1,33.48-1.22,50.23-1.49c14.82-0.24,29.65-0.05,44.42-0.05c0,4.96,0,10.81,0,16.41c-7.59,1.89-14.39,3.72-21.27,5.19
		c-1.83,0.39-4.34,0.33-5.76-0.65c-5.48-3.77-9.78-1.81-12.97,1.29c-10.21-5.06-19.98-9.79-29.63-14.73
		c-6.07-3.11-9.23-0.52-11.19,5.12c-2.01,5.82-4.07,11.62-6.29,17.94c-3.08-1.24-6.03-2.43-8.97-3.62c-0.59,0.3-1.19,0.6-1.78,0.9
		c9.16,11.38,9.77,24.48,9.49,37.87c-0.15,7.34-4.55,14.56-11.2,17.64c-5.47,2.53-7.76,6.55-5.16,12.75
		c0.9,2.14,1.01,4.93,0.58,7.25c-1.23,6.68-3.3,13.22-4.3,19.92c-0.63,4.24-2.36,6.19-6.42,7.37c-10.49,3.06-20.84,6.61-31.25,9.96
		c-0.01,0.56-0.01,1.12-0.02,1.68c11.45,3.99,22.91,7.97,34.7,12.07c-8.32,21.06-13.81,42.11-15.07,65.58
		c7.43-10.69,13.92-20.04,20.42-29.39c0.64,0.11,1.29,0.23,1.93,0.34c1.68,22.68,3.36,45.37,4.91,66.31
		c6.96-4.05,13.18-7.67,19.61-11.41c12.79,17.98,28.43,30.87,46.12,41.86c-3.63-7.71-7.02-14.93-10.41-22.14
		c0.63-0.35,1.26-0.7,1.9-1.04c19.87,24.7,39.74,49.4,59.99,74.57c20.64-25.7,40.53-50.45,60.41-75.2c0.54,0.3,1.08,0.59,1.62,0.89
		c-3.17,7.08-6.34,14.15-9.51,21.23c0.65,0.62,1.29,1.24,1.94,1.86c14.54-13.18,29.09-26.36,44.65-40.47
		c4.68,2.31,11.11,5.49,18.81,9.29c0.62-17.85,1.16-36.33,1.98-54.8c0.16-3.65,1.39-7.24,2.13-10.86c0.7-0.1,1.4-0.21,2.1-0.31
		C436.75,643.17,443.34,652.74,449.93,662.31z"/>
	<path d="M449.93,662.31c-6.59-9.57-13.18-19.14-19.77-28.71c-0.7,0.1-1.4,0.21-2.1,0.31c-0.74,3.62-1.97,7.22-2.13,10.86
		c-0.82,18.47-1.36,36.96-1.98,54.8c-7.7-3.8-14.12-6.98-18.81-9.29c-15.56,14.1-30.1,27.29-44.65,40.47
		c-0.65-0.62-1.29-1.24-1.94-1.86c3.17-7.08,6.34-14.15,9.51-21.23c-0.54-0.3-1.08-0.59-1.62-0.89
		c-19.88,24.75-39.77,49.5-60.41,75.2c-20.25-25.17-40.12-49.87-59.99-74.57c-0.63,0.35-1.26,0.7-1.9,1.04
		c3.39,7.21,6.78,14.43,10.41,22.14c-17.69-10.98-33.33-23.88-46.12-41.86c-6.43,3.74-12.65,7.36-19.61,11.41
		c-1.55-20.94-3.23-43.62-4.91-66.31c-0.64-0.11-1.29-0.23-1.93-0.34c-6.49,9.35-12.99,18.69-20.42,29.39
		c1.25-23.47,6.74-44.52,15.07-65.58c-11.79-4.1-23.24-8.09-34.7-12.07c0.01-0.56,0.01-1.12,0.02-1.68
		c10.41-3.35,20.76-6.9,31.25-9.96c4.06-1.18,5.79-3.13,6.42-7.37c1-6.7,3.07-13.24,4.3-19.92c0.43-2.33,0.32-5.11-0.58-7.25
		c-2.6-6.2-0.31-10.22,5.16-12.75c6.66-3.09,11.05-10.3,11.2-17.64c0.28-13.39-0.33-26.49-9.49-37.87c0.59-0.3,1.19-0.6,1.78-0.9
		c2.94,1.19,5.89,2.37,8.97,3.62c2.22-6.33,4.27-12.13,6.29-17.94c1.95-5.64,5.11-8.23,11.19-5.12c9.65,4.94,19.41,9.67,29.63,14.73
		c3.19-3.1,7.49-5.06,12.97-1.29c1.43,0.98,3.94,1.04,5.76,0.65c6.88-1.47,13.68-3.31,21.27-5.19c0-5.6,0-11.45,0-16.41
		c-14.77,0-29.6-0.19-44.42,0.05c-16.75,0.27-33.51,0.49-50.23,1.49c-25.14,1.5-47.15,10.91-65.59,28.25
		c-3.4,3.2-6.37,6.86-11.21,12.14c-0.68-22.1-5.08-41.65-0.03-61.31c0.77-2.99,2.04-6.09,3.9-8.51
		c13.51-17.63,27.22-35.09,42.07-51.83c-3.3,12.27-6.88,24.47-9.83,36.83c-2.63,11.02,1.71,18.62,10.41,18.79
		c4.64,0.09,9.29-1.05,13.96-1.25c23.3-1.04,46.44-3.17,68.58-11.12c18.32-6.58,33.27-17.96,40.21-36.44
		c3.26-8.68,2.11-19.06,2.58-28.69c0.08-1.61-1.64-3.43-2.78-4.97c-2.45-3.32-7.26-6.69-7.02-9.72c0.27-3.6,4.83-6.87,7.54-10.28
		c0.6,0.35,1.2,0.7,1.8,1.04c0.19-3.91,0.35-7.82,0.57-11.73c0.24-4.28-0.41-7.47-4.48-10.62c-8.46-6.55-7.79-12.18,0.41-19
		c1.71-1.42,3.31-4.27,3.19-6.36c-0.44-7.42,2.88-15.8-6.89-20.9c-4.66-2.43-3.2-10.11,1.57-13.32c1.87-1.26,4.12-1.93,6.22-2.88
		c-0.48-5.93-0.75-11.68-1.53-17.36c-0.23-1.66-1.56-3.58-2.95-4.61c-7.66-5.7-8.05-10.74-1.05-17.18c4.34-4,7.83-20.17,5.12-25.34
		c-0.68-1.3-3.21-1.53-4.23-2.78c-2.2-2.7-5.32-5.66-5.5-8.67c-0.15-2.58,2.68-6.33,5.22-7.9c8.58-5.33,2.68-13.22,3.73-19.76
		c0.15-0.96-5.36-3.67-8.48-4.19c-23.41-3.9-46.87-7.46-70.41-12.22c18.53-5.74,37.07-11.48,57.69-17.87
		c-15.77-5.77-29.53-10.8-45.37-16.6c14.95-3.69,27.88-6.9,40.81-10.07c7.34-1.8,14.86-3.1,21.98-5.55c2.79-0.96,5.9-4.03,6.86-6.83
		c5.19-15.18,9.76-30.57,15.14-47.8c5.69,16.58,11.26,31.2,15.61,46.17c2.01,6.92,5.85,9.38,12.25,10.81
		c18.79,4.2,37.47,8.91,56.51,14.94c-13.63,4.74-27.25,9.49-42.88,14.93c19.12,6.56,36.41,12.49,53.71,18.43
		c-0.01,0.53-0.02,1.06-0.03,1.6c-11.58,1.73-23.15,3.49-34.74,5.17c-11.89,1.72-23.78,3.41-35.69,5c-4.29,0.57-6.66,2.35-6.04,7.13
		c0.87,6.74-2.23,14.05,6.15,19.22c4.62,2.85,3.79,9.87-1.33,12.6c-5.04,2.69-4.54,6.31-4.57,10.38c-0.03,4.2-0.37,8.45,0.19,12.58
		c0.33,2.45,1.57,5.35,3.38,6.91c6.33,5.48,6.41,10.94,0.21,16.31c-1.81,1.56-3.54,4.51-3.44,6.75c0.32,7.27-2.94,15.18,5.84,20.98
		c4.46,2.95,2.82,9.01-1.77,12.83c-6.17,5.13-6.09,21.87,0.1,27.1c4.85,4.09,5.7,11.06,0.61,14.12c-5.24,3.14-5.04,7.2-4.93,11.88
		c0.16,6.71-1.38,13.28,6.04,18.43c4.51,3.13,2.3,8.73-1.84,12.9c-2.17,2.18-4.17,5.72-4.16,8.64c0.03,7.82,0.78,15.71,2.01,23.45
		c1.51,9.52,5.49,17.11,14.19,23.11c25.21,17.38,51.88,29.27,83.19,27.26c9.35-0.6,18.68-1.84,27.97-3.12
		c6.54-0.9,9.34-5.73,7.36-12.89c-3.65-13.26-7.62-26.44-11.9-41.16c11.48,14.21,21.4,27.95,32.9,40.21
		c8.5,9.06,12.99,19.39,15.65,30.94c4.08,17.72,0.97,35.18-1.83,52.27c-7.69-7.16-14.67-14.88-22.84-21.02
		c-15.68-11.77-33.88-17.28-53.38-17.99c-30.59-1.12-61.2-1.91-92.64-2.87c0,6.38,0,11.72,0,17.86c6.33,1.63,13.31,3.49,20.32,5.18
		c1.15,0.28,2.87,0.29,3.66-0.37c5.78-4.84,10.62-2.4,14.14,0.87c10.64-5.27,20.63-10.15,30.56-15.15
		c5.32-2.68,8.36-0.46,10.19,4.51c2.22,6.03,4.35,12.09,6.62,18.41c2.7-1.05,5.55-2.16,8.42-3.28c0.21,0.64,0.62,1.26,0.47,1.48
		c-8.52,11.88-7.47,25.83-7.84,39.23c-0.18,6.73,2.92,13.03,10.37,15.57c5.42,1.85,8,6.41,5.85,11.06
		c-2.31,4.98-1.28,8.9,0.23,13.31c0.59,1.73,1.48,3.56,1.38,5.29c-0.82,14.07,7.34,19.3,19.71,21.49c6.61,1.17,12.93,4,19.95,7.7
		c-11.23,3.98-22.46,7.96-32.63,11.57c5.25,21.98,10.41,43.54,15.56,65.09C451.59,661.88,450.76,662.09,449.93,662.31z
		 M195.95,613.89c0,3.31,0.35,5.22-0.06,6.95c-2.91,12.53-2.74,24.24,6.57,34.61c3.61,4.02,5.64,9.42,8.94,13.78
		c7.15,9.44,14.41,18.89,25.93,25.69c0-6.21,0-11.08,0-18.07c12.08,16.07,22.97,30.57,33.86,45.06c0.62-0.44,1.24-0.88,1.86-1.32
		c0.15-3.16,0.3-6.33,0.5-10.53c10.69,16.82,20.68,32.53,30.67,48.24c1.12,0.08,2.24,0.15,3.35,0.23
		c10.23-16.03,20.47-32.06,31.58-49.45c0,4.95,0,8.25,0,11.54c0.66,0.38,1.32,0.76,1.97,1.15c10.7-14.34,21.4-28.68,33.45-44.83
		c0.44,7.34,0.73,12.25,1.08,17.97c16.34-12.36,27.53-27.24,36.21-44.23c0.97-1.89,3.11-3.18,6.33-6.35
		c-0.67-8.43-1.52-19.05-2.44-30.5c6.03,3.75,11.72,7.28,17.4,10.81c-12.99-23.12-24.37-46.98-44.87-64.17
		c3.25-2.99,5.91-5.43,8.77-8.06c-8.48-5.06-16.37-9.76-24.41-14.55c0.24,2.3,0.45,4.37,0.66,6.44c0.32-0.49,0.64-0.99,0.96-1.48
		c-4.14-3.75-8.27-7.49-12.43-11.25c8.64-2.37,15.59,1.89,21.41,7.45c5.73,5.48,9.63,3.64,13.22-1.65c2.16-3.2,4.63-6.81,5.05-10.45
		c1.61-14.21,3.32-28.51,3.24-42.77c-0.04-7.23-3.8-14.44-5.87-21.66c-1.11-0.1-2.22-0.2-3.32-0.3
		c-7.66,10.66-15.31,21.32-23.14,32.22c2.09,0.29,4,0.56,5.92,0.82c-9.12,4.18-18.38,7.49-27.91,9.54
		c-21.72,4.68-42.89,13.87-66.07,5.78c-15.85-5.53-32.41-9.01-48.64-13.47c-0.74-0.2-1.32-1-2.25-1.76c2.4-0.41,4.22-0.72,6-1.02
		c-4.12-5.75-7.87-11.07-11.72-16.32c-3.89-5.3-7.87-10.54-13.02-17.41c-2.48,5.58-4.92,8.73-5.19,12.06
		c-1.12,13.74-2.63,27.59-1.88,41.28c0.43,7.93,4.15,16.01,7.78,23.34c3.25,6.56,7.11,6.45,12.87,1.86
		c6.5-5.18,13.23-9.97,23.1-7.15c-4.48,4.38-8.47,8.27-12.48,12.19c-0.21-1.66-0.43-3.37-0.71-5.52
		c-7.87,4.64-15.33,9.04-24.64,14.53c3.81,2.85,6.85,5.13,9.86,7.39c-17.1,17-41.68,52.74-43.75,63.56
		C184.83,620.85,189.84,617.71,195.95,613.89z M417.56,688.33c0.79-0.07,1.57-0.13,2.36-0.2c-1.71-6.24-3.42-12.48-5.43-19.8
		C408.2,677.54,416.6,682.05,417.56,688.33z"/>
	<path class="st0" d="M195.95,613.89c-6.1,3.82-11.11,6.96-16.26,10.18c2.08-10.82,26.66-46.56,43.75-63.56
		c-3.02-2.26-6.06-4.54-9.86-7.39c9.31-5.49,16.77-9.89,24.64-14.53c0.28,2.15,0.5,3.86,0.71,5.52c4.02-3.92,8-7.81,12.48-12.19
		c-9.87-2.82-16.59,1.97-23.1,7.15c-5.76,4.59-9.62,4.7-12.87-1.86c-3.62-7.33-7.34-15.41-7.78-23.34
		c-0.75-13.69,0.76-27.54,1.88-41.28c0.27-3.33,2.71-6.49,5.19-12.06c5.15,6.87,9.13,12.11,13.02,17.41
		c3.85,5.25,7.6,10.57,11.72,16.32c-1.78,0.3-3.6,0.61-6,1.02c0.94,0.75,1.51,1.55,2.25,1.76c16.23,4.46,32.79,7.94,48.64,13.47
		c23.18,8.09,44.35-1.11,66.07-5.78c9.53-2.05,18.79-5.37,27.91-9.54c-1.92-0.27-3.84-0.53-5.92-0.82
		c7.82-10.9,15.48-21.56,23.14-32.22c1.11,0.1,2.22,0.2,3.32,0.3c2.08,7.22,5.84,14.43,5.87,21.66c0.08,14.26-1.63,28.56-3.24,42.77
		c-0.41,3.64-2.89,7.26-5.05,10.45c-3.58,5.29-7.49,7.13-13.22,1.65c-5.82-5.57-12.77-9.82-21.41-7.45
		c4.15,3.76,8.29,7.51,12.43,11.25c-0.32,0.49-0.64,0.99-0.96,1.48c-0.21-2.07-0.43-4.15-0.66-6.44c8.04,4.79,15.93,9.5,24.41,14.55
		c-2.86,2.63-5.52,5.08-8.77,8.06c20.5,17.19,31.87,41.05,44.87,64.17c-5.68-3.53-11.37-7.06-17.4-10.81
		c0.92,11.45,1.77,22.07,2.44,30.5c-3.22,3.17-5.36,4.46-6.33,6.35c-8.69,16.99-19.88,31.87-36.21,44.23
		c-0.34-5.72-0.64-10.63-1.08-17.97c-12.05,16.15-22.75,30.49-33.45,44.83c-0.66-0.38-1.32-0.76-1.97-1.15c0-3.29,0-6.59,0-11.54
		c-11.11,17.4-21.34,33.42-31.58,49.45c-1.12-0.08-2.24-0.15-3.35-0.23c-9.99-15.71-19.98-31.42-30.67-48.24
		c-0.2,4.2-0.35,7.36-0.5,10.53c-0.62,0.44-1.24,0.88-1.86,1.32c-10.89-14.49-21.78-28.99-33.86-45.06c0,7,0,11.87,0,18.07
		c-11.52-6.81-18.77-16.25-25.93-25.69c-3.3-4.35-5.33-9.76-8.94-13.78c-9.31-10.37-9.48-22.08-6.57-34.61
		C196.29,619.11,195.95,617.2,195.95,613.89z M294.09,637.74c13.57-29.24,8.71-57.53-24.02-73.55c0.38,1.62,0.69,2.9,0.99,4.19
		c-30.25,2.14-45.9,12.15-56.2,35.87c-7.75,17.85-8.53,37.42-1.81,45.73c0.93-22.14,5.32-34.78,15.17-42.21
		c1.09,16.34,4.89,31.37,15.48,44.13c0.94-7.21,1.14-14,2.84-20.38c1.92-7.22,6.14-8.52,11.27-3.06c4.05,4.31,7.61,10.15,8.8,15.86
		c3.01,14.51,4.68,29.31,6.68,44.02c2.38,17.57,11.43,29.88,28.05,36.29c2.09,0.81,4.77,1.61,6.73,0.99
		c13.35-4.26,24.35-12.16,27.59-26.22c4.21-18.21,6.15-36.94,9.86-55.28c1.07-5.29,3.96-10.85,7.61-14.82
		c6.02-6.55,10.37-5.29,12.6,3.18c1.57,5.98,1.82,12.3,2.79,19.5c10.17-13.8,14.7-28.35,15.12-46.16
		c12.29,13.82,15.77,28.47,16.12,44.58c1.7-4.35,3.34-8.75,3.57-13.23c1.71-33.49-20.81-69.76-59.13-68.52
		c-1.34,0.04-2.76-2.11-4.46-3.51c-30.34,15.97-35.69,42.96-21.63,72.73c-3.63-15.97,0.73-27.55,11.94-27.15c0,2.81,0,5.63,0,7.78
		c2.58-2.33,5.17-6.7,8.16-7c10.22-1.04,17.11-6.21,22.22-14.7c0.53,0.34,1.07,0.68,1.6,1.02c-3.6,7.04-7.21,14.09-10.81,21.13
		c7.24-4.79,13.83-10.5,19.24-17.18c3.39-4.19,5.25-3.84,7.74-1.06c-3.66,8.31-7.04,15.98-10.41,23.63
		c-8.75-4.73-17.79-4.06-22.81,3.08c-3.34,4.75-5.7,10.55-7.12,16.23c-1.79,7.22-2.19,14.79-3.18,22.2
		c-0.38,0.02-0.75,0.04-1.13,0.06c-0.46-1.91-0.92-3.83-1.88-7.79c-3.75,7.89-6.6,13.91-8.84,18.64c-11.41,0-22.42,0-33.49,0
		c-2.49-5.04-5.3-10.72-8.69-17.6c-1.55,4.88-2.55,8.02-3.54,11.13c-0.87-9.05-1.16-17.98-2.7-26.68
		c-2.7-15.31-14.02-28.73-30.18-19.62c-3.52-7.69-7.05-15.39-10.61-23.18c3.14-3.34,5.45-3,8.11,1.36
		c4.63,7.58,10.81,13.64,18.72,16.39c-3.38-6.75-6.85-13.7-10.05-20.08c6.13,4.1,11.79,8.32,17.87,11.82
		c4.52,2.6,9.58,4.27,13.78,6.09c0-0.61,0-3.53,0-6.6C294.8,614.47,296.99,619.72,294.09,637.74z"/>
	<path class="st0" d="M417.56,688.33c-0.97-6.28-9.36-10.79-3.07-20c2.01,7.32,3.72,13.56,5.43,19.8
		C419.14,688.2,418.35,688.26,417.56,688.33z"/>
	<path d="M294.09,637.74c2.9-18.03,0.71-23.28-12.06-27.91c0,3.07,0,5.99,0,6.6c-4.2-1.82-9.26-3.49-13.78-6.09
		c-6.08-3.5-11.74-7.72-17.87-11.82c3.2,6.39,6.67,13.33,10.05,20.08c-7.91-2.75-14.09-8.81-18.72-16.39
		c-2.67-4.37-4.97-4.7-8.11-1.36c3.57,7.79,7.09,15.5,10.61,23.18c16.17-9.11,27.48,4.31,30.18,19.62c1.54,8.7,1.82,17.62,2.7,26.68
		c0.99-3.11,1.99-6.26,3.54-11.13c3.4,6.87,6.21,12.56,8.69,17.6c11.08,0,22.09,0,33.49,0c2.24-4.73,5.1-10.75,8.84-18.64
		c0.95,3.96,1.42,5.87,1.88,7.79c0.38-0.02,0.75-0.04,1.13-0.06c1-7.42,1.39-14.98,3.18-22.2c1.41-5.68,3.77-11.47,7.12-16.23
		c5.03-7.14,14.07-7.81,22.81-3.08c3.37-7.64,6.75-15.31,10.41-23.63c-2.49-2.79-4.35-3.13-7.74,1.06
		c-5.41,6.68-12,12.4-19.24,17.18c3.6-7.04,7.21-14.09,10.81-21.13c-0.53-0.34-1.07-0.68-1.6-1.02c-5.11,8.49-12,13.66-22.22,14.7
		c-3,0.3-5.58,4.67-8.16,7c0-2.15,0-4.97,0-7.78c-11.21-0.4-15.57,11.18-11.94,27.15c-14.05-29.77-8.7-56.77,21.63-72.73
		c1.7,1.39,3.12,3.55,4.46,3.51c38.31-1.24,60.84,35.04,59.13,68.52c-0.23,4.47-1.86,8.88-3.57,13.23
		c-0.34-16.11-3.82-30.77-16.12-44.58c-0.43,17.8-4.96,32.36-15.12,46.16c-0.98-7.2-1.22-13.53-2.79-19.5
		c-2.23-8.47-6.58-9.74-12.6-3.18c-3.65,3.97-6.54,9.53-7.61,14.82c-3.71,18.34-5.65,37.07-9.86,55.28
		c-3.25,14.06-14.24,21.96-27.59,26.22c-1.95,0.62-4.63-0.18-6.73-0.99c-16.62-6.41-25.67-18.71-28.05-36.29
		c-1.99-14.71-3.67-29.51-6.68-44.02c-1.18-5.7-4.75-11.55-8.8-15.86c-5.13-5.46-9.35-4.16-11.27,3.06
		c-1.7,6.38-1.9,13.17-2.84,20.38c-10.58-12.76-14.39-27.79-15.48-44.13c-9.85,7.43-14.24,20.07-15.17,42.21
		c-6.72-8.31-5.94-27.89,1.81-45.73c10.31-23.72,25.95-33.73,56.2-35.87c-0.31-1.3-0.61-2.57-0.99-4.19
		C302.81,580.21,307.67,608.5,294.09,637.74z M261.22,581.1c-0.11,0.32-0.23,0.63-0.34,0.95c1.19,0.63,2.38,1.26,3.94,2.08
		c-2.69,1.56-5.11,2.96-7.85,4.55c9.99,3.72,19.74,7.36,30.78,11.47c-3.44-12.12-15.11-25.34-19.02-22.97
		c0.71,1.67,1.42,3.35,2.07,4.88C267.24,581.7,264.23,581.4,261.22,581.1z M344.39,575.34c-10.64,5.84-16.74,12.77-18.54,24.27
		c9.58-3.63,19.15-7.25,28.68-10.86c-2.51-1.54-4.86-2.98-7.57-4.65c1.79-0.85,3-1.43,4.22-2c-0.09-0.33-0.17-0.66-0.26-0.99
		c-3.24,0.32-6.48,0.65-10.04,1C341.79,580.36,342.61,578.78,344.39,575.34z M274.19,604.52c-4.85-3.98-8.56-7.18-12.48-10.08
		c-0.57-0.42-2.84,0.25-3.15,0.94c-0.52,1.16-0.58,3.02,0.02,4.11C261.69,605.02,266.63,606.16,274.19,604.52z M337.88,604.38
		c7.75,1.9,12.47,0.37,15.49-5.04c0.6-1.07,0.47-2.91-0.03-4.1c-0.25-0.6-2.5-1.13-3.11-0.68
		C346.37,597.37,342.72,600.47,337.88,604.38z"/>
	<path class="st0" d="M261.22,581.1c3.01,0.3,6.02,0.6,9.57,0.96c-0.65-1.53-1.36-3.21-2.07-4.88c3.91-2.37,15.58,10.85,19.02,22.97
		c-11.04-4.11-20.79-7.75-30.78-11.47c2.74-1.59,5.16-2.99,7.85-4.55c-1.55-0.82-2.75-1.45-3.94-2.08
		C260.99,581.73,261.1,581.41,261.22,581.1z"/>
	<path class="st0" d="M344.39,575.34c-1.78,3.44-2.6,5.03-3.5,6.78c3.56-0.36,6.8-0.68,10.04-1c0.09,0.33,0.17,0.66,0.26,0.99
		c-1.21,0.58-2.43,1.15-4.22,2c2.71,1.66,5.06,3.11,7.57,4.65c-9.53,3.61-19.11,7.23-28.68,10.86
		C327.65,588.11,333.75,581.18,344.39,575.34z"/>
	<path class="st0" d="M274.19,604.52c-7.56,1.64-12.5,0.5-15.6-5.03c-0.61-1.08-0.54-2.94-0.02-4.11c0.31-0.69,2.57-1.36,3.15-0.94
		C265.63,597.34,269.34,600.54,274.19,604.52z"/>
	<path class="st0" d="M337.88,604.38c4.84-3.91,8.49-7.01,12.35-9.82c0.61-0.45,2.86,0.08,3.11,0.68c0.5,1.19,0.63,3.02,0.03,4.1
		C350.34,604.75,345.63,606.28,337.88,604.38z"/>
</g>
</svg>
