<?xml version="1.0" encoding="iso-8859-1"?>
<!-- Generator: Adobe Illustrator 25.4.1, SVG Export Plug-In . SVG Version: 6.00 Build 0)  -->
<svg version="1.1" id="Layer_1" xmlns="http://www.w3.org/2000/svg" xmlns:xlink="http://www.w3.org/1999/xlink" x="0px" y="0px"
	 viewBox="0 0 1920 1080" style="enable-background:new 0 0 1920 1080;" xml:space="preserve">
<g>
	<path style="fill:#FFFFFF;" d="M1235,815c-183.333,0-366.667,0-550,0c0-183.333,0-366.667,0-550c183.333,0,366.667,0,550,0
		C1235,448.333,1235,631.667,1235,815z M899.383,567.928c7.881-2.057,11.889,1.799,14.362,8.108
		c0.232,0.593,0.937,0.995,1.194,1.585c3.264,7.497,11.645,12.641,10.002,22.253c6.245,0.456,8.242,4.505,5.304,10.832
		c1.934,0.114,3.721,0.219,6.369,0.375c-1.316,2.088-2.169,3.562-3.142,4.951c-0.987,1.409-2.092,2.734-3.667,4.77
		c2.966,0,4.906-0.093,6.832,0.027c1.76,0.11,4.632-0.076,5.04,0.794c1.07,2.284,1.869,5.268,1.3,7.615
		c-0.866,3.57-3.657,6.696-4.409,10.267c-1.314,6.237-7.037,1.442-9.465,4.362c-0.09,0.109-0.594-0.127-2.286-0.536
		c-0.255-3.182-0.543-6.774-0.832-10.365c0.646-0.184,0.584-0.357,0.461-0.45c-4.859-3.658-12.024-5.536-10.601-14.046
		c0.11-0.66-1.218-2.06-2.102-2.302c-4.502-1.236-5.506-4.553-5.329-8.532c0.129-2.917,0.579-5.819,0.82-8.099
		c-4.252-1.801-9.36-2.425-11.235-5.22c-1.657-2.469,0.289-7.356,0.677-11.526c-2.078-0.342-5.332-0.877-8.586-1.412
		c-0.446-0.643-0.893-1.285-1.339-1.928c3.862-2.768,7.724-5.536,11.585-8.305c-0.327-0.451-0.655-0.901-0.982-1.352
		c-4.624,1.147-9.248,2.293-14.038,3.481c-0.527-0.815-1.381-2.138-2.274-3.52c1.339-2.315,2.683-4.638,4.027-6.962
		c-4.958,1.972-7.749,0.381-9.846-3.887c-0.505-1.029-2.561-1.804-3.918-1.826c-9.497-0.156-18.998-0.032-28.497-0.104
		c-4.848-0.036-10.596,1.885-11.948-5.497c-3.38,2.075-6.352,5.378-8.918,5.087c-2.957-0.335-5.554-3.843-8.42-6.06
		c-0.253,1.96-0.536,4.153-0.872,6.756c-4.016,0-7.773,0-12.382,0c10.149,58.297,42.423,100.19,95.245,122.524
		c59.016,24.953,115.591,13.073,164.385-27.364c28.819-23.883,46.182-56.11,50.975-93.434c-3.493-1.207-6.352-2.196-9.723-3.361
		c-3.355,5.385-9.38,2.462-14.544,2.638c-5.074,0.173-11.156,1.919-13.531-5.823c-1.291,2.528-2.071,4.054-2.851,5.581
		c-0.521,0.047-1.041,0.095-1.562,0.143c-1.475-3.552-2.951-7.104-4.753-11.442c-0.424,1.68-0.652,2.573-0.874,3.468
		c-1.912,7.705-1.937,7.748-9.748,7.78c-4.995,0.021-10.002,0.162-14.98-0.137c-3.043-0.183-4.619,0.133-5.589,3.677
		c-1.737,6.341-6.421,9.661-10.349,9.459c-0.486,3.471,0.186,8.163-1.742,9.807c-1.971,1.681-6.491,0.372-9.457,0.372
		c-2.046,0.963-4.033,1.898-6.366,2.995c2.196,2.74,6.129,5.532,6.565,8.791c0.431,3.225-2.675,6.918-4.216,10.413
		c-0.52,1.179-0.938,2.407-1.515,3.556c-0.346,0.689-0.911,1.268-1.339,1.845c-1.514-0.489-2.836-0.916-3.81-1.23
		c-0.652,3.715-1.248,7.109-2.018,11.5c-2.499-2.157-3.7-3.193-6.125-5.286c2.959,11.177-1.418,18.93-7.295,26.086
		c-1.968-0.318-3.764-0.609-5.891-0.953c2.608,7.541,1.413,11.862-4.1,16.839c-2.97-2.122-5.898-4.214-8.825-6.306
		c0.845,4.673,2.813,8.558,3.739,12.676c1.229,5.462-2.712,8.652-7.868,6.943c-1.152-0.382-2.382-0.531-4.459-0.977
		c2.437,3.166,4.283,5.564,6.223,8.083c-2.922,4.381-5.86,8.787-9.36,14.035c-3.094-4.985-7.081-8.913-7.869-13.402
		c-0.745-4.245,1.869-9.08,3.154-14.251c-2.983,2.057-5.61,3.87-8.832,6.092c-3.623-6.453-6.865-12.227-10.135-18.052
		c1.937-2.533,3.655-5.211,5.807-7.477c2.367-2.492,4.993-4.792,7.754-6.842c5.968-4.432,5.177,3.212,7.921,4.594
		c0.288,0.145,0.593,0.254,1.055,0.45c1.809-2.117,3.644-4.263,4.832-5.654c3.412,1.731,6.285,3.189,9.274,4.706
		c1.991-6.252-2.884-13.044,5.336-17.053c-5.429-2.305-5.963-5.61-2.74-8.837c2.494-2.497,5.789-4.193,9.137-6.531
		c0-2.487,0-5.424,0-8.3c4.519-0.688,8.704-1.326,12.987-1.978c-2.055-3.277-4.099-6.535-5.936-9.462
		c2.406-3.999,4.963-7.464,6.658-11.309c1.405-3.188,3.097-3.436,5.742-2.087c2.061,1.051,4.101,2.143,6.151,3.217
		c0.549-0.237,1.099-0.475,1.648-0.712c-6.951-5.933-9.924-12.19-1.917-19.197c-5.263-0.726-11.336,2.19-11.533-4.896
		c-2.751,1.279-5.983,4.168-8.118,3.508c-5.662-1.751-10.815-0.238-16.238,0.146c-3.742,0.264-7.594-1.059-11.401-1.645
		c-0.471-0.073-0.971,0.001-1.453,0.051c-5.596,0.58-11.184,1.275-16.794,1.645c-0.909,0.06-2.629-1.217-2.747-2.049
		c-0.481-3.404-0.51-6.874-0.631-10.322c-0.012-0.338,0.481-0.693,0.761-1.07c0.885,1.184,1.69,2.263,2.622,3.51
		c1.173-3.701,2.202-6.945,3.338-10.527c9.894,0.482,19.503,0.95,31.028,1.511c3.169-2.097,6.132-1.731,9.947,3.264
		c1.994,2.611,4.494,2.544,5.556,0.232c1.891-4.118,5.043-3.426,8.305-3.64c3.65-0.239,7.359,0.364,10.876,0.555
		c7.551,0.411,10-3.641,13.253-9.019c3.203-5.295,3.391-14.453,14.277-12.327c-1.872-2.032-2.869-3.114-3.932-4.268
		c0.285-0.424,0.582-0.785,0.791-1.192c1.637-3.185,2.505-7.786,5.096-9.172c2.556-1.367,6.851,0.516,10.087,0.935
		c-1.107-2.264-2.333-4.771-3.604-7.37c2-0.518,3.427-0.888,5.351-1.386c-0.522-2.917-1.02-5.704-1.596-8.922
		c0.323-0.236,1.748-0.777,1.77-1.369c0.301-8.395,6.754-9.425,12.827-10.897c1.624-0.394,3.303-0.563,4.957-0.833
		c1.231-0.201,2.635-0.084,3.666-0.65c5.342-2.929,10.59-4.235,16.018,0.161c-1.734,2.732-3.021,6.001-5.36,8.095
		c-2.27,2.032-5.619,2.857-8.142,4.046c0.878,1.581,1.879,3.386,2.881,5.19c-2.318,0.806-4.636,1.611-7.003,2.434
		c0.119,0.774,0.279,1.818,0.456,2.976c-2.123,0.173-3.896,0.317-5.971,0.486c1.153,2.92,3.065,5.581,2.974,8.171
		c-0.084,2.388-1.536,5.871-5.672,3.635c0,1.318-0.275,2.409,0.046,3.279c1.771,4.798-0.508,6.037-4.769,5.646
		c-2.955-0.271-5.907-0.579-8.803-0.864c9.231,8.801,9.229,8.856,0.401,13.776c0.174,3.376,0.327,6.332,0.484,9.38
		c1.261,0,3.33,0,5.276,0c0.869,2.377,1.644,4.498,2.476,6.774c4.886-1.94,7.078-12.809,13.785-4.193
		c1.687-0.854,3.028-2.037,4.474-2.182c8.517-0.856,16.543-0.06,21.459,8.61c2.211-3.321,3.968-5.961,5.938-8.921
		c1.149,2.025,1.854,3.266,2.221,3.913c3.19-0.294,5.782-0.534,8.508-0.786c1.779-23.311-4.985-45.246-11.695-67.189
		c0.553-0.339,1.105-0.678,1.658-1.017c8.085,8.666,16.171,17.332,24.256,25.998c0.557-0.308,1.114-0.616,1.671-0.925
		c0-43.039,0-86.078,0-130.065c-44.421,0-89.395,0-134.948,0c4.648,4.346,9.092,8.395,13.413,12.572
		c4.306,4.163,8.488,8.454,12.724,12.69c-34.298-13.813-68.77-16.709-104.662-5.66c-35.093,10.803-63.385,30.256-85.343,59.127
		c5.728,0,11.14-0.135,16.535,0.104c1.206,0.054,2.868,1.159,3.422,2.241c1.216,2.376,1.858,5.047,2.849,7.931
		c1.82-3.016,3.528-5.847,5.55-9.198c1.735,1.834,3.247,3.431,5.529,5.842c0.038-6.154,2.232-8.278,7.132-6.484
		c1.3,4.222,2.588,8.4,3.991,12.956c2.69-5.007,4.868-9.062,6.929-12.897c6.714-3.794,8.159,3.545,11.664,5.904
		c2.226-2.54,4.148-4.734,6.184-7.058c1.607,2.01,2.567,3.212,3.839,4.803c3.858-7.223,10.213-2.751,15.23-4.136
		c6.619-1.827,10.033,2.095,12.444,7.803c1.473-3.154,2.558-5.476,3.911-8.372c6.449,3.183,16.453-5.31,19.651,7.757
		c2.289-3.013,4.086-5.38,5.883-7.746c0.424,0.248,0.847,0.496,1.271,0.744c0.775,3.618,1.551,7.236,2.573,12.005
		c1.624-4.846,2.85-8.507,4.519-13.488c3.017,1.6,5.467,3.098,8.084,4.194c1.112,0.465,3.605,0.411,3.723,0.039
		c1.228-3.88,4.313-2.946,6.996-2.966c5.833-0.044,11.674-0.197,17.497,0.039c5.767,0.233,12.429-2.406,15.91,4.885
		c1.054-2.055,1.844-3.597,3.26-6.359c1.03,3.106,1.567,4.722,2.067,6.231c1.868-1.692,3.444-4.35,5.321-4.583
		c5.04-0.625,10.209-0.213,15.15-0.213c2.004,6.4,0.635,16.983-2.576,18.199c-3.437,1.302-7.111,1.318-8.825-3.418
		c-4.065,6.69-10.365,3.138-15.543,4.225c-7.807,1.64-7.644-5.766-10.963-9.741c-0.641,1.546-1.526,2.716-1.554,3.906
		c-0.157,6.717-5.105,6.286-9.462,6.299c-9.745,0.029-19.496-0.064-29.232-0.43c-2.751-0.103-5.461-1.323-8.597-2.137
		c-2.585,4.986-8.49,1.973-13.227,3.03c-7.932,1.771-6.862-6.288-10.434-9.259c-3.673,2.41-3.987,10.382-11.31,6.923
		c-0.042-0.02-0.193,0.313-0.326,0.344c-2.94,0.694-5.948,2.088-8.811,1.841c-2.801-0.242-5.456-2.164-8.675-3.566
		c-2.175,3.018-6.026,3.471-10.473,4.047c-6.217,0.806-6.428-4.801-9.844-7.607c-1.047,2.732-1.899,4.953-2.894,7.548
		c-5.39-1.793-12.211,3.285-16.48-4.788c-0.466,1.915-0.769,3.16-1.404,5.771c-2.199-3.586-3.701-6.035-6.315-10.299
		c-0.86,10.303-7.787,9.096-13.675,9.647c0.763,6.455,10.329,9.583,4.394,17.044c7.195-0.299,18.402,18.038,17.093,26.95
		c1.331,0.191,2.663,0.382,3.71,0.532c-1.837,5.333-3.581,10.396-5.367,15.581c3.18-1.763,6.104-3.384,9.272-5.14
		c0.182,1.55,0.28,2.382,0.407,3.467c1.651-0.709,2.909-1.249,4.31-1.851c0.417,1.006,0.588,1.65,0.925,2.192
		c2.809,4.516,4.772,10.293,11.792,9.226c3.324-0.505,4.181,1.727,5.563,3.781c1.003,1.49,2.401,2.713,4.224,4.715
		c0.74-3.406,1.219-5.609,1.912-8.794c3.753,1.751,7.043,3.287,8.844,4.127c3-1.567,4.845-3.399,6.342-3.149
		c4.531,0.756,10.203-2.79,13.46,3.142c0.45,0.82,0.916,1.915,0.741,2.75c-1.036,4.933-2.26,9.826-3.304,14.237
		c-6.163,2.058-7.923-0.895-8.402-6.131c-2.624,5.969-6.77,7.76-12.498,6.847c-2.648-0.422-5.42-0.072-9.113-0.072
		C907.745,563.02,901.327,564.128,899.383,567.928z M823.535,456.801c-3.341-4.739-3.677-12.767-0.604-16.34
		c5.545-6.448,11.069-12.939,16.986-19.039c12.233-12.612,25.659-23.452,41.851-31.048c12.223-5.734,24.306-10.693,37.557-14.054
		c17.885-4.535,35.662-5.702,53.794-5.272c4.177,0.099,8.34,0.794,12.882,1.252c0-2.765-0.004-4.576,0.001-6.387
		c0.017-6.445,2.47-9.019,8.899-8.888c11.934,0.242,23.864,0.691,35.799,0.952c5.729,0.126,11.464,0.022,17.349,0.022
		c-3.156-12.426-16.785-16.079-25.558-7.312c-2.062,2.061-3.57,2.382-6.391,1.708c-11.457-2.737-23-5.132-34.562-7.39
		c-2.577-0.503-4.107-1.141-4.888-3.909c-1.627-5.762-3.701-11.398-5.592-17.086c-3.597-10.821-7.194-21.642-11.156-33.561
		c-0.94,2.611-1.506,4.087-2.005,5.585c-4.84,14.532-9.802,29.027-14.4,43.635c-1.069,3.396-2.801,4.54-6.109,5.184
		c-12.704,2.473-25.36,5.208-37.98,8.08c-2.365,0.538-3.716,0.549-5.504-1.465c-4.551-5.125-11.27-6.368-17.299-3.787
		c-6.1,2.611-9.682,8.805-9.537,15.635c0.032,1.508-1.041,3.621-2.281,4.478c-7.111,4.914-14.59,9.306-21.594,14.361
		c-2.976,2.148-5.075,2.429-8.356,0.733c-17.35-8.969-34.843-17.665-53.136-26.884c0.709,1.586,0.995,2.3,1.339,2.985
		c8.52,16.959,17.106,33.886,25.466,50.923c0.743,1.514,0.741,4.206-0.133,5.571c-5.825,9.103-11.904,18.049-18.119,26.892
		c-0.885,1.259-3.022,2.498-4.456,2.369c-7.643-0.686-13.875,2.41-16.825,8.877c-3.036,6.656-1.197,13.672,4.558,18.964
		c1.098,1.01,1.882,3.284,1.595,4.734c-2.417,12.223-5.018,24.413-7.848,36.547c-0.39,1.673-2.052,3.743-3.614,4.331
		c-7.627,2.871-15.419,5.306-23.155,7.888c-10.799,3.604-21.6,7.202-33.424,11.143c2.657,0.93,4.175,1.488,5.71,1.995
		c16.891,5.59,33.774,11.204,50.688,16.722c2.601,0.849,3.823,2.076,4.387,5.034c2.084,10.93,4.579,21.787,7.158,32.614
		c0.628,2.638,0.676,4.344-1.521,6.492c-4.864,4.755-5.79,11.567-2.823,17.52c2.946,5.911,7.905,9.08,14.492,8.63
		c2.75-0.188,3.677,0.818,4.954,2.814c5.468,8.546,11.255,16.888,16.654,25.476c0.914,1.454,1.269,4.112,0.569,5.591
		c-4.912,10.377-10.162,20.594-15.319,30.855c-4.071,8.101-8.162,16.191-12.821,25.428c1.763-0.892,2.29-1.16,2.819-1.426
		c17.686-8.873,35.398-17.693,53.028-26.675c2.566-1.308,4.249-1.139,6.652,0.546c7.62,5.344,15.569,10.217,23.24,15.491
		c1.155,0.794,2.144,2.763,2.126,4.174c-0.095,7.332,3.363,13.317,9.699,16.042c5.924,2.548,12.415,1.266,17.245-4.041
		c1.844-2.026,3.256-1.895,5.546-1.36c11.943,2.786,23.907,5.51,35.938,7.876c2.696,0.53,4.025,1.346,4.84,3.943
		c2.638,8.414,5.512,16.755,8.3,25.122c3.589,10.772,7.182,21.544,11.135,33.403c0.709-1.878,1.009-2.593,1.252-3.328
		c6.057-18.335,12.143-36.66,18.122-55.02c0.853-2.62,2.007-3.746,5.026-4.331c11.23-2.177,22.316-5.089,33.511-7.463
		c1.744-0.37,4.214,0.042,5.596,1.087c4.971,3.759,10.236,4.803,15.933,2.472c5.919-2.422,8.873-7.093,9.682-13.452
		c0.224-1.761,1.567-3.881,3.044-4.892c6.035-4.131,13.065-7.096,18.328-11.994c6.946-6.465,12.588-5.626,20.285-1.368
		c15.932,8.814,32.478,16.518,49.711,25.149c-1.382-2.946-2.289-5.005-3.299-7.011c-8.375-16.654-16.833-33.267-25.059-49.994
		c-0.846-1.721-1.193-4.63-0.305-6.103c5.064-8.402,10.51-16.578,16.004-24.711c0.731-1.082,2.476-2.09,3.753-2.091
		c7.103-0.01,12.223-3.138,15.124-9.474c2.982-6.512,1.127-12.269-3.427-17.504c-0.872-1.002-1.455-2.885-1.185-4.152
		c2.351-11.048,5.045-22.024,7.354-33.08c0.615-2.945,1.722-4.513,4.697-5.451c12.999-4.102,25.916-8.464,38.854-12.758
		c6.292-2.088,12.566-4.233,19.891-6.704c-1.927-0.73-2.667-1.041-3.426-1.294c-18.301-6.079-36.583-12.218-54.928-18.162
		c-3.098-1.004-4.167-2.46-4.765-5.789c-2.025-11.28-4.559-22.48-7.293-33.614c-0.741-3.02-0.957-4.728,1.697-7.163
		c7.801-7.158,6.119-19.813-3.959-24.138c0,10.116,0,19.694,0,29.272c0,7.332,0.012,14.664-0.004,21.996
		c-0.015,6.764-3.873,10.565-10.688,10.571c-1.968,0.002-3.937,0-5.901,0c-0.185,0.883-0.39,1.352-0.362,1.806
		c0.636,10.36,1.319,20.718,1.927,31.08c0.076,1.291,0.273,3.251-0.436,3.796c-3.469,2.667-2.034,5.49-1.961,9.095
		c0.179,8.889-0.679,18.109-3.053,26.659c-2.758,9.934-6.963,19.61-11.671,28.82c-5.003,9.788-10.754,19.323-17.266,28.168
		c-4.936,6.705-11.243,12.536-17.543,18.07c-8.625,7.577-17.198,15.519-26.919,21.466c-13.902,8.503-28.917,15.126-44.95,18.919
		c-3.629,0.858-7.299,1.719-10.998,2.063c-9.175,0.855-18.373,1.876-27.571,1.973c-11.956,0.126-24.089,0.535-35.834-1.24
		c-11.475-1.734-23.005-5.004-33.7-9.519c-13.37-5.644-26.106-12.819-37.529-22.167c-12.982-10.622-24.739-22.331-34.464-35.969
		c-4.681-6.565-9.06-13.41-12.882-20.502c-3.524-6.539-6.608-13.414-8.98-20.446c-2.164-6.417-2.958-13.283-4.636-19.88
		c-2.346-9.224-4.171-18.254,4.884-25.686c-5.58-1.212-8.165-3.849-7.553-9.439c0.718-6.557,0.611-13.201,1.115-19.787
		c1.41-18.401,7.259-35.533,15.243-52.016c0.738-1.525,1.865-2.862,2.818-4.282C814.168,455.389,819.024,457.543,823.535,456.801z
		 M855.46,517.311c-2.277-0.962-4.896-1.226-5.92-2.643c-4.863-6.733,0.639-11.78,3.801-17.527
		c-4.245,0.912-8.893,3.449-11.575,2.095c-3.306-1.67-5.799-6.297-7.127-10.166c-1.422-4.141,0.221-8.425,4.362-11.779
		c-9.714,2.152-14.984-3.078-19.12-11.915c-10.572,23.198-18.086,45.407-18.259,69.644c2.52,0,4.77,0,7.059,0
		c0.483,3.447,0.943,6.733,1.403,10.019c0.387,0.046,0.774,0.091,1.161,0.137c1.498-3.328,2.995-6.657,4.506-9.983
		c2.3,0,4.599,0,6.27,0c1.297,2.007,2.324,3.594,3.935,6.087c2.532-10.472,9.747-4.432,13.564-6.17
		c3.021,4.237,5.65,7.924,8.321,11.67c2.45-4.518,4.378-8.073,6.161-11.359c1.213,1.948,2.274,3.654,3.336,5.36
		c0.33-0.207,0.659-0.414,0.989-0.621c-0.478-1.518-0.956-3.037-1.5-4.766c1.686-0.294,3.03-0.529,4.566-0.797
		C859.346,528.39,851.357,524.426,855.46,517.311z"/>
	<path d="M899.383,567.928c1.944-3.799,8.362-4.908,3.163-10.927c3.693,0,6.464-0.35,9.113,0.072
		c5.728,0.913,9.874-0.878,12.498-6.847c0.479,5.237,2.239,8.19,8.402,6.131c1.043-4.411,2.267-9.304,3.304-14.237
		c0.175-0.835-0.29-1.929-0.741-2.75c-3.256-5.932-8.928-2.386-13.46-3.142c-1.497-0.25-3.342,1.582-6.342,3.149
		c-1.801-0.84-5.092-2.376-8.844-4.127c-0.692,3.185-1.171,5.388-1.912,8.794c-1.823-2.002-3.221-3.226-4.224-4.715
		c-1.383-2.054-2.239-4.287-5.563-3.781c-7.019,1.067-8.983-4.71-11.792-9.226c-0.337-0.541-0.507-1.186-0.925-2.192
		c-1.401,0.601-2.659,1.142-4.31,1.851c-0.127-1.085-0.225-1.917-0.407-3.467c-3.169,1.757-6.092,3.377-9.272,5.14
		c1.786-5.185,3.53-10.248,5.367-15.581c-1.047-0.15-2.379-0.341-3.71-0.532c1.309-8.911-9.898-27.249-17.093-26.95
		c5.935-7.461-3.632-10.589-4.394-17.044c5.888-0.552,12.814,0.656,13.675-9.647c2.614,4.264,4.116,6.713,6.315,10.299
		c0.635-2.611,0.938-3.856,1.404-5.771c4.268,8.073,11.089,2.995,16.48,4.788c0.995-2.596,1.847-4.816,2.894-7.548
		c3.416,2.806,3.627,8.413,9.844,7.607c4.447-0.577,8.298-1.03,10.473-4.047c3.219,1.402,5.874,3.323,8.675,3.566
		c2.864,0.248,5.871-1.147,8.811-1.841c0.133-0.031,0.284-0.364,0.326-0.344c7.323,3.459,7.636-4.513,11.31-6.923
		c3.572,2.972,2.502,11.03,10.434,9.259c4.737-1.057,10.642,1.956,13.227-3.03c3.137,0.814,5.846,2.034,8.597,2.137
		c9.736,0.366,19.487,0.459,29.232,0.43c4.357-0.013,9.306,0.419,9.462-6.299c0.028-1.19,0.913-2.36,1.554-3.906
		c3.319,3.975,3.156,11.381,10.963,9.741c5.178-1.088,11.478,2.465,15.543-4.225c1.714,4.736,5.388,4.72,8.825,3.418
		c3.211-1.216,4.581-11.8,2.576-18.199c-4.941,0-10.109-0.412-15.15,0.213c-1.877,0.233-3.453,2.89-5.321,4.583
		c-0.501-1.509-1.037-3.125-2.067-6.231c-1.416,2.762-2.206,4.304-3.26,6.359c-3.482-7.291-10.143-4.651-15.91-4.885
		c-5.824-0.236-11.664-0.082-17.497-0.039c-2.683,0.02-5.768-0.914-6.996,2.966c-0.118,0.372-2.611,0.426-3.723-0.039
		c-2.618-1.095-5.067-2.593-8.084-4.194c-1.669,4.981-2.895,8.642-4.519,13.488c-1.022-4.769-1.797-8.387-2.573-12.005
		c-0.424-0.248-0.847-0.496-1.271-0.744c-1.797,2.366-3.594,4.732-5.883,7.746c-3.198-13.067-13.202-4.575-19.651-7.757
		c-1.353,2.896-2.438,5.218-3.911,8.372c-2.411-5.709-5.825-9.63-12.444-7.803c-5.017,1.385-11.373-3.087-15.23,4.136
		c-1.272-1.591-2.232-2.793-3.839-4.803c-2.036,2.324-3.958,4.517-6.184,7.058c-3.504-2.359-4.95-9.698-11.664-5.904
		c-2.06,3.835-4.239,7.89-6.929,12.897c-1.403-4.556-2.69-8.735-3.991-12.956c-4.9-1.794-7.094,0.331-7.132,6.484
		c-2.282-2.411-3.794-4.008-5.529-5.842c-2.022,3.351-3.73,6.182-5.55,9.198c-0.991-2.884-1.633-5.554-2.849-7.931
		c-0.553-1.081-2.216-2.187-3.422-2.241c-5.395-0.24-10.807-0.104-16.535-0.104c21.958-28.87,50.25-48.323,85.343-59.127
		c35.892-11.049,70.363-8.153,104.662,5.66c-4.236-4.235-8.418-8.527-12.724-12.69c-4.32-4.177-8.765-8.226-13.413-12.572
		c45.553,0,90.527,0,134.948,0c0,43.987,0,87.026,0,130.065c-0.557,0.308-1.114,0.616-1.671,0.925
		c-8.085-8.666-16.17-17.332-24.256-25.998c-0.553,0.339-1.105,0.678-1.658,1.017c6.71,21.943,13.473,43.878,11.695,67.189
		c-2.725,0.252-5.318,0.491-8.508,0.786c-0.367-0.647-1.072-1.888-2.221-3.913c-1.97,2.96-3.728,5.6-5.938,8.921
		c-4.916-8.67-12.942-9.466-21.459-8.61c-1.446,0.145-2.787,1.328-4.474,2.182c-6.707-8.616-8.899,2.253-13.785,4.193
		c-0.832-2.276-1.607-4.397-2.476-6.774c-1.947,0-4.016,0-5.276,0c-0.157-3.048-0.31-6.004-0.484-9.38
		c8.829-4.921,8.83-4.975-0.401-13.776c2.896,0.286,5.848,0.593,8.803,0.864c4.261,0.391,6.539-0.848,4.769-5.646
		c-0.321-0.87-0.046-1.961-0.046-3.279c4.136,2.237,5.589-1.246,5.672-3.635c0.091-2.591-1.821-5.251-2.974-8.171
		c2.076-0.169,3.848-0.313,5.971-0.486c-0.177-1.158-0.338-2.202-0.456-2.976c2.367-0.823,4.685-1.628,7.003-2.434
		c-1.001-1.805-2.003-3.609-2.881-5.19c2.523-1.189,5.872-2.014,8.142-4.046c2.339-2.094,3.626-5.362,5.36-8.095
		c-5.427-4.396-10.676-3.09-16.018-0.161c-1.031,0.565-2.435,0.448-3.666,0.65c-1.654,0.27-3.333,0.44-4.957,0.833
		c-6.073,1.472-12.526,2.502-12.827,10.897c-0.021,0.592-1.447,1.133-1.77,1.369c0.576,3.218,1.074,6.005,1.596,8.922
		c-1.924,0.498-3.351,0.868-5.351,1.386c1.271,2.599,2.496,5.106,3.604,7.37c-3.236-0.419-7.531-2.303-10.087-0.935
		c-2.591,1.386-3.459,5.987-5.096,9.172c-0.209,0.407-0.506,0.768-0.791,1.192c1.063,1.154,2.06,2.236,3.932,4.268
		c-10.885-2.127-11.073,7.032-14.277,12.327c-3.253,5.378-5.702,9.43-13.253,9.019c-3.517-0.191-7.225-0.795-10.876-0.555
		c-3.262,0.214-6.414-0.478-8.305,3.64c-1.062,2.312-3.562,2.379-5.556-0.232c-3.815-4.995-6.778-5.361-9.947-3.264
		c-11.524-0.561-21.133-1.029-31.028-1.511c-1.136,3.582-2.164,6.826-3.338,10.527c-0.932-1.247-1.737-2.326-2.622-3.51
		c-0.281,0.377-0.773,0.732-0.761,1.07c0.122,3.448,0.15,6.918,0.631,10.322c0.118,0.832,1.838,2.109,2.747,2.049
		c5.61-0.37,11.198-1.065,16.794-1.645c0.482-0.05,0.982-0.123,1.453-0.051c3.807,0.586,7.659,1.909,11.401,1.645
		c5.423-0.383,10.576-1.897,16.238-0.146c2.135,0.66,5.367-2.228,8.118-3.508c0.197,7.086,6.27,4.17,11.533,4.896
		c-8.007,7.007-5.034,13.264,1.917,19.197c-0.549,0.237-1.099,0.475-1.648,0.712c-2.05-1.074-4.09-2.166-6.151-3.217
		c-2.645-1.349-4.337-1.101-5.742,2.087c-1.695,3.845-4.251,7.309-6.658,11.309c1.836,2.927,3.88,6.186,5.936,9.462
		c-4.283,0.652-8.469,1.29-12.987,1.978c0,2.877,0,5.813,0,8.3c-3.348,2.338-6.643,4.034-9.137,6.531
		c-3.223,3.227-2.69,6.532,2.74,8.837c-8.22,4.009-3.345,10.801-5.336,17.053c-2.989-1.517-5.862-2.974-9.274-4.706
		c-1.188,1.39-3.022,3.536-4.832,5.654c-0.462-0.196-0.768-0.305-1.055-0.45c-2.744-1.383-1.952-9.026-7.921-4.594
		c-2.761,2.05-5.387,4.35-7.754,6.842c-2.152,2.266-3.87,4.944-5.807,7.477c3.271,5.825,6.513,11.599,10.135,18.052
		c3.222-2.223,5.849-4.035,8.832-6.092c-1.285,5.171-3.9,10.006-3.154,14.251c0.788,4.489,4.775,8.417,7.869,13.402
		c3.5-5.248,6.438-9.654,9.36-14.035c-1.939-2.519-3.785-4.917-6.223-8.083c2.077,0.446,3.307,0.595,4.459,0.977
		c5.156,1.709,9.097-1.481,7.868-6.943c-0.926-4.119-2.894-8.003-3.739-12.676c2.928,2.092,5.855,4.184,8.825,6.306
		c5.513-4.976,6.708-9.298,4.1-16.839c2.127,0.344,3.922,0.635,5.891,0.953c5.878-7.156,10.254-14.909,7.295-26.086
		c2.426,2.093,3.627,3.13,6.125,5.286c0.771-4.391,1.366-7.785,2.018-11.5c0.974,0.314,2.296,0.741,3.81,1.23
		c0.428-0.577,0.993-1.156,1.339-1.845c0.577-1.149,0.995-2.376,1.515-3.556c1.54-3.494,4.647-7.188,4.216-10.413
		c-0.436-3.259-4.369-6.051-6.565-8.791c2.332-1.098,4.319-2.032,6.366-2.995c2.966,0,7.487,1.309,9.457-0.372
		c1.928-1.644,1.257-6.336,1.742-9.807c3.928,0.202,8.612-3.118,10.349-9.459c0.971-3.544,2.546-3.859,5.589-3.677
		c4.978,0.299,9.985,0.158,14.98,0.137c7.811-0.032,7.836-0.075,9.748-7.78c0.222-0.894,0.45-1.787,0.874-3.468
		c1.802,4.339,3.278,7.891,4.753,11.442c0.521-0.047,1.041-0.095,1.562-0.143c0.78-1.527,1.56-3.053,2.851-5.581
		c2.376,7.742,8.458,5.996,13.531,5.823c5.163-0.176,11.188,2.747,14.544-2.638c3.371,1.165,6.23,2.154,9.723,3.361
		c-4.793,37.325-22.156,69.551-50.975,93.434c-48.794,40.437-105.37,52.317-164.385,27.364
		c-52.822-22.334-85.096-64.227-95.245-122.524c4.609,0,8.366,0,12.382,0c0.336-2.602,0.619-4.796,0.872-6.756
		c2.866,2.217,5.463,5.725,8.42,6.06c2.565,0.291,5.538-3.012,8.918-5.087c1.352,7.381,7.1,5.46,11.948,5.497
		c9.499,0.072,19-0.052,28.497,0.104c1.357,0.022,3.412,0.797,3.918,1.826c2.097,4.268,4.887,5.859,9.846,3.887
		c-1.344,2.323-2.688,4.647-4.027,6.962c0.893,1.382,1.747,2.704,2.274,3.52c4.79-1.188,9.414-2.334,14.038-3.481
		c0.327,0.451,0.655,0.901,0.982,1.352c-3.862,2.768-7.724,5.536-11.585,8.305c0.446,0.643,0.893,1.285,1.339,1.928
		c3.254,0.535,6.508,1.07,8.586,1.412c-0.388,4.17-2.334,9.058-0.677,11.526c1.876,2.794,6.984,3.419,11.235,5.22
		c-0.241,2.28-0.691,5.182-0.82,8.099c-0.176,3.979,0.827,7.295,5.329,8.532c0.883,0.243,2.212,1.642,2.102,2.302
		c-1.423,8.51,5.742,10.388,10.601,14.046c0.123,0.092,0.184,0.266-0.461,0.45c0.288,3.592,0.576,7.183,0.832,10.365
		c1.692,0.409,2.196,0.644,2.286,0.536c2.428-2.92,8.151,1.875,9.465-4.362c0.753-3.572,3.543-6.697,4.409-10.267
		c0.569-2.347-0.229-5.331-1.3-7.615c-0.407-0.87-3.279-0.684-5.04-0.794c-1.926-0.121-3.865-0.027-6.832-0.027
		c1.575-2.036,2.68-3.361,3.667-4.77c0.973-1.389,1.826-2.863,3.142-4.951c-2.648-0.156-4.436-0.261-6.369-0.375
		c2.938-6.326,0.942-10.375-5.304-10.832c1.642-9.612-6.738-14.756-10.002-22.253c-0.257-0.59-0.961-0.992-1.194-1.585
		C911.272,569.727,907.264,565.871,899.383,567.928z M1064.63,446.213c-4.044,0.876-8.523,0.519-10.35,2.549
		c-2.797,3.11-4.027,7.88,0.382,11.703c0.766-0.868,1.424-1.611,2.189-2.478c0.488,2.528,0.91,4.717,1.403,7.272
		c2.487-0.924,4.361-1.621,7.469-2.776c-2.996,3.262-5.07,5.521-7.813,8.509c2.559,0.551,4.012,1.348,5.161,1.034
		c7.489-2.05,14.906-4.361,22.359-6.542c2.517-0.737,6.046-0.529,7.423-2.17c3.964-4.727,7.066-10.178,10.985-16.063
		c-11.938,0-22.672,0-33.268,0c-1.352,3.369-2.661,6.629-3.969,9.889c-0.449-0.155-0.897-0.309-1.346-0.464
		C1065.072,453.611,1064.889,450.546,1064.63,446.213z"/>
	<path d="M823.535,456.801c-4.511,0.741-9.367-1.413-12.449,3.18c-0.953,1.42-2.079,2.757-2.818,4.282
		c-7.983,16.484-13.833,33.615-15.243,52.016c-0.505,6.587-0.397,13.23-1.115,19.787c-0.612,5.59,1.973,8.227,7.553,9.439
		c-9.055,7.432-7.23,16.462-4.884,25.686c1.678,6.597,2.472,13.463,4.636,19.88c2.372,7.032,5.456,13.907,8.98,20.446
		c3.822,7.092,8.201,13.937,12.882,20.502c9.724,13.638,21.482,25.347,34.464,35.969c11.424,9.347,24.159,16.523,37.529,22.167
		c10.695,4.515,22.225,7.785,33.7,9.519c11.745,1.775,23.878,1.366,35.834,1.24c9.198-0.097,18.396-1.118,27.571-1.973
		c3.699-0.345,7.37-1.205,10.998-2.063c16.033-3.793,31.048-10.415,44.95-18.919c9.721-5.946,18.295-13.889,26.919-21.466
		c6.3-5.534,12.607-11.365,17.543-18.07c6.512-8.845,12.264-18.38,17.266-28.168c4.707-9.21,8.912-18.886,11.671-28.82
		c2.374-8.55,3.233-17.77,3.053-26.659c-0.073-3.605-1.508-6.428,1.961-9.095c0.709-0.545,0.512-2.506,0.436-3.796
		c-0.607-10.362-1.291-20.72-1.927-31.08c-0.028-0.454,0.177-0.923,0.362-1.806c1.964,0,3.933,0.002,5.901,0
		c6.815-0.006,10.673-3.807,10.688-10.571c0.016-7.332,0.004-14.664,0.004-21.996c0-9.578,0-19.156,0-29.272
		c10.077,4.325,11.76,16.98,3.959,24.138c-2.654,2.435-2.438,4.143-1.697,7.163c2.734,11.134,5.268,22.334,7.293,33.614
		c0.598,3.329,1.667,4.785,4.765,5.789c18.345,5.944,36.627,12.083,54.928,18.162c0.759,0.252,1.499,0.563,3.426,1.294
		c-7.326,2.471-13.599,4.616-19.891,6.704c-12.938,4.294-25.855,8.656-38.854,12.758c-2.975,0.939-4.082,2.506-4.697,5.451
		c-2.308,11.056-5.003,22.032-7.354,33.08c-0.27,1.267,0.314,3.15,1.185,4.152c4.554,5.235,6.409,10.992,3.427,17.504
		c-2.901,6.336-8.022,9.465-15.124,9.474c-1.277,0.002-3.022,1.009-3.753,2.091c-5.495,8.132-10.941,16.308-16.004,24.711
		c-0.888,1.474-0.541,4.383,0.305,6.103c8.225,16.728,16.684,33.34,25.059,49.994c1.009,2.007,1.916,4.065,3.299,7.011
		c-17.234-8.631-33.779-16.336-49.711-25.149c-7.696-4.258-13.339-5.096-20.285,1.368c-5.263,4.899-12.293,7.863-18.328,11.994
		c-1.476,1.011-2.819,3.132-3.044,4.892c-0.81,6.359-3.763,11.03-9.682,13.452c-5.697,2.331-10.962,1.287-15.933-2.472
		c-1.382-1.045-3.853-1.457-5.596-1.087c-11.195,2.375-22.281,5.287-33.511,7.463c-3.019,0.585-4.173,1.711-5.026,4.331
		c-5.979,18.36-12.065,36.685-18.122,55.02c-0.243,0.734-0.543,1.45-1.252,3.328c-3.954-11.859-7.546-22.631-11.135-33.403
		c-2.788-8.367-5.662-16.708-8.3-25.122c-0.815-2.598-2.144-3.413-4.84-3.943c-12.031-2.366-23.995-5.09-35.938-7.876
		c-2.29-0.534-3.703-0.666-5.546,1.36c-4.83,5.307-11.321,6.589-17.245,4.041c-6.336-2.725-9.793-8.709-9.699-16.042
		c0.018-1.411-0.971-3.38-2.126-4.174c-7.672-5.274-15.62-10.147-23.24-15.491c-2.403-1.685-4.086-1.854-6.652-0.546
		c-17.63,8.982-35.342,17.803-53.028,26.675c-0.529,0.265-1.056,0.534-2.819,1.426c4.659-9.238,8.75-17.328,12.821-25.428
		c5.156-10.261,10.406-20.478,15.319-30.855c0.7-1.48,0.345-4.137-0.569-5.591c-5.399-8.587-11.187-16.93-16.654-25.476
		c-1.277-1.996-2.204-3.002-4.954-2.814c-6.588,0.449-11.546-2.72-14.492-8.63c-2.967-5.953-2.041-12.765,2.823-17.52
		c2.197-2.148,2.149-3.854,1.521-6.492c-2.579-10.827-5.073-21.684-7.158-32.614c-0.564-2.958-1.786-4.185-4.387-5.034
		c-16.914-5.518-33.797-11.132-50.688-16.722c-1.534-0.508-3.053-1.065-5.71-1.995c11.824-3.942,22.625-7.539,33.424-11.143
		c7.736-2.582,15.528-5.017,23.155-7.888c1.562-0.588,3.224-2.658,3.614-4.331c2.83-12.134,5.431-24.324,7.848-36.547
		c0.287-1.45-0.497-3.724-1.595-4.734c-5.755-5.292-7.594-12.308-4.558-18.964c2.95-6.468,9.182-9.564,16.825-8.877
		c1.434,0.129,3.571-1.11,4.456-2.369c6.214-8.844,12.293-17.789,18.119-26.892c0.874-1.365,0.876-4.057,0.133-5.571
		c-8.36-17.037-16.946-33.964-25.466-50.923c-0.344-0.685-0.63-1.399-1.339-2.985c18.293,9.219,35.785,17.914,53.136,26.884
		c3.281,1.696,5.38,1.415,8.356-0.733c7.004-5.055,14.483-9.447,21.594-14.361c1.24-0.857,2.313-2.97,2.281-4.478
		c-0.144-6.829,3.437-13.023,9.537-15.635c6.029-2.581,12.747-1.338,17.299,3.787c1.788,2.014,3.139,2.003,5.504,1.465
		c12.62-2.872,25.276-5.607,37.98-8.08c3.307-0.644,5.04-1.788,6.109-5.184c4.598-14.609,9.56-29.103,14.4-43.635
		c0.499-1.498,1.065-2.974,2.005-5.585c3.962,11.919,7.559,22.74,11.156,33.561c1.891,5.688,3.965,11.324,5.592,17.086
		c0.782,2.769,2.311,3.406,4.888,3.909c11.563,2.258,23.106,4.653,34.562,7.39c2.821,0.674,4.329,0.352,6.391-1.708
		c8.772-8.767,22.401-5.114,25.558,7.312c-5.886,0-11.62,0.104-17.349-0.022c-11.934-0.262-23.864-0.71-35.799-0.952
		c-6.429-0.131-8.882,2.443-8.899,8.888c-0.005,1.811-0.001,3.622-0.001,6.387c-4.542-0.458-8.705-1.153-12.882-1.252
		c-18.132-0.43-35.909,0.737-53.794,5.272c-13.251,3.36-25.334,8.32-37.557,14.054c-16.192,7.596-29.617,18.435-41.851,31.048
		c-5.917,6.1-11.44,12.591-16.986,19.039C819.858,444.034,820.194,452.062,823.535,456.801z"/>
	<path d="M855.46,517.311c-4.103,7.114,3.886,11.078,5.934,17.286c-1.536,0.268-2.881,0.503-4.566,0.797
		c0.544,1.729,1.022,3.247,1.5,4.766c-0.33,0.207-0.659,0.414-0.989,0.621c-1.062-1.706-2.123-3.411-3.336-5.36
		c-1.782,3.286-3.71,6.841-6.161,11.359c-2.671-3.746-5.3-7.433-8.321-11.67c-3.817,1.738-11.031-4.302-13.564,6.17
		c-1.612-2.493-2.638-4.08-3.935-6.087c-1.671,0-3.97,0-6.277-0.001c-1.504,3.327-3.002,6.656-4.5,9.984
		c-0.387-0.046-0.774-0.091-1.161-0.137c-0.46-3.286-0.92-6.572-1.403-10.019c-2.289,0-4.539,0-7.059,0
		c0.173-24.237,7.687-46.446,18.259-69.644c4.136,8.838,9.406,14.068,19.12,11.915c-4.141,3.354-5.784,7.639-4.362,11.779
		c1.329,3.869,3.822,8.496,7.127,10.166c2.682,1.354,7.33-1.183,11.575-2.095c-3.162,5.747-8.664,10.793-3.801,17.527
		C850.564,516.085,853.183,516.35,855.46,517.311z"/>
	<path style="fill:#FFFFFF;" d="M1064.63,446.213c0.259,4.333,0.442,7.398,0.625,10.463c0.449,0.155,0.897,0.309,1.346,0.464
		c1.308-3.26,2.617-6.52,3.969-9.889c10.596,0,21.33,0,33.268,0c-3.919,5.885-7.021,11.335-10.985,16.063
		c-1.376,1.641-4.906,1.434-7.423,2.17c-7.453,2.182-14.87,4.492-22.359,6.542c-1.149,0.314-2.602-0.482-5.161-1.034
		c2.743-2.987,4.818-5.246,7.813-8.509c-3.108,1.155-4.982,1.851-7.469,2.776c-0.493-2.556-0.915-4.744-1.403-7.272
		c-0.766,0.867-1.423,1.611-2.189,2.478c-4.409-3.823-3.179-8.594-0.382-11.703C1056.107,446.733,1060.587,447.089,1064.63,446.213z
		"/>
</g>
</svg>
