<?xml version="1.0" encoding="utf-8"?>
<!-- Generator: Adobe Illustrator 27.3.1, SVG Export Plug-In . SVG Version: 6.00 Build 0)  -->
<svg version="1.1" xmlns="http://www.w3.org/2000/svg" xmlns:xlink="http://www.w3.org/1999/xlink" x="0px" y="0px"
	 viewBox="0 0 660 660" style="enable-background:new 0 0 660 660;" xml:space="preserve">
<style type="text/css">
	.st0{fill:#FFFFFF;stroke:#FFFFFF;stroke-width:19.8023;stroke-miterlimit:10;}
	.st1{fill:#070707;}
</style>
<g id="svg8_copy" xmlns:sodipodi="http://sodipodi.sourceforge.net/DTD/sodipodi-0.dtd" xmlns:inkscape="http://www.inkscape.org/namespaces/inkscape" xmlns:cc="http://creativecommons.org/ns#" xmlns:dc="http://purl.org/dc/elements/1.1/" xmlns:svg="http://www.w3.org/2000/svg" xmlns:rdf="http://www.w3.org/1999/02/22-rdf-syntax-ns#" sodipodi:docname="BH-simplified.svg">
	<path class="st0" d="M629.8,289.1c-0.9,17.4-0.9,17.5-28.2,32c-13.1,7-16,9.1-18.8,13.6c-1.8,2.9-4.5,6.3-5.8,7.5
		c-1.5,1.3-3.3,5.9-4.5,11.7c-2.4,10.8-4.2,14.9-9.8,21.8c-2.2,2.7-4.9,6.7-5.9,8.8c-3.3,6.6-4.7,7.1-18.8,6.8
		c-9.5-0.2-13.9,0.3-16.6,1.7c-3.7,1.9-10.9,10-13.7,15.3c-0.8,1.6-3.4,3.7-5.7,4.6c-1.1,0.5-2,0.8-2.7,1.1c0,0,0,0,0,0
		c-7.8,4.5-10.3,4.8-14.5,7.5c-4.1,2.7-4.9,4.6-7,7.1c0.1,1.4-0.8,2-2.8,3.9c-2.8,2.6-3.2,4.3-4.2,16.6c-1,12.1-1.7,15-6.1,24.6
		c-2.7,6-5.4,12.4-5.8,14.2c-0.3,1.2-0.8,2.3-1.6,3.4c0,0,0,0,0,0c-0.4,0.8-0.8,1.3-1.6,1.9c-1.8,1.8-4.3,3.5-7.7,5.1c0,0,0,0,0,0
		c-6.3,4.4-11.2,9.1-21.2,18.4c-3.6,3.4-11,10.9-25.5,25.9c-8.7,9-13.1,13.6-16.3,20.9c0.3,3.2-0.8,7.2-3.1,12.6
		c-0.2,0.4-0.4,0.8-0.5,1.3c0,0.1-0.1,0.2-0.1,0.3c0,0.1-0.1,0.2-0.1,0.3c-0.2,0.6-0.5,1.2-0.8,1.8c-6.2,14.8-10.3,29.3-11.1,39.4
		c-0.8,9.4-1.4,11.5-4.6,15.5c-4.3,5.4-13,10.2-18.3,10.1c-2.1,0-7.2-1.4-11.5-2.9c-9.6-3.6-11.5-5.1-11.5-9.4
		c0-4.2,4.4-18.7,7.5-24.8c3.7-7.3,10.7-15.4,17.2-19.9v0c-0.6-4.3-8.1-4.8-19.3-10.2c-2.2,0.5-5.6-0.8-11.5-4.3
		c-16.8-9.9-22.8-10.7-20-2.5c1,3,1,4.4,0,5.7c-2.2,2.7-10,1.9-17.3-1.7c-8.3-4.2-9.5-7.9-3.7-11.2c6.1-3.5,4.3-9.1-4.9-15.2
		c-7.1-4.7-9.1-4.8-8-0.2c2.3,9.3,2.2,10.4-1.6,18.6c-2.1,4.6-4.5,11.1-5.3,14.5c-1.3,5.2-3.1,7.7-10.9,15.6
		c-7.3,7.3-11,10-16.6,12.1c-6.3,2.3-12.3,3.5-17.1,3.5c-3.1,0-5.7-0.5-7.2-1.6c-1.7-1.2-7-5.8-11.8-10.3c-7.5-7-10.3-8.7-20.2-12.3
		c-13.3-4.8-24.5-11.7-29-17.7c-1.7-2.3-5.7-9.4-8.9-15.8c-4.4-8.8-8-13.8-15-21c-5.3-5.4-7.6-7.9-8.5-10.2
		c-3.4-2.1-2.7-7.6-10.2-19.2c-4.3-6.7-6.7-8.4-8.4-10.6c-0.8-0.8-1.8-2.2-2.6-3.6c-1.7-3.3-1.7-4.9,0.6-17.5
		c3.8-20.5,3.5-23.6-2.7-33.8l-5.2-8.6l0.3-12.6c0.3-11.8,0.1-13-3-18.4c-1.8-3.1-2.6-4.6-2.9-7.8c-4.9-3.2-1.6-13.2-9.9-22
		c-3.4-3.5-5.7-3.8-8.1-5.3c0,0,0,0,0,0c-6.6-3.1-8.2-5.1-14.7-18.7c-7.4-15.7-8.8-21.8-12-54.7c-4.2-42.9-2.8-55.8,6.6-61.7
		c2.5-1.6,6-2.3,9.6-2.2c4.7,0.1,9.6,1.5,13.4,4.1c6.5,4.5,15.2,17.3,25.1,36.6l7.9,15.5v11.8c0,9.1-0.6,13.6-2.9,20.1
		c0,0,0,0.1,0,0.1c0.6,7.9-0.3,11.1,0.3,19.5c0.2,3.1,0.5,4.6,1.1,8.2c1.8,3.8,4.1,9.6,7.2,17.9c3.5,9.3,5.3,15.2,5.9,19.5l0.3-1.2
		c2.4,4.4,6.7,10.4,13.7,14.9c8.8,5.6,14.6,4,20.4,9.8c0.1,0.1,0.2,0.2,0.3,0.3c0,0,0,0,0,0c2.3,1.6,5,5.4,9.6,13.2
		c4.2,7,8.9,14.1,10.4,15.8c4.4,4.7,9.3,4,16.3-2.6l5.9-5.5V413c0-11.1,0.2-11.8,3.2-14.2c0.8-0.6,1.5-1.1,2.2-1.6v0
		c0.3-5.5,6.2-5.7,10.3-13.2c2.7-4.9,1.1-6.5,3.8-22c0.4-2.4,0.8-4.3,1-5.8c0-1.8,0.4-3.5,1.2-5.1c1-2.6,2.9-4.8,5.5-6.7
		c1.9-1.6,4.2-3.3,6.9-5c8.5-5.4,10-7.6,15.8-23.5c1.1-3.1,3.3-7.2,5-9.3l2.6-3.2c0.1-0.2,0.2-0.3,0.3-0.5c3.3-4.5,8.4-2.3,13.3-7.9
		c4-4.5,4.5-10.5,4.7-14c-0.3-1.6-0.3-3.6-0.3-6.5c0-0.3,0-0.6,0-0.9c-0.8-4.8-2.4-7.6-1.2-9.7c-0.5-2.3-1.2-4.6-2.2-7.2
		c-2.8-8.1-3.3-11.2-3.1-20.6c0.2-6.1-0.6-17.9-1.8-26.2c-2-14.2-2-15.4,0.1-21c1.2-3.3,2.7-11,3.3-17.1c0.6-6.1,2.8-19.6,4.8-30
		c4.4-22.3,4.4-23.2,1.2-40.6c-1.7-8.9-2.5-18.7-2.5-29l0-15.5l5.9-11.1c5.4-10.2,8.4-13.9,13-13.7c1.5,0,3.3,0.5,5.3,1.3
		c6.7,2.6,12.4,9.2,14.8,17.3c2,6.8,1.6,11.2-3,30.3c-1.4,5.8-2.8,13.9-3.3,17.9c-1.7,16.5-3.4,26.2-5.3,29.2
		c-1.6,2.7-1.7,4-0.4,7.4c0.8,2.3,2,8.1,2.7,12.8c0.7,4.8,2.4,12.3,3.8,16.7c2,6.1,2.3,8.7,1.4,11.2c-0.8,2.1-0.8,4.2,0,6
		c0.9,1.9,0.8,4-0.2,6.8c-0.8,2.2-1.5,6-1.5,8.4c0,2.4-0.9,6.8-1.9,9.8c-1.1,3-2.7,11-3.5,17.8c-1.2,9.3-2.7,14.4-5.6,20.3
		c-4.4,8.8-4.9,13.3-2,20.1c1.2,2.7,1.8,6.3,1.9,9.6c0.1,0.4,0.1,0.9,0.2,1.3c0.6,5.4-2.4,6.5-2.8,13.3c-0.4,7.2,2.7,8.4,2.8,14.9
		v0.1c1.5,1.5,3.9,4.4,6,7.5c4.7,6.9,7.4,8.7,13,8.8c3.1-1.9,6,0.9,10.4-1.5c4.3-2.3,3-5.7,7.8-11.4c0.2-0.3,0.5-0.6,0.8-0.9
		c0,0,0,0,0,0c1.6-2.4,5-6.1,9.3-10.3c9.8-9.6,10.5-10.5,11.8-17.5c0.8-4.1,2.6-12.1,4-17.9c4-16,4.4-20.9,2.7-28.7
		c-1.9-8.5-1.6-10.2,5.4-33.1c3.5-11.3,7-27.1,9.7-42.7c4.3-25.5,7.8-39.3,11.7-45.8c2.9-4.8,4-13.5,4.3-34c0.3-18,2.6-28.8,8.8-41
		c6.4-12.6,16.5-20.5,24.7-20.7c2.7,0,5.3,0.8,7.3,2.6c2.9,2.5,3.3,4.1,4.4,15.1c0.7,6.8,2.1,16.5,3.2,21.5
		c2.9,13.5,1.7,20.7-5.6,33.6c-3.3,5.8-6.7,12.6-7.5,15.1c-0.8,2.5-2.5,4.9-3.7,5.3c-4.1,1.3-5.6,4.5-6.4,14.1
		c-3.2,35.5-4.3,41.8-8.1,48c-5.7,9.1-7.2,14.1-5.5,19c0.8,2.2,1.4,7.5,1.4,11.6c0,4.2,0.8,11.4,1.8,16c1.7,8.3,1.5,15.4-0.8,19.7
		c-0.6,1.2-3.7,3.4-6.9,4.9c-3.2,1.5-8.5,5.3-11.7,8.4c-5,4.8-5.9,6.4-5.9,10.3c0,7.7-5.8,30.7-9.2,36.7c-2.3,4-3.2,7.4-3.2,12.1
		c0,3.5-0.1,5.2-0.8,6.3c-0.3,10.5-2.9,11.7-2.7,19.3c0.2,10.2,5.1,16.1,7.1,20.3c1.9,1.7,3.3,3.2,4.6,5c0,0,0,0,0,0
		c1.5-0.6,3.6-1.6,6.7-3.3c3.7-2,5.1-3,12.1-6.8c2.7-2.8,7.2-4.8,14.5-6.2c1.3-0.3,2.6-0.6,3.9-0.8c8.5-1.8,12.5-3.8,16.3-7.9
		c3.2-3.4,2.7-5.8-1.2-5.8c-3.6,0-4.1-2.8-2.5-12.8c2.6-16,5.3-24.8,10.3-34.3c7.2-13.4,10.2-17,16.8-20.1l5.8-2.8l5.4-16.5
		c4.8-14.9,5.9-17,10.8-21.7c4.4-4.2,5.7-6.5,6.7-11.7c0.7-3.5,1.7-7.4,2.3-8.6c0.6-1.2,1.5-6.6,2-12c1.9-21.6,16.7-46.5,29.8-50
		c1-0.3,1.9-0.4,2.9-0.4c4.1-0.1,7.8,1.8,9.6,5.3c2.6,5.1,2.4,24.7-0.4,32.7c-2.8,8.1-12.5,21.6-20.8,28.8c-3.6,3.2-6.7,6.5-6.7,7.4
		c0,0.8-1.2,4.9-2.6,9c-2.1,6.1-2.4,9-1.7,16c1,10.3-1.2,19.9-7.3,31.9c-3.1,6-4.7,11.2-5.6,18.3c-1.7,12.6-6.4,22.5-15.9,32.9
		c-4,4.4-11.8,15.3-17.5,24.4c-3.3,5.2-6.6,10.2-9.2,13.8c-0.5,1.9-5,8.1-8.7,17.1c-1.1,2.6-3.6,9.1-5.1,17.7
		c-0.2,1.3-0.3,1.7-1.5,10.1v0c1.2,5.6,4.9,15.3,7.2,18.6c2.4,3.3,2.9,3.5,9.5,2.8c11.2-1.2,12.2-1.6,15-6.1
		c2.9-4.7,13.2-10.5,18.6-10.6c1.6-0.3,3.9-0.8,7.2-1.5c11.3-2.5,13-3.3,14.5-4.7c0.5-0.4,0.8-0.8,1.2-1.3c0.3-1.7,1.1-3.6,2.4-5.4
		v0c0.5-1.4,1.1-2.6,2.7-3.5c0.5-0.3,1.1-0.6,1.7-0.8c0,0,0,0,0,0c0.2-0.2,0.4-0.3,0.6-0.4c2.4-1.5,7.4-7.3,11.2-13
		c7.4-10.9,39.9-43.1,51.3-50.8c3.3-2.2,6.9-5.3,7.9-6.7c1-1.5,3.6-3.3,5.8-4c3.5-1.1,4.5-2.5,7.4-10.3
		c7.5-19.6,20.2-31.7,36.6-34.6c2.1-0.4,3.9-0.6,5.5-0.7c4.7-0.2,7.4,1,9.8,4C630,277.6,630.3,279.2,629.8,289.1z"/>
</g>
<g id="svg8" xmlns:sodipodi="http://sodipodi.sourceforge.net/DTD/sodipodi-0.dtd" xmlns:inkscape="http://www.inkscape.org/namespaces/inkscape" xmlns:cc="http://creativecommons.org/ns#" xmlns:dc="http://purl.org/dc/elements/1.1/" xmlns:svg="http://www.w3.org/2000/svg" xmlns:rdf="http://www.w3.org/1999/02/22-rdf-syntax-ns#" inkscape:version="0.92.4 (5da689c313, 2019-01-14)" sodipodi:docname="BH-simplified.svg">
	
		<path id="layer1" transform="translate(-51.905961,-61.558596)" inkscape:groupmode="layer" inkscape:label="Layer 1" class="st1" d="
		M527.4,484.6c-3.4-8-9.6-14.5-13.6-14.5c-5.4,0-15.8,5.9-18.7,10.6c-2.8,4.5-3.8,4.9-15,6.1c-6.6,0.7-7.1,0.6-9.5-2.8
		c-2.9-4.1-7.7-17.5-7.7-21.7c0-3.3-3.7-8.1-10.4-13.3c-4.5-3.5-5.6-3.7-14.9-3.7c-9.8,0-10.2-0.1-12.9-3.7c-1.5-2-4.6-7.8-6.8-12.8
		c-4-8.9-5.8-10.9-16.3-18.1c-3.6-2.5-5.4-4.9-6.5-8.6c-2.2-7.4-6.7-9.4-18.4-8.4l-9,0.8l-7.1-6.2c-3.9-3.4-8.2-6.2-9.6-6.2
		c-5.8,0-8.5-1.8-13.2-8.8c-2.7-4-5.9-7.8-7-8.4c-1.2-0.6-10.1-1.1-19.9-0.9l-17.8,0.2l-3,3.7c-1.6,2-3.9,6.2-5,9.3
		c-5.8,15.9-7.3,18.2-15.8,23.5c-2.7,1.7-5,3.4-6.9,5c-2.6,1.9-4.5,4.1-5.5,6.7c-0.8,1.7-1.2,3.3-1.2,5.1c-0.3,1.6-0.6,3.4-1,5.8
		c-2.7,15.5-1.1,17.1-3.8,22c-4.1,7.5-10,7.7-10.3,13.2v0c-0.7,0.4-1.4,1-2.2,1.6c-3,2.4-3.2,3.1-3.2,14.2v11.7l-5.9,5.5
		c-7,6.5-11.8,7.3-16.3,2.6c-1.6-1.7-6.2-8.7-10.4-15.8c-5.7-9.6-8.5-13.1-11.1-14c-4.7-1.6-7,1.5-7,9.4c0,6-4.2,23.5-9.4,39.1
		c-2.4,7.1-3,11.5-3,21.8c0,11.9-0.4,13.9-5,26.8c-2.8,7.8-5,16.1-5,19.1c0,4.8,0.7,5.9,9.2,14.7c7,7.2,10.6,12.2,15,21
		c3.2,6.4,7.2,13.5,8.9,15.8c4.5,6,15.8,12.8,29,17.7c9.9,3.6,12.7,5.3,20.2,12.3c4.8,4.5,10.1,9.1,11.8,10.3
		c1.6,1.1,4.1,1.6,7.2,1.6c4.7,0,10.8-1.2,17.1-3.5c5.7-2.1,9.3-4.8,16.6-12.1c7.8-7.9,9.6-10.4,10.9-15.6c0.8-3.4,3.2-9.9,5.3-14.5
		c3.8-8.2,3.9-9.3,1.6-18.6c-1.1-4.5,1-4.4,8,0.2c9.2,6.1,11,11.7,4.9,15.2c-5.8,3.3-4.6,6.9,3.7,11.2c7.2,3.7,15,4.4,17.3,1.7
		c1-1.2,1-2.7,0-5.7c-2.8-8.2,3.2-7.4,20,2.5c5.9,3.5,9.3,4.8,11.5,4.3c11.2,5.4,18.6,5.9,19.3,10.2v0c-6.4,4.5-13.5,12.6-17.2,19.9
		c-3.1,6.1-7.5,20.6-7.5,24.8c0,4.3,1.8,5.8,11.5,9.4c4.2,1.6,9.4,2.9,11.5,2.9c5.3,0.1,14-4.7,18.3-10.1c3.2-4,3.8-6,4.6-15.5
		c0.9-10.1,5-24.5,11.1-39.4c0.3-0.6,0.5-1.2,0.8-1.8c0-0.1,0.1-0.2,0.1-0.3c0-0.1,0.1-0.2,0.1-0.3c0.2-0.4,0.4-0.8,0.5-1.3
		c2.4-5.4,3.4-9.5,3.1-12.6c3.2-7.3,7.6-11.9,16.3-20.9c14.5-15,21.9-22.5,25.5-25.9c9.9-9.3,14.9-13.9,21.2-18.4c0,0,0,0,0,0
		c3.3-1.6,5.9-3.3,7.7-5.1c0.8-0.6,1.3-1.1,1.6-1.9c0,0,0,0,0,0c0.7-1.1,1.3-2.2,1.6-3.4c0.4-1.8,3.1-8.2,5.8-14.2
		c4.4-9.7,5.1-12.5,6.1-24.6c1-12.3,1.4-14,4.2-16.6C530.4,490.7,530.3,491.4,527.4,484.6z M418.5,546.5c-3.4,5.6-7,10.2-11.8,14.9
		c-12.7,12.4-29.5,19.9-47.9,21.3c-2.5,0.2-9.8,0.2-12.3,0c-14.8-1.2-28.8-6.4-40.3-15.1c-9.2-6.9-16.5-15.6-21.6-25.7
		c-8.1-16.2-9.4-35.1-3.6-52.4c1.1-3.3,1.9-5.1,3.5-8.3c8.6-17.5,24.2-30.9,43.4-37.2c16.3-5.4,33.8-5.4,50.2,0.1
		c14.3,4.8,27.4,14.1,36.2,25.9c2.3,3.1,2.3,3.3,0.2,1.3c-5.2-5.1-10-8.5-16-11.5c-11.2-5.6-24.1-7.9-36.8-6.5
		c-12.6,1.4-24.6,6.5-34,14.5c-2.4,2-6.2,5.9-8,8.2c-4.2,5.2-7.6,11.5-9.6,17.7c-4,12.5-3.4,25.9,1.8,37.9
		c7.4,17,23.3,29.8,42.4,34.2c4.7,1.1,7.9,1.4,13.4,1.6c5,0.1,7.3,0,11.2-0.6c16.9-2.5,31.7-11.3,41.4-24.6c0.8-1.1,1.5-1.9,1.5-1.8
		C421.8,540.4,419.8,544.5,418.5,546.5z M477.3,115.9c-1.1-5-2.5-14.7-3.2-21.5c-1.1-11-1.6-12.7-4.4-15.1c-2.1-1.8-4.6-2.6-7.3-2.6
		c-8.2,0.1-18.4,8.1-24.7,20.7c-6.2,12.2-8.5,23-8.8,41c-0.3,20.6-1.4,29.2-4.3,34c-3.9,6.5-7.4,20.3-11.7,45.8
		c-2.6,15.6-6.2,31.4-9.7,42.7c-7,22.9-7.3,24.6-5.4,33.1c1.7,7.8,1.3,12.7-2.7,28.7c-1.4,5.8-3.2,13.8-4,17.9
		c-1.3,7-1.9,7.9-11.8,17.5c-6.1,5.9-10.4,11.1-10.4,12.5c0,3.6,3.6,6.2,11.2,8.3c8.8,2.4,16.3,2.4,21.7,0.2c4.1-1.7,4.3-2,4.3-8.3
		c0-4.8,0.9-8.1,3.2-12.1c3.4-6,9.2-29,9.2-36.7c0-3.9,0.9-5.5,5.9-10.3c3.3-3.1,8.5-6.9,11.7-8.4c3.2-1.5,6.3-3.7,6.9-4.9
		c2.2-4.3,2.5-11.5,0.8-19.7c-1-4.6-1.8-11.8-1.8-16c0-4.2-0.6-9.4-1.4-11.6c-1.7-4.9-0.2-9.9,5.5-19c3.9-6.1,5-12.5,8.1-48
		c0.9-9.6,2.3-12.8,6.4-14.1c1.3-0.4,2.9-2.8,3.7-5.3c0.8-2.5,4.2-9.3,7.5-15.1C479.1,136.6,480.3,129.4,477.3,115.9z M342.3,160
		c0.4-4.1,1.9-12.2,3.3-17.9c4.5-19.1,4.9-23.5,3-30.3c-2.4-8.1-8-14.8-14.8-17.3c-2.1-0.8-3.8-1.3-5.3-1.3
		c-4.6-0.2-7.6,3.5-13,13.7l-5.9,11.1l0,15.5c0,10.3,0.8,20.1,2.5,29c3.2,17.3,3.2,18.2-1.2,40.6c-2,10.4-4.2,23.8-4.8,30
		c-0.6,6.1-2.1,13.8-3.3,17.1c-2,5.6-2,6.8-0.1,21c1.1,8.3,1.9,20.1,1.8,26.2c-0.2,9.5,0.2,12.6,3.1,20.6c2.4,6.7,3.4,11.9,3.4,17.9
		c0,6.9,0.5,8.9,2.7,11.2c1.5,1.6,4,2.9,5.6,2.9c3.9,0,9.9-3.2,11.5-6.1c1.9-3.5,1.5-11.9-0.7-17.1c-2.9-6.8-2.4-11.3,2-20.1
		c3-5.9,4.4-11,5.6-20.3c0.9-6.8,2.5-14.9,3.5-17.8c1.1-3,1.9-7.4,1.9-9.8c0-2.4,0.7-6.2,1.5-8.4c1-2.8,1.1-4.9,0.2-6.8
		c-0.8-1.9-0.8-3.9,0-6c0.9-2.4,0.6-5.1-1.4-11.2c-1.5-4.4-3.2-11.9-3.8-16.7c-0.7-4.8-1.9-10.5-2.7-12.8c-1.2-3.4-1.1-4.8,0.4-7.4
		C338.8,186.2,340.6,176.6,342.3,160z M566.3,205.3c-1.8-3.4-5.5-5.4-9.6-5.3c-0.9,0-1.9,0.2-2.9,0.4c-13.1,3.5-27.9,28.4-29.8,50
		c-0.5,5.4-1.4,10.8-2,12c-0.6,1.2-1.7,5-2.3,8.6c-1,5.2-2.3,7.5-6.7,11.7c-4.9,4.7-6,6.9-10.8,21.7l-5.4,16.5l-5.8,2.8
		c-6.6,3.1-9.6,6.8-16.8,20.1c-5.1,9.4-7.7,18.3-10.3,34.3c-1.6,10-1.1,12.8,2.5,12.8c3.8,0,4.3,2.4,1.2,5.8
		c-4.3,4.6-8.7,6.5-19.4,8.5c-9.3,1.7-14.2,4.2-16.7,8.2c-1.7,2.7,1.2,15.4,4.3,18.4c1.5,1.5,3.1,2.2,5.5,2.2
		c2.4,0,5.6-0.8,10.1-2.3c3.9-1.3,10-2.8,13.6-3.2c3.5-0.4,7.8-1.9,9.5-3.2c1.6-1.3,7.6-9.7,13.2-18.8c5.6-9,13.5-20,17.5-24.4
		c9.5-10.4,14.3-20.3,15.9-32.9c0.9-7.1,2.5-12.3,5.6-18.3c6.2-12,8.4-21.6,7.3-31.9c-0.7-6.9-0.4-9.8,1.7-16c1.4-4.1,2.6-8.2,2.6-9
		c0-0.9,3-4.2,6.7-7.4c8.3-7.3,18-20.7,20.8-28.8C568.7,230,568.9,210.4,566.3,205.3z M138.8,329c-9.8-19.3-18.6-32.2-25.1-36.6
		c-3.8-2.6-8.7-4-13.4-4.1c-3.6-0.1-7.1,0.7-9.6,2.2c-9.4,5.9-10.8,18.8-6.6,61.7c3.2,32.9,4.5,39,12,54.7
		c6.5,13.6,8.1,15.7,14.7,18.7c5.4,2.5,8.6,2.1,12.3-1.5c2-1.9,2.5-4.6,3.1-16.3c0.4-7.7,1.2-14.7,1.7-15.5c0.5-0.9,3.7-2.9,7-4.6
		c5.6-2.8,6.2-3.6,8.9-11.4c2.3-6.5,2.9-11,2.9-20.1v-11.8L138.8,329z M679.7,336.3c-2.4-3-5.1-4.2-9.8-4c-1.6,0.1-3.4,0.3-5.5,0.7
		c-16.4,3-29.2,15.1-36.6,34.6c-3,7.9-4,9.2-7.4,10.3c-2.2,0.7-4.8,2.5-5.8,4c-1,1.5-4.6,4.5-7.9,6.7c-11.4,7.7-44,40-51.3,50.8
		c-3.8,5.6-8.8,11.4-11.2,13c-5.2,3.3-8.6,9.3-7.4,13.1c1,3.4,5.3,8.3,8.6,9.6c3.4,1.4,3.9,1.4,8.6-0.6c2.3-1,4.9-3.1,5.7-4.6
		c2.8-5.3,10-13.4,13.7-15.3c2.7-1.4,7-1.8,16.6-1.7c14.1,0.3,15.5-0.2,18.8-6.8c1.1-2.1,3.7-6,5.9-8.8c5.6-7,7.5-11,9.8-21.8
		c1.3-5.8,3-10.3,4.5-11.7c1.3-1.2,4-4.6,5.8-7.5c2.8-4.5,5.8-6.6,18.8-13.6c27.3-14.6,27.3-14.6,28.2-32
		C682.2,340.8,681.9,339.1,679.7,336.3z M160.5,454.6c-1.1-2-2-6.5-2-10c0-4.5-1.7-10.9-6.2-22.6c-6.8-18-9.5-24.2-12.3-24.4
		c-1.1-0.1-2.2,0.8-3.5,2.3c-3.3,3.5-6.1,19.2-7.2,39.4c-0.8,15.5-0.8,15.7,2.5,21.4c3.1,5.3,3.3,6.6,3,18.4l-0.3,12.6l5.2,8.6
		c6.2,10.2,6.4,13.3,2.7,33.8c-2.3,12.6-2.3,14.2-0.6,17.5c1,2,2.6,3.9,3.5,4.3c11.8,4.7,17.5-9.3,18.8-46.2
		C164.8,484,163.3,460,160.5,454.6z"/>
</g>
</svg>
