<?xml version="1.0" encoding="utf-8"?>
<!-- Generator: Adobe Illustrator 24.3.0, SVG Export Plug-In . SVG Version: 6.00 Build 0)  -->
<svg version="1.1" id="Layer_1" xmlns="http://www.w3.org/2000/svg" xmlns:xlink="http://www.w3.org/1999/xlink" x="0px" y="0px"
	 viewBox="0 0 612 792" style="enable-background:new 0 0 612 792;" xml:space="preserve">
<style type="text/css">
	.st0{fill:#FFFFFF;}
</style>
<g>
	<path class="st0" d="M607,264.89c0,144.04,0,288.08,0,432.11c-199.67,0-399.33,0-599,0C8,497.33,8,297.67,8,98
		c148.01,0,296.02,0,444.03,0c-2.35,0.74-4.66,1.91-7.06,2.17c-36.12,3.94-65.59,20.5-90.83,46.17
		c-35.85,36.47-73.52,71.24-107.88,109.03c-15.54,17.09-29.06,38.34-36.42,60.1c-18.02,53.26-4.52,101.63,32.93,143.09
		c12.84,14.21,30.78,15.07,43.76,3.57c13.27-11.75,14.19-29.02,2.31-43.86c-2.17-2.71-4.52-5.28-6.67-8
		c-26.85-34.08-24.32-80.33,6.28-111.03c37.5-37.63,75.03-75.23,112.77-112.62c34.73-34.41,86.93-34.9,120-1.47
		c32.92,33.28,32.39,84.21-1.37,118.71c-17.01,17.38-34.67,34.15-51.26,51.92c-12.1,12.96-11.37,31.25,0.26,42.98
		c11.85,11.96,29.95,12.92,42.78,0.29C551.28,360.01,596.57,324.77,607,264.89z M416.53,435.37c-1-38.87-13.68-72-39.23-99.77
		c-4.47-4.86-10.75-9.31-17-11.02c-13.46-3.68-25.6-0.48-33.65,12.25c-8.44,13.34-7.01,25.23,4.69,39.35
		c33.32,40.23,31.64,84.21-5.06,121.13c-36.76,36.98-73.56,73.94-110.87,110.36c-33.53,32.73-85.72,32.39-117.85,0.05
		c-33.09-33.31-32.77-84.72,0.86-118.74c16.41-16.6,33.24-32.79,49.5-49.53c14.28-14.7,14.49-33.71,1.16-46.32
		c-12.91-12.21-30.46-11.1-45,3.22c-17.69,17.43-35.46,34.79-52.63,52.72c-27.02,28.19-41.36,62.56-39.89,101.16
		c2.33,61.3,31.58,107.44,88.68,131.51c56.95,24.01,110.61,14.22,155.83-28.04c40.98-38.3,79.89-78.82,119.32-118.75
		C402.85,507.16,415.31,472.9,416.53,435.37z"/>
	<path d="M607,264.89c-10.43,59.88-55.72,95.12-95.36,134.17c-12.82,12.63-30.93,11.67-42.78-0.29
		c-11.63-11.74-12.35-30.02-0.26-42.98c16.59-17.77,34.24-34.54,51.26-51.92c33.77-34.5,34.29-85.43,1.37-118.71
		c-33.07-33.44-85.27-32.94-120,1.47c-37.74,37.39-75.26,75-112.77,112.62c-30.6,30.7-33.14,76.94-6.28,111.03
		c2.15,2.73,4.5,5.29,6.67,8c11.88,14.85,10.96,32.11-2.31,43.86c-12.98,11.5-30.92,10.64-43.76-3.57
		c-37.46-41.46-50.95-89.83-32.93-143.09c7.36-21.76,20.88-43.01,36.42-60.1c34.36-37.79,72.03-72.56,107.88-109.03
		c25.24-25.68,54.71-42.24,90.83-46.17c2.4-0.26,4.71-1.43,7.06-2.17c6.95,0,13.91,0,20.86,0c2.81,0.85,5.56,2.11,8.43,2.48
		c39.84,5.15,73.13,23.35,95.39,56.2c13.47,19.88,20.41,44.17,30.29,66.48C607,237.07,607,250.98,607,264.89z"/>
	<path class="st0" d="M607,223.16c-9.88-22.31-16.82-46.6-30.29-66.48c-22.26-32.85-55.55-51.06-95.39-56.2
		c-2.87-0.37-5.62-1.63-8.43-2.48c44.7,0,89.4,0,134.1,0C607,139.72,607,181.44,607,223.16z"/>
	<path d="M416.53,435.37c-1.22,37.53-13.68,71.79-41.13,99.58c-39.43,39.93-78.34,80.45-119.32,118.75
		c-45.22,42.26-98.89,52.05-155.83,28.04c-57.1-24.08-86.35-70.21-88.68-131.51c-1.47-38.6,12.87-72.97,39.89-101.16
		c17.18-17.93,34.94-35.29,52.63-52.72c14.54-14.32,32.09-15.43,45-3.22c13.33,12.61,13.12,31.62-1.16,46.32
		c-16.26,16.74-33.09,32.93-49.5,49.53c-33.63,34.02-33.95,85.43-0.86,118.74c32.13,32.34,84.32,32.68,117.85-0.05
		c37.31-36.42,74.11-73.38,110.87-110.36c36.7-36.92,38.38-80.89,5.06-121.13c-11.69-14.12-13.12-26.01-4.69-39.35
		c8.05-12.73,20.19-15.93,33.65-12.25c6.25,1.71,12.53,6.16,17,11.02C402.84,363.37,415.52,396.5,416.53,435.37z"/>
</g>
</svg>
