<?xml version="1.0" encoding="UTF-8" standalone="no"?>
<!-- Created with Inkscape (http://www.inkscape.org/) -->

<svg
   xmlns:dc="http://purl.org/dc/elements/1.1/"
   xmlns:cc="http://creativecommons.org/ns#"
   xmlns:rdf="http://www.w3.org/1999/02/22-rdf-syntax-ns#"
   xmlns:svg="http://www.w3.org/2000/svg"
   xmlns="http://www.w3.org/2000/svg"
   xmlns:sodipodi="http://sodipodi.sourceforge.net/DTD/sodipodi-0.dtd"
   xmlns:inkscape="http://www.inkscape.org/namespaces/inkscape"
   width="324.35034mm"
   height="635mm"
   viewBox="0 0 324.35033 634.99999"
   version="1.1"
   id="svg8"
   inkscape:version="0.92.4 (5da689c313, 2019-01-14)"
   sodipodi:docname="sabbat.svg">
  <defs
     id="defs2" />
  <sodipodi:namedview
     id="base"
     pagecolor="#ffffff"
     bordercolor="#666666"
     borderopacity="1.0"
     inkscape:pageopacity="0.0"
     inkscape:pageshadow="2"
     inkscape:zoom="0.28333334"
     inkscape:cx="612.94553"
     inkscape:cy="1200"
     inkscape:document-units="mm"
     inkscape:current-layer="layer1"
     showgrid="false"
     fit-margin-top="0"
     fit-margin-left="0"
     fit-margin-right="0"
     fit-margin-bottom="0"
     inkscape:window-width="1600"
     inkscape:window-height="847"
     inkscape:window-x="-8"
     inkscape:window-y="-8"
     inkscape:window-maximized="1" />
  <metadata
     id="metadata5">
    <rdf:RDF>
      <cc:Work
         rdf:about="">
        <dc:format>image/svg+xml</dc:format>
        <dc:type
           rdf:resource="http://purl.org/dc/dcmitype/StillImage" />
        <dc:title></dc:title>
      </cc:Work>
    </rdf:RDF>
  </metadata>
  <g
     inkscape:label="Layer 1"
     inkscape:groupmode="layer"
     id="layer1"
     transform="translate(-248.83496,336.52036)">
    <path
       style="fill:#000000;stroke-width:0.64975333"
       d="m 404.92834,282.11901 c -6.09753,-18.37749 -5.8303,-17.91104 -10.27405,-17.93376 -1.85225,-0.01 -10.47745,-1.97188 -15.75714,-3.58509 -3.06764,-0.93731 -3.25027,-0.92113 -4.47786,0.39651 -1.88639,2.0248 -5.44909,3.32576 -7.73358,2.824 -1.07523,-0.23624 -3.09168,-1.45632 -4.48095,-2.71145 -2.25277,-2.03522 -2.526,-2.61239 -2.526,-5.33559 0,-2.9168 -0.12377,-3.12272 -2.76145,-4.5988 -1.51879,-0.84989 -5.00585,-3.09667 -7.74903,-4.99278 -2.74316,-1.89615 -5.38581,-3.44752 -5.87254,-3.44752 -0.48675,0 -7.84689,3.52858 -16.35588,7.84129 -8.50899,4.31273 -15.60184,7.71038 -15.76188,7.55033 -0.16012,-0.16011 3.23124,-7.26613 7.53619,-15.7913 4.30494,-8.52517 7.82717,-15.91556 7.82717,-16.4231 0,-0.50753 -0.7497,-1.90569 -1.66599,-3.107 -2.96285,-3.8845 -7.18398,-10.39428 -7.98412,-12.31304 -0.67963,-1.62979 -1.15325,-1.88627 -3.69702,-2.00213 -7.68074,-0.34985 -10.81518,-8.83664 -5.47036,-14.81143 1.027,-1.14804 1.0671,-1.60248 0.3441,-3.89852 -1.19004,-3.77929 -2.87547,-11.21556 -3.35761,-14.81408 -0.22986,-1.7152 -0.8135,-3.5142 -1.29711,-3.99781 -0.48359,-0.48359 -7.68484,-3.12594 -16.00279,-5.87189 -8.31794,-2.74596 -15.35799,-5.21638 -15.64455,-5.48986 -0.55748,-0.53196 2.4344,-1.64506 20.4432,-7.60566 l 11.47535,-3.79813 0.70753,-3.52296 c 0.38912,-1.93764 0.71691,-4.27828 0.72843,-5.20142 0.0123,-0.92315 0.84073,-4.60234 1.84268,-8.17599 l 1.82173,-6.49755 -1.77762,-1.66186 c -3.73355,-3.49043 -3.65567,-9.14518 0.17755,-12.89287 1.77306,-1.7335 2.5338,-2.01397 5.46254,-2.01397 h 3.40261 l 2.10584,-3.73607 c 1.15821,-2.05486 3.79992,-5.97951 5.87049,-8.72144 l 3.76466,-4.985367 -8.05315,-15.969198 c -4.42924,-8.783053 -7.92433,-15.969173 -7.76689,-15.969173 0.15742,0 7.29897,3.508668 15.86999,7.79704 8.57102,4.288372 15.87588,7.79704 16.23302,7.79704 0.35712,0 1.99145,-1.024494 3.63185,-2.276613 1.6404,-1.252143 5.0054,-3.478388 7.47779,-4.947203 4.34667,-2.582331 4.49525,-2.755118 4.49525,-5.227824 0,-3.519989 1.45032,-6.006373 4.28933,-7.353579 3.23855,-1.536791 7.68424,-0.936431 10.08291,1.36167 1.6681,1.598111 1.89265,1.642167 4.25291,0.834099 1.37051,-0.469197 2.63803,-0.878401 2.81671,-0.909319 0.17878,-0.03094 1.85992,-0.408884 3.73609,-0.839919 1.87615,-0.431011 4.87314,-1.105215 6.65998,-1.498235 l 3.24875,-0.714553 v -7.40736 -7.40736 l -6.98485,-0.0049 c -9.1343,-0.0074 -39.75675,1.121988 -53.76709,1.981775 -6.07518,0.372833 -12.94633,0.77742 -15.26921,0.899103 -7.77356,0.407189 -19.12507,2.2787 -23.47854,3.870893 -7.58563,2.774223 -20.89948,9.901823 -24.37171,13.047383 -0.40871,0.370328 -2.42167,1.989043 -4.47324,3.597174 -3.75412,2.942713 -9.83611,9.932889 -12.58221,14.461066 -1.65934,2.736135 -2.66865,2.656028 -2.66865,-0.211932 0,-1.054848 -0.41812,-4.61936 -0.92919,-7.92113 -2.04327,-13.20104 -1.82753,-35.356816 0.44125,-45.313305 0.72307,-3.173235 2.97864,-6.929002 7.38887,-12.303189 0.81374,-0.9916117 9.55406,-12.3687338 25.20819,-32.813016 4.25885,-5.562052 7.98682,-10.112822 8.28436,-10.112822 0.96683,0 0.58076,1.990737 -1.71906,8.863577 -7.29771,21.8089234 -9.29189,36.1959 -5.56672,40.161167 1.47979,1.57515 1.89133,1.655109 8.42734,1.6376 3.77936,-0.0098 11.98841,-0.446286 18.24227,-0.96924 20.22366,-1.691159 33.16311,-4.271329 46.1325,-9.1989849 18.87908,-7.1730316 28.93751,-15.9173817 35.13049,-30.5408721 2.09774,-4.953392 2.15822,-5.356972 2.42467,-16.182039 l 0.27331,-11.101954 -2.30523,-1.360099 c -3.11081,-1.835435 -4.56727,-4.78947 -4.15681,-8.43097 0.33467,-2.969236 2.74527,-6.268329 5.13416,-7.026546 1.07392,-0.340835 1.1851,-1.244677 1.1851,-9.633433 v -9.25731 l -2.172,-1.035741 C 386.985,-89.51 386.85978,-98.972095 392.39328,-101.95211 l 2.37209,-1.27744 -0.0147,-9.76099 -0.0147,-9.76098 -2.03448,-1.00195 c -2.46634,-1.21462 -4.43441,-4.66106 -4.43112,-7.75959 0.002,-2.97963 2.16377,-6.45718 4.578,-7.36844 l 1.91709,-0.72364 v -9.56005 c 0,-8.68181 -0.10879,-9.59464 -1.1851,-9.93621 -0.65181,-0.20677 -2.00915,-1.23628 -3.01634,-2.28754 -3.70095,-3.86296 -2.55573,-11.38361 2.075,-13.62665 l 2.09695,-1.0157 0.0147,-9.21519 c 0.0123,-8.35543 -0.0958,-9.2503 -1.17036,-9.59134 -0.65181,-0.20677 -2.04064,-1.26913 -3.08633,-2.3606 -1.66115,-1.73386 -1.90122,-2.46676 -1.90122,-5.80421 0,-3.47399 0.2026,-4.0289 2.23916,-6.13 1.23154,-1.27061 2.62842,-2.31021 3.10418,-2.31021 0.68808,0 0.82813,-1.89029 0.68471,-9.24178 l -0.18025,-9.24179 -2.92388,-0.50267 c -1.60813,-0.27647 -4.09346,-0.62107 -5.52291,-0.76573 -1.42944,-0.14465 -4.49954,-0.56038 -6.82239,-0.92379 -7.06957,-1.106 -14.5675,-2.16684 -16.59599,-2.34805 -2.44704,-0.21856 -11.86451,-1.56478 -16.61764,-2.37536 -2.00743,-0.34233 -5.22372,-0.77658 -7.14729,-0.96499 -1.9236,-0.18836 -4.667,-0.61276 -6.09645,-0.94301 -1.42948,-0.33025 -3.84167,-0.60761 -5.36049,-0.61635 -4.47668,-0.0258 -3.4082,-1.53595 2.27416,-3.21432 2.76956,-0.81801 6.20514,-1.87863 7.63459,-2.35689 1.42945,-0.47828 5.81529,-1.86977 9.7463,-3.0922 3.93101,-1.22242 10.94835,-3.41591 15.59408,-4.87441 4.64574,-1.4585 9.25088,-2.84549 10.23362,-3.08218 0.98275,-0.23673 1.77994,-0.61794 1.77154,-0.84721 -0.007,-0.22937 -5.6369,-2.26834 -12.50775,-4.53122 -6.87085,-2.26289 -13.07725,-4.37543 -13.79197,-4.69453 -0.71473,-0.31913 -3.63863,-1.34775 -6.49755,-2.28587 -2.8589,-0.9381 -5.58453,-1.91906 -6.05694,-2.17985 -0.97415,-0.5378 2.37332,-1.39655 33.02171,-8.47122 17.37445,-4.0106 20.51127,-4.75253 23.34276,-5.52106 l 2.87553,-0.78048 2.19238,-7.41819 c 1.2058,-4.08 2.64176,-9.02632 3.19099,-10.99183 0.54923,-1.9655 1.24608,-4.45081 1.54853,-5.5229 4.60133,-16.31059 8.2559,-27.28964 9.08378,-27.28964 0.82789,0 4.48245,10.97905 9.08379,27.28964 0.30245,1.07209 0.9993,3.5574 1.54853,5.5229 0.54923,1.96551 1.98519,6.91183 3.19099,10.99183 l 2.19235,7.41819 2.87555,0.78048 c 2.83149,0.76853 5.96831,1.51046 23.34277,5.52106 30.64841,7.07467 33.99586,7.93342 33.02171,8.47122 -0.47239,0.26079 -3.19802,1.24427 -6.05694,2.18549 -2.85892,0.94122 -5.63661,1.88438 -6.17265,2.09595 -0.53605,0.21168 -6.7463,2.34289 -13.80052,4.7363 -7.05425,2.39341 -12.98425,4.51 -13.17781,4.70357 -0.19351,0.19351 1.77704,1.0131 4.37909,1.82124 2.60205,0.80814 5.90055,1.83514 7.33,2.28221 1.42948,0.4471 4.79195,1.47419 7.47217,2.28248 2.68024,0.80827 6.91989,2.13327 9.42145,2.94446 2.50154,0.81119 7.03357,2.23526 10.07118,3.16462 3.0376,0.92935 6.61935,2.02622 7.95949,2.43749 1.3401,0.41124 2.43655,1.13952 2.43655,1.61837 0,0.57005 -0.84115,0.87611 -2.43655,0.8865 -1.34014,0.01 -3.60614,0.28207 -5.03562,0.60741 -1.42944,0.32536 -4.20794,0.73621 -6.17447,0.91303 -1.9665,0.17681 -5.47516,0.62418 -7.79704,0.99411 -7.05355,1.12381 -16.89315,2.53543 -23.06443,3.3089 -3.21628,0.40308 -8.18689,1.15492 -11.04581,1.67067 -2.85893,0.51581 -6.11175,0.93756 -7.22851,0.93729 -1.11676,-2.7e-4 -2.94419,0.18222 -4.06094,0.4056 l -2.0305,0.40611 0.0147,9.17776 0.0147,9.17777 2.0915,0.97462 c 2.78291,1.29684 5.02767,4.77805 5.02767,7.79704 0,3.01899 -2.24476,6.5002 -5.02767,7.79704 l -2.0915,0.97462 -0.0147,9.12844 -0.0147,9.12848 2.28425,0.826 c 2.51575,0.90969 4.86304,4.57582 4.86304,7.59532 0,2.86632 -1.96804,6.10704 -4.63244,7.62819 l -2.50483,1.43001 -0.005,9.20547 -0.005,9.20547 2.43655,1.19057 c 2.70208,1.32032 4.62933,4.51401 4.67953,7.75449 0.0405,2.62373 -2.35535,6.17503 -4.99649,7.40578 l -2.09148,0.97465 v 9.7463 9.7463 l 2.05798,0.97462 c 4.62329,2.18953 6.40939,8.238927 3.64501,12.345328 -0.842,1.250768 -2.47597,2.692373 -3.63101,3.203589 l -2.0997,0.929431 0.0147,9.141742 0.0147,9.141716 2.09147,0.974643 c 3.2016,1.491948 5.20825,4.921958 4.84104,8.27498 -0.38752,3.538604 -1.89201,5.792477 -4.78866,7.173793 l -2.31266,1.102833 0.27222,11.054362 c 0.2653,10.771875 0.32723,11.184148 2.42364,16.134446 6.19299,14.6234904 16.25144,23.3678405 35.13052,30.5408721 12.96938,4.9276559 25.90884,7.5078259 46.13249,9.1989849 6.25387,0.522954 14.46289,0.959122 18.24228,0.96924 6.53601,0.01719 6.94754,-0.06238 8.42733,-1.6376 3.72517,-3.965267 1.731,-18.3522436 -5.56671,-40.161167 -2.29978,-6.87284 -2.68585,-8.863577 -1.71901,-8.863577 0.29754,0 4.02551,4.55077 8.28436,10.112822 15.65412,20.4442822 24.39445,31.8214043 25.20819,32.813016 4.41022,5.374187 6.66579,9.129954 7.38887,12.303189 2.26877,9.956489 2.48451,32.112265 0.44125,45.313305 -0.51107,3.30177 -0.92919,6.866282 -0.92919,7.92113 0,2.867862 -1.00932,2.947969 -2.66865,0.211932 -2.74611,-4.528177 -8.82809,-11.518353 -12.58221,-14.461066 -2.05157,-1.608131 -4.06453,-3.226846 -4.47325,-3.597101 -3.4722,-3.145584 -16.78608,-10.273159 -24.3717,-13.047407 -4.35348,-1.592168 -15.70498,-3.463679 -23.47855,-3.870893 -2.32288,-0.121806 -9.194,-0.52627 -15.26921,-0.899079 C 473.99645,39.179378 443.374,38.050686 434.23969,38.05739 l -6.98487,0.0049 v 7.72327 7.723269 l 3.08635,0.433589 c 1.69748,0.238454 3.99376,0.718777 5.10283,1.067372 1.1091,0.348595 2.57103,0.755417 3.24877,0.904064 0.67775,0.148573 2.15746,0.551097 3.28829,0.894339 1.78033,0.54039 2.25388,0.413476 3.53134,-0.946303 0.81141,-0.863691 2.5269,-1.853535 3.81222,-2.199625 5.73867,-1.545288 11.06765,2.844115 11.06765,9.116275 0,1.477091 0.46156,2.12718 2.11168,2.974196 2.43894,1.251923 11.70959,7.383687 14.19501,9.38884 l 1.68728,1.361229 15.04387,-7.527423 c 8.27415,-4.140044 15.04392,-7.275117 15.04392,-6.966797 0,0.308346 -3.36879,7.228237 -7.48622,15.377532 -7.437,14.719584 -7.47803,14.825845 -6.24345,16.173272 1.65555,1.806826 9.18138,13.362431 9.18138,14.097611 0,0.31827 1.46623,0.57865 3.25833,0.57865 2.80116,0 3.59729,0.31068 5.6745,2.21429 2.27767,2.08732 2.4162,2.43945 2.4162,6.14129 0,3.43586 -0.23257,4.16976 -1.85936,5.86777 -1.3197,1.37746 -1.76127,2.37664 -1.52142,3.44256 0.1859,0.826 0.92167,3.84093 1.63515,6.69983 0.71347,2.85892 1.65862,7.43482 2.10036,10.16867 l 0.80316,4.97061 4.62992,1.45449 c 9.01752,2.8329 29.13905,9.64805 29.47377,9.98277 0.4746,0.47462 -0.75606,0.91789 -18.34633,6.60823 -8.57674,2.77452 -15.68423,5.10985 -15.7944,5.18966 -0.11026,0.0798 -0.61335,2.58899 -1.11818,5.57595 -0.5048,2.98699 -1.38181,7.18522 -1.94889,9.32941 -0.56706,2.14418 -1.185,4.50706 -1.37319,5.25086 -0.2107,0.83282 0.30292,2.30294 1.33702,3.82677 2.77663,4.09159 1.96031,9.77871 -1.75283,12.21166 -0.85202,0.55827 -2.86081,1.21174 -4.46396,1.45214 -2.50008,0.37492 -3.09332,0.77391 -4.16941,2.80418 -1.46928,2.77216 -4.4703,7.33202 -7.06026,10.72765 l -1.83318,2.4034 8.53016,16.81072 c 4.69156,9.24589 8.53013,16.96599 8.53013,17.1558 0,0.18983 -7.50623,-3.4778 -16.68053,-8.15026 -15.55592,-7.9226 -16.78017,-8.43364 -18.15822,-7.58012 -0.81273,0.50338 -4.00077,2.61281 -7.08455,4.68763 -3.08379,2.0748 -6.28355,4.08069 -7.1106,4.4575 -1.05018,0.4785 -1.62319,1.43225 -1.8998,3.16218 -1.06038,6.63115 -9.05786,9.88611 -14.25189,5.80049 -1.5764,-1.23999 -1.76603,-1.24881 -4.77662,-0.22176 -3.96535,1.35288 -10.62318,2.81917 -14.83061,3.26624 -1.78682,0.18983 -3.42724,0.53859 -3.64536,0.77496 -0.21807,0.23625 -2.80902,7.73948 -5.75756,16.67359 -2.94853,8.93413 -5.56166,16.61339 -5.80694,17.06508 -0.24533,0.45166 -3.00843,-6.90175 -6.14028,-16.3409 z m -0.81229,-70.41022 c 5.51139,-16.94458 6.24883,-19.00872 6.78453,-18.99065 0.23845,0.007 2.44419,6.22133 4.9016,13.80727 2.45743,7.58595 4.78217,14.74289 5.16613,15.90432 0.58855,1.7804 1.01524,2.11169 2.7198,2.11169 4.33332,0 19.91534,-6.43916 24.90439,-10.29156 l 1.52188,-1.17515 -7.53481,-15.05875 c -4.14417,-8.28233 -7.38499,-15.05875 -7.20184,-15.05875 0.1832,0 7.08718,3.37954 15.34229,7.51008 8.25509,4.13054 15.06836,7.41994 15.14058,7.30972 6.87834,-10.4969 13.00929,-25.7835 10.87096,-27.10504 -0.4635,-0.28644 -7.76541,-2.80308 -16.22646,-5.5925 -8.46108,-2.78945 -15.61854,-5.27427 -15.90545,-5.52183 -0.28693,-0.24757 6.29184,-2.69932 14.61944,-5.44833 20.95604,-6.91778 18.91412,-5.87157 18.40112,-9.4281 -0.92332,-6.40082 -4.17521,-15.42668 -7.66767,-21.28219 l -2.00079,-3.35455 -17.42544,8.71732 c -9.58397,4.79452 -17.42541,8.45732 -17.42541,8.13952 0,-0.3178 3.91441,-8.34397 8.69867,-17.8359 9.67344,-19.191966 9.31058,-17.30577 3.97151,-20.644475 -5.14379,-3.216629 -17.57343,-8.240084 -18.38368,-7.429806 -0.16454,0.164536 -0.52816,1.407396 -0.8078,2.761675 -0.27961,1.354278 -0.97395,4.509071 -1.5429,7.010606 -2.19845,9.66563 -3.13058,13.83961 -4.28054,19.16773 -0.65562,3.0376 -1.65541,7.56964 -2.22178,10.07117 -2.55109,11.26806 -3.15688,13.98364 -4.2759,19.16773 -2.35907,10.9289 -2.87338,12.99508 -3.23467,12.99508 -0.20187,0 -0.70176,-1.68124 -1.11097,-3.7361 -0.4092,-2.05483 -1.52092,-7.24474 -2.47052,-11.53311 -2.34508,-10.59062 -4.11563,-18.60011 -5.31438,-24.04089 -0.55118,-2.50154 -1.40197,-6.30259 -1.89067,-8.44679 -0.48872,-2.14417 -1.49102,-6.6762 -2.22738,-10.07117 -0.73633,-3.39497 -1.69904,-7.834099 -2.13931,-9.864718 -0.44029,-2.030644 -0.96499,-3.856527 -1.16599,-4.057531 -1.03199,-1.031984 -17.92182,5.946698 -21.66266,8.950732 l -1.90601,1.530627 8.2306,16.45868 c 4.52685,9.05228 8.10905,16.58029 7.96045,16.72889 -0.14858,0.14857 -7.61974,-3.41353 -16.60257,-7.91585 -8.9828,-4.5023 -16.57702,-8.18601 -16.87603,-8.18601 -1.31381,0 -6.97233,11.24441 -9.31878,18.51796 -2.31922,7.18912 -2.87309,11.37069 -1.50612,11.37069 1.90083,0 34.90923,11.24564 34.38755,11.7155 -0.28258,0.25451 -2.26814,0.98621 -4.41231,1.62598 -8.33031,2.48557 -29.26953,9.57577 -29.83538,10.10256 -1.98973,1.85223 9.79306,27.37385 12.29204,26.62462 0.35736,-0.10707 7.33327,-3.53897 15.50201,-7.62629 8.16875,-4.08734 14.99927,-7.28452 15.17896,-7.10484 0.17976,0.17977 -1.50514,3.9247 -3.744,8.32228 -2.2389,4.39758 -5.67672,11.17828 -7.63958,15.06826 l -3.56888,7.07266 1.55717,1.19281 c 5.33236,4.08467 19.97332,9.80625 26.29388,10.27545 0.3827,0.0285 2.66921,-6.01541 5.08112,-13.43073 z"
       id="path21"
       inkscape:connector-curvature="0" />
  </g>
</svg>
