<?xml version="1.0" encoding="UTF-8" standalone="no"?>
<!-- Created with Inkscape (http://www.inkscape.org/) -->

<svg
   width="131.7182mm"
   height="139.48216mm"
   viewBox="0 0 131.7182 139.48216"
   version="1.1"
   id="svg5"
   inkscape:version="1.1.1 (3bf5ae0d25, 2021-09-20)"
   sodipodi:docname="Samedi.svg"
   xmlns:inkscape="http://www.inkscape.org/namespaces/inkscape"
   xmlns:sodipodi="http://sodipodi.sourceforge.net/DTD/sodipodi-0.dtd"
   xmlns="http://www.w3.org/2000/svg"
   xmlns:svg="http://www.w3.org/2000/svg">
  <sodipodi:namedview
     id="namedview7"
     pagecolor="#ffffff"
     bordercolor="#999999"
     borderopacity="1"
     inkscape:pageshadow="0"
     inkscape:pageopacity="0"
     inkscape:pagecheckerboard="0"
     inkscape:document-units="mm"
     showgrid="false"
     fit-margin-top="0"
     fit-margin-left="0"
     fit-margin-right="0"
     fit-margin-bottom="0"
     inkscape:zoom="0.74118967"
     inkscape:cx="284.00288"
     inkscape:cy="387.88992"
     inkscape:window-width="1920"
     inkscape:window-height="1017"
     inkscape:window-x="-8"
     inkscape:window-y="-8"
     inkscape:window-maximized="1"
     inkscape:current-layer="layer1" />
  <defs
     id="defs2" />
  <g
     inkscape:label="Layer 1"
     inkscape:groupmode="layer"
     id="layer1"
     transform="translate(-30.088878,-46.062406)">
    <path
       style="fill:#010101;stroke-width:0.264583"
       d="m 113.29293,185.37865 c -0.32542,-0.13593 -0.94416,-0.81713 -1.37496,-1.51378 -0.6825,-1.10368 -1.77434,-2.13256 -1.99534,-1.88028 -0.0407,0.0465 -0.34276,0.62026 -0.67124,1.2751 -0.67349,1.34265 -0.93702,1.57767 -1.77556,1.58345 -0.4548,0.003 -0.71685,-0.29557 -1.15706,-1.31887 -0.65108,-1.51347 -1.11015,-1.6593 -1.69051,-0.53701 -0.54937,1.06237 -1.14734,1.33076 -2.96485,1.33076 -5.893426,0 -17.015606,-2.3501 -24.640246,-5.20645 -2.13641,-0.80034 -5.61078,-2.0464 -7.72083,-2.76902 -2.11005,-0.72261 -4.53124,-1.72504 -5.38042,-2.22761 -1.72022,-1.01807 -5.3531,-3.69407 -5.66382,-4.17199 -0.1103,-0.16966 -0.38251,-1.01218 -0.6049,-1.87227 -0.48572,-1.87846 -0.93787,-2.25174 -2.1824,-1.80172 -1.78743,0.64635 -3.41634,0.26304 -4.35293,-1.02432 -0.46099,-0.63365 -2.930221,-2.21998 -4.110998,-2.64108 -0.689897,-0.24603 -1.829616,-1.24231 -3.704167,-3.23796 -1.489212,-1.58541 -3.271226,-3.42411 -3.96003,-4.08599 -1.920803,-1.84573 -2.440509,-3.14039 -2.452895,-6.11052 -0.009,-2.15114 -0.07842,-2.52287 -0.533773,-2.85695 -0.287903,-0.21122 -0.761586,-0.31918 -1.052628,-0.23991 -0.291041,0.0793 -1.143371,0.21914 -1.894065,0.31084 -1.325965,0.16196 -1.377006,0.1433 -1.789342,-0.65407 -0.949509,-1.83615 -1.539652,-5.31919 -1.530994,-9.03598 0.0086,-3.67495 0.108868,-4.561 1.258033,-11.1125 0.968892,-5.52375 1.050562,-5.7685 2.090253,-6.2643 1.374507,-0.65545 2.051911,-0.31753 3.582835,1.7873 0.749546,1.03053 2.057802,2.54874 2.907234,3.37379 1.324968,1.28694 1.571107,1.67942 1.732218,2.76217 0.105504,0.70904 0.06446,1.74797 -0.09367,2.37095 -0.199453,0.78578 -0.198998,1.20825 0.0016,1.44991 0.435772,0.52507 0.831464,0.41245 1.590646,-0.45273 0.860647,-0.98081 1.999286,-1.06233 2.771983,-0.19844 0.881229,0.98522 8.10874,11.29072 9.47536,13.51064 0.7,1.13708 1.75141,2.44676 2.33646,2.91042 2.47669,1.96277 2.8292,2.42478 2.8292,3.70806 0,1.64043 0.44546,2.04918 1.83038,1.67952 1.48662,-0.3968 2.5442,0.16574 4.14697,2.2058 1.54231,1.96312 4.41433,4.17807 7.92294,6.11032 2.85678,1.57327 3.63368,2.39858 4.91713,5.2235 1.62302,3.57234 2.67015,4.14062 3.40758,1.84932 0.82618,-2.56709 2.06103,-2.95082 4.49791,-1.39775 0.80037,0.51008 2.23533,1.15991 3.1888,1.44405 2.69002,0.80164 15.263476,2.5547 21.814326,3.04148 3.51482,0.26118 4.70025,0.93891 6.93731,3.9662 l 0.58655,0.79375 0.009,-0.92604 c 0.0116,-1.21713 0.76821,-2.68792 1.59547,-3.10127 0.3638,-0.18178 1.22956,-0.33227 1.9239,-0.33441 0.88862,-0.003 1.55456,-0.19539 2.24896,-0.65057 0.54258,-0.35567 2.51411,-1.31062 4.38117,-2.12211 1.86706,-0.81149 4.0522,-1.91948 4.85588,-2.46219 3.0848,-2.08312 3.45041,-2.21661 5.82542,-2.12697 1.19381,0.0451 2.30895,0.2212 2.4793,0.39161 0.23643,0.23653 -0.004,0.86184 -1.0156,2.64584 -1.69527,2.98848 -3.01705,6.34749 -3.91839,9.95774 -0.79541,3.18595 -1.31429,4.12766 -2.97033,5.39075 -2.12305,1.61931 -3.91768,1.98114 -10.8999,2.19761 -4.71166,0.14607 -6.60223,0.30574 -7.8052,0.65919 -2.18586,0.64223 -2.55808,0.68879 -3.23753,0.40499 z m -8.53643,-18.13299 c -6.429416,-1.00734 -7.216016,-1.38086 -7.098596,-3.37076 0.0456,-0.77299 -0.07,-1.14568 -0.43907,-1.41555 -0.70738,-0.51725 -0.78702,-0.48908 -1.95636,0.69201 -1.47582,1.49064 -2.58008,1.50556 -6.24868,0.0844 -9.62517,-3.72865 -15.43659,-6.42987 -18.11237,-8.41887 -0.93951,-0.69837 -2.36826,-1.56919 -3.175,-1.93517 -0.80674,-0.36597 -1.54773,-0.78812 -1.64665,-0.93811 -0.0989,-0.14999 -0.11516,-0.81896 -0.0361,-1.48659 0.17097,-1.4436 -0.31194,-2.08945 -1.20497,-1.61152 -0.29078,0.15562 -0.97999,0.28294 -1.53159,0.28294 -0.91084,0 -1.2133,-0.21342 -3.29462,-2.32465 -4.04946,-4.10767 -4.72774,-5.9267 -3.27726,-8.78908 0.36415,-0.71861 0.9012,-2.33206 1.19345,-3.58543 0.96038,-4.11882 2.53265,-6.60009 4.87259,-7.68968 1.63731,-0.7624 2.96671,-0.78566 6.04184,-0.10571 2.95354,0.65308 4.36632,1.28381 5.79735,2.58824 0.9976,0.90934 1.2703,1.02737 2.12916,0.9215 1.93279,-0.23823 4.301,0.59848 8.1765,2.88885 1.59095,0.94022 5.01251,2.50477 6.51531,2.97919 0.55258,0.17444 0.57646,0.13773 0.33073,-0.50858 -0.34016,-0.89467 -0.33935,-2.54841 0.002,-3.44537 0.14658,-0.38555 1.51598,-1.9972 3.04309,-3.58143 4.72917,-4.90607 6.630736,-8.52092 7.274766,-13.82919 0.15578,-1.28396 0.61729,-3.2498 1.02558,-4.36854 0.40829,-1.11874 0.8905,-2.6876 1.07158,-3.48636 0.18109,-0.79876 0.39421,-1.69042 0.4736,-1.98146 l 0.14435,-0.52917 -0.59292,0.52917 c -0.32611,0.29104 -0.86439,1.06495 -1.19618,1.71979 -1.08858,2.14854 -3.861716,9.63136 -4.020236,10.84791 -0.20255,1.55451 -0.46504,2.02761 -1.39054,2.5062 -0.4953,0.25613 -0.875,0.74547 -1.07996,1.3918 -0.77935,2.4577 -5.64329,10.12434 -6.93934,10.93795 -1.38414,0.8689 -2.77288,0.58156 -4.48073,-0.92708 -1.88207,-1.66253 -4.79821,-3.01853 -9.73917,-4.52868 -2.25557,-0.68939 -5.55555,-1.69642 -7.33329,-2.23785 -3.60471,-1.09784 -4.4749,-1.55833 -4.86028,-2.57193 -0.31238,-0.82163 -0.25416,-1.14843 1.11119,-6.23745 0.57784,-2.1538 1.12149,-4.71364 1.20809,-5.68854 0.0866,-0.97489 0.25177,-1.95742 0.36705,-2.18338 0.11527,-0.22596 0.84305,-0.74891 1.61727,-1.16211 0.77422,-0.4132 1.67557,-0.99322 2.00299,-1.28893 0.60782,-0.54895 0.78536,-1.35506 0.35678,-1.61994 -0.43104,-0.2664 -2.04558,-2.90236 -2.51685,-4.109118 -0.56582,-1.448858 -0.58561,-3.808013 -0.0436,-5.193212 0.52735,-1.347663 2.07927,-6.523157 2.80999,-9.371079 0.31678,-1.234622 0.77131,-2.466146 1.01007,-2.73672 0.23875,-0.270573 1.12671,-0.841875 1.97324,-1.269558 0.84652,-0.427686 1.49224,-0.918311 1.43491,-1.090279 -0.0573,-0.171969 -0.86645,-0.434105 -1.79806,-0.582525 -2.28938,-0.364734 -2.43301,-0.659334 -2.25999,-4.635479 0.25679,-5.901606 0.67441,-11.671634 0.86735,-11.98381 0.10737,-0.173725 0.26463,-1.983515 0.34947,-4.021756 0.13579,-3.262192 0.23081,-3.841923 0.79361,-4.842061 0.84441,-1.500558 2.51891,-2.569647 4.84858,-3.095582 2.82003,-0.636638 6.21448,-1.696902 7.78088,-2.430375 0.76179,-0.356708 1.74177,-0.750861 2.17774,-0.875896 0.98798,-0.283349 2.41454,0.08701 3.05313,0.792632 0.26273,0.290225 0.74991,0.527682 1.0827,0.527682 0.49546,0 0.66961,-0.227681 0.9613,-1.256771 l 0.35623,-1.256771 1.57738,-0.04843 c 0.86756,-0.02663 2.11316,-0.123847 2.76801,-0.216027 1.3464,-0.189528 15.807756,2.130179 18.785416,3.013316 5.73758,1.701702 6.66869,2.218001 7.12569,3.951182 0.14109,0.53508 0.63866,3.532716 1.10571,6.661414 1.41952,9.509205 1.15925,18.252114 -0.71751,24.102237 -0.49462,1.541804 -0.89931,2.889536 -0.89931,2.994964 0,0.105429 0.26742,0.153638 0.59428,0.107138 0.79394,-0.112953 1.32138,-1.295371 2.49335,-5.589659 1.61092,-5.902692 1.67672,-6.361681 1.90362,-13.280305 0.21629,-6.595158 0.21932,-6.620013 1.03048,-8.463743 0.44745,-1.017038 1.07789,-2.024679 1.40098,-2.239201 0.54381,-0.361079 0.75641,-0.302356 2.86314,0.790826 1.58551,0.822722 2.84653,1.742588 4.15778,3.032952 1.6385,1.612392 1.99145,2.137573 2.72728,4.058061 0.46486,1.213288 0.98212,2.425206 1.14945,2.693151 0.40466,0.647964 1.34642,1.053996 2.44466,1.053996 1.82043,0 1.93266,0.09025 6.08659,4.894791 4.3165,4.992566 7.60008,10.562257 9.35901,15.875 2.17293,6.563235 3.24043,10.302945 3.10031,10.861195 -0.19808,0.78921 -1.56826,1.6185 -3.28105,1.98583 -2.54503,0.54581 -5.26163,-0.45971 -6.34004,-2.34671 l -0.50974,-0.89194 -0.16195,0.80974 c -0.0993,0.49671 0.0394,1.44005 0.35891,2.44018 1.09536,3.42878 0.54589,4.88969 -2.54283,6.76073 -1.03019,0.62406 -2.82432,2.01058 -3.98696,3.08117 -2.61134,2.40459 -7.60092,7.8224 -9.10886,9.89065 -0.61771,0.84722 -1.63143,2.22564 -2.25272,3.06314 -0.79302,1.06901 -1.22075,1.97565 -1.43548,3.04271 -0.50979,2.53335 -0.83594,3.04271 -2.48134,3.87521 -1.66478,0.8423 -2.38024,1.64513 -4.43666,4.97844 -0.77683,1.25919 -2.41135,3.45299 -3.63226,4.87513 -1.22091,1.42213 -2.74541,3.40564 -3.38778,4.40779 -1.07315,1.67422 -1.22583,1.80803 -1.8812,1.64871 -0.99743,-0.24248 -2.42222,-1.43503 -3.3591,-2.81156 -0.69324,-1.01858 -0.80557,-1.4429 -0.88713,-3.35116 l -0.0934,-2.18491 -0.76408,1.05478 c -1.30773,1.80527 -2.48579,1.76893 -5.68979,-0.17553 -1.8599,-1.12875 -3.1711,-1.75758 -8.812176,-4.22618 -1.34101,-0.58684 -1.46025,-0.59826 -1.91823,-0.1838 -0.68127,0.61654 -0.62953,0.80902 0.56606,2.10608 0.73555,0.79798 1.18871,1.62701 1.49859,2.74157 0.2443,0.87873 0.51397,1.5955 0.59925,1.59282 0.0853,-0.003 0.51225,-0.56721 0.94881,-1.25451 0.43656,-0.6873 1.00717,-1.29013 1.268026,-1.33961 0.43403,-0.0823 2.13319,0.80329 7.98926,4.16414 2.53732,1.45618 5.85034,4.63564 6.72972,6.4584 0.79253,1.64275 0.62324,3.09087 -0.62731,5.36597 -1.04509,1.9013 -1.28445,2.69494 -1.98587,6.58451 -0.57212,3.17259 -0.97854,3.981 -2.27341,4.52203 -1.0706,0.44732 -2.14665,0.44129 -5.14729,-0.0288 z"
       id="path161" />
  </g>
</svg>
