<?xml version="1.0" encoding="UTF-8" standalone="no"?>
<!-- Created with Inkscape (http://www.inkscape.org/) -->

<svg
   width="133.81302mm"
   height="132.29167mm"
   viewBox="0 0 133.81302 132.29167"
   version="1.1"
   id="svg2954"
   inkscape:version="1.1.1 (3bf5ae0d25, 2021-09-20)"
   sodipodi:docname="samedi-anti.svg"
   xmlns:inkscape="http://www.inkscape.org/namespaces/inkscape"
   xmlns:sodipodi="http://sodipodi.sourceforge.net/DTD/sodipodi-0.dtd"
   xmlns="http://www.w3.org/2000/svg"
   xmlns:svg="http://www.w3.org/2000/svg"
   xmlns:rdf="http://www.w3.org/1999/02/22-rdf-syntax-ns#"
   xmlns:cc="http://creativecommons.org/ns#"
   xmlns:dc="http://purl.org/dc/elements/1.1/">
  <defs
     id="defs2948" />
  <sodipodi:namedview
     id="base"
     pagecolor="#ffffff"
     bordercolor="#666666"
     borderopacity="1.0"
     inkscape:pageopacity="0.0"
     inkscape:pageshadow="2"
     inkscape:zoom="0.76657609"
     inkscape:cx="438.96491"
     inkscape:cy="226.98334"
     inkscape:document-units="mm"
     inkscape:current-layer="layer1"
     showgrid="false"
     fit-margin-top="0"
     fit-margin-left="0"
     fit-margin-right="0"
     fit-margin-bottom="0"
     inkscape:window-width="1920"
     inkscape:window-height="1017"
     inkscape:window-x="-8"
     inkscape:window-y="1072"
     inkscape:window-maximized="1"
     inkscape:pagecheckerboard="0" />
  <metadata
     id="metadata2951">
    <rdf:RDF>
      <cc:Work
         rdf:about="">
        <dc:format>image/svg+xml</dc:format>
        <dc:type
           rdf:resource="http://purl.org/dc/dcmitype/StillImage" />
      </cc:Work>
    </rdf:RDF>
  </metadata>
  <g
     inkscape:label="Layer 1"
     inkscape:groupmode="layer"
     id="layer1"
     transform="translate(-41.950638,-28.258927)">
    <path
       id="path2909"
       d="m 156.62899,141.12224 c -5.30489,-2.64848 -10.27641,-5.1091 -15.21883,-7.62264 -0.73025,-0.37042 -1.18004,-0.33602 -1.86002,0.14816 -2.11667,1.50019 -4.33652,2.85486 -6.46907,4.33388 -0.38629,0.26723 -0.76729,0.83344 -0.7911,1.28323 -0.09,1.68539 -0.889,2.86014 -2.36273,3.52425 -1.49489,0.67468 -2.89983,0.37306 -4.20687,-0.64294 -0.36513,-0.2831 -1.00013,-0.44979 -1.44727,-0.35454 -2.96863,0.62706 -5.90815,1.40229 -8.88471,1.98173 -0.84667,0.16404 -1.16946,0.50006 -1.41023,1.24089 -1.60073,4.93713 -3.23586,9.86367 -4.86304,14.79286 -0.0503,0.15346 -0.12171,0.29898 -0.30427,0.74348 -0.508,-1.5293 -0.92869,-2.78607 -1.34673,-4.04284 -1.27265,-3.84175 -2.52413,-7.68879 -3.84704,-11.51466 -0.15082,-0.43657 -0.64559,-0.97367 -1.06892,-1.06627 -3.516314,-0.75936 -7.053793,-1.42611 -10.829397,-2.16959 -0.711729,0.8599 -1.754187,1.81769 -3.384021,1.77271 -2.286,-0.0635 -4.09575,-1.83621 -3.8735,-4.0931 0.100542,-1.00277 -0.277812,-1.35467 -1.029229,-1.81504 -1.952625,-1.19063 -3.865562,-2.45534 -5.720292,-3.79413 -0.672041,-0.48419 -1.137708,-0.53446 -1.865312,-0.1614 -4.386792,2.25425 -8.797396,4.45559 -13.202708,6.6728 -0.420688,0.21166 -0.851959,0.40481 -1.584855,0.75141 1.026584,-2.0611 1.912938,-3.84439 2.80723,-5.62504 1.561041,-3.10356 3.145895,-6.19919 4.675187,-9.32127 0.169333,-0.34396 0.195792,-0.9525 0,-1.25148 -1.688042,-2.56911 -3.442229,-5.09588 -5.233458,-7.72054 -0.523875,-0.0291 -1.246188,0.0344 -1.912938,-0.12965 -1.476375,-0.36513 -2.473854,-1.30969 -2.862791,-2.80988 -0.386292,-1.4896 -0.05556,-2.8522 1.116541,-3.83645 0.658813,-0.55563 0.550334,-1.00277 0.381,-1.69598 -0.685271,-2.81782 -1.357312,-5.64092 -1.875896,-8.49048 -0.171979,-0.941918 -0.545041,-1.322918 -1.389062,-1.598085 -4.852459,-1.574271 -9.689042,-3.198812 -14.814021,-4.900083 0.616479,-0.227542 0.965729,-0.370417 1.322917,-0.489479 4.513791,-1.500188 9.022291,-3.01625 13.549312,-4.47675 0.828146,-0.267229 1.092729,-0.672042 1.240896,-1.547813 0.584729,-3.415771 1.328208,-6.802437 2.042583,-10.355791 -2.132541,-2.01348 -2.674937,-3.598334 -1.709208,-5.445125 0.923396,-1.764771 2.659062,-2.428875 5.042958,-1.894417 1.172104,-1.817688 2.354792,-3.653896 3.537479,-5.490104 0.119063,-0.185209 0.214313,-0.402167 0.378355,-0.53975 2.076979,-1.74625 1.690687,-3.518958 0.468312,-5.68325 -2.177521,-3.847042 -4.048125,-7.871354 -6.212417,-12.147021 2.899834,1.452562 5.479521,2.738437 8.053917,4.03225 2.164292,1.087437 4.336521,2.159 6.479646,3.288771 0.619125,0.325437 1.026583,0.314854 1.632479,-0.108479 1.979083,-1.389063 4.050771,-2.64848 6.043083,-4.021667 0.333375,-0.230188 0.632355,-0.791104 0.624417,-1.193271 -0.04233,-2.005542 0.732896,-3.413125 2.418292,-4.132792 1.550458,-0.661458 3.225271,-0.20902 4.569354,1.11125 0.280458,0.275167 0.886354,0.420688 1.285875,0.343959 3.4925,-0.690563 6.977062,-1.412875 10.443102,-2.217209 0.46038,-0.105833 1.01071,-0.648229 1.16946,-1.108604 1.44727,-4.153958 2.81517,-8.334375 4.20952,-12.5095 0.0635,-0.187854 0.13229,-0.373062 0.30692,-0.867833 1.2065,3.624792 2.30716,6.940021 3.41577,10.252604 0.44714,1.3335 0.54769,3.063875 1.4605,3.881438 0.88635,0.796395 2.62202,0.619125 3.97139,0.931333 2.1008,0.489479 4.18307,1.050396 6.28386,1.531937 0.35454,0.08202 0.89694,0.05027 1.13506,-0.166687 1.84415,-1.680104 3.38402,-2.071688 5.09058,-1.187979 1.57163,0.812271 2.24102,2.397125 1.9685,4.505854 2.85486,1.987021 5.64621,3.960812 8.48519,5.865812 0.28311,0.1905 0.90752,0.08996 1.27,-0.08731 4.18571,-2.069042 8.35025,-4.177771 12.52009,-6.275917 0.29633,-0.148166 0.59531,-0.291041 1.18004,-0.576791 -1.14829,2.307166 -2.15371,4.339166 -3.17236,6.363229 -1.2647,2.513541 -2.56645,5.011208 -3.78354,7.548562 -0.17462,0.362479 -0.12435,1.008063 0.0926,1.352021 1.35466,2.159 2.82046,4.251854 4.17512,6.4135 0.381,0.608542 0.6985,0.801688 1.43934,0.709083 1.88912,-0.235479 3.44222,0.719667 4.15131,2.370667 0.69056,1.608667 0.20373,3.309938 -1.20915,4.654021 -0.28575,0.269875 -0.46302,0.878417 -0.38629,1.267354 0.635,3.140604 1.38113,6.260042 2.0029,9.403292 0.16668,0.844021 0.48154,1.264708 1.31498,1.531937 4.78102,1.531938 9.54087,3.124729 14.30866,4.701646 0.32015,0.105833 0.62706,0.243417 1.20121,0.468313 -5.33929,1.780645 -10.40871,3.503083 -15.50458,5.140854 -0.94192,0.301625 -1.24884,0.73025 -1.42611,1.70127 -0.51329,2.80723 -1.19591,5.588 -1.89177,8.35819 -0.15875,0.62971 -0.16139,0.98954 0.34925,1.46844 1.27529,1.19856 1.67481,2.70668 0.95515,4.33652 -0.72231,1.63777 -2.01613,2.46856 -3.86821,2.4712 -0.44185,0 -1.03452,0.37307 -1.29381,0.75142 -1.39171,2.032 -2.65113,4.15396 -4.06665,6.16744 -0.43921,0.62442 -0.41539,1.016 -0.10319,1.62983 2.39448,4.70429 4.75721,9.42711 7.12788,14.14463 0.14817,0.30691 0.28839,0.61383 0.58737,1.2356 z"
       inkscape:connector-curvature="0"
       sodipodi:nodetypes="cccccccccccccccccccccccccccccccccccccccccccccccccccccccccccccccccccccccccccccccccccccccccc"
       style="stroke-width:0.26458332" />
    <path
       style="fill:#ffffff;fill-opacity:1;stroke:none;stroke-width:1.31104;stroke-miterlimit:4;stroke-dasharray:none;stroke-opacity:1"
       d="m 117.58616,138.83607 c -0.21324,-0.0914 -0.61868,-0.54971 -0.90098,-1.01835 -0.44724,-0.74246 -1.16272,-1.43459 -1.30753,-1.2649 -0.0267,0.0312 -0.22461,0.41727 -0.43986,0.85779 -0.44133,0.90322 -0.61404,1.06132 -1.16353,1.06521 -0.298,0.002 -0.46972,-0.19885 -0.75819,-0.88724 -0.42665,-1.0181 -0.72747,-1.11623 -1.10778,-0.36123 -0.36,0.71465 -0.75184,0.89522 -1.94284,0.89522 -3.86191,0 -11.150159,-1.58095 -16.14652,-3.50247 -1.39997,-0.5384 -3.676693,-1.37663 -5.059391,-1.86274 -1.382695,-0.48611 -2.969279,-1.16046 -3.52574,-1.49855 -1.127244,-0.68485 -3.507836,-2.48504 -3.711449,-2.80655 -0.07227,-0.11412 -0.250654,-0.6809 -0.396386,-1.25951 -0.318287,-1.26366 -0.614577,-1.51476 -1.430106,-1.21203 -1.171287,0.43481 -2.238696,0.17694 -2.852435,-0.68906 -0.302081,-0.42627 -1.920146,-1.49344 -2.693894,-1.7767 -0.452086,-0.16551 -1.198932,-0.83572 -2.427308,-2.17823 -0.975867,-1.06653 -2.143609,-2.30343 -2.594973,-2.74869 -1.258681,-1.24165 -1.599243,-2.11259 -1.607363,-4.11063 -0.0058,-1.44709 -0.05137,-1.69718 -0.349774,-1.9219 -0.188658,-0.1421 -0.499061,-0.21473 -0.68978,-0.16141 -0.190714,0.0534 -0.749238,0.14743 -1.24116,0.20911 -0.868894,0.10896 -0.90234,0.0964 -1.172537,-0.43999 -0.622206,-1.23522 -1.008924,-3.57831 -1.003251,-6.07861 0.0058,-2.4722 0.07135,-3.06827 0.824377,-7.475536 0.63491,-3.7159 0.688428,-3.880553 1.369728,-4.214084 0.900699,-0.440925 1.344598,-0.213601 2.347794,1.20234 0.491176,0.693252 1.348459,1.714572 1.905089,2.269604 0.868234,0.86573 1.029528,1.12975 1.135102,1.85815 0.06914,0.476976 0.04227,1.175876 -0.06141,1.594956 -0.130698,0.5286 -0.130398,0.81281 0.0013,0.97537 0.285563,0.35323 0.544853,0.27746 1.042339,-0.30456 0.563977,-0.65979 1.310116,-0.71463 1.816451,-0.13348 0.577463,0.66276 5.313585,7.5954 6.209118,9.08877 0.458703,0.76494 1.147684,1.64597 1.531061,1.95788 1.622952,1.3204 1.853948,1.63119 1.853948,2.49447 0,1.10354 0.291907,1.37851 1.199433,1.12983 0.974167,-0.26692 1.667191,0.1115 2.717471,1.48388 1.010661,1.32062 2.892669,2.81064 5.19183,4.11049 1.872022,1.05836 2.381117,1.61356 3.222149,3.51391 1.063553,2.40317 1.749726,2.78546 2.232958,1.24407 0.541383,-1.72692 1.350576,-1.98504 2.947439,-0.94029 0.52446,0.34315 1.46477,0.78029 2.08958,0.97143 1.76276,0.53928 10.00203,1.7186 14.29474,2.04605 2.30322,0.1757 3.08003,0.63162 4.54594,2.66811 l 0.38437,0.53397 0.005,-0.62296 c 0.007,-0.81879 0.5034,-1.80819 1.04549,-2.08626 0.2384,-0.12229 0.80573,-0.22352 1.26072,-0.22496 0.58231,-0.002 1.0187,-0.13145 1.47373,-0.43765 0.35554,-0.23926 1.64747,-0.88168 2.87093,-1.42757 1.22348,-0.54592 2.65538,-1.29127 3.18203,-1.65636 2.02142,-1.40135 2.26099,-1.49115 3.81731,-1.43083 0.78232,0.0304 1.51306,0.1488 1.62468,0.26345 0.15495,0.15911 -0.003,0.57975 -0.66551,1.77989 -1.1109,2.01037 -1.97704,4.27003 -2.56767,6.69869 -0.52125,2.14323 -0.86126,2.77674 -1.94645,3.62643 -1.39122,1.08934 -2.56721,1.33274 -7.1426,1.47836 -3.08751,0.0983 -4.32638,0.20568 -5.11468,0.44345 -1.43237,0.43203 -1.67629,0.46336 -2.12151,0.27245 z m -5.59384,-12.19831 c -4.21313,-0.67766 -4.72858,-0.92893 -4.65164,-2.26756 0.0298,-0.52 -0.0458,-0.77072 -0.28772,-0.95226 -0.46354,-0.34796 -0.51573,-0.329 -1.28198,0.46554 -0.96709,1.00276 -1.69071,1.01279 -4.0947,0.0568 -6.307285,-2.50831 -10.115458,-4.32547 -11.86887,-5.66348 -0.615654,-0.46981 -1.551901,-1.05562 -2.080549,-1.30181 -0.528651,-0.2462 -1.014213,-0.53019 -1.079035,-0.63109 -0.0648,-0.10094 -0.07546,-0.55093 -0.02366,-1.00006 0.112036,-0.97112 -0.204409,-1.40559 -0.789604,-1.08407 -0.190546,0.10468 -0.642179,0.19033 -1.003638,0.19033 -0.596864,0 -0.795064,-0.14356 -2.158933,-1.56383 -2.653576,-2.76329 -3.098044,-3.98696 -2.147558,-5.91252 0.238623,-0.48344 0.590548,-1.56881 0.782056,-2.41198 0.629328,-2.77078 1.659622,-4.43997 3.192964,-5.172936 1.072915,-0.51288 1.944057,-0.52853 3.959162,-0.0711 1.935427,0.43935 2.861209,0.863646 3.798951,1.741146 0.653718,0.61173 0.832415,0.69113 1.395218,0.61991 1.266542,-0.16027 2.818407,0.4026 5.357983,1.94335 1.042533,0.63252 3.284643,1.685 4.269423,2.00416 0.3621,0.11734 0.37776,0.0927 0.21674,-0.34213 -0.22292,-0.60187 -0.22238,-1.71436 8.7e-4,-2.31775 0.096,-0.25937 0.99339,-1.34355 1.99409,-2.40927 3.09898,-3.300388 4.34506,-5.732149 4.76709,-9.30308 0.10208,-0.863741 0.4045,-2.186189 0.67206,-2.938784 0.26755,-0.752584 0.58353,-1.807978 0.70218,-2.345312 0.11867,-0.537341 0.25833,-1.137173 0.31035,-1.33296 l 0.0946,-0.355979 -0.38852,0.355979 c -0.21369,0.195787 -0.56644,0.716412 -0.78384,1.156928 -0.71334,1.44535 -2.53056,6.479147 -2.63444,7.297533 -0.13271,1.045747 -0.30474,1.363993 -0.9112,1.685948 -0.32457,0.172309 -0.57338,0.501489 -0.70768,0.936282 -0.5107,1.653327 -3.698,6.810775 -4.54728,7.358105 -0.90703,0.58452 -1.81705,0.39122 -2.93619,-0.62366 -1.233294,-1.11839 -3.144221,-2.03061 -6.381986,-3.046496 -1.478053,-0.46377 -3.640502,-1.1412 -4.805438,-1.50543 -2.362133,-0.738539 -2.932361,-1.048313 -3.184898,-1.730181 -0.2047,-0.552719 -0.166549,-0.772568 0.728152,-4.196007 0.378655,-1.448893 0.734904,-3.170928 0.791652,-3.826755 0.05675,-0.655826 0.164983,-1.316788 0.240524,-1.468795 0.07553,-0.152006 0.552442,-0.503799 1.059782,-0.781767 0.50734,-0.277966 1.097986,-0.668147 1.312542,-0.867079 0.398299,-0.369279 0.514638,-0.911562 0.233794,-1.089751 -0.282456,-0.179217 -1.34045,-1.95246 -1.649269,-2.764265 -0.370776,-0.974654 -0.383744,-2.56169 -0.02857,-3.493531 0.345567,-0.906592 1.362525,-4.388219 1.841361,-6.304054 0.207583,-0.830546 0.505432,-1.65901 0.66189,-1.841027 0.15645,-0.182018 0.738323,-0.566341 1.293045,-0.85405 0.554718,-0.287709 0.977851,-0.617758 0.940284,-0.733443 -0.03756,-0.115686 -0.567777,-0.29203 -1.178253,-0.391873 -1.500209,-0.245362 -1.594327,-0.443543 -1.48095,-3.118348 0.168272,-3.970089 0.441933,-7.851663 0.568365,-8.061668 0.07036,-0.116866 0.173411,-1.334336 0.229006,-2.705487 0.08899,-2.194522 0.151247,-2.584514 0.520045,-3.25732 0.553335,-1.009445 1.650618,-1.728635 3.177231,-2.082438 1.84794,-0.428274 4.07229,-1.141529 5.098741,-1.634947 0.499193,-0.239961 1.14135,-0.505112 1.42704,-0.589226 0.64741,-0.190612 1.58223,0.05854 2.00071,0.533214 0.17216,0.195239 0.4914,0.35498 0.70946,0.35498 0.32468,0 0.43881,-0.153165 0.62995,-0.845446 l 0.23343,-0.845448 1.03365,-0.03259 c 0.56849,-0.01792 1.38475,-0.08331 1.81386,-0.145323 0.88227,-0.127498 10.35867,1.432998 12.30991,2.027095 3.75977,1.14476 4.36993,1.492079 4.66937,2.658013 0.0926,0.359957 0.41851,2.376507 0.72459,4.481223 0.9302,6.396967 0.75964,12.278437 -0.47019,16.213892 -0.32412,1.037192 -0.58932,1.94383 -0.58932,2.014751 0,0.07094 0.17524,0.103356 0.38944,0.07208 0.52026,-0.07598 0.86588,-0.871413 1.63386,-3.760237 1.05563,-3.97082 1.09874,-4.279587 1.24742,-8.933837 0.14174,-4.436651 0.14373,-4.45337 0.67527,-5.693672 0.29321,-0.684175 0.70635,-1.362027 0.91805,-1.50634 0.35637,-0.242901 0.49567,-0.203399 1.87621,0.531998 1.03896,0.553456 1.86529,1.172264 2.72453,2.040308 1.0737,1.084678 1.30499,1.437975 1.78717,2.729912 0.30461,0.816195 0.64357,1.631467 0.75322,1.811719 0.26516,0.435891 0.8823,0.709036 1.60197,0.709036 1.19291,0 1.26647,0.06072 3.98848,3.292791 2.82857,3.358563 4.98027,7.10537 6.13288,10.679321 1.4239,4.415176 2.12343,6.930927 2.0316,7.306469 -0.12979,0.530917 -1.02766,1.088788 -2.15003,1.335893 -1.66775,0.367172 -3.4479,-0.309254 -4.15457,-1.578659 l -0.33404,-0.600015 -0.10611,0.544719 c -0.065,0.334147 0.0258,0.968741 0.23518,1.641536 0.71777,2.306588 0.35771,3.289366 -1.66629,4.548034 -0.67509,0.419818 -1.85076,1.352543 -2.61261,2.072742 -1.7112,1.617608 -4.98083,5.262231 -5.96897,6.653564 -0.40478,0.56994 -1.06907,1.497219 -1.47618,2.060619 -0.51967,0.71914 -0.79995,1.32905 -0.94066,2.046876 -0.33407,1.70421 -0.54778,2.04685 -1.626,2.6069 -1.09091,0.56663 -1.55975,1.10671 -2.9073,3.34906 -0.50906,0.84707 -1.58013,2.32287 -2.38018,3.27956 -0.80006,0.95669 -1.79904,2.29103 -2.21999,2.96518 -0.70323,1.12627 -0.80326,1.21629 -1.23272,1.10911 -0.65363,-0.16311 -1.58728,-0.96536 -2.20119,-1.89137 -0.45428,-0.68522 -0.52788,-0.97065 -0.58133,-2.25437 l -0.0611,-1.46983 -0.50071,0.70958 c -0.85694,1.21443 -1.62891,1.18998 -3.72845,-0.1181 -1.21878,-0.75931 -2.078,-1.18234 -5.77455,-2.843 -0.87876,-0.39478 -0.95688,-0.40245 -1.25698,-0.12363 -0.44644,0.41475 -0.41255,0.54422 0.3709,1.41678 0.48201,0.5368 0.77895,1.09451 0.98203,1.84429 0.16008,0.59113 0.3368,1.07332 0.39268,1.07151 0.0559,-0.002 0.33567,-0.38157 0.62174,-0.84393 0.28608,-0.46234 0.65999,-0.86788 0.83094,-0.90117 0.28441,-0.0554 1.39785,0.54039 5.23528,2.80127 1.66269,0.9796 3.83368,3.11846 4.40993,4.34465 0.51934,1.10511 0.4084,2.07929 -0.41107,3.60975 -0.68484,1.27904 -0.84168,1.81294 -1.30133,4.42951 -0.37488,2.13424 -0.64122,2.67807 -1.48975,3.04202 -0.70154,0.30092 -1.40667,0.29686 -3.37296,-0.0193 z"
       id="path161" />
  </g>
</svg>
