<?xml version="1.0" encoding="utf-8"?>
<!-- Generator: Adobe Illustrator 24.3.0, SVG Export Plug-In . SVG Version: 6.00 Build 0)  -->
<svg version="1.1" id="Layer_1" xmlns="http://www.w3.org/2000/svg" xmlns:xlink="http://www.w3.org/1999/xlink" x="0px" y="0px"
	 viewBox="0 0 612 792" style="enable-background:new 0 0 612 792;" xml:space="preserve">
<style type="text/css">
	.st0{fill:#FFFFFF;}
</style>
<g>
	<path class="st0" d="M124.74,414.04c0-138.01,0-276.03,0-414.04C245.5,0,366.25,0,487,0c0,263.48,0,526.96,0,790.44
		c-120.75,0-241.5,0-362.26,0c0-125.23,0-250.45,0-375.68c6.84,4.92,13.58,9.98,20.57,14.67c2.04,1.37,4.73,2.05,7.21,2.45
		c5.8,0.92,11.76,1.03,17.47,2.32c5.49,1.24,7.39,4.39,7.52,10.03c0.06,2.93,0.01,5.86,0.01,7.91c4.32-2.7,8.74-6.03,13.63-8.41
		c20.36-9.94,41.79-16.68,64.22-19.95c5.18-0.75,10.59-0.74,15.82-0.23c7.18,0.7,9.34,5.25,5.69,11.42
		c-1.82,3.08-4.25,5.82-6.51,8.63c-1.23,1.53-2.69,2.89-4.14,4.43c5.59,2.3,8.28,4.41,9.59,9.98c1.71,7.22,3.13,14.65,3.42,22.04
		c0.78,20.19-1.47,40.27-4.49,60.18c-6.22,41-13.07,81.9-19.48,122.88c-4.84,30.97-9.77,61.95-9.86,93.44
		c-0.03,9.33-0.65,18.66-1.01,28.44c0.42-0.7,0.69-1.06,0.87-1.47c6.14-14.07,16.79-23.34,30.96-28.59
		c15.55-5.76,31.58-6.34,47.71-3.12c19.34,3.86,34.15,13.9,42.38,32.43c0.05,0.12,0.36,0.13,0.64,0.22c-0.28-4.36-0.59-8.68-0.83-13
		c-1.07-19.38-0.9-38.92-3.43-58.1c-5.17-39.07-11.72-77.96-17.83-116.9c-5.42-34.54-11.66-69-12.85-104.04
		c-0.33-9.81,0.64-19.74,1.86-29.5c0.82-6.52,3.48-12.61,11.13-14.85c-1.69-1.77-3.24-3.12-4.46-4.72c-2.46-3.25-5.13-6.44-7-10.02
		c-2.42-4.65-0.81-8.11,4.29-9.27c3.7-0.84,7.74-1.45,11.42-0.84c11.85,1.97,23.83,3.75,35.33,7.08
		c17.48,5.05,34.98,10.51,49.38,22.59c-0.13-2.24-0.31-4.52-0.37-6.81c-0.22-7.69,2.05-11.02,9.55-12.51
		c5.16-1.02,10.51-1.11,15.77-1.64c1.42-0.14,3.17,0.1,4.2-0.63c7.75-5.46,15.36-11.11,23.26-16.88
		c-7.24-5.47-14.08-10.8-21.12-15.85c-1.62-1.16-3.85-1.73-5.88-2.02c-5.94-0.86-12.02-1-17.86-2.26
		c-5.77-1.25-7.83-4.57-7.93-10.51c-0.05-2.78-0.01-5.56-0.01-7.59c-4.14,2.61-8.38,5.79-13.04,8.12
		c-17.86,8.95-36.76,14.95-56.32,18.85c-8.27,1.65-16.61,3.2-25.08,1.52c-6.38-1.27-8.52-5.28-5.09-10.75
		c2.97-4.75,6.61-9.23,10.64-13.13c23.52-22.74,43.89-48.04,61.6-75.5c22.95-35.59,41.13-73.34,50.68-114.85
		c5.04-21.89,7.47-44.04,4.36-66.43c-5.27-37.96-24.16-67.91-54.57-90.74c-52.27-39.25-129.1-43.5-186.42-10.4
		c-32.41,18.72-55.47,45.2-66.36,81.45c-7.84,26.09-6.49,52.46-1.35,78.79c6.6,33.81,19.55,65.26,36.13,95.27
		c20.95,37.91,46.58,72.29,77.75,102.47c3.94,3.82,7.53,8.19,10.46,12.82c3.59,5.67,1.54,9.93-5.06,10.93
		c-4.35,0.66-8.92,0.81-13.29,0.29c-23.4-2.79-45.59-9.87-66.81-19.97c-5.11-2.43-9.73-5.88-14.29-8.68c0,1.69-0.01,4.17,0,6.65
		c0.03,7-2.01,10.17-8.81,11.63c-5.38,1.15-10.99,1.18-16.44,2.02c-2.36,0.36-4.92,1.04-6.85,2.37
		C138.41,403.79,131.62,408.98,124.74,414.04z"/>
	<path d="M124.74,414.04c6.88-5.06,13.66-10.25,20.68-15.11c1.92-1.33,4.48-2.01,6.85-2.37c5.46-0.84,11.07-0.86,16.44-2.02
		c6.79-1.46,8.84-4.63,8.81-11.63c-0.01-2.48,0-4.95,0-6.65c4.56,2.8,9.18,6.25,14.29,8.68c21.22,10.1,43.41,17.18,66.81,19.97
		c4.36,0.52,8.93,0.37,13.29-0.29c6.6-1.01,8.65-5.26,5.06-10.93c-2.93-4.63-6.52-9.01-10.46-12.82
		c-31.17-30.18-56.81-64.55-77.75-102.47c-16.58-30.01-29.53-61.46-36.13-95.27c-5.15-26.34-6.5-52.7,1.35-78.79
		c10.9-36.25,33.95-62.73,66.36-81.45c57.32-33.1,134.15-28.84,186.42,10.4c30.41,22.83,49.3,52.78,54.57,90.74
		c3.11,22.39,0.68,44.55-4.36,66.43c-9.55,41.51-27.74,79.26-50.68,114.85c-17.7,27.46-38.08,52.76-61.6,75.5
		c-4.03,3.89-7.67,8.38-10.64,13.13c-3.43,5.47-1.29,9.48,5.09,10.75c8.47,1.68,16.81,0.13,25.08-1.52
		c19.56-3.9,38.46-9.9,56.32-18.85c4.66-2.34,8.9-5.52,13.04-8.12c0,2.03-0.04,4.81,0.01,7.59c0.1,5.94,2.16,9.26,7.93,10.51
		c5.84,1.26,11.92,1.4,17.86,2.26c2.03,0.29,4.26,0.85,5.88,2.02c7.04,5.06,13.88,10.38,21.12,15.85
		c-7.9,5.77-15.51,11.43-23.26,16.88c-1.04,0.73-2.78,0.49-4.2,0.63c-5.26,0.53-10.61,0.61-15.77,1.64
		c-7.5,1.49-9.77,4.82-9.55,12.51c0.06,2.28,0.25,4.56,0.37,6.81c-14.4-12.09-31.91-17.54-49.38-22.59
		c-11.5-3.33-23.48-5.11-35.33-7.08c-3.67-0.61-7.72,0-11.42,0.84c-5.1,1.16-6.71,4.62-4.29,9.27c1.86,3.59,4.54,6.77,7,10.02
		c1.21,1.6,2.76,2.95,4.46,4.72c-7.65,2.23-10.31,8.32-11.13,14.85c-1.23,9.77-2.19,19.69-1.86,29.5
		c1.19,35.04,7.43,69.49,12.85,104.04c6.11,38.94,12.67,77.83,17.83,116.9c2.54,19.18,2.36,38.72,3.43,58.1
		c0.24,4.32,0.55,8.64,0.83,13c-0.27-0.09-0.58-0.1-0.64-0.22c-8.23-18.53-23.05-28.57-42.38-32.43
		c-16.13-3.22-32.16-2.64-47.71,3.12c-14.18,5.25-24.83,14.51-30.96,28.59c-0.18,0.41-0.45,0.77-0.87,1.47
		c0.37-9.78,0.99-19.11,1.01-28.44c0.08-31.49,5.01-62.47,9.86-93.44c6.41-40.97,13.25-81.88,19.48-122.88
		c3.02-19.91,5.28-39.98,4.49-60.18c-0.29-7.39-1.71-14.82-3.42-22.04c-1.32-5.58-4-7.69-9.59-9.98c1.45-1.54,2.91-2.89,4.14-4.43
		c2.26-2.81,4.69-5.55,6.51-8.63c3.65-6.17,1.49-10.72-5.69-11.42c-5.22-0.51-10.63-0.53-15.82,0.23
		c-22.43,3.26-43.86,10-64.22,19.95c-4.88,2.38-9.3,5.71-13.63,8.41c0-2.05,0.05-4.98-0.01-7.91c-0.12-5.64-2.02-8.78-7.52-10.03
		c-5.7-1.29-11.67-1.39-17.47-2.32c-2.49-0.4-5.17-1.08-7.21-2.45c-6.99-4.69-13.73-9.75-20.57-14.67
		C124.74,414.52,124.74,414.28,124.74,414.04z M344.04,250c-3.19,5.45-6.93,10.89-9.7,16.79c-9.01,19.19-15.31,39.31-18.38,60.3
		c-0.88,6-0.79,12.29-0.09,18.32c0.67,5.83,4.87,7.66,10.03,4.86c3.35-1.82,6.54-4.13,9.34-6.72
		c31.77-29.39,56.29-63.94,73.22-103.81c11.9-28.02,18.46-57.23,19.97-87.67c1.59-32.05-10.31-58.72-32.03-81.32
		c-21.66-22.55-48.71-34.08-79.67-36.33c-33.96-2.47-65.23,5.12-91.82,27.28c-23.54,19.62-38.28,44.52-41.12,75.44
		c-1.5,16.29,0.49,32.55,3.55,48.58c11.2,58.73,39.67,108.15,81.52,150.2c5.23,5.25,11.02,10.1,17.15,14.25
		c4.88,3.3,9.14,1.22,10.06-4.65c0.79-5.05,1.07-10.41,0.29-15.44c-4.41-28.59-12.19-56.04-28.79-80.27
		c1.84,0.14,3.99,0.3,6.15,0.47c7.69,0.61,11.45-1.8,13-9.34c1.06-5.16,1.15-10.51,1.71-15.77c0.17-1.65-0.11-3.67,0.73-4.88
		c5.34-7.67,10.94-15.17,16.6-22.92c5.57,7.38,10.94,14.34,16.11,21.45c1.04,1.44,1.61,3.41,1.85,5.21
		c0.7,5.49,0.72,11.1,1.78,16.51c1.51,7.73,4.9,10.04,12.71,9.78C340.41,250.24,342.63,250.07,344.04,250z"/>
	<path class="st0" d="M344.04,250c-1.41,0.08-3.62,0.24-5.84,0.32c-7.81,0.26-11.19-2.05-12.71-9.78
		c-1.06-5.41-1.07-11.02-1.78-16.51c-0.23-1.8-0.8-3.77-1.85-5.21c-5.16-7.12-10.54-14.08-16.11-21.45
		c-5.66,7.76-11.26,15.25-16.6,22.92c-0.84,1.21-0.56,3.23-0.73,4.88c-0.55,5.26-0.65,10.62-1.71,15.77
		c-1.55,7.53-5.31,9.94-13,9.34c-2.15-0.17-4.31-0.33-6.15-0.47c16.6,24.23,24.38,51.67,28.79,80.27c0.78,5.03,0.5,10.39-0.29,15.44
		c-0.92,5.87-5.18,7.95-10.06,4.65c-6.13-4.15-11.92-9-17.15-14.25c-41.86-42.05-70.32-91.48-81.52-150.2
		c-3.06-16.03-5.05-32.3-3.55-48.58c2.85-30.92,17.58-55.82,41.12-75.44c26.59-22.16,57.86-29.74,91.82-27.28
		c30.96,2.25,58.01,13.78,79.67,36.33c21.72,22.61,33.62,49.27,32.03,81.32c-1.51,30.44-8.08,59.66-19.97,87.67
		c-16.93,39.88-41.45,74.42-73.22,103.81c-2.8,2.59-5.99,4.91-9.34,6.72c-5.17,2.81-9.36,0.98-10.03-4.86
		c-0.7-6.03-0.79-12.32,0.09-18.32c3.07-21,9.37-41.11,18.38-60.3C337.1,260.88,340.85,255.45,344.04,250z"/>
</g>
</svg>
