<?xml version="1.0" encoding="utf-8"?>
<!-- Generator: Adobe Illustrator 24.3.0, SVG Export Plug-In . SVG Version: 6.00 Build 0)  -->
<svg version="1.1" id="Layer_1" xmlns="http://www.w3.org/2000/svg" xmlns:xlink="http://www.w3.org/1999/xlink" x="0px" y="0px"
	 viewBox="0 0 612 792" style="enable-background:new 0 0 612 792;" xml:space="preserve">
<style type="text/css">
	.st0{fill:#FFFFFF;}
</style>
<g>
	<path class="st0" d="M305.65,0c67.28,0,134.56,0,201.84,0c0,264,0,528,0,792c-67.55,0-135.1,0-202.65,0
		c4.46-13.52,8.89-27.05,13.45-40.53c0.39-1.15,1.55-2.62,2.61-2.88c7.9-1.91,15.86-3.6,23.83-5.24c0.97-0.2,2.33,0,3.11,0.56
		c7.89,5.7,16.84,2.04,18.39-7.49c0.2-1.22,1.06-2.68,2.07-3.37c5.4-3.73,10.87-7.37,16.49-10.74c1.3-0.78,3.61-1.02,4.93-0.39
		c9.83,4.68,19.53,9.62,29.25,14.54c3.26,1.65,6.44,3.47,10.64,5.74c-0.77-1.73-1.01-2.32-1.29-2.88
		c-6.31-12.48-12.59-24.98-18.96-37.43c-0.97-1.89-1-3.14,0.36-5.02c3.62-4.99,6.77-10.31,10.26-15.41c0.6-0.88,1.87-1.65,2.93-1.82
		c4.43-0.71,8.58-1.98,10.23-6.6c1.56-4.36,1.41-8.63-2.12-12.39c-0.8-0.85-0.74-2.93-0.46-4.33c1.35-6.83,3.01-13.59,4.33-20.42
		c0.48-2.49,1.4-3.9,3.97-4.69c8.07-2.48,16.04-5.28,24.06-7.94c5.16-1.71,10.33-3.39,16.39-5.37c-2-0.79-3.05-1.26-4.13-1.62
		c-12.09-4-24.17-8.02-36.29-11.92c-2.14-0.69-3.07-1.58-3.5-4.03c-1.41-7.89-3.44-15.67-5-23.54c-0.25-1.24,0.34-3.05,1.18-4.05
		c3.28-3.86,4.34-8.02,2.3-12.7c-1.94-4.45-5.49-6.19-10.31-6.23c-1.44-0.01-3.29-1.31-4.21-2.57c-3.39-4.66-6.33-9.65-9.74-14.3
		c-1.58-2.15-1.7-3.8-0.49-6.16c5.41-10.53,10.63-21.15,15.9-31.75c0.44-0.88,0.7-1.84,1.27-3.37
		c-12.22,6.11-23.72,11.94-35.32,17.55c-1.21,0.58-3.37,0.42-4.51-0.3c-5.99-3.8-11.7-8.03-17.7-11.82
		c-1.81-1.14-2.65-2.08-2.65-4.3c0-4.68-2.14-8.41-6.55-10.18c-4.37-1.76-8.49-1.12-12.2,2.21c-1.03,0.93-3.11,1.38-4.5,1.08
		c-5.84-1.27-11.61-2.9-17.51-4.43c0-5.97,0-12.09,0-17.93c9.62,0,18.98-0.25,28.32,0.05c19.55,0.62,39.1,1.34,58.63,2.4
		c9.59,0.52,19.34,0.98,28.65,3.1c18.4,4.19,34.28,13.7,47.82,26.77c5.14,4.96,9.2,11.03,13.81,16.65c0.11-0.17,0.57-0.56,0.63-1
		c2.7-20.1,5-40.25,2.24-60.52c-0.7-5.17-0.95-10.54-4.54-15.15c-14.31-18.41-28.34-37.04-42.5-55.58c-1.57-2.05-3.26-4-4.9-6
		c-0.39,0.17-0.79,0.35-1.18,0.52c0.43,1.82,0.72,3.69,1.31,5.46c4.95,14.76,9.81,29.53,11.19,45.19
		c0.78,8.92-1.92,12.45-10.65,12.02c-14.54-0.72-29.12-1.45-43.58-3.07c-18.04-2.03-35.53-6.57-51.72-15.12
		c-17.3-9.13-30.12-22.12-33.18-42.3c-1.12-7.38-0.51-15.03-0.48-22.56c0-0.8,1.28-1.9,2.21-2.33c4.44-2.04,6.31-5.62,6.41-10.29
		c0.1-4.73-2.63-7.61-6.44-9.89c-1.01-0.61-2.16-1.99-2.2-3.05c-0.2-6.73-0.1-13.46-0.1-20.2c4.96-1.75,8.47-4.65,8.71-10.08
		c0.24-5.38-2.09-9.25-7.27-11.36c-0.79-0.32-1.35-2.12-1.38-3.25c-0.13-6.06-0.2-12.14,0.05-18.2c0.05-1.32,1.21-3.04,2.37-3.79
		c3.73-2.41,6.44-5.29,6.26-10.02c-0.18-4.65-2.07-8.19-6.58-10.16c-0.94-0.41-2.04-1.8-2.06-2.76c-0.18-6.99-0.09-14-0.09-21.02
		c5.69-2.06,9.05-5.73,8.71-11.81c-0.31-5.39-3.4-8.76-8.59-10.15c0-7.57,0-14.97,0-22.43c4.67-1.66,8.09-4.57,8.57-9.65
		c0.54-5.73-2-9.8-7.48-11.95c-0.55-0.22-1.13-1.2-1.14-1.83c-0.08-7.11-0.05-14.22-0.05-21.29c28.85-4.06,57.24-8.05,85.62-12.04
		c0.05-0.52,0.09-1.04,0.14-1.57c-20.42-6.4-40.84-12.79-62.09-19.45c17.25-5.96,33.7-11.65,51.18-17.69c-2.6-0.72-4-1.17-5.43-1.5
		c-21.98-5.1-43.97-10.14-65.91-15.37c-1.62-0.39-3.78-1.84-4.23-3.27c-3.63-11.37-6.87-22.87-10.29-34.31
		C311.3,18.46,308.46,9.24,305.65,0z"/>
	<path d="M305.65,0c2.81,9.24,5.65,18.46,8.41,27.71c3.42,11.44,6.67,22.94,10.29,34.31c0.45,1.42,2.61,2.88,4.23,3.27
		c21.95,5.23,43.94,10.27,65.91,15.37c1.43,0.33,2.83,0.78,5.43,1.5C382.45,88.21,366,93.9,348.75,99.86
		c21.25,6.66,41.67,13.05,62.09,19.45c-0.05,0.52-0.09,1.04-0.14,1.57c-28.38,3.99-56.77,7.99-85.62,12.04
		c0,7.07-0.03,14.18,0.05,21.29c0.01,0.63,0.59,1.62,1.14,1.83c5.48,2.14,8.03,6.22,7.48,11.95c-0.48,5.08-3.9,7.99-8.57,9.65
		c0,7.46,0,14.85,0,22.43c5.19,1.39,8.29,4.76,8.59,10.15c0.35,6.07-3.02,9.75-8.71,11.81c0,7.02-0.08,14.03,0.09,21.02
		c0.02,0.96,1.12,2.35,2.06,2.76c4.5,1.97,6.39,5.51,6.58,10.16c0.19,4.73-2.52,7.61-6.26,10.02c-1.16,0.75-2.32,2.47-2.37,3.79
		c-0.25,6.06-0.18,12.13-0.05,18.2c0.02,1.13,0.59,2.93,1.38,3.25c5.18,2.12,7.51,5.98,7.27,11.36c-0.24,5.43-3.75,8.34-8.71,10.08
		c0,6.74-0.1,13.47,0.1,20.2c0.03,1.06,1.18,2.45,2.2,3.05c3.81,2.28,6.54,5.16,6.44,9.89c-0.1,4.66-1.96,8.24-6.41,10.29
		c-0.93,0.43-2.21,1.53-2.21,2.33c-0.03,7.53-0.64,15.18,0.48,22.56c3.06,20.18,15.88,33.17,33.18,42.3
		c16.19,8.55,33.68,13.09,51.72,15.12c14.46,1.62,29.04,2.35,43.58,3.07c8.73,0.43,11.43-3.11,10.65-12.02
		c-1.37-15.66-6.24-30.43-11.19-45.19c-0.59-1.77-0.88-3.64-1.31-5.46c0.39-0.17,0.79-0.35,1.18-0.52c1.64,2,3.33,3.95,4.9,6
		c14.16,18.53,28.19,37.16,42.5,55.58c3.59,4.61,3.83,9.99,4.54,15.15c2.77,20.27,0.46,40.42-2.24,60.52
		c-0.06,0.44-0.52,0.83-0.63,1c-4.61-5.63-8.68-11.69-13.81-16.65c-13.54-13.07-29.42-22.58-47.82-26.77
		c-9.31-2.12-19.06-2.58-28.65-3.1c-19.53-1.06-39.08-1.78-58.63-2.4c-9.34-0.3-18.71-0.05-28.32-0.05c0,5.84,0,11.97,0,17.93
		c5.91,1.53,11.67,3.17,17.51,4.43c1.39,0.3,3.47-0.15,4.5-1.08c3.71-3.33,7.83-3.97,12.2-2.21c4.41,1.77,6.55,5.5,6.55,10.18
		c0,2.22,0.85,3.16,2.65,4.3c6,3.78,11.71,8.01,17.7,11.82c1.14,0.73,3.31,0.89,4.51,0.3c11.6-5.61,23.1-11.44,35.32-17.55
		c-0.57,1.53-0.84,2.49-1.27,3.37c-5.27,10.6-10.49,21.22-15.9,31.75c-1.21,2.36-1.08,4.01,0.49,6.16c3.4,4.65,6.34,9.64,9.74,14.3
		c0.92,1.26,2.77,2.56,4.21,2.57c4.82,0.04,8.37,1.78,10.31,6.23c2.04,4.69,0.98,8.85-2.3,12.7c-0.85,1-1.43,2.8-1.18,4.05
		c1.56,7.87,3.59,15.65,5,23.54c0.44,2.45,1.37,3.34,3.5,4.03c12.12,3.9,24.2,7.92,36.29,11.92c1.08,0.36,2.13,0.83,4.13,1.62
		c-6.06,1.98-11.23,3.66-16.39,5.37c-8.02,2.66-15.99,5.45-24.06,7.94c-2.57,0.79-3.49,2.21-3.97,4.69
		c-1.32,6.83-2.98,13.59-4.33,20.42c-0.28,1.39-0.34,3.48,0.46,4.33c3.53,3.76,3.68,8.03,2.12,12.39c-1.65,4.62-5.8,5.89-10.23,6.6
		c-1.06,0.17-2.33,0.93-2.93,1.82c-3.49,5.09-6.64,10.42-10.26,15.41c-1.37,1.88-1.33,3.13-0.36,5.02
		c6.38,12.45,12.66,24.94,18.96,37.43c0.28,0.56,0.52,1.15,1.29,2.88c-4.2-2.27-7.38-4.09-10.64-5.74
		c-9.71-4.92-19.42-9.86-29.25-14.54c-1.32-0.63-3.63-0.38-4.93,0.39c-5.63,3.37-11.09,7.02-16.49,10.74
		c-1.01,0.69-1.87,2.15-2.07,3.37c-1.54,9.53-10.49,13.19-18.39,7.49c-0.78-0.56-2.14-0.76-3.11-0.56
		c-7.97,1.64-15.93,3.32-23.83,5.24c-1.06,0.26-2.22,1.73-2.61,2.88c-4.56,13.48-8.99,27.01-13.45,40.53c-0.27,0-0.54,0-0.81,0
		c-0.31-1.3-0.53-2.63-0.95-3.89c-3.93-11.86-7.99-23.68-11.78-35.59c-0.87-2.72-2.39-3.61-4.97-4.1
		c-7.6-1.47-15.12-3.29-22.72-4.77c-1.28-0.25-3.13,0.05-4.06,0.86c-3.67,3.21-7.63,4.49-12.17,2.43c-4.39-1.99-6.89-5.3-6.88-10.43
		c0-1.27-1.02-2.98-2.1-3.75c-4.92-3.48-9.95-6.84-15.12-9.92c-1.3-0.77-3.62-1.03-4.93-0.39c-9.78,4.76-19.42,9.82-29.12,14.75
		c-2.75,1.4-5.55,2.68-9.18,4.43c0.88-1.91,1.24-2.77,1.66-3.6c5.7-11.44,11.48-22.83,17-34.35c0.71-1.48,0.78-4.04-0.03-5.37
		c-3.93-6.37-8.28-12.5-12.58-18.87c-5.28,0.39-9.48-1.63-11.82-5.87c-2.11-3.83-1.65-9.09,1.89-12.72c1.73-1.78,1.3-3.09,0.88-4.89
		c-1.6-6.9-3.27-13.79-4.57-20.75c-0.46-2.45-1.35-3.68-3.74-4.44c-9.45-3.02-18.83-6.25-28.24-9.42
		c-3.12-1.05-6.22-2.14-10.14-3.49c2.43-0.93,3.9-1.55,5.41-2.05c10.94-3.64,21.92-7.18,32.81-10.96c1.3-0.45,2.82-1.99,3.12-3.29
		c2.05-8.98,3.8-18.03,5.68-27.17c-4.72-3.63-6.46-8.36-4.77-13.37c1.63-4.87,5.02-6.77,11.75-7.16c1.37-0.08,3.09-1.26,3.9-2.44
		c4.31-6.29,8.39-12.75,12.77-19.49c-6.23-12.53-12.72-25.57-19.69-39.61c13.11,6.57,25.14,12.51,37.08,18.64
		c2.36,1.21,3.98,1.15,6.14-0.47c4.07-3.04,8.36-5.83,12.72-8.45c2.28-1.37,3.49-2.74,3.47-5.64c-0.04-4.58,2.42-7.96,6.75-9.51
		c4.16-1.49,8.13-1.11,11.54,2.2c0.85,0.83,2.35,1.81,3.28,1.59c7.38-1.75,14.7-3.78,21.94-5.69c0-5.95,0-11.93,0-18.52
		c-15.92,0.59-31.45,1.08-46.99,1.75c-15.12,0.66-30.22,1.69-45.34,2.2c-16.98,0.57-33.17,3.75-48,12.52
		c-9.97,5.89-19.57,12.21-26.98,21.31c-3.32,4.08-6.47,8.31-10.15,13.05c-0.76-5.71-1.55-10.83-2.11-15.98
		c-0.67-6.11-1.15-12.23-1.71-18.35c0-5.66,0-11.33,0-16.99c0.37-3.3,0.57-6.62,1.15-9.88c1.03-5.86,1.14-11.86,5.15-17.01
		c14.24-18.29,28.21-36.8,42.3-55.21c1.47-1.93,3.1-3.73,4.66-5.6c0.34,0.17,0.68,0.33,1.02,0.5c-0.2,1.22-0.27,2.49-0.63,3.67
		c-0.77,2.57-1.73,5.09-2.55,7.65c-4.08,12.78-8.03,25.57-9.17,39.06c-0.78,9.27,1.76,12.82,10.68,12.31
		c16.27-0.92,32.6-1.65,48.73-3.8c17.84-2.38,35.09-7.41,50.76-16.78c14.4-8.61,25.23-20.29,28.35-37.21
		c1.52-8.23,0.87-16.86,1.05-25.31c0.02-0.72-1.03-1.68-1.81-2.16c-8.56-5.32-8.59-14.76-0.09-20.12c0.86-0.54,1.88-1.69,1.9-2.57
		c0.16-6.98,0.09-13.97,0.09-20.96c-5.04-1.72-7.82-4.94-8.08-10.13c-0.25-5.14,1.96-8.69,6.59-10.97c0.82-0.4,1.4-2.06,1.43-3.15
		c0.13-6.2,0.2-12.41-0.04-18.6c-0.05-1.32-1.2-3.05-2.36-3.78c-3.91-2.47-5.73-5.83-5.63-10.4c0.1-4.3,2.09-7.28,5.79-9.43
		c1.07-0.62,2.16-2.24,2.21-3.45c0.22-6.06,0.22-12.13,0-18.19c-0.04-1.24-1.07-2.93-2.14-3.55c-3.87-2.22-5.85-5.33-5.86-9.8
		c-0.01-4.58,1.85-7.91,5.87-10.23c1.05-0.61,2.08-2.25,2.13-3.45c0.23-5.52,0.02-11.05,0.14-16.58c0.05-2.21-0.5-3.46-2.63-4.69
		c-7.74-4.46-7.47-14.99,0.18-19.49c1.1-0.65,2.26-2.23,2.31-3.43c0.24-5.79,0.24-11.59-0.01-17.38c-0.05-1.09-1.51-2.92-2.52-3.06
		c-20.98-3.08-41.99-5.97-63-8.9c-7.18-1-14.36-2.04-21.54-3.06c-0.08-0.48-0.16-0.97-0.24-1.45c20.63-6.48,41.26-12.95,63-19.78
		c-17.27-5.98-33.33-11.53-50.44-17.45c2.62-0.73,4.02-1.17,5.45-1.5c21.97-5.1,43.96-10.14,65.9-15.37
		c1.62-0.39,3.77-1.85,4.22-3.27c3.62-11.37,6.87-22.87,10.29-34.3c2.76-9.25,5.6-18.47,8.41-27.71C304.57,0,305.11,0,305.65,0z
		 M387.49,632.01c-14.1-4.73-27.77-9.32-42.41-14.24c13.27-4.43,25.47-8.45,37.63-12.57c6.07-2.06,6.2-0.77,4.59-8.03
		c-2.24-10.09-5.82-19.67-11.87-28.24c-14.45,7.22-28.64,14.31-42.82,21.41c-0.18-0.21-0.36-0.41-0.54-0.62
		c7.28-14.58,14.55-29.16,22.3-44.68c-9.62-4.57-18.97-9.02-29.04-13.81c-6.82,30.63-13.38,60.07-19.94,89.52
		c-3.24-10.39-5.45-20.6-7.71-30.8c-4.12-18.58-8.24-37.16-12.48-55.71c-0.19-0.83-1.73-2.12-2.34-1.97
		c-9.93,2.44-19.24,6.28-27.58,12.59c6.95,13.97,13.78,27.71,20.61,41.44c-0.22,0.16-0.45,0.33-0.67,0.49
		c-13.77-6.88-27.53-13.76-41.44-20.71c-7.99,11.19-12.64,23.26-14.67,36.55c14.98,4.98,29.6,9.84,44.23,14.71
		c-0.02,0.27-0.04,0.55-0.07,0.82c-14.33,4.74-28.66,9.48-43.23,14.3c2.39,12.63,7.7,23.58,15.21,33.88
		c13.04-6.51,25.89-12.92,38.74-19.34c0.16,0.25,0.33,0.5,0.49,0.75c-6.38,12.55-12.77,25.1-19.24,37.82
		c10.85,7.65,22.56,12.16,35.49,14.21c4.53-13.71,8.99-27.21,13.81-41.78c0.74,1.9,1.06,2.6,1.29,3.33
		c3.75,11.5,7.48,23,11.25,34.49c0.62,1.88,0.98,3.88,4.01,3.22c11.66-2.56,22.4-7.08,32.28-14.31
		c-6.19-12.45-12.3-24.75-18.94-38.11c13.44,6.72,25.75,12.87,38.19,19.09C379.94,655.56,385.06,644.64,387.49,632.01z"/>
	<path class="st0" d="M304.04,0c-2.81,9.24-5.65,18.46-8.41,27.71c-3.42,11.44-6.66,22.93-10.29,34.3
		c-0.45,1.43-2.61,2.89-4.22,3.27c-21.94,5.23-43.93,10.27-65.9,15.37c-1.43,0.33-2.83,0.78-5.45,1.5
		c17.11,5.92,33.17,11.48,50.44,17.45c-21.73,6.82-42.36,13.3-63,19.78c0.08,0.48,0.16,0.97,0.24,1.45
		c7.18,1.02,14.36,2.06,21.54,3.06c21,2.94,42.02,5.82,63,8.9c1.01,0.15,2.47,1.97,2.52,3.06c0.25,5.79,0.25,11.59,0.01,17.38
		c-0.05,1.2-1.21,2.78-2.31,3.43c-7.64,4.51-7.91,15.04-0.18,19.49c2.13,1.23,2.68,2.48,2.63,4.69c-0.12,5.52,0.09,11.06-0.14,16.58
		c-0.05,1.21-1.07,2.84-2.13,3.45c-4.02,2.32-5.89,5.65-5.87,10.23c0.01,4.47,1.99,7.57,5.86,9.8c1.07,0.61,2.09,2.31,2.14,3.55
		c0.22,6.06,0.22,12.13,0,18.19c-0.04,1.2-1.13,2.82-2.21,3.45c-3.7,2.15-5.69,5.13-5.79,9.43c-0.1,4.57,1.72,7.93,5.63,10.4
		c1.16,0.73,2.31,2.46,2.36,3.78c0.25,6.19,0.18,12.4,0.04,18.6c-0.02,1.09-0.61,2.75-1.43,3.15c-4.63,2.28-6.85,5.83-6.59,10.97
		c0.25,5.19,3.04,8.41,8.08,10.13c0,6.99,0.07,13.98-0.09,20.96c-0.02,0.89-1.04,2.03-1.9,2.57c-8.5,5.36-8.47,14.79,0.09,20.12
		c0.78,0.48,1.83,1.44,1.81,2.16c-0.18,8.45,0.46,17.09-1.05,25.31c-3.12,16.92-13.95,28.6-28.35,37.21
		c-15.67,9.37-32.93,14.4-50.76,16.78c-16.13,2.15-32.46,2.89-48.73,3.8c-8.93,0.5-11.46-3.05-10.68-12.31
		c1.14-13.49,5.09-26.28,9.17-39.06c0.82-2.56,1.77-5.08,2.55-7.65c0.35-1.18,0.43-2.44,0.63-3.67c-0.34-0.17-0.68-0.33-1.02-0.5
		c-1.56,1.86-3.19,3.67-4.66,5.6c-14.09,18.41-28.06,36.92-42.3,55.21c-4.01,5.15-4.12,11.15-5.15,17.01
		c-0.57,3.26-0.78,6.59-1.15,9.88c0-155.33,0-310.65,0-465.98C170.01,0,237.02,0,304.04,0z"/>
	<path class="st0" d="M103,482.97c0.56,6.12,1.04,12.24,1.71,18.35c0.56,5.14,1.35,10.26,2.11,15.98
		c3.68-4.74,6.82-8.97,10.15-13.05c7.41-9.1,17.01-15.41,26.98-21.31c14.83-8.77,31.02-11.94,48-12.52
		c15.12-0.51,30.22-1.55,45.34-2.2c15.53-0.67,31.07-1.17,46.99-1.75c0,6.59,0,12.57,0,18.52c-7.24,1.92-14.56,3.94-21.94,5.69
		c-0.93,0.22-2.43-0.77-3.28-1.59c-3.41-3.31-7.38-3.69-11.54-2.2c-4.33,1.55-6.79,4.93-6.75,9.51c0.03,2.9-1.19,4.27-3.47,5.64
		c-4.36,2.62-8.65,5.41-12.72,8.45c-2.16,1.61-3.79,1.67-6.14,0.47c-11.94-6.13-23.97-12.07-37.08-18.64
		c6.98,14.04,13.47,27.08,19.69,39.61c-4.38,6.74-8.46,13.2-12.77,19.49c-0.81,1.18-2.53,2.36-3.9,2.44
		c-6.72,0.39-10.12,2.29-11.75,7.16c-1.68,5.01,0.06,9.74,4.77,13.37c-1.87,9.14-3.62,18.19-5.68,27.17
		c-0.3,1.29-1.82,2.84-3.12,3.29c-10.89,3.78-21.87,7.32-32.81,10.96c-1.51,0.5-2.98,1.13-5.41,2.05c3.92,1.35,7.02,2.44,10.14,3.49
		c9.4,3.17,18.79,6.4,28.24,9.42c2.39,0.76,3.28,1.99,3.74,4.44c1.3,6.96,2.97,13.85,4.57,20.75c0.42,1.81,0.85,3.12-0.88,4.89
		c-3.54,3.63-3.99,8.9-1.89,12.72c2.33,4.24,6.54,6.26,11.82,5.87c4.31,6.37,8.65,12.5,12.58,18.87c0.82,1.32,0.75,3.88,0.03,5.37
		c-5.52,11.52-11.31,22.91-17,34.35c-0.41,0.83-0.78,1.69-1.66,3.6c3.64-1.75,6.44-3.04,9.18-4.43c9.7-4.93,19.34-9.99,29.12-14.75
		c1.31-0.63,3.63-0.38,4.93,0.39c5.18,3.08,10.2,6.44,15.12,9.92c1.08,0.76,2.11,2.47,2.1,3.75c-0.02,5.13,2.49,8.44,6.88,10.43
		c4.54,2.06,8.5,0.78,12.17-2.43c0.92-0.81,2.78-1.1,4.06-0.86c7.59,1.48,15.12,3.3,22.72,4.77c2.57,0.5,4.1,1.38,4.97,4.1
		c3.79,11.91,7.85,23.72,11.78,35.59c0.42,1.26,0.64,2.59,0.95,3.89c-67.01,0-134.02,0-201.04,0C103,688.99,103,585.98,103,482.97z"
		/>
	<path class="st0" d="M387.49,632.01c-2.43,12.63-7.55,23.55-14.89,33.71c-12.44-6.22-24.76-12.38-38.19-19.09
		c6.64,13.36,12.75,25.66,18.94,38.11c-9.88,7.23-20.62,11.75-32.28,14.31c-3.03,0.67-3.39-1.33-4.01-3.22
		c-3.77-11.49-7.5-22.99-11.25-34.49c-0.24-0.73-0.55-1.43-1.29-3.33c-4.82,14.57-9.28,28.08-13.81,41.78
		c-12.93-2.06-24.64-6.56-35.49-14.21c6.47-12.72,12.85-25.27,19.24-37.82c-0.16-0.25-0.33-0.5-0.49-0.75
		c-12.85,6.41-25.7,12.83-38.74,19.34c-7.51-10.29-12.82-21.24-15.21-33.88c14.57-4.82,28.9-9.56,43.23-14.3
		c0.02-0.27,0.04-0.55,0.07-0.82c-14.63-4.86-29.25-9.73-44.23-14.71c2.04-13.29,6.68-25.36,14.67-36.55
		c13.91,6.95,27.68,13.83,41.44,20.71c0.22-0.16,0.45-0.33,0.67-0.49c-6.83-13.74-13.66-27.47-20.61-41.44
		c8.34-6.31,17.65-10.15,27.58-12.59c0.61-0.15,2.15,1.14,2.34,1.97c4.24,18.55,8.36,37.13,12.48,55.71
		c2.26,10.2,4.47,20.41,7.71,30.8c6.56-29.44,13.12-58.89,19.94-89.52c10.07,4.79,19.42,9.23,29.04,13.81
		c-7.74,15.52-15.02,30.1-22.3,44.68c0.18,0.21,0.36,0.41,0.54,0.62c14.19-7.09,28.37-14.18,42.82-21.41
		c6.05,8.56,9.63,18.15,11.87,28.24c1.61,7.26,1.47,5.97-4.59,8.03c-12.16,4.12-24.36,8.14-37.63,12.57
		C359.72,622.69,373.39,627.28,387.49,632.01z"/>
</g>
</svg>
