<?xml version="1.0" encoding="UTF-8" standalone="no"?>
<!-- Generator: Adobe Illustrator 24.3.0, SVG Export Plug-In . SVG Version: 6.00 Build 0)  -->

<svg
   xmlns:dc="http://purl.org/dc/elements/1.1/"
   xmlns:cc="http://creativecommons.org/ns#"
   xmlns:rdf="http://www.w3.org/1999/02/22-rdf-syntax-ns#"
   xmlns:svg="http://www.w3.org/2000/svg"
   xmlns="http://www.w3.org/2000/svg"
   xmlns:sodipodi="http://sodipodi.sourceforge.net/DTD/sodipodi-0.dtd"
   xmlns:inkscape="http://www.inkscape.org/namespaces/inkscape"
   version="1.1"
   id="Layer_1"
   x="0px"
   y="0px"
   viewBox="0 0 612 792"
   style="enable-background:new 0 0 612 792;"
   xml:space="preserve"
   sodipodi:docname="sect.anarch.svg"
   inkscape:version="0.92.4 (5da689c313, 2019-01-14)"><metadata
   id="metadata31"><rdf:RDF><cc:Work
       rdf:about=""><dc:format>image/svg+xml</dc:format><dc:type
         rdf:resource="http://purl.org/dc/dcmitype/StillImage" /></cc:Work></rdf:RDF></metadata><defs
   id="defs29" /><sodipodi:namedview
   pagecolor="#ffffff"
   bordercolor="#666666"
   borderopacity="1"
   objecttolerance="10"
   gridtolerance="10"
   guidetolerance="10"
   inkscape:pageopacity="0"
   inkscape:pageshadow="2"
   inkscape:window-width="1600"
   inkscape:window-height="845"
   id="namedview27"
   showgrid="false"
   inkscape:zoom="0.85606061"
   inkscape:cx="306"
   inkscape:cy="396"
   inkscape:window-x="-8"
   inkscape:window-y="-8"
   inkscape:window-maximized="1"
   inkscape:current-layer="g24" />
<style
   type="text/css"
   id="style2">
	.st0{fill:#FFFFFF;}
</style>
<g
   id="g24"
   style="display:inline">
	
	<path
   d="m 467,340.84 c -4.67,17.76 -17.49,28.44 -32.37,37.31 -1.45,0.87 -3.12,1.51 -4.77,1.87 -0.96,0.21 -2.89,-0.2 -2.97,-0.61 -0.22,-1.1 -0.04,-2.63 0.62,-3.5 2.27,-2.97 4.86,-5.7 7.24,-8.6 0.74,-0.9 1.23,-2.03 2.18,-3.65 -7.67,-0.3 -14.43,-0.09 -20.86,2.62 -3.13,1.32 -3.65,4.21 -3.74,7.24 -0.08,2.82 -0.22,5.65 -0.35,8.72 -1.09,-0.28 -1.61,-0.25 -1.87,-0.5 -9.53,-9.2 -21.76,-13.24 -33.95,-16.79 -11.25,-3.28 -22.88,-5.3 -34.42,-7.43 -2.99,-0.55 -6.38,0.24 -9.42,1.03 -2.58,0.67 -3.58,3.02 -2.09,5.38 2.03,3.24 4.33,6.35 6.84,9.23 3.02,3.47 2.98,3.87 -0.57,6.62 -1.8,1.39 -3.45,3.33 -4.42,5.38 -2.51,5.27 -3.48,10.93 -3.78,16.81 -0.53,10.26 -1.56,20.49 -2.26,30.74 -0.5,7.38 -1.03,14.76 -1.13,22.15 -0.27,19.89 -0.31,39.78 -0.47,59.67 -0.01,1.71 -0.2,3.41 -0.34,5.12 -0.27,3.39 0.99,5.09 4.39,5.96 2.9,0.74 5.75,1.75 8.69,2.18 1.52,0.22 3.45,-0.12 4.73,-0.93 8.19,-5.23 15.48,-2.21 17.63,7.31 0.33,1.48 1.44,3.13 2.68,4.01 4.27,3.03 8.69,5.89 13.22,8.52 1.25,0.73 3.38,1.12 4.59,0.55 7.57,-3.56 14.99,-7.43 22.46,-11.2 2.29,-1.16 4.56,-2.33 6.87,-3.51 1.85,1.98 0.78,3.72 -0.06,5.43 -4.06,8.3 -8.08,16.61 -12.26,24.85 -1.05,2.06 -1.16,3.68 0.25,5.6 2.16,2.93 4.12,6.02 6.11,9.07 1.78,2.74 3.61,4.55 7.45,5.02 8.14,0.99 9.69,11.02 6.44,15.58 -1.75,2.46 -2,4.58 -1.21,7.44 1.39,5.04 2.32,10.22 3.3,15.37 0.46,2.43 1.43,3.97 3.99,4.79 10.21,3.26 20.35,6.73 30.49,10.17 0.91,0.31 1.68,1.02 2.51,1.55 -0.74,0.79 -1.33,1.99 -2.23,2.31 -6.76,2.42 -13.58,4.67 -20.37,6.99 -3.55,1.21 -7.08,2.5 -10.65,3.65 -1.94,0.62 -2.94,1.71 -3.33,3.81 -1.09,5.89 -2.49,11.73 -3.63,17.61 -0.17,0.9 0.1,2.12 0.62,2.88 5.35,7.72 2.16,15.73 -6.91,17.5 -1.19,0.23 -2.54,1.17 -3.22,2.18 -2.71,3.99 -5.29,8.08 -7.67,12.27 -0.56,0.99 -0.67,2.75 -0.18,3.74 4.34,8.74 8.87,17.38 13.34,26.06 0.93,1.82 1.89,3.63 2.68,5.5 0.3,0.7 0.47,2.11 0.17,2.27 -0.72,0.41 -1.88,0.62 -2.62,0.31 -2.57,-1.06 -5.05,-2.37 -7.55,-3.59 -7.71,-3.76 -15.43,-7.51 -23.14,-11.27 -2.33,-1.14 -4.34,-1.04 -6.43,0.85 -1.97,1.78 -4.32,3.16 -6.58,4.58 -3.58,2.25 -6.76,4.29 -8.19,9.04 -1.84,6.09 -8.95,7.92 -14.68,5.2 -1.74,-0.83 -4.09,-1.01 -6.01,-0.67 -5.57,0.99 -11.1,2.23 -16.54,3.75 -1.3,0.36 -2.71,2.03 -3.17,3.41 -3,8.95 -5.75,17.98 -8.59,26.98 -0.32,1.02 -0.53,2.12 -1.06,3.03 -0.64,1.09 -1.57,2.01 -2.37,3 -0.8,-0.88 -1.98,-1.63 -2.35,-2.66 -2.38,-6.77 -4.59,-13.61 -6.85,-20.42 -0.13,-0.41 -0.19,-0.84 -0.34,-1.24 -1.21,-3.44 -1.52,-7.88 -3.9,-10.04 -2.27,-2.06 -6.7,-1.69 -10.15,-2.51 -3.23,-0.76 -6.47,-1.53 -9.61,-2.57 -2.21,-0.73 -4.04,-0.64 -6.07,0.63 -1.67,1.05 -3.66,1.98 -5.58,2.14 -6.42,0.53 -10.43,-2.68 -11.39,-9.11 -0.33,-2.18 -1.3,-3.43 -3.05,-4.5 -3.3,-2 -6.67,-3.94 -9.73,-6.28 -2.98,-2.28 -5.54,-1.62 -8.46,-0.03 -8.48,4.61 -17.03,9.09 -25.57,13.59 -1.3,0.69 -2.7,1.18 -5.01,2.18 0.44,-1.95 0.5,-3.26 1.01,-4.34 4.49,-9.4 8.98,-18.79 13.65,-28.1 1.41,-2.8 1.44,-5 -0.54,-7.6 -2.78,-3.66 -5.01,-7.74 -7.74,-11.45 -0.84,-1.14 -2.45,-2.17 -3.83,-2.35 -7.94,-1.04 -11.98,-8.66 -7.81,-15.71 1.63,-2.76 1.51,-5.05 0.71,-7.87 -1.28,-4.53 -2.27,-9.15 -3.19,-13.77 -0.44,-2.19 -1.26,-3.62 -3.57,-4.34 -9.1,-2.86 -18.15,-5.85 -27.19,-8.87 -1.87,-0.62 -3.64,-1.57 -6.34,-2.76 1.61,-0.9 2.33,-1.45 3.13,-1.72 9.02,-3.09 18.02,-6.23 27.1,-9.15 3.8,-1.22 6.09,-2.88 6.54,-7.41 0.57,-5.72 2.4,-11.3 3.52,-16.97 0.18,-0.91 -0.14,-2.29 -0.76,-2.93 -3.27,-3.33 -4.3,-7.23 -2.82,-11.54 1.58,-4.61 5.27,-6.42 9.98,-6.77 1.17,-0.09 2.63,-0.94 3.32,-1.9 3.06,-4.26 5.8,-8.76 8.85,-13.03 1.54,-2.16 1.42,-4.03 0.23,-6.24 -4.76,-8.9 -9.45,-17.83 -14.08,-26.79 -0.58,-1.13 -0.64,-2.54 -1.13,-4.66 2.01,0.73 3.21,1.05 4.3,1.58 9.15,4.48 18.3,8.97 27.41,13.53 2.1,1.05 3.86,1.17 5.86,-0.34 3.35,-2.51 6.99,-4.63 10.29,-7.2 1.19,-0.92 2.25,-2.55 2.54,-4.02 1.7,-8.84 9.81,-12.21 17.35,-7.3 1.35,0.88 3.64,0.89 5.35,0.56 3.65,-0.7 7.17,-2.12 10.82,-2.81 3.69,-0.69 4.18,-3.17 4.19,-6.12 0.02,-8.5 0.01,-17 0.01,-25.5 0,-8.89 0.3,-17.8 -0.07,-26.68 -0.55,-13.05 -1.69,-26.08 -2.38,-39.13 -0.33,-6.22 0.02,-12.47 -0.3,-18.69 -0.4,-7.79 -0.54,-15.66 -3.55,-23.06 -1.29,-3.17 -2.95,-5.91 -6.52,-7.05 -2.02,-0.65 -1.8,-1.73 -0.45,-3.31 2.57,-2.99 5.18,-6.05 7.08,-9.46 2.9,-5.19 0.73,-8.97 -5.22,-8.43 -8.8,0.79 -17.65,1.96 -26.22,4.04 -13.25,3.22 -25.96,8.21 -37.95,14.78 -2.68,1.47 -4.88,3.81 -7.4,5.61 -0.95,0.68 -2.18,0.97 -3.28,1.44 -0.22,-1.07 -0.71,-2.16 -0.61,-3.2 1.03,-9.98 -1.54,-13.11 -11.53,-13.78 -3.59,-0.24 -7.18,-0.41 -10.77,-0.61 -0.19,0.32 -0.38,0.65 -0.57,0.97 1.61,2 3.22,3.99 4.82,6 1.48,1.85 4.32,3.68 2.31,6.12 -0.67,0.81 -4.43,-0.14 -6.26,-1.18 -9.72,-5.54 -19.01,-11.68 -25.79,-20.92 -7.33,-9.98 -10.34,-20.65 -5.48,-32.64 5.63,-13.91 11.33,-27.8 17.01,-41.68 0.24,-0.59 0.62,-1.13 0.97,-1.66 1.57,-2.37 2.81,-2.32 4.11,0.19 2.76,5.33 5.4,10.74 8.27,16.01 5.21,9.55 13.8,15.2 23.13,20.14 18.78,9.95 38.37,17.61 59.35,21.21 5.79,0.99 11.93,0.9 17.8,0.25 5.06,-0.57 5.84,-3.4 3,-7.72 -1.05,-1.61 -2.2,-3.2 -3.51,-4.59 -9.64,-10.24 -19.61,-20.18 -28.89,-30.73 -5.78,-6.57 -10.64,-13.97 -15.77,-21.1 -23.9,-33.2 -42.59,-68.98 -52.62,-108.87 -4.65,-18.49 -7.15,-37.32 -5.4,-56.43 2.21,-24.15 10.75,-45.74 26.77,-64.23 20.09,-23.21 45.47,-37.06 75.32,-43.06 5.82,-1.17 11.76,-1.76 17.65,-2.62 5.59,0 11.18,0 16.76,0 0.38,0.15 0.76,0.41 1.14,0.43 10.85,0.42 21.43,2.28 31.82,5.46 22.89,7.02 42.93,18.49 59.22,36.41 20.5,22.56 29.72,49.36 29.95,79.34 0.08,10.52 -1.61,21.13 -3.28,31.57 -3.83,24.01 -11.95,46.73 -22.42,68.57 -17.79,37.14 -40.21,71.1 -69.68,100.14 -3,2.96 -5.41,6.67 -7.48,10.37 -1.84,3.28 -0.66,5.89 3,6.57 3.73,0.69 7.76,1.02 11.46,0.34 8.16,-1.49 16.25,-3.5 24.26,-5.69 5.55,-1.52 11.07,-3.35 16.36,-5.61 10.22,-4.36 20.27,-9.13 30.38,-13.73 1.46,-0.66 2.94,-1.31 4.34,-2.08 9.54,-5.22 15.02,-13.8 19.33,-23.37 1.43,-3.17 2.95,-6.3 4.44,-9.48 4.69,2.96 14.69,26.21 23.2,53.2 -0.01,2.79 -0.01,5.58 -0.01,8.38 z M 212.8,173.68 c 0.46,-0.95 0.61,-1.23 0.73,-1.52 0.42,-0.99 0.92,-1.95 1.25,-2.97 7.06,-21.67 21.76,-36.65 41.51,-46.99 18.3,-9.57 37.81,-13.08 58.42,-11.33 21.07,1.79 40.12,8.34 56.49,22.02 9.85,8.23 17.93,17.82 22.91,29.8 0.72,1.72 1.48,3.42 2.22,5.14 1.14,-1.25 1.64,-2.4 1.83,-3.59 1.25,-8.03 2.67,-16.05 3.57,-24.12 0.76,-6.8 1.76,-13.76 1.11,-20.49 -1.17,-12.18 -3.95,-24.07 -9.63,-35.16 -13.64,-26.62 -35.16,-43.17 -63.75,-51.05 -14.14,-3.9 -28.49,-3.41 -42.72,-1.58 -22.27,2.87 -41.13,12.99 -56.32,29.52 -17.02,18.51 -26.19,40.28 -25.75,65.7 0.07,3.94 0.58,7.9 1.21,11.8 1.66,10.34 3.47,20.66 5.29,30.97 0.21,1.06 0.86,2.04 1.63,3.85 z m 105.37,120.63 c 0.26,0.31 0.52,0.62 0.78,0.93 2.14,-1.31 4.5,-2.36 6.37,-3.97 3.48,-3 6.77,-6.23 9.98,-9.52 10.8,-11.1 20.07,-23.42 28.55,-36.36 4.86,-7.43 10.01,-14.63 11.39,-23.86 1.78,-11.86 4.23,-23.69 1.77,-35.68 -2.86,-13.92 -10.12,-25.34 -20.72,-34.73 -17.59,-15.59 -38.14,-21.51 -61.24,-18.55 -17.64,2.26 -32.58,10.11 -44.71,23.18 -10.49,11.3 -16.38,24.76 -16.44,40.09 -0.03,9.22 1.86,18.47 3.17,27.67 1.58,11.1 6.24,20.84 13.51,29.41 5.61,6.61 10.75,13.62 16.39,20.21 6.13,7.16 12.26,14.41 20.45,19.42 1.75,1.07 3.65,1.89 5.63,2.9 0.25,-0.9 0.43,-1.21 0.4,-1.5 -0.06,-0.63 -0.19,-1.26 -0.35,-1.88 -2.09,-8.29 -7.76,-13.85 -14.23,-18.84 -1.04,-0.8 -1.79,-1.98 -2.68,-2.99 1.04,-0.79 2.07,-1.6 3.14,-2.36 3.62,-2.6 7.38,-5.03 10.78,-7.88 0.95,-0.8 1.46,-2.98 1.14,-4.28 -1.16,-4.78 -2.47,-9.57 -4.25,-14.15 -4.1,-10.53 -7.26,-21.61 -15.9,-29.72 -0.24,-0.23 -0.18,-0.77 -0.41,-1.93 2.57,0.12 4.86,0.06 7.1,0.37 4.72,0.65 8.57,-1.22 9.61,-5.47 0.91,-3.72 1.94,-7.71 1.5,-11.4 -0.63,-5.23 1.18,-9.16 4.04,-13.08 2.91,-3.98 5.61,-8.11 8.52,-12.09 2.29,-3.13 3.2,-3.09 5.42,-0.14 3.67,4.89 7.52,9.65 10.93,14.71 1.28,1.9 1.77,4.45 2.22,6.79 1,5.12 1.49,10.34 2.7,15.4 0.65,2.72 2.85,4.45 5.97,4.55 2.84,0.09 5.68,0.34 9.01,0.55 -0.59,1.15 -0.89,2.04 -1.42,2.76 -8.96,12.21 -12.39,26.75 -17.05,40.76 -0.44,1.31 -0.13,3.4 0.68,4.5 3.01,4.1 6.77,7.4 11.59,9.39 1.39,0.58 2.56,1.7 3.84,2.57 -1,1.17 -1.82,2.61 -3.04,3.45 -7.47,5.12 -12.39,11.87 -14.14,20.77 z m 29.35,401.56 c -5.14,-10.17 -10.04,-19.83 -14.87,-29.52 -0.38,-0.76 -0.25,-1.78 -0.35,-2.68 0.96,0.09 2.04,-0.09 2.86,0.3 9.03,4.24 18.06,8.46 26.97,12.94 2.53,1.27 3.53,0.77 5.03,-1.5 4.07,-6.19 6.48,-13.03 8.78,-19.96 1.02,-3.07 0.31,-4.57 -2.92,-5.51 -9.15,-2.65 -18.23,-5.55 -27.31,-8.46 -1.67,-0.53 -3.18,-1.56 -4.77,-2.36 0.08,-0.35 0.17,-0.7 0.25,-1.04 1.42,-0.66 2.79,-1.47 4.27,-1.97 8.83,-2.98 17.7,-5.84 26.51,-8.85 5.42,-1.85 5.74,-2.07 3.92,-7.51 -2.19,-6.56 -5.01,-12.91 -7.7,-19.29 -0.66,-1.58 -1.77,-2.35 -3.82,-1.28 -10.26,5.37 -20.55,10.69 -30.97,15.73 -2.63,1.27 -3.06,2.8 -3.13,5.42 -0.37,13.72 -0.55,27.47 -1.6,41.15 -1.17,15.1 -3.21,30.13 -4.95,45.82 8.69,-2.32 16.78,-5.75 23.8,-11.43 z M 272.27,639 c -0.03,0.34 -0.05,0.68 -0.08,1.01 -1.1,0.56 -2.16,1.26 -3.32,1.67 -10.21,3.59 -20.41,7.21 -30.69,10.61 -2.26,0.75 -2.94,1.76 -2.34,3.95 2.14,7.84 5.46,15.11 10.27,21.67 1.09,1.48 2.15,1.99 4.05,0.99 8.64,-4.53 17.33,-8.96 26.09,-13.27 2.05,-1.01 4.4,-1.38 6.98,-2.16 0,0.16 0.03,-0.37 0,-0.9 -0.64,-11.43 -1.34,-22.87 -1.92,-34.3 -0.17,-3.43 -0.15,-6.89 0.01,-10.32 0.12,-2.62 -0.94,-4.19 -3.26,-5.28 -5.82,-2.75 -11.57,-5.63 -17.36,-8.45 -4.24,-2.07 -8.5,-4.11 -12.74,-6.18 -1.79,-0.87 -2.89,-0.71 -4.1,1.3 -4.38,7.25 -7.12,15.06 -9.07,23.25 -0.69,2.91 0.29,4.02 2.92,4.84 10.44,3.23 20.83,6.61 31.22,9.98 1.16,0.39 2.23,1.06 3.34,1.59 z m 16,67.59 c -1.73,-13.64 -3.46,-27.25 -5.19,-40.86 -0.34,-0.04 -0.68,-0.08 -1.02,-0.12 -5.28,10.67 -10.55,21.33 -15.81,31.95 8.9,5.64 17.68,9.25 22.02,9.03 z M 329.69,568.1 c -0.28,0.32 -0.55,0.64 -0.83,0.96 0.66,13.34 1.32,26.68 1.98,40.01 5.53,-9.73 10.42,-19.49 15.11,-29.34 0.4,-0.85 -0.13,-2.98 -0.87,-3.4 -5.04,-2.91 -10.24,-5.52 -15.39,-8.23 z m -46.62,0.58 c -0.28,-0.26 -0.56,-0.52 -0.84,-0.78 -4.53,2.32 -9.11,4.53 -13.56,6.98 -3.61,1.98 -3.81,2.81 -1.97,6.36 4.09,7.89 8.25,15.76 12.41,23.61 0.39,0.73 1.01,1.34 1.8,2.37 0.74,-13.31 1.45,-25.92 2.16,-38.54 z"
   id="path6"
   inkscape:connector-curvature="0"
   style="display:inline" />
	
	
	
	
	
	
	
	
</g>
</svg>