<?xml version="1.0" encoding="UTF-8" standalone="no"?>
<!-- Created with Inkscape (http://www.inkscape.org/) -->

<svg
   xmlns:dc="http://purl.org/dc/elements/1.1/"
   xmlns:cc="http://creativecommons.org/ns#"
   xmlns:rdf="http://www.w3.org/1999/02/22-rdf-syntax-ns#"
   xmlns:svg="http://www.w3.org/2000/svg"
   xmlns="http://www.w3.org/2000/svg"
   xmlns:sodipodi="http://sodipodi.sourceforge.net/DTD/sodipodi-0.dtd"
   xmlns:inkscape="http://www.inkscape.org/namespaces/inkscape"
   width="76.189491mm"
   height="91.235039mm"
   viewBox="0 0 76.189491 91.235039"
   version="1.1"
   id="svg8"
   inkscape:version="0.92.4 (5da689c313, 2019-01-14)"
   sodipodi:docname="teeth.svg">
  <defs
     id="defs2" />
  <sodipodi:namedview
     id="base"
     pagecolor="#ffffff"
     bordercolor="#666666"
     borderopacity="1.0"
     inkscape:pageopacity="0.0"
     inkscape:pageshadow="2"
     inkscape:zoom="0.35"
     inkscape:cx="-289.88491"
     inkscape:cy="75.682482"
     inkscape:document-units="mm"
     inkscape:current-layer="layer1"
     showgrid="false"
     fit-margin-top="0"
     fit-margin-left="0"
     fit-margin-right="0"
     fit-margin-bottom="0"
     inkscape:window-width="1600"
     inkscape:window-height="847"
     inkscape:window-x="-8"
     inkscape:window-y="-8"
     inkscape:window-maximized="1" />
  <metadata
     id="metadata5">
    <rdf:RDF>
      <cc:Work
         rdf:about="">
        <dc:format>image/svg+xml</dc:format>
        <dc:type
           rdf:resource="http://purl.org/dc/dcmitype/StillImage" />
        <dc:title></dc:title>
      </cc:Work>
    </rdf:RDF>
  </metadata>
  <g
     inkscape:label="Layer 1"
     inkscape:groupmode="layer"
     id="layer1"
     transform="translate(-69.139191,-77.622621)">
    <path
       style="fill:#0c0c0c;stroke-width:0.26458335"
       d="m 105.83637,168.69349 c -0.55822,-0.35482 -2.6912,-3.79469 -2.84291,-4.58477 -0.0804,-0.4186 -0.22284,-1.14805 -0.31658,-1.62099 l -0.17043,-0.8599 -0.45541,1.32292 c -0.57058,1.65745 -2.618509,4.94715 -3.000482,4.81983 -0.507691,-0.16923 -2.255798,-3.69813 -3.009882,-6.07603 -0.403693,-1.27299 -0.831305,-2.31479 -0.950254,-2.3151 -0.118946,-2.7e-4 -0.155493,0.20778 -0.08122,0.46244 0.07428,0.25466 0.215045,1.02966 0.312819,1.72222 0.233418,1.6534 -0.571225,4.42369 -1.285869,4.42708 -0.290809,0.001 -0.584716,0.31188 -0.753486,0.79602 -0.647235,1.85665 -2.871237,0.13702 -3.402478,-2.63084 -0.155197,-0.80862 -0.45624,-2.20412 -0.668986,-3.10113 -0.460082,-1.93988 -0.530826,-11.1816 -0.09991,-13.05191 0.377844,-1.63995 1.581457,-3.92989 3.554765,-6.76315 1.745795,-2.50659 2.790912,-3.64845 2.408732,-2.63169 -0.632703,1.68325 -0.756724,3.46405 -0.580199,8.33109 0.102841,2.83553 0.237154,5.20567 0.298476,5.26699 0.06132,0.0613 0.404643,-0.20483 0.762942,-0.59144 0.804249,-0.86779 1.917727,-0.91934 2.914931,-0.13494 0.397142,0.31239 1.267325,0.66985 1.933741,0.79435 1.38164,0.25811 2.05689,0.76476 2.29762,1.7239 0.10029,0.39956 0.30493,0.61318 0.51149,0.53392 0.18937,-0.0727 1.04759,-0.21694 1.90715,-0.32059 0.85955,-0.10366 1.95955,-0.35069 2.44443,-0.54896 0.74246,-0.30359 0.99302,-0.30387 1.5875,-0.002 0.38825,0.19731 1.40917,0.44434 2.26873,0.54896 0.85956,0.10462 1.7168,0.2493 1.90498,0.32151 0.20695,0.0794 0.49914,-0.24445 0.73947,-0.81965 0.40265,-0.96368 1.22716,-1.47675 2.37312,-1.47675 0.32606,0 0.99628,-0.29766 1.48939,-0.66146 1.16019,-0.85596 2.21629,-0.85047 3.0828,0.016 0.37262,0.37262 0.73623,0.61875 0.80803,0.54696 0.0718,-0.0718 0.19256,-2.54956 0.26837,-5.50614 0.1106,-4.31306 0.0581,-5.67631 -0.26577,-6.89696 -0.22199,-0.83674 -0.30622,-1.52135 -0.18718,-1.52135 0.33383,0 4.44663,6.18307 5.24313,7.8824 0.69222,1.47682 0.70986,1.64402 0.79585,7.54132 0.0582,3.99006 -0.0123,6.31804 -0.20828,6.87917 -0.16292,0.46648 -0.41141,1.65882 -0.55221,2.64965 -0.1408,0.99082 -0.42392,2.12191 -0.62916,2.51354 -0.98375,1.87709 -2.57892,2.55227 -2.91033,1.23185 -0.0926,-0.36895 -0.44038,-0.77424 -0.77285,-0.90064 -0.93611,-0.35591 -1.66952,-3.02155 -1.26898,-4.61222 0.16541,-0.65692 0.30075,-1.38683 0.30075,-1.62202 0,-0.70578 -0.47497,-0.1888 -0.67171,0.73113 -0.28838,1.34835 -1.80721,4.97282 -2.62739,6.26985 l -0.74596,1.17966 -0.75623,-0.90584 c -0.70465,-0.84406 -1.98647,-3.23842 -2.5482,-4.7599 -0.21458,-0.5812 -0.27919,-0.46022 -0.53758,1.00672 -0.21684,1.23104 -0.60854,2.14089 -1.49699,3.47732 -0.66182,0.99551 -1.40281,1.88658 -1.64666,1.98015 -0.78272,0.30036 -1.41242,-0.68154 -1.68885,-2.63347 -0.14138,-0.99834 -0.30596,-1.86406 -0.36573,-1.92383 -0.3208,-0.3208 -0.65698,0.39029 -0.81997,1.73443 -0.28511,2.35116 -0.9681,3.3487 -1.89109,2.76201 z m -19.129898,-7.53754 c -0.29197,-0.49485 -0.815216,-1.0293 -1.162772,-1.18765 -0.510143,-0.23244 -0.847641,-0.94159 -1.751304,-3.67982 -0.615659,-1.86554 -1.215456,-3.49686 -1.332883,-3.62516 -0.117425,-0.12828 -0.398545,0.20962 -0.624711,0.75091 -0.234966,0.56236 -0.5544,0.93643 -0.745302,0.8728 -0.693843,-0.23128 -2.407132,-3.72578 -2.530224,-5.16076 -0.06553,-0.76399 -0.186034,-1.38906 -0.267777,-1.38906 -0.08174,0 -0.405675,0.24149 -0.719854,0.53664 -0.347628,0.32658 -0.745435,0.4698 -1.016254,0.36588 -0.589418,-0.22618 -1.67077,-2.11833 -1.886887,-3.30167 -0.291131,-1.59408 0.888884,-6.86127 1.537139,-6.86127 0.178933,0 0.906471,0.48023 1.616753,1.06717 l 1.291421,1.06717 0.733996,-0.86874 c 0.957911,-1.13375 1.37504,-0.88736 2.614086,1.54409 0.516197,1.01297 1.206431,2.18045 1.533853,2.59442 0.327422,0.41397 0.595313,0.97474 0.595313,1.24615 0,0.65072 0.636574,0.62554 1.566479,-0.062 0.613169,-0.45334 0.85385,-0.50058 1.309079,-0.25695 0.306776,0.16419 0.628208,0.57913 0.71429,0.92211 0.205446,0.81857 -0.01595,4.27554 -0.433578,6.76947 -0.35089,2.09547 -0.390194,3.51375 -0.196522,7.09176 0.0654,1.20833 0.02162,2.25709 -0.09729,2.33058 -0.118912,0.0735 -0.455086,-0.27125 -0.747054,-0.7661 z m 42.257728,-0.12953 c -0.0553,-0.10579 -0.005,-1.32343 0.11282,-2.70588 0.25288,-2.97912 0.0327,-6.86754 -0.47014,-8.3015 -0.19776,-0.564 -0.35957,-1.90886 -0.35957,-2.98858 0,-1.73984 0.075,-2.03818 0.65969,-2.62283 0.53251,-0.53251 0.75921,-0.60643 1.17589,-0.38343 0.28391,0.15195 0.58939,0.39469 0.67884,0.53943 0.0894,0.14474 0.49961,0.26316 0.91147,0.26316 0.97995,0 1.69804,0.66231 2.22903,2.05587 0.73315,1.92414 0.55635,3.67735 -0.78463,7.7804 -1.15115,3.52225 -1.28981,3.79267 -2.63398,5.13684 -0.78038,0.78038 -1.46411,1.33231 -1.51942,1.22652 z m 9.29237,-10.48132 c -0.46947,-0.53028 -1.09546,-0.95581 -1.40607,-0.95581 -0.88357,0 -1.19486,-0.52817 -1.19486,-2.02737 0,-1.63484 0.63818,-3.45831 2.38809,-6.82354 0.69813,-1.34256 1.41874,-2.93974 1.60137,-3.54928 0.18262,-0.60955 0.46103,-1.06579 0.61869,-1.01388 0.72883,0.24001 0.96354,1.43265 0.92156,4.68282 -0.0235,1.81901 0.0823,3.9026 0.23509,4.63021 0.4605,2.193 -0.30363,4.68167 -1.72612,5.62173 -0.55556,0.36715 -0.64301,0.33279 -1.43775,-0.56488 z M 85.524954,111.55538 c -2.726851,-2.84229 -4.320794,-4.90173 -5.315659,-6.86804 -0.389623,-0.77008 -0.858359,-1.40014 -1.041636,-1.40014 -0.183277,0 -0.482179,0.3596 -0.664231,0.79911 -0.36713,0.88633 -1.682462,2.11131 -2.26704,2.11131 -0.816454,0 -1.434907,-1.0163 -1.434907,-2.35797 0,-0.71481 -0.178572,-2.23285 -0.39683,-3.37344 -0.538617,-2.81478 -0.513165,-5.279037 0.06651,-6.439422 0.472496,-0.94583 0.830265,-1.05636 2.116257,-0.653802 0.570574,0.178607 0.595503,0.121846 0.599905,-1.365861 0.0087,-2.922728 1.543482,-8.231672 2.676144,-9.256717 0.730965,-0.661512 1.033725,-0.266469 3.236691,4.223236 1.676138,3.416014 2.221116,4.692134 3.226019,7.554034 0.286833,0.816885 0.439047,-0.113964 0.634609,-3.880898 l 0.205033,-3.949345 1.187824,-2.486888 c 0.653301,-1.367786 1.514104,-2.784541 1.912895,-3.148343 l 0.725077,-0.661458 1.277747,1.385883 c 1.677596,1.81957 3.029982,4.564085 3.446955,6.99522 0.182785,1.065705 0.421955,2.039427 0.531492,2.163826 0.109535,0.124399 0.279871,-0.709038 0.378521,-1.852083 0.389795,-4.516467 1.827604,-8.691314 3.65444,-10.611076 0.45004,-0.472942 1.07651,-0.859895 1.39214,-0.859895 1.77642,0 4.78901,4.512417 5.89506,8.829934 0.76399,2.982315 0.70089,3.001071 1.62717,-0.483634 0.71187,-2.678054 2.05656,-5.238225 3.66603,-6.979768 1.60305,-1.734587 2.24789,-1.783472 3.61178,-0.273806 1.83381,2.029808 3.13761,5.901934 3.47004,10.305571 0.0991,1.313315 0.26351,2.292292 0.36526,2.175503 0.10176,-0.116788 0.37138,-1.190795 0.59918,-2.386682 0.22779,-1.195888 0.70233,-2.803232 1.05452,-3.571875 0.84105,-1.835532 3.23254,-4.704827 3.92137,-4.704827 0.40803,0 0.85083,0.659552 1.95984,2.919225 1.53653,3.130772 1.62302,3.511299 1.87734,8.259421 0.0916,1.70987 0.25039,3.108855 0.35292,3.108855 0.10252,0 0.44618,-0.803672 0.76369,-1.785938 0.62557,-1.935279 3.94323,-8.891061 4.84427,-10.15645 0.69333,-0.973699 0.97991,-0.774386 1.92974,1.342107 0.99319,2.213121 1.74869,5.375514 1.74869,7.319699 0,0.914019 0.11014,1.729922 0.24476,1.81312 0.13461,0.0832 0.55638,0.0093 0.93726,-0.164258 0.59215,-0.269804 0.76702,-0.241004 1.20677,0.198747 0.66337,0.663366 1.0324,2.669905 0.85363,4.641405 l -0.14105,1.55557 0.79709,-0.15942 c 0.92906,-0.18582 1.49157,0.42051 1.94445,2.09591 0.22384,0.82807 0.16691,1.38096 -0.31328,3.04271 -0.32275,1.11691 -0.86552,2.33493 -1.20614,2.70669 -0.34063,0.37177 -0.61932,0.80367 -0.61932,0.95979 0,0.15612 -0.17662,0.43044 -0.39249,0.6096 -0.32561,0.27023 -0.43832,0.20519 -0.66146,-0.38171 -0.14793,-0.38909 -0.26897,-1.17594 -0.26897,-1.74855 0,-1.12642 -0.0495,-1.17483 -0.79382,-0.77649 -0.79219,0.42397 -1.79325,-0.13442 -2.58761,-1.44337 -0.39579,-0.65217 -0.83867,-1.18925 -0.98419,-1.1935 -0.14552,-0.004 -0.61975,0.67193 -1.05384,1.50264 -0.43409,0.8307 -1.28505,2.16987 -1.89103,2.97593 -1.49174,1.98427 -5.58193,6.25612 -5.79045,6.04761 -0.0923,-0.0924 0.0791,-1.62249 0.38111,-3.40032 0.40307,-2.37325 0.549,-4.3947 0.549,-7.60517 v -4.37274 l -1.57774,1.50491 c -1.76355,1.68215 -2.93585,2.27981 -4.47177,2.27981 -0.85821,0 -1.1823,-0.16273 -1.85896,-0.9334 -1.04799,-1.19359 -1.88112,-2.8262 -1.88112,-3.68627 0,-0.844242 -0.18913,-0.843287 -1.07501,0.005 -0.89898,0.86128 -3.28828,1.5038 -5.67186,1.52526 -2.06132,0.0186 -3.28012,-0.45313 -3.99669,-1.54674 -0.54146,-0.826386 -0.82178,-0.824341 -1.4787,0.0108 -1.16039,1.4752 -3.1355,1.91057 -6.09013,1.34244 -2.19511,-0.42208 -2.919521,-0.71504 -3.839551,-1.55271 -0.46047,-0.419253 -0.612103,-0.45521 -0.697389,-0.16538 -0.05994,0.2037 -0.241271,0.8592 -0.40296,1.45667 -0.16169,0.59746 -0.78072,1.63926 -1.375619,2.3151 -0.949138,1.07827 -1.211737,1.2288 -2.143647,1.2288 -1.405734,0 -2.610329,-0.60292 -4.31219,-2.15832 -0.771043,-0.70471 -1.488828,-1.28127 -1.595077,-1.28127 -0.363937,0 0.05308,9.83893 0.514064,12.12877 0.244361,1.21379 0.40218,2.40441 0.350708,2.64583 -0.06646,0.31173 -0.774052,-0.27034 -2.441636,-2.00851 z M 73.05726,108.21374 c -0.08531,-0.22233 -0.549158,-0.63672 -1.030758,-0.92087 -1.235998,-0.72926 -2.916952,-3.77415 -2.886914,-5.22938 0.03062,-1.48345 0.935522,-2.74504 1.968947,-2.74504 0.938456,0 1.142897,0.36336 2.47994,4.40762 0.788559,2.38521 0.932085,3.12216 0.747096,3.83605 -0.243271,0.93881 -1.016794,1.33312 -1.278311,0.65162 z"
       id="path32"
       inkscape:connector-curvature="0" />
  </g>
</svg>
