<?xml version="1.0" encoding="UTF-8" standalone="no"?>
<!-- Created with Inkscape (http://www.inkscape.org/) -->

<svg
   xmlns:dc="http://purl.org/dc/elements/1.1/"
   xmlns:cc="http://creativecommons.org/ns#"
   xmlns:rdf="http://www.w3.org/1999/02/22-rdf-syntax-ns#"
   xmlns:svg="http://www.w3.org/2000/svg"
   xmlns="http://www.w3.org/2000/svg"
   xmlns:sodipodi="http://sodipodi.sourceforge.net/DTD/sodipodi-0.dtd"
   xmlns:inkscape="http://www.inkscape.org/namespaces/inkscape"
   width="50.999989mm"
   height="54.969833mm"
   viewBox="0 0 50.999989 54.969833"
   version="1.1"
   id="svg8"
   inkscape:version="0.92.2 (5c3e80d, 2017-08-06)"
   sodipodi:docname="tzimisce.svg">
  <defs
     id="defs2" />
  <sodipodi:namedview
     id="base"
     pagecolor="#ffffff"
     bordercolor="#666666"
     borderopacity="1.0"
     inkscape:pageopacity="0.0"
     inkscape:pageshadow="2"
     inkscape:zoom="0.35"
     inkscape:cx="320.62371"
     inkscape:cy="352.06915"
     inkscape:document-units="mm"
     inkscape:current-layer="layer1"
     showgrid="false"
     fit-margin-top="0"
     fit-margin-left="0"
     fit-margin-right="0"
     fit-margin-bottom="0"
     inkscape:window-width="1366"
     inkscape:window-height="715"
     inkscape:window-x="-8"
     inkscape:window-y="-8"
     inkscape:window-maximized="1" />
  <metadata
     id="metadata5">
    <rdf:RDF>
      <cc:Work
         rdf:about="">
        <dc:format>image/svg+xml</dc:format>
        <dc:type
           rdf:resource="http://purl.org/dc/dcmitype/StillImage" />
        <dc:title></dc:title>
      </cc:Work>
    </rdf:RDF>
  </metadata>
  <g
     inkscape:label="Layer 1"
     inkscape:groupmode="layer"
     id="layer1"
     transform="translate(-21.001643,-187.01513)">
    <path
       style="fill:#070707;stroke-width:0.09735519"
       d="m 43.139853,241.84553 c -6.388739,-0.68284 -11.477894,-3.07607 -15.5005,-7.2893 -3.711202,-3.88706 -5.8867,-8.5632 -6.555507,-14.09076 -0.160867,-1.32954 -0.07198,-5.11515 0.148274,-6.31512 0.775874,-4.22701 2.557437,-7.60564 5.737763,-10.88133 0.985643,-1.01519 1.512401,-1.46598 2.434475,-2.08338 0.647174,-0.43333 1.239229,-0.84625 1.31568,-0.9176 0.118603,-0.11069 0.01747,-0.25581 -0.689264,-0.98892 -1.267963,-1.31531 -2.066067,-2.82484 -1.590092,-3.00748 0.09483,-0.0364 0.556318,0.0118 1.025537,0.10703 0.469222,0.0952 0.890105,0.15042 0.935295,0.1226 0.04519,-0.0278 0.04264,-0.61673 -0.0057,-1.30869 -0.09127,-1.30723 -0.05283,-1.72276 0.167187,-1.80719 0.07134,-0.0274 0.433147,0.14842 0.80402,0.39064 0.914183,0.59708 1.983444,1.08766 2.535589,1.16334 l 0.456306,0.0625 -0.0673,-0.42903 c -0.195976,-1.24919 -0.296252,-2.48256 -0.262164,-3.22456 0.0042,-0.0918 0.0882,-0.21005 0.186637,-0.26273 0.142617,-0.0763 0.324041,0.003 0.893248,0.38842 0.478462,0.32433 0.746578,0.4519 0.812104,0.38637 0.0538,-0.0538 0.210417,-0.32643 0.34803,-0.60583 0.137614,-0.27941 0.324596,-0.55244 0.415514,-0.60673 0.168182,-0.10044 0.260314,-0.0455 2.025187,1.20728 0.794516,0.56399 1.676646,0.81946 2.608615,0.75547 0.921679,-0.0633 1.668625,-0.35304 2.783539,-1.07978 1.49172,-0.97235 2.815025,-2.40173 3.464211,-3.7419 0.481227,-0.99343 0.726749,-1.01918 1.342772,-0.14081 0.833416,1.18834 1.483488,2.7575 1.483488,3.58087 0,0.22468 0.05476,0.45149 0.121693,0.50403 0.06693,0.0525 0.493121,0.19418 0.94709,0.31476 8.368459,2.22278 15.260255,7.84182 18.296261,14.91733 0.921417,2.1474 1.595498,4.48876 1.901314,6.60406 0.0888,0.61417 0.203079,1.38312 0.253967,1.70877 0.136477,0.87337 0.110923,3.42477 -0.0477,4.76243 -0.509118,4.29342 -2.11638,8.2042 -4.689973,11.4116 -0.973801,1.21362 -2.901359,3.1945 -4.029122,4.14058 -2.482421,2.0825 -5.932944,3.93569 -9.346098,5.01957 -3.882686,1.23298 -7.13932,1.60979 -10.660394,1.23345 z m 5.451891,-1.32399 c 4.174789,-0.58208 8.422477,-2.18951 11.822291,-4.47384 1.597258,-1.0732 2.513459,-1.8382 3.859891,-3.2229 2.054792,-2.1132 3.188798,-3.69662 4.318242,-6.0296 2.330368,-4.81361 2.759014,-9.79824 1.327607,-15.43844 -1.90885,-7.52148 -7.044179,-13.36429 -14.631507,-16.64728 -1.825503,-0.78988 -5.088398,-1.81678 -5.252201,-1.65298 -0.03051,0.0305 0.233471,0.39274 0.58661,0.80497 1.066769,1.24525 2.340546,3.245 2.17342,3.41212 -0.03911,0.0391 -0.300134,-0.0295 -0.58005,-0.15255 -0.600213,-0.26378 -0.947035,-0.35318 -0.947035,-0.24412 0,0.16704 1.206546,3.50395 1.306217,3.61257 0.05799,0.0632 0.674959,0.40019 1.371048,0.74888 2.514036,1.25935 4.716921,2.89824 6.157893,4.5813 4.130521,4.82448 5.491118,10.49609 3.963591,16.52215 -0.469409,1.85181 -0.972768,2.9866 -2.169018,4.8899 -3.308858,5.26459 -8.05799,8.2335 -14.134518,8.83619 -1.355279,0.13442 -4.129096,0.0554 -5.500568,-0.1567 -2.168378,-0.33534 -3.626532,-0.81353 -5.781741,-1.8961 -3.591866,-1.8042 -6.491894,-4.55231 -8.446009,-8.00356 -0.71515,-1.26306 -1.547498,-3.32653 -1.695538,-4.2034 -0.228339,-1.35252 0.01827,-3.69412 0.591928,-5.62033 0.105946,-0.35575 0.19263,-0.67495 0.19263,-0.70934 0,-0.16501 -0.227024,-0.0187 -0.671067,0.43236 -0.872206,0.88608 -1.059094,0.48421 -0.690501,-1.48477 0.606698,-3.24088 2.162172,-5.97062 4.92882,-8.6497 2.521821,-2.44201 5.958474,-4.15235 9.478342,-4.71714 1.364119,-0.21889 3.881509,-0.19799 5.296847,0.044 1.954166,0.33408 3.541633,0.86335 5.424214,1.80844 4.034895,2.02562 6.88642,5.55567 7.678187,9.50523 0.107175,0.53462 0.217648,1.00891 0.245493,1.05396 0.124478,0.20141 -0.180842,0.18165 -0.559654,-0.0362 -0.479943,-0.27603 -1.003774,-0.40805 -1.086694,-0.27388 -0.03151,0.051 0.264805,0.41499 0.658486,0.80888 1.203558,1.2042 1.496922,1.99274 1.330652,3.57667 -0.364708,3.47427 -1.794437,6.51553 -4.139404,8.80517 -2.124422,2.0743 -4.403955,3.27711 -7.048852,3.71937 -1.212245,0.2027 -3.837711,0.15365 -4.925337,-0.092 -1.08127,-0.24423 -1.705674,-0.44426 -1.705674,-0.54643 0,-0.11071 1.372726,-0.11325 3.066687,-0.006 0.642541,0.0408 1.22526,0.0538 1.294922,0.029 0.09806,-0.035 0.111925,-0.24605 0.0614,-0.93438 -0.139554,-1.90116 0.5326,-3.0603 1.959799,-3.37969 0.291176,-0.0652 0.529408,-0.15755 0.529408,-0.20531 0,-0.139 -0.603047,-0.35269 -1.317392,-0.46681 -1.331915,-0.21277 -3.280171,0.327 -5.04717,1.39833 -0.625411,0.37919 -1.51824,0.70371 -2.202692,0.80061 -0.240952,0.0341 -0.737258,0.15016 -1.102898,0.25789 -0.979646,0.28863 -2.047505,0.21403 -2.859843,-0.19981 -0.814051,-0.41471 -1.767383,-1.32916 -2.440813,-2.34126 -0.355648,-0.53451 -0.567041,-0.77592 -0.587303,-0.67071 -0.04371,0.22697 0.405617,1.84073 0.801023,2.87687 0.906164,2.37456 1.97248,4.0767 3.419124,5.4579 2.614209,2.49592 5.643366,3.80948 8.788082,3.81084 0.969866,2.8e-4 2.188787,-0.15298 2.491713,-0.31358 0.163922,-0.0869 0.131733,-0.12397 -0.279941,-0.32238 -0.255838,-0.1233 -0.637971,-0.39199 -0.849182,-0.5971 -0.419554,-0.40741 -1.180396,-1.56563 -1.352169,-2.05837 -0.0595,-0.17067 -0.136747,-0.31121 -0.171668,-0.3123 -1.460908,-0.0458 -2.529871,-0.32802 -3.689971,-0.97436 -0.654484,-0.36464 -0.952907,-0.67288 -0.517715,-0.53476 0.735396,0.23341 3.158584,0.65704 4.024777,0.70363 1.771921,0.0953 4.057555,-0.25582 5.951787,-0.91434 2.645615,-0.91974 4.657917,-2.33784 6.353395,-4.47734 0.893803,-1.12788 1.941817,-1.90112 2.941559,-2.17032 0.291419,-0.0785 0.394048,-0.14615 0.325528,-0.21467 -0.06852,-0.0685 -0.206674,-0.0615 -0.438217,0.0222 -0.185982,0.0673 -0.41522,0.0927 -0.509419,0.0566 -0.260695,-0.10004 -0.131565,-0.74987 0.373674,-1.88045 0.507046,-1.13463 0.690302,-1.67941 0.894706,-2.65977 0.335929,-1.61119 0.343725,-5.07529 0.01286,-5.7151 -0.273274,-0.52846 -0.379616,-1.47589 -0.3092,-2.7548 l 0.06701,-1.21694 -0.284271,0.27076 c -0.379014,0.36099 -0.554711,0.2734 -0.805334,-0.40148 -0.610959,-1.64522 -2.755902,-4.60109 -4.481962,-6.17643 -2.552338,-2.32947 -5.969196,-3.87407 -9.972697,-4.50818 -0.541051,-0.0857 -1.916218,-0.17772 -3.095465,-0.20714 -2.115972,-0.0528 -2.122587,-0.0523 -2.360863,0.17154 -0.309836,0.29108 -0.301569,0.43119 0.06771,1.1472 0.264228,0.51233 0.288323,0.61668 0.17415,0.75425 -0.225182,0.27133 -0.92655,0.12628 -2.122364,-0.43892 -1.967331,-0.92986 -2.556491,-0.72624 -1.910953,0.66044 0.133339,0.28643 0.242437,0.56024 0.242437,0.60847 0,0.1382 -0.701043,0.10238 -1.178215,-0.0602 -0.238731,-0.0813 -0.748046,-0.38411 -1.131809,-0.67281 l -0.697753,-0.52491 -0.855116,0.49032 c -0.470315,0.26967 -1.49287,0.91942 -2.272346,1.44388 -1.123817,0.75614 -1.638204,1.18192 -2.484582,2.05657 -1.701615,1.75848 -2.86588,3.41161 -3.837959,5.44952 -2.842331,5.95877 -2.321828,13.58509 1.356642,19.87722 3.983896,6.81459 10.723074,10.72852 19.376324,11.25324 1.49501,0.0907 1.941694,0.0677 3.845532,-0.19776 z M 40.24054,206.24585 c 0.308104,-1.62124 1.641523,-3.11647 3.708673,-4.15874 0.50659,-0.25543 0.609281,-0.34763 0.584129,-0.52444 -0.02481,-0.17449 -0.130447,-0.23549 -0.565968,-0.32684 -0.294501,-0.0618 -0.887713,-0.11653 -1.318245,-0.12169 l -0.782796,-0.009 -0.799226,0.58663 c -0.439578,0.32264 -0.79923,0.6532 -0.79923,0.73458 0,0.0814 -0.107533,0.2555 -0.238963,0.38692 -0.36006,0.36006 -0.926028,0.32492 -1.798742,-0.11168 -0.38549,-0.19285 -0.722819,-0.32871 -0.749618,-0.30191 -0.111287,0.11128 0.586563,1.27273 1.036459,1.725 0.266885,0.2683 0.485247,0.57438 0.485247,0.68019 0,0.45218 0.820316,2.04422 1.05331,2.04422 0.03872,0 0.121958,-0.27129 0.18497,-0.60286 z m -4.50295,-5.40883 c -0.373141,-0.87348 -0.384817,-1.69244 -0.02685,-1.88401 0.258703,-0.13845 0.615102,-0.0363 2.108146,0.60436 0.610735,0.26206 1.161517,0.47647 1.223954,0.47647 0.06244,0 0.187082,-0.31341 0.276981,-0.69647 0.256931,-1.09479 0.264735,-1.09912 2.255333,-1.2501 3.589708,-0.27226 6.535175,0.26067 9.411598,1.70288 0.480912,0.24112 0.900225,0.4384 0.931809,0.4384 0.268395,0 -0.682329,-2.43963 -1.342766,-3.44565 -0.395368,-0.60224 -0.472164,-0.78001 -0.366002,-0.84725 0.200708,-0.12712 0.536354,-0.10577 0.931271,0.0592 0.193909,0.081 0.37214,0.12774 0.396063,0.10381 0.05424,-0.0542 -1.084265,-1.72529 -1.315476,-1.9308 -0.19499,-0.17331 -0.826804,-0.36344 -1.210393,-0.36423 -0.352198,-8.3e-4 -0.397095,-0.10861 -0.220804,-0.53053 0.170622,-0.40836 0.374327,-1.86169 0.281903,-2.01124 -0.0398,-0.0644 -0.119102,-0.0498 -0.222543,0.041 -0.158929,0.13947 -0.931478,0.55314 -1.033023,0.55314 -0.110365,0 -0.04485,-0.21302 0.144124,-0.46862 0.329193,-0.44526 0.35164,-1.73381 0.03206,-1.84034 -0.05577,-0.0186 -0.225336,0.1538 -0.376828,0.38308 -0.748291,1.13254 -2.738141,2.78174 -4.10299,3.40059 -1.879977,0.85243 -3.836912,0.72055 -5.460153,-0.36795 -0.565242,-0.37903 -0.803126,-0.4951 -0.803126,-0.39184 0,0.16321 0.424071,1.20211 0.580183,1.42135 0.252273,0.35428 0.249259,0.39496 -0.02926,0.39496 -0.401301,0 -1.145971,-0.27112 -1.723149,-0.62738 -0.308463,-0.19039 -0.587093,-0.34617 -0.619183,-0.34617 -0.240828,0 0.373638,1.21538 0.89775,1.7757 l 0.43272,0.46261 -0.331492,0.13851 c -0.43601,0.18217 -1.843482,0.44648 -2.377579,0.44648 -0.568192,0 -1.374395,-0.17825 -1.815567,-0.40141 -0.501047,-0.25346 -0.568797,-0.2353 -0.498654,0.13368 0.08168,0.42966 0.257582,0.75805 0.554777,1.03567 0.20003,0.18685 0.229285,0.26908 0.149069,0.41897 -0.18484,0.34538 -0.681672,0.56473 -1.279978,0.56512 -0.307886,2e-4 -0.559792,0.0432 -0.559792,0.0955 0,0.1418 0.941149,0.85876 1.497151,1.1405 0.292545,0.14825 0.721716,0.26603 1.076671,0.29547 0.384036,0.0319 0.634013,0.10458 0.715575,0.20816 0.596863,0.75801 1.272541,1.2778 1.661796,1.27842 0.181413,2.8e-4 0.214223,-0.0353 0.156683,-0.17001 z m 6.380732,-4.46305 c -0.405096,-0.17567 -0.779537,-0.50848 -0.779537,-0.69286 0,-0.36867 2.065533,-0.86733 3.175871,-0.76671 0.736524,0.0667 1.355635,0.23097 1.253971,0.33263 -0.03214,0.0321 -0.361707,0.0862 -0.732384,0.1202 -0.631093,0.0579 -0.699398,0.088 -1.074049,0.47405 -0.640766,0.66026 -1.186278,0.81786 -1.843872,0.53269 z"
       id="path21"
       inkscape:connector-curvature="0" />
  </g>
</svg>
