<?xml version="1.0" encoding="UTF-8" standalone="no"?>
<!-- Created with Inkscape (http://www.inkscape.org/) -->

<svg
   xmlns:dc="http://purl.org/dc/elements/1.1/"
   xmlns:cc="http://creativecommons.org/ns#"
   xmlns:rdf="http://www.w3.org/1999/02/22-rdf-syntax-ns#"
   xmlns:svg="http://www.w3.org/2000/svg"
   xmlns="http://www.w3.org/2000/svg"
   xmlns:sodipodi="http://sodipodi.sourceforge.net/DTD/sodipodi-0.dtd"
   xmlns:inkscape="http://www.inkscape.org/namespaces/inkscape"
   width="132.17413mm"
   height="309.54178mm"
   viewBox="0 0 132.17413 309.54178"
   version="1.1"
   id="svg8"
   inkscape:version="0.92.4 (5da689c313, 2019-01-14)"
   sodipodi:docname="v5Cam.svg">
  <defs
     id="defs2" />
  <sodipodi:namedview
     id="base"
     pagecolor="#ffffff"
     bordercolor="#666666"
     borderopacity="1.0"
     inkscape:pageopacity="0.0"
     inkscape:pageshadow="2"
     inkscape:zoom="7.9195959"
     inkscape:cx="261.34623"
     inkscape:cy="10.790975"
     inkscape:document-units="mm"
     inkscape:current-layer="layer1"
     showgrid="false"
     fit-margin-top="0"
     fit-margin-left="0"
     fit-margin-right="0"
     fit-margin-bottom="0"
     inkscape:window-width="1600"
     inkscape:window-height="845"
     inkscape:window-x="-8"
     inkscape:window-y="-8"
     inkscape:window-maximized="1" />
  <metadata
     id="metadata5">
    <rdf:RDF>
      <cc:Work
         rdf:about="">
        <dc:format>image/svg+xml</dc:format>
        <dc:type
           rdf:resource="http://purl.org/dc/dcmitype/StillImage" />
        <dc:title></dc:title>
      </cc:Work>
    </rdf:RDF>
  </metadata>
  <g
     inkscape:label="Layer 1"
     inkscape:groupmode="layer"
     id="layer1"
     transform="translate(-37.488484,49.419604)">
    <path
       style="fill:#080808;stroke-width:0.26458332"
       d="m 103.28978,259.57618 c -0.4772,-1.24521 -3.583126,-13.59228 -4.719686,-18.76235 -6.97576,-31.73159 -7.98796,-48.42983 -5.05717,-83.42793 1.48918,-17.78308 1.39009,-36.68641 -0.28943,-55.21373 l -0.3118,-3.439583 1.19796,-2.38125 c 5.5739,-11.079474 2.45942,-22.903007 -7.47751,-28.38703 -2.05924,-1.13646 -5.26188,-2.073442 -8.76332,-2.563842 -4.25217,-0.595548 -13.37314,-0.819303 -17.29814,-0.424362 -8.41018,0.846253 -16.05307,3.199087 -19.14102,5.892487 -0.48663,0.424447 -1.02241,0.727819 -1.19063,0.674153 -0.65125,-0.207751 -2.28783,-4.015263 -2.58533,-6.014788 -0.89866,-6.039864 1.95698,-14.22581 6.41842,-18.398955 l 1.38064,-1.291434 0.94438,1.165852 c 4.33802,5.355386 7.43634,7.187808 13.37979,7.913126 2.93394,0.358047 28.97188,0.40358 28.97188,0.05066 0,-0.132784 -0.92274,-0.775365 -2.05053,-1.427954 -5.0733,-2.935644 -11.01459,-8.050312 -14.79972,-12.740599 -12.5262,-15.52167 -17.83197,-36.9725723 -13.45102,-54.381682 4.34844,-17.279895 17.06253,-30.427569 33.34633,-34.483537 4.7314,-1.178496 6.36743,-1.364381 11.903886,-1.352522 3.90509,0.0084 5.98496,0.136439 7.9375,0.488775 18.42872,3.325455 32.58869,16.874108 37.14622,35.542536 1.13666,4.6559206 1.46765,7.6136076 1.44382,12.90162267 C 150.1267,21.396274 138.04852,43.375525 120.56495,53.488313 c -1.20055,0.694415 -2.18281,1.365567 -2.18281,1.491448 0,0.337053 26.38298,0.28411 29.23646,-0.05867 2.67544,-0.321392 5.71174,-1.245722 7.46265,-2.271821 1.58138,-0.926751 3.71936,-2.915658 5.13088,-4.773131 0.6399,-0.842076 1.27625,-1.611937 1.4141,-1.710804 0.79775,-0.572129 3.63044,2.827282 5.44119,6.529758 2.99736,6.128784 3.42528,12.522779 1.14336,17.084084 -0.50453,1.008494 -1.03899,1.833623 -1.1877,1.833623 -0.1487,0 -0.76554,-0.42477 -1.37076,-0.943935 -2.99268,-2.567173 -10.52037,-4.841576 -18.82747,-5.688502 -5.98954,-0.610645 -17.14936,0.02867 -21.68094,1.242042 -5.59048,1.496898 -10.28299,5.381262 -12.74466,10.54977 -1.46976,3.08591 -1.82306,4.830882 -1.79459,8.863542 0.0297,4.20546 0.6455,6.70587 2.65749,10.79041 l 1.2098,2.45604 -0.29867,2.967923 c -0.8687,8.63228 -1.1329,14.07858 -1.267,26.11896 -0.15261,13.70129 0.007,18.29446 1.10657,31.75 1.10233,13.49528 1.29309,17.58631 1.29536,27.78125 0.002,10.03522 -0.21768,14.31373 -1.17227,22.80701 -1.40511,12.50171 -5.11231,31.01897 -9.41812,47.04298 -0.78598,2.92502 -1.0202,3.2901 -1.42804,2.22589 z M 96.850964,46.574925 c 0.0961,-0.382915 0.10827,-4.222681 0.027,-8.532812 -0.12623,-6.696834 -0.22535,-8.131146 -0.68155,-9.861753 -0.77529,-2.941146 -1.66114,-4.485585 -3.95452,-6.894576 -1.12084,-1.177348 -1.91306,-2.184056 -1.76047,-2.237131 0.15259,-0.05308 1.16462,-0.617112 2.24896,-1.253416 3.75002,-2.200561 7.02652,-5.855737 9.509446,-10.6084763 0.60818,-1.164167 1.20581,-2.220804 1.32806,-2.348085 0.12291,-0.127973 0.66149,0.640787 1.20485,1.719792 2.75726,5.4753323 6.70226,9.7477203 10.96354,11.8733773 0.65485,0.326655 1.24124,0.639818 1.3031,0.695921 0.0619,0.0561 -0.60749,0.789217 -1.48746,1.62915 -2.95378,2.819398 -4.33886,5.68951 -4.83482,10.018562 -0.34533,3.01418 -0.36011,16.145686 -0.0184,16.356866 0.13974,0.08636 1.00294,-0.220562 1.91823,-0.682053 10.04033,-5.062379 19.00095,-18.055714 21.6623,-31.411375 0.34797,-1.746252 0.61573,-4.346381 0.70116,-6.8088803 0.62573,-18.0344434 -8.20241,-33.0712607 -22.02221,-37.5100587 -3.64885,-1.171978 -5.04791,-1.366174 -9.65729,-1.34048 -3.790936,0.02113 -4.699076,0.113099 -6.898686,0.698628 -5.23119,1.392525 -9.54828,3.785809 -13.11971,7.27322 -9.54304,9.318547 -13.51755,25.8308807 -9.73583,40.448091 3.0676,11.856992 11.47056,23.49697 20.49381,28.388515 1.0914,0.591658 2.13093,1.077415 2.31006,1.07946 0.17913,0.0021 0.40432,-0.30957 0.50043,-0.692486 z"
       id="path21"
       inkscape:connector-curvature="0" />
  </g>
</svg>
