<?xml version="1.0" encoding="utf-8"?>
<!-- Generator: Adobe Illustrator 26.2.1, SVG Export Plug-In . SVG Version: 6.00 Build 0)  -->
<svg version="1.1" id="Layer_1" xmlns="http://www.w3.org/2000/svg" xmlns:xlink="http://www.w3.org/1999/xlink" x="0px" y="0px"
	 viewBox="0 0 960 560" style="enable-background:new 0 0 960 560;" xml:space="preserve">
<g>
	<g>
		<path d="M606,349c-1.22-0.48-2.8-0.62-3.61-1.48c-5.59-5.9-10.76-12.21-16.59-17.84c-3.15-3.04-7.34-5-11.49-7.74
			c0.16-0.82,0.44-2.18,0.62-3.08c-4.22-1.29-8.15-2.49-12.69-3.87c-4.58,5.7-10.98,10.53-19.08,12.44
			c-8.47,1.99-16.35,1.4-20.85-7.63c-4.46,3.53-11.59,2.79-17.55-1.35c-0.54-0.38-0.93-1.03-1.5-1.3
			c-4.77-2.24-7.38-5.23-2.93-10.83c-0.43-0.13-0.86-0.26-1.3-0.39c-1.56,0.88-3.12,1.77-5.81,3.29c-1.94-3.64-4.09-7.41-5.96-11.31
			c-0.85-1.77-0.69-5.07-1.8-5.48c-4.15-1.54-8.17-2.9-9.49-8.53c-0.45,0.43-0.91,0.87-1.36,1.3c-0.6,1.83-1.2,3.65-1.94,5.9
			c-2.64,0-5.41,0-8.27,0c-2.94,17.62-10.89,31.39-27.4,40.38c0.23,4.76-3.84,6.35-8.31,6.43c-6.94,0.12-13.91-0.4-20.85-0.83
			c-1.4-0.09-2.74-1-4.72-1.77c8.06-2.78,15.07-5.2,22.12-7.63c1.52-1.76,3.51-3.89,5.29-6.19c1.92-2.47,4.2-4.88,5.32-7.72
			c1.64-4.14,3.78-6.98,9.3-7.04c-9.21-3.67-3.38-10.95-4.63-16.48c-3.97-0.72-7.78-1.4-11.95-2.16c-5.11,5.78-17.57,7.92-22.49,2.8
			c-0.6,1.98-1.79,3.77-1.44,5.19c0.94,3.86-0.54,5.91-3.85,7.5c-1.43,0.69-2.62,2.01-3.74,3.21c-4.14,4.47-4.12,4.5-10.12,2.44
			c0.99,8.7-6.41,10.28-11.67,13.27c-4.52,2.58-15.08-4.26-17.21-10.48c-0.68-2-1.36-4-2.04-6c0-1.67,0-3.33,0-5
			c1.73-3.58,3.26-7.26,5.22-10.7c2.92-5.1,6.18-6.7,12.44-6.57c-3.82-10.46,5.83-12.61,11.09-16.98c2.86-2.37,7.53-4.62,11.52-0.53
			c3.64-9.27,12.18-8.42,19.49-9.21c3.64-0.39,9.06-2.34,10.7,4.71c-0.86-6.39,3.94-5.23,7.75-6.23c-1.7-3.52-3.26-6.76-4.62-9.58
			c1.74-2.69,3.44-5.32,6.04-9.34c-11.84,1.05-16.72-5.2-21.04-12.43c-6.54-1.44-13.55-2.99-20.56-4.53
			c-0.23-0.49-0.46-0.97-0.7-1.46c3.09-1.76,5.99-4.26,9.32-5.14c7.61-2.03,15.27-0.75,22.42,2.23c1.73,0.72,2.48,3.77,4.05,6.34
			c8.08-3.68,12.81,2.7,17.49,8.59c2.44,3.07,5.96,6.44,0.08,12.08c8.11-2.72,10.46,1.06,11.53,6.19c1.08,5.2,3.58,7.75,9.32,6.69
			c3.65-0.68,6.88,0.51,7.66,5.42c0.92-1.13,1.71-1.68,1.87-2.37c0.82-3.63,2.99-4.4,6.29-3.36c3.59,1.13,5.47,0.17,6.87-3.83
			c1.3-3.74,4.18-7.06,6.88-10.12c1.02-1.15,3.46-1.05,5.66-1.63c0.53-6.35,8.63-11.63,17.78-10.58c2.47,0.28,4.93,1.1,7.39,1.06
			c3.49-0.07,5.43,1.09,5.15,5.55c8.06-6.43,15.1-3.8,21.44,1.53c3.13,2.63,6.93,5.76,4.21,10.18c2.76,2.43,6.35,4.16,7.39,6.86
			c1.49,3.85,2.36,8.76,1.3,12.62c-2.58,9.4-10.75,12.74-16.28,11.45c-4.73-1.1-9.98-8.33-9.52-12.88
			c-4.58,2.65-7.85-0.67-11.43-2.53c-3.33-1.73-6.64-3.51-10.42-5.51c0.59,1.69,1.33,3.77,2.09,5.94c-1.3,1.23-2.74,2.58-4.29,4.04
			c5.72,3.91,16.07,1.46,14.43,12.69c8.29-3.28,22.53,3.45,27.32,13.98c2.35-5.48,4.22-9.84,6.1-14.2c0.64,0.07,1.29,0.14,1.93,0.22
			c0.16,3.28,0.79,6.63,0.34,9.82c-0.45,3.16,0.5,5,3.06,6.47c1,0.57,1.91,1.34,2.79,2.09c3.42,2.89,7.65,5.39,4.7,11.64
			c6.16-1.36,7.7,2.43,9.66,5.99c5.95,10.83,12.05,21.57,18.09,32.35C606,348.33,606,348.67,606,349z M511.33,294.02
			c-0.31,0.75-0.61,1.5-0.92,2.25c3.6,4.21,7.19,8.43,9.49,11.12c7.65,4.09,13.83,7.4,19.24,10.29c3.26-1.94,6.64-3.96,9.89-5.9
			c-2.68-4.14-5.02-7.75-6.71-10.37c-4.37-0.4-8.16-0.87-11.95-1.07c-5.44-0.29-6.27-3.74-5.35-9.24
			C520.44,294.24,517.24,299.82,511.33,294.02z"/>
	</g>
</g>
</svg>
