<?xml version="1.0" encoding="utf-8"?>
<!-- Generator: Adobe Illustrator 26.2.1, SVG Export Plug-In . SVG Version: 6.00 Build 0)  -->
<svg version="1.1" id="Layer_1" xmlns="http://www.w3.org/2000/svg" xmlns:xlink="http://www.w3.org/1999/xlink" x="0px" y="0px"
	 viewBox="0 0 960 560" style="enable-background:new 0 0 960 560;" xml:space="preserve">
<g>
	<g>
		<path d="M606,271c0,8,0,16,0,24c-2.44,6.42-3.36,13.61-9.38,18.25c-0.79,0.61-1.01,2.07-1.32,3.18
			c-1.79,6.35-3.9,12.64-5.21,19.09c-2.07,10.17-6.76,18.98-12.33,27.59c-2.89,4.46-4.58,9.69-11.11,9.9
			c-0.54,0.02-1.11,0.68-1.58,1.13c-4.64,4.44-9.65,7.92-16.96,6.32c-1.16,5.87-4.4,9.44-10.5,10.32c-1.8,0.26-3.32,2.14-5.09,3.04
			c-2.04,1.04-4.14,2.17-6.35,2.65c-5.68,1.25-11.41,2.6-17.18,3.1c-6.55,0.56-13.19,0.48-19.78,0.21
			c-3.48-0.14-5.32-2.16-4.29-6.12c0.47-1.82,0.08-3.87,0.08-6.87c-3.39,1.71-6.02,3.42-8.9,4.39c-3.02,1.01-6.59,2.47-9.36,1.7
			c-6.02-1.66-11.75-4.48-17.49-7.06c-8.21-3.69-15.23-15.12-14.16-22.51c-1.64-0.84-3.77-1.24-4.71-2.52
			c-4.52-6.17-7.8-13.01-6.11-20.86c0.66-3.05-0.42-3.95-2.38-5.58c-1.84-1.53-3.48-3.79-4.22-6.05c-1.09-3.28-1.27-6.86-1.88-10.3
			c-0.85-4.78-0.35-9.13,2.63-13.29c0.99-1.39,1.18-4.46,0.31-5.86c-2.55-4.07-2.35-8.07-0.4-11.88
			c5.36-10.47,10.8-20.92,16.8-31.03c1.49-2.52,4.95-4.44,7.91-5.39c6.76-2.19,13.82-3.45,20.67-5.39
			c6.97-1.98,6.93-2.14,11.17,2.84c0.53-0.67,1.09-1.28,1.52-1.96c4.66-7.39,5.26-7.89,13.64-4.92c7.82,2.77,15.46,6.14,23,9.63
			c2.35,1.09,4.75,3.04,6.05,5.23c2.01,3.38,3.43,6.86,8.07,7.23c0.67,0.05,1.5,1.21,1.83,2.03c5.36,13.14,6.15,26.92,4.25,40.67
			c-2.16,15.68-16,22.32-26.04,32.26c-0.92-1.11-1.43-1.55-1.71-2.1c-3.28-6.4-3.35-6.46-7.69-0.52c-2.28,3.13-5.47,3.54-8.42,2.33
			c-4.44-1.82-8.6-4.37-12.76-6.8c-7.09-4.13-6.8-11.1-6.84-18.02c-0.07-12.57,2.34-16.32,13.75-20.72c5.78-2.23,8.85,0.1,8.78,6.66
			c-10.97-2.14-12.74-0.37-11.12,11.13c0.02,0.16,0,0.34,0.04,0.5c0.84,3.43,2.73,5.84,6.54,5.58c4.48-0.31,8.95-0.82,13.38-1.53
			c1-0.16,2.61-1.55,2.57-2.32c-0.19-3.99,2.37-4.09,5.19-4.37c1.35-0.14,2.64-0.94,3.34-1.21c-0.42-3.97-1.26-7.26-1.01-10.47
			c0.68-8.62-4.38-13.61-11.13-16.59c-3.97-1.75-7.35-3.07-8.53-7.53c-0.05-0.18-0.58-0.23-1.22-0.45
			c-1.16,0.86-2.34,2.22-3.81,2.71c-1.68,0.56-4.14,1.12-5.37,0.32c-9.92-6.49-22.3-4.29-27.57,8.97c-1.58,3.97-3.88,7.15-9.11,4.08
			c-1.03-0.6-3.47,0.24-4.6,1.19c-0.52,0.44,0.05,3.49,0.96,4.09c4.25,2.79,4.62,7.01,4.99,11.37c0.42,4.98,0.59,10.01,1.42,14.92
			c1.05,6.19-0.69,13.2,5.03,18.22c0.74,0.65,0.41,2.5,0.58,3.79c0.71,5.45,6.19,7.61,8.39,12.05c0.15,0.3,1.23,0.14,1.88,0.18
			c2.41,0.16,4.83,0.23,7.23,0.5c8.39,0.94,16.78,1.88,25.14,3c1.58,0.21,3.46,0.85,4.5,1.95c3.24,3.44,8.6,3.2,12.13,0.1
			c7.85-6.88,15.86-13.83,27.74-9.25c1.31,0.5,3.72-0.28,4.8-1.31c0.74-0.71,0.6-3.25-0.1-4.37c-2.08-3.33-0.84-5.69,1.02-8.61
			c4.64-7.28,9.78-14.46,12.93-22.39c2.26-5.69,5.64-9.84,9.79-13.71c4.96-4.63,4.58-9.14-0.74-13.67c-2.38-2.02-4.15-5.08-5.41-8
			c-1.09-2.52-0.79-5.6-1.58-8.3c-2.22-7.66-4.52-14.95,2.46-21.88c2.58-2.56,0.78-4.91-3.13-4.62c-2.14,0.16-4.29,1.21-6.37,1.03
			c-2.29-0.2-5.02-0.76-6.65-2.19c-6.7-5.94-13-12.34-19.57-18.44c-2-1.86-4.29-4.5-6.61-4.69c-5.51-0.44-7.18-3.81-8.28-8.84
			c-3.76,4.87-7.7,6.34-13.09,3.17c-2.77-1.63-6.43-2.68-9.61-2.51c-5.59,0.29-11.11,1.81-16.69,2.65
			c-4.55,0.68-9.55,0.14-13.59,1.89c-5.25,2.28-9.59,3.36-14.75-2.43c-0.43,3.51-0.38,5.77-1.05,7.8c-0.73,2.18-1.72,4.58-3.34,6.1
			c-2.6,2.44-5.66,4.49-8.78,6.26c-5.43,3.08-10.83,6.47-16.68,8.38c-2.37,0.77-5.89-2.03-8.9-3.16c-0.21-0.08-0.57,0.23-0.32,0.12
			c-1.02,3.93-1.62,7.64-3,11.02c-0.82,2.01-3.07,3.38-4.35,5.25c-3.93,5.74-8.89,6.21-13.43,0.84
			c-7.18-8.48-14.2-17.08-21.25-25.67c-2.6-3.17-5.07-6.45-7.6-9.68c0-1,0-2,0-3c8.22-11.42,20.1-16.81,33.18-20.32
			c1.34-0.36,2.67-1.42,3.61-2.51c3.04-3.49,6.49-3.56,10.34-1.69c1.44,0.7,2.9,1.34,4.61,2.12c1.25-2.25,2.35-4.1,3.33-6
			c3.84-7.51,9.54-11.47,18.3-12.62c8.6-1.13,17.12-3.88,25.31-6.89c10.06-3.69,11.72-3.86,18.78,3.31
			c1.83-2.64,3.89-5.03,5.26-7.76c1.39-2.77,3.06-3.97,6.2-3.53c3.62,0.5,7.55,1.59,10.89,0.71c8.7-2.31,15.57,1.31,22.57,5.3
			c4.62,2.64,9.4,3.92,14.81,2.23c3.51-1.1,13.83,3.35,15.53,6.44c0.41,0.74-0.04,1.96-0.1,2.96c5.07-1.46,10.72,2.29,10.55,7.54
			c-0.13,3.82,1.3,5.38,4.77,5.18c4.32-0.26,7.18,1.6,9.49,5.11c1.54,2.34,3.54,4.42,5.49,6.46c8.51,8.91,14.78,18.82,14.85,31.7
			c0.04,8.81,6.85,16.38,4.78,25.64c-0.13,0.56,0.79,1.38,1.26,2.04C601.86,265.28,603.93,268.14,606,271z"/>
	</g>
</g>
</svg>
