<?xml version="1.0" encoding="utf-8"?>
<!-- Generator: Adobe Illustrator 26.2.1, SVG Export Plug-In . SVG Version: 6.00 Build 0)  -->
<svg version="1.1" id="Layer_1" xmlns="http://www.w3.org/2000/svg" xmlns:xlink="http://www.w3.org/1999/xlink" x="0px" y="0px"
	 viewBox="0 0 960 560" style="enable-background:new 0 0 960 560;" xml:space="preserve">
<g>
	<g>
		<path d="M356,235c3.62,1.84,7.25,3.68,10.87,5.54c0.87,0.45,1.64,1.3,2.54,1.45c15.78,2.69,31.59,5.23,47.36,8.02
			c2.7,0.48,5.24,1.93,7.81,3.02c3.02,1.28,6.1,4.41,8.36-1.19c0.32-0.8,3.35-1.1,4.91-0.72c14.92,3.61,29.97,3.68,45.1,2.04
			c2.29-0.25,4.52-1.02,6.8-1.39c3.64-0.58,7.31-1.02,12.11-1.68c0.66-3.86,5.01-3.24,9.27-4.22c6.21-1.42,12.04-4.57,17.97-7.13
			c7.76-3.35,15.34-6.9,21.38-13.24c1.21-1.27,4.88-0.18,6.85-0.18c2.8-2.67,5.82-5.56,8.85-8.45c1.44-1.38,2.85-2.79,4.34-4.11
			c2.94-2.59,6.08-7.42,8.89-7.24c7.64,0.47,15.24,2.79,22.66,5.02c1.7,0.51,2.64,3.57,3.93,5.46c0,3,0,6,0,9
			c-0.76,2.48-1.43,4.99-2.29,7.44c-3.42,9.67-12.73,12.6-20.33,17.35c-6.59,4.13-13.81,7.27-20.3,11.55
			c-4.46,2.94-7.69,0.79-12.21-1.96c0.47,3.26,0.78,5.39,1.23,8.53c-3.5,1.02-7.12,2.74-10.86,3.06
			c-17.71,1.51-35.44,2.89-53.19,3.71c-4.65,0.21-9.38-1.91-14.13-2.66c-1.53-0.24-3.21,0.68-4.82,0.69
			c-3.85,0.02-7.81,0.35-11.54-0.4c-14.82-2.98-29.56-6.37-44.35-9.51c-2.59-0.55-5.33-0.4-7.91-1.01c-1.7-0.4-3.25-1.52-4.82-2.41
			c-0.81-0.46-1.43-1.41-2.27-1.63c-7.3-1.87-15.24-2.43-21.81-5.74c-7.44-3.74-13.65-9.9-20.4-15.01C356,236.33,356,235.67,356,235
			z"/>
		<path d="M527.45,308.77c-5.94-1.48-11.67-3.18-17.52-4.3c-7.1-1.36-14.3-2.25-21.8-2.61c14.02,8.87,19.93,21.25,19.39,38.12
			c3.69,2.19,3.89,6.34,2.21,10.98c-1.97,5.47-3.33,11.26-6.07,16.31c-1.95,3.6-5.39,6.72-8.83,9.1c-3.01,2.08-6.6,1.89-8.99-2.05
			c-0.8-1.32-2.33-2.49-3.79-3.06c-4.45-1.75-5.39-5.18-3.65-8.88c2.02-4.32,4.86-8.3,7.68-12.19c0.6-0.83,2.65-0.84,4.03-0.82
			c1.33,0.01,2.66,0.54,4.56,0.45c-4.07-3.91-1.76-7.34-0.82-11.37c2.12-9.14,2.75-18.44-4.19-26.48c-2.29-2.65-3.73-6.05-5.83-9.57
			c-5.94,0-12.65,0-19.71,0c-0.12,3.72-3.25,5.69-7.49,5.81c-11.55,0.34-20.44,5.98-28.48,13.6c-2.29,2.17-4.62,4.42-7.29,6.05
			c-2.68,1.64-5.81,2.55-9.76,4.21c1.6,6.51-4.7,10.66-8.79,16.04c-1.47,1.94-2.06,4.52-3.39,6.59c-2.57,4.01-5.03,8.18-8.19,11.69
			c-2.59,2.87-6.14,3.26-10.08,1.52c-5.43-2.4-11.89-3.31-13.95-10.05c-0.77-2.51-1.29-5.63-0.51-8
			c3.9-11.84,9.87-22.49,19.24-31.07c4.17-3.81,7.49-8.61,11.88-12.11c4.88-3.89,10.33-7.25,15.95-9.96c2.45-1.18,5.95-0.2,9.43-0.2
			c-0.41-8.14,6.3-8.29,12.57-9.56c6.82-1.39,13.7-2.95,20.17-5.43c8.18-3.13,16.21-3.38,24.49-1.27
			c7.38,1.88,14.82,2.97,22.41,3.87c7.56,0.9,14.92,4.39,22.08,7.42c3.95,1.67,7.23,4.85,10.97,7.1c3.07,1.85,6.51,3.12,9.54,5.04
			c7.97,5.02,16.09,9.87,23.63,15.5c9.93,7.41,13.72,18.9,18.1,29.85c1.1,2.75,1.63,5.73,2.42,8.6c-0.49,0.2-0.97,0.41-1.46,0.61
			c-0.76-1.28-1.75-2.48-2.24-3.86c-4.42-12.37-12.06-21.9-24.05-27.71c-9.82-4.76-19.61-9.56-29.35-14.48
			C530.14,311.31,528.68,309.73,527.45,308.77z"/>
		<path d="M454.9,337.14c-0.87-1.58-1.49-2.72-2.21-4.02c-0.39,0.35-0.93,0.6-0.97,0.92c-0.14,0.94-0.5,2.33-0.03,2.79
			c4.4,4.33,1.65,8.92,1.3,13.72c-0.32,4.46,0.64,10.17,3.33,13.46c5.84,7.13,13.48,12.34,23.56,12.14c1.36-0.03,2.75,0.98,4.12,1.5
			c-1.16,0.93-2.2,2.36-3.52,2.72c-11.89,3.23-31.03-3.05-37.67-13.43c-4.16-6.5-6.69-14.14-5.56-22.32
			c0.16-1.12,0.77-2.53,0.32-3.33c-5.22-9.38,0.03-17.21,4.12-24.78c3.02-5.6,12.7-6.21,17.54-2.12c1.01,0.85,2.2,1.5,3.34,2.18
			c7.3,4.38,7.14,13.07-0.4,17.39C460.04,335.17,457.66,335.94,454.9,337.14z"/>
		<path d="M495.12,221.37c-0.65,2.37-1.03,4.85-2,7.08c-4.05,9.34-15.64,20.38-29.25,16.82c-11.76-3.07-21.95-14.52-21.66-26.69
			c0.02-0.82,0.21-1.8-0.15-2.45c-4.15-7.57-2.36-16.03,1.7-21.53c4.89-6.63,12.11-12.76,21.84-13.03c1.43-0.04,2.85-0.84,4.27-1.32
			c1.08-0.37,2.13-1.11,3.2-1.14c7.11-0.16,13.28,2.19,18.2,7.43c0.61,0.65,1.31,1.81,1.13,2.52c-1.36,5.44,1.3,6.1,6.12,4.58
			c2.8,6.6,2.13,12.68-0.99,18.7c-2.38,4.6-6.12,7.22-11.32,6.31c-3.13-0.55-6.44-1.67-9.01-3.46c-4.51-3.14-4.57-7.78-0.87-12.52
			c-0.15-0.47-0.3-0.94-0.45-1.4c-5.81,1.96-11.61,3.91-16.25,5.47c-4.51,11.32,3.1,18.61,5.8,27.16
			c10.66-1.6,20.79-4.35,27.66-14.14C493.76,220.3,494.44,220.84,495.12,221.37z"/>
	</g>
</g>
</svg>
