<?xml version="1.0" encoding="utf-8"?>
<!-- Generator: Adobe Illustrator 26.2.1, SVG Export Plug-In . SVG Version: 6.00 Build 0)  -->
<svg version="1.1" id="Layer_1" xmlns="http://www.w3.org/2000/svg" xmlns:xlink="http://www.w3.org/1999/xlink" x="0px" y="0px"
	 viewBox="0 0 960 560" style="enable-background:new 0 0 960 560;" xml:space="preserve">
<g>
	<g>
		<path d="M509,406c-3.33,0-6.67,0-10,0c-0.57-0.28-1.12-0.76-1.71-0.82c-12.57-1.24-24.53-4.76-36.43-9.48
			c0.68-3.18,1.31-6.14,2.01-9.45c-6.52-0.35-5.04,6.27-9.29,8.77c-2.83-1.87-6.37-3.66-9.23-6.21
			c-7.13-6.34-14.47-12.56-16.59-22.73c-1.41-6.76-0.51-9.15,5.57-12.24c0.91-0.46,1.73-2.1,1.67-3.15
			c-0.05-0.88-1.31-2.17-2.25-2.42c-1.73-0.46-3.65-0.17-5.46-0.39c-4.95-0.61-6.14-2.41-5.34-7.37c0.74-4.57,0.66-9.38,2.13-13.68
			c1.57-4.59,3.49-10.52,7.13-12.61c5.62-3.22,4.46-6.68,4.21-11.29c-0.14-2.51,1.33-6,3.27-7.57c7.89-6.36,17-8.87,27.28-7.55
			c2.68,0.35,6.73-0.61,8.25-2.5c2.88-3.58,5.46-4.1,9.33-2.42c1.63,0.71,3.62,0.54,5.33,1.12c6.74,2.25,13.77,4.05,17.01,11.61
			c0.69,1.6,2.23,3.47,3.78,3.96c7.74,2.49,16.23,14.6,14.67,22.54c-1.07,5.45-2.92,10.9-5.37,15.88c-1.59,3.22-4.9,5.59-7.43,8.34
			c-0.59-0.39-1.17-0.77-1.76-1.16c0.3-1.29,0.36-2.71,0.95-3.85c1.69-3.22,3.6-6.33,5.42-9.49c3.18-5.48,2.11-11.1-1.62-15.26
			c-1.85-2.06-6.53-2.35-9.85-2.13c-3.63,0.24-6.04-0.12-7.71-3.64c-0.45-0.95-2.29-1.47-3.58-1.72c-1.53-0.29-3.17-0.07-4.76-0.07
			c0.34-0.43,0.67-0.87,1.01-1.3c-2.07-2.42-3.97-5.04-6.33-7.12c-0.67-0.6-3.94,0.36-3.93,0.58c0.04,2.99,0.44,5.97,0.81,9.56
			c-0.1,0.07-0.85,0.67-1.7,1.11c-5.06,2.64-10.09,5.35-15.25,7.79c-2.23,1.05-4.74,1.51-8.28,2.59c-5.55,7.33-1.92,15,3.69,22.23
			c-1.94,3.18-4.14,5.97-5.46,9.12c-2.27,5.42-0.77,7.07,5.05,7.31c2.83,0.11,5.64,1.15,8.41,1.94c4.26,1.21,8.52,2.44,12.7,3.89
			c5.78,2,12.84,1.09,14.95,10.01c1.49,6.28,10.15,6.41,13.85,0.87c1.47-2.2,2.41-4.77,3.96-6.91c1-1.38,2.58-3.13,4.02-3.26
			c11.79-1.05,17.5-8.43,20.72-18.84c1.25-4.03,2.79-7.36,8.68-6.62c2.78,0.35,7.32-2.28,8.75-4.85c1.93-3.46,0.23-7.37-4.32-8.99
			c-2.64-0.93-3.39-2.86-2.44-5.59c0.76-2.19,1.12-4.52,1.8-6.75c4.48-14.8,3.91-29.15-3.74-42.9c-3.61-6.5-3.53-6.44,2.01-11.5
			c2.26-2.06,4.18-4.49,6.51-7.02c-5.35-2.84-8.21,0-11.23,1.85c-2.74,1.68-5.22,2.96-7.86-0.21c-4.66-5.59-10.84-8.24-17.92-9.6
			c-5.16-0.99-10.26-2.64-15.12-4.65c-1.56-0.64-2.71-3.24-3.23-5.16c-0.55-2.04-0.12-4.35-0.12-6.53c-0.53-0.22-1.07-0.44-1.6-0.67
			c-1.55,1.93-3.3,3.74-4.59,5.83c-1.87,3.03-4.09,4.09-7.82,3.77c-4.38-0.38-8.96-0.07-13.28,0.8c-9.39,1.91-18.6,4-23.12,14.46
			c-1.36,3.15-5.52,6.61-8.79,7.05c-4.57,0.61-4.56,1.93-3.37,5.25c0.61,1.71,0.65,3.73,1.58,5.2c2.03,3.21,0.81,5.56-1.23,8.07
			c-3.14,3.87-6.66,7.55-9.1,11.84c-5.77,10.13-7,10.91-18.72,7.67c-0.21,3.59-0.19,7-0.67,10.35c-0.37,2.56-0.65,5.63-2.17,7.46
			c-13.6,16.33-25.4,33.75-34.12,53.21c-1.25,2.79-3.72,5.04-5.62,7.54c-0.56-0.23-1.12-0.45-1.68-0.68c0-1.7-0.26-3.45,0.05-5.09
			c0.88-4.72,1.56-9.54,3.09-14.06c5.3-15.6,11.23-31,16.31-46.67c2.57-7.91,3.79-16.25,5.72-24.38c0.56-2.38,0.94-5.02,2.26-6.95
			c3.24-4.75,6.97-9.17,10.79-14.09c-0.3-0.52-0.62-1.83-1.45-2.41c-3.59-2.52-3.06-5.65-1.92-9.15c1.56-4.82,2.6-9.82,4.34-14.58
			c4.2-11.52,8.48-23.03,13.21-34.34c0.93-2.22,3.88-3.76,6.16-5.2c2.58-1.63,5.46-2.79,9.26-4.68c-2.96-2.71-5.24-4.54-7.18-6.68
			c-0.93-1.02-2.06-3.05-1.64-3.92c5.57-11.54,9.71-24.33,23.66-29.06c3.67,0,7.33,0,11,0c2.05,0.59,4.07,1.27,6.14,1.74
			c8.17,1.86,15.98,4.59,22.52,9.99c1.48,1.22,2.74,3.3,3.1,5.18c0.98,5.1,1.42,10.31,2.04,15.17c3.54,0.2,7.21-0.1,10.61,0.71
			c5.75,1.35,11.32,3.44,16.99,5.14c7.52,2.25,5.82,1.09,5.08,9.49c-0.06,0.73-0.5,1.42-1.25,3.47c2.48-1.6,4.21-2.16,5.04-3.35
			c2.44-3.48,5.84-3.17,8.96-2.2c7.69,2.39,15.74,4.33,22.7,8.17c7.26,4,15.32,8.78,19.61,15.43c6.32,9.8,9.6,21.56,14.5,33.25
			c-3.63,1.26-6.17,1.58-7.98,2.9c-2.39,1.75-4.21,4.29-6.28,6.49c1.84,1.25,3.53,3.04,5.56,3.64c7.58,2.25,7.61,2.11,7.82,10.26
			c0.03,1.16,0.01,2.36,0.3,3.46c2.79,10.65,4.02,21.4,2.18,32.36c-0.88,5.25,0.03,11.27-8.69,11.09c-4.34-0.09-5.49,3.24-3.46,6.25
			c3.93,5.82,3.71,11.28-0.53,16.86c-5.7,7.5-11.4,15-16.98,22.59c-6.12,8.31-6.07,8.35-15.53,5.79c-5.33-1.44-5.93-0.74-4.99,4.91
			c0.43,2.61,1.89,6.16-1.82,7.4C531.83,396.15,522.01,405.11,509,406z"/>
	</g>
</g>
</svg>
