<?xml version="1.0" encoding="UTF-8"?>
<svg id="a" data-name="Layer_2" xmlns="http://www.w3.org/2000/svg" viewBox="0 0 502.17 532.65">
  <defs>
    <style>
      .b {
        fill: #fff;
      }
    </style>
  </defs>
  <path class="b" d="M438.97,292.47c-2.54-3.77-5.49-7.22-8.82-10.32l.05-.63c.51-7.09.14-11.6-.33-17.32-.61-7.51-1.45-17.81-.75-40.61.07-2.3.15-4.45.22-6.47.53-14.63.84-23.46-3.61-34.96-1.07-2.75-2.22-5.18-3.81-8.55-2.02-4.26-4.78-10.09-8.92-19.93-4.88-11.57-5.44-14.1-4.87-16.79,1.68-7.89,12.21-12.47,16.66-14.07l21.13-7.61-22.36-2.08c-1.19-.11-2.34-.16-3.53-.16-5.55,0-13.68,1.21-20.86,6.98-8.53,6.85-10.81,16.16-12.65,23.65-1.17,4.79-2.8,14.58-.6,26.38.77,4.1,1.64,6.42,2.56,8.87.89,2.35,1.89,5.02,3.21,10.27,1,3.96.85,5.83.66,6.87-.34,1.79-.76,3.12-1.21,4.25-1.07-1.83-1.61-3.39-1.77-3.88h0c-1.55-5.22-4.99-10-11.82-19.48-3.1-4.32-5.14-6.68-7.12-8.95-1.16-1.34-2.25-2.6-3.56-4.26-4.04-5.11-11.48-15.81-15.91-30.05-2.47-7.93-5.54-17.79-3.06-29.51,1.95-9.2,6.55-15.9,11.43-23.01,3.41-4.96,5.89-7.61,8.29-10.17,2.45-2.61,4.98-5.31,7.97-9.98,5.12-8,8.67-17.18,10.54-27.29l5.83-31.54-15.15,28.27c-2.26,4.22-5,8.17-8.13,11.75-3.27,3.74-6.16,6.11-11.41,10.32-8.56,6.89-12.42,9.85-14.49,11.45-1.74,1.34-2.53,1.95-3.85,3.15-8.41,7.63-12.13,15.26-18.3,27.89-5.52,11.28-11.23,22.94-13.25,39.25-2.17,17.59,1.12,32.65,3.09,41.64,1.79,8.16,3.91,14.76,5.61,20.07,1.18,3.67,2.47,7.69,2.84,10.17-3.68-.91-7.54-1.39-11.55-1.44l-.89-.9c-4.16-4.2-10-10.09-16.92-17.04l-2.16-2.17c-15.71-15.77-18.54-18.62-21.82-24.56-7.33-13.3-8.23-25.85-8.28-30.63-.12-11.39,3.04-20.99,3.67-22.8,1.21-3.47,2.27-5.52,3.28-7.5,1.4-2.73,2.73-5.31,3.61-10.05,2.13-11.45-.99-21.25-2.17-24.93-1.61-5.08-3.17-7.56-4.82-10.19-1.44-2.3-3.07-4.9-5.27-10.34-3.28-8.14-4.96-12.65-4.27-18.24.55-4.35,2.39-8.5,5.48-12.34l10.45-12.97-15.86,5.07c-6.02,1.92-10.71,5.36-13.54,9.93-3.06,4.94-3.48,10.15-1.87,23.25.93,7.57,1.84,11.91,2.57,15.4.78,3.73,1.29,6.19,1.5,10.86.43,9.41.51,14.9-2.79,18.26-2.98,3.03-7.46,3.36-9.25,3.36-.35,0-.59-.01-.75-.03-1.59-.13-4.26-.35-5.27-1.72-1.55-2.08-.15-6.96.45-9.06.53-1.84,1.13-3.02,1.76-4.26.97-1.91,2.08-4.08,2.21-7.54.14-3.65-.85-7.3-2.92-10.84l-5.66-9.65-3.41,10.65c-.89,2.79-1.91,5.59-3,8.32-1.96,4.84-3.42,7.5-4.6,9.64-1.2,2.18-2.23,4.06-3.16,6.96-3.5,10.87-.71,21.15.66,25.07,1.91,5.47,4.2,7.98,6.22,10.19,1.59,1.74,2.84,3.11,4.17,6.3,2.88,6.98,2.08,13.71.87,23.91-1,8.48-2.88,14.1-4.54,19.05-.63,1.87-1.22,3.64-1.73,5.45-4.25,14.98-1.99,28.17,1.76,50.01.16.97.33,1.91.49,2.86-.12-.06-.25-.11-.37-.17-5.49-2.58-10.45-5.59-15.03-8.84l-.69-2.36c-4.45-15.17-7.74-28.13-6.31-45.21.58-6.89,1.61-10.71,2.69-14.75,1.21-4.52,2.46-9.19,3.04-17.72.87-12.98-.42-26.15-3.84-39.14l-6.86-26.02-2.95,26.75c-.65,5.9-1.3,11.81-1.95,17.81-.58,6.42-1.79,12.75-3.62,18.8-2.51,8.35-5.39,13.63-8.73,19.73-.18.33-.36.66-.54.99-.12-.85-.26-1.69-.44-2.52-.51-2.33-1.15-5.23-3.24-8.44-1.9-2.92-4.59-5.4-7.77-7.17l-12.54-6.98,5.49,13.26c1.13,2.73,2.3,7.01,1.45,11.86-.7,4.05-1.51,7.53-4.32,9.05-.98.53-2.15.8-3.48.8-1.55,0-2.95-.36-3.8-.64-.66-1.89-.6-3.67-.56-5.15l.02-.54c.13-4.85-.72-8.36-2.27-14.69-2.48-11.3-9.27-19.22-11.29-21.38-7.71-8.25-17.04-11.84-23.5-13.4l-21.83-5.26,17.53,14.03c2.78,2.22,5.42,4.65,7.87,7.25,2.22,2.36,5.58,5.92,7.84,9.91,1.12,1.99,3.73,7.62,3.81,16.81.07,7.63-1.65,11.72-4.03,17.38-2.05,4.88-4.61,10.96-6.55,20.66l-.17.88c-.02.09-.04.18-.06.28l-4.89,1.32c-2.69.73-5.38,1.45-8.07,2.18-2.77-4.59-6.03-8.6-9.89-12.15-4.49-4.12-8.24-6.22-11.56-8.08-3.9-2.18-7.27-4.07-11.67-9.23-2.07-2.43-7.24-9.15-10.49-19.08-2.3-7.03-3.22-14.33-2.74-21.7l1.94-30-11.55,27.75c-2.65,6.38-4.21,13.11-4.61,19.99-.22,3.64-.88,14.73,4.2,26.34,3.2,7.29,6.78,10.68,10.25,13.95,2.83,2.67,5.5,5.19,8.27,10.34,2.01,3.74,3.09,7.06,3.9,11.03l-9.12,2.47,1.54,4.95c2.21,7.12,5.1,13.89,8.6,20.14l1.89,3.37c-.04,2.49-.14,4.86-.25,7.34-.02.42-.04.84-.05,1.27-.59-1.04-1.17-1.89-1.78-2.61-2.81-3.31-6.73-5.95-14.54-11.21l-1.27-.85c-3.09-2.07-4.38-2.97-5.34-4.73-.95-1.75-1.28-3.89-.99-6.36l2.94-25.11-12.28,22.1c-1.5,2.69-2.33,5.53-2.49,8.43-.38,7.13,3.52,12.35,5.4,14.86,2.98,3.98,5.66,5.8,7.81,7.26,1.24.84,2.3,1.57,3.38,2.66,2.03,2.07,3.73,4.75,5.45,18.47,1.1,8.86,1.22,14.03,1.33,19.03.07,3.33.14,6.48.5,10.39,1.48,16.17,6.44,28.16,9.1,34.61,7.79,18.87,18.14,31.12,24.32,38.44,4.36,5.18,13.39,15.03,26.57,25.11-.94.68-1.89,1.5-3.06,2.84-7.34,8.42-14.56,26.34-4.34,41.25,1.02,1.48,2.21,2.89,3.54,4.2,1.18,6.9,3.5,13.42,6.89,19.42,8.21,14.54,20.21,24.12,34.7,27.72,4.05,1.01,8.23,1.52,12.44,1.52,6.82,0,13.87-1.36,20.39-3.94l15.4-6.09-16.2-3.45c-9.08-1.93-17.22-5.66-24.23-11.09-4.95-3.85-10.57-8.21-13.45-16-.15-.4-.29-.81-.42-1.22.78-.35,1.53-.73,2.25-1.14,8.12-4.71,11.57-13.07,13.22-17.08,1.88-4.54,2.94-9.34,3.18-14.28,2.16.36,4.31.64,6.44.84,3.56,2.29,6.84,4.15,8.49,5.09l.11.06c7.93,4.47,24.71,12.22,48.03,13.83,2.74.19,5.41.28,8.16.28h0c12.92,0,25.6-2.02,37.72-6.02,12.92-4.26,23.15-7.66,30.07-17.88,4.96,1.6,10.32,2.45,16.02,2.51-.06,2.26-.25,4.51-.57,6.73-1.74,12.17-6.82,20.44-11.31,27.76-5.45,8.87-12.29,16.89-20.34,23.83l-14.43,12.45,18.68-3.77c10.54-2.12,20.32-6.26,29.06-12.3,10.13-7.01,15.86-14.53,18.93-18.57,3.62-4.76,11.15-14.65,15.19-30.1,1.29-4.93,2.09-9.95,2.41-15.02,12.64-5.8,25.16-14.2,35.8-23.95,1.38,7.07,1.39,12.8,1.4,16.82,0,7.07-.76,14.18-2.27,21.13l-3.36,15.51,11.64-10.78c6.13-5.68,11.1-12.28,14.78-19.62,6.17-12.35,6.86-23.32,7.19-28.6.71-11.42-1.09-20.94-3.19-28.48l.74-1.45c2.1-4.14,3.99-8.49,5.71-12.97,1.96,5.62,2.28,11.03,2.54,15.55.34,5.82-.08,11.67-1.24,17.38l-2.48,12.21,10.23-7.11c5.48-3.81,10-8.57,13.41-14.16,6.57-10.75,6.83-21.08,6.95-26.03.47-17.56-6.96-30.58-10.18-35.37Z"/>
  <g>
    <path d="M184.17,164.45c1.28-15.12,4.67-16.78,5.72-32.38,1.06-15.78-1.41-28.88-3.69-37.53-.65,5.9-1.3,11.81-1.94,17.71-.41,4.57-1.34,11.6-3.81,19.79-3.86,12.87-8.51,18.73-14.09,30.12-1.86,3.8-4.8,9.81-7.45,17.13h0c2.02,2.43,4.1,4.84,6.22,7.18,7.42,8.23,15.47,17.17,25.53,25.02-4.61-15.71-7.99-29.21-6.49-47.04Z"/>
    <path d="M275.58,217.59c11.25-5.74,16.89-8.62,21.65-9.56,1.79-.36,3.72-.61,5.69-.75-4.16-4.2-9.99-10.08-16.91-17.03-17.84-17.92-21.04-21-24.82-27.85-8.51-15.44-8.87-29.95-8.9-32.99-.13-12.58,3.39-22.9,3.95-24.5,3.03-8.67,5.37-9.66,6.7-16.82,1.86-9.97-.73-18.46-2.02-22.5-2.82-8.87-5.19-8.36-9.96-20.18-3.31-8.21-5.46-13.73-4.59-20.73.86-6.84,4.19-11.92,6.55-14.85-3.13,1-7.91,3.12-10.81,7.8-2.14,3.46-2.7,7.44-1.16,20.01,1.9,15.44,3.67,16.95,4.1,26.64.45,9.87.67,17.01-4.22,21.99-5.31,5.4-13.31,4.87-13.95,4.81-2.3-.19-6.52-.53-8.89-3.71-3.04-4.07-1.23-10.36-.35-13.43,1.52-5.29,3.62-6.43,3.78-10.61.13-3.43-1.16-6.28-2.24-8.12-.65,2.03-1.68,5.07-3.13,8.67-3.96,9.78-5.98,11.12-7.63,16.26-3.16,9.82-.34,19.13.62,21.89,3.02,8.66,6.83,7.88,10.29,16.23,3.38,8.18,2.49,15.66,1.21,26.41-1.44,12.18-4.59,18.79-6.43,25.28-3.87,13.63-2,25.21,1.88,47.81.52,3.06,1.03,6.02,1.53,8.89,5.79,2.14,10.13,3,12.56,3.35,1.84.27,5.27.77,9.49.77,4.53,0,8.96-.58,13.17-1.71,3.71-1,5.27-1.88,9.43-4.24,2.89-1.64,6.85-3.89,13.41-7.23Z"/>
    <path d="M311.72,401.44c-10.48-4.55-14.7-14.04-16.29-17.61-1.76-3.96-2.81-8.2-3.15-12.59l-21.34-21.66c-3.16,1.66-8,3.65-13.93,4.4,3.1,5.08,6.15,9.82,9.05,14.32,12.42,19.21,18.63,28.81,26.33,32.94,7.13,3.82,15.2,5.37,23.71,5.12-.06-1.17-.15-2.34-.28-3.51-1.43-.38-2.8-.85-4.1-1.41Z"/>
    <path d="M373.91,342.95c-3.62,1.07-7.26,1.62-10.86,1.62s-7.3-.58-10.77-1.72c-3.06-.99-10.86-4.18-17.19-12.15-5.04-6.35-6.99-12.99-7.73-17.71l-9.41-9.41c-3.29,1.72-7.99,3.46-13.78,3.73-.52.02-1.04.03-1.54.03-1.56,0-3.12-.11-4.67-.33,1.5,1.59,3.02,3.16,4.54,4.72,4.11,4.19,8.37,8.35,12.67,12.35,5.53,2.88,10.83,6.27,15.75,10.09,7.1,5.51,12.22,9.49,16.28,16.37,7.4,12.52,6.77,23.19,4.93,29.93-.42,1.55-1.38,5.06-3.55,8.86.29,2.89.42,5.77.39,8.63,14.25-6.5,27.93-16.2,38.83-27.11-1.94-6.49-4.34-11.25-6.31-15.13-2.23-4.4-4.77-8.69-7.58-12.77Z"/>
    <path d="M403.94,308.03c-1.4.39-2.81.6-4.19.61h-.19c-.69.01-1.38-.04-2.07-.13.73,2.11,1.32,4.6,1.45,7.33,3.68,6.48,6.76,13.34,9.15,20.39.47,1.38.97,2.87,1.48,4.48,3.48-6.87,6.15-13.68,8.21-20.11-4.12-6.01-9.48-10.04-13.84-12.57Z"/>
    <path d="M424.13,223.44c.57-18.7,1.6-27.45-3.05-39.47-2.33-6.01-5.34-10.92-12.68-28.34-4.93-11.7-6.08-15.43-5.15-19.78,2.32-10.87,15.6-16.2,19.85-17.73-3.12-.29-12.7-.77-20.8,5.74-7.2,5.78-9.17,13.8-10.92,20.94-.59,2.42-2.8,12.16-.54,24.28,1.37,7.33,2.93,7.78,5.71,18.84,1.08,4.29,1.1,6.97.72,9.02-.51,2.71-1.21,4.63-1.98,6.38-1.26,2.84-2,4.53-3.29,4.7-1.56.2-3.02-1.95-4.29-3.83-2.2-3.26-3.07-6.23-3.11-6.34-1.29-4.4-4.56-8.95-11.1-18.03-4.76-6.63-6.87-8.38-10.54-13.03-2.61-3.3-11.6-15.06-16.76-31.66-2.59-8.31-5.93-19.05-3.18-32.03,2.15-10.16,7.13-17.42,12.2-24.8,7.19-10.48,10.65-11.4,16.17-20.02,5.57-8.7,8.38-17.66,9.83-25.5-1.71,3.19-4.51,7.81-8.78,12.68-3.54,4.04-6.64,6.59-12.03,10.92-15.5,12.48-15.49,12.01-18.12,14.4-7.68,6.97-11.15,14.06-17.17,26.39-5.42,11.07-10.87,22.23-12.78,37.66-2.02,16.4.88,30.21,3.01,39.96,4.23,19.33,10.49,29.91,8.12,35.34,1.38.52,2.73,1.12,4.05,1.79,2.72,1.38,3.75,2.31,7.57,5.77,2.39,2.16,5.99,5.42,11.93,10.56,8.7,7.53,13.07,11.31,15.38,12.79,4.8,3.08,14.79,9.49,28.25,10.95,2.01.22,3.47.26,4.76.3,2.29.06,4.27.12,7.42,1.15,7.94,2.59,13.69,7.14,17.09,13.53,2.03,3.8,3.05,7.99,3.04,12.45.77.56,1.52,1.14,2.26,1.74,1.14-15.82-2.32-17.67-1.09-57.72Z"/>
    <path d="M60.93,204.27c-2.03.55-4.07,1.1-6.1,1.65,1.6,5.16,4.11,11.9,8.19,19.18-.11-4.45-.47-8.86-1.09-13.62-.34-2.57-.66-4.99-1-7.21Z"/>
    <path d="M104.95,254.81c.55,2,3.65,12.62,11.29,25.62,2.54,4.35,5.35,8.55,8.38,12.5,1.61,2.11,3.14,3.96,4.54,5.51,6.47,7.15,9.54,7.16,10.56,7.16h.23c2.93-.09,4.7-1.93,6.96-4.76,1.51-4.84,2.03-9.71,1.54-14.48-.19-1.93-1.61-8.05-10.55-23.31-2.65-4.53-4.16-6.4-6.66-9.51-2.13-2.64-4.77-5.91-9.18-12.11-9.14-12.86-14.17-19.95-16.09-27.9-1.9-7.9-1.09-14.46.21-21.47-4.86,1.31-9.71,2.63-14.57,3.93,3.04,5.98,5.04,12.26,6.98,18.35,3.18,9.97,3.31,15.12,3.44,20.57.13,4.99.25,10.15,2.92,19.9Z"/>
    <path d="M135.72,448.14c-.8-2.14-1.32-4.23-1.64-6.23,2.01-.49,3.93-1.22,5.64-2.21,6.63-3.84,9.54-10.86,11.11-14.67,2.57-6.21,2.98-11.95,2.85-15.91-.25-.06-.51-.12-.76-.18-2.76-.66-5.42-1.43-7.89-2.29-1.7-.59-3.39-1.26-5.14-2.03h-.31c-6.51,0-14.39-5.36-24-12.37-.24-.17-.47-.34-.71-.51-3.05,2.04-3.89,2.2-5.82,4.4-6.23,7.14-12.5,22.72-4,35.12,1.19,1.72,2.58,3.23,4.1,4.56.8,5.63,2.62,12.46,6.57,19.44,2.13,3.77,11.51,20.35,31.55,25.33,13.64,3.39,25.08-.36,29.78-2.22-7-1.49-16.79-4.69-26.22-12-5.32-4.13-11.73-9.09-15.11-18.23Z"/>
    <path d="M444.16,327.7c-.13,5.18-.49,14.18-6.22,23.56-3.94,6.44-8.82,10.45-12,12.66.9-4.43,1.78-10.89,1.33-18.66-.33-5.75-.77-13.45-4.66-21.34-4.83-9.79-12.82-15.52-18.39-18.6-1.42.5-2.92.81-4.5.82-1.16.02-2.25-.12-3.23-.34-1.56-5.78-4.51-12.35-10.41-17.07-4.19-3.35-6.48-3.06-16.34-7.75-10.31-4.91-17.33-9.76-18.75-10.75-4.69-3.28-11.06-8.33-17.75-15.75,5.66,8.05,11.45,13.34,15.67,16.67,8.59,6.76,18.3,11.38,20.33,12.33,7.73,3.61,10.74,3.93,15,7.67,4.9,4.29,7.39,9.55,8.74,13.42.88,1.53,3.36,6.17,3.48,11.97,2.94,5.11,6.38,12,9.26,20.49,2.89,8.55,6.73,20.25,5.78,35.56-.35,5.6-1.07,15.47-6.67,26.67-4.37,8.72-9.91,14.67-13.71,18.19,1.93-8.92,2.38-16.57,2.38-22.19-.01-5.38-.08-13.18-2.67-22.89-2.06-7.72-4.81-13.23-7.11-17.78-2.98-5.89-6.09-10.75-8.82-14.58-4.87,1.68-12.87,3.4-21.85.47-1.66-.54-9.61-3.29-16-11.34-5.52-6.95-6.91-14.14-7.33-17.33-3.78-3.78-7.56-7.55-11.34-11.33-2.36,1.42-7.41,4.01-14.33,4.33-6.5.31-11.5-1.54-14-2.67,3.36,3.72,6.92,7.51,10.67,11.34,4.39,4.49,8.74,8.71,13,12.66,4.05,2.09,9.61,5.31,15.66,10,7.08,5.5,11.85,9.2,15.67,15.67,1.62,2.74,8.41,14.25,4.67,28-.46,1.67-1.42,5.2-3.72,8.96.77,6.86.91,16.47-1.95,27.37-3.71,14.19-10.64,23.49-14.33,28.34-3.13,4.11-8.51,11.06-17.8,17.49-10.64,7.35-20.95,10.25-27.2,11.51,10.67-9.21,17.36-18.54,21.33-25,4.56-7.43,10.11-16.46,12-29.67,1-6.96.7-13.13.03-18.01-1.85-.36-3.65-.91-5.36-1.66-5.47-2.37-9.06-6.2-11.44-9.7.07-1.51.05-3.06-.06-4.62l-.03-.49-.21-.44c-.37-.75-.67-1.41-.92-1.97l-.06-.13c-1.64-3.69-2.58-7.65-2.78-11.77l-.05-.96s-9.3-10.29-15.04-16.11l-4.78-4.78-3.26-3.43c-7.82-5.54-13.54-7.79-18.58-9.77-5.82-2.29-10.42-4.1-16.7-10.33-4.21-4.19-12.07-11.99-12.21-21.94-.06-4.02,1.16-6.23,2.69-9.01.93-1.69,1.94-3.52,2.77-5.87.86-2.46,1.18-4.41,1.38-5.8,2.35-16.06-5.25-27.35-5.25-27.35-.89-1.31-2.37-3.3-4.61-5.44-.42-.33-.84-.67-1.25-1-.46-.14-.91-.28-1.36-.42-.28.82-.61,2.04-.67,3.53-.07,1.77.28,3.08.42,3.64.79,3.3.5,6.78.34,8.61,0,0-.63,7.7-8.51,15.93-2.24,2.34-3.8,3.34-5.78,4.59-1.94,1.23-4.35,2.76-7.9,5.89-1.71,1.5-3.42,3.14-5.01,4.79-.49-.97-1-1.95-1.53-2.96-9.28-18.06-11.23-21.74-15-27.62-4.69-7.31-9.35-13.57-15.25-21.5-1.77-2.37-3.3-4.4-4.65-6.18-5.58-7.36-7.89-10.4-10.09-16.19-2.16-5.64-3.18-11.08-3.13-16.62.04-3.5.08-7.47,2.11-11.87l.12-.26c1.43-2.74,2.72-4.25,4.52-6.34.66-.77,1.36-1.59,2.18-2.61.37-.45.79-.96,1.21-1.52.47-.6.91-1.2,1.33-1.81,1.75,2.13,4.34,5.22,7.59,8.83,12.33,13.68,25.63,28.19,45.78,37.67,11.02,5.19,18.84,6.4,20.67,6.67,4.24.61,13.18,1.82,23.66-1,6.75-1.82,7.19-3.43,23.34-11.67,11.05-5.64,16.57-8.46,21-9.33,2.61-.52,15.79-2.87,28.66,3.66,3.97,2.02,3.61,2.69,19,16,8.81,7.62,13.21,11.43,15.67,13,4.9,3.15,15.28,9.81,29.33,11.34,5.69.62,7.22-.12,11.67,1.33,2.4.79,11.01,3.6,15.67,12.33,2.33,4.38,2.89,8.77,2.7,12.54,4.49,3.12,9.84,7.79,14.41,14.58,1.85,2.75,9.79,15.11,9.33,32.44Z"/>
    <path d="M298.73,384.99c-.41-.84-.74-1.58-1.01-2.18-2.25-5.05-2.85-9.65-3-12.67-7.78-7.88-15.56-15.77-23.34-23.66l1.26.3c-16.54-11.73-23.35-8.21-35.58-20.36-4.53-4.5-12.8-12.71-12.96-23.68-.13-9.02,5.35-10.42,6.87-21.07,2.29-16.01-7.61-30.39-8.56-30.11-.54.16,2.15,5.07,1.13,12.37-1.23,8.86-7.07,15.11-9.18,17.32-4.75,4.96-6.8,4.44-13.84,10.62-2.64,2.33-5.2,4.91-7.24,7.24-1-1.93-2.04-3.97-3.17-6.14-9.15-17.8-11.16-21.6-14.89-27.41-4.63-7.23-9.29-13.49-15.15-21.36-9.12-12.25-12.18-15.39-15.07-22.97-2.29-6-3.34-11.81-3.29-17.54.04-3.85.12-8.08,2.31-12.82.05-.12.12-.25.19-.4,2.12-4.1,4.07-5.79,6.94-9.34.36-.44.78-.95,1.22-1.54.95-1.23,2.07-2.79,3.23-4.75.35-.6,1.59-2.73,2.86-5.77,1.45-3.46,2.68-6.38,3.1-10.45.18-1.76.33-4.94-.5-8.74-.47-2.14-.96-4.35-2.55-6.79-1.95-3-4.5-4.69-6.01-5.53,1.23,2.97,2.87,8.28,1.76,14.63-.68,3.92-1.71,9.8-6.86,12.59-5.13,2.78-10.92.66-12.07.21-.62-.46-1.19-.9-1.71-1.34-1.74-3.63-1.47-6.94-1.42-8.92.11-4.2-.64-7.28-2.14-13.44-2.31-10.62-9.03-17.98-10.07-19.09-7.46-7.98-16.54-10.87-21.02-11.95,2.2,1.76,5.16,4.31,8.35,7.69,2.36,2.5,6.02,6.37,8.6,10.93.83,1.48,4.35,7.96,4.45,19.21.14,15.74-6.59,18.6-10.68,39.06-.29,1.46-.57,2.86-.83,4.2-1.52,7.95-2.27,14.07-.46,21.6,1.77,7.34,6.44,14.01,15.7,27.04,9.66,13.58,10.95,13.25,15.96,21.81,9.24,15.77,10.66,22.14,10.88,24.32.67,6.61-.57,12.16-1.79,15.92-2.36,2.99-4.79,5.93-9.12,6.07-2.43.08-6.13-.7-12.72-7.98-1.42-1.57-2.97-3.44-4.68-5.67-3.33-4.35-6.16-8.66-8.55-12.75-7.98-13.59-11.12-24.69-11.54-26.23-5.61-20.49-.32-21.55-6.31-40.31-2.01-6.3-4-12.55-7.08-18.5-2.61-5.05-5.99-9.87-10.83-14.31-9.26-8.5-14.78-7.34-23.65-17.75-1.56-1.83-7.66-9.23-11.44-20.77-3.21-9.82-3.32-18.33-2.98-23.58-1.71,4.11-3.77,10.44-4.24,18.37-.24,4.01-.72,13.73,3.79,24.03,5.35,12.21,11.77,11.68,18.35,23.94,2.95,5.5,4.17,10.3,5.21,17.03.35,2.26.68,4.74,1.05,7.53.96,7.32,1.2,13.06,1.16,18.23-.05,6.84-.58,12.66-.56,19.77.01,6.95.55,13.21,1.49,19.29-1.01-2.86-1.89-5.14-3.63-9.7-4.13-10.79-6.23-16.24-8.22-18.59-2.38-2.8-6.13-5.32-13.63-10.37-3.79-2.56-6.34-4.02-8.11-7.28-1.84-3.4-1.84-6.93-1.56-9.32-.75,1.35-1.72,3.52-1.87,6.27-.28,5.21,2.56,9.12,4.41,11.59,4.14,5.52,7.19,5.79,10.76,9.42,3.31,3.37,5.12,7.63,6.84,21.35,1.88,15.07.98,20.13,1.85,29.59,1.39,15.14,5.95,26.4,8.74,33.16,7.34,17.77,17.02,29.43,23.52,37.13,2.98,3.54,12.83,14.92,28.62,26.48.96.7,1.9,1.39,2.83,2.06,9.56,6.97,17.51,12.37,23.31,11.86,1.77.8,3.59,1.54,5.49,2.2,2.24.78,4.84,1.55,7.66,2.22,4.06.98,8.59,1.76,13.23,2.11,3.9,2.57,7.58,4.65,9.38,5.67,4.29,2.42,21.09,11.48,45.92,13.2,7.51.52,24.39.96,43.94-5.49,12.58-4.15,21.87-7.21,27.84-16.39,4.64-7.12,5.3-14.88,4.91-20.62Z"/>
  </g>
</svg>