<?xml version="1.0" encoding="UTF-8"?>
<svg id="b" data-name="spider_copy" xmlns="http://www.w3.org/2000/svg" viewBox="0 0 500 500">
  <defs>
    <style>
      .c {
        stroke: #000;
        stroke-miterlimit: 10;
        stroke-width: .28px;
      }

      .d {
        fill: #fff;
        opacity: .97;
      }
    </style>
  </defs>
  <path class="d" d="M418.56,225.84s-3.35-.52-4.48-.59c-.78-.05-3.12.03-3.12.03l-80.06,2.85c-.87-.25-1.77-.38-2.68-.38-3.94,0-7.4,2.34-8.93,5.81l-10.67,7.38-6.71,4.05s-2.53-4.1-4.08-5.17c-.87-.6-4.12-2.02-4.12-2.02-1.55-.33-3.15-.49-4.76-.49-2.62,0-5.19.44-7.64,1.3-2.02.71-3.92,1.69-5.66,2.92l16.94-51.56c.24-.55.42-1.12.55-1.69l1.64-5.02h-1.9l-.22-44.4c0-.76-.1-1.5-.28-2.21l.61-.35-1.32-1.5c-.65-1.25-1.59-2.32-2.75-3.14l-15.33-16.01,13.96-8.13-19.75,2.08-27.14-28.35,17.37,29.38-38.16,4.01c-2.25-3.44-4.9-6.68-7.92-9.66l17.47-66.92-42.26,52.18c-.56-.15-1.12-.29-1.67-.42-1.85-.42-3.67-.7-5.6-.86-1.02-.08-2.09-.12-3.16-.12-.93,0-1.88.03-2.85.09l-34.6-59.03,7.14,67.9c-3.58,2.18-6.87,4.69-9.83,7.5l-66.79-17.43,52.21,42.29c-.57,2.33-.98,4.68-1.22,7.03-.21,2.06-.3,4.17-.27,6.3l-58.87,34.5,66.85-7.02c2.34,3.8,5.13,7.29,8.35,10.41l-.26.99-22.6,9.22,21.28-4.18-.44,1.67h0s-8.55,32.77-8.55,32.77l-34.3,22.75,64.04-22.49c.31-.04.61-.1.91-.17l35.87,4.83,9.62,16.42-23.09-2.82c-1.37-.74-2.89-1.12-4.46-1.12h-.05l-.14-.5-1.34.63c-1.73.28-3.35,1.05-4.69,2.2l-65.25,30.63c-1.12.17-2.18.54-3.12,1.09l-.72-.53-1.28,2.13c-.82.88-1.47,1.93-1.88,3.11l-40.42,71.93,53.3-61.44c.63-.38,1.21-.83,1.72-1.34l63.37-28.84c.17,0,.33.01.5.01,1.39,0,2.76-.31,4.02-.9l.11.02c-3.75,3.46-6.89,7.46-9.3,11.88-7.26,13.35-5.65,26.26-4.79,33.23,1.24,9.99,4.9,19.8,10.57,28.37l1.24,1.87,2.22.32c3.42.5,6.88.75,10.29.75,2.07,0,4.16-.09,6.24-.28,19.45-1.76,35.22-9.52,44.74-21.96l-.3,11.53c-.88,1.21-1.47,2.6-1.72,4.08l-24.23,39.51c-1.93.73-3.58,2.11-4.62,3.92l-65.67,58.61,75.22-45.28c3.52-.7,6.31-3.47,7.05-6.99l28.45-40.9c.69-.63,1.29-1.35,1.78-2.15l.82-.8.09-1.11c.35-1.01.54-2.08.54-3.18,0-.56-.05-1.12-.16-1.69l1.9-24.28,18.05,21.89c.22,1.04.61,2.03,1.16,2.94v40.26c-.39,1.01-.59,2.09-.59,3.17l-37.63,69.13,53.24-63.01c.32-.35.62-.74.9-1.16l5.01-6.56-3.48-.55.74-46.28c0-.14,0-.28,0-.43l-.73-2.02-.98-3.09c-.23-.33-.48-.65-.75-.95l-20.37-25.93,3.51-.57,35.2,43.24c-.41,2.93.39,5.97,2.32,8.34,1.92,2.35,4.7,3.78,7.7,3.96l33.33,40.95c-.56,5.01.9,10.11,4.11,14.05,3.6,4.42,8.94,6.96,14.65,6.96h0c4.33,0,8.56-1.51,11.92-4.24,3.91-3.18,6.35-7.7,6.87-12.72.51-5.02-.96-9.94-4.14-13.85-3.23-3.97-7.87-6.42-12.93-6.88l-33.33-40.94c.41-2.93-.39-5.96-2.32-8.35-1.92-2.35-4.69-3.77-7.69-3.96l-25.58-31.42,23.08-3.72c1.03.36,2.11.55,3.19.55.17,0,.34,0,.52-.01l38.15,22.14c.6,1.54,1.61,2.9,2.93,3.91l38.62,62.19-24.24-70.48c-.07-.55-.19-1.09-.36-1.61l-1.07-1.87-2.13-2.59c-.38-.29-.79-.54-1.23-.77l-44.72-28c-.83-.74-1.77-1.32-2.77-1.74l-3.54-2.22-.35,1.5c-1.94.04-3.82.67-5.4,1.77l-28.86,4.29,30.58-20.97,82.88-4.66c.47.08.93.12,1.39.12.04,0,.08,0,.12,0l72.6,23.9-68.33-40.75ZM246.44,209.85l-4.26-15.33c-.01-.17-.03-.33-.05-.5l2.86-1.44-6.52-4.83-.38-.29-.06-.04-1.05-.78,35.81,9.34-11.31,32.34-15.03-18.47ZM211.02,211.43c-1.25-.6-2.65-.94-4.13-.94-.6,0-1.2.06-1.81.18h-.07s-.65-6.24-.65-6.24c1.46.87,3.11,1.38,4.84,1.49l17.85,21.92-10.94-10.28c-.69-2.56-2.42-4.7-4.7-5.94l.03-.14-.42-.05ZM228.25,148.19c.2-2.03.29-4.08.25-6.13l35.74-20.95,10.78,18.23c.09,1.58.61,3.1,1.48,4.41l-1.45,38.79c-.5,1.17-.75,2.42-.75,3.7,0,1.2.23,2.39.67,3.49l-1.22,3.49-46.73-37.85c.57-2.36.98-4.77,1.23-7.19ZM154.65,204.23l7.31-9.02c2.33.56,4.7.96,7.05,1.2,1.8.19,3.64.28,5.46.28.24,0,.48,0,.73,0l6.45,11-27-3.45ZM212.39,244.27c-.42,0-.77-.01-1.06-.01l-2.83-.35-1.1-10.46,11.38,11.46c-1.95-.34-4.09-.59-6.4-.65Z"/>
  <g>
    <polygon points="197.51 224.87 202.35 233.13 201.54 225.41 197.51 224.87"/>
    <path d="M225.75,196.63l-29.16-23c-.14.01-.28.01-.42.01-.71,0-1.4-.12-2.07-.35l-52.95,11.46-9.15,35.07,6.92-4.12,21.2-26.17c3.01.92,6.15,1.57,9.41,1.9,2.86.3,5.68.33,8.46.13l11.51,19.64,10.69,1.37-2.79-26.56c.47-.25.94-.51,1.41-.77l5.9,7.25c-1.01,1.99-.83,4.47.67,6.32,1.5,1.84,3.89,2.52,6.05,1.94l23.97,29.44-8.17-30.39c-.76-.92-1.27-2.01-1.48-3.17Z"/>
    <path d="M253.53,244.69c1.09-.13,2.18-.2,3.25-.2.48,0,.97.02,1.47.04.06.01.12.01.19.02l2.94-8.41-15.54-19.1,7.69,27.65Z"/>
    <path d="M217.27,119.94c-2.93-5.11-6.7-9.6-10.89-13.36l12.37-47.39-29.83,36.83c-1.53-.54-3.04-.99-4.52-1.33-2.12-.48-3.8-.66-4.88-.75-2.6-.2-5.41-.11-8.33.26l-24.5-41.8,5.06,48.11c-4.94,2.65-9.62,6.1-13.63,10.34l-47.17-12.31,36.78,29.79c-.93,2.94-1.61,6.05-1.95,9.36-.3,2.9-.32,5.77-.12,8.58l-41.5,24.32,47.07-4.94c2.84,5.34,6.66,10.12,11.23,14.08l-.34,1.3,50.05-18.63c1.13-.92,2.53-1.42,4-1.42,1.6,0,3.12.6,4.3,1.69l19.29,14.32,38.34,10-36.77-29.78c.94-3.05,1.6-6.23,1.94-9.52.29-2.89.3-5.69.08-8.41l39.84-23.35,1.7-.99-2.18.23-45.44,4.77Z"/>
    <polygon points="290.15 271.47 288.98 272.27 290.6 272.03 290.15 271.47"/>
    <path d="M385.48,379.57c-2.9-3.57-7.21-5.3-11.48-5.09l-36.43-44.75c1.01-1.99.83-4.47-.67-6.32-1.5-1.84-3.89-2.52-6.05-1.94l-30.87-37.92-18.7,3.01,36.85,45.27c-1.01,1.99-.83,4.47.67,6.31,1.51,1.85,3.9,2.53,6.05,1.94l36.43,44.76c-1.07,4.13-.25,8.7,2.66,12.27,4.84,5.95,13.59,6.84,19.54,2,5.95-4.84,6.84-13.59,2-19.54Z"/>
  </g>
  <path class="c" d="M469.44,258.7l-53.24-28.45h0c-.6-.35-1.29-.56-2.04-.56s-1.44.22-2.04.58h0s-81.98,2.91-81.98,2.91h0c-.59-.26-1.24-.41-1.93-.41-2.36,0-4.31,1.71-4.7,3.96l-48.84,33.78h0s0,0,0,0c.67-.99,1.23-1.88,1.65-2.59,1.11-.27,3.61-1.06,5.78-3.33.66-.68,2.39-2.5,2.95-5.24,1.46-.57,3.08-1.4,4.69-2.69,3.63-2.89,5.14-6.38,5.7-7.89-1.07,1.18-2.24,2.28-3.52,3.23-.55.42-2.15,1.57-4.11,2.4-.99.41-1.96.69-2.91.89-.88-3.19-3.3-5.28-3.91-5.81-.09-.08-.21-.18-.34-.29.86-1.06,1.9-2.11,3.2-3.02,1.74-1.22,3.57-1.96,4.22-2.21,1.49-.57,3.04-.98,4.61-1.26-1.58-.33-5.34-.9-9.72.63-2.73.96-4.77,2.41-6.16,3.67-1.17-.39-2.52-.6-4.03-.42-2.1.25-3.69,1.18-4.69,1.94l19.8-60.26h-.02c.31-.61.5-1.29.5-2.02s-.18-1.39-.48-2l-.23-45.38c0-1.73-1.16-3.18-2.74-3.65l.31-.18-25.09-28.61,19.95,31.61h0c-.06.27-.1.55-.1.84,0,1.27.62,2.38,1.57,3.08h0s-1.56,41.87-1.56,41.87h0c-.45.7-.72,1.53-.72,2.43,0,1.15.44,2.19,1.15,2.99l-20.29,58c-.76-.11-1.45-.17-2.04-.2-2.27-.12-4.41.08-6.4.48h0s-14.5-52.18-14.5-52.18c0-1.44-.69-2.71-1.74-3.55h.02s-.26-.2-.26-.2c0,0-.02-.01-.03-.02l-36.34-26.97h0c-.69-.68-1.64-1.1-2.69-1.1s-2,.42-2.69,1.1h0s-40.31,15.01-40.31,15.01l41.17-8.91v-.02c.54.3,1.16.49,1.83.49.39,0,.75-.07,1.11-.18v.02s30.85,24.34,30.85,24.34c0,1.27.52,2.41,1.36,3.24h0s13.83,51.44,13.83,51.44l.13.49c-1.84.97-3.34,1.96-4.42,2.72l4.29-3.21-31.88-29.97c0-2.51-2.03-4.54-4.54-4.54-.53,0-1.04.11-1.51.28v-.02s-48.88-6.25-48.88-6.25v.35c-.48-.22-1.02-.35-1.58-.35-1.14,0-2.15.51-2.85,1.3h0s-36.06,21.45-36.06,21.45l38.92-15.08c.57,0,1.1-.13,1.58-.35h0s47.1,6.34,47.1,6.34h0c.49.51,1.1.9,1.79,1.14h-.01s30.8,31.04,30.8,31.04l.14-.11c-.96.78-1.75,1.49-2.33,2.04-2.56-2.18-4.97-3.58-6.77-4.47-1.22-.6-6.88-3.32-14.92-3.54-.57-.01-1.01-.01-1.3-.01,0,0,0,0-.01,0h.01s-33.33-4.08-33.33-4.08v.02c-.77-.6-1.73-.97-2.78-.97-1.35,0-2.55.6-3.38,1.53h0s-66.76,31.33-66.76,31.33c-1.82,0-3.33,1.27-3.72,2.96h0s-24.35,40.37-24.35,40.37l29.43-35.91h0c.76-.29,1.41-.8,1.85-1.46h0s65.72-29.91,65.72-29.91v-.02c.39.11.8.19,1.23.19,1.14,0,2.18-.44,2.98-1.14l13.93,2.28c-6.94,3.71-13.43,9.43-17.69,17.24-6.5,11.95-5.03,23.7-4.22,30.22,1.54,12.36,6.59,21.41,9.78,26.23,3.59.52,8.93,1.01,15.33.44,5.2-.47,29.57-2.64,42.67-22,2.3-3.41,5.59-9.33,7.11-18,.43-.02.87-.06,1.31-.1-.19.52-.31,1.07-.31,1.66l-.92,34.96h.02c-1.1.88-1.83,2.22-1.83,3.74l-25.94,42.3c-1.74,0-3.21,1.12-3.76,2.67h0s-44.2,36.99-44.2,36.99l47.97-31.67c2.21,0,4-1.79,4-4l28.88-41.52-.47-.32c1.8-.69,3.08-2.41,3.08-4.45,0-.48-.09-.94-.23-1.38h.02s2.92-37.33,2.92-37.33c0-.13-.03-.26-.04-.39.07.1.16.19.24.29l-.2.1,26.85,32.56c0,1.3.53,2.48,1.37,3.35h0v43.01h0c-.38.61-.6,1.32-.6,2.09,0,.38.07.74.17,1.09h-.02s-25.45,43.25-25.45,43.25l32.11-41.49c.23-.23.42-.49.59-.77l.05-.06h-.01c.35-.59.56-1.28.56-2.01l.78-48.44c0-1.28-.51-2.44-1.33-3.3h0s-26.47-33.69-26.47-33.69l-.17.09c-.02-.08-.05-.17-.08-.25.78.55,1.72.87,2.74.87.47,0,.92-.09,1.35-.22l63.48-10.23c.73.45,1.58.72,2.5.72.52,0,1.02-.1,1.49-.26v.02s41.57,24.13,41.57,24.13c0,1.6.95,2.97,2.31,3.61h0s24.98,44.61,24.98,44.61l-19.28-48.22c0-1.62-.97-3.01-2.35-3.64h0s-45.29-28.36-45.29-28.36h0c-.87-.89-2.08-1.44-3.42-1.44s-2.6.59-3.47,1.51l-51.67,7.68,49.59-34.01,84.89-4.78h0c.34.08.69.14,1.05.14s.73-.07,1.08-.17l-.02.17,54.22,21.01ZM208.33,276.84c-3.57.81-6.8,1.76-9.66,2.75-1.28,2.13-2.6,4.58-3.84,7.33-1.57,3.5-2.69,6.78-3.5,9.67-2.5-2.13-5.39-4.95-8.22-8.56-2.31-2.94-4.09-5.78-5.44-8.27,2.79-1.21,5.86-2.4,9.22-3.5,3.09-1.02,6.03-1.84,8.78-2.5,1.55-2.61,3.34-5.39,5.41-8.25,1.89-2.61,3.77-4.97,5.59-7.09,2.06,1.71,4.57,4.11,7,7.34,2.59,3.45,4.26,6.75,5.33,9.33-3.22.33-6.8.88-10.67,1.75ZM254.01,286.85c.14-.04.27-.09.41-.13,0,.09-.03.17-.03.26,0,.13.03.26.04.39-.13-.18-.27-.35-.42-.51Z"/>
</svg>