<?xml version="1.0" encoding="UTF-8"?>
<svg id="a" data-name="Layer_1" xmlns="http://www.w3.org/2000/svg" viewBox="0 0 403.9 474.38">
  <defs>
    <style>
      .b {
        fill: #fff;
      }
    </style>
  </defs>
  <path class="b" d="M51.06,334.6c-.47,0-.96,0-1.44-.01-4.19-.06-6.9-.4-11.53-1.43-6.54-1.45-14.86-4.14-17.35-8.76-.74-1.37-.98-2.85-.72-4.29-.57-.21-1.18-.49-1.92-.84-2.49-1.21-4.33-2.57-6.8-5.02-5.64-5.61-9.12-12.87-8.88-18.51.18-3.98,1.47-6,4.93-7.71.53-.26,1.11-.53,1.74-.81-3.26-2.49-5.87-6.41-7.57-11.49-2.22-6.65-2.02-11.04.59-13.05,1.11-.83,2.1-1.15,5.58-1.39,1.32-.1,4.27-.41,6.5-.7.92-.12,1.84-.24,2.76-.36-.63-.94-1.19-1.91-1.68-2.88-.03-.06-3.7-7.67-2.61-11.28h0c1.15-3.65,4.42-3.65,7.58-3.65,1.25,0,3.01.02,5.43.05,2.03.03,4.14.04,6.34.04,22.74,0,53.25-1.34,74.19-3.26,3.82-.35,3.92-.38,4.9-.72.5-.17.92-.34,1.13-.44.48-.31,1.6-.9,4.44-2.02,1.57-.63,2.67-1.11,3.02-1.27.31-.18.69-.37,1.14-.54.38-.32.86-.7,1.28-.99.31-.25,1.36-1.19,2.57-2.35,1.84-1.77,4.39-3.97,6.29-5.14.13-.13.31-.33.49-.56.58-.72,1.77-2.11,2.64-3.13.73-.85,1.44-1.69,1.7-2.01l.96-1.29c.88-1.17,2.8-3.55,4.75-4.93.15-.3.3-.62.39-.8.6-1.26,1.48-2.97,1.98-3.78.34-.54.97-1.6,1.43-2.4.57-.95,1.48-2.38,2.11-3.25.43-.59.92-1.37,1.04-1.6,1.14-2.11,3.86-5.21,6.44-7.92-.11-.12-.21-.24-.32-.36,0,0-1.61.02-2.01.02-2.05,0-2.9-.13-4.54-.69-2.26-.77-3.8-1.69-5.84-3.13-3.4-2.41-8.01-7.41-9.85-11.31-5.18-.88-7.4-1.43-9.07-2.23-4.28-2.06-9.37-9.03-11.7-12.82-.36-.59-.83-1.34-1.15-2.2-2.06-.88-4.28-1.91-6.47-3.01-8.18-4.13-13.42-8.2-15.98-12.42-.74-.25-1.76-.57-2.99-.95-1.77-.54-5.48-1.71-6.85-2.29-6.88-2.9-15.08-8.93-19.45-14.31-2.76-3.38-5.41-7.9-3.59-11.29-11.98-6.51-20.15-14.94-22.61-23.44-.45-1.56-1.29-4.46.49-6.83.06-.08.13-.16.19-.24-7.09-6.15-11.81-12.27-13.12-17.19-.23-.87-.86-3.21.76-5.32.45-.58,1-1.05,1.63-1.39-5.51-4.49-9.28-8.71-11.18-12.55-.61-1.24-2.19-4.47.29-7.16l.14-.15c.97-.97,2.28-1.5,3.69-1.5.29,0,.59.02.93.07-3.75-4.49-7.04-9.77-6.37-13.94.79-4.81,4.95-4.95,5.42-4.95,1.57,0,2.71.54,5.44,1.83,11.88,5.65,24.59,10.95,41.22,17.16,30.93,11.56,71.39,24.37,100.68,31.88,2.41.62,4.95,1.24,7.2,1.76,0-4.87,1.43-6.27,2.08-6.86.97-.91,2.21-1.41,3.53-1.41,2.59,0,3.98,1.75,5,3.03.77.97,2.03,2.63,4.19,5.47,4.99,6.57,9.7,12.49,12,15.09,1.32,1.51,2.49,2.58,5.45,4.98,1.8,1.46,6.51,4.91,10.57,7.83.37-1.76,1.04-3.41,2.25-4.48-.14-3.34.33-6.72,1.44-8.89.82-1.59,1.88-2.44,2.85-2.89-.36-2.96-.26-6.42,1.66-8.27,1.32-1.32,2.89-1.53,3.7-1.53,1.07,0,1.92.3,2.64.7-.96-2.36-1.85-4.62-2.57-6.59-1.75-4.78-3.74-11.77-4.36-15.26-.68-3.91-.58-8.82.27-13.13.4-2.01,1.23-6.17,5.59-6.17,3.03,0,4.41,2.27,5.33,3.77,1.7,2.79,3.6,5.62,5.72,8.53-.16-1.01-.29-1.99-.38-2.91-1.14-11.48-1.34-14.41-1.36-19.6-.02-6.99.58-10.96,2.15-14.16,1.53-3.06,3.53-4.6,5.95-4.6h.76l.96.29.19.08c1.93.77,2.74,2.33,3.59,4.29,3.56,8.16,8.51,18.16,14.31,28.92.11.2.21.39.32.59.03-1.98.08-3.58.15-4.39.29-3.37,1.24-8.95,2.02-11.96,1.81-6.99,5.36-15.32,8.62-20.25,3.11-4.74,5.21-5.4,7.02-5.4h.79l.69.22c2.25.66,3.55,2.52,3.86,5.53.7,7.09,1.38,12.11,3.62,26.27.47-1.38,1.02-2.67,1.74-4.09,3.65-7.17,7.73-13.2,11.5-16.99,2.35-2.35,4.04-3.41,5.21-3.88l.85-.4h1.15c.19-.01,4.74.05,5.11,5.25.05.63.09,1.68.14,3.49.1,3.53.25,10.36.51,22.76l.1,4.47c.36,16.88.61,29.9.73,37.58.81-.51,1.91-1.15,3.42-1.15h2.71l1.56,2.31c1.6,2.45.68,4.53-.58,7.4-1.75,3.98-2.8,7.08-3.21,9.48-.17,1-.57,2.6-1.15,3.71-.63,1.21-2.03,3.36-7.04,10.26-2.97,4.1-5.05,7.03-6.56,9.27h.05c7.98.69,22.53,4.26,31.14,7.64,3.25,1.28,4.89,2.12,6.63,4.05,1.34,1.49,3.98,5.5,5.28,7.83,1.33,2.38,3.48,6.77,4.16,8.66.67,1.88.77,2.88.88,5.46l.06,1.26c.71,1.09,1.73,2.95,2,4.94.12.84.23,1.29.29,1.49,4.28,4.83,10.75,16.16,14.55,28.09.91,2.89,1.56,5.92,1.91,9.02l1.53,13.35-9.89-9.1c-.44-.4-.87-.81-1.3-1.22l-.69-.65c-.94-.92-2.46-2.41-4.32-4.26-2.07-2.07-3.68-3.74-5.1-5.2-.64-.67-1.24-1.28-1.82-1.87.12.3.25.6.39.92.97,2.31,2.56,6.04,4.63,10.76l6.49,14.76-13.7-8.49c-2.21-1.37-4.21-2.9-6.11-4.68-4.46-4.2-8.94-11.87-13.26-19.29-.13-.2-.78-1.01-1.76-1.82-.57-.02-1.1-.1-1.61-.25l-.83-.26-1.29.14c-1.54.16-2.88.22-4.83.22-.84,0-1.82-.01-3.01-.03-2.45-.05-5.63-.14-6.69-.21-.22-.01-.42-.03-.61-.04-.15.12-.31.25-.38.31-1.12.93-1.16.96-2.94,3.39-1.71,2.32-4.15,5.19-6.7,7.87-1.23,1.28-2.85,3.12-3.62,4.05-3.62,4.43-4.92,5.65-9.89,9.35-.78.59-1.84,1.09-2.84,1.35-.31.21-1.07.78-2.66,2.3-1.13,1.09-2.86,2.58-3.92,3.27-2.85,1.86-5.1,3.24-6.68,4.1-.47.25-.6.33-.63.36-.16.13-.78.85-.99,1.09-1.81,2.11-5.25,5.33-7.2,6.75-.39.29-1.15.87-1.64,1.26-2.78,2.18-5.01,3.7-6.83,4.65-.88,1.63-2.31,2.51-3.91,3.49-2.08,1.29-3.51,2-4.52,2.4-.36.32-.9.82-1.56,1.47-.31.3-2.83,2.74-3.98,3.57-.53.38-1.44,1.03-2.04,1.48-1.05.77-1.81,1.19-2.35,1.43-.28.18-.85.57-1.59,1.13-1.21.92-3.06,2.21-4.19,2.92l-.47.31c1.68,1.51,3.06,3.37,3.79,5.21.94,2.31.88,6.05.28,8.32-.07.32-.21,1.41-.28,2.56-.1,1.39-.3,3.42-.48,4.5-.07.46-.22,2.07-.26,3.52l-.13,3.98-2.04,3.49c-1.32,2.25-2.16,3.82-2.5,4.67-.48,1.19-1.12,2.13-1.89,2.8-.78.68-1.76,1.22-5.25,2.5-1.09.4-4.74,2.21-5.51,2.71-.86.57-2.05,1.05-3.06,1.23-.02,0-.04,0-.06.01l.86,1.72,1.81,1.03c1.04.59,1.88,1.05,2.55,1.42,2.69,1.47,5.01,2.75,5.37,6.3.06.56.14,1.33.23,2.17.44,4.11.62,5.97.62,6.88v3.94l-7.75,1.87c-1.82,2.26-4.25,4.19-7.75,5.13-1.99.54-4.16.62-5.28.62-2.59,0-5.45-.31-7.1-2.59-.75-1.04-1.09-2.31-.96-3.56-1.64-.99-3.12-2.25-4.31-3.4-.83-.81-1.86-1.82-2.55-3.03-1.21-.59-2.22-1.53-2.93-2.76-1.12-1.95-1.39-4.51-.69-6.67,1.12-3.45,2.51-5.2,4.22-6.34-2.13-2.19-5.79-5.72-7.35-7.07-.11,0-.22,0-.33,0-1.75,0-3.94-.86-5.22-2.52-.14-.12-.33-.28-.58-.47-.95-.74-2.47-2.13-3.51-3.2-.85-.87-2.62-2.64-3.91-3.91l-1.13-1.1-.15-.02c-1.13-.12-2.8-.37-3.8-.61-.02,0-.04,0-.06-.01-.97.32-1.91.36-2.75.36-.28,0-.62,0-1.01-.02-3-.07-5.34-.53-7.13-1.41-.16,0-.42.03-.89.13-2.11.47-2.97.84-3.21.96-1,.87-2.75,2.04-3.12,2.28-1.13.76-2.23,1.51-3.5,1.9-.52.51-1.28,1.28-1.84,1.86-5.7,5.83-13.62,14.12-24.23,25.36-5.96,6.31-11.99,12.65-13.45,14.12l-3.58,3.62-2.86.66c-3.73.85-9.7,1.4-15.23,1.4-1.94,0-4.73-.07-7-.43-1.65-.25-3.71-.72-5.6-1.56-2.87,1.62-6.99,3.72-8.59,4.24-.69.23-1.65.46-2.23.57l-.16.03c-.64.1-1.9.15-3.75.15Z"/>
  <path class="b" d="M221.63,393.61l-4.79-4.79c-1.14.28-2.31.43-3.49.43-3.83,0-7.42-1.49-10.13-4.19-3.62-3.62-4.96-8.82-3.77-13.61l-4.35-4.35-80.77,1.3,70.6-39.26,1.75-6.54c-3.43-3.55-4.87-8.72-3.55-13.67,1.32-4.94,5.16-8.71,9.91-10.07l1.59-5.94-41.51-69.3,69.3,41.51,6.54-1.75c1.36-4.75,5.12-8.58,10.07-9.91,1.21-.33,2.46-.49,3.71-.49,3.76,0,7.32,1.49,9.96,4.04l5.94-1.59,39.26-70.59-1.3,80.77,4.79,4.79c1.14-.28,2.31-.43,3.49-.43,3.83,0,7.42,1.49,10.13,4.19,3.62,3.62,4.96,8.82,3.77,13.61l4.35,4.35,80.77-1.3-70.59,39.26-1.75,6.54c3.43,3.55,4.87,8.72,3.55,13.67-1.32,4.94-5.16,8.71-9.91,10.07l-1.59,5.94,41.51,69.3-69.29-41.51-6.54,1.75c-1.36,4.75-5.12,8.58-10.07,9.91-1.21.33-2.46.49-3.71.49-3.76,0-7.32-1.49-9.96-4.04l-5.94,1.59-39.26,70.6,1.3-80.77Z"/>
  <path d="M214.26,314.77c.16.88.15,1.21-.07,2.07l3.12-.75c0-1.06-.61-6.34-.83-8.55-.12-1.21-.69-1.19-5.42-3.88l-3.13-1.78-1.6-3.21c-.88-1.76-2.21-4.38-2.95-5.81-.73-1.42-1.29-2.64-1.24-2.69.06-.06.73.09,1.5.32,2.97.89,5.38,1.32,6.4,1.14.33-.06.9-.29,1.25-.52,1.14-.73,5.09-2.68,6.48-3.19,2.14-.79,3.42-1.34,3.7-1.59.15-.12.38-.53.53-.9.44-1.09,1.32-2.76,2.82-5.32l1.4-2.4.09-2.72c.05-1.5.2-3.37.33-4.17.13-.79.32-2.59.42-4,.09-1.41.29-2.99.44-3.52.4-1.49.36-4.09-.09-5.2-.72-1.81-2.76-3.92-4.7-4.87-1.4-.67-2.74-.94-4.35-.87l-1.43.07.46-.36c.25-.2.81-.56,1.26-.8.44-.23,1.89-1.14,3.21-2.01,1.32-.87,3.21-2.1,4.19-2.74.99-.63,2.74-1.85,3.88-2.71,1.15-.86,2.25-1.6,2.45-1.65s.88-.46,1.51-.92c.62-.46,1.56-1.14,2.08-1.51.51-.37,2.04-1.76,3.4-3.08,1.35-1.33,2.58-2.41,2.72-2.41.42,0,2.35-.98,4.26-2.16,1.86-1.14,2.1-1.36,2.27-2,.15-.62.52-.95,1.74-1.56,1.57-.79,3.68-2.23,6.24-4.24.53-.42,1.34-1.04,1.81-1.39,1.65-1.2,4.83-4.2,6.35-5.97,1.41-1.64,1.67-1.86,3.02-2.58,1.36-.74,3.46-2.02,6.34-3.9.66-.43,2.1-1.64,3.2-2.7,2.38-2.27,3.84-3.35,4.73-3.49.36-.06.91-.3,1.24-.55,4.65-3.46,5.62-4.37,9-8.5.89-1.09,2.63-3.05,3.87-4.34,2.44-2.56,4.72-5.24,6.29-7.38,1.98-2.7,2.27-3.03,3.8-4.3,1.8-1.48,2.04-1.56,4.51-1.4.86.06,3.76.15,6.44.2,3.83.07,5.38.03,7.21-.16l2.32-.25,1.76.55c.27.08.74.05,1.36-.06h.01c.49.2.95.44,1.34.73,1.68,1.24,3.02,2.76,3.56,3.67,4.03,6.91,8.45,14.48,12.36,18.16,1.08,1.01,2.83,2.53,5.33,4.08-1.93-4.39-3.51-8.09-4.66-10.83-3.27-7.74-4.33-10.6-4.75-11.75-.88-2.41-1.61-4.55-2.18-6.31.78.01,1.4.15,1.81.45,2.91,2.18,5.37,4.19,7.59,6.16,4.31,3.8,6.48,6.41,12.19,12.11,1.85,1.84,3.36,3.32,4.29,4.23.63.59,1.25,1.18,1.88,1.76-.42-3.66-1.19-6.43-1.71-8.07-3.64-11.43-9.99-22.44-13.73-26.52-.62-.68-1.01-1.85-1.3-3.9-.12-.87-.66-2.07-1.42-3.17l-.56-.82-.12-2.69c-.1-2.4-.17-2.82-.59-3.99-.52-1.46-2.5-5.56-3.81-7.9-1.23-2.2-3.68-5.86-4.63-6.92-1.01-1.12-1.86-1.61-4.74-2.74-8.1-3.18-22.32-6.67-29.73-7.31-1.91-.16-5.24-.05-7.69.26-.43.06-.76.03-.76-.05,0-.29,1.45-2.96,2.7-4.97,1.65-2.66,4.2-6.32,8.63-12.43,4.11-5.66,6.06-8.49,6.65-9.63.23-.44.52-1.45.65-2.24.48-2.81,1.64-6.28,3.56-10.65,1.33-3.02,1.33-3.08-.03-2.22-2.31,1.45-5.18,4.69-6.72,7.55l-.5.94-.11-1.1c-.05-.6-.1-2.85-.1-5,0-4.23-.3-20.74-.8-44.2-.71-33.2-.65-31.06-.95-31.06-.37,0-2.27,1.48-3.58,2.79-3.4,3.41-7.19,9.04-10.58,15.71-1.65,3.27-2.3,5.61-3.46,12.64-.73,4.36-1.52,10.3-2.24,16.72-.27,2.42-.53,4.43-.57,4.47-.12.12-.2-.3-.63-3.58-.6-4.59-1.31-9.22-3.37-22.17-2.97-18.61-3.72-23.91-4.52-32.01-.07-.69-.2-1.22-.31-1.25-.37-.12-1.7,1.32-2.9,3.15-2.97,4.49-6.26,12.24-7.95,18.75-.72,2.76-1.61,8.02-1.88,11.12-.23,2.75-.24,16.37-.01,20.41.08,1.37.09,2.54.03,2.62-.18.21-4.95-8.14-9.87-17.27-5.86-10.87-10.88-21.02-14.49-29.29-.38-.87-.77-1.61-.87-1.65-.29-.09-.98.74-1.51,1.8-1.18,2.4-1.66,5.85-1.64,11.93.02,4.98.21,7.74,1.34,19.13.57,5.73,2.72,13.7,5.99,22.21.49,1.26.88,2.39.88,2.53s-.25-.04-.6-.43c-.33-.37-1.9-2.13-3.49-3.92-7.28-8.19-12.97-15.7-17.36-22.91-1.19-1.95-1.21-1.95-1.75.76-.73,3.7-.83,7.96-.25,11.29.56,3.18,2.5,9.95,4.13,14.41,2.05,5.6,5.43,13.58,8.07,19.08.67,1.4,1.17,2.58,1.12,2.64-.26.25-8.57-5.19-12.91-8.47-.94-.7-1.05-.75-1.28-.52-.32.31-.33,3.24-.03,5.04.44,2.6,1.65,6.65,2.45,8.22.17.34.28.65.23.7-.04.04-.66-.47-1.38-1.14-2.21-2.07-4.03-3.62-4.26-3.62-.12,0-.36.29-.54.64-1.37,2.68-1.19,9.22.33,12.2.18.36.29.68.24.73-.05.05-.69-.5-1.42-1.22-.74-.71-1.45-1.3-1.58-1.3-.69,0-1.15,2.63-1.17,6.6,0,2.16-.06,3.17-.18,3.17-.41,0-14.79-10.36-18.08-13.03-3.17-2.57-4.51-3.79-6.05-5.55-2.45-2.77-7.26-8.83-12.23-15.37-5.03-6.61-5.1-6.69-5.32-6.47-.27.25-.5,1.74-.5,3.22,0,1.58.32,3.25.97,5.07.25.71.43,1.33.4,1.36-.16.16-8.34-1.69-14.81-3.35-29.27-7.5-70.27-20.48-101.19-32.04-16.77-6.27-29.53-11.58-41.61-17.33-3.54-1.68-3.6-1.69-3.78-.6-.54,3.32,5.69,11.64,13.95,18.63,1.28,1.08,4,3.16,5.02,3.84.22.14.36.3.31.35-.13.14-9.11-2.17-15.9-4.08-2.03-.57-2.91-.76-3.03-.64-.12.13.03.57.51,1.55,1.62,3.26,5.22,7.19,10.42,11.35,5.61,4.49,13.81,9.79,21.69,14.02.88.47,1.51.89,1.41.92-.1.03-2.15-.45-4.56-1.08-10.33-2.7-15.91-4.39-18.44-5.58-1.59-.74-1.71-.69-1.37.58,1.44,5.42,9.02,13.52,19.45,20.82,1.14.8,2.87,1.95,3.83,2.54.97.6,1.65,1.11,1.51,1.14-.13.03-2.97-.6-6.3-1.4-3.32-.8-6.15-1.45-6.27-1.45-.34,0-.27.91.19,2.5,2.25,7.77,10.8,15.9,23.05,21.91,3.79,1.86,5.83,2.65,12.25,4.73,8.64,2.81,8.32,2.7,7.76,2.71-.26.01-1.09-.09-1.84-.23-6.71-1.18-18.52-2.44-18.93-2.02-.48.47,1.05,3.48,2.99,5.86,3.85,4.74,11.4,10.28,17.54,12.87.84.36,3.68,1.3,6.32,2.1,2.65.8,4.88,1.56,4.97,1.68.09.13.4.67.7,1.2,1.96,3.44,6.65,7.04,14.11,10.81,3.2,1.61,6.52,3.09,9.25,4.11.94.35,1.78.71,1.87.79.09.09-.29.15-.98.15-1.66,0-1.68.11-.51,2.01,3.09,5.02,7.3,9.82,9.6,10.93,1.19.57,3.35,1.07,8.15,1.88,1.89.31,3.54.61,3.65.64.16.05.08.23-.27.63-.48.55-.48.57-.24,1.14,1.15,2.77,5.17,7.41,8.35,9.67,1.96,1.38,3.02,1.96,4.58,2.49,1.26.43,1.39.44,4.37.41l3.07-.03.63.93c.87,1.27,2.69,2.95,3.78,3.48l.91.45-2.15,2.18c-3.79,3.83-6.56,7.07-7.4,8.63-.27.5-.9,1.48-1.4,2.17-.51.7-1.32,1.96-1.82,2.8-.49.85-1.17,1.99-1.51,2.53-.34.55-1.11,2.03-1.72,3.31-1.02,2.13-1.15,2.32-1.66,2.49-.58.19-2.64,2.31-3.98,4.08-.39.52-.85,1.14-1.02,1.37-.18.22-1,1.21-1.84,2.18-.84.98-1.99,2.33-2.55,3.02-.56.69-1.23,1.37-1.49,1.51-1.21.67-3.56,2.58-5.71,4.64-1.29,1.24-2.67,2.48-3.07,2.77-.4.28-.99.75-1.32,1.05-.33.29-.73.53-.88.53s-.5.14-.76.3c-.27.16-1.89.85-3.6,1.54-1.72.68-3.35,1.41-3.61,1.61-.27.2-1.25.62-2.17.93-1.54.53-2.01.6-6.07.97-23.47,2.15-58.04,3.53-81.04,3.24-6.44-.08-8.13-.06-8.18.1-.22.64,1.24,5.4,2.32,7.56,1.46,2.94,3.84,5.84,6.3,7.7.65.49,1.18.94,1.18,1,0,.1-2.36.43-12.39,1.72-2.29.3-5.35.62-6.81.73-1.46.1-2.75.27-2.87.36-.48.37.15,4.67,1.1,7.51,2.04,6.11,5.45,9.95,9.7,10.93.9.21,1.68.18,10.25-.49,9.54-.74,10.27-.78,10.11-.63-.05.05-1.78.52-3.86,1.04-9.55,2.39-18.54,5.34-22.89,7.51-1.83.91-2.06,1.29-2.16,3.45-.18,4.22,2.8,10.16,7.4,14.74,2.08,2.06,3.47,3.1,5.46,4.07,1.9.92,2.32,1.02,5.44,1.37,1.32.15,2.43.3,2.46.33.04.03-.41.59-.98,1.24-1.18,1.36-1.96,2.45-2.2,3.08-.87,2.29,5.23,5.51,14.17,7.49,4.32.96,6.64,1.25,10.57,1.31.44.01.89.01,1.32.01,1.43,0,2.66-.04,2.99-.09.43-.08,1.15-.26,1.59-.41,1.59-.52,8.24-4,9.81-5.13.31-.22.38-.21.8.14,1.13.95,3.25,1.71,5.9,2.12,4.83.75,15.05.3,20.34-.91l1.44-.33,2.55-2.58c1.41-1.43,7.42-7.74,13.37-14.04,10.81-11.45,18.62-19.62,24.29-25.42,2.8-2.86,3.06-3.09,3.58-3.08.44,0,.99-.28,2.56-1.34,1.1-.73,2.32-1.62,2.7-1.98.77-.7,2.54-1.36,5.31-1.98,1.81-.4,3-.33,4.13.24,1.09.55,2.84.87,5.09.92,1.61.04,2.01,0,2.36-.23.53-.35.91-.34,2.5.04.71.17,2.14.39,3.17.5l1.88.2,2.38,2.33c1.31,1.29,3.11,3.09,4,4,.88.91,2.24,2.15,3.02,2.76.77.61,1.41,1.18,1.41,1.27,0,.2.86.64,1.28.64.18,0,.55-.11.81-.25.47-.24.49-.24,1.87.72,1.58,1.09,9.94,9.25,10.57,10.32.31.52,1.32,3.33,1.32,3.67,0,.06-.64.2-1.74.64-2.41.97-3.44,1.22-4.61,4.83-.37,1.15-.05,3.21,1.42,3.53,1.3.28,1.54-.97,1.64-1.08l.94-3.65c.5,0,.93.11,1.2.3.62.43,2.38,1.3,3.31,1.63,1.88.65,3.24,1.44,3.68,2.11.24.35.87,1.11,1.39,1.67.56.6.93,1.14.9,1.3-.03.16-.55.49-1.33.83-1.19.53-1.39.56-2.88.56-1.41-.01-1.81-.08-3.31-.6-.94-.32-2.15-.8-2.7-1.08-1.71-.86-1.5-.26.63,1.82,2.42,2.34,4.86,3.79,6.4,3.79.33,0,2.29-.51,4.34-1.12,2.06-.62,3.84-1.12,3.95-1.12.29,0,.27.09-.11.77-.63,1.13-3.24,2.72-6.87,4.2-1.01.41-1.86.82-1.89.92-.26.79,4.45.96,7.06.25,3.22-.87,5.39-2.99,7.58-7.39l1.18-.04ZM206.26,274.91c.15.62.96,2.2,1.77,3.42.4.6.68,1.12.63,1.17-.13.13-2.82-.27-3.39-.5-.7-.29-1.2-1.01-2.08-3.04-1.29-2.96-1.64-3.34-1.98-2.19-.28.93-.38,3.97-.17,5.28.21,1.36.68,2.81,1.11,3.38.37.51,1.9,1.06,5.1,1.84,1.52.37,2.42.66,2.38.77-.03.1-.62.52-1.29.93-.97.59-1.35.73-1.75.68-.28-.04-1.28-.17-2.23-.3-1.42-.19-1.83-.3-2.29-.66-.78-.59-1.92-2.16-2.56-3.54-.3-.64-.61-1.16-.68-1.16-.18,0-.43.8-.57,1.82-.06.43-.16.71-.23.64-.07-.08-.77-1.3-1.56-2.73l-1.43-2.58-.12-2.13c-.06-1.17-.12-2.33-.14-2.58-.03-.43.03-.48,1.08-.83.62-.21,1.14-.39,1.16-.39s.28-.22.59-.49c.39-.34.87-.56,1.59-.71,1.36-.28,2.13-.69,3.5-1.88.63-.55,1.44-1.23,1.81-1.51.36-.28.74-.72.84-.97.15-.36.59-.65,2.24-1.45,2.24-1.09,1.42-.4,3.32-.16l1.75.33.88.5c.21.5.89.48,1.07.74.19.25.33.53.33.62s-.51-.06-1.15-.32c-1.44-.61-3.38-.78-4.31-.39-.63.26-.8.58-.32.59.15,0,.59.14.97.32l.7.31-1.58,1.66c-.86.91-1.82,2.06-2.12,2.56-.62,1.05-1,2.35-.87,2.95ZM215.34,276.05c-.59.88-1.13,1.42-1.45,1.43-.1,0-.6-.28-1.12-.62-.52-.34-1.13-.82-1.36-1.07-.6-.65-.94-1.94-.94-3.61,0-1.38.38-3.74.63-4.01.38-.39,3.19,2.68,3.51,3.81.08.32.37.91.63,1.32.77,1.21.79,1.72.1,2.75ZM327.79,146.95c1.11.04,3.04.27,5,1.45,1.03.62,2.61,1.58,3.39,3.55.72,1.86.32,3.57.13,4.23-.88-.44-1.31-.23-1.89-.36-.87-.2-1.73-.4-2.97-1.2-2.05-1.33-2.85-3.38-3.11-4.06-.56-1.48-.59-2.8-.55-3.61Z"/>
  <path d="M350.58,421.05l-32.35-54.01,2.98-11.14c4.14.02,7.94-2.73,9.06-6.91,1.12-4.19-.79-8.47-4.39-10.52l3.15-11.74,55.02-30.6-62.95,1.01-8.16-8.16c2.09-3.58,1.61-8.24-1.46-11.31s-7.73-3.54-11.31-1.46l-8.6-8.6,1.01-62.95-30.6,55.02-11.14,2.98c-2.05-3.6-6.33-5.51-10.52-4.39-4.19,1.12-6.93,4.92-6.91,9.06l-11.74,3.15-54.01-32.35,32.35,54.01-2.99,11.14c-4.14-.02-7.94,2.73-9.06,6.91-1.12,4.19.79,8.47,4.39,10.52l-3.15,11.74-55.02,30.6,62.95-1.01,8.15,8.15c-2.09,3.58-1.61,8.24,1.46,11.31,3.07,3.07,7.73,3.54,11.31,1.46l8.6,8.6-1.01,62.95,30.6-55.02,11.14-2.98c2.05,3.6,6.33,5.51,10.52,4.39,4.19-1.12,6.93-4.92,6.91-9.06l11.74-3.15,54.01,32.35ZM213.18,290.49l22.19,22.19-27.34,2.49,5.14-24.69ZM273.24,336.88c1.06-2.05,1.63-4.28,1.73-6.53l6.38-1.71,16.08,10.79-20.26,1.37-3.93-3.93ZM277.86,319.57l-5.37,1.44c-.6-.94-1.31-1.83-2.13-2.65s-1.71-1.53-2.65-2.13l1.71-6.37,17.39-8.53-8.94,18.23ZM259.81,308.36l-1.44,5.38c-2.25.11-4.48.68-6.53,1.73l-4.66-4.66,1.31-19.32,11.32,16.86ZM241.08,318.38l3.93,3.93c-1.06,2.05-1.63,4.28-1.73,6.53l-6.38,1.71-16.08-10.79,20.26-1.37ZM240.39,339.62l5.37-1.44c.6.94,1.31,1.83,2.13,2.65s1.71,1.53,2.65,2.13l-1.71,6.37-17.39,8.53,8.94-18.23ZM258.44,350.83l1.44-5.38c2.25-.11,4.48-.68,6.53-1.73l4.66,4.66-1.31,19.32-11.32-16.86ZM310.21,344.02l-5.14,24.69-22.19-22.19,27.34-2.49ZM310.74,342.03l-21.83-15.41,29.54-7.92-7.71,23.32ZM285.65,317.49l11.51-24.92,18.81,16.8-30.32,8.12ZM271.44,302.31l7.92-29.54,16.34,18.34-24.26,11.2ZM261.9,300.57l-15.83-22.43,23.95-7.89-8.12,30.32ZM241.65,305.29l-21.62-21.62,24.05-4.98-2.43,26.61ZM207.51,317.17l21.83,15.41-29.54,7.92,7.71-23.32ZM232.6,341.71l-11.51,24.92-18.81-16.8,30.32-8.12ZM246.81,356.88l-7.92,29.54-16.34-18.34,24.26-11.2ZM256.35,358.62l15.83,22.43-23.95,7.89,8.12-30.32ZM276.6,353.9l21.62,21.62-24.05,4.98,2.43-26.61Z"/>
</svg>