<?xml version="1.0" encoding="UTF-8"?>
<svg id="a" data-name="Layer_3" xmlns="http://www.w3.org/2000/svg" viewBox="0 0 514 514">
  <defs>
    <style>
      .b {
        fill: #fff;
      }
    </style>
  </defs>
  <path class="b" d="M476.15,66.77l1.14-2.64-1.71-2.31c-2.09-2.83-4.84-5.18-7.94-6.81-3.28-1.71-7-2.61-10.76-2.61-.66,0-1.22.03-1.67.06l-2.99.21s-3.06,6.83-3.12,6.97c-14.05-10.09-29.09-18.85-44.79-26.06-8.95-4.11-25.61-11.77-48.57-16.78-15.04-3.29-30.6-4.96-46.26-4.96-8.03,0-16.18.44-24.24,1.32l-3.28.35-6.37,20.79c-17.15-2.68-33.92-5.51-51.14-8.64-30.53-5.58-41.97-8.39-50.29-10.59-10.37-2.74-20.73-5.84-30.79-9.23l-4.65-1.57-64.12,179.26,4.31,1.86c18.1,7.81,36.61,15.02,54.99,21.46,10.48,3.68,21.1,7.14,31.64,10.36-5.63,5.83-10.35,12.71-14.07,20.56l-7.77,16.4s17.09-11.47,18.26-12.25c-1.6,3.31-2.99,6.79-4.07,10.26-2.07,6.59-3.19,13.49-3.34,20.5l-.3,14.17,9.12-10.84c1.66-1.97,3.49-3.95,5.45-5.87.2-.2.47-.46.78-.76-.73,2.43-1.34,4.89-1.83,7.38l-3.89,20.02,7.3-9.16c-.09,1.05-.15,1.92-.19,2.57-.3,4.68-.12,9.45.54,14.17l2.27,16.36,5.39-11.14-.82,35.24,6.67-21.71c.58,8.53,2.16,15.9,3.82,21.61l8.11,27.95,1.68-29.06c.06-1.04.13-2.07.21-3.11l3.51,15.5,4.13-21.4c1.14,4.22,2.44,8.26,3.72,12.24,2.61,8.11,5.84,16.08,9.61,23.69l10.45,21.1-.28-6.68,15.34,39.47-4.32-30.01c4.12,7.62,9.06,14.87,14.7,21.58l22.51,26.75-.58,7.65-12,16.6,18.43-9.37c2.72-1.38,5.35-2.97,7.8-4.72,12.45-8.82,18.36-20.05,21.53-26.08,1.65-3.13,3.1-6.37,4.36-9.64.26,0,.51.03.77.03,1.21,0,2.42-.1,3.59-.29l2.69-.44,1.08-2.51c7.03-16.26,14.07-32.52,21.11-48.79,4.92-11.36,15.7-36.29,21.78-50.34l1.48-.63c.93-.39,1.77-.75,2.57-1.1,2.29-.98,4.26-1.83,7.62-3.14l.3-.12c9.68-3.79,14.54-5.69,19.78-7.03,1.15-.29,2.27-.56,3.37-.82,5.51-1.31,10.71-2.55,16.17-6.2,2.95-1.97,5.32-4.22,7.26-6.88,1.8-2.47,3.18-5.21,4.11-8.24,2.54-8.43,1.9-13.82-1.96-16.5-.03-.02-.06-.04-.09-.06.02-.5-.02-1.18-.12-3.21-.03-.67-.07-1.46-.23-2.35.55-.18,1.1-.36,1.64-.56,3.15-1.13,5.43-1.96,7.73-3.78,2.59-2.05,4.57-4.98,7.06-13.92l.03-.11c1.76-6.35,2.84-10.24,3.12-15.88.72-1.65.74-3.18.75-4.78,0-.79.02-1.78.1-3.1l.05-.81c.14-2.11.3-4.51-.65-7.29-.54-1.56-1.42-2.83-2.61-3.78-2.12-1.69-4.49-1.69-5.27-1.69-.22,0-.45,0-.67.01-.13,0-.41,0-.41,0-.73,0-1.5-.06-2.33-.11-.97-.06-1.98-.13-3.01-.14-2.13-.02-4.35-.21-6.56-.55-3.33-.55-6.62-1.05-9.81-1.5,9.64-22.26,19.27-44.53,28.9-66.8,9.67-22.35,19.34-44.7,29.02-67.05ZM278.42,440.42l-7.57-15.72c.17.17,4.18,4.17,4.18,4.17l3.67,7.92-.28,3.63ZM398.26,265.85l-.04.21c-.27-.04-.55-.06-.85-.06h-.57s-.51.11-.51.11c-.93.2-1.74.61-2.42,1.22-.63-1.01-1.66-2.18-3.39-2.61.07-.17.14-.33.22-.5.67.4,1.46.69,2.41.76l.22.02h.19c2.2,0,3.75-1.17,4.79-2.47.08.03.16.05.25.07-.22,2.55-.31,3.25-.31,3.25,0,0,0,0,0,0Z"/>
  <path d="M426.67,268.33c-.68-.47-1.49-.46-2.74-.08.11-.54.18-1.08.28-1.83.09-.71.18-1.44.21-2.42.01-.3-.03-1.13-.11-2.79-.04-.86-.07-1.57-.35-2.46-.05-.17-.31-1-.52-.97-.09.01-.14.15-.29.68-.18.57-.26.85-.27.92-.24,1.02-1.03,3.22-1.17,3.62-.27.74-.44,1.12-.68,1.65-.13-.16-.27-.28-.45-.32-.3-.05-.58.15-.83.34-1.05.79-1,1.82-1.58,1.91-.43.07-.54-.47-1.17-.5-.63-.02-.76.5-1.42.5-.62,0-.77-.48-1.25-.41-.19.02-.36.14-.51.29-.15-.8-.3-1.28-.65-3.64,0,0-.16-1.12-.73-3.15-.42-1.56-.59-1.77-.77-1.79-.5-.07-1.04,1.29-1.92,3.45-.72,1.77-1.49,3.52-2.21,5.29-1.11,2.77-2.09,4.87-2.88,6.53-.46-.45-.92-.76-1.44-1.71-.47-.86-.61-1.58-1.11-1.66-.44-.08-.87.39-1.11.66-1.26,1.42-.96,3.14-1.44,3.23-.65.12-1.51-2.81-2.23-2.67-.19.04-.22.26-.54.79-.32.55-.63.88-1.23,1.54-.8.87-1.47,1.6-2.56,2-.46.17-1.02.38-1.44.11-.35-.21-.34-.59-.56-1.66-.12-.59-.41-1.88-1-3.11-.34-.72-.52-1.08-.78-1.11-.93-.13-2.09,3.05-2.44,4-.4,1.08-.64,2.02-.78,2.66-.82-.04-1.29-.32-1.56-.55-.47-.42-.57-.91-.77-1.47-4.26,9.86-8.52,19.69-12.77,29.53l-2.55,5.89c3.57-1.51,5.69-2.48,10.32-4.29,10.05-3.93,15.07-5.9,20.66-7.33,6.62-1.69,12.27-2.5,18-6.33,2.69-1.8,4.57-3.71,6-5.67.84-1.15,2.34-3.42,3.34-6.67.34-1.13,2.79-9.07,0-11ZM444.17,210c-.18-.52-.46-1.07-1-1.5-.98-.78-2.21-.57-3.29-.58-1.77-.02-3.56-.24-5.34-.25-1.72-.02-4.2-.14-7.31-.62-3.96-.65-7.49-1.18-10.63-1.62-2.02-.29-3.87-.54-5.57-.76-.95-.12-1.85-.24-2.7-.34-4.76-.58-13.72-1.58-25.45-4.66-2.35-.62-4.28-1.18-5.55-1.56-.5-.91-1.57-2.49-3.44-3.17-1.25-.45-2.49-.37-3.89-.27-1.09.07-1.99.24-2.61.39-.17-.41-.94-2.12-2.89-3-1.57-.72-3-.5-3.5-.39.09-1.49.05-3.75-.67-6.34-1.79-6.45-6.47-10.07-8.33-11.33-2.99-2.02-5.58-2.61-10.67-3.67-12.79-2.66-19.18-3.99-24.33-4.66-9.79-1.29-14.68-1.93-19.33-2-.39-.01-.79-.01-1.2-.01-.51-.67-1.1-1.34-1.8-1.99-3.27-3.04-6.6-3.49-11.11-4.89-1.33-.41-5.93-2.57-15.12-6.89-3.87-1.82-8.86-4.21-14.66-7.11-.82,1.54-1.83,3.89-2.22,6.89-.53,3.98.32,7.04,1.55,11.33.49,1.72,1.18,3.79,2.13,6.1-1.46-.37-2.97-.71-4.57-.99-7.48-1.28-9.91-.24-25.34-.67-6.02-.16-11.2-.55-21.55-1.33,0,0-5.24-.39-22.89-3.11-2.08-.32-3.12-.51-4.45-1.11-1.4-.64-2.7-1.56-5.55-2.89-.92-.43-1.71-.76-2.45-.44-.75.32-1.1,1.17-1.33,2-.93,3.33,0,6.65,0,6.66,2.81,10.08,1.84,9.69,3.56,13.56,4.01,9.05,11,15.08,17.33,20.44,1.82,1.54,4.05,3.41,6.75,5.41-6.2,2.2-10.55,4.14-15.19,7.26-1.46.98-2.84,1.99-4.15,3.05-10.46,8.32-16.3,18.38-19.41,24.95,3.01-2.02,7.11-4.76,12-8,7.63-5.06,10.22-6.72,10.67-6.22.69.76-4.93,5.37-10.23,14.66-1.07,1.89-3.7,6.72-5.77,13.34-1.39,4.43-2.94,10.97-3.11,19.11,1.38-1.64,3.32-3.81,5.77-6.22,1.75-1.72,6.45-6.3,12.45-10.23,1.29-.84,2.53-1.58,3.75-2.25-1.3,2.48-2.51,5.09-3.7,7.67-2.93,6.37-4.37,12.04-5.13,15.95,2.43-3.05,5.44-6.41,9.07-9.81-.45.84-.87,1.71-1.27,2.61-3.71,8.45-4.27,16.32-4.5,20-.34,5.33.04,9.85.5,13.17.88-1.82,2.2-4.48,3.83-7.67,3.06-5.98,5.39-10.51,7.81-14.65-2.87,10.51-3.75,20.08-3.92,27.43,1.48-4.82,4.26-12.07,9.57-19.66-.66,2.19-1.26,4.48-1.79,6.88-4.62,21.05-.89,38.51,1.67,47.33.6-10.38,2.21-18.89,3.66-25,.89-3.69,1.82-7.58,3.11-11.68-1.07,10.85.36,19.72,1.56,25.02.91-4.71,2.28-9.89,4.33-15.34.54-1.43,1.12-2.81,1.7-4.17.38,12.66,3.67,22.91,6.97,33.17,3.16,9.83,6.69,17.67,9.33,23-.17-4.1-.51-12.43-.66-16.33-.13-3.08-.24-5.84-.34-8.33,1.9,10.43,5.12,23.44,10.84,38.16-.47-3.26-.89-7.79-.67-13.16.04-1.05.14-3.39.52-6.51.07.28.14.56.2.84,1.01,4.25,3.92,15.38,10.89,28.44,4.87,9.14,10.15,16.23,14.45,21.34-4.46-9.26-6.86-17.36-8.23-23.11-2.48-10.5-4.2-17.74-1.91-26.46.11,6.21,1.92,12.82,4.14,20.9,3.88,14.16,9.77,23.16,11.55,25.78,3.48,5.12,7.01,9.02,9.78,11.78-4.64-10.62-5.69-19.7-5.89-25.34-.17-4.81-.3-9.99,1.88-16.29h.01c-.47,4.84-.59,10.41,0,16.52,1.18,12.18,4.75,21.72,7.55,27.77.6-2.17,1.4-5.3,2.23-9.11.54-2.53,1.16-5.67,1.83-10.21,1.92,12.02,1.91,22.59,1.28,30.88,1.16-1.44,2.76-3.54,4.44-6.22,3.38-5.39,5.31-10.24,6.98-15.96-.11,1.84-.28,3.77-.53,5.79-.44,3.45-1.11,8.58-3.17,14.83-1.54,4.67-4.35,11.48-9.67,18.84,1.81-.92,4.35-2.33,7.17-4.34,11.24-7.97,16.65-17.97,20-24.33,1.89-3.59,3.4-7.07,4.61-10.38-1.97-.48-3.85-1.26-5.58-2.32-5.19-3.17-7.48-7.8-8.38-10.27l-.35-.96,10.03-22.39c14.77-33.03,29.55-66.06,44.32-99.09l.21-.47c.03-.06.06-.13.09-.19-.05-.07-.11-.14-.17-.21-.58-.63-1.02-.47-2.11-1.22-.99-.68-1-1.06-1.56-1.11-.72-.07-.91.56-1.78.55-.49,0-.59-.21-1.55-.55-.72-.26-1.27-.45-1.78-.45-.72.02-1.33.45-1.84.98-.09-.13-.15-.27-.16-.42-.1-1.16,2.34-2.21,4-3,6.39-3.06,5.37-4.4,13-9,.19-.11.37-.22.55-.32,1.25-.74,2.46-1.41,3.64-2.02,3.72-1.93,7.01-3.24,9.32-4.06.62.3,1.36.5,2.05.51.82.01,1.59-.27,1.77-.33,1.02-.38,1.11-.78,2.11-1.22.71-.32,1.56-.69,2.45-.45.4.11.38.23,1.72,1,.77.44,1.15.66,1.37.65.81-.05.89-1.03,2.02-1.43.2-.07.93-.32,1.56,0,.03.02.06.03.09.06.59.37.52,1.03,1.02,1.17.57.15,1.04-.67,1.53-.78.08-.03.16-.03.24,0,.33.1.33.51.73,1.39.41.91.81,1.79,1.33,1.83.66.05,1.45-1.24,1.78-2.14.22-.61.22-.98.61-1.3.51-.43,1.21-.35,1.33-.34.46.05.77.25,1.34.61.94.62.9.87,1.33.95.39.07.63-.1,1.89-.78,1.04-.57,1.57-.85,1.76-.91.31,1.75.32,3.19.23,4.28-.42,5.31-.57,6.27-.57,6.27-.17,1.06-.38,2.12,0,2.26.4.15,1.26-.86,2.1-1.86,1.59-1.91,2.53-3.53,2.74-3.9.35-.61,1.07-1.91,2.23-4.52.28-.62.6-1.36.94-2.18.26.04.54.05.9,0,.78-.1.89-.35,1.67-.33.96.02,1.24.41,1.89.22.73-.21.81-.84,1.34-.82.53.02.62.68,1.21.93.38.16.86.12,1.31-.04.05,2.83.02,3.44.02,3.44-.06,1.07-.15,2.14.22,2.24.39.12,1.09-.96,1.78-2.04,1.3-2.04,2.02-3.74,2.19-4.13.1-.26.26-.65.46-1.19,1.36-.3,3.01-.74,4.8-1.39,2.89-1.04,4.67-1.68,6.33-3,1.39-1.1,3-2.92,5.34-11.33,1.78-6.43,2.77-9.98,3-15.33.01-.23.01-.45.01-.68h.01c1.01-1.46.54-2.38.81-6.82.13-2.23.38-4.09-.33-6.17ZM234.89,194.33c2.28,1.88,3.85,3.83,4.89,5.34-1.63-.92-4.21-2.08-7.56-2.45-1.6-.17-3.03-.13-4.22,0,2.16.85,5.17,2.33,8.22,4.89,2.31,1.94,3.97,3.94,5.11,5.56-1.78-.02-3.63-.09-5.55-.23-.91-.06-1.8-.13-2.67-.22.13.25.28.52.43.81.08.15.16.3.24.46.32.61.67,1.31,1.03,2.08.1.21.2.43.3.65,1.2,2.63,1.79,3.94,1.56,4.45-.44.94-2.59,1.08-5.56.67-.7-.08-1.44-.21-2.22-.36-.03,0-.06-.01-.09-.02-.38-.07-.76-.15-1.16-.23-.44-.1-.9-.21-1.36-.32-.4-.09-.8-.19-1.21-.3-1.37-.36-2.78-.77-4.18-1.22-4.7-1.51-13.93-4.94-24.67-12.67-4.07-2.92-12.22-8.87-17.33-16.66-2.3-3.51-4.83-8.66-5.14-9.31-1.47-3.03-.29-.98-2.66-6.46-1.1-2.55-2.04-4.56-1.31-6.46.09-.24.48-1.26,1.14-1.33.54-.06.98.58,1.5,1.17.08.1,1.11.87,3.16,2.41,3.33,2.5,5.34,4.02,7.48,5.36,3.02,1.9,5.5,2.95,7.94,3.98,4.7,1.97,9.23,3.3,14.42,4.41,11.33,2.45,12.96,1.14,18.36,2.67,4.98,1.41,11.65,4.82,18.44,13.78-1.86-1.12-4.4-2.38-7.55-3.34-2.71-.81-5.15-1.18-7.11-1.33,1.89.71,4.58,1.97,7.33,4.22ZM347.54,207.83c-1.57.1-2.71.61-3.04.75-3.32,1.41-10.01,1.06-11,1-3.89-.2-6.84-1-10.25-1.91-1.88-.51-3.42-1.01-4.5-1.38,1.57-.53,3.94-1.37,6.79-2.54,2.76-1.14,4.15-1.84,7.84-3.46,1.65-.73,4.03-1.76,6.95-2.96,2.25,1.24,3.85,2.63,4.88,3.67.56.57,1.56,1.64,2.58,3.17.95,1.42,1.6,2.75,2.04,3.83-.48-.1-1.29-.23-2.29-.17Z"/>
  <path d="M465.33,59.44c-4.17-2.17-8.07-2.12-9.77-2-1.48,3.3-2.95,6.6-4.43,9.89-12.56-9.47-28.83-19.99-48.91-29.22-9.66-4.44-25.56-11.64-47.55-16.44-15.48-3.39-39.36-6.76-68.89-3.56-2.22,7.26-4.45,14.52-6.67,21.78-22.41-3.45-41.26-6.73-55.55-9.33-29.94-5.47-41.88-8.35-50.67-10.67-13.11-3.46-23.81-6.87-31.11-9.33-20.3,56.74-40.59,113.48-60.89,170.22,17,7.33,35.23,14.53,54.67,21.33,12.6,4.42,24.94,8.4,36.96,11.97.44-.38.88-.74,1.33-1.1,1.33-1.07,2.75-2.11,4.32-3.17,3.84-2.58,7.44-4.34,11.5-5.95-1.2-.97-2.29-1.89-3.29-2.73-6.09-5.16-13.67-11.58-18-21.34-1-2.26-1.21-3.35-1.57-5.16-.31-1.58-.78-3.97-2.11-8.74l-.09-.33v-.04c-.26-1.15-.82-4.36.09-7.63.19-.69.77-2.78,2.76-3.63.5-.22,1.05-.33,1.61-.33,1.07,0,1.97.38,2.88.81,1.72.8,2.91,1.46,3.86,1.99.65.37,1.17.66,1.67.89,1.02.46,1.8.6,3.79.91,17.26,2.66,22.65,3.08,22.7,3.09,10.29.77,15.45,1.16,21.43,1.32,2.68.08,5.18.11,7.63.11s4.33-.03,6.01-.06c1.31-.03,2.46-.05,3.54-.05,2.65,0,5.11.12,8.51.71.08.01.15.02.23.04-.22-.68-.43-1.34-.61-2-1.2-4.18-2.24-7.79-1.63-12.35.35-2.68,1.19-5.29,2.49-7.74l1.15-2.15,2.18,1.09c4.85,2.43,9.63,4.75,14.6,7.09,8.2,3.85,13.62,6.4,14.8,6.76.84.26,1.64.49,2.4.71,3.39.96,6.59,1.87,9.67,4.74.46.42.88.86,1.29,1.33h.07c4.81.07,9.75.72,19.6,2.02,5.22.68,11.63,2.01,24.41,4.67l.1.02c5.29,1.1,8.21,1.79,11.56,4.05,2.67,1.81,7.43,5.86,9.34,12.73.41,1.48.66,2.98.75,4.5.71.12,1.4.33,2.05.63,1.45.65,2.44,1.61,3.11,2.5.37-.05.77-.09,1.19-.11.61-.05,1.21-.09,1.79-.09,1.18,0,2.17.16,3.11.5,1.99.72,3.34,2.11,4.22,3.39,1.17.35,2.73.79,4.56,1.27,11,2.89,19.38,3.91,24.4,4.51l.71.09c.58.07,1.2.15,1.84.23l.87.11c.24.03.48.06.72.09,19.84-45.83,39.66-91.67,59.5-137.5-.99-1.34-2.97-3.64-6.23-5.34Z"/>
  <path d="M388.65,256.39c-.4.92-.79,1.83-1.19,2.75-1.53,3.55-3.06,7.09-4.6,10.64-.33.78-.67,1.55-1,2.33-5.62,12.97-11.23,25.95-16.84,38.92-.48,1.1-.95,2.2-1.43,3.3-14.08,32.56-28.18,65.11-42.26,97.67-.67.11-2.28.34-4.39.15-.78-.07-1.62-.19-2.5-.4-1.61-.37-3.36-1.01-5.11-2.08-4.98-3.05-6.83-7.63-7.33-9,17.98-40.19,35.96-80.37,53.93-120.56.35-.78.7-1.55,1.04-2.33,1.85-4.11,3.69-8.23,5.53-12.34.56-1.26,1.13-2.52,1.69-3.78,3.72-1.93,7.01-3.24,9.32-4.06.62.3,1.36.5,2.05.51.82.01,1.59-.27,1.77-.33,1.02-.38,1.11-.78,2.11-1.22.71-.32,1.56-.69,2.45-.45.4.11.38.23,1.72,1,.77.44,1.15.66,1.37.65.81-.05.89-1.03,2.02-1.43.2-.07.93-.32,1.56,0,.03.02.06.03.09.06Z"/>
</svg>