<?xml version="1.0" encoding="utf-8"?>
<!-- Generator: Adobe Illustrator 24.3.0, SVG Export Plug-In . SVG Version: 6.00 Build 0)  -->
<svg version="1.1" id="Layer_1" xmlns="http://www.w3.org/2000/svg" xmlns:xlink="http://www.w3.org/1999/xlink" x="0px" y="0px"
	 viewBox="0 0 612 792" style="enable-background:new 0 0 612 792;" xml:space="preserve">
<style type="text/css">
	.st0{fill:#FFFFFF;}
</style>
<g>
	<path class="st0" d="M314.2,698c-103.03,0-206.07,0-309.2,0C5,497.1,5,296.19,5,95c200.78,0,401.65,0,603,0c0,200.81,0,401.9,0,603
		c-93.73,0-187.76,0-281.79,0c0.71-0.68,1.58-1.25,2.11-2.05c4.33-6.47,13.61-15.2,11.91-19.05c-4.43-10-14.02-4.71-21.67-1
		c-0.45,0.22-0.86,0.5-1.32,0.71c-6.19,2.75-12.39,5.49-18.59,8.23C303.83,689.22,309.01,693.61,314.2,698z M227.43,262.94
		c-1.94,5.31-5.91,10.79-5.46,15.89c2.15,24.43,5.4,48.77,8.55,73.11c0.34,2.63,2.23,6.79,3.99,7.12c2.8,0.53,8.36-0.98,8.78-2.64
		c1.31-5.14,1.03-10.76,0.84-16.18c-0.18-5.07-2.5-10.49-1.33-15.12c4.03-16.06,9.65-31.71,13.71-47.76
		c2.37-9.34-2.34-10.68-9.76-6.12c3.95-3.06,7.9-6.11,15.34-11.86c-11.62-2.23-19.4-4.5-27.25-4.77
		C232.46,254.53,229.91,260,227.43,262.94z M172.9,455.68c-25.01,12.21,2.73,28.18-1.37,43.21c-4.87-8.73-9.06-17.05-18.48-4.97
		c-1.22,1.57-10.23-0.39-13.1-3.26c-4.41-4.4-6.17-11.33-9.92-16.57c-3.21-4.48-7.64-8.08-13.39-13.97
		c-2.61,13.3-3.96,22.08-6.11,30.66c-2.41,9.64-6.12,18.97-8.24,28.66c-3.68,16.79-6.91,33.69-9.54,50.67
		c-0.68,4.43,0.33,10.1,2.71,13.85c7.9,12.44,15.73,25.22,25.59,36.03c7.74,8.49,18.21,14.64,27.95,21.11
		c6.5,4.32,15.03,6.11,20.6,11.26c19.05,17.61,35.76,18.56,53.28-0.91c14.36-15.96,23.22-34.76,15.81-58.69
		c10.67,5.51,19.19,13.01,28.94,18.17c9.07,4.8,19.47,7.09,32.36,11.55c-19.51-17.99-35.59-32.81-51.68-47.63
		c-0.36-0.33-1.02-0.39-1.27-0.76c-4.43-6.43-10.68-12.3-12.91-19.43C222.23,516.69,213.72,476.96,172.9,455.68z M282.4,477.55
		c10.9,2.6,21.64,3.39,30.67,7.75c13.46,6.49,22.42,2.88,25.34-12.11c1.55-7.99,4.57-15.7,6.85-23.56c0.66-2.28,2.29-5.52,1.36-6.82
		c-11.14-15.71-22.51-31.26-34.31-46.47c-1.32-1.7-6.11-2.27-8.49-1.34c-17.08,6.7-28.76-8.59-36.66-15.59
		c-11.01-9.75-19.78-11.47-32.94-12.76c-14.53-1.42-19.25,4.45-24.46,15.56c-3.74,7.99-9.98,15.35-16.62,21.29
		c-7.74,6.91-10.69,12.57-8.84,24.15c3.37,21.1,20.67,32.06,30.13,48.48c1.71,2.96,8.62,4.73,12.56,4c2.74-0.51,4.84-6.07,6.65-9.66
		c3.73-7.42,7.06-15.04,10.56-22.58c1.67,0.88,3.35,1.77,5.02,2.65c-2.37,3.8-6.1,7.35-6.85,11.44c-1.64,8.94-2.54,18.23-1.67,27.17
		c0.12,1.26,11.86,1.98,18.21,1.9c7.24-0.09,14.47-1.36,22.21-2.17C281.47,485.78,281.83,482.58,282.4,477.55z M423.42,475.78
		c-11.05,4.16-19.38,8.81-28.09,9.69c-2.76,0.28-6.78-9.4-9.72-14.79c-1.36-2.5-0.57-6.66-2.37-8.33
		c-6.68-6.19-13.5-15.39-21.25-16.47c-10.56-1.48-17.68,7.05-17.79,19.23c-0.04,4.33-1.06,8.84-2.53,12.95
		c-4.02,11.17,1.78,38.59,10.79,46.14c14.52,12.18,29.33,24.03,44.31,35.64c1.83,1.42,5.52,1.14,8.18,0.66
		c19.6-3.48,31.65-19.82,35.72-43.25C444.13,497.4,435.54,484.58,423.42,475.78z M57.77,437.01c1.89-0.31,3.77-0.62,5.66-0.93
		c0.38-6.47,0.17-13.05,1.32-19.37c1.09-5.97,1.86-13.76,5.84-17.13c14.88-12.58,20.19-27.82,11.85-45.12
		c-6.01-12.47-14-23.98-20.6-36.19c-5.07-9.4-12.42-15.07-22.93-12.5c-11.39,2.78-13.1,12.86-12.46,22.75
		c1.38,21.35,1.52,43.03,5.72,63.86C35.59,409.31,41.52,426.88,57.77,437.01z M334.01,264.13c6.71-4.86,14.22-8.89,19.92-14.71
		c13.61-13.89,5.9-33.25,10.84-49.59c0.75-2.48-6.34-9.38-10.87-10.76c-3.78-1.15-11.21,1.47-13.31,4.77
		c-4.15,6.55-6.43,14.56-8.26,22.26c-5.82,24.4-10.44,49.09-16.8,73.34c-3.53,13.43,1.17,23.99,4.85,32.44
		c-4.58,8.99-8.72,17.11-14.29,28.04c10.28-0.46,16.42-0.74,22.23-1c3.03-22.63,3.23-22.35,21.3-35.66
		c3.42-2.52,6.53-8.31,6.3-12.39c-0.66-11.65-3.11-23.21-4.92-35.2C344.52,265.09,338.51,264.54,334.01,264.13z M343.9,178.5
		c0.24,1.88,0.48,3.75,0.72,5.63c9.31,0,23.39,3.78,26.98-0.76c8.51-10.72,14.4-24.96,16.83-38.59c1.97-11.06-2.16-23.38-4.47-34.97
		c-2.23-11.23-8.97-13.31-17.77-6.22c-18.61,14.98-20.89,36.53-22.53,58c-0.24,3.18,4.32,6.72,7.02,10.6
		C349.28,173.49,346.59,176,343.9,178.5z M533.81,419.63c-5.48-7.12-9.19-13.46-14.53-17.79c-1.28-1.04-8.46,4.09-12.1,7.3
		c-8.56,7.55-17.01,15.3-24.8,23.63c-8.98,9.6-17.25,19.87-25.75,29.9c-2.68,3.16-7.44,6.8-7.07,9.7c0.43,3.38,5.2,8.22,8.52,8.6
		c2.92,0.33,7.46-4,9.52-7.35c8.12-13.18,19.54-17.55,34.37-14.95c2.71,0.48,7.27,0.95,8.16-0.41
		C518.05,446.15,525.36,433.63,533.81,419.63z M262.63,139.42c0.61,0.01,1.23,0.03,1.84,0.04c-0.8-3.35-0.55-7.68-2.6-9.85
		c-4.93-5.22-10.52-10.28-16.84-13.32c-1.29-0.62-7.87,7.44-10.48,12.32c-10.17,19.02-7.12,38.79-0.14,57.67
		c1.46,3.95,10.66,5.41,16.57,7.06c1.24,0.35,4.98-3.33,5.31-5.49C258.72,171.76,260.58,155.58,262.63,139.42z M374.51,397.14
		c1.68,0.83,3.36,1.65,5.04,2.48c11.56-2.99,23.25-5.56,34.58-9.24c3.29-1.07,5.68-5.18,8.26-8.09c13.02-14.7-0.08-24.97-6.49-36.1
		c-6.21-10.78-13.3-11.72-18.82-1.11C388.37,361.81,381.92,379.73,374.51,397.14z M586.93,366.9c0.21-17.45-6.37-22.26-19.09-18.36
		c-15.55,4.77-25.59,15.45-29.97,30.69c-1.23,4.29,0.39,10.99,3.31,14.3c1.88,2.13,8.91,1.18,12.9-0.33
		c6.94-2.63,14.11-5.81,19.68-10.54C579.79,377.54,584.1,370.39,586.93,366.9z M475.68,238.38c0.07-17.63-4.04-22.34-14.26-17.85
		c-11.94,5.24-27.48,37.61-24.15,50.29c2.49,9.49,12.01,14.01,17.67,7.52C465.28,266.46,477.5,255.02,475.68,238.38z M356.13,627.25
		c-18.19-3.11-46.98,20.4-51.14,40.74C328.29,678,340.53,668.42,356.13,627.25z M431.56,345.7c11.26-15.58,12.48-21.38,9.59-36.41
		c-0.62-3.24,0.34-7.34,1.92-10.33c4.91-9.34,1.85-14.77-5.68-17.74c-5.54,7.66-10.38,14.6-15.46,21.36
		C408.52,320.39,411.51,335.38,431.56,345.7z M260.56,254.9c-2.62-10.18-5.8-17.54-6.14-25.02c-0.61-13.21-5.85-20.48-21.3-20.62
		c-2.52,12.76-5.05,25.55-7.66,38.81c7.66,1.03,13.04,1.52,18.31,2.54C248.74,251.57,253.62,253.1,260.56,254.9z M76.4,406.03
		c-11.55,25.42-10.27,54.07,3.95,64.35c4.07-9.15,11.93-18.36,10.91-26.45C89.66,431.35,82.03,419.53,76.4,406.03z M98.9,496.77
		c-18.16,12.46-14.38,31.14-18.56,46.81c-0.96,3.6,2.67,8.43,4.18,12.69c2.9-3.2,7.77-6.08,8.35-9.65
		C95.51,530.49,96.92,514.18,98.9,496.77z M406.2,400.55c-13.26-0.69-32.58,11.85-33.15,20.82c-0.3,4.77,4.29,9.86,8.28,18.11
		C390.91,424.48,397.91,413.52,406.2,400.55z M97.54,465.87c-2.57-1.22-5.14-2.43-7.71-3.65c-5.55,10.21-11.6,20.2-16.17,30.83
		c-0.76,1.77,4.88,6.29,9.69,12.12C88.95,489.64,93.25,477.76,97.54,465.87z M285.46,381.68c11.62,8.09,21.79,10.73,33.89,4.53
		C309.84,370.68,302.6,369.57,285.46,381.68z M265.31,497.22c-0.05,2.06-0.1,4.11-0.16,6.17c10.09,0.67,20.19,1.34,30.28,2.01
		c0.13-1.93,0.26-3.86,0.38-5.79C286.4,490.28,275.67,495.87,265.31,497.22z M350.46,440.91c1.59,0.63,3.18,1.26,4.77,1.88
		c3.39-2.94,10.13-7.55,9.63-8.54c-2.88-5.73-7.46-10.61-11.46-15.78c-1.9,0.66-3.8,1.32-5.7,1.98
		C348.62,427.26,349.54,434.08,350.46,440.91z M272.45,633.95c0.87-3.1,1.75-6.21,2.62-9.31c-8.21-2.06-16.41-4.12-24.62-6.18
		c-0.74,2.65-1.48,5.3-2.22,7.94C256.3,628.92,264.37,631.44,272.45,633.95z M304.54,361.3c0.3,2.26,0.61,4.53,0.91,6.79
		c4.87,0.63,10.63,3.11,14.34,1.33c3.23-1.55,4.16-7.91,6.1-12.15c-1.15-1.11-2.3-2.21-3.45-3.32
		C316.47,356.41,310.51,358.86,304.54,361.3z"/>
	<path d="M314.2,698c-5.18-4.39-10.36-8.78-15.55-13.16c6.2-2.74,12.4-5.48,18.59-8.23c0.45-0.2,0.87-0.49,1.32-0.71
		c7.64-3.72,17.24-9,21.67,1c1.7,3.85-7.58,12.58-11.91,19.05c-0.53,0.8-1.4,1.37-2.11,2.05C322.2,698,318.2,698,314.2,698z"/>
	<path d="M172.9,455.68c40.82,21.28,49.33,61,61.23,98.99c2.23,7.13,8.48,13,12.91,19.43c0.25,0.37,0.91,0.43,1.27,0.76
		c16.09,14.81,32.17,29.64,51.68,47.63c-12.89-4.46-23.29-6.76-32.36-11.55c-9.76-5.16-18.27-12.66-28.94-18.17
		c7.4,23.92-1.46,42.73-15.81,58.69c-17.51,19.46-34.23,18.52-53.28,0.91c-5.57-5.15-14.09-6.93-20.6-11.26
		c-9.73-6.47-20.2-12.62-27.95-21.11c-9.87-10.81-17.7-23.59-25.59-36.03c-2.38-3.75-3.4-9.42-2.71-13.85
		c2.62-16.98,5.86-33.88,9.54-50.67c2.12-9.69,5.83-19.02,8.24-28.66c2.15-8.58,3.5-17.36,6.11-30.66
		c5.75,5.89,10.18,9.49,13.39,13.97c3.75,5.24,5.51,12.17,9.92,16.57c2.87,2.86,11.88,4.82,13.1,3.26
		c9.42-12.08,13.61-3.76,18.48,4.97C175.63,483.86,147.89,467.89,172.9,455.68z"/>
	<path d="M282.4,477.55c-0.57,5.03-0.94,8.23-1.29,11.32c-7.74,0.81-14.97,2.08-22.21,2.17c-6.35,0.08-18.08-0.64-18.21-1.9
		c-0.87-8.95,0.02-18.23,1.67-27.17c0.75-4.09,4.47-7.64,6.85-11.44c-1.67-0.88-3.35-1.77-5.02-2.65
		c-3.5,7.54-6.83,15.15-10.56,22.58c-1.8,3.59-3.91,9.15-6.65,9.66c-3.94,0.73-10.85-1.03-12.56-4
		c-9.46-16.42-26.75-27.38-30.13-48.48c-1.85-11.58,1.1-17.23,8.84-24.15c6.65-5.94,12.88-13.3,16.62-21.29
		c5.2-11.11,9.93-16.98,24.46-15.56c13.16,1.29,21.93,3.01,32.94,12.76c7.9,7,19.58,22.29,36.66,15.59
		c2.38-0.93,7.17-0.36,8.49,1.34c11.8,15.21,23.18,30.76,34.31,46.47c0.93,1.31-0.7,4.55-1.36,6.82c-2.28,7.86-5.3,15.56-6.85,23.56
		c-2.92,14.99-11.88,18.61-25.34,12.11C304.05,480.94,293.3,480.15,282.4,477.55z"/>
	<path d="M423.42,475.78c12.11,8.8,20.7,21.63,17.25,41.48c-4.07,23.43-16.13,39.77-35.72,43.25c-2.66,0.47-6.35,0.75-8.18-0.66
		c-14.98-11.62-29.79-23.46-44.31-35.64c-9.01-7.55-14.81-34.97-10.79-46.14c1.48-4.1,2.5-8.61,2.53-12.95
		c0.1-12.18,7.22-20.71,17.79-19.23c7.75,1.08,14.57,10.28,21.25,16.47c1.8,1.67,1.01,5.83,2.37,8.33
		c2.94,5.4,6.96,15.07,9.72,14.79C404.04,484.59,412.37,479.94,423.42,475.78z"/>
	<path d="M57.77,437.01c-16.25-10.12-22.17-27.7-25.59-44.64c-4.2-20.83-4.33-42.51-5.72-63.86c-0.64-9.88,1.07-19.96,12.46-22.75
		c10.51-2.57,17.86,3.1,22.93,12.5c6.59,12.21,14.59,23.72,20.6,36.19c8.33,17.3,3.03,32.54-11.85,45.12
		c-3.98,3.36-4.75,11.16-5.84,17.13c-1.16,6.33-0.94,12.91-1.32,19.37C61.54,436.38,59.65,436.69,57.77,437.01z M46.89,312.98
		c-2.54,1.72-5.07,3.44-7.61,5.17c4.65,6.16,9.31,12.31,13.96,18.47c1.79-1.15,3.57-2.31,5.36-3.46
		C54.69,326.43,50.79,319.7,46.89,312.98z"/>
	<path d="M334.01,264.13c4.51,0.41,10.51,0.96,16.99,1.55c1.81,11.99,4.26,23.54,4.92,35.2c0.23,4.08-2.88,9.87-6.3,12.39
		c-18.07,13.31-18.27,13.03-21.3,35.66c-5.81,0.26-11.95,0.54-22.23,1c5.57-10.94,9.71-19.05,14.29-28.04
		c-3.67-8.45-8.37-19.01-4.85-32.44c6.37-24.24,10.99-48.94,16.8-73.34c1.84-7.7,4.11-15.71,8.26-22.26
		c2.1-3.3,9.53-5.92,13.31-4.77c4.53,1.38,11.62,8.28,10.87,10.76c-4.94,16.34,2.76,35.7-10.84,49.59
		C348.23,255.24,340.71,259.27,334.01,264.13z"/>
	<path d="M343.9,178.5c2.69-2.5,5.39-5.01,6.78-6.3c-2.7-3.88-7.26-7.43-7.02-10.6c1.64-21.47,3.92-43.02,22.53-58
		c8.81-7.09,15.54-5.01,17.77,6.22c2.31,11.59,6.44,23.91,4.47,34.97c-2.43,13.62-8.32,27.87-16.83,38.59
		c-3.6,4.53-17.67,0.76-26.98,0.76C344.38,182.26,344.14,180.38,343.9,178.5z"/>
	<path d="M533.81,419.63c-8.45,13.99-15.76,26.52-23.7,38.62c-0.89,1.37-5.45,0.89-8.16,0.41c-14.83-2.6-26.25,1.77-34.37,14.95
		c-2.06,3.35-6.6,7.68-9.52,7.35c-3.32-0.38-8.09-5.23-8.52-8.6c-0.37-2.89,4.4-6.54,7.07-9.7c8.51-10.04,16.77-20.31,25.75-29.9
		c7.79-8.32,16.24-16.08,24.8-23.63c3.65-3.22,10.82-8.34,12.1-7.3C524.62,406.17,528.33,412.51,533.81,419.63z"/>
	<path d="M246.75,271.23c7.42-4.55,12.12-3.22,9.76,6.12c-4.06,16.05-9.68,31.71-13.71,47.76c-1.16,4.63,1.15,10.04,1.33,15.12
		c0.19,5.42,0.48,11.04-0.84,16.18c-0.42,1.66-5.98,3.18-8.78,2.64c-1.76-0.33-3.65-4.49-3.99-7.12
		c-3.15-24.34-6.4-48.68-8.55-73.11c-0.45-5.1,3.52-10.58,5.46-15.89C233.87,265.7,240.31,268.47,246.75,271.23z"/>
	<path d="M262.63,139.42c-2.04,16.16-3.9,32.34-6.34,48.44c-0.33,2.16-4.08,5.84-5.31,5.49c-5.9-1.65-15.11-3.11-16.57-7.06
		c-6.98-18.88-10.03-38.65,0.14-57.67c2.61-4.88,9.19-12.94,10.48-12.32c6.32,3.04,11.91,8.1,16.84,13.32
		c2.05,2.17,1.8,6.5,2.6,9.85C263.85,139.45,263.24,139.44,262.63,139.42z"/>
	<path d="M374.51,397.14c7.41-17.41,13.86-35.33,22.57-52.06c5.52-10.61,12.61-9.67,18.82,1.11c6.41,11.14,19.52,21.41,6.49,36.1
		c-2.58,2.91-4.97,7.02-8.26,8.09c-11.33,3.67-23.03,6.25-34.58,9.24C377.87,398.8,376.19,397.97,374.51,397.14z"/>
	<path d="M586.93,366.9c-2.82,3.49-7.13,10.64-13.16,15.76c-5.57,4.73-12.75,7.9-19.68,10.54c-3.98,1.51-11.02,2.46-12.9,0.33
		c-2.92-3.3-4.54-10.01-3.31-14.3c4.38-15.24,14.42-25.93,29.97-30.69C580.56,344.64,587.13,349.45,586.93,366.9z"/>
	<path d="M475.68,238.38c1.81,16.65-10.4,28.08-20.75,39.96c-5.65,6.49-15.17,1.96-17.67-7.52c-3.33-12.68,12.21-45.04,24.15-50.29
		C471.64,216.04,475.75,220.75,475.68,238.38z"/>
	<path d="M356.13,627.25c-15.6,41.17-27.84,50.75-51.14,40.74C309.15,647.65,337.94,624.15,356.13,627.25z"/>
	<path d="M431.56,345.7c-20.05-10.32-23.04-25.31-9.63-43.12c5.09-6.76,9.93-13.7,15.46-21.36c7.53,2.97,10.59,8.41,5.68,17.74
		c-1.58,3-2.54,7.1-1.92,10.33C444.04,324.33,442.81,330.12,431.56,345.7z"/>
	<path d="M260.56,254.9c-6.94-1.8-11.81-3.33-16.8-4.29c-5.27-1.02-10.65-1.5-18.31-2.54c2.62-13.26,5.14-26.06,7.66-38.81
		c15.45,0.14,20.69,7.41,21.3,20.62C254.76,237.36,257.94,244.71,260.56,254.9z"/>
	<path d="M76.4,406.03c5.63,13.49,13.26,25.32,14.86,37.9c1.02,8.09-6.83,17.3-10.91,26.45C66.13,460.1,64.85,431.46,76.4,406.03z"
		/>
	<path d="M98.9,496.77c-1.99,17.41-3.4,33.73-6.03,49.84c-0.58,3.58-5.46,6.45-8.35,9.65c-1.52-4.26-5.14-9.09-4.18-12.69
		C84.53,527.91,80.74,509.22,98.9,496.77z"/>
	<path d="M406.2,400.55c-8.29,12.97-15.29,23.93-24.87,38.93c-3.98-8.25-8.58-13.34-8.28-18.11
		C373.62,412.41,392.93,399.87,406.2,400.55z"/>
	<path d="M97.54,465.87c-4.29,11.89-8.58,23.78-14.19,39.3c-4.81-5.83-10.45-10.35-9.69-12.12c4.57-10.63,10.62-20.62,16.17-30.83
		C92.4,463.43,94.97,464.65,97.54,465.87z"/>
	<path d="M285.46,381.68c17.14-12.11,24.37-10.99,33.89,4.53C307.26,392.41,297.09,389.77,285.46,381.68z"/>
	<path d="M246.75,271.23c-6.44-2.76-12.88-5.53-19.32-8.29c2.47-2.93,5.03-8.41,7.4-8.33c7.85,0.27,15.63,2.54,27.25,4.77
		C254.65,265.12,250.7,268.18,246.75,271.23z"/>
	<path d="M265.31,497.22c10.36-1.36,21.09-6.95,30.51,2.39c-0.13,1.93-0.26,3.86-0.38,5.79c-10.09-0.67-20.19-1.34-30.28-2.01
		C265.2,501.34,265.26,499.28,265.31,497.22z"/>
	<path d="M350.46,440.91c-0.92-6.82-1.84-13.64-2.76-20.46c1.9-0.66,3.8-1.32,5.7-1.98c4,5.17,8.58,10.05,11.46,15.78
		c0.5,0.99-6.24,5.6-9.63,8.54C353.64,442.16,352.05,441.53,350.46,440.91z"/>
	<path d="M272.45,633.95c-8.08-2.52-16.15-5.03-24.23-7.55c0.74-2.65,1.48-5.3,2.22-7.94c8.21,2.06,16.41,4.12,24.62,6.18
		C274.2,627.75,273.32,630.85,272.45,633.95z"/>
	<path d="M304.54,361.3c5.96-2.45,11.93-4.9,17.89-7.35c1.15,1.11,2.3,2.21,3.45,3.32c-1.94,4.24-2.87,10.6-6.1,12.15
		c-3.71,1.78-9.47-0.7-14.34-1.33C305.15,365.83,304.85,363.57,304.54,361.3z"/>
	<path class="st0" d="M46.89,312.98c3.9,6.72,7.81,13.45,11.71,20.17c-1.79,1.15-3.57,2.31-5.36,3.46
		c-4.65-6.16-9.31-12.31-13.96-18.47C41.81,316.42,44.35,314.7,46.89,312.98z"/>
</g>
</svg>
