<?xml version="1.0" encoding="utf-8"?>
<!-- Generator: Adobe Illustrator 24.3.0, SVG Export Plug-In . SVG Version: 6.00 Build 0)  -->
<svg version="1.1" id="Layer_1" xmlns="http://www.w3.org/2000/svg" xmlns:xlink="http://www.w3.org/1999/xlink" x="0px" y="0px"
	 viewBox="0 0 612 792" style="enable-background:new 0 0 612 792;" xml:space="preserve">
<style type="text/css">
	.st0{fill:#FFFFFF;}
</style>
<g>
	<path class="st0" d="M606,696c-200.57,0-401.14,0-602,0C4,495.56,4,295.01,4,94c200.48,0,401.24,0,602,0
		C606,294.44,606,495.17,606,696z M409.59,443.57c-20.12-29.68-19.1-54.8,2.81-82.79c17.51-22.36,40.72-36.95,67.4-45.06
		c24.26-7.37,49.2-12.54,73.95-18.18c24.68-5.63,30.36-13.53,27.21-40.14c-1.76-0.38-3.66-1.14-5.56-1.14
		c-110.79-0.08-221.57-0.1-332.36-0.05c-2.85,0-7.32,0.02-8.32,1.68c-11.75,19.44-34.21,18-50.17,18.82
		c-49.18,2.53-98.66-1.05-148.03-2.17c-3.7-0.08-7.41,0.5-14.23,1c5.24,7.88,8.44,13.82,12.68,18.9
		c46.61,55.79,107.51,78.67,178.82,76.79c20.15-0.53,36.57,5.61,46.43,23.83c9.39,17.36,5.98,33.52-9.55,48.52
		C304.79,443.57,356.48,443.57,409.59,443.57z M180.36,530.44c16.74,0,34.6-0.3,52.44,0.1c12.48,0.28,22.91-1.85,32.04-12.09
		c5.18-5.81,14.46-10.59,22.16-11.02c28.14-1.57,56.51-2.69,84.54-0.62c10.54,0.78,20.38,10.78,30.6,16.46
		c4.27,2.37,8.65,6.23,13.06,6.36c22.72,0.65,45.48,0.3,67.89,0.3c8.01-43.12-15.32-76.83-53.06-77.1
		c-67.32-0.48-134.64-0.38-201.96,0.19c-7.92,0.07-17.81,2.38-23.35,7.43C185.18,478.28,168.35,498.22,180.36,530.44z"/>
	<path d="M409.59,443.57c-53.11,0-104.8,0-158.91,0c15.53-15,18.95-31.16,9.55-48.52c-9.86-18.22-26.28-24.36-46.43-23.83
		c-71.31,1.88-132.21-21-178.82-76.79c-4.24-5.08-7.44-11.02-12.68-18.9c6.83-0.5,10.54-1.08,14.23-1
		c49.37,1.12,98.86,4.7,148.03,2.17c15.97-0.82,38.43,0.62,50.17-18.82c1-1.65,5.46-1.67,8.32-1.68
		c110.79-0.06,221.57-0.03,332.36,0.05c1.9,0,3.8,0.76,5.56,1.14c3.15,26.61-2.53,34.51-27.21,40.14
		c-24.75,5.65-49.7,10.81-73.95,18.18c-26.68,8.11-49.9,22.7-67.4,45.06C390.49,388.77,389.47,413.89,409.59,443.57z"/>
	<path d="M180.36,530.44c-12-32.22,4.83-52.16,24.37-69.99c5.53-5.05,15.43-7.37,23.35-7.43c67.32-0.57,134.64-0.67,201.96-0.19
		c37.74,0.27,61.07,33.97,53.06,77.1c-22.41,0-45.16,0.35-67.89-0.3c-4.42-0.13-8.8-3.99-13.06-6.36
		c-10.22-5.68-20.06-15.68-30.6-16.46c-28.03-2.07-56.4-0.95-84.54,0.62c-7.7,0.43-16.99,5.22-22.16,11.02
		c-9.13,10.24-19.56,12.38-32.04,12.09C214.95,530.14,197.09,530.44,180.36,530.44z"/>
</g>
</svg>
