<?xml version="1.0" encoding="utf-8"?>
<!-- Generator: Adobe Illustrator 24.3.0, SVG Export Plug-In . SVG Version: 6.00 Build 0)  -->
<svg version="1.1" id="Layer_1" xmlns="http://www.w3.org/2000/svg" xmlns:xlink="http://www.w3.org/1999/xlink" x="0px" y="0px"
	 viewBox="0 0 612 792" style="enable-background:new 0 0 612 792;" xml:space="preserve">
<style type="text/css">
	.st0{fill:#FFFFFF;}
</style>
<g>
	<path class="st0" d="M7,361.79C7,273.52,7,185.26,7,97c199.33,0,398.67,0,598,0c0,199.33,0,398.67,0,598
		c-87.27,0-174.54,0-261.81,0c2.81-0.85,5.56-2.06,8.43-2.5c111.5-17.18,190.4-77.75,238.59-179.18c3.54-7.45,6.28-15.27,9.4-22.92
		c-103.04,143.33-296.53,157.98-418.18,51.64C53.98,430.63,50.31,219,198.89,105.04c-5.15,1.5-7.95,1.95-10.42,3.1
		C102.78,148.1,46.2,213.43,19.27,303.97C13.68,322.79,11.01,342.49,7,361.79z"/>
	<path d="M7,361.79c4.01-19.3,6.68-38.99,12.27-57.82c26.92-90.54,83.51-155.87,169.2-195.83c2.47-1.15,5.27-1.6,10.42-3.1
		C50.31,219,53.98,430.63,181.42,542.04c121.65,106.35,315.15,91.7,418.18-51.64c-3.11,7.65-5.86,15.47-9.4,22.92
		c-48.19,101.42-127.09,162-238.59,179.18c-2.87,0.44-5.62,1.65-8.43,2.5c-20.83,0-41.65,0-62.48,0c-2.31-0.8-4.57-2-6.95-2.34
		C146.57,674.32,48.68,587.65,16.81,464.58c-4.19-16.17-6.58-32.81-9.81-49.24C7,397.49,7,379.64,7,361.79z"/>
	<path class="st0" d="M7,415.34c3.22,16.42,5.62,33.06,9.81,49.24c31.87,123.07,129.76,209.75,256.95,228.08
		c2.38,0.34,4.64,1.54,6.95,2.34c-91.24,0-182.47,0-273.71,0C7,601.78,7,508.56,7,415.34z"/>
</g>
</svg>
