<?xml version="1.0" encoding="utf-8"?>
<!-- Generator: Adobe Illustrator 24.3.0, SVG Export Plug-In . SVG Version: 6.00 Build 0)  -->
<svg version="1.1" id="Layer_1" xmlns="http://www.w3.org/2000/svg" xmlns:xlink="http://www.w3.org/1999/xlink" x="0px" y="0px"
	 viewBox="0 0 612 792" style="enable-background:new 0 0 612 792;" xml:space="preserve">
<style type="text/css">
	.st0{fill:#FFFFFF;}
</style>
<g>
	<path class="st0" d="M607,697c-200,0-400,0-600,0C7,497,7,297,7,97c200,0,400,0,600,0C607,297,607,497,607,697z M415.26,568.11
		c-40.16-84.53-35.23-173.69-38.9-261.25c-48.09,0-94.59,0-141.91,0c-3.08,88.64,0.84,177.56-38.4,261.25
		C269.93,568.11,340.91,568.11,415.26,568.11z M192.15,155.45c0,31.37-0.36,61.16,0.16,90.93c0.25,14.13,9.63,23.4,23.74,23.48
		c59.64,0.32,119.27,0.23,178.91,0.06c12.57-0.04,22.49-7.18,23.02-19.09c1.39-31.55,0.47-63.19,0.47-95.37
		c-14.22,0-26.88,0-41.25,0c0,12.4,0,24.06,0,36.01c-12.79,0-23.85,0-36.63,0c0-12.66,0-24.27,0-35.85c-24.37,0-46.98,0-71.25,0
		c0,12.61,0,24.27,0,35.66c-12.77,0-23.83,0-36.05,0c0-12.51,0-23.78,0-35.83C219.44,155.45,206.78,155.45,192.15,155.45z
		 M305.87,604.44c-43.78,0-87.55-0.03-131.33,0.01c-18.13,0.02-30.41,9.3-30.94,23.21c-0.54,14.05,12.91,25.32,30.92,25.33
		c87.06,0.09,174.11,0.08,261.17,0.01c18.44-0.01,31.6-10.41,31.69-24.58c0.09-14.4-12.51-23.97-31.67-23.98
		C392.43,604.43,349.15,604.44,305.87,604.44z M305.63,598.4c37.75,0,75.5-0.1,113.24,0.08c8.66,0.04,17.13-0.95,17.46-11.35
		c0.37-11.45-8.48-12.61-17.74-12.59c-75.5,0.11-150.99,0.11-226.49-0.01c-8.65-0.01-17.12,1.03-17.46,11.4
		c-0.38,11.48,8.48,12.58,17.74,12.54C230.13,598.3,267.88,598.4,305.63,598.4z M304.9,299.98c28.3,0,56.61-0.11,84.91,0.07
		c8.88,0.06,16.83-1.78,16.74-12.15c-0.1-10.46-8.27-11.78-17.03-11.76c-56.11,0.14-112.22,0.14-168.33,0
		c-8.85-0.02-16.87,1.58-16.74,12.05c0.13,10.41,8.26,11.91,17.03,11.86C249.29,299.87,277.09,299.98,304.9,299.98z"/>
	<path d="M415.26,568.11c-74.35,0-145.33,0-219.21,0c39.24-83.69,35.32-172.61,38.4-261.25c47.32,0,93.82,0,141.91,0
		C380.03,394.42,375.1,483.58,415.26,568.11z"/>
	<path d="M192.15,155.45c14.64,0,27.3,0,41.13,0c0,12.05,0,23.31,0,35.83c12.21,0,23.27,0,36.05,0c0-11.39,0-23.05,0-35.66
		c24.27,0,46.88,0,71.25,0c0,11.58,0,23.19,0,35.85c12.78,0,23.84,0,36.63,0c0-11.96,0-23.61,0-36.01c14.36,0,27.02,0,41.25,0
		c0,32.18,0.92,63.83-0.47,95.37c-0.52,11.91-10.45,19.06-23.02,19.09c-59.64,0.17-119.28,0.26-178.91-0.06
		c-14.11-0.08-23.49-9.35-23.74-23.48C191.78,216.6,192.15,186.81,192.15,155.45z"/>
	<path d="M305.87,604.44c43.28,0,86.56-0.01,129.84,0.01c19.15,0.01,31.75,9.58,31.67,23.98c-0.08,14.16-13.24,24.56-31.69,24.58
		c-87.06,0.07-174.11,0.08-261.17-0.01c-18.02-0.02-31.46-11.28-30.92-25.33c0.53-13.91,12.82-23.19,30.94-23.21
		C218.31,604.41,262.09,604.44,305.87,604.44z"/>
	<path d="M305.63,598.4c-37.75,0-75.5-0.1-113.24,0.07c-9.26,0.04-18.11-1.06-17.74-12.54c0.34-10.38,8.81-11.42,17.46-11.4
		c75.5,0.12,150.99,0.12,226.49,0.01c9.25-0.01,18.11,1.15,17.74,12.59c-0.34,10.4-8.8,11.39-17.46,11.35
		C381.13,598.3,343.38,598.4,305.63,598.4z"/>
	<path d="M304.9,299.98c-27.81,0-55.61-0.11-83.42,0.07c-8.77,0.06-16.9-1.44-17.03-11.86c-0.13-10.46,7.88-12.07,16.74-12.05
		c56.11,0.14,112.22,0.14,168.33,0c8.77-0.02,16.94,1.3,17.03,11.76c0.1,10.37-7.86,12.2-16.74,12.15
		C361.51,299.87,333.2,299.98,304.9,299.98z"/>
</g>
</svg>
