<?xml version="1.0" encoding="utf-8"?>
<!-- Generator: Adobe Illustrator 24.3.0, SVG Export Plug-In . SVG Version: 6.00 Build 0)  -->
<svg version="1.1" id="Layer_1" xmlns="http://www.w3.org/2000/svg" xmlns:xlink="http://www.w3.org/1999/xlink" x="0px" y="0px"
	 viewBox="0 0 612 792" style="enable-background:new 0 0 612 792;" xml:space="preserve">
<style type="text/css">
	.st0{fill:#FFFFFF;}
</style>
<g>
	<path class="st0" d="M603,693c-198,0-396,0-594,0C9,495,9,297,9,99c198,0,396,0,594,0C603,297,603,495,603,693z M228.79,361.12
		C345.83,464.12,461.32,565.76,576.8,667.4c1.31-0.61,2.62-1.21,3.93-1.82c-2.97-13.1-3.93-27.11-9.34-39.12
		c-11.25-25.01-23.03-50.14-37.84-73.12c-43.11-66.9-96.43-125.43-152.93-181.86c-18.06,11.75-35.96,13.63-52.5-0.1
		c-18.27-15.17-17.99-34.5-8.45-54.59c-9.87-8.66-19.08-16.74-29.28-25.68C269.97,314.32,249.89,337.14,228.79,361.12z
		 M252.71,138.94c-0.55,0.47-1.11,0.94-1.66,1.4c15.57,24.74,31.13,49.47,46.96,74.62c-22.45,25.47-44.34,50.29-66.72,75.68
		c-34.61-47.95-76.31-84.81-125.55-113.19c0.37-5.32,1.08-10.19,0.99-15.03c-0.38-20.41-20.43-39.9-39.32-38.45
		c-21.18,1.62-39.78,24.14-36.57,44.29c3.57,22.45,24.21,37.24,46.44,31.71c8.64-2.15,11.71,1.51,16.75,6.79
		c23.37,24.52,46.61,49.29,71.51,72.21c13.81,12.71,30.81,21.97,46.9,33.16c-15.52,17.63-30.78,34.94-46.02,52.29
		c-16.15,18.39-16.13,18.38-37.8,8.31c-18.68-8.68-37.38-17.32-56.07-25.97c-0.46,0.88-0.93,1.75-1.39,2.63
		c26,22.88,51.99,45.76,78.46,69.05c61.77-70.19,122.41-139.11,183.57-208.61C305.38,185.34,279.04,162.14,252.71,138.94z"/>
	<path d="M228.79,361.12c21.1-23.98,41.18-46.8,61.6-70.01c10.2,8.95,19.41,17.02,29.28,25.68c-9.54,20.09-9.82,39.42,8.45,54.59
		c16.54,13.73,34.44,11.85,52.5,0.1c56.49,56.43,109.82,114.96,152.93,181.86c14.81,22.99,26.59,48.11,37.84,73.12
		c5.4,12.01,6.37,26.02,9.34,39.12c-1.31,0.61-2.62,1.21-3.93,1.82C461.32,565.76,345.83,464.12,228.79,361.12z"/>
	<path d="M252.71,138.94c26.34,23.2,52.67,46.4,80.47,70.89c-61.15,69.5-121.8,138.41-183.57,208.61
		c-26.46-23.29-52.46-46.17-78.46-69.05c0.46-0.88,0.93-1.75,1.39-2.63c18.69,8.66,37.39,17.29,56.07,25.97
		c21.67,10.07,21.65,10.08,37.8-8.31c15.24-17.34,30.5-34.66,46.02-52.29c-16.09-11.19-33.09-20.45-46.9-33.16
		c-24.9-22.92-48.13-47.69-71.51-72.21c-5.04-5.29-8.11-8.94-16.75-6.79c-22.24,5.53-42.88-9.26-46.44-31.71
		c-3.2-20.15,15.39-42.67,36.57-44.29c18.9-1.45,38.95,18.04,39.32,38.45c0.09,4.85-0.62,9.71-0.99,15.03
		c49.24,28.38,90.94,65.24,125.55,113.19c22.38-25.38,44.26-50.21,66.72-75.68c-15.83-25.15-31.39-49.89-46.96-74.62
		C251.6,139.88,252.16,139.41,252.71,138.94z M50.64,158.36c-0.2,2.21-0.39,4.41-0.59,6.62c5.58,4.83,10.46,12.11,16.89,13.93
		c9.95,2.82,17.19-4.04,18.23-14.07c1.07-10.33-5.68-17.88-15.41-17.28C63.19,147.97,57,154.55,50.64,158.36z"/>
	<path class="st0" d="M50.64,158.36c6.36-3.82,12.55-10.4,19.12-10.8c9.74-0.6,16.49,6.95,15.41,17.28
		c-1.04,10.04-8.28,16.89-18.23,14.07c-6.43-1.82-11.31-9.1-16.89-13.93C50.25,162.78,50.44,160.57,50.64,158.36z"/>
</g>
</svg>
