<?xml version="1.0" encoding="utf-8"?>
<!-- Generator: Adobe Illustrator 24.3.0, SVG Export Plug-In . SVG Version: 6.00 Build 0)  -->
<svg version="1.1" id="Layer_1" xmlns="http://www.w3.org/2000/svg" xmlns:xlink="http://www.w3.org/1999/xlink" x="0px" y="0px"
	 viewBox="0 0 612 792" style="enable-background:new 0 0 612 792;" xml:space="preserve">
<style type="text/css">
	.st0{fill:#FFFFFF;}
</style>
<g>
	<path class="st0" d="M12,387.21c0-95.07,0-190.14,0-285.21c197,0,394,0,591,0c0,197,0,394,0,591c-197,0-394,0-591,0
		c0-96.05,0-192.1,0-288.15c45.96,50.42,98.7,92.07,160.36,121.63c71.53,34.29,145.21,44.2,222.02,18.2
		c78.96-26.73,143.48-74.77,200.55-134.01c8.67-9,7.44-21.68-1.96-31.47c-41.65-43.39-88.06-80.8-141.89-107.93
		c-57.74-29.11-118.16-46.8-183.89-35.47C162.86,253.77,82.61,312.39,12,387.21z"/>
	<path d="M12,387.21c70.61-74.82,150.86-133.44,255.18-151.42c65.73-11.32,126.15,6.37,183.89,35.47
		c53.83,27.13,100.24,64.54,141.89,107.93c9.4,9.79,10.63,22.47,1.96,31.47c-57.06,59.24-121.58,107.27-200.55,134.01
		c-76.81,26-150.49,16.1-222.02-18.2C110.7,496.92,57.96,455.27,12,404.85C12,398.97,12,393.09,12,387.21z M71.9,395.14
		c30.2,35.87,112.3,89.43,150.12,97.54c-31.59-25.79-50.52-56.2-50.65-96.34c-0.14-40.26,18.88-70.86,48.29-96.73
		C163.01,320.19,115.88,354.33,71.9,395.14z M392.87,492.46c56.26-20.73,103.76-54.78,147.01-95.48
		c-27.78-34.78-119.56-94.34-147.45-96.2C456.27,353.04,458.2,437.07,392.87,492.46z M201.39,355
		c-0.11,24.54,20.72,46.02,45.25,46.67c24.45,0.65,47.06-21.75,46.98-46.55c-0.07-24.59-20.88-45.94-45.38-46.57
		C223.38,307.91,201.51,329.6,201.39,355z"/>
	<path class="st0" d="M71.9,395.14c43.98-40.81,91.11-74.94,147.75-95.53c-29.41,25.86-48.43,56.47-48.29,96.73
		c0.14,40.14,19.07,70.56,50.65,96.34C184.2,484.57,102.1,431,71.9,395.14z"/>
	<path class="st0" d="M392.87,492.46c65.33-55.38,63.4-139.42-0.45-191.68c27.9,1.86,119.68,61.41,147.45,96.2
		C496.63,437.68,449.14,471.73,392.87,492.46z"/>
	<path class="st0" d="M201.39,355c0.11-25.4,21.98-47.09,46.85-46.45c24.51,0.63,45.31,21.98,45.38,46.57
		c0.07,24.8-22.53,47.19-46.98,46.55C222.11,401.02,201.28,379.54,201.39,355z"/>
</g>
</svg>
