<?xml version="1.0" encoding="utf-8"?>
<!-- Generator: Adobe Illustrator 24.3.0, SVG Export Plug-In . SVG Version: 6.00 Build 0)  -->
<svg version="1.1" id="Layer_1" xmlns="http://www.w3.org/2000/svg" xmlns:xlink="http://www.w3.org/1999/xlink" x="0px" y="0px"
	 viewBox="0 0 612 792" style="enable-background:new 0 0 612 792;" xml:space="preserve">
<style type="text/css">
	.st0{fill:#FFFFFF;}
</style>
<g>
	<path class="st0" d="M607,697c-201.9,0-403.8,0-606,0C1,495.24,1,293.36,1,91c201.8,0,403.9,0,606,0C607,292.75,607,494.82,607,697
		z M185.59,402.86c0.27-1.62,0.55-3.24,0.82-4.86c9.34,0,18.69,0.15,28.03-0.03c27.09-0.52,54.26-0.1,81.25-2.12
		c22.34-1.67,43.53-20.68,52.85-43.6c-40.17,7.68-80.33,15.31-116.4-12.16c41.07-6.93,81.84-13.15,122.84-15.89
		c25.49-1.7,30.91-20.77,43.24-37.13c-86.03-4.2-89.27-4.88-97.27-19.89c22.84-2.6,45.99-3.78,68.48-8.25
		c18.7-3.72,40.41-6.76,54.12-18.14c31.46-26.13,64.71-47.33,103.5-59.79c14.08-4.53,28.45-8.15,42.68-12.19
		c-0.18-1.4-0.36-2.8-0.54-4.21c-25.64,1.95-51.67,1.73-76.85,6.24c-82.66,14.81-158.73,46.33-226.58,96.23
		c-64.98,47.78-114.29,107.41-132.3,187.96c-8.18,36.6-24.27,68.85-44.19,99.77c-14.14,21.95-28.63,43.68-42.9,65.56
		c-2.25,3.45-4.16,7.11-6.22,10.67c1.17,0.93,2.34,1.87,3.51,2.8c7.85-8.05,16.94-15.22,23.32-24.31
		c20.77-29.6,40.2-60.13,60.97-89.73c4.57-6.52,11.89-11.81,19-15.73c37.28-20.58,74.97-40.43,112.33-60.86
		c5.33-2.92,9.68-7.65,16.8-13.42C241.46,426.82,210.83,423.06,185.59,402.86z"/>
	<path d="M185.59,402.86c25.24,20.2,55.87,23.96,90.48,26.92c-7.12,5.77-11.46,10.5-16.8,13.42
		c-37.36,20.43-75.05,40.28-112.33,60.86c-7.12,3.93-14.43,9.21-19,15.73c-20.76,29.6-40.2,60.14-60.97,89.73
		c-6.37,9.08-15.47,16.26-23.32,24.31c-1.17-0.93-2.34-1.87-3.51-2.8c2.07-3.56,3.98-7.23,6.22-10.67
		c14.27-21.87,28.76-43.6,42.9-65.56c19.92-30.93,36.01-63.17,44.19-99.77c18.01-80.55,67.32-140.18,132.3-187.96
		c67.86-49.89,143.92-81.42,226.58-96.23c25.18-4.51,51.21-4.29,76.85-6.24c0.18,1.4,0.36,2.8,0.54,4.21
		c-14.24,4.04-28.6,7.67-42.68,12.19c-38.79,12.47-72.04,33.66-103.5,59.79c-13.71,11.38-35.42,14.42-54.12,18.14
		c-22.49,4.48-45.63,5.65-68.48,8.25c8,15.01,11.24,15.69,97.27,19.89c-12.34,16.36-17.76,35.43-43.24,37.13
		c-41,2.74-81.77,8.96-122.84,15.89c36.06,27.47,76.23,19.84,116.4,12.16c-9.32,22.92-30.51,41.93-52.85,43.6
		c-26.99,2.02-54.16,1.6-81.25,2.12c-9.34,0.18-18.69,0.03-28.03,0.03C186.14,399.62,185.86,401.24,185.59,402.86z"/>
</g>
</svg>
