<?xml version="1.0" encoding="utf-8"?>
<!-- Generator: Adobe Illustrator 24.3.0, SVG Export Plug-In . SVG Version: 6.00 Build 0)  -->
<svg version="1.1" id="Layer_1" xmlns="http://www.w3.org/2000/svg" xmlns:xlink="http://www.w3.org/1999/xlink" x="0px" y="0px"
	 viewBox="0 0 612 792" style="enable-background:new 0 0 612 792;" xml:space="preserve">
<style type="text/css">
	.st0{fill:#FFFFFF;}
</style>
<g>
	<path class="st0" d="M300.75,614.36c-70.92,0-141.84,0-212.75,0c0-145.45,0-290.91,0-436.36c145.45,0,290.91,0,436.36,0
		c0,145.45,0,290.91,0,436.36c-72.37,0-144.73,0-217.1,0c0.38-0.57,0.62-1.39,1.15-1.68c82.23-44.65,134.18-113.42,161.12-202.14
		c16.63-54.78,15.28-111.46,17.91-167.74c0.36-7.63-4.43-7.9-9.54-8.53c-59.03-7.27-115.14-23.92-167.88-51.71
		c-3.15-1.66-8.73-1.61-11.9,0.07c-52.71,27.92-108.83,44.6-167.92,51.47c-8.11,0.94-10.07,4.3-9.64,11.85
		c1.85,32.49,2.14,65.11,5.08,97.49c4.43,48.73,18.2,94.96,41.93,138.01C199.09,538.66,243.62,582.83,300.75,614.36z"/>
	<path d="M300.75,614.36c-57.14-31.54-101.66-75.7-133.19-132.91c-23.72-43.05-37.49-89.29-41.93-138.01
		c-2.94-32.38-3.24-65-5.08-97.49c-0.43-7.55,1.53-10.9,9.64-11.85c59.09-6.86,115.21-23.55,167.92-51.47
		c3.17-1.68,8.74-1.73,11.9-0.07c52.75,27.79,108.85,44.43,167.88,51.71c5.12,0.63,9.9,0.9,9.54,8.53
		c-2.63,56.28-1.28,112.96-17.91,167.74c-26.93,88.71-78.88,157.49-161.12,202.14c-0.53,0.29-0.77,1.11-1.15,1.68
		C305.1,614.36,302.93,614.36,300.75,614.36z M136.55,250.12c-2.52,24.72,3.96,111.25,10.18,138.83
		c19.68,87.21,66.61,155.12,142.62,202.82c10.52,6.6,19.19,6.89,29.7,0.36c33.24-20.65,61.86-46.17,85.92-77.06
		c61.01-78.32,69.21-170.06,67.9-265.07c-4.09-0.83-8.24-1.98-12.47-2.49c-52.66-6.34-102.31-22.15-149.43-46.42
		c-3.58-1.84-9.59-0.88-13.76,0.67c-31.79,11.79-62.97,25.42-95.23,35.68C181.13,244.08,158.78,245.99,136.55,250.12z"/>
	<path class="st0" d="M136.55,250.12c22.22-4.13,44.57-6.04,65.42-12.67c32.26-10.26,63.44-23.89,95.23-35.68
		c4.18-1.55,10.19-2.52,13.76-0.67c47.13,24.27,96.78,40.08,149.43,46.42c4.23,0.51,8.38,1.66,12.47,2.49
		c1.32,95.01-6.89,186.76-67.9,265.07c-24.06,30.89-52.68,56.41-85.92,77.06c-10.51,6.53-19.18,6.24-29.7-0.36
		c-76.01-47.7-122.94-115.61-142.62-202.82C140.51,361.37,134.03,274.85,136.55,250.12z M462.08,305.58
		c0-12.28-0.55-24.6,0.19-36.84c0.51-8.42-1.72-12.31-10.66-13.38c-50.03-5.99-97.41-20.61-141.93-44.42
		c-2.86-1.53-7.99-1.44-10.88,0.1c-44.85,23.99-92.59,38.64-143,44.55c-7.97,0.93-10.17,4.25-9.7,11.91
		c1.74,28.49,1.51,57.17,4.64,85.49c10.75,97.15,55.04,174.38,138.05,228.22c11.06,7.17,19.8,6.64,30.46-0.07
		c50.09-31.52,87.21-74.32,111.87-127.87C452.66,406.48,460.38,356.71,462.08,305.58z"/>
	<path d="M462.08,305.58c-1.7,51.13-9.42,100.9-30.97,147.7c-24.65,53.55-61.78,96.35-111.87,127.87
		c-10.66,6.71-19.4,7.24-30.46,0.07C205.78,527.38,161.49,450.15,150.74,353c-3.13-28.32-2.9-57-4.64-85.49
		c-0.47-7.66,1.73-10.98,9.7-11.91c50.42-5.91,98.15-20.55,143-44.55c2.89-1.55,8.02-1.63,10.88-0.1
		c44.53,23.81,91.9,38.43,141.93,44.42c8.94,1.07,11.17,4.96,10.66,13.38C461.53,280.98,462.08,293.3,462.08,305.58z"/>
</g>
</svg>
